<?xml version="1.0" encoding="UTF-8" standalone="no"?>
<!DOCTYPE svg PUBLIC "-//W3C//DTD SVG 1.1//EN"
 "http://www.w3.org/Graphics/SVG/1.1/DTD/svg11.dtd">
<!-- Generated by graphviz version 2.38.0 (20140413.2041)
 -->
<!-- Pages: 1 -->
<svg width="1249pt" height="980pt"
 viewBox="0.00 0.00 1249.00 980.00" xmlns="http://www.w3.org/2000/svg" xmlns:xlink="http://www.w3.org/1999/xlink">
<g id="graph0" class="graph" transform="scale(1 1) rotate(0) translate(4 976)">
<polygon fill="white" stroke="none" points="-4,4 -4,-976 1245,-976 1245,4 -4,4"/>
<!-- LibXML -->
<g id="node1" class="node"><title>LibXML</title>
<ellipse fill="none" stroke="black" cx="981" cy="-306" rx="42.7926" ry="18"/>
<text text-anchor="middle" x="981" y="-302.3" font-family="Times,serif" font-size="14.00">LibXML</text>
</g>
<!-- expression/constant -->
<g id="node2" class="node"><title>expression/constant</title>
<ellipse fill="none" stroke="black" cx="610" cy="-306" rx="79.8859" ry="18"/>
<text text-anchor="middle" x="610" y="-302.3" font-family="Times,serif" font-size="14.00">expression/constant</text>
</g>
<!-- expression -->
<g id="node33" class="node"><title>expression</title>
<ellipse fill="none" stroke="black" cx="517" cy="-234" rx="48.1917" ry="18"/>
<text text-anchor="middle" x="517" y="-230.3" font-family="Times,serif" font-size="14.00">expression</text>
</g>
<!-- expression/constant&#45;&gt;expression -->
<g id="edge1" class="edge"><title>expression/constant&#45;&gt;expression</title>
<path fill="none" stroke="black" d="M587.96,-288.411C575.328,-278.902 559.328,-266.86 545.72,-256.617"/>
<polygon fill="black" stroke="black" points="547.702,-253.728 537.607,-250.511 543.492,-259.321 547.702,-253.728"/>
</g>
<!-- logger -->
<g id="node3" class="node"><title>logger</title>
<ellipse fill="none" stroke="black" cx="849" cy="-234" rx="33.2948" ry="18"/>
<text text-anchor="middle" x="849" y="-230.3" font-family="Times,serif" font-size="14.00">logger</text>
</g>
<!-- error -->
<g id="node18" class="node"><title>error</title>
<ellipse fill="none" stroke="black" cx="1090" cy="-90" rx="27.8951" ry="18"/>
<text text-anchor="middle" x="1090" y="-86.3" font-family="Times,serif" font-size="14.00">error</text>
</g>
<!-- logger&#45;&gt;error -->
<g id="edge2" class="edge"><title>logger&#45;&gt;error</title>
<path fill="none" stroke="black" d="M870.812,-220.148C914.462,-194.429 1012.54,-136.64 1061.32,-107.897"/>
<polygon fill="black" stroke="black" points="1063.27,-110.81 1070.11,-102.718 1059.72,-104.779 1063.27,-110.81"/>
</g>
<!-- Boost -->
<g id="node20" class="node"><title>Boost</title>
<ellipse fill="none" stroke="black" cx="864" cy="-90" rx="31.3957" ry="18"/>
<text text-anchor="middle" x="864" y="-86.3" font-family="Times,serif" font-size="14.00">Boost</text>
</g>
<!-- logger&#45;&gt;Boost -->
<g id="edge3" class="edge"><title>logger&#45;&gt;Boost</title>
<path fill="none" stroke="black" d="M850.809,-215.871C853.366,-191.67 858.062,-147.211 861.106,-118.393"/>
<polygon fill="black" stroke="black" points="864.614,-118.502 862.184,-108.189 857.653,-117.766 864.614,-118.502"/>
</g>
<!-- version -->
<g id="node4" class="node"><title>version</title>
<ellipse fill="none" stroke="black" cx="1078" cy="-810" rx="36.2938" ry="18"/>
<text text-anchor="middle" x="1078" y="-806.3" font-family="Times,serif" font-size="14.00">version</text>
</g>
<!-- event_tree -->
<g id="node5" class="node"><title>event_tree</title>
<ellipse fill="none" stroke="black" cx="759" cy="-450" rx="47.3916" ry="18"/>
<text text-anchor="middle" x="759" y="-446.3" font-family="Times,serif" font-size="14.00">event_tree</text>
</g>
<!-- event_tree&#45;&gt;expression -->
<g id="edge4" class="edge"><title>event_tree&#45;&gt;expression</title>
<path fill="none" stroke="black" d="M767.972,-432.186C783.669,-400.201 811.337,-330.042 777,-288 751.95,-257.329 643.282,-243.95 574.605,-238.47"/>
<polygon fill="black" stroke="black" points="574.599,-234.96 564.362,-237.688 574.066,-241.939 574.599,-234.96"/>
</g>
<!-- scram -->
<g id="node6" class="node"><title>scram</title>
<ellipse fill="none" stroke="black" cx="1080" cy="-954" rx="32.4942" ry="18"/>
<text text-anchor="middle" x="1080" y="-950.3" font-family="Times,serif" font-size="14.00">scram</text>
</g>
<!-- reporter -->
<g id="node26" class="node"><title>reporter</title>
<ellipse fill="none" stroke="black" cx="1080" cy="-882" rx="38.1938" ry="18"/>
<text text-anchor="middle" x="1080" y="-878.3" font-family="Times,serif" font-size="14.00">reporter</text>
</g>
<!-- scram&#45;&gt;reporter -->
<g id="edge5" class="edge"><title>scram&#45;&gt;reporter</title>
<path fill="none" stroke="black" d="M1080,-935.697C1080,-927.983 1080,-918.712 1080,-910.112"/>
<polygon fill="black" stroke="black" points="1083.5,-910.104 1080,-900.104 1076.5,-910.104 1083.5,-910.104"/>
</g>
<!-- config -->
<g id="node38" class="node"><title>config</title>
<ellipse fill="none" stroke="black" cx="1128" cy="-450" rx="33.2948" ry="18"/>
<text text-anchor="middle" x="1128" y="-446.3" font-family="Times,serif" font-size="14.00">config</text>
</g>
<!-- scram&#45;&gt;config -->
<g id="edge7" class="edge"><title>scram&#45;&gt;config</title>
<path fill="none" stroke="black" d="M1104,-941.688C1143.04,-921.427 1216,-875.004 1216,-811 1216,-811 1216,-811 1216,-737 1216,-632.472 1231.78,-596.97 1184,-504 1177.42,-491.192 1166.48,-479.789 1156.01,-470.872"/>
<polygon fill="black" stroke="black" points="1158.15,-468.106 1148.17,-464.556 1153.76,-473.556 1158.15,-468.106"/>
</g>
<!-- initializer -->
<g id="node40" class="node"><title>initializer</title>
<ellipse fill="none" stroke="black" cx="751" cy="-594" rx="44.393" ry="18"/>
<text text-anchor="middle" x="751" y="-590.3" font-family="Times,serif" font-size="14.00">initializer</text>
</g>
<!-- scram&#45;&gt;initializer -->
<g id="edge6" class="edge"><title>scram&#45;&gt;initializer</title>
<path fill="none" stroke="black" d="M1063.22,-938.383C1052.96,-928.54 1040.43,-914.708 1033,-900 1014.76,-863.9 1014,-851.447 1014,-811 1014,-811 1014,-811 1014,-737 1014,-696.553 1023.55,-676.651 995,-648 993.255,-646.249 869.962,-620.052 799.332,-605.159"/>
<polygon fill="black" stroke="black" points="799.821,-601.685 789.314,-603.048 798.377,-608.535 799.821,-601.685"/>
</g>
<!-- risk_analysis -->
<g id="node7" class="node"><title>risk_analysis</title>
<ellipse fill="none" stroke="black" cx="756" cy="-810" rx="56.59" ry="18"/>
<text text-anchor="middle" x="756" y="-806.3" font-family="Times,serif" font-size="14.00">risk_analysis</text>
</g>
<!-- uncertainty_analysis -->
<g id="node8" class="node"><title>uncertainty_analysis</title>
<ellipse fill="none" stroke="black" cx="848" cy="-738" rx="83.3857" ry="18"/>
<text text-anchor="middle" x="848" y="-734.3" font-family="Times,serif" font-size="14.00">uncertainty_analysis</text>
</g>
<!-- risk_analysis&#45;&gt;uncertainty_analysis -->
<g id="edge9" class="edge"><title>risk_analysis&#45;&gt;uncertainty_analysis</title>
<path fill="none" stroke="black" d="M776.876,-793.116C789.081,-783.829 804.69,-771.953 818.175,-761.693"/>
<polygon fill="black" stroke="black" points="820.407,-764.392 826.246,-755.552 816.169,-758.821 820.407,-764.392"/>
</g>
<!-- random -->
<g id="node9" class="node"><title>random</title>
<ellipse fill="none" stroke="black" cx="461" cy="-162" rx="38.1938" ry="18"/>
<text text-anchor="middle" x="461" y="-158.3" font-family="Times,serif" font-size="14.00">random</text>
</g>
<!-- risk_analysis&#45;&gt;random -->
<g id="edge10" class="edge"><title>risk_analysis&#45;&gt;random</title>
<path fill="none" stroke="black" d="M701.934,-804.583C528.904,-789.732 0,-738.488 0,-667 0,-667 0,-667 0,-305 0,-219.135 295.793,-179.717 413.506,-167.43"/>
<polygon fill="black" stroke="black" points="414.073,-170.891 423.665,-166.391 413.361,-163.927 414.073,-170.891"/>
</g>
<!-- importance_analysis -->
<g id="node13" class="node"><title>importance_analysis</title>
<ellipse fill="none" stroke="black" cx="664" cy="-738" rx="83.3857" ry="18"/>
<text text-anchor="middle" x="664" y="-734.3" font-family="Times,serif" font-size="14.00">importance_analysis</text>
</g>
<!-- risk_analysis&#45;&gt;importance_analysis -->
<g id="edge11" class="edge"><title>risk_analysis&#45;&gt;importance_analysis</title>
<path fill="none" stroke="black" d="M735.124,-793.116C722.919,-783.829 707.31,-771.953 693.825,-761.693"/>
<polygon fill="black" stroke="black" points="695.831,-758.821 685.754,-755.552 691.593,-764.392 695.831,-758.821"/>
</g>
<!-- model -->
<g id="node14" class="node"><title>model</title>
<ellipse fill="none" stroke="black" cx="593" cy="-522" rx="33.2948" ry="18"/>
<text text-anchor="middle" x="593" y="-518.3" font-family="Times,serif" font-size="14.00">model</text>
</g>
<!-- risk_analysis&#45;&gt;model -->
<g id="edge12" class="edge"><title>risk_analysis&#45;&gt;model</title>
<path fill="none" stroke="black" d="M705.891,-801.434C657.146,-792.928 588.142,-777.448 572,-756 525.468,-694.173 559.827,-595.322 580.448,-548.798"/>
<polygon fill="black" stroke="black" points="583.753,-549.987 584.728,-539.438 577.387,-547.077 583.753,-549.987"/>
</g>
<!-- mocus -->
<g id="node30" class="node"><title>mocus</title>
<ellipse fill="none" stroke="black" cx="952" cy="-666" rx="34.394" ry="18"/>
<text text-anchor="middle" x="952" y="-662.3" font-family="Times,serif" font-size="14.00">mocus</text>
</g>
<!-- risk_analysis&#45;&gt;mocus -->
<g id="edge8" class="edge"><title>risk_analysis&#45;&gt;mocus</title>
<path fill="none" stroke="black" d="M812.445,-808.289C854.031,-804.56 908.609,-792.361 940,-756 954.442,-739.271 956.57,-713.781 955.593,-694.361"/>
<polygon fill="black" stroke="black" points="959.074,-693.981 954.789,-684.291 952.096,-694.538 959.074,-693.981"/>
</g>
<!-- probability_analysis -->
<g id="node31" class="node"><title>probability_analysis</title>
<ellipse fill="none" stroke="black" cx="744" cy="-666" rx="81.7856" ry="18"/>
<text text-anchor="middle" x="744" y="-662.3" font-family="Times,serif" font-size="14.00">probability_analysis</text>
</g>
<!-- uncertainty_analysis&#45;&gt;probability_analysis -->
<g id="edge13" class="edge"><title>uncertainty_analysis&#45;&gt;probability_analysis</title>
<path fill="none" stroke="black" d="M823.879,-720.765C809.934,-711.379 792.192,-699.437 776.972,-689.193"/>
<polygon fill="black" stroke="black" points="778.601,-686.07 768.351,-683.39 774.692,-691.877 778.601,-686.07"/>
</g>
<!-- random&#45;&gt;Boost -->
<g id="edge15" class="edge"><title>random&#45;&gt;Boost</title>
<path fill="none" stroke="black" d="M498.762,-158.689C565.477,-153.902 708.099,-140.504 824,-108 826.329,-107.347 828.703,-106.59 831.073,-105.767"/>
<polygon fill="black" stroke="black" points="832.581,-108.938 840.672,-102.098 830.082,-102.399 832.581,-108.938"/>
</g>
<!-- STL -->
<g id="node21" class="node"><title>STL</title>
<ellipse fill="none" stroke="black" cx="1090" cy="-18" rx="27" ry="18"/>
<text text-anchor="middle" x="1090" y="-14.3" font-family="Times,serif" font-size="14.00">STL</text>
</g>
<!-- random&#45;&gt;STL -->
<g id="edge14" class="edge"><title>random&#45;&gt;STL</title>
<path fill="none" stroke="black" d="M490.783,-150.358C543.047,-132.031 654.95,-94.3322 752,-72 860.344,-47.0689 990.942,-30.2621 1053.34,-23.0269"/>
<polygon fill="black" stroke="black" points="1053.92,-26.4823 1063.46,-21.8675 1053.13,-19.5278 1053.92,-26.4823"/>
</g>
<!-- event -->
<g id="node10" class="node"><title>event</title>
<ellipse fill="none" stroke="black" cx="738" cy="-306" rx="29.795" ry="18"/>
<text text-anchor="middle" x="738" y="-302.3" font-family="Times,serif" font-size="14.00">event</text>
</g>
<!-- event&#45;&gt;expression -->
<g id="edge16" class="edge"><title>event&#45;&gt;expression</title>
<path fill="none" stroke="black" d="M714.685,-294.26C709.567,-292.065 704.14,-289.86 699,-288 654.59,-271.929 602.778,-257.221 565.818,-247.398"/>
<polygon fill="black" stroke="black" points="566.367,-243.924 555.806,-244.76 564.584,-250.693 566.367,-243.924"/>
</g>
<!-- fault_tree_analysis -->
<g id="node11" class="node"><title>fault_tree_analysis</title>
<ellipse fill="none" stroke="black" cx="918" cy="-594" rx="77.1866" ry="18"/>
<text text-anchor="middle" x="918" y="-590.3" font-family="Times,serif" font-size="14.00">fault_tree_analysis</text>
</g>
<!-- analysis -->
<g id="node35" class="node"><title>analysis</title>
<ellipse fill="none" stroke="black" cx="1136" cy="-522" rx="38.9931" ry="18"/>
<text text-anchor="middle" x="1136" y="-518.3" font-family="Times,serif" font-size="14.00">analysis</text>
</g>
<!-- fault_tree_analysis&#45;&gt;analysis -->
<g id="edge18" class="edge"><title>fault_tree_analysis&#45;&gt;analysis</title>
<path fill="none" stroke="black" d="M963.609,-579.297C997.925,-568.862 1046.05,-553.961 1088,-540 1090.88,-539.04 1093.86,-538.031 1096.85,-537.004"/>
<polygon fill="black" stroke="black" points="1098.06,-540.288 1106.36,-533.697 1095.76,-533.676 1098.06,-540.288"/>
</g>
<!-- zbdd -->
<g id="node37" class="node"><title>zbdd</title>
<ellipse fill="none" stroke="black" cx="1051" cy="-522" rx="27.8951" ry="18"/>
<text text-anchor="middle" x="1051" y="-518.3" font-family="Times,serif" font-size="14.00">zbdd</text>
</g>
<!-- fault_tree_analysis&#45;&gt;zbdd -->
<g id="edge17" class="edge"><title>fault_tree_analysis&#45;&gt;zbdd</title>
<path fill="none" stroke="black" d="M947.848,-577.291C969.694,-565.792 999.216,-550.255 1021.08,-538.748"/>
<polygon fill="black" stroke="black" points="1022.72,-541.841 1029.94,-534.086 1019.46,-535.647 1022.72,-541.841"/>
</g>
<!-- preprocessor -->
<g id="node39" class="node"><title>preprocessor</title>
<ellipse fill="none" stroke="black" cx="873" cy="-522" rx="55.7903" ry="18"/>
<text text-anchor="middle" x="873" y="-518.3" font-family="Times,serif" font-size="14.00">preprocessor</text>
</g>
<!-- fault_tree_analysis&#45;&gt;preprocessor -->
<g id="edge19" class="edge"><title>fault_tree_analysis&#45;&gt;preprocessor</title>
<path fill="none" stroke="black" d="M907.107,-576.055C901.745,-567.715 895.173,-557.491 889.233,-548.252"/>
<polygon fill="black" stroke="black" points="892.145,-546.308 883.793,-539.789 886.256,-550.093 892.145,-546.308"/>
</g>
<!-- xml_stream -->
<g id="node12" class="node"><title>xml_stream</title>
<ellipse fill="none" stroke="black" cx="1135" cy="-738" rx="53.0913" ry="18"/>
<text text-anchor="middle" x="1135" y="-734.3" font-family="Times,serif" font-size="14.00">xml_stream</text>
</g>
<!-- xml_stream&#45;&gt;error -->
<g id="edge20" class="edge"><title>xml_stream&#45;&gt;error</title>
<path fill="none" stroke="black" d="M1149.74,-720.636C1178.86,-686.535 1241,-604.263 1241,-523 1241,-523 1241,-523 1241,-377 1241,-267.356 1153.14,-158.573 1111.46,-113.134"/>
<polygon fill="black" stroke="black" points="1113.86,-110.576 1104.48,-105.648 1108.74,-115.349 1113.86,-110.576"/>
</g>
<!-- importance_analysis&#45;&gt;probability_analysis -->
<g id="edge21" class="edge"><title>importance_analysis&#45;&gt;probability_analysis</title>
<path fill="none" stroke="black" d="M682.959,-720.411C693.146,-711.497 705.88,-700.355 717.077,-690.558"/>
<polygon fill="black" stroke="black" points="719.679,-692.932 724.9,-683.713 715.069,-687.664 719.679,-692.932"/>
</g>
<!-- model&#45;&gt;event_tree -->
<g id="edge22" class="edge"><title>model&#45;&gt;event_tree</title>
<path fill="none" stroke="black" d="M618.574,-510.216C645.36,-498.92 687.798,-481.025 719.016,-467.861"/>
<polygon fill="black" stroke="black" points="720.461,-471.05 728.315,-463.939 717.741,-464.6 720.461,-471.05"/>
</g>
<!-- fault_tree -->
<g id="node19" class="node"><title>fault_tree</title>
<ellipse fill="none" stroke="black" cx="573" cy="-450" rx="44.393" ry="18"/>
<text text-anchor="middle" x="573" y="-446.3" font-family="Times,serif" font-size="14.00">fault_tree</text>
</g>
<!-- model&#45;&gt;fault_tree -->
<g id="edge23" class="edge"><title>model&#45;&gt;fault_tree</title>
<path fill="none" stroke="black" d="M588.159,-504.055C585.932,-496.261 583.235,-486.822 580.737,-478.079"/>
<polygon fill="black" stroke="black" points="584.048,-476.929 577.936,-468.275 577.318,-478.852 584.048,-476.929"/>
</g>
<!-- element -->
<g id="node15" class="node"><title>element</title>
<ellipse fill="none" stroke="black" cx="790" cy="-162" rx="38.9931" ry="18"/>
<text text-anchor="middle" x="790" y="-158.3" font-family="Times,serif" font-size="14.00">element</text>
</g>
<!-- element&#45;&gt;error -->
<g id="edge25" class="edge"><title>element&#45;&gt;error</title>
<path fill="none" stroke="black" d="M824.122,-153.038C881.347,-139.686 996.106,-112.909 1054.34,-99.3201"/>
<polygon fill="black" stroke="black" points="1055.25,-102.702 1064.2,-97.0208 1053.66,-95.8847 1055.25,-102.702"/>
</g>
<!-- element&#45;&gt;Boost -->
<g id="edge26" class="edge"><title>element&#45;&gt;Boost</title>
<path fill="none" stroke="black" d="M806.423,-145.465C816.594,-135.843 829.808,-123.344 841.01,-112.747"/>
<polygon fill="black" stroke="black" points="843.523,-115.188 848.383,-105.773 838.713,-110.102 843.523,-115.188"/>
</g>
<!-- ext -->
<g id="node22" class="node"><title>ext</title>
<ellipse fill="none" stroke="black" cx="788" cy="-90" rx="27" ry="18"/>
<text text-anchor="middle" x="788" y="-86.3" font-family="Times,serif" font-size="14.00">ext</text>
</g>
<!-- element&#45;&gt;ext -->
<g id="edge24" class="edge"><title>element&#45;&gt;ext</title>
<path fill="none" stroke="black" d="M789.506,-143.697C789.285,-135.983 789.02,-126.712 788.775,-118.112"/>
<polygon fill="black" stroke="black" points="792.273,-118 788.489,-108.104 785.276,-118.2 792.273,-118"/>
</g>
<!-- expression/random_deviate -->
<g id="node16" class="node"><title>expression/random_deviate</title>
<ellipse fill="none" stroke="black" cx="136" cy="-306" rx="107.781" ry="18"/>
<text text-anchor="middle" x="136" y="-302.3" font-family="Times,serif" font-size="14.00">expression/random_deviate</text>
</g>
<!-- expression/random_deviate&#45;&gt;random -->
<g id="edge28" class="edge"><title>expression/random_deviate&#45;&gt;random</title>
<path fill="none" stroke="black" d="M172.65,-288.987C235.208,-261.654 361.883,-206.306 424.404,-178.989"/>
<polygon fill="black" stroke="black" points="426.106,-182.066 433.868,-174.855 423.303,-175.651 426.106,-182.066"/>
</g>
<!-- expression/random_deviate&#45;&gt;expression -->
<g id="edge27" class="edge"><title>expression/random_deviate&#45;&gt;expression</title>
<path fill="none" stroke="black" d="M205.881,-292.161C280.669,-278.42 397.59,-256.939 464.773,-244.596"/>
<polygon fill="black" stroke="black" points="465.51,-248.019 474.713,-242.769 464.245,-241.134 465.51,-248.019"/>
</g>
<!-- xml -->
<g id="node17" class="node"><title>xml</title>
<ellipse fill="none" stroke="black" cx="981" cy="-378" rx="27" ry="18"/>
<text text-anchor="middle" x="981" y="-374.3" font-family="Times,serif" font-size="14.00">xml</text>
</g>
<!-- xml&#45;&gt;LibXML -->
<g id="edge30" class="edge"><title>xml&#45;&gt;LibXML</title>
<path fill="none" stroke="black" d="M981,-359.697C981,-351.983 981,-342.712 981,-334.112"/>
<polygon fill="black" stroke="black" points="984.5,-334.104 981,-324.104 977.5,-334.104 984.5,-334.104"/>
</g>
<!-- xml&#45;&gt;error -->
<g id="edge29" class="edge"><title>xml&#45;&gt;error</title>
<path fill="none" stroke="black" d="M997.948,-363.929C1009.49,-354.141 1024.22,-339.769 1033,-324 1070.7,-256.264 1083.71,-163.838 1088.01,-118.444"/>
<polygon fill="black" stroke="black" points="1091.52,-118.481 1088.9,-108.215 1084.54,-117.873 1091.52,-118.481"/>
</g>
<!-- xml&#45;&gt;Boost -->
<g id="edge31" class="edge"><title>xml&#45;&gt;Boost</title>
<path fill="none" stroke="black" d="M964.207,-363.841C952.734,-354.012 938.029,-339.626 929,-324 908.465,-288.462 881.393,-171.353 869.739,-117.959"/>
<polygon fill="black" stroke="black" points="873.157,-117.206 867.621,-108.173 866.316,-118.687 873.157,-117.206"/>
</g>
<!-- error&#45;&gt;STL -->
<g id="edge32" class="edge"><title>error&#45;&gt;STL</title>
<path fill="none" stroke="black" d="M1090,-71.6966C1090,-63.9827 1090,-54.7125 1090,-46.1124"/>
<polygon fill="black" stroke="black" points="1093.5,-46.1043 1090,-36.1043 1086.5,-46.1044 1093.5,-46.1043"/>
</g>
<!-- ccf_group -->
<g id="node24" class="node"><title>ccf_group</title>
<ellipse fill="none" stroke="black" cx="610" cy="-378" rx="46.2923" ry="18"/>
<text text-anchor="middle" x="610" y="-374.3" font-family="Times,serif" font-size="14.00">ccf_group</text>
</g>
<!-- fault_tree&#45;&gt;ccf_group -->
<g id="edge33" class="edge"><title>fault_tree&#45;&gt;ccf_group</title>
<path fill="none" stroke="black" d="M581.957,-432.055C586.274,-423.887 591.547,-413.912 596.35,-404.824"/>
<polygon fill="black" stroke="black" points="599.547,-406.266 601.126,-395.789 593.358,-402.994 599.547,-406.266"/>
</g>
<!-- parameter -->
<g id="node25" class="node"><title>parameter</title>
<ellipse fill="none" stroke="black" cx="500" cy="-378" rx="46.2923" ry="18"/>
<text text-anchor="middle" x="500" y="-374.3" font-family="Times,serif" font-size="14.00">parameter</text>
</g>
<!-- fault_tree&#45;&gt;parameter -->
<g id="edge34" class="edge"><title>fault_tree&#45;&gt;parameter</title>
<path fill="none" stroke="black" d="M556.435,-433.116C546.822,-423.897 534.547,-412.127 523.901,-401.919"/>
<polygon fill="black" stroke="black" points="526.14,-399.216 516.499,-394.821 521.295,-404.269 526.14,-399.216"/>
</g>
<!-- cycle -->
<g id="node23" class="node"><title>cycle</title>
<ellipse fill="none" stroke="black" cx="664" cy="-450" rx="29.4969" ry="18"/>
<text text-anchor="middle" x="664" y="-446.3" font-family="Times,serif" font-size="14.00">cycle</text>
</g>
<!-- cycle&#45;&gt;event -->
<g id="edge36" class="edge"><title>cycle&#45;&gt;event</title>
<path fill="none" stroke="black" d="M672.489,-432.711C685.245,-408.232 709.474,-361.739 724.623,-332.67"/>
<polygon fill="black" stroke="black" points="727.865,-334.022 729.382,-323.537 721.657,-330.787 727.865,-334.022"/>
</g>
<!-- cycle&#45;&gt;parameter -->
<g id="edge35" class="edge"><title>cycle&#45;&gt;parameter</title>
<path fill="none" stroke="black" d="M641.129,-438.668C636.151,-436.448 630.906,-434.129 626,-432 597.268,-419.532 564.672,-405.833 539.832,-395.486"/>
<polygon fill="black" stroke="black" points="540.955,-392.162 530.378,-391.553 538.267,-398.625 540.955,-392.162"/>
</g>
<!-- ccf_group&#45;&gt;expression/constant -->
<g id="edge37" class="edge"><title>ccf_group&#45;&gt;expression/constant</title>
<path fill="none" stroke="black" d="M610,-359.697C610,-351.983 610,-342.712 610,-334.112"/>
<polygon fill="black" stroke="black" points="613.5,-334.104 610,-324.104 606.5,-334.104 613.5,-334.104"/>
</g>
<!-- ccf_group&#45;&gt;event -->
<g id="edge39" class="edge"><title>ccf_group&#45;&gt;event</title>
<path fill="none" stroke="black" d="M635.595,-363.003C656.406,-351.622 685.814,-335.539 707.78,-323.527"/>
<polygon fill="black" stroke="black" points="709.597,-326.522 716.692,-318.653 706.239,-320.38 709.597,-326.522"/>
</g>
<!-- expression/arithmetic -->
<g id="node36" class="node"><title>expression/arithmetic</title>
<ellipse fill="none" stroke="black" cx="425" cy="-306" rx="87.1846" ry="18"/>
<text text-anchor="middle" x="425" y="-302.3" font-family="Times,serif" font-size="14.00">expression/arithmetic</text>
</g>
<!-- ccf_group&#45;&gt;expression/arithmetic -->
<g id="edge38" class="edge"><title>ccf_group&#45;&gt;expression/arithmetic</title>
<path fill="none" stroke="black" d="M577.775,-364.807C549.226,-354.005 507.109,-338.068 474.322,-325.662"/>
<polygon fill="black" stroke="black" points="475.499,-322.366 464.907,-322.1 473.022,-328.913 475.499,-322.366"/>
</g>
<!-- parameter&#45;&gt;expression -->
<g id="edge40" class="edge"><title>parameter&#45;&gt;expression</title>
<path fill="none" stroke="black" d="M456.944,-371.287C395.016,-361.261 292.082,-336.764 329,-288 345.181,-266.626 413.086,-251.437 462.652,-242.947"/>
<polygon fill="black" stroke="black" points="463.323,-246.383 472.612,-241.287 462.173,-239.478 463.323,-246.383"/>
</g>
<!-- reporter&#45;&gt;version -->
<g id="edge43" class="edge"><title>reporter&#45;&gt;version</title>
<path fill="none" stroke="black" d="M1079.51,-863.697C1079.29,-855.983 1079.02,-846.712 1078.77,-838.112"/>
<polygon fill="black" stroke="black" points="1082.27,-838 1078.49,-828.104 1075.28,-838.2 1082.27,-838"/>
</g>
<!-- reporter&#45;&gt;risk_analysis -->
<g id="edge42" class="edge"><title>reporter&#45;&gt;risk_analysis</title>
<path fill="none" stroke="black" d="M1045.94,-873.641C990.15,-861.588 878.784,-837.528 811.48,-822.986"/>
<polygon fill="black" stroke="black" points="811.99,-819.516 801.476,-820.825 810.511,-826.358 811.99,-819.516"/>
</g>
<!-- reporter&#45;&gt;xml_stream -->
<g id="edge41" class="edge"><title>reporter&#45;&gt;xml_stream</title>
<path fill="none" stroke="black" d="M1096.56,-865.397C1105.9,-855.587 1116.89,-842.14 1123,-828 1131.44,-808.47 1134.29,-784.474 1135.11,-766.322"/>
<polygon fill="black" stroke="black" points="1138.62,-766.219 1135.39,-756.127 1131.62,-766.027 1138.62,-766.219"/>
</g>
<!-- pdag -->
<g id="node27" class="node"><title>pdag</title>
<ellipse fill="none" stroke="black" cx="890" cy="-378" rx="27.8951" ry="18"/>
<text text-anchor="middle" x="890" y="-374.3" font-family="Times,serif" font-size="14.00">pdag</text>
</g>
<!-- pdag&#45;&gt;logger -->
<g id="edge44" class="edge"><title>pdag&#45;&gt;logger</title>
<path fill="none" stroke="black" d="M885.136,-360.153C878.108,-335.813 865.044,-290.568 856.699,-261.665"/>
<polygon fill="black" stroke="black" points="859.995,-260.462 853.858,-251.825 853.269,-262.403 859.995,-260.462"/>
</g>
<!-- pdag&#45;&gt;event -->
<g id="edge45" class="edge"><title>pdag&#45;&gt;event</title>
<path fill="none" stroke="black" d="M867.898,-366.821C842.302,-355.034 799.903,-335.508 770.541,-321.986"/>
<polygon fill="black" stroke="black" points="771.673,-318.654 761.126,-317.65 768.745,-325.012 771.673,-318.654"/>
</g>
<!-- expression/exponential -->
<g id="node28" class="node"><title>expression/exponential</title>
<ellipse fill="none" stroke="black" cx="343" cy="-522" rx="91.784" ry="18"/>
<text text-anchor="middle" x="343" y="-518.3" font-family="Times,serif" font-size="14.00">expression/exponential</text>
</g>
<!-- expression/exponential&#45;&gt;expression -->
<g id="edge46" class="edge"><title>expression/exponential&#45;&gt;expression</title>
<path fill="none" stroke="black" d="M333.912,-503.904C313.105,-462.157 267.55,-353.645 318,-288 335.463,-265.277 409.093,-250.229 461.696,-242.155"/>
<polygon fill="black" stroke="black" points="462.538,-245.568 471.913,-240.633 461.507,-238.644 462.538,-245.568"/>
</g>
<!-- settings -->
<g id="node29" class="node"><title>settings</title>
<ellipse fill="none" stroke="black" cx="1066" cy="-378" rx="37.8943" ry="18"/>
<text text-anchor="middle" x="1066" y="-374.3" font-family="Times,serif" font-size="14.00">settings</text>
</g>
<!-- settings&#45;&gt;error -->
<g id="edge47" class="edge"><title>settings&#45;&gt;error</title>
<path fill="none" stroke="black" d="M1081.28,-361.305C1089.77,-351.461 1099.5,-338.013 1104,-324 1128.48,-247.838 1114.3,-223.334 1104,-144 1102.87,-135.277 1100.73,-125.945 1098.46,-117.58"/>
<polygon fill="black" stroke="black" points="1101.82,-116.598 1095.68,-107.962 1095.09,-118.541 1101.82,-116.598"/>
</g>
<!-- settings&#45;&gt;Boost -->
<g id="edge48" class="edge"><title>settings&#45;&gt;Boost</title>
<path fill="none" stroke="black" d="M1061.59,-359.802C1056.4,-341.265 1046.71,-311.29 1033,-288 991.344,-217.239 923.365,-147.403 887.641,-113.026"/>
<polygon fill="black" stroke="black" points="889.768,-110.217 880.115,-105.849 884.937,-115.283 889.768,-110.217"/>
</g>
<!-- mocus&#45;&gt;zbdd -->
<g id="edge49" class="edge"><title>mocus&#45;&gt;zbdd</title>
<path fill="none" stroke="black" d="M969.231,-649.866C980.042,-639.816 993.811,-625.948 1004,-612 1018.5,-592.145 1031.26,-567.229 1039.81,-548.813"/>
<polygon fill="black" stroke="black" points="1043.06,-550.134 1044,-539.581 1036.68,-547.241 1043.06,-550.134"/>
</g>
<!-- probability_analysis&#45;&gt;fault_tree_analysis -->
<g id="edge51" class="edge"><title>probability_analysis&#45;&gt;fault_tree_analysis</title>
<path fill="none" stroke="black" d="M781.755,-649.811C808.042,-639.236 843.271,-625.063 871.32,-613.779"/>
<polygon fill="black" stroke="black" points="872.945,-616.898 880.916,-609.919 870.332,-610.404 872.945,-616.898"/>
</g>
<!-- probability_analysis&#45;&gt;parameter -->
<g id="edge50" class="edge"><title>probability_analysis&#45;&gt;parameter</title>
<path fill="none" stroke="black" d="M708.117,-649.712C665.529,-629.958 594.788,-591.849 551,-540 518.224,-501.191 506.453,-441.172 502.268,-406.426"/>
<polygon fill="black" stroke="black" points="505.706,-405.661 501.158,-396.092 498.746,-406.409 505.706,-405.661"/>
</g>
<!-- env -->
<g id="node32" class="node"><title>env</title>
<ellipse fill="none" stroke="black" cx="1186" cy="-378" rx="27" ry="18"/>
<text text-anchor="middle" x="1186" y="-374.3" font-family="Times,serif" font-size="14.00">env</text>
</g>
<!-- env&#45;&gt;STL -->
<g id="edge52" class="edge"><title>env&#45;&gt;STL</title>
<path fill="none" stroke="black" d="M1185.17,-359.749C1182.34,-312.09 1170.71,-175.313 1127,-72 1122.56,-61.5054 1115.82,-50.9972 1109.3,-42.1375"/>
<polygon fill="black" stroke="black" points="1112.08,-40.0001 1103.21,-34.2026 1106.52,-44.2648 1112.08,-40.0001"/>
</g>
<!-- expression&#45;&gt;element -->
<g id="edge53" class="edge"><title>expression&#45;&gt;element</title>
<path fill="none" stroke="black" d="M555.535,-223.119C606.072,-210.161 694.474,-187.494 747.092,-174.002"/>
<polygon fill="black" stroke="black" points="747.983,-177.387 756.8,-171.513 746.244,-170.606 747.983,-177.387"/>
</g>
<!-- bdd -->
<g id="node34" class="node"><title>bdd</title>
<ellipse fill="none" stroke="black" cx="1012" cy="-450" rx="27" ry="18"/>
<text text-anchor="middle" x="1012" y="-446.3" font-family="Times,serif" font-size="14.00">bdd</text>
</g>
<!-- bdd&#45;&gt;pdag -->
<g id="edge54" class="edge"><title>bdd&#45;&gt;pdag</title>
<path fill="none" stroke="black" d="M992.127,-437.597C972.306,-426.225 941.642,-408.631 919.084,-395.687"/>
<polygon fill="black" stroke="black" points="920.687,-392.572 910.271,-390.631 917.203,-398.643 920.687,-392.572"/>
</g>
<!-- bdd&#45;&gt;settings -->
<g id="edge56" class="edge"><title>bdd&#45;&gt;settings</title>
<path fill="none" stroke="black" d="M1023.98,-433.465C1030.78,-424.654 1039.44,-413.43 1047.13,-403.463"/>
<polygon fill="black" stroke="black" points="1049.96,-405.523 1053.3,-395.467 1044.42,-401.247 1049.96,-405.523"/>
</g>
<!-- bdd&#45;&gt;zbdd -->
<g id="edge55" class="edge"><title>bdd&#45;&gt;zbdd</title>
<path fill="none" stroke="black" d="M1025.94,-465.888C1031.66,-474.276 1037.93,-484.996 1042.93,-494.748"/>
<polygon fill="black" stroke="black" points="1039.93,-496.579 1047.44,-504.055 1046.23,-493.529 1039.93,-496.579"/>
</g>
<!-- analysis&#45;&gt;settings -->
<g id="edge57" class="edge"><title>analysis&#45;&gt;settings</title>
<path fill="none" stroke="black" d="M1117.2,-505.673C1106.49,-495.96 1093.72,-482.52 1086,-468 1075.75,-448.713 1070.74,-424.373 1068.29,-406.024"/>
<polygon fill="black" stroke="black" points="1071.76,-405.528 1067.13,-395.996 1064.81,-406.332 1071.76,-405.528"/>
</g>
<!-- expression/arithmetic&#45;&gt;expression -->
<g id="edge58" class="edge"><title>expression/arithmetic&#45;&gt;expression</title>
<path fill="none" stroke="black" d="M446.803,-288.411C459.3,-278.902 475.127,-266.86 488.589,-256.617"/>
<polygon fill="black" stroke="black" points="490.775,-259.352 496.614,-250.511 486.537,-253.781 490.775,-259.352"/>
</g>
<!-- zbdd&#45;&gt;bdd -->
<g id="edge59" class="edge"><title>zbdd&#45;&gt;bdd</title>
<path fill="none" stroke="black" d="M1037.09,-506.155C1031.38,-497.787 1025.11,-487.088 1020.11,-477.344"/>
<polygon fill="black" stroke="black" points="1023.12,-475.513 1015.61,-468.04 1016.82,-478.565 1023.12,-475.513"/>
</g>
<!-- config&#45;&gt;xml -->
<g id="edge61" class="edge"><title>config&#45;&gt;xml</title>
<path fill="none" stroke="black" d="M1103.73,-437.441C1078.49,-425.422 1038.91,-406.578 1011.56,-393.553"/>
<polygon fill="black" stroke="black" points="1012.97,-390.348 1002.44,-389.209 1009.96,-396.668 1012.97,-390.348"/>
</g>
<!-- config&#45;&gt;settings -->
<g id="edge60" class="edge"><title>config&#45;&gt;settings</title>
<path fill="none" stroke="black" d="M1114.24,-433.465C1106.25,-424.439 1096.01,-412.88 1087.02,-402.735"/>
<polygon fill="black" stroke="black" points="1089.4,-400.142 1080.15,-394.977 1084.16,-404.784 1089.4,-400.142"/>
</g>
<!-- config&#45;&gt;env -->
<g id="edge62" class="edge"><title>config&#45;&gt;env</title>
<path fill="none" stroke="black" d="M1141.16,-433.116C1148.76,-423.949 1158.44,-412.259 1166.87,-402.091"/>
<polygon fill="black" stroke="black" points="1169.6,-404.273 1173.29,-394.34 1164.21,-399.807 1169.6,-404.273"/>
</g>
<!-- preprocessor&#45;&gt;pdag -->
<g id="edge63" class="edge"><title>preprocessor&#45;&gt;pdag</title>
<path fill="none" stroke="black" d="M875.051,-503.871C877.948,-479.67 883.271,-435.211 886.721,-406.393"/>
<polygon fill="black" stroke="black" points="890.229,-406.534 887.942,-396.189 883.278,-405.702 890.229,-406.534"/>
</g>
<!-- initializer&#45;&gt;logger -->
<g id="edge67" class="edge"><title>initializer&#45;&gt;logger</title>
<path fill="none" stroke="black" d="M753.272,-575.85C756.356,-557.087 763.155,-526.667 777,-504 789.127,-484.146 804.285,-488.65 815,-468 850.05,-400.454 852.104,-307.941 850.616,-262.486"/>
<polygon fill="black" stroke="black" points="854.102,-262.089 850.192,-252.243 847.108,-262.379 854.102,-262.089"/>
</g>
<!-- initializer&#45;&gt;model -->
<g id="edge69" class="edge"><title>initializer&#45;&gt;model</title>
<path fill="none" stroke="black" d="M722.02,-580.161C695.323,-568.333 655.68,-550.769 627.39,-538.236"/>
<polygon fill="black" stroke="black" points="628.457,-534.881 617.897,-534.03 625.622,-541.281 628.457,-534.881"/>
</g>
<!-- initializer&#45;&gt;expression/random_deviate -->
<g id="edge68" class="edge"><title>initializer&#45;&gt;expression/random_deviate</title>
<path fill="none" stroke="black" d="M707.143,-590.913C590.58,-585.021 279.409,-566.921 242,-540 172.773,-490.18 147.768,-384.108 139.587,-334.125"/>
<polygon fill="black" stroke="black" points="143.022,-333.428 138.048,-324.073 136.102,-334.488 143.022,-333.428"/>
</g>
<!-- initializer&#45;&gt;xml -->
<g id="edge70" class="edge"><title>initializer&#45;&gt;xml</title>
<path fill="none" stroke="black" d="M759.245,-576.282C769.106,-557.356 786.948,-526.266 808,-504 831.529,-479.114 911.28,-424.993 953.791,-396.832"/>
<polygon fill="black" stroke="black" points="955.848,-399.668 962.264,-391.237 951.991,-393.827 955.848,-399.668"/>
</g>
<!-- initializer&#45;&gt;cycle -->
<g id="edge64" class="edge"><title>initializer&#45;&gt;cycle</title>
<path fill="none" stroke="black" d="M740.85,-576.433C725.642,-551.611 696.843,-504.606 679.144,-475.718"/>
<polygon fill="black" stroke="black" points="682.027,-473.724 673.819,-467.026 676.059,-477.381 682.027,-473.724"/>
</g>
<!-- initializer&#45;&gt;expression/exponential -->
<g id="edge66" class="edge"><title>initializer&#45;&gt;expression/exponential</title>
<path fill="none" stroke="black" d="M711.136,-586.161C643.726,-574.595 506.12,-550.986 419.566,-536.136"/>
<polygon fill="black" stroke="black" points="419.98,-532.656 409.532,-534.415 418.796,-539.556 419.98,-532.656"/>
</g>
<!-- initializer&#45;&gt;settings -->
<g id="edge65" class="edge"><title>initializer&#45;&gt;settings</title>
<path fill="none" stroke="black" d="M788.59,-584.306C839.955,-572.133 926.996,-550.341 938,-540 975.081,-505.154 943.671,-471.294 976,-432 989.735,-415.306 1010.2,-402.666 1028.14,-393.925"/>
<polygon fill="black" stroke="black" points="1029.64,-397.087 1037.24,-389.709 1026.7,-390.735 1029.64,-397.087"/>
</g>
<!-- initializer&#45;&gt;env -->
<g id="edge71" class="edge"><title>initializer&#45;&gt;env</title>
<path fill="none" stroke="black" d="M789.741,-585.012C841.84,-573.971 931.473,-553.846 962,-540 987.599,-528.389 988.29,-515.363 1014,-504 1079.08,-475.235 1120.93,-519.53 1170,-468 1185.44,-451.788 1188.64,-426.024 1188.45,-406.378"/>
<polygon fill="black" stroke="black" points="1191.94,-406.048 1188.05,-396.193 1184.95,-406.323 1191.94,-406.048"/>
</g>
</g>
</svg>
