<?xml version="1.0" encoding="UTF-8" standalone="no"?>
<!DOCTYPE svg PUBLIC "-//W3C//DTD SVG 1.1//EN"
 "http://www.w3.org/Graphics/SVG/1.1/DTD/svg11.dtd">
<!-- Generated by graphviz version 2.38.0 (20140413.2041)
 -->
<!-- Title: algorithm.h Pages: 1 -->
<svg width="212pt" height="84pt"
 viewBox="0.00 0.00 211.50 84.00" xmlns="http://www.w3.org/2000/svg" xmlns:xlink="http://www.w3.org/1999/xlink">
<g id="graph0" class="graph" transform="scale(1 1) rotate(0) translate(4 80)">
<title>algorithm.h</title>
<polygon fill="white" stroke="none" points="-4,4 -4,-80 207.5,-80 207.5,4 -4,4"/>
<!-- Node1 -->
<g id="node1" class="node"><title>Node1</title>
<polygon fill="#bfbfbf" stroke="black" points="50.5,-56.5 50.5,-75.5 115.5,-75.5 115.5,-56.5 50.5,-56.5"/>
<text text-anchor="middle" x="83" y="-63.5" font-family="Helvetica,sans-Serif" font-size="10.00">algorithm.h</text>
</g>
<!-- Node2 -->
<g id="node2" class="node"><title>Node2</title>
<polygon fill="white" stroke="#bfbfbf" points="0,-0.5 0,-19.5 56,-19.5 56,-0.5 0,-0.5"/>
<text text-anchor="middle" x="28" y="-7.5" font-family="Helvetica,sans-Serif" font-size="10.00">algorithm</text>
</g>
<!-- Node1&#45;&gt;Node2 -->
<g id="edge1" class="edge"><title>Node1&#45;&gt;Node2</title>
<path fill="none" stroke="midnightblue" d="M73.9179,-56.083C65.8287,-48.1409 53.8046,-36.3354 44.0898,-26.7973"/>
<polygon fill="midnightblue" stroke="midnightblue" points="46.5009,-24.2595 36.9131,-19.7511 41.5967,-29.2545 46.5009,-24.2595"/>
</g>
<!-- Node3 -->
<g id="node3" class="node"><title>Node3</title>
<polygon fill="white" stroke="#bfbfbf" points="74.5,-0.5 74.5,-19.5 203.5,-19.5 203.5,-0.5 74.5,-0.5"/>
<text text-anchor="middle" x="139" y="-7.5" font-family="Helvetica,sans-Serif" font-size="10.00">boost/range/algorithm.hpp</text>
</g>
<!-- Node1&#45;&gt;Node3 -->
<g id="edge2" class="edge"><title>Node1&#45;&gt;Node3</title>
<path fill="none" stroke="midnightblue" d="M91.9974,-56.324C100.194,-48.4196 112.506,-36.5482 122.472,-26.9377"/>
<polygon fill="midnightblue" stroke="midnightblue" points="125.07,-29.2947 129.839,-19.8339 120.211,-24.2558 125.07,-29.2947"/>
</g>
</g>
</svg>
