<?xml version="1.0" encoding="UTF-8" standalone="no"?>
<!DOCTYPE svg PUBLIC "-//W3C//DTD SVG 1.1//EN"
 "http://www.w3.org/Graphics/SVG/1.1/DTD/svg11.dtd">
<!-- Generated by graphviz version 2.38.0 (20140413.2041)
 -->
<!-- Title: analysis.cc Pages: 1 -->
<svg width="308pt" height="196pt"
 viewBox="0.00 0.00 308.00 196.00" xmlns="http://www.w3.org/2000/svg" xmlns:xlink="http://www.w3.org/1999/xlink">
<g id="graph0" class="graph" transform="scale(1 1) rotate(0) translate(4 192)">
<title>analysis.cc</title>
<polygon fill="white" stroke="none" points="-4,4 -4,-192 304,-192 304,4 -4,4"/>
<!-- Node1 -->
<g id="node1" class="node"><title>Node1</title>
<polygon fill="#bfbfbf" stroke="black" points="87.5,-168.5 87.5,-187.5 153.5,-187.5 153.5,-168.5 87.5,-168.5"/>
<text text-anchor="middle" x="120.5" y="-175.5" font-family="Helvetica,sans-Serif" font-size="10.00">analysis.cc</text>
</g>
<!-- Node2 -->
<g id="node2" class="node"><title>Node2</title>
<g id="a_node2"><a xlink:href="analysis_8h.xhtml" target="_top" xlink:title="Common facilities for all analysis classes. ">
<polygon fill="white" stroke="black" points="90,-112.5 90,-131.5 151,-131.5 151,-112.5 90,-112.5"/>
<text text-anchor="middle" x="120.5" y="-119.5" font-family="Helvetica,sans-Serif" font-size="10.00">analysis.h</text>
</a>
</g>
</g>
<!-- Node1&#45;&gt;Node2 -->
<g id="edge1" class="edge"><title>Node1&#45;&gt;Node2</title>
<path fill="none" stroke="midnightblue" d="M120.5,-168.083C120.5,-161.006 120.5,-150.861 120.5,-141.986"/>
<polygon fill="midnightblue" stroke="midnightblue" points="124,-141.751 120.5,-131.751 117,-141.751 124,-141.751"/>
</g>
<!-- Node3 -->
<g id="node3" class="node"><title>Node3</title>
<polygon fill="white" stroke="#bfbfbf" points="0,-56.5 0,-75.5 49,-75.5 49,-56.5 0,-56.5"/>
<text text-anchor="middle" x="24.5" y="-63.5" font-family="Helvetica,sans-Serif" font-size="10.00">cassert</text>
</g>
<!-- Node2&#45;&gt;Node3 -->
<g id="edge2" class="edge"><title>Node2&#45;&gt;Node3</title>
<path fill="none" stroke="midnightblue" d="M105.076,-112.324C89.9605,-103.822 66.6846,-90.7288 49.0288,-80.7975"/>
<polygon fill="midnightblue" stroke="midnightblue" points="50.3175,-77.5066 39.8858,-75.6545 46.8856,-83.6077 50.3175,-77.5066"/>
</g>
<!-- Node4 -->
<g id="node4" class="node"><title>Node4</title>
<polygon fill="white" stroke="#bfbfbf" points="122,-0.5 122,-19.5 163,-19.5 163,-0.5 122,-0.5"/>
<text text-anchor="middle" x="142.5" y="-7.5" font-family="Helvetica,sans-Serif" font-size="10.00">string</text>
</g>
<!-- Node2&#45;&gt;Node4 -->
<g id="edge3" class="edge"><title>Node2&#45;&gt;Node4</title>
<path fill="none" stroke="midnightblue" d="M113.19,-112.492C103.38,-99.9856 88.104,-75.9588 96.5,-56 101.526,-44.0528 111.444,-33.6922 120.787,-25.9339"/>
<polygon fill="midnightblue" stroke="midnightblue" points="122.939,-28.6944 128.713,-19.8113 118.66,-23.1547 122.939,-28.6944"/>
</g>
<!-- Node5 -->
<g id="node5" class="node"><title>Node5</title>
<polygon fill="white" stroke="#bfbfbf" points="106,-56.5 106,-75.5 223,-75.5 223,-56.5 106,-56.5"/>
<text text-anchor="middle" x="164.5" y="-63.5" font-family="Helvetica,sans-Serif" font-size="10.00">boost/noncopyable.hpp</text>
</g>
<!-- Node2&#45;&gt;Node5 -->
<g id="edge4" class="edge"><title>Node2&#45;&gt;Node5</title>
<path fill="none" stroke="midnightblue" d="M127.766,-112.083C134.045,-104.377 143.288,-93.0333 150.931,-83.6531"/>
<polygon fill="midnightblue" stroke="midnightblue" points="153.766,-85.7143 157.369,-75.7511 148.339,-81.2926 153.766,-85.7143"/>
</g>
<!-- Node6 -->
<g id="node6" class="node"><title>Node6</title>
<g id="a_node6"><a xlink:href="settings_8h.xhtml" target="_top" xlink:title="Builder for settings. ">
<polygon fill="white" stroke="black" points="241,-56.5 241,-75.5 300,-75.5 300,-56.5 241,-56.5"/>
<text text-anchor="middle" x="270.5" y="-63.5" font-family="Helvetica,sans-Serif" font-size="10.00">settings.h</text>
</a>
</g>
</g>
<!-- Node2&#45;&gt;Node6 -->
<g id="edge5" class="edge"><title>Node2&#45;&gt;Node6</title>
<path fill="none" stroke="midnightblue" d="M144.268,-112.444C169.393,-103.399 209.211,-89.064 237.4,-78.9158"/>
<polygon fill="midnightblue" stroke="midnightblue" points="238.62,-82.1968 246.843,-75.5164 236.249,-75.6106 238.62,-82.1968"/>
</g>
<!-- Node6&#45;&gt;Node4 -->
<g id="edge7" class="edge"><title>Node6&#45;&gt;Node4</title>
<path fill="none" stroke="midnightblue" d="M250.218,-56.4435C229.153,-47.5566 195.983,-33.5632 172.014,-23.4514"/>
<polygon fill="midnightblue" stroke="midnightblue" points="173.261,-20.1787 162.687,-19.5164 170.54,-26.6283 173.261,-20.1787"/>
</g>
<!-- Node7 -->
<g id="node7" class="node"><title>Node7</title>
<polygon fill="white" stroke="#bfbfbf" points="247.5,-0.5 247.5,-19.5 293.5,-19.5 293.5,-0.5 247.5,-0.5"/>
<text text-anchor="middle" x="270.5" y="-7.5" font-family="Helvetica,sans-Serif" font-size="10.00">cstdint</text>
</g>
<!-- Node6&#45;&gt;Node7 -->
<g id="edge6" class="edge"><title>Node6&#45;&gt;Node7</title>
<path fill="none" stroke="midnightblue" d="M270.5,-56.083C270.5,-49.0059 270.5,-38.8611 270.5,-29.9865"/>
<polygon fill="midnightblue" stroke="midnightblue" points="274,-29.751 270.5,-19.7511 267,-29.7511 274,-29.751"/>
</g>
</g>
</svg>
