<?xml version="1.0" encoding="UTF-8" standalone="no"?>
<!DOCTYPE svg PUBLIC "-//W3C//DTD SVG 1.1//EN"
 "http://www.w3.org/Graphics/SVG/1.1/DTD/svg11.dtd">
<!-- Generated by graphviz version 2.38.0 (20140413.2041)
 -->
<!-- Title: bdd.cc Pages: 1 -->
<svg width="1817pt" height="352pt"
 viewBox="0.00 0.00 1817.10 352.00" xmlns="http://www.w3.org/2000/svg" xmlns:xlink="http://www.w3.org/1999/xlink">
<g id="graph0" class="graph" transform="scale(1 1) rotate(0) translate(4 348)">
<title>bdd.cc</title>
<polygon fill="white" stroke="none" points="-4,4 -4,-348 1813.1,-348 1813.1,4 -4,4"/>
<!-- Node1 -->
<g id="node1" class="node"><title>Node1</title>
<polygon fill="#bfbfbf" stroke="black" points="1354.6,-324.5 1354.6,-343.5 1400.6,-343.5 1400.6,-324.5 1354.6,-324.5"/>
<text text-anchor="middle" x="1377.6" y="-331.5" font-family="Helvetica,sans-Serif" font-size="10.00">bdd.cc</text>
</g>
<!-- Node2 -->
<g id="node2" class="node"><title>Node2</title>
<g id="a_node2"><a xlink:href="bdd_8h.xhtml" target="_top" xlink:title="Fault tree analysis with the Binary Decision Diagram algorithms. ">
<polygon fill="white" stroke="black" points="837.098,-196 837.098,-215 878.098,-215 878.098,-196 837.098,-196"/>
<text text-anchor="middle" x="857.598" y="-203" font-family="Helvetica,sans-Serif" font-size="10.00">bdd.h</text>
</a>
</g>
</g>
<!-- Node1&#45;&gt;Node2 -->
<g id="edge1" class="edge"><title>Node1&#45;&gt;Node2</title>
<path fill="none" stroke="midnightblue" d="M1354.36,-328.231C1316.14,-320.318 1237.65,-303.779 1171.6,-288 1067.13,-263.042 944.053,-230.04 888.068,-214.83"/>
<polygon fill="midnightblue" stroke="midnightblue" points="888.67,-211.366 878.102,-212.117 886.832,-218.121 888.67,-211.366"/>
</g>
<!-- Node19 -->
<g id="node19" class="node"><title>Node19</title>
<g id="a_node19"><a xlink:href="find__iterator_8h.xhtml" target="_top" xlink:title="Convenience iterator adaptor to wrap find calls and results. ">
<polygon fill="white" stroke="black" points="15.5979,-62 15.5979,-81 107.598,-81 107.598,-62 15.5979,-62"/>
<text text-anchor="middle" x="61.5979" y="-69" font-family="Helvetica,sans-Serif" font-size="10.00">ext/find_iterator.h</text>
</a>
</g>
</g>
<!-- Node1&#45;&gt;Node19 -->
<g id="edge40" class="edge"><title>Node1&#45;&gt;Node19</title>
<path fill="none" stroke="midnightblue" d="M1354.43,-332.181C1247.27,-327.995 789.461,-305.771 425.598,-221 292.072,-189.892 143.972,-116.168 86.3859,-85.8625"/>
<polygon fill="midnightblue" stroke="midnightblue" points="87.7952,-82.6482 77.3207,-81.0555 84.5157,-88.8325 87.7952,-82.6482"/>
</g>
<!-- Node27 -->
<g id="node27" class="node"><title>Node27</title>
<polygon fill="white" stroke="#bfbfbf" points="1557.6,-257.5 1557.6,-287.5 1661.6,-287.5 1661.6,-257.5 1557.6,-257.5"/>
<text text-anchor="start" x="1565.6" y="-275.5" font-family="Helvetica,sans-Serif" font-size="10.00">boost/multiprecision</text>
<text text-anchor="middle" x="1609.6" y="-264.5" font-family="Helvetica,sans-Serif" font-size="10.00">/miller_rabin.hpp</text>
</g>
<!-- Node1&#45;&gt;Node27 -->
<g id="edge38" class="edge"><title>Node1&#45;&gt;Node27</title>
<path fill="none" stroke="midnightblue" d="M1400.69,-327.077C1434.68,-318.36 1499.39,-301.766 1547.82,-289.344"/>
<polygon fill="midnightblue" stroke="midnightblue" points="1548.77,-292.715 1557.58,-286.84 1547.03,-285.934 1548.77,-292.715"/>
</g>
<!-- Node28 -->
<g id="node28" class="node"><title>Node28</title>
<polygon fill="white" stroke="#bfbfbf" points="1680.1,-263 1680.1,-282 1809.1,-282 1809.1,-263 1680.1,-263"/>
<text text-anchor="middle" x="1744.6" y="-270" font-family="Helvetica,sans-Serif" font-size="10.00">boost/range/algorithm.hpp</text>
</g>
<!-- Node1&#45;&gt;Node28 -->
<g id="edge39" class="edge"><title>Node1&#45;&gt;Node28</title>
<path fill="none" stroke="midnightblue" d="M1400.82,-329.764C1450.45,-322.777 1570.47,-305.491 1670.6,-288 1677.78,-286.745 1685.34,-285.351 1692.77,-283.936"/>
<polygon fill="midnightblue" stroke="midnightblue" points="1693.62,-287.336 1702.78,-282.006 1692.3,-280.463 1693.62,-287.336"/>
</g>
<!-- Node29 -->
<g id="node29" class="node"><title>Node29</title>
<g id="a_node29"><a xlink:href="logger_8h.xhtml" target="_top" xlink:title="Logging capability for various purposes, such as warnings and debugging. ">
<polygon fill="white" stroke="black" points="1520.1,-129 1520.1,-148 1571.1,-148 1571.1,-129 1520.1,-129"/>
<text text-anchor="middle" x="1545.6" y="-136" font-family="Helvetica,sans-Serif" font-size="10.00">logger.h</text>
</a>
</g>
</g>
<!-- Node1&#45;&gt;Node29 -->
<g id="edge41" class="edge"><title>Node1&#45;&gt;Node29</title>
<path fill="none" stroke="midnightblue" d="M1390.35,-324.473C1415.21,-307.339 1470.74,-266.46 1505.6,-221 1520.69,-201.319 1532.34,-175.043 1539.08,-157.714"/>
<polygon fill="midnightblue" stroke="midnightblue" points="1542.4,-158.812 1542.63,-148.219 1535.85,-156.361 1542.4,-158.812"/>
</g>
<!-- Node32 -->
<g id="node32" class="node"><title>Node32</title>
<g id="a_node32"><a xlink:href="zbdd_8h.xhtml" target="_top" xlink:title="Zero&#45;Suppressed Binary Decision Diagram facilities. ">
<polygon fill="white" stroke="black" points="1180.6,-263 1180.6,-282 1226.6,-282 1226.6,-263 1180.6,-263"/>
<text text-anchor="middle" x="1203.6" y="-270" font-family="Helvetica,sans-Serif" font-size="10.00">zbdd.h</text>
</a>
</g>
</g>
<!-- Node1&#45;&gt;Node32 -->
<g id="edge46" class="edge"><title>Node1&#45;&gt;Node32</title>
<path fill="none" stroke="midnightblue" d="M1354.49,-325.099C1324.2,-314.741 1270.88,-296.508 1236.42,-284.722"/>
<polygon fill="midnightblue" stroke="midnightblue" points="1237.39,-281.358 1226.8,-281.434 1235.13,-287.981 1237.39,-281.358"/>
</g>
<!-- Node3 -->
<g id="node3" class="node"><title>Node3</title>
<polygon fill="white" stroke="#bfbfbf" points="810.598,-129 810.598,-148 854.598,-148 854.598,-129 810.598,-129"/>
<text text-anchor="middle" x="832.598" y="-136" font-family="Helvetica,sans-Serif" font-size="10.00">cmath</text>
</g>
<!-- Node2&#45;&gt;Node3 -->
<g id="edge2" class="edge"><title>Node2&#45;&gt;Node3</title>
<path fill="none" stroke="midnightblue" d="M854.226,-195.734C850.478,-185.988 844.321,-169.981 839.533,-157.532"/>
<polygon fill="midnightblue" stroke="midnightblue" points="842.773,-156.204 835.916,-148.127 836.239,-158.717 842.773,-156.204"/>
</g>
<!-- Node4 -->
<g id="node4" class="node"><title>Node4</title>
<polygon fill="white" stroke="#bfbfbf" points="159.598,-0.5 159.598,-19.5 215.598,-19.5 215.598,-0.5 159.598,-0.5"/>
<text text-anchor="middle" x="187.598" y="-7.5" font-family="Helvetica,sans-Serif" font-size="10.00">algorithm</text>
</g>
<!-- Node2&#45;&gt;Node4 -->
<g id="edge3" class="edge"><title>Node2&#45;&gt;Node4</title>
<path fill="none" stroke="midnightblue" d="M836.856,-203.245C711.918,-195.482 63.043,-152.181 6.59787,-87 -2.4215,-76.5847 -1.8882,-66.8542 6.59787,-56 7.15996,-55.2811 96.7868,-33.2351 149.691,-20.2727"/>
<polygon fill="midnightblue" stroke="midnightblue" points="150.549,-23.6662 159.429,-17.8878 148.883,-16.8672 150.549,-23.6662"/>
</g>
<!-- Node5 -->
<g id="node5" class="node"><title>Node5</title>
<polygon fill="white" stroke="#bfbfbf" points="544.098,-129 544.098,-148 611.098,-148 611.098,-129 544.098,-129"/>
<text text-anchor="middle" x="577.598" y="-136" font-family="Helvetica,sans-Serif" font-size="10.00">forward_list</text>
</g>
<!-- Node2&#45;&gt;Node5 -->
<g id="edge4" class="edge"><title>Node2&#45;&gt;Node5</title>
<path fill="none" stroke="midnightblue" d="M837.017,-201.017C795.512,-193.799 698.964,-176.03 619.598,-154 616.646,-153.181 613.598,-152.266 610.557,-151.306"/>
<polygon fill="midnightblue" stroke="midnightblue" points="611.577,-147.957 600.984,-148.145 609.382,-154.604 611.577,-147.957"/>
</g>
<!-- Node6 -->
<g id="node6" class="node"><title>Node6</title>
<polygon fill="white" stroke="#bfbfbf" points="859.598,-62 859.598,-81 911.598,-81 911.598,-62 859.598,-62"/>
<text text-anchor="middle" x="885.598" y="-69" font-family="Helvetica,sans-Serif" font-size="10.00">memory</text>
</g>
<!-- Node2&#45;&gt;Node6 -->
<g id="edge5" class="edge"><title>Node2&#45;&gt;Node6</title>
<path fill="none" stroke="midnightblue" d="M842.438,-195.945C828.877,-187.331 809.897,-172.66 801.598,-154 795.999,-141.411 794.815,-134.992 801.598,-123 807.874,-111.905 835.576,-96.4986 857.476,-85.6283"/>
<polygon fill="midnightblue" stroke="midnightblue" points="859.266,-88.6498 866.728,-81.1291 856.204,-82.3546 859.266,-88.6498"/>
</g>
<!-- Node7 -->
<g id="node7" class="node"><title>Node7</title>
<polygon fill="white" stroke="#bfbfbf" points="930.098,-62 930.098,-81 1013.1,-81 1013.1,-62 930.098,-62"/>
<text text-anchor="middle" x="971.598" y="-69" font-family="Helvetica,sans-Serif" font-size="10.00">unordered_map</text>
</g>
<!-- Node2&#45;&gt;Node7 -->
<g id="edge6" class="edge"><title>Node2&#45;&gt;Node7</title>
<path fill="none" stroke="midnightblue" d="M861.423,-195.967C868.693,-180.345 885.668,-146.586 906.598,-123 919.005,-109.018 935.705,-96.1392 949.07,-86.8871"/>
<polygon fill="midnightblue" stroke="midnightblue" points="951.347,-89.5738 957.697,-81.0922 947.444,-83.7631 951.347,-89.5738"/>
</g>
<!-- Node8 -->
<g id="node8" class="node"><title>Node8</title>
<polygon fill="white" stroke="#bfbfbf" points="101.598,-0.5 101.598,-19.5 141.598,-19.5 141.598,-0.5 101.598,-0.5"/>
<text text-anchor="middle" x="121.598" y="-7.5" font-family="Helvetica,sans-Serif" font-size="10.00">utility</text>
</g>
<!-- Node2&#45;&gt;Node8 -->
<g id="edge7" class="edge"><title>Node2&#45;&gt;Node8</title>
<path fill="none" stroke="midnightblue" d="M836.856,-203.245C711.918,-195.482 63.043,-152.181 6.59787,-87 -2.4215,-76.5847 -1.16918,-67.3798 6.59787,-56 25.3768,-28.4863 63.723,-17.794 90.9668,-13.6393"/>
<polygon fill="midnightblue" stroke="midnightblue" points="91.6959,-17.0739 101.157,-12.3064 90.7879,-10.133 91.6959,-17.0739"/>
</g>
<!-- Node9 -->
<g id="node9" class="node"><title>Node9</title>
<polygon fill="white" stroke="#bfbfbf" points="778.598,-0.5 778.598,-19.5 822.598,-19.5 822.598,-0.5 778.598,-0.5"/>
<text text-anchor="middle" x="800.598" y="-7.5" font-family="Helvetica,sans-Serif" font-size="10.00">vector</text>
</g>
<!-- Node2&#45;&gt;Node9 -->
<g id="edge8" class="edge"><title>Node2&#45;&gt;Node9</title>
<path fill="none" stroke="midnightblue" d="M878.128,-202.256C958.213,-192.758 1241.11,-151.868 1156.6,-56 1135.34,-31.8806 916.84,-17.3972 833.055,-12.6941"/>
<polygon fill="midnightblue" stroke="midnightblue" points="833.02,-9.18696 822.842,-12.1321 832.635,-16.1764 833.02,-9.18696"/>
</g>
<!-- Node10 -->
<g id="node10" class="node"><title>Node10</title>
<polygon fill="white" stroke="#bfbfbf" points="948.598,-129 948.598,-148 1076.6,-148 1076.6,-129 948.598,-129"/>
<text text-anchor="middle" x="1012.6" y="-136" font-family="Helvetica,sans-Serif" font-size="10.00">boost/functional/hash.hpp</text>
</g>
<!-- Node2&#45;&gt;Node10 -->
<g id="edge9" class="edge"><title>Node2&#45;&gt;Node10</title>
<path fill="none" stroke="midnightblue" d="M878.181,-195.869C904.931,-184.65 951.846,-164.977 982.57,-152.092"/>
<polygon fill="midnightblue" stroke="midnightblue" points="984.062,-155.262 991.93,-148.167 981.354,-148.807 984.062,-155.262"/>
</g>
<!-- Node11 -->
<g id="node11" class="node"><title>Node11</title>
<polygon fill="white" stroke="#bfbfbf" points="1031.1,-62 1031.1,-81 1148.1,-81 1148.1,-62 1031.1,-62"/>
<text text-anchor="middle" x="1089.6" y="-69" font-family="Helvetica,sans-Serif" font-size="10.00">boost/noncopyable.hpp</text>
</g>
<!-- Node2&#45;&gt;Node11 -->
<g id="edge10" class="edge"><title>Node2&#45;&gt;Node11</title>
<path fill="none" stroke="midnightblue" d="M865.853,-195.862C884.905,-175.992 930.975,-128.329 939.598,-123 969.944,-104.247 1008.09,-91.5264 1038.32,-83.5432"/>
<polygon fill="midnightblue" stroke="midnightblue" points="1039.41,-86.8753 1048.24,-81.0156 1037.69,-80.0918 1039.41,-86.8753"/>
</g>
<!-- Node12 -->
<g id="node12" class="node"><title>Node12</title>
<polygon fill="white" stroke="#bfbfbf" points="629.098,-123.5 629.098,-153.5 754.098,-153.5 754.098,-123.5 629.098,-123.5"/>
<text text-anchor="start" x="637.098" y="-141.5" font-family="Helvetica,sans-Serif" font-size="10.00">boost/smart_ptr/intrusive</text>
<text text-anchor="middle" x="691.598" y="-130.5" font-family="Helvetica,sans-Serif" font-size="10.00">_ptr.hpp</text>
</g>
<!-- Node2&#45;&gt;Node12 -->
<g id="edge11" class="edge"><title>Node2&#45;&gt;Node12</title>
<path fill="none" stroke="midnightblue" d="M836.909,-196.399C811.992,-186.642 769.417,-169.971 736.772,-157.189"/>
<polygon fill="midnightblue" stroke="midnightblue" points="738.01,-153.915 727.422,-153.527 735.457,-160.433 738.01,-153.915"/>
</g>
<!-- Node13 -->
<g id="node13" class="node"><title>Node13</title>
<g id="a_node13"><a xlink:href="pdag_8h.xhtml" target="_top" xlink:title="Classes and facilities to represent fault trees as PDAGs with event and gate indices instead of ID na...">
<polygon fill="white" stroke="black" points="479.598,-129 479.598,-148 525.598,-148 525.598,-129 479.598,-129"/>
<text text-anchor="middle" x="502.598" y="-136" font-family="Helvetica,sans-Serif" font-size="10.00">pdag.h</text>
</a>
</g>
</g>
<!-- Node2&#45;&gt;Node13 -->
<g id="edge12" class="edge"><title>Node2&#45;&gt;Node13</title>
<path fill="none" stroke="midnightblue" d="M836.764,-203.198C784.776,-199.531 645.54,-187.139 534.598,-154 532.669,-153.424 530.706,-152.755 528.75,-152.028"/>
<polygon fill="midnightblue" stroke="midnightblue" points="529.786,-148.668 519.209,-148.053 527.094,-155.13 529.786,-148.668"/>
</g>
<!-- Node25 -->
<g id="node25" class="node"><title>Node25</title>
<g id="a_node25"><a xlink:href="settings_8h.xhtml" target="_top" xlink:title="Builder for settings. ">
<polygon fill="white" stroke="black" points="1273.1,-129 1273.1,-148 1332.1,-148 1332.1,-129 1273.1,-129"/>
<text text-anchor="middle" x="1302.6" y="-136" font-family="Helvetica,sans-Serif" font-size="10.00">settings.h</text>
</a>
</g>
</g>
<!-- Node2&#45;&gt;Node25 -->
<g id="edge35" class="edge"><title>Node2&#45;&gt;Node25</title>
<path fill="none" stroke="midnightblue" d="M878.169,-201.495C947.214,-191.41 1171.49,-158.651 1263.08,-145.272"/>
<polygon fill="midnightblue" stroke="midnightblue" points="1263.68,-148.722 1273.07,-143.814 1262.66,-141.796 1263.68,-148.722"/>
</g>
<!-- Node13&#45;&gt;Node4 -->
<g id="edge15" class="edge"><title>Node13&#45;&gt;Node4</title>
<path fill="none" stroke="midnightblue" d="M479.431,-137.291C414.162,-136.179 231.007,-129.277 192.598,-87 178.666,-71.6658 179.915,-46.6334 182.981,-29.518"/>
<polygon fill="midnightblue" stroke="midnightblue" points="186.434,-30.108 185.117,-19.5954 179.591,-28.6349 186.434,-30.108"/>
</g>
<!-- Node13&#45;&gt;Node6 -->
<g id="edge17" class="edge"><title>Node13&#45;&gt;Node6</title>
<path fill="none" stroke="midnightblue" d="M518.839,-128.961C523.781,-126.688 529.307,-124.462 534.598,-123 670.418,-85.466 713.01,-121.636 849.598,-87 852.261,-86.3246 854.99,-85.4964 857.695,-84.5812"/>
<polygon fill="midnightblue" stroke="midnightblue" points="859.099,-87.7928 867.232,-81.0034 856.64,-81.2388 859.099,-87.7928"/>
</g>
<!-- Node13&#45;&gt;Node7 -->
<g id="edge18" class="edge"><title>Node13&#45;&gt;Node7</title>
<path fill="none" stroke="midnightblue" d="M518.821,-128.891C523.762,-126.617 529.292,-124.407 534.598,-123 701.141,-78.8345 751.238,-118.694 920.598,-87 925.379,-86.1052 930.36,-84.962 935.253,-83.7111"/>
<polygon fill="midnightblue" stroke="midnightblue" points="936.354,-87.0389 945.085,-81.037 934.517,-80.2843 936.354,-87.0389"/>
</g>
<!-- Node13&#45;&gt;Node8 -->
<g id="edge19" class="edge"><title>Node13&#45;&gt;Node8</title>
<path fill="none" stroke="midnightblue" d="M497.923,-128.761C488.173,-111.507 463.871,-73.2467 431.598,-56 323.37,1.83631 276.055,-44.2866 151.643,-19.8076"/>
<polygon fill="midnightblue" stroke="midnightblue" points="152.264,-16.3619 141.76,-17.7476 150.835,-23.2146 152.264,-16.3619"/>
</g>
<!-- Node13&#45;&gt;Node9 -->
<g id="edge20" class="edge"><title>Node13&#45;&gt;Node9</title>
<path fill="none" stroke="midnightblue" d="M519.598,-128.977C524.369,-126.812 529.615,-124.638 534.598,-123 607.552,-99.0127 634.141,-119.762 703.598,-87 723.624,-77.5539 725.184,-69.6756 742.598,-56 755.537,-45.8383 770.176,-34.4821 781.509,-25.72"/>
<polygon fill="midnightblue" stroke="midnightblue" points="783.674,-28.4706 789.449,-19.5881 779.395,-22.9306 783.674,-28.4706"/>
</g>
<!-- Node13&#45;&gt;Node11 -->
<g id="edge22" class="edge"><title>Node13&#45;&gt;Node11</title>
<path fill="none" stroke="midnightblue" d="M518.475,-128.979C523.498,-126.649 529.16,-124.386 534.598,-123 744.906,-69.3849 806.745,-117.702 1021.6,-87 1028.91,-85.9552 1036.61,-84.5814 1044.1,-83.0957"/>
<polygon fill="midnightblue" stroke="midnightblue" points="1045.03,-86.476 1054.12,-81.0207 1043.62,-79.6214 1045.03,-86.476"/>
</g>
<!-- Node14 -->
<g id="node14" class="node"><title>Node14</title>
<polygon fill="white" stroke="#bfbfbf" points="1392.6,-62 1392.6,-81 1438.6,-81 1438.6,-62 1392.6,-62"/>
<text text-anchor="middle" x="1415.6" y="-69" font-family="Helvetica,sans-Serif" font-size="10.00">cstdint</text>
</g>
<!-- Node13&#45;&gt;Node14 -->
<g id="edge13" class="edge"><title>Node13&#45;&gt;Node14</title>
<path fill="none" stroke="midnightblue" d="M518.452,-128.883C523.474,-126.549 529.141,-124.308 534.598,-123 707.004,-81.6682 1155.34,-106.117 1331.6,-87 1348.45,-85.1719 1367.04,-82.0761 1382.44,-79.2134"/>
<polygon fill="midnightblue" stroke="midnightblue" points="1383.37,-82.6004 1392.53,-77.2872 1382.05,-75.7246 1383.37,-82.6004"/>
</g>
<!-- Node15 -->
<g id="node15" class="node"><title>Node15</title>
<polygon fill="white" stroke="#bfbfbf" points="480.098,-62 480.098,-81 525.098,-81 525.098,-62 480.098,-62"/>
<text text-anchor="middle" x="502.598" y="-69" font-family="Helvetica,sans-Serif" font-size="10.00">cstdlib</text>
</g>
<!-- Node13&#45;&gt;Node15 -->
<g id="edge14" class="edge"><title>Node13&#45;&gt;Node15</title>
<path fill="none" stroke="midnightblue" d="M502.598,-128.734C502.598,-119.183 502.598,-103.618 502.598,-91.2829"/>
<polygon fill="midnightblue" stroke="midnightblue" points="506.098,-91.1273 502.598,-81.1273 499.098,-91.1273 506.098,-91.1273"/>
</g>
<!-- Node16 -->
<g id="node16" class="node"><title>Node16</title>
<polygon fill="white" stroke="#bfbfbf" points="543.098,-62 543.098,-81 588.098,-81 588.098,-62 543.098,-62"/>
<text text-anchor="middle" x="565.598" y="-69" font-family="Helvetica,sans-Serif" font-size="10.00">iosfwd</text>
</g>
<!-- Node13&#45;&gt;Node16 -->
<g id="edge16" class="edge"><title>Node13&#45;&gt;Node16</title>
<path fill="none" stroke="midnightblue" d="M511.094,-128.734C521.107,-118.403 537.939,-101.037 550.253,-88.3315"/>
<polygon fill="midnightblue" stroke="midnightblue" points="552.79,-90.7439 557.236,-81.1273 547.763,-85.8721 552.79,-90.7439"/>
</g>
<!-- Node17 -->
<g id="node17" class="node"><title>Node17</title>
<polygon fill="white" stroke="#bfbfbf" points="201.598,-56.5 201.598,-86.5 301.598,-86.5 301.598,-56.5 201.598,-56.5"/>
<text text-anchor="start" x="209.598" y="-74.5" font-family="Helvetica,sans-Serif" font-size="10.00">boost/container/flat</text>
<text text-anchor="middle" x="251.598" y="-63.5" font-family="Helvetica,sans-Serif" font-size="10.00">_set.hpp</text>
</g>
<!-- Node13&#45;&gt;Node17 -->
<g id="edge21" class="edge"><title>Node13&#45;&gt;Node17</title>
<path fill="none" stroke="midnightblue" d="M479.434,-131.501C441.617,-121.708 365.441,-101.981 311.604,-88.0395"/>
<polygon fill="midnightblue" stroke="midnightblue" points="312.384,-84.626 301.826,-85.5072 310.629,-91.4025 312.384,-84.626"/>
</g>
<!-- Node18 -->
<g id="node18" class="node"><title>Node18</title>
<polygon fill="white" stroke="#bfbfbf" points="320.098,-56.5 320.098,-86.5 423.098,-86.5 423.098,-56.5 320.098,-56.5"/>
<text text-anchor="start" x="328.098" y="-74.5" font-family="Helvetica,sans-Serif" font-size="10.00">boost/range/adaptor</text>
<text text-anchor="middle" x="371.598" y="-63.5" font-family="Helvetica,sans-Serif" font-size="10.00">/transformed.hpp</text>
</g>
<!-- Node13&#45;&gt;Node18 -->
<g id="edge23" class="edge"><title>Node13&#45;&gt;Node18</title>
<path fill="none" stroke="midnightblue" d="M485.202,-128.869C465.947,-119.315 434.332,-103.627 409.335,-91.2246"/>
<polygon fill="midnightblue" stroke="midnightblue" points="410.632,-87.9612 400.119,-86.6516 407.521,-94.2317 410.632,-87.9612"/>
</g>
<!-- Node13&#45;&gt;Node19 -->
<g id="edge24" class="edge"><title>Node13&#45;&gt;Node19</title>
<path fill="none" stroke="midnightblue" d="M479.307,-134.077C423.9,-125.932 279.88,-104.753 159.598,-87 146.175,-85.0188 131.718,-82.8817 118.14,-80.8729"/>
<polygon fill="midnightblue" stroke="midnightblue" points="118.363,-77.368 107.959,-79.3664 117.339,-84.2926 118.363,-77.368"/>
</g>
<!-- Node20 -->
<g id="node20" class="node"><title>Node20</title>
<g id="a_node20"><a xlink:href="index__map_8h.xhtml" target="_top" xlink:title="Non&#45;zero based Index&#45;&gt;Value map adapter on sequential containers. ">
<polygon fill="white" stroke="black" points="752.098,-62 752.098,-81 841.098,-81 841.098,-62 752.098,-62"/>
<text text-anchor="middle" x="796.598" y="-69" font-family="Helvetica,sans-Serif" font-size="10.00">ext/index_map.h</text>
</a>
</g>
</g>
<!-- Node13&#45;&gt;Node20 -->
<g id="edge26" class="edge"><title>Node13&#45;&gt;Node20</title>
<path fill="none" stroke="midnightblue" d="M519.562,-128.864C524.332,-126.698 529.588,-124.553 534.598,-123 622.122,-95.8793 647.948,-105.944 737.598,-87 742.755,-85.9103 748.146,-84.6936 753.484,-83.4409"/>
<polygon fill="midnightblue" stroke="midnightblue" points="754.701,-86.7484 763.608,-81.0116 753.068,-79.9416 754.701,-86.7484"/>
</g>
<!-- Node21 -->
<g id="node21" class="node"><title>Node21</title>
<g id="a_node21"><a xlink:href="linear__map_8h.xhtml" target="_top" xlink:title="Implementation of a vector&#45;based map for a small number of entries. ">
<polygon fill="white" stroke="black" points="606.098,-62 606.098,-81 695.098,-81 695.098,-62 606.098,-62"/>
<text text-anchor="middle" x="650.598" y="-69" font-family="Helvetica,sans-Serif" font-size="10.00">ext/linear_map.h</text>
</a>
</g>
</g>
<!-- Node13&#45;&gt;Node21 -->
<g id="edge28" class="edge"><title>Node13&#45;&gt;Node21</title>
<path fill="none" stroke="midnightblue" d="M521.528,-128.866C525.82,-126.924 530.362,-124.882 534.598,-123 563.93,-109.971 597.571,-95.362 621.045,-85.2221"/>
<polygon fill="midnightblue" stroke="midnightblue" points="622.646,-88.3434 630.44,-81.1677 619.872,-81.9163 622.646,-88.3434"/>
</g>
<!-- Node19&#45;&gt;Node8 -->
<g id="edge25" class="edge"><title>Node19&#45;&gt;Node8</title>
<path fill="none" stroke="midnightblue" d="M70.1944,-61.9751C79.4618,-52.785 94.415,-37.9563 105.81,-26.656"/>
<polygon fill="midnightblue" stroke="midnightblue" points="108.381,-29.0358 113.017,-19.5091 103.452,-24.0653 108.381,-29.0358"/>
</g>
<!-- Node20&#45;&gt;Node9 -->
<g id="edge27" class="edge"><title>Node20&#45;&gt;Node9</title>
<path fill="none" stroke="midnightblue" d="M797.171,-61.9751C797.735,-53.5803 798.616,-40.4806 799.343,-29.6631"/>
<polygon fill="midnightblue" stroke="midnightblue" points="802.847,-29.7214 800.026,-19.5091 795.863,-29.2518 802.847,-29.7214"/>
</g>
<!-- Node21&#45;&gt;Node4 -->
<g id="edge30" class="edge"><title>Node21&#45;&gt;Node4</title>
<path fill="none" stroke="midnightblue" d="M621.92,-61.9271C613.793,-59.7362 604.897,-57.5614 596.598,-56 461.768,-30.6344 299.047,-18.0011 226.168,-13.2725"/>
<polygon fill="midnightblue" stroke="midnightblue" points="226.284,-9.77286 216.082,-12.6316 225.84,-16.7588 226.284,-9.77286"/>
</g>
<!-- Node21&#45;&gt;Node8 -->
<g id="edge34" class="edge"><title>Node21&#45;&gt;Node8</title>
<path fill="none" stroke="midnightblue" d="M622.786,-61.9964C614.436,-59.725 605.206,-57.4904 596.598,-56 403.899,-22.6369 347.717,-56.5369 151.779,-19.7936"/>
<polygon fill="midnightblue" stroke="midnightblue" points="152.214,-16.3135 141.734,-17.8717 150.898,-23.1888 152.214,-16.3135"/>
</g>
<!-- Node21&#45;&gt;Node9 -->
<g id="edge33" class="edge"><title>Node21&#45;&gt;Node9</title>
<path fill="none" stroke="midnightblue" d="M672.089,-61.9751C697.708,-51.8129 740.708,-34.7564 769.843,-23.1996"/>
<polygon fill="midnightblue" stroke="midnightblue" points="771.142,-26.4497 779.146,-19.5091 768.56,-19.9429 771.142,-26.4497"/>
</g>
<!-- Node22 -->
<g id="node22" class="node"><title>Node22</title>
<polygon fill="white" stroke="#bfbfbf" points="543.098,-0.5 543.098,-19.5 592.098,-19.5 592.098,-0.5 543.098,-0.5"/>
<text text-anchor="middle" x="567.598" y="-7.5" font-family="Helvetica,sans-Serif" font-size="10.00">cassert</text>
</g>
<!-- Node21&#45;&gt;Node22 -->
<g id="edge29" class="edge"><title>Node21&#45;&gt;Node22</title>
<path fill="none" stroke="midnightblue" d="M638.706,-61.9751C625.393,-52.4315 603.598,-36.8073 587.641,-25.3683"/>
<polygon fill="midnightblue" stroke="midnightblue" points="589.634,-22.4908 579.468,-19.5091 585.556,-28.18 589.634,-22.4908"/>
</g>
<!-- Node23 -->
<g id="node23" class="node"><title>Node23</title>
<polygon fill="white" stroke="#bfbfbf" points="610.098,-0.5 610.098,-19.5 683.098,-19.5 683.098,-0.5 610.098,-0.5"/>
<text text-anchor="middle" x="646.598" y="-7.5" font-family="Helvetica,sans-Serif" font-size="10.00">initializer_list</text>
</g>
<!-- Node21&#45;&gt;Node23 -->
<g id="edge31" class="edge"><title>Node21&#45;&gt;Node23</title>
<path fill="none" stroke="midnightblue" d="M650.025,-61.9751C649.46,-53.5803 648.58,-40.4806 647.853,-29.6631"/>
<polygon fill="midnightblue" stroke="midnightblue" points="651.333,-29.2518 647.17,-19.5091 644.349,-29.7214 651.333,-29.2518"/>
</g>
<!-- Node24 -->
<g id="node24" class="node"><title>Node24</title>
<polygon fill="white" stroke="#bfbfbf" points="701.098,-0.5 701.098,-19.5 760.098,-19.5 760.098,-0.5 701.098,-0.5"/>
<text text-anchor="middle" x="730.598" y="-7.5" font-family="Helvetica,sans-Serif" font-size="10.00">stdexcept</text>
</g>
<!-- Node21&#45;&gt;Node24 -->
<g id="edge32" class="edge"><title>Node21&#45;&gt;Node24</title>
<path fill="none" stroke="midnightblue" d="M662.06,-61.9751C674.773,-52.5199 695.511,-37.0961 710.85,-25.6871"/>
<polygon fill="midnightblue" stroke="midnightblue" points="713.222,-28.2854 719.157,-19.5091 709.044,-22.6686 713.222,-28.2854"/>
</g>
<!-- Node25&#45;&gt;Node14 -->
<g id="edge36" class="edge"><title>Node25&#45;&gt;Node14</title>
<path fill="none" stroke="midnightblue" d="M1317.84,-128.734C1336.81,-117.818 1369.44,-99.0487 1391.74,-86.2209"/>
<polygon fill="midnightblue" stroke="midnightblue" points="1393.68,-89.1474 1400.6,-81.1273 1390.19,-83.0796 1393.68,-89.1474"/>
</g>
<!-- Node26 -->
<g id="node26" class="node"><title>Node26</title>
<polygon fill="white" stroke="#bfbfbf" points="1282.1,-62 1282.1,-81 1323.1,-81 1323.1,-62 1282.1,-62"/>
<text text-anchor="middle" x="1302.6" y="-69" font-family="Helvetica,sans-Serif" font-size="10.00">string</text>
</g>
<!-- Node25&#45;&gt;Node26 -->
<g id="edge37" class="edge"><title>Node25&#45;&gt;Node26</title>
<path fill="none" stroke="midnightblue" d="M1302.6,-128.734C1302.6,-119.183 1302.6,-103.618 1302.6,-91.2829"/>
<polygon fill="midnightblue" stroke="midnightblue" points="1306.1,-91.1273 1302.6,-81.1273 1299.1,-91.1273 1306.1,-91.1273"/>
</g>
<!-- Node29&#45;&gt;Node11 -->
<g id="edge45" class="edge"><title>Node29&#45;&gt;Node11</title>
<path fill="none" stroke="midnightblue" d="M1519.77,-133.819C1450.94,-124.008 1261.32,-96.9777 1158.33,-82.297"/>
<polygon fill="midnightblue" stroke="midnightblue" points="1158.73,-78.8189 1148.33,-80.8726 1157.74,-85.7488 1158.73,-78.8189"/>
</g>
<!-- Node29&#45;&gt;Node14 -->
<g id="edge42" class="edge"><title>Node29&#45;&gt;Node14</title>
<path fill="none" stroke="midnightblue" d="M1528.33,-128.869C1506.29,-117.845 1467.91,-98.6554 1442.13,-85.7678"/>
<polygon fill="midnightblue" stroke="midnightblue" points="1443.44,-82.5089 1432.93,-81.1672 1440.31,-88.7699 1443.44,-82.5089"/>
</g>
<!-- Node30 -->
<g id="node30" class="node"><title>Node30</title>
<polygon fill="white" stroke="#bfbfbf" points="1520.6,-62 1520.6,-81 1566.6,-81 1566.6,-62 1520.6,-62"/>
<text text-anchor="middle" x="1543.6" y="-69" font-family="Helvetica,sans-Serif" font-size="10.00">chrono</text>
</g>
<!-- Node29&#45;&gt;Node30 -->
<g id="edge43" class="edge"><title>Node29&#45;&gt;Node30</title>
<path fill="none" stroke="midnightblue" d="M1545.33,-128.734C1545.03,-119.183 1544.56,-103.618 1544.18,-91.2829"/>
<polygon fill="midnightblue" stroke="midnightblue" points="1547.67,-91.0149 1543.86,-81.1273 1540.67,-91.2302 1547.67,-91.0149"/>
</g>
<!-- Node31 -->
<g id="node31" class="node"><title>Node31</title>
<polygon fill="white" stroke="#bfbfbf" points="1584.6,-62 1584.6,-81 1636.6,-81 1636.6,-62 1584.6,-62"/>
<text text-anchor="middle" x="1610.6" y="-69" font-family="Helvetica,sans-Serif" font-size="10.00">sstream</text>
</g>
<!-- Node29&#45;&gt;Node31 -->
<g id="edge44" class="edge"><title>Node29&#45;&gt;Node31</title>
<path fill="none" stroke="midnightblue" d="M1554.36,-128.734C1564.69,-118.403 1582.06,-101.037 1594.77,-88.3315"/>
<polygon fill="midnightblue" stroke="midnightblue" points="1597.37,-90.6733 1601.97,-81.1273 1592.42,-85.7235 1597.37,-90.6733"/>
</g>
<!-- Node32&#45;&gt;Node2 -->
<g id="edge57" class="edge"><title>Node32&#45;&gt;Node2</title>
<path fill="none" stroke="midnightblue" d="M1180.36,-267.134C1119.81,-255.759 957.154,-225.203 888.669,-212.337"/>
<polygon fill="midnightblue" stroke="midnightblue" points="888.99,-208.836 878.516,-210.43 887.698,-215.716 888.99,-208.836"/>
</g>
<!-- Node32&#45;&gt;Node6 -->
<g id="edge50" class="edge"><title>Node32&#45;&gt;Node6</title>
<path fill="none" stroke="midnightblue" d="M1197.27,-262.868C1175,-232.578 1100.76,-132.445 1085.6,-123 1021.89,-83.3157 992.219,-109.453 920.598,-87 918.456,-86.3286 916.264,-85.5785 914.072,-84.7827"/>
<polygon fill="midnightblue" stroke="midnightblue" points="915.215,-81.4719 904.626,-81.1029 912.674,-87.9944 915.215,-81.4719"/>
</g>
<!-- Node32&#45;&gt;Node7 -->
<g id="edge51" class="edge"><title>Node32&#45;&gt;Node7</title>
<path fill="none" stroke="midnightblue" d="M1201.01,-262.69C1193.07,-237.214 1166.67,-162.753 1118.6,-123 1109.93,-115.831 1050.18,-96.5753 1009.58,-84.0201"/>
<polygon fill="midnightblue" stroke="midnightblue" points="1010.55,-80.6577 999.965,-81.0617 1008.49,-87.3481 1010.55,-80.6577"/>
</g>
<!-- Node32&#45;&gt;Node8 -->
<g id="edge52" class="edge"><title>Node32&#45;&gt;Node8</title>
<path fill="none" stroke="midnightblue" d="M1180.22,-268.789C1121.04,-261.833 960.58,-242.394 827.598,-221 536.379,-174.149 424.278,-248.718 177.598,-87 155.599,-72.5779 139.173,-46.3664 129.979,-28.8172"/>
<polygon fill="midnightblue" stroke="midnightblue" points="133.001,-27.0347 125.413,-19.6401 126.734,-30.1524 133.001,-27.0347"/>
</g>
<!-- Node32&#45;&gt;Node9 -->
<g id="edge53" class="edge"><title>Node32&#45;&gt;Node9</title>
<path fill="none" stroke="midnightblue" d="M1226.81,-270.357C1283.23,-267.054 1425.1,-255.427 1454.6,-221 1502.36,-165.265 1501.5,-105.819 1447.6,-56 1402.15,-13.9969 957.618,-10.9489 832.953,-10.9258"/>
<polygon fill="midnightblue" stroke="midnightblue" points="832.884,-7.42571 822.885,-10.9306 832.887,-14.4257 832.884,-7.42571"/>
</g>
<!-- Node32&#45;&gt;Node10 -->
<g id="edge54" class="edge"><title>Node32&#45;&gt;Node10</title>
<path fill="none" stroke="midnightblue" d="M1180.59,-264.184C1156.75,-255.947 1119.05,-241.05 1090.6,-221 1064.42,-202.556 1039.86,-174.427 1025.54,-156.508"/>
<polygon fill="midnightblue" stroke="midnightblue" points="1027.94,-153.897 1019.02,-148.173 1022.42,-158.207 1027.94,-153.897"/>
</g>
<!-- Node32&#45;&gt;Node11 -->
<g id="edge56" class="edge"><title>Node32&#45;&gt;Node11</title>
<path fill="none" stroke="midnightblue" d="M1202.85,-262.927C1201.98,-252.885 1200.56,-235.744 1199.6,-221 1198.89,-210.12 1200.63,-132.08 1194.6,-123 1181.93,-103.95 1159.97,-91.8762 1139.39,-84.3322"/>
<polygon fill="midnightblue" stroke="midnightblue" points="1140.35,-80.9637 1129.76,-81.0791 1138.11,-87.5955 1140.35,-80.9637"/>
</g>
<!-- Node32&#45;&gt;Node14 -->
<g id="edge47" class="edge"><title>Node32&#45;&gt;Node14</title>
<path fill="none" stroke="midnightblue" d="M1226.92,-269.972C1280.11,-265.953 1407.78,-253.096 1433.6,-221 1464.31,-182.818 1439.97,-120.256 1425.05,-89.989"/>
<polygon fill="midnightblue" stroke="midnightblue" points="1428.13,-88.332 1420.44,-81.0446 1421.91,-91.5373 1428.13,-88.332"/>
</g>
<!-- Node33 -->
<g id="node33" class="node"><title>Node33</title>
<polygon fill="white" stroke="#bfbfbf" points="1208.6,-196 1208.6,-215 1246.6,-215 1246.6,-196 1208.6,-196"/>
<text text-anchor="middle" x="1227.6" y="-203" font-family="Helvetica,sans-Serif" font-size="10.00">array</text>
</g>
<!-- Node32&#45;&gt;Node33 -->
<g id="edge48" class="edge"><title>Node32&#45;&gt;Node33</title>
<path fill="none" stroke="midnightblue" d="M1206.83,-262.734C1210.43,-252.988 1216.34,-236.981 1220.94,-224.532"/>
<polygon fill="midnightblue" stroke="midnightblue" points="1224.23,-225.721 1224.41,-215.127 1217.67,-223.296 1224.23,-225.721"/>
</g>
<!-- Node34 -->
<g id="node34" class="node"><title>Node34</title>
<polygon fill="white" stroke="#bfbfbf" points="1265.1,-196 1265.1,-215 1300.1,-215 1300.1,-196 1265.1,-196"/>
<text text-anchor="middle" x="1282.6" y="-203" font-family="Helvetica,sans-Serif" font-size="10.00">map</text>
</g>
<!-- Node32&#45;&gt;Node34 -->
<g id="edge49" class="edge"><title>Node32&#45;&gt;Node34</title>
<path fill="none" stroke="midnightblue" d="M1214.25,-262.734C1227.05,-252.208 1248.71,-234.379 1264.22,-221.617"/>
<polygon fill="midnightblue" stroke="midnightblue" points="1266.61,-224.184 1272.11,-215.127 1262.17,-218.778 1266.61,-224.184"/>
</g>
<!-- Node35 -->
<g id="node35" class="node"><title>Node35</title>
<polygon fill="white" stroke="#bfbfbf" points="1318.1,-190.5 1318.1,-220.5 1425.1,-220.5 1425.1,-190.5 1318.1,-190.5"/>
<text text-anchor="start" x="1326.1" y="-208.5" font-family="Helvetica,sans-Serif" font-size="10.00">boost/iterator/iterator</text>
<text text-anchor="middle" x="1371.6" y="-197.5" font-family="Helvetica,sans-Serif" font-size="10.00">_facade.hpp</text>
</g>
<!-- Node32&#45;&gt;Node35 -->
<g id="edge55" class="edge"><title>Node32&#45;&gt;Node35</title>
<path fill="none" stroke="midnightblue" d="M1225.91,-262.869C1251.23,-253.073 1293.21,-236.83 1325.62,-224.29"/>
<polygon fill="midnightblue" stroke="midnightblue" points="1327.28,-227.401 1335.34,-220.528 1324.75,-220.872 1327.28,-227.401"/>
</g>
</g>
</svg>
