<?xml version="1.0" encoding="UTF-8" standalone="no"?>
<!DOCTYPE svg PUBLIC "-//W3C//DTD SVG 1.1//EN"
 "http://www.w3.org/Graphics/SVG/1.1/DTD/svg11.dtd">
<!-- Generated by graphviz version 2.38.0 (20140413.2041)
 -->
<!-- Title: bdd.h Pages: 1 -->
<!--zoomable 218 -->
<svg id="main" version="1.1" xmlns="http://www.w3.org/2000/svg" xmlns:xlink="http://www.w3.org/1999/xlink" xml:space="preserve" onload="init(evt)">
<style type="text/css"><![CDATA[
.edge:hover path { stroke: red; }
.edge:hover polygon { stroke: red; fill: red; }
]]></style>
<script type="text/javascript"><![CDATA[
var edges = document.getElementsByTagName('g');
if (edges && edges.length) {
  for (var i=0;i<edges.length;i++) {
    if (edges[i].id.substr(0,4)=='edge') {
      edges[i].setAttribute('class','edge');
    }
  }
}
]]></script>
        <defs>
                <circle id="rim" cx="0" cy="0" r="7"/>
                <circle id="rim2" cx="0" cy="0" r="3.5"/>
                <g id="zoomPlus">
                        <use xlink:href="#rim" fill="#404040">
                                <set attributeName="fill" to="#808080" begin="zoomplus.mouseover" end="zoomplus.mouseout"/>
                        </use>
                        <path d="M-4,0h8M0,-4v8" fill="none" stroke="white" stroke-width="1.5" pointer-events="none"/>
                </g>
                <g id="zoomMin">
                        <use xlink:href="#rim" fill="#404040">
                                <set attributeName="fill" to="#808080" begin="zoomminus.mouseover" end="zoomminus.mouseout"/>
                        </use>
                        <path d="M-4,0h8" fill="none" stroke="white" stroke-width="1.5" pointer-events="none"/>
                </g>
                <g id="dirArrow">
                        <path fill="none" stroke="white" stroke-width="1.5" d="M0,-3.0v7 M-2.5,-0.5L0,-3.0L2.5,-0.5"/>
                </g>
               <g id="resetDef">
                       <use xlink:href="#rim2" fill="#404040">
                               <set attributeName="fill" to="#808080" begin="reset.mouseover" end="reset.mouseout"/>
                       </use>
               </g>
        </defs>

<script type="text/javascript">
var viewWidth = 1397;
var viewHeight = 218;
var sectionId = 'dynsection-0';
</script>
<script xlink:href="svgpan.js"/>
<svg id="graph" class="graph">
<g id="viewport">
<title>bdd.h</title>
<polygon fill="white" stroke="none" points="-4,4 -4,-214 1392.84,-214 1392.84,4 -4,4"/>
<!-- Node1 -->
<g id="node1" class="node"><title>Node1</title>
<polygon fill="#bfbfbf" stroke="black" points="270.5,-190.5 270.5,-209.5 311.5,-209.5 311.5,-190.5 270.5,-190.5"/>
<text text-anchor="middle" x="291" y="-197.5" font-family="Helvetica,sans-Serif" font-size="10.00">bdd.h</text>
</g>
<!-- Node2 -->
<g id="node2" class="node"><title>Node2</title>
<polygon fill="white" stroke="#bfbfbf" points="0,-129 0,-148 44,-148 44,-129 0,-129"/>
<text text-anchor="middle" x="22" y="-136" font-family="Helvetica,sans-Serif" font-size="10.00">cmath</text>
</g>
<!-- Node1&#45;&gt;Node2 -->
<g id="edge1" class="edge"><title>Node1&#45;&gt;Node2</title>
<path fill="none" stroke="midnightblue" d="M270.427,-196.382C229.426,-190.869 134.858,-176.671 58,-154 55.5684,-153.283 53.074,-152.463 50.5877,-151.587"/>
<polygon fill="midnightblue" stroke="midnightblue" points="51.78,-148.296 41.1887,-148.021 49.2973,-154.841 51.78,-148.296"/>
</g>
<!-- Node3 -->
<g id="node3" class="node"><title>Node3</title>
<polygon fill="white" stroke="#bfbfbf" points="636,-0.5 636,-19.5 692,-19.5 692,-0.5 636,-0.5"/>
<text text-anchor="middle" x="664" y="-7.5" font-family="Helvetica,sans-Serif" font-size="10.00">algorithm</text>
</g>
<!-- Node1&#45;&gt;Node3 -->
<g id="edge2" class="edge"><title>Node1&#45;&gt;Node3</title>
<path fill="none" stroke="midnightblue" d="M275.973,-190.469C261.116,-181.837 237.924,-167.827 219,-154 209.707,-147.21 144.837,-97.4439 140,-87 134.21,-74.4978 130.681,-66.148 140,-56 171.83,-21.3387 515.117,-24.0681 562,-20 583.07,-18.1717 606.585,-16.099 625.723,-14.4039"/>
<polygon fill="midnightblue" stroke="midnightblue" points="626.209,-17.8746 635.861,-13.505 625.591,-10.902 626.209,-17.8746"/>
</g>
<!-- Node4 -->
<g id="node4" class="node"><title>Node4</title>
<polygon fill="white" stroke="#bfbfbf" points="100.5,-129 100.5,-148 167.5,-148 167.5,-129 100.5,-129"/>
<text text-anchor="middle" x="134" y="-136" font-family="Helvetica,sans-Serif" font-size="10.00">forward_list</text>
</g>
<!-- Node1&#45;&gt;Node4 -->
<g id="edge3" class="edge"><title>Node1&#45;&gt;Node4</title>
<path fill="none" stroke="midnightblue" d="M270.475,-191.221C243.924,-181.159 197.382,-163.521 166.128,-151.676"/>
<polygon fill="midnightblue" stroke="midnightblue" points="167.154,-148.322 156.562,-148.051 164.673,-154.867 167.154,-148.322"/>
</g>
<!-- Node5 -->
<g id="node5" class="node"><title>Node5</title>
<polygon fill="white" stroke="#bfbfbf" points="149,-62 149,-81 201,-81 201,-62 149,-62"/>
<text text-anchor="middle" x="175" y="-69" font-family="Helvetica,sans-Serif" font-size="10.00">memory</text>
</g>
<!-- Node1&#45;&gt;Node5 -->
<g id="edge4" class="edge"><title>Node1&#45;&gt;Node5</title>
<path fill="none" stroke="midnightblue" d="M283.027,-190.305C263.822,-169.362 214.755,-115.854 189.904,-88.7532"/>
<polygon fill="midnightblue" stroke="midnightblue" points="192.367,-86.2606 183.029,-81.2557 187.208,-90.9916 192.367,-86.2606"/>
</g>
<!-- Node6 -->
<g id="node6" class="node"><title>Node6</title>
<polygon fill="white" stroke="#bfbfbf" points="219.5,-62 219.5,-81 302.5,-81 302.5,-62 219.5,-62"/>
<text text-anchor="middle" x="261" y="-69" font-family="Helvetica,sans-Serif" font-size="10.00">unordered_map</text>
</g>
<!-- Node1&#45;&gt;Node6 -->
<g id="edge5" class="edge"><title>Node1&#45;&gt;Node6</title>
<path fill="none" stroke="midnightblue" d="M288.938,-190.305C284.121,-169.994 272.04,-119.053 265.453,-91.2768"/>
<polygon fill="midnightblue" stroke="midnightblue" points="268.79,-90.1782 263.076,-81.2557 261.979,-91.7935 268.79,-90.1782"/>
</g>
<!-- Node7 -->
<g id="node7" class="node"><title>Node7</title>
<polygon fill="white" stroke="#bfbfbf" points="961,-0.5 961,-19.5 1001,-19.5 1001,-0.5 961,-0.5"/>
<text text-anchor="middle" x="981" y="-7.5" font-family="Helvetica,sans-Serif" font-size="10.00">utility</text>
</g>
<!-- Node1&#45;&gt;Node7 -->
<g id="edge6" class="edge"><title>Node1&#45;&gt;Node7</title>
<path fill="none" stroke="midnightblue" d="M311.816,-199.126C449.876,-199.825 1230.79,-201.643 1324,-154 1368.09,-131.462 1409.98,-92.9378 1377,-56 1352.7,-28.7795 1099.55,-15.8639 1011.21,-12.1613"/>
<polygon fill="midnightblue" stroke="midnightblue" points="1011.18,-8.65718 1001.05,-11.7457 1010.9,-15.6513 1011.18,-8.65718"/>
</g>
<!-- Node8 -->
<g id="node8" class="node"><title>Node8</title>
<polygon fill="white" stroke="#bfbfbf" points="509,-0.5 509,-19.5 553,-19.5 553,-0.5 509,-0.5"/>
<text text-anchor="middle" x="531" y="-7.5" font-family="Helvetica,sans-Serif" font-size="10.00">vector</text>
</g>
<!-- Node1&#45;&gt;Node8 -->
<g id="edge7" class="edge"><title>Node1&#45;&gt;Node8</title>
<path fill="none" stroke="midnightblue" d="M270.366,-197.529C223.895,-193.742 113.344,-181.93 91,-154 74.3631,-133.204 94.5653,-66.9294 107,-56 136.312,-30.2368 405.026,-16.3837 498.852,-12.3003"/>
<polygon fill="midnightblue" stroke="midnightblue" points="499.055,-15.7949 508.897,-11.8716 498.757,-8.80126 499.055,-15.7949"/>
</g>
<!-- Node9 -->
<g id="node9" class="node"><title>Node9</title>
<polygon fill="white" stroke="#bfbfbf" points="338,-129 338,-148 466,-148 466,-129 338,-129"/>
<text text-anchor="middle" x="402" y="-136" font-family="Helvetica,sans-Serif" font-size="10.00">boost/functional/hash.hpp</text>
</g>
<!-- Node1&#45;&gt;Node9 -->
<g id="edge8" class="edge"><title>Node1&#45;&gt;Node9</title>
<path fill="none" stroke="midnightblue" d="M306.904,-190.475C325.285,-180.622 355.756,-164.288 377.245,-152.77"/>
<polygon fill="midnightblue" stroke="midnightblue" points="378.966,-155.818 386.126,-148.009 375.659,-149.649 378.966,-155.818"/>
</g>
<!-- Node10 -->
<g id="node10" class="node"><title>Node10</title>
<polygon fill="white" stroke="#bfbfbf" points="320.5,-62 320.5,-81 437.5,-81 437.5,-62 320.5,-62"/>
<text text-anchor="middle" x="379" y="-69" font-family="Helvetica,sans-Serif" font-size="10.00">boost/noncopyable.hpp</text>
</g>
<!-- Node1&#45;&gt;Node10 -->
<g id="edge9" class="edge"><title>Node1&#45;&gt;Node10</title>
<path fill="none" stroke="midnightblue" d="M294.384,-190.062C300.197,-175.315 313.012,-145.299 329,-123 338.303,-110.025 350.977,-97.2634 361.237,-87.8151"/>
<polygon fill="midnightblue" stroke="midnightblue" points="363.723,-90.2866 368.837,-81.0073 359.053,-85.0725 363.723,-90.2866"/>
</g>
<!-- Node11 -->
<g id="node11" class="node"><title>Node11</title>
<polygon fill="white" stroke="#bfbfbf" points="737.5,-123.5 737.5,-153.5 862.5,-153.5 862.5,-123.5 737.5,-123.5"/>
<text text-anchor="start" x="745.5" y="-141.5" font-family="Helvetica,sans-Serif" font-size="10.00">boost/smart_ptr/intrusive</text>
<text text-anchor="middle" x="800" y="-130.5" font-family="Helvetica,sans-Serif" font-size="10.00">_ptr.hpp</text>
</g>
<!-- Node1&#45;&gt;Node11 -->
<g id="edge10" class="edge"><title>Node1&#45;&gt;Node11</title>
<path fill="none" stroke="midnightblue" d="M311.566,-197.588C373.052,-193.22 560.981,-178.792 727.321,-154.004"/>
<polygon fill="midnightblue" stroke="midnightblue" points="727.867,-157.461 737.234,-152.51 726.824,-150.539 727.867,-157.461"/>
</g>
<!-- Node12 -->
<g id="node12" class="node"><title>Node12</title>
<g id="a_node12"><a xlink:href="pdag_8h.xhtml" target="_top" xlink:title="Classes and facilities to represent fault trees as PDAGs with event and gate indices instead of ID na...">
<polygon fill="white" stroke="black" points="673,-129 673,-148 719,-148 719,-129 673,-129"/>
<text text-anchor="middle" x="696" y="-136" font-family="Helvetica,sans-Serif" font-size="10.00">pdag.h</text>
</a>
</g>
</g>
<!-- Node1&#45;&gt;Node12 -->
<g id="edge11" class="edge"><title>Node1&#45;&gt;Node12</title>
<path fill="none" stroke="midnightblue" d="M311.641,-195.968C377.359,-186.313 582.124,-156.23 662.827,-144.374"/>
<polygon fill="midnightblue" stroke="midnightblue" points="663.538,-147.807 672.923,-142.89 662.52,-140.881 663.538,-147.807"/>
</g>
<!-- Node24 -->
<g id="node24" class="node"><title>Node24</title>
<g id="a_node24"><a xlink:href="settings_8h.xhtml" target="_top" xlink:title="Builder for settings. ">
<polygon fill="white" stroke="black" points="1255.5,-129 1255.5,-148 1314.5,-148 1314.5,-129 1255.5,-129"/>
<text text-anchor="middle" x="1285" y="-136" font-family="Helvetica,sans-Serif" font-size="10.00">settings.h</text>
</a>
</g>
</g>
<!-- Node1&#45;&gt;Node24 -->
<g id="edge34" class="edge"><title>Node1&#45;&gt;Node24</title>
<path fill="none" stroke="midnightblue" d="M311.761,-197.757C435.675,-190.34 1077.88,-151.898 1245.14,-141.886"/>
<polygon fill="midnightblue" stroke="midnightblue" points="1245.46,-145.373 1255.23,-141.282 1245.04,-138.386 1245.46,-145.373"/>
</g>
<!-- Node12&#45;&gt;Node3 -->
<g id="edge14" class="edge"><title>Node12&#45;&gt;Node3</title>
<path fill="none" stroke="midnightblue" d="M701.275,-128.57C709.638,-113.17 723.93,-80.878 713,-56 707.61,-43.732 697.042,-33.3414 687.096,-25.6461"/>
<polygon fill="midnightblue" stroke="midnightblue" points="688.828,-22.5811 678.661,-19.598 684.748,-28.2697 688.828,-22.5811"/>
</g>
<!-- Node12&#45;&gt;Node5 -->
<g id="edge16" class="edge"><title>Node12&#45;&gt;Node5</title>
<path fill="none" stroke="midnightblue" d="M672.979,-135.993C589.037,-130.363 299.632,-109.71 210,-87 207.49,-86.3639 204.923,-85.5805 202.378,-84.7101"/>
<polygon fill="midnightblue" stroke="midnightblue" points="203.416,-81.3598 192.826,-81.0497 200.911,-87.8963 203.416,-81.3598"/>
</g>
<!-- Node12&#45;&gt;Node6 -->
<g id="edge17" class="edge"><title>Node12&#45;&gt;Node6</title>
<path fill="none" stroke="midnightblue" d="M672.795,-135.693C612.584,-130.739 446.595,-115.383 311,-87 306.55,-86.0686 301.919,-84.9435 297.35,-83.7367"/>
<polygon fill="midnightblue" stroke="midnightblue" points="298.111,-80.3156 287.538,-81.008 296.235,-87.0596 298.111,-80.3156"/>
</g>
<!-- Node12&#45;&gt;Node7 -->
<g id="edge18" class="edge"><title>Node12&#45;&gt;Node7</title>
<path fill="none" stroke="midnightblue" d="M713.147,-128.936C718.157,-126.719 723.709,-124.528 729,-123 781.024,-107.976 931.797,-125.377 970,-87 984.737,-72.1961 985.555,-47.045 983.972,-29.7574"/>
<polygon fill="midnightblue" stroke="midnightblue" points="987.43,-29.2042 982.707,-19.7204 980.485,-30.0796 987.43,-29.2042"/>
</g>
<!-- Node12&#45;&gt;Node8 -->
<g id="edge19" class="edge"><title>Node12&#45;&gt;Node8</title>
<path fill="none" stroke="midnightblue" d="M672.729,-135.48C622.837,-130.618 508.213,-116.424 485,-87 469.439,-67.2757 492.306,-41.8814 510.997,-26.019"/>
<polygon fill="midnightblue" stroke="midnightblue" points="513.301,-28.6575 518.883,-19.6524 508.904,-23.2111 513.301,-28.6575"/>
</g>
<!-- Node12&#45;&gt;Node10 -->
<g id="edge21" class="edge"><title>Node12&#45;&gt;Node10</title>
<path fill="none" stroke="midnightblue" d="M672.947,-132.773C622.295,-122.387 500.26,-97.364 430.396,-83.0385"/>
<polygon fill="midnightblue" stroke="midnightblue" points="430.98,-79.5857 420.481,-81.0056 429.574,-86.443 430.98,-79.5857"/>
</g>
<!-- Node13 -->
<g id="node13" class="node"><title>Node13</title>
<polygon fill="white" stroke="#bfbfbf" points="1262,-62 1262,-81 1308,-81 1308,-62 1262,-62"/>
<text text-anchor="middle" x="1285" y="-69" font-family="Helvetica,sans-Serif" font-size="10.00">cstdint</text>
</g>
<!-- Node12&#45;&gt;Node13 -->
<g id="edge12" class="edge"><title>Node12&#45;&gt;Node13</title>
<path fill="none" stroke="midnightblue" d="M712.394,-128.966C717.575,-126.635 723.41,-124.376 729,-123 955.675,-67.2172 1026.65,-144.08 1253,-87 1255.21,-86.4426 1257.46,-85.7389 1259.68,-84.9435"/>
<polygon fill="midnightblue" stroke="midnightblue" points="1261.22,-88.0942 1269.13,-81.0387 1258.55,-81.6254 1261.22,-88.0942"/>
</g>
<!-- Node14 -->
<g id="node14" class="node"><title>Node14</title>
<polygon fill="white" stroke="#bfbfbf" points="1017.5,-62 1017.5,-81 1062.5,-81 1062.5,-62 1017.5,-62"/>
<text text-anchor="middle" x="1040" y="-69" font-family="Helvetica,sans-Serif" font-size="10.00">cstdlib</text>
</g>
<!-- Node12&#45;&gt;Node14 -->
<g id="edge13" class="edge"><title>Node12&#45;&gt;Node14</title>
<path fill="none" stroke="midnightblue" d="M713.13,-128.876C718.139,-126.657 723.696,-124.481 729,-123 847.298,-89.9645 884.057,-117.633 1003,-87 1005.66,-86.3139 1008.4,-85.4897 1011.11,-84.5871"/>
<polygon fill="midnightblue" stroke="midnightblue" points="1012.51,-87.8002 1020.71,-81.0814 1010.11,-81.2252 1012.51,-87.8002"/>
</g>
<!-- Node15 -->
<g id="node15" class="node"><title>Node15</title>
<polygon fill="white" stroke="#bfbfbf" points="1080.5,-62 1080.5,-81 1125.5,-81 1125.5,-62 1080.5,-62"/>
<text text-anchor="middle" x="1103" y="-69" font-family="Helvetica,sans-Serif" font-size="10.00">iosfwd</text>
</g>
<!-- Node12&#45;&gt;Node15 -->
<g id="edge15" class="edge"><title>Node12&#45;&gt;Node15</title>
<path fill="none" stroke="midnightblue" d="M712.765,-128.938C717.861,-126.665 723.556,-124.444 729,-123 877.158,-83.7 924.314,-128.039 1072,-87 1073.93,-86.4631 1075.89,-85.8158 1077.84,-85.0964"/>
<polygon fill="midnightblue" stroke="midnightblue" points="1079.47,-88.2101 1087.3,-81.0777 1076.73,-81.7677 1079.47,-88.2101"/>
</g>
<!-- Node16 -->
<g id="node16" class="node"><title>Node16</title>
<polygon fill="white" stroke="#bfbfbf" points="1144,-56.5 1144,-86.5 1244,-86.5 1244,-56.5 1144,-56.5"/>
<text text-anchor="start" x="1152" y="-74.5" font-family="Helvetica,sans-Serif" font-size="10.00">boost/container/flat</text>
<text text-anchor="middle" x="1194" y="-63.5" font-family="Helvetica,sans-Serif" font-size="10.00">_set.hpp</text>
</g>
<!-- Node12&#45;&gt;Node16 -->
<g id="edge20" class="edge"><title>Node12&#45;&gt;Node16</title>
<path fill="none" stroke="midnightblue" d="M712.75,-128.882C717.847,-126.608 723.545,-124.4 729,-123 901.296,-78.7818 954.386,-115.331 1133.86,-86.996"/>
<polygon fill="midnightblue" stroke="midnightblue" points="1134.59,-90.4238 1143.9,-85.3652 1133.46,-83.5145 1134.59,-90.4238"/>
</g>
<!-- Node17 -->
<g id="node17" class="node"><title>Node17</title>
<polygon fill="white" stroke="#bfbfbf" points="494.5,-56.5 494.5,-86.5 597.5,-86.5 597.5,-56.5 494.5,-56.5"/>
<text text-anchor="start" x="502.5" y="-74.5" font-family="Helvetica,sans-Serif" font-size="10.00">boost/range/adaptor</text>
<text text-anchor="middle" x="546" y="-63.5" font-family="Helvetica,sans-Serif" font-size="10.00">/transformed.hpp</text>
</g>
<!-- Node12&#45;&gt;Node17 -->
<g id="edge22" class="edge"><title>Node12&#45;&gt;Node17</title>
<path fill="none" stroke="midnightblue" d="M676.081,-128.869C653.671,-119.157 616.637,-103.109 587.803,-90.6148"/>
<polygon fill="midnightblue" stroke="midnightblue" points="588.94,-87.2928 578.372,-86.5281 586.156,-93.7156 588.94,-87.2928"/>
</g>
<!-- Node18 -->
<g id="node18" class="node"><title>Node18</title>
<g id="a_node18"><a xlink:href="find__iterator_8h.xhtml" target="_top" xlink:title="Convenience iterator adaptor to wrap find calls and results. ">
<polygon fill="white" stroke="black" points="869,-62 869,-81 961,-81 961,-62 869,-62"/>
<text text-anchor="middle" x="915" y="-69" font-family="Helvetica,sans-Serif" font-size="10.00">ext/find_iterator.h</text>
</a>
</g>
</g>
<!-- Node12&#45;&gt;Node18 -->
<g id="edge23" class="edge"><title>Node12&#45;&gt;Node18</title>
<path fill="none" stroke="midnightblue" d="M714.306,-128.879C719.037,-126.811 724.162,-124.709 729,-123 735.91,-120.559 820.486,-97.8046 873.181,-83.6853"/>
<polygon fill="midnightblue" stroke="midnightblue" points="874.189,-87.0388 882.943,-81.0707 872.378,-80.2771 874.189,-87.0388"/>
</g>
<!-- Node19 -->
<g id="node19" class="node"><title>Node19</title>
<g id="a_node19"><a xlink:href="index__map_8h.xhtml" target="_top" xlink:title="Non&#45;zero based Index&#45;&gt;Value map adapter on sequential containers. ">
<polygon fill="white" stroke="black" points="615.5,-62 615.5,-81 704.5,-81 704.5,-62 615.5,-62"/>
<text text-anchor="middle" x="660" y="-69" font-family="Helvetica,sans-Serif" font-size="10.00">ext/index_map.h</text>
</a>
</g>
</g>
<!-- Node12&#45;&gt;Node19 -->
<g id="edge25" class="edge"><title>Node12&#45;&gt;Node19</title>
<path fill="none" stroke="midnightblue" d="M691.145,-128.734C685.693,-118.89 676.704,-102.66 669.781,-90.1594"/>
<polygon fill="midnightblue" stroke="midnightblue" points="672.685,-88.1795 664.778,-81.1273 666.561,-91.571 672.685,-88.1795"/>
</g>
<!-- Node20 -->
<g id="node20" class="node"><title>Node20</title>
<g id="a_node20"><a xlink:href="linear__map_8h.xhtml" target="_top" xlink:title="Implementation of a vector&#45;based map for a small number of entries. ">
<polygon fill="white" stroke="black" points="761.5,-62 761.5,-81 850.5,-81 850.5,-62 761.5,-62"/>
<text text-anchor="middle" x="806" y="-69" font-family="Helvetica,sans-Serif" font-size="10.00">ext/linear_map.h</text>
</a>
</g>
</g>
<!-- Node12&#45;&gt;Node20 -->
<g id="edge27" class="edge"><title>Node12&#45;&gt;Node20</title>
<path fill="none" stroke="midnightblue" d="M710.835,-128.734C729.308,-117.818 761.072,-99.0487 782.78,-86.2209"/>
<polygon fill="midnightblue" stroke="midnightblue" points="784.571,-89.2279 791.4,-81.1273 781.01,-83.2014 784.571,-89.2279"/>
</g>
<!-- Node18&#45;&gt;Node7 -->
<g id="edge24" class="edge"><title>Node18&#45;&gt;Node7</title>
<path fill="none" stroke="midnightblue" d="M924.456,-61.9751C934.748,-52.6966 951.416,-37.6706 963.994,-26.331"/>
<polygon fill="midnightblue" stroke="midnightblue" points="966.478,-28.8046 971.561,-19.5091 961.79,-23.6054 966.478,-28.8046"/>
</g>
<!-- Node19&#45;&gt;Node8 -->
<g id="edge26" class="edge"><title>Node19&#45;&gt;Node8</title>
<path fill="none" stroke="midnightblue" d="M641.517,-61.9751C619.868,-51.9897 583.787,-35.3476 558.768,-23.8075"/>
<polygon fill="midnightblue" stroke="midnightblue" points="559.995,-20.5193 549.448,-19.5091 557.063,-26.8757 559.995,-20.5193"/>
</g>
<!-- Node20&#45;&gt;Node3 -->
<g id="edge29" class="edge"><title>Node20&#45;&gt;Node3</title>
<path fill="none" stroke="midnightblue" d="M785.655,-61.9751C761.613,-51.9013 721.403,-35.0525 693.837,-23.5023"/>
<polygon fill="midnightblue" stroke="midnightblue" points="694.883,-20.1457 684.307,-19.5091 692.178,-26.6018 694.883,-20.1457"/>
</g>
<!-- Node20&#45;&gt;Node7 -->
<g id="edge33" class="edge"><title>Node20&#45;&gt;Node7</title>
<path fill="none" stroke="midnightblue" d="M831.073,-61.9751C862.764,-51.2004 917.25,-32.6751 951.081,-21.1724"/>
<polygon fill="midnightblue" stroke="midnightblue" points="952.528,-24.3773 960.869,-17.8445 950.275,-17.7498 952.528,-24.3773"/>
</g>
<!-- Node20&#45;&gt;Node8 -->
<g id="edge32" class="edge"><title>Node20&#45;&gt;Node8</title>
<path fill="none" stroke="midnightblue" d="M766.599,-61.9751C711.831,-50.1253 613.736,-28.9011 563.139,-17.9537"/>
<polygon fill="midnightblue" stroke="midnightblue" points="563.61,-14.4746 553.096,-15.7807 562.129,-21.3163 563.61,-14.4746"/>
</g>
<!-- Node21 -->
<g id="node21" class="node"><title>Node21</title>
<polygon fill="white" stroke="#bfbfbf" points="710.5,-0.5 710.5,-19.5 759.5,-19.5 759.5,-0.5 710.5,-0.5"/>
<text text-anchor="middle" x="735" y="-7.5" font-family="Helvetica,sans-Serif" font-size="10.00">cassert</text>
</g>
<!-- Node20&#45;&gt;Node21 -->
<g id="edge28" class="edge"><title>Node20&#45;&gt;Node21</title>
<path fill="none" stroke="midnightblue" d="M795.827,-61.9751C784.65,-52.6082 766.483,-37.3839 752.909,-26.0081"/>
<polygon fill="midnightblue" stroke="midnightblue" points="755.066,-23.2496 745.154,-19.5091 750.57,-28.6148 755.066,-23.2496"/>
</g>
<!-- Node22 -->
<g id="node22" class="node"><title>Node22</title>
<polygon fill="white" stroke="#bfbfbf" points="777.5,-0.5 777.5,-19.5 850.5,-19.5 850.5,-0.5 777.5,-0.5"/>
<text text-anchor="middle" x="814" y="-7.5" font-family="Helvetica,sans-Serif" font-size="10.00">initializer_list</text>
</g>
<!-- Node20&#45;&gt;Node22 -->
<g id="edge30" class="edge"><title>Node20&#45;&gt;Node22</title>
<path fill="none" stroke="midnightblue" d="M807.146,-61.9751C808.275,-53.5803 810.036,-40.4806 811.491,-29.6631"/>
<polygon fill="midnightblue" stroke="midnightblue" points="814.992,-29.8863 812.856,-19.5091 808.055,-28.9535 814.992,-29.8863"/>
</g>
<!-- Node23 -->
<g id="node23" class="node"><title>Node23</title>
<polygon fill="white" stroke="#bfbfbf" points="868.5,-0.5 868.5,-19.5 927.5,-19.5 927.5,-0.5 868.5,-0.5"/>
<text text-anchor="middle" x="898" y="-7.5" font-family="Helvetica,sans-Serif" font-size="10.00">stdexcept</text>
</g>
<!-- Node20&#45;&gt;Node23 -->
<g id="edge31" class="edge"><title>Node20&#45;&gt;Node23</title>
<path fill="none" stroke="midnightblue" d="M819.181,-61.9751C834.074,-52.3431 858.544,-36.5175 876.273,-25.0517"/>
<polygon fill="midnightblue" stroke="midnightblue" points="878.347,-27.8787 884.843,-19.5091 874.545,-22.0008 878.347,-27.8787"/>
</g>
<!-- Node24&#45;&gt;Node13 -->
<g id="edge35" class="edge"><title>Node24&#45;&gt;Node13</title>
<path fill="none" stroke="midnightblue" d="M1285,-128.734C1285,-119.183 1285,-103.618 1285,-91.2829"/>
<polygon fill="midnightblue" stroke="midnightblue" points="1288.5,-91.1273 1285,-81.1273 1281.5,-91.1273 1288.5,-91.1273"/>
</g>
<!-- Node25 -->
<g id="node25" class="node"><title>Node25</title>
<polygon fill="white" stroke="#bfbfbf" points="1326.5,-62 1326.5,-81 1367.5,-81 1367.5,-62 1326.5,-62"/>
<text text-anchor="middle" x="1347" y="-69" font-family="Helvetica,sans-Serif" font-size="10.00">string</text>
</g>
<!-- Node24&#45;&gt;Node25 -->
<g id="edge36" class="edge"><title>Node24&#45;&gt;Node25</title>
<path fill="none" stroke="midnightblue" d="M1293.36,-128.734C1303.12,-118.5 1319.47,-101.364 1331.55,-88.6924"/>
<polygon fill="midnightblue" stroke="midnightblue" points="1334.4,-90.7792 1338.77,-81.1273 1329.34,-85.9477 1334.4,-90.7792"/>
</g>
</g>
</svg>
        <g id="navigator" transform="translate(0 0)" fill="#404254">
                <rect fill="#f2f5e9" fill-opacity="0.5" stroke="#606060" stroke-width=".5" x="0" y="0" width="60" height="60"/>
                <use id="zoomplus" xlink:href="#zoomPlus" x="17" y="9" onmousedown="handleZoom(evt,'in')"/>
                <use id="zoomminus" xlink:href="#zoomMin" x="42" y="9" onmousedown="handleZoom(evt,'out')"/>
                <use id="reset" xlink:href="#resetDef" x="30" y="36" onmousedown="handleReset()"/>
                <g id="arrowUp" xlink:href="#dirArrow" transform="translate(30 24)" onmousedown="handlePan(0,-1)">
                  <use xlink:href="#rim" fill="#404040">
                        <set attributeName="fill" to="#808080" begin="arrowUp.mouseover" end="arrowUp.mouseout"/>
                  </use>
                  <path fill="none" stroke="white" stroke-width="1.5" d="M0,-3.0v7 M-2.5,-0.5L0,-3.0L2.5,-0.5"/>
                </g>
                <g id="arrowRight" xlink:href="#dirArrow" transform="rotate(90) translate(36 -43)" onmousedown="handlePan(1,0)">
                  <use xlink:href="#rim" fill="#404040">
                        <set attributeName="fill" to="#808080" begin="arrowRight.mouseover" end="arrowRight.mouseout"/>
                  </use>
                  <path fill="none" stroke="white" stroke-width="1.5" d="M0,-3.0v7 M-2.5,-0.5L0,-3.0L2.5,-0.5"/>
                </g>
                <g id="arrowDown" xlink:href="#dirArrow" transform="rotate(180) translate(-30 -48)" onmousedown="handlePan(0,1)">
                  <use xlink:href="#rim" fill="#404040">
                        <set attributeName="fill" to="#808080" begin="arrowDown.mouseover" end="arrowDown.mouseout"/>
                  </use>
                  <path fill="none" stroke="white" stroke-width="1.5" d="M0,-3.0v7 M-2.5,-0.5L0,-3.0L2.5,-0.5"/>
                </g>
                <g id="arrowLeft" xlink:href="#dirArrow" transform="rotate(270) translate(-36 17)" onmousedown="handlePan(-1,0)">
                  <use xlink:href="#rim" fill="#404040">
                        <set attributeName="fill" to="#808080" begin="arrowLeft.mouseover" end="arrowLeft.mouseout"/>
                  </use>
                  <path fill="none" stroke="white" stroke-width="1.5" d="M0,-3.0v7 M-2.5,-0.5L0,-3.0L2.5,-0.5"/>
                </g>
        </g>
        <svg viewBox="0 0 15 15" width="100%" height="30px" preserveAspectRatio="xMaxYMin meet">
         <g id="arrow_out" transform="scale(0.3 0.3)">
          <a xlink:href="bdd_8h__incl_org.svg" target="_base">
           <rect id="button" ry="5" rx="5" y="6" x="6" height="38" width="38"
                fill="#f2f5e9" fill-opacity="0.5" stroke="#606060" stroke-width="1.0"/>
           <path id="arrow"
             d="M 11.500037,31.436501 C 11.940474,20.09759 22.043105,11.32322 32.158766,21.979434 L 37.068811,17.246167 C 37.068811,17.246167 37.088388,32 37.088388,32 L 22.160133,31.978069 C 22.160133,31.978069 26.997745,27.140456 26.997745,27.140456 C 18.528582,18.264221 13.291696,25.230495 11.500037,31.436501 z"
             style="fill:#404040;"/>
          </a>
         </g>
        </svg>
</svg>
