<?xml version="1.0" encoding="UTF-8" standalone="no"?>
<!DOCTYPE svg PUBLIC "-//W3C//DTD SVG 1.1//EN"
 "http://www.w3.org/Graphics/SVG/1.1/DTD/svg11.dtd">
<!-- Generated by graphviz version 2.38.0 (20140413.2041)
 -->
<!-- Title: bdd.h Pages: 1 -->
<svg width="676pt" height="420pt"
 viewBox="0.00 0.00 676.49 420.00" xmlns="http://www.w3.org/2000/svg" xmlns:xlink="http://www.w3.org/1999/xlink">
<g id="graph0" class="graph" transform="scale(1 1) rotate(0) translate(4 416)">
<title>bdd.h</title>
<polygon fill="white" stroke="none" points="-4,4 -4,-416 672.486,-416 672.486,4 -4,4"/>
<!-- Node1 -->
<g id="node1" class="node"><title>Node1</title>
<polygon fill="#bfbfbf" stroke="black" points="366.986,-392.5 366.986,-411.5 407.986,-411.5 407.986,-392.5 366.986,-392.5"/>
<text text-anchor="middle" x="387.486" y="-399.5" font-family="Helvetica,sans-Serif" font-size="10.00">bdd.h</text>
</g>
<!-- Node2 -->
<g id="node2" class="node"><title>Node2</title>
<g id="a_node2"><a xlink:href="bdd_8cc.xhtml" target="_top" xlink:title="Implementation of BDD fault tree analysis algorithms. ">
<polygon fill="white" stroke="black" points="131.486,-280.5 131.486,-299.5 177.486,-299.5 177.486,-280.5 131.486,-280.5"/>
<text text-anchor="middle" x="154.486" y="-287.5" font-family="Helvetica,sans-Serif" font-size="10.00">bdd.cc</text>
</a>
</g>
</g>
<!-- Node1&#45;&gt;Node2 -->
<g id="edge1" class="edge"><title>Node1&#45;&gt;Node2</title>
<path fill="none" stroke="midnightblue" d="M359.995,-388.021C311.807,-365.272 213.353,-318.791 172.685,-299.591"/>
<polygon fill="midnightblue" stroke="midnightblue" points="358.666,-391.264 369.203,-392.368 361.655,-384.934 358.666,-391.264"/>
</g>
<!-- Node3 -->
<g id="node3" class="node"><title>Node3</title>
<g id="a_node3"><a xlink:href="zbdd_8h.xhtml" target="_top" xlink:title="Zero&#45;Suppressed Binary Decision Diagram facilities. ">
<polygon fill="white" stroke="black" points="364.486,-336.5 364.486,-355.5 410.486,-355.5 410.486,-336.5 364.486,-336.5"/>
<text text-anchor="middle" x="387.486" y="-343.5" font-family="Helvetica,sans-Serif" font-size="10.00">zbdd.h</text>
</a>
</g>
</g>
<!-- Node1&#45;&gt;Node3 -->
<g id="edge2" class="edge"><title>Node1&#45;&gt;Node3</title>
<path fill="none" stroke="midnightblue" d="M387.486,-381.805C387.486,-372.91 387.486,-362.78 387.486,-355.751"/>
<polygon fill="midnightblue" stroke="midnightblue" points="383.987,-382.083 387.486,-392.083 390.987,-382.083 383.987,-382.083"/>
</g>
<!-- Node6 -->
<g id="node6" class="node"><title>Node6</title>
<g id="a_node6"><a xlink:href="probability__analysis_8h.xhtml" target="_top" xlink:title="Contains functionality to do numerical analysis of probabilities. ">
<polygon fill="white" stroke="black" points="65.4864,-224.5 65.4864,-243.5 175.486,-243.5 175.486,-224.5 65.4864,-224.5"/>
<text text-anchor="middle" x="120.486" y="-231.5" font-family="Helvetica,sans-Serif" font-size="10.00">probability_analysis.h</text>
</a>
</g>
</g>
<!-- Node1&#45;&gt;Node6 -->
<g id="edge33" class="edge"><title>Node1&#45;&gt;Node6</title>
<path fill="none" stroke="midnightblue" d="M356.454,-399.995C298.547,-396.229 175.137,-378.86 122.486,-300 111.077,-282.911 114.879,-257.267 118.031,-243.87"/>
<polygon fill="midnightblue" stroke="midnightblue" points="356.62,-403.509 366.798,-400.566 357.006,-396.52 356.62,-403.509"/>
</g>
<!-- Node7 -->
<g id="node7" class="node"><title>Node7</title>
<g id="a_node7"><a xlink:href="importance__analysis_8h.xhtml" target="_top" xlink:title="Contains functionality to do numerical analysis of importance factors. ">
<polygon fill="white" stroke="black" points="365.486,-168.5 365.486,-187.5 479.486,-187.5 479.486,-168.5 365.486,-168.5"/>
<text text-anchor="middle" x="422.486" y="-175.5" font-family="Helvetica,sans-Serif" font-size="10.00">importance_analysis.h</text>
</a>
</g>
</g>
<!-- Node1&#45;&gt;Node7 -->
<g id="edge32" class="edge"><title>Node1&#45;&gt;Node7</title>
<path fill="none" stroke="midnightblue" d="M402.857,-384.524C409.289,-376.541 416.057,-366.433 419.486,-356 439.734,-294.394 428.643,-214.099 424.118,-187.774"/>
<polygon fill="midnightblue" stroke="midnightblue" points="400.059,-382.408 396.183,-392.269 405.362,-386.978 400.059,-382.408"/>
</g>
<!-- Node13 -->
<g id="node13" class="node"><title>Node13</title>
<g id="a_node13"><a xlink:href="risk__analysis_8cc.xhtml" target="_top" xlink:title="Implementation of risk analysis handler. ">
<polygon fill="white" stroke="black" points="567.986,-56.5 567.986,-75.5 654.986,-75.5 654.986,-56.5 567.986,-56.5"/>
<text text-anchor="middle" x="611.486" y="-63.5" font-family="Helvetica,sans-Serif" font-size="10.00">risk_analysis.cc</text>
</a>
</g>
</g>
<!-- Node1&#45;&gt;Node13 -->
<g id="edge34" class="edge"><title>Node1&#45;&gt;Node13</title>
<path fill="none" stroke="midnightblue" d="M418.102,-395.743C490.936,-382.37 668.486,-344.304 668.486,-291 668.486,-291 668.486,-291 668.486,-177 668.486,-135.058 635.414,-93.1882 619.653,-75.6161"/>
<polygon fill="midnightblue" stroke="midnightblue" points="417.37,-392.318 408.149,-397.536 418.611,-399.207 417.37,-392.318"/>
</g>
<!-- Node3&#45;&gt;Node2 -->
<g id="edge3" class="edge"><title>Node3&#45;&gt;Node2</title>
<path fill="none" stroke="midnightblue" d="M354.508,-338.187C314.582,-329.808 245.369,-314.86 186.486,-300 183.577,-299.266 180.529,-298.458 177.519,-297.638"/>
<polygon fill="midnightblue" stroke="midnightblue" points="353.977,-341.652 364.482,-340.271 355.409,-334.8 353.977,-341.652"/>
</g>
<!-- Node4 -->
<g id="node4" class="node"><title>Node4</title>
<g id="a_node4"><a xlink:href="fault__tree__analysis_8h.xhtml" target="_top" xlink:title="Fault Tree Analysis. ">
<polygon fill="white" stroke="black" points="195.986,-280.5 195.986,-299.5 302.986,-299.5 302.986,-280.5 195.986,-280.5"/>
<text text-anchor="middle" x="249.486" y="-287.5" font-family="Helvetica,sans-Serif" font-size="10.00">fault_tree_analysis.h</text>
</a>
</g>
</g>
<!-- Node3&#45;&gt;Node4 -->
<g id="edge4" class="edge"><title>Node3&#45;&gt;Node4</title>
<path fill="none" stroke="midnightblue" d="M356.237,-332.772C330.315,-322.629 294.124,-308.467 271.251,-299.516"/>
<polygon fill="midnightblue" stroke="midnightblue" points="355.032,-336.059 365.62,-336.444 357.583,-329.54 355.032,-336.059"/>
</g>
<!-- Node8 -->
<g id="node8" class="node"><title>Node8</title>
<g id="a_node8"><a xlink:href="importance__analysis_8cc.xhtml" target="_top" xlink:title="Implementations of functions to provide quantitative importance informations. ">
<polygon fill="white" stroke="black" points="403.986,-112.5 403.986,-131.5 522.986,-131.5 522.986,-112.5 403.986,-112.5"/>
<text text-anchor="middle" x="463.486" y="-119.5" font-family="Helvetica,sans-Serif" font-size="10.00">importance_analysis.cc</text>
</a>
</g>
</g>
<!-- Node3&#45;&gt;Node8 -->
<g id="edge25" class="edge"><title>Node3&#45;&gt;Node8</title>
<path fill="none" stroke="midnightblue" d="M402.59,-328.736C426.373,-301.887 471.583,-245.52 488.486,-188 494.554,-167.352 480.098,-143.993 470.725,-131.675"/>
<polygon fill="midnightblue" stroke="midnightblue" points="399.791,-326.613 395.684,-336.379 404.985,-331.306 399.791,-326.613"/>
</g>
<!-- Node3&#45;&gt;Node13 -->
<g id="edge30" class="edge"><title>Node3&#45;&gt;Node13</title>
<path fill="none" stroke="midnightblue" d="M421.189,-344.666C487.922,-342.04 630.486,-325.804 630.486,-235 630.486,-235 630.486,-235 630.486,-177 630.486,-138.821 619.235,-94.2624 614.049,-75.7514"/>
<polygon fill="midnightblue" stroke="midnightblue" points="420.673,-341.18 410.786,-344.988 420.89,-348.177 420.673,-341.18"/>
</g>
<!-- Node14 -->
<g id="node14" class="node"><title>Node14</title>
<g id="a_node14"><a xlink:href="probability__analysis_8cc.xhtml" target="_top" xlink:title="Implementations of functions to provide probability analysis. ">
<polygon fill="white" stroke="black" points="231.486,-168.5 231.486,-187.5 347.486,-187.5 347.486,-168.5 231.486,-168.5"/>
<text text-anchor="middle" x="289.486" y="-175.5" font-family="Helvetica,sans-Serif" font-size="10.00">probability_analysis.cc</text>
</a>
</g>
</g>
<!-- Node3&#45;&gt;Node14 -->
<g id="edge29" class="edge"><title>Node3&#45;&gt;Node14</title>
<path fill="none" stroke="midnightblue" d="M387.223,-326.227C386.616,-313.056 384.936,-295.162 380.486,-280 372.65,-253.299 370.563,-245.155 352.486,-224 339.214,-208.468 319.493,-195.516 305.66,-187.556"/>
<polygon fill="midnightblue" stroke="midnightblue" points="383.73,-326.506 387.523,-336.398 390.727,-326.3 383.73,-326.506"/>
</g>
<!-- Node17 -->
<g id="node17" class="node"><title>Node17</title>
<g id="a_node17"><a xlink:href="mocus_8h.xhtml" target="_top" xlink:title="Fault tree analysis with the MOCUS algorithm. ">
<polygon fill="white" stroke="black" points="507.486,-280.5 507.486,-299.5 561.486,-299.5 561.486,-280.5 507.486,-280.5"/>
<text text-anchor="middle" x="534.486" y="-287.5" font-family="Helvetica,sans-Serif" font-size="10.00">mocus.h</text>
</a>
</g>
</g>
<!-- Node3&#45;&gt;Node17 -->
<g id="edge26" class="edge"><title>Node3&#45;&gt;Node17</title>
<path fill="none" stroke="midnightblue" d="M420.409,-332.906C448.046,-322.754 486.83,-308.506 511.303,-299.516"/>
<polygon fill="midnightblue" stroke="midnightblue" points="418.959,-329.71 410.779,-336.444 421.373,-336.281 418.959,-329.71"/>
</g>
<!-- Node19 -->
<g id="node19" class="node"><title>Node19</title>
<g id="a_node19"><a xlink:href="zbdd_8cc.xhtml" target="_top" xlink:title="Implementation of Zero&#45;Suppressed BDD algorithms. ">
<polygon fill="white" stroke="black" points="320.986,-280.5 320.986,-299.5 371.986,-299.5 371.986,-280.5 320.986,-280.5"/>
<text text-anchor="middle" x="346.486" y="-287.5" font-family="Helvetica,sans-Serif" font-size="10.00">zbdd.cc</text>
</a>
</g>
</g>
<!-- Node3&#45;&gt;Node19 -->
<g id="edge31" class="edge"><title>Node3&#45;&gt;Node19</title>
<path fill="none" stroke="midnightblue" d="M374.469,-327.855C367.37,-318.505 358.882,-307.327 353.131,-299.751"/>
<polygon fill="midnightblue" stroke="midnightblue" points="371.881,-330.235 380.716,-336.083 377.457,-326.002 371.881,-330.235"/>
</g>
<!-- Node5 -->
<g id="node5" class="node"><title>Node5</title>
<g id="a_node5"><a xlink:href="fault__tree__analysis_8cc.xhtml" target="_top" xlink:title="Implementation of fault tree analysis. ">
<polygon fill="white" stroke="black" points="231.486,-224.5 231.486,-243.5 343.486,-243.5 343.486,-224.5 231.486,-224.5"/>
<text text-anchor="middle" x="287.486" y="-231.5" font-family="Helvetica,sans-Serif" font-size="10.00">fault_tree_analysis.cc</text>
</a>
</g>
</g>
<!-- Node4&#45;&gt;Node5 -->
<g id="edge5" class="edge"><title>Node4&#45;&gt;Node5</title>
<path fill="none" stroke="midnightblue" d="M261.551,-271.855C268.131,-262.505 275.997,-251.327 281.328,-243.751"/>
<polygon fill="midnightblue" stroke="midnightblue" points="258.654,-269.891 255.761,-280.083 264.379,-273.919 258.654,-269.891"/>
</g>
<!-- Node4&#45;&gt;Node6 -->
<g id="edge6" class="edge"><title>Node4&#45;&gt;Node6</title>
<path fill="none" stroke="midnightblue" d="M219.632,-276.503C195.449,-266.38 162.024,-252.388 140.831,-243.516"/>
<polygon fill="midnightblue" stroke="midnightblue" points="218.47,-279.811 229.046,-280.444 221.173,-273.354 218.47,-279.811"/>
</g>
<!-- Node9 -->
<g id="node9" class="node"><title>Node9</title>
<g id="a_node9"><a xlink:href="reporter_8h.xhtml" target="_top" xlink:title="Reporter of results. ">
<polygon fill="white" stroke="black" points="20.4864,-56.5 20.4864,-75.5 78.4864,-75.5 78.4864,-56.5 20.4864,-56.5"/>
<text text-anchor="middle" x="49.4864" y="-63.5" font-family="Helvetica,sans-Serif" font-size="10.00">reporter.h</text>
</a>
</g>
</g>
<!-- Node4&#45;&gt;Node9 -->
<g id="edge23" class="edge"><title>Node4&#45;&gt;Node9</title>
<path fill="none" stroke="midnightblue" d="M188.085,-278.658C140.375,-269.893 78.7042,-256.75 56.4864,-244 26.7646,-226.943 16.1635,-219.837 3.48641,-188 -2.35849,-173.321 -0.487238,-132.424 8.48641,-112 15.0337,-97.0988 28.5407,-83.8411 38.2648,-75.642"/>
<polygon fill="midnightblue" stroke="midnightblue" points="187.57,-282.121 198.034,-280.46 188.818,-275.234 187.57,-282.121"/>
</g>
<!-- Node12 -->
<g id="node12" class="node"><title>Node12</title>
<g id="a_node12"><a xlink:href="risk__analysis_8h.xhtml" target="_top" xlink:title="Contains the main system for performing analysis. ">
<polygon fill="white" stroke="black" points="199.486,-112.5 199.486,-131.5 281.486,-131.5 281.486,-112.5 199.486,-112.5"/>
<text text-anchor="middle" x="240.486" y="-119.5" font-family="Helvetica,sans-Serif" font-size="10.00">risk_analysis.h</text>
</a>
</g>
</g>
<!-- Node4&#45;&gt;Node12 -->
<g id="edge24" class="edge"><title>Node4&#45;&gt;Node12</title>
<path fill="none" stroke="midnightblue" d="M236.453,-272.231C230.996,-264.168 225.278,-254.079 222.486,-244 213.47,-211.448 216.099,-201.168 222.486,-168 225.032,-154.78 231.427,-140.507 235.865,-131.661"/>
<polygon fill="midnightblue" stroke="midnightblue" points="233.639,-274.312 242.335,-280.364 239.311,-270.21 233.639,-274.312"/>
</g>
<!-- Node6&#45;&gt;Node7 -->
<g id="edge7" class="edge"><title>Node6&#45;&gt;Node7</title>
<path fill="none" stroke="midnightblue" d="M178.29,-222.664C235.363,-212.459 321.604,-197.039 374.857,-187.516"/>
<polygon fill="midnightblue" stroke="midnightblue" points="177.567,-219.238 168.339,-224.444 178.799,-226.129 177.567,-219.238"/>
</g>
<!-- Node6&#45;&gt;Node9 -->
<g id="edge17" class="edge"><title>Node6&#45;&gt;Node9</title>
<path fill="none" stroke="midnightblue" d="M60.778,-221.12C42.8568,-214.465 25.1465,-204.106 14.4864,-188 -10.0145,-150.981 26.3495,-96.5872 42.4566,-75.6514"/>
<polygon fill="midnightblue" stroke="midnightblue" points="60.1186,-224.591 70.7125,-224.45 62.343,-217.953 60.1186,-224.591"/>
</g>
<!-- Node6&#45;&gt;Node12 -->
<g id="edge18" class="edge"><title>Node6&#45;&gt;Node12</title>
<path fill="none" stroke="midnightblue" d="M136.667,-217.475C150.562,-204.211 171.187,-184.684 189.486,-168 203.622,-155.112 220.29,-140.515 230.625,-131.533"/>
<polygon fill="midnightblue" stroke="midnightblue" points="134.138,-215.05 129.332,-224.492 138.977,-220.109 134.138,-215.05"/>
</g>
<!-- Node6&#45;&gt;Node14 -->
<g id="edge16" class="edge"><title>Node6&#45;&gt;Node14</title>
<path fill="none" stroke="midnightblue" d="M157.089,-221.304C188.933,-211.129 234.328,-196.625 262.833,-187.516"/>
<polygon fill="midnightblue" stroke="midnightblue" points="155.725,-218.066 147.265,-224.444 157.856,-224.734 155.725,-218.066"/>
</g>
<!-- Node15 -->
<g id="node15" class="node"><title>Node15</title>
<g id="a_node15"><a xlink:href="uncertainty__analysis_8h.xhtml" target="_top" xlink:title="Provides functionality for uncertainty analysis with Monte Carlo method. ">
<polygon fill="white" stroke="black" points="23.4864,-168.5 23.4864,-187.5 137.486,-187.5 137.486,-168.5 23.4864,-168.5"/>
<text text-anchor="middle" x="80.4864" y="-175.5" font-family="Helvetica,sans-Serif" font-size="10.00">uncertainty_analysis.h</text>
</a>
</g>
</g>
<!-- Node6&#45;&gt;Node15 -->
<g id="edge19" class="edge"><title>Node6&#45;&gt;Node15</title>
<path fill="none" stroke="midnightblue" d="M107.787,-215.855C100.86,-206.505 92.5801,-195.327 86.9687,-187.751"/>
<polygon fill="midnightblue" stroke="midnightblue" points="105.116,-218.131 113.881,-224.083 110.741,-213.964 105.116,-218.131"/>
</g>
<!-- Node7&#45;&gt;Node8 -->
<g id="edge8" class="edge"><title>Node7&#45;&gt;Node8</title>
<path fill="none" stroke="midnightblue" d="M435.504,-159.855C442.603,-150.505 451.09,-139.327 456.842,-131.751"/>
<polygon fill="midnightblue" stroke="midnightblue" points="432.516,-158.002 429.257,-168.083 438.091,-162.235 432.516,-158.002"/>
</g>
<!-- Node7&#45;&gt;Node9 -->
<g id="edge9" class="edge"><title>Node7&#45;&gt;Node9</title>
<path fill="none" stroke="midnightblue" d="M399.434,-163.223C373.718,-148.439 330.464,-125.296 290.486,-112 216.374,-87.3509 124.683,-74.9177 78.6934,-69.8524"/>
<polygon fill="midnightblue" stroke="midnightblue" points="397.986,-166.43 408.388,-168.441 401.511,-160.382 397.986,-166.43"/>
</g>
<!-- Node7&#45;&gt;Node12 -->
<g id="edge12" class="edge"><title>Node7&#45;&gt;Node12</title>
<path fill="none" stroke="midnightblue" d="M383.955,-165.568C349.622,-155.381 300.154,-140.703 269.19,-131.516"/>
<polygon fill="midnightblue" stroke="midnightblue" points="383.065,-168.954 393.648,-168.444 385.057,-162.244 383.065,-168.954"/>
</g>
<!-- Node10 -->
<g id="node10" class="node"><title>Node10</title>
<g id="a_node10"><a xlink:href="reporter_8cc.xhtml" target="_top" xlink:title="Implements Reporter class. ">
<polygon fill="white" stroke="black" points="17.9864,-0.5 17.9864,-19.5 80.9864,-19.5 80.9864,-0.5 17.9864,-0.5"/>
<text text-anchor="middle" x="49.4864" y="-7.5" font-family="Helvetica,sans-Serif" font-size="10.00">reporter.cc</text>
</a>
</g>
</g>
<!-- Node9&#45;&gt;Node10 -->
<g id="edge10" class="edge"><title>Node9&#45;&gt;Node10</title>
<path fill="none" stroke="midnightblue" d="M49.4864,-45.8045C49.4864,-36.9102 49.4864,-26.7798 49.4864,-19.7511"/>
<polygon fill="midnightblue" stroke="midnightblue" points="45.9865,-46.083 49.4864,-56.083 52.9865,-46.083 45.9865,-46.083"/>
</g>
<!-- Node11 -->
<g id="node11" class="node"><title>Node11</title>
<g id="a_node11"><a xlink:href="scram_8cc.xhtml" target="_top" xlink:title="Main entrance. ">
<polygon fill="white" stroke="black" points="130.986,-0.5 130.986,-19.5 187.986,-19.5 187.986,-0.5 130.986,-0.5"/>
<text text-anchor="middle" x="159.486" y="-7.5" font-family="Helvetica,sans-Serif" font-size="10.00">scram.cc</text>
</a>
</g>
</g>
<!-- Node9&#45;&gt;Node11 -->
<g id="edge11" class="edge"><title>Node9&#45;&gt;Node11</title>
<path fill="none" stroke="midnightblue" d="M76.2485,-51.8622C96.6454,-41.8492 124.152,-28.3458 141.857,-19.6545"/>
<polygon fill="midnightblue" stroke="midnightblue" points="74.5941,-48.7753 67.1598,-56.324 77.6789,-55.059 74.5941,-48.7753"/>
</g>
<!-- Node12&#45;&gt;Node9 -->
<g id="edge13" class="edge"><title>Node12&#45;&gt;Node9</title>
<path fill="none" stroke="midnightblue" d="M200.423,-109.673C164.03,-99.3841 111.207,-84.4498 78.6698,-75.2508"/>
<polygon fill="midnightblue" stroke="midnightblue" points="199.647,-113.091 210.222,-112.444 201.551,-106.355 199.647,-113.091"/>
</g>
<!-- Node12&#45;&gt;Node11 -->
<g id="edge15" class="edge"><title>Node12&#45;&gt;Node11</title>
<path fill="none" stroke="midnightblue" d="M228.169,-104.272C210.659,-80.4942 179.213,-37.7889 165.813,-19.5914"/>
<polygon fill="midnightblue" stroke="midnightblue" points="225.383,-106.391 234.13,-112.368 231.019,-102.241 225.383,-106.391"/>
</g>
<!-- Node12&#45;&gt;Node13 -->
<g id="edge14" class="edge"><title>Node12&#45;&gt;Node13</title>
<path fill="none" stroke="midnightblue" d="M291.545,-113.568C364.915,-102.889 498.906,-83.3863 567.888,-73.3458"/>
<polygon fill="midnightblue" stroke="midnightblue" points="290.999,-110.111 281.607,-115.015 292.007,-117.038 290.999,-110.111"/>
</g>
<!-- Node15&#45;&gt;Node9 -->
<g id="edge21" class="edge"><title>Node15&#45;&gt;Node9</title>
<path fill="none" stroke="midnightblue" d="M67.1895,-160.237C61.5755,-152.176 55.6217,-142.087 52.4864,-132 46.4508,-112.582 47.4196,-88.3357 48.5268,-75.6507"/>
<polygon fill="midnightblue" stroke="midnightblue" points="64.4493,-162.418 73.2153,-168.369 70.0734,-158.251 64.4493,-162.418"/>
</g>
<!-- Node15&#45;&gt;Node12 -->
<g id="edge20" class="edge"><title>Node15&#45;&gt;Node12</title>
<path fill="none" stroke="midnightblue" d="M115.532,-165.172C145.66,-155.004 188.382,-140.585 215.253,-131.516"/>
<polygon fill="midnightblue" stroke="midnightblue" points="114.195,-161.929 105.839,-168.444 116.433,-168.562 114.195,-161.929"/>
</g>
<!-- Node16 -->
<g id="node16" class="node"><title>Node16</title>
<g id="a_node16"><a xlink:href="uncertainty__analysis_8cc.xhtml" target="_top" xlink:title="Implements the functionality to run Monte Carlo simulations. ">
<polygon fill="white" stroke="black" points="61.9864,-112.5 61.9864,-131.5 180.986,-131.5 180.986,-112.5 61.9864,-112.5"/>
<text text-anchor="middle" x="121.486" y="-119.5" font-family="Helvetica,sans-Serif" font-size="10.00">uncertainty_analysis.cc</text>
</a>
</g>
</g>
<!-- Node15&#45;&gt;Node16 -->
<g id="edge22" class="edge"><title>Node15&#45;&gt;Node16</title>
<path fill="none" stroke="midnightblue" d="M93.5036,-159.855C100.603,-150.505 109.09,-139.327 114.842,-131.751"/>
<polygon fill="midnightblue" stroke="midnightblue" points="90.5163,-158.002 87.2567,-168.083 96.0914,-162.235 90.5163,-158.002"/>
</g>
<!-- Node17&#45;&gt;Node13 -->
<g id="edge28" class="edge"><title>Node17&#45;&gt;Node13</title>
<path fill="none" stroke="midnightblue" d="M551.241,-273.092C558.792,-265.046 567.185,-254.725 572.486,-244 602.046,-184.198 609.393,-102.058 611.046,-75.5891"/>
<polygon fill="midnightblue" stroke="midnightblue" points="548.65,-270.735 544.116,-280.311 553.632,-275.653 548.65,-270.735"/>
</g>
<!-- Node18 -->
<g id="node18" class="node"><title>Node18</title>
<g id="a_node18"><a xlink:href="mocus_8cc.xhtml" target="_top" xlink:title="Implementation of the MOCUS algorithm. ">
<polygon fill="white" stroke="black" points="504.986,-224.5 504.986,-243.5 563.986,-243.5 563.986,-224.5 504.986,-224.5"/>
<text text-anchor="middle" x="534.486" y="-231.5" font-family="Helvetica,sans-Serif" font-size="10.00">mocus.cc</text>
</a>
</g>
</g>
<!-- Node17&#45;&gt;Node18 -->
<g id="edge27" class="edge"><title>Node17&#45;&gt;Node18</title>
<path fill="none" stroke="midnightblue" d="M534.486,-269.805C534.486,-260.91 534.486,-250.78 534.486,-243.751"/>
<polygon fill="midnightblue" stroke="midnightblue" points="530.987,-270.083 534.486,-280.083 537.987,-270.083 530.987,-270.083"/>
</g>
</g>
</svg>
