<?xml version="1.0" encoding="UTF-8" standalone="no"?>
<!DOCTYPE svg PUBLIC "-//W3C//DTD SVG 1.1//EN"
 "http://www.w3.org/Graphics/SVG/1.1/DTD/svg11.dtd">
<!-- Generated by graphviz version 2.38.0 (20140413.2041)
 -->
<!-- Title: ccf_group.h Pages: 1 -->
<svg width="437pt" height="308pt"
 viewBox="0.00 0.00 436.50 308.00" xmlns="http://www.w3.org/2000/svg" xmlns:xlink="http://www.w3.org/1999/xlink">
<g id="graph0" class="graph" transform="scale(1 1) rotate(0) translate(4 304)">
<title>ccf_group.h</title>
<polygon fill="white" stroke="none" points="-4,4 -4,-304 432.5,-304 432.5,4 -4,4"/>
<!-- Node1 -->
<g id="node1" class="node"><title>Node1</title>
<polygon fill="#bfbfbf" stroke="black" points="163.5,-280.5 163.5,-299.5 231.5,-299.5 231.5,-280.5 163.5,-280.5"/>
<text text-anchor="middle" x="197.5" y="-287.5" font-family="Helvetica,sans-Serif" font-size="10.00">ccf_group.h</text>
</g>
<!-- Node2 -->
<g id="node2" class="node"><title>Node2</title>
<g id="a_node2"><a xlink:href="ccf__group_8cc.xhtml" target="_top" xlink:title="Implementation of various common cause failure models. ">
<polygon fill="white" stroke="black" points="0,-224.5 0,-243.5 73,-243.5 73,-224.5 0,-224.5"/>
<text text-anchor="middle" x="36.5" y="-231.5" font-family="Helvetica,sans-Serif" font-size="10.00">ccf_group.cc</text>
</a>
</g>
</g>
<!-- Node1&#45;&gt;Node2 -->
<g id="edge1" class="edge"><title>Node1&#45;&gt;Node2</title>
<path fill="none" stroke="midnightblue" d="M162.235,-277.172C131.919,-267.004 88.9298,-252.585 61.8916,-243.516"/>
<polygon fill="midnightblue" stroke="midnightblue" points="161.395,-280.582 171.989,-280.444 163.621,-273.945 161.395,-280.582"/>
</g>
<!-- Node3 -->
<g id="node3" class="node"><title>Node3</title>
<g id="a_node3"><a xlink:href="fault__tree_8h.xhtml" target="_top" xlink:title="Fault Tree and Component containers. ">
<polygon fill="white" stroke="black" points="165,-224.5 165,-243.5 230,-243.5 230,-224.5 165,-224.5"/>
<text text-anchor="middle" x="197.5" y="-231.5" font-family="Helvetica,sans-Serif" font-size="10.00">fault_tree.h</text>
</a>
</g>
</g>
<!-- Node1&#45;&gt;Node3 -->
<g id="edge2" class="edge"><title>Node1&#45;&gt;Node3</title>
<path fill="none" stroke="midnightblue" d="M197.5,-269.805C197.5,-260.91 197.5,-250.78 197.5,-243.751"/>
<polygon fill="midnightblue" stroke="midnightblue" points="194,-270.083 197.5,-280.083 201,-270.083 194,-270.083"/>
</g>
<!-- Node5 -->
<g id="node5" class="node"><title>Node5</title>
<g id="a_node5"><a xlink:href="initializer_8h.xhtml" target="_top" xlink:title="A facility that processes input files into analysis constructs. ">
<polygon fill="white" stroke="black" points="84,-112.5 84,-131.5 147,-131.5 147,-112.5 84,-112.5"/>
<text text-anchor="middle" x="115.5" y="-119.5" font-family="Helvetica,sans-Serif" font-size="10.00">initializer.h</text>
</a>
</g>
</g>
<!-- Node1&#45;&gt;Node5 -->
<g id="edge18" class="edge"><title>Node1&#45;&gt;Node5</title>
<path fill="none" stroke="midnightblue" d="M179.696,-273.37C171.391,-265.294 161.942,-254.868 155.5,-244 132.71,-205.555 120.981,-152.444 117.046,-131.748"/>
<polygon fill="midnightblue" stroke="midnightblue" points="177.468,-276.078 187.172,-280.33 182.238,-270.954 177.468,-276.078"/>
</g>
<!-- Node8 -->
<g id="node8" class="node"><title>Node8</title>
<g id="a_node8"><a xlink:href="model_8h.xhtml" target="_top" xlink:title="Representation for a model container for risk analysis. ">
<polygon fill="white" stroke="black" points="295,-168.5 295,-187.5 346,-187.5 346,-168.5 295,-168.5"/>
<text text-anchor="middle" x="320.5" y="-175.5" font-family="Helvetica,sans-Serif" font-size="10.00">model.h</text>
</a>
</g>
</g>
<!-- Node1&#45;&gt;Node8 -->
<g id="edge19" class="edge"><title>Node1&#45;&gt;Node8</title>
<path fill="none" stroke="midnightblue" d="M214.819,-273.512C241.101,-250.007 290.187,-206.11 310.893,-187.591"/>
<polygon fill="midnightblue" stroke="midnightblue" points="212.272,-271.093 207.152,-280.368 216.939,-276.311 212.272,-271.093"/>
</g>
<!-- Node11 -->
<g id="node11" class="node"><title>Node11</title>
<g id="a_node11"><a xlink:href="reporter_8cc.xhtml" target="_top" xlink:title="Implements Reporter class. ">
<polygon fill="white" stroke="black" points="351,-0.5 351,-19.5 414,-19.5 414,-0.5 351,-0.5"/>
<text text-anchor="middle" x="382.5" y="-7.5" font-family="Helvetica,sans-Serif" font-size="10.00">reporter.cc</text>
</a>
</g>
</g>
<!-- Node1&#45;&gt;Node11 -->
<g id="edge20" class="edge"><title>Node1&#45;&gt;Node11</title>
<path fill="none" stroke="midnightblue" d="M241.877,-287.199C308.972,-281.834 428.5,-260.797 428.5,-179 428.5,-179 428.5,-179 428.5,-121 428.5,-80.4284 401.536,-37.5021 388.896,-19.609"/>
<polygon fill="midnightblue" stroke="midnightblue" points="241.311,-283.73 231.585,-287.932 241.808,-290.713 241.311,-283.73"/>
</g>
<!-- Node4 -->
<g id="node4" class="node"><title>Node4</title>
<g id="a_node4"><a xlink:href="fault__tree_8cc.xhtml" target="_top" xlink:title="Implementation of fault tree and component containers. ">
<polygon fill="white" stroke="black" points="206,-168.5 206,-187.5 277,-187.5 277,-168.5 206,-168.5"/>
<text text-anchor="middle" x="241.5" y="-175.5" font-family="Helvetica,sans-Serif" font-size="10.00">fault_tree.cc</text>
</a>
</g>
</g>
<!-- Node3&#45;&gt;Node4 -->
<g id="edge3" class="edge"><title>Node3&#45;&gt;Node4</title>
<path fill="none" stroke="midnightblue" d="M211.235,-216.144C218.901,-206.736 228.133,-195.405 234.369,-187.751"/>
<polygon fill="midnightblue" stroke="midnightblue" points="208.369,-214.12 204.766,-224.083 213.796,-218.541 208.369,-214.12"/>
</g>
<!-- Node3&#45;&gt;Node5 -->
<g id="edge4" class="edge"><title>Node3&#45;&gt;Node5</title>
<path fill="none" stroke="midnightblue" d="M184.9,-216.413C178.473,-207.931 170.546,-197.432 163.5,-188 148.557,-167.995 131.188,-144.385 121.991,-131.854"/>
<polygon fill="midnightblue" stroke="midnightblue" points="182.122,-218.543 190.954,-224.394 187.699,-214.312 182.122,-218.543"/>
</g>
<!-- Node3&#45;&gt;Node8 -->
<g id="edge7" class="edge"><title>Node3&#45;&gt;Node8</title>
<path fill="none" stroke="midnightblue" d="M226.273,-220.368C249.307,-210.255 280.984,-196.349 301.101,-187.516"/>
<polygon fill="midnightblue" stroke="midnightblue" points="224.739,-217.219 216.99,-224.444 227.553,-223.628 224.739,-217.219"/>
</g>
<!-- Node13 -->
<g id="node13" class="node"><title>Node13</title>
<g id="a_node13"><a xlink:href="risk__analysis_8cc.xhtml" target="_top" xlink:title="Implementation of risk analysis handler. ">
<polygon fill="white" stroke="black" points="144,-56.5 144,-75.5 231,-75.5 231,-56.5 144,-56.5"/>
<text text-anchor="middle" x="187.5" y="-63.5" font-family="Helvetica,sans-Serif" font-size="10.00">risk_analysis.cc</text>
</a>
</g>
</g>
<!-- Node3&#45;&gt;Node13 -->
<g id="edge17" class="edge"><title>Node3&#45;&gt;Node13</title>
<path fill="none" stroke="midnightblue" d="M196.351,-213.93C194.182,-177.92 189.562,-101.231 188.016,-75.5681"/>
<polygon fill="midnightblue" stroke="midnightblue" points="192.867,-214.304 196.962,-224.075 199.855,-213.883 192.867,-214.304"/>
</g>
<!-- Node6 -->
<g id="node6" class="node"><title>Node6</title>
<g id="a_node6"><a xlink:href="initializer_8cc.xhtml" target="_top" xlink:title="Implementation of input file processing into analysis constructs. ">
<polygon fill="white" stroke="black" points="19.5,-56.5 19.5,-75.5 87.5,-75.5 87.5,-56.5 19.5,-56.5"/>
<text text-anchor="middle" x="53.5" y="-63.5" font-family="Helvetica,sans-Serif" font-size="10.00">initializer.cc</text>
</a>
</g>
</g>
<!-- Node5&#45;&gt;Node6 -->
<g id="edge5" class="edge"><title>Node5&#45;&gt;Node6</title>
<path fill="none" stroke="midnightblue" d="M97.7464,-105.537C86.6915,-95.9087 72.8685,-83.8694 63.6426,-75.8339"/>
<polygon fill="midnightblue" stroke="midnightblue" points="95.699,-108.395 105.539,-112.324 100.297,-103.117 95.699,-108.395"/>
</g>
<!-- Node7 -->
<g id="node7" class="node"><title>Node7</title>
<g id="a_node7"><a xlink:href="scram_8cc.xhtml" target="_top" xlink:title="Main entrance. ">
<polygon fill="white" stroke="black" points="231,-0.5 231,-19.5 288,-19.5 288,-0.5 231,-0.5"/>
<text text-anchor="middle" x="259.5" y="-7.5" font-family="Helvetica,sans-Serif" font-size="10.00">scram.cc</text>
</a>
</g>
</g>
<!-- Node5&#45;&gt;Node7 -->
<g id="edge6" class="edge"><title>Node5&#45;&gt;Node7</title>
<path fill="none" stroke="midnightblue" d="M116.524,-101.996C118.264,-87.671 122.805,-68.4335 134.5,-56 159.864,-29.0354 202.557,-18.1937 230.881,-13.8573"/>
<polygon fill="midnightblue" stroke="midnightblue" points="113.016,-101.944 115.646,-112.207 119.99,-102.543 113.016,-101.944"/>
</g>
<!-- Node8&#45;&gt;Node5 -->
<g id="edge8" class="edge"><title>Node8&#45;&gt;Node5</title>
<path fill="none" stroke="midnightblue" d="M285.195,-167.658C231.494,-153.488 179.391,-139.787 147.02,-131.28"/>
<polygon fill="midnightblue" stroke="midnightblue" points="284.319,-171.047 294.881,-170.214 286.106,-164.278 284.319,-171.047"/>
</g>
<!-- Node9 -->
<g id="node9" class="node"><title>Node9</title>
<g id="a_node9"><a xlink:href="model_8cc.xhtml" target="_top" xlink:title="Implementation of functions in Model class. ">
<polygon fill="white" stroke="black" points="344.5,-112.5 344.5,-131.5 400.5,-131.5 400.5,-112.5 344.5,-112.5"/>
<text text-anchor="middle" x="372.5" y="-119.5" font-family="Helvetica,sans-Serif" font-size="10.00">model.cc</text>
</a>
</g>
</g>
<!-- Node8&#45;&gt;Node9 -->
<g id="edge9" class="edge"><title>Node8&#45;&gt;Node9</title>
<path fill="none" stroke="midnightblue" d="M336.179,-160.718C345.345,-151.2 356.553,-139.561 364.073,-131.751"/>
<polygon fill="midnightblue" stroke="midnightblue" points="333.502,-158.452 329.087,-168.083 338.544,-163.308 333.502,-158.452"/>
</g>
<!-- Node10 -->
<g id="node10" class="node"><title>Node10</title>
<g id="a_node10"><a xlink:href="reporter_8h.xhtml" target="_top" xlink:title="Reporter of results. ">
<polygon fill="white" stroke="black" points="287.5,-56.5 287.5,-75.5 345.5,-75.5 345.5,-56.5 287.5,-56.5"/>
<text text-anchor="middle" x="316.5" y="-63.5" font-family="Helvetica,sans-Serif" font-size="10.00">reporter.h</text>
</a>
</g>
</g>
<!-- Node8&#45;&gt;Node10 -->
<g id="edge10" class="edge"><title>Node8&#45;&gt;Node10</title>
<path fill="none" stroke="midnightblue" d="M319.822,-158.348C318.946,-134.254 317.457,-93.3079 316.812,-75.5914"/>
<polygon fill="midnightblue" stroke="midnightblue" points="316.325,-158.502 320.186,-168.368 323.32,-158.248 316.325,-158.502"/>
</g>
<!-- Node12 -->
<g id="node12" class="node"><title>Node12</title>
<g id="a_node12"><a xlink:href="risk__analysis_8h.xhtml" target="_top" xlink:title="Contains the main system for performing analysis. ">
<polygon fill="white" stroke="black" points="206.5,-112.5 206.5,-131.5 288.5,-131.5 288.5,-112.5 206.5,-112.5"/>
<text text-anchor="middle" x="247.5" y="-119.5" font-family="Helvetica,sans-Serif" font-size="10.00">risk_analysis.h</text>
</a>
</g>
</g>
<!-- Node8&#45;&gt;Node12 -->
<g id="edge13" class="edge"><title>Node8&#45;&gt;Node12</title>
<path fill="none" stroke="midnightblue" d="M300.358,-162.101C287.221,-152.382 270.518,-140.027 259.442,-131.834"/>
<polygon fill="midnightblue" stroke="midnightblue" points="298.65,-165.191 308.771,-168.324 302.813,-159.563 298.65,-165.191"/>
</g>
<!-- Node10&#45;&gt;Node7 -->
<g id="edge12" class="edge"><title>Node10&#45;&gt;Node7</title>
<path fill="none" stroke="midnightblue" d="M299.879,-49.2533C289.766,-39.6731 277.223,-27.7906 268.825,-19.8339"/>
<polygon fill="midnightblue" stroke="midnightblue" points="297.675,-51.9873 307.342,-56.324 302.49,-46.9056 297.675,-51.9873"/>
</g>
<!-- Node10&#45;&gt;Node11 -->
<g id="edge11" class="edge"><title>Node10&#45;&gt;Node11</title>
<path fill="none" stroke="midnightblue" d="M335.054,-49.8197C346.878,-40.1452 361.786,-27.9481 371.703,-19.8339"/>
<polygon fill="midnightblue" stroke="midnightblue" points="332.627,-47.2827 327.104,-56.324 337.06,-52.7004 332.627,-47.2827"/>
</g>
<!-- Node12&#45;&gt;Node7 -->
<g id="edge16" class="edge"><title>Node12&#45;&gt;Node7</title>
<path fill="none" stroke="midnightblue" d="M249.535,-102.348C252.163,-78.2538 256.63,-37.3079 258.563,-19.5914"/>
<polygon fill="midnightblue" stroke="midnightblue" points="246.047,-102.048 248.442,-112.368 253.006,-102.807 246.047,-102.048"/>
</g>
<!-- Node12&#45;&gt;Node10 -->
<g id="edge14" class="edge"><title>Node12&#45;&gt;Node10</title>
<path fill="none" stroke="midnightblue" d="M266.538,-106.101C278.956,-96.3824 294.743,-84.0269 305.212,-75.8339"/>
<polygon fill="midnightblue" stroke="midnightblue" points="264.304,-103.405 258.586,-112.324 268.618,-108.917 264.304,-103.405"/>
</g>
<!-- Node12&#45;&gt;Node13 -->
<g id="edge15" class="edge"><title>Node12&#45;&gt;Node13</title>
<path fill="none" stroke="midnightblue" d="M230.319,-105.537C219.621,-95.9087 206.244,-83.8694 197.315,-75.8339"/>
<polygon fill="midnightblue" stroke="midnightblue" points="228.086,-108.236 237.86,-112.324 232.768,-103.033 228.086,-108.236"/>
</g>
</g>
</svg>
