<?xml version="1.0" encoding="UTF-8" standalone="no"?>
<!DOCTYPE svg PUBLIC "-//W3C//DTD SVG 1.1//EN"
 "http://www.w3.org/Graphics/SVG/1.1/DTD/svg11.dtd">
<!-- Generated by graphviz version 2.38.0 (20140413.2041)
 -->
<!-- Title: ccf_group.h Pages: 1 -->
<!--zoomable 263 -->
<svg id="main" version="1.1" xmlns="http://www.w3.org/2000/svg" xmlns:xlink="http://www.w3.org/1999/xlink" xml:space="preserve" onload="init(evt)">
<style type="text/css"><![CDATA[
.edge:hover path { stroke: red; }
.edge:hover polygon { stroke: red; fill: red; }
]]></style>
<script type="text/javascript"><![CDATA[
var edges = document.getElementsByTagName('g');
if (edges && edges.length) {
  for (var i=0;i<edges.length;i++) {
    if (edges[i].id.substr(0,4)=='edge') {
      edges[i].setAttribute('class','edge');
    }
  }
}
]]></script>
        <defs>
                <circle id="rim" cx="0" cy="0" r="7"/>
                <circle id="rim2" cx="0" cy="0" r="3.5"/>
                <g id="zoomPlus">
                        <use xlink:href="#rim" fill="#404040">
                                <set attributeName="fill" to="#808080" begin="zoomplus.mouseover" end="zoomplus.mouseout"/>
                        </use>
                        <path d="M-4,0h8M0,-4v8" fill="none" stroke="white" stroke-width="1.5" pointer-events="none"/>
                </g>
                <g id="zoomMin">
                        <use xlink:href="#rim" fill="#404040">
                                <set attributeName="fill" to="#808080" begin="zoomminus.mouseover" end="zoomminus.mouseout"/>
                        </use>
                        <path d="M-4,0h8" fill="none" stroke="white" stroke-width="1.5" pointer-events="none"/>
                </g>
                <g id="dirArrow">
                        <path fill="none" stroke="white" stroke-width="1.5" d="M0,-3.0v7 M-2.5,-0.5L0,-3.0L2.5,-0.5"/>
                </g>
               <g id="resetDef">
                       <use xlink:href="#rim2" fill="#404040">
                               <set attributeName="fill" to="#808080" begin="reset.mouseover" end="reset.mouseout"/>
                       </use>
               </g>
        </defs>

<script type="text/javascript">
var viewWidth = 758;
var viewHeight = 263;
var sectionId = 'dynsection-0';
</script>
<script xlink:href="svgpan.js"/>
<svg id="graph" class="graph">
<g id="viewport">
<title>ccf_group.h</title>
<polygon fill="white" stroke="none" points="-4,4 -4,-259 754.065,-259 754.065,4 -4,4"/>
<!-- Node1 -->
<g id="node1" class="node"><title>Node1</title>
<polygon fill="#bfbfbf" stroke="black" points="455.5,-235.5 455.5,-254.5 523.5,-254.5 523.5,-235.5 455.5,-235.5"/>
<text text-anchor="middle" x="489.5" y="-242.5" font-family="Helvetica,sans-Serif" font-size="10.00">ccf_group.h</text>
</g>
<!-- Node2 -->
<g id="node2" class="node"><title>Node2</title>
<polygon fill="white" stroke="#bfbfbf" points="551.5,-67.5 551.5,-86.5 603.5,-86.5 603.5,-67.5 551.5,-67.5"/>
<text text-anchor="middle" x="577.5" y="-74.5" font-family="Helvetica,sans-Serif" font-size="10.00">memory</text>
</g>
<!-- Node1&#45;&gt;Node2 -->
<g id="edge1" class="edge"><title>Node1&#45;&gt;Node2</title>
<path fill="none" stroke="midnightblue" d="M523.779,-242.967C555.224,-239.977 600.193,-230.097 622.5,-199 646.223,-165.93 613.649,-118.893 592.708,-94.3437"/>
<polygon fill="midnightblue" stroke="midnightblue" points="595.149,-91.821 585.898,-86.6577 589.91,-96.4634 595.149,-91.821"/>
</g>
<!-- Node3 -->
<g id="node3" class="node"><title>Node3</title>
<polygon fill="white" stroke="#bfbfbf" points="0,-6 0,-25 41,-25 41,-6 0,-6"/>
<text text-anchor="middle" x="20.5" y="-13" font-family="Helvetica,sans-Serif" font-size="10.00">string</text>
</g>
<!-- Node1&#45;&gt;Node3 -->
<g id="edge2" class="edge"><title>Node1&#45;&gt;Node3</title>
<path fill="none" stroke="midnightblue" d="M455.917,-235.46C423.729,-227.035 373.912,-213.364 331.5,-199 223.053,-162.272 191.16,-155.616 99.5,-87 76.442,-69.7389 52.015,-47.1969 36.5327,-32.3048"/>
<polygon fill="midnightblue" stroke="midnightblue" points="38.9174,-29.7417 29.3064,-25.283 34.0391,-34.762 38.9174,-29.7417"/>
</g>
<!-- Node4 -->
<g id="node4" class="node"><title>Node4</title>
<polygon fill="white" stroke="#bfbfbf" points="353.5,-179.5 353.5,-198.5 393.5,-198.5 393.5,-179.5 353.5,-179.5"/>
<text text-anchor="middle" x="373.5" y="-186.5" font-family="Helvetica,sans-Serif" font-size="10.00">utility</text>
</g>
<!-- Node1&#45;&gt;Node4 -->
<g id="edge3" class="edge"><title>Node1&#45;&gt;Node4</title>
<path fill="none" stroke="midnightblue" d="M471.119,-235.444C452.284,-226.675 422.769,-212.935 401.121,-202.858"/>
<polygon fill="midnightblue" stroke="midnightblue" points="402.338,-199.564 391.795,-198.516 399.383,-205.91 402.338,-199.564"/>
</g>
<!-- Node5 -->
<g id="node5" class="node"><title>Node5</title>
<polygon fill="white" stroke="#bfbfbf" points="580.5,-6 580.5,-25 624.5,-25 624.5,-6 580.5,-6"/>
<text text-anchor="middle" x="602.5" y="-13" font-family="Helvetica,sans-Serif" font-size="10.00">vector</text>
</g>
<!-- Node1&#45;&gt;Node5 -->
<g id="edge4" class="edge"><title>Node1&#45;&gt;Node5</title>
<path fill="none" stroke="midnightblue" d="M523.725,-241.717C560.703,-237.825 620.024,-227.32 662.5,-199 714.493,-164.335 727.57,-146.227 747.5,-87 763.891,-38.288 682.177,-23.1848 634.655,-18.5384"/>
<polygon fill="midnightblue" stroke="midnightblue" points="634.783,-15.0364 624.517,-17.6536 634.175,-22.0099 634.783,-15.0364"/>
</g>
<!-- Node6 -->
<g id="node6" class="node"><title>Node6</title>
<polygon fill="white" stroke="#bfbfbf" points="622,-67.5 622,-86.5 739,-86.5 739,-67.5 622,-67.5"/>
<text text-anchor="middle" x="680.5" y="-74.5" font-family="Helvetica,sans-Serif" font-size="10.00">boost/noncopyable.hpp</text>
</g>
<!-- Node1&#45;&gt;Node6 -->
<g id="edge5" class="edge"><title>Node1&#45;&gt;Node6</title>
<path fill="none" stroke="midnightblue" d="M523.711,-242.653C557.643,-239.505 608.998,-229.582 640.5,-199 668.848,-171.48 677.111,-123.477 679.516,-96.9574"/>
<polygon fill="midnightblue" stroke="midnightblue" points="683.025,-96.9554 680.245,-86.7318 676.042,-96.4576 683.025,-96.9554"/>
</g>
<!-- Node7 -->
<g id="node7" class="node"><title>Node7</title>
<polygon fill="white" stroke="#bfbfbf" points="517.5,-179.5 517.5,-198.5 613.5,-198.5 613.5,-179.5 517.5,-179.5"/>
<text text-anchor="middle" x="565.5" y="-186.5" font-family="Helvetica,sans-Serif" font-size="10.00">boost/optional.hpp</text>
</g>
<!-- Node1&#45;&gt;Node7 -->
<g id="edge6" class="edge"><title>Node1&#45;&gt;Node7</title>
<path fill="none" stroke="midnightblue" d="M501.711,-235.324C513.276,-227.107 530.875,-214.602 544.661,-204.807"/>
<polygon fill="midnightblue" stroke="midnightblue" points="546.943,-207.479 553.067,-198.834 542.888,-201.773 546.943,-207.479"/>
</g>
<!-- Node8 -->
<g id="node8" class="node"><title>Node8</title>
<g id="a_node8"><a xlink:href="element_8h.xhtml" target="_top" xlink:title="Helper classes, structs, and properties common to all other classes. ">
<polygon fill="white" stroke="black" points="322,-67.5 322,-86.5 381,-86.5 381,-67.5 322,-67.5"/>
<text text-anchor="middle" x="351.5" y="-74.5" font-family="Helvetica,sans-Serif" font-size="10.00">element.h</text>
</a>
</g>
</g>
<!-- Node1&#45;&gt;Node8 -->
<g id="edge7" class="edge"><title>Node1&#45;&gt;Node8</title>
<path fill="none" stroke="midnightblue" d="M455.451,-244.159C421.165,-242.267 369.827,-233.378 344.5,-199 322.222,-168.76 334.415,-121.863 343.839,-96.2397"/>
<polygon fill="midnightblue" stroke="midnightblue" points="347.199,-97.2586 347.599,-86.6713 340.684,-94.6979 347.199,-97.2586"/>
</g>
<!-- Node13 -->
<g id="node13" class="node"><title>Node13</title>
<g id="a_node13"><a xlink:href="event_8h.xhtml" target="_top" xlink:title="Contains event classes for fault trees. ">
<polygon fill="white" stroke="black" points="412,-179.5 412,-198.5 461,-198.5 461,-179.5 412,-179.5"/>
<text text-anchor="middle" x="436.5" y="-186.5" font-family="Helvetica,sans-Serif" font-size="10.00">event.h</text>
</a>
</g>
</g>
<!-- Node1&#45;&gt;Node13 -->
<g id="edge14" class="edge"><title>Node1&#45;&gt;Node13</title>
<path fill="none" stroke="midnightblue" d="M480.748,-235.083C473.03,-227.22 461.595,-215.569 452.283,-206.081"/>
<polygon fill="midnightblue" stroke="midnightblue" points="454.592,-203.436 445.089,-198.751 449.596,-208.34 454.592,-203.436"/>
</g>
<!-- Node16 -->
<g id="node16" class="node"><title>Node16</title>
<g id="a_node16"><a xlink:href="expression_8h.xhtml" target="_top" xlink:title="Provides the base class for all expressions and units for expression values. ">
<polygon fill="white" stroke="black" points="475.5,-123.5 475.5,-142.5 547.5,-142.5 547.5,-123.5 475.5,-123.5"/>
<text text-anchor="middle" x="511.5" y="-130.5" font-family="Helvetica,sans-Serif" font-size="10.00">expression.h</text>
</a>
</g>
</g>
<!-- Node1&#45;&gt;Node16 -->
<g id="edge30" class="edge"><title>Node1&#45;&gt;Node16</title>
<path fill="none" stroke="midnightblue" d="M491.226,-235.368C494.777,-217.617 502.967,-176.666 507.781,-152.597"/>
<polygon fill="midnightblue" stroke="midnightblue" points="511.253,-153.084 509.782,-142.591 504.388,-151.711 511.253,-153.084"/>
</g>
<!-- Node8&#45;&gt;Node3 -->
<g id="edge9" class="edge"><title>Node8&#45;&gt;Node3</title>
<path fill="none" stroke="midnightblue" d="M321.955,-70.1138C316.176,-69.0271 310.155,-67.94 304.5,-67 191.592,-48.2313 158.779,-65.0374 49.5,-31 47.8743,-30.4936 46.2278,-29.9045 44.5883,-29.2592"/>
<polygon fill="midnightblue" stroke="midnightblue" points="46.0192,-26.065 35.4653,-25.1346 43.1354,-32.4435 46.0192,-26.065"/>
</g>
<!-- Node8&#45;&gt;Node5 -->
<g id="edge10" class="edge"><title>Node8&#45;&gt;Node5</title>
<path fill="none" stroke="midnightblue" d="M381.256,-72.187C424.088,-66.1916 505.251,-52.9275 571.5,-31 573.168,-30.4481 574.863,-29.8303 576.559,-29.1691"/>
<polygon fill="midnightblue" stroke="midnightblue" points="578.269,-32.2432 586.062,-25.0662 575.494,-25.8165 578.269,-32.2432"/>
</g>
<!-- Node9 -->
<g id="node9" class="node"><title>Node9</title>
<polygon fill="white" stroke="#bfbfbf" points="516.5,-6 516.5,-25 562.5,-25 562.5,-6 516.5,-6"/>
<text text-anchor="middle" x="539.5" y="-13" font-family="Helvetica,sans-Serif" font-size="10.00">cstdint</text>
</g>
<!-- Node8&#45;&gt;Node9 -->
<g id="edge8" class="edge"><title>Node8&#45;&gt;Node9</title>
<path fill="none" stroke="midnightblue" d="M381.237,-68.7898C412.933,-60.7888 464.389,-46.8903 507.5,-31 509.113,-30.4054 510.759,-29.766 512.411,-29.0987"/>
<polygon fill="midnightblue" stroke="midnightblue" points="513.94,-32.2514 521.75,-25.0927 511.18,-25.8183 513.94,-32.2514"/>
</g>
<!-- Node10 -->
<g id="node10" class="node"><title>Node10</title>
<polygon fill="white" stroke="#bfbfbf" points="59,-6 59,-25 216,-25 216,-6 59,-6"/>
<text text-anchor="middle" x="137.5" y="-13" font-family="Helvetica,sans-Serif" font-size="10.00">boost/multi_index_container.hpp</text>
</g>
<!-- Node8&#45;&gt;Node10 -->
<g id="edge11" class="edge"><title>Node8&#45;&gt;Node10</title>
<path fill="none" stroke="midnightblue" d="M321.744,-67.7268C284.398,-57.343 220.168,-39.4849 178.27,-27.8355"/>
<polygon fill="midnightblue" stroke="midnightblue" points="178.961,-24.395 168.389,-25.0883 177.086,-31.1392 178.961,-24.395"/>
</g>
<!-- Node11 -->
<g id="node11" class="node"><title>Node11</title>
<polygon fill="white" stroke="#bfbfbf" points="234.5,-0.5 234.5,-30.5 362.5,-30.5 362.5,-0.5 234.5,-0.5"/>
<text text-anchor="start" x="242.5" y="-18.5" font-family="Helvetica,sans-Serif" font-size="10.00">boost/multi_index/hashed</text>
<text text-anchor="middle" x="298.5" y="-7.5" font-family="Helvetica,sans-Serif" font-size="10.00">_index.hpp</text>
</g>
<!-- Node8&#45;&gt;Node11 -->
<g id="edge12" class="edge"><title>Node8&#45;&gt;Node11</title>
<path fill="none" stroke="midnightblue" d="M343.906,-67.4751C337.131,-59.8685 326.914,-48.3992 317.887,-38.2649"/>
<polygon fill="midnightblue" stroke="midnightblue" points="320.256,-35.6622 310.991,-30.523 315.029,-40.3182 320.256,-35.6622"/>
</g>
<!-- Node12 -->
<g id="node12" class="node"><title>Node12</title>
<polygon fill="white" stroke="#bfbfbf" points="380.5,-0.5 380.5,-30.5 498.5,-30.5 498.5,-0.5 380.5,-0.5"/>
<text text-anchor="start" x="388.5" y="-18.5" font-family="Helvetica,sans-Serif" font-size="10.00">boost/multi_index/mem</text>
<text text-anchor="middle" x="439.5" y="-7.5" font-family="Helvetica,sans-Serif" font-size="10.00">_fun.hpp</text>
</g>
<!-- Node8&#45;&gt;Node12 -->
<g id="edge13" class="edge"><title>Node8&#45;&gt;Node12</title>
<path fill="none" stroke="midnightblue" d="M364.108,-67.4751C376.138,-59.3413 394.7,-46.7909 410.395,-36.1788"/>
<polygon fill="midnightblue" stroke="midnightblue" points="412.436,-39.0237 418.76,-30.523 408.516,-33.2248 412.436,-39.0237"/>
</g>
<!-- Node13&#45;&gt;Node2 -->
<g id="edge16" class="edge"><title>Node13&#45;&gt;Node2</title>
<path fill="none" stroke="midnightblue" d="M461.109,-185.131C488.11,-180.705 530.994,-169.714 556.5,-143 568.39,-130.547 573.548,-111.312 575.786,-96.9932"/>
<polygon fill="midnightblue" stroke="midnightblue" points="579.294,-97.1369 577.027,-86.7874 572.345,-96.2917 579.294,-97.1369"/>
</g>
<!-- Node13&#45;&gt;Node3 -->
<g id="edge17" class="edge"><title>Node13&#45;&gt;Node3</title>
<path fill="none" stroke="midnightblue" d="M411.651,-181.28C408.575,-180.49 405.469,-179.712 402.5,-179 328.669,-161.281 306.579,-169.697 235.5,-143 187.45,-124.953 178.784,-112.95 134.5,-87 102.208,-68.077 65.4927,-45.1029 42.6593,-30.6379"/>
<polygon fill="midnightblue" stroke="midnightblue" points="44.3778,-27.5831 34.0599,-25.1764 40.625,-33.4921 44.3778,-27.5831"/>
</g>
<!-- Node13&#45;&gt;Node5 -->
<g id="edge18" class="edge"><title>Node13&#45;&gt;Node5</title>
<path fill="none" stroke="midnightblue" d="M439.248,-179.441C443.673,-166.45 453.244,-141.329 466.5,-123 496.601,-81.3784 547.304,-47.7773 577.565,-30.0961"/>
<polygon fill="midnightblue" stroke="midnightblue" points="579.31,-33.1301 586.255,-25.1287 575.836,-27.0529 579.31,-33.1301"/>
</g>
<!-- Node13&#45;&gt;Node6 -->
<g id="edge19" class="edge"><title>Node13&#45;&gt;Node6</title>
<path fill="none" stroke="midnightblue" d="M461.221,-182.043C489.75,-174.719 537.716,-161.013 576.5,-143 607.452,-128.625 640.414,-106.77 660.736,-92.437"/>
<polygon fill="midnightblue" stroke="midnightblue" points="662.779,-95.2787 668.88,-86.6165 658.709,-89.5836 662.779,-95.2787"/>
</g>
<!-- Node13&#45;&gt;Node8 -->
<g id="edge20" class="edge"><title>Node13&#45;&gt;Node8</title>
<path fill="none" stroke="midnightblue" d="M427.941,-179.367C419.361,-170.543 405.961,-156.286 395.5,-143 383.29,-127.492 370.811,-108.725 362.276,-95.3507"/>
<polygon fill="midnightblue" stroke="midnightblue" points="365.111,-93.2842 356.819,-86.6893 359.189,-97.0158 365.111,-93.2842"/>
</g>
<!-- Node13&#45;&gt;Node9 -->
<g id="edge15" class="edge"><title>Node13&#45;&gt;Node9</title>
<path fill="none" stroke="midnightblue" d="M433.239,-179.227C425.958,-158.02 410.729,-103.071 433.5,-67 434.648,-65.1821 480.335,-43.8206 511.348,-29.469"/>
<polygon fill="midnightblue" stroke="midnightblue" points="513.217,-32.4611 520.826,-25.0893 510.281,-26.1066 513.217,-32.4611"/>
</g>
<!-- Node14 -->
<g id="node14" class="node"><title>Node14</title>
<g id="a_node14"><a xlink:href="error_8h.xhtml" target="_top" xlink:title="Exceptions for SCRAM. ">
<polygon fill="white" stroke="black" points="244.5,-123.5 244.5,-142.5 288.5,-142.5 288.5,-123.5 244.5,-123.5"/>
<text text-anchor="middle" x="266.5" y="-130.5" font-family="Helvetica,sans-Serif" font-size="10.00">error.h</text>
</a>
</g>
</g>
<!-- Node13&#45;&gt;Node14 -->
<g id="edge21" class="edge"><title>Node13&#45;&gt;Node14</title>
<path fill="none" stroke="midnightblue" d="M411.781,-180.148C381.737,-170.605 330.993,-154.486 298.128,-144.046"/>
<polygon fill="midnightblue" stroke="midnightblue" points="299.135,-140.694 288.545,-141.002 297.016,-147.366 299.135,-140.694"/>
</g>
<!-- Node13&#45;&gt;Node16 -->
<g id="edge24" class="edge"><title>Node13&#45;&gt;Node16</title>
<path fill="none" stroke="midnightblue" d="M448.55,-179.324C459.963,-171.107 477.331,-158.602 490.935,-148.807"/>
<polygon fill="midnightblue" stroke="midnightblue" points="493.16,-151.517 499.231,-142.834 489.07,-145.837 493.16,-151.517"/>
</g>
<!-- Node14&#45;&gt;Node3 -->
<g id="edge23" class="edge"><title>Node14&#45;&gt;Node3</title>
<path fill="none" stroke="midnightblue" d="M249.975,-123.485C225.121,-110.764 176.544,-86.2362 134.5,-67 97.193,-49.931 86.7549,-48.1823 49.5,-31 48.5033,-30.5403 47.4901,-30.0665 46.4688,-29.5834"/>
<polygon fill="midnightblue" stroke="midnightblue" points="47.8049,-26.3413 37.2813,-25.115 44.7433,-32.6362 47.8049,-26.3413"/>
</g>
<!-- Node15 -->
<g id="node15" class="node"><title>Node15</title>
<polygon fill="white" stroke="#bfbfbf" points="237,-67.5 237,-86.5 296,-86.5 296,-67.5 237,-67.5"/>
<text text-anchor="middle" x="266.5" y="-74.5" font-family="Helvetica,sans-Serif" font-size="10.00">exception</text>
</g>
<!-- Node14&#45;&gt;Node15 -->
<g id="edge22" class="edge"><title>Node14&#45;&gt;Node15</title>
<path fill="none" stroke="midnightblue" d="M266.5,-123.083C266.5,-116.006 266.5,-105.861 266.5,-96.9865"/>
<polygon fill="midnightblue" stroke="midnightblue" points="270,-96.751 266.5,-86.7511 263,-96.7511 270,-96.751"/>
</g>
<!-- Node16&#45;&gt;Node2 -->
<g id="edge26" class="edge"><title>Node16&#45;&gt;Node2</title>
<path fill="none" stroke="midnightblue" d="M522.104,-123.324C531.956,-115.263 546.851,-103.077 558.715,-93.3695"/>
<polygon fill="midnightblue" stroke="midnightblue" points="561.18,-95.8752 566.703,-86.8339 556.747,-90.4575 561.18,-95.8752"/>
</g>
<!-- Node16&#45;&gt;Node5 -->
<g id="edge27" class="edge"><title>Node16&#45;&gt;Node5</title>
<path fill="none" stroke="midnightblue" d="M514.285,-123.359C518.786,-110.261 528.583,-85.0024 542.5,-67 553.221,-53.1313 568.335,-40.4391 580.711,-31.2481"/>
<polygon fill="midnightblue" stroke="midnightblue" points="583.048,-33.8786 589.136,-25.2075 578.97,-28.1895 583.048,-33.8786"/>
</g>
<!-- Node16&#45;&gt;Node6 -->
<g id="edge28" class="edge"><title>Node16&#45;&gt;Node6</title>
<path fill="none" stroke="midnightblue" d="M538.279,-123.444C566.833,-114.32 612.233,-99.8133 644.037,-89.6509"/>
<polygon fill="midnightblue" stroke="midnightblue" points="645.386,-92.8941 653.847,-86.5164 643.256,-86.2262 645.386,-92.8941"/>
</g>
<!-- Node16&#45;&gt;Node8 -->
<g id="edge29" class="edge"><title>Node16&#45;&gt;Node8</title>
<path fill="none" stroke="midnightblue" d="M486.148,-123.444C459.231,-114.359 416.504,-99.9388 386.413,-89.7831"/>
<polygon fill="midnightblue" stroke="midnightblue" points="387.328,-86.3981 376.734,-86.5164 385.09,-93.0305 387.328,-86.3981"/>
</g>
<!-- Node16&#45;&gt;Node9 -->
<g id="edge25" class="edge"><title>Node16&#45;&gt;Node9</title>
<path fill="none" stroke="midnightblue" d="M509.653,-123.397C507.293,-110.77 504.118,-86.5966 509.5,-67 512.822,-54.9046 519.877,-42.7742 526.311,-33.4347"/>
<polygon fill="midnightblue" stroke="midnightblue" points="529.305,-35.2697 532.377,-25.13 523.652,-31.1408 529.305,-35.2697"/>
</g>
</g>
</svg>
        <g id="navigator" transform="translate(0 0)" fill="#404254">
                <rect fill="#f2f5e9" fill-opacity="0.5" stroke="#606060" stroke-width=".5" x="0" y="0" width="60" height="60"/>
                <use id="zoomplus" xlink:href="#zoomPlus" x="17" y="9" onmousedown="handleZoom(evt,'in')"/>
                <use id="zoomminus" xlink:href="#zoomMin" x="42" y="9" onmousedown="handleZoom(evt,'out')"/>
                <use id="reset" xlink:href="#resetDef" x="30" y="36" onmousedown="handleReset()"/>
                <g id="arrowUp" xlink:href="#dirArrow" transform="translate(30 24)" onmousedown="handlePan(0,-1)">
                  <use xlink:href="#rim" fill="#404040">
                        <set attributeName="fill" to="#808080" begin="arrowUp.mouseover" end="arrowUp.mouseout"/>
                  </use>
                  <path fill="none" stroke="white" stroke-width="1.5" d="M0,-3.0v7 M-2.5,-0.5L0,-3.0L2.5,-0.5"/>
                </g>
                <g id="arrowRight" xlink:href="#dirArrow" transform="rotate(90) translate(36 -43)" onmousedown="handlePan(1,0)">
                  <use xlink:href="#rim" fill="#404040">
                        <set attributeName="fill" to="#808080" begin="arrowRight.mouseover" end="arrowRight.mouseout"/>
                  </use>
                  <path fill="none" stroke="white" stroke-width="1.5" d="M0,-3.0v7 M-2.5,-0.5L0,-3.0L2.5,-0.5"/>
                </g>
                <g id="arrowDown" xlink:href="#dirArrow" transform="rotate(180) translate(-30 -48)" onmousedown="handlePan(0,1)">
                  <use xlink:href="#rim" fill="#404040">
                        <set attributeName="fill" to="#808080" begin="arrowDown.mouseover" end="arrowDown.mouseout"/>
                  </use>
                  <path fill="none" stroke="white" stroke-width="1.5" d="M0,-3.0v7 M-2.5,-0.5L0,-3.0L2.5,-0.5"/>
                </g>
                <g id="arrowLeft" xlink:href="#dirArrow" transform="rotate(270) translate(-36 17)" onmousedown="handlePan(-1,0)">
                  <use xlink:href="#rim" fill="#404040">
                        <set attributeName="fill" to="#808080" begin="arrowLeft.mouseover" end="arrowLeft.mouseout"/>
                  </use>
                  <path fill="none" stroke="white" stroke-width="1.5" d="M0,-3.0v7 M-2.5,-0.5L0,-3.0L2.5,-0.5"/>
                </g>
        </g>
        <svg viewBox="0 0 15 15" width="100%" height="30px" preserveAspectRatio="xMaxYMin meet">
         <g id="arrow_out" transform="scale(0.3 0.3)">
          <a xlink:href="ccf__group_8h__incl_org.svg" target="_base">
           <rect id="button" ry="5" rx="5" y="6" x="6" height="38" width="38"
                fill="#f2f5e9" fill-opacity="0.5" stroke="#606060" stroke-width="1.0"/>
           <path id="arrow"
             d="M 11.500037,31.436501 C 11.940474,20.09759 22.043105,11.32322 32.158766,21.979434 L 37.068811,17.246167 C 37.068811,17.246167 37.088388,32 37.088388,32 L 22.160133,31.978069 C 22.160133,31.978069 26.997745,27.140456 26.997745,27.140456 C 18.528582,18.264221 13.291696,25.230495 11.500037,31.436501 z"
             style="fill:#404040;"/>
          </a>
         </g>
        </svg>
</svg>
