<?xml version="1.0" encoding="UTF-8" standalone="no"?>
<!DOCTYPE svg PUBLIC "-//W3C//DTD SVG 1.1//EN"
 "http://www.w3.org/Graphics/SVG/1.1/DTD/svg11.dtd">
<!-- Generated by graphviz version 2.38.0 (20140413.2041)
 -->
<!-- Title: scram::core::NonTerminal&lt; T &gt; Pages: 1 -->
<svg width="320pt" height="917pt"
 viewBox="0.00 0.00 319.50 917.00" xmlns="http://www.w3.org/2000/svg" xmlns:xlink="http://www.w3.org/1999/xlink">
<g id="graph0" class="graph" transform="scale(1 1) rotate(0) translate(4 913)">
<title>scram::core::NonTerminal&lt; T &gt;</title>
<polygon fill="white" stroke="none" points="-4,4 -4,-913 315.5,-913 315.5,4 -4,4"/>
<!-- Node1 -->
<g id="node1" class="node"><title>Node1</title>
<polygon fill="#bfbfbf" stroke="black" points="72.5,-409.5 72.5,-609.5 226.5,-609.5 226.5,-409.5 72.5,-409.5"/>
<text text-anchor="middle" x="149.5" y="-597.5" font-family="Helvetica,sans-Serif" font-size="10.00">scram::core::NonTerminal&lt; T &gt;</text>
<polyline fill="none" stroke="black" points="72.5,-590.5 226.5,-590.5 "/>
<text text-anchor="middle" x="149.5" y="-578.5" font-family="Helvetica,sans-Serif" font-size="10.00"> </text>
<polyline fill="none" stroke="black" points="72.5,-571.5 226.5,-571.5 "/>
<text text-anchor="start" x="80.5" y="-559.5" font-family="Helvetica,sans-Serif" font-size="10.00">+ NonTerminal()</text>
<text text-anchor="start" x="80.5" y="-548.5" font-family="Helvetica,sans-Serif" font-size="10.00">+ index()</text>
<text text-anchor="start" x="80.5" y="-537.5" font-family="Helvetica,sans-Serif" font-size="10.00">+ order()</text>
<text text-anchor="start" x="80.5" y="-526.5" font-family="Helvetica,sans-Serif" font-size="10.00">+ module()</text>
<text text-anchor="start" x="80.5" y="-515.5" font-family="Helvetica,sans-Serif" font-size="10.00">+ module()</text>
<text text-anchor="start" x="80.5" y="-504.5" font-family="Helvetica,sans-Serif" font-size="10.00">+ coherent()</text>
<text text-anchor="start" x="80.5" y="-493.5" font-family="Helvetica,sans-Serif" font-size="10.00">+ coherent()</text>
<text text-anchor="start" x="80.5" y="-482.5" font-family="Helvetica,sans-Serif" font-size="10.00">+ high()</text>
<text text-anchor="start" x="80.5" y="-471.5" font-family="Helvetica,sans-Serif" font-size="10.00">+ low()</text>
<text text-anchor="start" x="80.5" y="-460.5" font-family="Helvetica,sans-Serif" font-size="10.00">+ mark()</text>
<text text-anchor="start" x="80.5" y="-449.5" font-family="Helvetica,sans-Serif" font-size="10.00">+ mark()</text>
<text text-anchor="start" x="80.5" y="-438.5" font-family="Helvetica,sans-Serif" font-size="10.00"># ~NonTerminal()</text>
<text text-anchor="start" x="80.5" y="-427.5" font-family="Helvetica,sans-Serif" font-size="10.00">* get_high_id</text>
<text text-anchor="start" x="80.5" y="-416.5" font-family="Helvetica,sans-Serif" font-size="10.00">* get_low_id</text>
</g>
<!-- Node6 -->
<g id="node6" class="node"><title>Node6</title>
<g id="a_node6"><a xlink:href="classscram_1_1core_1_1NonTerminal.xhtml" target="_top" xlink:title="{scram::core::NonTerminal\l\&lt; Ite \&gt;\n||+ NonTerminal()\l+ index()\l+ order()\l+ module()\l+ module()\l+ coherent()\l+ coherent()\l+ high()\l+ low()\l+ mark()\l+ mark()\l# ~NonTerminal()\l* get_high_id\l* get_low_id\l}">
<polygon fill="white" stroke="black" points="33.5,-150.5 33.5,-361.5 163.5,-361.5 163.5,-150.5 33.5,-150.5"/>
<text text-anchor="start" x="41.5" y="-349.5" font-family="Helvetica,sans-Serif" font-size="10.00">scram::core::NonTerminal</text>
<text text-anchor="middle" x="98.5" y="-338.5" font-family="Helvetica,sans-Serif" font-size="10.00">&lt; Ite &gt;</text>
<polyline fill="none" stroke="black" points="33.5,-331.5 163.5,-331.5 "/>
<text text-anchor="middle" x="98.5" y="-319.5" font-family="Helvetica,sans-Serif" font-size="10.00"> </text>
<polyline fill="none" stroke="black" points="33.5,-312.5 163.5,-312.5 "/>
<text text-anchor="start" x="41.5" y="-300.5" font-family="Helvetica,sans-Serif" font-size="10.00">+ NonTerminal()</text>
<text text-anchor="start" x="41.5" y="-289.5" font-family="Helvetica,sans-Serif" font-size="10.00">+ index()</text>
<text text-anchor="start" x="41.5" y="-278.5" font-family="Helvetica,sans-Serif" font-size="10.00">+ order()</text>
<text text-anchor="start" x="41.5" y="-267.5" font-family="Helvetica,sans-Serif" font-size="10.00">+ module()</text>
<text text-anchor="start" x="41.5" y="-256.5" font-family="Helvetica,sans-Serif" font-size="10.00">+ module()</text>
<text text-anchor="start" x="41.5" y="-245.5" font-family="Helvetica,sans-Serif" font-size="10.00">+ coherent()</text>
<text text-anchor="start" x="41.5" y="-234.5" font-family="Helvetica,sans-Serif" font-size="10.00">+ coherent()</text>
<text text-anchor="start" x="41.5" y="-223.5" font-family="Helvetica,sans-Serif" font-size="10.00">+ high()</text>
<text text-anchor="start" x="41.5" y="-212.5" font-family="Helvetica,sans-Serif" font-size="10.00">+ low()</text>
<text text-anchor="start" x="41.5" y="-201.5" font-family="Helvetica,sans-Serif" font-size="10.00">+ mark()</text>
<text text-anchor="start" x="41.5" y="-190.5" font-family="Helvetica,sans-Serif" font-size="10.00">+ mark()</text>
<text text-anchor="start" x="41.5" y="-179.5" font-family="Helvetica,sans-Serif" font-size="10.00"># ~NonTerminal()</text>
<text text-anchor="start" x="41.5" y="-168.5" font-family="Helvetica,sans-Serif" font-size="10.00">* get_high_id</text>
<text text-anchor="start" x="41.5" y="-157.5" font-family="Helvetica,sans-Serif" font-size="10.00">* get_low_id</text>
</a>
</g>
</g>
<!-- Node1&#45;&gt;Node6 -->
<g id="edge5" class="edge"><title>Node1&#45;&gt;Node6</title>
<path fill="none" stroke="orange" d="M127.392,-399.477C124.853,-386.956 122.268,-374.209 119.741,-361.745"/>
<polygon fill="orange" stroke="orange" points="123.999,-400.357 129.417,-409.462 130.859,-398.965 123.999,-400.357"/>
<text text-anchor="middle" x="143" y="-383" font-family="Helvetica,sans-Serif" font-size="10.00"> &lt; Ite &gt;</text>
</g>
<!-- Node8 -->
<g id="node8" class="node"><title>Node8</title>
<g id="a_node8"><a xlink:href="classscram_1_1core_1_1NonTerminal.xhtml" target="_top" xlink:title="{scram::core::NonTerminal\l\&lt; SetNode \&gt;\n||+ NonTerminal()\l+ index()\l+ order()\l+ module()\l+ module()\l+ coherent()\l+ coherent()\l+ high()\l+ low()\l+ mark()\l+ mark()\l# ~NonTerminal()\l* get_high_id\l* get_low_id\l}">
<polygon fill="white" stroke="black" points="181.5,-150.5 181.5,-361.5 311.5,-361.5 311.5,-150.5 181.5,-150.5"/>
<text text-anchor="start" x="189.5" y="-349.5" font-family="Helvetica,sans-Serif" font-size="10.00">scram::core::NonTerminal</text>
<text text-anchor="middle" x="246.5" y="-338.5" font-family="Helvetica,sans-Serif" font-size="10.00">&lt; SetNode &gt;</text>
<polyline fill="none" stroke="black" points="181.5,-331.5 311.5,-331.5 "/>
<text text-anchor="middle" x="246.5" y="-319.5" font-family="Helvetica,sans-Serif" font-size="10.00"> </text>
<polyline fill="none" stroke="black" points="181.5,-312.5 311.5,-312.5 "/>
<text text-anchor="start" x="189.5" y="-300.5" font-family="Helvetica,sans-Serif" font-size="10.00">+ NonTerminal()</text>
<text text-anchor="start" x="189.5" y="-289.5" font-family="Helvetica,sans-Serif" font-size="10.00">+ index()</text>
<text text-anchor="start" x="189.5" y="-278.5" font-family="Helvetica,sans-Serif" font-size="10.00">+ order()</text>
<text text-anchor="start" x="189.5" y="-267.5" font-family="Helvetica,sans-Serif" font-size="10.00">+ module()</text>
<text text-anchor="start" x="189.5" y="-256.5" font-family="Helvetica,sans-Serif" font-size="10.00">+ module()</text>
<text text-anchor="start" x="189.5" y="-245.5" font-family="Helvetica,sans-Serif" font-size="10.00">+ coherent()</text>
<text text-anchor="start" x="189.5" y="-234.5" font-family="Helvetica,sans-Serif" font-size="10.00">+ coherent()</text>
<text text-anchor="start" x="189.5" y="-223.5" font-family="Helvetica,sans-Serif" font-size="10.00">+ high()</text>
<text text-anchor="start" x="189.5" y="-212.5" font-family="Helvetica,sans-Serif" font-size="10.00">+ low()</text>
<text text-anchor="start" x="189.5" y="-201.5" font-family="Helvetica,sans-Serif" font-size="10.00">+ mark()</text>
<text text-anchor="start" x="189.5" y="-190.5" font-family="Helvetica,sans-Serif" font-size="10.00">+ mark()</text>
<text text-anchor="start" x="189.5" y="-179.5" font-family="Helvetica,sans-Serif" font-size="10.00"># ~NonTerminal()</text>
<text text-anchor="start" x="189.5" y="-168.5" font-family="Helvetica,sans-Serif" font-size="10.00">* get_high_id</text>
<text text-anchor="start" x="189.5" y="-157.5" font-family="Helvetica,sans-Serif" font-size="10.00">* get_low_id</text>
</a>
</g>
</g>
<!-- Node1&#45;&gt;Node8 -->
<g id="edge7" class="edge"><title>Node1&#45;&gt;Node8</title>
<path fill="none" stroke="orange" d="M191.405,-399.849C196.281,-387.208 201.247,-374.332 206.101,-361.745"/>
<polygon fill="orange" stroke="orange" points="188.031,-398.872 187.698,-409.462 194.562,-401.391 188.031,-398.872"/>
<text text-anchor="middle" x="227.5" y="-383" font-family="Helvetica,sans-Serif" font-size="10.00"> &lt; SetNode &gt;</text>
</g>
<!-- Node2 -->
<g id="node2" class="node"><title>Node2</title>
<g id="a_node2"><a xlink:href="classscram_1_1core_1_1Vertex.xhtml" target="_top" xlink:title="Representation of a vertex in BDD graphs. ">
<polygon fill="white" stroke="black" points="0,-647.5 0,-759.5 127,-759.5 127,-647.5 0,-647.5"/>
<text text-anchor="middle" x="63.5" y="-747.5" font-family="Helvetica,sans-Serif" font-size="10.00">scram::core::Vertex&lt; T &gt;</text>
<polyline fill="none" stroke="black" points="0,-740.5 127,-740.5 "/>
<text text-anchor="middle" x="63.5" y="-728.5" font-family="Helvetica,sans-Serif" font-size="10.00"> </text>
<polyline fill="none" stroke="black" points="0,-721.5 127,-721.5 "/>
<text text-anchor="start" x="8" y="-709.5" font-family="Helvetica,sans-Serif" font-size="10.00">+ Vertex()</text>
<text text-anchor="start" x="8" y="-698.5" font-family="Helvetica,sans-Serif" font-size="10.00">+ id()</text>
<text text-anchor="start" x="8" y="-687.5" font-family="Helvetica,sans-Serif" font-size="10.00">+ terminal()</text>
<text text-anchor="start" x="8" y="-676.5" font-family="Helvetica,sans-Serif" font-size="10.00">+ use_count()</text>
<text text-anchor="start" x="8" y="-665.5" font-family="Helvetica,sans-Serif" font-size="10.00">+ unique()</text>
<text text-anchor="start" x="8" y="-654.5" font-family="Helvetica,sans-Serif" font-size="10.00"># ~Vertex()</text>
</a>
</g>
</g>
<!-- Node2&#45;&gt;Node1 -->
<g id="edge1" class="edge"><title>Node2&#45;&gt;Node1</title>
<path fill="none" stroke="midnightblue" d="M92.3362,-638.121C96.433,-628.975 100.723,-619.398 105.032,-609.777"/>
<polygon fill="none" stroke="midnightblue" points="89.0378,-636.923 88.1441,-647.481 95.4262,-639.785 89.0378,-636.923"/>
</g>
<!-- Node3 -->
<g id="node3" class="node"><title>Node3</title>
<polygon fill="white" stroke="#bfbfbf" points="28,-829.5 28,-886.5 99,-886.5 99,-829.5 28,-829.5"/>
<text text-anchor="middle" x="63.5" y="-874.5" font-family="Helvetica,sans-Serif" font-size="10.00">noncopyable</text>
<polyline fill="none" stroke="#bfbfbf" points="28,-867.5 99,-867.5 "/>
<text text-anchor="middle" x="63.5" y="-855.5" font-family="Helvetica,sans-Serif" font-size="10.00"> </text>
<polyline fill="none" stroke="#bfbfbf" points="28,-848.5 99,-848.5 "/>
<text text-anchor="middle" x="63.5" y="-836.5" font-family="Helvetica,sans-Serif" font-size="10.00"> </text>
</g>
<!-- Node3&#45;&gt;Node2 -->
<g id="edge2" class="edge"><title>Node3&#45;&gt;Node2</title>
<path fill="none" stroke="#8b1a1a" d="M63.5,-819.299C63.5,-801.334 63.5,-779.496 63.5,-759.709"/>
<polygon fill="none" stroke="#8b1a1a" points="60.0001,-819.383 63.5,-829.383 67.0001,-819.383 60.0001,-819.383"/>
</g>
<!-- Node4 -->
<g id="node4" class="node"><title>Node4</title>
<g id="a_node4"><a xlink:href="structscram_1_1core_1_1IntrusivePtrCast.xhtml" target="_top" xlink:title="{scram::core::IntrusivePtr\lCast\&lt; T \&gt;\n||+ Ptr()\l+ Ref()\l* Ptr()\l* Ref()\l}">
<polygon fill="white" stroke="black" points="145,-653 145,-754 270,-754 270,-653 145,-653"/>
<text text-anchor="start" x="153" y="-742" font-family="Helvetica,sans-Serif" font-size="10.00">scram::core::IntrusivePtr</text>
<text text-anchor="middle" x="207.5" y="-731" font-family="Helvetica,sans-Serif" font-size="10.00">Cast&lt; T &gt;</text>
<polyline fill="none" stroke="black" points="145,-724 270,-724 "/>
<text text-anchor="middle" x="207.5" y="-712" font-family="Helvetica,sans-Serif" font-size="10.00"> </text>
<polyline fill="none" stroke="black" points="145,-705 270,-705 "/>
<text text-anchor="start" x="153" y="-693" font-family="Helvetica,sans-Serif" font-size="10.00">+ Ptr()</text>
<text text-anchor="start" x="153" y="-682" font-family="Helvetica,sans-Serif" font-size="10.00">+ Ref()</text>
<text text-anchor="start" x="153" y="-671" font-family="Helvetica,sans-Serif" font-size="10.00">* Ptr()</text>
<text text-anchor="start" x="153" y="-660" font-family="Helvetica,sans-Serif" font-size="10.00">* Ref()</text>
</a>
</g>
</g>
<!-- Node4&#45;&gt;Node1 -->
<g id="edge3" class="edge"><title>Node4&#45;&gt;Node1</title>
<path fill="none" stroke="midnightblue" d="M189.435,-642.7C186.258,-632.183 182.876,-620.986 179.476,-609.731"/>
<polygon fill="none" stroke="midnightblue" points="186.17,-643.995 192.413,-652.555 192.871,-641.971 186.17,-643.995"/>
</g>
<!-- Node5 -->
<g id="node5" class="node"><title>Node5</title>
<g id="a_node5"><a xlink:href="structscram_1_1core_1_1IntrusivePtrCast.xhtml" target="_top" xlink:title="Provides pointer and reference cast wrappers for intrusive Vertex pointers. ">
<polygon fill="white" stroke="black" points="145,-807.5 145,-908.5 270,-908.5 270,-807.5 145,-807.5"/>
<text text-anchor="start" x="153" y="-896.5" font-family="Helvetica,sans-Serif" font-size="10.00">scram::core::IntrusivePtr</text>
<text text-anchor="middle" x="207.5" y="-885.5" font-family="Helvetica,sans-Serif" font-size="10.00">Cast&lt; T, W &gt;</text>
<polyline fill="none" stroke="black" points="145,-878.5 270,-878.5 "/>
<text text-anchor="middle" x="207.5" y="-866.5" font-family="Helvetica,sans-Serif" font-size="10.00"> </text>
<polyline fill="none" stroke="black" points="145,-859.5 270,-859.5 "/>
<text text-anchor="start" x="153" y="-847.5" font-family="Helvetica,sans-Serif" font-size="10.00">+ Ptr()</text>
<text text-anchor="start" x="153" y="-836.5" font-family="Helvetica,sans-Serif" font-size="10.00">+ Ref()</text>
<text text-anchor="start" x="153" y="-825.5" font-family="Helvetica,sans-Serif" font-size="10.00">* Ptr()</text>
<text text-anchor="start" x="153" y="-814.5" font-family="Helvetica,sans-Serif" font-size="10.00">* Ref()</text>
</a>
</g>
</g>
<!-- Node5&#45;&gt;Node4 -->
<g id="edge4" class="edge"><title>Node5&#45;&gt;Node4</title>
<path fill="none" stroke="orange" d="M207.5,-797.243C207.5,-782.935 207.5,-767.812 207.5,-754.025"/>
<polygon fill="orange" stroke="orange" points="204,-797.488 207.5,-807.488 211,-797.488 204,-797.488"/>
<text text-anchor="middle" x="221.5" y="-781" font-family="Helvetica,sans-Serif" font-size="10.00"> &lt; T &gt;</text>
</g>
<!-- Node7 -->
<g id="node7" class="node"><title>Node7</title>
<g id="a_node7"><a xlink:href="classscram_1_1core_1_1Ite.xhtml" target="_top" xlink:title="Representation of non&#45;terminal if&#45;then&#45;else vertices in BDD graphs. ">
<polygon fill="white" stroke="black" points="43,-0.5 43,-112.5 154,-112.5 154,-0.5 43,-0.5"/>
<text text-anchor="middle" x="98.5" y="-100.5" font-family="Helvetica,sans-Serif" font-size="10.00">scram::core::Ite</text>
<polyline fill="none" stroke="black" points="43,-93.5 154,-93.5 "/>
<text text-anchor="middle" x="98.5" y="-81.5" font-family="Helvetica,sans-Serif" font-size="10.00"> </text>
<polyline fill="none" stroke="black" points="43,-74.5 154,-74.5 "/>
<text text-anchor="start" x="51" y="-62.5" font-family="Helvetica,sans-Serif" font-size="10.00">+ complement_edge()</text>
<text text-anchor="start" x="51" y="-51.5" font-family="Helvetica,sans-Serif" font-size="10.00">+ complement_edge()</text>
<text text-anchor="start" x="51" y="-40.5" font-family="Helvetica,sans-Serif" font-size="10.00">+ p()</text>
<text text-anchor="start" x="51" y="-29.5" font-family="Helvetica,sans-Serif" font-size="10.00">+ p()</text>
<text text-anchor="start" x="51" y="-18.5" font-family="Helvetica,sans-Serif" font-size="10.00">+ factor()</text>
<text text-anchor="start" x="51" y="-7.5" font-family="Helvetica,sans-Serif" font-size="10.00">+ factor()</text>
</a>
</g>
</g>
<!-- Node6&#45;&gt;Node7 -->
<g id="edge6" class="edge"><title>Node6&#45;&gt;Node7</title>
<path fill="none" stroke="midnightblue" d="M98.5,-140.419C98.5,-130.833 98.5,-121.451 98.5,-112.648"/>
<polygon fill="none" stroke="midnightblue" points="95.0001,-140.467 98.5,-150.467 102,-140.467 95.0001,-140.467"/>
</g>
<!-- Node9 -->
<g id="node9" class="node"><title>Node9</title>
<g id="a_node9"><a xlink:href="classscram_1_1core_1_1SetNode.xhtml" target="_top" xlink:title="Representation of non&#45;terminal nodes in ZBDD. ">
<polygon fill="white" stroke="black" points="190,-0.5 190,-112.5 303,-112.5 303,-0.5 190,-0.5"/>
<text text-anchor="middle" x="246.5" y="-100.5" font-family="Helvetica,sans-Serif" font-size="10.00">scram::core::SetNode</text>
<polyline fill="none" stroke="black" points="190,-93.5 303,-93.5 "/>
<text text-anchor="middle" x="246.5" y="-81.5" font-family="Helvetica,sans-Serif" font-size="10.00"> </text>
<polyline fill="none" stroke="black" points="190,-74.5 303,-74.5 "/>
<text text-anchor="start" x="198" y="-62.5" font-family="Helvetica,sans-Serif" font-size="10.00">+ minimal()</text>
<text text-anchor="start" x="198" y="-51.5" font-family="Helvetica,sans-Serif" font-size="10.00">+ minimal()</text>
<text text-anchor="start" x="198" y="-40.5" font-family="Helvetica,sans-Serif" font-size="10.00">+ max_set_order()</text>
<text text-anchor="start" x="198" y="-29.5" font-family="Helvetica,sans-Serif" font-size="10.00">+ max_set_order()</text>
<text text-anchor="start" x="198" y="-18.5" font-family="Helvetica,sans-Serif" font-size="10.00">+ count()</text>
<text text-anchor="start" x="198" y="-7.5" font-family="Helvetica,sans-Serif" font-size="10.00">+ count()</text>
</a>
</g>
</g>
<!-- Node8&#45;&gt;Node9 -->
<g id="edge8" class="edge"><title>Node8&#45;&gt;Node9</title>
<path fill="none" stroke="midnightblue" d="M246.5,-140.419C246.5,-130.833 246.5,-121.451 246.5,-112.648"/>
<polygon fill="none" stroke="midnightblue" points="243,-140.467 246.5,-150.467 250,-140.467 243,-140.467"/>
</g>
</g>
</svg>
