<?xml version="1.0" encoding="UTF-8" standalone="no"?>
<!DOCTYPE svg PUBLIC "-//W3C//DTD SVG 1.1//EN"
 "http://www.w3.org/Graphics/SVG/1.1/DTD/svg11.dtd">
<!-- Generated by graphviz version 2.38.0 (20140413.2041)
 -->
<!-- Title: scram::core::Node::index Pages: 1 -->
<svg width="428pt" height="653pt"
 viewBox="0.00 0.00 428.00 652.50" xmlns="http://www.w3.org/2000/svg" xmlns:xlink="http://www.w3.org/1999/xlink">
<g id="graph0" class="graph" transform="scale(1 1) rotate(0) translate(4 648.5)">
<title>scram::core::Node::index</title>
<polygon fill="white" stroke="none" points="-4,4 -4,-648.5 424,-648.5 424,4 -4,4"/>
<!-- Node1 -->
<g id="node1" class="node"><title>Node1</title>
<polygon fill="#bfbfbf" stroke="black" points="0,-316 0,-346 104,-346 104,-316 0,-316"/>
<text text-anchor="start" x="8" y="-334" font-family="Helvetica,sans-Serif" font-size="10.00">scram::core::Node::</text>
<text text-anchor="middle" x="52" y="-323" font-family="Helvetica,sans-Serif" font-size="10.00">index</text>
</g>
<!-- Node2 -->
<g id="node2" class="node"><title>Node2</title>
<g id="a_node2"><a xlink:href="classscram_1_1core_1_1Mocus.xhtml#a008348c27bdc85ad9d0d106b18dcc1a2" target="_top" xlink:title="Finds minimal cut sets from the PDAG. ">
<polygon fill="white" stroke="black" points="154.5,-614 154.5,-644 258.5,-644 258.5,-614 154.5,-614"/>
<text text-anchor="start" x="162.5" y="-632" font-family="Helvetica,sans-Serif" font-size="10.00">scram::core::Mocus</text>
<text text-anchor="middle" x="206.5" y="-621" font-family="Helvetica,sans-Serif" font-size="10.00">::Analyze</text>
</a>
</g>
</g>
<!-- Node1&#45;&gt;Node2 -->
<g id="edge1" class="edge"><title>Node1&#45;&gt;Node2</title>
<path fill="none" stroke="midnightblue" d="M54.0061,-356.48C57.4506,-409.526 72.6811,-532.794 140,-604 144.097,-608.334 149.026,-611.925 154.317,-614.898"/>
<polygon fill="midnightblue" stroke="midnightblue" points="57.4881,-356.06 53.4354,-346.271 50.499,-356.45 57.4881,-356.06"/>
</g>
<!-- Node3 -->
<g id="node3" class="node"><title>Node3</title>
<g id="a_node3"><a xlink:href="classscram_1_1core_1_1Bdd.xhtml#ab9548d4c5f9afaa96dc24e17e2a01a57" target="_top" xlink:title="Runs the Qualitative analysis with the representation of a PDAG as ROBDD. ">
<polygon fill="white" stroke="black" points="140,-575.5 140,-594.5 273,-594.5 273,-575.5 140,-575.5"/>
<text text-anchor="middle" x="206.5" y="-582.5" font-family="Helvetica,sans-Serif" font-size="10.00">scram::core::Bdd::Analyze</text>
</a>
</g>
</g>
<!-- Node1&#45;&gt;Node3 -->
<g id="edge2" class="edge"><title>Node1&#45;&gt;Node3</title>
<path fill="none" stroke="midnightblue" d="M55.0465,-356.324C60.2991,-404.318 78.533,-508.82 140,-566 144.161,-569.871 149.065,-572.958 154.286,-575.42"/>
<polygon fill="midnightblue" stroke="midnightblue" points="58.511,-355.792 54.041,-346.187 51.5451,-356.483 58.511,-355.792"/>
</g>
<!-- Node4 -->
<g id="node4" class="node"><title>Node4</title>
<g id="a_node4"><a xlink:href="classscram_1_1core_1_1Bdd.xhtml#ab7af95900c1ab921446e2e67177a315c" target="_top" xlink:title="Constructor with the analysis target. ">
<polygon fill="white" stroke="black" points="149,-537.5 149,-556.5 264,-556.5 264,-537.5 149,-537.5"/>
<text text-anchor="middle" x="206.5" y="-544.5" font-family="Helvetica,sans-Serif" font-size="10.00">scram::core::Bdd::Bdd</text>
</a>
</g>
</g>
<!-- Node1&#45;&gt;Node4 -->
<g id="edge3" class="edge"><title>Node1&#45;&gt;Node4</title>
<path fill="none" stroke="midnightblue" d="M57.0579,-356.051C65.161,-397.888 87.3163,-481.921 140,-528 144.456,-531.898 149.67,-534.997 155.176,-537.462"/>
<polygon fill="midnightblue" stroke="midnightblue" points="60.4874,-355.347 55.2504,-346.137 53.6009,-356.603 60.4874,-355.347"/>
</g>
<!-- Node5 -->
<g id="node5" class="node"><title>Node5</title>
<g id="a_node5"><a xlink:href="classscram_1_1core_1_1Gate.xhtml#a9f9390cdf7bfb3c552a7ef843629ddc0" target="_top" xlink:title="Clones arguments and parameters. ">
<polygon fill="white" stroke="black" points="156,-488 156,-518 257,-518 257,-488 156,-488"/>
<text text-anchor="start" x="164" y="-506" font-family="Helvetica,sans-Serif" font-size="10.00">scram::core::Gate::</text>
<text text-anchor="middle" x="206.5" y="-495" font-family="Helvetica,sans-Serif" font-size="10.00">Clone</text>
</a>
</g>
</g>
<!-- Node1&#45;&gt;Node5 -->
<g id="edge4" class="edge"><title>Node1&#45;&gt;Node5</title>
<path fill="none" stroke="midnightblue" d="M61.5773,-356.008C73.9839,-388.659 99.9365,-445.576 140,-479 144.743,-482.957 150.195,-486.29 155.887,-489.09"/>
<polygon fill="midnightblue" stroke="midnightblue" points="64.7536,-354.503 58.0244,-346.32 58.1816,-356.914 64.7536,-354.503"/>
</g>
<!-- Node6 -->
<g id="node6" class="node"><title>Node6</title>
<g id="a_node6"><a xlink:href="classscram_1_1core_1_1Gate.xhtml#afb7c7d1264436f419af973286a4b2439" target="_top" xlink:title="Adds arguments of an argument gate to this gate. ">
<polygon fill="white" stroke="black" points="156,-439 156,-469 257,-469 257,-439 156,-439"/>
<text text-anchor="start" x="164" y="-457" font-family="Helvetica,sans-Serif" font-size="10.00">scram::core::Gate::</text>
<text text-anchor="middle" x="206.5" y="-446" font-family="Helvetica,sans-Serif" font-size="10.00">CoalesceGate</text>
</a>
</g>
</g>
<!-- Node1&#45;&gt;Node6 -->
<g id="edge5" class="edge"><title>Node1&#45;&gt;Node6</title>
<path fill="none" stroke="midnightblue" d="M68.5754,-354.721C84.2474,-376.93 110.301,-409.659 140,-430 144.896,-433.353 150.318,-436.302 155.884,-438.879"/>
<polygon fill="midnightblue" stroke="midnightblue" points="71.2614,-352.45 62.7065,-346.2 65.4966,-356.421 71.2614,-352.45"/>
</g>
<!-- Node7 -->
<g id="node7" class="node"><title>Node7</title>
<g id="a_node7"><a xlink:href="classscram_1_1core_1_1Gate.xhtml#a499891e2b42db9746c9b8f53ef40ee96" target="_top" xlink:title="Removes an argument from the arguments container. ">
<polygon fill="white" stroke="black" points="156,-390 156,-420 257,-420 257,-390 156,-390"/>
<text text-anchor="start" x="164" y="-408" font-family="Helvetica,sans-Serif" font-size="10.00">scram::core::Gate::</text>
<text text-anchor="middle" x="206.5" y="-397" font-family="Helvetica,sans-Serif" font-size="10.00">EraseArg</text>
</a>
</g>
</g>
<!-- Node1&#45;&gt;Node7 -->
<g id="edge6" class="edge"><title>Node1&#45;&gt;Node7</title>
<path fill="none" stroke="midnightblue" d="M85.7433,-351.587C101.758,-361.194 121.523,-372.382 140,-381 146.695,-384.123 153.919,-387.12 161.039,-389.874"/>
<polygon fill="midnightblue" stroke="midnightblue" points="87.1494,-348.346 76.7858,-346.145 83.5146,-354.328 87.1494,-348.346"/>
</g>
<!-- Node8 -->
<g id="node8" class="node"><title>Node8</title>
<g id="a_node8"><a xlink:href="classscram_1_1core_1_1Gate.xhtml#a1f1f6c207ed48810d094de6c505c2643" target="_top" xlink:title="Clears all the arguments of this gate. ">
<polygon fill="white" stroke="black" points="156,-341 156,-371 257,-371 257,-341 156,-341"/>
<text text-anchor="start" x="164" y="-359" font-family="Helvetica,sans-Serif" font-size="10.00">scram::core::Gate::</text>
<text text-anchor="middle" x="206.5" y="-348" font-family="Helvetica,sans-Serif" font-size="10.00">EraseArgs</text>
</a>
</g>
</g>
<!-- Node1&#45;&gt;Node8 -->
<g id="edge7" class="edge"><title>Node1&#45;&gt;Node8</title>
<path fill="none" stroke="midnightblue" d="M114.168,-341.028C128.059,-343.305 142.645,-345.696 155.982,-347.882"/>
<polygon fill="midnightblue" stroke="midnightblue" points="114.639,-337.558 104.205,-339.394 113.507,-344.466 114.639,-337.558"/>
</g>
<!-- Node9 -->
<g id="node9" class="node"><title>Node9</title>
<g id="a_node9"><a xlink:href="classscram_1_1core_1_1Zbdd.xhtml#ac90d12f0c653c679d22109124fa6344c" target="_top" xlink:title="Find or adds a ZBDD SetNode vertex using information from gates. ">
<polygon fill="white" stroke="black" points="155.5,-292 155.5,-322 257.5,-322 257.5,-292 155.5,-292"/>
<text text-anchor="start" x="163.5" y="-310" font-family="Helvetica,sans-Serif" font-size="10.00">scram::core::Zbdd::</text>
<text text-anchor="middle" x="206.5" y="-299" font-family="Helvetica,sans-Serif" font-size="10.00">FindOrAddVertex</text>
</a>
</g>
</g>
<!-- Node1&#45;&gt;Node9 -->
<g id="edge8" class="edge"><title>Node1&#45;&gt;Node9</title>
<path fill="none" stroke="midnightblue" d="M114.464,-321.327C128.087,-319.183 142.364,-316.936 155.466,-314.874"/>
<polygon fill="midnightblue" stroke="midnightblue" points="113.539,-317.929 104.205,-322.942 114.627,-324.844 113.539,-317.929"/>
</g>
<!-- Node10 -->
<g id="node10" class="node"><title>Node10</title>
<g id="a_node10"><a xlink:href="classscram_1_1core_1_1Preprocessor_1_1GateSet.xhtml#ae00239084858979e096032c4cf2f05b9" target="_top" xlink:title="Inserts a gate into the set if it is semantically unique. ">
<polygon fill="white" stroke="black" points="140.5,-243 140.5,-273 272.5,-273 272.5,-243 140.5,-243"/>
<text text-anchor="start" x="148.5" y="-261" font-family="Helvetica,sans-Serif" font-size="10.00">scram::core::Preprocessor</text>
<text text-anchor="middle" x="206.5" y="-250" font-family="Helvetica,sans-Serif" font-size="10.00">::GateSet::insert</text>
</a>
</g>
</g>
<!-- Node1&#45;&gt;Node10 -->
<g id="edge9" class="edge"><title>Node1&#45;&gt;Node10</title>
<path fill="none" stroke="midnightblue" d="M86.9244,-310.842C102.781,-301.796 122.079,-291.314 140,-283 147.508,-279.517 155.649,-276.12 163.557,-273.01"/>
<polygon fill="midnightblue" stroke="midnightblue" points="84.9373,-307.947 78.0225,-315.975 88.4339,-314.011 84.9373,-307.947"/>
</g>
<!-- Node11 -->
<g id="node11" class="node"><title>Node11</title>
<g id="a_node11"><a xlink:href="classscram_1_1core_1_1Gate.xhtml#a97e099c6298b6f9096546e839066dee4" target="_top" xlink:title="Swaps a single argument of a NULL type argument gate. ">
<polygon fill="white" stroke="black" points="156,-194 156,-224 257,-224 257,-194 156,-194"/>
<text text-anchor="start" x="164" y="-212" font-family="Helvetica,sans-Serif" font-size="10.00">scram::core::Gate::</text>
<text text-anchor="middle" x="206.5" y="-201" font-family="Helvetica,sans-Serif" font-size="10.00">JoinNullGate</text>
</a>
</g>
</g>
<!-- Node1&#45;&gt;Node11 -->
<g id="edge10" class="edge"><title>Node1&#45;&gt;Node11</title>
<path fill="none" stroke="midnightblue" d="M69.0059,-307.496C84.8246,-285.817 110.834,-254.046 140,-234 145.517,-230.208 151.687,-226.892 157.974,-224.021"/>
<polygon fill="midnightblue" stroke="midnightblue" points="66.0229,-305.651 63.0662,-315.825 71.7221,-309.715 66.0229,-305.651"/>
</g>
<!-- Node12 -->
<g id="node12" class="node"><title>Node12</title>
<g id="a_node12"><a xlink:href="classscram_1_1core_1_1Gate.xhtml#ac1eeb543de0928d926ed68e1ed51f565" target="_top" xlink:title="Sets the logic of this gate to pass&#45;through and clears all its arguments except for a Boolean constan...">
<polygon fill="white" stroke="black" points="156,-145 156,-175 257,-175 257,-145 156,-145"/>
<text text-anchor="start" x="164" y="-163" font-family="Helvetica,sans-Serif" font-size="10.00">scram::core::Gate::</text>
<text text-anchor="middle" x="206.5" y="-152" font-family="Helvetica,sans-Serif" font-size="10.00">MakeConstant</text>
</a>
</g>
</g>
<!-- Node1&#45;&gt;Node12 -->
<g id="edge11" class="edge"><title>Node1&#45;&gt;Node12</title>
<path fill="none" stroke="midnightblue" d="M61.7347,-306.409C74.3158,-274.286 100.461,-218.236 140,-185 144.752,-181.006 150.21,-177.611 155.904,-174.735"/>
<polygon fill="midnightblue" stroke="midnightblue" points="58.3944,-305.347 58.1268,-315.938 64.9409,-307.826 58.3944,-305.347"/>
</g>
<!-- Node13 -->
<g id="node13" class="node"><title>Node13</title>
<g id="a_node13"><a xlink:href="pdag_8cc.xhtml#a3655e18b0516364663797b84c544bd8b" target="_top" xlink:title="Prints PDAG nodes in the Aralia format. ">
<polygon fill="white" stroke="black" points="145.5,-88.5 145.5,-107.5 267.5,-107.5 267.5,-88.5 145.5,-88.5"/>
<text text-anchor="middle" x="206.5" y="-95.5" font-family="Helvetica,sans-Serif" font-size="10.00">scram::core::operator&lt;&lt;</text>
</a>
</g>
</g>
<!-- Node1&#45;&gt;Node13 -->
<g id="edge12" class="edge"><title>Node1&#45;&gt;Node13</title>
<path fill="none" stroke="midnightblue" d="M58.7873,-306.071C69.1381,-266.097 94.1515,-186.988 140,-136 151.252,-123.487 167.627,-113.987 181.189,-107.615"/>
<polygon fill="midnightblue" stroke="midnightblue" points="55.3845,-305.252 56.3593,-315.802 62.1762,-306.946 55.3845,-305.252"/>
</g>
<!-- Node15 -->
<g id="node15" class="node"><title>Node15</title>
<g id="a_node15"><a xlink:href="classscram_1_1core_1_1Gate.xhtml#aff8127ed74cf083d742ede72b3c422e6" target="_top" xlink:title="Transfers this gate&#39;s argument to another gate. ">
<polygon fill="white" stroke="black" points="156,-39 156,-69 257,-69 257,-39 156,-39"/>
<text text-anchor="start" x="164" y="-57" font-family="Helvetica,sans-Serif" font-size="10.00">scram::core::Gate::</text>
<text text-anchor="middle" x="206.5" y="-46" font-family="Helvetica,sans-Serif" font-size="10.00">TransferArg</text>
</a>
</g>
</g>
<!-- Node1&#45;&gt;Node15 -->
<g id="edge15" class="edge"><title>Node1&#45;&gt;Node15</title>
<path fill="none" stroke="midnightblue" d="M54.788,-305.762C59.6426,-255.848 77.2906,-143.761 140,-79 144.488,-74.3656 149.924,-70.5787 155.725,-67.4868"/>
<polygon fill="midnightblue" stroke="midnightblue" points="51.2796,-305.705 53.8921,-315.972 58.2528,-306.317 51.2796,-305.705"/>
</g>
<!-- Node16 -->
<g id="node16" class="node"><title>Node16</title>
<g id="a_node16"><a xlink:href="classscram_1_1core_1_1Zbdd.xhtml#a38b5c81971df473b1b46de59d0752c81" target="_top" xlink:title="Constructor with the analysis target. ">
<polygon fill="white" stroke="black" points="144.5,-0.5 144.5,-19.5 268.5,-19.5 268.5,-0.5 144.5,-0.5"/>
<text text-anchor="middle" x="206.5" y="-7.5" font-family="Helvetica,sans-Serif" font-size="10.00">scram::core::Zbdd::Zbdd</text>
</a>
</g>
</g>
<!-- Node1&#45;&gt;Node16 -->
<g id="edge16" class="edge"><title>Node1&#45;&gt;Node16</title>
<path fill="none" stroke="midnightblue" d="M52.7058,-305.352C53.4809,-247.842 63.5913,-107.562 140,-30 144.256,-25.6802 149.415,-22.2879 154.95,-19.6248"/>
<polygon fill="midnightblue" stroke="midnightblue" points="49.2043,-305.691 52.6584,-315.707 56.2042,-305.724 49.2043,-305.691"/>
</g>
<!-- Node13&#45;&gt;Node13 -->
<g id="edge13" class="edge"><title>Node13&#45;&gt;Node13</title>
<path fill="none" stroke="midnightblue" d="M177.754,-116.654C178.956,-121.937 188.538,-126 206.5,-126 233.871,-126 241.783,-116.565 230.236,-107.757"/>
<polygon fill="midnightblue" stroke="midnightblue" points="180.907,-118.188 182.764,-107.757 174.808,-114.753 180.907,-118.188"/>
</g>
<!-- Node14 -->
<g id="node14" class="node"><title>Node14</title>
<g id="a_node14"><a xlink:href="pdag_8h.xhtml#a7bd9efe5b5cecc9ce62631d4b752d3b2" target="_top" xlink:title="Specialization to clear the generic mark for the whole graph. ">
<polygon fill="white" stroke="black" points="309,-83 309,-113 420,-113 420,-83 309,-83"/>
<text text-anchor="start" x="317" y="-101" font-family="Helvetica,sans-Serif" font-size="10.00">scram::core::Clear</text>
<text text-anchor="middle" x="364.5" y="-90" font-family="Helvetica,sans-Serif" font-size="10.00">&lt; Pdag::kGateMark &gt;</text>
</a>
</g>
</g>
<!-- Node13&#45;&gt;Node14 -->
<g id="edge14" class="edge"><title>Node13&#45;&gt;Node14</title>
<path fill="none" stroke="midnightblue" d="M278.087,-98C288.447,-98 298.982,-98 308.954,-98"/>
<polygon fill="midnightblue" stroke="midnightblue" points="277.814,-94.5001 267.814,-98 277.814,-101.5 277.814,-94.5001"/>
</g>
</g>
</svg>
