<?xml version="1.0" encoding="UTF-8" standalone="no"?>
<!DOCTYPE svg PUBLIC "-//W3C//DTD SVG 1.1//EN"
 "http://www.w3.org/Graphics/SVG/1.1/DTD/svg11.dtd">
<!-- Generated by graphviz version 2.38.0 (20140413.2041)
 -->
<!-- Title: scram::core::NonTerminal::mark Pages: 1 -->
<svg width="532pt" height="246pt"
 viewBox="0.00 0.00 532.00 245.50" xmlns="http://www.w3.org/2000/svg" xmlns:xlink="http://www.w3.org/1999/xlink">
<g id="graph0" class="graph" transform="scale(1 1) rotate(0) translate(4 241.5)">
<title>scram::core::NonTerminal::mark</title>
<polygon fill="white" stroke="none" points="-4,4 -4,-241.5 528,-241.5 528,4 -4,4"/>
<!-- Node1 -->
<g id="node1" class="node"><title>Node1</title>
<polygon fill="#bfbfbf" stroke="black" points="0,-114 0,-144 130,-144 130,-114 0,-114"/>
<text text-anchor="start" x="8" y="-132" font-family="Helvetica,sans-Serif" font-size="10.00">scram::core::NonTerminal</text>
<text text-anchor="middle" x="65" y="-121" font-family="Helvetica,sans-Serif" font-size="10.00">::mark</text>
</g>
<!-- Node2 -->
<g id="node2" class="node"><title>Node2</title>
<g id="a_node2"><a xlink:href="classscram_1_1core_1_1ImportanceAnalysis.xhtml#acf487235f07ddcc1c920943ebfe2ce60" target="_top" xlink:title="Performs quantitative analysis of importance factors of basic events in products. ...">
<polygon fill="white" stroke="black" points="166,-207 166,-237 327,-237 327,-207 166,-207"/>
<text text-anchor="start" x="174" y="-225" font-family="Helvetica,sans-Serif" font-size="10.00">scram::core::ImportanceAnalysis</text>
<text text-anchor="middle" x="246.5" y="-214" font-family="Helvetica,sans-Serif" font-size="10.00">::Analyze</text>
</a>
</g>
</g>
<!-- Node1&#45;&gt;Node2 -->
<g id="edge1" class="edge"><title>Node1&#45;&gt;Node2</title>
<path fill="none" stroke="midnightblue" d="M92.5918,-150.265C112.022,-164.987 139.499,-184.168 166,-197 173.683,-200.72 182.048,-204.053 190.371,-206.981"/>
<polygon fill="midnightblue" stroke="midnightblue" points="94.5836,-147.382 84.5238,-144.057 90.3148,-152.929 94.5836,-147.382"/>
</g>
<!-- Node3 -->
<g id="node3" class="node"><title>Node3</title>
<g id="a_node3"><a xlink:href="classscram_1_1core_1_1Bdd.xhtml#ab9548d4c5f9afaa96dc24e17e2a01a57" target="_top" xlink:title="Runs the Qualitative analysis with the representation of a PDAG as ROBDD. ">
<polygon fill="white" stroke="black" points="180,-168.5 180,-187.5 313,-187.5 313,-168.5 180,-168.5"/>
<text text-anchor="middle" x="246.5" y="-175.5" font-family="Helvetica,sans-Serif" font-size="10.00">scram::core::Bdd::Analyze</text>
</a>
</g>
</g>
<!-- Node1&#45;&gt;Node3 -->
<g id="edge2" class="edge"><title>Node1&#45;&gt;Node3</title>
<path fill="none" stroke="midnightblue" d="M123.978,-147.002C137.712,-151.097 152.339,-155.322 166,-159 178.195,-162.284 191.52,-165.581 203.715,-168.485"/>
<polygon fill="midnightblue" stroke="midnightblue" points="124.746,-143.578 114.162,-144.052 122.732,-150.282 124.746,-143.578"/>
</g>
<!-- Node4 -->
<g id="node4" class="node"><title>Node4</title>
<g id="a_node4"><a xlink:href="classscram_1_1core_1_1ProbabilityAnalyzer_3_01Bdd_01_4.xhtml#a45b66605634ae60f1c00e3ac469a7c7a" target="_top" xlink:title="Calculates the total probability with a different set of probability values than the one given upon c...">
<polygon fill="white" stroke="black" points="167,-108.5 167,-149.5 326,-149.5 326,-108.5 167,-108.5"/>
<text text-anchor="start" x="175" y="-137.5" font-family="Helvetica,sans-Serif" font-size="10.00">scram::core::Probability</text>
<text text-anchor="start" x="175" y="-126.5" font-family="Helvetica,sans-Serif" font-size="10.00">Analyzer&lt; Bdd &gt;::CalculateTotal</text>
<text text-anchor="middle" x="246.5" y="-115.5" font-family="Helvetica,sans-Serif" font-size="10.00">Probability</text>
</a>
</g>
</g>
<!-- Node1&#45;&gt;Node4 -->
<g id="edge3" class="edge"><title>Node1&#45;&gt;Node4</title>
<path fill="none" stroke="midnightblue" d="M140.203,-129C148.954,-129 157.909,-129 166.721,-129"/>
<polygon fill="midnightblue" stroke="midnightblue" points="140.043,-125.5 130.043,-129 140.043,-132.5 140.043,-125.5"/>
</g>
<!-- Node5 -->
<g id="node5" class="node"><title>Node5</title>
<g id="a_node5"><a xlink:href="classscram_1_1core_1_1Zbdd.xhtml#a516f0d2f35ad213399f83fb9ab102561" target="_top" xlink:title="Traverses ZBDD to find modules and adjusted cut&#45;offs. ">
<polygon fill="white" stroke="black" points="195.5,-60 195.5,-90 297.5,-90 297.5,-60 195.5,-60"/>
<text text-anchor="start" x="203.5" y="-78" font-family="Helvetica,sans-Serif" font-size="10.00">scram::core::Zbdd::</text>
<text text-anchor="middle" x="246.5" y="-67" font-family="Helvetica,sans-Serif" font-size="10.00">GatherModules</text>
</a>
</g>
</g>
<!-- Node1&#45;&gt;Node5 -->
<g id="edge4" class="edge"><title>Node1&#45;&gt;Node5</title>
<path fill="none" stroke="midnightblue" d="M125.82,-111.004C148.409,-104.209 173.854,-96.5535 195.456,-90.0549"/>
<polygon fill="midnightblue" stroke="midnightblue" points="124.569,-107.725 116.001,-113.958 126.585,-114.429 124.569,-107.725"/>
</g>
<!-- Node8 -->
<g id="node8" class="node"><title>Node8</title>
<g id="a_node8"><a xlink:href="classscram_1_1core_1_1ProbabilityAnalyzer_3_01Bdd_01_4.xhtml#afcfc98b0b573c5cc5d62125a7272f09d" target="_top" xlink:title="Reuses BDD structures from Fault tree analyzer. ">
<polygon fill="white" stroke="black" points="175.5,-0.5 175.5,-41.5 317.5,-41.5 317.5,-0.5 175.5,-0.5"/>
<text text-anchor="start" x="183.5" y="-29.5" font-family="Helvetica,sans-Serif" font-size="10.00">scram::core::Probability</text>
<text text-anchor="start" x="183.5" y="-18.5" font-family="Helvetica,sans-Serif" font-size="10.00">Analyzer&lt; Bdd &gt;::Probability</text>
<text text-anchor="middle" x="246.5" y="-7.5" font-family="Helvetica,sans-Serif" font-size="10.00">Analyzer</text>
</a>
</g>
</g>
<!-- Node1&#45;&gt;Node8 -->
<g id="edge7" class="edge"><title>Node1&#45;&gt;Node8</title>
<path fill="none" stroke="midnightblue" d="M89.9474,-106.934C109.337,-89.9351 137.946,-66.7522 166,-51 172.046,-47.6054 178.551,-44.446 185.144,-41.5499"/>
<polygon fill="midnightblue" stroke="midnightblue" points="87.3744,-104.538 82.2303,-113.8 92.0277,-109.768 87.3744,-104.538"/>
</g>
<!-- Node6 -->
<g id="node6" class="node"><title>Node6</title>
<g id="a_node6"><a xlink:href="classscram_1_1core_1_1Zbdd.xhtml#af92e04ed908364e0177ce444d7b72712" target="_top" xlink:title="The common constructor to initialize member variables. ">
<polygon fill="white" stroke="black" points="381.5,-87.5 381.5,-106.5 505.5,-106.5 505.5,-87.5 381.5,-87.5"/>
<text text-anchor="middle" x="443.5" y="-94.5" font-family="Helvetica,sans-Serif" font-size="10.00">scram::core::Zbdd::Zbdd</text>
</a>
</g>
</g>
<!-- Node5&#45;&gt;Node6 -->
<g id="edge5" class="edge"><title>Node5&#45;&gt;Node6</title>
<path fill="none" stroke="midnightblue" d="M307.842,-81.8079C331.192,-84.4422 357.886,-87.4538 381.315,-90.0971"/>
<polygon fill="midnightblue" stroke="midnightblue" points="308.047,-78.3088 297.717,-80.6655 307.262,-85.2647 308.047,-78.3088"/>
</g>
<!-- Node7 -->
<g id="node7" class="node"><title>Node7</title>
<g id="a_node7"><a xlink:href="classscram_1_1core_1_1zbdd_1_1CutSetContainer.xhtml#a478c89f64731781882b50ec55898900b" target="_top" xlink:title="Gathers all module indices in the cut sets. ">
<polygon fill="white" stroke="black" points="363,-38 363,-68 524,-68 524,-38 363,-38"/>
<text text-anchor="start" x="371" y="-56" font-family="Helvetica,sans-Serif" font-size="10.00">scram::core::zbdd::</text>
<text text-anchor="middle" x="443.5" y="-45" font-family="Helvetica,sans-Serif" font-size="10.00">CutSetContainer::GatherModules</text>
</a>
</g>
</g>
<!-- Node5&#45;&gt;Node7 -->
<g id="edge6" class="edge"><title>Node5&#45;&gt;Node7</title>
<path fill="none" stroke="midnightblue" d="M307.751,-68.2025C325.194,-66.2345 344.51,-64.0553 362.94,-61.976"/>
<polygon fill="midnightblue" stroke="midnightblue" points="307.262,-64.7353 297.717,-69.3345 308.047,-71.6912 307.262,-64.7353"/>
</g>
</g>
</svg>
