<?xml version="1.0" encoding="UTF-8" standalone="no"?>
<!DOCTYPE svg PUBLIC "-//W3C//DTD SVG 1.1//EN"
 "http://www.w3.org/Graphics/SVG/1.1/DTD/svg11.dtd">
<!-- Generated by graphviz version 2.38.0 (20140413.2041)
 -->
<!-- Title: scram::mef::Event Pages: 1 -->
<!--zoomable 684 -->
<svg id="main" version="1.1" xmlns="http://www.w3.org/2000/svg" xmlns:xlink="http://www.w3.org/1999/xlink" xml:space="preserve" onload="init(evt)">
<style type="text/css"><![CDATA[
.edge:hover path { stroke: red; }
.edge:hover polygon { stroke: red; fill: red; }
]]></style>
<script type="text/javascript"><![CDATA[
var edges = document.getElementsByTagName('g');
if (edges && edges.length) {
  for (var i=0;i<edges.length;i++) {
    if (edges[i].id.substr(0,4)=='edge') {
      edges[i].setAttribute('class','edge');
    }
  }
}
]]></script>
        <defs>
                <circle id="rim" cx="0" cy="0" r="7"/>
                <circle id="rim2" cx="0" cy="0" r="3.5"/>
                <g id="zoomPlus">
                        <use xlink:href="#rim" fill="#404040">
                                <set attributeName="fill" to="#808080" begin="zoomplus.mouseover" end="zoomplus.mouseout"/>
                        </use>
                        <path d="M-4,0h8M0,-4v8" fill="none" stroke="white" stroke-width="1.5" pointer-events="none"/>
                </g>
                <g id="zoomMin">
                        <use xlink:href="#rim" fill="#404040">
                                <set attributeName="fill" to="#808080" begin="zoomminus.mouseover" end="zoomminus.mouseout"/>
                        </use>
                        <path d="M-4,0h8" fill="none" stroke="white" stroke-width="1.5" pointer-events="none"/>
                </g>
                <g id="dirArrow">
                        <path fill="none" stroke="white" stroke-width="1.5" d="M0,-3.0v7 M-2.5,-0.5L0,-3.0L2.5,-0.5"/>
                </g>
               <g id="resetDef">
                       <use xlink:href="#rim2" fill="#404040">
                               <set attributeName="fill" to="#808080" begin="reset.mouseover" end="reset.mouseout"/>
                       </use>
               </g>
        </defs>

<script type="text/javascript">
var viewWidth = 386;
var viewHeight = 684;
var sectionId = 'dynsection-0';
</script>
<script xlink:href="svgpan.js"/>
<svg id="graph" class="graph">
<g id="viewport">
<title>scram::mef::Event</title>
<polygon fill="white" stroke="none" points="-4,4 -4,-680 382,-680 382,4 -4,4"/>
<!-- Node1 -->
<g id="node1" class="node"><title>Node1</title>
<polygon fill="#bfbfbf" stroke="black" points="138,-309.5 138,-388.5 236,-388.5 236,-309.5 138,-309.5"/>
<text text-anchor="middle" x="187" y="-376.5" font-family="Helvetica,sans-Serif" font-size="10.00">scram::mef::Event</text>
<polyline fill="none" stroke="black" points="138,-369.5 236,-369.5 "/>
<text text-anchor="middle" x="187" y="-357.5" font-family="Helvetica,sans-Serif" font-size="10.00"> </text>
<polyline fill="none" stroke="black" points="138,-350.5 236,-350.5 "/>
<text text-anchor="start" x="146" y="-338.5" font-family="Helvetica,sans-Serif" font-size="10.00">+ ~Event()</text>
<text text-anchor="start" x="146" y="-327.5" font-family="Helvetica,sans-Serif" font-size="10.00">+ orphan()</text>
<text text-anchor="start" x="146" y="-316.5" font-family="Helvetica,sans-Serif" font-size="10.00">+ orphan()</text>
</g>
<!-- Node6 -->
<g id="node6" class="node"><title>Node6</title>
<g id="a_node6"><a xlink:href="classscram_1_1mef_1_1BasicEvent.xhtml" target="_top" xlink:title="Representation of a basic event in a fault tree. ">
<polygon fill="white" stroke="black" points="0,-127.5 0,-272.5 122,-272.5 122,-127.5 0,-127.5"/>
<text text-anchor="middle" x="61" y="-260.5" font-family="Helvetica,sans-Serif" font-size="10.00">scram::mef::BasicEvent</text>
<polyline fill="none" stroke="black" points="0,-253.5 122,-253.5 "/>
<text text-anchor="middle" x="61" y="-241.5" font-family="Helvetica,sans-Serif" font-size="10.00"> </text>
<polyline fill="none" stroke="black" points="0,-234.5 122,-234.5 "/>
<text text-anchor="start" x="8" y="-222.5" font-family="Helvetica,sans-Serif" font-size="10.00">+ ~BasicEvent()</text>
<text text-anchor="start" x="8" y="-211.5" font-family="Helvetica,sans-Serif" font-size="10.00">+ HasExpression()</text>
<text text-anchor="start" x="8" y="-200.5" font-family="Helvetica,sans-Serif" font-size="10.00">+ expression()</text>
<text text-anchor="start" x="8" y="-189.5" font-family="Helvetica,sans-Serif" font-size="10.00">+ expression()</text>
<text text-anchor="start" x="8" y="-178.5" font-family="Helvetica,sans-Serif" font-size="10.00">+ p()</text>
<text text-anchor="start" x="8" y="-167.5" font-family="Helvetica,sans-Serif" font-size="10.00">+ Validate()</text>
<text text-anchor="start" x="8" y="-156.5" font-family="Helvetica,sans-Serif" font-size="10.00">+ HasCcf()</text>
<text text-anchor="start" x="8" y="-145.5" font-family="Helvetica,sans-Serif" font-size="10.00">+ ccf_gate()</text>
<text text-anchor="start" x="8" y="-134.5" font-family="Helvetica,sans-Serif" font-size="10.00">+ ccf_gate()</text>
</a>
</g>
</g>
<!-- Node1&#45;&gt;Node6 -->
<g id="edge5" class="edge"><title>Node1&#45;&gt;Node6</title>
<path fill="none" stroke="midnightblue" d="M147.318,-301.704C139.307,-292.358 130.711,-282.33 122.16,-272.354"/>
<polygon fill="none" stroke="midnightblue" points="144.73,-304.063 153.895,-309.377 150.044,-299.507 144.73,-304.063"/>
</g>
<!-- Node8 -->
<g id="node8" class="node"><title>Node8</title>
<g id="a_node8"><a xlink:href="classscram_1_1mef_1_1Gate.xhtml" target="_top" xlink:title="A representation of a gate in a fault tree. ">
<polygon fill="white" stroke="black" points="140.5,-144 140.5,-256 233.5,-256 233.5,-144 140.5,-144"/>
<text text-anchor="middle" x="187" y="-244" font-family="Helvetica,sans-Serif" font-size="10.00">scram::mef::Gate</text>
<polyline fill="none" stroke="black" points="140.5,-237 233.5,-237 "/>
<text text-anchor="middle" x="187" y="-225" font-family="Helvetica,sans-Serif" font-size="10.00"> </text>
<polyline fill="none" stroke="black" points="140.5,-218 233.5,-218 "/>
<text text-anchor="start" x="148.5" y="-206" font-family="Helvetica,sans-Serif" font-size="10.00">+ formula()</text>
<text text-anchor="start" x="148.5" y="-195" font-family="Helvetica,sans-Serif" font-size="10.00">+ Validate()</text>
<text text-anchor="start" x="148.5" y="-184" font-family="Helvetica,sans-Serif" font-size="10.00">+ formula()</text>
<text text-anchor="start" x="148.5" y="-173" font-family="Helvetica,sans-Serif" font-size="10.00">+ formula()</text>
<text text-anchor="start" x="148.5" y="-162" font-family="Helvetica,sans-Serif" font-size="10.00">* formula()</text>
<text text-anchor="start" x="148.5" y="-151" font-family="Helvetica,sans-Serif" font-size="10.00">* formula()</text>
</a>
</g>
</g>
<!-- Node1&#45;&gt;Node8 -->
<g id="edge7" class="edge"><title>Node1&#45;&gt;Node8</title>
<path fill="none" stroke="midnightblue" d="M187,-299.148C187,-285.389 187,-270.327 187,-256.224"/>
<polygon fill="none" stroke="midnightblue" points="183.5,-299.377 187,-309.377 190.5,-299.378 183.5,-299.377"/>
</g>
<!-- Node9 -->
<g id="node9" class="node"><title>Node9</title>
<g id="a_node9"><a xlink:href="classscram_1_1mef_1_1HouseEvent.xhtml" target="_top" xlink:title="Representation of a house event in a fault tree. ">
<polygon fill="white" stroke="black" points="252,-166 252,-234 378,-234 378,-166 252,-166"/>
<text text-anchor="middle" x="315" y="-222" font-family="Helvetica,sans-Serif" font-size="10.00">scram::mef::HouseEvent</text>
<polyline fill="none" stroke="black" points="252,-215 378,-215 "/>
<text text-anchor="middle" x="315" y="-203" font-family="Helvetica,sans-Serif" font-size="10.00"> </text>
<polyline fill="none" stroke="black" points="252,-196 378,-196 "/>
<text text-anchor="start" x="260" y="-184" font-family="Helvetica,sans-Serif" font-size="10.00">+ state()</text>
<text text-anchor="start" x="260" y="-173" font-family="Helvetica,sans-Serif" font-size="10.00">+ state()</text>
</a>
</g>
</g>
<!-- Node1&#45;&gt;Node9 -->
<g id="edge8" class="edge"><title>Node1&#45;&gt;Node9</title>
<path fill="none" stroke="midnightblue" d="M227.216,-301.815C246.257,-279.947 268.573,-254.318 285.94,-234.374"/>
<polygon fill="none" stroke="midnightblue" points="224.558,-299.537 220.63,-309.377 229.837,-304.134 224.558,-299.537"/>
</g>
<!-- Node2 -->
<g id="node2" class="node"><title>Node2</title>
<g id="a_node2"><a xlink:href="classscram_1_1mef_1_1Id.xhtml" target="_top" xlink:title="Mixin class for assigning unique identifiers to elements. ">
<polygon fill="white" stroke="black" points="100,-425.5 100,-504.5 180,-504.5 180,-425.5 100,-425.5"/>
<text text-anchor="middle" x="140" y="-492.5" font-family="Helvetica,sans-Serif" font-size="10.00">scram::mef::Id</text>
<polyline fill="none" stroke="black" points="100,-485.5 180,-485.5 "/>
<text text-anchor="middle" x="140" y="-473.5" font-family="Helvetica,sans-Serif" font-size="10.00"> </text>
<polyline fill="none" stroke="black" points="100,-466.5 180,-466.5 "/>
<text text-anchor="start" x="108" y="-454.5" font-family="Helvetica,sans-Serif" font-size="10.00">+ Id()</text>
<text text-anchor="start" x="108" y="-443.5" font-family="Helvetica,sans-Serif" font-size="10.00">+ id()</text>
<text text-anchor="start" x="108" y="-432.5" font-family="Helvetica,sans-Serif" font-size="10.00"># ~Id()</text>
</a>
</g>
</g>
<!-- Node2&#45;&gt;Node1 -->
<g id="edge1" class="edge"><title>Node2&#45;&gt;Node1</title>
<path fill="none" stroke="midnightblue" d="M159.783,-416.015C163.56,-406.854 167.468,-397.375 171.104,-388.555"/>
<polygon fill="none" stroke="midnightblue" points="156.488,-414.826 155.912,-425.405 162.959,-417.494 156.488,-414.826"/>
</g>
<!-- Node3 -->
<g id="node3" class="node"><title>Node3</title>
<g id="a_node3"><a xlink:href="classscram_1_1mef_1_1Element.xhtml" target="_top" xlink:title="Mixin class that represents any element of analysis that can have extra descriptions, such as attributes and a label. ">
<polygon fill="white" stroke="black" points="27,-541.5 27,-675.5 135,-675.5 135,-541.5 27,-541.5"/>
<text text-anchor="middle" x="81" y="-663.5" font-family="Helvetica,sans-Serif" font-size="10.00">scram::mef::Element</text>
<polyline fill="none" stroke="black" points="27,-656.5 135,-656.5 "/>
<text text-anchor="middle" x="81" y="-644.5" font-family="Helvetica,sans-Serif" font-size="10.00"> </text>
<polyline fill="none" stroke="black" points="27,-637.5 135,-637.5 "/>
<text text-anchor="start" x="35" y="-625.5" font-family="Helvetica,sans-Serif" font-size="10.00">+ Element()</text>
<text text-anchor="start" x="35" y="-614.5" font-family="Helvetica,sans-Serif" font-size="10.00">+ name()</text>
<text text-anchor="start" x="35" y="-603.5" font-family="Helvetica,sans-Serif" font-size="10.00">+ label()</text>
<text text-anchor="start" x="35" y="-592.5" font-family="Helvetica,sans-Serif" font-size="10.00">+ label()</text>
<text text-anchor="start" x="35" y="-581.5" font-family="Helvetica,sans-Serif" font-size="10.00">+ AddAttribute()</text>
<text text-anchor="start" x="35" y="-570.5" font-family="Helvetica,sans-Serif" font-size="10.00">+ HasAttribute()</text>
<text text-anchor="start" x="35" y="-559.5" font-family="Helvetica,sans-Serif" font-size="10.00">+ GetAttribute()</text>
<text text-anchor="start" x="35" y="-548.5" font-family="Helvetica,sans-Serif" font-size="10.00"># ~Element()</text>
</a>
</g>
</g>
<!-- Node3&#45;&gt;Node2 -->
<g id="edge2" class="edge"><title>Node3&#45;&gt;Node2</title>
<path fill="none" stroke="midnightblue" d="M112.518,-531.91C116.431,-522.525 120.297,-513.255 123.837,-504.763"/>
<polygon fill="none" stroke="midnightblue" points="109.218,-530.73 108.6,-541.307 115.679,-533.424 109.218,-530.73"/>
</g>
<!-- Node4 -->
<g id="node4" class="node"><title>Node4</title>
<g id="a_node4"><a xlink:href="classscram_1_1mef_1_1Role.xhtml" target="_top" xlink:title="Mixin class that manages private or public roles for elements as needed. ">
<polygon fill="white" stroke="black" points="153,-563.5 153,-653.5 245,-653.5 245,-563.5 153,-563.5"/>
<text text-anchor="middle" x="199" y="-641.5" font-family="Helvetica,sans-Serif" font-size="10.00">scram::mef::Role</text>
<polyline fill="none" stroke="black" points="153,-634.5 245,-634.5 "/>
<text text-anchor="middle" x="199" y="-622.5" font-family="Helvetica,sans-Serif" font-size="10.00"> </text>
<polyline fill="none" stroke="black" points="153,-615.5 245,-615.5 "/>
<text text-anchor="start" x="161" y="-603.5" font-family="Helvetica,sans-Serif" font-size="10.00">+ Role()</text>
<text text-anchor="start" x="161" y="-592.5" font-family="Helvetica,sans-Serif" font-size="10.00">+ role()</text>
<text text-anchor="start" x="161" y="-581.5" font-family="Helvetica,sans-Serif" font-size="10.00">+ base_path()</text>
<text text-anchor="start" x="161" y="-570.5" font-family="Helvetica,sans-Serif" font-size="10.00"># ~Role()</text>
</a>
</g>
</g>
<!-- Node4&#45;&gt;Node2 -->
<g id="edge3" class="edge"><title>Node4&#45;&gt;Node2</title>
<path fill="none" stroke="midnightblue" d="M176.584,-553.739C169.82,-537.517 162.528,-520.028 156.247,-504.965"/>
<polygon fill="none" stroke="midnightblue" points="173.415,-555.234 180.494,-563.117 179.876,-552.54 173.415,-555.234"/>
</g>
<!-- Node5 -->
<g id="node5" class="node"><title>Node5</title>
<polygon fill="white" stroke="#bfbfbf" points="198.5,-436.5 198.5,-493.5 269.5,-493.5 269.5,-436.5 198.5,-436.5"/>
<text text-anchor="middle" x="234" y="-481.5" font-family="Helvetica,sans-Serif" font-size="10.00">noncopyable</text>
<polyline fill="none" stroke="#bfbfbf" points="198.5,-474.5 269.5,-474.5 "/>
<text text-anchor="middle" x="234" y="-462.5" font-family="Helvetica,sans-Serif" font-size="10.00"> </text>
<polyline fill="none" stroke="#bfbfbf" points="198.5,-455.5 269.5,-455.5 "/>
<text text-anchor="middle" x="234" y="-443.5" font-family="Helvetica,sans-Serif" font-size="10.00"> </text>
</g>
<!-- Node5&#45;&gt;Node1 -->
<g id="edge4" class="edge"><title>Node5&#45;&gt;Node1</title>
<path fill="none" stroke="#8b1a1a" d="M218.707,-426.907C213.643,-414.624 207.997,-400.93 202.89,-388.541"/>
<polygon fill="none" stroke="#8b1a1a" points="215.575,-428.493 222.623,-436.404 222.047,-425.825 215.575,-428.493"/>
</g>
<!-- Node7 -->
<g id="node7" class="node"><title>Node7</title>
<g id="a_node7"><a xlink:href="classscram_1_1mef_1_1CcfEvent.xhtml" target="_top" xlink:title="A basic event that represents a multiple failure of a group of events due to a common cause...">
<polygon fill="white" stroke="black" points="4.5,-0.5 4.5,-90.5 117.5,-90.5 117.5,-0.5 4.5,-0.5"/>
<text text-anchor="middle" x="61" y="-78.5" font-family="Helvetica,sans-Serif" font-size="10.00">scram::mef::CcfEvent</text>
<polyline fill="none" stroke="black" points="4.5,-71.5 117.5,-71.5 "/>
<text text-anchor="middle" x="61" y="-59.5" font-family="Helvetica,sans-Serif" font-size="10.00"> </text>
<polyline fill="none" stroke="black" points="4.5,-52.5 117.5,-52.5 "/>
<text text-anchor="start" x="12.5" y="-40.5" font-family="Helvetica,sans-Serif" font-size="10.00">+ CcfEvent()</text>
<text text-anchor="start" x="12.5" y="-29.5" font-family="Helvetica,sans-Serif" font-size="10.00">+ ccf_group()</text>
<text text-anchor="start" x="12.5" y="-18.5" font-family="Helvetica,sans-Serif" font-size="10.00">+ members()</text>
<text text-anchor="start" x="12.5" y="-7.5" font-family="Helvetica,sans-Serif" font-size="10.00">+ members()</text>
</a>
</g>
</g>
<!-- Node6&#45;&gt;Node7 -->
<g id="edge6" class="edge"><title>Node6&#45;&gt;Node7</title>
<path fill="none" stroke="midnightblue" d="M61,-116.941C61,-107.857 61,-98.8847 61,-90.5422"/>
<polygon fill="none" stroke="midnightblue" points="57.5001,-117.215 61,-127.216 64.5001,-117.216 57.5001,-117.215"/>
</g>
</g>
</svg>
        <g id="navigator" transform="translate(0 0)" fill="#404254">
                <rect fill="#f2f5e9" fill-opacity="0.5" stroke="#606060" stroke-width=".5" x="0" y="0" width="60" height="60"/>
                <use id="zoomplus" xlink:href="#zoomPlus" x="17" y="9" onmousedown="handleZoom(evt,'in')"/>
                <use id="zoomminus" xlink:href="#zoomMin" x="42" y="9" onmousedown="handleZoom(evt,'out')"/>
                <use id="reset" xlink:href="#resetDef" x="30" y="36" onmousedown="handleReset()"/>
                <g id="arrowUp" xlink:href="#dirArrow" transform="translate(30 24)" onmousedown="handlePan(0,-1)">
                  <use xlink:href="#rim" fill="#404040">
                        <set attributeName="fill" to="#808080" begin="arrowUp.mouseover" end="arrowUp.mouseout"/>
                  </use>
                  <path fill="none" stroke="white" stroke-width="1.5" d="M0,-3.0v7 M-2.5,-0.5L0,-3.0L2.5,-0.5"/>
                </g>
                <g id="arrowRight" xlink:href="#dirArrow" transform="rotate(90) translate(36 -43)" onmousedown="handlePan(1,0)">
                  <use xlink:href="#rim" fill="#404040">
                        <set attributeName="fill" to="#808080" begin="arrowRight.mouseover" end="arrowRight.mouseout"/>
                  </use>
                  <path fill="none" stroke="white" stroke-width="1.5" d="M0,-3.0v7 M-2.5,-0.5L0,-3.0L2.5,-0.5"/>
                </g>
                <g id="arrowDown" xlink:href="#dirArrow" transform="rotate(180) translate(-30 -48)" onmousedown="handlePan(0,1)">
                  <use xlink:href="#rim" fill="#404040">
                        <set attributeName="fill" to="#808080" begin="arrowDown.mouseover" end="arrowDown.mouseout"/>
                  </use>
                  <path fill="none" stroke="white" stroke-width="1.5" d="M0,-3.0v7 M-2.5,-0.5L0,-3.0L2.5,-0.5"/>
                </g>
                <g id="arrowLeft" xlink:href="#dirArrow" transform="rotate(270) translate(-36 17)" onmousedown="handlePan(-1,0)">
                  <use xlink:href="#rim" fill="#404040">
                        <set attributeName="fill" to="#808080" begin="arrowLeft.mouseover" end="arrowLeft.mouseout"/>
                  </use>
                  <path fill="none" stroke="white" stroke-width="1.5" d="M0,-3.0v7 M-2.5,-0.5L0,-3.0L2.5,-0.5"/>
                </g>
        </g>
        <svg viewBox="0 0 15 15" width="100%" height="30px" preserveAspectRatio="xMaxYMin meet">
         <g id="arrow_out" transform="scale(0.3 0.3)">
          <a xlink:href="classscram_1_1mef_1_1Event__inherit__graph_org.svg" target="_base">
           <rect id="button" ry="5" rx="5" y="6" x="6" height="38" width="38"
                fill="#f2f5e9" fill-opacity="0.5" stroke="#606060" stroke-width="1.0"/>
           <path id="arrow"
             d="M 11.500037,31.436501 C 11.940474,20.09759 22.043105,11.32322 32.158766,21.979434 L 37.068811,17.246167 C 37.068811,17.246167 37.088388,32 37.088388,32 L 22.160133,31.978069 C 22.160133,31.978069 26.997745,27.140456 26.997745,27.140456 C 18.528582,18.264221 13.291696,25.230495 11.500037,31.436501 z"
             style="fill:#404040;"/>
          </a>
         </g>
        </svg>
</svg>
