<?xml version="1.0" encoding="UTF-8" standalone="no"?>
<!DOCTYPE svg PUBLIC "-//W3C//DTD SVG 1.1//EN"
 "http://www.w3.org/Graphics/SVG/1.1/DTD/svg11.dtd">
<!-- Generated by graphviz version 2.38.0 (20140413.2041)
 -->
<!-- Title: scram::core::Pdag::HasNullGates Pages: 1 -->
<svg width="1364pt" height="561pt"
 viewBox="0.00 0.00 1364.00 561.03" xmlns="http://www.w3.org/2000/svg" xmlns:xlink="http://www.w3.org/1999/xlink">
<g id="graph0" class="graph" transform="scale(1 1) rotate(0) translate(4 557.033)">
<title>scram::core::Pdag::HasNullGates</title>
<polygon fill="white" stroke="none" points="-4,4 -4,-557.033 1360,-557.033 1360,4 -4,4"/>
<!-- Node1 -->
<g id="node1" class="node"><title>Node1</title>
<polygon fill="#bfbfbf" stroke="black" points="0,-242.502 0,-272.502 103,-272.502 103,-242.502 0,-242.502"/>
<text text-anchor="start" x="8" y="-260.502" font-family="Helvetica,sans-Serif" font-size="10.00">scram::core::Pdag::</text>
<text text-anchor="middle" x="51.5" y="-249.502" font-family="Helvetica,sans-Serif" font-size="10.00">HasNullGates</text>
</g>
<!-- Node2 -->
<g id="node2" class="node"><title>Node2</title>
<g id="a_node2"><a xlink:href="classscram_1_1core_1_1Preprocessor.xhtml#aebc709ad2e097c24e837889a6a9e4696" target="_top" xlink:title="Propagates failures of common nodes to detect redundancy. ">
<polygon fill="white" stroke="black" points="321.5,-308.502 321.5,-338.502 453.5,-338.502 453.5,-308.502 321.5,-308.502"/>
<text text-anchor="start" x="329.5" y="-326.502" font-family="Helvetica,sans-Serif" font-size="10.00">scram::core::Preprocessor</text>
<text text-anchor="middle" x="387.5" y="-315.502" font-family="Helvetica,sans-Serif" font-size="10.00">::BooleanOptimization</text>
</a>
</g>
</g>
<!-- Node1&#45;&gt;Node2 -->
<g id="edge1" class="edge"><title>Node1&#45;&gt;Node2</title>
<path fill="none" stroke="midnightblue" d="M81.4168,-278.229C97.5585,-288.647 118.499,-300.34 139,-306.502 198.911,-324.511 270.513,-327.556 321.253,-326.821"/>
<polygon fill="midnightblue" stroke="midnightblue" points="83.2411,-275.239 72.9762,-272.615 79.3647,-281.067 83.2411,-275.239"/>
</g>
<!-- Node12 -->
<g id="node12" class="node"><title>Node12</title>
<g id="a_node12"><a xlink:href="classscram_1_1core_1_1Preprocessor.xhtml#a00288bef180767d7c79e3c79a33ef2d8" target="_top" xlink:title="Runs gate coalescence on the whole PDAG. ">
<polygon fill="white" stroke="black" points="321.5,-450.502 321.5,-480.502 453.5,-480.502 453.5,-450.502 321.5,-450.502"/>
<text text-anchor="start" x="329.5" y="-468.502" font-family="Helvetica,sans-Serif" font-size="10.00">scram::core::Preprocessor</text>
<text text-anchor="middle" x="387.5" y="-457.502" font-family="Helvetica,sans-Serif" font-size="10.00">::CoalesceGates</text>
</a>
</g>
</g>
<!-- Node1&#45;&gt;Node12 -->
<g id="edge18" class="edge"><title>Node1&#45;&gt;Node12</title>
<path fill="none" stroke="midnightblue" d="M58.0218,-282.801C67.5994,-320.22 91.0427,-389.644 139,-424.502 191.758,-462.85 267.483,-470.363 321.252,-469.994"/>
<polygon fill="midnightblue" stroke="midnightblue" points="61.3358,-281.614 55.5806,-272.719 54.5324,-283.262 61.3358,-281.614"/>
</g>
<!-- Node14 -->
<g id="node14" class="node"><title>Node14</title>
<g id="a_node14"><a xlink:href="classscram_1_1core_1_1Preprocessor.xhtml#ae12f3096132d7f6e9daa779724255f7e" target="_top" xlink:title="The Shannon decomposition for common nodes in the PDAG. ">
<polygon fill="white" stroke="black" points="139,-355.502 139,-385.502 282,-385.502 282,-355.502 139,-355.502"/>
<text text-anchor="start" x="147" y="-373.502" font-family="Helvetica,sans-Serif" font-size="10.00">scram::core::Preprocessor</text>
<text text-anchor="middle" x="210.5" y="-362.502" font-family="Helvetica,sans-Serif" font-size="10.00">::DecomposeCommonNodes</text>
</a>
</g>
</g>
<!-- Node1&#45;&gt;Node14 -->
<g id="edge23" class="edge"><title>Node1&#45;&gt;Node14</title>
<path fill="none" stroke="midnightblue" d="M72.1637,-280.506C88.5949,-298.638 113.395,-323.597 139,-340.502 147.658,-346.219 157.585,-351.237 167.204,-355.452"/>
<polygon fill="midnightblue" stroke="midnightblue" points="74.4911,-277.856 65.2303,-272.71 69.2602,-282.508 74.4911,-277.856"/>
</g>
<!-- Node15 -->
<g id="node15" class="node"><title>Node15</title>
<g id="a_node15"><a xlink:href="classscram_1_1core_1_1Preprocessor.xhtml#a4737f354474154b3cea9773c25616d27" target="_top" xlink:title="Detects and manipulates AND and OR gate distributivity for the whole graph. ">
<polygon fill="white" stroke="black" points="144.5,-218.502 144.5,-248.502 276.5,-248.502 276.5,-218.502 144.5,-218.502"/>
<text text-anchor="start" x="152.5" y="-236.502" font-family="Helvetica,sans-Serif" font-size="10.00">scram::core::Preprocessor</text>
<text text-anchor="middle" x="210.5" y="-225.502" font-family="Helvetica,sans-Serif" font-size="10.00">::DetectDistributivity</text>
</a>
</g>
</g>
<!-- Node1&#45;&gt;Node15 -->
<g id="edge25" class="edge"><title>Node1&#45;&gt;Node15</title>
<path fill="none" stroke="midnightblue" d="M113.122,-248.235C123.375,-246.668 134.057,-245.035 144.418,-243.451"/>
<polygon fill="midnightblue" stroke="midnightblue" points="112.396,-244.805 103.04,-249.777 113.454,-251.725 112.396,-244.805"/>
</g>
<!-- Node17 -->
<g id="node17" class="node"><title>Node17</title>
<g id="a_node17"><a xlink:href="classscram_1_1core_1_1Preprocessor.xhtml#aa9856913eee7b854abfbe8d8330566d3" target="_top" xlink:title="Traverses the PDAG to detect modules. ">
<polygon fill="white" stroke="black" points="321.5,-45.5024 321.5,-75.5024 453.5,-75.5024 453.5,-45.5024 321.5,-45.5024"/>
<text text-anchor="start" x="329.5" y="-63.5024" font-family="Helvetica,sans-Serif" font-size="10.00">scram::core::Preprocessor</text>
<text text-anchor="middle" x="387.5" y="-52.5024" font-family="Helvetica,sans-Serif" font-size="10.00">::DetectModules</text>
</a>
</g>
</g>
<!-- Node1&#45;&gt;Node17 -->
<g id="edge28" class="edge"><title>Node1&#45;&gt;Node17</title>
<path fill="none" stroke="midnightblue" d="M57.7624,-232.221C67.049,-194.523 90.1732,-124.393 139,-90.5024 192.158,-53.6054 267.636,-49.5718 321.236,-52.6015"/>
<polygon fill="midnightblue" stroke="midnightblue" points="54.2583,-231.838 55.4054,-242.37 61.0768,-233.421 54.2583,-231.838"/>
</g>
<!-- Node18 -->
<g id="node18" class="node"><title>Node18</title>
<g id="a_node18"><a xlink:href="classscram_1_1core_1_1Preprocessor.xhtml#ab97a52e27ad8bf7ed049ae1a764f8fba" target="_top" xlink:title="Identifies common arguments of gates, and merges the common arguments into new gates. ">
<polygon fill="white" stroke="black" points="321.5,-396.502 321.5,-426.502 453.5,-426.502 453.5,-396.502 321.5,-396.502"/>
<text text-anchor="start" x="329.5" y="-414.502" font-family="Helvetica,sans-Serif" font-size="10.00">scram::core::Preprocessor</text>
<text text-anchor="middle" x="387.5" y="-403.502" font-family="Helvetica,sans-Serif" font-size="10.00">::MergeCommonArgs</text>
</a>
</g>
</g>
<!-- Node1&#45;&gt;Node18 -->
<g id="edge31" class="edge"><title>Node1&#45;&gt;Node18</title>
<path fill="none" stroke="midnightblue" d="M60.2934,-282.362C71.8145,-314.483 96.7176,-369.266 139,-394.502 193.921,-427.282 268.406,-427.752 321.278,-422.367"/>
<polygon fill="midnightblue" stroke="midnightblue" points="63.5686,-281.123 57.018,-272.796 56.946,-283.391 63.5686,-281.123"/>
</g>
<!-- Node19 -->
<g id="node19" class="node"><title>Node19</title>
<g id="a_node19"><a xlink:href="classscram_1_1core_1_1Preprocessor.xhtml#ad13e133278ea7563c1ba037c05c35aa2" target="_top" xlink:title="Normalizes the gates of the whole PDAG into OR, AND gates. ">
<polygon fill="white" stroke="black" points="493,-132.502 493,-162.502 625,-162.502 625,-132.502 493,-132.502"/>
<text text-anchor="start" x="501" y="-150.502" font-family="Helvetica,sans-Serif" font-size="10.00">scram::core::Preprocessor</text>
<text text-anchor="middle" x="559" y="-139.502" font-family="Helvetica,sans-Serif" font-size="10.00">::NormalizeGates</text>
</a>
</g>
</g>
<!-- Node1&#45;&gt;Node19 -->
<g id="edge34" class="edge"><title>Node1&#45;&gt;Node19</title>
<path fill="none" stroke="midnightblue" d="M63.3296,-233.144C76.8202,-205.974 102.612,-163.135 139,-142.502 258.129,-74.9518 428.626,-109.452 510.525,-132.444"/>
<polygon fill="midnightblue" stroke="midnightblue" points="60.0722,-231.843 58.9191,-242.375 66.3883,-234.861 60.0722,-231.843"/>
</g>
<!-- Node20 -->
<g id="node20" class="node"><title>Node20</title>
<g id="a_node20"><a xlink:href="classscram_1_1core_1_1Preprocessor.xhtml#a44f820b6fe2c23594c818432b33e26a6" target="_top" xlink:title="The initial phase of preprocessing. ">
<polygon fill="white" stroke="black" points="661,-167.502 661,-197.502 793,-197.502 793,-167.502 661,-167.502"/>
<text text-anchor="start" x="669" y="-185.502" font-family="Helvetica,sans-Serif" font-size="10.00">scram::core::Preprocessor</text>
<text text-anchor="middle" x="727" y="-174.502" font-family="Helvetica,sans-Serif" font-size="10.00">::RunPhaseOne</text>
</a>
</g>
</g>
<!-- Node1&#45;&gt;Node20 -->
<g id="edge45" class="edge"><title>Node1&#45;&gt;Node20</title>
<path fill="none" stroke="midnightblue" d="M81.0299,-236.791C97.1979,-226.26 118.286,-214.455 139,-208.502 235.265,-180.838 529.249,-180.317 660.97,-181.575"/>
<polygon fill="midnightblue" stroke="midnightblue" points="78.9347,-233.982 72.5874,-242.465 82.8395,-239.791 78.9347,-233.982"/>
</g>
<!-- Node21 -->
<g id="node21" class="node"><title>Node21</title>
<g id="a_node21"><a xlink:href="classscram_1_1core_1_1Preprocessor.xhtml#a4086c57695d49b4770915d5d53bd47de" target="_top" xlink:title="Tries to simplify the graph by removing redundancies generated by a common node. ">
<polygon fill="white" stroke="black" points="144.5,-267.502 144.5,-297.502 276.5,-297.502 276.5,-267.502 144.5,-267.502"/>
<text text-anchor="start" x="152.5" y="-285.502" font-family="Helvetica,sans-Serif" font-size="10.00">scram::core::Preprocessor</text>
<text text-anchor="middle" x="210.5" y="-274.502" font-family="Helvetica,sans-Serif" font-size="10.00">::ProcessCommonNode</text>
</a>
</g>
</g>
<!-- Node1&#45;&gt;Node21 -->
<g id="edge40" class="edge"><title>Node1&#45;&gt;Node21</title>
<path fill="none" stroke="midnightblue" d="M113.122,-267.156C123.375,-268.788 134.057,-270.489 144.418,-272.139"/>
<polygon fill="midnightblue" stroke="midnightblue" points="113.466,-263.666 103.04,-265.55 112.365,-270.579 113.466,-263.666"/>
</g>
<!-- Node22 -->
<g id="node22" class="node"><title>Node22</title>
<g id="a_node22"><a xlink:href="classscram_1_1core_1_1Preprocessor.xhtml#ac0abd7f5b54f98643644110b160569bd" target="_top" xlink:title="Detects and replaces multiple definitions of gates. ">
<polygon fill="white" stroke="black" points="318,-133.502 318,-163.502 457,-163.502 457,-133.502 318,-133.502"/>
<text text-anchor="start" x="326" y="-151.502" font-family="Helvetica,sans-Serif" font-size="10.00">scram::core::Preprocessor</text>
<text text-anchor="middle" x="387.5" y="-140.502" font-family="Helvetica,sans-Serif" font-size="10.00">::ProcessMultipleDefinitions</text>
</a>
</g>
</g>
<!-- Node1&#45;&gt;Node22 -->
<g id="edge42" class="edge"><title>Node1&#45;&gt;Node22</title>
<path fill="none" stroke="midnightblue" d="M69.7308,-234.279C85.4578,-215 110.54,-188.682 139,-175.502 195.382,-149.393 266.483,-144.092 317.996,-144.464"/>
<polygon fill="midnightblue" stroke="midnightblue" points="66.8382,-232.294 63.3827,-242.309 72.3298,-236.635 66.8382,-232.294"/>
</g>
<!-- Node3 -->
<g id="node3" class="node"><title>Node3</title>
<g id="a_node3"><a xlink:href="classscram_1_1core_1_1Preprocessor.xhtml#a9d5f89471499508eb9e6c01ea43e0f15" target="_top" xlink:title="Preprocessing phase of the original structure of the graph. ">
<polygon fill="white" stroke="black" points="493,-292.502 493,-322.502 625,-322.502 625,-292.502 493,-292.502"/>
<text text-anchor="start" x="501" y="-310.502" font-family="Helvetica,sans-Serif" font-size="10.00">scram::core::Preprocessor</text>
<text text-anchor="middle" x="559" y="-299.502" font-family="Helvetica,sans-Serif" font-size="10.00">::RunPhaseTwo</text>
</a>
</g>
</g>
<!-- Node2&#45;&gt;Node3 -->
<g id="edge2" class="edge"><title>Node2&#45;&gt;Node3</title>
<path fill="none" stroke="midnightblue" d="M463.619,-316.411C473.364,-315.492 483.281,-314.555 492.846,-313.653"/>
<polygon fill="midnightblue" stroke="midnightblue" points="463.175,-312.938 453.548,-317.362 463.833,-319.907 463.175,-312.938"/>
</g>
<!-- Node4 -->
<g id="node4" class="node"><title>Node4</title>
<g id="a_node4"><a xlink:href="classscram_1_1core_1_1Preprocessor.xhtml#a2b6705e815fa3d02119c405b483766d5" target="_top" xlink:title="Container of unique gates by semantics. ">
<polygon fill="white" stroke="black" points="829,-224.002 829,-243.002 985,-243.002 985,-224.002 829,-224.002"/>
<text text-anchor="middle" x="907" y="-231.002" font-family="Helvetica,sans-Serif" font-size="10.00">scram::core::Preprocessor::Run</text>
</a>
</g>
</g>
<!-- Node3&#45;&gt;Node4 -->
<g id="edge3" class="edge"><title>Node3&#45;&gt;Node4</title>
<path fill="none" stroke="midnightblue" d="M635.041,-291.453C704.142,-276.674 804.346,-255.243 861.544,-243.01"/>
<polygon fill="midnightblue" stroke="midnightblue" points="634.127,-288.069 625.08,-293.584 635.591,-294.915 634.127,-288.069"/>
</g>
<!-- Node7 -->
<g id="node7" class="node"><title>Node7</title>
<g id="a_node7"><a xlink:href="classscram_1_1core_1_1Preprocessor.xhtml#a5ee92284aef510ce01a71c962d50f51c" target="_top" xlink:title="Runs the graph preprocessing. ">
<polygon fill="white" stroke="black" points="1038.5,-263.502 1038.5,-293.502 1170.5,-293.502 1170.5,-263.502 1038.5,-263.502"/>
<text text-anchor="start" x="1046.5" y="-281.502" font-family="Helvetica,sans-Serif" font-size="10.00">scram::core::Preprocessor</text>
<text text-anchor="middle" x="1104.5" y="-270.502" font-family="Helvetica,sans-Serif" font-size="10.00">::operator()</text>
</a>
</g>
</g>
<!-- Node3&#45;&gt;Node7 -->
<g id="edge17" class="edge"><title>Node3&#45;&gt;Node7</title>
<path fill="none" stroke="midnightblue" d="M635.105,-303.495C742.222,-297.779 937.093,-287.381 1038.41,-281.976"/>
<polygon fill="midnightblue" stroke="midnightblue" points="634.818,-300.005 625.019,-304.033 635.191,-306.995 634.818,-300.005"/>
</g>
<!-- Node9 -->
<g id="node9" class="node"><title>Node9</title>
<g id="a_node9"><a xlink:href="classscram_1_1core_1_1Preprocessor.xhtml#abf2c66723172a85b2ae87ef2a034cd1f" target="_top" xlink:title="Application of gate normalization. ">
<polygon fill="white" stroke="black" points="661,-216.502 661,-246.502 793,-246.502 793,-216.502 661,-216.502"/>
<text text-anchor="start" x="669" y="-234.502" font-family="Helvetica,sans-Serif" font-size="10.00">scram::core::Preprocessor</text>
<text text-anchor="middle" x="727" y="-223.502" font-family="Helvetica,sans-Serif" font-size="10.00">::RunPhaseThree</text>
</a>
</g>
</g>
<!-- Node3&#45;&gt;Node9 -->
<g id="edge8" class="edge"><title>Node3&#45;&gt;Node9</title>
<path fill="none" stroke="midnightblue" d="M602.013,-288.268C630.223,-275.352 666.869,-258.575 692.988,-246.616"/>
<polygon fill="midnightblue" stroke="midnightblue" points="600.432,-285.142 592.796,-292.487 603.346,-291.507 600.432,-285.142"/>
</g>
<!-- Node10 -->
<g id="node10" class="node"><title>Node10</title>
<g id="a_node10"><a xlink:href="classscram_1_1core_1_1Preprocessor.xhtml#a5c224938dfba861f061525658bd7b156" target="_top" xlink:title="Propagation of complements. ">
<polygon fill="white" stroke="black" points="841,-380.502 841,-410.502 973,-410.502 973,-380.502 841,-380.502"/>
<text text-anchor="start" x="849" y="-398.502" font-family="Helvetica,sans-Serif" font-size="10.00">scram::core::Preprocessor</text>
<text text-anchor="middle" x="907" y="-387.502" font-family="Helvetica,sans-Serif" font-size="10.00">::RunPhaseFour</text>
</a>
</g>
</g>
<!-- Node3&#45;&gt;Node10 -->
<g id="edge11" class="edge"><title>Node3&#45;&gt;Node10</title>
<path fill="none" stroke="midnightblue" d="M629.051,-325.065C692.802,-341.279 786.484,-365.105 846.868,-380.463"/>
<polygon fill="midnightblue" stroke="midnightblue" points="629.641,-321.603 619.086,-322.53 627.915,-328.387 629.641,-321.603"/>
</g>
<!-- Node11 -->
<g id="node11" class="node"><title>Node11</title>
<g id="a_node11"><a xlink:href="classscram_1_1core_1_1Preprocessor.xhtml#a3569bbcd5e863c750cdfa69115399600" target="_top" xlink:title="The final phase that cleans up the graph, and puts the structure of the graph ready for analysis...">
<polygon fill="white" stroke="black" points="841,-494.502 841,-524.502 973,-524.502 973,-494.502 841,-494.502"/>
<text text-anchor="start" x="849" y="-512.502" font-family="Helvetica,sans-Serif" font-size="10.00">scram::core::Preprocessor</text>
<text text-anchor="middle" x="907" y="-501.502" font-family="Helvetica,sans-Serif" font-size="10.00">::RunPhaseFive</text>
</a>
</g>
</g>
<!-- Node3&#45;&gt;Node11 -->
<g id="edge14" class="edge"><title>Node3&#45;&gt;Node11</title>
<path fill="none" stroke="midnightblue" d="M594.53,-327.661C663.864,-368.14 818.633,-458.496 880.107,-494.386"/>
<polygon fill="midnightblue" stroke="midnightblue" points="596.124,-324.539 585.724,-322.52 592.595,-330.585 596.124,-324.539"/>
</g>
<!-- Node5 -->
<g id="node5" class="node"><title>Node5</title>
<g id="a_node5"><a xlink:href="classscram_1_1core_1_1Preprocessor.xhtml#a9caf4677a024ed935d831210b57b8ed9" target="_top" xlink:title="Gathers nodes in the sub&#45;graph. ">
<polygon fill="white" stroke="black" points="1038.5,-214.502 1038.5,-244.502 1170.5,-244.502 1170.5,-214.502 1038.5,-214.502"/>
<text text-anchor="start" x="1046.5" y="-232.502" font-family="Helvetica,sans-Serif" font-size="10.00">scram::core::Preprocessor</text>
<text text-anchor="middle" x="1104.5" y="-221.502" font-family="Helvetica,sans-Serif" font-size="10.00">::GatherNodes</text>
</a>
</g>
</g>
<!-- Node4&#45;&gt;Node5 -->
<g id="edge4" class="edge"><title>Node4&#45;&gt;Node5</title>
<path fill="none" stroke="midnightblue" d="M995.674,-231.709C1010.06,-231.414 1024.74,-231.114 1038.46,-230.833"/>
<polygon fill="midnightblue" stroke="midnightblue" points="995.193,-228.218 985.267,-231.921 995.336,-235.216 995.193,-228.218"/>
</g>
<!-- Node6 -->
<g id="node6" class="node"><title>Node6</title>
<g id="a_node6"><a xlink:href="classscram_1_1core_1_1CustomPreprocessor_3_01Zbdd_01_4.xhtml#a5185075f852c647c7aa4313d23420ee5" target="_top" xlink:title="Performs preprocessing for analyses with Zero&#45;Suppressed Binary Decision Diagrams. ">
<polygon fill="white" stroke="black" points="1021,-380.502 1021,-410.502 1188,-410.502 1188,-380.502 1021,-380.502"/>
<text text-anchor="start" x="1029" y="-398.502" font-family="Helvetica,sans-Serif" font-size="10.00">scram::core::CustomPreprocessor</text>
<text text-anchor="middle" x="1104.5" y="-387.502" font-family="Helvetica,sans-Serif" font-size="10.00">&lt; Zbdd &gt;::Run</text>
</a>
</g>
</g>
<!-- Node4&#45;&gt;Node6 -->
<g id="edge5" class="edge"><title>Node4&#45;&gt;Node6</title>
<path fill="none" stroke="midnightblue" d="M927.421,-249.595C965.302,-280.986 1048.56,-349.979 1085.38,-380.487"/>
<polygon fill="midnightblue" stroke="midnightblue" points="929.577,-246.837 919.644,-243.151 925.111,-252.227 929.577,-246.837"/>
</g>
<!-- Node4&#45;&gt;Node7 -->
<g id="edge6" class="edge"><title>Node4&#45;&gt;Node7</title>
<path fill="none" stroke="midnightblue" d="M959.475,-245.351C983.597,-250.903 1012.61,-257.58 1038.25,-263.483"/>
<polygon fill="midnightblue" stroke="midnightblue" points="959.991,-241.878 949.461,-243.046 958.421,-248.7 959.991,-241.878"/>
</g>
<!-- Node8 -->
<g id="node8" class="node"><title>Node8</title>
<g id="a_node8"><a xlink:href="classscram_1_1core_1_1Preprocessor_1_1GateSet.xhtml#ae00239084858979e096032c4cf2f05b9" target="_top" xlink:title="Inserts a gate into the set if it is semantically unique. ">
<polygon fill="white" stroke="black" points="1224,-263.502 1224,-293.502 1356,-293.502 1356,-263.502 1224,-263.502"/>
<text text-anchor="start" x="1232" y="-281.502" font-family="Helvetica,sans-Serif" font-size="10.00">scram::core::Preprocessor</text>
<text text-anchor="middle" x="1290" y="-270.502" font-family="Helvetica,sans-Serif" font-size="10.00">::GateSet::insert</text>
</a>
</g>
</g>
<!-- Node7&#45;&gt;Node8 -->
<g id="edge7" class="edge"><title>Node7&#45;&gt;Node8</title>
<path fill="none" stroke="midnightblue" d="M1180.99,-278.502C1195.26,-278.502 1210.08,-278.502 1224,-278.502"/>
<polygon fill="midnightblue" stroke="midnightblue" points="1180.71,-275.002 1170.71,-278.502 1180.71,-282.002 1180.71,-275.002"/>
</g>
<!-- Node9&#45;&gt;Node4 -->
<g id="edge9" class="edge"><title>Node9&#45;&gt;Node4</title>
<path fill="none" stroke="midnightblue" d="M803.221,-232.348C811.672,-232.442 820.292,-232.539 828.768,-232.635"/>
<polygon fill="midnightblue" stroke="midnightblue" points="803.056,-228.846 793.018,-232.233 802.978,-235.845 803.056,-228.846"/>
</g>
<!-- Node9&#45;&gt;Node7 -->
<g id="edge10" class="edge"><title>Node9&#45;&gt;Node7</title>
<path fill="none" stroke="midnightblue" d="M802.87,-248.03C811.653,-249.683 820.508,-251.221 829,-252.502 900.238,-263.248 982.587,-270.345 1038.36,-274.37"/>
<polygon fill="midnightblue" stroke="midnightblue" points="803.49,-244.585 793.007,-246.121 802.16,-251.457 803.49,-244.585"/>
</g>
<!-- Node10&#45;&gt;Node6 -->
<g id="edge12" class="edge"><title>Node10&#45;&gt;Node6</title>
<path fill="none" stroke="midnightblue" d="M983.313,-395.502C995.636,-395.502 1008.46,-395.502 1020.95,-395.502"/>
<polygon fill="midnightblue" stroke="midnightblue" points="983.099,-392.002 973.099,-395.502 983.099,-399.002 983.099,-392.002"/>
</g>
<!-- Node10&#45;&gt;Node7 -->
<g id="edge13" class="edge"><title>Node10&#45;&gt;Node7</title>
<path fill="none" stroke="midnightblue" d="M961.756,-376.653C969.706,-373.269 977.68,-369.524 985,-365.502 1023.47,-344.364 1063.74,-312.357 1086.02,-293.628"/>
<polygon fill="midnightblue" stroke="midnightblue" points="960.4,-373.427 952.474,-380.457 963.054,-379.904 960.4,-373.427"/>
</g>
<!-- Node11&#45;&gt;Node6 -->
<g id="edge15" class="edge"><title>Node11&#45;&gt;Node6</title>
<path fill="none" stroke="midnightblue" d="M961.402,-490.669C969.458,-487.266 977.556,-483.512 985,-479.502 1022.74,-459.173 1062.61,-428.801 1085.14,-410.689"/>
<polygon fill="midnightblue" stroke="midnightblue" points="959.946,-487.482 952.006,-494.497 962.587,-493.965 959.946,-487.482"/>
</g>
<!-- Node11&#45;&gt;Node7 -->
<g id="edge16" class="edge"><title>Node11&#45;&gt;Node7</title>
<path fill="none" stroke="midnightblue" d="M973.001,-489.405C977.378,-486.527 981.45,-483.244 985,-479.502 1020.12,-442.492 995.429,-414.65 1021,-370.502 1038.63,-340.057 1067.53,-310.863 1086.03,-293.812"/>
<polygon fill="midnightblue" stroke="midnightblue" points="971.17,-486.421 964.265,-494.457 974.674,-492.481 971.17,-486.421"/>
</g>
<!-- Node12&#45;&gt;Node3 -->
<g id="edge19" class="edge"><title>Node12&#45;&gt;Node3</title>
<path fill="none" stroke="midnightblue" d="M440.712,-445.924C446.449,-442.829 452.011,-439.357 457,-435.502 499.114,-402.967 533.843,-349.187 549.321,-322.912"/>
<polygon fill="midnightblue" stroke="midnightblue" points="438.986,-442.874 431.61,-450.479 442.119,-449.134 438.986,-442.874"/>
</g>
<!-- Node12&#45;&gt;Node7 -->
<g id="edge22" class="edge"><title>Node12&#45;&gt;Node7</title>
<path fill="none" stroke="midnightblue" d="M463.876,-467.37C603.821,-469.599 897.527,-468.095 985,-419.502 1008.62,-406.379 1003.96,-391.476 1021,-370.502 1043.73,-342.53 1072.16,-311.65 1089.01,-293.726"/>
<polygon fill="midnightblue" stroke="midnightblue" points="463.722,-463.867 453.664,-467.197 463.603,-470.866 463.722,-463.867"/>
</g>
<!-- Node12&#45;&gt;Node11 -->
<g id="edge20" class="edge"><title>Node12&#45;&gt;Node11</title>
<path fill="none" stroke="midnightblue" d="M412.289,-487.156C432.212,-503.731 462.256,-525.268 493,-534.502 617.005,-571.749 771.135,-544.151 851.49,-524.557"/>
<polygon fill="midnightblue" stroke="midnightblue" points="414.531,-484.468 404.655,-480.632 409.984,-489.79 414.531,-484.468"/>
</g>
<!-- Node13 -->
<g id="node13" class="node"><title>Node13</title>
<g id="a_node13"><a xlink:href="classscram_1_1core_1_1Preprocessor.xhtml#a3a0500bd52152df42fca486c97043140" target="_top" xlink:title="Coalesces positive argument gates with the same OR or AND logic as parents. ">
<polygon fill="white" stroke="black" points="493,-494.502 493,-524.502 625,-524.502 625,-494.502 493,-494.502"/>
<text text-anchor="start" x="501" y="-512.502" font-family="Helvetica,sans-Serif" font-size="10.00">scram::core::Preprocessor</text>
<text text-anchor="middle" x="559" y="-501.502" font-family="Helvetica,sans-Serif" font-size="10.00">::CoalesceGates</text>
</a>
</g>
</g>
<!-- Node12&#45;&gt;Node13 -->
<g id="edge21" class="edge"><title>Node12&#45;&gt;Node13</title>
<path fill="none" stroke="midnightblue" d="M456.277,-483.096C470.797,-486.866 486.01,-490.815 500.115,-494.476"/>
<polygon fill="midnightblue" stroke="midnightblue" points="456.917,-479.647 446.358,-480.522 455.158,-486.422 456.917,-479.647"/>
</g>
<!-- Node14&#45;&gt;Node3 -->
<g id="edge24" class="edge"><title>Node14&#45;&gt;Node3</title>
<path fill="none" stroke="midnightblue" d="M292.301,-368.685C340.641,-366.182 402.978,-360.451 457,-347.502 481.026,-341.744 506.91,-331.404 526.46,-322.68"/>
<polygon fill="midnightblue" stroke="midnightblue" points="292.026,-365.195 282.206,-369.172 292.363,-372.186 292.026,-365.195"/>
</g>
<!-- Node15&#45;&gt;Node3 -->
<g id="edge26" class="edge"><title>Node15&#45;&gt;Node3</title>
<path fill="none" stroke="midnightblue" d="M287.044,-229.68C336.413,-229.293 401.743,-232.821 457,-249.502 487.391,-258.677 518.493,-278.413 538.004,-292.305"/>
<polygon fill="midnightblue" stroke="midnightblue" points="286.712,-226.184 276.76,-229.818 286.806,-233.183 286.712,-226.184"/>
</g>
<!-- Node16 -->
<g id="node16" class="node"><title>Node16</title>
<g id="a_node16"><a xlink:href="classscram_1_1core_1_1Preprocessor.xhtml#a79fe8e90f0e8fbc20a76610aaf09fe6e" target="_top" xlink:title="Detects and manipulates AND and OR gate distributivity. ">
<polygon fill="white" stroke="black" points="321.5,-259.502 321.5,-289.502 453.5,-289.502 453.5,-259.502 321.5,-259.502"/>
<text text-anchor="start" x="329.5" y="-277.502" font-family="Helvetica,sans-Serif" font-size="10.00">scram::core::Preprocessor</text>
<text text-anchor="middle" x="387.5" y="-266.502" font-family="Helvetica,sans-Serif" font-size="10.00">::DetectDistributivity</text>
</a>
</g>
</g>
<!-- Node15&#45;&gt;Node16 -->
<g id="edge27" class="edge"><title>Node15&#45;&gt;Node16</title>
<path fill="none" stroke="midnightblue" d="M285.416,-250.82C297.691,-253.696 310.331,-256.657 322.338,-259.47"/>
<polygon fill="midnightblue" stroke="midnightblue" points="286.205,-247.41 275.67,-248.536 284.608,-254.225 286.205,-247.41"/>
</g>
<!-- Node17&#45;&gt;Node3 -->
<g id="edge29" class="edge"><title>Node17&#45;&gt;Node3</title>
<path fill="none" stroke="midnightblue" d="M416.084,-82.244C429.441,-93.6286 445.117,-108.336 457,-123.502 501.5,-180.298 537.583,-259.308 551.649,-292.194"/>
<polygon fill="midnightblue" stroke="midnightblue" points="418.045,-79.3224 408.122,-75.6104 413.564,-84.7004 418.045,-79.3224"/>
</g>
<!-- Node17&#45;&gt;Node7 -->
<g id="edge30" class="edge"><title>Node17&#45;&gt;Node7</title>
<path fill="none" stroke="midnightblue" d="M444.053,-42.5145C559.777,-8.85209 828.862,49.033 985,-82.5024 1044.4,-132.541 968.515,-196.255 1021,-253.502 1025.85,-258.797 1031.79,-262.986 1038.23,-266.296"/>
<polygon fill="midnightblue" stroke="midnightblue" points="442.928,-39.1974 434.332,-45.3909 444.914,-45.9097 442.928,-39.1974"/>
</g>
<!-- Node18&#45;&gt;Node3 -->
<g id="edge32" class="edge"><title>Node18&#45;&gt;Node3</title>
<path fill="none" stroke="midnightblue" d="M440.646,-391.837C446.394,-388.757 451.977,-385.313 457,-381.502 477.131,-366.233 473.02,-352.969 493,-337.502 500.469,-331.72 509.233,-326.727 517.863,-322.565"/>
<polygon fill="midnightblue" stroke="midnightblue" points="438.922,-388.785 431.532,-396.377 442.043,-395.051 438.922,-388.785"/>
</g>
<!-- Node18&#45;&gt;Node7 -->
<g id="edge33" class="edge"><title>Node18&#45;&gt;Node7</title>
<path fill="none" stroke="midnightblue" d="M463.893,-398.569C577.194,-378.971 798.029,-340.143 985,-303.502 1002.33,-300.106 1021.05,-296.247 1038.37,-292.594"/>
<polygon fill="midnightblue" stroke="midnightblue" points="463.19,-395.139 453.933,-400.291 464.383,-402.037 463.19,-395.139"/>
</g>
<!-- Node19&#45;&gt;Node7 -->
<g id="edge39" class="edge"><title>Node19&#45;&gt;Node7</title>
<path fill="none" stroke="midnightblue" d="M634.788,-130.645C726.242,-114.546 881.593,-102.312 985,-175.502 1016.16,-197.56 992.203,-228.433 1021,-253.502 1026.08,-257.924 1031.92,-261.564 1038.1,-264.56"/>
<polygon fill="midnightblue" stroke="midnightblue" points="633.99,-127.233 624.779,-132.468 635.244,-134.12 633.99,-127.233"/>
</g>
<!-- Node19&#45;&gt;Node9 -->
<g id="edge38" class="edge"><title>Node19&#45;&gt;Node9</title>
<path fill="none" stroke="midnightblue" d="M591.988,-167.98C611.501,-180.015 637.191,-195.062 661,-206.502 668.302,-210.011 676.233,-213.395 683.966,-216.48"/>
<polygon fill="midnightblue" stroke="midnightblue" points="593.826,-165.001 583.487,-162.686 590.126,-170.943 593.826,-165.001"/>
</g>
<!-- Node19&#45;&gt;Node20 -->
<g id="edge35" class="edge"><title>Node19&#45;&gt;Node20</title>
<path fill="none" stroke="midnightblue" d="M635.114,-163.34C643.681,-165.146 652.361,-166.976 660.784,-168.752"/>
<polygon fill="midnightblue" stroke="midnightblue" points="635.638,-159.873 625.131,-161.235 634.194,-166.723 635.638,-159.873"/>
</g>
<!-- Node20&#45;&gt;Node4 -->
<g id="edge36" class="edge"><title>Node20&#45;&gt;Node4</title>
<path fill="none" stroke="midnightblue" d="M790.087,-200.291C817.863,-208.25 849.499,-217.314 872.696,-223.96"/>
<polygon fill="midnightblue" stroke="midnightblue" points="791.02,-196.918 780.443,-197.528 789.092,-203.647 791.02,-196.918"/>
</g>
<!-- Node20&#45;&gt;Node7 -->
<g id="edge37" class="edge"><title>Node20&#45;&gt;Node7</title>
<path fill="none" stroke="midnightblue" d="M803.214,-178.535C856.699,-178.795 928.737,-185.595 985,-214.502 1005.98,-225.283 1001.01,-240.976 1021,-253.502 1027.09,-257.317 1033.79,-260.58 1040.67,-263.364"/>
<polygon fill="midnightblue" stroke="midnightblue" points="803.104,-175.035 793.114,-178.562 803.123,-182.035 803.104,-175.035"/>
</g>
<!-- Node21&#45;&gt;Node2 -->
<g id="edge41" class="edge"><title>Node21&#45;&gt;Node2</title>
<path fill="none" stroke="midnightblue" d="M285.416,-299.82C297.691,-302.696 310.331,-305.657 322.338,-308.47"/>
<polygon fill="midnightblue" stroke="midnightblue" points="286.205,-296.41 275.67,-297.536 284.608,-303.225 286.205,-296.41"/>
</g>
<!-- Node22&#45;&gt;Node3 -->
<g id="edge43" class="edge"><title>Node22&#45;&gt;Node3</title>
<path fill="none" stroke="midnightblue" d="M412.15,-170.688C447.119,-203.49 511.714,-264.084 541.797,-292.303"/>
<polygon fill="midnightblue" stroke="midnightblue" points="414.44,-168.037 404.752,-163.748 409.651,-173.142 414.44,-168.037"/>
</g>
<!-- Node22&#45;&gt;Node7 -->
<g id="edge44" class="edge"><title>Node22&#45;&gt;Node7</title>
<path fill="none" stroke="midnightblue" d="M450.41,-130.975C464.32,-127.632 479.083,-124.545 493,-122.502 601.178,-106.626 898.995,-50.9909 985,-118.502 1033.85,-156.845 977.836,-208.861 1021,-253.502 1025.89,-258.559 1031.76,-262.602 1038.1,-265.832"/>
<polygon fill="midnightblue" stroke="midnightblue" points="449.321,-127.639 440.457,-133.442 451.005,-134.433 449.321,-127.639"/>
</g>
</g>
</svg>
