<?xml version="1.0" encoding="UTF-8" standalone="no"?>
<!DOCTYPE svg PUBLIC "-//W3C//DTD SVG 1.1//EN"
 "http://www.w3.org/Graphics/SVG/1.1/DTD/svg11.dtd">
<!-- Generated by graphviz version 2.38.0 (20140413.2041)
 -->
<!-- Title: scram::mef::Expression::Max Pages: 1 -->
<svg width="343pt" height="290pt"
 viewBox="0.00 0.00 343.00 290.00" xmlns="http://www.w3.org/2000/svg" xmlns:xlink="http://www.w3.org/1999/xlink">
<g id="graph0" class="graph" transform="scale(1 1) rotate(0) translate(4 286)">
<title>scram::mef::Expression::Max</title>
<polygon fill="white" stroke="none" points="-4,4 -4,-286 339,-286 339,4 -4,4"/>
<!-- Node1 -->
<g id="node1" class="node"><title>Node1</title>
<polygon fill="#bfbfbf" stroke="black" points="0,-131.5 0,-150.5 146,-150.5 146,-131.5 0,-131.5"/>
<text text-anchor="middle" x="73" y="-138.5" font-family="Helvetica,sans-Serif" font-size="10.00">scram::mef::Expression::Max</text>
</g>
<!-- Node2 -->
<g id="node2" class="node"><title>Node2</title>
<g id="a_node2"><a xlink:href="classscram_1_1mef_1_1Add.xhtml#a77d7a4d5e65a84cbf7ba36a4da906c55" target="_top" xlink:title="scram::mef::Add::Max">
<polygon fill="white" stroke="black" points="201.5,-262.5 201.5,-281.5 315.5,-281.5 315.5,-262.5 201.5,-262.5"/>
<text text-anchor="middle" x="258.5" y="-269.5" font-family="Helvetica,sans-Serif" font-size="10.00">scram::mef::Add::Max</text>
</a>
</g>
</g>
<!-- Node1&#45;&gt;Node2 -->
<g id="edge1" class="edge"><title>Node1&#45;&gt;Node2</title>
<path fill="none" stroke="midnightblue" d="M86.0744,-158.718C104.023,-183.655 140.158,-228.761 182,-253 188.666,-256.862 196.107,-259.946 203.647,-262.407"/>
<polygon fill="midnightblue" stroke="midnightblue" points="88.9236,-156.685 80.3076,-150.519 83.1981,-160.712 88.9236,-156.685"/>
</g>
<!-- Node3 -->
<g id="node3" class="node"><title>Node3</title>
<g id="a_node3"><a xlink:href="classscram_1_1mef_1_1Sub.xhtml#ad362e2542f6148aa32ff024ef957ee24" target="_top" xlink:title="scram::mef::Sub::Max">
<polygon fill="white" stroke="black" points="201.5,-224.5 201.5,-243.5 315.5,-243.5 315.5,-224.5 201.5,-224.5"/>
<text text-anchor="middle" x="258.5" y="-231.5" font-family="Helvetica,sans-Serif" font-size="10.00">scram::mef::Sub::Max</text>
</a>
</g>
</g>
<!-- Node1&#45;&gt;Node3 -->
<g id="edge2" class="edge"><title>Node1&#45;&gt;Node3</title>
<path fill="none" stroke="midnightblue" d="M93.127,-157.25C113.783,-174.014 148.278,-199.794 182,-215 190.379,-218.778 199.633,-221.89 208.707,-224.422"/>
<polygon fill="midnightblue" stroke="midnightblue" points="95.1038,-154.343 85.1644,-150.675 90.6466,-159.741 95.1038,-154.343"/>
</g>
<!-- Node4 -->
<g id="node4" class="node"><title>Node4</title>
<g id="a_node4"><a xlink:href="classscram_1_1mef_1_1LogNormalDeviate.xhtml#a4fa4995d3592c7b62b72a3a903425e8c" target="_top" xlink:title="scram::mef::LogNormalDeviate\l::Mean">
<polygon fill="white" stroke="black" points="182,-175 182,-205 335,-205 335,-175 182,-175"/>
<text text-anchor="start" x="190" y="-193" font-family="Helvetica,sans-Serif" font-size="10.00">scram::mef::LogNormalDeviate</text>
<text text-anchor="middle" x="258.5" y="-182" font-family="Helvetica,sans-Serif" font-size="10.00">::Mean</text>
</a>
</g>
</g>
<!-- Node1&#45;&gt;Node4 -->
<g id="edge3" class="edge"><title>Node1&#45;&gt;Node4</title>
<path fill="none" stroke="midnightblue" d="M119.649,-153.19C144.332,-159.781 175.031,-167.978 201.188,-174.963"/>
<polygon fill="midnightblue" stroke="midnightblue" points="120.381,-149.762 109.816,-150.564 118.575,-156.526 120.381,-149.762"/>
</g>
<!-- Node5 -->
<g id="node5" class="node"><title>Node5</title>
<g id="a_node5"><a xlink:href="classscram_1_1mef_1_1GammaDeviate.xhtml#ae75063c53f49c74930792055004cb09f" target="_top" xlink:title="scram::mef::GammaDeviate\l::Mean">
<polygon fill="white" stroke="black" points="188.5,-126 188.5,-156 328.5,-156 328.5,-126 188.5,-126"/>
<text text-anchor="start" x="196.5" y="-144" font-family="Helvetica,sans-Serif" font-size="10.00">scram::mef::GammaDeviate</text>
<text text-anchor="middle" x="258.5" y="-133" font-family="Helvetica,sans-Serif" font-size="10.00">::Mean</text>
</a>
</g>
</g>
<!-- Node1&#45;&gt;Node5 -->
<g id="edge4" class="edge"><title>Node1&#45;&gt;Node5</title>
<path fill="none" stroke="midnightblue" d="M156.407,-141C167.063,-141 177.89,-141 188.303,-141"/>
<polygon fill="midnightblue" stroke="midnightblue" points="156.261,-137.5 146.261,-141 156.261,-144.5 156.261,-137.5"/>
</g>
<!-- Node6 -->
<g id="node6" class="node"><title>Node6</title>
<g id="a_node6"><a xlink:href="classscram_1_1mef_1_1BetaDeviate.xhtml#abf897400d4e51de419463302de5d0f32" target="_top" xlink:title="scram::mef::BetaDeviate\l::Mean">
<polygon fill="white" stroke="black" points="195.5,-77 195.5,-107 321.5,-107 321.5,-77 195.5,-77"/>
<text text-anchor="start" x="203.5" y="-95" font-family="Helvetica,sans-Serif" font-size="10.00">scram::mef::BetaDeviate</text>
<text text-anchor="middle" x="258.5" y="-84" font-family="Helvetica,sans-Serif" font-size="10.00">::Mean</text>
</a>
</g>
</g>
<!-- Node1&#45;&gt;Node6 -->
<g id="edge5" class="edge"><title>Node1&#45;&gt;Node6</title>
<path fill="none" stroke="midnightblue" d="M119.649,-128.81C144.332,-122.219 175.031,-114.022 201.188,-107.037"/>
<polygon fill="midnightblue" stroke="midnightblue" points="118.575,-125.474 109.816,-131.436 120.381,-132.238 118.575,-125.474"/>
</g>
<!-- Node7 -->
<g id="node7" class="node"><title>Node7</title>
<g id="a_node7"><a xlink:href="classscram_1_1mef_1_1Neg.xhtml#a7da67dab2e2355c05a5d1726852a03b1" target="_top" xlink:title="scram::mef::Neg::Min">
<polygon fill="white" stroke="black" points="202.5,-38.5 202.5,-57.5 314.5,-57.5 314.5,-38.5 202.5,-38.5"/>
<text text-anchor="middle" x="258.5" y="-45.5" font-family="Helvetica,sans-Serif" font-size="10.00">scram::mef::Neg::Min</text>
</a>
</g>
</g>
<!-- Node1&#45;&gt;Node7 -->
<g id="edge6" class="edge"><title>Node1&#45;&gt;Node7</title>
<path fill="none" stroke="midnightblue" d="M93.5385,-124.8C114.294,-108.336 148.65,-83.1609 182,-68 191.258,-63.7913 201.572,-60.332 211.528,-57.5443"/>
<polygon fill="midnightblue" stroke="midnightblue" points="91.1056,-122.265 85.5187,-131.268 95.4999,-127.714 91.1056,-122.265"/>
</g>
<!-- Node8 -->
<g id="node8" class="node"><title>Node8</title>
<g id="a_node8"><a xlink:href="classscram_1_1mef_1_1Sub.xhtml#a9f22864663589361efd64b28768d82d0" target="_top" xlink:title="scram::mef::Sub::Min">
<polygon fill="white" stroke="black" points="203,-0.5 203,-19.5 314,-19.5 314,-0.5 203,-0.5"/>
<text text-anchor="middle" x="258.5" y="-7.5" font-family="Helvetica,sans-Serif" font-size="10.00">scram::mef::Sub::Min</text>
</a>
</g>
</g>
<!-- Node1&#45;&gt;Node8 -->
<g id="edge7" class="edge"><title>Node1&#45;&gt;Node8</title>
<path fill="none" stroke="midnightblue" d="M86.0744,-123.282C104.023,-98.3454 140.158,-53.2389 182,-29 188.666,-25.1381 196.107,-22.054 203.647,-19.5929"/>
<polygon fill="midnightblue" stroke="midnightblue" points="83.1981,-121.288 80.3076,-131.481 88.9236,-125.315 83.1981,-121.288"/>
</g>
</g>
</svg>
