<?xml version="1.0" encoding="UTF-8" standalone="no"?>
<!DOCTYPE svg PUBLIC "-//W3C//DTD SVG 1.1//EN"
 "http://www.w3.org/Graphics/SVG/1.1/DTD/svg11.dtd">
<!-- Generated by graphviz version 2.38.0 (20140413.2041)
 -->
<!-- Title: scram::core::Preprocessor::NotifyParentsOfNegativeGates Pages: 1 -->
<svg width="1065pt" height="204pt"
 viewBox="0.00 0.00 1065.00 204.00" xmlns="http://www.w3.org/2000/svg" xmlns:xlink="http://www.w3.org/1999/xlink">
<g id="graph0" class="graph" transform="scale(1 1) rotate(0) translate(4 200)">
<title>scram::core::Preprocessor::NotifyParentsOfNegativeGates</title>
<polygon fill="white" stroke="none" points="-4,4 -4,-200 1061,-200 1061,4 -4,4"/>
<!-- Node1 -->
<g id="node1" class="node"><title>Node1</title>
<polygon fill="#bfbfbf" stroke="black" points="0,-165.5 0,-195.5 158,-195.5 158,-165.5 0,-165.5"/>
<text text-anchor="start" x="8" y="-183.5" font-family="Helvetica,sans-Serif" font-size="10.00">scram::core::Preprocessor</text>
<text text-anchor="middle" x="79" y="-172.5" font-family="Helvetica,sans-Serif" font-size="10.00">::NotifyParentsOfNegativeGates</text>
</g>
<!-- Node2 -->
<g id="node2" class="node"><title>Node2</title>
<g id="a_node2"><a xlink:href="classscram_1_1core_1_1Preprocessor.xhtml#ad13e133278ea7563c1ba037c05c35aa2" target="_top" xlink:title="Normalizes the gates of the whole PDAG into OR, AND gates. ">
<polygon fill="white" stroke="black" points="194,-124.5 194,-154.5 326,-154.5 326,-124.5 194,-124.5"/>
<text text-anchor="start" x="202" y="-142.5" font-family="Helvetica,sans-Serif" font-size="10.00">scram::core::Preprocessor</text>
<text text-anchor="middle" x="260" y="-131.5" font-family="Helvetica,sans-Serif" font-size="10.00">::NormalizeGates</text>
</a>
</g>
</g>
<!-- Node1&#45;&gt;Node2 -->
<g id="edge1" class="edge"><title>Node1&#45;&gt;Node2</title>
<path fill="none" stroke="midnightblue" d="M155.735,-163.153C168.453,-160.24 181.552,-157.24 193.969,-154.395"/>
<polygon fill="midnightblue" stroke="midnightblue" points="154.603,-159.822 145.637,-165.466 156.166,-166.645 154.603,-159.822"/>
</g>
<!-- Node3 -->
<g id="node3" class="node"><title>Node3</title>
<g id="a_node3"><a xlink:href="classscram_1_1core_1_1Preprocessor.xhtml#a5ee92284aef510ce01a71c962d50f51c" target="_top" xlink:title="Runs the graph preprocessing. ">
<polygon fill="white" stroke="black" points="739.5,-111.5 739.5,-141.5 871.5,-141.5 871.5,-111.5 739.5,-111.5"/>
<text text-anchor="start" x="747.5" y="-129.5" font-family="Helvetica,sans-Serif" font-size="10.00">scram::core::Preprocessor</text>
<text text-anchor="middle" x="805.5" y="-118.5" font-family="Helvetica,sans-Serif" font-size="10.00">::operator()</text>
</a>
</g>
</g>
<!-- Node1&#45;&gt;Node3 -->
<g id="edge13" class="edge"><title>Node1&#45;&gt;Node3</title>
<path fill="none" stroke="midnightblue" d="M168.549,-182.737C287.059,-184.424 503.491,-182.921 686,-156.5 708.893,-153.186 733.774,-147.255 754.8,-141.537"/>
<polygon fill="midnightblue" stroke="midnightblue" points="168.493,-179.236 158.44,-182.582 168.385,-186.235 168.493,-179.236"/>
</g>
<!-- Node2&#45;&gt;Node3 -->
<g id="edge2" class="edge"><title>Node2&#45;&gt;Node3</title>
<path fill="none" stroke="midnightblue" d="M336.303,-143.638C344.966,-143.993 353.674,-144.294 362,-144.5 505.99,-148.062 542.266,-146.784 686,-137.5 703.319,-136.381 722.031,-134.812 739.357,-133.209"/>
<polygon fill="midnightblue" stroke="midnightblue" points="336.322,-140.136 326.18,-143.201 336.019,-147.13 336.322,-140.136"/>
</g>
<!-- Node5 -->
<g id="node5" class="node"><title>Node5</title>
<g id="a_node5"><a xlink:href="classscram_1_1core_1_1Preprocessor.xhtml#a44f820b6fe2c23594c818432b33e26a6" target="_top" xlink:title="The initial phase of preprocessing. ">
<polygon fill="white" stroke="black" points="362,-105.5 362,-135.5 494,-135.5 494,-105.5 362,-105.5"/>
<text text-anchor="start" x="370" y="-123.5" font-family="Helvetica,sans-Serif" font-size="10.00">scram::core::Preprocessor</text>
<text text-anchor="middle" x="428" y="-112.5" font-family="Helvetica,sans-Serif" font-size="10.00">::RunPhaseOne</text>
</a>
</g>
</g>
<!-- Node2&#45;&gt;Node5 -->
<g id="edge4" class="edge"><title>Node2&#45;&gt;Node5</title>
<path fill="none" stroke="midnightblue" d="M336.114,-130.903C344.681,-129.922 353.361,-128.929 361.784,-127.964"/>
<polygon fill="midnightblue" stroke="midnightblue" points="335.668,-127.431 326.131,-132.045 336.464,-134.385 335.668,-127.431"/>
</g>
<!-- Node9 -->
<g id="node9" class="node"><title>Node9</title>
<g id="a_node9"><a xlink:href="classscram_1_1core_1_1Preprocessor.xhtml#abf2c66723172a85b2ae87ef2a034cd1f" target="_top" xlink:title="Application of gate normalization. ">
<polygon fill="white" stroke="black" points="362,-56.5 362,-86.5 494,-86.5 494,-56.5 362,-56.5"/>
<text text-anchor="start" x="370" y="-74.5" font-family="Helvetica,sans-Serif" font-size="10.00">scram::core::Preprocessor</text>
<text text-anchor="middle" x="428" y="-63.5" font-family="Helvetica,sans-Serif" font-size="10.00">::RunPhaseThree</text>
</a>
</g>
</g>
<!-- Node2&#45;&gt;Node9 -->
<g id="edge10" class="edge"><title>Node2&#45;&gt;Node9</title>
<path fill="none" stroke="midnightblue" d="M304.023,-120.112C321.864,-112.241 342.835,-103.206 362,-95.5 369.478,-92.4935 377.494,-89.4167 385.254,-86.5125"/>
<polygon fill="midnightblue" stroke="midnightblue" points="302.188,-117.097 294.464,-124.349 305.024,-123.496 302.188,-117.097"/>
</g>
<!-- Node4 -->
<g id="node4" class="node"><title>Node4</title>
<g id="a_node4"><a xlink:href="classscram_1_1core_1_1Preprocessor_1_1GateSet.xhtml#ae00239084858979e096032c4cf2f05b9" target="_top" xlink:title="Inserts a gate into the set if it is semantically unique. ">
<polygon fill="white" stroke="black" points="925,-111.5 925,-141.5 1057,-141.5 1057,-111.5 925,-111.5"/>
<text text-anchor="start" x="933" y="-129.5" font-family="Helvetica,sans-Serif" font-size="10.00">scram::core::Preprocessor</text>
<text text-anchor="middle" x="991" y="-118.5" font-family="Helvetica,sans-Serif" font-size="10.00">::GateSet::insert</text>
</a>
</g>
</g>
<!-- Node3&#45;&gt;Node4 -->
<g id="edge3" class="edge"><title>Node3&#45;&gt;Node4</title>
<path fill="none" stroke="midnightblue" d="M881.989,-126.5C896.264,-126.5 911.081,-126.5 924.998,-126.5"/>
<polygon fill="midnightblue" stroke="midnightblue" points="881.712,-123 871.712,-126.5 881.712,-130 881.712,-123"/>
</g>
<!-- Node5&#45;&gt;Node3 -->
<g id="edge5" class="edge"><title>Node5&#45;&gt;Node3</title>
<path fill="none" stroke="midnightblue" d="M504.74,-121.71C573.516,-122.809 673.901,-124.413 739.214,-125.457"/>
<polygon fill="midnightblue" stroke="midnightblue" points="504.462,-118.205 494.407,-121.545 504.35,-125.205 504.462,-118.205"/>
</g>
<!-- Node6 -->
<g id="node6" class="node"><title>Node6</title>
<g id="a_node6"><a xlink:href="classscram_1_1core_1_1Preprocessor.xhtml#a2b6705e815fa3d02119c405b483766d5" target="_top" xlink:title="Container of unique gates by semantics. ">
<polygon fill="white" stroke="black" points="530,-41 530,-60 686,-60 686,-41 530,-41"/>
<text text-anchor="middle" x="608" y="-48" font-family="Helvetica,sans-Serif" font-size="10.00">scram::core::Preprocessor::Run</text>
</a>
</g>
</g>
<!-- Node5&#45;&gt;Node6 -->
<g id="edge6" class="edge"><title>Node5&#45;&gt;Node6</title>
<path fill="none" stroke="midnightblue" d="M478.135,-101.673C483.493,-99.5986 488.863,-97.5106 494,-95.5 524.872,-83.4164 560.379,-69.229 583.224,-60.063"/>
<polygon fill="midnightblue" stroke="midnightblue" points="476.626,-98.5033 468.558,-105.371 479.148,-105.033 476.626,-98.5033"/>
</g>
<!-- Node6&#45;&gt;Node3 -->
<g id="edge8" class="edge"><title>Node6&#45;&gt;Node3</title>
<path fill="none" stroke="midnightblue" d="M652.487,-63.1267C663.503,-66.5784 675.256,-70.4824 686,-74.5 715.882,-85.6736 749.073,-100.451 772.709,-111.396"/>
<polygon fill="midnightblue" stroke="midnightblue" points="653.215,-59.6888 642.628,-60.0937 651.156,-66.3794 653.215,-59.6888"/>
</g>
<!-- Node7 -->
<g id="node7" class="node"><title>Node7</title>
<g id="a_node7"><a xlink:href="classscram_1_1core_1_1Preprocessor.xhtml#a9caf4677a024ed935d831210b57b8ed9" target="_top" xlink:title="Gathers nodes in the sub&#45;graph. ">
<polygon fill="white" stroke="black" points="739.5,-0.5 739.5,-30.5 871.5,-30.5 871.5,-0.5 739.5,-0.5"/>
<text text-anchor="start" x="747.5" y="-18.5" font-family="Helvetica,sans-Serif" font-size="10.00">scram::core::Preprocessor</text>
<text text-anchor="middle" x="805.5" y="-7.5" font-family="Helvetica,sans-Serif" font-size="10.00">::GatherNodes</text>
</a>
</g>
</g>
<!-- Node6&#45;&gt;Node7 -->
<g id="edge7" class="edge"><title>Node6&#45;&gt;Node7</title>
<path fill="none" stroke="midnightblue" d="M672.181,-39.1888C693.716,-35.3334 717.821,-31.018 739.496,-27.1375"/>
<polygon fill="midnightblue" stroke="midnightblue" points="671.39,-35.7748 662.163,-40.9823 672.623,-42.6652 671.39,-35.7748"/>
</g>
<!-- Node8 -->
<g id="node8" class="node"><title>Node8</title>
<g id="a_node8"><a xlink:href="classscram_1_1core_1_1CustomPreprocessor_3_01Zbdd_01_4.xhtml#a5185075f852c647c7aa4313d23420ee5" target="_top" xlink:title="Performs preprocessing for analyses with Zero&#45;Suppressed Binary Decision Diagrams. ">
<polygon fill="white" stroke="black" points="722,-49.5 722,-79.5 889,-79.5 889,-49.5 722,-49.5"/>
<text text-anchor="start" x="730" y="-67.5" font-family="Helvetica,sans-Serif" font-size="10.00">scram::core::CustomPreprocessor</text>
<text text-anchor="middle" x="805.5" y="-56.5" font-family="Helvetica,sans-Serif" font-size="10.00">&lt; Zbdd &gt;::Run</text>
</a>
</g>
</g>
<!-- Node6&#45;&gt;Node8 -->
<g id="edge9" class="edge"><title>Node6&#45;&gt;Node8</title>
<path fill="none" stroke="midnightblue" d="M696.44,-56.7617C704.836,-57.3629 713.334,-57.9715 721.683,-58.5694"/>
<polygon fill="midnightblue" stroke="midnightblue" points="696.491,-53.2565 686.267,-56.0332 695.991,-60.2386 696.491,-53.2565"/>
</g>
<!-- Node9&#45;&gt;Node3 -->
<g id="edge11" class="edge"><title>Node9&#45;&gt;Node3</title>
<path fill="none" stroke="midnightblue" d="M504.317,-82.5317C573.104,-92.6071 673.767,-107.351 739.214,-116.937"/>
<polygon fill="midnightblue" stroke="midnightblue" points="504.809,-79.0666 494.407,-81.0803 503.794,-85.9927 504.809,-79.0666"/>
</g>
<!-- Node9&#45;&gt;Node6 -->
<g id="edge12" class="edge"><title>Node9&#45;&gt;Node6</title>
<path fill="none" stroke="midnightblue" d="M504.221,-62.6257C512.672,-61.6286 521.292,-60.6116 529.768,-59.6116"/>
<polygon fill="midnightblue" stroke="midnightblue" points="503.539,-59.1817 494.018,-63.8294 504.359,-66.1335 503.539,-59.1817"/>
</g>
</g>
</svg>
