<?xml version="1.0" encoding="UTF-8" standalone="no"?>
<!DOCTYPE svg PUBLIC "-//W3C//DTD SVG 1.1//EN"
 "http://www.w3.org/Graphics/SVG/1.1/DTD/svg11.dtd">
<!-- Generated by graphviz version 2.38.0 (20140413.2041)
 -->
<!-- Title: scram::core::NodeParentManager::parents Pages: 1 -->
<svg width="341pt" height="78pt"
 viewBox="0.00 0.00 341.00 77.50" xmlns="http://www.w3.org/2000/svg" xmlns:xlink="http://www.w3.org/1999/xlink">
<g id="graph0" class="graph" transform="scale(1 1) rotate(0) translate(4 73.5)">
<title>scram::core::NodeParentManager::parents</title>
<polygon fill="white" stroke="none" points="-4,4 -4,-73.5 337,-73.5 337,4 -4,4"/>
<!-- Node1 -->
<g id="node1" class="node"><title>Node1</title>
<polygon fill="#bfbfbf" stroke="black" points="0,-22.5 0,-52.5 164,-52.5 164,-22.5 0,-22.5"/>
<text text-anchor="start" x="8" y="-40.5" font-family="Helvetica,sans-Serif" font-size="10.00">scram::core::NodeParentManager</text>
<text text-anchor="middle" x="82" y="-29.5" font-family="Helvetica,sans-Serif" font-size="10.00">::parents</text>
</g>
<!-- Node2 -->
<g id="node2" class="node"><title>Node2</title>
<g id="a_node2"><a xlink:href="classscram_1_1core_1_1Bdd.xhtml#ab9548d4c5f9afaa96dc24e17e2a01a57" target="_top" xlink:title="Runs the Qualitative analysis with the representation of a PDAG as ROBDD. ">
<polygon fill="white" stroke="black" points="200,-50 200,-69 333,-69 333,-50 200,-50"/>
<text text-anchor="middle" x="266.5" y="-57" font-family="Helvetica,sans-Serif" font-size="10.00">scram::core::Bdd::Analyze</text>
</a>
</g>
</g>
<!-- Node1&#45;&gt;Node2 -->
<g id="edge1" class="edge"><title>Node1&#45;&gt;Node2</title>
<path fill="none" stroke="midnightblue" d="M174.268,-48.5022C182.937,-49.5472 191.606,-50.5922 199.962,-51.5995"/>
<polygon fill="midnightblue" stroke="midnightblue" points="174.457,-44.9997 164.11,-47.2776 173.619,-51.9494 174.457,-44.9997"/>
</g>
<!-- Node3 -->
<g id="node3" class="node"><title>Node3</title>
<g id="a_node3"><a xlink:href="classscram_1_1core_1_1Zbdd.xhtml#ac90d12f0c653c679d22109124fa6344c" target="_top" xlink:title="Find or adds a ZBDD SetNode vertex using information from gates. ">
<polygon fill="white" stroke="black" points="215.5,-0.5 215.5,-30.5 317.5,-30.5 317.5,-0.5 215.5,-0.5"/>
<text text-anchor="start" x="223.5" y="-18.5" font-family="Helvetica,sans-Serif" font-size="10.00">scram::core::Zbdd::</text>
<text text-anchor="middle" x="266.5" y="-7.5" font-family="Helvetica,sans-Serif" font-size="10.00">FindOrAddVertex</text>
</a>
</g>
</g>
<!-- Node1&#45;&gt;Node3 -->
<g id="edge2" class="edge"><title>Node1&#45;&gt;Node3</title>
<path fill="none" stroke="midnightblue" d="M174.356,-26.4873C188.452,-24.788 202.545,-23.0891 215.289,-21.5529"/>
<polygon fill="midnightblue" stroke="midnightblue" points="173.619,-23.0506 164.11,-27.7224 174.457,-30.0003 173.619,-23.0506"/>
</g>
</g>
</svg>
