<?xml version="1.0" encoding="UTF-8" standalone="no"?>
<!DOCTYPE svg PUBLIC "-//W3C//DTD SVG 1.1//EN"
 "http://www.w3.org/Graphics/SVG/1.1/DTD/svg11.dtd">
<!-- Generated by graphviz version 2.38.0 (20140413.2041)
 -->
<!-- Title: scram::mef::LogNormalDeviate::LogNormalDeviate Pages: 1 -->
<svg width="337pt" height="39pt"
 viewBox="0.00 0.00 337.00 39.00" xmlns="http://www.w3.org/2000/svg" xmlns:xlink="http://www.w3.org/1999/xlink">
<g id="graph0" class="graph" transform="scale(1 1) rotate(0) translate(4 35)">
<title>scram::mef::LogNormalDeviate::LogNormalDeviate</title>
<polygon fill="white" stroke="none" points="-4,4 -4,-35 333,-35 333,4 -4,4"/>
<!-- Node1 -->
<g id="node1" class="node"><title>Node1</title>
<polygon fill="#bfbfbf" stroke="black" points="0,-0.5 0,-30.5 153,-30.5 153,-0.5 0,-0.5"/>
<text text-anchor="start" x="8" y="-18.5" font-family="Helvetica,sans-Serif" font-size="10.00">scram::mef::LogNormalDeviate</text>
<text text-anchor="middle" x="76.5" y="-7.5" font-family="Helvetica,sans-Serif" font-size="10.00">::LogNormalDeviate</text>
</g>
<!-- Node2 -->
<g id="node2" class="node"><title>Node2</title>
<g id="a_node2"><a xlink:href="classscram_1_1Random.xhtml#a8c06842e494b989786dc196284e78b05" target="_top" xlink:title="RNG from a lognormal distribution. ">
<polygon fill="white" stroke="black" points="189,-0.5 189,-30.5 329,-30.5 329,-0.5 189,-0.5"/>
<text text-anchor="start" x="197" y="-18.5" font-family="Helvetica,sans-Serif" font-size="10.00">scram::Random::LogNormal</text>
<text text-anchor="middle" x="259" y="-7.5" font-family="Helvetica,sans-Serif" font-size="10.00">Generator</text>
</a>
</g>
</g>
<!-- Node1&#45;&gt;Node2 -->
<g id="edge1" class="edge"><title>Node1&#45;&gt;Node2</title>
<path fill="none" stroke="midnightblue" d="M153.002,-15.5C161.45,-15.5 170.075,-15.5 178.57,-15.5"/>
<polygon fill="midnightblue" stroke="midnightblue" points="178.847,-19.0001 188.847,-15.5 178.847,-12.0001 178.847,-19.0001"/>
</g>
</g>
</svg>
