<?xml version="1.0" encoding="UTF-8" standalone="no"?>
<!DOCTYPE svg PUBLIC "-//W3C//DTD SVG 1.1//EN"
 "http://www.w3.org/Graphics/SVG/1.1/DTD/svg11.dtd">
<!-- Generated by graphviz version 2.38.0 (20140413.2041)
 -->
<!-- Title: scram::mef::CcfGroup::members Pages: 1 -->
<svg width="320pt" height="88pt"
 viewBox="0.00 0.00 320.00 88.00" xmlns="http://www.w3.org/2000/svg" xmlns:xlink="http://www.w3.org/1999/xlink">
<g id="graph0" class="graph" transform="scale(1 1) rotate(0) translate(4 84)">
<title>scram::mef::CcfGroup::members</title>
<polygon fill="white" stroke="none" points="-4,4 -4,-84 316,-84 316,4 -4,4"/>
<!-- Node1 -->
<g id="node1" class="node"><title>Node1</title>
<polygon fill="#bfbfbf" stroke="black" points="0,-24.5 0,-54.5 114,-54.5 114,-24.5 0,-24.5"/>
<text text-anchor="start" x="8" y="-42.5" font-family="Helvetica,sans-Serif" font-size="10.00">scram::mef::CcfGroup</text>
<text text-anchor="middle" x="57" y="-31.5" font-family="Helvetica,sans-Serif" font-size="10.00">::members</text>
</g>
<!-- Node2 -->
<g id="node2" class="node"><title>Node2</title>
<g id="a_node2"><a xlink:href="classscram_1_1mef_1_1CcfGroup.xhtml#ab399c5ed0c1d7d0a316ac3b7244b7eb9" target="_top" xlink:title="Processes the given factors and members to create common cause failure probabilities and new events t...">
<polygon fill="white" stroke="black" points="174,-49.5 174,-79.5 288,-79.5 288,-49.5 174,-49.5"/>
<text text-anchor="start" x="182" y="-67.5" font-family="Helvetica,sans-Serif" font-size="10.00">scram::mef::CcfGroup</text>
<text text-anchor="middle" x="231" y="-56.5" font-family="Helvetica,sans-Serif" font-size="10.00">::ApplyModel</text>
</a>
</g>
</g>
<!-- Node1&#45;&gt;Node2 -->
<g id="edge1" class="edge"><title>Node1&#45;&gt;Node2</title>
<path fill="none" stroke="midnightblue" d="M124.345,-49.1432C140.691,-51.519 158.038,-54.0404 173.848,-56.3384"/>
<polygon fill="midnightblue" stroke="midnightblue" points="124.719,-45.6608 114.319,-47.6859 123.712,-52.588 124.719,-45.6608"/>
</g>
<!-- Node3 -->
<g id="node3" class="node"><title>Node3</title>
<g id="a_node3"><a xlink:href="reporter_8cc.xhtml#ad6460094a94fb73e56c2a4a5efc598ed" target="_top" xlink:title="Describes all performed analyses deduced from settings. ">
<polygon fill="white" stroke="black" points="150,-0.5 150,-30.5 312,-30.5 312,-0.5 150,-0.5"/>
<text text-anchor="start" x="158" y="-18.5" font-family="Helvetica,sans-Serif" font-size="10.00">scram::ReportCalculatedQuantity</text>
<text text-anchor="middle" x="231" y="-7.5" font-family="Helvetica,sans-Serif" font-size="10.00">&lt; core::RiskAnalysis &gt;</text>
</a>
</g>
</g>
<!-- Node1&#45;&gt;Node3 -->
<g id="edge2" class="edge"><title>Node1&#45;&gt;Node3</title>
<path fill="none" stroke="midnightblue" d="M124.35,-30.2419C132.697,-29.0771 141.306,-27.8759 149.838,-26.6854"/>
<polygon fill="midnightblue" stroke="midnightblue" points="123.74,-26.793 114.319,-31.6415 124.707,-33.7259 123.74,-26.793"/>
</g>
</g>
</svg>
