<?xml version="1.0" encoding="UTF-8" standalone="no"?>
<!DOCTYPE svg PUBLIC "-//W3C//DTD SVG 1.1//EN"
 "http://www.w3.org/Graphics/SVG/1.1/DTD/svg11.dtd">
<!-- Generated by graphviz version 2.38.0 (20140413.2041)
 -->
<!-- Title: scram::core::ImportanceAnalyzer&lt; Calculator &gt; Pages: 1 -->
<svg width="192pt" height="574pt"
 viewBox="0.00 0.00 192.00 574.00" xmlns="http://www.w3.org/2000/svg" xmlns:xlink="http://www.w3.org/1999/xlink">
<g id="graph0" class="graph" transform="scale(1 1) rotate(0) translate(4 570)">
<title>scram::core::ImportanceAnalyzer&lt; Calculator &gt;</title>
<polygon fill="white" stroke="none" points="-4,4 -4,-570 188,-570 188,4 -4,4"/>
<!-- Node1 -->
<g id="node1" class="node"><title>Node1</title>
<polygon fill="#bfbfbf" stroke="black" points="11.5,-0.5 11.5,-68.5 172.5,-68.5 172.5,-0.5 11.5,-0.5"/>
<text text-anchor="start" x="19.5" y="-56.5" font-family="Helvetica,sans-Serif" font-size="10.00">scram::core::ImportanceAnalyzer</text>
<text text-anchor="middle" x="92" y="-45.5" font-family="Helvetica,sans-Serif" font-size="10.00">&lt; Calculator &gt;</text>
<polyline fill="none" stroke="black" points="11.5,-38.5 172.5,-38.5 "/>
<text text-anchor="middle" x="92" y="-26.5" font-family="Helvetica,sans-Serif" font-size="10.00"> </text>
<polyline fill="none" stroke="black" points="11.5,-19.5 172.5,-19.5 "/>
<text text-anchor="start" x="19.5" y="-7.5" font-family="Helvetica,sans-Serif" font-size="10.00">+ ImportanceAnalyzer()</text>
</g>
<!-- Node2 -->
<g id="node2" class="node"><title>Node2</title>
<g id="a_node2"><a xlink:href="classscram_1_1core_1_1ImportanceAnalyzerBase.xhtml" target="_top" xlink:title="Base class for analyzers of importance factors with the help from probability analyzers. ">
<polygon fill="white" stroke="black" points="0,-105.5 0,-184.5 184,-184.5 184,-105.5 0,-105.5"/>
<text text-anchor="middle" x="92" y="-172.5" font-family="Helvetica,sans-Serif" font-size="10.00">scram::core::ImportanceAnalyzerBase</text>
<polyline fill="none" stroke="black" points="0,-165.5 184,-165.5 "/>
<text text-anchor="middle" x="92" y="-153.5" font-family="Helvetica,sans-Serif" font-size="10.00"> </text>
<polyline fill="none" stroke="black" points="0,-146.5 184,-146.5 "/>
<text text-anchor="start" x="8" y="-134.5" font-family="Helvetica,sans-Serif" font-size="10.00">+ ImportanceAnalyzerBase()</text>
<text text-anchor="start" x="8" y="-123.5" font-family="Helvetica,sans-Serif" font-size="10.00"># ~ImportanceAnalyzerBase()</text>
<text text-anchor="start" x="8" y="-112.5" font-family="Helvetica,sans-Serif" font-size="10.00"># prob_analyzer()</text>
</a>
</g>
</g>
<!-- Node2&#45;&gt;Node1 -->
<g id="edge1" class="edge"><title>Node2&#45;&gt;Node1</title>
<path fill="none" stroke="midnightblue" d="M92,-95.3492C92,-86.2824 92,-77.0048 92,-68.5439"/>
<polygon fill="none" stroke="midnightblue" points="88.5001,-95.4414 92,-105.441 95.5001,-95.4415 88.5001,-95.4414"/>
</g>
<!-- Node3 -->
<g id="node3" class="node"><title>Node3</title>
<g id="a_node3"><a xlink:href="classscram_1_1core_1_1ImportanceAnalysis.xhtml" target="_top" xlink:title="Analysis of importance factors of risk model variables. ">
<polygon fill="white" stroke="black" points="11.5,-221.5 11.5,-311.5 172.5,-311.5 172.5,-221.5 11.5,-221.5"/>
<text text-anchor="middle" x="92" y="-299.5" font-family="Helvetica,sans-Serif" font-size="10.00">scram::core::ImportanceAnalysis</text>
<polyline fill="none" stroke="black" points="11.5,-292.5 172.5,-292.5 "/>
<text text-anchor="middle" x="92" y="-280.5" font-family="Helvetica,sans-Serif" font-size="10.00"> </text>
<polyline fill="none" stroke="black" points="11.5,-273.5 172.5,-273.5 "/>
<text text-anchor="start" x="19.5" y="-261.5" font-family="Helvetica,sans-Serif" font-size="10.00">+ ImportanceAnalysis()</text>
<text text-anchor="start" x="19.5" y="-250.5" font-family="Helvetica,sans-Serif" font-size="10.00">+ ~ImportanceAnalysis()</text>
<text text-anchor="start" x="19.5" y="-239.5" font-family="Helvetica,sans-Serif" font-size="10.00">+ Analyze()</text>
<text text-anchor="start" x="19.5" y="-228.5" font-family="Helvetica,sans-Serif" font-size="10.00">+ importance()</text>
</a>
</g>
</g>
<!-- Node3&#45;&gt;Node2 -->
<g id="edge2" class="edge"><title>Node3&#45;&gt;Node2</title>
<path fill="none" stroke="midnightblue" d="M92,-211.079C92,-202.234 92,-193.233 92,-184.858"/>
<polygon fill="none" stroke="midnightblue" points="88.5001,-211.342 92,-221.342 95.5001,-211.342 88.5001,-211.342"/>
</g>
<!-- Node4 -->
<g id="node4" class="node"><title>Node4</title>
<g id="a_node4"><a xlink:href="classscram_1_1core_1_1Analysis.xhtml" target="_top" xlink:title="Base abstract class for all analysis with settings. ">
<polygon fill="white" stroke="black" points="36,-348.5 36,-471.5 148,-471.5 148,-348.5 36,-348.5"/>
<text text-anchor="middle" x="92" y="-459.5" font-family="Helvetica,sans-Serif" font-size="10.00">scram::core::Analysis</text>
<polyline fill="none" stroke="black" points="36,-452.5 148,-452.5 "/>
<text text-anchor="middle" x="92" y="-440.5" font-family="Helvetica,sans-Serif" font-size="10.00"> </text>
<polyline fill="none" stroke="black" points="36,-433.5 148,-433.5 "/>
<text text-anchor="start" x="44" y="-421.5" font-family="Helvetica,sans-Serif" font-size="10.00">+ Analysis()</text>
<text text-anchor="start" x="44" y="-410.5" font-family="Helvetica,sans-Serif" font-size="10.00">+ ~Analysis()</text>
<text text-anchor="start" x="44" y="-399.5" font-family="Helvetica,sans-Serif" font-size="10.00">+ settings()</text>
<text text-anchor="start" x="44" y="-388.5" font-family="Helvetica,sans-Serif" font-size="10.00">+ warnings()</text>
<text text-anchor="start" x="44" y="-377.5" font-family="Helvetica,sans-Serif" font-size="10.00">+ analysis_time()</text>
<text text-anchor="start" x="44" y="-366.5" font-family="Helvetica,sans-Serif" font-size="10.00"># AddWarning()</text>
<text text-anchor="start" x="44" y="-355.5" font-family="Helvetica,sans-Serif" font-size="10.00"># AddAnalysisTime()</text>
</a>
</g>
</g>
<!-- Node4&#45;&gt;Node3 -->
<g id="edge3" class="edge"><title>Node4&#45;&gt;Node3</title>
<path fill="none" stroke="midnightblue" d="M92,-338.033C92,-329.028 92,-320.028 92,-311.617"/>
<polygon fill="none" stroke="midnightblue" points="88.5001,-338.17 92,-348.17 95.5001,-338.17 88.5001,-338.17"/>
</g>
<!-- Node5 -->
<g id="node5" class="node"><title>Node5</title>
<polygon fill="white" stroke="#bfbfbf" points="56.5,-508.5 56.5,-565.5 127.5,-565.5 127.5,-508.5 56.5,-508.5"/>
<text text-anchor="middle" x="92" y="-553.5" font-family="Helvetica,sans-Serif" font-size="10.00">noncopyable</text>
<polyline fill="none" stroke="#bfbfbf" points="56.5,-546.5 127.5,-546.5 "/>
<text text-anchor="middle" x="92" y="-534.5" font-family="Helvetica,sans-Serif" font-size="10.00"> </text>
<polyline fill="none" stroke="#bfbfbf" points="56.5,-527.5 127.5,-527.5 "/>
<text text-anchor="middle" x="92" y="-515.5" font-family="Helvetica,sans-Serif" font-size="10.00"> </text>
</g>
<!-- Node5&#45;&gt;Node4 -->
<g id="edge4" class="edge"><title>Node5&#45;&gt;Node4</title>
<path fill="none" stroke="#8b1a1a" d="M92,-498.099C92,-489.739 92,-480.68 92,-471.672"/>
<polygon fill="none" stroke="#8b1a1a" points="88.5001,-498.258 92,-508.258 95.5001,-498.258 88.5001,-498.258"/>
</g>
</g>
</svg>
