<?xml version="1.0" encoding="UTF-8" standalone="no"?>
<!DOCTYPE svg PUBLIC "-//W3C//DTD SVG 1.1//EN"
 "http://www.w3.org/Graphics/SVG/1.1/DTD/svg11.dtd">
<!-- Generated by graphviz version 2.38.0 (20140413.2041)
 -->
<!-- Title: scram::core::Vertex::id Pages: 1 -->
<svg width="797pt" height="367pt"
 viewBox="0.00 0.00 797.00 367.00" xmlns="http://www.w3.org/2000/svg" xmlns:xlink="http://www.w3.org/1999/xlink">
<g id="graph0" class="graph" transform="scale(1 1) rotate(0) translate(4 363)">
<title>scram::core::Vertex::id</title>
<polygon fill="white" stroke="none" points="-4,4 -4,-363 793,-363 793,4 -4,4"/>
<!-- Node1 -->
<g id="node1" class="node"><title>Node1</title>
<polygon fill="#bfbfbf" stroke="black" points="0,-263 0,-282 116,-282 116,-263 0,-263"/>
<text text-anchor="middle" x="58" y="-270" font-family="Helvetica,sans-Serif" font-size="10.00">scram::core::Vertex::id</text>
</g>
<!-- Node2 -->
<g id="node2" class="node"><title>Node2</title>
<g id="a_node2"><a xlink:href="classscram_1_1core_1_1Terminal.xhtml#a7a25b0b40498f4876571a5dac4e724c3" target="_top" xlink:title="scram::core::Terminal\l::value">
<polygon fill="white" stroke="black" points="152,-257.5 152,-287.5 264,-287.5 264,-257.5 152,-257.5"/>
<text text-anchor="start" x="160" y="-275.5" font-family="Helvetica,sans-Serif" font-size="10.00">scram::core::Terminal</text>
<text text-anchor="middle" x="208" y="-264.5" font-family="Helvetica,sans-Serif" font-size="10.00">::value</text>
</a>
</g>
</g>
<!-- Node1&#45;&gt;Node2 -->
<g id="edge1" class="edge"><title>Node1&#45;&gt;Node2</title>
<path fill="none" stroke="midnightblue" d="M126.496,-272.5C134.992,-272.5 143.603,-272.5 151.877,-272.5"/>
<polygon fill="midnightblue" stroke="midnightblue" points="126.221,-269 116.221,-272.5 126.221,-276 126.221,-269"/>
</g>
<!-- Node3 -->
<g id="node3" class="node"><title>Node3</title>
<g id="a_node3"><a xlink:href="classscram_1_1core_1_1Zbdd.xhtml#a363960002737004ea45f67758d9ac17d" target="_top" xlink:title="Specialization of Apply for AND operator for any ZBDD vertices. ">
<polygon fill="white" stroke="black" points="300,-328.5 300,-358.5 402,-358.5 402,-328.5 300,-328.5"/>
<text text-anchor="start" x="308" y="-346.5" font-family="Helvetica,sans-Serif" font-size="10.00">scram::core::Zbdd::</text>
<text text-anchor="middle" x="351" y="-335.5" font-family="Helvetica,sans-Serif" font-size="10.00">Apply</text>
</a>
</g>
</g>
<!-- Node2&#45;&gt;Node3 -->
<g id="edge2" class="edge"><title>Node2&#45;&gt;Node3</title>
<path fill="none" stroke="midnightblue" d="M246.798,-292.336C263.108,-300.813 282.438,-310.752 300,-319.5 305.861,-322.419 312.136,-325.481 318.192,-328.404"/>
<polygon fill="midnightblue" stroke="midnightblue" points="248.066,-289.05 237.58,-287.533 244.832,-295.258 248.066,-289.05"/>
</g>
<!-- Node4 -->
<g id="node4" class="node"><title>Node4</title>
<g id="a_node4"><a xlink:href="classscram_1_1core_1_1Zbdd.xhtml#aeb83fd37f2aee74ac41e6ccadba82d39" target="_top" xlink:title="Removes constant modules from products. ">
<polygon fill="white" stroke="black" points="451.5,-235.5 451.5,-265.5 585.5,-265.5 585.5,-235.5 451.5,-235.5"/>
<text text-anchor="start" x="459.5" y="-253.5" font-family="Helvetica,sans-Serif" font-size="10.00">scram::core::Zbdd::</text>
<text text-anchor="middle" x="518.5" y="-242.5" font-family="Helvetica,sans-Serif" font-size="10.00">EliminateConstantModules</text>
</a>
</g>
</g>
<!-- Node2&#45;&gt;Node4 -->
<g id="edge3" class="edge"><title>Node2&#45;&gt;Node4</title>
<path fill="none" stroke="midnightblue" d="M274.282,-267.845C326.354,-264.131 398.98,-258.952 451.294,-255.221"/>
<polygon fill="midnightblue" stroke="midnightblue" points="273.879,-264.364 264.154,-268.567 274.377,-271.347 273.879,-264.364"/>
</g>
<!-- Node7 -->
<g id="node7" class="node"><title>Node7</title>
<g id="a_node7"><a xlink:href="classscram_1_1core_1_1Zbdd.xhtml#a516f0d2f35ad213399f83fb9ab102561" target="_top" xlink:title="Traverses ZBDD to find modules and adjusted cut&#45;offs. ">
<polygon fill="white" stroke="black" points="300,-279.5 300,-309.5 402,-309.5 402,-279.5 300,-279.5"/>
<text text-anchor="start" x="308" y="-297.5" font-family="Helvetica,sans-Serif" font-size="10.00">scram::core::Zbdd::</text>
<text text-anchor="middle" x="351" y="-286.5" font-family="Helvetica,sans-Serif" font-size="10.00">GatherModules</text>
</a>
</g>
</g>
<!-- Node2&#45;&gt;Node7 -->
<g id="edge6" class="edge"><title>Node2&#45;&gt;Node7</title>
<path fill="none" stroke="midnightblue" d="M274.326,-282.693C282.914,-284.033 291.605,-285.389 299.885,-286.681"/>
<polygon fill="midnightblue" stroke="midnightblue" points="274.742,-279.215 264.322,-281.132 273.663,-286.132 274.742,-279.215"/>
</g>
<!-- Node9 -->
<g id="node9" class="node"><title>Node9</title>
<g id="a_node9"><a xlink:href="classscram_1_1core_1_1Zbdd.xhtml#a3dbb8ef5da2882daf6c39e9724eae459" target="_top" xlink:title="Removes subsets in ZBDD. ">
<polygon fill="white" stroke="black" points="300,-147.5 300,-177.5 402,-177.5 402,-147.5 300,-147.5"/>
<text text-anchor="start" x="308" y="-165.5" font-family="Helvetica,sans-Serif" font-size="10.00">scram::core::Zbdd::</text>
<text text-anchor="middle" x="351" y="-154.5" font-family="Helvetica,sans-Serif" font-size="10.00">Minimize</text>
</a>
</g>
</g>
<!-- Node2&#45;&gt;Node9 -->
<g id="edge9" class="edge"><title>Node2&#45;&gt;Node9</title>
<path fill="none" stroke="midnightblue" d="M236.393,-251.13C264.037,-229.563 306.032,-196.801 330.471,-177.735"/>
<polygon fill="midnightblue" stroke="midnightblue" points="234.041,-248.525 228.31,-257.436 238.347,-254.044 234.041,-248.525"/>
</g>
<!-- Node5 -->
<g id="node5" class="node"><title>Node5</title>
<g id="a_node5"><a xlink:href="classscram_1_1core_1_1Zbdd.xhtml#af92e04ed908364e0177ce444d7b72712" target="_top" xlink:title="The common constructor to initialize member variables. ">
<polygon fill="white" stroke="black" points="650,-199 650,-218 774,-218 774,-199 650,-199"/>
<text text-anchor="middle" x="712" y="-206" font-family="Helvetica,sans-Serif" font-size="10.00">scram::core::Zbdd::Zbdd</text>
</a>
</g>
</g>
<!-- Node4&#45;&gt;Node5 -->
<g id="edge4" class="edge"><title>Node4&#45;&gt;Node5</title>
<path fill="none" stroke="midnightblue" d="M595.666,-233.795C620.136,-228.428 646.387,-222.671 667.655,-218.007"/>
<polygon fill="midnightblue" stroke="midnightblue" points="594.69,-230.426 585.672,-235.987 596.189,-237.264 594.69,-230.426"/>
</g>
<!-- Node6 -->
<g id="node6" class="node"><title>Node6</title>
<g id="a_node6"><a xlink:href="classscram_1_1core_1_1zbdd_1_1CutSetContainer.xhtml#a1022ad7a4699257a6f0c0809d8f1903d" target="_top" xlink:title="Removes constant modules from cut sets. ">
<polygon fill="white" stroke="black" points="644,-237 644,-278 780,-278 780,-237 644,-237"/>
<text text-anchor="start" x="652" y="-266" font-family="Helvetica,sans-Serif" font-size="10.00">scram::core::zbdd::</text>
<text text-anchor="start" x="652" y="-255" font-family="Helvetica,sans-Serif" font-size="10.00">CutSetContainer::Eliminate</text>
<text text-anchor="middle" x="712" y="-244" font-family="Helvetica,sans-Serif" font-size="10.00">ConstantModules</text>
</a>
</g>
</g>
<!-- Node4&#45;&gt;Node6 -->
<g id="edge5" class="edge"><title>Node4&#45;&gt;Node6</title>
<path fill="none" stroke="midnightblue" d="M595.956,-253.295C611.797,-253.874 628.373,-254.48 643.851,-255.045"/>
<polygon fill="midnightblue" stroke="midnightblue" points="595.793,-249.787 585.672,-252.919 595.537,-256.782 595.793,-249.787"/>
</g>
<!-- Node7&#45;&gt;Node5 -->
<g id="edge7" class="edge"><title>Node7&#45;&gt;Node5</title>
<path fill="none" stroke="midnightblue" d="M412.443,-303.185C465.016,-307.761 541.564,-307.029 599,-275.5 622.376,-262.668 612.784,-242.251 635,-227.5 640.892,-223.588 647.526,-220.481 654.357,-218.014"/>
<polygon fill="midnightblue" stroke="midnightblue" points="412.55,-299.679 402.261,-302.207 411.88,-306.647 412.55,-299.679"/>
</g>
<!-- Node8 -->
<g id="node8" class="node"><title>Node8</title>
<g id="a_node8"><a xlink:href="classscram_1_1core_1_1zbdd_1_1CutSetContainer.xhtml#a478c89f64731781882b50ec55898900b" target="_top" xlink:title="Gathers all module indices in the cut sets. ">
<polygon fill="white" stroke="black" points="438,-323.5 438,-353.5 599,-353.5 599,-323.5 438,-323.5"/>
<text text-anchor="start" x="446" y="-341.5" font-family="Helvetica,sans-Serif" font-size="10.00">scram::core::zbdd::</text>
<text text-anchor="middle" x="518.5" y="-330.5" font-family="Helvetica,sans-Serif" font-size="10.00">CutSetContainer::GatherModules</text>
</a>
</g>
</g>
<!-- Node7&#45;&gt;Node8 -->
<g id="edge8" class="edge"><title>Node7&#45;&gt;Node8</title>
<path fill="none" stroke="midnightblue" d="M411.878,-310.419C427.869,-314.671 445.097,-319.251 460.905,-323.454"/>
<polygon fill="midnightblue" stroke="midnightblue" points="412.668,-307.008 402.105,-307.821 410.87,-313.773 412.668,-307.008"/>
</g>
<!-- Node9&#45;&gt;Node4 -->
<g id="edge17" class="edge"><title>Node9&#45;&gt;Node4</title>
<path fill="none" stroke="midnightblue" d="M379.744,-183.635C396.112,-195.475 417.565,-209.937 438,-220.5 448.746,-226.055 460.764,-231.129 472.138,-235.461"/>
<polygon fill="midnightblue" stroke="midnightblue" points="381.813,-180.812 371.681,-177.717 377.672,-186.455 381.813,-180.812"/>
</g>
<!-- Node9&#45;&gt;Node5 -->
<g id="edge12" class="edge"><title>Node9&#45;&gt;Node5</title>
<path fill="none" stroke="midnightblue" d="M409.54,-180.192C418.98,-182.621 428.712,-184.846 438,-186.5 510.091,-199.342 594.24,-204.694 649.852,-206.921"/>
<polygon fill="midnightblue" stroke="midnightblue" points="410.403,-176.8 399.838,-177.601 408.597,-183.563 410.403,-176.8"/>
</g>
<!-- Node10 -->
<g id="node10" class="node"><title>Node10</title>
<g id="a_node10"><a xlink:href="classscram_1_1core_1_1Zbdd.xhtml#a77945d28bd832d2735969d0b0a451c78" target="_top" xlink:title="Runs the analysis with the representation of a PDAG as ZBDD. ">
<polygon fill="white" stroke="black" points="467.5,-49.5 467.5,-79.5 569.5,-79.5 569.5,-49.5 467.5,-49.5"/>
<text text-anchor="start" x="475.5" y="-67.5" font-family="Helvetica,sans-Serif" font-size="10.00">scram::core::Zbdd::</text>
<text text-anchor="middle" x="518.5" y="-56.5" font-family="Helvetica,sans-Serif" font-size="10.00">Analyze</text>
</a>
</g>
</g>
<!-- Node9&#45;&gt;Node10 -->
<g id="edge10" class="edge"><title>Node9&#45;&gt;Node10</title>
<path fill="none" stroke="midnightblue" d="M373.16,-139.776C389.481,-123.449 413.366,-102.017 438,-88.5 447.1,-83.5064 457.37,-79.4232 467.432,-76.1334"/>
<polygon fill="midnightblue" stroke="midnightblue" points="370.27,-137.726 365.785,-147.325 375.277,-142.618 370.27,-137.726"/>
</g>
<!-- Node12 -->
<g id="node12" class="node"><title>Node12</title>
<g id="a_node12"><a xlink:href="classscram_1_1core_1_1Zbdd.xhtml#a499a8bc4bc3854e7b2928c08515243cf" target="_top" xlink:title="Specialization of Apply for AND operator for non&#45;terminal ZBDD vertices. ">
<polygon fill="white" stroke="black" points="467.5,-98.5 467.5,-128.5 569.5,-128.5 569.5,-98.5 467.5,-98.5"/>
<text text-anchor="start" x="475.5" y="-116.5" font-family="Helvetica,sans-Serif" font-size="10.00">scram::core::Zbdd::</text>
<text text-anchor="middle" x="518.5" y="-105.5" font-family="Helvetica,sans-Serif" font-size="10.00">Apply</text>
</a>
</g>
</g>
<!-- Node9&#45;&gt;Node12 -->
<g id="edge13" class="edge"><title>Node9&#45;&gt;Node12</title>
<path fill="none" stroke="midnightblue" d="M411.742,-144.812C429.949,-139.421 449.77,-133.553 467.28,-128.369"/>
<polygon fill="midnightblue" stroke="midnightblue" points="410.7,-141.47 402.105,-147.665 412.687,-148.182 410.7,-141.47"/>
</g>
<!-- Node13 -->
<g id="node13" class="node"><title>Node13</title>
<g id="a_node13"><a xlink:href="classscram_1_1core_1_1Zbdd.xhtml#ac3ac27090b550d973b20bd971c3de9f9" target="_top" xlink:title="Removes complements of variables from products. ">
<polygon fill="white" stroke="black" points="459.5,-147.5 459.5,-177.5 577.5,-177.5 577.5,-147.5 459.5,-147.5"/>
<text text-anchor="start" x="467.5" y="-165.5" font-family="Helvetica,sans-Serif" font-size="10.00">scram::core::Zbdd::</text>
<text text-anchor="middle" x="518.5" y="-154.5" font-family="Helvetica,sans-Serif" font-size="10.00">EliminateComplements</text>
</a>
</g>
</g>
<!-- Node9&#45;&gt;Node13 -->
<g id="edge14" class="edge"><title>Node9&#45;&gt;Node13</title>
<path fill="none" stroke="midnightblue" d="M412.505,-162.5C427.823,-162.5 444.239,-162.5 459.433,-162.5"/>
<polygon fill="midnightblue" stroke="midnightblue" points="412.105,-159 402.105,-162.5 412.105,-166 412.105,-159"/>
</g>
<!-- Node15 -->
<g id="node15" class="node"><title>Node15</title>
<g id="a_node15"><a xlink:href="classscram_1_1core_1_1zbdd_1_1CutSetContainer.xhtml#a1648d3f24a95302fac2a40e95f743dda" target="_top" xlink:title="Minimizes cut sets in the container. ">
<polygon fill="white" stroke="black" points="451.5,-0.5 451.5,-30.5 585.5,-30.5 585.5,-0.5 451.5,-0.5"/>
<text text-anchor="start" x="459.5" y="-18.5" font-family="Helvetica,sans-Serif" font-size="10.00">scram::core::zbdd::</text>
<text text-anchor="middle" x="518.5" y="-7.5" font-family="Helvetica,sans-Serif" font-size="10.00">CutSetContainer::Minimize</text>
</a>
</g>
</g>
<!-- Node9&#45;&gt;Node15 -->
<g id="edge18" class="edge"><title>Node9&#45;&gt;Node15</title>
<path fill="none" stroke="midnightblue" d="M362.891,-138.078C376.538,-110.218 402.513,-65.206 438,-39.5 442.787,-36.0323 448.08,-33.0598 453.594,-30.5127"/>
<polygon fill="midnightblue" stroke="midnightblue" points="359.708,-136.623 358.583,-147.158 366.032,-139.624 359.708,-136.623"/>
</g>
<!-- Node11 -->
<g id="node11" class="node"><title>Node11</title>
<g id="a_node11"><a xlink:href="classscram_1_1core_1_1FaultTreeAnalyzer.xhtml#aedae0c884539dab245018194771f5021" target="_top" xlink:title="scram::core::FaultTreeAnalyzer\l::algorithm">
<polygon fill="white" stroke="black" points="635,-49.5 635,-79.5 789,-79.5 789,-49.5 635,-49.5"/>
<text text-anchor="start" x="643" y="-67.5" font-family="Helvetica,sans-Serif" font-size="10.00">scram::core::FaultTreeAnalyzer</text>
<text text-anchor="middle" x="712" y="-56.5" font-family="Helvetica,sans-Serif" font-size="10.00">::algorithm</text>
</a>
</g>
</g>
<!-- Node10&#45;&gt;Node11 -->
<g id="edge11" class="edge"><title>Node10&#45;&gt;Node11</title>
<path fill="none" stroke="midnightblue" d="M579.83,-64.5C597.233,-64.5 616.453,-64.5 634.691,-64.5"/>
<polygon fill="midnightblue" stroke="midnightblue" points="579.814,-61.0001 569.814,-64.5 579.814,-68.0001 579.814,-61.0001"/>
</g>
<!-- Node13&#45;&gt;Node5 -->
<g id="edge15" class="edge"><title>Node13&#45;&gt;Node5</title>
<path fill="none" stroke="midnightblue" d="M587.491,-178.832C615.531,-185.567 647.047,-193.138 671.224,-198.946"/>
<polygon fill="midnightblue" stroke="midnightblue" points="588.277,-175.421 577.736,-176.489 586.642,-182.228 588.277,-175.421"/>
</g>
<!-- Node14 -->
<g id="node14" class="node"><title>Node14</title>
<g id="a_node14"><a xlink:href="classscram_1_1core_1_1zbdd_1_1CutSetContainer.xhtml#a49532388bd9b917f4351f94f728518aa" target="_top" xlink:title="Eliminates all complements from cut sets. ">
<polygon fill="white" stroke="black" points="644,-139 644,-180 780,-180 780,-139 644,-139"/>
<text text-anchor="start" x="652" y="-168" font-family="Helvetica,sans-Serif" font-size="10.00">scram::core::zbdd::</text>
<text text-anchor="start" x="652" y="-157" font-family="Helvetica,sans-Serif" font-size="10.00">CutSetContainer::Eliminate</text>
<text text-anchor="middle" x="712" y="-146" font-family="Helvetica,sans-Serif" font-size="10.00">Complements</text>
</a>
</g>
</g>
<!-- Node13&#45;&gt;Node14 -->
<g id="edge16" class="edge"><title>Node13&#45;&gt;Node14</title>
<path fill="none" stroke="midnightblue" d="M587.979,-161.427C606.194,-161.142 625.844,-160.834 643.98,-160.55"/>
<polygon fill="midnightblue" stroke="midnightblue" points="587.68,-157.931 577.736,-161.588 587.79,-164.931 587.68,-157.931"/>
</g>
</g>
</svg>
