<?xml version="1.0" encoding="UTF-8" standalone="no"?>
<!DOCTYPE svg PUBLIC "-//W3C//DTD SVG 1.1//EN"
 "http://www.w3.org/Graphics/SVG/1.1/DTD/svg11.dtd">
<!-- Generated by graphviz version 2.38.0 (20140413.2041)
 -->
<!-- Title: scram::core::Settings::approximation Pages: 1 -->
<svg width="267pt" height="127pt"
 viewBox="0.00 0.00 267.00 127.00" xmlns="http://www.w3.org/2000/svg" xmlns:xlink="http://www.w3.org/1999/xlink">
<g id="graph0" class="graph" transform="scale(1 1) rotate(0) translate(4 123)">
<title>scram::core::Settings::approximation</title>
<polygon fill="white" stroke="none" points="-4,4 -4,-123 263,-123 263,4 -4,4"/>
<!-- Node1 -->
<g id="node1" class="node"><title>Node1</title>
<polygon fill="#bfbfbf" stroke="black" points="0,-44.5 0,-74.5 110,-74.5 110,-44.5 0,-44.5"/>
<text text-anchor="start" x="8" y="-62.5" font-family="Helvetica,sans-Serif" font-size="10.00">scram::core::Settings</text>
<text text-anchor="middle" x="55" y="-51.5" font-family="Helvetica,sans-Serif" font-size="10.00">::approximation</text>
</g>
<!-- Node2 -->
<g id="node2" class="node"><title>Node2</title>
<g id="a_node2"><a xlink:href="classscram_1_1core_1_1Settings.xhtml#a39fc1d02ccb0d9177925e43bbdb5d49b" target="_top" xlink:title="Sets the approximation for quantitative analysis. ">
<polygon fill="white" stroke="black" points="147.5,-88.5 147.5,-118.5 257.5,-118.5 257.5,-88.5 147.5,-88.5"/>
<text text-anchor="start" x="155.5" y="-106.5" font-family="Helvetica,sans-Serif" font-size="10.00">scram::core::Settings</text>
<text text-anchor="middle" x="202.5" y="-95.5" font-family="Helvetica,sans-Serif" font-size="10.00">::approximation</text>
</a>
</g>
</g>
<!-- Node1&#45;&gt;Node2 -->
<g id="edge1" class="edge"><title>Node1&#45;&gt;Node2</title>
<path fill="none" stroke="midnightblue" d="M115.565,-77.5129C127.524,-81.1292 139.974,-84.8941 151.564,-88.3991"/>
<polygon fill="midnightblue" stroke="midnightblue" points="116.251,-74.0637 105.666,-74.5192 114.225,-80.7641 116.251,-74.0637"/>
</g>
<!-- Node3 -->
<g id="node3" class="node"><title>Node3</title>
<g id="a_node3"><a xlink:href="classscram_1_1Config.xhtml#ab0d7940fbb627fab9867821e133eab5d" target="_top" xlink:title="A constructor with configurations for analysis. ">
<polygon fill="white" stroke="black" points="146,-50 146,-69 259,-69 259,-50 146,-50"/>
<text text-anchor="middle" x="202.5" y="-57" font-family="Helvetica,sans-Serif" font-size="10.00">scram::Config::Config</text>
</a>
</g>
</g>
<!-- Node1&#45;&gt;Node3 -->
<g id="edge2" class="edge"><title>Node1&#45;&gt;Node3</title>
<path fill="none" stroke="midnightblue" d="M120.407,-59.5C128.88,-59.5 137.507,-59.5 145.818,-59.5"/>
<polygon fill="midnightblue" stroke="midnightblue" points="120.179,-56.0001 110.179,-59.5 120.179,-63.0001 120.179,-56.0001"/>
</g>
<!-- Node4 -->
<g id="node4" class="node"><title>Node4</title>
<g id="a_node4"><a xlink:href="classscram_1_1core_1_1Settings.xhtml#a738f782afa0f5dba1ffec83caff540e3" target="_top" xlink:title="Sets a flag to calculate prime implicants instead of minimal cut sets. ">
<polygon fill="white" stroke="black" points="147.5,-0.5 147.5,-30.5 257.5,-30.5 257.5,-0.5 147.5,-0.5"/>
<text text-anchor="start" x="155.5" y="-18.5" font-family="Helvetica,sans-Serif" font-size="10.00">scram::core::Settings</text>
<text text-anchor="middle" x="202.5" y="-7.5" font-family="Helvetica,sans-Serif" font-size="10.00">::prime_implicants</text>
</a>
</g>
</g>
<!-- Node1&#45;&gt;Node4 -->
<g id="edge3" class="edge"><title>Node1&#45;&gt;Node4</title>
<path fill="none" stroke="midnightblue" d="M115.565,-41.4871C127.524,-37.8708 139.974,-34.1059 151.564,-30.6009"/>
<polygon fill="midnightblue" stroke="midnightblue" points="114.225,-38.2359 105.666,-44.4808 116.251,-44.9363 114.225,-38.2359"/>
</g>
</g>
</svg>
