<?xml version="1.0" encoding="UTF-8" standalone="no"?>
<!DOCTYPE svg PUBLIC "-//W3C//DTD SVG 1.1//EN"
 "http://www.w3.org/Graphics/SVG/1.1/DTD/svg11.dtd">
<!-- Generated by graphviz version 2.38.0 (20140413.2041)
 -->
<!-- Title: scram::core::Preprocessor::DetermineGateState Pages: 1 -->
<!--zoomable 197 -->
<svg id="main" version="1.1" xmlns="http://www.w3.org/2000/svg" xmlns:xlink="http://www.w3.org/1999/xlink" xml:space="preserve" onload="init(evt)">
<style type="text/css"><![CDATA[
.edge:hover path { stroke: red; }
.edge:hover polygon { stroke: red; fill: red; }
]]></style>
<script type="text/javascript"><![CDATA[
var edges = document.getElementsByTagName('g');
if (edges && edges.length) {
  for (var i=0;i<edges.length;i++) {
    if (edges[i].id.substr(0,4)=='edge') {
      edges[i].setAttribute('class','edge');
    }
  }
}
]]></script>
        <defs>
                <circle id="rim" cx="0" cy="0" r="7"/>
                <circle id="rim2" cx="0" cy="0" r="3.5"/>
                <g id="zoomPlus">
                        <use xlink:href="#rim" fill="#404040">
                                <set attributeName="fill" to="#808080" begin="zoomplus.mouseover" end="zoomplus.mouseout"/>
                        </use>
                        <path d="M-4,0h8M0,-4v8" fill="none" stroke="white" stroke-width="1.5" pointer-events="none"/>
                </g>
                <g id="zoomMin">
                        <use xlink:href="#rim" fill="#404040">
                                <set attributeName="fill" to="#808080" begin="zoomminus.mouseover" end="zoomminus.mouseout"/>
                        </use>
                        <path d="M-4,0h8" fill="none" stroke="white" stroke-width="1.5" pointer-events="none"/>
                </g>
                <g id="dirArrow">
                        <path fill="none" stroke="white" stroke-width="1.5" d="M0,-3.0v7 M-2.5,-0.5L0,-3.0L2.5,-0.5"/>
                </g>
               <g id="resetDef">
                       <use xlink:href="#rim2" fill="#404040">
                               <set attributeName="fill" to="#808080" begin="reset.mouseover" end="reset.mouseout"/>
                       </use>
               </g>
        </defs>

<script type="text/javascript">
var viewWidth = 1543;
var viewHeight = 197;
var sectionId = 'dynsection-74';
</script>
<script xlink:href="svgpan.js"/>
<svg id="graph" class="graph">
<g id="viewport">
<title>scram::core::Preprocessor::DetermineGateState</title>
<polygon fill="white" stroke="none" points="-4,4 -4,-193.192 1539,-193.192 1539,4 -4,4"/>
<!-- Node1 -->
<g id="node1" class="node"><title>Node1</title>
<polygon fill="#bfbfbf" stroke="black" points="0,-84.5 0,-114.5 132,-114.5 132,-84.5 0,-84.5"/>
<text text-anchor="start" x="8" y="-102.5" font-family="Helvetica,sans-Serif" font-size="10.00">scram::core::Preprocessor</text>
<text text-anchor="middle" x="66" y="-91.5" font-family="Helvetica,sans-Serif" font-size="10.00">::DetermineGateState</text>
</g>
<!-- Node2 -->
<g id="node2" class="node"><title>Node2</title>
<g id="a_node2"><a xlink:href="classscram_1_1core_1_1Preprocessor.xhtml#ae9a8bac98061d7f82633486ed6a36861" target="_top" xlink:title="Propagates failure or success of a common node by setting its ancestors&#39; optimization values to 1 or ...">
<polygon fill="white" stroke="black" points="168,-84.5 168,-114.5 300,-114.5 300,-84.5 168,-84.5"/>
<text text-anchor="start" x="176" y="-102.5" font-family="Helvetica,sans-Serif" font-size="10.00">scram::core::Preprocessor</text>
<text text-anchor="middle" x="234" y="-91.5" font-family="Helvetica,sans-Serif" font-size="10.00">::PropagateState</text>
</a>
</g>
</g>
<!-- Node1&#45;&gt;Node2 -->
<g id="edge1" class="edge"><title>Node1&#45;&gt;Node2</title>
<path fill="none" stroke="midnightblue" d="M142.393,-99.5C150.869,-99.5 159.452,-99.5 167.784,-99.5"/>
<polygon fill="midnightblue" stroke="midnightblue" points="142.131,-96.0001 132.131,-99.5 142.131,-103 142.131,-96.0001"/>
</g>
<!-- Node3 -->
<g id="node3" class="node"><title>Node3</title>
<g id="a_node3"><a xlink:href="classscram_1_1core_1_1Preprocessor.xhtml#a4086c57695d49b4770915d5d53bd47de" target="_top" xlink:title="Tries to simplify the graph by removing redundancies generated by a common node. ">
<polygon fill="white" stroke="black" points="336,-84.5 336,-114.5 468,-114.5 468,-84.5 336,-84.5"/>
<text text-anchor="start" x="344" y="-102.5" font-family="Helvetica,sans-Serif" font-size="10.00">scram::core::Preprocessor</text>
<text text-anchor="middle" x="402" y="-91.5" font-family="Helvetica,sans-Serif" font-size="10.00">::ProcessCommonNode</text>
</a>
</g>
</g>
<!-- Node2&#45;&gt;Node3 -->
<g id="edge2" class="edge"><title>Node2&#45;&gt;Node3</title>
<path fill="none" stroke="midnightblue" d="M310.393,-99.5C318.869,-99.5 327.452,-99.5 335.784,-99.5"/>
<polygon fill="midnightblue" stroke="midnightblue" points="310.131,-96.0001 300.131,-99.5 310.131,-103 310.131,-96.0001"/>
</g>
<!-- Node4 -->
<g id="node4" class="node"><title>Node4</title>
<g id="a_node4"><a xlink:href="classscram_1_1core_1_1Preprocessor.xhtml#aebc709ad2e097c24e837889a6a9e4696" target="_top" xlink:title="Propagates failures of common nodes to detect redundancy. ">
<polygon fill="white" stroke="black" points="504,-84.5 504,-114.5 636,-114.5 636,-84.5 504,-84.5"/>
<text text-anchor="start" x="512" y="-102.5" font-family="Helvetica,sans-Serif" font-size="10.00">scram::core::Preprocessor</text>
<text text-anchor="middle" x="570" y="-91.5" font-family="Helvetica,sans-Serif" font-size="10.00">::BooleanOptimization</text>
</a>
</g>
</g>
<!-- Node3&#45;&gt;Node4 -->
<g id="edge3" class="edge"><title>Node3&#45;&gt;Node4</title>
<path fill="none" stroke="midnightblue" d="M478.393,-99.5C486.869,-99.5 495.452,-99.5 503.784,-99.5"/>
<polygon fill="midnightblue" stroke="midnightblue" points="478.131,-96.0001 468.131,-99.5 478.131,-103 478.131,-96.0001"/>
</g>
<!-- Node5 -->
<g id="node5" class="node"><title>Node5</title>
<g id="a_node5"><a xlink:href="classscram_1_1core_1_1Preprocessor.xhtml#a9d5f89471499508eb9e6c01ea43e0f15" target="_top" xlink:title="Preprocessing phase of the original structure of the graph. ">
<polygon fill="white" stroke="black" points="672,-84.5 672,-114.5 804,-114.5 804,-84.5 672,-84.5"/>
<text text-anchor="start" x="680" y="-102.5" font-family="Helvetica,sans-Serif" font-size="10.00">scram::core::Preprocessor</text>
<text text-anchor="middle" x="738" y="-91.5" font-family="Helvetica,sans-Serif" font-size="10.00">::RunPhaseTwo</text>
</a>
</g>
</g>
<!-- Node4&#45;&gt;Node5 -->
<g id="edge4" class="edge"><title>Node4&#45;&gt;Node5</title>
<path fill="none" stroke="midnightblue" d="M646.393,-99.5C654.869,-99.5 663.452,-99.5 671.784,-99.5"/>
<polygon fill="midnightblue" stroke="midnightblue" points="646.131,-96.0001 636.131,-99.5 646.131,-103 646.131,-96.0001"/>
</g>
<!-- Node6 -->
<g id="node6" class="node"><title>Node6</title>
<g id="a_node6"><a xlink:href="classscram_1_1core_1_1Preprocessor.xhtml#a5ee92284aef510ce01a71c962d50f51c" target="_top" xlink:title="Runs the graph preprocessing. ">
<polygon fill="white" stroke="black" points="1217.5,-93.5 1217.5,-123.5 1349.5,-123.5 1349.5,-93.5 1217.5,-93.5"/>
<text text-anchor="start" x="1225.5" y="-111.5" font-family="Helvetica,sans-Serif" font-size="10.00">scram::core::Preprocessor</text>
<text text-anchor="middle" x="1283.5" y="-100.5" font-family="Helvetica,sans-Serif" font-size="10.00">::operator()</text>
</a>
</g>
</g>
<!-- Node5&#45;&gt;Node6 -->
<g id="edge5" class="edge"><title>Node5&#45;&gt;Node6</title>
<path fill="none" stroke="midnightblue" d="M762.519,-121.343C781.733,-137.603 810.457,-158.482 840,-167.5 977.988,-209.623 1024.19,-183.095 1164,-147.5 1180.8,-143.224 1183.65,-138.263 1200,-132.5 1208.86,-129.375 1218.36,-126.335 1227.64,-123.527"/>
<polygon fill="midnightblue" stroke="midnightblue" points="764.733,-118.63 754.892,-114.705 760.137,-123.91 764.733,-118.63"/>
</g>
<!-- Node8 -->
<g id="node8" class="node"><title>Node8</title>
<g id="a_node8"><a xlink:href="classscram_1_1core_1_1Preprocessor.xhtml#a2b6705e815fa3d02119c405b483766d5" target="_top" xlink:title="Container of unique gates by semantics. ">
<polygon fill="white" stroke="black" points="1008,-99 1008,-118 1164,-118 1164,-99 1008,-99"/>
<text text-anchor="middle" x="1086" y="-106" font-family="Helvetica,sans-Serif" font-size="10.00">scram::core::Preprocessor::Run</text>
</a>
</g>
</g>
<!-- Node5&#45;&gt;Node8 -->
<g id="edge7" class="edge"><title>Node5&#45;&gt;Node8</title>
<path fill="none" stroke="midnightblue" d="M814.158,-101.455C871.44,-102.945 950.044,-104.99 1007.82,-106.492"/>
<polygon fill="midnightblue" stroke="midnightblue" points="814.168,-97.9541 804.08,-101.193 813.986,-104.952 814.168,-97.9541"/>
</g>
<!-- Node11 -->
<g id="node11" class="node"><title>Node11</title>
<g id="a_node11"><a xlink:href="classscram_1_1core_1_1Preprocessor.xhtml#a3569bbcd5e863c750cdfa69115399600" target="_top" xlink:title="The final phase that cleans up the graph, and puts the structure of the graph ready for analysis...">
<polygon fill="white" stroke="black" points="1020,-0.5 1020,-30.5 1152,-30.5 1152,-0.5 1020,-0.5"/>
<text text-anchor="start" x="1028" y="-18.5" font-family="Helvetica,sans-Serif" font-size="10.00">scram::core::Preprocessor</text>
<text text-anchor="middle" x="1086" y="-7.5" font-family="Helvetica,sans-Serif" font-size="10.00">::RunPhaseFive</text>
</a>
</g>
</g>
<!-- Node5&#45;&gt;Node11 -->
<g id="edge11" class="edge"><title>Node5&#45;&gt;Node11</title>
<path fill="none" stroke="midnightblue" d="M806.389,-81.9577C817.605,-79.0941 829.124,-76.1871 840,-73.5 900.894,-58.4559 970.502,-42.0533 1019.92,-30.5423"/>
<polygon fill="midnightblue" stroke="midnightblue" points="805.453,-78.5843 796.635,-84.4565 807.191,-85.3654 805.453,-78.5843"/>
</g>
<!-- Node12 -->
<g id="node12" class="node"><title>Node12</title>
<g id="a_node12"><a xlink:href="classscram_1_1core_1_1Preprocessor.xhtml#a5c224938dfba861f061525658bd7b156" target="_top" xlink:title="Propagation of complements. ">
<polygon fill="white" stroke="black" points="1020,-49.5 1020,-79.5 1152,-79.5 1152,-49.5 1020,-49.5"/>
<text text-anchor="start" x="1028" y="-67.5" font-family="Helvetica,sans-Serif" font-size="10.00">scram::core::Preprocessor</text>
<text text-anchor="middle" x="1086" y="-56.5" font-family="Helvetica,sans-Serif" font-size="10.00">::RunPhaseFour</text>
</a>
</g>
</g>
<!-- Node5&#45;&gt;Node12 -->
<g id="edge14" class="edge"><title>Node5&#45;&gt;Node12</title>
<path fill="none" stroke="midnightblue" d="M814.097,-91.9035C875.493,-85.6929 961.413,-77.0015 1019.92,-71.0834"/>
<polygon fill="midnightblue" stroke="midnightblue" points="813.677,-88.428 804.08,-92.9168 814.381,-95.3925 813.677,-88.428"/>
</g>
<!-- Node13 -->
<g id="node13" class="node"><title>Node13</title>
<g id="a_node13"><a xlink:href="classscram_1_1core_1_1Preprocessor.xhtml#abf2c66723172a85b2ae87ef2a034cd1f" target="_top" xlink:title="Application of gate normalization. ">
<polygon fill="white" stroke="black" points="840,-128.5 840,-158.5 972,-158.5 972,-128.5 840,-128.5"/>
<text text-anchor="start" x="848" y="-146.5" font-family="Helvetica,sans-Serif" font-size="10.00">scram::core::Preprocessor</text>
<text text-anchor="middle" x="906" y="-135.5" font-family="Helvetica,sans-Serif" font-size="10.00">::RunPhaseThree</text>
</a>
</g>
</g>
<!-- Node5&#45;&gt;Node13 -->
<g id="edge17" class="edge"><title>Node5&#45;&gt;Node13</title>
<path fill="none" stroke="midnightblue" d="M805.378,-117.094C819.598,-120.863 834.496,-124.812 848.31,-128.474"/>
<polygon fill="midnightblue" stroke="midnightblue" points="806.226,-113.698 795.663,-114.519 804.433,-120.465 806.226,-113.698"/>
</g>
<!-- Node7 -->
<g id="node7" class="node"><title>Node7</title>
<g id="a_node7"><a xlink:href="classscram_1_1core_1_1Preprocessor_1_1GateSet.xhtml#ae00239084858979e096032c4cf2f05b9" target="_top" xlink:title="Inserts a gate into the set if it is semantically unique. ">
<polygon fill="white" stroke="black" points="1403,-93.5 1403,-123.5 1535,-123.5 1535,-93.5 1403,-93.5"/>
<text text-anchor="start" x="1411" y="-111.5" font-family="Helvetica,sans-Serif" font-size="10.00">scram::core::Preprocessor</text>
<text text-anchor="middle" x="1469" y="-100.5" font-family="Helvetica,sans-Serif" font-size="10.00">::GateSet::insert</text>
</a>
</g>
</g>
<!-- Node6&#45;&gt;Node7 -->
<g id="edge6" class="edge"><title>Node6&#45;&gt;Node7</title>
<path fill="none" stroke="midnightblue" d="M1359.99,-108.5C1374.26,-108.5 1389.08,-108.5 1403,-108.5"/>
<polygon fill="midnightblue" stroke="midnightblue" points="1359.71,-105 1349.71,-108.5 1359.71,-112 1359.71,-105"/>
</g>
<!-- Node8&#45;&gt;Node6 -->
<g id="edge9" class="edge"><title>Node8&#45;&gt;Node6</title>
<path fill="none" stroke="midnightblue" d="M1174.67,-108.5C1189.06,-108.5 1203.74,-108.5 1217.46,-108.5"/>
<polygon fill="midnightblue" stroke="midnightblue" points="1174.27,-105 1164.27,-108.5 1174.27,-112 1174.27,-105"/>
</g>
<!-- Node9 -->
<g id="node9" class="node"><title>Node9</title>
<g id="a_node9"><a xlink:href="classscram_1_1core_1_1Preprocessor.xhtml#a9caf4677a024ed935d831210b57b8ed9" target="_top" xlink:title="Gathers nodes in the sub&#45;graph. ">
<polygon fill="white" stroke="black" points="1217.5,-142.5 1217.5,-172.5 1349.5,-172.5 1349.5,-142.5 1217.5,-142.5"/>
<text text-anchor="start" x="1225.5" y="-160.5" font-family="Helvetica,sans-Serif" font-size="10.00">scram::core::Preprocessor</text>
<text text-anchor="middle" x="1283.5" y="-149.5" font-family="Helvetica,sans-Serif" font-size="10.00">::GatherNodes</text>
</a>
</g>
</g>
<!-- Node8&#45;&gt;Node9 -->
<g id="edge8" class="edge"><title>Node8&#45;&gt;Node9</title>
<path fill="none" stroke="midnightblue" d="M1134.93,-120.514C1161.35,-127.135 1194.39,-135.416 1222.51,-142.463"/>
<polygon fill="midnightblue" stroke="midnightblue" points="1135.71,-117.1 1125.16,-118.064 1134.01,-123.89 1135.71,-117.1"/>
</g>
<!-- Node10 -->
<g id="node10" class="node"><title>Node10</title>
<g id="a_node10"><a xlink:href="classscram_1_1core_1_1CustomPreprocessor_3_01Zbdd_01_4.xhtml#a5185075f852c647c7aa4313d23420ee5" target="_top" xlink:title="Performs preprocessing for analyses with Zero&#45;Suppressed Binary Decision Diagrams. ">
<polygon fill="white" stroke="black" points="1200,-44.5 1200,-74.5 1367,-74.5 1367,-44.5 1200,-44.5"/>
<text text-anchor="start" x="1208" y="-62.5" font-family="Helvetica,sans-Serif" font-size="10.00">scram::core::CustomPreprocessor</text>
<text text-anchor="middle" x="1283.5" y="-51.5" font-family="Helvetica,sans-Serif" font-size="10.00">&lt; Zbdd &gt;::Run</text>
</a>
</g>
</g>
<!-- Node8&#45;&gt;Node10 -->
<g id="edge10" class="edge"><title>Node8&#45;&gt;Node10</title>
<path fill="none" stroke="midnightblue" d="M1134.93,-96.4858C1161.35,-89.865 1194.39,-81.5839 1222.51,-74.537"/>
<polygon fill="midnightblue" stroke="midnightblue" points="1134.01,-93.1097 1125.16,-98.936 1135.71,-99.8997 1134.01,-93.1097"/>
</g>
<!-- Node11&#45;&gt;Node6 -->
<g id="edge12" class="edge"><title>Node11&#45;&gt;Node6</title>
<path fill="none" stroke="midnightblue" d="M1156.51,-34.961C1159.1,-36.3737 1161.61,-37.8846 1164,-39.5 1184.94,-53.6332 1179,-69.4498 1200,-83.5 1205.72,-87.3282 1212.05,-90.5879 1218.58,-93.3596"/>
<polygon fill="midnightblue" stroke="midnightblue" points="1157.97,-31.7795 1147.45,-30.5266 1154.89,-38.0667 1157.97,-31.7795"/>
</g>
<!-- Node11&#45;&gt;Node10 -->
<g id="edge13" class="edge"><title>Node11&#45;&gt;Node10</title>
<path fill="none" stroke="midnightblue" d="M1162.31,-32.4503C1179.89,-36.4071 1198.5,-40.5943 1215.68,-44.4615"/>
<polygon fill="midnightblue" stroke="midnightblue" points="1162.62,-28.9326 1152.1,-30.1514 1161.09,-35.7617 1162.62,-28.9326"/>
</g>
<!-- Node12&#45;&gt;Node6 -->
<g id="edge15" class="edge"><title>Node12&#45;&gt;Node6</title>
<path fill="none" stroke="midnightblue" d="M1162.09,-81.3997C1180.31,-85.4999 1199.64,-89.8504 1217.35,-93.8376"/>
<polygon fill="midnightblue" stroke="midnightblue" points="1162.62,-77.9326 1152.1,-79.1514 1161.09,-84.7617 1162.62,-77.9326"/>
</g>
<!-- Node12&#45;&gt;Node10 -->
<g id="edge16" class="edge"><title>Node12&#45;&gt;Node10</title>
<path fill="none" stroke="midnightblue" d="M1162.31,-62.5738C1174.64,-62.2587 1187.46,-61.9306 1199.95,-61.6113"/>
<polygon fill="midnightblue" stroke="midnightblue" points="1162.01,-59.0805 1152.1,-62.8351 1162.18,-66.0782 1162.01,-59.0805"/>
</g>
<!-- Node13&#45;&gt;Node6 -->
<g id="edge18" class="edge"><title>Node13&#45;&gt;Node6</title>
<path fill="none" stroke="midnightblue" d="M982.125,-140.741C1033.46,-138.386 1102.98,-134.276 1164,-127.5 1181.4,-125.569 1200.13,-122.859 1217.46,-120.09"/>
<polygon fill="midnightblue" stroke="midnightblue" points="981.942,-137.246 972.109,-141.189 982.255,-144.239 981.942,-137.246"/>
</g>
<!-- Node13&#45;&gt;Node8 -->
<g id="edge19" class="edge"><title>Node13&#45;&gt;Node8</title>
<path fill="none" stroke="midnightblue" d="M981.896,-128.773C1000.4,-125.134 1019.74,-121.331 1036.61,-118.015"/>
<polygon fill="midnightblue" stroke="midnightblue" points="981.154,-125.352 972.018,-130.716 982.505,-132.22 981.154,-125.352"/>
</g>
</g>
</svg>
        <g id="navigator" transform="translate(0 0)" fill="#404254">
                <rect fill="#f2f5e9" fill-opacity="0.5" stroke="#606060" stroke-width=".5" x="0" y="0" width="60" height="60"/>
                <use id="zoomplus" xlink:href="#zoomPlus" x="17" y="9" onmousedown="handleZoom(evt,'in')"/>
                <use id="zoomminus" xlink:href="#zoomMin" x="42" y="9" onmousedown="handleZoom(evt,'out')"/>
                <use id="reset" xlink:href="#resetDef" x="30" y="36" onmousedown="handleReset()"/>
                <g id="arrowUp" xlink:href="#dirArrow" transform="translate(30 24)" onmousedown="handlePan(0,-1)">
                  <use xlink:href="#rim" fill="#404040">
                        <set attributeName="fill" to="#808080" begin="arrowUp.mouseover" end="arrowUp.mouseout"/>
                  </use>
                  <path fill="none" stroke="white" stroke-width="1.5" d="M0,-3.0v7 M-2.5,-0.5L0,-3.0L2.5,-0.5"/>
                </g>
                <g id="arrowRight" xlink:href="#dirArrow" transform="rotate(90) translate(36 -43)" onmousedown="handlePan(1,0)">
                  <use xlink:href="#rim" fill="#404040">
                        <set attributeName="fill" to="#808080" begin="arrowRight.mouseover" end="arrowRight.mouseout"/>
                  </use>
                  <path fill="none" stroke="white" stroke-width="1.5" d="M0,-3.0v7 M-2.5,-0.5L0,-3.0L2.5,-0.5"/>
                </g>
                <g id="arrowDown" xlink:href="#dirArrow" transform="rotate(180) translate(-30 -48)" onmousedown="handlePan(0,1)">
                  <use xlink:href="#rim" fill="#404040">
                        <set attributeName="fill" to="#808080" begin="arrowDown.mouseover" end="arrowDown.mouseout"/>
                  </use>
                  <path fill="none" stroke="white" stroke-width="1.5" d="M0,-3.0v7 M-2.5,-0.5L0,-3.0L2.5,-0.5"/>
                </g>
                <g id="arrowLeft" xlink:href="#dirArrow" transform="rotate(270) translate(-36 17)" onmousedown="handlePan(-1,0)">
                  <use xlink:href="#rim" fill="#404040">
                        <set attributeName="fill" to="#808080" begin="arrowLeft.mouseover" end="arrowLeft.mouseout"/>
                  </use>
                  <path fill="none" stroke="white" stroke-width="1.5" d="M0,-3.0v7 M-2.5,-0.5L0,-3.0L2.5,-0.5"/>
                </g>
        </g>
        <svg viewBox="0 0 15 15" width="100%" height="30px" preserveAspectRatio="xMaxYMin meet">
         <g id="arrow_out" transform="scale(0.3 0.3)">
          <a xlink:href="classscram_1_1core_1_1Preprocessor_a019e679ad9077caac8c48253d42647ff_icgraph_org.svg" target="_base">
           <rect id="button" ry="5" rx="5" y="6" x="6" height="38" width="38"
                fill="#f2f5e9" fill-opacity="0.5" stroke="#606060" stroke-width="1.0"/>
           <path id="arrow"
             d="M 11.500037,31.436501 C 11.940474,20.09759 22.043105,11.32322 32.158766,21.979434 L 37.068811,17.246167 C 37.068811,17.246167 37.088388,32 37.088388,32 L 22.160133,31.978069 C 22.160133,31.978069 26.997745,27.140456 26.997745,27.140456 C 18.528582,18.264221 13.291696,25.230495 11.500037,31.436501 z"
             style="fill:#404040;"/>
          </a>
         </g>
        </svg>
</svg>
