<?xml version="1.0" encoding="UTF-8" standalone="no"?>
<!DOCTYPE svg PUBLIC "-//W3C//DTD SVG 1.1//EN"
 "http://www.w3.org/Graphics/SVG/1.1/DTD/svg11.dtd">
<!-- Generated by graphviz version 2.38.0 (20140413.2041)
 -->
<!-- Title: scram::core::Node::Visit Pages: 1 -->
<!--zoomable 199 -->
<svg id="main" version="1.1" xmlns="http://www.w3.org/2000/svg" xmlns:xlink="http://www.w3.org/1999/xlink" xml:space="preserve" onload="init(evt)">
<style type="text/css"><![CDATA[
.edge:hover path { stroke: red; }
.edge:hover polygon { stroke: red; fill: red; }
]]></style>
<script type="text/javascript"><![CDATA[
var edges = document.getElementsByTagName('g');
if (edges && edges.length) {
  for (var i=0;i<edges.length;i++) {
    if (edges[i].id.substr(0,4)=='edge') {
      edges[i].setAttribute('class','edge');
    }
  }
}
]]></script>
        <defs>
                <circle id="rim" cx="0" cy="0" r="7"/>
                <circle id="rim2" cx="0" cy="0" r="3.5"/>
                <g id="zoomPlus">
                        <use xlink:href="#rim" fill="#404040">
                                <set attributeName="fill" to="#808080" begin="zoomplus.mouseover" end="zoomplus.mouseout"/>
                        </use>
                        <path d="M-4,0h8M0,-4v8" fill="none" stroke="white" stroke-width="1.5" pointer-events="none"/>
                </g>
                <g id="zoomMin">
                        <use xlink:href="#rim" fill="#404040">
                                <set attributeName="fill" to="#808080" begin="zoomminus.mouseover" end="zoomminus.mouseout"/>
                        </use>
                        <path d="M-4,0h8" fill="none" stroke="white" stroke-width="1.5" pointer-events="none"/>
                </g>
                <g id="dirArrow">
                        <path fill="none" stroke="white" stroke-width="1.5" d="M0,-3.0v7 M-2.5,-0.5L0,-3.0L2.5,-0.5"/>
                </g>
               <g id="resetDef">
                       <use xlink:href="#rim2" fill="#404040">
                               <set attributeName="fill" to="#808080" begin="reset.mouseover" end="reset.mouseout"/>
                       </use>
               </g>
        </defs>

<script type="text/javascript">
var viewWidth = 1358;
var viewHeight = 199;
var sectionId = 'dynsection-6';
</script>
<script xlink:href="svgpan.js"/>
<svg id="graph" class="graph">
<g id="viewport">
<title>scram::core::Node::Visit</title>
<polygon fill="white" stroke="none" points="-4,4 -4,-194.745 1354,-194.745 1354,4 -4,4"/>
<!-- Node1 -->
<g id="node1" class="node"><title>Node1</title>
<polygon fill="#bfbfbf" stroke="black" points="0,-70.2447 0,-100.245 104,-100.245 104,-70.2447 0,-70.2447"/>
<text text-anchor="start" x="8" y="-88.2447" font-family="Helvetica,sans-Serif" font-size="10.00">scram::core::Node::</text>
<text text-anchor="middle" x="52" y="-77.2447" font-family="Helvetica,sans-Serif" font-size="10.00">Visit</text>
</g>
<!-- Node2 -->
<g id="node2" class="node"><title>Node2</title>
<g id="a_node2"><a xlink:href="classscram_1_1core_1_1Preprocessor.xhtml#a394fb1b5b5f9ee31dc81ad8d64353ee3" target="_top" xlink:title="Traverses the graph to find nodes that have more than one parent. ">
<polygon fill="white" stroke="black" points="140,-70.2447 140,-100.245 272,-100.245 272,-70.2447 140,-70.2447"/>
<text text-anchor="start" x="148" y="-88.2447" font-family="Helvetica,sans-Serif" font-size="10.00">scram::core::Preprocessor</text>
<text text-anchor="middle" x="206" y="-77.2447" font-family="Helvetica,sans-Serif" font-size="10.00">::GatherCommonNodes</text>
</a>
</g>
</g>
<!-- Node1&#45;&gt;Node2 -->
<g id="edge1" class="edge"><title>Node1&#45;&gt;Node2</title>
<path fill="none" stroke="midnightblue" d="M114.168,-85.2447C122.602,-85.2447 131.289,-85.2447 139.792,-85.2447"/>
<polygon fill="midnightblue" stroke="midnightblue" points="114.037,-81.7448 104.037,-85.2447 114.037,-88.7448 114.037,-81.7448"/>
</g>
<!-- Node3 -->
<g id="node3" class="node"><title>Node3</title>
<g id="a_node3"><a xlink:href="classscram_1_1core_1_1Preprocessor.xhtml#aebc709ad2e097c24e837889a6a9e4696" target="_top" xlink:title="Propagates failures of common nodes to detect redundancy. ">
<polygon fill="white" stroke="black" points="313.5,-95.2447 313.5,-125.245 445.5,-125.245 445.5,-95.2447 313.5,-95.2447"/>
<text text-anchor="start" x="321.5" y="-113.245" font-family="Helvetica,sans-Serif" font-size="10.00">scram::core::Preprocessor</text>
<text text-anchor="middle" x="379.5" y="-102.245" font-family="Helvetica,sans-Serif" font-size="10.00">::BooleanOptimization</text>
</a>
</g>
</g>
<!-- Node2&#45;&gt;Node3 -->
<g id="edge2" class="edge"><title>Node2&#45;&gt;Node3</title>
<path fill="none" stroke="midnightblue" d="M282.518,-96.2532C292.799,-97.7519 303.279,-99.2796 313.356,-100.748"/>
<polygon fill="midnightblue" stroke="midnightblue" points="282.726,-92.7466 272.326,-94.7675 281.717,-99.6734 282.726,-92.7466"/>
</g>
<!-- Node13 -->
<g id="node13" class="node"><title>Node13</title>
<g id="a_node13"><a xlink:href="classscram_1_1core_1_1Preprocessor.xhtml#ae12f3096132d7f6e9daa779724255f7e" target="_top" xlink:title="The Shannon decomposition for common nodes in the PDAG. ">
<polygon fill="white" stroke="black" points="308,-46.2447 308,-76.2447 451,-76.2447 451,-46.2447 308,-46.2447"/>
<text text-anchor="start" x="316" y="-64.2447" font-family="Helvetica,sans-Serif" font-size="10.00">scram::core::Preprocessor</text>
<text text-anchor="middle" x="379.5" y="-53.2447" font-family="Helvetica,sans-Serif" font-size="10.00">::DecomposeCommonNodes</text>
</a>
</g>
</g>
<!-- Node2&#45;&gt;Node13 -->
<g id="edge19" class="edge"><title>Node2&#45;&gt;Node13</title>
<path fill="none" stroke="midnightblue" d="M282.256,-74.7133C290.787,-73.5194 299.459,-72.3058 307.927,-71.1207"/>
<polygon fill="midnightblue" stroke="midnightblue" points="281.744,-71.2506 272.326,-76.1029 282.715,-78.1831 281.744,-71.2506"/>
</g>
<!-- Node4 -->
<g id="node4" class="node"><title>Node4</title>
<g id="a_node4"><a xlink:href="classscram_1_1core_1_1Preprocessor.xhtml#a9d5f89471499508eb9e6c01ea43e0f15" target="_top" xlink:title="Preprocessing phase of the original structure of the graph. ">
<polygon fill="white" stroke="black" points="487,-70.2447 487,-100.245 619,-100.245 619,-70.2447 487,-70.2447"/>
<text text-anchor="start" x="495" y="-88.2447" font-family="Helvetica,sans-Serif" font-size="10.00">scram::core::Preprocessor</text>
<text text-anchor="middle" x="553" y="-77.2447" font-family="Helvetica,sans-Serif" font-size="10.00">::RunPhaseTwo</text>
</a>
</g>
</g>
<!-- Node3&#45;&gt;Node4 -->
<g id="edge3" class="edge"><title>Node3&#45;&gt;Node4</title>
<path fill="none" stroke="midnightblue" d="M456.018,-99.2362C466.299,-97.7375 476.779,-96.2098 486.856,-94.741"/>
<polygon fill="midnightblue" stroke="midnightblue" points="455.217,-95.816 445.826,-100.722 456.226,-102.743 455.217,-95.816"/>
</g>
<!-- Node5 -->
<g id="node5" class="node"><title>Node5</title>
<g id="a_node5"><a xlink:href="classscram_1_1core_1_1Preprocessor.xhtml#a2b6705e815fa3d02119c405b483766d5" target="_top" xlink:title="Container of unique gates by semantics. ">
<polygon fill="white" stroke="black" points="823,-160.745 823,-179.745 979,-179.745 979,-160.745 823,-160.745"/>
<text text-anchor="middle" x="901" y="-167.745" font-family="Helvetica,sans-Serif" font-size="10.00">scram::core::Preprocessor::Run</text>
</a>
</g>
</g>
<!-- Node4&#45;&gt;Node5 -->
<g id="edge4" class="edge"><title>Node4&#45;&gt;Node5</title>
<path fill="none" stroke="midnightblue" d="M604.629,-103.607C620.62,-109.05 638.439,-114.751 655,-119.245 719.363,-136.71 794.626,-151.567 844.577,-160.664"/>
<polygon fill="midnightblue" stroke="midnightblue" points="605.531,-100.216 594.936,-100.264 603.249,-106.833 605.531,-100.216"/>
</g>
<!-- Node8 -->
<g id="node8" class="node"><title>Node8</title>
<g id="a_node8"><a xlink:href="classscram_1_1core_1_1Preprocessor.xhtml#a5ee92284aef510ce01a71c962d50f51c" target="_top" xlink:title="Runs the graph preprocessing. ">
<polygon fill="white" stroke="black" points="1032.5,-62.2447 1032.5,-92.2447 1164.5,-92.2447 1164.5,-62.2447 1032.5,-62.2447"/>
<text text-anchor="start" x="1040.5" y="-80.2447" font-family="Helvetica,sans-Serif" font-size="10.00">scram::core::Preprocessor</text>
<text text-anchor="middle" x="1098.5" y="-69.2447" font-family="Helvetica,sans-Serif" font-size="10.00">::operator()</text>
</a>
</g>
</g>
<!-- Node4&#45;&gt;Node8 -->
<g id="edge18" class="edge"><title>Node4&#45;&gt;Node8</title>
<path fill="none" stroke="midnightblue" d="M577.117,-63.3819C596.299,-46.8434 625.174,-25.4601 655,-16.2447 801.52,29.0262 985.716,-32.0414 1061.95,-62.1757"/>
<polygon fill="midnightblue" stroke="midnightblue" points="574.675,-60.8699 569.515,-70.1236 579.319,-66.1071 574.675,-60.8699"/>
</g>
<!-- Node10 -->
<g id="node10" class="node"><title>Node10</title>
<g id="a_node10"><a xlink:href="classscram_1_1core_1_1Preprocessor.xhtml#abf2c66723172a85b2ae87ef2a034cd1f" target="_top" xlink:title="Application of gate normalization. ">
<polygon fill="white" stroke="black" points="655,-26.2447 655,-56.2447 787,-56.2447 787,-26.2447 655,-26.2447"/>
<text text-anchor="start" x="663" y="-44.2447" font-family="Helvetica,sans-Serif" font-size="10.00">scram::core::Preprocessor</text>
<text text-anchor="middle" x="721" y="-33.2447" font-family="Helvetica,sans-Serif" font-size="10.00">::RunPhaseThree</text>
</a>
</g>
</g>
<!-- Node4&#45;&gt;Node10 -->
<g id="edge9" class="edge"><title>Node4&#45;&gt;Node10</title>
<path fill="none" stroke="midnightblue" d="M620.378,-67.6506C634.598,-63.8815 649.496,-59.9325 663.31,-56.2709"/>
<polygon fill="midnightblue" stroke="midnightblue" points="619.433,-64.2801 610.663,-70.2255 621.226,-71.0464 619.433,-64.2801"/>
</g>
<!-- Node11 -->
<g id="node11" class="node"><title>Node11</title>
<g id="a_node11"><a xlink:href="classscram_1_1core_1_1Preprocessor.xhtml#a5c224938dfba861f061525658bd7b156" target="_top" xlink:title="Propagation of complements. ">
<polygon fill="white" stroke="black" points="835,-62.2447 835,-92.2447 967,-92.2447 967,-62.2447 835,-62.2447"/>
<text text-anchor="start" x="843" y="-80.2447" font-family="Helvetica,sans-Serif" font-size="10.00">scram::core::Preprocessor</text>
<text text-anchor="middle" x="901" y="-69.2447" font-family="Helvetica,sans-Serif" font-size="10.00">::RunPhaseFour</text>
</a>
</g>
</g>
<!-- Node4&#45;&gt;Node11 -->
<g id="edge12" class="edge"><title>Node4&#45;&gt;Node11</title>
<path fill="none" stroke="midnightblue" d="M629.097,-83.5084C690.493,-82.0888 776.413,-80.1022 834.918,-78.7495"/>
<polygon fill="midnightblue" stroke="midnightblue" points="628.996,-80.0097 619.08,-83.74 629.158,-87.0078 628.996,-80.0097"/>
</g>
<!-- Node12 -->
<g id="node12" class="node"><title>Node12</title>
<g id="a_node12"><a xlink:href="classscram_1_1core_1_1Preprocessor.xhtml#a3569bbcd5e863c750cdfa69115399600" target="_top" xlink:title="The final phase that cleans up the graph, and puts the structure of the graph ready for analysis...">
<polygon fill="white" stroke="black" points="835,-111.245 835,-141.245 967,-141.245 967,-111.245 835,-111.245"/>
<text text-anchor="start" x="843" y="-129.245" font-family="Helvetica,sans-Serif" font-size="10.00">scram::core::Preprocessor</text>
<text text-anchor="middle" x="901" y="-118.245" font-family="Helvetica,sans-Serif" font-size="10.00">::RunPhaseFive</text>
</a>
</g>
</g>
<!-- Node4&#45;&gt;Node12 -->
<g id="edge15" class="edge"><title>Node4&#45;&gt;Node12</title>
<path fill="none" stroke="midnightblue" d="M629.097,-94.1435C690.493,-101.419 776.413,-111.6 834.918,-118.533"/>
<polygon fill="midnightblue" stroke="midnightblue" points="629.422,-90.6576 619.08,-92.9565 628.599,-97.609 629.422,-90.6576"/>
</g>
<!-- Node6 -->
<g id="node6" class="node"><title>Node6</title>
<g id="a_node6"><a xlink:href="classscram_1_1core_1_1Preprocessor.xhtml#a9caf4677a024ed935d831210b57b8ed9" target="_top" xlink:title="Gathers nodes in the sub&#45;graph. ">
<polygon fill="white" stroke="black" points="1032.5,-160.245 1032.5,-190.245 1164.5,-190.245 1164.5,-160.245 1032.5,-160.245"/>
<text text-anchor="start" x="1040.5" y="-178.245" font-family="Helvetica,sans-Serif" font-size="10.00">scram::core::Preprocessor</text>
<text text-anchor="middle" x="1098.5" y="-167.245" font-family="Helvetica,sans-Serif" font-size="10.00">::GatherNodes</text>
</a>
</g>
</g>
<!-- Node5&#45;&gt;Node6 -->
<g id="edge5" class="edge"><title>Node5&#45;&gt;Node6</title>
<path fill="none" stroke="midnightblue" d="M989.674,-172.487C1004.06,-172.855 1018.74,-173.23 1032.46,-173.581"/>
<polygon fill="midnightblue" stroke="midnightblue" points="989.353,-168.978 979.267,-172.221 989.174,-175.975 989.353,-168.978"/>
</g>
<!-- Node7 -->
<g id="node7" class="node"><title>Node7</title>
<g id="a_node7"><a xlink:href="classscram_1_1core_1_1CustomPreprocessor_3_01Zbdd_01_4.xhtml#a5185075f852c647c7aa4313d23420ee5" target="_top" xlink:title="Performs preprocessing for analyses with Zero&#45;Suppressed Binary Decision Diagrams. ">
<polygon fill="white" stroke="black" points="1015,-111.245 1015,-141.245 1182,-141.245 1182,-111.245 1015,-111.245"/>
<text text-anchor="start" x="1023" y="-129.245" font-family="Helvetica,sans-Serif" font-size="10.00">scram::core::CustomPreprocessor</text>
<text text-anchor="middle" x="1098.5" y="-118.245" font-family="Helvetica,sans-Serif" font-size="10.00">&lt; Zbdd &gt;::Run</text>
</a>
</g>
</g>
<!-- Node5&#45;&gt;Node7 -->
<g id="edge6" class="edge"><title>Node5&#45;&gt;Node7</title>
<path fill="none" stroke="midnightblue" d="M954.488,-158.432C977.876,-153.168 1005.7,-146.906 1030.56,-141.31"/>
<polygon fill="midnightblue" stroke="midnightblue" points="953.408,-155.087 944.421,-160.697 954.945,-161.916 953.408,-155.087"/>
</g>
<!-- Node5&#45;&gt;Node8 -->
<g id="edge7" class="edge"><title>Node5&#45;&gt;Node8</title>
<path fill="none" stroke="midnightblue" d="M967.144,-156.866C971.302,-154.947 975.299,-152.753 979,-150.245 1001.37,-135.083 992.852,-116.728 1015,-101.245 1020.26,-97.5696 1026.08,-94.4519 1032.12,-91.8082"/>
<polygon fill="midnightblue" stroke="midnightblue" points="965.786,-153.64 957.835,-160.643 968.417,-160.127 965.786,-153.64"/>
</g>
<!-- Node9 -->
<g id="node9" class="node"><title>Node9</title>
<g id="a_node9"><a xlink:href="classscram_1_1core_1_1Preprocessor_1_1GateSet.xhtml#ae00239084858979e096032c4cf2f05b9" target="_top" xlink:title="Inserts a gate into the set if it is semantically unique. ">
<polygon fill="white" stroke="black" points="1218,-62.2447 1218,-92.2447 1350,-92.2447 1350,-62.2447 1218,-62.2447"/>
<text text-anchor="start" x="1226" y="-80.2447" font-family="Helvetica,sans-Serif" font-size="10.00">scram::core::Preprocessor</text>
<text text-anchor="middle" x="1284" y="-69.2447" font-family="Helvetica,sans-Serif" font-size="10.00">::GateSet::insert</text>
</a>
</g>
</g>
<!-- Node8&#45;&gt;Node9 -->
<g id="edge8" class="edge"><title>Node8&#45;&gt;Node9</title>
<path fill="none" stroke="midnightblue" d="M1174.99,-77.2447C1189.26,-77.2447 1204.08,-77.2447 1218,-77.2447"/>
<polygon fill="midnightblue" stroke="midnightblue" points="1174.71,-73.7448 1164.71,-77.2447 1174.71,-80.7448 1174.71,-73.7448"/>
</g>
<!-- Node10&#45;&gt;Node5 -->
<g id="edge10" class="edge"><title>Node10&#45;&gt;Node5</title>
<path fill="none" stroke="midnightblue" d="M737.727,-65.0045C755.495,-89.9663 786.712,-128.552 823,-150.245 830.231,-154.568 838.389,-157.966 846.62,-160.635"/>
<polygon fill="midnightblue" stroke="midnightblue" points="740.385,-62.6962 731.805,-56.481 734.637,-66.6904 740.385,-62.6962"/>
</g>
<!-- Node10&#45;&gt;Node8 -->
<g id="edge11" class="edge"><title>Node10&#45;&gt;Node8</title>
<path fill="none" stroke="midnightblue" d="M797.234,-41.2013C848.615,-41.97 918.145,-44.5764 979,-52.2447 997.566,-54.5842 1017.55,-58.3186 1035.71,-62.1953"/>
<polygon fill="midnightblue" stroke="midnightblue" points="797.252,-37.7014 787.207,-41.0711 797.161,-44.7008 797.252,-37.7014"/>
</g>
<!-- Node11&#45;&gt;Node7 -->
<g id="edge13" class="edge"><title>Node11&#45;&gt;Node7</title>
<path fill="none" stroke="midnightblue" d="M971.729,-94.7215C993.277,-100.122 1016.81,-106.02 1037.63,-111.239"/>
<polygon fill="midnightblue" stroke="midnightblue" points="972.536,-91.3156 961.985,-92.2793 970.834,-98.1056 972.536,-91.3156"/>
</g>
<!-- Node11&#45;&gt;Node8 -->
<g id="edge14" class="edge"><title>Node11&#45;&gt;Node8</title>
<path fill="none" stroke="midnightblue" d="M977.341,-77.2447C995.486,-77.2447 1014.72,-77.2447 1032.35,-77.2447"/>
<polygon fill="midnightblue" stroke="midnightblue" points="977.099,-73.7448 967.099,-77.2447 977.099,-80.7448 977.099,-73.7448"/>
</g>
<!-- Node12&#45;&gt;Node7 -->
<g id="edge16" class="edge"><title>Node12&#45;&gt;Node7</title>
<path fill="none" stroke="midnightblue" d="M977.313,-126.245C989.636,-126.245 1002.46,-126.245 1014.95,-126.245"/>
<polygon fill="midnightblue" stroke="midnightblue" points="977.099,-122.745 967.099,-126.245 977.099,-129.745 977.099,-122.745"/>
</g>
<!-- Node12&#45;&gt;Node8 -->
<g id="edge17" class="edge"><title>Node12&#45;&gt;Node8</title>
<path fill="none" stroke="midnightblue" d="M971.729,-108.768C993.277,-103.367 1016.81,-97.4692 1037.63,-92.2509"/>
<polygon fill="midnightblue" stroke="midnightblue" points="970.834,-105.384 961.985,-111.21 972.536,-112.174 970.834,-105.384"/>
</g>
<!-- Node13&#45;&gt;Node4 -->
<g id="edge20" class="edge"><title>Node13&#45;&gt;Node4</title>
<path fill="none" stroke="midnightblue" d="M461.283,-72.5496C469.877,-73.7523 478.538,-74.9643 486.919,-76.1371"/>
<polygon fill="midnightblue" stroke="midnightblue" points="461.634,-69.0648 451.246,-71.145 460.664,-75.9972 461.634,-69.0648"/>
</g>
</g>
</svg>
        <g id="navigator" transform="translate(0 0)" fill="#404254">
                <rect fill="#f2f5e9" fill-opacity="0.5" stroke="#606060" stroke-width=".5" x="0" y="0" width="60" height="60"/>
                <use id="zoomplus" xlink:href="#zoomPlus" x="17" y="9" onmousedown="handleZoom(evt,'in')"/>
                <use id="zoomminus" xlink:href="#zoomMin" x="42" y="9" onmousedown="handleZoom(evt,'out')"/>
                <use id="reset" xlink:href="#resetDef" x="30" y="36" onmousedown="handleReset()"/>
                <g id="arrowUp" xlink:href="#dirArrow" transform="translate(30 24)" onmousedown="handlePan(0,-1)">
                  <use xlink:href="#rim" fill="#404040">
                        <set attributeName="fill" to="#808080" begin="arrowUp.mouseover" end="arrowUp.mouseout"/>
                  </use>
                  <path fill="none" stroke="white" stroke-width="1.5" d="M0,-3.0v7 M-2.5,-0.5L0,-3.0L2.5,-0.5"/>
                </g>
                <g id="arrowRight" xlink:href="#dirArrow" transform="rotate(90) translate(36 -43)" onmousedown="handlePan(1,0)">
                  <use xlink:href="#rim" fill="#404040">
                        <set attributeName="fill" to="#808080" begin="arrowRight.mouseover" end="arrowRight.mouseout"/>
                  </use>
                  <path fill="none" stroke="white" stroke-width="1.5" d="M0,-3.0v7 M-2.5,-0.5L0,-3.0L2.5,-0.5"/>
                </g>
                <g id="arrowDown" xlink:href="#dirArrow" transform="rotate(180) translate(-30 -48)" onmousedown="handlePan(0,1)">
                  <use xlink:href="#rim" fill="#404040">
                        <set attributeName="fill" to="#808080" begin="arrowDown.mouseover" end="arrowDown.mouseout"/>
                  </use>
                  <path fill="none" stroke="white" stroke-width="1.5" d="M0,-3.0v7 M-2.5,-0.5L0,-3.0L2.5,-0.5"/>
                </g>
                <g id="arrowLeft" xlink:href="#dirArrow" transform="rotate(270) translate(-36 17)" onmousedown="handlePan(-1,0)">
                  <use xlink:href="#rim" fill="#404040">
                        <set attributeName="fill" to="#808080" begin="arrowLeft.mouseover" end="arrowLeft.mouseout"/>
                  </use>
                  <path fill="none" stroke="white" stroke-width="1.5" d="M0,-3.0v7 M-2.5,-0.5L0,-3.0L2.5,-0.5"/>
                </g>
        </g>
        <svg viewBox="0 0 15 15" width="100%" height="30px" preserveAspectRatio="xMaxYMin meet">
         <g id="arrow_out" transform="scale(0.3 0.3)">
          <a xlink:href="classscram_1_1core_1_1Node_a54799feee1f1e91f848d11f3918e3e88_icgraph_org.svg" target="_base">
           <rect id="button" ry="5" rx="5" y="6" x="6" height="38" width="38"
                fill="#f2f5e9" fill-opacity="0.5" stroke="#606060" stroke-width="1.0"/>
           <path id="arrow"
             d="M 11.500037,31.436501 C 11.940474,20.09759 22.043105,11.32322 32.158766,21.979434 L 37.068811,17.246167 C 37.068811,17.246167 37.088388,32 37.088388,32 L 22.160133,31.978069 C 22.160133,31.978069 26.997745,27.140456 26.997745,27.140456 C 18.528582,18.264221 13.291696,25.230495 11.500037,31.436501 z"
             style="fill:#404040;"/>
          </a>
         </g>
        </svg>
</svg>
