<?xml version="1.0" encoding="UTF-8" standalone="no"?>
<!DOCTYPE svg PUBLIC "-//W3C//DTD SVG 1.1//EN"
 "http://www.w3.org/Graphics/SVG/1.1/DTD/svg11.dtd">
<!-- Generated by graphviz version 2.38.0 (20140413.2041)
 -->
<!-- Title: scram::mef::Gate Pages: 1 -->
<svg width="353pt" height="524pt"
 viewBox="0.00 0.00 352.50 524.00" xmlns="http://www.w3.org/2000/svg" xmlns:xlink="http://www.w3.org/1999/xlink">
<g id="graph0" class="graph" transform="scale(1 1) rotate(0) translate(4 520)">
<title>scram::mef::Gate</title>
<polygon fill="white" stroke="none" points="-4,4 -4,-520 348.5,-520 348.5,4 -4,4"/>
<!-- Node1 -->
<g id="node1" class="node"><title>Node1</title>
<polygon fill="#bfbfbf" stroke="black" points="176.5,-0.5 176.5,-112.5 269.5,-112.5 269.5,-0.5 176.5,-0.5"/>
<text text-anchor="middle" x="223" y="-100.5" font-family="Helvetica,sans-Serif" font-size="10.00">scram::mef::Gate</text>
<polyline fill="none" stroke="black" points="176.5,-93.5 269.5,-93.5 "/>
<text text-anchor="middle" x="223" y="-81.5" font-family="Helvetica,sans-Serif" font-size="10.00"> </text>
<polyline fill="none" stroke="black" points="176.5,-74.5 269.5,-74.5 "/>
<text text-anchor="start" x="184.5" y="-62.5" font-family="Helvetica,sans-Serif" font-size="10.00">+ formula()</text>
<text text-anchor="start" x="184.5" y="-51.5" font-family="Helvetica,sans-Serif" font-size="10.00">+ Validate()</text>
<text text-anchor="start" x="184.5" y="-40.5" font-family="Helvetica,sans-Serif" font-size="10.00">+ formula()</text>
<text text-anchor="start" x="184.5" y="-29.5" font-family="Helvetica,sans-Serif" font-size="10.00">+ formula()</text>
<text text-anchor="start" x="184.5" y="-18.5" font-family="Helvetica,sans-Serif" font-size="10.00">* formula()</text>
<text text-anchor="start" x="184.5" y="-7.5" font-family="Helvetica,sans-Serif" font-size="10.00">* formula()</text>
</g>
<!-- Node2 -->
<g id="node2" class="node"><title>Node2</title>
<g id="a_node2"><a xlink:href="classscram_1_1mef_1_1Event.xhtml" target="_top" xlink:title="Abstract base class for general fault tree events. ">
<polygon fill="white" stroke="black" points="111,-149.5 111,-228.5 209,-228.5 209,-149.5 111,-149.5"/>
<text text-anchor="middle" x="160" y="-216.5" font-family="Helvetica,sans-Serif" font-size="10.00">scram::mef::Event</text>
<polyline fill="none" stroke="black" points="111,-209.5 209,-209.5 "/>
<text text-anchor="middle" x="160" y="-197.5" font-family="Helvetica,sans-Serif" font-size="10.00"> </text>
<polyline fill="none" stroke="black" points="111,-190.5 209,-190.5 "/>
<text text-anchor="start" x="119" y="-178.5" font-family="Helvetica,sans-Serif" font-size="10.00">+ ~Event()</text>
<text text-anchor="start" x="119" y="-167.5" font-family="Helvetica,sans-Serif" font-size="10.00">+ orphan()</text>
<text text-anchor="start" x="119" y="-156.5" font-family="Helvetica,sans-Serif" font-size="10.00">+ orphan()</text>
</a>
</g>
</g>
<!-- Node2&#45;&gt;Node1 -->
<g id="edge1" class="edge"><title>Node2&#45;&gt;Node1</title>
<path fill="none" stroke="midnightblue" d="M183.106,-140.137C187.396,-131.251 191.91,-121.901 196.297,-112.814"/>
<polygon fill="none" stroke="midnightblue" points="179.927,-138.672 178.732,-149.199 186.231,-141.715 179.927,-138.672"/>
</g>
<!-- Node3 -->
<g id="node3" class="node"><title>Node3</title>
<g id="a_node3"><a xlink:href="classscram_1_1mef_1_1Id.xhtml" target="_top" xlink:title="Mixin class for assigning unique identifiers to elements. ">
<polygon fill="white" stroke="black" points="73,-265.5 73,-344.5 153,-344.5 153,-265.5 73,-265.5"/>
<text text-anchor="middle" x="113" y="-332.5" font-family="Helvetica,sans-Serif" font-size="10.00">scram::mef::Id</text>
<polyline fill="none" stroke="black" points="73,-325.5 153,-325.5 "/>
<text text-anchor="middle" x="113" y="-313.5" font-family="Helvetica,sans-Serif" font-size="10.00"> </text>
<polyline fill="none" stroke="black" points="73,-306.5 153,-306.5 "/>
<text text-anchor="start" x="81" y="-294.5" font-family="Helvetica,sans-Serif" font-size="10.00">+ Id()</text>
<text text-anchor="start" x="81" y="-283.5" font-family="Helvetica,sans-Serif" font-size="10.00">+ id()</text>
<text text-anchor="start" x="81" y="-272.5" font-family="Helvetica,sans-Serif" font-size="10.00"># ~Id()</text>
</a>
</g>
</g>
<!-- Node3&#45;&gt;Node2 -->
<g id="edge2" class="edge"><title>Node3&#45;&gt;Node2</title>
<path fill="none" stroke="midnightblue" d="M132.783,-256.015C136.56,-246.854 140.468,-237.375 144.104,-228.555"/>
<polygon fill="none" stroke="midnightblue" points="129.488,-254.826 128.912,-265.405 135.959,-257.494 129.488,-254.826"/>
</g>
<!-- Node4 -->
<g id="node4" class="node"><title>Node4</title>
<g id="a_node4"><a xlink:href="classscram_1_1mef_1_1Element.xhtml" target="_top" xlink:title="Mixin class that represents any element of analysis that can have extra descriptions, such as attributes and a label. ">
<polygon fill="white" stroke="black" points="0,-381.5 0,-515.5 108,-515.5 108,-381.5 0,-381.5"/>
<text text-anchor="middle" x="54" y="-503.5" font-family="Helvetica,sans-Serif" font-size="10.00">scram::mef::Element</text>
<polyline fill="none" stroke="black" points="0,-496.5 108,-496.5 "/>
<text text-anchor="middle" x="54" y="-484.5" font-family="Helvetica,sans-Serif" font-size="10.00"> </text>
<polyline fill="none" stroke="black" points="0,-477.5 108,-477.5 "/>
<text text-anchor="start" x="8" y="-465.5" font-family="Helvetica,sans-Serif" font-size="10.00">+ Element()</text>
<text text-anchor="start" x="8" y="-454.5" font-family="Helvetica,sans-Serif" font-size="10.00">+ name()</text>
<text text-anchor="start" x="8" y="-443.5" font-family="Helvetica,sans-Serif" font-size="10.00">+ label()</text>
<text text-anchor="start" x="8" y="-432.5" font-family="Helvetica,sans-Serif" font-size="10.00">+ label()</text>
<text text-anchor="start" x="8" y="-421.5" font-family="Helvetica,sans-Serif" font-size="10.00">+ AddAttribute()</text>
<text text-anchor="start" x="8" y="-410.5" font-family="Helvetica,sans-Serif" font-size="10.00">+ HasAttribute()</text>
<text text-anchor="start" x="8" y="-399.5" font-family="Helvetica,sans-Serif" font-size="10.00">+ GetAttribute()</text>
<text text-anchor="start" x="8" y="-388.5" font-family="Helvetica,sans-Serif" font-size="10.00"># ~Element()</text>
</a>
</g>
</g>
<!-- Node4&#45;&gt;Node3 -->
<g id="edge3" class="edge"><title>Node4&#45;&gt;Node3</title>
<path fill="none" stroke="midnightblue" d="M85.5183,-371.91C89.4312,-362.525 93.2965,-353.255 96.8372,-344.763"/>
<polygon fill="none" stroke="midnightblue" points="82.2179,-370.73 81.5998,-381.307 88.6788,-373.424 82.2179,-370.73"/>
</g>
<!-- Node5 -->
<g id="node5" class="node"><title>Node5</title>
<g id="a_node5"><a xlink:href="classscram_1_1mef_1_1Role.xhtml" target="_top" xlink:title="Mixin class that manages private or public roles for elements as needed. ">
<polygon fill="white" stroke="black" points="126,-403.5 126,-493.5 218,-493.5 218,-403.5 126,-403.5"/>
<text text-anchor="middle" x="172" y="-481.5" font-family="Helvetica,sans-Serif" font-size="10.00">scram::mef::Role</text>
<polyline fill="none" stroke="black" points="126,-474.5 218,-474.5 "/>
<text text-anchor="middle" x="172" y="-462.5" font-family="Helvetica,sans-Serif" font-size="10.00"> </text>
<polyline fill="none" stroke="black" points="126,-455.5 218,-455.5 "/>
<text text-anchor="start" x="134" y="-443.5" font-family="Helvetica,sans-Serif" font-size="10.00">+ Role()</text>
<text text-anchor="start" x="134" y="-432.5" font-family="Helvetica,sans-Serif" font-size="10.00">+ role()</text>
<text text-anchor="start" x="134" y="-421.5" font-family="Helvetica,sans-Serif" font-size="10.00">+ base_path()</text>
<text text-anchor="start" x="134" y="-410.5" font-family="Helvetica,sans-Serif" font-size="10.00"># ~Role()</text>
</a>
</g>
</g>
<!-- Node5&#45;&gt;Node3 -->
<g id="edge4" class="edge"><title>Node5&#45;&gt;Node3</title>
<path fill="none" stroke="midnightblue" d="M149.584,-393.739C142.82,-377.517 135.528,-360.028 129.247,-344.965"/>
<polygon fill="none" stroke="midnightblue" points="146.415,-395.234 153.494,-403.117 152.876,-392.54 146.415,-395.234"/>
</g>
<!-- Node6 -->
<g id="node6" class="node"><title>Node6</title>
<polygon fill="white" stroke="#bfbfbf" points="171.5,-276.5 171.5,-333.5 242.5,-333.5 242.5,-276.5 171.5,-276.5"/>
<text text-anchor="middle" x="207" y="-321.5" font-family="Helvetica,sans-Serif" font-size="10.00">noncopyable</text>
<polyline fill="none" stroke="#bfbfbf" points="171.5,-314.5 242.5,-314.5 "/>
<text text-anchor="middle" x="207" y="-302.5" font-family="Helvetica,sans-Serif" font-size="10.00"> </text>
<polyline fill="none" stroke="#bfbfbf" points="171.5,-295.5 242.5,-295.5 "/>
<text text-anchor="middle" x="207" y="-283.5" font-family="Helvetica,sans-Serif" font-size="10.00"> </text>
</g>
<!-- Node6&#45;&gt;Node2 -->
<g id="edge5" class="edge"><title>Node6&#45;&gt;Node2</title>
<path fill="none" stroke="#8b1a1a" d="M191.707,-266.907C186.643,-254.624 180.997,-240.93 175.89,-228.541"/>
<polygon fill="none" stroke="#8b1a1a" points="188.575,-268.493 195.623,-276.404 195.047,-265.825 188.575,-268.493"/>
</g>
<!-- Node7 -->
<g id="node7" class="node"><title>Node7</title>
<g id="a_node7"><a xlink:href="classscram_1_1mef_1_1NodeMark.xhtml" target="_top" xlink:title="Mixin class for providing marks for graph nodes. ">
<polygon fill="white" stroke="black" points="227.5,-149.5 227.5,-228.5 344.5,-228.5 344.5,-149.5 227.5,-149.5"/>
<text text-anchor="middle" x="286" y="-216.5" font-family="Helvetica,sans-Serif" font-size="10.00">scram::mef::NodeMark</text>
<polyline fill="none" stroke="black" points="227.5,-209.5 344.5,-209.5 "/>
<text text-anchor="middle" x="286" y="-197.5" font-family="Helvetica,sans-Serif" font-size="10.00"> </text>
<polyline fill="none" stroke="black" points="227.5,-190.5 344.5,-190.5 "/>
<text text-anchor="start" x="235.5" y="-178.5" font-family="Helvetica,sans-Serif" font-size="10.00">+ mark()</text>
<text text-anchor="start" x="235.5" y="-167.5" font-family="Helvetica,sans-Serif" font-size="10.00">+ mark()</text>
<text text-anchor="start" x="235.5" y="-156.5" font-family="Helvetica,sans-Serif" font-size="10.00"># ~NodeMark()</text>
</a>
</g>
</g>
<!-- Node7&#45;&gt;Node1 -->
<g id="edge6" class="edge"><title>Node7&#45;&gt;Node1</title>
<path fill="none" stroke="midnightblue" d="M262.894,-140.137C258.604,-131.251 254.09,-121.901 249.703,-112.814"/>
<polygon fill="none" stroke="midnightblue" points="259.769,-141.715 267.268,-149.199 266.073,-138.672 259.769,-141.715"/>
</g>
</g>
</svg>
