<?xml version="1.0" encoding="UTF-8" standalone="no"?>
<!DOCTYPE svg PUBLIC "-//W3C//DTD SVG 1.1//EN"
 "http://www.w3.org/Graphics/SVG/1.1/DTD/svg11.dtd">
<!-- Generated by graphviz version 2.38.0 (20140413.2041)
 -->
<!-- Title: ext::index_map&lt; BaseIndex, T, Sequence &gt; Pages: 1 -->
<svg width="308pt" height="354pt"
 viewBox="0.00 0.00 308.00 354.00" xmlns="http://www.w3.org/2000/svg" xmlns:xlink="http://www.w3.org/1999/xlink">
<g id="graph0" class="graph" transform="scale(1 1) rotate(0) translate(4 350)">
<title>ext::index_map&lt; BaseIndex, T, Sequence &gt;</title>
<polygon fill="white" stroke="none" points="-4,4 -4,-350 304,-350 304,4 -4,4"/>
<!-- Node1 -->
<g id="node1" class="node"><title>Node1</title>
<polygon fill="#bfbfbf" stroke="black" points="64,-149.5 64,-250.5 206,-250.5 206,-149.5 64,-149.5"/>
<text text-anchor="start" x="72" y="-238.5" font-family="Helvetica,sans-Serif" font-size="10.00">ext::index_map&lt; BaseIndex,</text>
<text text-anchor="middle" x="135" y="-227.5" font-family="Helvetica,sans-Serif" font-size="10.00"> T, Sequence &gt;</text>
<polyline fill="none" stroke="black" points="64,-220.5 206,-220.5 "/>
<text text-anchor="middle" x="135" y="-208.5" font-family="Helvetica,sans-Serif" font-size="10.00"> </text>
<polyline fill="none" stroke="black" points="64,-201.5 206,-201.5 "/>
<text text-anchor="start" x="72" y="-189.5" font-family="Helvetica,sans-Serif" font-size="10.00">+ operator[]()</text>
<text text-anchor="start" x="72" y="-178.5" font-family="Helvetica,sans-Serif" font-size="10.00">+ operator[]()</text>
<text text-anchor="start" x="72" y="-167.5" font-family="Helvetica,sans-Serif" font-size="10.00">* operator[]()</text>
<text text-anchor="start" x="72" y="-156.5" font-family="Helvetica,sans-Serif" font-size="10.00">* operator[]()</text>
</g>
<!-- Node3 -->
<g id="node3" class="node"><title>Node3</title>
<g id="a_node3"><a xlink:href="classext_1_1index__map.xhtml" target="_top" xlink:title="{ext::index_map\&lt; double \&gt;\n||+ operator[]()\l+ operator[]()\l* operator[]()\l* operator[]()\l}">
<polygon fill="white" stroke="black" points="0,-6 0,-96 130,-96 130,-6 0,-6"/>
<text text-anchor="middle" x="65" y="-84" font-family="Helvetica,sans-Serif" font-size="10.00">ext::index_map&lt; double &gt;</text>
<polyline fill="none" stroke="black" points="0,-77 130,-77 "/>
<text text-anchor="middle" x="65" y="-65" font-family="Helvetica,sans-Serif" font-size="10.00"> </text>
<polyline fill="none" stroke="black" points="0,-58 130,-58 "/>
<text text-anchor="start" x="8" y="-46" font-family="Helvetica,sans-Serif" font-size="10.00">+ operator[]()</text>
<text text-anchor="start" x="8" y="-35" font-family="Helvetica,sans-Serif" font-size="10.00">+ operator[]()</text>
<text text-anchor="start" x="8" y="-24" font-family="Helvetica,sans-Serif" font-size="10.00">* operator[]()</text>
<text text-anchor="start" x="8" y="-13" font-family="Helvetica,sans-Serif" font-size="10.00">* operator[]()</text>
</a>
</g>
</g>
<!-- Node1&#45;&gt;Node3 -->
<g id="edge2" class="edge"><title>Node1&#45;&gt;Node3</title>
<path fill="none" stroke="orange" d="M106.82,-139.821C99.9004,-125.291 92.6113,-109.984 86.0913,-96.2917"/>
<polygon fill="orange" stroke="orange" points="103.842,-141.709 111.301,-149.233 110.162,-138.699 103.842,-141.709"/>
<text text-anchor="middle" x="128" y="-123" font-family="Helvetica,sans-Serif" font-size="10.00"> &lt; double &gt;</text>
</g>
<!-- Node4 -->
<g id="node4" class="node"><title>Node4</title>
<g id="a_node4"><a xlink:href="classext_1_1index__map.xhtml" target="_top" xlink:title="{ext::index_map\&lt; const\l mef::BasicEvent * \&gt;\n||+ operator[]()\l+ operator[]()\l* operator[]()\l* operator[]()\l}">
<polygon fill="white" stroke="black" points="148,-0.5 148,-101.5 264,-101.5 264,-0.5 148,-0.5"/>
<text text-anchor="start" x="156" y="-89.5" font-family="Helvetica,sans-Serif" font-size="10.00">ext::index_map&lt; const</text>
<text text-anchor="middle" x="206" y="-78.5" font-family="Helvetica,sans-Serif" font-size="10.00"> mef::BasicEvent * &gt;</text>
<polyline fill="none" stroke="black" points="148,-71.5 264,-71.5 "/>
<text text-anchor="middle" x="206" y="-59.5" font-family="Helvetica,sans-Serif" font-size="10.00"> </text>
<polyline fill="none" stroke="black" points="148,-52.5 264,-52.5 "/>
<text text-anchor="start" x="156" y="-40.5" font-family="Helvetica,sans-Serif" font-size="10.00">+ operator[]()</text>
<text text-anchor="start" x="156" y="-29.5" font-family="Helvetica,sans-Serif" font-size="10.00">+ operator[]()</text>
<text text-anchor="start" x="156" y="-18.5" font-family="Helvetica,sans-Serif" font-size="10.00">* operator[]()</text>
<text text-anchor="start" x="156" y="-7.5" font-family="Helvetica,sans-Serif" font-size="10.00">* operator[]()</text>
</a>
</g>
</g>
<!-- Node1&#45;&gt;Node4 -->
<g id="edge3" class="edge"><title>Node1&#45;&gt;Node4</title>
<path fill="none" stroke="orange" d="M163.449,-140.099C169.594,-127.377 176.032,-114.046 181.987,-101.716"/>
<polygon fill="orange" stroke="orange" points="160.235,-138.706 159.037,-149.233 166.538,-141.75 160.235,-138.706"/>
<text text-anchor="middle" x="236" y="-123" font-family="Helvetica,sans-Serif" font-size="10.00"> &lt; const mef::BasicEvent * &gt;</text>
</g>
<!-- Node2 -->
<g id="node2" class="node"><title>Node2</title>
<polygon fill="white" stroke="#bfbfbf" points="93,-288.5 93,-345.5 177,-345.5 177,-288.5 93,-288.5"/>
<text text-anchor="middle" x="135" y="-333.5" font-family="Helvetica,sans-Serif" font-size="10.00">Sequence&lt; T &gt;</text>
<polyline fill="none" stroke="#bfbfbf" points="93,-326.5 177,-326.5 "/>
<text text-anchor="middle" x="135" y="-314.5" font-family="Helvetica,sans-Serif" font-size="10.00"> </text>
<polyline fill="none" stroke="#bfbfbf" points="93,-307.5 177,-307.5 "/>
<text text-anchor="middle" x="135" y="-295.5" font-family="Helvetica,sans-Serif" font-size="10.00"> </text>
</g>
<!-- Node2&#45;&gt;Node1 -->
<g id="edge1" class="edge"><title>Node2&#45;&gt;Node1</title>
<path fill="none" stroke="midnightblue" d="M135,-278.187C135,-269.435 135,-259.99 135,-250.812"/>
<polygon fill="none" stroke="midnightblue" points="131.5,-278.455 135,-288.455 138.5,-278.455 131.5,-278.455"/>
</g>
</g>
</svg>
