<?xml version="1.0" encoding="UTF-8" standalone="no"?>
<!DOCTYPE svg PUBLIC "-//W3C//DTD SVG 1.1//EN"
 "http://www.w3.org/Graphics/SVG/1.1/DTD/svg11.dtd">
<!-- Generated by graphviz version 2.38.0 (20140413.2041)
 -->
<!-- Title: scram::core::Preprocessor::NormalizeGates Pages: 1 -->
<svg width="871pt" height="165pt"
 viewBox="0.00 0.00 871.00 165.27" xmlns="http://www.w3.org/2000/svg" xmlns:xlink="http://www.w3.org/1999/xlink">
<g id="graph0" class="graph" transform="scale(1 1) rotate(0) translate(4 161.267)">
<title>scram::core::Preprocessor::NormalizeGates</title>
<polygon fill="white" stroke="none" points="-4,4 -4,-161.267 867,-161.267 867,4 -4,4"/>
<!-- Node1 -->
<g id="node1" class="node"><title>Node1</title>
<polygon fill="#bfbfbf" stroke="black" points="0,-112.5 0,-142.5 132,-142.5 132,-112.5 0,-112.5"/>
<text text-anchor="start" x="8" y="-130.5" font-family="Helvetica,sans-Serif" font-size="10.00">scram::core::Preprocessor</text>
<text text-anchor="middle" x="66" y="-119.5" font-family="Helvetica,sans-Serif" font-size="10.00">::NormalizeGates</text>
</g>
<!-- Node2 -->
<g id="node2" class="node"><title>Node2</title>
<g id="a_node2"><a xlink:href="classscram_1_1core_1_1Preprocessor.xhtml#a5ee92284aef510ce01a71c962d50f51c" target="_top" xlink:title="Runs the graph preprocessing. ">
<polygon fill="white" stroke="black" points="545.5,-105.5 545.5,-135.5 677.5,-135.5 677.5,-105.5 545.5,-105.5"/>
<text text-anchor="start" x="553.5" y="-123.5" font-family="Helvetica,sans-Serif" font-size="10.00">scram::core::Preprocessor</text>
<text text-anchor="middle" x="611.5" y="-112.5" font-family="Helvetica,sans-Serif" font-size="10.00">::operator()</text>
</a>
</g>
</g>
<!-- Node1&#45;&gt;Node2 -->
<g id="edge1" class="edge"><title>Node1&#45;&gt;Node2</title>
<path fill="none" stroke="midnightblue" d="M129.935,-144.84C142.453,-147.611 155.57,-150.043 168,-151.5 301.663,-167.163 459.034,-146.997 545.465,-132.619"/>
<polygon fill="midnightblue" stroke="midnightblue" points="130.58,-141.397 120.049,-142.557 129.005,-148.218 130.58,-141.397"/>
</g>
<!-- Node4 -->
<g id="node4" class="node"><title>Node4</title>
<g id="a_node4"><a xlink:href="classscram_1_1core_1_1Preprocessor.xhtml#a44f820b6fe2c23594c818432b33e26a6" target="_top" xlink:title="The initial phase of preprocessing. ">
<polygon fill="white" stroke="black" points="168,-63.5 168,-93.5 300,-93.5 300,-63.5 168,-63.5"/>
<text text-anchor="start" x="176" y="-81.5" font-family="Helvetica,sans-Serif" font-size="10.00">scram::core::Preprocessor</text>
<text text-anchor="middle" x="234" y="-70.5" font-family="Helvetica,sans-Serif" font-size="10.00">::RunPhaseOne</text>
</a>
</g>
</g>
<!-- Node1&#45;&gt;Node4 -->
<g id="edge3" class="edge"><title>Node1&#45;&gt;Node4</title>
<path fill="none" stroke="midnightblue" d="M127.868,-109.533C145.654,-104.283 164.902,-98.6011 182.009,-93.5516"/>
<polygon fill="midnightblue" stroke="midnightblue" points="126.76,-106.211 118.16,-112.399 128.742,-112.924 126.76,-106.211"/>
</g>
<!-- Node8 -->
<g id="node8" class="node"><title>Node8</title>
<g id="a_node8"><a xlink:href="classscram_1_1core_1_1Preprocessor.xhtml#abf2c66723172a85b2ae87ef2a034cd1f" target="_top" xlink:title="Application of gate normalization. ">
<polygon fill="white" stroke="black" points="168,-112.5 168,-142.5 300,-142.5 300,-112.5 168,-112.5"/>
<text text-anchor="start" x="176" y="-130.5" font-family="Helvetica,sans-Serif" font-size="10.00">scram::core::Preprocessor</text>
<text text-anchor="middle" x="234" y="-119.5" font-family="Helvetica,sans-Serif" font-size="10.00">::RunPhaseThree</text>
</a>
</g>
</g>
<!-- Node1&#45;&gt;Node8 -->
<g id="edge9" class="edge"><title>Node1&#45;&gt;Node8</title>
<path fill="none" stroke="midnightblue" d="M142.393,-127.5C150.869,-127.5 159.452,-127.5 167.784,-127.5"/>
<polygon fill="midnightblue" stroke="midnightblue" points="142.131,-124 132.131,-127.5 142.131,-131 142.131,-124"/>
</g>
<!-- Node3 -->
<g id="node3" class="node"><title>Node3</title>
<g id="a_node3"><a xlink:href="classscram_1_1core_1_1Preprocessor_1_1GateSet.xhtml#ae00239084858979e096032c4cf2f05b9" target="_top" xlink:title="Inserts a gate into the set if it is semantically unique. ">
<polygon fill="white" stroke="black" points="731,-105.5 731,-135.5 863,-135.5 863,-105.5 731,-105.5"/>
<text text-anchor="start" x="739" y="-123.5" font-family="Helvetica,sans-Serif" font-size="10.00">scram::core::Preprocessor</text>
<text text-anchor="middle" x="797" y="-112.5" font-family="Helvetica,sans-Serif" font-size="10.00">::GateSet::insert</text>
</a>
</g>
</g>
<!-- Node2&#45;&gt;Node3 -->
<g id="edge2" class="edge"><title>Node2&#45;&gt;Node3</title>
<path fill="none" stroke="midnightblue" d="M687.989,-120.5C702.264,-120.5 717.081,-120.5 730.998,-120.5"/>
<polygon fill="midnightblue" stroke="midnightblue" points="687.712,-117 677.712,-120.5 687.712,-124 687.712,-117"/>
</g>
<!-- Node4&#45;&gt;Node2 -->
<g id="edge4" class="edge"><title>Node4&#45;&gt;Node2</title>
<path fill="none" stroke="midnightblue" d="M310.74,-86.9716C379.516,-94.6643 479.901,-105.892 545.214,-113.198"/>
<polygon fill="midnightblue" stroke="midnightblue" points="310.734,-83.4492 300.407,-85.8158 309.956,-90.4058 310.734,-83.4492"/>
</g>
<!-- Node5 -->
<g id="node5" class="node"><title>Node5</title>
<g id="a_node5"><a xlink:href="classscram_1_1core_1_1Preprocessor.xhtml#a2b6705e815fa3d02119c405b483766d5" target="_top" xlink:title="Container of unique gates by semantics. ">
<polygon fill="white" stroke="black" points="336,-48 336,-67 492,-67 492,-48 336,-48"/>
<text text-anchor="middle" x="414" y="-55" font-family="Helvetica,sans-Serif" font-size="10.00">scram::core::Preprocessor::Run</text>
</a>
</g>
</g>
<!-- Node4&#45;&gt;Node5 -->
<g id="edge5" class="edge"><title>Node4&#45;&gt;Node5</title>
<path fill="none" stroke="midnightblue" d="M310.221,-69.6257C318.672,-68.6286 327.292,-67.6116 335.768,-66.6116"/>
<polygon fill="midnightblue" stroke="midnightblue" points="309.539,-66.1817 300.018,-70.8294 310.359,-73.1335 309.539,-66.1817"/>
</g>
<!-- Node5&#45;&gt;Node2 -->
<g id="edge7" class="edge"><title>Node5&#45;&gt;Node2</title>
<path fill="none" stroke="midnightblue" d="M455.686,-70.0497C467.418,-73.7041 480.228,-77.7285 492,-81.5 516.235,-89.2645 543.187,-98.1174 565.257,-105.424"/>
<polygon fill="midnightblue" stroke="midnightblue" points="456.72,-66.7058 446.132,-67.0807 454.643,-73.3905 456.72,-66.7058"/>
</g>
<!-- Node6 -->
<g id="node6" class="node"><title>Node6</title>
<g id="a_node6"><a xlink:href="classscram_1_1core_1_1Preprocessor.xhtml#a9caf4677a024ed935d831210b57b8ed9" target="_top" xlink:title="Gathers nodes in the sub&#45;graph. ">
<polygon fill="white" stroke="black" points="545.5,-0.5 545.5,-30.5 677.5,-30.5 677.5,-0.5 545.5,-0.5"/>
<text text-anchor="start" x="553.5" y="-18.5" font-family="Helvetica,sans-Serif" font-size="10.00">scram::core::Preprocessor</text>
<text text-anchor="middle" x="611.5" y="-7.5" font-family="Helvetica,sans-Serif" font-size="10.00">::GatherNodes</text>
</a>
</g>
</g>
<!-- Node5&#45;&gt;Node6 -->
<g id="edge6" class="edge"><title>Node5&#45;&gt;Node6</title>
<path fill="none" stroke="midnightblue" d="M469.17,-45.8625C492.711,-40.8051 520.492,-34.8368 545.166,-29.536"/>
<polygon fill="midnightblue" stroke="midnightblue" points="468.404,-42.4471 459.362,-47.9695 469.874,-49.291 468.404,-42.4471"/>
</g>
<!-- Node7 -->
<g id="node7" class="node"><title>Node7</title>
<g id="a_node7"><a xlink:href="classscram_1_1core_1_1CustomPreprocessor_3_01Zbdd_01_4.xhtml#a5185075f852c647c7aa4313d23420ee5" target="_top" xlink:title="Performs preprocessing for analyses with Zero&#45;Suppressed Binary Decision Diagrams. ">
<polygon fill="white" stroke="black" points="528,-49.5 528,-79.5 695,-79.5 695,-49.5 528,-49.5"/>
<text text-anchor="start" x="536" y="-67.5" font-family="Helvetica,sans-Serif" font-size="10.00">scram::core::CustomPreprocessor</text>
<text text-anchor="middle" x="611.5" y="-56.5" font-family="Helvetica,sans-Serif" font-size="10.00">&lt; Zbdd &gt;::Run</text>
</a>
</g>
</g>
<!-- Node5&#45;&gt;Node7 -->
<g id="edge8" class="edge"><title>Node5&#45;&gt;Node7</title>
<path fill="none" stroke="midnightblue" d="M502.44,-60.6308C510.836,-60.9315 519.334,-61.2357 527.683,-61.5347"/>
<polygon fill="midnightblue" stroke="midnightblue" points="502.386,-57.1267 492.267,-60.2666 502.135,-64.1223 502.386,-57.1267"/>
</g>
<!-- Node8&#45;&gt;Node2 -->
<g id="edge10" class="edge"><title>Node8&#45;&gt;Node2</title>
<path fill="none" stroke="midnightblue" d="M310.74,-126.088C379.516,-124.806 479.901,-122.935 545.214,-121.717"/>
<polygon fill="midnightblue" stroke="midnightblue" points="310.34,-122.595 300.407,-126.281 310.471,-129.594 310.34,-122.595"/>
</g>
<!-- Node8&#45;&gt;Node5 -->
<g id="edge11" class="edge"><title>Node8&#45;&gt;Node5</title>
<path fill="none" stroke="midnightblue" d="M284.135,-108.673C289.493,-106.599 294.863,-104.511 300,-102.5 330.872,-90.4164 366.379,-76.229 389.224,-67.063"/>
<polygon fill="midnightblue" stroke="midnightblue" points="282.626,-105.503 274.558,-112.371 285.148,-112.033 282.626,-105.503"/>
</g>
</g>
</svg>
