<?xml version="1.0" encoding="UTF-8" standalone="no"?>
<!DOCTYPE svg PUBLIC "-//W3C//DTD SVG 1.1//EN"
 "http://www.w3.org/Graphics/SVG/1.1/DTD/svg11.dtd">
<!-- Generated by graphviz version 2.38.0 (20140413.2041)
 -->
<!-- Title: scram::mef::MissionTime::value Pages: 1 -->
<svg width="315pt" height="137pt"
 viewBox="0.00 0.00 315.00 137.00" xmlns="http://www.w3.org/2000/svg" xmlns:xlink="http://www.w3.org/1999/xlink">
<g id="graph0" class="graph" transform="scale(1 1) rotate(0) translate(4 133)">
<title>scram::mef::MissionTime::value</title>
<polygon fill="white" stroke="none" points="-4,4 -4,-133 311,-133 311,4 -4,4"/>
<!-- Node1 -->
<g id="node1" class="node"><title>Node1</title>
<polygon fill="#bfbfbf" stroke="black" points="0,-49.5 0,-79.5 128,-79.5 128,-49.5 0,-49.5"/>
<text text-anchor="start" x="8" y="-67.5" font-family="Helvetica,sans-Serif" font-size="10.00">scram::mef::MissionTime</text>
<text text-anchor="middle" x="64" y="-56.5" font-family="Helvetica,sans-Serif" font-size="10.00">::value</text>
</g>
<!-- Node2 -->
<g id="node2" class="node"><title>Node2</title>
<g id="a_node2"><a xlink:href="classscram_1_1core_1_1McubCalculator.xhtml#af47379d2ba9190b34aef1acfa402e15c" target="_top" xlink:title="Calculates probabilities using the minimal cut set upper bound (MCUB) approximation. ">
<polygon fill="white" stroke="black" points="164,-98.5 164,-128.5 307,-128.5 307,-98.5 164,-98.5"/>
<text text-anchor="start" x="172" y="-116.5" font-family="Helvetica,sans-Serif" font-size="10.00">scram::core::McubCalculator</text>
<text text-anchor="middle" x="235.5" y="-105.5" font-family="Helvetica,sans-Serif" font-size="10.00">::Calculate</text>
</a>
</g>
</g>
<!-- Node1&#45;&gt;Node2 -->
<g id="edge1" class="edge"><title>Node1&#45;&gt;Node2</title>
<path fill="none" stroke="midnightblue" d="M126.899,-82.3941C145.13,-87.6644 164.886,-93.3755 182.434,-98.4484"/>
<polygon fill="midnightblue" stroke="midnightblue" points="127.817,-79.0163 117.239,-79.6014 125.873,-85.741 127.817,-79.0163"/>
</g>
<!-- Node3 -->
<g id="node3" class="node"><title>Node3</title>
<g id="a_node3"><a xlink:href="classscram_1_1mef_1_1MissionTime.xhtml#a2822df6248414074cc83189d6527265f" target="_top" xlink:title="scram::mef::MissionTime\l::MissionTime">
<polygon fill="white" stroke="black" points="171.5,-49.5 171.5,-79.5 299.5,-79.5 299.5,-49.5 171.5,-49.5"/>
<text text-anchor="start" x="179.5" y="-67.5" font-family="Helvetica,sans-Serif" font-size="10.00">scram::mef::MissionTime</text>
<text text-anchor="middle" x="235.5" y="-56.5" font-family="Helvetica,sans-Serif" font-size="10.00">::MissionTime</text>
</a>
</g>
</g>
<!-- Node1&#45;&gt;Node3 -->
<g id="edge2" class="edge"><title>Node1&#45;&gt;Node3</title>
<path fill="none" stroke="midnightblue" d="M138.162,-64.5C149.208,-64.5 160.521,-64.5 171.332,-64.5"/>
<polygon fill="midnightblue" stroke="midnightblue" points="138.116,-61.0001 128.116,-64.5 138.116,-68.0001 138.116,-61.0001"/>
</g>
<!-- Node4 -->
<g id="node4" class="node"><title>Node4</title>
<g id="a_node4"><a xlink:href="classscram_1_1mef_1_1MissionTime.xhtml#a23aa8c2adf6c79eaa5b875a9183f1acb" target="_top" xlink:title="scram::mef::MissionTime\l::unit">
<polygon fill="white" stroke="black" points="171.5,-0.5 171.5,-30.5 299.5,-30.5 299.5,-0.5 171.5,-0.5"/>
<text text-anchor="start" x="179.5" y="-18.5" font-family="Helvetica,sans-Serif" font-size="10.00">scram::mef::MissionTime</text>
<text text-anchor="middle" x="235.5" y="-7.5" font-family="Helvetica,sans-Serif" font-size="10.00">::unit</text>
</a>
</g>
</g>
<!-- Node1&#45;&gt;Node4 -->
<g id="edge3" class="edge"><title>Node1&#45;&gt;Node4</title>
<path fill="none" stroke="midnightblue" d="M126.899,-46.6059C145.13,-41.3356 164.886,-35.6245 182.434,-30.5516"/>
<polygon fill="midnightblue" stroke="midnightblue" points="125.873,-43.259 117.239,-49.3986 127.817,-49.9837 125.873,-43.259"/>
</g>
</g>
</svg>
