<?xml version="1.0" encoding="UTF-8" standalone="no"?>
<!DOCTYPE svg PUBLIC "-//W3C//DTD SVG 1.1//EN"
 "http://www.w3.org/Graphics/SVG/1.1/DTD/svg11.dtd">
<!-- Generated by graphviz version 2.38.0 (20140413.2041)
 -->
<!-- Title: scram::core::Analysis::settings Pages: 1 -->
<svg width="681pt" height="372pt"
 viewBox="0.00 0.00 681.00 372.00" xmlns="http://www.w3.org/2000/svg" xmlns:xlink="http://www.w3.org/1999/xlink">
<g id="graph0" class="graph" transform="scale(1 1) rotate(0) translate(4 368)">
<title>scram::core::Analysis::settings</title>
<polygon fill="white" stroke="none" points="-4,4 -4,-368 677,-368 677,4 -4,4"/>
<!-- Node1 -->
<g id="node1" class="node"><title>Node1</title>
<polygon fill="#bfbfbf" stroke="black" points="0,-171.5 0,-201.5 112,-201.5 112,-171.5 0,-171.5"/>
<text text-anchor="start" x="8" y="-189.5" font-family="Helvetica,sans-Serif" font-size="10.00">scram::core::Analysis</text>
<text text-anchor="middle" x="56" y="-178.5" font-family="Helvetica,sans-Serif" font-size="10.00">::settings</text>
</g>
<!-- Node2 -->
<g id="node2" class="node"><title>Node2</title>
<g id="a_node2"><a xlink:href="classscram_1_1core_1_1RiskAnalysis.xhtml#a7aed757ac5a7a96878c2706a7a9710bb" target="_top" xlink:title="Analyzes the model and performs computations specified in the settings. ">
<polygon fill="white" stroke="black" points="161.5,-333.5 161.5,-363.5 293.5,-363.5 293.5,-333.5 161.5,-333.5"/>
<text text-anchor="start" x="169.5" y="-351.5" font-family="Helvetica,sans-Serif" font-size="10.00">scram::core::RiskAnalysis</text>
<text text-anchor="middle" x="227.5" y="-340.5" font-family="Helvetica,sans-Serif" font-size="10.00">::Analyze</text>
</a>
</g>
</g>
<!-- Node1&#45;&gt;Node2 -->
<g id="edge1" class="edge"><title>Node1&#45;&gt;Node2</title>
<path fill="none" stroke="midnightblue" d="M68.1336,-210.918C82.6443,-240.242 110.643,-289.138 148,-318.5 155.685,-324.541 164.725,-329.474 173.883,-333.466"/>
<polygon fill="midnightblue" stroke="midnightblue" points="71.2263,-209.273 63.7357,-201.781 64.9188,-212.309 71.2263,-209.273"/>
</g>
<!-- Node4 -->
<g id="node4" class="node"><title>Node4</title>
<g id="a_node4"><a xlink:href="reporter_8cc.xhtml#ad6460094a94fb73e56c2a4a5efc598ed" target="_top" xlink:title="Describes all performed analyses deduced from settings. ">
<polygon fill="white" stroke="black" points="511,-311.5 511,-341.5 673,-341.5 673,-311.5 511,-311.5"/>
<text text-anchor="start" x="519" y="-329.5" font-family="Helvetica,sans-Serif" font-size="10.00">scram::ReportCalculatedQuantity</text>
<text text-anchor="middle" x="592" y="-318.5" font-family="Helvetica,sans-Serif" font-size="10.00">&lt; core::RiskAnalysis &gt;</text>
</a>
</g>
</g>
<!-- Node1&#45;&gt;Node4 -->
<g id="edge10" class="edge"><title>Node1&#45;&gt;Node4</title>
<path fill="none" stroke="midnightblue" d="M71.4752,-210.534C87.1211,-234.104 114.388,-268.852 148,-285.5 179.622,-301.162 391.852,-315.357 510.715,-322.198"/>
<polygon fill="midnightblue" stroke="midnightblue" points="74.2196,-208.33 65.8711,-201.807 68.3295,-212.113 74.2196,-208.33"/>
</g>
<!-- Node5 -->
<g id="node5" class="node"><title>Node5</title>
<g id="a_node5"><a xlink:href="classscram_1_1core_1_1ProbabilityAnalysis.xhtml#ab68a356b0bdeb793d30d3b6e84847d12" target="_top" xlink:title="Performs quantitative analysis on the supplied fault tree. ">
<polygon fill="white" stroke="black" points="167.5,-245.5 167.5,-275.5 287.5,-275.5 287.5,-245.5 167.5,-245.5"/>
<text text-anchor="start" x="175.5" y="-263.5" font-family="Helvetica,sans-Serif" font-size="10.00">scram::core::Probability</text>
<text text-anchor="middle" x="227.5" y="-252.5" font-family="Helvetica,sans-Serif" font-size="10.00">Analysis::Analyze</text>
</a>
</g>
</g>
<!-- Node1&#45;&gt;Node5 -->
<g id="edge4" class="edge"><title>Node1&#45;&gt;Node5</title>
<path fill="none" stroke="midnightblue" d="M90.3255,-206.97C107.197,-216.77 128.244,-228.157 148,-236.5 155.615,-239.715 163.808,-242.706 171.928,-245.408"/>
<polygon fill="midnightblue" stroke="midnightblue" points="91.8089,-203.782 81.4169,-201.719 88.254,-209.812 91.8089,-203.782"/>
</g>
<!-- Node6 -->
<g id="node6" class="node"><title>Node6</title>
<g id="a_node6"><a xlink:href="classscram_1_1core_1_1FaultTreeAnalysis.xhtml#a327afc0524cff5289c3887357487266b" target="_top" xlink:title="Analyzes the fault tree and performs computations. ">
<polygon fill="white" stroke="black" points="151,-196.5 151,-226.5 304,-226.5 304,-196.5 151,-196.5"/>
<text text-anchor="start" x="159" y="-214.5" font-family="Helvetica,sans-Serif" font-size="10.00">scram::core::FaultTreeAnalysis</text>
<text text-anchor="middle" x="227.5" y="-203.5" font-family="Helvetica,sans-Serif" font-size="10.00">::Analyze</text>
</a>
</g>
</g>
<!-- Node1&#45;&gt;Node6 -->
<g id="edge5" class="edge"><title>Node1&#45;&gt;Node6</title>
<path fill="none" stroke="midnightblue" d="M122.073,-196.098C131.472,-197.484 141.213,-198.921 150.797,-200.334"/>
<polygon fill="midnightblue" stroke="midnightblue" points="122.435,-192.613 112.032,-194.617 121.414,-199.539 122.435,-192.613"/>
</g>
<!-- Node7 -->
<g id="node7" class="node"><title>Node7</title>
<g id="a_node7"><a xlink:href="classscram_1_1core_1_1McubCalculator.xhtml#af47379d2ba9190b34aef1acfa402e15c" target="_top" xlink:title="Calculates probabilities using the minimal cut set upper bound (MCUB) approximation. ">
<polygon fill="white" stroke="black" points="156,-147.5 156,-177.5 299,-177.5 299,-147.5 156,-147.5"/>
<text text-anchor="start" x="164" y="-165.5" font-family="Helvetica,sans-Serif" font-size="10.00">scram::core::McubCalculator</text>
<text text-anchor="middle" x="227.5" y="-154.5" font-family="Helvetica,sans-Serif" font-size="10.00">::Calculate</text>
</a>
</g>
</g>
<!-- Node1&#45;&gt;Node7 -->
<g id="edge6" class="edge"><title>Node1&#45;&gt;Node7</title>
<path fill="none" stroke="midnightblue" d="M122.068,-177.287C133.168,-175.715 144.746,-174.076 155.979,-172.485"/>
<polygon fill="midnightblue" stroke="midnightblue" points="121.442,-173.84 112.032,-178.708 122.424,-180.771 121.442,-173.84"/>
</g>
<!-- Node8 -->
<g id="node8" class="node"><title>Node8</title>
<g id="a_node8"><a xlink:href="classscram_1_1core_1_1ProbabilityAnalyzer_3_01Bdd_01_4.xhtml#a45b66605634ae60f1c00e3ac469a7c7a" target="_top" xlink:title="Calculates the total probability with a different set of probability values than the one given upon c...">
<polygon fill="white" stroke="black" points="148,-88 148,-129 307,-129 307,-88 148,-88"/>
<text text-anchor="start" x="156" y="-117" font-family="Helvetica,sans-Serif" font-size="10.00">scram::core::Probability</text>
<text text-anchor="start" x="156" y="-106" font-family="Helvetica,sans-Serif" font-size="10.00">Analyzer&lt; Bdd &gt;::CalculateTotal</text>
<text text-anchor="middle" x="227.5" y="-95" font-family="Helvetica,sans-Serif" font-size="10.00">Probability</text>
</a>
</g>
</g>
<!-- Node1&#45;&gt;Node8 -->
<g id="edge7" class="edge"><title>Node1&#45;&gt;Node8</title>
<path fill="none" stroke="midnightblue" d="M92.4872,-166.509C109.112,-157.474 129.329,-146.955 148,-138.5 155.044,-135.31 162.536,-132.155 169.989,-129.158"/>
<polygon fill="midnightblue" stroke="midnightblue" points="90.7388,-163.476 83.6531,-171.353 94.1043,-169.614 90.7388,-163.476"/>
</g>
<!-- Node9 -->
<g id="node9" class="node"><title>Node9</title>
<g id="a_node9"><a xlink:href="classscram_1_1Reporter.xhtml#a6a6327c0fc2d0e8ab6ec24a145ae1abe" target="_top" xlink:title="Reports the results of risk analysis on a model. ">
<polygon fill="white" stroke="black" points="166.5,-50 166.5,-69 288.5,-69 288.5,-50 166.5,-50"/>
<text text-anchor="middle" x="227.5" y="-57" font-family="Helvetica,sans-Serif" font-size="10.00">scram::Reporter::Report</text>
</a>
</g>
</g>
<!-- Node1&#45;&gt;Node9 -->
<g id="edge8" class="edge"><title>Node1&#45;&gt;Node9</title>
<path fill="none" stroke="midnightblue" d="M70.8023,-162.493C86.3614,-137.635 113.981,-99.5471 148,-78.5 154.32,-74.59 161.388,-71.4846 168.623,-69.0182"/>
<polygon fill="midnightblue" stroke="midnightblue" points="67.6465,-160.946 65.4415,-171.309 73.6276,-164.583 67.6465,-160.946"/>
</g>
<!-- Node11 -->
<g id="node11" class="node"><title>Node11</title>
<g id="a_node11"><a xlink:href="classscram_1_1core_1_1UncertaintyAnalysis.xhtml#a6986c9442a93fb0e43a0b59ac2c7d6c9" target="_top" xlink:title="Samples uncertain probabilities. ">
<polygon fill="white" stroke="black" points="154,-0.5 154,-30.5 301,-30.5 301,-0.5 154,-0.5"/>
<text text-anchor="start" x="162" y="-18.5" font-family="Helvetica,sans-Serif" font-size="10.00">scram::core::Uncertainty</text>
<text text-anchor="middle" x="227.5" y="-7.5" font-family="Helvetica,sans-Serif" font-size="10.00">Analysis::SampleExpressions</text>
</a>
</g>
</g>
<!-- Node1&#45;&gt;Node11 -->
<g id="edge11" class="edge"><title>Node1&#45;&gt;Node11</title>
<path fill="none" stroke="midnightblue" d="M66.1603,-161.566C79.3464,-129.063 106.723,-72.5927 148,-40.5 152.968,-36.6371 158.548,-33.3636 164.381,-30.591"/>
<polygon fill="midnightblue" stroke="midnightblue" points="62.7688,-160.628 62.3781,-171.216 69.2861,-163.182 62.7688,-160.628"/>
</g>
<!-- Node3 -->
<g id="node3" class="node"><title>Node3</title>
<g id="a_node3"><a xlink:href="classscram_1_1core_1_1RiskAnalysis.xhtml#a337f7e9fe02b1581e872590d6f7baa01" target="_top" xlink:title="scram::core::RiskAnalysis\l::model">
<polygon fill="white" stroke="black" points="343,-333.5 343,-363.5 475,-363.5 475,-333.5 343,-333.5"/>
<text text-anchor="start" x="351" y="-351.5" font-family="Helvetica,sans-Serif" font-size="10.00">scram::core::RiskAnalysis</text>
<text text-anchor="middle" x="409" y="-340.5" font-family="Helvetica,sans-Serif" font-size="10.00">::model</text>
</a>
</g>
</g>
<!-- Node2&#45;&gt;Node3 -->
<g id="edge2" class="edge"><title>Node2&#45;&gt;Node3</title>
<path fill="none" stroke="midnightblue" d="M303.847,-348.5C316.814,-348.5 330.193,-348.5 342.863,-348.5"/>
<polygon fill="midnightblue" stroke="midnightblue" points="303.557,-345 293.557,-348.5 303.557,-352 303.557,-345"/>
</g>
<!-- Node3&#45;&gt;Node4 -->
<g id="edge3" class="edge"><title>Node3&#45;&gt;Node4</title>
<path fill="none" stroke="midnightblue" d="M485.239,-339.355C493.65,-338.333 502.243,-337.288 510.714,-336.258"/>
<polygon fill="midnightblue" stroke="midnightblue" points="484.594,-335.907 475.089,-340.589 485.439,-342.856 484.594,-335.907"/>
</g>
<!-- Node10 -->
<g id="node10" class="node"><title>Node10</title>
<g id="a_node10"><a xlink:href="classscram_1_1Reporter.xhtml#acf35ee03ce2ffc48aed92a578842b9d6" target="_top" xlink:title="A convenience function to generate the report into a file. ">
<polygon fill="white" stroke="black" points="348,-50 348,-69 470,-69 470,-50 348,-50"/>
<text text-anchor="middle" x="409" y="-57" font-family="Helvetica,sans-Serif" font-size="10.00">scram::Reporter::Report</text>
</a>
</g>
</g>
<!-- Node9&#45;&gt;Node10 -->
<g id="edge9" class="edge"><title>Node9&#45;&gt;Node10</title>
<path fill="none" stroke="midnightblue" d="M299.207,-59.5C315.312,-59.5 332.274,-59.5 347.889,-59.5"/>
<polygon fill="midnightblue" stroke="midnightblue" points="298.77,-56.0001 288.77,-59.5 298.77,-63.0001 298.77,-56.0001"/>
</g>
</g>
</svg>
