<?xml version="1.0" encoding="UTF-8" standalone="no"?>
<!DOCTYPE svg PUBLIC "-//W3C//DTD SVG 1.1//EN"
 "http://www.w3.org/Graphics/SVG/1.1/DTD/svg11.dtd">
<!-- Generated by graphviz version 2.38.0 (20140413.2041)
 -->
<!-- Title: scram::mef::BasicEvent::p Pages: 1 -->
<svg width="339pt" height="78pt"
 viewBox="0.00 0.00 339.00 77.50" xmlns="http://www.w3.org/2000/svg" xmlns:xlink="http://www.w3.org/1999/xlink">
<g id="graph0" class="graph" transform="scale(1 1) rotate(0) translate(4 73.5)">
<title>scram::mef::BasicEvent::p</title>
<polygon fill="white" stroke="none" points="-4,4 -4,-73.5 335,-73.5 335,4 -4,4"/>
<!-- Node1 -->
<g id="node1" class="node"><title>Node1</title>
<polygon fill="#bfbfbf" stroke="black" points="0,-22.5 0,-41.5 134,-41.5 134,-22.5 0,-22.5"/>
<text text-anchor="middle" x="67" y="-29.5" font-family="Helvetica,sans-Serif" font-size="10.00">scram::mef::BasicEvent::p</text>
</g>
<!-- Node2 -->
<g id="node2" class="node"><title>Node2</title>
<g id="a_node2"><a xlink:href="classscram_1_1core_1_1ImportanceAnalysis.xhtml#acf487235f07ddcc1c920943ebfe2ce60" target="_top" xlink:title="Performs quantitative analysis of importance factors of basic events in products. ...">
<polygon fill="white" stroke="black" points="170,-39 170,-69 331,-69 331,-39 170,-39"/>
<text text-anchor="start" x="178" y="-57" font-family="Helvetica,sans-Serif" font-size="10.00">scram::core::ImportanceAnalysis</text>
<text text-anchor="middle" x="250.5" y="-46" font-family="Helvetica,sans-Serif" font-size="10.00">::Analyze</text>
</a>
</g>
</g>
<!-- Node1&#45;&gt;Node2 -->
<g id="edge1" class="edge"><title>Node1&#45;&gt;Node2</title>
<path fill="none" stroke="midnightblue" d="M143.995,-41.2115C152.562,-42.25 161.31,-43.3103 169.921,-44.3541"/>
<polygon fill="midnightblue" stroke="midnightblue" points="144.388,-37.7336 134.039,-40.0047 143.545,-44.6827 144.388,-37.7336"/>
</g>
<!-- Node3 -->
<g id="node3" class="node"><title>Node3</title>
<g id="a_node3"><a xlink:href="classscram_1_1core_1_1Product.xhtml#adbb0623605c825a57b33d8512fd388ec" target="_top" xlink:title="scram::core::Product::p">
<polygon fill="white" stroke="black" points="191,-0.5 191,-19.5 310,-19.5 310,-0.5 191,-0.5"/>
<text text-anchor="middle" x="250.5" y="-7.5" font-family="Helvetica,sans-Serif" font-size="10.00">scram::core::Product::p</text>
</a>
</g>
</g>
<!-- Node1&#45;&gt;Node3 -->
<g id="edge2" class="edge"><title>Node1&#45;&gt;Node3</title>
<path fill="none" stroke="midnightblue" d="M144.162,-22.7682C159.727,-20.8816 175.878,-18.9238 190.722,-17.1246"/>
<polygon fill="midnightblue" stroke="midnightblue" points="143.545,-19.3173 134.039,-23.9953 144.388,-26.2664 143.545,-19.3173"/>
</g>
</g>
</svg>
