<?xml version="1.0" encoding="UTF-8" standalone="no"?>
<!DOCTYPE svg PUBLIC "-//W3C//DTD SVG 1.1//EN"
 "http://www.w3.org/Graphics/SVG/1.1/DTD/svg11.dtd">
<!-- Generated by graphviz version 2.38.0 (20140413.2041)
 -->
<!-- Title: scram::core::CutSetProbabilityCalculator Pages: 1 -->
<svg width="334pt" height="171pt"
 viewBox="0.00 0.00 334.00 171.00" xmlns="http://www.w3.org/2000/svg" xmlns:xlink="http://www.w3.org/1999/xlink">
<g id="graph0" class="graph" transform="scale(1 1) rotate(0) translate(4 167)">
<title>scram::core::CutSetProbabilityCalculator</title>
<polygon fill="white" stroke="none" points="-4,4 -4,-167 330,-167 330,4 -4,4"/>
<!-- Node1 -->
<g id="node1" class="node"><title>Node1</title>
<polygon fill="#bfbfbf" stroke="black" points="82,-94.5 82,-162.5 233,-162.5 233,-94.5 82,-94.5"/>
<text text-anchor="start" x="90" y="-150.5" font-family="Helvetica,sans-Serif" font-size="10.00">scram::core::CutSetProbability</text>
<text text-anchor="middle" x="157.5" y="-139.5" font-family="Helvetica,sans-Serif" font-size="10.00">Calculator</text>
<polyline fill="none" stroke="black" points="82,-132.5 233,-132.5 "/>
<text text-anchor="middle" x="157.5" y="-120.5" font-family="Helvetica,sans-Serif" font-size="10.00"> </text>
<polyline fill="none" stroke="black" points="82,-113.5 233,-113.5 "/>
<text text-anchor="start" x="90" y="-101.5" font-family="Helvetica,sans-Serif" font-size="10.00">+ Calculate()</text>
</g>
<!-- Node2 -->
<g id="node2" class="node"><title>Node2</title>
<g id="a_node2"><a xlink:href="classscram_1_1core_1_1McubCalculator.xhtml" target="_top" xlink:title="Quantitative calculator of probability values with the Min&#45;Cut&#45;Upper Bound approximation. ">
<polygon fill="white" stroke="black" points="0,-0.5 0,-57.5 143,-57.5 143,-0.5 0,-0.5"/>
<text text-anchor="middle" x="71.5" y="-45.5" font-family="Helvetica,sans-Serif" font-size="10.00">scram::core::McubCalculator</text>
<polyline fill="none" stroke="black" points="0,-38.5 143,-38.5 "/>
<text text-anchor="middle" x="71.5" y="-26.5" font-family="Helvetica,sans-Serif" font-size="10.00"> </text>
<polyline fill="none" stroke="black" points="0,-19.5 143,-19.5 "/>
<text text-anchor="start" x="8" y="-7.5" font-family="Helvetica,sans-Serif" font-size="10.00">+ Calculate()</text>
</a>
</g>
</g>
<!-- Node1&#45;&gt;Node2 -->
<g id="edge1" class="edge"><title>Node1&#45;&gt;Node2</title>
<path fill="none" stroke="#8b1a1a" d="M121.585,-86.7826C112.969,-77.0138 103.962,-66.8026 96.0003,-57.7765"/>
<polygon fill="none" stroke="#8b1a1a" points="119.145,-89.3067 128.384,-94.4909 124.394,-84.6762 119.145,-89.3067"/>
</g>
<!-- Node3 -->
<g id="node3" class="node"><title>Node3</title>
<g id="a_node3"><a xlink:href="classscram_1_1core_1_1RareEventCalculator.xhtml" target="_top" xlink:title="Quantitative calculator of probability values with the Rare&#45;Event approximation. ">
<polygon fill="white" stroke="black" points="161,-0.5 161,-57.5 326,-57.5 326,-0.5 161,-0.5"/>
<text text-anchor="middle" x="243.5" y="-45.5" font-family="Helvetica,sans-Serif" font-size="10.00">scram::core::RareEventCalculator</text>
<polyline fill="none" stroke="black" points="161,-38.5 326,-38.5 "/>
<text text-anchor="middle" x="243.5" y="-26.5" font-family="Helvetica,sans-Serif" font-size="10.00"> </text>
<polyline fill="none" stroke="black" points="161,-19.5 326,-19.5 "/>
<text text-anchor="start" x="169" y="-7.5" font-family="Helvetica,sans-Serif" font-size="10.00">+ Calculate()</text>
</a>
</g>
</g>
<!-- Node1&#45;&gt;Node3 -->
<g id="edge2" class="edge"><title>Node1&#45;&gt;Node3</title>
<path fill="none" stroke="#8b1a1a" d="M193.415,-86.7826C202.031,-77.0138 211.038,-66.8026 219,-57.7765"/>
<polygon fill="none" stroke="#8b1a1a" points="190.606,-84.6762 186.616,-94.4909 195.855,-89.3067 190.606,-84.6762"/>
</g>
</g>
</svg>
