<?xml version="1.0" encoding="UTF-8" standalone="no"?>
<!DOCTYPE svg PUBLIC "-//W3C//DTD SVG 1.1//EN"
 "http://www.w3.org/Graphics/SVG/1.1/DTD/svg11.dtd">
<!-- Generated by graphviz version 2.38.0 (20140413.2041)
 -->
<!-- Title: scram::mef::NodeMark Pages: 1 -->
<svg width="236pt" height="259pt"
 viewBox="0.00 0.00 236.00 259.00" xmlns="http://www.w3.org/2000/svg" xmlns:xlink="http://www.w3.org/1999/xlink">
<g id="graph0" class="graph" transform="scale(1 1) rotate(0) translate(4 255)">
<title>scram::mef::NodeMark</title>
<polygon fill="white" stroke="none" points="-4,4 -4,-255 232,-255 232,4 -4,4"/>
<!-- Node1 -->
<g id="node1" class="node"><title>Node1</title>
<polygon fill="#bfbfbf" stroke="black" points="49,-171.5 49,-250.5 166,-250.5 166,-171.5 49,-171.5"/>
<text text-anchor="middle" x="107.5" y="-238.5" font-family="Helvetica,sans-Serif" font-size="10.00">scram::mef::NodeMark</text>
<polyline fill="none" stroke="black" points="49,-231.5 166,-231.5 "/>
<text text-anchor="middle" x="107.5" y="-219.5" font-family="Helvetica,sans-Serif" font-size="10.00"> </text>
<polyline fill="none" stroke="black" points="49,-212.5 166,-212.5 "/>
<text text-anchor="start" x="57" y="-200.5" font-family="Helvetica,sans-Serif" font-size="10.00">+ mark()</text>
<text text-anchor="start" x="57" y="-189.5" font-family="Helvetica,sans-Serif" font-size="10.00">+ mark()</text>
<text text-anchor="start" x="57" y="-178.5" font-family="Helvetica,sans-Serif" font-size="10.00"># ~NodeMark()</text>
</g>
<!-- Node2 -->
<g id="node2" class="node"><title>Node2</title>
<g id="a_node2"><a xlink:href="classscram_1_1mef_1_1Gate.xhtml" target="_top" xlink:title="A representation of a gate in a fault tree. ">
<polygon fill="white" stroke="black" points="0,-11.5 0,-123.5 93,-123.5 93,-11.5 0,-11.5"/>
<text text-anchor="middle" x="46.5" y="-111.5" font-family="Helvetica,sans-Serif" font-size="10.00">scram::mef::Gate</text>
<polyline fill="none" stroke="black" points="0,-104.5 93,-104.5 "/>
<text text-anchor="middle" x="46.5" y="-92.5" font-family="Helvetica,sans-Serif" font-size="10.00"> </text>
<polyline fill="none" stroke="black" points="0,-85.5 93,-85.5 "/>
<text text-anchor="start" x="8" y="-73.5" font-family="Helvetica,sans-Serif" font-size="10.00">+ formula()</text>
<text text-anchor="start" x="8" y="-62.5" font-family="Helvetica,sans-Serif" font-size="10.00">+ Validate()</text>
<text text-anchor="start" x="8" y="-51.5" font-family="Helvetica,sans-Serif" font-size="10.00">+ formula()</text>
<text text-anchor="start" x="8" y="-40.5" font-family="Helvetica,sans-Serif" font-size="10.00">+ formula()</text>
<text text-anchor="start" x="8" y="-29.5" font-family="Helvetica,sans-Serif" font-size="10.00">* formula()</text>
<text text-anchor="start" x="8" y="-18.5" font-family="Helvetica,sans-Serif" font-size="10.00">* formula()</text>
</a>
</g>
</g>
<!-- Node1&#45;&gt;Node2 -->
<g id="edge1" class="edge"><title>Node1&#45;&gt;Node2</title>
<path fill="none" stroke="midnightblue" d="M86.8492,-162.097C81.5102,-149.712 75.7201,-136.281 70.237,-123.562"/>
<polygon fill="none" stroke="midnightblue" points="83.6586,-163.537 90.8315,-171.335 90.0867,-160.766 83.6586,-163.537"/>
</g>
<!-- Node3 -->
<g id="node3" class="node"><title>Node3</title>
<g id="a_node3"><a xlink:href="classscram_1_1mef_1_1Parameter.xhtml" target="_top" xlink:title="This class provides a representation of a variable in basic event description. ">
<polygon fill="white" stroke="black" points="111,-0.5 111,-134.5 228,-134.5 228,-0.5 111,-0.5"/>
<text text-anchor="middle" x="169.5" y="-122.5" font-family="Helvetica,sans-Serif" font-size="10.00">scram::mef::Parameter</text>
<polyline fill="none" stroke="black" points="111,-115.5 228,-115.5 "/>
<text text-anchor="middle" x="169.5" y="-103.5" font-family="Helvetica,sans-Serif" font-size="10.00"> </text>
<polyline fill="none" stroke="black" points="111,-96.5 228,-96.5 "/>
<text text-anchor="start" x="119" y="-84.5" font-family="Helvetica,sans-Serif" font-size="10.00">+ expression()</text>
<text text-anchor="start" x="119" y="-73.5" font-family="Helvetica,sans-Serif" font-size="10.00">+ unit()</text>
<text text-anchor="start" x="119" y="-62.5" font-family="Helvetica,sans-Serif" font-size="10.00">+ unit()</text>
<text text-anchor="start" x="119" y="-51.5" font-family="Helvetica,sans-Serif" font-size="10.00">+ unused()</text>
<text text-anchor="start" x="119" y="-40.5" font-family="Helvetica,sans-Serif" font-size="10.00">+ unused()</text>
<text text-anchor="start" x="119" y="-29.5" font-family="Helvetica,sans-Serif" font-size="10.00">+ Mean()</text>
<text text-anchor="start" x="119" y="-18.5" font-family="Helvetica,sans-Serif" font-size="10.00">+ Max()</text>
<text text-anchor="start" x="119" y="-7.5" font-family="Helvetica,sans-Serif" font-size="10.00">+ Min()</text>
</a>
</g>
</g>
<!-- Node1&#45;&gt;Node3 -->
<g id="edge2" class="edge"><title>Node1&#45;&gt;Node3</title>
<path fill="none" stroke="midnightblue" d="M128.53,-162.004C132.394,-153.186 136.488,-143.841 140.536,-134.602"/>
<polygon fill="none" stroke="midnightblue" points="125.249,-160.77 124.442,-171.335 131.661,-163.58 125.249,-160.77"/>
</g>
</g>
</svg>
