<?xml version="1.0" encoding="UTF-8" standalone="no"?>
<!DOCTYPE svg PUBLIC "-//W3C//DTD SVG 1.1//EN"
 "http://www.w3.org/Graphics/SVG/1.1/DTD/svg11.dtd">
<!-- Generated by graphviz version 2.38.0 (20140413.2041)
 -->
<!-- Title: scram::mef::BetaFactorModel Pages: 1 -->
<!--zoomable 535 -->
<svg id="main" version="1.1" xmlns="http://www.w3.org/2000/svg" xmlns:xlink="http://www.w3.org/1999/xlink" xml:space="preserve" onload="init(evt)">
<style type="text/css"><![CDATA[
.edge:hover path { stroke: red; }
.edge:hover polygon { stroke: red; fill: red; }
]]></style>
<script type="text/javascript"><![CDATA[
var edges = document.getElementsByTagName('g');
if (edges && edges.length) {
  for (var i=0;i<edges.length;i++) {
    if (edges[i].id.substr(0,4)=='edge') {
      edges[i].setAttribute('class','edge');
    }
  }
}
]]></script>
        <defs>
                <circle id="rim" cx="0" cy="0" r="7"/>
                <circle id="rim2" cx="0" cy="0" r="3.5"/>
                <g id="zoomPlus">
                        <use xlink:href="#rim" fill="#404040">
                                <set attributeName="fill" to="#808080" begin="zoomplus.mouseover" end="zoomplus.mouseout"/>
                        </use>
                        <path d="M-4,0h8M0,-4v8" fill="none" stroke="white" stroke-width="1.5" pointer-events="none"/>
                </g>
                <g id="zoomMin">
                        <use xlink:href="#rim" fill="#404040">
                                <set attributeName="fill" to="#808080" begin="zoomminus.mouseover" end="zoomminus.mouseout"/>
                        </use>
                        <path d="M-4,0h8" fill="none" stroke="white" stroke-width="1.5" pointer-events="none"/>
                </g>
                <g id="dirArrow">
                        <path fill="none" stroke="white" stroke-width="1.5" d="M0,-3.0v7 M-2.5,-0.5L0,-3.0L2.5,-0.5"/>
                </g>
               <g id="resetDef">
                       <use xlink:href="#rim2" fill="#404040">
                               <set attributeName="fill" to="#808080" begin="reset.mouseover" end="reset.mouseout"/>
                       </use>
               </g>
        </defs>

<script type="text/javascript">
var viewWidth = 251;
var viewHeight = 535;
var sectionId = 'dynsection-0';
</script>
<script xlink:href="svgpan.js"/>
<svg id="graph" class="graph">
<g id="viewport">
<title>scram::mef::BetaFactorModel</title>
<polygon fill="white" stroke="none" points="-4,4 -4,-531 246.5,-531 246.5,4 -4,4"/>
<!-- Node1 -->
<g id="node1" class="node"><title>Node1</title>
<polygon fill="#bfbfbf" stroke="black" points="87,-0.5 87,-57.5 233,-57.5 233,-0.5 87,-0.5"/>
<text text-anchor="middle" x="160" y="-45.5" font-family="Helvetica,sans-Serif" font-size="10.00">scram::mef::BetaFactorModel</text>
<polyline fill="none" stroke="black" points="87,-38.5 233,-38.5 "/>
<text text-anchor="middle" x="160" y="-26.5" font-family="Helvetica,sans-Serif" font-size="10.00"> </text>
<polyline fill="none" stroke="black" points="87,-19.5 233,-19.5 "/>
<text text-anchor="middle" x="160" y="-7.5" font-family="Helvetica,sans-Serif" font-size="10.00"> </text>
</g>
<!-- Node2 -->
<g id="node2" class="node"><title>Node2</title>
<g id="a_node2"><a xlink:href="classscram_1_1mef_1_1CcfGroup.xhtml" target="_top" xlink:title="Abstract base class for all common cause failure models. ">
<polygon fill="white" stroke="black" points="103,-94.5 103,-239.5 217,-239.5 217,-94.5 103,-94.5"/>
<text text-anchor="middle" x="160" y="-227.5" font-family="Helvetica,sans-Serif" font-size="10.00">scram::mef::CcfGroup</text>
<polyline fill="none" stroke="black" points="103,-220.5 217,-220.5 "/>
<text text-anchor="middle" x="160" y="-208.5" font-family="Helvetica,sans-Serif" font-size="10.00"> </text>
<polyline fill="none" stroke="black" points="103,-201.5 217,-201.5 "/>
<text text-anchor="start" x="111" y="-189.5" font-family="Helvetica,sans-Serif" font-size="10.00">+ ~CcfGroup()</text>
<text text-anchor="start" x="111" y="-178.5" font-family="Helvetica,sans-Serif" font-size="10.00">+ members()</text>
<text text-anchor="start" x="111" y="-167.5" font-family="Helvetica,sans-Serif" font-size="10.00">+ AddMember()</text>
<text text-anchor="start" x="111" y="-156.5" font-family="Helvetica,sans-Serif" font-size="10.00">+ AddDistribution()</text>
<text text-anchor="start" x="111" y="-145.5" font-family="Helvetica,sans-Serif" font-size="10.00">+ AddFactor()</text>
<text text-anchor="start" x="111" y="-134.5" font-family="Helvetica,sans-Serif" font-size="10.00">+ Validate()</text>
<text text-anchor="start" x="111" y="-123.5" font-family="Helvetica,sans-Serif" font-size="10.00">+ ApplyModel()</text>
<text text-anchor="start" x="111" y="-112.5" font-family="Helvetica,sans-Serif" font-size="10.00"># distribution()</text>
<text text-anchor="start" x="111" y="-101.5" font-family="Helvetica,sans-Serif" font-size="10.00"># factors()</text>
</a>
</g>
</g>
<!-- Node2&#45;&gt;Node1 -->
<g id="edge1" class="edge"><title>Node2&#45;&gt;Node1</title>
<path fill="none" stroke="midnightblue" d="M160,-84.3871C160,-74.8611 160,-65.7068 160,-57.7138"/>
<polygon fill="none" stroke="midnightblue" points="156.5,-84.4155 160,-94.4155 163.5,-84.4156 156.5,-84.4155"/>
</g>
<!-- Node3 -->
<g id="node3" class="node"><title>Node3</title>
<g id="a_node3"><a xlink:href="classscram_1_1mef_1_1Id.xhtml" target="_top" xlink:title="Mixin class for assigning unique identifiers to elements. ">
<polygon fill="white" stroke="black" points="73,-276.5 73,-355.5 153,-355.5 153,-276.5 73,-276.5"/>
<text text-anchor="middle" x="113" y="-343.5" font-family="Helvetica,sans-Serif" font-size="10.00">scram::mef::Id</text>
<polyline fill="none" stroke="black" points="73,-336.5 153,-336.5 "/>
<text text-anchor="middle" x="113" y="-324.5" font-family="Helvetica,sans-Serif" font-size="10.00"> </text>
<polyline fill="none" stroke="black" points="73,-317.5 153,-317.5 "/>
<text text-anchor="start" x="81" y="-305.5" font-family="Helvetica,sans-Serif" font-size="10.00">+ Id()</text>
<text text-anchor="start" x="81" y="-294.5" font-family="Helvetica,sans-Serif" font-size="10.00">+ id()</text>
<text text-anchor="start" x="81" y="-283.5" font-family="Helvetica,sans-Serif" font-size="10.00"># ~Id()</text>
</a>
</g>
</g>
<!-- Node3&#45;&gt;Node2 -->
<g id="edge2" class="edge"><title>Node3&#45;&gt;Node2</title>
<path fill="none" stroke="midnightblue" d="M128.409,-266.806C131.193,-258.097 134.15,-248.849 137.095,-239.64"/>
<polygon fill="none" stroke="midnightblue" points="125.06,-265.787 125.349,-276.377 131.728,-267.918 125.06,-265.787"/>
</g>
<!-- Node4 -->
<g id="node4" class="node"><title>Node4</title>
<g id="a_node4"><a xlink:href="classscram_1_1mef_1_1Element.xhtml" target="_top" xlink:title="Mixin class that represents any element of analysis that can have extra descriptions, such as attributes and a label. ">
<polygon fill="white" stroke="black" points="0,-392.5 0,-526.5 108,-526.5 108,-392.5 0,-392.5"/>
<text text-anchor="middle" x="54" y="-514.5" font-family="Helvetica,sans-Serif" font-size="10.00">scram::mef::Element</text>
<polyline fill="none" stroke="black" points="0,-507.5 108,-507.5 "/>
<text text-anchor="middle" x="54" y="-495.5" font-family="Helvetica,sans-Serif" font-size="10.00"> </text>
<polyline fill="none" stroke="black" points="0,-488.5 108,-488.5 "/>
<text text-anchor="start" x="8" y="-476.5" font-family="Helvetica,sans-Serif" font-size="10.00">+ Element()</text>
<text text-anchor="start" x="8" y="-465.5" font-family="Helvetica,sans-Serif" font-size="10.00">+ name()</text>
<text text-anchor="start" x="8" y="-454.5" font-family="Helvetica,sans-Serif" font-size="10.00">+ label()</text>
<text text-anchor="start" x="8" y="-443.5" font-family="Helvetica,sans-Serif" font-size="10.00">+ label()</text>
<text text-anchor="start" x="8" y="-432.5" font-family="Helvetica,sans-Serif" font-size="10.00">+ AddAttribute()</text>
<text text-anchor="start" x="8" y="-421.5" font-family="Helvetica,sans-Serif" font-size="10.00">+ HasAttribute()</text>
<text text-anchor="start" x="8" y="-410.5" font-family="Helvetica,sans-Serif" font-size="10.00">+ GetAttribute()</text>
<text text-anchor="start" x="8" y="-399.5" font-family="Helvetica,sans-Serif" font-size="10.00"># ~Element()</text>
</a>
</g>
</g>
<!-- Node4&#45;&gt;Node3 -->
<g id="edge3" class="edge"><title>Node4&#45;&gt;Node3</title>
<path fill="none" stroke="midnightblue" d="M85.5183,-382.91C89.4312,-373.525 93.2965,-364.255 96.8372,-355.763"/>
<polygon fill="none" stroke="midnightblue" points="82.2179,-381.73 81.5998,-392.307 88.6788,-384.424 82.2179,-381.73"/>
</g>
<!-- Node5 -->
<g id="node5" class="node"><title>Node5</title>
<g id="a_node5"><a xlink:href="classscram_1_1mef_1_1Role.xhtml" target="_top" xlink:title="Mixin class that manages private or public roles for elements as needed. ">
<polygon fill="white" stroke="black" points="126,-414.5 126,-504.5 218,-504.5 218,-414.5 126,-414.5"/>
<text text-anchor="middle" x="172" y="-492.5" font-family="Helvetica,sans-Serif" font-size="10.00">scram::mef::Role</text>
<polyline fill="none" stroke="black" points="126,-485.5 218,-485.5 "/>
<text text-anchor="middle" x="172" y="-473.5" font-family="Helvetica,sans-Serif" font-size="10.00"> </text>
<polyline fill="none" stroke="black" points="126,-466.5 218,-466.5 "/>
<text text-anchor="start" x="134" y="-454.5" font-family="Helvetica,sans-Serif" font-size="10.00">+ Role()</text>
<text text-anchor="start" x="134" y="-443.5" font-family="Helvetica,sans-Serif" font-size="10.00">+ role()</text>
<text text-anchor="start" x="134" y="-432.5" font-family="Helvetica,sans-Serif" font-size="10.00">+ base_path()</text>
<text text-anchor="start" x="134" y="-421.5" font-family="Helvetica,sans-Serif" font-size="10.00"># ~Role()</text>
</a>
</g>
</g>
<!-- Node5&#45;&gt;Node3 -->
<g id="edge4" class="edge"><title>Node5&#45;&gt;Node3</title>
<path fill="none" stroke="midnightblue" d="M149.584,-404.739C142.82,-388.517 135.528,-371.028 129.247,-355.965"/>
<polygon fill="none" stroke="midnightblue" points="146.415,-406.234 153.494,-414.117 152.876,-403.54 146.415,-406.234"/>
</g>
<!-- Node6 -->
<g id="node6" class="node"><title>Node6</title>
<polygon fill="white" stroke="#bfbfbf" points="171.5,-287.5 171.5,-344.5 242.5,-344.5 242.5,-287.5 171.5,-287.5"/>
<text text-anchor="middle" x="207" y="-332.5" font-family="Helvetica,sans-Serif" font-size="10.00">noncopyable</text>
<polyline fill="none" stroke="#bfbfbf" points="171.5,-325.5 242.5,-325.5 "/>
<text text-anchor="middle" x="207" y="-313.5" font-family="Helvetica,sans-Serif" font-size="10.00"> </text>
<polyline fill="none" stroke="#bfbfbf" points="171.5,-306.5 242.5,-306.5 "/>
<text text-anchor="middle" x="207" y="-294.5" font-family="Helvetica,sans-Serif" font-size="10.00"> </text>
</g>
<!-- Node6&#45;&gt;Node2 -->
<g id="edge5" class="edge"><title>Node6&#45;&gt;Node2</title>
<path fill="none" stroke="#8b1a1a" d="M195.036,-277.582C191.317,-265.948 187.084,-252.71 182.878,-239.555"/>
<polygon fill="none" stroke="#8b1a1a" points="191.78,-278.891 198.16,-287.35 198.448,-276.76 191.78,-278.891"/>
</g>
</g>
</svg>
        <g id="navigator" transform="translate(0 0)" fill="#404254">
                <rect fill="#f2f5e9" fill-opacity="0.5" stroke="#606060" stroke-width=".5" x="0" y="0" width="60" height="60"/>
                <use id="zoomplus" xlink:href="#zoomPlus" x="17" y="9" onmousedown="handleZoom(evt,'in')"/>
                <use id="zoomminus" xlink:href="#zoomMin" x="42" y="9" onmousedown="handleZoom(evt,'out')"/>
                <use id="reset" xlink:href="#resetDef" x="30" y="36" onmousedown="handleReset()"/>
                <g id="arrowUp" xlink:href="#dirArrow" transform="translate(30 24)" onmousedown="handlePan(0,-1)">
                  <use xlink:href="#rim" fill="#404040">
                        <set attributeName="fill" to="#808080" begin="arrowUp.mouseover" end="arrowUp.mouseout"/>
                  </use>
                  <path fill="none" stroke="white" stroke-width="1.5" d="M0,-3.0v7 M-2.5,-0.5L0,-3.0L2.5,-0.5"/>
                </g>
                <g id="arrowRight" xlink:href="#dirArrow" transform="rotate(90) translate(36 -43)" onmousedown="handlePan(1,0)">
                  <use xlink:href="#rim" fill="#404040">
                        <set attributeName="fill" to="#808080" begin="arrowRight.mouseover" end="arrowRight.mouseout"/>
                  </use>
                  <path fill="none" stroke="white" stroke-width="1.5" d="M0,-3.0v7 M-2.5,-0.5L0,-3.0L2.5,-0.5"/>
                </g>
                <g id="arrowDown" xlink:href="#dirArrow" transform="rotate(180) translate(-30 -48)" onmousedown="handlePan(0,1)">
                  <use xlink:href="#rim" fill="#404040">
                        <set attributeName="fill" to="#808080" begin="arrowDown.mouseover" end="arrowDown.mouseout"/>
                  </use>
                  <path fill="none" stroke="white" stroke-width="1.5" d="M0,-3.0v7 M-2.5,-0.5L0,-3.0L2.5,-0.5"/>
                </g>
                <g id="arrowLeft" xlink:href="#dirArrow" transform="rotate(270) translate(-36 17)" onmousedown="handlePan(-1,0)">
                  <use xlink:href="#rim" fill="#404040">
                        <set attributeName="fill" to="#808080" begin="arrowLeft.mouseover" end="arrowLeft.mouseout"/>
                  </use>
                  <path fill="none" stroke="white" stroke-width="1.5" d="M0,-3.0v7 M-2.5,-0.5L0,-3.0L2.5,-0.5"/>
                </g>
        </g>
        <svg viewBox="0 0 15 15" width="100%" height="30px" preserveAspectRatio="xMaxYMin meet">
         <g id="arrow_out" transform="scale(0.3 0.3)">
          <a xlink:href="classscram_1_1mef_1_1BetaFactorModel__inherit__graph_org.svg" target="_base">
           <rect id="button" ry="5" rx="5" y="6" x="6" height="38" width="38"
                fill="#f2f5e9" fill-opacity="0.5" stroke="#606060" stroke-width="1.0"/>
           <path id="arrow"
             d="M 11.500037,31.436501 C 11.940474,20.09759 22.043105,11.32322 32.158766,21.979434 L 37.068811,17.246167 C 37.068811,17.246167 37.088388,32 37.088388,32 L 22.160133,31.978069 C 22.160133,31.978069 26.997745,27.140456 26.997745,27.140456 C 18.528582,18.264221 13.291696,25.230495 11.500037,31.436501 z"
             style="fill:#404040;"/>
          </a>
         </g>
        </svg>
</svg>
