<?xml version="1.0" encoding="UTF-8" standalone="no"?>
<!DOCTYPE svg PUBLIC "-//W3C//DTD SVG 1.1//EN"
 "http://www.w3.org/Graphics/SVG/1.1/DTD/svg11.dtd">
<!-- Generated by graphviz version 2.38.0 (20140413.2041)
 -->
<!-- Title: scram::core::Preprocessor::MarkCoherence Pages: 1 -->
<svg width="463pt" height="176pt"
 viewBox="0.00 0.00 463.00 175.50" xmlns="http://www.w3.org/2000/svg" xmlns:xlink="http://www.w3.org/1999/xlink">
<g id="graph0" class="graph" transform="scale(1 1) rotate(0) translate(4 171.5)">
<title>scram::core::Preprocessor::MarkCoherence</title>
<polygon fill="white" stroke="none" points="-4,4 -4,-171.5 459,-171.5 459,4 -4,4"/>
<!-- Node1 -->
<g id="node1" class="node"><title>Node1</title>
<polygon fill="#bfbfbf" stroke="black" points="0,-63 0,-93 132,-93 132,-63 0,-63"/>
<text text-anchor="start" x="8" y="-81" font-family="Helvetica,sans-Serif" font-size="10.00">scram::core::Preprocessor</text>
<text text-anchor="middle" x="66" y="-70" font-family="Helvetica,sans-Serif" font-size="10.00">::MarkCoherence</text>
</g>
<!-- Node2 -->
<g id="node2" class="node"><title>Node2</title>
<g id="a_node2"><a xlink:href="classscram_1_1core_1_1Preprocessor.xhtml#a14baf96279cf2950cc71564ad199007d" target="_top" xlink:title="Marks coherence of the whole graph. ">
<polygon fill="white" stroke="black" points="168,-63 168,-93 300,-93 300,-63 168,-63"/>
<text text-anchor="start" x="176" y="-81" font-family="Helvetica,sans-Serif" font-size="10.00">scram::core::Preprocessor</text>
<text text-anchor="middle" x="234" y="-70" font-family="Helvetica,sans-Serif" font-size="10.00">::MarkCoherence</text>
</a>
</g>
</g>
<!-- Node1&#45;&gt;Node2 -->
<g id="edge1" class="edge"><title>Node1&#45;&gt;Node2</title>
<path fill="none" stroke="midnightblue" d="M132.131,-78C140.461,-78 149.044,-78 157.521,-78"/>
<polygon fill="midnightblue" stroke="midnightblue" points="157.784,-81.5001 167.784,-78 157.784,-74.5001 157.784,-81.5001"/>
</g>
<!-- Node3 -->
<g id="node3" class="node"><title>Node3</title>
<g id="a_node3"><a xlink:href="classscram_1_1core_1_1Pdag.xhtml#aa883d0e58b9faab69186bec03574c633" target="_top" xlink:title="Clears marks from graph nodes. ">
<polygon fill="white" stroke="black" points="344,-137 344,-167 447,-167 447,-137 344,-137"/>
<text text-anchor="start" x="352" y="-155" font-family="Helvetica,sans-Serif" font-size="10.00">scram::core::Pdag::</text>
<text text-anchor="middle" x="395.5" y="-144" font-family="Helvetica,sans-Serif" font-size="10.00">Clear</text>
</a>
</g>
</g>
<!-- Node2&#45;&gt;Node3 -->
<g id="edge2" class="edge"><title>Node2&#45;&gt;Node3</title>
<path fill="none" stroke="midnightblue" d="M264.349,-93.211C284.366,-103.417 311.574,-116.96 336,-128 339.611,-129.632 343.366,-131.281 347.154,-132.909"/>
<polygon fill="midnightblue" stroke="midnightblue" points="345.997,-136.22 356.57,-136.894 348.725,-129.774 345.997,-136.22"/>
</g>
<!-- Node4 -->
<g id="node4" class="node"><title>Node4</title>
<g id="a_node4"><a xlink:href="classscram_1_1core_1_1Pdag.xhtml#ae8e2a4c99322296441f87c6ee9305979" target="_top" xlink:title="scram::core::Pdag::\lcoherent">
<polygon fill="white" stroke="black" points="344,-88 344,-118 447,-118 447,-88 344,-88"/>
<text text-anchor="start" x="352" y="-106" font-family="Helvetica,sans-Serif" font-size="10.00">scram::core::Pdag::</text>
<text text-anchor="middle" x="395.5" y="-95" font-family="Helvetica,sans-Serif" font-size="10.00">coherent</text>
</a>
</g>
</g>
<!-- Node2&#45;&gt;Node4 -->
<g id="edge3" class="edge"><title>Node2&#45;&gt;Node4</title>
<path fill="none" stroke="midnightblue" d="M300.335,-88.2406C311.401,-89.975 322.85,-91.7695 333.791,-93.4844"/>
<polygon fill="midnightblue" stroke="midnightblue" points="333.249,-96.9421 343.67,-95.0329 334.333,-90.0266 333.249,-96.9421"/>
</g>
<!-- Node5 -->
<g id="node5" class="node"><title>Node5</title>
<g id="a_node5"><a xlink:href="classscram_1_1core_1_1Pdag.xhtml#af5900b29c6c9f1b1cca22ed83e4dd58b" target="_top" xlink:title="scram::core::Pdag::\lcomplement">
<polygon fill="white" stroke="black" points="344,-39 344,-69 447,-69 447,-39 344,-39"/>
<text text-anchor="start" x="352" y="-57" font-family="Helvetica,sans-Serif" font-size="10.00">scram::core::Pdag::</text>
<text text-anchor="middle" x="395.5" y="-46" font-family="Helvetica,sans-Serif" font-size="10.00">complement</text>
</a>
</g>
</g>
<!-- Node2&#45;&gt;Node5 -->
<g id="edge4" class="edge"><title>Node2&#45;&gt;Node5</title>
<path fill="none" stroke="midnightblue" d="M300.335,-68.169C311.288,-66.521 322.616,-64.8164 333.455,-63.1854"/>
<polygon fill="midnightblue" stroke="midnightblue" points="334.302,-66.5975 343.67,-61.6484 333.261,-59.6754 334.302,-66.5975"/>
</g>
<!-- Node6 -->
<g id="node6" class="node"><title>Node6</title>
<g id="a_node6"><a xlink:href="classscram_1_1core_1_1Pdag.xhtml#ae9407efbb00e5f28aecb40db2ab7925b" target="_top" xlink:title="scram::core::Pdag::root">
<polygon fill="white" stroke="black" points="336,-0.5 336,-19.5 455,-19.5 455,-0.5 336,-0.5"/>
<text text-anchor="middle" x="395.5" y="-7.5" font-family="Helvetica,sans-Serif" font-size="10.00">scram::core::Pdag::root</text>
</a>
</g>
</g>
<!-- Node2&#45;&gt;Node6 -->
<g id="edge5" class="edge"><title>Node2&#45;&gt;Node6</title>
<path fill="none" stroke="midnightblue" d="M264.651,-62.8083C284.568,-52.8784 311.545,-39.9536 336,-30 342.002,-27.557 348.427,-25.154 354.741,-22.9078"/>
<polygon fill="midnightblue" stroke="midnightblue" points="356.195,-26.1081 364.496,-19.5242 353.901,-19.4947 356.195,-26.1081"/>
</g>
</g>
</svg>
