<?xml version="1.0" encoding="UTF-8" standalone="no"?>
<!DOCTYPE svg PUBLIC "-//W3C//DTD SVG 1.1//EN"
 "http://www.w3.org/Graphics/SVG/1.1/DTD/svg11.dtd">
<!-- Generated by graphviz version 2.38.0 (20140413.2041)
 -->
<!-- Title: scram::core::NonTerminal::low Pages: 1 -->
<svg width="553pt" height="257pt"
 viewBox="0.00 0.00 553.00 257.00" xmlns="http://www.w3.org/2000/svg" xmlns:xlink="http://www.w3.org/1999/xlink">
<g id="graph0" class="graph" transform="scale(1 1) rotate(0) translate(4 253)">
<title>scram::core::NonTerminal::low</title>
<polygon fill="white" stroke="none" points="-4,4 -4,-253 549,-253 549,4 -4,4"/>
<!-- Node1 -->
<g id="node1" class="node"><title>Node1</title>
<polygon fill="#bfbfbf" stroke="black" points="0,-136 0,-155 151,-155 151,-136 0,-136"/>
<text text-anchor="middle" x="75.5" y="-143" font-family="Helvetica,sans-Serif" font-size="10.00">scram::core::NonTerminal::low</text>
</g>
<!-- Node2 -->
<g id="node2" class="node"><title>Node2</title>
<g id="a_node2"><a xlink:href="classscram_1_1core_1_1ImportanceAnalysis.xhtml#acf487235f07ddcc1c920943ebfe2ce60" target="_top" xlink:title="Performs quantitative analysis of importance factors of basic events in products. ...">
<polygon fill="white" stroke="black" points="187,-218.5 187,-248.5 348,-248.5 348,-218.5 187,-218.5"/>
<text text-anchor="start" x="195" y="-236.5" font-family="Helvetica,sans-Serif" font-size="10.00">scram::core::ImportanceAnalysis</text>
<text text-anchor="middle" x="267.5" y="-225.5" font-family="Helvetica,sans-Serif" font-size="10.00">::Analyze</text>
</a>
</g>
</g>
<!-- Node1&#45;&gt;Node2 -->
<g id="edge1" class="edge"><title>Node1&#45;&gt;Node2</title>
<path fill="none" stroke="midnightblue" d="M99.5616,-160.589C121.409,-174.408 155.476,-194.745 187,-208.5 195.222,-212.087 204.124,-215.404 212.895,-218.369"/>
<polygon fill="midnightblue" stroke="midnightblue" points="101.299,-157.546 90.9897,-155.104 97.5264,-163.442 101.299,-157.546"/>
</g>
<!-- Node3 -->
<g id="node3" class="node"><title>Node3</title>
<g id="a_node3"><a xlink:href="classscram_1_1core_1_1Bdd.xhtml#ab9548d4c5f9afaa96dc24e17e2a01a57" target="_top" xlink:title="Runs the Qualitative analysis with the representation of a PDAG as ROBDD. ">
<polygon fill="white" stroke="black" points="201,-180 201,-199 334,-199 334,-180 201,-180"/>
<text text-anchor="middle" x="267.5" y="-187" font-family="Helvetica,sans-Serif" font-size="10.00">scram::core::Bdd::Analyze</text>
</a>
</g>
</g>
<!-- Node1&#45;&gt;Node3 -->
<g id="edge2" class="edge"><title>Node1&#45;&gt;Node3</title>
<path fill="none" stroke="midnightblue" d="M127.785,-157.376C158.391,-164.464 196.739,-173.345 225.353,-179.971"/>
<polygon fill="midnightblue" stroke="midnightblue" points="128.259,-153.894 117.727,-155.047 126.68,-160.713 128.259,-153.894"/>
</g>
<!-- Node4 -->
<g id="node4" class="node"><title>Node4</title>
<g id="a_node4"><a xlink:href="classscram_1_1core_1_1Zbdd.xhtml#a499a8bc4bc3854e7b2928c08515243cf" target="_top" xlink:title="Specialization of Apply for AND operator for non&#45;terminal ZBDD vertices. ">
<polygon fill="white" stroke="black" points="216.5,-130.5 216.5,-160.5 318.5,-160.5 318.5,-130.5 216.5,-130.5"/>
<text text-anchor="start" x="224.5" y="-148.5" font-family="Helvetica,sans-Serif" font-size="10.00">scram::core::Zbdd::</text>
<text text-anchor="middle" x="267.5" y="-137.5" font-family="Helvetica,sans-Serif" font-size="10.00">Apply</text>
</a>
</g>
</g>
<!-- Node1&#45;&gt;Node4 -->
<g id="edge3" class="edge"><title>Node1&#45;&gt;Node4</title>
<path fill="none" stroke="midnightblue" d="M161.162,-145.5C180.053,-145.5 199.496,-145.5 216.455,-145.5"/>
<polygon fill="midnightblue" stroke="midnightblue" points="161.048,-142 151.048,-145.5 161.048,-149 161.048,-142"/>
</g>
<!-- Node5 -->
<g id="node5" class="node"><title>Node5</title>
<g id="a_node5"><a xlink:href="classscram_1_1core_1_1ProbabilityAnalyzer_3_01Bdd_01_4.xhtml#a45b66605634ae60f1c00e3ac469a7c7a" target="_top" xlink:title="Calculates the total probability with a different set of probability values than the one given upon c...">
<polygon fill="white" stroke="black" points="188,-71 188,-112 347,-112 347,-71 188,-71"/>
<text text-anchor="start" x="196" y="-100" font-family="Helvetica,sans-Serif" font-size="10.00">scram::core::Probability</text>
<text text-anchor="start" x="196" y="-89" font-family="Helvetica,sans-Serif" font-size="10.00">Analyzer&lt; Bdd &gt;::CalculateTotal</text>
<text text-anchor="middle" x="267.5" y="-78" font-family="Helvetica,sans-Serif" font-size="10.00">Probability</text>
</a>
</g>
</g>
<!-- Node1&#45;&gt;Node5 -->
<g id="edge4" class="edge"><title>Node1&#45;&gt;Node5</title>
<path fill="none" stroke="midnightblue" d="M119.758,-133.206C141.808,-126.939 169.21,-119.151 194.344,-112.007"/>
<polygon fill="midnightblue" stroke="midnightblue" points="118.693,-129.87 110.031,-135.97 120.607,-136.603 118.693,-129.87"/>
</g>
<!-- Node6 -->
<g id="node6" class="node"><title>Node6</title>
<g id="a_node6"><a xlink:href="classscram_1_1core_1_1Zbdd.xhtml#a516f0d2f35ad213399f83fb9ab102561" target="_top" xlink:title="Traverses ZBDD to find modules and adjusted cut&#45;offs. ">
<polygon fill="white" stroke="black" points="216.5,-22.5 216.5,-52.5 318.5,-52.5 318.5,-22.5 216.5,-22.5"/>
<text text-anchor="start" x="224.5" y="-40.5" font-family="Helvetica,sans-Serif" font-size="10.00">scram::core::Zbdd::</text>
<text text-anchor="middle" x="267.5" y="-29.5" font-family="Helvetica,sans-Serif" font-size="10.00">GatherModules</text>
</a>
</g>
</g>
<!-- Node1&#45;&gt;Node6 -->
<g id="edge5" class="edge"><title>Node1&#45;&gt;Node6</title>
<path fill="none" stroke="midnightblue" d="M94.0081,-128.977C114.732,-110.224 150.992,-79.8629 187,-61.5 196.119,-56.8497 206.295,-52.9327 216.24,-49.7001"/>
<polygon fill="midnightblue" stroke="midnightblue" points="91.6057,-126.432 86.6136,-135.777 96.3438,-131.584 91.6057,-126.432"/>
</g>
<!-- Node7 -->
<g id="node7" class="node"><title>Node7</title>
<g id="a_node7"><a xlink:href="classscram_1_1core_1_1Zbdd.xhtml#af92e04ed908364e0177ce444d7b72712" target="_top" xlink:title="The common constructor to initialize member variables. ">
<polygon fill="white" stroke="black" points="402.5,-50 402.5,-69 526.5,-69 526.5,-50 402.5,-50"/>
<text text-anchor="middle" x="464.5" y="-57" font-family="Helvetica,sans-Serif" font-size="10.00">scram::core::Zbdd::Zbdd</text>
</a>
</g>
</g>
<!-- Node6&#45;&gt;Node7 -->
<g id="edge6" class="edge"><title>Node6&#45;&gt;Node7</title>
<path fill="none" stroke="midnightblue" d="M328.842,-44.3079C352.192,-46.9422 378.886,-49.9538 402.315,-52.5971"/>
<polygon fill="midnightblue" stroke="midnightblue" points="329.047,-40.8088 318.717,-43.1655 328.262,-47.7647 329.047,-40.8088"/>
</g>
<!-- Node8 -->
<g id="node8" class="node"><title>Node8</title>
<g id="a_node8"><a xlink:href="classscram_1_1core_1_1zbdd_1_1CutSetContainer.xhtml#a478c89f64731781882b50ec55898900b" target="_top" xlink:title="Gathers all module indices in the cut sets. ">
<polygon fill="white" stroke="black" points="384,-0.5 384,-30.5 545,-30.5 545,-0.5 384,-0.5"/>
<text text-anchor="start" x="392" y="-18.5" font-family="Helvetica,sans-Serif" font-size="10.00">scram::core::zbdd::</text>
<text text-anchor="middle" x="464.5" y="-7.5" font-family="Helvetica,sans-Serif" font-size="10.00">CutSetContainer::GatherModules</text>
</a>
</g>
</g>
<!-- Node6&#45;&gt;Node8 -->
<g id="edge7" class="edge"><title>Node6&#45;&gt;Node8</title>
<path fill="none" stroke="midnightblue" d="M328.751,-30.7025C346.194,-28.7345 365.51,-26.5553 383.94,-24.476"/>
<polygon fill="midnightblue" stroke="midnightblue" points="328.262,-27.2353 318.717,-31.8345 329.047,-34.1912 328.262,-27.2353"/>
</g>
</g>
</svg>
