<?xml version="1.0" encoding="UTF-8" standalone="no"?>
<!DOCTYPE svg PUBLIC "-//W3C//DTD SVG 1.1//EN"
 "http://www.w3.org/Graphics/SVG/1.1/DTD/svg11.dtd">
<!-- Generated by graphviz version 2.38.0 (20140413.2041)
 -->
<!-- Title: scram::mef::LogNormalDeviate::Min Pages: 1 -->
<svg width="497pt" height="186pt"
 viewBox="0.00 0.00 497.00 186.00" xmlns="http://www.w3.org/2000/svg" xmlns:xlink="http://www.w3.org/1999/xlink">
<g id="graph0" class="graph" transform="scale(1 1) rotate(0) translate(4 182)">
<title>scram::mef::LogNormalDeviate::Min</title>
<polygon fill="white" stroke="none" points="-4,4 -4,-182 493,-182 493,4 -4,4"/>
<!-- Node1 -->
<g id="node1" class="node"><title>Node1</title>
<polygon fill="#bfbfbf" stroke="black" points="0,-79 0,-98 175,-98 175,-79 0,-79"/>
<text text-anchor="middle" x="87.5" y="-86" font-family="Helvetica,sans-Serif" font-size="10.00">scram::mef::LogNormalDeviate::Min</text>
</g>
<!-- Node2 -->
<g id="node2" class="node"><title>Node2</title>
<g id="a_node2"><a xlink:href="classscram_1_1mef_1_1Expression.xhtml#af3e09d926b52f6077aa85c26454c4e18" target="_top" xlink:title="Validates the expression. ">
<polygon fill="white" stroke="black" points="211,-73.5 211,-103.5 332,-103.5 332,-73.5 211,-73.5"/>
<text text-anchor="start" x="219" y="-91.5" font-family="Helvetica,sans-Serif" font-size="10.00">scram::mef::Expression</text>
<text text-anchor="middle" x="271.5" y="-80.5" font-family="Helvetica,sans-Serif" font-size="10.00">::Validate</text>
</a>
</g>
</g>
<!-- Node1&#45;&gt;Node2 -->
<g id="edge1" class="edge"><title>Node1&#45;&gt;Node2</title>
<path fill="none" stroke="midnightblue" d="M175.236,-88.5C183.828,-88.5 192.47,-88.5 200.856,-88.5"/>
<polygon fill="midnightblue" stroke="midnightblue" points="200.938,-92.0001 210.938,-88.5 200.938,-85.0001 200.938,-92.0001"/>
</g>
<!-- Node3 -->
<g id="node3" class="node"><title>Node3</title>
<g id="a_node3"><a xlink:href="classscram_1_1mef_1_1Expression.xhtml#a058aef65da884a47ea3345bc31488b7a" target="_top" xlink:title="Determines if the value of the expression contains deviate expressions. ">
<polygon fill="white" stroke="black" points="368,-147.5 368,-177.5 489,-177.5 489,-147.5 368,-147.5"/>
<text text-anchor="start" x="376" y="-165.5" font-family="Helvetica,sans-Serif" font-size="10.00">scram::mef::Expression</text>
<text text-anchor="middle" x="428.5" y="-154.5" font-family="Helvetica,sans-Serif" font-size="10.00">::IsDeviate</text>
</a>
</g>
</g>
<!-- Node2&#45;&gt;Node3 -->
<g id="edge2" class="edge"><title>Node2&#45;&gt;Node3</title>
<path fill="none" stroke="midnightblue" d="M299.722,-103.671C318.636,-113.984 344.556,-127.667 368,-138.5 371.594,-140.161 375.338,-141.823 379.119,-143.455"/>
<polygon fill="midnightblue" stroke="midnightblue" points="377.961,-146.765 388.535,-147.428 380.682,-140.315 377.961,-146.765"/>
</g>
<!-- Node4 -->
<g id="node4" class="node"><title>Node4</title>
<g id="a_node4"><a xlink:href="classscram_1_1mef_1_1Expression.xhtml#ac7e0dd118eafdfa943944172c1625a4e" target="_top" xlink:title="scram::mef::Expression\l::Mean">
<polygon fill="white" stroke="black" points="368,-98.5 368,-128.5 489,-128.5 489,-98.5 368,-98.5"/>
<text text-anchor="start" x="376" y="-116.5" font-family="Helvetica,sans-Serif" font-size="10.00">scram::mef::Expression</text>
<text text-anchor="middle" x="428.5" y="-105.5" font-family="Helvetica,sans-Serif" font-size="10.00">::Mean</text>
</a>
</g>
</g>
<!-- Node2&#45;&gt;Node4 -->
<g id="edge3" class="edge"><title>Node2&#45;&gt;Node4</title>
<path fill="none" stroke="midnightblue" d="M332.427,-98.1657C340.816,-99.5186 349.494,-100.918 358.041,-102.297"/>
<polygon fill="midnightblue" stroke="midnightblue" points="357.558,-105.764 367.988,-103.901 358.673,-98.8535 357.558,-105.764"/>
</g>
<!-- Node5 -->
<g id="node5" class="node"><title>Node5</title>
<g id="a_node5"><a xlink:href="classscram_1_1mef_1_1Expression.xhtml#ab6d31c4ddb5d4a827727829cbd4e4449" target="_top" xlink:title="This routine resets the sampling to get new values. ">
<polygon fill="white" stroke="black" points="368,-49.5 368,-79.5 489,-79.5 489,-49.5 368,-49.5"/>
<text text-anchor="start" x="376" y="-67.5" font-family="Helvetica,sans-Serif" font-size="10.00">scram::mef::Expression</text>
<text text-anchor="middle" x="428.5" y="-56.5" font-family="Helvetica,sans-Serif" font-size="10.00">::Reset</text>
</a>
</g>
</g>
<!-- Node2&#45;&gt;Node5 -->
<g id="edge4" class="edge"><title>Node2&#45;&gt;Node5</title>
<path fill="none" stroke="midnightblue" d="M332.427,-79.221C340.816,-77.9221 349.494,-76.5784 358.041,-75.255"/>
<polygon fill="midnightblue" stroke="midnightblue" points="358.641,-78.7038 367.988,-73.7148 357.57,-71.7863 358.641,-78.7038"/>
</g>
<!-- Node6 -->
<g id="node6" class="node"><title>Node6</title>
<g id="a_node6"><a xlink:href="classscram_1_1mef_1_1Expression.xhtml#a5cf00d8b2ff843ad029a501a89ee572a" target="_top" xlink:title="scram::mef::Expression\l::Sample">
<polygon fill="white" stroke="black" points="368,-0.5 368,-30.5 489,-30.5 489,-0.5 368,-0.5"/>
<text text-anchor="start" x="376" y="-18.5" font-family="Helvetica,sans-Serif" font-size="10.00">scram::mef::Expression</text>
<text text-anchor="middle" x="428.5" y="-7.5" font-family="Helvetica,sans-Serif" font-size="10.00">::Sample</text>
</a>
</g>
</g>
<!-- Node2&#45;&gt;Node6 -->
<g id="edge5" class="edge"><title>Node2&#45;&gt;Node6</title>
<path fill="none" stroke="midnightblue" d="M301.088,-73.4926C319.934,-63.7581 345.248,-50.983 368,-40.5 372.29,-38.5234 376.781,-36.5198 381.289,-34.5518"/>
<polygon fill="midnightblue" stroke="midnightblue" points="382.71,-37.7509 390.511,-30.5821 379.942,-31.3212 382.71,-37.7509"/>
</g>
</g>
</svg>
