<?xml version="1.0" encoding="UTF-8" standalone="no"?>
<!DOCTYPE svg PUBLIC "-//W3C//DTD SVG 1.1//EN"
 "http://www.w3.org/Graphics/SVG/1.1/DTD/svg11.dtd">
<!-- Generated by graphviz version 2.38.0 (20140413.2041)
 -->
<!-- Title: scram::core::ProbabilityAnalysis::Analyze Pages: 1 -->
<svg width="284pt" height="186pt"
 viewBox="0.00 0.00 284.00 186.00" xmlns="http://www.w3.org/2000/svg" xmlns:xlink="http://www.w3.org/1999/xlink">
<g id="graph0" class="graph" transform="scale(1 1) rotate(0) translate(4 182)">
<title>scram::core::ProbabilityAnalysis::Analyze</title>
<polygon fill="white" stroke="none" points="-4,4 -4,-182 280,-182 280,4 -4,4"/>
<!-- Node1 -->
<g id="node1" class="node"><title>Node1</title>
<polygon fill="#bfbfbf" stroke="black" points="0,-73.5 0,-103.5 120,-103.5 120,-73.5 0,-73.5"/>
<text text-anchor="start" x="8" y="-91.5" font-family="Helvetica,sans-Serif" font-size="10.00">scram::core::Probability</text>
<text text-anchor="middle" x="60" y="-80.5" font-family="Helvetica,sans-Serif" font-size="10.00">Analysis::Analyze</text>
</g>
<!-- Node2 -->
<g id="node2" class="node"><title>Node2</title>
<g id="a_node2"><a xlink:href="classscram_1_1core_1_1Analysis.xhtml#a1a4f345f29240b0236853641f728a103" target="_top" xlink:title="Adds time to the total analysis time. ">
<polygon fill="white" stroke="black" points="160,-147.5 160,-177.5 272,-177.5 272,-147.5 160,-147.5"/>
<text text-anchor="start" x="168" y="-165.5" font-family="Helvetica,sans-Serif" font-size="10.00">scram::core::Analysis</text>
<text text-anchor="middle" x="216" y="-154.5" font-family="Helvetica,sans-Serif" font-size="10.00">::AddAnalysisTime</text>
</a>
</g>
</g>
<!-- Node1&#45;&gt;Node2 -->
<g id="edge1" class="edge"><title>Node1&#45;&gt;Node2</title>
<path fill="none" stroke="midnightblue" d="M88.0806,-103.662C106.895,-113.97 132.679,-127.652 156,-138.5 159.564,-140.158 163.276,-141.818 167.026,-143.448"/>
<polygon fill="midnightblue" stroke="midnightblue" points="165.791,-146.726 176.363,-147.419 168.53,-140.284 165.791,-146.726"/>
</g>
<!-- Node3 -->
<g id="node3" class="node"><title>Node3</title>
<g id="a_node3"><a xlink:href="classscram_1_1core_1_1Analysis.xhtml#abb78b5ecbaae6f4e7ccbca0b51cf2187" target="_top" xlink:title="Appends a warning message to the analysis warnings. ">
<polygon fill="white" stroke="black" points="160,-98.5 160,-128.5 272,-128.5 272,-98.5 160,-98.5"/>
<text text-anchor="start" x="168" y="-116.5" font-family="Helvetica,sans-Serif" font-size="10.00">scram::core::Analysis</text>
<text text-anchor="middle" x="216" y="-105.5" font-family="Helvetica,sans-Serif" font-size="10.00">::AddWarning</text>
</a>
</g>
</g>
<!-- Node1&#45;&gt;Node3 -->
<g id="edge2" class="edge"><title>Node1&#45;&gt;Node3</title>
<path fill="none" stroke="midnightblue" d="M120.1,-98.0942C129.795,-99.668 139.891,-101.307 149.725,-102.903"/>
<polygon fill="midnightblue" stroke="midnightblue" points="149.419,-106.4 159.851,-104.547 150.541,-99.49 149.419,-106.4"/>
</g>
<!-- Node4 -->
<g id="node4" class="node"><title>Node4</title>
<g id="a_node4"><a xlink:href="classscram_1_1core_1_1ProbabilityAnalysis.xhtml#a2298d982999f3cdf5b5d373f09af2cc3" target="_top" xlink:title="scram::core::Probability\lAnalysis::p_time">
<polygon fill="white" stroke="black" points="156,-49.5 156,-79.5 276,-79.5 276,-49.5 156,-49.5"/>
<text text-anchor="start" x="164" y="-67.5" font-family="Helvetica,sans-Serif" font-size="10.00">scram::core::Probability</text>
<text text-anchor="middle" x="216" y="-56.5" font-family="Helvetica,sans-Serif" font-size="10.00">Analysis::p_time</text>
</a>
</g>
</g>
<!-- Node1&#45;&gt;Node4 -->
<g id="edge3" class="edge"><title>Node1&#45;&gt;Node4</title>
<path fill="none" stroke="midnightblue" d="M120.1,-79.2896C128.513,-77.9785 137.228,-76.6203 145.813,-75.2825"/>
<polygon fill="midnightblue" stroke="midnightblue" points="146.462,-78.7236 155.804,-73.7254 145.384,-71.8071 146.462,-78.7236"/>
</g>
<!-- Node5 -->
<g id="node5" class="node"><title>Node5</title>
<g id="a_node5"><a xlink:href="classscram_1_1core_1_1Analysis.xhtml#ab04a96c555ba726368fa3868a8701610" target="_top" xlink:title="scram::core::Analysis\l::settings">
<polygon fill="white" stroke="black" points="160,-0.5 160,-30.5 272,-30.5 272,-0.5 160,-0.5"/>
<text text-anchor="start" x="168" y="-18.5" font-family="Helvetica,sans-Serif" font-size="10.00">scram::core::Analysis</text>
<text text-anchor="middle" x="216" y="-7.5" font-family="Helvetica,sans-Serif" font-size="10.00">::settings</text>
</a>
</g>
</g>
<!-- Node1&#45;&gt;Node5 -->
<g id="edge4" class="edge"><title>Node1&#45;&gt;Node5</title>
<path fill="none" stroke="midnightblue" d="M89.858,-73.2855C108.562,-63.5825 133.537,-50.9195 156,-40.5 160.142,-38.5785 164.473,-36.6305 168.826,-34.7138"/>
<polygon fill="midnightblue" stroke="midnightblue" points="170.544,-37.7834 178.323,-30.5905 167.756,-31.3624 170.544,-37.7834"/>
</g>
</g>
</svg>
