<?xml version="1.0" encoding="UTF-8" standalone="no"?>
<!DOCTYPE svg PUBLIC "-//W3C//DTD SVG 1.1//EN"
 "http://www.w3.org/Graphics/SVG/1.1/DTD/svg11.dtd">
<!-- Generated by graphviz version 2.38.0 (20140413.2041)
 -->
<!-- Title: scram::core::Preprocessor::ProcessCommonNode Pages: 1 -->
<svg width="630pt" height="453pt"
 viewBox="0.00 0.00 630.00 452.50" xmlns="http://www.w3.org/2000/svg" xmlns:xlink="http://www.w3.org/1999/xlink">
<g id="graph0" class="graph" transform="scale(1 1) rotate(0) translate(4 448.5)">
<title>scram::core::Preprocessor::ProcessCommonNode</title>
<polygon fill="white" stroke="none" points="-4,4 -4,-448.5 626,-448.5 626,4 -4,4"/>
<!-- Node1 -->
<g id="node1" class="node"><title>Node1</title>
<polygon fill="#bfbfbf" stroke="black" points="0,-228 0,-258 132,-258 132,-228 0,-228"/>
<text text-anchor="start" x="8" y="-246" font-family="Helvetica,sans-Serif" font-size="10.00">scram::core::Preprocessor</text>
<text text-anchor="middle" x="66" y="-235" font-family="Helvetica,sans-Serif" font-size="10.00">::ProcessCommonNode</text>
</g>
<!-- Node2 -->
<g id="node2" class="node"><title>Node2</title>
<g id="a_node2"><a xlink:href="classscram_1_1core_1_1Preprocessor.xhtml#a5eb477e9ecd0552b2b554d7df56df652" target="_top" xlink:title="Clears all the ancestor marks used in Boolean optimization steps. ">
<polygon fill="white" stroke="black" points="172,-414 172,-444 304,-444 304,-414 172,-414"/>
<text text-anchor="start" x="180" y="-432" font-family="Helvetica,sans-Serif" font-size="10.00">scram::core::Preprocessor</text>
<text text-anchor="middle" x="238" y="-421" font-family="Helvetica,sans-Serif" font-size="10.00">::ClearStateMarks</text>
</a>
</g>
</g>
<!-- Node1&#45;&gt;Node2 -->
<g id="edge1" class="edge"><title>Node1&#45;&gt;Node2</title>
<path fill="none" stroke="midnightblue" d="M73.2963,-258.421C86.5275,-289.098 120.009,-358.316 168,-399 172.468,-402.788 177.488,-406.169 182.73,-409.17"/>
<polygon fill="midnightblue" stroke="midnightblue" points="181.219,-412.33 191.701,-413.866 184.465,-406.128 181.219,-412.33"/>
</g>
<!-- Node3 -->
<g id="node3" class="node"><title>Node3</title>
<g id="a_node3"><a xlink:href="classscram_1_1core_1_1Preprocessor.xhtml#ad79145fdd5487ef0537728f74e6a94e4" target="_top" xlink:title="Detects if parents of a node are redundant. ">
<polygon fill="white" stroke="black" points="346.5,-306 346.5,-336 480.5,-336 480.5,-306 346.5,-306"/>
<text text-anchor="start" x="354.5" y="-324" font-family="Helvetica,sans-Serif" font-size="10.00">scram::core::Preprocessor</text>
<text text-anchor="middle" x="413.5" y="-313" font-family="Helvetica,sans-Serif" font-size="10.00">::CollectRedundantParents</text>
</a>
</g>
</g>
<!-- Node1&#45;&gt;Node3 -->
<g id="edge2" class="edge"><title>Node1&#45;&gt;Node3</title>
<path fill="none" stroke="midnightblue" d="M73.9998,-258.399C87.5494,-286.076 120.289,-343.442 168,-366 236.915,-398.583 327.116,-364.788 376.43,-340.696"/>
<polygon fill="midnightblue" stroke="midnightblue" points="378.068,-343.791 385.439,-336.18 374.931,-337.533 378.068,-343.791"/>
</g>
<!-- Node5 -->
<g id="node5" class="node"><title>Node5</title>
<g id="a_node5"><a xlink:href="classscram_1_1core_1_1Preprocessor.xhtml#a4539f18d3dde97514ca267b41d30d220" target="_top" xlink:title="Collects failure or success destinations and marks non&#45;redundant nodes. ">
<polygon fill="white" stroke="black" points="172,-326 172,-356 304,-356 304,-326 172,-326"/>
<text text-anchor="start" x="180" y="-344" font-family="Helvetica,sans-Serif" font-size="10.00">scram::core::Preprocessor</text>
<text text-anchor="middle" x="238" y="-333" font-family="Helvetica,sans-Serif" font-size="10.00">::CollectStateDestinations</text>
</a>
</g>
</g>
<!-- Node1&#45;&gt;Node5 -->
<g id="edge4" class="edge"><title>Node1&#45;&gt;Node5</title>
<path fill="none" stroke="midnightblue" d="M84.1759,-258.083C103.467,-274.404 136.245,-300.325 168,-317 171.439,-318.806 175.043,-320.523 178.722,-322.147"/>
<polygon fill="midnightblue" stroke="midnightblue" points="177.397,-325.387 187.975,-325.989 180.082,-318.922 177.397,-325.387"/>
</g>
<!-- Node6 -->
<g id="node6" class="node"><title>Node6</title>
<g id="a_node6"><a xlink:href="classscram_1_1core_1_1Pdag.xhtml#aa43a9026583f7a629fe0a3f17440f55b" target="_top" xlink:title="scram::core::Pdag::\lHasNullGates">
<polygon fill="white" stroke="black" points="186.5,-277 186.5,-307 289.5,-307 289.5,-277 186.5,-277"/>
<text text-anchor="start" x="194.5" y="-295" font-family="Helvetica,sans-Serif" font-size="10.00">scram::core::Pdag::</text>
<text text-anchor="middle" x="238" y="-284" font-family="Helvetica,sans-Serif" font-size="10.00">HasNullGates</text>
</a>
</g>
</g>
<!-- Node1&#45;&gt;Node6 -->
<g id="edge5" class="edge"><title>Node1&#45;&gt;Node6</title>
<path fill="none" stroke="midnightblue" d="M119.393,-258.101C137.421,-263.298 157.755,-269.159 176.382,-274.528"/>
<polygon fill="midnightblue" stroke="midnightblue" points="175.659,-277.962 186.237,-277.368 177.598,-271.236 175.659,-277.962"/>
</g>
<!-- Node7 -->
<g id="node7" class="node"><title>Node7</title>
<g id="a_node7"><a xlink:href="classscram_1_1core_1_1Preprocessor.xhtml#a3b83bc14261cee28f0e1553222b7d5e5" target="_top" xlink:title="Marks ancestor gates true. ">
<polygon fill="white" stroke="black" points="172,-228 172,-258 304,-258 304,-228 172,-228"/>
<text text-anchor="start" x="180" y="-246" font-family="Helvetica,sans-Serif" font-size="10.00">scram::core::Preprocessor</text>
<text text-anchor="middle" x="238" y="-235" font-family="Helvetica,sans-Serif" font-size="10.00">::MarkAncestors</text>
</a>
</g>
</g>
<!-- Node1&#45;&gt;Node7 -->
<g id="edge6" class="edge"><title>Node1&#45;&gt;Node7</title>
<path fill="none" stroke="midnightblue" d="M132.24,-243C141.9,-243 151.92,-243 161.763,-243"/>
<polygon fill="midnightblue" stroke="midnightblue" points="161.934,-246.5 171.934,-243 161.934,-239.5 161.934,-246.5"/>
</g>
<!-- Node8 -->
<g id="node8" class="node"><title>Node8</title>
<g id="a_node8"><a xlink:href="classscram_1_1core_1_1Preprocessor.xhtml#a6edfe2a6d9836942944921a8de0c011e" target="_top" xlink:title="Detects if parents of a node are redundant. ">
<polygon fill="white" stroke="black" points="168,-179 168,-209 308,-209 308,-179 168,-179"/>
<text text-anchor="start" x="176" y="-197" font-family="Helvetica,sans-Serif" font-size="10.00">scram::core::Preprocessor</text>
<text text-anchor="middle" x="238" y="-186" font-family="Helvetica,sans-Serif" font-size="10.00">::ProcessRedundantParents</text>
</a>
</g>
</g>
<!-- Node1&#45;&gt;Node8 -->
<g id="edge7" class="edge"><title>Node1&#45;&gt;Node8</title>
<path fill="none" stroke="midnightblue" d="M119.393,-227.899C137.007,-222.821 156.823,-217.11 175.098,-211.842"/>
<polygon fill="midnightblue" stroke="midnightblue" points="176.141,-215.184 184.78,-209.052 174.202,-208.458 176.141,-215.184"/>
</g>
<!-- Node9 -->
<g id="node9" class="node"><title>Node9</title>
<g id="a_node9"><a xlink:href="classscram_1_1core_1_1Preprocessor.xhtml#aa42b66bb888f665bc68324cca15452ad" target="_top" xlink:title="Transforms failure or success destination according to the logic and the common node. ">
<polygon fill="white" stroke="black" points="169.5,-130 169.5,-160 306.5,-160 306.5,-130 169.5,-130"/>
<text text-anchor="start" x="177.5" y="-148" font-family="Helvetica,sans-Serif" font-size="10.00">scram::core::Preprocessor</text>
<text text-anchor="middle" x="238" y="-137" font-family="Helvetica,sans-Serif" font-size="10.00">::ProcessStateDestinations</text>
</a>
</g>
</g>
<!-- Node1&#45;&gt;Node9 -->
<g id="edge8" class="edge"><title>Node1&#45;&gt;Node9</title>
<path fill="none" stroke="midnightblue" d="M84.1759,-227.917C103.467,-211.596 136.245,-185.675 168,-169 171.439,-167.194 175.043,-165.477 178.722,-163.853"/>
<polygon fill="midnightblue" stroke="midnightblue" points="180.082,-167.078 187.975,-160.011 177.397,-160.613 180.082,-167.078"/>
</g>
<!-- Node12 -->
<g id="node12" class="node"><title>Node12</title>
<g id="a_node12"><a xlink:href="classscram_1_1core_1_1Preprocessor.xhtml#ae9a8bac98061d7f82633486ed6a36861" target="_top" xlink:title="Propagates failure or success of a common node by setting its ancestors&#39; optimization values to 1 or ...">
<polygon fill="white" stroke="black" points="172,-81 172,-111 304,-111 304,-81 172,-81"/>
<text text-anchor="start" x="180" y="-99" font-family="Helvetica,sans-Serif" font-size="10.00">scram::core::Preprocessor</text>
<text text-anchor="middle" x="238" y="-88" font-family="Helvetica,sans-Serif" font-size="10.00">::PropagateState</text>
</a>
</g>
</g>
<!-- Node1&#45;&gt;Node12 -->
<g id="edge11" class="edge"><title>Node1&#45;&gt;Node12</title>
<path fill="none" stroke="midnightblue" d="M75.5743,-227.865C90.8952,-202.122 125.393,-149.716 168,-120 170.139,-118.508 172.38,-117.101 174.692,-115.775"/>
<polygon fill="midnightblue" stroke="midnightblue" points="176.6,-118.73 183.9,-111.051 173.405,-112.501 176.6,-118.73"/>
</g>
<!-- Node15 -->
<g id="node15" class="node"><title>Node15</title>
<g id="a_node15"><a xlink:href="classscram_1_1core_1_1Pdag.xhtml#a1ec495a3595a7d088f1889f46eeb725d" target="_top" xlink:title="Removes gates of Null logic with a single argument (maybe constant). ">
<polygon fill="white" stroke="black" points="186.5,-26 186.5,-56 289.5,-56 289.5,-26 186.5,-26"/>
<text text-anchor="start" x="194.5" y="-44" font-family="Helvetica,sans-Serif" font-size="10.00">scram::core::Pdag::</text>
<text text-anchor="middle" x="238" y="-33" font-family="Helvetica,sans-Serif" font-size="10.00">RemoveNullGates</text>
</a>
</g>
</g>
<!-- Node1&#45;&gt;Node15 -->
<g id="edge15" class="edge"><title>Node1&#45;&gt;Node15</title>
<path fill="none" stroke="midnightblue" d="M72.3009,-227.516C84.3261,-194.494 116.678,-116.467 168,-71 172.216,-67.2645 176.97,-63.9362 181.961,-60.984"/>
<polygon fill="midnightblue" stroke="midnightblue" points="183.973,-63.8768 191.135,-56.0693 180.668,-57.7064 183.973,-63.8768"/>
</g>
<!-- Node4 -->
<g id="node4" class="node"><title>Node4</title>
<g id="a_node4"><a xlink:href="classscram_1_1core_1_1Pdag.xhtml#ae8e2a4c99322296441f87c6ee9305979" target="_top" xlink:title="scram::core::Pdag::\lcoherent">
<polygon fill="white" stroke="black" points="519,-181 519,-211 622,-211 622,-181 519,-181"/>
<text text-anchor="start" x="527" y="-199" font-family="Helvetica,sans-Serif" font-size="10.00">scram::core::Pdag::</text>
<text text-anchor="middle" x="570.5" y="-188" font-family="Helvetica,sans-Serif" font-size="10.00">coherent</text>
</a>
</g>
</g>
<!-- Node3&#45;&gt;Node4 -->
<g id="edge3" class="edge"><title>Node3&#45;&gt;Node4</title>
<path fill="none" stroke="midnightblue" d="M433.197,-305.922C460.544,-283.867 511.591,-242.701 542.859,-217.484"/>
<polygon fill="midnightblue" stroke="midnightblue" points="545.15,-220.133 550.737,-211.131 540.756,-214.685 545.15,-220.133"/>
</g>
<!-- Node10 -->
<g id="node10" class="node"><title>Node10</title>
<g id="a_node10"><a xlink:href="classscram_1_1core_1_1Pdag.xhtml#ae9407efbb00e5f28aecb40db2ab7925b" target="_top" xlink:title="scram::core::Pdag::root">
<polygon fill="white" stroke="black" points="354,-204.5 354,-223.5 473,-223.5 473,-204.5 354,-204.5"/>
<text text-anchor="middle" x="413.5" y="-211.5" font-family="Helvetica,sans-Serif" font-size="10.00">scram::core::Pdag::root</text>
</a>
</g>
</g>
<!-- Node9&#45;&gt;Node10 -->
<g id="edge9" class="edge"><title>Node9&#45;&gt;Node10</title>
<path fill="none" stroke="midnightblue" d="M287.582,-160.015C294.563,-162.711 301.557,-165.72 308,-169 325.36,-177.837 326.422,-185.605 344,-194 349.723,-196.733 355.895,-199.172 362.109,-201.327"/>
<polygon fill="midnightblue" stroke="midnightblue" points="361.258,-204.73 371.85,-204.478 363.413,-198.07 361.258,-204.73"/>
</g>
<!-- Node11 -->
<g id="node11" class="node"><title>Node11</title>
<g id="a_node11"><a xlink:href="classscram_1_1core_1_1Preprocessor.xhtml#a26434bec1bc5a496f80c9cbad1ed3a62" target="_top" xlink:title="Replaces one gate in the graph with another. ">
<polygon fill="white" stroke="black" points="347.5,-155 347.5,-185 479.5,-185 479.5,-155 347.5,-155"/>
<text text-anchor="start" x="355.5" y="-173" font-family="Helvetica,sans-Serif" font-size="10.00">scram::core::Preprocessor</text>
<text text-anchor="middle" x="413.5" y="-162" font-family="Helvetica,sans-Serif" font-size="10.00">::ReplaceGate</text>
</a>
</g>
</g>
<!-- Node9&#45;&gt;Node11 -->
<g id="edge10" class="edge"><title>Node9&#45;&gt;Node11</title>
<path fill="none" stroke="midnightblue" d="M306.576,-154.737C316.638,-156.187 327.063,-157.689 337.27,-159.16"/>
<polygon fill="midnightblue" stroke="midnightblue" points="336.987,-162.655 347.384,-160.617 337.985,-155.727 336.987,-162.655"/>
</g>
<!-- Node13 -->
<g id="node13" class="node"><title>Node13</title>
<g id="a_node13"><a xlink:href="classscram_1_1core_1_1Node.xhtml#a90ef93c4b0667215d2a8c3a3eb4f3822" target="_top" xlink:title="scram::core::Node::\lopti_value">
<polygon fill="white" stroke="black" points="361.5,-106 361.5,-136 465.5,-136 465.5,-106 361.5,-106"/>
<text text-anchor="start" x="369.5" y="-124" font-family="Helvetica,sans-Serif" font-size="10.00">scram::core::Node::</text>
<text text-anchor="middle" x="413.5" y="-113" font-family="Helvetica,sans-Serif" font-size="10.00">opti_value</text>
</a>
</g>
</g>
<!-- Node12&#45;&gt;Node13 -->
<g id="edge12" class="edge"><title>Node12&#45;&gt;Node13</title>
<path fill="none" stroke="midnightblue" d="M304.099,-105.38C319.489,-107.598 335.852,-109.956 351.074,-112.149"/>
<polygon fill="midnightblue" stroke="midnightblue" points="351.007,-115.675 361.404,-113.637 352.005,-108.747 351.007,-115.675"/>
</g>
<!-- Node14 -->
<g id="node14" class="node"><title>Node14</title>
<g id="a_node14"><a xlink:href="classscram_1_1core_1_1Preprocessor.xhtml#a019e679ad9077caac8c48253d42647ff" target="_top" xlink:title="Determines if a gate fails or succeeds due to failed/succeeded arguments. ">
<polygon fill="white" stroke="black" points="347.5,-57 347.5,-87 479.5,-87 479.5,-57 347.5,-57"/>
<text text-anchor="start" x="355.5" y="-75" font-family="Helvetica,sans-Serif" font-size="10.00">scram::core::Preprocessor</text>
<text text-anchor="middle" x="413.5" y="-64" font-family="Helvetica,sans-Serif" font-size="10.00">::DetermineGateState</text>
</a>
</g>
</g>
<!-- Node12&#45;&gt;Node14 -->
<g id="edge13" class="edge"><title>Node12&#45;&gt;Node14</title>
<path fill="none" stroke="midnightblue" d="M304.099,-86.995C314.921,-85.498 326.223,-83.9346 337.271,-82.4063"/>
<polygon fill="midnightblue" stroke="midnightblue" points="337.899,-85.8529 347.325,-81.0155 336.94,-78.9189 337.899,-85.8529"/>
</g>
<!-- Node14&#45;&gt;Node4 -->
<g id="edge14" class="edge"><title>Node14&#45;&gt;Node4</title>
<path fill="none" stroke="midnightblue" d="M466.774,-87.0477C472.465,-89.6281 477.999,-92.5981 483,-96 513.161,-116.516 539.207,-150.092 554.626,-172.611"/>
<polygon fill="midnightblue" stroke="midnightblue" points="551.723,-174.567 560.189,-180.937 557.543,-170.678 551.723,-174.567"/>
</g>
<!-- Node16 -->
<g id="node16" class="node"><title>Node16</title>
<g id="a_node16"><a xlink:href="pdag_8h.xhtml#aa00922ee92d35a300d86442f8b9ad331" target="_top" xlink:title="Traverses and visits gates and nodes in the graph. ">
<polygon fill="white" stroke="black" points="344,-0.5 344,-19.5 483,-19.5 483,-0.5 344,-0.5"/>
<text text-anchor="middle" x="413.5" y="-7.5" font-family="Helvetica,sans-Serif" font-size="10.00">scram::core::TraverseGates</text>
</a>
</g>
</g>
<!-- Node15&#45;&gt;Node16 -->
<g id="edge16" class="edge"><title>Node15&#45;&gt;Node16</title>
<path fill="none" stroke="midnightblue" d="M289.65,-31.9502C308.218,-28.6326 329.471,-24.8351 349.022,-21.3419"/>
<polygon fill="midnightblue" stroke="midnightblue" points="349.839,-24.7514 359.067,-19.547 348.608,-17.8606 349.839,-24.7514"/>
</g>
<!-- Node16&#45;&gt;Node16 -->
<g id="edge17" class="edge"><title>Node16&#45;&gt;Node16</title>
<path fill="none" stroke="midnightblue" d="M389.456,-19.7571C377.759,-28.5653 385.773,-38 413.5,-38 431.696,-38 441.402,-33.9368 442.619,-28.6539"/>
<polygon fill="midnightblue" stroke="midnightblue" points="445.539,-26.7091 437.544,-19.7571 439.459,-30.1775 445.539,-26.7091"/>
</g>
</g>
</svg>
