<?xml version="1.0" encoding="UTF-8" standalone="no"?>
<!DOCTYPE svg PUBLIC "-//W3C//DTD SVG 1.1//EN"
 "http://www.w3.org/Graphics/SVG/1.1/DTD/svg11.dtd">
<!-- Generated by graphviz version 2.38.0 (20140413.2041)
 -->
<!-- Title: scram::core::Zbdd::EliminateComplements Pages: 1 -->
<svg width="625pt" height="558pt"
 viewBox="0.00 0.00 625.00 558.06" xmlns="http://www.w3.org/2000/svg" xmlns:xlink="http://www.w3.org/1999/xlink">
<g id="graph0" class="graph" transform="scale(1 1) rotate(0) translate(4 554.064)">
<title>scram::core::Zbdd::EliminateComplements</title>
<polygon fill="white" stroke="none" points="-4,4 -4,-554.064 621,-554.064 621,4 -4,4"/>
<!-- Node1 -->
<g id="node1" class="node"><title>Node1</title>
<polygon fill="#bfbfbf" stroke="black" points="0,-431.564 0,-461.564 118,-461.564 118,-431.564 0,-431.564"/>
<text text-anchor="start" x="8" y="-449.564" font-family="Helvetica,sans-Serif" font-size="10.00">scram::core::Zbdd::</text>
<text text-anchor="middle" x="59" y="-438.564" font-family="Helvetica,sans-Serif" font-size="10.00">EliminateComplements</text>
</g>
<!-- Node2 -->
<g id="node2" class="node"><title>Node2</title>
<g id="a_node2"><a xlink:href="classscram_1_1core_1_1Settings.xhtml#a0e43ec0f017d23a4fa4e376c4060d380" target="_top" xlink:title="scram::core::Settings\l::limit_order">
<polygon fill="white" stroke="black" points="154,-519.564 154,-549.564 264,-549.564 264,-519.564 154,-519.564"/>
<text text-anchor="start" x="162" y="-537.564" font-family="Helvetica,sans-Serif" font-size="10.00">scram::core::Settings</text>
<text text-anchor="middle" x="209" y="-526.564" font-family="Helvetica,sans-Serif" font-size="10.00">::limit_order</text>
</a>
</g>
</g>
<!-- Node1&#45;&gt;Node2 -->
<g id="edge1" class="edge"><title>Node1&#45;&gt;Node2</title>
<path fill="none" stroke="midnightblue" d="M83.7712,-461.648C102.667,-473.537 129.844,-490.411 154,-504.564 159.587,-507.837 165.542,-511.235 171.381,-514.517"/>
<polygon fill="midnightblue" stroke="midnightblue" points="169.953,-517.728 180.391,-519.543 173.363,-511.615 169.953,-517.728"/>
</g>
<!-- Node3 -->
<g id="node3" class="node"><title>Node3</title>
<g id="a_node3"><a xlink:href="classscram_1_1core_1_1SetNode.xhtml#a2d7f99792b82961df2e5ecfcd735bb5f" target="_top" xlink:title="scram::core::SetNode\l::max_set_order">
<polygon fill="white" stroke="black" points="485,-428.564 485,-458.564 598,-458.564 598,-428.564 485,-428.564"/>
<text text-anchor="start" x="493" y="-446.564" font-family="Helvetica,sans-Serif" font-size="10.00">scram::core::SetNode</text>
<text text-anchor="middle" x="541.5" y="-435.564" font-family="Helvetica,sans-Serif" font-size="10.00">::max_set_order</text>
</a>
</g>
</g>
<!-- Node1&#45;&gt;Node3 -->
<g id="edge2" class="edge"><title>Node1&#45;&gt;Node3</title>
<path fill="none" stroke="midnightblue" d="M118.192,-457.352C191.239,-469.319 320.273,-485.25 430,-471.564 447.076,-469.434 465.3,-465.521 481.923,-461.281"/>
<polygon fill="midnightblue" stroke="midnightblue" points="483.264,-464.547 492.041,-458.612 481.479,-457.779 483.264,-464.547"/>
</g>
<!-- Node4 -->
<g id="node4" class="node"><title>Node4</title>
<g id="a_node4"><a xlink:href="classscram_1_1core_1_1Zbdd.xhtml#a3dbb8ef5da2882daf6c39e9724eae459" target="_top" xlink:title="Removes subsets in ZBDD. ">
<polygon fill="white" stroke="black" points="158,-231.564 158,-261.564 260,-261.564 260,-231.564 158,-231.564"/>
<text text-anchor="start" x="166" y="-249.564" font-family="Helvetica,sans-Serif" font-size="10.00">scram::core::Zbdd::</text>
<text text-anchor="middle" x="209" y="-238.564" font-family="Helvetica,sans-Serif" font-size="10.00">Minimize</text>
</a>
</g>
</g>
<!-- Node1&#45;&gt;Node4 -->
<g id="edge3" class="edge"><title>Node1&#45;&gt;Node4</title>
<path fill="none" stroke="midnightblue" d="M71.1241,-431.531C96.7304,-396.928 159.994,-311.437 190.711,-269.927"/>
<polygon fill="midnightblue" stroke="midnightblue" points="193.612,-271.891 196.747,-261.771 187.985,-267.727 193.612,-271.891"/>
</g>
<!-- Node5 -->
<g id="node5" class="node"><title>Node5</title>
<g id="a_node5"><a xlink:href="structscram_1_1core_1_1IntrusivePtrCast.xhtml#adc53e5b89cace18e05bac95316da7d91" target="_top" xlink:title="scram::core::IntrusivePtr\lCast\&lt; SetNode \&gt;::Ptr">
<polygon fill="white" stroke="black" points="302.5,-431.564 302.5,-461.564 427.5,-461.564 427.5,-431.564 302.5,-431.564"/>
<text text-anchor="start" x="310.5" y="-449.564" font-family="Helvetica,sans-Serif" font-size="10.00">scram::core::IntrusivePtr</text>
<text text-anchor="middle" x="365" y="-438.564" font-family="Helvetica,sans-Serif" font-size="10.00">Cast&lt; SetNode &gt;::Ptr</text>
</a>
</g>
</g>
<!-- Node1&#45;&gt;Node5 -->
<g id="edge17" class="edge"><title>Node1&#45;&gt;Node5</title>
<path fill="none" stroke="midnightblue" d="M118.255,-446.564C167.816,-446.564 239.194,-446.564 292.266,-446.564"/>
<polygon fill="midnightblue" stroke="midnightblue" points="292.288,-450.064 302.288,-446.564 292.288,-443.064 292.288,-450.064"/>
</g>
<!-- Node6 -->
<g id="node6" class="node"><title>Node6</title>
<g id="a_node6"><a xlink:href="structscram_1_1core_1_1IntrusivePtrCast.xhtml#af153c12dc6133b7d9f9b7a57bba29f1d" target="_top" xlink:title="scram::core::IntrusivePtr\lCast\&lt; T, Terminal\&lt; T \&gt; \&gt;::Ref">
<polygon fill="white" stroke="black" points="466,-231.564 466,-261.564 617,-261.564 617,-231.564 466,-231.564"/>
<text text-anchor="start" x="474" y="-249.564" font-family="Helvetica,sans-Serif" font-size="10.00">scram::core::IntrusivePtr</text>
<text text-anchor="middle" x="541.5" y="-238.564" font-family="Helvetica,sans-Serif" font-size="10.00">Cast&lt; T, Terminal&lt; T &gt; &gt;::Ref</text>
</a>
</g>
</g>
<!-- Node1&#45;&gt;Node6 -->
<g id="edge18" class="edge"><title>Node1&#45;&gt;Node6</title>
<path fill="none" stroke="midnightblue" d="M62.543,-431.475C74.4811,-366.175 131.638,-107.361 300,-21.5639 351.479,4.66958 380.96,8.98683 430,-21.5639 466.793,-44.4853 513.24,-167.99 532.033,-221.65"/>
<polygon fill="midnightblue" stroke="midnightblue" points="528.831,-223.097 535.412,-231.4 535.445,-220.805 528.831,-223.097"/>
</g>
<!-- Node4&#45;&gt;Node5 -->
<g id="edge4" class="edge"><title>Node4&#45;&gt;Node5</title>
<path fill="none" stroke="midnightblue" d="M213.683,-261.586C222.66,-295.152 248.781,-376.872 300,-422.564 301.309,-423.732 302.68,-424.844 304.102,-425.905"/>
<polygon fill="midnightblue" stroke="midnightblue" points="302.41,-428.977 312.718,-431.423 306.184,-423.082 302.41,-428.977"/>
</g>
<!-- Node4&#45;&gt;Node6 -->
<g id="edge5" class="edge"><title>Node4&#45;&gt;Node6</title>
<path fill="none" stroke="midnightblue" d="M260.196,-241.555C312.026,-239.623 393.834,-239.299 455.721,-240.583"/>
<polygon fill="midnightblue" stroke="midnightblue" points="455.786,-244.085 465.862,-240.812 455.944,-237.087 455.786,-244.085"/>
</g>
<!-- Node4&#45;&gt;Node6 -->
<g id="edge9" class="edge"><title>Node4&#45;&gt;Node6</title>
<path fill="none" stroke="midnightblue" d="M260.196,-251.573C312.026,-253.505 393.834,-253.829 455.721,-252.545"/>
<polygon fill="midnightblue" stroke="midnightblue" points="455.944,-256.041 465.862,-252.316 455.786,-249.043 455.944,-256.041"/>
</g>
<!-- Node7 -->
<g id="node7" class="node"><title>Node7</title>
<g id="a_node7"><a xlink:href="classscram_1_1core_1_1Zbdd.xhtml#a42af18229ba2e80201bc0fdac07b7091" target="_top" xlink:title="Finds or adds a unique SetNode in the ZBDD. ">
<polygon fill="white" stroke="black" points="314,-382.564 314,-412.564 416,-412.564 416,-382.564 314,-382.564"/>
<text text-anchor="start" x="322" y="-400.564" font-family="Helvetica,sans-Serif" font-size="10.00">scram::core::Zbdd::</text>
<text text-anchor="middle" x="365" y="-389.564" font-family="Helvetica,sans-Serif" font-size="10.00">FindOrAddVertex</text>
</a>
</g>
</g>
<!-- Node4&#45;&gt;Node7 -->
<g id="edge6" class="edge"><title>Node4&#45;&gt;Node7</title>
<path fill="none" stroke="midnightblue" d="M216.954,-261.702C229.768,-288.024 259.543,-342.389 300,-373.564 301.795,-374.947 303.678,-376.257 305.626,-377.498"/>
<polygon fill="midnightblue" stroke="midnightblue" points="304.082,-380.645 314.513,-382.501 307.516,-374.545 304.082,-380.645"/>
</g>
<!-- Node8 -->
<g id="node8" class="node"><title>Node8</title>
<g id="a_node8"><a xlink:href="classscram_1_1core_1_1SetNode.xhtml#a88d05af2b9f4f08b7bc66a31c2b9e249" target="_top" xlink:title="scram::core::SetNode\l::minimal">
<polygon fill="white" stroke="black" points="308.5,-178.564 308.5,-208.564 421.5,-208.564 421.5,-178.564 308.5,-178.564"/>
<text text-anchor="start" x="316.5" y="-196.564" font-family="Helvetica,sans-Serif" font-size="10.00">scram::core::SetNode</text>
<text text-anchor="middle" x="365" y="-185.564" font-family="Helvetica,sans-Serif" font-size="10.00">::minimal</text>
</a>
</g>
</g>
<!-- Node4&#45;&gt;Node8 -->
<g id="edge10" class="edge"><title>Node4&#45;&gt;Node8</title>
<path fill="none" stroke="midnightblue" d="M253.718,-231.518C271.438,-225.42 292.069,-218.319 310.662,-211.921"/>
<polygon fill="midnightblue" stroke="midnightblue" points="311.856,-215.211 320.172,-208.647 309.578,-208.592 311.856,-215.211"/>
</g>
<!-- Node9 -->
<g id="node9" class="node"><title>Node9</title>
<g id="a_node9"><a xlink:href="classscram_1_1core_1_1Terminal.xhtml#a7a25b0b40498f4876571a5dac4e724c3" target="_top" xlink:title="scram::core::Terminal\l::value">
<polygon fill="white" stroke="black" points="309,-31.5639 309,-61.5639 421,-61.5639 421,-31.5639 309,-31.5639"/>
<text text-anchor="start" x="317" y="-49.5639" font-family="Helvetica,sans-Serif" font-size="10.00">scram::core::Terminal</text>
<text text-anchor="middle" x="365" y="-38.5639" font-family="Helvetica,sans-Serif" font-size="10.00">::value</text>
</a>
</g>
</g>
<!-- Node4&#45;&gt;Node9 -->
<g id="edge11" class="edge"><title>Node4&#45;&gt;Node9</title>
<path fill="none" stroke="midnightblue" d="M213.683,-231.542C222.66,-197.976 248.781,-116.256 300,-70.5639 301.309,-69.3963 302.68,-68.2834 304.102,-67.223"/>
<polygon fill="midnightblue" stroke="midnightblue" points="306.184,-70.0455 312.718,-61.7053 302.41,-64.1505 306.184,-70.0455"/>
</g>
<!-- Node11 -->
<g id="node11" class="node"><title>Node11</title>
<g id="a_node11"><a xlink:href="classscram_1_1core_1_1Settings.xhtml#ae64f362fceb44402e101140dfc1725ba" target="_top" xlink:title="scram::core::Settings\l::prime_implicants">
<polygon fill="white" stroke="black" points="310,-129.564 310,-159.564 420,-159.564 420,-129.564 310,-129.564"/>
<text text-anchor="start" x="318" y="-147.564" font-family="Helvetica,sans-Serif" font-size="10.00">scram::core::Settings</text>
<text text-anchor="middle" x="365" y="-136.564" font-family="Helvetica,sans-Serif" font-size="10.00">::prime_implicants</text>
</a>
</g>
</g>
<!-- Node4&#45;&gt;Node11 -->
<g id="edge13" class="edge"><title>Node4&#45;&gt;Node11</title>
<path fill="none" stroke="midnightblue" d="M224.39,-231.518C241.221,-214.609 270.547,-187.221 300,-169.564 303.357,-167.551 306.905,-165.644 310.54,-163.848"/>
<polygon fill="midnightblue" stroke="midnightblue" points="312.086,-166.989 319.694,-159.616 309.148,-160.635 312.086,-166.989"/>
</g>
<!-- Node12 -->
<g id="node12" class="node"><title>Node12</title>
<g id="a_node12"><a xlink:href="classscram_1_1core_1_1NonTerminal.xhtml#aeeaafd82ae5890a7ec3462c68ffc8628" target="_top" xlink:title="scram::core::NonTerminal\l::index">
<polygon fill="white" stroke="black" points="300,-80.5639 300,-110.564 430,-110.564 430,-80.5639 300,-80.5639"/>
<text text-anchor="start" x="308" y="-98.5639" font-family="Helvetica,sans-Serif" font-size="10.00">scram::core::NonTerminal</text>
<text text-anchor="middle" x="365" y="-87.5639" font-family="Helvetica,sans-Serif" font-size="10.00">::index</text>
</a>
</g>
</g>
<!-- Node4&#45;&gt;Node12 -->
<g id="edge14" class="edge"><title>Node4&#45;&gt;Node12</title>
<path fill="none" stroke="midnightblue" d="M216.954,-231.426C229.768,-205.104 259.543,-150.738 300,-119.564 301.795,-118.181 303.678,-116.871 305.626,-115.63"/>
<polygon fill="midnightblue" stroke="midnightblue" points="307.516,-118.583 314.513,-110.627 304.082,-112.483 307.516,-118.583"/>
</g>
<!-- Node13 -->
<g id="node13" class="node"><title>Node13</title>
<g id="a_node13"><a xlink:href="classscram_1_1core_1_1NonTerminal.xhtml#a9230422e92d086c34f67bcb864bfc8a9" target="_top" xlink:title="scram::core::NonTerminal\l::module">
<polygon fill="white" stroke="black" points="300,-333.564 300,-363.564 430,-363.564 430,-333.564 300,-333.564"/>
<text text-anchor="start" x="308" y="-351.564" font-family="Helvetica,sans-Serif" font-size="10.00">scram::core::NonTerminal</text>
<text text-anchor="middle" x="365" y="-340.564" font-family="Helvetica,sans-Serif" font-size="10.00">::module</text>
</a>
</g>
</g>
<!-- Node4&#45;&gt;Node13 -->
<g id="edge15" class="edge"><title>Node4&#45;&gt;Node13</title>
<path fill="none" stroke="midnightblue" d="M224.009,-261.585C240.713,-278.767 270.143,-306.811 300,-324.564 302.668,-326.15 305.459,-327.663 308.32,-329.1"/>
<polygon fill="midnightblue" stroke="midnightblue" points="307.087,-332.387 317.63,-333.434 310.041,-326.041 307.087,-332.387"/>
</g>
<!-- Node14 -->
<g id="node14" class="node"><title>Node14</title>
<g id="a_node14"><a xlink:href="classscram_1_1core_1_1NonTerminal.xhtml#adcdd0c5114aa6a1d32a03928adc07c49" target="_top" xlink:title="scram::core::NonTerminal\l::coherent">
<polygon fill="white" stroke="black" points="300,-284.564 300,-314.564 430,-314.564 430,-284.564 300,-284.564"/>
<text text-anchor="start" x="308" y="-302.564" font-family="Helvetica,sans-Serif" font-size="10.00">scram::core::NonTerminal</text>
<text text-anchor="middle" x="365" y="-291.564" font-family="Helvetica,sans-Serif" font-size="10.00">::coherent</text>
</a>
</g>
</g>
<!-- Node4&#45;&gt;Node14 -->
<g id="edge16" class="edge"><title>Node4&#45;&gt;Node14</title>
<path fill="none" stroke="midnightblue" d="M253.718,-261.61C271.438,-267.708 292.069,-274.808 310.662,-281.207"/>
<polygon fill="midnightblue" stroke="midnightblue" points="309.578,-284.536 320.172,-284.48 311.856,-277.917 309.578,-284.536"/>
</g>
<!-- Node7&#45;&gt;Node3 -->
<g id="edge7" class="edge"><title>Node7&#45;&gt;Node3</title>
<path fill="none" stroke="midnightblue" d="M416.005,-410.746C434.442,-415.606 455.611,-421.186 475.201,-426.35"/>
<polygon fill="midnightblue" stroke="midnightblue" points="474.412,-429.762 484.974,-428.927 476.197,-422.993 474.412,-429.762"/>
</g>
<!-- Node7&#45;&gt;Node6 -->
<g id="edge8" class="edge"><title>Node7&#45;&gt;Node6</title>
<path fill="none" stroke="midnightblue" d="M414.161,-382.525C419.714,-379.924 425.126,-376.947 430,-373.564 470.946,-345.143 506.377,-298.226 525.469,-270.07"/>
<polygon fill="midnightblue" stroke="midnightblue" points="528.455,-271.9 531.08,-261.635 522.627,-268.023 528.455,-271.9"/>
</g>
<!-- Node10 -->
<g id="node10" class="node"><title>Node10</title>
<g id="a_node10"><a xlink:href="classscram_1_1core_1_1Vertex.xhtml#a8a4a6e9871c7b80b9951fea57617d438" target="_top" xlink:title="scram::core::Vertex::id">
<polygon fill="white" stroke="black" points="483.5,-37.0639 483.5,-56.0639 599.5,-56.0639 599.5,-37.0639 483.5,-37.0639"/>
<text text-anchor="middle" x="541.5" y="-44.0639" font-family="Helvetica,sans-Serif" font-size="10.00">scram::core::Vertex::id</text>
</a>
</g>
</g>
<!-- Node9&#45;&gt;Node10 -->
<g id="edge12" class="edge"><title>Node9&#45;&gt;Node10</title>
<path fill="none" stroke="midnightblue" d="M421.213,-46.5639C437.585,-46.5639 455.705,-46.5639 472.774,-46.5639"/>
<polygon fill="midnightblue" stroke="midnightblue" points="473.241,-50.064 483.241,-46.5639 473.241,-43.064 473.241,-50.064"/>
</g>
</g>
</svg>
