<?xml version="1.0" encoding="UTF-8" standalone="no"?>
<!DOCTYPE svg PUBLIC "-//W3C//DTD SVG 1.1//EN"
 "http://www.w3.org/Graphics/SVG/1.1/DTD/svg11.dtd">
<!-- Generated by graphviz version 2.38.0 (20140413.2041)
 -->
<!-- Title: scram::core::Preprocessor::DetectDistributivity Pages: 1 -->
<svg width="1039pt" height="206pt"
 viewBox="0.00 0.00 1039.00 206.02" xmlns="http://www.w3.org/2000/svg" xmlns:xlink="http://www.w3.org/1999/xlink">
<g id="graph0" class="graph" transform="scale(1 1) rotate(0) translate(4 202.023)">
<title>scram::core::Preprocessor::DetectDistributivity</title>
<polygon fill="white" stroke="none" points="-4,4 -4,-202.023 1035,-202.023 1035,4 -4,4"/>
<!-- Node1 -->
<g id="node1" class="node"><title>Node1</title>
<polygon fill="#bfbfbf" stroke="black" points="0,-108.5 0,-138.5 132,-138.5 132,-108.5 0,-108.5"/>
<text text-anchor="start" x="8" y="-126.5" font-family="Helvetica,sans-Serif" font-size="10.00">scram::core::Preprocessor</text>
<text text-anchor="middle" x="66" y="-115.5" font-family="Helvetica,sans-Serif" font-size="10.00">::DetectDistributivity</text>
</g>
<!-- Node2 -->
<g id="node2" class="node"><title>Node2</title>
<g id="a_node2"><a xlink:href="classscram_1_1core_1_1Preprocessor.xhtml#a79fe8e90f0e8fbc20a76610aaf09fe6e" target="_top" xlink:title="Detects and manipulates AND and OR gate distributivity. ">
<polygon fill="white" stroke="black" points="168,-133.5 168,-163.5 300,-163.5 300,-133.5 168,-133.5"/>
<text text-anchor="start" x="176" y="-151.5" font-family="Helvetica,sans-Serif" font-size="10.00">scram::core::Preprocessor</text>
<text text-anchor="middle" x="234" y="-140.5" font-family="Helvetica,sans-Serif" font-size="10.00">::DetectDistributivity</text>
</a>
</g>
</g>
<!-- Node1&#45;&gt;Node2 -->
<g id="edge1" class="edge"><title>Node1&#45;&gt;Node2</title>
<path fill="none" stroke="midnightblue" d="M142.114,-134.812C150.681,-136.103 159.361,-137.41 167.784,-138.678"/>
<polygon fill="midnightblue" stroke="midnightblue" points="142.541,-131.337 132.131,-133.309 141.498,-138.259 142.541,-131.337"/>
</g>
<!-- Node3 -->
<g id="node3" class="node"><title>Node3</title>
<g id="a_node3"><a xlink:href="classscram_1_1core_1_1Preprocessor.xhtml#a9d5f89471499508eb9e6c01ea43e0f15" target="_top" xlink:title="Preprocessing phase of the original structure of the graph. ">
<polygon fill="white" stroke="black" points="168,-84.5 168,-114.5 300,-114.5 300,-84.5 168,-84.5"/>
<text text-anchor="start" x="176" y="-102.5" font-family="Helvetica,sans-Serif" font-size="10.00">scram::core::Preprocessor</text>
<text text-anchor="middle" x="234" y="-91.5" font-family="Helvetica,sans-Serif" font-size="10.00">::RunPhaseTwo</text>
</a>
</g>
</g>
<!-- Node1&#45;&gt;Node3 -->
<g id="edge2" class="edge"><title>Node1&#45;&gt;Node3</title>
<path fill="none" stroke="midnightblue" d="M142.114,-112.64C150.681,-111.402 159.361,-110.147 167.784,-108.929"/>
<polygon fill="midnightblue" stroke="midnightblue" points="141.527,-109.188 132.131,-114.083 142.529,-116.116 141.527,-109.188"/>
</g>
<!-- Node4 -->
<g id="node4" class="node"><title>Node4</title>
<g id="a_node4"><a xlink:href="classscram_1_1core_1_1Preprocessor.xhtml#a5ee92284aef510ce01a71c962d50f51c" target="_top" xlink:title="Runs the graph preprocessing. ">
<polygon fill="white" stroke="black" points="713.5,-93.5 713.5,-123.5 845.5,-123.5 845.5,-93.5 713.5,-93.5"/>
<text text-anchor="start" x="721.5" y="-111.5" font-family="Helvetica,sans-Serif" font-size="10.00">scram::core::Preprocessor</text>
<text text-anchor="middle" x="779.5" y="-100.5" font-family="Helvetica,sans-Serif" font-size="10.00">::operator()</text>
</a>
</g>
</g>
<!-- Node3&#45;&gt;Node4 -->
<g id="edge3" class="edge"><title>Node3&#45;&gt;Node4</title>
<path fill="none" stroke="midnightblue" d="M293.56,-119.335C295.786,-120.646 297.943,-122.033 300,-123.5 320.573,-138.168 313.167,-156.68 336,-167.5 466.376,-229.283 520.186,-183.095 660,-147.5 676.798,-143.224 679.653,-138.263 696,-132.5 704.863,-129.375 714.36,-126.335 723.642,-123.527"/>
<polygon fill="midnightblue" stroke="midnightblue" points="295.167,-116.225 284.69,-114.646 291.896,-122.414 295.167,-116.225"/>
</g>
<!-- Node6 -->
<g id="node6" class="node"><title>Node6</title>
<g id="a_node6"><a xlink:href="classscram_1_1core_1_1Preprocessor.xhtml#a2b6705e815fa3d02119c405b483766d5" target="_top" xlink:title="Container of unique gates by semantics. ">
<polygon fill="white" stroke="black" points="504,-99 504,-118 660,-118 660,-99 504,-99"/>
<text text-anchor="middle" x="582" y="-106" font-family="Helvetica,sans-Serif" font-size="10.00">scram::core::Preprocessor::Run</text>
</a>
</g>
</g>
<!-- Node3&#45;&gt;Node6 -->
<g id="edge5" class="edge"><title>Node3&#45;&gt;Node6</title>
<path fill="none" stroke="midnightblue" d="M310.158,-101.455C367.44,-102.945 446.044,-104.99 503.82,-106.492"/>
<polygon fill="midnightblue" stroke="midnightblue" points="310.168,-97.9541 300.08,-101.193 309.986,-104.952 310.168,-97.9541"/>
</g>
<!-- Node9 -->
<g id="node9" class="node"><title>Node9</title>
<g id="a_node9"><a xlink:href="classscram_1_1core_1_1Preprocessor.xhtml#a3569bbcd5e863c750cdfa69115399600" target="_top" xlink:title="The final phase that cleans up the graph, and puts the structure of the graph ready for analysis...">
<polygon fill="white" stroke="black" points="516,-0.5 516,-30.5 648,-30.5 648,-0.5 516,-0.5"/>
<text text-anchor="start" x="524" y="-18.5" font-family="Helvetica,sans-Serif" font-size="10.00">scram::core::Preprocessor</text>
<text text-anchor="middle" x="582" y="-7.5" font-family="Helvetica,sans-Serif" font-size="10.00">::RunPhaseFive</text>
</a>
</g>
</g>
<!-- Node3&#45;&gt;Node9 -->
<g id="edge9" class="edge"><title>Node3&#45;&gt;Node9</title>
<path fill="none" stroke="midnightblue" d="M302.389,-81.9577C313.605,-79.0941 325.124,-76.1871 336,-73.5 396.894,-58.4559 466.502,-42.0533 515.921,-30.5423"/>
<polygon fill="midnightblue" stroke="midnightblue" points="301.453,-78.5843 292.635,-84.4565 303.191,-85.3654 301.453,-78.5843"/>
</g>
<!-- Node10 -->
<g id="node10" class="node"><title>Node10</title>
<g id="a_node10"><a xlink:href="classscram_1_1core_1_1Preprocessor.xhtml#a5c224938dfba861f061525658bd7b156" target="_top" xlink:title="Propagation of complements. ">
<polygon fill="white" stroke="black" points="516,-49.5 516,-79.5 648,-79.5 648,-49.5 516,-49.5"/>
<text text-anchor="start" x="524" y="-67.5" font-family="Helvetica,sans-Serif" font-size="10.00">scram::core::Preprocessor</text>
<text text-anchor="middle" x="582" y="-56.5" font-family="Helvetica,sans-Serif" font-size="10.00">::RunPhaseFour</text>
</a>
</g>
</g>
<!-- Node3&#45;&gt;Node10 -->
<g id="edge12" class="edge"><title>Node3&#45;&gt;Node10</title>
<path fill="none" stroke="midnightblue" d="M310.097,-91.9035C371.493,-85.6929 457.413,-77.0015 515.918,-71.0834"/>
<polygon fill="midnightblue" stroke="midnightblue" points="309.677,-88.428 300.08,-92.9168 310.381,-95.3925 309.677,-88.428"/>
</g>
<!-- Node11 -->
<g id="node11" class="node"><title>Node11</title>
<g id="a_node11"><a xlink:href="classscram_1_1core_1_1Preprocessor.xhtml#abf2c66723172a85b2ae87ef2a034cd1f" target="_top" xlink:title="Application of gate normalization. ">
<polygon fill="white" stroke="black" points="336,-128.5 336,-158.5 468,-158.5 468,-128.5 336,-128.5"/>
<text text-anchor="start" x="344" y="-146.5" font-family="Helvetica,sans-Serif" font-size="10.00">scram::core::Preprocessor</text>
<text text-anchor="middle" x="402" y="-135.5" font-family="Helvetica,sans-Serif" font-size="10.00">::RunPhaseThree</text>
</a>
</g>
</g>
<!-- Node3&#45;&gt;Node11 -->
<g id="edge15" class="edge"><title>Node3&#45;&gt;Node11</title>
<path fill="none" stroke="midnightblue" d="M301.378,-117.094C315.598,-120.863 330.496,-124.812 344.31,-128.474"/>
<polygon fill="midnightblue" stroke="midnightblue" points="302.226,-113.698 291.663,-114.519 300.433,-120.465 302.226,-113.698"/>
</g>
<!-- Node5 -->
<g id="node5" class="node"><title>Node5</title>
<g id="a_node5"><a xlink:href="classscram_1_1core_1_1Preprocessor_1_1GateSet.xhtml#ae00239084858979e096032c4cf2f05b9" target="_top" xlink:title="Inserts a gate into the set if it is semantically unique. ">
<polygon fill="white" stroke="black" points="899,-93.5 899,-123.5 1031,-123.5 1031,-93.5 899,-93.5"/>
<text text-anchor="start" x="907" y="-111.5" font-family="Helvetica,sans-Serif" font-size="10.00">scram::core::Preprocessor</text>
<text text-anchor="middle" x="965" y="-100.5" font-family="Helvetica,sans-Serif" font-size="10.00">::GateSet::insert</text>
</a>
</g>
</g>
<!-- Node4&#45;&gt;Node5 -->
<g id="edge4" class="edge"><title>Node4&#45;&gt;Node5</title>
<path fill="none" stroke="midnightblue" d="M855.989,-108.5C870.264,-108.5 885.081,-108.5 898.998,-108.5"/>
<polygon fill="midnightblue" stroke="midnightblue" points="855.712,-105 845.712,-108.5 855.712,-112 855.712,-105"/>
</g>
<!-- Node6&#45;&gt;Node4 -->
<g id="edge7" class="edge"><title>Node6&#45;&gt;Node4</title>
<path fill="none" stroke="midnightblue" d="M670.674,-108.5C685.062,-108.5 699.744,-108.5 713.457,-108.5"/>
<polygon fill="midnightblue" stroke="midnightblue" points="670.267,-105 660.267,-108.5 670.267,-112 670.267,-105"/>
</g>
<!-- Node7 -->
<g id="node7" class="node"><title>Node7</title>
<g id="a_node7"><a xlink:href="classscram_1_1core_1_1Preprocessor.xhtml#a9caf4677a024ed935d831210b57b8ed9" target="_top" xlink:title="Gathers nodes in the sub&#45;graph. ">
<polygon fill="white" stroke="black" points="713.5,-142.5 713.5,-172.5 845.5,-172.5 845.5,-142.5 713.5,-142.5"/>
<text text-anchor="start" x="721.5" y="-160.5" font-family="Helvetica,sans-Serif" font-size="10.00">scram::core::Preprocessor</text>
<text text-anchor="middle" x="779.5" y="-149.5" font-family="Helvetica,sans-Serif" font-size="10.00">::GatherNodes</text>
</a>
</g>
</g>
<!-- Node6&#45;&gt;Node7 -->
<g id="edge6" class="edge"><title>Node6&#45;&gt;Node7</title>
<path fill="none" stroke="midnightblue" d="M630.934,-120.514C657.35,-127.135 690.39,-135.416 718.506,-142.463"/>
<polygon fill="midnightblue" stroke="midnightblue" points="631.709,-117.1 621.158,-118.064 630.007,-123.89 631.709,-117.1"/>
</g>
<!-- Node8 -->
<g id="node8" class="node"><title>Node8</title>
<g id="a_node8"><a xlink:href="classscram_1_1core_1_1CustomPreprocessor_3_01Zbdd_01_4.xhtml#a5185075f852c647c7aa4313d23420ee5" target="_top" xlink:title="Performs preprocessing for analyses with Zero&#45;Suppressed Binary Decision Diagrams. ">
<polygon fill="white" stroke="black" points="696,-44.5 696,-74.5 863,-74.5 863,-44.5 696,-44.5"/>
<text text-anchor="start" x="704" y="-62.5" font-family="Helvetica,sans-Serif" font-size="10.00">scram::core::CustomPreprocessor</text>
<text text-anchor="middle" x="779.5" y="-51.5" font-family="Helvetica,sans-Serif" font-size="10.00">&lt; Zbdd &gt;::Run</text>
</a>
</g>
</g>
<!-- Node6&#45;&gt;Node8 -->
<g id="edge8" class="edge"><title>Node6&#45;&gt;Node8</title>
<path fill="none" stroke="midnightblue" d="M630.934,-96.4858C657.35,-89.865 690.39,-81.5839 718.506,-74.537"/>
<polygon fill="midnightblue" stroke="midnightblue" points="630.007,-93.1097 621.158,-98.936 631.709,-99.8997 630.007,-93.1097"/>
</g>
<!-- Node9&#45;&gt;Node4 -->
<g id="edge10" class="edge"><title>Node9&#45;&gt;Node4</title>
<path fill="none" stroke="midnightblue" d="M652.51,-34.961C655.098,-36.3737 657.606,-37.8846 660,-39.5 680.945,-53.6332 675,-69.4498 696,-83.5 701.722,-87.3282 708.051,-90.5879 714.585,-93.3596"/>
<polygon fill="midnightblue" stroke="midnightblue" points="653.971,-31.7795 643.451,-30.5266 650.894,-38.0667 653.971,-31.7795"/>
</g>
<!-- Node9&#45;&gt;Node8 -->
<g id="edge11" class="edge"><title>Node9&#45;&gt;Node8</title>
<path fill="none" stroke="midnightblue" d="M658.313,-32.4503C675.894,-36.4071 694.499,-40.5943 711.681,-44.4615"/>
<polygon fill="midnightblue" stroke="midnightblue" points="658.623,-28.9326 648.099,-30.1514 657.086,-35.7617 658.623,-28.9326"/>
</g>
<!-- Node10&#45;&gt;Node4 -->
<g id="edge13" class="edge"><title>Node10&#45;&gt;Node4</title>
<path fill="none" stroke="midnightblue" d="M658.088,-81.3997C676.307,-85.4999 695.636,-89.8504 713.353,-93.8376"/>
<polygon fill="midnightblue" stroke="midnightblue" points="658.623,-77.9326 648.099,-79.1514 657.086,-84.7617 658.623,-77.9326"/>
</g>
<!-- Node10&#45;&gt;Node8 -->
<g id="edge14" class="edge"><title>Node10&#45;&gt;Node8</title>
<path fill="none" stroke="midnightblue" d="M658.313,-62.5738C670.636,-62.2587 683.462,-61.9306 695.949,-61.6113"/>
<polygon fill="midnightblue" stroke="midnightblue" points="658.006,-59.0805 648.099,-62.8351 658.185,-66.0782 658.006,-59.0805"/>
</g>
<!-- Node11&#45;&gt;Node4 -->
<g id="edge16" class="edge"><title>Node11&#45;&gt;Node4</title>
<path fill="none" stroke="midnightblue" d="M478.125,-140.741C529.458,-138.386 598.976,-134.276 660,-127.5 677.395,-125.569 696.133,-122.859 713.46,-120.09"/>
<polygon fill="midnightblue" stroke="midnightblue" points="477.942,-137.246 468.109,-141.189 478.255,-144.239 477.942,-137.246"/>
</g>
<!-- Node11&#45;&gt;Node6 -->
<g id="edge17" class="edge"><title>Node11&#45;&gt;Node6</title>
<path fill="none" stroke="midnightblue" d="M477.896,-128.773C496.402,-125.134 515.743,-121.331 532.608,-118.015"/>
<polygon fill="midnightblue" stroke="midnightblue" points="477.154,-125.352 468.018,-130.716 478.505,-132.22 477.154,-125.352"/>
</g>
</g>
</svg>
