<?xml version="1.0" encoding="UTF-8" standalone="no"?>
<!DOCTYPE svg PUBLIC "-//W3C//DTD SVG 1.1//EN"
 "http://www.w3.org/Graphics/SVG/1.1/DTD/svg11.dtd">
<!-- Generated by graphviz version 2.38.0 (20140413.2041)
 -->
<!-- Title: scram::core::zbdd::CutSetContainer::GatherModules Pages: 1 -->
<!--zoomable 579 -->
<svg id="main" version="1.1" xmlns="http://www.w3.org/2000/svg" xmlns:xlink="http://www.w3.org/1999/xlink" xml:space="preserve" onload="init(evt)">
<style type="text/css"><![CDATA[
.edge:hover path { stroke: red; }
.edge:hover polygon { stroke: red; fill: red; }
]]></style>
<script type="text/javascript"><![CDATA[
var edges = document.getElementsByTagName('g');
if (edges && edges.length) {
  for (var i=0;i<edges.length;i++) {
    if (edges[i].id.substr(0,4)=='edge') {
      edges[i].setAttribute('class','edge');
    }
  }
}
]]></script>
        <defs>
                <circle id="rim" cx="0" cy="0" r="7"/>
                <circle id="rim2" cx="0" cy="0" r="3.5"/>
                <g id="zoomPlus">
                        <use xlink:href="#rim" fill="#404040">
                                <set attributeName="fill" to="#808080" begin="zoomplus.mouseover" end="zoomplus.mouseout"/>
                        </use>
                        <path d="M-4,0h8M0,-4v8" fill="none" stroke="white" stroke-width="1.5" pointer-events="none"/>
                </g>
                <g id="zoomMin">
                        <use xlink:href="#rim" fill="#404040">
                                <set attributeName="fill" to="#808080" begin="zoomminus.mouseover" end="zoomminus.mouseout"/>
                        </use>
                        <path d="M-4,0h8" fill="none" stroke="white" stroke-width="1.5" pointer-events="none"/>
                </g>
                <g id="dirArrow">
                        <path fill="none" stroke="white" stroke-width="1.5" d="M0,-3.0v7 M-2.5,-0.5L0,-3.0L2.5,-0.5"/>
                </g>
               <g id="resetDef">
                       <use xlink:href="#rim2" fill="#404040">
                               <set attributeName="fill" to="#808080" begin="reset.mouseover" end="reset.mouseout"/>
                       </use>
               </g>
        </defs>

<script type="text/javascript">
var viewWidth = 698;
var viewHeight = 579;
var sectionId = 'dynsection-9';
</script>
<script xlink:href="svgpan.js"/>
<svg id="graph" class="graph">
<g id="viewport">
<title>scram::core::zbdd::CutSetContainer::GatherModules</title>
<polygon fill="white" stroke="none" points="-4,4 -4,-574.771 694,-574.771 694,4 -4,4"/>
<!-- Node1 -->
<g id="node1" class="node"><title>Node1</title>
<polygon fill="#bfbfbf" stroke="black" points="0,-242.5 0,-272.5 161,-272.5 161,-242.5 0,-242.5"/>
<text text-anchor="start" x="8" y="-260.5" font-family="Helvetica,sans-Serif" font-size="10.00">scram::core::zbdd::</text>
<text text-anchor="middle" x="80.5" y="-249.5" font-family="Helvetica,sans-Serif" font-size="10.00">CutSetContainer::GatherModules</text>
</g>
<!-- Node2 -->
<g id="node2" class="node"><title>Node2</title>
<g id="a_node2"><a xlink:href="classscram_1_1core_1_1Zbdd.xhtml#a516f0d2f35ad213399f83fb9ab102561" target="_top" xlink:title="Traverses ZBDD to find modules and adjusted cut&#45;offs. ">
<polygon fill="white" stroke="black" points="205.5,-267.5 205.5,-297.5 307.5,-297.5 307.5,-267.5 205.5,-267.5"/>
<text text-anchor="start" x="213.5" y="-285.5" font-family="Helvetica,sans-Serif" font-size="10.00">scram::core::Zbdd::</text>
<text text-anchor="middle" x="256.5" y="-274.5" font-family="Helvetica,sans-Serif" font-size="10.00">GatherModules</text>
</a>
</g>
</g>
<!-- Node1&#45;&gt;Node2 -->
<g id="edge1" class="edge"><title>Node1&#45;&gt;Node2</title>
<path fill="none" stroke="midnightblue" d="M161.116,-268.939C172.626,-270.593 184.31,-272.272 195.354,-273.858"/>
<polygon fill="midnightblue" stroke="midnightblue" points="194.896,-277.328 205.292,-275.286 195.892,-270.4 194.896,-277.328"/>
</g>
<!-- Node6 -->
<g id="node6" class="node"><title>Node6</title>
<g id="a_node6"><a xlink:href="classscram_1_1core_1_1NonTerminal.xhtml#aeeaafd82ae5890a7ec3462c68ffc8628" target="_top" xlink:title="scram::core::NonTerminal\l::index">
<polygon fill="white" stroke="black" points="549.5,-529.5 549.5,-559.5 679.5,-559.5 679.5,-529.5 549.5,-529.5"/>
<text text-anchor="start" x="557.5" y="-547.5" font-family="Helvetica,sans-Serif" font-size="10.00">scram::core::NonTerminal</text>
<text text-anchor="middle" x="614.5" y="-536.5" font-family="Helvetica,sans-Serif" font-size="10.00">::index</text>
</a>
</g>
</g>
<!-- Node1&#45;&gt;Node6 -->
<g id="edge23" class="edge"><title>Node1&#45;&gt;Node6</title>
<path fill="none" stroke="midnightblue" d="M89.3914,-272.737C117.011,-324.162 215.129,-491.441 352,-551.5 413.761,-578.601 491.867,-571.903 546.57,-561.501"/>
<polygon fill="midnightblue" stroke="midnightblue" points="547.379,-564.908 556.503,-559.522 546.012,-558.043 547.379,-564.908"/>
</g>
<!-- Node12 -->
<g id="node12" class="node"><title>Node12</title>
<g id="a_node12"><a xlink:href="classscram_1_1core_1_1Zbdd.xhtml#aed1eaa96df30e6eaa32e9e51427c9743" target="_top" xlink:title="scram::core::Zbdd::\lmodules">
<polygon fill="white" stroke="black" points="376.5,-447.5 376.5,-477.5 478.5,-477.5 478.5,-447.5 376.5,-447.5"/>
<text text-anchor="start" x="384.5" y="-465.5" font-family="Helvetica,sans-Serif" font-size="10.00">scram::core::Zbdd::</text>
<text text-anchor="middle" x="427.5" y="-454.5" font-family="Helvetica,sans-Serif" font-size="10.00">modules</text>
</a>
</g>
</g>
<!-- Node1&#45;&gt;Node12 -->
<g id="edge28" class="edge"><title>Node1&#45;&gt;Node12</title>
<path fill="none" stroke="midnightblue" d="M106.869,-272.574C167.928,-308.856 323.127,-401.076 392.312,-442.185"/>
<polygon fill="midnightblue" stroke="midnightblue" points="390.709,-445.304 401.094,-447.404 394.285,-439.287 390.709,-445.304"/>
</g>
<!-- Node17 -->
<g id="node17" class="node"><title>Node17</title>
<g id="a_node17"><a xlink:href="classscram_1_1core_1_1Zbdd.xhtml#a4ecbf60e6ac51e5260e8d8139c1b8599" target="_top" xlink:title="Joins a ZBDD representing a module gate. ">
<polygon fill="white" stroke="black" points="205.5,-218.5 205.5,-248.5 307.5,-248.5 307.5,-218.5 205.5,-218.5"/>
<text text-anchor="start" x="213.5" y="-236.5" font-family="Helvetica,sans-Serif" font-size="10.00">scram::core::Zbdd::</text>
<text text-anchor="middle" x="256.5" y="-225.5" font-family="Helvetica,sans-Serif" font-size="10.00">JoinModule</text>
</a>
</g>
</g>
<!-- Node1&#45;&gt;Node17 -->
<g id="edge24" class="edge"><title>Node1&#45;&gt;Node17</title>
<path fill="none" stroke="midnightblue" d="M161.116,-246.518C172.626,-244.931 184.31,-243.319 195.354,-241.796"/>
<polygon fill="midnightblue" stroke="midnightblue" points="195.864,-245.259 205.292,-240.425 194.908,-238.324 195.864,-245.259"/>
</g>
<!-- Node18 -->
<g id="node18" class="node"><title>Node18</title>
<g id="a_node18"><a xlink:href="classscram_1_1core_1_1Zbdd.xhtml#ae819f5439416479971018ac134233091" target="_top" xlink:title="Logs properties of the Zbdd. ">
<polygon fill="white" stroke="black" points="197.5,-180 197.5,-199 315.5,-199 315.5,-180 197.5,-180"/>
<text text-anchor="middle" x="256.5" y="-187" font-family="Helvetica,sans-Serif" font-size="10.00">scram::core::Zbdd::Log</text>
</a>
</g>
</g>
<!-- Node1&#45;&gt;Node18 -->
<g id="edge27" class="edge"><title>Node1&#45;&gt;Node18</title>
<path fill="none" stroke="midnightblue" d="M115.049,-242.351C137.934,-232.245 169.047,-218.946 197,-208.5 202.639,-206.393 208.632,-204.292 214.548,-202.297"/>
<polygon fill="midnightblue" stroke="midnightblue" points="215.96,-205.517 224.358,-199.058 213.765,-198.87 215.96,-205.517"/>
</g>
<!-- Node19 -->
<g id="node19" class="node"><title>Node19</title>
<g id="a_node19"><a xlink:href="classscram_1_1core_1_1Zbdd.xhtml#aa599878612e128fa09e17d0520280dbe" target="_top" xlink:title="scram::core::Zbdd::root">
<polygon fill="white" stroke="black" points="197,-142 197,-161 316,-161 316,-142 197,-142"/>
<text text-anchor="middle" x="256.5" y="-149" font-family="Helvetica,sans-Serif" font-size="10.00">scram::core::Zbdd::root</text>
</a>
</g>
</g>
<!-- Node1&#45;&gt;Node19 -->
<g id="edge29" class="edge"><title>Node1&#45;&gt;Node19</title>
<path fill="none" stroke="midnightblue" d="M97.9012,-242.317C119.272,-223.231 158.474,-190.548 197,-170.5 201.218,-168.305 205.739,-166.299 210.33,-164.482"/>
<polygon fill="midnightblue" stroke="midnightblue" points="211.592,-167.747 219.776,-161.019 209.182,-161.175 211.592,-167.747"/>
</g>
<!-- Node3 -->
<g id="node3" class="node"><title>Node3</title>
<g id="a_node3"><a xlink:href="classscram_1_1core_1_1NonTerminal.xhtml#adcdd0c5114aa6a1d32a03928adc07c49" target="_top" xlink:title="scram::core::NonTerminal\l::coherent">
<polygon fill="white" stroke="black" points="549.5,-339.5 549.5,-369.5 679.5,-369.5 679.5,-339.5 549.5,-339.5"/>
<text text-anchor="start" x="557.5" y="-357.5" font-family="Helvetica,sans-Serif" font-size="10.00">scram::core::NonTerminal</text>
<text text-anchor="middle" x="614.5" y="-346.5" font-family="Helvetica,sans-Serif" font-size="10.00">::coherent</text>
</a>
</g>
</g>
<!-- Node2&#45;&gt;Node3 -->
<g id="edge2" class="edge"><title>Node2&#45;&gt;Node3</title>
<path fill="none" stroke="midnightblue" d="M307.83,-296.621C322.054,-300.392 337.586,-304.303 352,-307.5 414.825,-321.432 486.835,-334.137 539.363,-342.815"/>
<polygon fill="midnightblue" stroke="midnightblue" points="538.833,-346.275 549.268,-344.442 539.968,-339.368 538.833,-346.275"/>
</g>
<!-- Node4 -->
<g id="node4" class="node"><title>Node4</title>
<g id="a_node4"><a xlink:href="classscram_1_1core_1_1SetNode.xhtml#a687ac81766268cd0094acbfcd7c26af0" target="_top" xlink:title="scram::core::SetNode\l::count">
<polygon fill="white" stroke="black" points="371,-245.5 371,-275.5 484,-275.5 484,-245.5 371,-245.5"/>
<text text-anchor="start" x="379" y="-263.5" font-family="Helvetica,sans-Serif" font-size="10.00">scram::core::SetNode</text>
<text text-anchor="middle" x="427.5" y="-252.5" font-family="Helvetica,sans-Serif" font-size="10.00">::count</text>
</a>
</g>
</g>
<!-- Node2&#45;&gt;Node4 -->
<g id="edge3" class="edge"><title>Node2&#45;&gt;Node4</title>
<path fill="none" stroke="midnightblue" d="M307.748,-275.959C324.34,-273.799 343.054,-271.363 360.634,-269.074"/>
<polygon fill="midnightblue" stroke="midnightblue" points="361.366,-272.509 370.83,-267.747 360.462,-265.567 361.366,-272.509"/>
</g>
<!-- Node5 -->
<g id="node5" class="node"><title>Node5</title>
<g id="a_node5"><a xlink:href="classscram_1_1core_1_1NonTerminal.xhtml#a7b184b2ba68a289aae9f3737f1d13b97" target="_top" xlink:title="scram::core::NonTerminal\l::high">
<polygon fill="white" stroke="black" points="549.5,-289.5 549.5,-319.5 679.5,-319.5 679.5,-289.5 549.5,-289.5"/>
<text text-anchor="start" x="557.5" y="-307.5" font-family="Helvetica,sans-Serif" font-size="10.00">scram::core::NonTerminal</text>
<text text-anchor="middle" x="614.5" y="-296.5" font-family="Helvetica,sans-Serif" font-size="10.00">::high</text>
</a>
</g>
</g>
<!-- Node2&#45;&gt;Node5 -->
<g id="edge4" class="edge"><title>Node2&#45;&gt;Node5</title>
<path fill="none" stroke="midnightblue" d="M307.751,-285.605C368.126,-289.336 469.946,-295.629 539.358,-299.918"/>
<polygon fill="midnightblue" stroke="midnightblue" points="539.159,-303.412 549.356,-300.536 539.59,-296.426 539.159,-303.412"/>
</g>
<!-- Node2&#45;&gt;Node6 -->
<g id="edge5" class="edge"><title>Node2&#45;&gt;Node6</title>
<path fill="none" stroke="midnightblue" d="M258.464,-297.762C262.061,-340.562 278.596,-462.197 352,-517.5 405.13,-557.528 482.525,-560.729 539.334,-556.062"/>
<polygon fill="midnightblue" stroke="midnightblue" points="539.697,-559.544 549.334,-555.143 539.056,-552.573 539.697,-559.544"/>
</g>
<!-- Node7 -->
<g id="node7" class="node"><title>Node7</title>
<g id="a_node7"><a xlink:href="classscram_1_1core_1_1Settings.xhtml#a0e43ec0f017d23a4fa4e376c4060d380" target="_top" xlink:title="scram::core::Settings\l::limit_order">
<polygon fill="white" stroke="black" points="372.5,-196.5 372.5,-226.5 482.5,-226.5 482.5,-196.5 372.5,-196.5"/>
<text text-anchor="start" x="380.5" y="-214.5" font-family="Helvetica,sans-Serif" font-size="10.00">scram::core::Settings</text>
<text text-anchor="middle" x="427.5" y="-203.5" font-family="Helvetica,sans-Serif" font-size="10.00">::limit_order</text>
</a>
</g>
</g>
<!-- Node2&#45;&gt;Node7 -->
<g id="edge6" class="edge"><title>Node2&#45;&gt;Node7</title>
<path fill="none" stroke="midnightblue" d="M295.011,-267.425C302.069,-264.321 309.325,-260.943 316,-257.5 332.665,-248.904 334.957,-243.318 352,-235.5 356.07,-233.633 360.327,-231.849 364.655,-230.157"/>
<polygon fill="midnightblue" stroke="midnightblue" points="366.046,-233.374 374.198,-226.606 363.605,-226.813 366.046,-233.374"/>
</g>
<!-- Node8 -->
<g id="node8" class="node"><title>Node8</title>
<g id="a_node8"><a xlink:href="classscram_1_1core_1_1NonTerminal.xhtml#adeb100923176ebd5f820c75b79280796" target="_top" xlink:title="scram::core::NonTerminal::low">
<polygon fill="white" stroke="black" points="539,-491 539,-510 690,-510 690,-491 539,-491"/>
<text text-anchor="middle" x="614.5" y="-498" font-family="Helvetica,sans-Serif" font-size="10.00">scram::core::NonTerminal::low</text>
</a>
</g>
</g>
<!-- Node2&#45;&gt;Node8 -->
<g id="edge7" class="edge"><title>Node2&#45;&gt;Node8</title>
<path fill="none" stroke="midnightblue" d="M259.252,-297.733C264.68,-337.101 285.11,-442.299 352,-487.5 415.466,-530.387 508.685,-522.446 564.988,-512.01"/>
<polygon fill="midnightblue" stroke="midnightblue" points="565.912,-515.395 575.056,-510.044 564.57,-508.525 565.912,-515.395"/>
</g>
<!-- Node9 -->
<g id="node9" class="node"><title>Node9</title>
<g id="a_node9"><a xlink:href="classscram_1_1core_1_1NonTerminal.xhtml#a7b70ab1b978f3197458c95e0891fd79c" target="_top" xlink:title="scram::core::NonTerminal\l::mark">
<polygon fill="white" stroke="black" points="362.5,-98.5 362.5,-128.5 492.5,-128.5 492.5,-98.5 362.5,-98.5"/>
<text text-anchor="start" x="370.5" y="-116.5" font-family="Helvetica,sans-Serif" font-size="10.00">scram::core::NonTerminal</text>
<text text-anchor="middle" x="427.5" y="-105.5" font-family="Helvetica,sans-Serif" font-size="10.00">::mark</text>
</a>
</g>
</g>
<!-- Node2&#45;&gt;Node9 -->
<g id="edge8" class="edge"><title>Node2&#45;&gt;Node9</title>
<path fill="none" stroke="midnightblue" d="M303.893,-267.459C308.381,-264.663 312.541,-261.371 316,-257.5 353.099,-215.978 313.027,-177.268 352,-137.5 352.936,-136.545 353.911,-135.627 354.919,-134.746"/>
<polygon fill="midnightblue" stroke="midnightblue" points="357.219,-137.401 363.239,-128.682 353.097,-131.744 357.219,-137.401"/>
</g>
<!-- Node10 -->
<g id="node10" class="node"><title>Node10</title>
<g id="a_node10"><a xlink:href="classscram_1_1core_1_1SetNode.xhtml#a88d05af2b9f4f08b7bc66a31c2b9e249" target="_top" xlink:title="scram::core::SetNode\l::minimal">
<polygon fill="white" stroke="black" points="371,-0.5 371,-30.5 484,-30.5 484,-0.5 371,-0.5"/>
<text text-anchor="start" x="379" y="-18.5" font-family="Helvetica,sans-Serif" font-size="10.00">scram::core::SetNode</text>
<text text-anchor="middle" x="427.5" y="-7.5" font-family="Helvetica,sans-Serif" font-size="10.00">::minimal</text>
</a>
</g>
</g>
<!-- Node2&#45;&gt;Node10 -->
<g id="edge9" class="edge"><title>Node2&#45;&gt;Node10</title>
<path fill="none" stroke="midnightblue" d="M305.238,-267.328C309.303,-264.571 313,-261.323 316,-257.5 376.619,-180.242 287.885,-113.882 352,-39.5 354.975,-36.0487 358.449,-33.0899 362.239,-30.5535"/>
<polygon fill="midnightblue" stroke="midnightblue" points="363.968,-33.5968 370.974,-25.649 360.541,-27.4932 363.968,-33.5968"/>
</g>
<!-- Node11 -->
<g id="node11" class="node"><title>Node11</title>
<g id="a_node11"><a xlink:href="classscram_1_1core_1_1NonTerminal.xhtml#a9230422e92d086c34f67bcb864bfc8a9" target="_top" xlink:title="scram::core::NonTerminal\l::module">
<polygon fill="white" stroke="black" points="549.5,-440.5 549.5,-470.5 679.5,-470.5 679.5,-440.5 549.5,-440.5"/>
<text text-anchor="start" x="557.5" y="-458.5" font-family="Helvetica,sans-Serif" font-size="10.00">scram::core::NonTerminal</text>
<text text-anchor="middle" x="614.5" y="-447.5" font-family="Helvetica,sans-Serif" font-size="10.00">::module</text>
</a>
</g>
</g>
<!-- Node2&#45;&gt;Node11 -->
<g id="edge10" class="edge"><title>Node2&#45;&gt;Node11</title>
<path fill="none" stroke="midnightblue" d="M269.316,-297.616C285.783,-317.71 317.519,-353.055 352,-373.5 410.37,-408.109 484.867,-429.606 539.405,-441.86"/>
<polygon fill="midnightblue" stroke="midnightblue" points="538.83,-445.317 549.347,-444.041 540.33,-438.48 538.83,-445.317"/>
</g>
<!-- Node2&#45;&gt;Node12 -->
<g id="edge11" class="edge"><title>Node2&#45;&gt;Node12</title>
<path fill="none" stroke="midnightblue" d="M265.424,-297.551C283.541,-331.511 328.256,-412.674 352,-432.5 356.594,-436.336 361.742,-439.729 367.128,-442.719"/>
<polygon fill="midnightblue" stroke="midnightblue" points="365.859,-445.999 376.364,-447.38 369.013,-439.75 365.859,-445.999"/>
</g>
<!-- Node13 -->
<g id="node13" class="node"><title>Node13</title>
<g id="a_node13"><a xlink:href="classscram_1_1core_1_1NonTerminal.xhtml#af5853746ad388f479a7aa45c5d843466" target="_top" xlink:title="scram::core::NonTerminal\l\&lt; SetNode \&gt;::order">
<polygon fill="white" stroke="black" points="549.5,-390.5 549.5,-420.5 679.5,-420.5 679.5,-390.5 549.5,-390.5"/>
<text text-anchor="start" x="557.5" y="-408.5" font-family="Helvetica,sans-Serif" font-size="10.00">scram::core::NonTerminal</text>
<text text-anchor="middle" x="614.5" y="-397.5" font-family="Helvetica,sans-Serif" font-size="10.00">&lt; SetNode &gt;::order</text>
</a>
</g>
</g>
<!-- Node2&#45;&gt;Node13 -->
<g id="edge18" class="edge"><title>Node2&#45;&gt;Node13</title>
<path fill="none" stroke="midnightblue" d="M279.947,-297.566C298.578,-309.512 326.119,-325.905 352,-336.5 413.131,-361.526 486.046,-379.884 539.332,-391.345"/>
<polygon fill="midnightblue" stroke="midnightblue" points="538.874,-394.825 549.382,-393.475 540.325,-387.977 538.874,-394.825"/>
</g>
<!-- Node14 -->
<g id="node14" class="node"><title>Node14</title>
<g id="a_node14"><a xlink:href="structscram_1_1core_1_1IntrusivePtrCast.xhtml#af153c12dc6133b7d9f9b7a57bba29f1d" target="_top" xlink:title="scram::core::IntrusivePtr\lCast\&lt; T, Terminal\&lt; T \&gt; \&gt;::Ref">
<polygon fill="white" stroke="black" points="352,-49.5 352,-79.5 503,-79.5 503,-49.5 352,-49.5"/>
<text text-anchor="start" x="360" y="-67.5" font-family="Helvetica,sans-Serif" font-size="10.00">scram::core::IntrusivePtr</text>
<text text-anchor="middle" x="427.5" y="-56.5" font-family="Helvetica,sans-Serif" font-size="10.00">Cast&lt; T, Terminal&lt; T &gt; &gt;::Ref</text>
</a>
</g>
</g>
<!-- Node2&#45;&gt;Node14 -->
<g id="edge19" class="edge"><title>Node2&#45;&gt;Node14</title>
<path fill="none" stroke="midnightblue" d="M287.466,-267.385C297.891,-263.048 308.773,-257.285 316,-248.5 362.412,-192.084 306.524,-141.647 345.273,-87.8039"/>
<polygon fill="midnightblue" stroke="midnightblue" points="348.147,-89.8153 351.7,-79.8339 342.698,-85.4211 348.147,-89.8153"/>
</g>
<!-- Node2&#45;&gt;Node14 -->
<g id="edge20" class="edge"><title>Node2&#45;&gt;Node14</title>
<path fill="none" stroke="midnightblue" d="M307.528,-274.426C310.666,-272.122 313.544,-269.485 316,-266.5 364.789,-207.193 300.529,-154.495 352,-97.5 357.443,-91.4727 364.405,-86.9516 371.88,-83.4474"/>
<polygon fill="midnightblue" stroke="midnightblue" points="373.603,-86.5252 381.548,-79.5157 370.966,-80.041 373.603,-86.5252"/>
</g>
<!-- Node15 -->
<g id="node15" class="node"><title>Node15</title>
<g id="a_node15"><a xlink:href="classscram_1_1core_1_1Terminal.xhtml#a7a25b0b40498f4876571a5dac4e724c3" target="_top" xlink:title="scram::core::Terminal\l::value">
<polygon fill="white" stroke="black" points="371.5,-147.5 371.5,-177.5 483.5,-177.5 483.5,-147.5 371.5,-147.5"/>
<text text-anchor="start" x="379.5" y="-165.5" font-family="Helvetica,sans-Serif" font-size="10.00">scram::core::Terminal</text>
<text text-anchor="middle" x="427.5" y="-154.5" font-family="Helvetica,sans-Serif" font-size="10.00">::value</text>
</a>
</g>
</g>
<!-- Node2&#45;&gt;Node15 -->
<g id="edge21" class="edge"><title>Node2&#45;&gt;Node15</title>
<path fill="none" stroke="midnightblue" d="M302.051,-267.489C307.094,-264.659 311.889,-261.351 316,-257.5 341.822,-233.314 325.091,-209.47 352,-186.5 355.197,-183.771 358.71,-181.35 362.415,-179.204"/>
<polygon fill="midnightblue" stroke="midnightblue" points="364.012,-182.319 371.351,-174.679 360.849,-176.074 364.012,-182.319"/>
</g>
<!-- Node12&#45;&gt;Node3 -->
<g id="edge12" class="edge"><title>Node12&#45;&gt;Node3</title>
<path fill="none" stroke="midnightblue" d="M445.382,-447.391C466.159,-429.432 503.112,-399.509 539,-380.5 543.842,-377.935 548.99,-375.537 554.23,-373.316"/>
<polygon fill="midnightblue" stroke="midnightblue" points="555.736,-376.483 563.715,-369.513 553.131,-369.986 555.736,-376.483"/>
</g>
<!-- Node12&#45;&gt;Node5 -->
<g id="edge13" class="edge"><title>Node12&#45;&gt;Node5</title>
<path fill="none" stroke="midnightblue" d="M437.105,-447.399C453.469,-419.991 491.698,-361.906 539,-329.5 541.902,-327.512 544.974,-325.671 548.155,-323.967"/>
<polygon fill="midnightblue" stroke="midnightblue" points="549.868,-327.026 557.347,-319.522 546.821,-320.725 549.868,-327.026"/>
</g>
<!-- Node12&#45;&gt;Node6 -->
<g id="edge14" class="edge"><title>Node12&#45;&gt;Node6</title>
<path fill="none" stroke="midnightblue" d="M455.195,-477.732C477.24,-489.952 509.575,-507.059 539,-519.5 544.313,-521.746 549.903,-523.933 555.534,-526.017"/>
<polygon fill="midnightblue" stroke="midnightblue" points="554.413,-529.333 565.007,-529.423 556.781,-522.746 554.413,-529.333"/>
</g>
<!-- Node12&#45;&gt;Node8 -->
<g id="edge15" class="edge"><title>Node12&#45;&gt;Node8</title>
<path fill="none" stroke="midnightblue" d="M478.564,-472.783C502.829,-477.768 532.068,-483.773 557.116,-488.918"/>
<polygon fill="midnightblue" stroke="midnightblue" points="556.707,-492.407 567.206,-490.991 558.115,-485.55 556.707,-492.407"/>
</g>
<!-- Node12&#45;&gt;Node11 -->
<g id="edge16" class="edge"><title>Node12&#45;&gt;Node11</title>
<path fill="none" stroke="midnightblue" d="M478.564,-460.606C497.238,-459.899 518.859,-459.081 539.248,-458.31"/>
<polygon fill="midnightblue" stroke="midnightblue" points="539.597,-461.799 549.457,-457.923 539.332,-454.804 539.597,-461.799"/>
</g>
<!-- Node12&#45;&gt;Node13 -->
<g id="edge17" class="edge"><title>Node12&#45;&gt;Node13</title>
<path fill="none" stroke="midnightblue" d="M477.591,-447.375C501.311,-440.066 529.955,-431.241 554.82,-423.58"/>
<polygon fill="midnightblue" stroke="midnightblue" points="555.975,-426.886 564.501,-420.597 553.914,-420.197 555.975,-426.886"/>
</g>
<!-- Node16 -->
<g id="node16" class="node"><title>Node16</title>
<g id="a_node16"><a xlink:href="classscram_1_1core_1_1Vertex.xhtml#a8a4a6e9871c7b80b9951fea57617d438" target="_top" xlink:title="scram::core::Vertex::id">
<polygon fill="white" stroke="black" points="556.5,-153 556.5,-172 672.5,-172 672.5,-153 556.5,-153"/>
<text text-anchor="middle" x="614.5" y="-160" font-family="Helvetica,sans-Serif" font-size="10.00">scram::core::Vertex::id</text>
</a>
</g>
</g>
<!-- Node15&#45;&gt;Node16 -->
<g id="edge22" class="edge"><title>Node15&#45;&gt;Node16</title>
<path fill="none" stroke="midnightblue" d="M483.505,-162.5C503.186,-162.5 525.593,-162.5 546.195,-162.5"/>
<polygon fill="midnightblue" stroke="midnightblue" points="546.461,-166 556.461,-162.5 546.461,-159 546.461,-166"/>
</g>
<!-- Node17&#45;&gt;Node10 -->
<g id="edge25" class="edge"><title>Node17&#45;&gt;Node10</title>
<path fill="none" stroke="midnightblue" d="M304.778,-218.368C308.987,-215.6 312.842,-212.338 316,-208.5 364.789,-149.193 300.529,-96.4949 352,-39.5 354.92,-36.2665 358.277,-33.4666 361.916,-31.0422"/>
<polygon fill="midnightblue" stroke="midnightblue" points="363.832,-33.9807 370.846,-26.0398 360.411,-27.8737 363.832,-33.9807"/>
</g>
<!-- Node17&#45;&gt;Node14 -->
<g id="edge26" class="edge"><title>Node17&#45;&gt;Node14</title>
<path fill="none" stroke="midnightblue" d="M303.893,-218.459C308.381,-215.663 312.541,-212.371 316,-208.5 353.099,-166.978 313.027,-128.268 352,-88.5 352.936,-87.5447 353.911,-86.6273 354.919,-85.7464"/>
<polygon fill="midnightblue" stroke="midnightblue" points="357.219,-88.4007 363.239,-79.6824 353.097,-82.7437 357.219,-88.4007"/>
</g>
</g>
</svg>
        <g id="navigator" transform="translate(0 0)" fill="#404254">
                <rect fill="#f2f5e9" fill-opacity="0.5" stroke="#606060" stroke-width=".5" x="0" y="0" width="60" height="60"/>
                <use id="zoomplus" xlink:href="#zoomPlus" x="17" y="9" onmousedown="handleZoom(evt,'in')"/>
                <use id="zoomminus" xlink:href="#zoomMin" x="42" y="9" onmousedown="handleZoom(evt,'out')"/>
                <use id="reset" xlink:href="#resetDef" x="30" y="36" onmousedown="handleReset()"/>
                <g id="arrowUp" xlink:href="#dirArrow" transform="translate(30 24)" onmousedown="handlePan(0,-1)">
                  <use xlink:href="#rim" fill="#404040">
                        <set attributeName="fill" to="#808080" begin="arrowUp.mouseover" end="arrowUp.mouseout"/>
                  </use>
                  <path fill="none" stroke="white" stroke-width="1.5" d="M0,-3.0v7 M-2.5,-0.5L0,-3.0L2.5,-0.5"/>
                </g>
                <g id="arrowRight" xlink:href="#dirArrow" transform="rotate(90) translate(36 -43)" onmousedown="handlePan(1,0)">
                  <use xlink:href="#rim" fill="#404040">
                        <set attributeName="fill" to="#808080" begin="arrowRight.mouseover" end="arrowRight.mouseout"/>
                  </use>
                  <path fill="none" stroke="white" stroke-width="1.5" d="M0,-3.0v7 M-2.5,-0.5L0,-3.0L2.5,-0.5"/>
                </g>
                <g id="arrowDown" xlink:href="#dirArrow" transform="rotate(180) translate(-30 -48)" onmousedown="handlePan(0,1)">
                  <use xlink:href="#rim" fill="#404040">
                        <set attributeName="fill" to="#808080" begin="arrowDown.mouseover" end="arrowDown.mouseout"/>
                  </use>
                  <path fill="none" stroke="white" stroke-width="1.5" d="M0,-3.0v7 M-2.5,-0.5L0,-3.0L2.5,-0.5"/>
                </g>
                <g id="arrowLeft" xlink:href="#dirArrow" transform="rotate(270) translate(-36 17)" onmousedown="handlePan(-1,0)">
                  <use xlink:href="#rim" fill="#404040">
                        <set attributeName="fill" to="#808080" begin="arrowLeft.mouseover" end="arrowLeft.mouseout"/>
                  </use>
                  <path fill="none" stroke="white" stroke-width="1.5" d="M0,-3.0v7 M-2.5,-0.5L0,-3.0L2.5,-0.5"/>
                </g>
        </g>
        <svg viewBox="0 0 15 15" width="100%" height="30px" preserveAspectRatio="xMaxYMin meet">
         <g id="arrow_out" transform="scale(0.3 0.3)">
          <a xlink:href="classscram_1_1core_1_1zbdd_1_1CutSetContainer_a478c89f64731781882b50ec55898900b_cgraph_org.svg" target="_base">
           <rect id="button" ry="5" rx="5" y="6" x="6" height="38" width="38"
                fill="#f2f5e9" fill-opacity="0.5" stroke="#606060" stroke-width="1.0"/>
           <path id="arrow"
             d="M 11.500037,31.436501 C 11.940474,20.09759 22.043105,11.32322 32.158766,21.979434 L 37.068811,17.246167 C 37.068811,17.246167 37.088388,32 37.088388,32 L 22.160133,31.978069 C 22.160133,31.978069 26.997745,27.140456 26.997745,27.140456 C 18.528582,18.264221 13.291696,25.230495 11.500037,31.436501 z"
             style="fill:#404040;"/>
          </a>
         </g>
        </svg>
</svg>
