<?xml version="1.0" encoding="UTF-8" standalone="no"?>
<!DOCTYPE svg PUBLIC "-//W3C//DTD SVG 1.1//EN"
 "http://www.w3.org/Graphics/SVG/1.1/DTD/svg11.dtd">
<!-- Generated by graphviz version 2.38.0 (20140413.2041)
 -->
<!-- Title: scram::core::McubCalculator::Calculate Pages: 1 -->
<svg width="338pt" height="333pt"
 viewBox="0.00 0.00 338.00 333.00" xmlns="http://www.w3.org/2000/svg" xmlns:xlink="http://www.w3.org/1999/xlink">
<g id="graph0" class="graph" transform="scale(1 1) rotate(0) translate(4 329)">
<title>scram::core::McubCalculator::Calculate</title>
<polygon fill="white" stroke="none" points="-4,4 -4,-329 334,-329 334,4 -4,4"/>
<!-- Node1 -->
<g id="node1" class="node"><title>Node1</title>
<polygon fill="#bfbfbf" stroke="black" points="0,-147.5 0,-177.5 143,-177.5 143,-147.5 0,-147.5"/>
<text text-anchor="start" x="8" y="-165.5" font-family="Helvetica,sans-Serif" font-size="10.00">scram::core::McubCalculator</text>
<text text-anchor="middle" x="71.5" y="-154.5" font-family="Helvetica,sans-Serif" font-size="10.00">::Calculate</text>
</g>
<!-- Node2 -->
<g id="node2" class="node"><title>Node2</title>
<g id="a_node2"><a xlink:href="classscram_1_1core_1_1CutSetProbabilityCalculator.xhtml#ac07d9fe45e02f3c6ef0b25a111684b2d" target="_top" xlink:title="Calculates a probability of a cut set, whose members are in AND relationship with each other...">
<polygon fill="white" stroke="black" points="179,-294.5 179,-324.5 330,-324.5 330,-294.5 179,-294.5"/>
<text text-anchor="start" x="187" y="-312.5" font-family="Helvetica,sans-Serif" font-size="10.00">scram::core::CutSetProbability</text>
<text text-anchor="middle" x="254.5" y="-301.5" font-family="Helvetica,sans-Serif" font-size="10.00">Calculator::Calculate</text>
</a>
</g>
</g>
<!-- Node1&#45;&gt;Node2 -->
<g id="edge1" class="edge"><title>Node1&#45;&gt;Node2</title>
<path fill="none" stroke="midnightblue" d="M81.676,-177.724C98.0346,-203.601 134.71,-256.202 179,-285.5 181.391,-287.081 183.893,-288.565 186.473,-289.957"/>
<polygon fill="midnightblue" stroke="midnightblue" points="184.967,-293.116 195.491,-294.339 188.027,-286.82 184.967,-293.116"/>
</g>
<!-- Node3 -->
<g id="node3" class="node"><title>Node3</title>
<g id="a_node3"><a xlink:href="classscram_1_1mef_1_1MissionTime.xhtml#a06faea8e208169db45bd45e96270ce04" target="_top" xlink:title="scram::mef::MissionTime\l::Mean">
<polygon fill="white" stroke="black" points="190.5,-245.5 190.5,-275.5 318.5,-275.5 318.5,-245.5 190.5,-245.5"/>
<text text-anchor="start" x="198.5" y="-263.5" font-family="Helvetica,sans-Serif" font-size="10.00">scram::mef::MissionTime</text>
<text text-anchor="middle" x="254.5" y="-252.5" font-family="Helvetica,sans-Serif" font-size="10.00">::Mean</text>
</a>
</g>
</g>
<!-- Node1&#45;&gt;Node3 -->
<g id="edge2" class="edge"><title>Node1&#45;&gt;Node3</title>
<path fill="none" stroke="midnightblue" d="M90.6822,-177.659C111.086,-194.047 145.703,-220.026 179,-236.5 182.768,-238.364 186.713,-240.128 190.738,-241.79"/>
<polygon fill="midnightblue" stroke="midnightblue" points="189.639,-245.117 200.227,-245.477 192.174,-238.592 189.639,-245.117"/>
</g>
<!-- Node4 -->
<g id="node4" class="node"><title>Node4</title>
<g id="a_node4"><a xlink:href="classscram_1_1core_1_1ProbabilityAnalysis.xhtml#a685fa5d713675951b5f6738631debf1d" target="_top" xlink:title="scram::core::Probability\lAnalysis::mission_time">
<polygon fill="white" stroke="black" points="194.5,-196.5 194.5,-226.5 314.5,-226.5 314.5,-196.5 194.5,-196.5"/>
<text text-anchor="start" x="202.5" y="-214.5" font-family="Helvetica,sans-Serif" font-size="10.00">scram::core::Probability</text>
<text text-anchor="middle" x="254.5" y="-203.5" font-family="Helvetica,sans-Serif" font-size="10.00">Analysis::mission_time</text>
</a>
</g>
</g>
<!-- Node1&#45;&gt;Node4 -->
<g id="edge3" class="edge"><title>Node1&#45;&gt;Node4</title>
<path fill="none" stroke="midnightblue" d="M128.283,-177.601C147.21,-182.725 168.525,-188.496 188.13,-193.803"/>
<polygon fill="midnightblue" stroke="midnightblue" points="187.334,-197.214 197.901,-196.448 189.163,-190.457 187.334,-197.214"/>
</g>
<!-- Node5 -->
<g id="node5" class="node"><title>Node5</title>
<g id="a_node5"><a xlink:href="classscram_1_1core_1_1ProbabilityAnalysis.xhtml#a2298d982999f3cdf5b5d373f09af2cc3" target="_top" xlink:title="scram::core::Probability\lAnalysis::p_time">
<polygon fill="white" stroke="black" points="194.5,-147.5 194.5,-177.5 314.5,-177.5 314.5,-147.5 194.5,-147.5"/>
<text text-anchor="start" x="202.5" y="-165.5" font-family="Helvetica,sans-Serif" font-size="10.00">scram::core::Probability</text>
<text text-anchor="middle" x="254.5" y="-154.5" font-family="Helvetica,sans-Serif" font-size="10.00">Analysis::p_time</text>
</a>
</g>
</g>
<!-- Node1&#45;&gt;Node5 -->
<g id="edge4" class="edge"><title>Node1&#45;&gt;Node5</title>
<path fill="none" stroke="midnightblue" d="M143.257,-162.5C156.768,-162.5 170.896,-162.5 184.355,-162.5"/>
<polygon fill="midnightblue" stroke="midnightblue" points="184.497,-166 194.497,-162.5 184.496,-159 184.497,-166"/>
</g>
<!-- Node6 -->
<g id="node6" class="node"><title>Node6</title>
<g id="a_node6"><a xlink:href="classscram_1_1core_1_1Analysis.xhtml#ab04a96c555ba726368fa3868a8701610" target="_top" xlink:title="scram::core::Analysis\l::settings">
<polygon fill="white" stroke="black" points="198.5,-98.5 198.5,-128.5 310.5,-128.5 310.5,-98.5 198.5,-98.5"/>
<text text-anchor="start" x="206.5" y="-116.5" font-family="Helvetica,sans-Serif" font-size="10.00">scram::core::Analysis</text>
<text text-anchor="middle" x="254.5" y="-105.5" font-family="Helvetica,sans-Serif" font-size="10.00">::settings</text>
</a>
</g>
</g>
<!-- Node1&#45;&gt;Node6 -->
<g id="edge5" class="edge"><title>Node1&#45;&gt;Node6</title>
<path fill="none" stroke="midnightblue" d="M128.283,-147.399C147.299,-142.251 168.725,-136.45 188.406,-131.122"/>
<polygon fill="midnightblue" stroke="midnightblue" points="189.475,-134.459 198.212,-128.467 187.645,-127.702 189.475,-134.459"/>
</g>
<!-- Node7 -->
<g id="node7" class="node"><title>Node7</title>
<g id="a_node7"><a xlink:href="classscram_1_1core_1_1Settings.xhtml#a2bc9e5d7c8028a8fd8e2ea02d766bb2b" target="_top" xlink:title="scram::core::Settings\l::time_step">
<polygon fill="white" stroke="black" points="199.5,-49.5 199.5,-79.5 309.5,-79.5 309.5,-49.5 199.5,-49.5"/>
<text text-anchor="start" x="207.5" y="-67.5" font-family="Helvetica,sans-Serif" font-size="10.00">scram::core::Settings</text>
<text text-anchor="middle" x="254.5" y="-56.5" font-family="Helvetica,sans-Serif" font-size="10.00">::time_step</text>
</a>
</g>
</g>
<!-- Node1&#45;&gt;Node7 -->
<g id="edge6" class="edge"><title>Node1&#45;&gt;Node7</title>
<path fill="none" stroke="midnightblue" d="M91.1291,-147.346C111.643,-131.245 146.097,-105.897 179,-89.5 183.35,-87.3322 187.932,-85.2835 192.597,-83.3629"/>
<polygon fill="midnightblue" stroke="midnightblue" points="194.197,-86.4961 202.243,-79.6033 191.654,-79.9741 194.197,-86.4961"/>
</g>
<!-- Node8 -->
<g id="node8" class="node"><title>Node8</title>
<g id="a_node8"><a xlink:href="classscram_1_1mef_1_1MissionTime.xhtml#abedd4c16a7c428fc8192ec32d51beb3e" target="_top" xlink:title="Changes the mission time value. ">
<polygon fill="white" stroke="black" points="190.5,-0.5 190.5,-30.5 318.5,-30.5 318.5,-0.5 190.5,-0.5"/>
<text text-anchor="start" x="198.5" y="-18.5" font-family="Helvetica,sans-Serif" font-size="10.00">scram::mef::MissionTime</text>
<text text-anchor="middle" x="254.5" y="-7.5" font-family="Helvetica,sans-Serif" font-size="10.00">::value</text>
</a>
</g>
</g>
<!-- Node1&#45;&gt;Node8 -->
<g id="edge7" class="edge"><title>Node1&#45;&gt;Node8</title>
<path fill="none" stroke="midnightblue" d="M81.7444,-147.459C98.2065,-121.882 135.033,-69.8393 179,-40.5 181.926,-38.5477 185.018,-36.735 188.213,-35.0537"/>
<polygon fill="midnightblue" stroke="midnightblue" points="189.917,-38.1187 197.438,-30.6563 186.905,-31.7998 189.917,-38.1187"/>
</g>
</g>
</svg>
