<?xml version="1.0" encoding="UTF-8" standalone="no"?>
<!DOCTYPE svg PUBLIC "-//W3C//DTD SVG 1.1//EN"
 "http://www.w3.org/Graphics/SVG/1.1/DTD/svg11.dtd">
<!-- Generated by graphviz version 2.38.0 (20140413.2041)
 -->
<!-- Title: scram::mef::NormalDeviate::Validate Pages: 1 -->
<svg width="348pt" height="78pt"
 viewBox="0.00 0.00 348.00 77.50" xmlns="http://www.w3.org/2000/svg" xmlns:xlink="http://www.w3.org/1999/xlink">
<g id="graph0" class="graph" transform="scale(1 1) rotate(0) translate(4 73.5)">
<title>scram::mef::NormalDeviate::Validate</title>
<polygon fill="white" stroke="none" points="-4,4 -4,-73.5 344,-73.5 344,4 -4,4"/>
<!-- Node1 -->
<g id="node1" class="node"><title>Node1</title>
<polygon fill="#bfbfbf" stroke="black" points="0,-17 0,-47 137,-47 137,-17 0,-17"/>
<text text-anchor="start" x="8" y="-35" font-family="Helvetica,sans-Serif" font-size="10.00">scram::mef::NormalDeviate</text>
<text text-anchor="middle" x="68.5" y="-24" font-family="Helvetica,sans-Serif" font-size="10.00">::Validate</text>
</g>
<!-- Node2 -->
<g id="node2" class="node"><title>Node2</title>
<g id="a_node2"><a xlink:href="classscram_1_1mef_1_1Expression.xhtml#ac7e0dd118eafdfa943944172c1625a4e" target="_top" xlink:title="scram::mef::Expression\l::Mean">
<polygon fill="white" stroke="black" points="196,-39 196,-69 317,-69 317,-39 196,-39"/>
<text text-anchor="start" x="204" y="-57" font-family="Helvetica,sans-Serif" font-size="10.00">scram::mef::Expression</text>
<text text-anchor="middle" x="256.5" y="-46" font-family="Helvetica,sans-Serif" font-size="10.00">::Mean</text>
</a>
</g>
</g>
<!-- Node1&#45;&gt;Node2 -->
<g id="edge1" class="edge"><title>Node1&#45;&gt;Node2</title>
<path fill="none" stroke="midnightblue" d="M137.176,-40.0047C152.94,-41.8692 169.754,-43.858 185.611,-45.7335"/>
<polygon fill="midnightblue" stroke="midnightblue" points="185.53,-49.2483 195.872,-46.9472 186.352,-42.2968 185.53,-49.2483"/>
</g>
<!-- Node3 -->
<g id="node3" class="node"><title>Node3</title>
<g id="a_node3"><a xlink:href="classscram_1_1Random.xhtml#a48db980c126c418dd547c2fea7d49962" target="_top" xlink:title="RNG from a normal distribution. ">
<polygon fill="white" stroke="black" points="173,-0.5 173,-19.5 340,-19.5 340,-0.5 173,-0.5"/>
<text text-anchor="middle" x="256.5" y="-7.5" font-family="Helvetica,sans-Serif" font-size="10.00">scram::Random::NormalGenerator</text>
</a>
</g>
</g>
<!-- Node1&#45;&gt;Node3 -->
<g id="edge2" class="edge"><title>Node1&#45;&gt;Node3</title>
<path fill="none" stroke="midnightblue" d="M137.176,-23.9953C146.178,-22.9306 155.521,-21.8255 164.834,-20.724"/>
<polygon fill="midnightblue" stroke="midnightblue" points="165.389,-24.1828 174.909,-19.5323 164.567,-17.2312 165.389,-24.1828"/>
</g>
</g>
</svg>
