<?xml version="1.0" encoding="UTF-8" standalone="no"?>
<!DOCTYPE svg PUBLIC "-//W3C//DTD SVG 1.1//EN"
 "http://www.w3.org/Graphics/SVG/1.1/DTD/svg11.dtd">
<!-- Generated by graphviz version 2.38.0 (20140413.2041)
 -->
<!-- Title: scram::core::Preprocessor::GatherNodes Pages: 1 -->
<svg width="295pt" height="78pt"
 viewBox="0.00 0.00 295.00 77.50" xmlns="http://www.w3.org/2000/svg" xmlns:xlink="http://www.w3.org/1999/xlink">
<g id="graph0" class="graph" transform="scale(1 1) rotate(0) translate(4 73.5)">
<title>scram::core::Preprocessor::GatherNodes</title>
<polygon fill="white" stroke="none" points="-4,4 -4,-73.5 291,-73.5 291,4 -4,4"/>
<!-- Node1 -->
<g id="node1" class="node"><title>Node1</title>
<polygon fill="#bfbfbf" stroke="black" points="0,-17 0,-47 132,-47 132,-17 0,-17"/>
<text text-anchor="start" x="8" y="-35" font-family="Helvetica,sans-Serif" font-size="10.00">scram::core::Preprocessor</text>
<text text-anchor="middle" x="66" y="-24" font-family="Helvetica,sans-Serif" font-size="10.00">::GatherNodes</text>
</g>
<!-- Node2 -->
<g id="node2" class="node"><title>Node2</title>
<g id="a_node2"><a xlink:href="classscram_1_1core_1_1Pdag.xhtml#aa883d0e58b9faab69186bec03574c633" target="_top" xlink:title="Clears marks from graph nodes. ">
<polygon fill="white" stroke="black" points="176,-39 176,-69 279,-69 279,-39 176,-39"/>
<text text-anchor="start" x="184" y="-57" font-family="Helvetica,sans-Serif" font-size="10.00">scram::core::Pdag::</text>
<text text-anchor="middle" x="227.5" y="-46" font-family="Helvetica,sans-Serif" font-size="10.00">Clear</text>
</a>
</g>
</g>
<!-- Node1&#45;&gt;Node2 -->
<g id="edge1" class="edge"><title>Node1&#45;&gt;Node2</title>
<path fill="none" stroke="midnightblue" d="M132.335,-41.0117C143.288,-42.5225 154.616,-44.085 165.455,-45.5801"/>
<polygon fill="midnightblue" stroke="midnightblue" points="165.286,-49.0897 175.67,-46.989 166.242,-42.1553 165.286,-49.0897"/>
</g>
<!-- Node3 -->
<g id="node3" class="node"><title>Node3</title>
<g id="a_node3"><a xlink:href="classscram_1_1core_1_1Pdag.xhtml#ae9407efbb00e5f28aecb40db2ab7925b" target="_top" xlink:title="scram::core::Pdag::root">
<polygon fill="white" stroke="black" points="168,-0.5 168,-19.5 287,-19.5 287,-0.5 168,-0.5"/>
<text text-anchor="middle" x="227.5" y="-7.5" font-family="Helvetica,sans-Serif" font-size="10.00">scram::core::Pdag::root</text>
</a>
</g>
</g>
<!-- Node1&#45;&gt;Node3 -->
<g id="edge2" class="edge"><title>Node1&#45;&gt;Node3</title>
<path fill="none" stroke="midnightblue" d="M132.335,-22.9883C140.714,-21.8325 149.313,-20.6464 157.745,-19.4834"/>
<polygon fill="midnightblue" stroke="midnightblue" points="158.493,-22.9135 167.921,-18.0799 157.537,-15.9791 158.493,-22.9135"/>
</g>
</g>
</svg>
