<?xml version="1.0" encoding="UTF-8" standalone="no"?>
<!DOCTYPE svg PUBLIC "-//W3C//DTD SVG 1.1//EN"
 "http://www.w3.org/Graphics/SVG/1.1/DTD/svg11.dtd">
<!-- Generated by graphviz version 2.38.0 (20140413.2041)
 -->
<!-- Title: scram::Config::Config Pages: 1 -->
<!--zoomable 1194 -->
<svg id="main" version="1.1" xmlns="http://www.w3.org/2000/svg" xmlns:xlink="http://www.w3.org/1999/xlink" xml:space="preserve" onload="init(evt)">
<style type="text/css"><![CDATA[
.edge:hover path { stroke: red; }
.edge:hover polygon { stroke: red; fill: red; }
]]></style>
<script type="text/javascript"><![CDATA[
var edges = document.getElementsByTagName('g');
if (edges && edges.length) {
  for (var i=0;i<edges.length;i++) {
    if (edges[i].id.substr(0,4)=='edge') {
      edges[i].setAttribute('class','edge');
    }
  }
}
]]></script>
        <defs>
                <circle id="rim" cx="0" cy="0" r="7"/>
                <circle id="rim2" cx="0" cy="0" r="3.5"/>
                <g id="zoomPlus">
                        <use xlink:href="#rim" fill="#404040">
                                <set attributeName="fill" to="#808080" begin="zoomplus.mouseover" end="zoomplus.mouseout"/>
                        </use>
                        <path d="M-4,0h8M0,-4v8" fill="none" stroke="white" stroke-width="1.5" pointer-events="none"/>
                </g>
                <g id="zoomMin">
                        <use xlink:href="#rim" fill="#404040">
                                <set attributeName="fill" to="#808080" begin="zoomminus.mouseover" end="zoomminus.mouseout"/>
                        </use>
                        <path d="M-4,0h8" fill="none" stroke="white" stroke-width="1.5" pointer-events="none"/>
                </g>
                <g id="dirArrow">
                        <path fill="none" stroke="white" stroke-width="1.5" d="M0,-3.0v7 M-2.5,-0.5L0,-3.0L2.5,-0.5"/>
                </g>
               <g id="resetDef">
                       <use xlink:href="#rim2" fill="#404040">
                               <set attributeName="fill" to="#808080" begin="reset.mouseover" end="reset.mouseout"/>
                       </use>
               </g>
        </defs>

<script type="text/javascript">
var viewWidth = 299;
var viewHeight = 1194;
var sectionId = 'dynsection-0';
</script>
<script xlink:href="svgpan.js"/>
<svg id="graph" class="graph">
<g id="viewport">
<title>scram::Config::Config</title>
<polygon fill="white" stroke="none" points="-4,4 -4,-1189.5 295,-1189.5 295,4 -4,4"/>
<!-- Node1 -->
<g id="node1" class="node"><title>Node1</title>
<polygon fill="#bfbfbf" stroke="black" points="0,-566.5 0,-585.5 113,-585.5 113,-566.5 0,-566.5"/>
<text text-anchor="middle" x="56.5" y="-573.5" font-family="Helvetica,sans-Serif" font-size="10.00">scram::Config::Config</text>
</g>
<!-- Node2 -->
<g id="node2" class="node"><title>Node2</title>
<g id="a_node2"><a xlink:href="classscram_1_1core_1_1Settings.xhtml#a34ae01bd2f50a2625c22ff3441315a61" target="_top" xlink:title="scram::core::Settings\l::algorithm">
<polygon fill="white" stroke="black" points="165,-1155 165,-1185 275,-1185 275,-1155 165,-1155"/>
<text text-anchor="start" x="173" y="-1173" font-family="Helvetica,sans-Serif" font-size="10.00">scram::core::Settings</text>
<text text-anchor="middle" x="220" y="-1162" font-family="Helvetica,sans-Serif" font-size="10.00">::algorithm</text>
</a>
</g>
</g>
<!-- Node1&#45;&gt;Node2 -->
<g id="edge1" class="edge"><title>Node1&#45;&gt;Node2</title>
<path fill="none" stroke="midnightblue" d="M57.7377,-585.918C59.5694,-654.342 73.4717,-1056.3 149,-1146 151.151,-1148.56 153.588,-1150.84 156.229,-1152.88"/>
<polygon fill="midnightblue" stroke="midnightblue" points="154.381,-1155.85 164.688,-1158.3 158.159,-1149.96 154.381,-1155.85"/>
</g>
<!-- Node3 -->
<g id="node3" class="node"><title>Node3</title>
<g id="a_node3"><a xlink:href="classscram_1_1core_1_1Settings.xhtml#ace850c06d594dd41a09bda3b3e1cc179" target="_top" xlink:title="scram::core::Settings\l::approximation">
<polygon fill="white" stroke="black" points="165,-1106 165,-1136 275,-1136 275,-1106 165,-1106"/>
<text text-anchor="start" x="173" y="-1124" font-family="Helvetica,sans-Serif" font-size="10.00">scram::core::Settings</text>
<text text-anchor="middle" x="220" y="-1113" font-family="Helvetica,sans-Serif" font-size="10.00">::approximation</text>
</a>
</g>
</g>
<!-- Node1&#45;&gt;Node3 -->
<g id="edge2" class="edge"><title>Node1&#45;&gt;Node3</title>
<path fill="none" stroke="midnightblue" d="M57.8998,-585.891C60.7129,-650.797 79.4907,-1015.67 149,-1097 151.17,-1099.54 153.622,-1101.81 156.275,-1103.84"/>
<polygon fill="midnightblue" stroke="midnightblue" points="154.444,-1106.83 164.76,-1109.24 158.204,-1100.92 154.444,-1106.83"/>
</g>
<!-- Node4 -->
<g id="node4" class="node"><title>Node4</title>
<g id="a_node4"><a xlink:href="classscram_1_1core_1_1Settings.xhtml#a4a71410d7b91bb82cadc29c0fe0b2506" target="_top" xlink:title="scram::core::Settings\l::ccf_analysis">
<polygon fill="white" stroke="black" points="165,-1057 165,-1087 275,-1087 275,-1057 165,-1057"/>
<text text-anchor="start" x="173" y="-1075" font-family="Helvetica,sans-Serif" font-size="10.00">scram::core::Settings</text>
<text text-anchor="middle" x="220" y="-1064" font-family="Helvetica,sans-Serif" font-size="10.00">::ccf_analysis</text>
</a>
</g>
</g>
<!-- Node1&#45;&gt;Node4 -->
<g id="edge3" class="edge"><title>Node1&#45;&gt;Node4</title>
<path fill="none" stroke="midnightblue" d="M58.0861,-585.741C61.9359,-646.655 85.4474,-974.951 149,-1048 151.192,-1050.52 153.662,-1052.78 156.329,-1054.79"/>
<polygon fill="midnightblue" stroke="midnightblue" points="154.52,-1057.79 164.845,-1060.17 158.256,-1051.87 154.52,-1057.79"/>
</g>
<!-- Node5 -->
<g id="node5" class="node"><title>Node5</title>
<g id="a_node5"><a xlink:href="classscram_1_1Env.xhtml#a21479e967316f19a8b1570e9c5e5b926" target="_top" xlink:title="scram::Env::config\l_schema">
<polygon fill="white" stroke="black" points="170.5,-1008 170.5,-1038 269.5,-1038 269.5,-1008 170.5,-1008"/>
<text text-anchor="start" x="178.5" y="-1026" font-family="Helvetica,sans-Serif" font-size="10.00">scram::Env::config</text>
<text text-anchor="middle" x="220" y="-1015" font-family="Helvetica,sans-Serif" font-size="10.00">_schema</text>
</a>
</g>
</g>
<!-- Node1&#45;&gt;Node5 -->
<g id="edge4" class="edge"><title>Node1&#45;&gt;Node5</title>
<path fill="none" stroke="midnightblue" d="M58.3457,-585.795C63.4628,-642.95 91.9881,-933.082 149,-998 152.477,-1001.96 156.625,-1005.29 161.142,-1008.1"/>
<polygon fill="midnightblue" stroke="midnightblue" points="159.724,-1011.3 170.204,-1012.86 162.984,-1005.11 159.724,-1011.3"/>
</g>
<!-- Node6 -->
<g id="node6" class="node"><title>Node6</title>
<g id="a_node6"><a xlink:href="xml_8h.xhtml#ac6e06a790ddf60f0108718e37bb405ed" target="_top" xlink:title="Initializes a DOM parser and converts library exceptions into local errors. ">
<polygon fill="white" stroke="black" points="149,-951.5 149,-970.5 291,-970.5 291,-951.5 149,-951.5"/>
<text text-anchor="middle" x="220" y="-958.5" font-family="Helvetica,sans-Serif" font-size="10.00">scram::ConstructDomParser</text>
</a>
</g>
</g>
<!-- Node1&#45;&gt;Node6 -->
<g id="edge5" class="edge"><title>Node1&#45;&gt;Node6</title>
<path fill="none" stroke="midnightblue" d="M58.587,-585.568C64.7099,-637.834 96.5056,-888.442 149,-942 150.421,-943.45 151.941,-944.793 153.542,-946.036"/>
<polygon fill="midnightblue" stroke="midnightblue" points="151.809,-949.081 162.133,-951.459 155.545,-943.162 151.809,-949.081"/>
</g>
<!-- Node7 -->
<g id="node7" class="node"><title>Node7</title>
<g id="a_node7"><a xlink:href="classscram_1_1core_1_1Settings.xhtml#acbba7a642ade93cf58155748cdf0b446" target="_top" xlink:title="scram::core::Settings\l::cut_off">
<polygon fill="white" stroke="black" points="165,-902 165,-932 275,-932 275,-902 165,-902"/>
<text text-anchor="start" x="173" y="-920" font-family="Helvetica,sans-Serif" font-size="10.00">scram::core::Settings</text>
<text text-anchor="middle" x="220" y="-909" font-family="Helvetica,sans-Serif" font-size="10.00">::cut_off</text>
</a>
</g>
</g>
<!-- Node1&#45;&gt;Node7 -->
<g id="edge7" class="edge"><title>Node1&#45;&gt;Node7</title>
<path fill="none" stroke="midnightblue" d="M57.3191,-585.774C57.0715,-628.3 61.7353,-799.227 149,-892 151.114,-894.247 153.443,-896.293 155.929,-898.154"/>
<polygon fill="midnightblue" stroke="midnightblue" points="154.575,-901.438 164.902,-903.803 158.304,-895.514 154.575,-901.438"/>
</g>
<!-- Node8 -->
<g id="node8" class="node"><title>Node8</title>
<g id="a_node8"><a xlink:href="xml_8h.xhtml#a0c5491388e25d1f1badb26b56ef302e7" target="_top" xlink:title="Returns Normalized (trimmed) string value of an XML element attribute. ">
<polygon fill="white" stroke="black" points="156.5,-845.5 156.5,-864.5 283.5,-864.5 283.5,-845.5 156.5,-845.5"/>
<text text-anchor="middle" x="220" y="-852.5" font-family="Helvetica,sans-Serif" font-size="10.00">scram::GetAttributeValue</text>
</a>
</g>
</g>
<!-- Node1&#45;&gt;Node8 -->
<g id="edge8" class="edge"><title>Node1&#45;&gt;Node8</title>
<path fill="none" stroke="midnightblue" d="M57.8442,-585.727C59.7348,-623.829 71.8797,-764.338 149,-836 150.686,-837.567 152.489,-839.007 154.382,-840.33"/>
<polygon fill="midnightblue" stroke="midnightblue" points="152.778,-843.446 163.188,-845.416 156.279,-837.384 152.778,-843.446"/>
</g>
<!-- Node9 -->
<g id="node9" class="node"><title>Node9</title>
<g id="a_node9"><a xlink:href="xml_8h.xhtml#a818b7826f3993c5ff58d45a237274285" target="_top" xlink:title="Returns Normalized content of an XML text node. ">
<polygon fill="white" stroke="black" points="170,-789.5 170,-808.5 270,-808.5 270,-789.5 170,-789.5"/>
<text text-anchor="middle" x="220" y="-796.5" font-family="Helvetica,sans-Serif" font-size="10.00">scram::GetContent</text>
</a>
</g>
</g>
<!-- Node1&#45;&gt;Node9 -->
<g id="edge10" class="edge"><title>Node1&#45;&gt;Node9</title>
<path fill="none" stroke="midnightblue" d="M58.907,-585.85C64.1391,-618.745 85.554,-725.785 149,-780 152.487,-782.98 156.398,-785.496 160.543,-787.62"/>
<polygon fill="midnightblue" stroke="midnightblue" points="159.348,-790.917 169.916,-791.673 162.126,-784.492 159.348,-790.917"/>
</g>
<!-- Node10 -->
<g id="node10" class="node"><title>Node10</title>
<g id="a_node10"><a xlink:href="xml_8h.xhtml#a0f074705681d730dcd5fb6035e91f30f" target="_top" xlink:title="Returns XML line number message. ">
<polygon fill="white" stroke="black" points="178.5,-733.5 178.5,-752.5 261.5,-752.5 261.5,-733.5 178.5,-733.5"/>
<text text-anchor="middle" x="220" y="-740.5" font-family="Helvetica,sans-Serif" font-size="10.00">scram::GetLine</text>
</a>
</g>
</g>
<!-- Node1&#45;&gt;Node10 -->
<g id="edge12" class="edge"><title>Node1&#45;&gt;Node10</title>
<path fill="none" stroke="midnightblue" d="M60.6328,-585.695C69.7111,-612.205 98.6411,-686.423 149,-724 154.828,-728.349 161.589,-731.703 168.566,-734.289"/>
<polygon fill="midnightblue" stroke="midnightblue" points="167.554,-737.64 178.145,-737.361 169.691,-730.974 167.554,-737.64"/>
</g>
<!-- Node11 -->
<g id="node11" class="node"><title>Node11</title>
<g id="a_node11"><a xlink:href="classscram_1_1core_1_1Settings.xhtml#a16c99e2ccd22a9be037f6c6fe229894b" target="_top" xlink:title="scram::core::Settings\l::importance_analysis">
<polygon fill="white" stroke="black" points="164,-684 164,-714 276,-714 276,-684 164,-684"/>
<text text-anchor="start" x="172" y="-702" font-family="Helvetica,sans-Serif" font-size="10.00">scram::core::Settings</text>
<text text-anchor="middle" x="220" y="-691" font-family="Helvetica,sans-Serif" font-size="10.00">::importance_analysis</text>
</a>
</g>
</g>
<!-- Node1&#45;&gt;Node11 -->
<g id="edge14" class="edge"><title>Node1&#45;&gt;Node11</title>
<path fill="none" stroke="midnightblue" d="M63.8892,-585.638C77.3491,-605.229 110.567,-649.956 149,-675 151.422,-676.578 153.959,-678.064 156.572,-679.462"/>
<polygon fill="midnightblue" stroke="midnightblue" points="155.167,-682.671 165.692,-683.882 158.22,-676.372 155.167,-682.671"/>
</g>
<!-- Node12 -->
<g id="node12" class="node"><title>Node12</title>
<g id="a_node12"><a xlink:href="classscram_1_1Config.xhtml#a5ac61fcdac1a41a1d19c191c9a5c50b4" target="_top" xlink:title="scram::Config::input\l_files">
<polygon fill="white" stroke="black" points="167.5,-635 167.5,-665 272.5,-665 272.5,-635 167.5,-635"/>
<text text-anchor="start" x="175.5" y="-653" font-family="Helvetica,sans-Serif" font-size="10.00">scram::Config::input</text>
<text text-anchor="middle" x="220" y="-642" font-family="Helvetica,sans-Serif" font-size="10.00">_files</text>
</a>
</g>
</g>
<!-- Node1&#45;&gt;Node12 -->
<g id="edge15" class="edge"><title>Node1&#45;&gt;Node12</title>
<path fill="none" stroke="midnightblue" d="M72.9576,-585.506C90.8279,-596.243 121.338,-613.805 149,-626 153.146,-627.828 157.478,-629.607 161.866,-631.317"/>
<polygon fill="midnightblue" stroke="midnightblue" points="160.919,-634.7 171.511,-634.941 163.381,-628.148 160.919,-634.7"/>
</g>
<!-- Node13 -->
<g id="node13" class="node"><title>Node13</title>
<g id="a_node13"><a xlink:href="classscram_1_1core_1_1Settings.xhtml#a0e43ec0f017d23a4fa4e376c4060d380" target="_top" xlink:title="scram::core::Settings\l::limit_order">
<polygon fill="white" stroke="black" points="165,-586 165,-616 275,-616 275,-586 165,-586"/>
<text text-anchor="start" x="173" y="-604" font-family="Helvetica,sans-Serif" font-size="10.00">scram::core::Settings</text>
<text text-anchor="middle" x="220" y="-593" font-family="Helvetica,sans-Serif" font-size="10.00">::limit_order</text>
</a>
</g>
</g>
<!-- Node1&#45;&gt;Node13 -->
<g id="edge16" class="edge"><title>Node1&#45;&gt;Node13</title>
<path fill="none" stroke="midnightblue" d="M113.079,-584.604C126.589,-586.695 141.143,-588.948 155.007,-591.094"/>
<polygon fill="midnightblue" stroke="midnightblue" points="154.538,-594.563 164.956,-592.634 155.609,-587.645 154.538,-594.563"/>
</g>
<!-- Node14 -->
<g id="node14" class="node"><title>Node14</title>
<g id="a_node14"><a xlink:href="classscram_1_1core_1_1Settings.xhtml#a0c130c599ff39bd4a5b269907f06b66d" target="_top" xlink:title="scram::core::Settings\l::mission_time">
<polygon fill="white" stroke="black" points="165,-537 165,-567 275,-567 275,-537 165,-537"/>
<text text-anchor="start" x="173" y="-555" font-family="Helvetica,sans-Serif" font-size="10.00">scram::core::Settings</text>
<text text-anchor="middle" x="220" y="-544" font-family="Helvetica,sans-Serif" font-size="10.00">::mission_time</text>
</a>
</g>
</g>
<!-- Node1&#45;&gt;Node14 -->
<g id="edge17" class="edge"><title>Node1&#45;&gt;Node14</title>
<path fill="none" stroke="midnightblue" d="M113.079,-567.741C126.589,-565.733 141.143,-563.57 155.007,-561.51"/>
<polygon fill="midnightblue" stroke="midnightblue" points="155.579,-564.963 164.956,-560.031 154.55,-558.039 155.579,-564.963"/>
</g>
<!-- Node15 -->
<g id="node15" class="node"><title>Node15</title>
<g id="a_node15"><a xlink:href="classscram_1_1Error.xhtml#a35818dcc7c8dde101d4fd117adf47bc3" target="_top" xlink:title="scram::Error::msg">
<polygon fill="white" stroke="black" points="172.5,-498.5 172.5,-517.5 267.5,-517.5 267.5,-498.5 172.5,-498.5"/>
<text text-anchor="middle" x="220" y="-505.5" font-family="Helvetica,sans-Serif" font-size="10.00">scram::Error::msg</text>
</a>
</g>
</g>
<!-- Node1&#45;&gt;Node15 -->
<g id="edge18" class="edge"><title>Node1&#45;&gt;Node15</title>
<path fill="none" stroke="midnightblue" d="M73.2247,-566.476C91.0884,-555.963 121.354,-539.065 149,-528 155.857,-525.256 163.231,-522.722 170.529,-520.446"/>
<polygon fill="midnightblue" stroke="midnightblue" points="171.796,-523.72 180.377,-517.506 169.794,-517.013 171.796,-523.72"/>
</g>
<!-- Node16 -->
<g id="node16" class="node"><title>Node16</title>
<g id="a_node16"><a xlink:href="classscram_1_1core_1_1Settings.xhtml#ad646c62b90b1e6cef5a2db6ea9834601" target="_top" xlink:title="scram::core::Settings\l::num_bins">
<polygon fill="white" stroke="black" points="165,-449 165,-479 275,-479 275,-449 165,-449"/>
<text text-anchor="start" x="173" y="-467" font-family="Helvetica,sans-Serif" font-size="10.00">scram::core::Settings</text>
<text text-anchor="middle" x="220" y="-456" font-family="Helvetica,sans-Serif" font-size="10.00">::num_bins</text>
</a>
</g>
</g>
<!-- Node1&#45;&gt;Node16 -->
<g id="edge19" class="edge"><title>Node1&#45;&gt;Node16</title>
<path fill="none" stroke="midnightblue" d="M65.3047,-566.265C79.9587,-548.571 113.343,-510.941 149,-489 152.366,-486.929 155.928,-484.996 159.592,-483.197"/>
<polygon fill="midnightblue" stroke="midnightblue" points="161.189,-486.315 168.853,-479 158.3,-479.94 161.189,-486.315"/>
</g>
<!-- Node17 -->
<g id="node17" class="node"><title>Node17</title>
<g id="a_node17"><a xlink:href="classscram_1_1core_1_1Settings.xhtml#a35d180dd84bc1006157a02791c4bd210" target="_top" xlink:title="scram::core::Settings\l::num_quantiles">
<polygon fill="white" stroke="black" points="165,-400 165,-430 275,-430 275,-400 165,-400"/>
<text text-anchor="start" x="173" y="-418" font-family="Helvetica,sans-Serif" font-size="10.00">scram::core::Settings</text>
<text text-anchor="middle" x="220" y="-407" font-family="Helvetica,sans-Serif" font-size="10.00">::num_quantiles</text>
</a>
</g>
</g>
<!-- Node1&#45;&gt;Node17 -->
<g id="edge20" class="edge"><title>Node1&#45;&gt;Node17</title>
<path fill="none" stroke="midnightblue" d="M61.4636,-566.221C71.9743,-541.476 102.942,-475.805 149,-440 151.292,-438.218 153.722,-436.556 156.248,-435.007"/>
<polygon fill="midnightblue" stroke="midnightblue" points="158.036,-438.019 165.145,-430.164 154.689,-431.871 158.036,-438.019"/>
</g>
<!-- Node18 -->
<g id="node18" class="node"><title>Node18</title>
<g id="a_node18"><a xlink:href="classscram_1_1core_1_1Settings.xhtml#adda26a07ac3d505246a23b80829f8267" target="_top" xlink:title="scram::core::Settings\l::num_trials">
<polygon fill="white" stroke="black" points="165,-351 165,-381 275,-381 275,-351 165,-351"/>
<text text-anchor="start" x="173" y="-369" font-family="Helvetica,sans-Serif" font-size="10.00">scram::core::Settings</text>
<text text-anchor="middle" x="220" y="-358" font-family="Helvetica,sans-Serif" font-size="10.00">::num_trials</text>
</a>
</g>
</g>
<!-- Node1&#45;&gt;Node18 -->
<g id="edge21" class="edge"><title>Node1&#45;&gt;Node18</title>
<path fill="none" stroke="midnightblue" d="M59.5518,-566.39C66.5041,-536.117 91.9875,-441.74 149,-391 151.214,-389.029 153.594,-387.211 156.093,-385.534"/>
<polygon fill="midnightblue" stroke="midnightblue" points="158.099,-388.416 164.977,-380.357 154.575,-382.368 158.099,-388.416"/>
</g>
<!-- Node19 -->
<g id="node19" class="node"><title>Node19</title>
<g id="a_node19"><a xlink:href="classscram_1_1core_1_1Settings.xhtml#ae64f362fceb44402e101140dfc1725ba" target="_top" xlink:title="scram::core::Settings\l::prime_implicants">
<polygon fill="white" stroke="black" points="165,-302 165,-332 275,-332 275,-302 165,-302"/>
<text text-anchor="start" x="173" y="-320" font-family="Helvetica,sans-Serif" font-size="10.00">scram::core::Settings</text>
<text text-anchor="middle" x="220" y="-309" font-family="Helvetica,sans-Serif" font-size="10.00">::prime_implicants</text>
</a>
</g>
</g>
<!-- Node1&#45;&gt;Node19 -->
<g id="edge22" class="edge"><title>Node1&#45;&gt;Node19</title>
<path fill="none" stroke="midnightblue" d="M58.4395,-566.441C62.3915,-531.35 80.7677,-408.234 149,-342 151.17,-339.893 153.53,-337.963 156.026,-336.194"/>
<polygon fill="midnightblue" stroke="midnightblue" points="158.222,-338.956 164.961,-330.781 154.595,-332.969 158.222,-338.956"/>
</g>
<!-- Node20 -->
<g id="node20" class="node"><title>Node20</title>
<g id="a_node20"><a xlink:href="classscram_1_1core_1_1Settings.xhtml#a83ddd939f7217fb9f0438bd1dd01f7b1" target="_top" xlink:title="scram::core::Settings\l::probability_analysis">
<polygon fill="white" stroke="black" points="165,-253 165,-283 275,-283 275,-253 165,-253"/>
<text text-anchor="start" x="173" y="-271" font-family="Helvetica,sans-Serif" font-size="10.00">scram::core::Settings</text>
<text text-anchor="middle" x="220" y="-260" font-family="Helvetica,sans-Serif" font-size="10.00">::probability_analysis</text>
</a>
</g>
</g>
<!-- Node1&#45;&gt;Node20 -->
<g id="edge23" class="edge"><title>Node1&#45;&gt;Node20</title>
<path fill="none" stroke="midnightblue" d="M57.6983,-566.439C59.0349,-526.989 69.3602,-375.091 149,-293 151.106,-290.829 153.413,-288.846 155.867,-287.035"/>
<polygon fill="midnightblue" stroke="midnightblue" points="158.072,-289.784 164.695,-281.515 154.361,-283.849 158.072,-289.784"/>
</g>
<!-- Node21 -->
<g id="node21" class="node"><title>Node21</title>
<g id="a_node21"><a xlink:href="classscram_1_1core_1_1Settings.xhtml#a694757a6ab5effaea2d585905950d6bd" target="_top" xlink:title="scram::core::Settings\l::safety_integrity_levels">
<polygon fill="white" stroke="black" points="160,-204 160,-234 280,-234 280,-204 160,-204"/>
<text text-anchor="start" x="168" y="-222" font-family="Helvetica,sans-Serif" font-size="10.00">scram::core::Settings</text>
<text text-anchor="middle" x="220" y="-211" font-family="Helvetica,sans-Serif" font-size="10.00">::safety_integrity_levels</text>
</a>
</g>
</g>
<!-- Node1&#45;&gt;Node21 -->
<g id="edge24" class="edge"><title>Node1&#45;&gt;Node21</title>
<path fill="none" stroke="midnightblue" d="M57.1601,-566.335C56.1637,-522.723 57.8735,-342.142 149,-244 150.238,-242.667 151.551,-241.405 152.928,-240.211"/>
<polygon fill="midnightblue" stroke="midnightblue" points="155.367,-242.767 161.429,-234.077 151.272,-237.09 155.367,-242.767"/>
</g>
<!-- Node22 -->
<g id="node22" class="node"><title>Node22</title>
<g id="a_node22"><a xlink:href="classscram_1_1core_1_1Settings.xhtml#a9937a41d3fd1369f2eea59e1f33a1ac5" target="_top" xlink:title="scram::core::Settings\l::seed">
<polygon fill="white" stroke="black" points="165,-155 165,-185 275,-185 275,-155 165,-155"/>
<text text-anchor="start" x="173" y="-173" font-family="Helvetica,sans-Serif" font-size="10.00">scram::core::Settings</text>
<text text-anchor="middle" x="220" y="-162" font-family="Helvetica,sans-Serif" font-size="10.00">::seed</text>
</a>
</g>
</g>
<!-- Node1&#45;&gt;Node22 -->
<g id="edge25" class="edge"><title>Node1&#45;&gt;Node22</title>
<path fill="none" stroke="midnightblue" d="M58.5618,-566.464C64.6648,-513.228 96.8431,-253.078 149,-195 151.061,-192.705 153.348,-190.62 155.8,-188.727"/>
<polygon fill="midnightblue" stroke="midnightblue" points="158.178,-191.358 164.687,-182.999 154.386,-185.475 158.178,-191.358"/>
</g>
<!-- Node23 -->
<g id="node23" class="node"><title>Node23</title>
<g id="a_node23"><a xlink:href="classscram_1_1core_1_1Settings.xhtml#a2bc9e5d7c8028a8fd8e2ea02d766bb2b" target="_top" xlink:title="scram::core::Settings\l::time_step">
<polygon fill="white" stroke="black" points="165,-106 165,-136 275,-136 275,-106 165,-106"/>
<text text-anchor="start" x="173" y="-124" font-family="Helvetica,sans-Serif" font-size="10.00">scram::core::Settings</text>
<text text-anchor="middle" x="220" y="-113" font-family="Helvetica,sans-Serif" font-size="10.00">::time_step</text>
</a>
</g>
</g>
<!-- Node1&#45;&gt;Node23 -->
<g id="edge26" class="edge"><title>Node1&#45;&gt;Node23</title>
<path fill="none" stroke="midnightblue" d="M58.2868,-566.397C63.162,-509.075 90.9573,-212.349 149,-146 151.209,-143.475 153.692,-141.205 156.369,-139.164"/>
<polygon fill="midnightblue" stroke="midnightblue" points="158.369,-142.039 164.908,-133.703 154.598,-136.142 158.369,-142.039"/>
</g>
<!-- Node24 -->
<g id="node24" class="node"><title>Node24</title>
<g id="a_node24"><a xlink:href="classscram_1_1core_1_1Settings.xhtml#aa07ede20b118ae78028fb0807e52f632" target="_top" xlink:title="scram::core::Settings\l::uncertainty_analysis">
<polygon fill="white" stroke="black" points="164,-57 164,-87 276,-87 276,-57 164,-57"/>
<text text-anchor="start" x="172" y="-75" font-family="Helvetica,sans-Serif" font-size="10.00">scram::core::Settings</text>
<text text-anchor="middle" x="220" y="-64" font-family="Helvetica,sans-Serif" font-size="10.00">::uncertainty_analysis</text>
</a>
</g>
</g>
<!-- Node1&#45;&gt;Node24 -->
<g id="edge27" class="edge"><title>Node1&#45;&gt;Node24</title>
<path fill="none" stroke="midnightblue" d="M58.0773,-566.126C61.8733,-504.383 85.1134,-171.59 149,-97 150.928,-94.7488 153.074,-92.7004 155.382,-90.8364"/>
<polygon fill="midnightblue" stroke="midnightblue" points="157.439,-93.6709 163.78,-85.183 153.53,-87.8641 157.439,-93.6709"/>
</g>
<!-- Node25 -->
<g id="node25" class="node"><title>Node25</title>
<g id="a_node25"><a xlink:href="xml_8h.xhtml#ab908f9834f69be3009ee07445b51a673" target="_top" xlink:title="Helper function to statically cast to XML element. ">
<polygon fill="white" stroke="black" points="168.5,-0.5 168.5,-19.5 271.5,-19.5 271.5,-0.5 168.5,-0.5"/>
<text text-anchor="middle" x="220" y="-7.5" font-family="Helvetica,sans-Serif" font-size="10.00">scram::XmlElement</text>
</a>
</g>
</g>
<!-- Node1&#45;&gt;Node25 -->
<g id="edge28" class="edge"><title>Node1&#45;&gt;Node25</title>
<path fill="none" stroke="midnightblue" d="M58.0527,-566.112C61.8471,-501.209 85.8032,-136.052 149,-48 156.571,-37.4514 168.005,-29.5288 179.451,-23.7248"/>
<polygon fill="midnightblue" stroke="midnightblue" points="180.95,-26.8878 188.558,-19.5147 178.013,-20.5338 180.95,-26.8878"/>
</g>
<!-- Node6&#45;&gt;Node6 -->
<g id="edge6" class="edge"><title>Node6&#45;&gt;Node6</title>
<path fill="none" stroke="midnightblue" d="M195.031,-970.757C182.884,-979.565 191.207,-989 220,-989 239.345,-989 249.45,-984.741 250.314,-979.275"/>
<polygon fill="midnightblue" stroke="midnightblue" points="253.249,-977.367 244.969,-970.757 247.32,-981.088 253.249,-977.367"/>
</g>
<!-- Node8&#45;&gt;Node8 -->
<g id="edge9" class="edge"><title>Node8&#45;&gt;Node8</title>
<path fill="none" stroke="midnightblue" d="M195.031,-864.757C182.884,-873.565 191.207,-883 220,-883 239.345,-883 249.45,-878.741 250.314,-873.275"/>
<polygon fill="midnightblue" stroke="midnightblue" points="253.249,-871.367 244.969,-864.757 247.32,-875.088 253.249,-871.367"/>
</g>
<!-- Node9&#45;&gt;Node9 -->
<g id="edge11" class="edge"><title>Node9&#45;&gt;Node9</title>
<path fill="none" stroke="midnightblue" d="M195.031,-808.757C182.884,-817.565 191.207,-827 220,-827 239.345,-827 249.45,-822.741 250.314,-817.275"/>
<polygon fill="midnightblue" stroke="midnightblue" points="253.249,-815.367 244.969,-808.757 247.32,-819.088 253.249,-815.367"/>
</g>
<!-- Node10&#45;&gt;Node10 -->
<g id="edge13" class="edge"><title>Node10&#45;&gt;Node10</title>
<path fill="none" stroke="midnightblue" d="M195.031,-752.757C182.884,-761.565 191.207,-771 220,-771 239.345,-771 249.45,-766.741 250.314,-761.275"/>
<polygon fill="midnightblue" stroke="midnightblue" points="253.249,-759.367 244.969,-752.757 247.32,-763.088 253.249,-759.367"/>
</g>
<!-- Node25&#45;&gt;Node25 -->
<g id="edge29" class="edge"><title>Node25&#45;&gt;Node25</title>
<path fill="none" stroke="midnightblue" d="M195.031,-19.7571C182.884,-28.5653 191.207,-38 220,-38 239.345,-38 249.45,-33.741 250.314,-28.2746"/>
<polygon fill="midnightblue" stroke="midnightblue" points="253.249,-26.3667 244.969,-19.7571 247.32,-30.0877 253.249,-26.3667"/>
</g>
</g>
</svg>
        <g id="navigator" transform="translate(0 0)" fill="#404254">
                <rect fill="#f2f5e9" fill-opacity="0.5" stroke="#606060" stroke-width=".5" x="0" y="0" width="60" height="60"/>
                <use id="zoomplus" xlink:href="#zoomPlus" x="17" y="9" onmousedown="handleZoom(evt,'in')"/>
                <use id="zoomminus" xlink:href="#zoomMin" x="42" y="9" onmousedown="handleZoom(evt,'out')"/>
                <use id="reset" xlink:href="#resetDef" x="30" y="36" onmousedown="handleReset()"/>
                <g id="arrowUp" xlink:href="#dirArrow" transform="translate(30 24)" onmousedown="handlePan(0,-1)">
                  <use xlink:href="#rim" fill="#404040">
                        <set attributeName="fill" to="#808080" begin="arrowUp.mouseover" end="arrowUp.mouseout"/>
                  </use>
                  <path fill="none" stroke="white" stroke-width="1.5" d="M0,-3.0v7 M-2.5,-0.5L0,-3.0L2.5,-0.5"/>
                </g>
                <g id="arrowRight" xlink:href="#dirArrow" transform="rotate(90) translate(36 -43)" onmousedown="handlePan(1,0)">
                  <use xlink:href="#rim" fill="#404040">
                        <set attributeName="fill" to="#808080" begin="arrowRight.mouseover" end="arrowRight.mouseout"/>
                  </use>
                  <path fill="none" stroke="white" stroke-width="1.5" d="M0,-3.0v7 M-2.5,-0.5L0,-3.0L2.5,-0.5"/>
                </g>
                <g id="arrowDown" xlink:href="#dirArrow" transform="rotate(180) translate(-30 -48)" onmousedown="handlePan(0,1)">
                  <use xlink:href="#rim" fill="#404040">
                        <set attributeName="fill" to="#808080" begin="arrowDown.mouseover" end="arrowDown.mouseout"/>
                  </use>
                  <path fill="none" stroke="white" stroke-width="1.5" d="M0,-3.0v7 M-2.5,-0.5L0,-3.0L2.5,-0.5"/>
                </g>
                <g id="arrowLeft" xlink:href="#dirArrow" transform="rotate(270) translate(-36 17)" onmousedown="handlePan(-1,0)">
                  <use xlink:href="#rim" fill="#404040">
                        <set attributeName="fill" to="#808080" begin="arrowLeft.mouseover" end="arrowLeft.mouseout"/>
                  </use>
                  <path fill="none" stroke="white" stroke-width="1.5" d="M0,-3.0v7 M-2.5,-0.5L0,-3.0L2.5,-0.5"/>
                </g>
        </g>
        <svg viewBox="0 0 15 15" width="100%" height="30px" preserveAspectRatio="xMaxYMin meet">
         <g id="arrow_out" transform="scale(0.3 0.3)">
          <a xlink:href="classscram_1_1Config_ab0d7940fbb627fab9867821e133eab5d_cgraph_org.svg" target="_base">
           <rect id="button" ry="5" rx="5" y="6" x="6" height="38" width="38"
                fill="#f2f5e9" fill-opacity="0.5" stroke="#606060" stroke-width="1.0"/>
           <path id="arrow"
             d="M 11.500037,31.436501 C 11.940474,20.09759 22.043105,11.32322 32.158766,21.979434 L 37.068811,17.246167 C 37.068811,17.246167 37.088388,32 37.088388,32 L 22.160133,31.978069 C 22.160133,31.978069 26.997745,27.140456 26.997745,27.140456 C 18.528582,18.264221 13.291696,25.230495 11.500037,31.436501 z"
             style="fill:#404040;"/>
          </a>
         </g>
        </svg>
</svg>
