<?xml version="1.0" encoding="UTF-8" standalone="no"?>
<!DOCTYPE svg PUBLIC "-//W3C//DTD SVG 1.1//EN"
 "http://www.w3.org/Graphics/SVG/1.1/DTD/svg11.dtd">
<!-- Generated by graphviz version 2.38.0 (20140413.2041)
 -->
<!-- Title: scram::core::zbdd::CutSetContainer::GetNextGate Pages: 1 -->
<svg width="327pt" height="225pt"
 viewBox="0.00 0.00 327.00 225.00" xmlns="http://www.w3.org/2000/svg" xmlns:xlink="http://www.w3.org/1999/xlink">
<g id="graph0" class="graph" transform="scale(1 1) rotate(0) translate(4 221)">
<title>scram::core::zbdd::CutSetContainer::GetNextGate</title>
<polygon fill="white" stroke="none" points="-4,4 -4,-221 323,-221 323,4 -4,4"/>
<!-- Node1 -->
<g id="node1" class="node"><title>Node1</title>
<polygon fill="#bfbfbf" stroke="black" points="0,-112.5 0,-142.5 153,-142.5 153,-112.5 0,-112.5"/>
<text text-anchor="start" x="8" y="-130.5" font-family="Helvetica,sans-Serif" font-size="10.00">scram::core::zbdd::</text>
<text text-anchor="middle" x="76.5" y="-119.5" font-family="Helvetica,sans-Serif" font-size="10.00">CutSetContainer::GetNextGate</text>
</g>
<!-- Node2 -->
<g id="node2" class="node"><title>Node2</title>
<g id="a_node2"><a xlink:href="classscram_1_1core_1_1NonTerminal.xhtml#aeeaafd82ae5890a7ec3462c68ffc8628" target="_top" xlink:title="scram::core::NonTerminal\l::index">
<polygon fill="white" stroke="black" points="189,-186.5 189,-216.5 319,-216.5 319,-186.5 189,-186.5"/>
<text text-anchor="start" x="197" y="-204.5" font-family="Helvetica,sans-Serif" font-size="10.00">scram::core::NonTerminal</text>
<text text-anchor="middle" x="254" y="-193.5" font-family="Helvetica,sans-Serif" font-size="10.00">::index</text>
</a>
</g>
</g>
<!-- Node1&#45;&gt;Node2 -->
<g id="edge1" class="edge"><title>Node1&#45;&gt;Node2</title>
<path fill="none" stroke="midnightblue" d="M127.998,-142.529C147.008,-150.566 168.889,-160.23 189,-168.5 200.091,-173.061 212.4,-177.762 223.236,-182.334"/>
<polygon fill="midnightblue" stroke="midnightblue" points="222.133,-185.672 232.696,-186.489 224.948,-179.263 222.133,-185.672"/>
</g>
<!-- Node1&#45;&gt;Node2 -->
<g id="edge2" class="edge"><title>Node1&#45;&gt;Node2</title>
<path fill="none" stroke="midnightblue" d="M95.8911,-142.585C115.732,-154.191 148.604,-169.517 179.204,-182.42"/>
<polygon fill="midnightblue" stroke="midnightblue" points="178.034,-185.724 188.611,-186.34 180.727,-179.263 178.034,-185.724"/>
</g>
<!-- Node3 -->
<g id="node3" class="node"><title>Node3</title>
<g id="a_node3"><a xlink:href="classscram_1_1core_1_1NonTerminal.xhtml#a9230422e92d086c34f67bcb864bfc8a9" target="_top" xlink:title="scram::core::NonTerminal\l::module">
<polygon fill="white" stroke="black" points="189,-137.5 189,-167.5 319,-167.5 319,-137.5 189,-137.5"/>
<text text-anchor="start" x="197" y="-155.5" font-family="Helvetica,sans-Serif" font-size="10.00">scram::core::NonTerminal</text>
<text text-anchor="middle" x="254" y="-144.5" font-family="Helvetica,sans-Serif" font-size="10.00">::module</text>
</a>
</g>
</g>
<!-- Node1&#45;&gt;Node3 -->
<g id="edge3" class="edge"><title>Node1&#45;&gt;Node3</title>
<path fill="none" stroke="midnightblue" d="M153.201,-138.284C161.643,-139.486 170.237,-140.71 178.662,-141.911"/>
<polygon fill="midnightblue" stroke="midnightblue" points="178.44,-145.414 188.833,-143.359 179.427,-138.484 178.44,-145.414"/>
</g>
<!-- Node4 -->
<g id="node4" class="node"><title>Node4</title>
<g id="a_node4"><a xlink:href="structscram_1_1core_1_1IntrusivePtrCast.xhtml#af153c12dc6133b7d9f9b7a57bba29f1d" target="_top" xlink:title="scram::core::IntrusivePtr\lCast\&lt; SetNode \&gt;::Ref">
<polygon fill="white" stroke="black" points="191.5,-88.5 191.5,-118.5 316.5,-118.5 316.5,-88.5 191.5,-88.5"/>
<text text-anchor="start" x="199.5" y="-106.5" font-family="Helvetica,sans-Serif" font-size="10.00">scram::core::IntrusivePtr</text>
<text text-anchor="middle" x="254" y="-95.5" font-family="Helvetica,sans-Serif" font-size="10.00">Cast&lt; SetNode &gt;::Ref</text>
</a>
</g>
</g>
<!-- Node1&#45;&gt;Node4 -->
<g id="edge4" class="edge"><title>Node1&#45;&gt;Node4</title>
<path fill="none" stroke="midnightblue" d="M153.201,-117.148C162.535,-115.871 172.054,-114.57 181.325,-113.302"/>
<polygon fill="midnightblue" stroke="midnightblue" points="181.834,-116.765 191.267,-111.942 180.885,-109.829 181.834,-116.765"/>
</g>
<!-- Node5 -->
<g id="node5" class="node"><title>Node5</title>
<g id="a_node5"><a xlink:href="classscram_1_1core_1_1Zbdd.xhtml#aa599878612e128fa09e17d0520280dbe" target="_top" xlink:title="scram::core::Zbdd::root">
<polygon fill="white" stroke="black" points="194.5,-50 194.5,-69 313.5,-69 313.5,-50 194.5,-50"/>
<text text-anchor="middle" x="254" y="-57" font-family="Helvetica,sans-Serif" font-size="10.00">scram::core::Zbdd::root</text>
</a>
</g>
</g>
<!-- Node1&#45;&gt;Node5 -->
<g id="edge5" class="edge"><title>Node1&#45;&gt;Node5</title>
<path fill="none" stroke="midnightblue" d="M110.313,-112.309C132.334,-102.379 162.122,-89.4546 189,-79.5 195.905,-76.9428 203.304,-74.4283 210.533,-72.0916"/>
<polygon fill="midnightblue" stroke="midnightblue" points="211.742,-75.3802 220.221,-69.028 209.631,-68.7059 211.742,-75.3802"/>
</g>
<!-- Node6 -->
<g id="node6" class="node"><title>Node6</title>
<g id="a_node6"><a xlink:href="classscram_1_1core_1_1Vertex.xhtml#acfa7d6caa5bc11bc95cb35012169ab15" target="_top" xlink:title="scram::core::Vertex\l\&lt; SetNode \&gt;::terminal">
<polygon fill="white" stroke="black" points="197.5,-0.5 197.5,-30.5 310.5,-30.5 310.5,-0.5 197.5,-0.5"/>
<text text-anchor="start" x="205.5" y="-18.5" font-family="Helvetica,sans-Serif" font-size="10.00">scram::core::Vertex</text>
<text text-anchor="middle" x="254" y="-7.5" font-family="Helvetica,sans-Serif" font-size="10.00">&lt; SetNode &gt;::terminal</text>
</a>
</g>
</g>
<!-- Node1&#45;&gt;Node6 -->
<g id="edge6" class="edge"><title>Node1&#45;&gt;Node6</title>
<path fill="none" stroke="midnightblue" d="M93.7816,-112.294C114.582,-93.4836 152.298,-61.3921 189,-40.5 192.615,-38.442 196.434,-36.4807 200.332,-34.628"/>
<polygon fill="midnightblue" stroke="midnightblue" points="201.825,-37.7942 209.517,-30.5077 198.96,-31.4074 201.825,-37.7942"/>
</g>
</g>
</svg>
