<?xml version="1.0" encoding="UTF-8" standalone="no"?>
<!DOCTYPE svg PUBLIC "-//W3C//DTD SVG 1.1//EN"
 "http://www.w3.org/Graphics/SVG/1.1/DTD/svg11.dtd">
<!-- Generated by graphviz version 2.38.0 (20140413.2041)
 -->
<!-- Title: scram::core::ProductContainer::size Pages: 1 -->
<svg width="685pt" height="108pt"
 viewBox="0.00 0.00 685.00 108.00" xmlns="http://www.w3.org/2000/svg" xmlns:xlink="http://www.w3.org/1999/xlink">
<g id="graph0" class="graph" transform="scale(1 1) rotate(0) translate(4 104)">
<title>scram::core::ProductContainer::size</title>
<polygon fill="white" stroke="none" points="-4,4 -4,-104 681,-104 681,4 -4,4"/>
<!-- Node1 -->
<g id="node1" class="node"><title>Node1</title>
<polygon fill="#bfbfbf" stroke="black" points="0,-44.5 0,-74.5 150,-74.5 150,-44.5 0,-44.5"/>
<text text-anchor="start" x="8" y="-62.5" font-family="Helvetica,sans-Serif" font-size="10.00">scram::core::ProductContainer</text>
<text text-anchor="middle" x="75" y="-51.5" font-family="Helvetica,sans-Serif" font-size="10.00">::size</text>
</g>
<!-- Node2 -->
<g id="node2" class="node"><title>Node2</title>
<g id="a_node2"><a xlink:href="fault__tree__analysis_8cc.xhtml#af405213a7ee34a3dd833ce5298983b04" target="_top" xlink:title="Prints a collection of products to the standard error. ">
<polygon fill="white" stroke="black" points="219.5,-50 219.5,-69 314.5,-69 314.5,-50 219.5,-50"/>
<text text-anchor="middle" x="267" y="-57" font-family="Helvetica,sans-Serif" font-size="10.00">scram::core::Print</text>
</a>
</g>
</g>
<!-- Node1&#45;&gt;Node2 -->
<g id="edge1" class="edge"><title>Node1&#45;&gt;Node2</title>
<path fill="none" stroke="midnightblue" d="M160.216,-52.7888C180.516,-52.6422 201.48,-52.9112 219.338,-53.5959"/>
<polygon fill="midnightblue" stroke="midnightblue" points="159.965,-49.2912 150.003,-52.8987 160.04,-56.2908 159.965,-49.2912"/>
</g>
<!-- Node6 -->
<g id="node6" class="node"><title>Node6</title>
<g id="a_node6"><a xlink:href="reporter_8cc.xhtml#ad6460094a94fb73e56c2a4a5efc598ed" target="_top" xlink:title="Describes all performed analyses deduced from settings. ">
<polygon fill="white" stroke="black" points="186,-0.5 186,-30.5 348,-30.5 348,-0.5 186,-0.5"/>
<text text-anchor="start" x="194" y="-18.5" font-family="Helvetica,sans-Serif" font-size="10.00">scram::ReportCalculatedQuantity</text>
<text text-anchor="middle" x="267" y="-7.5" font-family="Helvetica,sans-Serif" font-size="10.00">&lt; core::RiskAnalysis &gt;</text>
</a>
</g>
</g>
<!-- Node1&#45;&gt;Node6 -->
<g id="edge7" class="edge"><title>Node1&#45;&gt;Node6</title>
<path fill="none" stroke="midnightblue" d="M151.037,-42.1231C167.594,-38.2888 184.999,-34.2582 201.114,-30.5262"/>
<polygon fill="midnightblue" stroke="midnightblue" points="149.808,-38.8148 140.856,-44.4808 151.388,-45.6344 149.808,-38.8148"/>
</g>
<!-- Node2&#45;&gt;Node1 -->
<g id="edge6" class="edge"><title>Node2&#45;&gt;Node1</title>
<path fill="none" stroke="midnightblue" d="M209.265,-65.7377C190.657,-66.2633 169.696,-66.3844 150.003,-66.1013"/>
<polygon fill="midnightblue" stroke="midnightblue" points="209.46,-69.2333 219.338,-65.4041 209.228,-62.2371 209.46,-69.2333"/>
</g>
<!-- Node2&#45;&gt;Node2 -->
<g id="edge5" class="edge"><title>Node2&#45;&gt;Node2</title>
<path fill="none" stroke="midnightblue" d="M231,-77.0043C231.006,-82.8356 243.006,-87.5 267,-87.5 301.125,-87.5 310.989,-78.0653 296.593,-69.2571"/>
<polygon fill="midnightblue" stroke="midnightblue" points="233.731,-79.1937 237.407,-69.2571 228.337,-74.7325 233.731,-79.1937"/>
</g>
<!-- Node3 -->
<g id="node3" class="node"><title>Node3</title>
<g id="a_node3"><a xlink:href="classscram_1_1core_1_1FaultTreeAnalysis.xhtml#a327afc0524cff5289c3887357487266b" target="_top" xlink:title="Analyzes the fault tree and performs computations. ">
<polygon fill="white" stroke="black" points="384,-69.5 384,-99.5 537,-99.5 537,-69.5 384,-69.5"/>
<text text-anchor="start" x="392" y="-87.5" font-family="Helvetica,sans-Serif" font-size="10.00">scram::core::FaultTreeAnalysis</text>
<text text-anchor="middle" x="460.5" y="-76.5" font-family="Helvetica,sans-Serif" font-size="10.00">::Analyze</text>
</a>
</g>
</g>
<!-- Node2&#45;&gt;Node3 -->
<g id="edge2" class="edge"><title>Node2&#45;&gt;Node3</title>
<path fill="none" stroke="midnightblue" d="M324.836,-66.9198C343.287,-69.3285 364.061,-72.0406 383.669,-74.6004"/>
<polygon fill="midnightblue" stroke="midnightblue" points="325.215,-63.4397 314.846,-65.6157 324.309,-70.3808 325.215,-63.4397"/>
</g>
<!-- Node4 -->
<g id="node4" class="node"><title>Node4</title>
<g id="a_node4"><a xlink:href="classscram_1_1core_1_1Pdag.xhtml#a9463ecda2e2b78590a01d2f589b067c6" target="_top" xlink:title="scram::core::Pdag::\lbasic_events">
<polygon fill="white" stroke="black" points="409,-20.5 409,-50.5 512,-50.5 512,-20.5 409,-20.5"/>
<text text-anchor="start" x="417" y="-38.5" font-family="Helvetica,sans-Serif" font-size="10.00">scram::core::Pdag::</text>
<text text-anchor="middle" x="460.5" y="-27.5" font-family="Helvetica,sans-Serif" font-size="10.00">basic_events</text>
</a>
</g>
</g>
<!-- Node2&#45;&gt;Node4 -->
<g id="edge3" class="edge"><title>Node2&#45;&gt;Node4</title>
<path fill="none" stroke="midnightblue" d="M324.799,-52.3816C351.443,-49.0423 382.939,-45.0951 408.773,-41.8574"/>
<polygon fill="midnightblue" stroke="midnightblue" points="324.333,-48.9125 314.846,-53.6289 325.204,-55.8581 324.333,-48.9125"/>
</g>
<!-- Node5 -->
<g id="node5" class="node"><title>Node5</title>
<g id="a_node5"><a xlink:href="classscram_1_1core_1_1Mocus.xhtml#a008348c27bdc85ad9d0d106b18dcc1a2" target="_top" xlink:title="Finds minimal cut sets from the PDAG. ">
<polygon fill="white" stroke="black" points="573,-20.5 573,-50.5 677,-50.5 677,-20.5 573,-20.5"/>
<text text-anchor="start" x="581" y="-38.5" font-family="Helvetica,sans-Serif" font-size="10.00">scram::core::Mocus</text>
<text text-anchor="middle" x="625" y="-27.5" font-family="Helvetica,sans-Serif" font-size="10.00">::Analyze</text>
</a>
</g>
</g>
<!-- Node4&#45;&gt;Node5 -->
<g id="edge4" class="edge"><title>Node4&#45;&gt;Node5</title>
<path fill="none" stroke="midnightblue" d="M522.232,-35.5C538.927,-35.5 556.857,-35.5 572.946,-35.5"/>
<polygon fill="midnightblue" stroke="midnightblue" points="522.025,-32.0001 512.025,-35.5 522.025,-39.0001 522.025,-32.0001"/>
</g>
</g>
</svg>
