<?xml version="1.0" encoding="UTF-8" standalone="no"?>
<!DOCTYPE svg PUBLIC "-//W3C//DTD SVG 1.1//EN"
 "http://www.w3.org/Graphics/SVG/1.1/DTD/svg11.dtd">
<!-- Generated by graphviz version 2.38.0 (20140413.2041)
 -->
<!-- Title: scram::core::Preprocessor::ProcessStateDestinations Pages: 1 -->
<svg width="1380pt" height="197pt"
 viewBox="0.00 0.00 1380.00 197.19" xmlns="http://www.w3.org/2000/svg" xmlns:xlink="http://www.w3.org/1999/xlink">
<g id="graph0" class="graph" transform="scale(1 1) rotate(0) translate(4 193.192)">
<title>scram::core::Preprocessor::ProcessStateDestinations</title>
<polygon fill="white" stroke="none" points="-4,4 -4,-193.192 1376,-193.192 1376,4 -4,4"/>
<!-- Node1 -->
<g id="node1" class="node"><title>Node1</title>
<polygon fill="#bfbfbf" stroke="black" points="0,-84.5 0,-114.5 137,-114.5 137,-84.5 0,-84.5"/>
<text text-anchor="start" x="8" y="-102.5" font-family="Helvetica,sans-Serif" font-size="10.00">scram::core::Preprocessor</text>
<text text-anchor="middle" x="68.5" y="-91.5" font-family="Helvetica,sans-Serif" font-size="10.00">::ProcessStateDestinations</text>
</g>
<!-- Node2 -->
<g id="node2" class="node"><title>Node2</title>
<g id="a_node2"><a xlink:href="classscram_1_1core_1_1Preprocessor.xhtml#a4086c57695d49b4770915d5d53bd47de" target="_top" xlink:title="Tries to simplify the graph by removing redundancies generated by a common node. ">
<polygon fill="white" stroke="black" points="173,-84.5 173,-114.5 305,-114.5 305,-84.5 173,-84.5"/>
<text text-anchor="start" x="181" y="-102.5" font-family="Helvetica,sans-Serif" font-size="10.00">scram::core::Preprocessor</text>
<text text-anchor="middle" x="239" y="-91.5" font-family="Helvetica,sans-Serif" font-size="10.00">::ProcessCommonNode</text>
</a>
</g>
</g>
<!-- Node1&#45;&gt;Node2 -->
<g id="edge1" class="edge"><title>Node1&#45;&gt;Node2</title>
<path fill="none" stroke="midnightblue" d="M147.116,-99.5C155.734,-99.5 164.445,-99.5 172.886,-99.5"/>
<polygon fill="midnightblue" stroke="midnightblue" points="147.065,-96.0001 137.065,-99.5 147.064,-103 147.065,-96.0001"/>
</g>
<!-- Node3 -->
<g id="node3" class="node"><title>Node3</title>
<g id="a_node3"><a xlink:href="classscram_1_1core_1_1Preprocessor.xhtml#aebc709ad2e097c24e837889a6a9e4696" target="_top" xlink:title="Propagates failures of common nodes to detect redundancy. ">
<polygon fill="white" stroke="black" points="341,-84.5 341,-114.5 473,-114.5 473,-84.5 341,-84.5"/>
<text text-anchor="start" x="349" y="-102.5" font-family="Helvetica,sans-Serif" font-size="10.00">scram::core::Preprocessor</text>
<text text-anchor="middle" x="407" y="-91.5" font-family="Helvetica,sans-Serif" font-size="10.00">::BooleanOptimization</text>
</a>
</g>
</g>
<!-- Node2&#45;&gt;Node3 -->
<g id="edge2" class="edge"><title>Node2&#45;&gt;Node3</title>
<path fill="none" stroke="midnightblue" d="M315.393,-99.5C323.869,-99.5 332.452,-99.5 340.784,-99.5"/>
<polygon fill="midnightblue" stroke="midnightblue" points="315.131,-96.0001 305.131,-99.5 315.131,-103 315.131,-96.0001"/>
</g>
<!-- Node4 -->
<g id="node4" class="node"><title>Node4</title>
<g id="a_node4"><a xlink:href="classscram_1_1core_1_1Preprocessor.xhtml#a9d5f89471499508eb9e6c01ea43e0f15" target="_top" xlink:title="Preprocessing phase of the original structure of the graph. ">
<polygon fill="white" stroke="black" points="509,-84.5 509,-114.5 641,-114.5 641,-84.5 509,-84.5"/>
<text text-anchor="start" x="517" y="-102.5" font-family="Helvetica,sans-Serif" font-size="10.00">scram::core::Preprocessor</text>
<text text-anchor="middle" x="575" y="-91.5" font-family="Helvetica,sans-Serif" font-size="10.00">::RunPhaseTwo</text>
</a>
</g>
</g>
<!-- Node3&#45;&gt;Node4 -->
<g id="edge3" class="edge"><title>Node3&#45;&gt;Node4</title>
<path fill="none" stroke="midnightblue" d="M483.393,-99.5C491.869,-99.5 500.452,-99.5 508.784,-99.5"/>
<polygon fill="midnightblue" stroke="midnightblue" points="483.131,-96.0001 473.131,-99.5 483.131,-103 483.131,-96.0001"/>
</g>
<!-- Node5 -->
<g id="node5" class="node"><title>Node5</title>
<g id="a_node5"><a xlink:href="classscram_1_1core_1_1Preprocessor.xhtml#a5ee92284aef510ce01a71c962d50f51c" target="_top" xlink:title="Runs the graph preprocessing. ">
<polygon fill="white" stroke="black" points="1054.5,-93.5 1054.5,-123.5 1186.5,-123.5 1186.5,-93.5 1054.5,-93.5"/>
<text text-anchor="start" x="1062.5" y="-111.5" font-family="Helvetica,sans-Serif" font-size="10.00">scram::core::Preprocessor</text>
<text text-anchor="middle" x="1120.5" y="-100.5" font-family="Helvetica,sans-Serif" font-size="10.00">::operator()</text>
</a>
</g>
</g>
<!-- Node4&#45;&gt;Node5 -->
<g id="edge4" class="edge"><title>Node4&#45;&gt;Node5</title>
<path fill="none" stroke="midnightblue" d="M599.519,-121.343C618.733,-137.603 647.457,-158.482 677,-167.5 814.988,-209.623 861.186,-183.095 1001,-147.5 1017.8,-143.224 1020.65,-138.263 1037,-132.5 1045.86,-129.375 1055.36,-126.335 1064.64,-123.527"/>
<polygon fill="midnightblue" stroke="midnightblue" points="601.733,-118.63 591.892,-114.705 597.137,-123.91 601.733,-118.63"/>
</g>
<!-- Node7 -->
<g id="node7" class="node"><title>Node7</title>
<g id="a_node7"><a xlink:href="classscram_1_1core_1_1Preprocessor.xhtml#a2b6705e815fa3d02119c405b483766d5" target="_top" xlink:title="Container of unique gates by semantics. ">
<polygon fill="white" stroke="black" points="845,-99 845,-118 1001,-118 1001,-99 845,-99"/>
<text text-anchor="middle" x="923" y="-106" font-family="Helvetica,sans-Serif" font-size="10.00">scram::core::Preprocessor::Run</text>
</a>
</g>
</g>
<!-- Node4&#45;&gt;Node7 -->
<g id="edge6" class="edge"><title>Node4&#45;&gt;Node7</title>
<path fill="none" stroke="midnightblue" d="M651.158,-101.455C708.44,-102.945 787.044,-104.99 844.82,-106.492"/>
<polygon fill="midnightblue" stroke="midnightblue" points="651.168,-97.9541 641.08,-101.193 650.986,-104.952 651.168,-97.9541"/>
</g>
<!-- Node10 -->
<g id="node10" class="node"><title>Node10</title>
<g id="a_node10"><a xlink:href="classscram_1_1core_1_1Preprocessor.xhtml#a3569bbcd5e863c750cdfa69115399600" target="_top" xlink:title="The final phase that cleans up the graph, and puts the structure of the graph ready for analysis...">
<polygon fill="white" stroke="black" points="857,-0.5 857,-30.5 989,-30.5 989,-0.5 857,-0.5"/>
<text text-anchor="start" x="865" y="-18.5" font-family="Helvetica,sans-Serif" font-size="10.00">scram::core::Preprocessor</text>
<text text-anchor="middle" x="923" y="-7.5" font-family="Helvetica,sans-Serif" font-size="10.00">::RunPhaseFive</text>
</a>
</g>
</g>
<!-- Node4&#45;&gt;Node10 -->
<g id="edge10" class="edge"><title>Node4&#45;&gt;Node10</title>
<path fill="none" stroke="midnightblue" d="M643.389,-81.9577C654.605,-79.0941 666.124,-76.1871 677,-73.5 737.894,-58.4559 807.502,-42.0533 856.921,-30.5423"/>
<polygon fill="midnightblue" stroke="midnightblue" points="642.453,-78.5843 633.635,-84.4565 644.191,-85.3654 642.453,-78.5843"/>
</g>
<!-- Node11 -->
<g id="node11" class="node"><title>Node11</title>
<g id="a_node11"><a xlink:href="classscram_1_1core_1_1Preprocessor.xhtml#a5c224938dfba861f061525658bd7b156" target="_top" xlink:title="Propagation of complements. ">
<polygon fill="white" stroke="black" points="857,-49.5 857,-79.5 989,-79.5 989,-49.5 857,-49.5"/>
<text text-anchor="start" x="865" y="-67.5" font-family="Helvetica,sans-Serif" font-size="10.00">scram::core::Preprocessor</text>
<text text-anchor="middle" x="923" y="-56.5" font-family="Helvetica,sans-Serif" font-size="10.00">::RunPhaseFour</text>
</a>
</g>
</g>
<!-- Node4&#45;&gt;Node11 -->
<g id="edge13" class="edge"><title>Node4&#45;&gt;Node11</title>
<path fill="none" stroke="midnightblue" d="M651.097,-91.9035C712.493,-85.6929 798.413,-77.0015 856.918,-71.0834"/>
<polygon fill="midnightblue" stroke="midnightblue" points="650.677,-88.428 641.08,-92.9168 651.381,-95.3925 650.677,-88.428"/>
</g>
<!-- Node12 -->
<g id="node12" class="node"><title>Node12</title>
<g id="a_node12"><a xlink:href="classscram_1_1core_1_1Preprocessor.xhtml#abf2c66723172a85b2ae87ef2a034cd1f" target="_top" xlink:title="Application of gate normalization. ">
<polygon fill="white" stroke="black" points="677,-128.5 677,-158.5 809,-158.5 809,-128.5 677,-128.5"/>
<text text-anchor="start" x="685" y="-146.5" font-family="Helvetica,sans-Serif" font-size="10.00">scram::core::Preprocessor</text>
<text text-anchor="middle" x="743" y="-135.5" font-family="Helvetica,sans-Serif" font-size="10.00">::RunPhaseThree</text>
</a>
</g>
</g>
<!-- Node4&#45;&gt;Node12 -->
<g id="edge16" class="edge"><title>Node4&#45;&gt;Node12</title>
<path fill="none" stroke="midnightblue" d="M642.378,-117.094C656.598,-120.863 671.496,-124.812 685.31,-128.474"/>
<polygon fill="midnightblue" stroke="midnightblue" points="643.226,-113.698 632.663,-114.519 641.433,-120.465 643.226,-113.698"/>
</g>
<!-- Node6 -->
<g id="node6" class="node"><title>Node6</title>
<g id="a_node6"><a xlink:href="classscram_1_1core_1_1Preprocessor_1_1GateSet.xhtml#ae00239084858979e096032c4cf2f05b9" target="_top" xlink:title="Inserts a gate into the set if it is semantically unique. ">
<polygon fill="white" stroke="black" points="1240,-93.5 1240,-123.5 1372,-123.5 1372,-93.5 1240,-93.5"/>
<text text-anchor="start" x="1248" y="-111.5" font-family="Helvetica,sans-Serif" font-size="10.00">scram::core::Preprocessor</text>
<text text-anchor="middle" x="1306" y="-100.5" font-family="Helvetica,sans-Serif" font-size="10.00">::GateSet::insert</text>
</a>
</g>
</g>
<!-- Node5&#45;&gt;Node6 -->
<g id="edge5" class="edge"><title>Node5&#45;&gt;Node6</title>
<path fill="none" stroke="midnightblue" d="M1196.99,-108.5C1211.26,-108.5 1226.08,-108.5 1240,-108.5"/>
<polygon fill="midnightblue" stroke="midnightblue" points="1196.71,-105 1186.71,-108.5 1196.71,-112 1196.71,-105"/>
</g>
<!-- Node7&#45;&gt;Node5 -->
<g id="edge8" class="edge"><title>Node7&#45;&gt;Node5</title>
<path fill="none" stroke="midnightblue" d="M1011.67,-108.5C1026.06,-108.5 1040.74,-108.5 1054.46,-108.5"/>
<polygon fill="midnightblue" stroke="midnightblue" points="1011.27,-105 1001.27,-108.5 1011.27,-112 1011.27,-105"/>
</g>
<!-- Node8 -->
<g id="node8" class="node"><title>Node8</title>
<g id="a_node8"><a xlink:href="classscram_1_1core_1_1Preprocessor.xhtml#a9caf4677a024ed935d831210b57b8ed9" target="_top" xlink:title="Gathers nodes in the sub&#45;graph. ">
<polygon fill="white" stroke="black" points="1054.5,-142.5 1054.5,-172.5 1186.5,-172.5 1186.5,-142.5 1054.5,-142.5"/>
<text text-anchor="start" x="1062.5" y="-160.5" font-family="Helvetica,sans-Serif" font-size="10.00">scram::core::Preprocessor</text>
<text text-anchor="middle" x="1120.5" y="-149.5" font-family="Helvetica,sans-Serif" font-size="10.00">::GatherNodes</text>
</a>
</g>
</g>
<!-- Node7&#45;&gt;Node8 -->
<g id="edge7" class="edge"><title>Node7&#45;&gt;Node8</title>
<path fill="none" stroke="midnightblue" d="M971.934,-120.514C998.35,-127.135 1031.39,-135.416 1059.51,-142.463"/>
<polygon fill="midnightblue" stroke="midnightblue" points="972.709,-117.1 962.158,-118.064 971.007,-123.89 972.709,-117.1"/>
</g>
<!-- Node9 -->
<g id="node9" class="node"><title>Node9</title>
<g id="a_node9"><a xlink:href="classscram_1_1core_1_1CustomPreprocessor_3_01Zbdd_01_4.xhtml#a5185075f852c647c7aa4313d23420ee5" target="_top" xlink:title="Performs preprocessing for analyses with Zero&#45;Suppressed Binary Decision Diagrams. ">
<polygon fill="white" stroke="black" points="1037,-44.5 1037,-74.5 1204,-74.5 1204,-44.5 1037,-44.5"/>
<text text-anchor="start" x="1045" y="-62.5" font-family="Helvetica,sans-Serif" font-size="10.00">scram::core::CustomPreprocessor</text>
<text text-anchor="middle" x="1120.5" y="-51.5" font-family="Helvetica,sans-Serif" font-size="10.00">&lt; Zbdd &gt;::Run</text>
</a>
</g>
</g>
<!-- Node7&#45;&gt;Node9 -->
<g id="edge9" class="edge"><title>Node7&#45;&gt;Node9</title>
<path fill="none" stroke="midnightblue" d="M971.934,-96.4858C998.35,-89.865 1031.39,-81.5839 1059.51,-74.537"/>
<polygon fill="midnightblue" stroke="midnightblue" points="971.007,-93.1097 962.158,-98.936 972.709,-99.8997 971.007,-93.1097"/>
</g>
<!-- Node10&#45;&gt;Node5 -->
<g id="edge11" class="edge"><title>Node10&#45;&gt;Node5</title>
<path fill="none" stroke="midnightblue" d="M993.51,-34.961C996.098,-36.3737 998.606,-37.8846 1001,-39.5 1021.94,-53.6332 1016,-69.4498 1037,-83.5 1042.72,-87.3282 1049.05,-90.5879 1055.58,-93.3596"/>
<polygon fill="midnightblue" stroke="midnightblue" points="994.971,-31.7795 984.451,-30.5266 991.894,-38.0667 994.971,-31.7795"/>
</g>
<!-- Node10&#45;&gt;Node9 -->
<g id="edge12" class="edge"><title>Node10&#45;&gt;Node9</title>
<path fill="none" stroke="midnightblue" d="M999.313,-32.4503C1016.89,-36.4071 1035.5,-40.5943 1052.68,-44.4615"/>
<polygon fill="midnightblue" stroke="midnightblue" points="999.623,-28.9326 989.099,-30.1514 998.086,-35.7617 999.623,-28.9326"/>
</g>
<!-- Node11&#45;&gt;Node5 -->
<g id="edge14" class="edge"><title>Node11&#45;&gt;Node5</title>
<path fill="none" stroke="midnightblue" d="M999.088,-81.3997C1017.31,-85.4999 1036.64,-89.8504 1054.35,-93.8376"/>
<polygon fill="midnightblue" stroke="midnightblue" points="999.623,-77.9326 989.099,-79.1514 998.086,-84.7617 999.623,-77.9326"/>
</g>
<!-- Node11&#45;&gt;Node9 -->
<g id="edge15" class="edge"><title>Node11&#45;&gt;Node9</title>
<path fill="none" stroke="midnightblue" d="M999.313,-62.5738C1011.64,-62.2587 1024.46,-61.9306 1036.95,-61.6113"/>
<polygon fill="midnightblue" stroke="midnightblue" points="999.006,-59.0805 989.099,-62.8351 999.185,-66.0782 999.006,-59.0805"/>
</g>
<!-- Node12&#45;&gt;Node5 -->
<g id="edge17" class="edge"><title>Node12&#45;&gt;Node5</title>
<path fill="none" stroke="midnightblue" d="M819.125,-140.741C870.458,-138.386 939.976,-134.276 1001,-127.5 1018.4,-125.569 1037.13,-122.859 1054.46,-120.09"/>
<polygon fill="midnightblue" stroke="midnightblue" points="818.942,-137.246 809.109,-141.189 819.255,-144.239 818.942,-137.246"/>
</g>
<!-- Node12&#45;&gt;Node7 -->
<g id="edge18" class="edge"><title>Node12&#45;&gt;Node7</title>
<path fill="none" stroke="midnightblue" d="M818.896,-128.773C837.402,-125.134 856.743,-121.331 873.608,-118.015"/>
<polygon fill="midnightblue" stroke="midnightblue" points="818.154,-125.352 809.018,-130.716 819.505,-132.22 818.154,-125.352"/>
</g>
</g>
</svg>
