<?xml version="1.0" encoding="UTF-8" standalone="no"?>
<!DOCTYPE svg PUBLIC "-//W3C//DTD SVG 1.1//EN"
 "http://www.w3.org/Graphics/SVG/1.1/DTD/svg11.dtd">
<!-- Generated by graphviz version 2.38.0 (20140413.2041)
 -->
<!-- Title: scram::core::Preprocessor::CreateNewModule Pages: 1 -->
<svg width="1711pt" height="386pt"
 viewBox="0.00 0.00 1711.00 385.80" xmlns="http://www.w3.org/2000/svg" xmlns:xlink="http://www.w3.org/1999/xlink">
<g id="graph0" class="graph" transform="scale(1 1) rotate(0) translate(4 381.802)">
<title>scram::core::Preprocessor::CreateNewModule</title>
<polygon fill="white" stroke="none" points="-4,4 -4,-381.802 1707,-381.802 1707,4 -4,4"/>
<!-- Node1 -->
<g id="node1" class="node"><title>Node1</title>
<polygon fill="#bfbfbf" stroke="black" points="0,-318.5 0,-348.5 132,-348.5 132,-318.5 0,-318.5"/>
<text text-anchor="start" x="8" y="-336.5" font-family="Helvetica,sans-Serif" font-size="10.00">scram::core::Preprocessor</text>
<text text-anchor="middle" x="66" y="-325.5" font-family="Helvetica,sans-Serif" font-size="10.00">::CreateNewModule</text>
</g>
<!-- Node2 -->
<g id="node2" class="node"><title>Node2</title>
<g id="a_node2"><a xlink:href="classscram_1_1core_1_1Preprocessor.xhtml#affe78b1e830afb73585affe0ada477be" target="_top" xlink:title="Creates new module gates from groups of modular arguments if the logic of the parent gate allows sub&#45;...">
<polygon fill="white" stroke="black" points="168,-318.5 168,-348.5 300,-348.5 300,-318.5 168,-318.5"/>
<text text-anchor="start" x="176" y="-336.5" font-family="Helvetica,sans-Serif" font-size="10.00">scram::core::Preprocessor</text>
<text text-anchor="middle" x="234" y="-325.5" font-family="Helvetica,sans-Serif" font-size="10.00">::CreateNewModules</text>
</a>
</g>
</g>
<!-- Node1&#45;&gt;Node2 -->
<g id="edge1" class="edge"><title>Node1&#45;&gt;Node2</title>
<path fill="none" stroke="midnightblue" d="M142.393,-333.5C150.869,-333.5 159.452,-333.5 167.784,-333.5"/>
<polygon fill="midnightblue" stroke="midnightblue" points="142.131,-330 132.131,-333.5 142.131,-337 142.131,-330"/>
</g>
<!-- Node3 -->
<g id="node3" class="node"><title>Node3</title>
<g id="a_node3"><a xlink:href="classscram_1_1core_1_1Preprocessor.xhtml#a4e97ffcda9c98ffc5aff93214f827c18" target="_top" xlink:title="Processes gate arguments found during the module detection. ">
<polygon fill="white" stroke="black" points="336,-275.5 336,-305.5 468,-305.5 468,-275.5 336,-275.5"/>
<text text-anchor="start" x="344" y="-293.5" font-family="Helvetica,sans-Serif" font-size="10.00">scram::core::Preprocessor</text>
<text text-anchor="middle" x="402" y="-282.5" font-family="Helvetica,sans-Serif" font-size="10.00">::ProcessModularArgs</text>
</a>
</g>
</g>
<!-- Node1&#45;&gt;Node3 -->
<g id="edge26" class="edge"><title>Node1&#45;&gt;Node3</title>
<path fill="none" stroke="midnightblue" d="M130.436,-316.101C142.818,-313.187 155.758,-310.474 168,-308.5 224.277,-299.425 288.963,-294.89 335.878,-292.644"/>
<polygon fill="midnightblue" stroke="midnightblue" points="129.545,-312.716 120.649,-318.47 131.192,-319.519 129.545,-312.716"/>
</g>
<!-- Node6 -->
<g id="node6" class="node"><title>Node6</title>
<g id="a_node6"><a xlink:href="classscram_1_1core_1_1Preprocessor.xhtml#a5ee92284aef510ce01a71c962d50f51c" target="_top" xlink:title="Runs the graph preprocessing. ">
<polygon fill="white" stroke="black" points="1385.5,-188.5 1385.5,-218.5 1517.5,-218.5 1517.5,-188.5 1385.5,-188.5"/>
<text text-anchor="start" x="1393.5" y="-206.5" font-family="Helvetica,sans-Serif" font-size="10.00">scram::core::Preprocessor</text>
<text text-anchor="middle" x="1451.5" y="-195.5" font-family="Helvetica,sans-Serif" font-size="10.00">::operator()</text>
</a>
</g>
</g>
<!-- Node1&#45;&gt;Node6 -->
<g id="edge25" class="edge"><title>Node1&#45;&gt;Node6</title>
<path fill="none" stroke="midnightblue" d="M133.526,-350.776C144.967,-353.325 156.783,-355.696 168,-357.5 270.618,-374.004 297.064,-377.5 401,-377.5 401,-377.5 401,-377.5 1075,-377.5 1191.45,-377.5 1229.8,-382.325 1332,-326.5 1381.18,-299.634 1422.33,-245.395 1440.5,-218.844"/>
<polygon fill="midnightblue" stroke="midnightblue" points="134.122,-347.322 123.593,-348.5 132.559,-354.146 134.122,-347.322"/>
</g>
<!-- Node2&#45;&gt;Node3 -->
<g id="edge2" class="edge"><title>Node2&#45;&gt;Node3</title>
<path fill="none" stroke="midnightblue" d="M303.064,-315.869C316.313,-312.437 330.086,-308.869 342.974,-305.531"/>
<polygon fill="midnightblue" stroke="midnightblue" points="301.862,-312.565 293.059,-318.461 303.617,-319.341 301.862,-312.565"/>
</g>
<!-- Node2&#45;&gt;Node6 -->
<g id="edge24" class="edge"><title>Node2&#45;&gt;Node6</title>
<path fill="none" stroke="midnightblue" d="M310.425,-334.564C378.119,-335.426 480.197,-336.5 569,-336.5 569,-336.5 569,-336.5 1075,-336.5 1191.04,-336.5 1225.36,-336.243 1332,-290.5 1373.05,-272.893 1413.35,-238.703 1434.75,-218.83"/>
<polygon fill="midnightblue" stroke="midnightblue" points="310.323,-331.062 300.278,-334.433 310.232,-338.062 310.323,-331.062"/>
</g>
<!-- Node4 -->
<g id="node4" class="node"><title>Node4</title>
<g id="a_node4"><a xlink:href="classscram_1_1core_1_1Preprocessor.xhtml#afbce0b5c45a445c3b70ae298b9518281" target="_top" xlink:title="Determines modules from original gates that have been already timed. ">
<polygon fill="white" stroke="black" points="504,-239.5 504,-269.5 636,-269.5 636,-239.5 504,-239.5"/>
<text text-anchor="start" x="512" y="-257.5" font-family="Helvetica,sans-Serif" font-size="10.00">scram::core::Preprocessor</text>
<text text-anchor="middle" x="570" y="-246.5" font-family="Helvetica,sans-Serif" font-size="10.00">::FindModules</text>
</a>
</g>
</g>
<!-- Node3&#45;&gt;Node4 -->
<g id="edge3" class="edge"><title>Node3&#45;&gt;Node4</title>
<path fill="none" stroke="midnightblue" d="M478.114,-274.21C486.681,-272.352 495.361,-270.47 503.784,-268.643"/>
<polygon fill="midnightblue" stroke="midnightblue" points="477.162,-270.835 468.131,-276.375 478.646,-277.676 477.162,-270.835"/>
</g>
<!-- Node3&#45;&gt;Node6 -->
<g id="edge23" class="edge"><title>Node3&#45;&gt;Node6</title>
<path fill="none" stroke="midnightblue" d="M478.415,-293.337C546.101,-295.637 648.175,-298.5 737,-298.5 737,-298.5 737,-298.5 1075,-298.5 1190.67,-298.5 1221.26,-290.895 1332,-257.5 1364.47,-247.709 1399.57,-230.852 1423.07,-218.572"/>
<polygon fill="midnightblue" stroke="midnightblue" points="478.383,-289.834 468.269,-292.987 478.142,-296.83 478.383,-289.834"/>
</g>
<!-- Node5 -->
<g id="node5" class="node"><title>Node5</title>
<g id="a_node5"><a xlink:href="classscram_1_1core_1_1Preprocessor.xhtml#aa9856913eee7b854abfbe8d8330566d3" target="_top" xlink:title="Traverses the PDAG to detect modules. ">
<polygon fill="white" stroke="black" points="672,-201.5 672,-231.5 804,-231.5 804,-201.5 672,-201.5"/>
<text text-anchor="start" x="680" y="-219.5" font-family="Helvetica,sans-Serif" font-size="10.00">scram::core::Preprocessor</text>
<text text-anchor="middle" x="738" y="-208.5" font-family="Helvetica,sans-Serif" font-size="10.00">::DetectModules</text>
</a>
</g>
</g>
<!-- Node4&#45;&gt;Node5 -->
<g id="edge4" class="edge"><title>Node4&#45;&gt;Node5</title>
<path fill="none" stroke="midnightblue" d="M646.114,-237.305C654.681,-235.344 663.361,-233.357 671.784,-231.429"/>
<polygon fill="midnightblue" stroke="midnightblue" points="645.098,-233.947 636.131,-239.59 646.66,-240.771 645.098,-233.947"/>
</g>
<!-- Node4&#45;&gt;Node6 -->
<g id="edge22" class="edge"><title>Node4&#45;&gt;Node6</title>
<path fill="none" stroke="midnightblue" d="M646.42,-256.628C714.11,-258.353 816.187,-260.5 905,-260.5 905,-260.5 905,-260.5 1075,-260.5 1186.93,-260.5 1315.52,-235.438 1389.47,-218.551"/>
<polygon fill="midnightblue" stroke="midnightblue" points="646.361,-253.125 636.274,-256.366 646.18,-260.123 646.361,-253.125"/>
</g>
<!-- Node5&#45;&gt;Node6 -->
<g id="edge5" class="edge"><title>Node5&#45;&gt;Node6</title>
<path fill="none" stroke="midnightblue" d="M814.628,-216.174C927.352,-215.53 1146.11,-213.674 1332,-208.5 1349.29,-208.019 1367.99,-207.315 1385.32,-206.586"/>
<polygon fill="midnightblue" stroke="midnightblue" points="814.366,-212.675 804.385,-216.23 814.405,-219.675 814.366,-212.675"/>
</g>
<!-- Node8 -->
<g id="node8" class="node"><title>Node8</title>
<g id="a_node8"><a xlink:href="classscram_1_1core_1_1Preprocessor.xhtml#a9d5f89471499508eb9e6c01ea43e0f15" target="_top" xlink:title="Preprocessing phase of the original structure of the graph. ">
<polygon fill="white" stroke="black" points="840,-103.5 840,-133.5 972,-133.5 972,-103.5 840,-103.5"/>
<text text-anchor="start" x="848" y="-121.5" font-family="Helvetica,sans-Serif" font-size="10.00">scram::core::Preprocessor</text>
<text text-anchor="middle" x="906" y="-110.5" font-family="Helvetica,sans-Serif" font-size="10.00">::RunPhaseTwo</text>
</a>
</g>
</g>
<!-- Node5&#45;&gt;Node8 -->
<g id="edge7" class="edge"><title>Node5&#45;&gt;Node8</title>
<path fill="none" stroke="midnightblue" d="M773.465,-196.153C805.016,-177.526 850.993,-150.383 879.397,-133.615"/>
<polygon fill="midnightblue" stroke="midnightblue" points="771.406,-193.304 764.574,-201.402 774.964,-199.332 771.406,-193.304"/>
</g>
<!-- Node7 -->
<g id="node7" class="node"><title>Node7</title>
<g id="a_node7"><a xlink:href="classscram_1_1core_1_1Preprocessor_1_1GateSet.xhtml#ae00239084858979e096032c4cf2f05b9" target="_top" xlink:title="Inserts a gate into the set if it is semantically unique. ">
<polygon fill="white" stroke="black" points="1571,-188.5 1571,-218.5 1703,-218.5 1703,-188.5 1571,-188.5"/>
<text text-anchor="start" x="1579" y="-206.5" font-family="Helvetica,sans-Serif" font-size="10.00">scram::core::Preprocessor</text>
<text text-anchor="middle" x="1637" y="-195.5" font-family="Helvetica,sans-Serif" font-size="10.00">::GateSet::insert</text>
</a>
</g>
</g>
<!-- Node6&#45;&gt;Node7 -->
<g id="edge6" class="edge"><title>Node6&#45;&gt;Node7</title>
<path fill="none" stroke="midnightblue" d="M1527.99,-203.5C1542.26,-203.5 1557.08,-203.5 1571,-203.5"/>
<polygon fill="midnightblue" stroke="midnightblue" points="1527.71,-200 1517.71,-203.5 1527.71,-207 1527.71,-200"/>
</g>
<!-- Node8&#45;&gt;Node6 -->
<g id="edge8" class="edge"><title>Node8&#45;&gt;Node6</title>
<path fill="none" stroke="midnightblue" d="M942.608,-138.316C961.471,-147.875 985.367,-158.536 1008,-164.5 1138.69,-198.937 1297.82,-204.502 1385.2,-204.586"/>
<polygon fill="midnightblue" stroke="midnightblue" points="943.997,-135.094 933.508,-133.594 940.772,-141.307 943.997,-135.094"/>
</g>
<!-- Node9 -->
<g id="node9" class="node"><title>Node9</title>
<g id="a_node9"><a xlink:href="classscram_1_1core_1_1Preprocessor.xhtml#a2b6705e815fa3d02119c405b483766d5" target="_top" xlink:title="Container of unique gates by semantics. ">
<polygon fill="white" stroke="black" points="1176,-99 1176,-118 1332,-118 1332,-99 1176,-99"/>
<text text-anchor="middle" x="1254" y="-106" font-family="Helvetica,sans-Serif" font-size="10.00">scram::core::Preprocessor::Run</text>
</a>
</g>
</g>
<!-- Node8&#45;&gt;Node9 -->
<g id="edge9" class="edge"><title>Node8&#45;&gt;Node9</title>
<path fill="none" stroke="midnightblue" d="M982.318,-116.253C990.978,-115.998 999.682,-115.742 1008,-115.5 1064.14,-113.864 1127.53,-112.054 1175.76,-110.685"/>
<polygon fill="midnightblue" stroke="midnightblue" points="982.089,-112.759 972.197,-116.553 982.296,-119.756 982.089,-112.759"/>
</g>
<!-- Node12 -->
<g id="node12" class="node"><title>Node12</title>
<g id="a_node12"><a xlink:href="classscram_1_1core_1_1Preprocessor.xhtml#a3569bbcd5e863c750cdfa69115399600" target="_top" xlink:title="The final phase that cleans up the graph, and puts the structure of the graph ready for analysis...">
<polygon fill="white" stroke="black" points="1188,-49.5 1188,-79.5 1320,-79.5 1320,-49.5 1188,-49.5"/>
<text text-anchor="start" x="1196" y="-67.5" font-family="Helvetica,sans-Serif" font-size="10.00">scram::core::Preprocessor</text>
<text text-anchor="middle" x="1254" y="-56.5" font-family="Helvetica,sans-Serif" font-size="10.00">::RunPhaseFive</text>
</a>
</g>
</g>
<!-- Node8&#45;&gt;Node12 -->
<g id="edge13" class="edge"><title>Node8&#45;&gt;Node12</title>
<path fill="none" stroke="midnightblue" d="M982.097,-106.78C1043.49,-97.1977 1129.41,-83.7881 1187.92,-74.6572"/>
<polygon fill="midnightblue" stroke="midnightblue" points="981.421,-103.343 972.08,-108.343 982.5,-110.259 981.421,-103.343"/>
</g>
<!-- Node13 -->
<g id="node13" class="node"><title>Node13</title>
<g id="a_node13"><a xlink:href="classscram_1_1core_1_1Preprocessor.xhtml#a5c224938dfba861f061525658bd7b156" target="_top" xlink:title="Propagation of complements. ">
<polygon fill="white" stroke="black" points="1188,-0.5 1188,-30.5 1320,-30.5 1320,-0.5 1188,-0.5"/>
<text text-anchor="start" x="1196" y="-18.5" font-family="Helvetica,sans-Serif" font-size="10.00">scram::core::Preprocessor</text>
<text text-anchor="middle" x="1254" y="-7.5" font-family="Helvetica,sans-Serif" font-size="10.00">::RunPhaseFour</text>
</a>
</g>
</g>
<!-- Node8&#45;&gt;Node13 -->
<g id="edge16" class="edge"><title>Node8&#45;&gt;Node13</title>
<path fill="none" stroke="midnightblue" d="M954.193,-99.6222C971.043,-93.1812 990.249,-86.1781 1008,-80.5 1068.88,-61.0257 1139.55,-42.7251 1189.3,-30.5357"/>
<polygon fill="midnightblue" stroke="midnightblue" points="952.642,-96.4691 944.573,-103.335 955.163,-103 952.642,-96.4691"/>
</g>
<!-- Node14 -->
<g id="node14" class="node"><title>Node14</title>
<g id="a_node14"><a xlink:href="classscram_1_1core_1_1Preprocessor.xhtml#abf2c66723172a85b2ae87ef2a034cd1f" target="_top" xlink:title="Application of gate normalization. ">
<polygon fill="white" stroke="black" points="1008,-125.5 1008,-155.5 1140,-155.5 1140,-125.5 1008,-125.5"/>
<text text-anchor="start" x="1016" y="-143.5" font-family="Helvetica,sans-Serif" font-size="10.00">scram::core::Preprocessor</text>
<text text-anchor="middle" x="1074" y="-132.5" font-family="Helvetica,sans-Serif" font-size="10.00">::RunPhaseThree</text>
</a>
</g>
</g>
<!-- Node8&#45;&gt;Node14 -->
<g id="edge19" class="edge"><title>Node8&#45;&gt;Node14</title>
<path fill="none" stroke="midnightblue" d="M982.114,-128.455C990.681,-129.59 999.361,-130.741 1007.78,-131.857"/>
<polygon fill="midnightblue" stroke="midnightblue" points="982.504,-124.976 972.131,-127.132 981.585,-131.915 982.504,-124.976"/>
</g>
<!-- Node9&#45;&gt;Node6 -->
<g id="edge11" class="edge"><title>Node9&#45;&gt;Node6</title>
<path fill="none" stroke="midnightblue" d="M1301.35,-120.989C1311.62,-124.292 1322.32,-128.164 1332,-132.5 1367.46,-148.377 1405.49,-172.592 1428.65,-188.234"/>
<polygon fill="midnightblue" stroke="midnightblue" points="1302.28,-117.613 1291.69,-118 1300.21,-124.3 1302.28,-117.613"/>
</g>
<!-- Node10 -->
<g id="node10" class="node"><title>Node10</title>
<g id="a_node10"><a xlink:href="classscram_1_1core_1_1Preprocessor.xhtml#a9caf4677a024ed935d831210b57b8ed9" target="_top" xlink:title="Gathers nodes in the sub&#45;graph. ">
<polygon fill="white" stroke="black" points="1385.5,-95.5 1385.5,-125.5 1517.5,-125.5 1517.5,-95.5 1385.5,-95.5"/>
<text text-anchor="start" x="1393.5" y="-113.5" font-family="Helvetica,sans-Serif" font-size="10.00">scram::core::Preprocessor</text>
<text text-anchor="middle" x="1451.5" y="-102.5" font-family="Helvetica,sans-Serif" font-size="10.00">::GatherNodes</text>
</a>
</g>
</g>
<!-- Node9&#45;&gt;Node10 -->
<g id="edge10" class="edge"><title>Node9&#45;&gt;Node10</title>
<path fill="none" stroke="midnightblue" d="M1342.67,-109.397C1357.06,-109.544 1371.74,-109.694 1385.46,-109.835"/>
<polygon fill="midnightblue" stroke="midnightblue" points="1342.3,-105.893 1332.27,-109.29 1342.23,-112.893 1342.3,-105.893"/>
</g>
<!-- Node11 -->
<g id="node11" class="node"><title>Node11</title>
<g id="a_node11"><a xlink:href="classscram_1_1core_1_1CustomPreprocessor_3_01Zbdd_01_4.xhtml#a5185075f852c647c7aa4313d23420ee5" target="_top" xlink:title="Performs preprocessing for analyses with Zero&#45;Suppressed Binary Decision Diagrams. ">
<polygon fill="white" stroke="black" points="1368,-46.5 1368,-76.5 1535,-76.5 1535,-46.5 1368,-46.5"/>
<text text-anchor="start" x="1376" y="-64.5" font-family="Helvetica,sans-Serif" font-size="10.00">scram::core::CustomPreprocessor</text>
<text text-anchor="middle" x="1451.5" y="-53.5" font-family="Helvetica,sans-Serif" font-size="10.00">&lt; Zbdd &gt;::Run</text>
</a>
</g>
</g>
<!-- Node9&#45;&gt;Node11 -->
<g id="edge12" class="edge"><title>Node9&#45;&gt;Node11</title>
<path fill="none" stroke="midnightblue" d="M1304.33,-96.6405C1329.69,-90.5439 1360.87,-83.0488 1387.9,-76.5488"/>
<polygon fill="midnightblue" stroke="midnightblue" points="1303.47,-93.2482 1294.56,-98.9888 1305.1,-100.054 1303.47,-93.2482"/>
</g>
<!-- Node12&#45;&gt;Node6 -->
<g id="edge14" class="edge"><title>Node12&#45;&gt;Node6</title>
<path fill="none" stroke="midnightblue" d="M1322.98,-84.0009C1326.11,-85.6919 1329.14,-87.5215 1332,-89.5 1353.07,-104.067 1350.09,-116.193 1368,-134.5 1387.72,-154.653 1412.88,-175.038 1430.2,-188.37"/>
<polygon fill="midnightblue" stroke="midnightblue" points="1324.43,-80.8155 1313.9,-79.5937 1321.37,-87.1118 1324.43,-80.8155"/>
</g>
<!-- Node12&#45;&gt;Node11 -->
<g id="edge15" class="edge"><title>Node12&#45;&gt;Node11</title>
<path fill="none" stroke="midnightblue" d="M1330.31,-63.3443C1342.64,-63.1552 1355.46,-62.9584 1367.95,-62.7668"/>
<polygon fill="midnightblue" stroke="midnightblue" points="1330.04,-59.8479 1320.1,-63.501 1330.15,-66.8471 1330.04,-59.8479"/>
</g>
<!-- Node13&#45;&gt;Node6 -->
<g id="edge17" class="edge"><title>Node13&#45;&gt;Node6</title>
<path fill="none" stroke="midnightblue" d="M1328.05,-36.1097C1329.42,-37.1829 1330.74,-38.3121 1332,-39.5 1364.87,-70.454 1341.83,-97.7058 1368,-134.5 1383.69,-156.563 1408.08,-175.769 1426.27,-188.276"/>
<polygon fill="midnightblue" stroke="midnightblue" points="1329.99,-33.1959 1319.73,-30.5532 1326.1,-39.0173 1329.99,-33.1959"/>
</g>
<!-- Node13&#45;&gt;Node11 -->
<g id="edge18" class="edge"><title>Node13&#45;&gt;Node11</title>
<path fill="none" stroke="midnightblue" d="M1328.83,-32.8729C1347.87,-37.3521 1368.2,-42.1346 1386.68,-46.4826"/>
<polygon fill="midnightblue" stroke="midnightblue" points="1329.55,-29.4456 1319.01,-30.5621 1327.95,-36.2596 1329.55,-29.4456"/>
</g>
<!-- Node14&#45;&gt;Node6 -->
<g id="edge20" class="edge"><title>Node14&#45;&gt;Node6</title>
<path fill="none" stroke="midnightblue" d="M1150.17,-146.175C1201.67,-150.818 1271.36,-158.591 1332,-170.5 1355.68,-175.15 1381.54,-182.125 1403.05,-188.466"/>
<polygon fill="midnightblue" stroke="midnightblue" points="1150.39,-142.681 1140.12,-145.287 1149.78,-149.654 1150.39,-142.681"/>
</g>
<!-- Node14&#45;&gt;Node9 -->
<g id="edge21" class="edge"><title>Node14&#45;&gt;Node9</title>
<path fill="none" stroke="midnightblue" d="M1149.86,-127.041C1166.75,-124.005 1184.34,-120.843 1200.11,-118.008"/>
<polygon fill="midnightblue" stroke="midnightblue" points="1149.24,-123.597 1140.02,-128.811 1150.48,-130.487 1149.24,-123.597"/>
</g>
</g>
</svg>
