<?xml version="1.0" encoding="UTF-8" standalone="no"?>
<!DOCTYPE svg PUBLIC "-//W3C//DTD SVG 1.1//EN"
 "http://www.w3.org/Graphics/SVG/1.1/DTD/svg11.dtd">
<!-- Generated by graphviz version 2.38.0 (20140413.2041)
 -->
<!-- Title: scram::core::Preprocessor::DetectModules Pages: 1 -->
<!--zoomable 225 -->
<svg id="main" version="1.1" xmlns="http://www.w3.org/2000/svg" xmlns:xlink="http://www.w3.org/1999/xlink" xml:space="preserve" onload="init(evt)">
<style type="text/css"><![CDATA[
.edge:hover path { stroke: red; }
.edge:hover polygon { stroke: red; fill: red; }
]]></style>
<script type="text/javascript"><![CDATA[
var edges = document.getElementsByTagName('g');
if (edges && edges.length) {
  for (var i=0;i<edges.length;i++) {
    if (edges[i].id.substr(0,4)=='edge') {
      edges[i].setAttribute('class','edge');
    }
  }
}
]]></script>
        <defs>
                <circle id="rim" cx="0" cy="0" r="7"/>
                <circle id="rim2" cx="0" cy="0" r="3.5"/>
                <g id="zoomPlus">
                        <use xlink:href="#rim" fill="#404040">
                                <set attributeName="fill" to="#808080" begin="zoomplus.mouseover" end="zoomplus.mouseout"/>
                        </use>
                        <path d="M-4,0h8M0,-4v8" fill="none" stroke="white" stroke-width="1.5" pointer-events="none"/>
                </g>
                <g id="zoomMin">
                        <use xlink:href="#rim" fill="#404040">
                                <set attributeName="fill" to="#808080" begin="zoomminus.mouseover" end="zoomminus.mouseout"/>
                        </use>
                        <path d="M-4,0h8" fill="none" stroke="white" stroke-width="1.5" pointer-events="none"/>
                </g>
                <g id="dirArrow">
                        <path fill="none" stroke="white" stroke-width="1.5" d="M0,-3.0v7 M-2.5,-0.5L0,-3.0L2.5,-0.5"/>
                </g>
               <g id="resetDef">
                       <use xlink:href="#rim2" fill="#404040">
                               <set attributeName="fill" to="#808080" begin="reset.mouseover" end="reset.mouseout"/>
                       </use>
               </g>
        </defs>

<script type="text/javascript">
var viewWidth = 812;
var viewHeight = 225;
var sectionId = 'dynsection-27';
</script>
<script xlink:href="svgpan.js"/>
<svg id="graph" class="graph">
<g id="viewport">
<title>scram::core::Preprocessor::DetectModules</title>
<polygon fill="white" stroke="none" points="-4,4 -4,-220.5 808,-220.5 808,4 -4,4"/>
<!-- Node1 -->
<g id="node1" class="node"><title>Node1</title>
<polygon fill="#bfbfbf" stroke="black" points="0,-88 0,-118 132,-118 132,-88 0,-88"/>
<text text-anchor="start" x="8" y="-106" font-family="Helvetica,sans-Serif" font-size="10.00">scram::core::Preprocessor</text>
<text text-anchor="middle" x="66" y="-95" font-family="Helvetica,sans-Serif" font-size="10.00">::DetectModules</text>
</g>
<!-- Node2 -->
<g id="node2" class="node"><title>Node2</title>
<g id="a_node2"><a xlink:href="classscram_1_1core_1_1Preprocessor.xhtml#ac83a0afe1f22761907f2a017abd96268" target="_top" xlink:title="Traverses the given gate and assigns time of visit to nodes. ">
<polygon fill="white" stroke="black" points="168,-186 168,-216 300,-216 300,-186 168,-186"/>
<text text-anchor="start" x="176" y="-204" font-family="Helvetica,sans-Serif" font-size="10.00">scram::core::Preprocessor</text>
<text text-anchor="middle" x="234" y="-193" font-family="Helvetica,sans-Serif" font-size="10.00">::AssignTiming</text>
</a>
</g>
</g>
<!-- Node1&#45;&gt;Node2 -->
<g id="edge1" class="edge"><title>Node1&#45;&gt;Node2</title>
<path fill="none" stroke="midnightblue" d="M84.5895,-118.265C103.978,-134.503 136.596,-160.128 168,-177 171.209,-178.724 174.568,-180.376 177.997,-181.949"/>
<polygon fill="midnightblue" stroke="midnightblue" points="176.614,-185.164 187.182,-185.922 179.394,-178.739 176.614,-185.164"/>
</g>
<!-- Node3 -->
<g id="node3" class="node"><title>Node3</title>
<g id="a_node3"><a xlink:href="classscram_1_1core_1_1Pdag.xhtml#aa883d0e58b9faab69186bec03574c633" target="_top" xlink:title="Clears marks from graph nodes. ">
<polygon fill="white" stroke="black" points="182.5,-137 182.5,-167 285.5,-167 285.5,-137 182.5,-137"/>
<text text-anchor="start" x="190.5" y="-155" font-family="Helvetica,sans-Serif" font-size="10.00">scram::core::Pdag::</text>
<text text-anchor="middle" x="234" y="-144" font-family="Helvetica,sans-Serif" font-size="10.00">Clear</text>
</a>
</g>
</g>
<!-- Node1&#45;&gt;Node3 -->
<g id="edge2" class="edge"><title>Node1&#45;&gt;Node3</title>
<path fill="none" stroke="midnightblue" d="M118.16,-118.101C135.361,-123.179 154.712,-128.891 172.558,-134.159"/>
<polygon fill="midnightblue" stroke="midnightblue" points="171.713,-137.558 182.294,-137.033 173.694,-130.845 171.713,-137.558"/>
</g>
<!-- Node4 -->
<g id="node4" class="node"><title>Node4</title>
<g id="a_node4"><a xlink:href="classscram_1_1core_1_1Preprocessor.xhtml#afbce0b5c45a445c3b70ae298b9518281" target="_top" xlink:title="Determines modules from original gates that have been already timed. ">
<polygon fill="white" stroke="black" points="168,-88 168,-118 300,-118 300,-88 168,-88"/>
<text text-anchor="start" x="176" y="-106" font-family="Helvetica,sans-Serif" font-size="10.00">scram::core::Preprocessor</text>
<text text-anchor="middle" x="234" y="-95" font-family="Helvetica,sans-Serif" font-size="10.00">::FindModules</text>
</a>
</g>
</g>
<!-- Node1&#45;&gt;Node4 -->
<g id="edge3" class="edge"><title>Node1&#45;&gt;Node4</title>
<path fill="none" stroke="midnightblue" d="M132.131,-103C140.461,-103 149.044,-103 157.521,-103"/>
<polygon fill="midnightblue" stroke="midnightblue" points="157.784,-106.5 167.784,-103 157.784,-99.5001 157.784,-106.5"/>
</g>
<!-- Node10 -->
<g id="node10" class="node"><title>Node10</title>
<g id="a_node10"><a xlink:href="classscram_1_1core_1_1Pdag.xhtml#aa43a9026583f7a629fe0a3f17440f55b" target="_top" xlink:title="scram::core::Pdag::\lHasNullGates">
<polygon fill="white" stroke="black" points="182.5,-39 182.5,-69 285.5,-69 285.5,-39 182.5,-39"/>
<text text-anchor="start" x="190.5" y="-57" font-family="Helvetica,sans-Serif" font-size="10.00">scram::core::Pdag::</text>
<text text-anchor="middle" x="234" y="-46" font-family="Helvetica,sans-Serif" font-size="10.00">HasNullGates</text>
</a>
</g>
</g>
<!-- Node1&#45;&gt;Node10 -->
<g id="edge10" class="edge"><title>Node1&#45;&gt;Node10</title>
<path fill="none" stroke="midnightblue" d="M118.16,-87.8986C135.361,-82.8212 154.712,-77.109 172.558,-71.8413"/>
<polygon fill="midnightblue" stroke="midnightblue" points="173.694,-75.1553 182.294,-68.9673 171.713,-68.4416 173.694,-75.1553"/>
</g>
<!-- Node11 -->
<g id="node11" class="node"><title>Node11</title>
<g id="a_node11"><a xlink:href="classscram_1_1core_1_1Pdag.xhtml#ae9407efbb00e5f28aecb40db2ab7925b" target="_top" xlink:title="scram::core::Pdag::root">
<polygon fill="white" stroke="black" points="174.5,-0.5 174.5,-19.5 293.5,-19.5 293.5,-0.5 174.5,-0.5"/>
<text text-anchor="middle" x="234" y="-7.5" font-family="Helvetica,sans-Serif" font-size="10.00">scram::core::Pdag::root</text>
</a>
</g>
</g>
<!-- Node1&#45;&gt;Node11 -->
<g id="edge11" class="edge"><title>Node1&#45;&gt;Node11</title>
<path fill="none" stroke="midnightblue" d="M84.1008,-87.9193C103.326,-71.6421 136.047,-45.9176 168,-30 173.281,-27.3693 178.976,-25.0037 184.724,-22.8997"/>
<polygon fill="midnightblue" stroke="midnightblue" points="186.047,-26.1466 194.381,-19.6055 183.787,-19.5215 186.047,-26.1466"/>
</g>
<!-- Node5 -->
<g id="node5" class="node"><title>Node5</title>
<g id="a_node5"><a xlink:href="classscram_1_1core_1_1Preprocessor.xhtml#a4e97ffcda9c98ffc5aff93214f827c18" target="_top" xlink:title="Processes gate arguments found during the module detection. ">
<polygon fill="white" stroke="black" points="336,-88 336,-118 468,-118 468,-88 336,-88"/>
<text text-anchor="start" x="344" y="-106" font-family="Helvetica,sans-Serif" font-size="10.00">scram::core::Preprocessor</text>
<text text-anchor="middle" x="402" y="-95" font-family="Helvetica,sans-Serif" font-size="10.00">::ProcessModularArgs</text>
</a>
</g>
</g>
<!-- Node4&#45;&gt;Node5 -->
<g id="edge4" class="edge"><title>Node4&#45;&gt;Node5</title>
<path fill="none" stroke="midnightblue" d="M300.131,-103C308.461,-103 317.044,-103 325.521,-103"/>
<polygon fill="midnightblue" stroke="midnightblue" points="325.784,-106.5 335.784,-103 325.784,-99.5001 325.784,-106.5"/>
</g>
<!-- Node6 -->
<g id="node6" class="node"><title>Node6</title>
<g id="a_node6"><a xlink:href="classscram_1_1core_1_1Preprocessor.xhtml#a434534b6a7c3fccc82c073e6aced90b1" target="_top" xlink:title="Creates a new module as an argument of an existing gate if the logic of the existing parent gate allo...">
<polygon fill="white" stroke="black" points="672,-86 672,-116 804,-116 804,-86 672,-86"/>
<text text-anchor="start" x="680" y="-104" font-family="Helvetica,sans-Serif" font-size="10.00">scram::core::Preprocessor</text>
<text text-anchor="middle" x="738" y="-93" font-family="Helvetica,sans-Serif" font-size="10.00">::CreateNewModule</text>
</a>
</g>
</g>
<!-- Node5&#45;&gt;Node6 -->
<g id="edge5" class="edge"><title>Node5&#45;&gt;Node6</title>
<path fill="none" stroke="midnightblue" d="M425.91,-118.179C445.659,-130.297 475.423,-146.314 504,-153 561.124,-166.366 578.983,-166.816 636,-153 661.317,-146.865 687.396,-133.219 706.711,-121.445"/>
<polygon fill="midnightblue" stroke="midnightblue" points="708.736,-124.306 715.349,-116.029 705.017,-118.375 708.736,-124.306"/>
</g>
<!-- Node7 -->
<g id="node7" class="node"><title>Node7</title>
<g id="a_node7"><a xlink:href="classscram_1_1core_1_1Preprocessor.xhtml#aa65bdffb78291a0e41a34d34bf3fa198" target="_top" xlink:title="Checks if a group of modular arguments share anything with non&#45;modular arguments. ...">
<polygon fill="white" stroke="black" points="504,-113 504,-143 636,-143 636,-113 504,-113"/>
<text text-anchor="start" x="512" y="-131" font-family="Helvetica,sans-Serif" font-size="10.00">scram::core::Preprocessor</text>
<text text-anchor="middle" x="570" y="-120" font-family="Helvetica,sans-Serif" font-size="10.00">::FilterModularArgs</text>
</a>
</g>
</g>
<!-- Node5&#45;&gt;Node7 -->
<g id="edge6" class="edge"><title>Node5&#45;&gt;Node7</title>
<path fill="none" stroke="midnightblue" d="M468.131,-112.809C476.553,-114.077 485.232,-115.384 493.8,-116.675"/>
<polygon fill="midnightblue" stroke="midnightblue" points="493.374,-120.15 503.784,-118.178 494.417,-113.228 493.374,-120.15"/>
</g>
<!-- Node8 -->
<g id="node8" class="node"><title>Node8</title>
<g id="a_node8"><a xlink:href="classscram_1_1core_1_1Preprocessor.xhtml#a5c10e807e558b06a1573c08ed13e205e" target="_top" xlink:title="Groups modular arguments by their common elements. ">
<polygon fill="white" stroke="black" points="504,-64 504,-94 636,-94 636,-64 504,-64"/>
<text text-anchor="start" x="512" y="-82" font-family="Helvetica,sans-Serif" font-size="10.00">scram::core::Preprocessor</text>
<text text-anchor="middle" x="570" y="-71" font-family="Helvetica,sans-Serif" font-size="10.00">::GroupModularArgs</text>
</a>
</g>
</g>
<!-- Node5&#45;&gt;Node8 -->
<g id="edge7" class="edge"><title>Node5&#45;&gt;Node8</title>
<path fill="none" stroke="midnightblue" d="M468.131,-93.5834C476.553,-92.3658 485.232,-91.111 493.8,-89.8723"/>
<polygon fill="midnightblue" stroke="midnightblue" points="494.388,-93.3238 503.784,-88.4288 493.386,-86.3958 494.388,-93.3238"/>
</g>
<!-- Node9 -->
<g id="node9" class="node"><title>Node9</title>
<g id="a_node9"><a xlink:href="classscram_1_1core_1_1Preprocessor.xhtml#affe78b1e830afb73585affe0ada477be" target="_top" xlink:title="Creates new module gates from groups of modular arguments if the logic of the parent gate allows sub&#45;...">
<polygon fill="white" stroke="black" points="504,-15 504,-45 636,-45 636,-15 504,-15"/>
<text text-anchor="start" x="512" y="-33" font-family="Helvetica,sans-Serif" font-size="10.00">scram::core::Preprocessor</text>
<text text-anchor="middle" x="570" y="-22" font-family="Helvetica,sans-Serif" font-size="10.00">::CreateNewModules</text>
</a>
</g>
</g>
<!-- Node5&#45;&gt;Node9 -->
<g id="edge8" class="edge"><title>Node5&#45;&gt;Node9</title>
<path fill="none" stroke="midnightblue" d="M433.22,-87.8947C453.145,-78.1199 479.915,-65.3368 504,-55 508.739,-52.9659 513.704,-50.9156 518.687,-48.9109"/>
<polygon fill="midnightblue" stroke="midnightblue" points="520.23,-52.0645 528.239,-45.1284 517.653,-45.5562 520.23,-52.0645"/>
</g>
<!-- Node9&#45;&gt;Node6 -->
<g id="edge9" class="edge"><title>Node9&#45;&gt;Node6</title>
<path fill="none" stroke="midnightblue" d="M611.372,-45.0942C619.559,-48.2767 628.084,-51.6787 636,-55 655.82,-63.3162 677.545,-73.1194 695.751,-81.5346"/>
<polygon fill="midnightblue" stroke="midnightblue" points="694.379,-84.7561 704.923,-85.7935 697.327,-78.4072 694.379,-84.7561"/>
</g>
</g>
</svg>
        <g id="navigator" transform="translate(0 0)" fill="#404254">
                <rect fill="#f2f5e9" fill-opacity="0.5" stroke="#606060" stroke-width=".5" x="0" y="0" width="60" height="60"/>
                <use id="zoomplus" xlink:href="#zoomPlus" x="17" y="9" onmousedown="handleZoom(evt,'in')"/>
                <use id="zoomminus" xlink:href="#zoomMin" x="42" y="9" onmousedown="handleZoom(evt,'out')"/>
                <use id="reset" xlink:href="#resetDef" x="30" y="36" onmousedown="handleReset()"/>
                <g id="arrowUp" xlink:href="#dirArrow" transform="translate(30 24)" onmousedown="handlePan(0,-1)">
                  <use xlink:href="#rim" fill="#404040">
                        <set attributeName="fill" to="#808080" begin="arrowUp.mouseover" end="arrowUp.mouseout"/>
                  </use>
                  <path fill="none" stroke="white" stroke-width="1.5" d="M0,-3.0v7 M-2.5,-0.5L0,-3.0L2.5,-0.5"/>
                </g>
                <g id="arrowRight" xlink:href="#dirArrow" transform="rotate(90) translate(36 -43)" onmousedown="handlePan(1,0)">
                  <use xlink:href="#rim" fill="#404040">
                        <set attributeName="fill" to="#808080" begin="arrowRight.mouseover" end="arrowRight.mouseout"/>
                  </use>
                  <path fill="none" stroke="white" stroke-width="1.5" d="M0,-3.0v7 M-2.5,-0.5L0,-3.0L2.5,-0.5"/>
                </g>
                <g id="arrowDown" xlink:href="#dirArrow" transform="rotate(180) translate(-30 -48)" onmousedown="handlePan(0,1)">
                  <use xlink:href="#rim" fill="#404040">
                        <set attributeName="fill" to="#808080" begin="arrowDown.mouseover" end="arrowDown.mouseout"/>
                  </use>
                  <path fill="none" stroke="white" stroke-width="1.5" d="M0,-3.0v7 M-2.5,-0.5L0,-3.0L2.5,-0.5"/>
                </g>
                <g id="arrowLeft" xlink:href="#dirArrow" transform="rotate(270) translate(-36 17)" onmousedown="handlePan(-1,0)">
                  <use xlink:href="#rim" fill="#404040">
                        <set attributeName="fill" to="#808080" begin="arrowLeft.mouseover" end="arrowLeft.mouseout"/>
                  </use>
                  <path fill="none" stroke="white" stroke-width="1.5" d="M0,-3.0v7 M-2.5,-0.5L0,-3.0L2.5,-0.5"/>
                </g>
        </g>
        <svg viewBox="0 0 15 15" width="100%" height="30px" preserveAspectRatio="xMaxYMin meet">
         <g id="arrow_out" transform="scale(0.3 0.3)">
          <a xlink:href="classscram_1_1core_1_1Preprocessor_aa9856913eee7b854abfbe8d8330566d3_cgraph_org.svg" target="_base">
           <rect id="button" ry="5" rx="5" y="6" x="6" height="38" width="38"
                fill="#f2f5e9" fill-opacity="0.5" stroke="#606060" stroke-width="1.0"/>
           <path id="arrow"
             d="M 11.500037,31.436501 C 11.940474,20.09759 22.043105,11.32322 32.158766,21.979434 L 37.068811,17.246167 C 37.068811,17.246167 37.088388,32 37.088388,32 L 22.160133,31.978069 C 22.160133,31.978069 26.997745,27.140456 26.997745,27.140456 C 18.528582,18.264221 13.291696,25.230495 11.500037,31.436501 z"
             style="fill:#404040;"/>
          </a>
         </g>
        </svg>
</svg>
