<?xml version="1.0" encoding="UTF-8" standalone="no"?>
<!DOCTYPE svg PUBLIC "-//W3C//DTD SVG 1.1//EN"
 "http://www.w3.org/Graphics/SVG/1.1/DTD/svg11.dtd">
<!-- Generated by graphviz version 2.38.0 (20140413.2041)
 -->
<!-- Title: scram::core::Settings::num_trials Pages: 1 -->
<svg width="301pt" height="78pt"
 viewBox="0.00 0.00 301.00 77.50" xmlns="http://www.w3.org/2000/svg" xmlns:xlink="http://www.w3.org/1999/xlink">
<g id="graph0" class="graph" transform="scale(1 1) rotate(0) translate(4 73.5)">
<title>scram::core::Settings::num_trials</title>
<polygon fill="white" stroke="none" points="-4,4 -4,-73.5 297,-73.5 297,4 -4,4"/>
<!-- Node1 -->
<g id="node1" class="node"><title>Node1</title>
<polygon fill="#bfbfbf" stroke="black" points="0,-22.5 0,-52.5 110,-52.5 110,-22.5 0,-22.5"/>
<text text-anchor="start" x="8" y="-40.5" font-family="Helvetica,sans-Serif" font-size="10.00">scram::core::Settings</text>
<text text-anchor="middle" x="55" y="-29.5" font-family="Helvetica,sans-Serif" font-size="10.00">::num_trials</text>
</g>
<!-- Node2 -->
<g id="node2" class="node"><title>Node2</title>
<g id="a_node2"><a xlink:href="classscram_1_1Config.xhtml#ab0d7940fbb627fab9867821e133eab5d" target="_top" xlink:title="A constructor with configurations for analysis. ">
<polygon fill="white" stroke="black" points="163,-50 163,-69 276,-69 276,-50 163,-50"/>
<text text-anchor="middle" x="219.5" y="-57" font-family="Helvetica,sans-Serif" font-size="10.00">scram::Config::Config</text>
</a>
</g>
</g>
<!-- Node1&#45;&gt;Node2 -->
<g id="edge1" class="edge"><title>Node1&#45;&gt;Node2</title>
<path fill="none" stroke="midnightblue" d="M120.243,-46.1975C134.368,-48.1099 149.212,-50.1194 162.96,-51.9808"/>
<polygon fill="midnightblue" stroke="midnightblue" points="120.489,-42.699 110.11,-44.8257 119.55,-49.6357 120.489,-42.699"/>
</g>
<!-- Node3 -->
<g id="node3" class="node"><title>Node3</title>
<g id="a_node3"><a xlink:href="classscram_1_1core_1_1UncertaintyAnalysis.xhtml#a6986c9442a93fb0e43a0b59ac2c7d6c9" target="_top" xlink:title="Samples uncertain probabilities. ">
<polygon fill="white" stroke="black" points="146,-0.5 146,-30.5 293,-30.5 293,-0.5 146,-0.5"/>
<text text-anchor="start" x="154" y="-18.5" font-family="Helvetica,sans-Serif" font-size="10.00">scram::core::Uncertainty</text>
<text text-anchor="middle" x="219.5" y="-7.5" font-family="Helvetica,sans-Serif" font-size="10.00">Analysis::SampleExpressions</text>
</a>
</g>
</g>
<!-- Node1&#45;&gt;Node3 -->
<g id="edge2" class="edge"><title>Node1&#45;&gt;Node3</title>
<path fill="none" stroke="midnightblue" d="M120.216,-28.8061C128.626,-27.6676 137.29,-26.4945 145.827,-25.3387"/>
<polygon fill="midnightblue" stroke="midnightblue" points="119.55,-25.3643 110.11,-30.1743 120.489,-32.301 119.55,-25.3643"/>
</g>
</g>
</svg>
