<?xml version="1.0" encoding="UTF-8" standalone="no"?>
<!DOCTYPE svg PUBLIC "-//W3C//DTD SVG 1.1//EN"
 "http://www.w3.org/Graphics/SVG/1.1/DTD/svg11.dtd">
<!-- Generated by graphviz version 2.38.0 (20140413.2041)
 -->
<!-- Title: scram::core::Node::order Pages: 1 -->
<svg width="281pt" height="154pt"
 viewBox="0.00 0.00 281.00 154.00" xmlns="http://www.w3.org/2000/svg" xmlns:xlink="http://www.w3.org/1999/xlink">
<g id="graph0" class="graph" transform="scale(1 1) rotate(0) translate(4 150)">
<title>scram::core::Node::order</title>
<polygon fill="white" stroke="none" points="-4,4 -4,-150 277,-150 277,4 -4,4"/>
<!-- Node1 -->
<g id="node1" class="node"><title>Node1</title>
<polygon fill="#bfbfbf" stroke="black" points="0,-61 0,-91 104,-91 104,-61 0,-61"/>
<text text-anchor="start" x="8" y="-79" font-family="Helvetica,sans-Serif" font-size="10.00">scram::core::Node::</text>
<text text-anchor="middle" x="52" y="-68" font-family="Helvetica,sans-Serif" font-size="10.00">order</text>
</g>
<!-- Node2 -->
<g id="node2" class="node"><title>Node2</title>
<g id="a_node2"><a xlink:href="classscram_1_1core_1_1Bdd.xhtml#ab9548d4c5f9afaa96dc24e17e2a01a57" target="_top" xlink:title="Runs the Qualitative analysis with the representation of a PDAG as ROBDD. ">
<polygon fill="white" stroke="black" points="140,-126.5 140,-145.5 273,-145.5 273,-126.5 140,-126.5"/>
<text text-anchor="middle" x="206.5" y="-133.5" font-family="Helvetica,sans-Serif" font-size="10.00">scram::core::Bdd::Analyze</text>
</a>
</g>
</g>
<!-- Node1&#45;&gt;Node2 -->
<g id="edge1" class="edge"><title>Node1&#45;&gt;Node2</title>
<path fill="none" stroke="midnightblue" d="M90.9072,-95.4604C105.96,-102.764 123.573,-110.791 140,-117 149.193,-120.474 159.31,-123.693 168.785,-126.457"/>
<polygon fill="midnightblue" stroke="midnightblue" points="92.4173,-92.3028 81.8993,-91.0291 89.3273,-98.5839 92.4173,-92.3028"/>
</g>
<!-- Node3 -->
<g id="node3" class="node"><title>Node3</title>
<g id="a_node3"><a xlink:href="classscram_1_1core_1_1Bdd.xhtml#ab7af95900c1ab921446e2e67177a315c" target="_top" xlink:title="Constructor with the analysis target. ">
<polygon fill="white" stroke="black" points="149,-88.5 149,-107.5 264,-107.5 264,-88.5 149,-88.5"/>
<text text-anchor="middle" x="206.5" y="-95.5" font-family="Helvetica,sans-Serif" font-size="10.00">scram::core::Bdd::Bdd</text>
</a>
</g>
</g>
<!-- Node1&#45;&gt;Node3 -->
<g id="edge2" class="edge"><title>Node1&#45;&gt;Node3</title>
<path fill="none" stroke="midnightblue" d="M114.145,-84.821C125.628,-86.4775 137.587,-88.2027 148.923,-89.8381"/>
<polygon fill="midnightblue" stroke="midnightblue" points="114.602,-81.3507 104.205,-83.3869 113.602,-88.2789 114.602,-81.3507"/>
</g>
<!-- Node4 -->
<g id="node4" class="node"><title>Node4</title>
<g id="a_node4"><a xlink:href="classscram_1_1core_1_1Zbdd.xhtml#ac90d12f0c653c679d22109124fa6344c" target="_top" xlink:title="Find or adds a ZBDD SetNode vertex using information from gates. ">
<polygon fill="white" stroke="black" points="155.5,-39 155.5,-69 257.5,-69 257.5,-39 155.5,-39"/>
<text text-anchor="start" x="163.5" y="-57" font-family="Helvetica,sans-Serif" font-size="10.00">scram::core::Zbdd::</text>
<text text-anchor="middle" x="206.5" y="-46" font-family="Helvetica,sans-Serif" font-size="10.00">FindOrAddVertex</text>
</a>
</g>
</g>
<!-- Node1&#45;&gt;Node4 -->
<g id="edge3" class="edge"><title>Node1&#45;&gt;Node4</title>
<path fill="none" stroke="midnightblue" d="M114.464,-67.1331C128.087,-65.1678 142.364,-63.1081 155.466,-61.218"/>
<polygon fill="midnightblue" stroke="midnightblue" points="113.602,-63.7211 104.205,-68.6131 114.602,-70.6493 113.602,-63.7211"/>
</g>
<!-- Node5 -->
<g id="node5" class="node"><title>Node5</title>
<g id="a_node5"><a xlink:href="classscram_1_1core_1_1Zbdd.xhtml#a38b5c81971df473b1b46de59d0752c81" target="_top" xlink:title="Constructor with the analysis target. ">
<polygon fill="white" stroke="black" points="144.5,-0.5 144.5,-19.5 268.5,-19.5 268.5,-0.5 144.5,-0.5"/>
<text text-anchor="middle" x="206.5" y="-7.5" font-family="Helvetica,sans-Serif" font-size="10.00">scram::core::Zbdd::Zbdd</text>
</a>
</g>
</g>
<!-- Node1&#45;&gt;Node5 -->
<g id="edge4" class="edge"><title>Node1&#45;&gt;Node5</title>
<path fill="none" stroke="midnightblue" d="M87.1191,-56.0275C102.879,-47.3097 122.045,-37.4093 140,-30 149.452,-26.0996 159.946,-22.5627 169.714,-19.5853"/>
<polygon fill="midnightblue" stroke="midnightblue" points="85.2751,-53.0489 78.2684,-60.996 88.7017,-59.1529 85.2751,-53.0489"/>
</g>
</g>
</svg>
