<?xml version="1.0" encoding="UTF-8" standalone="no"?>
<!DOCTYPE svg PUBLIC "-//W3C//DTD SVG 1.1//EN"
 "http://www.w3.org/Graphics/SVG/1.1/DTD/svg11.dtd">
<!-- Generated by graphviz version 2.38.0 (20140413.2041)
 -->
<!-- Title: scram::mef::RandomDeviate Pages: 1 -->
<svg width="912pt" height="513pt"
 viewBox="0.00 0.00 912.00 513.00" xmlns="http://www.w3.org/2000/svg" xmlns:xlink="http://www.w3.org/1999/xlink">
<g id="graph0" class="graph" transform="scale(1 1) rotate(0) translate(4 509)">
<title>scram::mef::RandomDeviate</title>
<polygon fill="white" stroke="none" points="-4,4 -4,-509 908,-509 908,4 -4,4"/>
<!-- Node1 -->
<g id="node1" class="node"><title>Node1</title>
<polygon fill="#bfbfbf" stroke="black" points="365.5,-149.5 365.5,-206.5 508.5,-206.5 508.5,-149.5 365.5,-149.5"/>
<text text-anchor="middle" x="437" y="-194.5" font-family="Helvetica,sans-Serif" font-size="10.00">scram::mef::RandomDeviate</text>
<polyline fill="none" stroke="black" points="365.5,-187.5 508.5,-187.5 "/>
<text text-anchor="middle" x="437" y="-175.5" font-family="Helvetica,sans-Serif" font-size="10.00"> </text>
<polyline fill="none" stroke="black" points="365.5,-168.5 508.5,-168.5 "/>
<text text-anchor="start" x="373.5" y="-156.5" font-family="Helvetica,sans-Serif" font-size="10.00">+ IsDeviate()</text>
</g>
<!-- Node4 -->
<g id="node4" class="node"><title>Node4</title>
<g id="a_node4"><a xlink:href="classscram_1_1mef_1_1BetaDeviate.xhtml" target="_top" xlink:title="Beta distribution. ">
<polygon fill="white" stroke="black" points="0,-6 0,-107 126,-107 126,-6 0,-6"/>
<text text-anchor="middle" x="63" y="-95" font-family="Helvetica,sans-Serif" font-size="10.00">scram::mef::BetaDeviate</text>
<polyline fill="none" stroke="black" points="0,-88 126,-88 "/>
<text text-anchor="middle" x="63" y="-76" font-family="Helvetica,sans-Serif" font-size="10.00"> </text>
<polyline fill="none" stroke="black" points="0,-69 126,-69 "/>
<text text-anchor="start" x="8" y="-57" font-family="Helvetica,sans-Serif" font-size="10.00">+ BetaDeviate()</text>
<text text-anchor="start" x="8" y="-46" font-family="Helvetica,sans-Serif" font-size="10.00">+ Validate()</text>
<text text-anchor="start" x="8" y="-35" font-family="Helvetica,sans-Serif" font-size="10.00">+ Mean()</text>
<text text-anchor="start" x="8" y="-24" font-family="Helvetica,sans-Serif" font-size="10.00">+ Max()</text>
<text text-anchor="start" x="8" y="-13" font-family="Helvetica,sans-Serif" font-size="10.00">+ Min()</text>
</a>
</g>
</g>
<!-- Node1&#45;&gt;Node4 -->
<g id="edge3" class="edge"><title>Node1&#45;&gt;Node4</title>
<path fill="none" stroke="midnightblue" d="M354.992,-169.63C292.411,-161.674 205.285,-145.47 135,-113 131.275,-111.279 127.564,-109.335 123.902,-107.231"/>
<polygon fill="none" stroke="midnightblue" points="354.856,-173.14 365.208,-170.884 355.709,-166.192 354.856,-173.14"/>
</g>
<!-- Node5 -->
<g id="node5" class="node"><title>Node5</title>
<g id="a_node5"><a xlink:href="classscram_1_1mef_1_1GammaDeviate.xhtml" target="_top" xlink:title="Gamma distribution. ">
<polygon fill="white" stroke="black" points="144,-6 144,-107 284,-107 284,-6 144,-6"/>
<text text-anchor="middle" x="214" y="-95" font-family="Helvetica,sans-Serif" font-size="10.00">scram::mef::GammaDeviate</text>
<polyline fill="none" stroke="black" points="144,-88 284,-88 "/>
<text text-anchor="middle" x="214" y="-76" font-family="Helvetica,sans-Serif" font-size="10.00"> </text>
<polyline fill="none" stroke="black" points="144,-69 284,-69 "/>
<text text-anchor="start" x="152" y="-57" font-family="Helvetica,sans-Serif" font-size="10.00">+ GammaDeviate()</text>
<text text-anchor="start" x="152" y="-46" font-family="Helvetica,sans-Serif" font-size="10.00">+ Validate()</text>
<text text-anchor="start" x="152" y="-35" font-family="Helvetica,sans-Serif" font-size="10.00">+ Mean()</text>
<text text-anchor="start" x="152" y="-24" font-family="Helvetica,sans-Serif" font-size="10.00">+ Max()</text>
<text text-anchor="start" x="152" y="-13" font-family="Helvetica,sans-Serif" font-size="10.00">+ Min()</text>
</a>
</g>
</g>
<!-- Node1&#45;&gt;Node5 -->
<g id="edge4" class="edge"><title>Node1&#45;&gt;Node5</title>
<path fill="none" stroke="midnightblue" d="M358.096,-145.234C336.568,-135.683 313.529,-124.627 293,-113 289.645,-111.1 286.256,-109.094 282.865,-107.015"/>
<polygon fill="none" stroke="midnightblue" points="356.977,-148.565 367.542,-149.372 359.787,-142.153 356.977,-148.565"/>
</g>
<!-- Node6 -->
<g id="node6" class="node"><title>Node6</title>
<g id="a_node6"><a xlink:href="classscram_1_1mef_1_1Histogram.xhtml" target="_top" xlink:title="Histogram distribution. ">
<polygon fill="white" stroke="black" points="302.5,-6 302.5,-107 419.5,-107 419.5,-6 302.5,-6"/>
<text text-anchor="middle" x="361" y="-95" font-family="Helvetica,sans-Serif" font-size="10.00">scram::mef::Histogram</text>
<polyline fill="none" stroke="black" points="302.5,-88 419.5,-88 "/>
<text text-anchor="middle" x="361" y="-76" font-family="Helvetica,sans-Serif" font-size="10.00"> </text>
<polyline fill="none" stroke="black" points="302.5,-69 419.5,-69 "/>
<text text-anchor="start" x="310.5" y="-57" font-family="Helvetica,sans-Serif" font-size="10.00">+ Histogram()</text>
<text text-anchor="start" x="310.5" y="-46" font-family="Helvetica,sans-Serif" font-size="10.00">+ Validate()</text>
<text text-anchor="start" x="310.5" y="-35" font-family="Helvetica,sans-Serif" font-size="10.00">+ Mean()</text>
<text text-anchor="start" x="310.5" y="-24" font-family="Helvetica,sans-Serif" font-size="10.00">+ Max()</text>
<text text-anchor="start" x="310.5" y="-13" font-family="Helvetica,sans-Serif" font-size="10.00">+ Min()</text>
</a>
</g>
</g>
<!-- Node1&#45;&gt;Node6 -->
<g id="edge5" class="edge"><title>Node1&#45;&gt;Node6</title>
<path fill="none" stroke="midnightblue" d="M413.915,-140.701C407.181,-130.113 399.704,-118.358 392.543,-107.097"/>
<polygon fill="none" stroke="midnightblue" points="411.053,-142.724 419.373,-149.284 416.96,-138.968 411.053,-142.724"/>
</g>
<!-- Node7 -->
<g id="node7" class="node"><title>Node7</title>
<g id="a_node7"><a xlink:href="classscram_1_1mef_1_1LogNormalDeviate.xhtml" target="_top" xlink:title="Log&#45;normal distribution. ">
<polygon fill="white" stroke="black" points="437.5,-0.5 437.5,-112.5 590.5,-112.5 590.5,-0.5 437.5,-0.5"/>
<text text-anchor="middle" x="514" y="-100.5" font-family="Helvetica,sans-Serif" font-size="10.00">scram::mef::LogNormalDeviate</text>
<polyline fill="none" stroke="black" points="437.5,-93.5 590.5,-93.5 "/>
<text text-anchor="middle" x="514" y="-81.5" font-family="Helvetica,sans-Serif" font-size="10.00"> </text>
<polyline fill="none" stroke="black" points="437.5,-74.5 590.5,-74.5 "/>
<text text-anchor="start" x="445.5" y="-62.5" font-family="Helvetica,sans-Serif" font-size="10.00">+ LogNormalDeviate()</text>
<text text-anchor="start" x="445.5" y="-51.5" font-family="Helvetica,sans-Serif" font-size="10.00">+ LogNormalDeviate()</text>
<text text-anchor="start" x="445.5" y="-40.5" font-family="Helvetica,sans-Serif" font-size="10.00">+ Validate()</text>
<text text-anchor="start" x="445.5" y="-29.5" font-family="Helvetica,sans-Serif" font-size="10.00">+ Mean()</text>
<text text-anchor="start" x="445.5" y="-18.5" font-family="Helvetica,sans-Serif" font-size="10.00">+ Max()</text>
<text text-anchor="start" x="445.5" y="-7.5" font-family="Helvetica,sans-Serif" font-size="10.00">+ Min()</text>
</a>
</g>
</g>
<!-- Node1&#45;&gt;Node7 -->
<g id="edge6" class="edge"><title>Node1&#45;&gt;Node7</title>
<path fill="none" stroke="midnightblue" d="M460.344,-140.771C466.027,-131.951 472.235,-122.318 478.346,-112.834"/>
<polygon fill="none" stroke="midnightblue" points="457.333,-138.982 454.859,-149.284 463.218,-142.774 457.333,-138.982"/>
</g>
<!-- Node8 -->
<g id="node8" class="node"><title>Node8</title>
<g id="a_node8"><a xlink:href="classscram_1_1mef_1_1NormalDeviate.xhtml" target="_top" xlink:title="Normal distribution. ">
<polygon fill="white" stroke="black" points="608.5,-6 608.5,-107 745.5,-107 745.5,-6 608.5,-6"/>
<text text-anchor="middle" x="677" y="-95" font-family="Helvetica,sans-Serif" font-size="10.00">scram::mef::NormalDeviate</text>
<polyline fill="none" stroke="black" points="608.5,-88 745.5,-88 "/>
<text text-anchor="middle" x="677" y="-76" font-family="Helvetica,sans-Serif" font-size="10.00"> </text>
<polyline fill="none" stroke="black" points="608.5,-69 745.5,-69 "/>
<text text-anchor="start" x="616.5" y="-57" font-family="Helvetica,sans-Serif" font-size="10.00">+ NormalDeviate()</text>
<text text-anchor="start" x="616.5" y="-46" font-family="Helvetica,sans-Serif" font-size="10.00">+ Validate()</text>
<text text-anchor="start" x="616.5" y="-35" font-family="Helvetica,sans-Serif" font-size="10.00">+ Mean()</text>
<text text-anchor="start" x="616.5" y="-24" font-family="Helvetica,sans-Serif" font-size="10.00">+ Max()</text>
<text text-anchor="start" x="616.5" y="-13" font-family="Helvetica,sans-Serif" font-size="10.00">+ Min()</text>
</a>
</g>
</g>
<!-- Node1&#45;&gt;Node8 -->
<g id="edge7" class="edge"><title>Node1&#45;&gt;Node8</title>
<path fill="none" stroke="midnightblue" d="M518.244,-149.687C544.936,-139.518 574.328,-127.003 600,-113 603.327,-111.185 606.678,-109.248 610.022,-107.226"/>
<polygon fill="none" stroke="midnightblue" points="516.677,-146.536 508.544,-153.326 519.136,-153.09 516.677,-146.536"/>
</g>
<!-- Node9 -->
<g id="node9" class="node"><title>Node9</title>
<g id="a_node9"><a xlink:href="classscram_1_1mef_1_1UniformDeviate.xhtml" target="_top" xlink:title="Uniform distribution. ">
<polygon fill="white" stroke="black" points="764,-6 764,-107 904,-107 904,-6 764,-6"/>
<text text-anchor="middle" x="834" y="-95" font-family="Helvetica,sans-Serif" font-size="10.00">scram::mef::UniformDeviate</text>
<polyline fill="none" stroke="black" points="764,-88 904,-88 "/>
<text text-anchor="middle" x="834" y="-76" font-family="Helvetica,sans-Serif" font-size="10.00"> </text>
<polyline fill="none" stroke="black" points="764,-69 904,-69 "/>
<text text-anchor="start" x="772" y="-57" font-family="Helvetica,sans-Serif" font-size="10.00">+ UniformDeviate()</text>
<text text-anchor="start" x="772" y="-46" font-family="Helvetica,sans-Serif" font-size="10.00">+ Validate()</text>
<text text-anchor="start" x="772" y="-35" font-family="Helvetica,sans-Serif" font-size="10.00">+ Mean()</text>
<text text-anchor="start" x="772" y="-24" font-family="Helvetica,sans-Serif" font-size="10.00">+ Max()</text>
<text text-anchor="start" x="772" y="-13" font-family="Helvetica,sans-Serif" font-size="10.00">+ Min()</text>
</a>
</g>
</g>
<!-- Node1&#45;&gt;Node9 -->
<g id="edge8" class="edge"><title>Node1&#45;&gt;Node9</title>
<path fill="none" stroke="midnightblue" d="M518.994,-169.893C584.902,-161.993 678.741,-145.739 755,-113 759.005,-111.281 763.011,-109.338 766.976,-107.236"/>
<polygon fill="none" stroke="midnightblue" points="518.193,-166.462 508.663,-171.09 518.999,-173.416 518.193,-166.462"/>
</g>
<!-- Node2 -->
<g id="node2" class="node"><title>Node2</title>
<g id="a_node2"><a xlink:href="classscram_1_1mef_1_1Expression.xhtml" target="_top" xlink:title="Abstract base class for all sorts of expressions to describe events. ">
<polygon fill="white" stroke="black" points="376.5,-243.5 376.5,-410.5 497.5,-410.5 497.5,-243.5 376.5,-243.5"/>
<text text-anchor="middle" x="437" y="-398.5" font-family="Helvetica,sans-Serif" font-size="10.00">scram::mef::Expression</text>
<polyline fill="none" stroke="black" points="376.5,-391.5 497.5,-391.5 "/>
<text text-anchor="middle" x="437" y="-379.5" font-family="Helvetica,sans-Serif" font-size="10.00"> </text>
<polyline fill="none" stroke="black" points="376.5,-372.5 497.5,-372.5 "/>
<text text-anchor="start" x="384.5" y="-360.5" font-family="Helvetica,sans-Serif" font-size="10.00">+ Expression()</text>
<text text-anchor="start" x="384.5" y="-349.5" font-family="Helvetica,sans-Serif" font-size="10.00">+ ~Expression()</text>
<text text-anchor="start" x="384.5" y="-338.5" font-family="Helvetica,sans-Serif" font-size="10.00">+ args()</text>
<text text-anchor="start" x="384.5" y="-327.5" font-family="Helvetica,sans-Serif" font-size="10.00">+ Validate()</text>
<text text-anchor="start" x="384.5" y="-316.5" font-family="Helvetica,sans-Serif" font-size="10.00">+ Mean()</text>
<text text-anchor="start" x="384.5" y="-305.5" font-family="Helvetica,sans-Serif" font-size="10.00">+ Sample()</text>
<text text-anchor="start" x="384.5" y="-294.5" font-family="Helvetica,sans-Serif" font-size="10.00">+ Reset()</text>
<text text-anchor="start" x="384.5" y="-283.5" font-family="Helvetica,sans-Serif" font-size="10.00">+ IsDeviate()</text>
<text text-anchor="start" x="384.5" y="-272.5" font-family="Helvetica,sans-Serif" font-size="10.00">+ Max()</text>
<text text-anchor="start" x="384.5" y="-261.5" font-family="Helvetica,sans-Serif" font-size="10.00">+ Min()</text>
<text text-anchor="start" x="384.5" y="-250.5" font-family="Helvetica,sans-Serif" font-size="10.00"># AddArg()</text>
</a>
</g>
</g>
<!-- Node2&#45;&gt;Node1 -->
<g id="edge1" class="edge"><title>Node2&#45;&gt;Node1</title>
<path fill="none" stroke="midnightblue" d="M437,-233.36C437,-223.786 437,-214.677 437,-206.748"/>
<polygon fill="none" stroke="midnightblue" points="433.5,-233.476 437,-243.476 440.5,-233.476 433.5,-233.476"/>
</g>
<!-- Node3 -->
<g id="node3" class="node"><title>Node3</title>
<polygon fill="white" stroke="#bfbfbf" points="401.5,-447.5 401.5,-504.5 472.5,-504.5 472.5,-447.5 401.5,-447.5"/>
<text text-anchor="middle" x="437" y="-492.5" font-family="Helvetica,sans-Serif" font-size="10.00">noncopyable</text>
<polyline fill="none" stroke="#bfbfbf" points="401.5,-485.5 472.5,-485.5 "/>
<text text-anchor="middle" x="437" y="-473.5" font-family="Helvetica,sans-Serif" font-size="10.00"> </text>
<polyline fill="none" stroke="#bfbfbf" points="401.5,-466.5 472.5,-466.5 "/>
<text text-anchor="middle" x="437" y="-454.5" font-family="Helvetica,sans-Serif" font-size="10.00"> </text>
</g>
<!-- Node3&#45;&gt;Node2 -->
<g id="edge2" class="edge"><title>Node3&#45;&gt;Node2</title>
<path fill="none" stroke="#8b1a1a" d="M437,-437.35C437,-429.08 437,-420.008 437,-410.738"/>
<polygon fill="none" stroke="#8b1a1a" points="433.5,-437.35 437,-447.35 440.5,-437.35 433.5,-437.35"/>
</g>
</g>
</svg>
