<?xml version="1.0" encoding="UTF-8" standalone="no"?>
<!DOCTYPE svg PUBLIC "-//W3C//DTD SVG 1.1//EN"
 "http://www.w3.org/Graphics/SVG/1.1/DTD/svg11.dtd">
<!-- Generated by graphviz version 2.38.0 (20140413.2041)
 -->
<!-- Title: scram::core::Gate::constant Pages: 1 -->
<svg width="278pt" height="203pt"
 viewBox="0.00 0.00 278.00 203.00" xmlns="http://www.w3.org/2000/svg" xmlns:xlink="http://www.w3.org/1999/xlink">
<g id="graph0" class="graph" transform="scale(1 1) rotate(0) translate(4 199)">
<title>scram::core::Gate::constant</title>
<polygon fill="white" stroke="none" points="-4,4 -4,-199 274,-199 274,4 -4,4"/>
<!-- Node1 -->
<g id="node1" class="node"><title>Node1</title>
<polygon fill="#bfbfbf" stroke="black" points="0,-88 0,-118 101,-118 101,-88 0,-88"/>
<text text-anchor="start" x="8" y="-106" font-family="Helvetica,sans-Serif" font-size="10.00">scram::core::Gate::</text>
<text text-anchor="middle" x="50.5" y="-95" font-family="Helvetica,sans-Serif" font-size="10.00">constant</text>
</g>
<!-- Node2 -->
<g id="node2" class="node"><title>Node2</title>
<g id="a_node2"><a xlink:href="classscram_1_1core_1_1Bdd.xhtml#ab9548d4c5f9afaa96dc24e17e2a01a57" target="_top" xlink:title="Runs the Qualitative analysis with the representation of a PDAG as ROBDD. ">
<polygon fill="white" stroke="black" points="137,-175.5 137,-194.5 270,-194.5 270,-175.5 137,-175.5"/>
<text text-anchor="middle" x="203.5" y="-182.5" font-family="Helvetica,sans-Serif" font-size="10.00">scram::core::Bdd::Analyze</text>
</a>
</g>
</g>
<!-- Node1&#45;&gt;Node2 -->
<g id="edge1" class="edge"><title>Node1&#45;&gt;Node2</title>
<path fill="none" stroke="midnightblue" d="M76.2638,-124.925C92.561,-138.388 114.897,-155.085 137,-166 144.538,-169.722 152.933,-172.841 161.129,-175.405"/>
<polygon fill="midnightblue" stroke="midnightblue" points="78.2252,-122.001 68.3251,-118.228 73.7113,-127.351 78.2252,-122.001"/>
</g>
<!-- Node3 -->
<g id="node3" class="node"><title>Node3</title>
<g id="a_node3"><a xlink:href="classscram_1_1core_1_1Bdd.xhtml#ab7af95900c1ab921446e2e67177a315c" target="_top" xlink:title="Constructor with the analysis target. ">
<polygon fill="white" stroke="black" points="146,-137.5 146,-156.5 261,-156.5 261,-137.5 146,-137.5"/>
<text text-anchor="middle" x="203.5" y="-144.5" font-family="Helvetica,sans-Serif" font-size="10.00">scram::core::Bdd::Bdd</text>
</a>
</g>
</g>
<!-- Node1&#45;&gt;Node3 -->
<g id="edge2" class="edge"><title>Node1&#45;&gt;Node3</title>
<path fill="none" stroke="midnightblue" d="M110.98,-120.41C119.706,-122.958 128.585,-125.549 137,-128 147.572,-131.079 159.107,-134.428 169.51,-137.445"/>
<polygon fill="midnightblue" stroke="midnightblue" points="111.807,-117.005 101.227,-117.56 109.844,-123.724 111.807,-117.005"/>
</g>
<!-- Node4 -->
<g id="node4" class="node"><title>Node4</title>
<g id="a_node4"><a xlink:href="classscram_1_1core_1_1Zbdd.xhtml#ac90d12f0c653c679d22109124fa6344c" target="_top" xlink:title="Find or adds a ZBDD SetNode vertex using information from gates. ">
<polygon fill="white" stroke="black" points="152.5,-88 152.5,-118 254.5,-118 254.5,-88 152.5,-88"/>
<text text-anchor="start" x="160.5" y="-106" font-family="Helvetica,sans-Serif" font-size="10.00">scram::core::Zbdd::</text>
<text text-anchor="middle" x="203.5" y="-95" font-family="Helvetica,sans-Serif" font-size="10.00">FindOrAddVertex</text>
</a>
</g>
</g>
<!-- Node1&#45;&gt;Node4 -->
<g id="edge3" class="edge"><title>Node1&#45;&gt;Node4</title>
<path fill="none" stroke="midnightblue" d="M111.556,-103C125.105,-103 139.346,-103 152.433,-103"/>
<polygon fill="midnightblue" stroke="midnightblue" points="111.362,-99.5001 101.362,-103 111.361,-106.5 111.362,-99.5001"/>
</g>
<!-- Node5 -->
<g id="node5" class="node"><title>Node5</title>
<g id="a_node5"><a xlink:href="classscram_1_1core_1_1Preprocessor_1_1GateSet.xhtml#ae00239084858979e096032c4cf2f05b9" target="_top" xlink:title="Inserts a gate into the set if it is semantically unique. ">
<polygon fill="white" stroke="black" points="137.5,-39 137.5,-69 269.5,-69 269.5,-39 137.5,-39"/>
<text text-anchor="start" x="145.5" y="-57" font-family="Helvetica,sans-Serif" font-size="10.00">scram::core::Preprocessor</text>
<text text-anchor="middle" x="203.5" y="-46" font-family="Helvetica,sans-Serif" font-size="10.00">::GateSet::insert</text>
</a>
</g>
</g>
<!-- Node1&#45;&gt;Node5 -->
<g id="edge4" class="edge"><title>Node1&#45;&gt;Node5</title>
<path fill="none" stroke="midnightblue" d="M107.768,-84.7409C123.694,-79.5727 140.844,-74.0076 156.117,-69.0516"/>
<polygon fill="midnightblue" stroke="midnightblue" points="106.468,-81.4828 98.0371,-87.8986 108.629,-88.141 106.468,-81.4828"/>
</g>
<!-- Node6 -->
<g id="node6" class="node"><title>Node6</title>
<g id="a_node6"><a xlink:href="classscram_1_1core_1_1Zbdd.xhtml#a38b5c81971df473b1b46de59d0752c81" target="_top" xlink:title="Constructor with the analysis target. ">
<polygon fill="white" stroke="black" points="141.5,-0.5 141.5,-19.5 265.5,-19.5 265.5,-0.5 141.5,-0.5"/>
<text text-anchor="middle" x="203.5" y="-7.5" font-family="Helvetica,sans-Serif" font-size="10.00">scram::core::Zbdd::Zbdd</text>
</a>
</g>
</g>
<!-- Node1&#45;&gt;Node6 -->
<g id="edge5" class="edge"><title>Node1&#45;&gt;Node6</title>
<path fill="none" stroke="midnightblue" d="M72.8762,-80.3224C89.1167,-64.2677 112.732,-43.3056 137,-30 144.715,-25.77 153.443,-22.3144 161.953,-19.5388"/>
<polygon fill="midnightblue" stroke="midnightblue" points="70.0691,-78.1834 65.5255,-87.7545 75.046,-83.1058 70.0691,-78.1834"/>
</g>
</g>
</svg>
