<?xml version="1.0" encoding="UTF-8" standalone="no"?>
<!DOCTYPE svg PUBLIC "-//W3C//DTD SVG 1.1//EN"
 "http://www.w3.org/Graphics/SVG/1.1/DTD/svg11.dtd">
<!-- Generated by graphviz version 2.38.0 (20140413.2041)
 -->
<!-- Title: scram::core::Preprocessor::DetectDistributivity Pages: 1 -->
<svg width="824pt" height="421pt"
 viewBox="0.00 0.00 824.00 421.00" xmlns="http://www.w3.org/2000/svg" xmlns:xlink="http://www.w3.org/1999/xlink">
<g id="graph0" class="graph" transform="scale(1 1) rotate(0) translate(4 417)">
<title>scram::core::Preprocessor::DetectDistributivity</title>
<polygon fill="white" stroke="none" points="-4,4 -4,-417 820,-417 820,4 -4,4"/>
<!-- Node1 -->
<g id="node1" class="node"><title>Node1</title>
<polygon fill="#bfbfbf" stroke="black" points="0,-178.5 0,-208.5 132,-208.5 132,-178.5 0,-178.5"/>
<text text-anchor="start" x="8" y="-196.5" font-family="Helvetica,sans-Serif" font-size="10.00">scram::core::Preprocessor</text>
<text text-anchor="middle" x="66" y="-185.5" font-family="Helvetica,sans-Serif" font-size="10.00">::DetectDistributivity</text>
</g>
<!-- Node2 -->
<g id="node2" class="node"><title>Node2</title>
<g id="a_node2"><a xlink:href="classscram_1_1core_1_1Preprocessor.xhtml#a4737f354474154b3cea9773c25616d27" target="_top" xlink:title="Detects and manipulates AND and OR gate distributivity for the whole graph. ">
<polygon fill="white" stroke="black" points="168,-259.5 168,-289.5 300,-289.5 300,-259.5 168,-259.5"/>
<text text-anchor="start" x="176" y="-277.5" font-family="Helvetica,sans-Serif" font-size="10.00">scram::core::Preprocessor</text>
<text text-anchor="middle" x="234" y="-266.5" font-family="Helvetica,sans-Serif" font-size="10.00">::DetectDistributivity</text>
</a>
</g>
</g>
<!-- Node1&#45;&gt;Node2 -->
<g id="edge1" class="edge"><title>Node1&#45;&gt;Node2</title>
<path fill="none" stroke="midnightblue" d="M97.8343,-208.546C124.654,-221.632 163.695,-240.682 192.93,-254.948"/>
<polygon fill="midnightblue" stroke="midnightblue" points="191.528,-258.158 202.05,-259.398 194.597,-251.867 191.528,-258.158"/>
</g>
<!-- Node9 -->
<g id="node9" class="node"><title>Node9</title>
<g id="a_node9"><a xlink:href="classscram_1_1core_1_1Preprocessor.xhtml#a4b29173b8f6d18031d7a8cacbac15ce1" target="_top" xlink:title="Manipulates gates with distributive arguments. ">
<polygon fill="white" stroke="black" points="168,-98.5 168,-128.5 300,-128.5 300,-98.5 168,-98.5"/>
<text text-anchor="start" x="176" y="-116.5" font-family="Helvetica,sans-Serif" font-size="10.00">scram::core::Preprocessor</text>
<text text-anchor="middle" x="234" y="-105.5" font-family="Helvetica,sans-Serif" font-size="10.00">::HandleDistributiveArgs</text>
</a>
</g>
</g>
<!-- Node1&#45;&gt;Node9 -->
<g id="edge9" class="edge"><title>Node1&#45;&gt;Node9</title>
<path fill="none" stroke="midnightblue" d="M98.2233,-178.453C124.918,-165.587 163.511,-146.989 192.564,-132.987"/>
<polygon fill="midnightblue" stroke="midnightblue" points="194.146,-136.11 201.635,-128.616 191.107,-129.804 194.146,-136.11"/>
</g>
<!-- Node3 -->
<g id="node3" class="node"><title>Node3</title>
<g id="a_node3"><a xlink:href="classscram_1_1core_1_1Pdag.xhtml#aa883d0e58b9faab69186bec03574c633" target="_top" xlink:title="Clears marks from graph nodes. ">
<polygon fill="white" stroke="black" points="353,-382.5 353,-412.5 456,-412.5 456,-382.5 353,-382.5"/>
<text text-anchor="start" x="361" y="-400.5" font-family="Helvetica,sans-Serif" font-size="10.00">scram::core::Pdag::</text>
<text text-anchor="middle" x="404.5" y="-389.5" font-family="Helvetica,sans-Serif" font-size="10.00">Clear</text>
</a>
</g>
</g>
<!-- Node2&#45;&gt;Node3 -->
<g id="edge2" class="edge"><title>Node2&#45;&gt;Node3</title>
<path fill="none" stroke="midnightblue" d="M246.799,-289.66C264.199,-311.088 298.728,-350.21 336,-373.5 338.606,-375.128 341.337,-376.666 344.145,-378.115"/>
<polygon fill="midnightblue" stroke="midnightblue" points="342.781,-381.341 353.318,-382.444 345.769,-375.011 342.781,-381.341"/>
</g>
<!-- Node4 -->
<g id="node4" class="node"><title>Node4</title>
<g id="a_node4"><a xlink:href="classscram_1_1core_1_1Pdag.xhtml#a7933096368b6a16f9d6aab7c4abbb02b" target="_top" xlink:title="scram::core::Pdag::\lHasConstants">
<polygon fill="white" stroke="black" points="353,-333.5 353,-363.5 456,-363.5 456,-333.5 353,-333.5"/>
<text text-anchor="start" x="361" y="-351.5" font-family="Helvetica,sans-Serif" font-size="10.00">scram::core::Pdag::</text>
<text text-anchor="middle" x="404.5" y="-340.5" font-family="Helvetica,sans-Serif" font-size="10.00">HasConstants</text>
</a>
</g>
</g>
<!-- Node2&#45;&gt;Node4 -->
<g id="edge3" class="edge"><title>Node2&#45;&gt;Node4</title>
<path fill="none" stroke="midnightblue" d="M263.314,-289.639C283.333,-300.064 310.957,-313.893 336,-324.5 340.352,-326.343 344.899,-328.168 349.488,-329.939"/>
<polygon fill="midnightblue" stroke="midnightblue" points="348.324,-333.241 358.916,-333.489 350.79,-326.69 348.324,-333.241"/>
</g>
<!-- Node5 -->
<g id="node5" class="node"><title>Node5</title>
<g id="a_node5"><a xlink:href="classscram_1_1core_1_1Pdag.xhtml#aa43a9026583f7a629fe0a3f17440f55b" target="_top" xlink:title="scram::core::Pdag::\lHasNullGates">
<polygon fill="white" stroke="black" points="353,-284.5 353,-314.5 456,-314.5 456,-284.5 353,-284.5"/>
<text text-anchor="start" x="361" y="-302.5" font-family="Helvetica,sans-Serif" font-size="10.00">scram::core::Pdag::</text>
<text text-anchor="middle" x="404.5" y="-291.5" font-family="Helvetica,sans-Serif" font-size="10.00">HasNullGates</text>
</a>
</g>
</g>
<!-- Node2&#45;&gt;Node5 -->
<g id="edge4" class="edge"><title>Node2&#45;&gt;Node5</title>
<path fill="none" stroke="midnightblue" d="M300.146,-284.166C314.231,-286.255 329.068,-288.457 342.966,-290.519"/>
<polygon fill="midnightblue" stroke="midnightblue" points="342.492,-293.987 352.897,-291.992 343.519,-287.062 342.492,-293.987"/>
</g>
<!-- Node6 -->
<g id="node6" class="node"><title>Node6</title>
<g id="a_node6"><a xlink:href="classscram_1_1core_1_1Pdag.xhtml#a1ec495a3595a7d088f1889f46eeb725d" target="_top" xlink:title="Removes gates of Null logic with a single argument (maybe constant). ">
<polygon fill="white" stroke="black" points="353,-235.5 353,-265.5 456,-265.5 456,-235.5 353,-235.5"/>
<text text-anchor="start" x="361" y="-253.5" font-family="Helvetica,sans-Serif" font-size="10.00">scram::core::Pdag::</text>
<text text-anchor="middle" x="404.5" y="-242.5" font-family="Helvetica,sans-Serif" font-size="10.00">RemoveNullGates</text>
</a>
</g>
</g>
<!-- Node2&#45;&gt;Node6 -->
<g id="edge5" class="edge"><title>Node2&#45;&gt;Node6</title>
<path fill="none" stroke="midnightblue" d="M300.146,-265.221C314.231,-263.215 329.068,-261.102 342.966,-259.122"/>
<polygon fill="midnightblue" stroke="midnightblue" points="343.491,-262.583 352.897,-257.708 342.504,-255.653 343.491,-262.583"/>
</g>
<!-- Node8 -->
<g id="node8" class="node"><title>Node8</title>
<g id="a_node8"><a xlink:href="classscram_1_1core_1_1Pdag.xhtml#ae9407efbb00e5f28aecb40db2ab7925b" target="_top" xlink:title="scram::core::Pdag::root">
<polygon fill="white" stroke="black" points="345,-197 345,-216 464,-216 464,-197 345,-197"/>
<text text-anchor="middle" x="404.5" y="-204" font-family="Helvetica,sans-Serif" font-size="10.00">scram::core::Pdag::root</text>
</a>
</g>
</g>
<!-- Node2&#45;&gt;Node8 -->
<g id="edge8" class="edge"><title>Node2&#45;&gt;Node8</title>
<path fill="none" stroke="midnightblue" d="M263.648,-259.416C283.587,-249.284 310.982,-236.085 336,-226.5 342.905,-223.855 350.316,-221.343 357.609,-219.049"/>
<polygon fill="midnightblue" stroke="midnightblue" points="358.873,-222.323 367.421,-216.064 356.835,-215.626 358.873,-222.323"/>
</g>
<!-- Node7 -->
<g id="node7" class="node"><title>Node7</title>
<g id="a_node7"><a xlink:href="pdag_8h.xhtml#aa00922ee92d35a300d86442f8b9ad331" target="_top" xlink:title="Traverses and visits gates and nodes in the graph. ">
<polygon fill="white" stroke="black" points="509,-241 509,-260 648,-260 648,-241 509,-241"/>
<text text-anchor="middle" x="578.5" y="-248" font-family="Helvetica,sans-Serif" font-size="10.00">scram::core::TraverseGates</text>
</a>
</g>
</g>
<!-- Node6&#45;&gt;Node7 -->
<g id="edge6" class="edge"><title>Node6&#45;&gt;Node7</title>
<path fill="none" stroke="midnightblue" d="M456.175,-250.5C469.412,-250.5 484,-250.5 498.333,-250.5"/>
<polygon fill="midnightblue" stroke="midnightblue" points="498.702,-254 508.702,-250.5 498.702,-247 498.702,-254"/>
</g>
<!-- Node7&#45;&gt;Node7 -->
<g id="edge7" class="edge"><title>Node7&#45;&gt;Node7</title>
<path fill="none" stroke="midnightblue" d="M552.298,-260.257C539.551,-269.065 548.285,-278.5 578.5,-278.5 598.801,-278.5 609.404,-274.241 610.311,-268.775"/>
<polygon fill="midnightblue" stroke="midnightblue" points="613.125,-266.684 604.702,-260.257 607.279,-270.534 613.125,-266.684"/>
</g>
<!-- Node10 -->
<g id="node10" class="node"><title>Node10</title>
<g id="a_node10"><a xlink:href="classscram_1_1core_1_1Preprocessor.xhtml#a29d3775965ee487d000591739fdbaa4b" target="_top" xlink:title="Detects relationships between the gate and its distributive arguments to remove unnecessary candidate...">
<polygon fill="white" stroke="black" points="338.5,-147.5 338.5,-177.5 470.5,-177.5 470.5,-147.5 338.5,-147.5"/>
<text text-anchor="start" x="346.5" y="-165.5" font-family="Helvetica,sans-Serif" font-size="10.00">scram::core::Preprocessor</text>
<text text-anchor="middle" x="404.5" y="-154.5" font-family="Helvetica,sans-Serif" font-size="10.00">::FilterDistributiveArgs</text>
</a>
</g>
</g>
<!-- Node9&#45;&gt;Node10 -->
<g id="edge10" class="edge"><title>Node9&#45;&gt;Node10</title>
<path fill="none" stroke="midnightblue" d="M286.93,-128.601C304.309,-133.655 323.85,-139.338 341.894,-144.585"/>
<polygon fill="midnightblue" stroke="midnightblue" points="341.161,-148.017 351.741,-147.448 343.116,-141.295 341.161,-148.017"/>
</g>
<!-- Node11 -->
<g id="node11" class="node"><title>Node11</title>
<g id="a_node11"><a xlink:href="classscram_1_1core_1_1Preprocessor.xhtml#af9b5fba2247a02afe6cf480a405b6ca0" target="_top" xlink:title="Finds intersections of common arguments of gates. ">
<polygon fill="white" stroke="black" points="338.5,-98.5 338.5,-128.5 470.5,-128.5 470.5,-98.5 338.5,-98.5"/>
<text text-anchor="start" x="346.5" y="-116.5" font-family="Helvetica,sans-Serif" font-size="10.00">scram::core::Preprocessor</text>
<text text-anchor="middle" x="404.5" y="-105.5" font-family="Helvetica,sans-Serif" font-size="10.00">::GroupCommonParents</text>
</a>
</g>
</g>
<!-- Node9&#45;&gt;Node11 -->
<g id="edge11" class="edge"><title>Node9&#45;&gt;Node11</title>
<path fill="none" stroke="midnightblue" d="M300.146,-113.5C309.328,-113.5 318.829,-113.5 328.181,-113.5"/>
<polygon fill="midnightblue" stroke="midnightblue" points="328.249,-117 338.249,-113.5 328.249,-110 328.249,-117"/>
</g>
<!-- Node12 -->
<g id="node12" class="node"><title>Node12</title>
<g id="a_node12"><a xlink:href="classscram_1_1core_1_1Preprocessor.xhtml#a51340a3bcfa9785e430bab27ee08bbbf" target="_top" xlink:title="Groups distributive gate arguments for future factorization. ">
<polygon fill="white" stroke="black" points="338.5,-49.5 338.5,-79.5 470.5,-79.5 470.5,-49.5 338.5,-49.5"/>
<text text-anchor="start" x="346.5" y="-67.5" font-family="Helvetica,sans-Serif" font-size="10.00">scram::core::Preprocessor</text>
<text text-anchor="middle" x="404.5" y="-56.5" font-family="Helvetica,sans-Serif" font-size="10.00">::GroupDistributiveArgs</text>
</a>
</g>
</g>
<!-- Node9&#45;&gt;Node12 -->
<g id="edge12" class="edge"><title>Node9&#45;&gt;Node12</title>
<path fill="none" stroke="midnightblue" d="M286.93,-98.3986C304.309,-93.3449 323.85,-87.6624 341.894,-82.4152"/>
<polygon fill="midnightblue" stroke="midnightblue" points="343.116,-85.7048 351.741,-79.5516 341.161,-78.9832 343.116,-85.7048"/>
</g>
<!-- Node15 -->
<g id="node15" class="node"><title>Node15</title>
<g id="a_node15"><a xlink:href="classscram_1_1core_1_1Preprocessor.xhtml#a2557ab80c04d7f91372992edfbedd93a" target="_top" xlink:title="Transforms distributive of arguments gates into a new subgraph. ">
<polygon fill="white" stroke="black" points="336,-0.5 336,-30.5 473,-30.5 473,-0.5 336,-0.5"/>
<text text-anchor="start" x="344" y="-18.5" font-family="Helvetica,sans-Serif" font-size="10.00">scram::core::Preprocessor</text>
<text text-anchor="middle" x="404.5" y="-7.5" font-family="Helvetica,sans-Serif" font-size="10.00">::TransformDistributiveArgs</text>
</a>
</g>
</g>
<!-- Node9&#45;&gt;Node15 -->
<g id="edge15" class="edge"><title>Node9&#45;&gt;Node15</title>
<path fill="none" stroke="midnightblue" d="M252.198,-98.4584C271.508,-82.1734 304.302,-56.2838 336,-39.5 339.27,-37.7685 342.692,-36.1154 346.185,-34.5457"/>
<polygon fill="midnightblue" stroke="midnightblue" points="347.699,-37.7059 355.548,-30.5893 344.974,-31.258 347.699,-37.7059"/>
</g>
<!-- Node13 -->
<g id="node13" class="node"><title>Node13</title>
<g id="a_node13"><a xlink:href="classscram_1_1core_1_1Preprocessor.xhtml#a3c51e098f0ff45be068f68296323f45f" target="_top" xlink:title="Finds an optimal way of grouping options. ">
<polygon fill="white" stroke="black" points="512.5,-49.5 512.5,-79.5 644.5,-79.5 644.5,-49.5 512.5,-49.5"/>
<text text-anchor="start" x="520.5" y="-67.5" font-family="Helvetica,sans-Serif" font-size="10.00">scram::core::Preprocessor</text>
<text text-anchor="middle" x="578.5" y="-56.5" font-family="Helvetica,sans-Serif" font-size="10.00">::FindOptionGroup</text>
</a>
</g>
</g>
<!-- Node12&#45;&gt;Node13 -->
<g id="edge13" class="edge"><title>Node12&#45;&gt;Node13</title>
<path fill="none" stroke="midnightblue" d="M470.526,-64.5C480.907,-64.5 491.723,-64.5 502.316,-64.5"/>
<polygon fill="midnightblue" stroke="midnightblue" points="502.382,-68.0001 512.382,-64.5 502.382,-61.0001 502.382,-68.0001"/>
</g>
<!-- Node14 -->
<g id="node14" class="node"><title>Node14</title>
<g id="a_node14"><a xlink:href="classscram_1_1core_1_1Preprocessor.xhtml#adbaee2a993e0538280dc437d0a3b849f" target="_top" xlink:title="Finds the starting option for group formation. ">
<polygon fill="white" stroke="black" points="684,-49.5 684,-79.5 816,-79.5 816,-49.5 684,-49.5"/>
<text text-anchor="start" x="692" y="-67.5" font-family="Helvetica,sans-Serif" font-size="10.00">scram::core::Preprocessor</text>
<text text-anchor="middle" x="750" y="-56.5" font-family="Helvetica,sans-Serif" font-size="10.00">::FindBaseOption</text>
</a>
</g>
</g>
<!-- Node13&#45;&gt;Node14 -->
<g id="edge14" class="edge"><title>Node13&#45;&gt;Node14</title>
<path fill="none" stroke="midnightblue" d="M644.548,-64.5C654.11,-64.5 664.027,-64.5 673.773,-64.5"/>
<polygon fill="midnightblue" stroke="midnightblue" points="673.846,-68.0001 683.846,-64.5 673.846,-61.0001 673.846,-68.0001"/>
</g>
</g>
</svg>
