<?xml version="1.0" encoding="UTF-8" standalone="no"?>
<!DOCTYPE svg PUBLIC "-//W3C//DTD SVG 1.1//EN"
 "http://www.w3.org/Graphics/SVG/1.1/DTD/svg11.dtd">
<!-- Generated by graphviz version 2.38.0 (20140413.2041)
 -->
<!-- Title: scram::core::Gate::module Pages: 1 -->
<svg width="278pt" height="166pt"
 viewBox="0.00 0.00 278.00 165.50" xmlns="http://www.w3.org/2000/svg" xmlns:xlink="http://www.w3.org/1999/xlink">
<g id="graph0" class="graph" transform="scale(1 1) rotate(0) translate(4 161.5)">
<title>scram::core::Gate::module</title>
<polygon fill="white" stroke="none" points="-4,4 -4,-161.5 274,-161.5 274,4 -4,4"/>
<!-- Node1 -->
<g id="node1" class="node"><title>Node1</title>
<polygon fill="#bfbfbf" stroke="black" points="0,-61 0,-91 101,-91 101,-61 0,-61"/>
<text text-anchor="start" x="8" y="-79" font-family="Helvetica,sans-Serif" font-size="10.00">scram::core::Gate::</text>
<text text-anchor="middle" x="50.5" y="-68" font-family="Helvetica,sans-Serif" font-size="10.00">module</text>
</g>
<!-- Node2 -->
<g id="node2" class="node"><title>Node2</title>
<g id="a_node2"><a xlink:href="classscram_1_1core_1_1Mocus.xhtml#a008348c27bdc85ad9d0d106b18dcc1a2" target="_top" xlink:title="Finds minimal cut sets from the PDAG. ">
<polygon fill="white" stroke="black" points="151.5,-127 151.5,-157 255.5,-157 255.5,-127 151.5,-127"/>
<text text-anchor="start" x="159.5" y="-145" font-family="Helvetica,sans-Serif" font-size="10.00">scram::core::Mocus</text>
<text text-anchor="middle" x="203.5" y="-134" font-family="Helvetica,sans-Serif" font-size="10.00">::Analyze</text>
</a>
</g>
</g>
<!-- Node1&#45;&gt;Node2 -->
<g id="edge1" class="edge"><title>Node1&#45;&gt;Node2</title>
<path fill="none" stroke="midnightblue" d="M90.4681,-95.5212C104.958,-102.558 121.615,-110.389 137,-117 144.828,-120.364 153.272,-123.757 161.411,-126.913"/>
<polygon fill="midnightblue" stroke="midnightblue" points="91.815,-92.2838 81.2944,-91.0322 88.7383,-98.5714 91.815,-92.2838"/>
</g>
<!-- Node3 -->
<g id="node3" class="node"><title>Node3</title>
<g id="a_node3"><a xlink:href="classscram_1_1core_1_1Bdd.xhtml#ab9548d4c5f9afaa96dc24e17e2a01a57" target="_top" xlink:title="Runs the Qualitative analysis with the representation of a PDAG as ROBDD. ">
<polygon fill="white" stroke="black" points="137,-88.5 137,-107.5 270,-107.5 270,-88.5 137,-88.5"/>
<text text-anchor="middle" x="203.5" y="-95.5" font-family="Helvetica,sans-Serif" font-size="10.00">scram::core::Bdd::Analyze</text>
</a>
</g>
</g>
<!-- Node1&#45;&gt;Node3 -->
<g id="edge2" class="edge"><title>Node1&#45;&gt;Node3</title>
<path fill="none" stroke="midnightblue" d="M111.462,-84.7362C119.877,-85.9622 128.561,-87.2274 137.071,-88.4673"/>
<polygon fill="midnightblue" stroke="midnightblue" points="111.762,-81.243 101.362,-83.2646 110.752,-88.1698 111.762,-81.243"/>
</g>
<!-- Node4 -->
<g id="node4" class="node"><title>Node4</title>
<g id="a_node4"><a xlink:href="classscram_1_1core_1_1Zbdd.xhtml#ac90d12f0c653c679d22109124fa6344c" target="_top" xlink:title="Find or adds a ZBDD SetNode vertex using information from gates. ">
<polygon fill="white" stroke="black" points="152.5,-39 152.5,-69 254.5,-69 254.5,-39 152.5,-39"/>
<text text-anchor="start" x="160.5" y="-57" font-family="Helvetica,sans-Serif" font-size="10.00">scram::core::Zbdd::</text>
<text text-anchor="middle" x="203.5" y="-46" font-family="Helvetica,sans-Serif" font-size="10.00">FindOrAddVertex</text>
</a>
</g>
</g>
<!-- Node1&#45;&gt;Node4 -->
<g id="edge3" class="edge"><title>Node1&#45;&gt;Node4</title>
<path fill="none" stroke="midnightblue" d="M111.556,-67.2501C125.105,-65.2762 139.346,-63.2012 152.433,-61.2945"/>
<polygon fill="midnightblue" stroke="midnightblue" points="110.752,-63.8302 101.362,-68.7354 111.762,-70.757 110.752,-63.8302"/>
</g>
<!-- Node5 -->
<g id="node5" class="node"><title>Node5</title>
<g id="a_node5"><a xlink:href="classscram_1_1core_1_1Zbdd.xhtml#af92e04ed908364e0177ce444d7b72712" target="_top" xlink:title="The common constructor to initialize member variables. ">
<polygon fill="white" stroke="black" points="141.5,-0.5 141.5,-19.5 265.5,-19.5 265.5,-0.5 141.5,-0.5"/>
<text text-anchor="middle" x="203.5" y="-7.5" font-family="Helvetica,sans-Serif" font-size="10.00">scram::core::Zbdd::Zbdd</text>
</a>
</g>
</g>
<!-- Node1&#45;&gt;Node5 -->
<g id="edge4" class="edge"><title>Node1&#45;&gt;Node5</title>
<path fill="none" stroke="midnightblue" d="M84.9923,-55.9944C100.473,-47.27 119.313,-37.3735 137,-30 146.438,-26.0655 156.927,-22.5174 166.695,-19.5401"/>
<polygon fill="midnightblue" stroke="midnightblue" points="83.2415,-52.9637 76.3,-60.9678 86.7178,-59.0395 83.2415,-52.9637"/>
</g>
</g>
</svg>
