<?xml version="1.0" encoding="UTF-8" standalone="no"?>
<!DOCTYPE svg PUBLIC "-//W3C//DTD SVG 1.1//EN"
 "http://www.w3.org/Graphics/SVG/1.1/DTD/svg11.dtd">
<!-- Generated by graphviz version 2.38.0 (20140413.2041)
 -->
<!-- Title: scram::core::Zbdd::Zbdd Pages: 1 -->
<svg width="449pt" height="274pt"
 viewBox="0.00 0.00 449.00 273.50" xmlns="http://www.w3.org/2000/svg" xmlns:xlink="http://www.w3.org/1999/xlink">
<g id="graph0" class="graph" transform="scale(1 1) rotate(0) translate(4 269.5)">
<title>scram::core::Zbdd::Zbdd</title>
<polygon fill="white" stroke="none" points="-4,4 -4,-269.5 445,-269.5 445,4 -4,4"/>
<!-- Node1 -->
<g id="node1" class="node"><title>Node1</title>
<polygon fill="#bfbfbf" stroke="black" points="0,-128 0,-147 124,-147 124,-128 0,-128"/>
<text text-anchor="middle" x="62" y="-135" font-family="Helvetica,sans-Serif" font-size="10.00">scram::core::Zbdd::Zbdd</text>
</g>
<!-- Node2 -->
<g id="node2" class="node"><title>Node2</title>
<g id="a_node2"><a xlink:href="classscram_1_1core_1_1Gate.xhtml#aa793eeaa12244c5b39a0d80e5b1518ae" target="_top" xlink:title="scram::core::Gate::args">
<polygon fill="white" stroke="black" points="160,-246 160,-265 280,-265 280,-246 160,-246"/>
<text text-anchor="middle" x="220" y="-253" font-family="Helvetica,sans-Serif" font-size="10.00">scram::core::Gate::args</text>
</a>
</g>
</g>
<!-- Node1&#45;&gt;Node2 -->
<g id="edge1" class="edge"><title>Node1&#45;&gt;Node2</title>
<path fill="none" stroke="midnightblue" d="M69.876,-147.179C84.3347,-166.845 119.881,-211.705 160,-236.5 163.354,-238.573 166.957,-240.442 170.668,-242.122"/>
<polygon fill="midnightblue" stroke="midnightblue" points="169.455,-245.407 180.037,-245.921 172.085,-238.92 169.455,-245.407"/>
</g>
<!-- Node3 -->
<g id="node3" class="node"><title>Node3</title>
<g id="a_node3"><a xlink:href="classscram_1_1core_1_1Zbdd.xhtml#aa9fe9b536749648e0ba973d455c19c93" target="_top" xlink:title="scram::core::Zbdd::\lbegin">
<polygon fill="white" stroke="black" points="169,-196.5 169,-226.5 271,-226.5 271,-196.5 169,-196.5"/>
<text text-anchor="start" x="177" y="-214.5" font-family="Helvetica,sans-Serif" font-size="10.00">scram::core::Zbdd::</text>
<text text-anchor="middle" x="220" y="-203.5" font-family="Helvetica,sans-Serif" font-size="10.00">begin</text>
</a>
</g>
</g>
<!-- Node1&#45;&gt;Node3 -->
<g id="edge2" class="edge"><title>Node1&#45;&gt;Node3</title>
<path fill="none" stroke="midnightblue" d="M80.2907,-147.01C99.5135,-157.441 131.6,-174.436 160,-187.5 163.571,-189.143 167.288,-190.792 171.041,-192.414"/>
<polygon fill="midnightblue" stroke="midnightblue" points="169.811,-195.694 180.384,-196.372 172.542,-189.249 169.811,-195.694"/>
</g>
<!-- Node4 -->
<g id="node4" class="node"><title>Node4</title>
<g id="a_node4"><a xlink:href="classscram_1_1core_1_1Gate.xhtml#ab2a4e8ac78b36541a32cc719863910a5" target="_top" xlink:title="scram::core::Gate::\lconstant">
<polygon fill="white" stroke="black" points="169.5,-147.5 169.5,-177.5 270.5,-177.5 270.5,-147.5 169.5,-147.5"/>
<text text-anchor="start" x="177.5" y="-165.5" font-family="Helvetica,sans-Serif" font-size="10.00">scram::core::Gate::</text>
<text text-anchor="middle" x="220" y="-154.5" font-family="Helvetica,sans-Serif" font-size="10.00">constant</text>
</a>
</g>
</g>
<!-- Node1&#45;&gt;Node4 -->
<g id="edge3" class="edge"><title>Node1&#45;&gt;Node4</title>
<path fill="none" stroke="midnightblue" d="M122.422,-147.023C134.53,-148.963 147.273,-151.005 159.388,-152.947"/>
<polygon fill="midnightblue" stroke="midnightblue" points="158.962,-156.423 169.389,-154.55 160.069,-149.511 158.962,-156.423"/>
</g>
<!-- Node5 -->
<g id="node5" class="node"><title>Node5</title>
<g id="a_node5"><a xlink:href="classscram_1_1core_1_1Zbdd.xhtml#a42af18229ba2e80201bc0fdac07b7091" target="_top" xlink:title="Finds or adds a unique SetNode in the ZBDD. ">
<polygon fill="white" stroke="black" points="169,-98.5 169,-128.5 271,-128.5 271,-98.5 169,-98.5"/>
<text text-anchor="start" x="177" y="-116.5" font-family="Helvetica,sans-Serif" font-size="10.00">scram::core::Zbdd::</text>
<text text-anchor="middle" x="220" y="-105.5" font-family="Helvetica,sans-Serif" font-size="10.00">FindOrAddVertex</text>
</a>
</g>
</g>
<!-- Node1&#45;&gt;Node5 -->
<g id="edge4" class="edge"><title>Node1&#45;&gt;Node5</title>
<path fill="none" stroke="midnightblue" d="M124.208,-128.083C135.448,-126.354 147.178,-124.55 158.401,-122.823"/>
<polygon fill="midnightblue" stroke="midnightblue" points="159.185,-126.244 168.536,-121.264 158.12,-119.325 159.185,-126.244"/>
</g>
<!-- Node8 -->
<g id="node8" class="node"><title>Node8</title>
<g id="a_node8"><a xlink:href="classscram_1_1core_1_1Node.xhtml#a62121e217b0da73112af7e07275f2c15" target="_top" xlink:title="scram::core::Node::\lindex">
<polygon fill="white" stroke="black" points="168,-49.5 168,-79.5 272,-79.5 272,-49.5 168,-49.5"/>
<text text-anchor="start" x="176" y="-67.5" font-family="Helvetica,sans-Serif" font-size="10.00">scram::core::Node::</text>
<text text-anchor="middle" x="220" y="-56.5" font-family="Helvetica,sans-Serif" font-size="10.00">index</text>
</a>
</g>
</g>
<!-- Node1&#45;&gt;Node8 -->
<g id="edge7" class="edge"><title>Node1&#45;&gt;Node8</title>
<path fill="none" stroke="midnightblue" d="M81.44,-127.972C100.839,-118.043 132.334,-102.193 160,-89.5 164.323,-87.5168 168.847,-85.4988 173.385,-83.5129"/>
<polygon fill="midnightblue" stroke="midnightblue" points="174.869,-86.6844 182.658,-79.5032 172.091,-80.2593 174.869,-86.6844"/>
</g>
<!-- Node9 -->
<g id="node9" class="node"><title>Node9</title>
<g id="a_node9"><a xlink:href="classscram_1_1core_1_1Node.xhtml#a8b76f2081293edc1cf85ddf8cb2ac2ed" target="_top" xlink:title="scram::core::Node::\lorder">
<polygon fill="white" stroke="black" points="168,-0.5 168,-30.5 272,-30.5 272,-0.5 168,-0.5"/>
<text text-anchor="start" x="176" y="-18.5" font-family="Helvetica,sans-Serif" font-size="10.00">scram::core::Node::</text>
<text text-anchor="middle" x="220" y="-7.5" font-family="Helvetica,sans-Serif" font-size="10.00">order</text>
</a>
</g>
</g>
<!-- Node1&#45;&gt;Node9 -->
<g id="edge8" class="edge"><title>Node1&#45;&gt;Node9</title>
<path fill="none" stroke="midnightblue" d="M70.5712,-127.731C85.7376,-108.714 121.688,-66.324 160,-40.5 162.721,-38.6657 165.599,-36.9222 168.561,-35.2729"/>
<polygon fill="midnightblue" stroke="midnightblue" points="170.334,-38.2969 177.626,-30.611 167.132,-32.0718 170.334,-38.2969"/>
</g>
<!-- Node6 -->
<g id="node6" class="node"><title>Node6</title>
<g id="a_node6"><a xlink:href="structscram_1_1core_1_1IntrusivePtrCast.xhtml#af153c12dc6133b7d9f9b7a57bba29f1d" target="_top" xlink:title="scram::core::IntrusivePtr\lCast\&lt; SetNode \&gt;::Ref">
<polygon fill="white" stroke="black" points="316,-122.5 316,-152.5 441,-152.5 441,-122.5 316,-122.5"/>
<text text-anchor="start" x="324" y="-140.5" font-family="Helvetica,sans-Serif" font-size="10.00">scram::core::IntrusivePtr</text>
<text text-anchor="middle" x="378.5" y="-129.5" font-family="Helvetica,sans-Serif" font-size="10.00">Cast&lt; SetNode &gt;::Ref</text>
</a>
</g>
</g>
<!-- Node5&#45;&gt;Node6 -->
<g id="edge5" class="edge"><title>Node5&#45;&gt;Node6</title>
<path fill="none" stroke="midnightblue" d="M271.379,-121.226C282.368,-122.911 294.2,-124.726 305.836,-126.51"/>
<polygon fill="midnightblue" stroke="midnightblue" points="305.571,-130.01 315.986,-128.067 306.632,-123.091 305.571,-130.01"/>
</g>
<!-- Node7 -->
<g id="node7" class="node"><title>Node7</title>
<g id="a_node7"><a xlink:href="classscram_1_1core_1_1SetNode.xhtml#a2d7f99792b82961df2e5ecfcd735bb5f" target="_top" xlink:title="scram::core::SetNode\l::max_set_order">
<polygon fill="white" stroke="black" points="322,-73.5 322,-103.5 435,-103.5 435,-73.5 322,-73.5"/>
<text text-anchor="start" x="330" y="-91.5" font-family="Helvetica,sans-Serif" font-size="10.00">scram::core::SetNode</text>
<text text-anchor="middle" x="378.5" y="-80.5" font-family="Helvetica,sans-Serif" font-size="10.00">::max_set_order</text>
</a>
</g>
</g>
<!-- Node5&#45;&gt;Node7 -->
<g id="edge6" class="edge"><title>Node5&#45;&gt;Node7</title>
<path fill="none" stroke="midnightblue" d="M271.379,-105.452C284.196,-103.405 298.16,-101.174 311.623,-99.0234"/>
<polygon fill="midnightblue" stroke="midnightblue" points="312.471,-102.432 321.794,-97.3988 311.367,-95.5201 312.471,-102.432"/>
</g>
</g>
</svg>
