<?xml version="1.0" encoding="UTF-8" standalone="no"?>
<!DOCTYPE svg PUBLIC "-//W3C//DTD SVG 1.1//EN"
 "http://www.w3.org/Graphics/SVG/1.1/DTD/svg11.dtd">
<!-- Generated by graphviz version 2.38.0 (20140413.2041)
 -->
<!-- Title: scram::core::Preprocessor::MarkCoherence Pages: 1 -->
<svg width="295pt" height="176pt"
 viewBox="0.00 0.00 295.00 175.50" xmlns="http://www.w3.org/2000/svg" xmlns:xlink="http://www.w3.org/1999/xlink">
<g id="graph0" class="graph" transform="scale(1 1) rotate(0) translate(4 171.5)">
<title>scram::core::Preprocessor::MarkCoherence</title>
<polygon fill="white" stroke="none" points="-4,4 -4,-171.5 291,-171.5 291,4 -4,4"/>
<!-- Node1 -->
<g id="node1" class="node"><title>Node1</title>
<polygon fill="#bfbfbf" stroke="black" points="0,-63 0,-93 132,-93 132,-63 0,-63"/>
<text text-anchor="start" x="8" y="-81" font-family="Helvetica,sans-Serif" font-size="10.00">scram::core::Preprocessor</text>
<text text-anchor="middle" x="66" y="-70" font-family="Helvetica,sans-Serif" font-size="10.00">::MarkCoherence</text>
</g>
<!-- Node2 -->
<g id="node2" class="node"><title>Node2</title>
<g id="a_node2"><a xlink:href="classscram_1_1core_1_1Pdag.xhtml#aa883d0e58b9faab69186bec03574c633" target="_top" xlink:title="Clears marks from graph nodes. ">
<polygon fill="white" stroke="black" points="176,-137 176,-167 279,-167 279,-137 176,-137"/>
<text text-anchor="start" x="184" y="-155" font-family="Helvetica,sans-Serif" font-size="10.00">scram::core::Pdag::</text>
<text text-anchor="middle" x="227.5" y="-144" font-family="Helvetica,sans-Serif" font-size="10.00">Clear</text>
</a>
</g>
</g>
<!-- Node1&#45;&gt;Node2 -->
<g id="edge1" class="edge"><title>Node1&#45;&gt;Node2</title>
<path fill="none" stroke="midnightblue" d="M96.3487,-93.211C116.366,-103.417 143.574,-116.96 168,-128 171.611,-129.632 175.366,-131.281 179.154,-132.909"/>
<polygon fill="midnightblue" stroke="midnightblue" points="177.997,-136.22 188.57,-136.894 180.725,-129.774 177.997,-136.22"/>
</g>
<!-- Node3 -->
<g id="node3" class="node"><title>Node3</title>
<g id="a_node3"><a xlink:href="classscram_1_1core_1_1Pdag.xhtml#ae8e2a4c99322296441f87c6ee9305979" target="_top" xlink:title="scram::core::Pdag::\lcoherent">
<polygon fill="white" stroke="black" points="176,-88 176,-118 279,-118 279,-88 176,-88"/>
<text text-anchor="start" x="184" y="-106" font-family="Helvetica,sans-Serif" font-size="10.00">scram::core::Pdag::</text>
<text text-anchor="middle" x="227.5" y="-95" font-family="Helvetica,sans-Serif" font-size="10.00">coherent</text>
</a>
</g>
</g>
<!-- Node1&#45;&gt;Node3 -->
<g id="edge2" class="edge"><title>Node1&#45;&gt;Node3</title>
<path fill="none" stroke="midnightblue" d="M132.335,-88.2406C143.401,-89.975 154.85,-91.7695 165.791,-93.4844"/>
<polygon fill="midnightblue" stroke="midnightblue" points="165.249,-96.9421 175.67,-95.0329 166.333,-90.0266 165.249,-96.9421"/>
</g>
<!-- Node4 -->
<g id="node4" class="node"><title>Node4</title>
<g id="a_node4"><a xlink:href="classscram_1_1core_1_1Pdag.xhtml#af5900b29c6c9f1b1cca22ed83e4dd58b" target="_top" xlink:title="scram::core::Pdag::\lcomplement">
<polygon fill="white" stroke="black" points="176,-39 176,-69 279,-69 279,-39 176,-39"/>
<text text-anchor="start" x="184" y="-57" font-family="Helvetica,sans-Serif" font-size="10.00">scram::core::Pdag::</text>
<text text-anchor="middle" x="227.5" y="-46" font-family="Helvetica,sans-Serif" font-size="10.00">complement</text>
</a>
</g>
</g>
<!-- Node1&#45;&gt;Node4 -->
<g id="edge3" class="edge"><title>Node1&#45;&gt;Node4</title>
<path fill="none" stroke="midnightblue" d="M132.335,-68.169C143.288,-66.521 154.616,-64.8164 165.455,-63.1854"/>
<polygon fill="midnightblue" stroke="midnightblue" points="166.302,-66.5975 175.67,-61.6484 165.261,-59.6754 166.302,-66.5975"/>
</g>
<!-- Node5 -->
<g id="node5" class="node"><title>Node5</title>
<g id="a_node5"><a xlink:href="classscram_1_1core_1_1Pdag.xhtml#ae9407efbb00e5f28aecb40db2ab7925b" target="_top" xlink:title="scram::core::Pdag::root">
<polygon fill="white" stroke="black" points="168,-0.5 168,-19.5 287,-19.5 287,-0.5 168,-0.5"/>
<text text-anchor="middle" x="227.5" y="-7.5" font-family="Helvetica,sans-Serif" font-size="10.00">scram::core::Pdag::root</text>
</a>
</g>
</g>
<!-- Node1&#45;&gt;Node5 -->
<g id="edge4" class="edge"><title>Node1&#45;&gt;Node5</title>
<path fill="none" stroke="midnightblue" d="M96.6514,-62.8083C116.568,-52.8784 143.545,-39.9536 168,-30 174.002,-27.557 180.427,-25.154 186.741,-22.9078"/>
<polygon fill="midnightblue" stroke="midnightblue" points="188.195,-26.1081 196.496,-19.5242 185.901,-19.4947 188.195,-26.1081"/>
</g>
</g>
</svg>
