<?xml version="1.0" encoding="UTF-8" standalone="no"?>
<!DOCTYPE svg PUBLIC "-//W3C//DTD SVG 1.1//EN"
 "http://www.w3.org/Graphics/SVG/1.1/DTD/svg11.dtd">
<!-- Generated by graphviz version 2.38.0 (20140413.2041)
 -->
<!-- Title: scram::core::Zbdd::Analyze Pages: 1 -->
<!--zoomable 607 -->
<svg id="main" version="1.1" xmlns="http://www.w3.org/2000/svg" xmlns:xlink="http://www.w3.org/1999/xlink" xml:space="preserve" onload="init(evt)">
<style type="text/css"><![CDATA[
.edge:hover path { stroke: red; }
.edge:hover polygon { stroke: red; fill: red; }
]]></style>
<script type="text/javascript"><![CDATA[
var edges = document.getElementsByTagName('g');
if (edges && edges.length) {
  for (var i=0;i<edges.length;i++) {
    if (edges[i].id.substr(0,4)=='edge') {
      edges[i].setAttribute('class','edge');
    }
  }
}
]]></script>
        <defs>
                <circle id="rim" cx="0" cy="0" r="7"/>
                <circle id="rim2" cx="0" cy="0" r="3.5"/>
                <g id="zoomPlus">
                        <use xlink:href="#rim" fill="#404040">
                                <set attributeName="fill" to="#808080" begin="zoomplus.mouseover" end="zoomplus.mouseout"/>
                        </use>
                        <path d="M-4,0h8M0,-4v8" fill="none" stroke="white" stroke-width="1.5" pointer-events="none"/>
                </g>
                <g id="zoomMin">
                        <use xlink:href="#rim" fill="#404040">
                                <set attributeName="fill" to="#808080" begin="zoomminus.mouseover" end="zoomminus.mouseout"/>
                        </use>
                        <path d="M-4,0h8" fill="none" stroke="white" stroke-width="1.5" pointer-events="none"/>
                </g>
                <g id="dirArrow">
                        <path fill="none" stroke="white" stroke-width="1.5" d="M0,-3.0v7 M-2.5,-0.5L0,-3.0L2.5,-0.5"/>
                </g>
               <g id="resetDef">
                       <use xlink:href="#rim2" fill="#404040">
                               <set attributeName="fill" to="#808080" begin="reset.mouseover" end="reset.mouseout"/>
                       </use>
               </g>
        </defs>

<script type="text/javascript">
var viewWidth = 609;
var viewHeight = 607;
var sectionId = 'dynsection-4';
</script>
<script xlink:href="svgpan.js"/>
<svg id="graph" class="graph">
<g id="viewport">
<title>scram::core::Zbdd::Analyze</title>
<polygon fill="white" stroke="none" points="-4,4 -4,-603.064 605,-603.064 605,4 -4,4"/>
<!-- Node1 -->
<g id="node1" class="node"><title>Node1</title>
<polygon fill="#bfbfbf" stroke="black" points="0,-454.564 0,-484.564 102,-484.564 102,-454.564 0,-454.564"/>
<text text-anchor="start" x="8" y="-472.564" font-family="Helvetica,sans-Serif" font-size="10.00">scram::core::Zbdd::</text>
<text text-anchor="middle" x="51" y="-461.564" font-family="Helvetica,sans-Serif" font-size="10.00">Analyze</text>
</g>
<!-- Node2 -->
<g id="node2" class="node"><title>Node2</title>
<g id="a_node2"><a xlink:href="classscram_1_1core_1_1Zbdd.xhtml#a3e6359ba152137912cbafc500c2e6430" target="_top" xlink:title="Freezes the graph. ">
<polygon fill="white" stroke="black" points="142,-568.564 142,-598.564 244,-598.564 244,-568.564 142,-568.564"/>
<text text-anchor="start" x="150" y="-586.564" font-family="Helvetica,sans-Serif" font-size="10.00">scram::core::Zbdd::</text>
<text text-anchor="middle" x="193" y="-575.564" font-family="Helvetica,sans-Serif" font-size="10.00">Freeze</text>
</a>
</g>
</g>
<!-- Node1&#45;&gt;Node2 -->
<g id="edge1" class="edge"><title>Node1&#45;&gt;Node2</title>
<path fill="none" stroke="midnightblue" d="M63.3522,-484.69C78.5685,-504.123 107.246,-537.924 138,-559.564 140.056,-561.01 142.212,-562.4 144.432,-563.73"/>
<polygon fill="midnightblue" stroke="midnightblue" points="142.775,-566.813 153.225,-568.561 146.146,-560.678 142.775,-566.813"/>
</g>
<!-- Node4 -->
<g id="node4" class="node"><title>Node4</title>
<g id="a_node4"><a xlink:href="classscram_1_1core_1_1Settings.xhtml#a0e43ec0f017d23a4fa4e376c4060d380" target="_top" xlink:title="scram::core::Settings\l::limit_order">
<polygon fill="white" stroke="black" points="138,-519.564 138,-549.564 248,-549.564 248,-519.564 138,-519.564"/>
<text text-anchor="start" x="146" y="-537.564" font-family="Helvetica,sans-Serif" font-size="10.00">scram::core::Settings</text>
<text text-anchor="middle" x="193" y="-526.564" font-family="Helvetica,sans-Serif" font-size="10.00">::limit_order</text>
</a>
</g>
</g>
<!-- Node1&#45;&gt;Node4 -->
<g id="edge3" class="edge"><title>Node1&#45;&gt;Node4</title>
<path fill="none" stroke="midnightblue" d="M84.4707,-484.64C103.944,-493.681 128.919,-505.276 149.897,-515.016"/>
<polygon fill="midnightblue" stroke="midnightblue" points="148.676,-518.308 159.22,-519.345 151.624,-511.959 148.676,-518.308"/>
</g>
<!-- Node5 -->
<g id="node5" class="node"><title>Node5</title>
<g id="a_node5"><a xlink:href="classscram_1_1core_1_1SetNode.xhtml#a2d7f99792b82961df2e5ecfcd735bb5f" target="_top" xlink:title="scram::core::SetNode\l::max_set_order">
<polygon fill="white" stroke="black" points="469,-428.564 469,-458.564 582,-458.564 582,-428.564 469,-428.564"/>
<text text-anchor="start" x="477" y="-446.564" font-family="Helvetica,sans-Serif" font-size="10.00">scram::core::SetNode</text>
<text text-anchor="middle" x="525.5" y="-435.564" font-family="Helvetica,sans-Serif" font-size="10.00">::max_set_order</text>
</a>
</g>
</g>
<!-- Node1&#45;&gt;Node5 -->
<g id="edge4" class="edge"><title>Node1&#45;&gt;Node5</title>
<path fill="none" stroke="midnightblue" d="M102.026,-474.002C172.106,-479.274 303.344,-485.704 414,-471.564 430.988,-469.393 449.118,-465.49 465.677,-461.274"/>
<polygon fill="midnightblue" stroke="midnightblue" points="466.979,-464.551 475.759,-458.622 465.198,-457.781 466.979,-464.551"/>
</g>
<!-- Node6 -->
<g id="node6" class="node"><title>Node6</title>
<g id="a_node6"><a xlink:href="classscram_1_1core_1_1SetNode.xhtml#a88d05af2b9f4f08b7bc66a31c2b9e249" target="_top" xlink:title="scram::core::SetNode\l::minimal">
<polygon fill="white" stroke="black" points="292.5,-431.564 292.5,-461.564 405.5,-461.564 405.5,-431.564 292.5,-431.564"/>
<text text-anchor="start" x="300.5" y="-449.564" font-family="Helvetica,sans-Serif" font-size="10.00">scram::core::SetNode</text>
<text text-anchor="middle" x="349" y="-438.564" font-family="Helvetica,sans-Serif" font-size="10.00">::minimal</text>
</a>
</g>
</g>
<!-- Node1&#45;&gt;Node6 -->
<g id="edge5" class="edge"><title>Node1&#45;&gt;Node6</title>
<path fill="none" stroke="midnightblue" d="M102.212,-465.662C151.798,-461.809 227.891,-455.897 282.268,-451.671"/>
<polygon fill="midnightblue" stroke="midnightblue" points="282.8,-455.141 292.498,-450.877 282.257,-448.162 282.8,-455.141"/>
</g>
<!-- Node7 -->
<g id="node7" class="node"><title>Node7</title>
<g id="a_node7"><a xlink:href="classscram_1_1core_1_1Zbdd.xhtml#a3dbb8ef5da2882daf6c39e9724eae459" target="_top" xlink:title="Removes subsets in ZBDD. ">
<polygon fill="white" stroke="black" points="142,-231.564 142,-261.564 244,-261.564 244,-231.564 142,-231.564"/>
<text text-anchor="start" x="150" y="-249.564" font-family="Helvetica,sans-Serif" font-size="10.00">scram::core::Zbdd::</text>
<text text-anchor="middle" x="193" y="-238.564" font-family="Helvetica,sans-Serif" font-size="10.00">Minimize</text>
</a>
</g>
</g>
<!-- Node1&#45;&gt;Node7 -->
<g id="edge6" class="edge"><title>Node1&#45;&gt;Node7</title>
<path fill="none" stroke="midnightblue" d="M61.6228,-454.236C85.6079,-416.031 148.187,-316.351 177.036,-270.399"/>
<polygon fill="midnightblue" stroke="midnightblue" points="180.142,-272.034 182.495,-261.704 174.214,-268.312 180.142,-272.034"/>
</g>
<!-- Node9 -->
<g id="node9" class="node"><title>Node9</title>
<g id="a_node9"><a xlink:href="structscram_1_1core_1_1IntrusivePtrCast.xhtml#af153c12dc6133b7d9f9b7a57bba29f1d" target="_top" xlink:title="scram::core::IntrusivePtr\lCast\&lt; T, Terminal\&lt; T \&gt; \&gt;::Ref">
<polygon fill="white" stroke="black" points="450,-231.564 450,-261.564 601,-261.564 601,-231.564 450,-231.564"/>
<text text-anchor="start" x="458" y="-249.564" font-family="Helvetica,sans-Serif" font-size="10.00">scram::core::IntrusivePtr</text>
<text text-anchor="middle" x="525.5" y="-238.564" font-family="Helvetica,sans-Serif" font-size="10.00">Cast&lt; T, Terminal&lt; T &gt; &gt;::Ref</text>
</a>
</g>
</g>
<!-- Node1&#45;&gt;Node9 -->
<g id="edge20" class="edge"><title>Node1&#45;&gt;Node9</title>
<path fill="none" stroke="midnightblue" d="M53.7746,-454.49C62.673,-386.834 109.192,-110.646 284,-21.5639 335.479,4.66958 364.96,8.98683 414,-21.5639 450.793,-44.4853 497.24,-167.99 516.033,-221.65"/>
<polygon fill="midnightblue" stroke="midnightblue" points="512.831,-223.097 519.412,-231.4 519.445,-220.805 512.831,-223.097"/>
</g>
<!-- Node3 -->
<g id="node3" class="node"><title>Node3</title>
<g id="a_node3"><a xlink:href="classscram_1_1core_1_1Zbdd.xhtml#a7c1129acd9810b5b9ff4952f587ce490" target="_top" xlink:title="Clears all memoization tables. ">
<polygon fill="white" stroke="black" points="298,-568.564 298,-598.564 400,-598.564 400,-568.564 298,-568.564"/>
<text text-anchor="start" x="306" y="-586.564" font-family="Helvetica,sans-Serif" font-size="10.00">scram::core::Zbdd::</text>
<text text-anchor="middle" x="349" y="-575.564" font-family="Helvetica,sans-Serif" font-size="10.00">ClearTables</text>
</a>
</g>
</g>
<!-- Node2&#45;&gt;Node3 -->
<g id="edge2" class="edge"><title>Node2&#45;&gt;Node3</title>
<path fill="none" stroke="midnightblue" d="M244.425,-583.564C258.261,-583.564 273.4,-583.564 287.728,-583.564"/>
<polygon fill="midnightblue" stroke="midnightblue" points="287.987,-587.064 297.987,-583.564 287.987,-580.064 287.987,-587.064"/>
</g>
<!-- Node7&#45;&gt;Node6 -->
<g id="edge13" class="edge"><title>Node7&#45;&gt;Node6</title>
<path fill="none" stroke="midnightblue" d="M197.683,-261.586C206.66,-295.152 232.781,-376.872 284,-422.564 285.309,-423.732 286.68,-424.844 288.102,-425.905"/>
<polygon fill="midnightblue" stroke="midnightblue" points="286.41,-428.977 296.718,-431.423 290.184,-423.082 286.41,-428.977"/>
</g>
<!-- Node8 -->
<g id="node8" class="node"><title>Node8</title>
<g id="a_node8"><a xlink:href="structscram_1_1core_1_1IntrusivePtrCast.xhtml#adc53e5b89cace18e05bac95316da7d91" target="_top" xlink:title="scram::core::IntrusivePtr\lCast\&lt; SetNode \&gt;::Ptr">
<polygon fill="white" stroke="black" points="286.5,-80.5639 286.5,-110.564 411.5,-110.564 411.5,-80.5639 286.5,-80.5639"/>
<text text-anchor="start" x="294.5" y="-98.5639" font-family="Helvetica,sans-Serif" font-size="10.00">scram::core::IntrusivePtr</text>
<text text-anchor="middle" x="349" y="-87.5639" font-family="Helvetica,sans-Serif" font-size="10.00">Cast&lt; SetNode &gt;::Ptr</text>
</a>
</g>
</g>
<!-- Node7&#45;&gt;Node8 -->
<g id="edge7" class="edge"><title>Node7&#45;&gt;Node8</title>
<path fill="none" stroke="midnightblue" d="M200.954,-231.426C213.768,-205.104 243.543,-150.738 284,-119.564 285.795,-118.181 287.678,-116.871 289.626,-115.63"/>
<polygon fill="midnightblue" stroke="midnightblue" points="291.516,-118.583 298.513,-110.627 288.082,-112.483 291.516,-118.583"/>
</g>
<!-- Node7&#45;&gt;Node9 -->
<g id="edge8" class="edge"><title>Node7&#45;&gt;Node9</title>
<path fill="none" stroke="midnightblue" d="M244.196,-241.555C296.026,-239.623 377.834,-239.299 439.721,-240.583"/>
<polygon fill="midnightblue" stroke="midnightblue" points="439.786,-244.085 449.862,-240.812 439.944,-237.087 439.786,-244.085"/>
</g>
<!-- Node7&#45;&gt;Node9 -->
<g id="edge12" class="edge"><title>Node7&#45;&gt;Node9</title>
<path fill="none" stroke="midnightblue" d="M244.196,-251.573C296.026,-253.505 377.834,-253.829 439.721,-252.545"/>
<polygon fill="midnightblue" stroke="midnightblue" points="439.944,-256.041 449.862,-252.316 439.786,-249.043 439.944,-256.041"/>
</g>
<!-- Node10 -->
<g id="node10" class="node"><title>Node10</title>
<g id="a_node10"><a xlink:href="classscram_1_1core_1_1Zbdd.xhtml#a42af18229ba2e80201bc0fdac07b7091" target="_top" xlink:title="Finds or adds a unique SetNode in the ZBDD. ">
<polygon fill="white" stroke="black" points="298,-382.564 298,-412.564 400,-412.564 400,-382.564 298,-382.564"/>
<text text-anchor="start" x="306" y="-400.564" font-family="Helvetica,sans-Serif" font-size="10.00">scram::core::Zbdd::</text>
<text text-anchor="middle" x="349" y="-389.564" font-family="Helvetica,sans-Serif" font-size="10.00">FindOrAddVertex</text>
</a>
</g>
</g>
<!-- Node7&#45;&gt;Node10 -->
<g id="edge9" class="edge"><title>Node7&#45;&gt;Node10</title>
<path fill="none" stroke="midnightblue" d="M200.954,-261.702C213.768,-288.024 243.543,-342.389 284,-373.564 285.795,-374.947 287.678,-376.257 289.626,-377.498"/>
<polygon fill="midnightblue" stroke="midnightblue" points="288.082,-380.645 298.513,-382.501 291.516,-374.545 288.082,-380.645"/>
</g>
<!-- Node11 -->
<g id="node11" class="node"><title>Node11</title>
<g id="a_node11"><a xlink:href="classscram_1_1core_1_1Terminal.xhtml#a7a25b0b40498f4876571a5dac4e724c3" target="_top" xlink:title="scram::core::Terminal\l::value">
<polygon fill="white" stroke="black" points="293,-31.5639 293,-61.5639 405,-61.5639 405,-31.5639 293,-31.5639"/>
<text text-anchor="start" x="301" y="-49.5639" font-family="Helvetica,sans-Serif" font-size="10.00">scram::core::Terminal</text>
<text text-anchor="middle" x="349" y="-38.5639" font-family="Helvetica,sans-Serif" font-size="10.00">::value</text>
</a>
</g>
</g>
<!-- Node7&#45;&gt;Node11 -->
<g id="edge14" class="edge"><title>Node7&#45;&gt;Node11</title>
<path fill="none" stroke="midnightblue" d="M197.683,-231.542C206.66,-197.976 232.781,-116.256 284,-70.5639 285.309,-69.3963 286.68,-68.2834 288.102,-67.223"/>
<polygon fill="midnightblue" stroke="midnightblue" points="290.184,-70.0455 296.718,-61.7053 286.41,-64.1505 290.184,-70.0455"/>
</g>
<!-- Node13 -->
<g id="node13" class="node"><title>Node13</title>
<g id="a_node13"><a xlink:href="classscram_1_1core_1_1Settings.xhtml#ae64f362fceb44402e101140dfc1725ba" target="_top" xlink:title="scram::core::Settings\l::prime_implicants">
<polygon fill="white" stroke="black" points="294,-333.564 294,-363.564 404,-363.564 404,-333.564 294,-333.564"/>
<text text-anchor="start" x="302" y="-351.564" font-family="Helvetica,sans-Serif" font-size="10.00">scram::core::Settings</text>
<text text-anchor="middle" x="349" y="-340.564" font-family="Helvetica,sans-Serif" font-size="10.00">::prime_implicants</text>
</a>
</g>
</g>
<!-- Node7&#45;&gt;Node13 -->
<g id="edge16" class="edge"><title>Node7&#45;&gt;Node13</title>
<path fill="none" stroke="midnightblue" d="M208.009,-261.585C224.713,-278.767 254.143,-306.811 284,-324.564 286.668,-326.15 289.459,-327.663 292.32,-329.1"/>
<polygon fill="midnightblue" stroke="midnightblue" points="291.087,-332.387 301.63,-333.434 294.041,-326.041 291.087,-332.387"/>
</g>
<!-- Node14 -->
<g id="node14" class="node"><title>Node14</title>
<g id="a_node14"><a xlink:href="classscram_1_1core_1_1NonTerminal.xhtml#aeeaafd82ae5890a7ec3462c68ffc8628" target="_top" xlink:title="scram::core::NonTerminal\l::index">
<polygon fill="white" stroke="black" points="284,-284.564 284,-314.564 414,-314.564 414,-284.564 284,-284.564"/>
<text text-anchor="start" x="292" y="-302.564" font-family="Helvetica,sans-Serif" font-size="10.00">scram::core::NonTerminal</text>
<text text-anchor="middle" x="349" y="-291.564" font-family="Helvetica,sans-Serif" font-size="10.00">::index</text>
</a>
</g>
</g>
<!-- Node7&#45;&gt;Node14 -->
<g id="edge17" class="edge"><title>Node7&#45;&gt;Node14</title>
<path fill="none" stroke="midnightblue" d="M237.718,-261.61C255.438,-267.708 276.069,-274.808 294.662,-281.207"/>
<polygon fill="midnightblue" stroke="midnightblue" points="293.578,-284.536 304.172,-284.48 295.856,-277.917 293.578,-284.536"/>
</g>
<!-- Node15 -->
<g id="node15" class="node"><title>Node15</title>
<g id="a_node15"><a xlink:href="classscram_1_1core_1_1NonTerminal.xhtml#a9230422e92d086c34f67bcb864bfc8a9" target="_top" xlink:title="scram::core::NonTerminal\l::module">
<polygon fill="white" stroke="black" points="284,-178.564 284,-208.564 414,-208.564 414,-178.564 284,-178.564"/>
<text text-anchor="start" x="292" y="-196.564" font-family="Helvetica,sans-Serif" font-size="10.00">scram::core::NonTerminal</text>
<text text-anchor="middle" x="349" y="-185.564" font-family="Helvetica,sans-Serif" font-size="10.00">::module</text>
</a>
</g>
</g>
<!-- Node7&#45;&gt;Node15 -->
<g id="edge18" class="edge"><title>Node7&#45;&gt;Node15</title>
<path fill="none" stroke="midnightblue" d="M237.718,-231.518C255.438,-225.42 276.069,-218.319 294.662,-211.921"/>
<polygon fill="midnightblue" stroke="midnightblue" points="295.856,-215.211 304.172,-208.647 293.578,-208.592 295.856,-215.211"/>
</g>
<!-- Node16 -->
<g id="node16" class="node"><title>Node16</title>
<g id="a_node16"><a xlink:href="classscram_1_1core_1_1NonTerminal.xhtml#adcdd0c5114aa6a1d32a03928adc07c49" target="_top" xlink:title="scram::core::NonTerminal\l::coherent">
<polygon fill="white" stroke="black" points="284,-129.564 284,-159.564 414,-159.564 414,-129.564 284,-129.564"/>
<text text-anchor="start" x="292" y="-147.564" font-family="Helvetica,sans-Serif" font-size="10.00">scram::core::NonTerminal</text>
<text text-anchor="middle" x="349" y="-136.564" font-family="Helvetica,sans-Serif" font-size="10.00">::coherent</text>
</a>
</g>
</g>
<!-- Node7&#45;&gt;Node16 -->
<g id="edge19" class="edge"><title>Node7&#45;&gt;Node16</title>
<path fill="none" stroke="midnightblue" d="M208.009,-231.543C224.713,-214.361 254.143,-186.317 284,-168.564 286.668,-166.978 289.459,-165.465 292.32,-164.027"/>
<polygon fill="midnightblue" stroke="midnightblue" points="294.041,-167.087 301.63,-159.694 291.087,-160.741 294.041,-167.087"/>
</g>
<!-- Node10&#45;&gt;Node5 -->
<g id="edge11" class="edge"><title>Node10&#45;&gt;Node5</title>
<path fill="none" stroke="midnightblue" d="M400.005,-410.746C418.442,-415.606 439.611,-421.186 459.201,-426.35"/>
<polygon fill="midnightblue" stroke="midnightblue" points="458.412,-429.762 468.974,-428.927 460.197,-422.993 458.412,-429.762"/>
</g>
<!-- Node10&#45;&gt;Node9 -->
<g id="edge10" class="edge"><title>Node10&#45;&gt;Node9</title>
<path fill="none" stroke="midnightblue" d="M398.161,-382.525C403.714,-379.924 409.126,-376.947 414,-373.564 454.946,-345.143 490.377,-298.226 509.469,-270.07"/>
<polygon fill="midnightblue" stroke="midnightblue" points="512.455,-271.9 515.08,-261.635 506.627,-268.023 512.455,-271.9"/>
</g>
<!-- Node12 -->
<g id="node12" class="node"><title>Node12</title>
<g id="a_node12"><a xlink:href="classscram_1_1core_1_1Vertex.xhtml#a8a4a6e9871c7b80b9951fea57617d438" target="_top" xlink:title="scram::core::Vertex::id">
<polygon fill="white" stroke="black" points="467.5,-37.0639 467.5,-56.0639 583.5,-56.0639 583.5,-37.0639 467.5,-37.0639"/>
<text text-anchor="middle" x="525.5" y="-44.0639" font-family="Helvetica,sans-Serif" font-size="10.00">scram::core::Vertex::id</text>
</a>
</g>
</g>
<!-- Node11&#45;&gt;Node12 -->
<g id="edge15" class="edge"><title>Node11&#45;&gt;Node12</title>
<path fill="none" stroke="midnightblue" d="M405.213,-46.5639C421.585,-46.5639 439.705,-46.5639 456.774,-46.5639"/>
<polygon fill="midnightblue" stroke="midnightblue" points="457.241,-50.064 467.241,-46.5639 457.241,-43.064 457.241,-50.064"/>
</g>
</g>
</svg>
        <g id="navigator" transform="translate(0 0)" fill="#404254">
                <rect fill="#f2f5e9" fill-opacity="0.5" stroke="#606060" stroke-width=".5" x="0" y="0" width="60" height="60"/>
                <use id="zoomplus" xlink:href="#zoomPlus" x="17" y="9" onmousedown="handleZoom(evt,'in')"/>
                <use id="zoomminus" xlink:href="#zoomMin" x="42" y="9" onmousedown="handleZoom(evt,'out')"/>
                <use id="reset" xlink:href="#resetDef" x="30" y="36" onmousedown="handleReset()"/>
                <g id="arrowUp" xlink:href="#dirArrow" transform="translate(30 24)" onmousedown="handlePan(0,-1)">
                  <use xlink:href="#rim" fill="#404040">
                        <set attributeName="fill" to="#808080" begin="arrowUp.mouseover" end="arrowUp.mouseout"/>
                  </use>
                  <path fill="none" stroke="white" stroke-width="1.5" d="M0,-3.0v7 M-2.5,-0.5L0,-3.0L2.5,-0.5"/>
                </g>
                <g id="arrowRight" xlink:href="#dirArrow" transform="rotate(90) translate(36 -43)" onmousedown="handlePan(1,0)">
                  <use xlink:href="#rim" fill="#404040">
                        <set attributeName="fill" to="#808080" begin="arrowRight.mouseover" end="arrowRight.mouseout"/>
                  </use>
                  <path fill="none" stroke="white" stroke-width="1.5" d="M0,-3.0v7 M-2.5,-0.5L0,-3.0L2.5,-0.5"/>
                </g>
                <g id="arrowDown" xlink:href="#dirArrow" transform="rotate(180) translate(-30 -48)" onmousedown="handlePan(0,1)">
                  <use xlink:href="#rim" fill="#404040">
                        <set attributeName="fill" to="#808080" begin="arrowDown.mouseover" end="arrowDown.mouseout"/>
                  </use>
                  <path fill="none" stroke="white" stroke-width="1.5" d="M0,-3.0v7 M-2.5,-0.5L0,-3.0L2.5,-0.5"/>
                </g>
                <g id="arrowLeft" xlink:href="#dirArrow" transform="rotate(270) translate(-36 17)" onmousedown="handlePan(-1,0)">
                  <use xlink:href="#rim" fill="#404040">
                        <set attributeName="fill" to="#808080" begin="arrowLeft.mouseover" end="arrowLeft.mouseout"/>
                  </use>
                  <path fill="none" stroke="white" stroke-width="1.5" d="M0,-3.0v7 M-2.5,-0.5L0,-3.0L2.5,-0.5"/>
                </g>
        </g>
        <svg viewBox="0 0 15 15" width="100%" height="30px" preserveAspectRatio="xMaxYMin meet">
         <g id="arrow_out" transform="scale(0.3 0.3)">
          <a xlink:href="classscram_1_1core_1_1Zbdd_a77945d28bd832d2735969d0b0a451c78_cgraph_org.svg" target="_base">
           <rect id="button" ry="5" rx="5" y="6" x="6" height="38" width="38"
                fill="#f2f5e9" fill-opacity="0.5" stroke="#606060" stroke-width="1.0"/>
           <path id="arrow"
             d="M 11.500037,31.436501 C 11.940474,20.09759 22.043105,11.32322 32.158766,21.979434 L 37.068811,17.246167 C 37.068811,17.246167 37.088388,32 37.088388,32 L 22.160133,31.978069 C 22.160133,31.978069 26.997745,27.140456 26.997745,27.140456 C 18.528582,18.264221 13.291696,25.230495 11.500037,31.436501 z"
             style="fill:#404040;"/>
          </a>
         </g>
        </svg>
</svg>
