<?xml version="1.0" encoding="UTF-8" standalone="no"?>
<!DOCTYPE svg PUBLIC "-//W3C//DTD SVG 1.1//EN"
 "http://www.w3.org/Graphics/SVG/1.1/DTD/svg11.dtd">
<!-- Generated by graphviz version 2.38.0 (20140413.2041)
 -->
<!-- Title: scram::core::Settings::limit_order Pages: 1 -->
<svg width="504pt" height="558pt"
 viewBox="0.00 0.00 504.00 558.00" xmlns="http://www.w3.org/2000/svg" xmlns:xlink="http://www.w3.org/1999/xlink">
<g id="graph0" class="graph" transform="scale(1 1) rotate(0) translate(4 554)">
<title>scram::core::Settings::limit_order</title>
<polygon fill="white" stroke="none" points="-4,4 -4,-554 500,-554 500,4 -4,4"/>
<!-- Node1 -->
<g id="node1" class="node"><title>Node1</title>
<polygon fill="#bfbfbf" stroke="black" points="0,-262.5 0,-292.5 110,-292.5 110,-262.5 0,-262.5"/>
<text text-anchor="start" x="8" y="-280.5" font-family="Helvetica,sans-Serif" font-size="10.00">scram::core::Settings</text>
<text text-anchor="middle" x="55" y="-269.5" font-family="Helvetica,sans-Serif" font-size="10.00">::limit_order</text>
</g>
<!-- Node2 -->
<g id="node2" class="node"><title>Node2</title>
<g id="a_node2"><a xlink:href="classscram_1_1core_1_1Mocus.xhtml#a008348c27bdc85ad9d0d106b18dcc1a2" target="_top" xlink:title="Finds minimal cut sets from the PDAG. ">
<polygon fill="white" stroke="black" points="170.5,-519.5 170.5,-549.5 274.5,-549.5 274.5,-519.5 170.5,-519.5"/>
<text text-anchor="start" x="178.5" y="-537.5" font-family="Helvetica,sans-Serif" font-size="10.00">scram::core::Mocus</text>
<text text-anchor="middle" x="222.5" y="-526.5" font-family="Helvetica,sans-Serif" font-size="10.00">::Analyze</text>
</a>
</g>
</g>
<!-- Node1&#45;&gt;Node2 -->
<g id="edge1" class="edge"><title>Node1&#45;&gt;Node2</title>
<path fill="none" stroke="midnightblue" d="M58.6433,-302.833C64.9503,-350.37 85.2042,-453.294 146,-510.5 152.811,-516.909 161.331,-521.607 170.171,-525.05"/>
<polygon fill="midnightblue" stroke="midnightblue" points="62.1018,-302.28 57.4107,-292.781 55.1538,-303.132 62.1018,-302.28"/>
</g>
<!-- Node3 -->
<g id="node3" class="node"><title>Node3</title>
<g id="a_node3"><a xlink:href="classscram_1_1core_1_1FaultTreeAnalysis.xhtml#a327afc0524cff5289c3887357487266b" target="_top" xlink:title="Analyzes the fault tree and performs computations. ">
<polygon fill="white" stroke="black" points="146,-470.5 146,-500.5 299,-500.5 299,-470.5 146,-470.5"/>
<text text-anchor="start" x="154" y="-488.5" font-family="Helvetica,sans-Serif" font-size="10.00">scram::core::FaultTreeAnalysis</text>
<text text-anchor="middle" x="222.5" y="-477.5" font-family="Helvetica,sans-Serif" font-size="10.00">::Analyze</text>
</a>
</g>
</g>
<!-- Node1&#45;&gt;Node3 -->
<g id="edge2" class="edge"><title>Node1&#45;&gt;Node3</title>
<path fill="none" stroke="midnightblue" d="M61.502,-302.463C71.4823,-341.924 96.3014,-418.624 146,-461.5 149.957,-464.914 154.403,-467.843 159.106,-470.357"/>
<polygon fill="midnightblue" stroke="midnightblue" points="64.871,-301.503 59.1234,-292.603 58.0662,-303.145 64.871,-301.503"/>
</g>
<!-- Node4 -->
<g id="node4" class="node"><title>Node4</title>
<g id="a_node4"><a xlink:href="classscram_1_1core_1_1Zbdd.xhtml#a77945d28bd832d2735969d0b0a451c78" target="_top" xlink:title="Runs the analysis with the representation of a PDAG as ZBDD. ">
<polygon fill="white" stroke="black" points="171.5,-421.5 171.5,-451.5 273.5,-451.5 273.5,-421.5 171.5,-421.5"/>
<text text-anchor="start" x="179.5" y="-439.5" font-family="Helvetica,sans-Serif" font-size="10.00">scram::core::Zbdd::</text>
<text text-anchor="middle" x="222.5" y="-428.5" font-family="Helvetica,sans-Serif" font-size="10.00">Analyze</text>
</a>
</g>
</g>
<!-- Node1&#45;&gt;Node4 -->
<g id="edge3" class="edge"><title>Node1&#45;&gt;Node4</title>
<path fill="none" stroke="midnightblue" d="M66.4091,-302.106C80.3094,-332.112 107.704,-382.414 146,-411.5 153.477,-417.179 162.309,-421.605 171.248,-425.043"/>
<polygon fill="midnightblue" stroke="midnightblue" points="69.5053,-300.457 62.2161,-292.768 63.1195,-303.324 69.5053,-300.457"/>
</g>
<!-- Node6 -->
<g id="node6" class="node"><title>Node6</title>
<g id="a_node6"><a xlink:href="classscram_1_1Config.xhtml#ab0d7940fbb627fab9867821e133eab5d" target="_top" xlink:title="A constructor with configurations for analysis. ">
<polygon fill="white" stroke="black" points="166,-383 166,-402 279,-402 279,-383 166,-383"/>
<text text-anchor="middle" x="222.5" y="-390" font-family="Helvetica,sans-Serif" font-size="10.00">scram::Config::Config</text>
</a>
</g>
</g>
<!-- Node1&#45;&gt;Node6 -->
<g id="edge5" class="edge"><title>Node1&#45;&gt;Node6</title>
<path fill="none" stroke="midnightblue" d="M71.787,-300.873C87.8939,-322.901 114.89,-355.185 146,-373.5 152.639,-377.409 160.065,-380.519 167.598,-382.992"/>
<polygon fill="midnightblue" stroke="midnightblue" points="74.6171,-298.814 65.9643,-292.7 68.9159,-302.875 74.6171,-298.814"/>
</g>
<!-- Node7 -->
<g id="node7" class="node"><title>Node7</title>
<g id="a_node7"><a xlink:href="classscram_1_1core_1_1zbdd_1_1CutSetContainer.xhtml#a15ccbd5b839be87c831a743f0100588e" target="_top" xlink:title="Converts a PDAG gate into intermediate cut sets. ">
<polygon fill="white" stroke="black" points="147,-333.5 147,-363.5 298,-363.5 298,-333.5 147,-333.5"/>
<text text-anchor="start" x="155" y="-351.5" font-family="Helvetica,sans-Serif" font-size="10.00">scram::core::zbdd::</text>
<text text-anchor="middle" x="222.5" y="-340.5" font-family="Helvetica,sans-Serif" font-size="10.00">CutSetContainer::ConvertGate</text>
</a>
</g>
</g>
<!-- Node1&#45;&gt;Node7 -->
<g id="edge6" class="edge"><title>Node1&#45;&gt;Node7</title>
<path fill="none" stroke="midnightblue" d="M91.0049,-297.588C107.39,-306.518 127.363,-316.741 146,-324.5 153.618,-327.672 161.813,-330.675 169.895,-333.415"/>
<polygon fill="midnightblue" stroke="midnightblue" points="92.2553,-294.28 81.8097,-292.508 88.8705,-300.408 92.2553,-294.28"/>
</g>
<!-- Node8 -->
<g id="node8" class="node"><title>Node8</title>
<g id="a_node8"><a xlink:href="classscram_1_1core_1_1Zbdd.xhtml#ac3ac27090b550d973b20bd971c3de9f9" target="_top" xlink:title="Removes complements of variables from products. ">
<polygon fill="white" stroke="black" points="163.5,-196.5 163.5,-226.5 281.5,-226.5 281.5,-196.5 163.5,-196.5"/>
<text text-anchor="start" x="171.5" y="-214.5" font-family="Helvetica,sans-Serif" font-size="10.00">scram::core::Zbdd::</text>
<text text-anchor="middle" x="222.5" y="-203.5" font-family="Helvetica,sans-Serif" font-size="10.00">EliminateComplements</text>
</a>
</g>
</g>
<!-- Node1&#45;&gt;Node8 -->
<g id="edge7" class="edge"><title>Node1&#45;&gt;Node8</title>
<path fill="none" stroke="midnightblue" d="M102.994,-258.679C116.843,-253.139 132.029,-247.07 146,-241.5 158.185,-236.642 171.48,-231.355 183.472,-226.591"/>
<polygon fill="midnightblue" stroke="midnightblue" points="101.635,-255.453 93.6509,-262.417 104.236,-261.952 101.635,-255.453"/>
</g>
<!-- Node9 -->
<g id="node9" class="node"><title>Node9</title>
<g id="a_node9"><a xlink:href="classscram_1_1core_1_1Zbdd.xhtml#af92e04ed908364e0177ce444d7b72712" target="_top" xlink:title="The common constructor to initialize member variables. ">
<polygon fill="white" stroke="black" points="353.5,-246 353.5,-265 477.5,-265 477.5,-246 353.5,-246"/>
<text text-anchor="middle" x="415.5" y="-253" font-family="Helvetica,sans-Serif" font-size="10.00">scram::core::Zbdd::Zbdd</text>
</a>
</g>
</g>
<!-- Node1&#45;&gt;Node9 -->
<g id="edge19" class="edge"><title>Node1&#45;&gt;Node9</title>
<path fill="none" stroke="midnightblue" d="M120.344,-273.551C186.421,-269.496 288.512,-263.231 353.385,-259.25"/>
<polygon fill="midnightblue" stroke="midnightblue" points="119.826,-270.077 110.059,-274.183 120.255,-277.063 119.826,-270.077"/>
</g>
<!-- Node11 -->
<g id="node11" class="node"><title>Node11</title>
<g id="a_node11"><a xlink:href="classscram_1_1core_1_1Zbdd.xhtml#aeb83fd37f2aee74ac41e6ccadba82d39" target="_top" xlink:title="Removes constant modules from products. ">
<polygon fill="white" stroke="black" points="155.5,-284.5 155.5,-314.5 289.5,-314.5 289.5,-284.5 155.5,-284.5"/>
<text text-anchor="start" x="163.5" y="-302.5" font-family="Helvetica,sans-Serif" font-size="10.00">scram::core::Zbdd::</text>
<text text-anchor="middle" x="222.5" y="-291.5" font-family="Helvetica,sans-Serif" font-size="10.00">EliminateConstantModules</text>
</a>
</g>
</g>
<!-- Node1&#45;&gt;Node11 -->
<g id="edge10" class="edge"><title>Node1&#45;&gt;Node11</title>
<path fill="none" stroke="midnightblue" d="M120.173,-286.031C131.709,-287.564 143.752,-289.165 155.343,-290.706"/>
<polygon fill="midnightblue" stroke="midnightblue" points="120.565,-282.552 110.191,-284.704 119.642,-289.491 120.565,-282.552"/>
</g>
<!-- Node13 -->
<g id="node13" class="node"><title>Node13</title>
<g id="a_node13"><a xlink:href="classscram_1_1core_1_1zbdd_1_1CutSetContainer.xhtml#a59985023f1eba639571610ad9a0b2a41" target="_top" xlink:title="Expands the intermediate ZBDD representation of a gate in intermediate cut sets containing the gate...">
<polygon fill="white" stroke="black" points="148,-98.5 148,-128.5 297,-128.5 297,-98.5 148,-98.5"/>
<text text-anchor="start" x="156" y="-116.5" font-family="Helvetica,sans-Serif" font-size="10.00">scram::core::zbdd::</text>
<text text-anchor="middle" x="222.5" y="-105.5" font-family="Helvetica,sans-Serif" font-size="10.00">CutSetContainer::ExpandGate</text>
</a>
</g>
</g>
<!-- Node1&#45;&gt;Node13 -->
<g id="edge13" class="edge"><title>Node1&#45;&gt;Node13</title>
<path fill="none" stroke="midnightblue" d="M65.7787,-252.866C79.3026,-221.853 106.591,-168.958 146,-138.5 151.025,-134.616 156.683,-131.321 162.582,-128.528"/>
<polygon fill="midnightblue" stroke="midnightblue" points="62.541,-251.536 61.8736,-262.11 68.9892,-254.26 62.541,-251.536"/>
</g>
<!-- Node14 -->
<g id="node14" class="node"><title>Node14</title>
<g id="a_node14"><a xlink:href="classscram_1_1core_1_1Zbdd.xhtml#ac90d12f0c653c679d22109124fa6344c" target="_top" xlink:title="Find or adds a ZBDD SetNode vertex using information from gates. ">
<polygon fill="white" stroke="black" points="171.5,-49.5 171.5,-79.5 273.5,-79.5 273.5,-49.5 171.5,-49.5"/>
<text text-anchor="start" x="179.5" y="-67.5" font-family="Helvetica,sans-Serif" font-size="10.00">scram::core::Zbdd::</text>
<text text-anchor="middle" x="222.5" y="-56.5" font-family="Helvetica,sans-Serif" font-size="10.00">FindOrAddVertex</text>
</a>
</g>
</g>
<!-- Node1&#45;&gt;Node14 -->
<g id="edge14" class="edge"><title>Node1&#45;&gt;Node14</title>
<path fill="none" stroke="midnightblue" d="M61.1673,-252.428C70.7762,-212.078 95.2059,-132.788 146,-88.5 153.257,-82.1728 162.19,-77.5113 171.34,-74.0777"/>
<polygon fill="midnightblue" stroke="midnightblue" points="57.7361,-251.733 58.9381,-262.259 64.5628,-253.281 57.7361,-251.733"/>
</g>
<!-- Node15 -->
<g id="node15" class="node"><title>Node15</title>
<g id="a_node15"><a xlink:href="classscram_1_1core_1_1Zbdd.xhtml#a516f0d2f35ad213399f83fb9ab102561" target="_top" xlink:title="Traverses ZBDD to find modules and adjusted cut&#45;offs. ">
<polygon fill="white" stroke="black" points="171.5,-147.5 171.5,-177.5 273.5,-177.5 273.5,-147.5 171.5,-147.5"/>
<text text-anchor="start" x="179.5" y="-165.5" font-family="Helvetica,sans-Serif" font-size="10.00">scram::core::Zbdd::</text>
<text text-anchor="middle" x="222.5" y="-154.5" font-family="Helvetica,sans-Serif" font-size="10.00">GatherModules</text>
</a>
</g>
</g>
<!-- Node1&#45;&gt;Node15 -->
<g id="edge15" class="edge"><title>Node1&#45;&gt;Node15</title>
<path fill="none" stroke="midnightblue" d="M73.745,-254.454C90.4159,-234.231 117.071,-205.339 146,-187.5 153.757,-182.717 162.532,-178.738 171.285,-175.467"/>
<polygon fill="midnightblue" stroke="midnightblue" points="70.9967,-252.286 67.4432,-262.267 76.4454,-256.681 70.9967,-252.286"/>
</g>
<!-- Node17 -->
<g id="node17" class="node"><title>Node17</title>
<g id="a_node17"><a xlink:href="classscram_1_1core_1_1zbdd_1_1CutSetContainer.xhtml#a87489caef0ebb8e4b62c600455da84a2" target="_top" xlink:title="Merges a set of cut sets into the main container. ">
<polygon fill="white" stroke="black" points="161.5,-0.5 161.5,-30.5 283.5,-30.5 283.5,-0.5 161.5,-0.5"/>
<text text-anchor="start" x="169.5" y="-18.5" font-family="Helvetica,sans-Serif" font-size="10.00">scram::core::zbdd::</text>
<text text-anchor="middle" x="222.5" y="-7.5" font-family="Helvetica,sans-Serif" font-size="10.00">CutSetContainer::Merge</text>
</a>
</g>
</g>
<!-- Node1&#45;&gt;Node17 -->
<g id="edge18" class="edge"><title>Node1&#45;&gt;Node17</title>
<path fill="none" stroke="midnightblue" d="M58.4284,-251.984C64.3938,-203.603 84.1253,-98.1351 146,-39.5 150.493,-35.2427 155.738,-31.7405 161.334,-28.8596"/>
<polygon fill="midnightblue" stroke="midnightblue" points="54.9188,-251.872 57.2715,-262.202 61.8744,-252.659 54.9188,-251.872"/>
</g>
<!-- Node5 -->
<g id="node5" class="node"><title>Node5</title>
<g id="a_node5"><a xlink:href="classscram_1_1core_1_1FaultTreeAnalyzer.xhtml#aedae0c884539dab245018194771f5021" target="_top" xlink:title="scram::core::FaultTreeAnalyzer\l::algorithm">
<polygon fill="white" stroke="black" points="338.5,-421.5 338.5,-451.5 492.5,-451.5 492.5,-421.5 338.5,-421.5"/>
<text text-anchor="start" x="346.5" y="-439.5" font-family="Helvetica,sans-Serif" font-size="10.00">scram::core::FaultTreeAnalyzer</text>
<text text-anchor="middle" x="415.5" y="-428.5" font-family="Helvetica,sans-Serif" font-size="10.00">::algorithm</text>
</a>
</g>
</g>
<!-- Node4&#45;&gt;Node5 -->
<g id="edge4" class="edge"><title>Node4&#45;&gt;Node5</title>
<path fill="none" stroke="midnightblue" d="M284.159,-436.5C301.388,-436.5 320.37,-436.5 338.39,-436.5"/>
<polygon fill="midnightblue" stroke="midnightblue" points="283.683,-433 273.683,-436.5 283.683,-440 283.683,-433"/>
</g>
<!-- Node8&#45;&gt;Node9 -->
<g id="edge8" class="edge"><title>Node8&#45;&gt;Node9</title>
<path fill="none" stroke="midnightblue" d="M291.457,-227.155C318.705,-233.432 349.224,-240.463 373.051,-245.951"/>
<polygon fill="midnightblue" stroke="midnightblue" points="292.115,-223.715 281.584,-224.881 290.543,-230.536 292.115,-223.715"/>
</g>
<!-- Node10 -->
<g id="node10" class="node"><title>Node10</title>
<g id="a_node10"><a xlink:href="classscram_1_1core_1_1zbdd_1_1CutSetContainer.xhtml#a49532388bd9b917f4351f94f728518aa" target="_top" xlink:title="Eliminates all complements from cut sets. ">
<polygon fill="white" stroke="black" points="347.5,-186 347.5,-227 483.5,-227 483.5,-186 347.5,-186"/>
<text text-anchor="start" x="355.5" y="-215" font-family="Helvetica,sans-Serif" font-size="10.00">scram::core::zbdd::</text>
<text text-anchor="start" x="355.5" y="-204" font-family="Helvetica,sans-Serif" font-size="10.00">CutSetContainer::Eliminate</text>
<text text-anchor="middle" x="415.5" y="-193" font-family="Helvetica,sans-Serif" font-size="10.00">Complements</text>
</a>
</g>
</g>
<!-- Node8&#45;&gt;Node10 -->
<g id="edge9" class="edge"><title>Node8&#45;&gt;Node10</title>
<path fill="none" stroke="midnightblue" d="M291.746,-209.713C309.814,-209.24 329.303,-208.73 347.314,-208.259"/>
<polygon fill="midnightblue" stroke="midnightblue" points="291.489,-206.219 281.584,-209.979 291.672,-213.216 291.489,-206.219"/>
</g>
<!-- Node11&#45;&gt;Node9 -->
<g id="edge11" class="edge"><title>Node11&#45;&gt;Node9</title>
<path fill="none" stroke="midnightblue" d="M298.679,-282.181C324.056,-276.335 351.441,-270.027 373.207,-265.012"/>
<polygon fill="midnightblue" stroke="midnightblue" points="297.656,-278.825 288.697,-284.481 299.228,-285.646 297.656,-278.825"/>
</g>
<!-- Node12 -->
<g id="node12" class="node"><title>Node12</title>
<g id="a_node12"><a xlink:href="classscram_1_1core_1_1zbdd_1_1CutSetContainer.xhtml#a1022ad7a4699257a6f0c0809d8f1903d" target="_top" xlink:title="Removes constant modules from cut sets. ">
<polygon fill="white" stroke="black" points="347.5,-284 347.5,-325 483.5,-325 483.5,-284 347.5,-284"/>
<text text-anchor="start" x="355.5" y="-313" font-family="Helvetica,sans-Serif" font-size="10.00">scram::core::zbdd::</text>
<text text-anchor="start" x="355.5" y="-302" font-family="Helvetica,sans-Serif" font-size="10.00">CutSetContainer::Eliminate</text>
<text text-anchor="middle" x="415.5" y="-291" font-family="Helvetica,sans-Serif" font-size="10.00">ConstantModules</text>
</a>
</g>
</g>
<!-- Node11&#45;&gt;Node12 -->
<g id="edge12" class="edge"><title>Node11&#45;&gt;Node12</title>
<path fill="none" stroke="midnightblue" d="M299.955,-301.501C315.644,-301.912 332.049,-302.342 347.38,-302.743"/>
<polygon fill="midnightblue" stroke="midnightblue" points="299.855,-297.998 289.766,-301.235 299.671,-304.995 299.855,-297.998"/>
</g>
<!-- Node15&#45;&gt;Node9 -->
<g id="edge16" class="edge"><title>Node15&#45;&gt;Node9</title>
<path fill="none" stroke="midnightblue" d="M283.134,-178.269C288.738,-180.907 294.134,-183.964 299,-187.5 320.86,-203.387 312.483,-221.558 335,-236.5 340.794,-240.345 347.282,-243.414 353.987,-245.863"/>
<polygon fill="midnightblue" stroke="midnightblue" points="284.134,-174.892 273.561,-174.215 281.404,-181.338 284.134,-174.892"/>
</g>
<!-- Node16 -->
<g id="node16" class="node"><title>Node16</title>
<g id="a_node16"><a xlink:href="classscram_1_1core_1_1zbdd_1_1CutSetContainer.xhtml#a478c89f64731781882b50ec55898900b" target="_top" xlink:title="Gathers all module indices in the cut sets. ">
<polygon fill="white" stroke="black" points="335,-137.5 335,-167.5 496,-167.5 496,-137.5 335,-137.5"/>
<text text-anchor="start" x="343" y="-155.5" font-family="Helvetica,sans-Serif" font-size="10.00">scram::core::zbdd::</text>
<text text-anchor="middle" x="415.5" y="-144.5" font-family="Helvetica,sans-Serif" font-size="10.00">CutSetContainer::GatherModules</text>
</a>
</g>
</g>
<!-- Node15&#45;&gt;Node16 -->
<g id="edge17" class="edge"><title>Node15&#45;&gt;Node16</title>
<path fill="none" stroke="midnightblue" d="M284.021,-159.331C300.124,-158.488 317.768,-157.565 334.731,-156.676"/>
<polygon fill="midnightblue" stroke="midnightblue" points="283.486,-155.854 273.683,-159.873 283.852,-162.845 283.486,-155.854"/>
</g>
</g>
</svg>
