<?xml version="1.0" encoding="UTF-8" standalone="no"?>
<!DOCTYPE svg PUBLIC "-//W3C//DTD SVG 1.1//EN"
 "http://www.w3.org/Graphics/SVG/1.1/DTD/svg11.dtd">
<!-- Generated by graphviz version 2.38.0 (20140413.2041)
 -->
<!-- Title: scram::core::Preprocessor::AssignOrder Pages: 1 -->
<svg width="1039pt" height="182pt"
 viewBox="0.00 0.00 1039.00 182.00" xmlns="http://www.w3.org/2000/svg" xmlns:xlink="http://www.w3.org/1999/xlink">
<g id="graph0" class="graph" transform="scale(1 1) rotate(0) translate(4 178)">
<title>scram::core::Preprocessor::AssignOrder</title>
<polygon fill="white" stroke="none" points="-4,4 -4,-178 1035,-178 1035,4 -4,4"/>
<!-- Node1 -->
<g id="node1" class="node"><title>Node1</title>
<polygon fill="#bfbfbf" stroke="black" points="0,-52.5 0,-82.5 132,-82.5 132,-52.5 0,-52.5"/>
<text text-anchor="start" x="8" y="-70.5" font-family="Helvetica,sans-Serif" font-size="10.00">scram::core::Preprocessor</text>
<text text-anchor="middle" x="66" y="-59.5" font-family="Helvetica,sans-Serif" font-size="10.00">::AssignOrder</text>
</g>
<!-- Node2 -->
<g id="node2" class="node"><title>Node2</title>
<g id="a_node2"><a xlink:href="classscram_1_1core_1_1Preprocessor.xhtml#a9caf4677a024ed935d831210b57b8ed9" target="_top" xlink:title="Gathers nodes in the sub&#45;graph. ">
<polygon fill="white" stroke="black" points="713.5,-143.5 713.5,-173.5 845.5,-173.5 845.5,-143.5 713.5,-143.5"/>
<text text-anchor="start" x="721.5" y="-161.5" font-family="Helvetica,sans-Serif" font-size="10.00">scram::core::Preprocessor</text>
<text text-anchor="middle" x="779.5" y="-150.5" font-family="Helvetica,sans-Serif" font-size="10.00">::GatherNodes</text>
</a>
</g>
</g>
<!-- Node1&#45;&gt;Node2 -->
<g id="edge1" class="edge"><title>Node1&#45;&gt;Node2</title>
<path fill="none" stroke="midnightblue" d="M120.266,-85.7672C173.994,-103.282 259.684,-128.745 336,-140.5 468.793,-160.954 626.483,-161.871 713.202,-160.392"/>
<polygon fill="midnightblue" stroke="midnightblue" points="121.208,-82.3927 110.615,-82.5943 119.022,-89.0426 121.208,-82.3927"/>
</g>
<!-- Node3 -->
<g id="node3" class="node"><title>Node3</title>
<g id="a_node3"><a xlink:href="classscram_1_1core_1_1Preprocessor.xhtml#ad13e133278ea7563c1ba037c05c35aa2" target="_top" xlink:title="Normalizes the gates of the whole PDAG into OR, AND gates. ">
<polygon fill="white" stroke="black" points="168,-52.5 168,-82.5 300,-82.5 300,-52.5 168,-52.5"/>
<text text-anchor="start" x="176" y="-70.5" font-family="Helvetica,sans-Serif" font-size="10.00">scram::core::Preprocessor</text>
<text text-anchor="middle" x="234" y="-59.5" font-family="Helvetica,sans-Serif" font-size="10.00">::NormalizeGates</text>
</a>
</g>
</g>
<!-- Node1&#45;&gt;Node3 -->
<g id="edge2" class="edge"><title>Node1&#45;&gt;Node3</title>
<path fill="none" stroke="midnightblue" d="M142.393,-67.5C150.869,-67.5 159.452,-67.5 167.784,-67.5"/>
<polygon fill="midnightblue" stroke="midnightblue" points="142.131,-64.0001 132.131,-67.5 142.131,-71.0001 142.131,-64.0001"/>
</g>
<!-- Node8 -->
<g id="node8" class="node"><title>Node8</title>
<g id="a_node8"><a xlink:href="classscram_1_1core_1_1CustomPreprocessor_3_01Zbdd_01_4.xhtml#a5185075f852c647c7aa4313d23420ee5" target="_top" xlink:title="Performs preprocessing for analyses with Zero&#45;Suppressed Binary Decision Diagrams. ">
<polygon fill="white" stroke="black" points="696,-0.5 696,-30.5 863,-30.5 863,-0.5 696,-0.5"/>
<text text-anchor="start" x="704" y="-18.5" font-family="Helvetica,sans-Serif" font-size="10.00">scram::core::CustomPreprocessor</text>
<text text-anchor="middle" x="779.5" y="-7.5" font-family="Helvetica,sans-Serif" font-size="10.00">&lt; Zbdd &gt;::Run</text>
</a>
</g>
</g>
<!-- Node1&#45;&gt;Node8 -->
<g id="edge14" class="edge"><title>Node1&#45;&gt;Node8</title>
<path fill="none" stroke="midnightblue" d="M129.547,-50.0687C142.19,-47.0978 155.453,-44.3717 168,-42.5 355.041,-14.5979 577.595,-12.4616 695.526,-13.7376"/>
<polygon fill="midnightblue" stroke="midnightblue" points="128.458,-46.7314 119.566,-52.4922 130.109,-53.5337 128.458,-46.7314"/>
</g>
<!-- Node4 -->
<g id="node4" class="node"><title>Node4</title>
<g id="a_node4"><a xlink:href="classscram_1_1core_1_1Preprocessor.xhtml#a5ee92284aef510ce01a71c962d50f51c" target="_top" xlink:title="Runs the graph preprocessing. ">
<polygon fill="white" stroke="black" points="713.5,-62.5 713.5,-92.5 845.5,-92.5 845.5,-62.5 713.5,-62.5"/>
<text text-anchor="start" x="721.5" y="-80.5" font-family="Helvetica,sans-Serif" font-size="10.00">scram::core::Preprocessor</text>
<text text-anchor="middle" x="779.5" y="-69.5" font-family="Helvetica,sans-Serif" font-size="10.00">::operator()</text>
</a>
</g>
</g>
<!-- Node3&#45;&gt;Node4 -->
<g id="edge3" class="edge"><title>Node3&#45;&gt;Node4</title>
<path fill="none" stroke="midnightblue" d="M295.383,-50.026C308.652,-46.8974 322.711,-44.1202 336,-42.5 469.677,-26.2017 627.044,-48.4632 713.469,-64.2358"/>
<polygon fill="midnightblue" stroke="midnightblue" points="294.292,-46.6899 285.415,-52.4736 295.961,-53.4879 294.292,-46.6899"/>
</g>
<!-- Node6 -->
<g id="node6" class="node"><title>Node6</title>
<g id="a_node6"><a xlink:href="classscram_1_1core_1_1Preprocessor.xhtml#a44f820b6fe2c23594c818432b33e26a6" target="_top" xlink:title="The initial phase of preprocessing. ">
<polygon fill="white" stroke="black" points="336,-101.5 336,-131.5 468,-131.5 468,-101.5 336,-101.5"/>
<text text-anchor="start" x="344" y="-119.5" font-family="Helvetica,sans-Serif" font-size="10.00">scram::core::Preprocessor</text>
<text text-anchor="middle" x="402" y="-108.5" font-family="Helvetica,sans-Serif" font-size="10.00">::RunPhaseOne</text>
</a>
</g>
</g>
<!-- Node3&#45;&gt;Node6 -->
<g id="edge5" class="edge"><title>Node3&#45;&gt;Node6</title>
<path fill="none" stroke="midnightblue" d="M295.868,-85.467C313.654,-90.717 332.902,-96.3989 350.009,-101.448"/>
<polygon fill="midnightblue" stroke="midnightblue" points="296.742,-82.0757 286.16,-82.6014 294.76,-88.7894 296.742,-82.0757"/>
</g>
<!-- Node9 -->
<g id="node9" class="node"><title>Node9</title>
<g id="a_node9"><a xlink:href="classscram_1_1core_1_1Preprocessor.xhtml#abf2c66723172a85b2ae87ef2a034cd1f" target="_top" xlink:title="Application of gate normalization. ">
<polygon fill="white" stroke="black" points="336,-52.5 336,-82.5 468,-82.5 468,-52.5 336,-52.5"/>
<text text-anchor="start" x="344" y="-70.5" font-family="Helvetica,sans-Serif" font-size="10.00">scram::core::Preprocessor</text>
<text text-anchor="middle" x="402" y="-59.5" font-family="Helvetica,sans-Serif" font-size="10.00">::RunPhaseThree</text>
</a>
</g>
</g>
<!-- Node3&#45;&gt;Node9 -->
<g id="edge11" class="edge"><title>Node3&#45;&gt;Node9</title>
<path fill="none" stroke="midnightblue" d="M310.393,-67.5C318.869,-67.5 327.452,-67.5 335.784,-67.5"/>
<polygon fill="midnightblue" stroke="midnightblue" points="310.131,-64.0001 300.131,-67.5 310.131,-71.0001 310.131,-64.0001"/>
</g>
<!-- Node5 -->
<g id="node5" class="node"><title>Node5</title>
<g id="a_node5"><a xlink:href="classscram_1_1core_1_1Preprocessor_1_1GateSet.xhtml#ae00239084858979e096032c4cf2f05b9" target="_top" xlink:title="Inserts a gate into the set if it is semantically unique. ">
<polygon fill="white" stroke="black" points="899,-62.5 899,-92.5 1031,-92.5 1031,-62.5 899,-62.5"/>
<text text-anchor="start" x="907" y="-80.5" font-family="Helvetica,sans-Serif" font-size="10.00">scram::core::Preprocessor</text>
<text text-anchor="middle" x="965" y="-69.5" font-family="Helvetica,sans-Serif" font-size="10.00">::GateSet::insert</text>
</a>
</g>
</g>
<!-- Node4&#45;&gt;Node5 -->
<g id="edge4" class="edge"><title>Node4&#45;&gt;Node5</title>
<path fill="none" stroke="midnightblue" d="M855.989,-77.5C870.264,-77.5 885.081,-77.5 898.998,-77.5"/>
<polygon fill="midnightblue" stroke="midnightblue" points="855.712,-74.0001 845.712,-77.5 855.712,-81.0001 855.712,-74.0001"/>
</g>
<!-- Node6&#45;&gt;Node4 -->
<g id="edge6" class="edge"><title>Node6&#45;&gt;Node4</title>
<path fill="none" stroke="midnightblue" d="M478.241,-123.921C529.768,-127.338 599.463,-128.677 660,-118.5 689.519,-113.538 721.514,-102.078 744.809,-92.5322"/>
<polygon fill="midnightblue" stroke="midnightblue" points="478.408,-120.424 468.187,-123.213 477.916,-127.407 478.408,-120.424"/>
</g>
<!-- Node7 -->
<g id="node7" class="node"><title>Node7</title>
<g id="a_node7"><a xlink:href="classscram_1_1core_1_1Preprocessor.xhtml#a2b6705e815fa3d02119c405b483766d5" target="_top" xlink:title="Container of unique gates by semantics. ">
<polygon fill="white" stroke="black" points="504,-90 504,-109 660,-109 660,-90 504,-90"/>
<text text-anchor="middle" x="582" y="-97" font-family="Helvetica,sans-Serif" font-size="10.00">scram::core::Preprocessor::Run</text>
</a>
</g>
</g>
<!-- Node6&#45;&gt;Node7 -->
<g id="edge7" class="edge"><title>Node6&#45;&gt;Node7</title>
<path fill="none" stroke="midnightblue" d="M478.221,-109.316C486.672,-108.509 495.292,-107.686 503.768,-106.876"/>
<polygon fill="midnightblue" stroke="midnightblue" points="477.64,-105.855 468.018,-110.29 478.305,-112.824 477.64,-105.855"/>
</g>
<!-- Node7&#45;&gt;Node2 -->
<g id="edge8" class="edge"><title>Node7&#45;&gt;Node2</title>
<path fill="none" stroke="midnightblue" d="M624.719,-112.09C655.155,-121.276 696.533,-133.763 728.702,-143.471"/>
<polygon fill="midnightblue" stroke="midnightblue" points="625.43,-108.649 614.846,-109.111 623.408,-115.351 625.43,-108.649"/>
</g>
<!-- Node7&#45;&gt;Node4 -->
<g id="edge9" class="edge"><title>Node7&#45;&gt;Node4</title>
<path fill="none" stroke="midnightblue" d="M670.255,-89.6811C684.777,-88.0469 699.611,-86.3775 713.457,-84.8195"/>
<polygon fill="midnightblue" stroke="midnightblue" points="669.813,-86.2086 660.267,-90.805 670.595,-93.1647 669.813,-86.2086"/>
</g>
<!-- Node7&#45;&gt;Node8 -->
<g id="edge10" class="edge"><title>Node7&#45;&gt;Node8</title>
<path fill="none" stroke="midnightblue" d="M614.781,-85.8447C650.096,-70.6711 706.95,-46.2428 743.51,-30.5342"/>
<polygon fill="midnightblue" stroke="midnightblue" points="613.232,-82.7006 605.426,-89.8641 615.996,-89.1321 613.232,-82.7006"/>
</g>
<!-- Node9&#45;&gt;Node4 -->
<g id="edge12" class="edge"><title>Node9&#45;&gt;Node4</title>
<path fill="none" stroke="midnightblue" d="M478.74,-69.517C547.516,-71.3486 647.901,-74.022 713.214,-75.7613"/>
<polygon fill="midnightblue" stroke="midnightblue" points="478.497,-66.0094 468.407,-69.2419 478.31,-73.0069 478.497,-66.0094"/>
</g>
<!-- Node9&#45;&gt;Node7 -->
<g id="edge13" class="edge"><title>Node9&#45;&gt;Node7</title>
<path fill="none" stroke="midnightblue" d="M477.864,-80.9586C494.755,-83.9953 512.344,-87.1573 528.111,-89.9919"/>
<polygon fill="midnightblue" stroke="midnightblue" points="478.479,-77.5133 468.018,-79.1886 477.241,-84.4028 478.479,-77.5133"/>
</g>
</g>
</svg>
