<?xml version="1.0" encoding="UTF-8" standalone="no"?>
<!DOCTYPE svg PUBLIC "-//W3C//DTD SVG 1.1//EN"
 "http://www.w3.org/Graphics/SVG/1.1/DTD/svg11.dtd">
<!-- Generated by graphviz version 2.38.0 (20140413.2041)
 -->
<!-- Title: scram::core::Preprocessor::RunPhaseOne Pages: 1 -->
<!--zoomable 472 -->
<svg id="main" version="1.1" xmlns="http://www.w3.org/2000/svg" xmlns:xlink="http://www.w3.org/1999/xlink" xml:space="preserve" onload="init(evt)">
<style type="text/css"><![CDATA[
.edge:hover path { stroke: red; }
.edge:hover polygon { stroke: red; fill: red; }
]]></style>
<script type="text/javascript"><![CDATA[
var edges = document.getElementsByTagName('g');
if (edges && edges.length) {
  for (var i=0;i<edges.length;i++) {
    if (edges[i].id.substr(0,4)=='edge') {
      edges[i].setAttribute('class','edge');
    }
  }
}
]]></script>
        <defs>
                <circle id="rim" cx="0" cy="0" r="7"/>
                <circle id="rim2" cx="0" cy="0" r="3.5"/>
                <g id="zoomPlus">
                        <use xlink:href="#rim" fill="#404040">
                                <set attributeName="fill" to="#808080" begin="zoomplus.mouseover" end="zoomplus.mouseout"/>
                        </use>
                        <path d="M-4,0h8M0,-4v8" fill="none" stroke="white" stroke-width="1.5" pointer-events="none"/>
                </g>
                <g id="zoomMin">
                        <use xlink:href="#rim" fill="#404040">
                                <set attributeName="fill" to="#808080" begin="zoomminus.mouseover" end="zoomminus.mouseout"/>
                        </use>
                        <path d="M-4,0h8" fill="none" stroke="white" stroke-width="1.5" pointer-events="none"/>
                </g>
                <g id="dirArrow">
                        <path fill="none" stroke="white" stroke-width="1.5" d="M0,-3.0v7 M-2.5,-0.5L0,-3.0L2.5,-0.5"/>
                </g>
               <g id="resetDef">
                       <use xlink:href="#rim2" fill="#404040">
                               <set attributeName="fill" to="#808080" begin="reset.mouseover" end="reset.mouseout"/>
                       </use>
               </g>
        </defs>

<script type="text/javascript">
var viewWidth = 677;
var viewHeight = 472;
var sectionId = 'dynsection-3';
</script>
<script xlink:href="svgpan.js"/>
<svg id="graph" class="graph">
<g id="viewport">
<title>scram::core::Preprocessor::RunPhaseOne</title>
<polygon fill="white" stroke="none" points="-4,4 -4,-468 673,-468 673,4 -4,4"/>
<!-- Node1 -->
<g id="node1" class="node"><title>Node1</title>
<polygon fill="#bfbfbf" stroke="black" points="0,-323.5 0,-353.5 132,-353.5 132,-323.5 0,-323.5"/>
<text text-anchor="start" x="8" y="-341.5" font-family="Helvetica,sans-Serif" font-size="10.00">scram::core::Preprocessor</text>
<text text-anchor="middle" x="66" y="-330.5" font-family="Helvetica,sans-Serif" font-size="10.00">::RunPhaseOne</text>
</g>
<!-- Node2 -->
<g id="node2" class="node"><title>Node2</title>
<g id="a_node2"><a xlink:href="classscram_1_1core_1_1Pdag.xhtml#ae8e2a4c99322296441f87c6ee9305979" target="_top" xlink:title="scram::core::Pdag::\lcoherent">
<polygon fill="white" stroke="black" points="182.5,-433.5 182.5,-463.5 285.5,-463.5 285.5,-433.5 182.5,-433.5"/>
<text text-anchor="start" x="190.5" y="-451.5" font-family="Helvetica,sans-Serif" font-size="10.00">scram::core::Pdag::</text>
<text text-anchor="middle" x="234" y="-440.5" font-family="Helvetica,sans-Serif" font-size="10.00">coherent</text>
</a>
</g>
</g>
<!-- Node1&#45;&gt;Node2 -->
<g id="edge1" class="edge"><title>Node1&#45;&gt;Node2</title>
<path fill="none" stroke="midnightblue" d="M81.849,-353.799C100.526,-372.342 134.254,-403.574 168,-423.5 171.416,-425.517 175.024,-427.428 178.719,-429.226"/>
<polygon fill="midnightblue" stroke="midnightblue" points="177.472,-432.504 188.023,-433.462 180.372,-426.133 177.472,-432.504"/>
</g>
<!-- Node3 -->
<g id="node3" class="node"><title>Node3</title>
<g id="a_node3"><a xlink:href="classscram_1_1core_1_1Pdag.xhtml#aa43a9026583f7a629fe0a3f17440f55b" target="_top" xlink:title="scram::core::Pdag::\lHasNullGates">
<polygon fill="white" stroke="black" points="363.5,-372.5 363.5,-402.5 466.5,-402.5 466.5,-372.5 363.5,-372.5"/>
<text text-anchor="start" x="371.5" y="-390.5" font-family="Helvetica,sans-Serif" font-size="10.00">scram::core::Pdag::</text>
<text text-anchor="middle" x="415" y="-379.5" font-family="Helvetica,sans-Serif" font-size="10.00">HasNullGates</text>
</a>
</g>
</g>
<!-- Node1&#45;&gt;Node3 -->
<g id="edge2" class="edge"><title>Node1&#45;&gt;Node3</title>
<path fill="none" stroke="midnightblue" d="M132.042,-326.438C179.774,-320.244 245.502,-317.334 300,-335.5 318.974,-341.825 318.231,-353.321 336,-362.5 341.638,-365.413 347.68,-368.069 353.815,-370.471"/>
<polygon fill="midnightblue" stroke="midnightblue" points="352.893,-373.861 363.486,-374.035 355.314,-367.293 352.893,-373.861"/>
</g>
<!-- Node4 -->
<g id="node4" class="node"><title>Node4</title>
<g id="a_node4"><a xlink:href="classscram_1_1core_1_1Pdag.xhtml#a09f0aa3bddb78b2eff0446736d040e1b" target="_top" xlink:title="scram::core::Pdag::\lIsTrivial">
<polygon fill="white" stroke="black" points="182.5,-345.5 182.5,-375.5 285.5,-375.5 285.5,-345.5 182.5,-345.5"/>
<text text-anchor="start" x="190.5" y="-363.5" font-family="Helvetica,sans-Serif" font-size="10.00">scram::core::Pdag::</text>
<text text-anchor="middle" x="234" y="-352.5" font-family="Helvetica,sans-Serif" font-size="10.00">IsTrivial</text>
</a>
</g>
</g>
<!-- Node1&#45;&gt;Node4 -->
<g id="edge3" class="edge"><title>Node1&#45;&gt;Node4</title>
<path fill="none" stroke="midnightblue" d="M132.131,-347.132C145.319,-348.88 159.138,-350.711 172.171,-352.438"/>
<polygon fill="midnightblue" stroke="midnightblue" points="172.053,-355.953 182.427,-353.798 172.973,-349.014 172.053,-355.953"/>
</g>
<!-- Node5 -->
<g id="node5" class="node"><title>Node5</title>
<g id="a_node5"><a xlink:href="classscram_1_1core_1_1Pdag.xhtml#aacd4d834f5871136e75fcf77d3305397" target="_top" xlink:title="Writes PDAG properties into logs. ">
<polygon fill="white" stroke="black" points="174.5,-395 174.5,-414 293.5,-414 293.5,-395 174.5,-395"/>
<text text-anchor="middle" x="234" y="-402" font-family="Helvetica,sans-Serif" font-size="10.00">scram::core::Pdag::Log</text>
</a>
</g>
</g>
<!-- Node1&#45;&gt;Node5 -->
<g id="edge4" class="edge"><title>Node1&#45;&gt;Node5</title>
<path fill="none" stroke="midnightblue" d="M97.5065,-353.639C117.322,-363.16 143.863,-375.334 168,-384.5 174.83,-387.094 182.155,-389.602 189.337,-391.914"/>
<polygon fill="midnightblue" stroke="midnightblue" points="188.394,-395.287 198.983,-394.936 190.487,-388.607 188.394,-395.287"/>
</g>
<!-- Node7 -->
<g id="node7" class="node"><title>Node7</title>
<g id="a_node7"><a xlink:href="classscram_1_1core_1_1Preprocessor.xhtml#ad13e133278ea7563c1ba037c05c35aa2" target="_top" xlink:title="Normalizes the gates of the whole PDAG into OR, AND gates. ">
<polygon fill="white" stroke="black" points="168,-203.5 168,-233.5 300,-233.5 300,-203.5 168,-203.5"/>
<text text-anchor="start" x="176" y="-221.5" font-family="Helvetica,sans-Serif" font-size="10.00">scram::core::Preprocessor</text>
<text text-anchor="middle" x="234" y="-210.5" font-family="Helvetica,sans-Serif" font-size="10.00">::NormalizeGates</text>
</a>
</g>
</g>
<!-- Node1&#45;&gt;Node7 -->
<g id="edge6" class="edge"><title>Node1&#45;&gt;Node7</title>
<path fill="none" stroke="midnightblue" d="M88.024,-323.302C117.336,-302.113 170.606,-263.604 203.769,-239.631"/>
<polygon fill="midnightblue" stroke="midnightblue" points="206.093,-242.27 212.147,-233.575 201.992,-236.597 206.093,-242.27"/>
</g>
<!-- Node18 -->
<g id="node18" class="node"><title>Node18</title>
<g id="a_node18"><a xlink:href="classscram_1_1core_1_1Pdag.xhtml#a1ec495a3595a7d088f1889f46eeb725d" target="_top" xlink:title="Removes gates of Null logic with a single argument (maybe constant). ">
<polygon fill="white" stroke="black" points="363.5,-0.5 363.5,-30.5 466.5,-30.5 466.5,-0.5 363.5,-0.5"/>
<text text-anchor="start" x="371.5" y="-18.5" font-family="Helvetica,sans-Serif" font-size="10.00">scram::core::Pdag::</text>
<text text-anchor="middle" x="415" y="-7.5" font-family="Helvetica,sans-Serif" font-size="10.00">RemoveNullGates</text>
</a>
</g>
</g>
<!-- Node1&#45;&gt;Node18 -->
<g id="edge23" class="edge"><title>Node1&#45;&gt;Node18</title>
<path fill="none" stroke="midnightblue" d="M75.6696,-323.344C105.01,-273.554 206.038,-113.95 336,-39.5 341.486,-36.3572 347.43,-33.5809 353.505,-31.1386"/>
<polygon fill="midnightblue" stroke="midnightblue" points="354.956,-34.3334 363.112,-27.5713 352.519,-27.7711 354.956,-34.3334"/>
</g>
<!-- Node6 -->
<g id="node6" class="node"><title>Node6</title>
<g id="a_node6"><a xlink:href="classscram_1_1Logger.xhtml#addb585eb19dfd78f4a82f2e3df74b4e7" target="_top" xlink:title="scram::Logger::report\l_level">
<polygon fill="white" stroke="black" points="360,-421.5 360,-451.5 470,-451.5 470,-421.5 360,-421.5"/>
<text text-anchor="start" x="368" y="-439.5" font-family="Helvetica,sans-Serif" font-size="10.00">scram::Logger::report</text>
<text text-anchor="middle" x="415" y="-428.5" font-family="Helvetica,sans-Serif" font-size="10.00">_level</text>
</a>
</g>
</g>
<!-- Node5&#45;&gt;Node6 -->
<g id="edge5" class="edge"><title>Node5&#45;&gt;Node6</title>
<path fill="none" stroke="midnightblue" d="M288.221,-414.014C307.528,-417.466 329.547,-421.402 349.707,-425.006"/>
<polygon fill="midnightblue" stroke="midnightblue" points="349.285,-428.486 359.745,-426.801 350.517,-421.595 349.285,-428.486"/>
</g>
<!-- Node7&#45;&gt;Node3 -->
<g id="edge7" class="edge"><title>Node7&#45;&gt;Node3</title>
<path fill="none" stroke="midnightblue" d="M247.54,-233.575C261.06,-250.081 282.937,-277.532 300,-302.5 317.546,-328.176 311.63,-343.182 336,-362.5 341.391,-366.773 347.529,-370.324 353.941,-373.273"/>
<polygon fill="midnightblue" stroke="midnightblue" points="352.893,-376.626 363.474,-377.177 355.546,-370.149 352.893,-376.626"/>
</g>
<!-- Node8 -->
<g id="node8" class="node"><title>Node8</title>
<g id="a_node8"><a xlink:href="classscram_1_1core_1_1Pdag.xhtml#aa883d0e58b9faab69186bec03574c633" target="_top" xlink:title="Clears marks from graph nodes. ">
<polygon fill="white" stroke="black" points="548,-186.5 548,-216.5 651,-216.5 651,-186.5 548,-186.5"/>
<text text-anchor="start" x="556" y="-204.5" font-family="Helvetica,sans-Serif" font-size="10.00">scram::core::Pdag::</text>
<text text-anchor="middle" x="599.5" y="-193.5" font-family="Helvetica,sans-Serif" font-size="10.00">Clear</text>
</a>
</g>
</g>
<!-- Node7&#45;&gt;Node8 -->
<g id="edge8" class="edge"><title>Node7&#45;&gt;Node8</title>
<path fill="none" stroke="midnightblue" d="M300.406,-215.441C367.829,-212.288 472.103,-207.411 537.761,-204.341"/>
<polygon fill="midnightblue" stroke="midnightblue" points="538.13,-207.827 547.956,-203.864 537.803,-200.835 538.13,-207.827"/>
</g>
<!-- Node9 -->
<g id="node9" class="node"><title>Node9</title>
<g id="a_node9"><a xlink:href="classscram_1_1core_1_1Preprocessor.xhtml#afb4e28af2f1ec12db694af6e93ffbd1d" target="_top" xlink:title="Assigns order for PDAG variables. ">
<polygon fill="white" stroke="black" points="349,-137.5 349,-167.5 481,-167.5 481,-137.5 349,-137.5"/>
<text text-anchor="start" x="357" y="-155.5" font-family="Helvetica,sans-Serif" font-size="10.00">scram::core::Preprocessor</text>
<text text-anchor="middle" x="415" y="-144.5" font-family="Helvetica,sans-Serif" font-size="10.00">::AssignOrder</text>
</a>
</g>
</g>
<!-- Node7&#45;&gt;Node9 -->
<g id="edge9" class="edge"><title>Node7&#45;&gt;Node9</title>
<path fill="none" stroke="midnightblue" d="M276.066,-203.358C302.103,-193.758 335.967,-181.272 363.624,-171.074"/>
<polygon fill="midnightblue" stroke="midnightblue" points="364.953,-174.315 373.125,-167.571 362.531,-167.747 364.953,-174.315"/>
</g>
<!-- Node11 -->
<g id="node11" class="node"><title>Node11</title>
<g id="a_node11"><a xlink:href="classscram_1_1core_1_1Pdag.xhtml#ae9407efbb00e5f28aecb40db2ab7925b" target="_top" xlink:title="scram::core::Pdag::root">
<polygon fill="white" stroke="black" points="540,-99 540,-118 659,-118 659,-99 540,-99"/>
<text text-anchor="middle" x="599.5" y="-106" font-family="Helvetica,sans-Serif" font-size="10.00">scram::core::Pdag::root</text>
</a>
</g>
</g>
<!-- Node7&#45;&gt;Node11 -->
<g id="edge13" class="edge"><title>Node7&#45;&gt;Node11</title>
<path fill="none" stroke="midnightblue" d="M246.367,-203.249C263.24,-181.953 297.133,-144.061 336,-127.5 397.703,-101.208 474.951,-98.8204 529.631,-101.568"/>
<polygon fill="midnightblue" stroke="midnightblue" points="529.727,-105.08 539.911,-102.159 530.128,-98.0912 529.727,-105.08"/>
</g>
<!-- Node12 -->
<g id="node12" class="node"><title>Node12</title>
<g id="a_node12"><a xlink:href="classscram_1_1core_1_1Pdag.xhtml#af5900b29c6c9f1b1cca22ed83e4dd58b" target="_top" xlink:title="scram::core::Pdag::\lcomplement">
<polygon fill="white" stroke="black" points="363.5,-49.5 363.5,-79.5 466.5,-79.5 466.5,-49.5 363.5,-49.5"/>
<text text-anchor="start" x="371.5" y="-67.5" font-family="Helvetica,sans-Serif" font-size="10.00">scram::core::Pdag::</text>
<text text-anchor="middle" x="415" y="-56.5" font-family="Helvetica,sans-Serif" font-size="10.00">complement</text>
</a>
</g>
</g>
<!-- Node7&#45;&gt;Node12 -->
<g id="edge14" class="edge"><title>Node7&#45;&gt;Node12</title>
<path fill="none" stroke="midnightblue" d="M243.647,-203.385C259.078,-177.649 293.737,-125.135 336,-94.5 341.525,-90.4952 347.652,-86.9494 353.974,-83.829"/>
<polygon fill="midnightblue" stroke="midnightblue" points="355.686,-86.8952 363.329,-79.5579 352.779,-80.5275 355.686,-86.8952"/>
</g>
<!-- Node13 -->
<g id="node13" class="node"><title>Node13</title>
<g id="a_node13"><a xlink:href="classscram_1_1core_1_1Preprocessor.xhtml#a6ee8f65454835d8de931a2d38bf8b276" target="_top" xlink:title="Notifies all parents of negative gates, such as NOT, NOR, and NAND, before transforming these gates i...">
<polygon fill="white" stroke="black" points="336,-323.5 336,-353.5 494,-353.5 494,-323.5 336,-323.5"/>
<text text-anchor="start" x="344" y="-341.5" font-family="Helvetica,sans-Serif" font-size="10.00">scram::core::Preprocessor</text>
<text text-anchor="middle" x="415" y="-330.5" font-family="Helvetica,sans-Serif" font-size="10.00">::NotifyParentsOfNegativeGates</text>
</a>
</g>
</g>
<!-- Node7&#45;&gt;Node13 -->
<g id="edge15" class="edge"><title>Node7&#45;&gt;Node13</title>
<path fill="none" stroke="midnightblue" d="M247.134,-233.525C264.675,-254.315 299.083,-291.747 336,-313.5 339.652,-315.652 343.512,-317.642 347.481,-319.479"/>
<polygon fill="midnightblue" stroke="midnightblue" points="346.323,-322.789 356.894,-323.489 349.066,-316.349 346.323,-322.789"/>
</g>
<!-- Node14 -->
<g id="node14" class="node"><title>Node14</title>
<g id="a_node14"><a xlink:href="classscram_1_1core_1_1Preprocessor.xhtml#abfe2eda90c983750e28db49900a4909d" target="_top" xlink:title="Normalizes complex gates into OR, AND gates. ">
<polygon fill="white" stroke="black" points="349,-274.5 349,-304.5 481,-304.5 481,-274.5 349,-274.5"/>
<text text-anchor="start" x="357" y="-292.5" font-family="Helvetica,sans-Serif" font-size="10.00">scram::core::Preprocessor</text>
<text text-anchor="middle" x="415" y="-281.5" font-family="Helvetica,sans-Serif" font-size="10.00">::NormalizeGate</text>
</a>
</g>
</g>
<!-- Node7&#45;&gt;Node14 -->
<g id="edge16" class="edge"><title>Node7&#45;&gt;Node14</title>
<path fill="none" stroke="midnightblue" d="M265.543,-233.543C285.373,-243.026 311.917,-255.193 336,-264.5 341.919,-266.787 348.145,-269.037 354.39,-271.193"/>
<polygon fill="midnightblue" stroke="midnightblue" points="353.586,-274.615 364.18,-274.494 355.823,-267.982 353.586,-274.615"/>
</g>
<!-- Node17 -->
<g id="node17" class="node"><title>Node17</title>
<g id="a_node17"><a xlink:href="classscram_1_1core_1_1Pdag.xhtml#a7933096368b6a16f9d6aab7c4abbb02b" target="_top" xlink:title="scram::core::Pdag::\lHasConstants">
<polygon fill="white" stroke="black" points="363.5,-225.5 363.5,-255.5 466.5,-255.5 466.5,-225.5 363.5,-225.5"/>
<text text-anchor="start" x="371.5" y="-243.5" font-family="Helvetica,sans-Serif" font-size="10.00">scram::core::Pdag::</text>
<text text-anchor="middle" x="415" y="-232.5" font-family="Helvetica,sans-Serif" font-size="10.00">HasConstants</text>
</a>
</g>
</g>
<!-- Node7&#45;&gt;Node17 -->
<g id="edge19" class="edge"><title>Node7&#45;&gt;Node17</title>
<path fill="none" stroke="midnightblue" d="M300.129,-226.505C317.348,-228.621 335.869,-230.897 352.867,-232.987"/>
<polygon fill="midnightblue" stroke="midnightblue" points="352.877,-236.514 363.229,-234.26 353.731,-229.566 352.877,-236.514"/>
</g>
<!-- Node7&#45;&gt;Node18 -->
<g id="edge20" class="edge"><title>Node7&#45;&gt;Node18</title>
<path fill="none" stroke="midnightblue" d="M246.184,-203.385C259.844,-184.55 283.203,-151.105 300,-120.5 318.954,-85.9639 306.527,-65.6403 336,-39.5 341.199,-34.889 347.269,-31.164 353.685,-28.1545"/>
<polygon fill="midnightblue" stroke="midnightblue" points="355.339,-31.2597 363.273,-24.2376 352.692,-24.7797 355.339,-31.2597"/>
</g>
<!-- Node9&#45;&gt;Node8 -->
<g id="edge10" class="edge"><title>Node9&#45;&gt;Node8</title>
<path fill="none" stroke="midnightblue" d="M472.245,-167.601C493.04,-173.185 516.694,-179.536 537.862,-185.219"/>
<polygon fill="midnightblue" stroke="midnightblue" points="537.145,-188.651 547.711,-187.863 538.961,-181.89 537.145,-188.651"/>
</g>
<!-- Node10 -->
<g id="node10" class="node"><title>Node10</title>
<g id="a_node10"><a xlink:href="classscram_1_1core_1_1Preprocessor.xhtml#ada629022465a68893952232659d41e11" target="_top" xlink:title="Assigns topological ordering to nodes of the PDAG. ">
<polygon fill="white" stroke="black" points="533.5,-137.5 533.5,-167.5 665.5,-167.5 665.5,-137.5 533.5,-137.5"/>
<text text-anchor="start" x="541.5" y="-155.5" font-family="Helvetica,sans-Serif" font-size="10.00">scram::core::Preprocessor</text>
<text text-anchor="middle" x="599.5" y="-144.5" font-family="Helvetica,sans-Serif" font-size="10.00">::TopologicalOrder</text>
</a>
</g>
</g>
<!-- Node9&#45;&gt;Node10 -->
<g id="edge11" class="edge"><title>Node9&#45;&gt;Node10</title>
<path fill="none" stroke="midnightblue" d="M481.114,-152.5C494.788,-152.5 509.317,-152.5 523.324,-152.5"/>
<polygon fill="midnightblue" stroke="midnightblue" points="523.411,-156 533.411,-152.5 523.411,-149 523.411,-156"/>
</g>
<!-- Node9&#45;&gt;Node11 -->
<g id="edge12" class="edge"><title>Node9&#45;&gt;Node11</title>
<path fill="none" stroke="midnightblue" d="M478.296,-137.481C501.488,-131.889 527.464,-125.626 549.319,-120.357"/>
<polygon fill="midnightblue" stroke="midnightblue" points="550.144,-123.759 559.045,-118.012 548.503,-116.954 550.144,-123.759"/>
</g>
<!-- Node15 -->
<g id="node15" class="node"><title>Node15</title>
<g id="a_node15"><a xlink:href="classscram_1_1core_1_1Preprocessor.xhtml#a45cf08c3809e801be50eda53dd68fca6" target="_top" xlink:title="Normalizes a gate with XOR logic. ">
<polygon fill="white" stroke="black" points="533.5,-303.5 533.5,-333.5 665.5,-333.5 665.5,-303.5 533.5,-303.5"/>
<text text-anchor="start" x="541.5" y="-321.5" font-family="Helvetica,sans-Serif" font-size="10.00">scram::core::Preprocessor</text>
<text text-anchor="middle" x="599.5" y="-310.5" font-family="Helvetica,sans-Serif" font-size="10.00">::NormalizeXorGate</text>
</a>
</g>
</g>
<!-- Node14&#45;&gt;Node15 -->
<g id="edge17" class="edge"><title>Node14&#45;&gt;Node15</title>
<path fill="none" stroke="midnightblue" d="M481.114,-299.847C494.788,-302.02 509.317,-304.328 523.324,-306.554"/>
<polygon fill="midnightblue" stroke="midnightblue" points="522.986,-310.044 533.411,-308.157 524.085,-303.131 522.986,-310.044"/>
</g>
<!-- Node16 -->
<g id="node16" class="node"><title>Node16</title>
<g id="a_node16"><a xlink:href="classscram_1_1core_1_1Preprocessor.xhtml#a56b5719bcfcfd1678928befe31d9b729" target="_top" xlink:title="Normalizes a VOTE gate with a vote number. ">
<polygon fill="white" stroke="black" points="533.5,-254.5 533.5,-284.5 665.5,-284.5 665.5,-254.5 533.5,-254.5"/>
<text text-anchor="start" x="541.5" y="-272.5" font-family="Helvetica,sans-Serif" font-size="10.00">scram::core::Preprocessor</text>
<text text-anchor="middle" x="599.5" y="-261.5" font-family="Helvetica,sans-Serif" font-size="10.00">::NormalizeVoteGate</text>
</a>
</g>
</g>
<!-- Node14&#45;&gt;Node16 -->
<g id="edge18" class="edge"><title>Node14&#45;&gt;Node16</title>
<path fill="none" stroke="midnightblue" d="M481.114,-282.364C494.788,-280.866 509.317,-279.274 523.324,-277.738"/>
<polygon fill="midnightblue" stroke="midnightblue" points="523.852,-281.202 533.411,-276.633 523.09,-274.243 523.852,-281.202"/>
</g>
<!-- Node19 -->
<g id="node19" class="node"><title>Node19</title>
<g id="a_node19"><a xlink:href="pdag_8h.xhtml#aa00922ee92d35a300d86442f8b9ad331" target="_top" xlink:title="Traverses and visits gates and nodes in the graph. ">
<polygon fill="white" stroke="black" points="530,-6 530,-25 669,-25 669,-6 530,-6"/>
<text text-anchor="middle" x="599.5" y="-13" font-family="Helvetica,sans-Serif" font-size="10.00">scram::core::TraverseGates</text>
</a>
</g>
</g>
<!-- Node18&#45;&gt;Node19 -->
<g id="edge21" class="edge"><title>Node18&#45;&gt;Node19</title>
<path fill="none" stroke="midnightblue" d="M466.836,-15.5C483.223,-15.5 501.789,-15.5 519.703,-15.5"/>
<polygon fill="midnightblue" stroke="midnightblue" points="519.86,-19.0001 529.86,-15.5 519.86,-12.0001 519.86,-19.0001"/>
</g>
<!-- Node19&#45;&gt;Node19 -->
<g id="edge22" class="edge"><title>Node19&#45;&gt;Node19</title>
<path fill="none" stroke="midnightblue" d="M571.14,-25.2571C557.344,-34.0653 566.797,-43.5 599.5,-43.5 621.983,-43.5 633.478,-39.0406 633.983,-33.3913"/>
<polygon fill="midnightblue" stroke="midnightblue" points="636.67,-31.1417 627.86,-25.2571 631.077,-35.3515 636.67,-31.1417"/>
</g>
</g>
</svg>
        <g id="navigator" transform="translate(0 0)" fill="#404254">
                <rect fill="#f2f5e9" fill-opacity="0.5" stroke="#606060" stroke-width=".5" x="0" y="0" width="60" height="60"/>
                <use id="zoomplus" xlink:href="#zoomPlus" x="17" y="9" onmousedown="handleZoom(evt,'in')"/>
                <use id="zoomminus" xlink:href="#zoomMin" x="42" y="9" onmousedown="handleZoom(evt,'out')"/>
                <use id="reset" xlink:href="#resetDef" x="30" y="36" onmousedown="handleReset()"/>
                <g id="arrowUp" xlink:href="#dirArrow" transform="translate(30 24)" onmousedown="handlePan(0,-1)">
                  <use xlink:href="#rim" fill="#404040">
                        <set attributeName="fill" to="#808080" begin="arrowUp.mouseover" end="arrowUp.mouseout"/>
                  </use>
                  <path fill="none" stroke="white" stroke-width="1.5" d="M0,-3.0v7 M-2.5,-0.5L0,-3.0L2.5,-0.5"/>
                </g>
                <g id="arrowRight" xlink:href="#dirArrow" transform="rotate(90) translate(36 -43)" onmousedown="handlePan(1,0)">
                  <use xlink:href="#rim" fill="#404040">
                        <set attributeName="fill" to="#808080" begin="arrowRight.mouseover" end="arrowRight.mouseout"/>
                  </use>
                  <path fill="none" stroke="white" stroke-width="1.5" d="M0,-3.0v7 M-2.5,-0.5L0,-3.0L2.5,-0.5"/>
                </g>
                <g id="arrowDown" xlink:href="#dirArrow" transform="rotate(180) translate(-30 -48)" onmousedown="handlePan(0,1)">
                  <use xlink:href="#rim" fill="#404040">
                        <set attributeName="fill" to="#808080" begin="arrowDown.mouseover" end="arrowDown.mouseout"/>
                  </use>
                  <path fill="none" stroke="white" stroke-width="1.5" d="M0,-3.0v7 M-2.5,-0.5L0,-3.0L2.5,-0.5"/>
                </g>
                <g id="arrowLeft" xlink:href="#dirArrow" transform="rotate(270) translate(-36 17)" onmousedown="handlePan(-1,0)">
                  <use xlink:href="#rim" fill="#404040">
                        <set attributeName="fill" to="#808080" begin="arrowLeft.mouseover" end="arrowLeft.mouseout"/>
                  </use>
                  <path fill="none" stroke="white" stroke-width="1.5" d="M0,-3.0v7 M-2.5,-0.5L0,-3.0L2.5,-0.5"/>
                </g>
        </g>
        <svg viewBox="0 0 15 15" width="100%" height="30px" preserveAspectRatio="xMaxYMin meet">
         <g id="arrow_out" transform="scale(0.3 0.3)">
          <a xlink:href="classscram_1_1core_1_1Preprocessor_a44f820b6fe2c23594c818432b33e26a6_cgraph_org.svg" target="_base">
           <rect id="button" ry="5" rx="5" y="6" x="6" height="38" width="38"
                fill="#f2f5e9" fill-opacity="0.5" stroke="#606060" stroke-width="1.0"/>
           <path id="arrow"
             d="M 11.500037,31.436501 C 11.940474,20.09759 22.043105,11.32322 32.158766,21.979434 L 37.068811,17.246167 C 37.068811,17.246167 37.088388,32 37.088388,32 L 22.160133,31.978069 C 22.160133,31.978069 26.997745,27.140456 26.997745,27.140456 C 18.528582,18.264221 13.291696,25.230495 11.500037,31.436501 z"
             style="fill:#404040;"/>
          </a>
         </g>
        </svg>
</svg>
