<?xml version="1.0" encoding="UTF-8" standalone="no"?>
<!DOCTYPE svg PUBLIC "-//W3C//DTD SVG 1.1//EN"
 "http://www.w3.org/Graphics/SVG/1.1/DTD/svg11.dtd">
<!-- Generated by graphviz version 2.38.0 (20140413.2041)
 -->
<!-- Title: scram::core::zbdd::CutSetContainer::Merge Pages: 1 -->
<svg width="291pt" height="274pt"
 viewBox="0.00 0.00 291.00 274.00" xmlns="http://www.w3.org/2000/svg" xmlns:xlink="http://www.w3.org/1999/xlink">
<g id="graph0" class="graph" transform="scale(1 1) rotate(0) translate(4 270)">
<title>scram::core::zbdd::CutSetContainer::Merge</title>
<polygon fill="white" stroke="none" points="-4,4 -4,-270 287,-270 287,4 -4,4"/>
<!-- Node1 -->
<g id="node1" class="node"><title>Node1</title>
<polygon fill="#bfbfbf" stroke="black" points="0,-112.5 0,-142.5 122,-142.5 122,-112.5 0,-112.5"/>
<text text-anchor="start" x="8" y="-130.5" font-family="Helvetica,sans-Serif" font-size="10.00">scram::core::zbdd::</text>
<text text-anchor="middle" x="61" y="-119.5" font-family="Helvetica,sans-Serif" font-size="10.00">CutSetContainer::Merge</text>
</g>
<!-- Node2 -->
<g id="node2" class="node"><title>Node2</title>
<g id="a_node2"><a xlink:href="classscram_1_1core_1_1Zbdd.xhtml#a7c1129acd9810b5b9ff4952f587ce490" target="_top" xlink:title="Clears all memoization tables. ">
<polygon fill="white" stroke="black" points="169.5,-235.5 169.5,-265.5 271.5,-265.5 271.5,-235.5 169.5,-235.5"/>
<text text-anchor="start" x="177.5" y="-253.5" font-family="Helvetica,sans-Serif" font-size="10.00">scram::core::Zbdd::</text>
<text text-anchor="middle" x="220.5" y="-242.5" font-family="Helvetica,sans-Serif" font-size="10.00">ClearTables</text>
</a>
</g>
</g>
<!-- Node1&#45;&gt;Node2 -->
<g id="edge1" class="edge"><title>Node1&#45;&gt;Node2</title>
<path fill="none" stroke="midnightblue" d="M73.1427,-142.545C89.5922,-163.832 122.305,-202.785 158,-226.5 160.249,-227.994 162.606,-229.417 165.03,-230.769"/>
<polygon fill="midnightblue" stroke="midnightblue" points="163.538,-233.937 174.038,-235.351 166.713,-227.697 163.538,-233.937"/>
</g>
<!-- Node3 -->
<g id="node3" class="node"><title>Node3</title>
<g id="a_node3"><a xlink:href="classscram_1_1core_1_1Settings.xhtml#a0e43ec0f017d23a4fa4e376c4060d380" target="_top" xlink:title="scram::core::Settings\l::limit_order">
<polygon fill="white" stroke="black" points="165.5,-186.5 165.5,-216.5 275.5,-216.5 275.5,-186.5 165.5,-186.5"/>
<text text-anchor="start" x="173.5" y="-204.5" font-family="Helvetica,sans-Serif" font-size="10.00">scram::core::Settings</text>
<text text-anchor="middle" x="220.5" y="-193.5" font-family="Helvetica,sans-Serif" font-size="10.00">::limit_order</text>
</a>
</g>
</g>
<!-- Node1&#45;&gt;Node3 -->
<g id="edge2" class="edge"><title>Node1&#45;&gt;Node3</title>
<path fill="none" stroke="midnightblue" d="M88.9234,-142.52C107.957,-152.89 134.215,-166.703 158,-177.5 161.816,-179.232 165.796,-180.959 169.816,-182.647"/>
<polygon fill="midnightblue" stroke="midnightblue" points="168.629,-185.943 179.21,-186.498 171.285,-179.466 168.629,-185.943"/>
</g>
<!-- Node4 -->
<g id="node4" class="node"><title>Node4</title>
<g id="a_node4"><a xlink:href="classscram_1_1core_1_1SetNode.xhtml#a2d7f99792b82961df2e5ecfcd735bb5f" target="_top" xlink:title="scram::core::SetNode\l::max_set_order">
<polygon fill="white" stroke="black" points="164,-137.5 164,-167.5 277,-167.5 277,-137.5 164,-137.5"/>
<text text-anchor="start" x="172" y="-155.5" font-family="Helvetica,sans-Serif" font-size="10.00">scram::core::SetNode</text>
<text text-anchor="middle" x="220.5" y="-144.5" font-family="Helvetica,sans-Serif" font-size="10.00">::max_set_order</text>
</a>
</g>
</g>
<!-- Node1&#45;&gt;Node4 -->
<g id="edge3" class="edge"><title>Node1&#45;&gt;Node4</title>
<path fill="none" stroke="midnightblue" d="M122.443,-137.094C132.764,-138.732 143.53,-140.441 153.975,-142.099"/>
<polygon fill="midnightblue" stroke="midnightblue" points="153.442,-145.558 163.868,-143.669 154.54,-138.645 153.442,-145.558"/>
</g>
<!-- Node5 -->
<g id="node5" class="node"><title>Node5</title>
<g id="a_node5"><a xlink:href="structscram_1_1core_1_1IntrusivePtrCast.xhtml#af153c12dc6133b7d9f9b7a57bba29f1d" target="_top" xlink:title="scram::core::IntrusivePtr\lCast\&lt; SetNode \&gt;::Ref">
<polygon fill="white" stroke="black" points="158,-88.5 158,-118.5 283,-118.5 283,-88.5 158,-88.5"/>
<text text-anchor="start" x="166" y="-106.5" font-family="Helvetica,sans-Serif" font-size="10.00">scram::core::IntrusivePtr</text>
<text text-anchor="middle" x="220.5" y="-95.5" font-family="Helvetica,sans-Serif" font-size="10.00">Cast&lt; SetNode &gt;::Ref</text>
</a>
</g>
</g>
<!-- Node1&#45;&gt;Node5 -->
<g id="edge4" class="edge"><title>Node1&#45;&gt;Node5</title>
<path fill="none" stroke="midnightblue" d="M122.443,-118.29C130.798,-117.016 139.444,-115.699 147.976,-114.399"/>
<polygon fill="midnightblue" stroke="midnightblue" points="148.557,-117.851 157.916,-112.884 147.502,-110.931 148.557,-117.851"/>
</g>
<!-- Node6 -->
<g id="node6" class="node"><title>Node6</title>
<g id="a_node6"><a xlink:href="classscram_1_1core_1_1Zbdd.xhtml#aa599878612e128fa09e17d0520280dbe" target="_top" xlink:title="scram::core::Zbdd::root">
<polygon fill="white" stroke="black" points="161,-50 161,-69 280,-69 280,-50 161,-50"/>
<text text-anchor="middle" x="220.5" y="-57" font-family="Helvetica,sans-Serif" font-size="10.00">scram::core::Zbdd::root</text>
</a>
</g>
</g>
<!-- Node1&#45;&gt;Node6 -->
<g id="edge5" class="edge"><title>Node1&#45;&gt;Node6</title>
<path fill="none" stroke="midnightblue" d="M89.6339,-112.304C108.546,-102.249 134.379,-89.1827 158,-79.5 164.212,-76.9535 170.877,-74.5055 177.446,-72.2488"/>
<polygon fill="midnightblue" stroke="midnightblue" points="178.552,-75.5694 186.935,-69.0903 176.341,-68.9277 178.552,-75.5694"/>
</g>
<!-- Node7 -->
<g id="node7" class="node"><title>Node7</title>
<g id="a_node7"><a xlink:href="classscram_1_1core_1_1Zbdd.xhtml#ab71281cd644eb442dd2d3ee1c5df56c4" target="_top" xlink:title="scram::core::Zbdd::\lsettings">
<polygon fill="white" stroke="black" points="169.5,-0.5 169.5,-30.5 271.5,-30.5 271.5,-0.5 169.5,-0.5"/>
<text text-anchor="start" x="177.5" y="-18.5" font-family="Helvetica,sans-Serif" font-size="10.00">scram::core::Zbdd::</text>
<text text-anchor="middle" x="220.5" y="-7.5" font-family="Helvetica,sans-Serif" font-size="10.00">settings</text>
</a>
</g>
</g>
<!-- Node1&#45;&gt;Node7 -->
<g id="edge6" class="edge"><title>Node1&#45;&gt;Node7</title>
<path fill="none" stroke="midnightblue" d="M75.6455,-112.196C93.1695,-93.2845 125.246,-61.0887 158,-40.5 161.11,-38.5449 164.4,-36.689 167.775,-34.9381"/>
<polygon fill="midnightblue" stroke="midnightblue" points="169.367,-38.0558 176.847,-30.552 166.321,-31.7536 169.367,-38.0558"/>
</g>
</g>
</svg>
