<?xml version="1.0" encoding="UTF-8" standalone="no"?>
<!DOCTYPE svg PUBLIC "-//W3C//DTD SVG 1.1//EN"
 "http://www.w3.org/Graphics/SVG/1.1/DTD/svg11.dtd">
<!-- Generated by graphviz version 2.38.0 (20140413.2041)
 -->
<!-- Title: scram::core::Pdag::IsTrivial Pages: 1 -->
<svg width="1010pt" height="519pt"
 viewBox="0.00 0.00 1010.00 519.00" xmlns="http://www.w3.org/2000/svg" xmlns:xlink="http://www.w3.org/1999/xlink">
<g id="graph0" class="graph" transform="scale(1 1) rotate(0) translate(4 515)">
<title>scram::core::Pdag::IsTrivial</title>
<polygon fill="white" stroke="none" points="-4,4 -4,-515 1006,-515 1006,4 -4,4"/>
<!-- Node1 -->
<g id="node1" class="node"><title>Node1</title>
<polygon fill="#bfbfbf" stroke="black" points="0,-303.5 0,-333.5 103,-333.5 103,-303.5 0,-303.5"/>
<text text-anchor="start" x="8" y="-321.5" font-family="Helvetica,sans-Serif" font-size="10.00">scram::core::Pdag::</text>
<text text-anchor="middle" x="51.5" y="-310.5" font-family="Helvetica,sans-Serif" font-size="10.00">IsTrivial</text>
</g>
<!-- Node2 -->
<g id="node2" class="node"><title>Node2</title>
<g id="a_node2"><a xlink:href="classscram_1_1core_1_1Mocus.xhtml#a008348c27bdc85ad9d0d106b18dcc1a2" target="_top" xlink:title="Finds minimal cut sets from the PDAG. ">
<polygon fill="white" stroke="black" points="153,-480.5 153,-510.5 257,-510.5 257,-480.5 153,-480.5"/>
<text text-anchor="start" x="161" y="-498.5" font-family="Helvetica,sans-Serif" font-size="10.00">scram::core::Mocus</text>
<text text-anchor="middle" x="205" y="-487.5" font-family="Helvetica,sans-Serif" font-size="10.00">::Analyze</text>
</a>
</g>
</g>
<!-- Node1&#45;&gt;Node2 -->
<g id="edge1" class="edge"><title>Node1&#45;&gt;Node2</title>
<path fill="none" stroke="midnightblue" d="M60.7014,-343.57C72.8058,-376.907 98.4947,-435.663 139,-470.5 143.492,-474.363 148.645,-477.663 154.043,-480.474"/>
<polygon fill="midnightblue" stroke="midnightblue" points="63.8546,-341.984 57.2472,-333.702 57.2477,-344.297 63.8546,-341.984"/>
</g>
<!-- Node3 -->
<g id="node3" class="node"><title>Node3</title>
<g id="a_node3"><a xlink:href="classscram_1_1core_1_1Bdd.xhtml#ab7af95900c1ab921446e2e67177a315c" target="_top" xlink:title="Constructor with the analysis target. ">
<polygon fill="white" stroke="black" points="147.5,-442 147.5,-461 262.5,-461 262.5,-442 147.5,-442"/>
<text text-anchor="middle" x="205" y="-449" font-family="Helvetica,sans-Serif" font-size="10.00">scram::core::Bdd::Bdd</text>
</a>
</g>
</g>
<!-- Node1&#45;&gt;Node3 -->
<g id="edge2" class="edge"><title>Node1&#45;&gt;Node3</title>
<path fill="none" stroke="midnightblue" d="M66.0278,-342.388C80.997,-366.867 107.251,-404.505 139,-427.5 147.476,-433.639 157.698,-438.377 167.5,-441.958"/>
<polygon fill="midnightblue" stroke="midnightblue" points="68.9813,-340.507 60.8553,-333.709 62.9681,-344.091 68.9813,-340.507"/>
</g>
<!-- Node4 -->
<g id="node4" class="node"><title>Node4</title>
<g id="a_node4"><a xlink:href="classscram_1_1core_1_1Preprocessor.xhtml#a9caf4677a024ed935d831210b57b8ed9" target="_top" xlink:title="Gathers nodes in the sub&#45;graph. ">
<polygon fill="white" stroke="black" points="684.5,-349.5 684.5,-379.5 816.5,-379.5 816.5,-349.5 684.5,-349.5"/>
<text text-anchor="start" x="692.5" y="-367.5" font-family="Helvetica,sans-Serif" font-size="10.00">scram::core::Preprocessor</text>
<text text-anchor="middle" x="750.5" y="-356.5" font-family="Helvetica,sans-Serif" font-size="10.00">::GatherNodes</text>
</a>
</g>
</g>
<!-- Node1&#45;&gt;Node4 -->
<g id="edge3" class="edge"><title>Node1&#45;&gt;Node4</title>
<path fill="none" stroke="midnightblue" d="M72.147,-341.534C88.1698,-358.421 112.433,-379.993 139,-389.5 334.757,-459.552 588.625,-407.682 696.872,-379.52"/>
<polygon fill="midnightblue" stroke="midnightblue" points="74.3033,-338.706 64.9692,-333.694 69.1402,-343.433 74.3033,-338.706"/>
</g>
<!-- Node5 -->
<g id="node5" class="node"><title>Node5</title>
<g id="a_node5"><a xlink:href="classscram_1_1core_1_1Preprocessor.xhtml#a2b6705e815fa3d02119c405b483766d5" target="_top" xlink:title="Container of unique gates by semantics. ">
<polygon fill="white" stroke="black" points="475,-214 475,-233 631,-233 631,-214 475,-214"/>
<text text-anchor="middle" x="553" y="-221" font-family="Helvetica,sans-Serif" font-size="10.00">scram::core::Preprocessor::Run</text>
</a>
</g>
</g>
<!-- Node1&#45;&gt;Node5 -->
<g id="edge4" class="edge"><title>Node1&#45;&gt;Node5</title>
<path fill="none" stroke="midnightblue" d="M113.065,-306.981C212.773,-288.018 409.625,-250.578 501.965,-233.016"/>
<polygon fill="midnightblue" stroke="midnightblue" points="112.313,-303.561 103.144,-308.868 113.621,-310.438 112.313,-303.561"/>
</g>
<!-- Node6 -->
<g id="node6" class="node"><title>Node6</title>
<g id="a_node6"><a xlink:href="classscram_1_1core_1_1CustomPreprocessor_3_01Zbdd_01_4.xhtml#a5185075f852c647c7aa4313d23420ee5" target="_top" xlink:title="Performs preprocessing for analyses with Zero&#45;Suppressed Binary Decision Diagrams. ">
<polygon fill="white" stroke="black" points="667,-230.5 667,-260.5 834,-260.5 834,-230.5 667,-230.5"/>
<text text-anchor="start" x="675" y="-248.5" font-family="Helvetica,sans-Serif" font-size="10.00">scram::core::CustomPreprocessor</text>
<text text-anchor="middle" x="750.5" y="-237.5" font-family="Helvetica,sans-Serif" font-size="10.00">&lt; Zbdd &gt;::Run</text>
</a>
</g>
</g>
<!-- Node1&#45;&gt;Node6 -->
<g id="edge9" class="edge"><title>Node1&#45;&gt;Node6</title>
<path fill="none" stroke="midnightblue" d="M107.554,-336.162C117.899,-338.798 128.702,-341.098 139,-342.5 356.828,-372.159 420.837,-356 631,-291.5 659.692,-282.694 691.343,-270.262 714.711,-260.542"/>
<polygon fill="midnightblue" stroke="midnightblue" points="108.372,-332.758 97.8064,-333.551 106.56,-339.52 108.372,-332.758"/>
</g>
<!-- Node9 -->
<g id="node9" class="node"><title>Node9</title>
<g id="a_node9"><a xlink:href="classscram_1_1core_1_1Preprocessor.xhtml#a3569bbcd5e863c750cdfa69115399600" target="_top" xlink:title="The final phase that cleans up the graph, and puts the structure of the graph ready for analysis...">
<polygon fill="white" stroke="black" points="487,-252.5 487,-282.5 619,-282.5 619,-252.5 487,-252.5"/>
<text text-anchor="start" x="495" y="-270.5" font-family="Helvetica,sans-Serif" font-size="10.00">scram::core::Preprocessor</text>
<text text-anchor="middle" x="553" y="-259.5" font-family="Helvetica,sans-Serif" font-size="10.00">::RunPhaseFive</text>
</a>
</g>
</g>
<!-- Node1&#45;&gt;Node9 -->
<g id="edge10" class="edge"><title>Node1&#45;&gt;Node9</title>
<path fill="none" stroke="midnightblue" d="M113.135,-324.608C189.869,-330.771 325.698,-336.44 439,-313.5 469.102,-307.405 501.356,-293.457 523.668,-282.507"/>
<polygon fill="midnightblue" stroke="midnightblue" points="113.42,-321.12 103.164,-323.777 112.839,-328.095 113.42,-321.12"/>
</g>
<!-- Node10 -->
<g id="node10" class="node"><title>Node10</title>
<g id="a_node10"><a xlink:href="classscram_1_1core_1_1Preprocessor.xhtml#a5c224938dfba861f061525658bd7b156" target="_top" xlink:title="Propagation of complements. ">
<polygon fill="white" stroke="black" points="487,-164.5 487,-194.5 619,-194.5 619,-164.5 487,-164.5"/>
<text text-anchor="start" x="495" y="-182.5" font-family="Helvetica,sans-Serif" font-size="10.00">scram::core::Preprocessor</text>
<text text-anchor="middle" x="553" y="-171.5" font-family="Helvetica,sans-Serif" font-size="10.00">::RunPhaseFour</text>
</a>
</g>
</g>
<!-- Node1&#45;&gt;Node10 -->
<g id="edge13" class="edge"><title>Node1&#45;&gt;Node10</title>
<path fill="none" stroke="midnightblue" d="M56.5753,-293.302C64.5516,-252.905 86.2905,-174.354 139,-136.5 247.54,-58.5517 309.668,-82.8831 439,-116.5 474.434,-125.71 510.556,-148.733 532.125,-164.244"/>
<polygon fill="midnightblue" stroke="midnightblue" points="53.0865,-292.922 54.7151,-303.391 59.9704,-294.191 53.0865,-292.922"/>
</g>
<!-- Node11 -->
<g id="node11" class="node"><title>Node11</title>
<g id="a_node11"><a xlink:href="classscram_1_1core_1_1Preprocessor.xhtml#a44f820b6fe2c23594c818432b33e26a6" target="_top" xlink:title="The initial phase of preprocessing. ">
<polygon fill="white" stroke="black" points="307,-0.5 307,-30.5 439,-30.5 439,-0.5 307,-0.5"/>
<text text-anchor="start" x="315" y="-18.5" font-family="Helvetica,sans-Serif" font-size="10.00">scram::core::Preprocessor</text>
<text text-anchor="middle" x="373" y="-7.5" font-family="Helvetica,sans-Serif" font-size="10.00">::RunPhaseOne</text>
</a>
</g>
</g>
<!-- Node1&#45;&gt;Node11 -->
<g id="edge16" class="edge"><title>Node1&#45;&gt;Node11</title>
<path fill="none" stroke="midnightblue" d="M54.4964,-293.188C59.6535,-245.215 77.6757,-140.748 139,-83.5 184.588,-40.9422 255.34,-24.8643 306.924,-18.873"/>
<polygon fill="midnightblue" stroke="midnightblue" points="50.9954,-293.029 53.5111,-303.321 57.9626,-293.707 50.9954,-293.029"/>
</g>
<!-- Node12 -->
<g id="node12" class="node"><title>Node12</title>
<g id="a_node12"><a xlink:href="classscram_1_1core_1_1Preprocessor.xhtml#abf2c66723172a85b2ae87ef2a034cd1f" target="_top" xlink:title="Application of gate normalization. ">
<polygon fill="white" stroke="black" points="307,-126.5 307,-156.5 439,-156.5 439,-126.5 307,-126.5"/>
<text text-anchor="start" x="315" y="-144.5" font-family="Helvetica,sans-Serif" font-size="10.00">scram::core::Preprocessor</text>
<text text-anchor="middle" x="373" y="-133.5" font-family="Helvetica,sans-Serif" font-size="10.00">::RunPhaseThree</text>
</a>
</g>
</g>
<!-- Node1&#45;&gt;Node12 -->
<g id="edge19" class="edge"><title>Node1&#45;&gt;Node12</title>
<path fill="none" stroke="midnightblue" d="M60.5574,-293.874C72.3711,-261.946 97.5978,-207.096 139,-179.5 188.622,-146.426 257.104,-138.672 306.979,-138.141"/>
<polygon fill="midnightblue" stroke="midnightblue" points="57.2332,-292.777 57.1896,-303.371 63.8306,-295.116 57.2332,-292.777"/>
</g>
<!-- Node13 -->
<g id="node13" class="node"><title>Node13</title>
<g id="a_node13"><a xlink:href="classscram_1_1core_1_1Preprocessor.xhtml#a9d5f89471499508eb9e6c01ea43e0f15" target="_top" xlink:title="Preprocessing phase of the original structure of the graph. ">
<polygon fill="white" stroke="black" points="139,-189.5 139,-219.5 271,-219.5 271,-189.5 139,-189.5"/>
<text text-anchor="start" x="147" y="-207.5" font-family="Helvetica,sans-Serif" font-size="10.00">scram::core::Preprocessor</text>
<text text-anchor="middle" x="205" y="-196.5" font-family="Helvetica,sans-Serif" font-size="10.00">::RunPhaseTwo</text>
</a>
</g>
</g>
<!-- Node1&#45;&gt;Node13 -->
<g id="edge22" class="edge"><title>Node1&#45;&gt;Node13</title>
<path fill="none" stroke="midnightblue" d="M80.9792,-297.07C110.956,-274.514 157.384,-239.578 183.799,-219.701"/>
<polygon fill="midnightblue" stroke="midnightblue" points="78.5041,-294.552 72.618,-303.362 82.713,-300.146 78.5041,-294.552"/>
</g>
<!-- Node5&#45;&gt;Node4 -->
<g id="edge5" class="edge"><title>Node5&#45;&gt;Node4</title>
<path fill="none" stroke="midnightblue" d="M618.538,-236.494C622.866,-238.25 627.065,-240.242 631,-242.5 655.97,-256.828 711.655,-320.115 736.775,-349.461"/>
<polygon fill="midnightblue" stroke="midnightblue" points="619.502,-233.121 608.908,-233.013 617.122,-239.704 619.502,-233.121"/>
</g>
<!-- Node5&#45;&gt;Node6 -->
<g id="edge6" class="edge"><title>Node5&#45;&gt;Node6</title>
<path fill="none" stroke="midnightblue" d="M641.44,-233.34C649.836,-234.285 658.334,-235.241 666.683,-236.18"/>
<polygon fill="midnightblue" stroke="midnightblue" points="641.595,-229.835 631.267,-232.195 640.813,-236.791 641.595,-229.835"/>
</g>
<!-- Node7 -->
<g id="node7" class="node"><title>Node7</title>
<g id="a_node7"><a xlink:href="classscram_1_1core_1_1Preprocessor.xhtml#a5ee92284aef510ce01a71c962d50f51c" target="_top" xlink:title="Runs the graph preprocessing. ">
<polygon fill="white" stroke="black" points="684.5,-142.5 684.5,-172.5 816.5,-172.5 816.5,-142.5 684.5,-142.5"/>
<text text-anchor="start" x="692.5" y="-160.5" font-family="Helvetica,sans-Serif" font-size="10.00">scram::core::Preprocessor</text>
<text text-anchor="middle" x="750.5" y="-149.5" font-family="Helvetica,sans-Serif" font-size="10.00">::operator()</text>
</a>
</g>
</g>
<!-- Node5&#45;&gt;Node7 -->
<g id="edge7" class="edge"><title>Node5&#45;&gt;Node7</title>
<path fill="none" stroke="midnightblue" d="M603.911,-211.44C612.979,-208.993 622.313,-206.304 631,-203.5 659.247,-194.383 690.523,-182.148 713.848,-172.589"/>
<polygon fill="midnightblue" stroke="midnightblue" points="602.997,-208.061 594.219,-213.994 604.781,-214.83 602.997,-208.061"/>
</g>
<!-- Node8 -->
<g id="node8" class="node"><title>Node8</title>
<g id="a_node8"><a xlink:href="classscram_1_1core_1_1Preprocessor_1_1GateSet.xhtml#ae00239084858979e096032c4cf2f05b9" target="_top" xlink:title="Inserts a gate into the set if it is semantically unique. ">
<polygon fill="white" stroke="black" points="870,-142.5 870,-172.5 1002,-172.5 1002,-142.5 870,-142.5"/>
<text text-anchor="start" x="878" y="-160.5" font-family="Helvetica,sans-Serif" font-size="10.00">scram::core::Preprocessor</text>
<text text-anchor="middle" x="936" y="-149.5" font-family="Helvetica,sans-Serif" font-size="10.00">::GateSet::insert</text>
</a>
</g>
</g>
<!-- Node7&#45;&gt;Node8 -->
<g id="edge8" class="edge"><title>Node7&#45;&gt;Node8</title>
<path fill="none" stroke="midnightblue" d="M826.989,-157.5C841.264,-157.5 856.081,-157.5 869.998,-157.5"/>
<polygon fill="midnightblue" stroke="midnightblue" points="826.712,-154 816.712,-157.5 826.712,-161 826.712,-154"/>
</g>
<!-- Node9&#45;&gt;Node6 -->
<g id="edge11" class="edge"><title>Node9&#45;&gt;Node6</title>
<path fill="none" stroke="midnightblue" d="M629.313,-259.025C641.636,-257.638 654.462,-256.195 666.949,-254.79"/>
<polygon fill="midnightblue" stroke="midnightblue" points="628.645,-255.578 619.099,-260.174 629.427,-262.534 628.645,-255.578"/>
</g>
<!-- Node9&#45;&gt;Node7 -->
<g id="edge12" class="edge"><title>Node9&#45;&gt;Node7</title>
<path fill="none" stroke="midnightblue" d="M617.488,-248.643C622.13,-246.732 626.68,-244.684 631,-242.5 651.335,-232.219 701.659,-194.373 729.746,-172.808"/>
<polygon fill="midnightblue" stroke="midnightblue" points="615.936,-245.491 607.878,-252.369 618.467,-252.017 615.936,-245.491"/>
</g>
<!-- Node10&#45;&gt;Node6 -->
<g id="edge14" class="edge"><title>Node10&#45;&gt;Node6</title>
<path fill="none" stroke="midnightblue" d="M610.79,-197.802C617.606,-200.039 624.464,-202.309 631,-204.5 656.181,-212.943 684.274,-222.651 706.785,-230.5"/>
<polygon fill="midnightblue" stroke="midnightblue" points="611.467,-194.341 600.874,-194.561 609.292,-200.995 611.467,-194.341"/>
</g>
<!-- Node10&#45;&gt;Node7 -->
<g id="edge15" class="edge"><title>Node10&#45;&gt;Node7</title>
<path fill="none" stroke="midnightblue" d="M629.088,-171.05C647.307,-169 666.636,-166.825 684.353,-164.831"/>
<polygon fill="midnightblue" stroke="midnightblue" points="628.645,-167.578 619.099,-172.174 629.427,-174.534 628.645,-167.578"/>
</g>
<!-- Node11&#45;&gt;Node5 -->
<g id="edge17" class="edge"><title>Node11&#45;&gt;Node5</title>
<path fill="none" stroke="midnightblue" d="M390.793,-38.9233C404.72,-58.9428 424.515,-88.8184 439,-116.5 458.401,-153.577 443.438,-176.024 475,-203.5 480,-207.853 485.833,-211.277 492.009,-213.967"/>
<polygon fill="midnightblue" stroke="midnightblue" points="393.644,-36.8929 385.031,-30.7223 387.916,-40.9169 393.644,-36.8929"/>
</g>
<!-- Node11&#45;&gt;Node7 -->
<g id="edge18" class="edge"><title>Node11&#45;&gt;Node7</title>
<path fill="none" stroke="midnightblue" d="M449.138,-12.0106C502.276,-12.4023 573.926,-18.86 631,-45.5 678.968,-67.8895 720.087,-117.331 738.769,-142.356"/>
<polygon fill="midnightblue" stroke="midnightblue" points="449.105,-8.51065 439.103,-12.0066 449.102,-15.5106 449.105,-8.51065"/>
</g>
<!-- Node12&#45;&gt;Node5 -->
<g id="edge20" class="edge"><title>Node12&#45;&gt;Node5</title>
<path fill="none" stroke="midnightblue" d="M403.11,-162.587C422.641,-175.907 449.389,-192.601 475,-203.5 484.786,-207.664 495.651,-211.133 506.061,-213.948"/>
<polygon fill="midnightblue" stroke="midnightblue" points="404.886,-159.56 394.674,-156.737 400.897,-165.312 404.886,-159.56"/>
</g>
<!-- Node12&#45;&gt;Node7 -->
<g id="edge21" class="edge"><title>Node12&#45;&gt;Node7</title>
<path fill="none" stroke="midnightblue" d="M449.74,-144.727C518.516,-147.658 618.901,-151.935 684.214,-154.718"/>
<polygon fill="midnightblue" stroke="midnightblue" points="449.547,-141.216 439.407,-144.287 449.249,-148.21 449.547,-141.216"/>
</g>
<!-- Node13&#45;&gt;Node5 -->
<g id="edge23" class="edge"><title>Node13&#45;&gt;Node5</title>
<path fill="none" stroke="midnightblue" d="M281.158,-208.627C338.44,-211.773 417.044,-216.089 474.82,-219.262"/>
<polygon fill="midnightblue" stroke="midnightblue" points="281.257,-205.127 271.08,-208.074 280.873,-212.117 281.257,-205.127"/>
</g>
<!-- Node13&#45;&gt;Node7 -->
<g id="edge27" class="edge"><title>Node13&#45;&gt;Node7</title>
<path fill="none" stroke="midnightblue" d="M223.693,-181.646C241.903,-160.168 272.431,-129.447 307,-116.5 447.528,-63.8677 629.95,-114.879 709.487,-142.426"/>
<polygon fill="midnightblue" stroke="midnightblue" points="220.989,-179.424 217.335,-189.368 226.393,-183.873 220.989,-179.424"/>
</g>
<!-- Node13&#45;&gt;Node9 -->
<g id="edge26" class="edge"><title>Node13&#45;&gt;Node9</title>
<path fill="none" stroke="midnightblue" d="M279.233,-221.739C288.56,-223.769 297.992,-225.741 307,-227.5 367.699,-239.354 437.331,-250.487 486.808,-257.983"/>
<polygon fill="midnightblue" stroke="midnightblue" points="279.698,-218.257 269.178,-219.52 278.189,-225.093 279.698,-218.257"/>
</g>
<!-- Node13&#45;&gt;Node10 -->
<g id="edge25" class="edge"><title>Node13&#45;&gt;Node10</title>
<path fill="none" stroke="midnightblue" d="M281.097,-199.074C342.493,-194.638 428.413,-188.43 486.918,-184.202"/>
<polygon fill="midnightblue" stroke="midnightblue" points="280.802,-195.586 271.08,-199.798 281.306,-202.568 280.802,-195.586"/>
</g>
<!-- Node13&#45;&gt;Node12 -->
<g id="edge24" class="edge"><title>Node13&#45;&gt;Node12</title>
<path fill="none" stroke="midnightblue" d="M255.269,-185.801C279.841,-176.476 309.166,-165.347 332.276,-156.576"/>
<polygon fill="midnightblue" stroke="midnightblue" points="253.869,-182.589 245.761,-189.41 256.352,-189.134 253.869,-182.589"/>
</g>
</g>
</svg>
