<?xml version="1.0" encoding="UTF-8" standalone="no"?>
<!DOCTYPE svg PUBLIC "-//W3C//DTD SVG 1.1//EN"
 "http://www.w3.org/Graphics/SVG/1.1/DTD/svg11.dtd">
<!-- Generated by graphviz version 2.38.0 (20140413.2041)
 -->
<!-- Title: scram::Error::msg Pages: 1 -->
<svg width="284pt" height="176pt"
 viewBox="0.00 0.00 284.00 175.50" xmlns="http://www.w3.org/2000/svg" xmlns:xlink="http://www.w3.org/1999/xlink">
<g id="graph0" class="graph" transform="scale(1 1) rotate(0) translate(4 171.5)">
<title>scram::Error::msg</title>
<polygon fill="white" stroke="none" points="-4,4 -4,-171.5 280,-171.5 280,4 -4,4"/>
<!-- Node1 -->
<g id="node1" class="node"><title>Node1</title>
<polygon fill="#bfbfbf" stroke="black" points="0,-79 0,-98 95,-98 95,-79 0,-79"/>
<text text-anchor="middle" x="47.5" y="-86" font-family="Helvetica,sans-Serif" font-size="10.00">scram::Error::msg</text>
</g>
<!-- Node2 -->
<g id="node2" class="node"><title>Node2</title>
<g id="a_node2"><a xlink:href="classscram_1_1Config.xhtml#ab0d7940fbb627fab9867821e133eab5d" target="_top" xlink:title="A constructor with configurations for analysis. ">
<polygon fill="white" stroke="black" points="147,-148 147,-167 260,-167 260,-148 147,-148"/>
<text text-anchor="middle" x="203.5" y="-155" font-family="Helvetica,sans-Serif" font-size="10.00">scram::Config::Config</text>
</a>
</g>
</g>
<!-- Node1&#45;&gt;Node2 -->
<g id="edge1" class="edge"><title>Node1&#45;&gt;Node2</title>
<path fill="none" stroke="midnightblue" d="M70.2389,-104.044C86.3617,-114.97 109.228,-129.236 131,-138.5 139.746,-142.221 149.41,-145.379 158.73,-147.988"/>
<polygon fill="midnightblue" stroke="midnightblue" points="71.8003,-100.868 61.5845,-98.0594 67.8191,-106.626 71.8003,-100.868"/>
</g>
<!-- Node3 -->
<g id="node3" class="node"><title>Node3</title>
<g id="a_node3"><a xlink:href="classscram_1_1mef_1_1Initializer.xhtml#a14baeb786ca655ac41c6ad3197ebf612" target="_top" xlink:title="Specializations for elements defined after registration. ">
<polygon fill="white" stroke="black" points="148,-98.5 148,-128.5 259,-128.5 259,-98.5 148,-98.5"/>
<text text-anchor="start" x="156" y="-116.5" font-family="Helvetica,sans-Serif" font-size="10.00">scram::mef::Initializer</text>
<text text-anchor="middle" x="203.5" y="-105.5" font-family="Helvetica,sans-Serif" font-size="10.00">::Define</text>
</a>
</g>
</g>
<!-- Node1&#45;&gt;Node3 -->
<g id="edge2" class="edge"><title>Node1&#45;&gt;Node3</title>
<path fill="none" stroke="midnightblue" d="M105.104,-97.6889C119.086,-99.9587 134.034,-102.385 147.917,-104.639"/>
<polygon fill="midnightblue" stroke="midnightblue" points="105.555,-94.2164 95.123,-96.0687 104.433,-101.126 105.555,-94.2164"/>
</g>
<!-- Node4 -->
<g id="node4" class="node"><title>Node4</title>
<g id="a_node4"><a xlink:href="classscram_1_1mef_1_1Initializer.xhtml#a8fb6959baa83f7619b3ca9ed8423d40a" target="_top" xlink:title="Reads input files with the structure of analysis constructs. ">
<polygon fill="white" stroke="black" points="148,-49.5 148,-79.5 259,-79.5 259,-49.5 148,-49.5"/>
<text text-anchor="start" x="156" y="-67.5" font-family="Helvetica,sans-Serif" font-size="10.00">scram::mef::Initializer</text>
<text text-anchor="middle" x="203.5" y="-56.5" font-family="Helvetica,sans-Serif" font-size="10.00">::Initializer</text>
</a>
</g>
</g>
<!-- Node1&#45;&gt;Node4 -->
<g id="edge3" class="edge"><title>Node1&#45;&gt;Node4</title>
<path fill="none" stroke="midnightblue" d="M105.104,-79.6786C119.086,-77.4997 134.034,-75.17 147.917,-73.0064"/>
<polygon fill="midnightblue" stroke="midnightblue" points="104.465,-76.2359 95.123,-81.2341 105.543,-83.1524 104.465,-76.2359"/>
</g>
<!-- Node5 -->
<g id="node5" class="node"><title>Node5</title>
<g id="a_node5"><a xlink:href="structscram_1_1mef_1_1Initializer_1_1Extractor_3_01T_00-1_01_4.xhtml#aa3a2ab99081e017bfa97747a8f6bca04" target="_top" xlink:title="Constructs an expression with a variable number of arguments. ">
<polygon fill="white" stroke="black" points="131,-0.5 131,-30.5 276,-30.5 276,-0.5 131,-0.5"/>
<text text-anchor="start" x="139" y="-18.5" font-family="Helvetica,sans-Serif" font-size="10.00">scram::mef::Initializer</text>
<text text-anchor="middle" x="203.5" y="-7.5" font-family="Helvetica,sans-Serif" font-size="10.00">::Extractor&lt; T,&#45;1 &gt;::operator()</text>
</a>
</g>
</g>
<!-- Node1&#45;&gt;Node5 -->
<g id="edge4" class="edge"><title>Node1&#45;&gt;Node5</title>
<path fill="none" stroke="midnightblue" d="M71.7119,-73.3893C87.9018,-63.2546 110.24,-50.0623 131,-40.5 138.764,-36.9239 147.194,-33.5521 155.453,-30.5114"/>
<polygon fill="midnightblue" stroke="midnightblue" points="69.5151,-70.6382 62.9485,-78.9527 73.2669,-76.5479 69.5151,-70.6382"/>
</g>
</g>
</svg>
