<?xml version="1.0" encoding="UTF-8" standalone="no"?>
<!DOCTYPE svg PUBLIC "-//W3C//DTD SVG 1.1//EN"
 "http://www.w3.org/Graphics/SVG/1.1/DTD/svg11.dtd">
<!-- Generated by graphviz version 2.38.0 (20140413.2041)
 -->
<!-- Title: scram::core::Zbdd::Minimize Pages: 1 -->
<svg width="437pt" height="439pt"
 viewBox="0.00 0.00 437.00 439.00" xmlns="http://www.w3.org/2000/svg" xmlns:xlink="http://www.w3.org/1999/xlink">
<g id="graph0" class="graph" transform="scale(1 1) rotate(0) translate(4 435)">
<title>scram::core::Zbdd::Minimize</title>
<polygon fill="white" stroke="none" points="-4,4 -4,-435 433,-435 433,4 -4,4"/>
<!-- Node1 -->
<g id="node1" class="node"><title>Node1</title>
<polygon fill="#bfbfbf" stroke="black" points="0,-220.5 0,-250.5 102,-250.5 102,-220.5 0,-220.5"/>
<text text-anchor="start" x="8" y="-238.5" font-family="Helvetica,sans-Serif" font-size="10.00">scram::core::Zbdd::</text>
<text text-anchor="middle" x="51" y="-227.5" font-family="Helvetica,sans-Serif" font-size="10.00">Minimize</text>
</g>
<!-- Node2 -->
<g id="node2" class="node"><title>Node2</title>
<g id="a_node2"><a xlink:href="classscram_1_1core_1_1NonTerminal.xhtml#adcdd0c5114aa6a1d32a03928adc07c49" target="_top" xlink:title="scram::core::NonTerminal\l::coherent">
<polygon fill="white" stroke="black" points="138,-400.5 138,-430.5 268,-430.5 268,-400.5 138,-400.5"/>
<text text-anchor="start" x="146" y="-418.5" font-family="Helvetica,sans-Serif" font-size="10.00">scram::core::NonTerminal</text>
<text text-anchor="middle" x="203" y="-407.5" font-family="Helvetica,sans-Serif" font-size="10.00">::coherent</text>
</a>
</g>
</g>
<!-- Node1&#45;&gt;Node2 -->
<g id="edge1" class="edge"><title>Node1&#45;&gt;Node2</title>
<path fill="none" stroke="midnightblue" d="M56.4013,-250.658C66.094,-281.473 92.1452,-351.857 138,-391.5 139.358,-392.674 140.779,-393.793 142.25,-394.859"/>
<polygon fill="midnightblue" stroke="midnightblue" points="140.811,-398.087 151.148,-400.409 144.515,-392.147 140.811,-398.087"/>
</g>
<!-- Node3 -->
<g id="node3" class="node"><title>Node3</title>
<g id="a_node3"><a xlink:href="classscram_1_1core_1_1Zbdd.xhtml#a42af18229ba2e80201bc0fdac07b7091" target="_top" xlink:title="Finds or adds a unique SetNode in the ZBDD. ">
<polygon fill="white" stroke="black" points="152,-351.5 152,-381.5 254,-381.5 254,-351.5 152,-351.5"/>
<text text-anchor="start" x="160" y="-369.5" font-family="Helvetica,sans-Serif" font-size="10.00">scram::core::Zbdd::</text>
<text text-anchor="middle" x="203" y="-358.5" font-family="Helvetica,sans-Serif" font-size="10.00">FindOrAddVertex</text>
</a>
</g>
</g>
<!-- Node1&#45;&gt;Node3 -->
<g id="edge2" class="edge"><title>Node1&#45;&gt;Node3</title>
<path fill="none" stroke="midnightblue" d="M61.7665,-250.628C76.2405,-272.075 105.229,-311.49 138,-336.5 142.929,-340.262 148.406,-343.708 154.022,-346.815"/>
<polygon fill="midnightblue" stroke="midnightblue" points="152.415,-349.924 162.904,-351.418 155.635,-343.709 152.415,-349.924"/>
</g>
<!-- Node5 -->
<g id="node5" class="node"><title>Node5</title>
<g id="a_node5"><a xlink:href="structscram_1_1core_1_1IntrusivePtrCast.xhtml#af153c12dc6133b7d9f9b7a57bba29f1d" target="_top" xlink:title="scram::core::IntrusivePtr\lCast\&lt; SetNode \&gt;::Ref">
<polygon fill="white" stroke="black" points="304,-298.5 304,-328.5 429,-328.5 429,-298.5 304,-298.5"/>
<text text-anchor="start" x="312" y="-316.5" font-family="Helvetica,sans-Serif" font-size="10.00">scram::core::IntrusivePtr</text>
<text text-anchor="middle" x="366.5" y="-305.5" font-family="Helvetica,sans-Serif" font-size="10.00">Cast&lt; SetNode &gt;::Ref</text>
</a>
</g>
</g>
<!-- Node1&#45;&gt;Node5 -->
<g id="edge10" class="edge"><title>Node1&#45;&gt;Node5</title>
<path fill="none" stroke="midnightblue" d="M84.8021,-250.585C100.244,-259.62 119.339,-270.222 138,-276.5 188.318,-293.429 247.976,-300.318 293.574,-304.307"/>
<polygon fill="midnightblue" stroke="midnightblue" points="293.407,-307.805 303.668,-305.166 294,-300.831 293.407,-307.805"/>
</g>
<!-- Node1&#45;&gt;Node5 -->
<g id="edge11" class="edge"><title>Node1&#45;&gt;Node5</title>
<path fill="none" stroke="midnightblue" d="M63.7774,-250.58C79.6848,-265.036 109.354,-284.862 138,-294.5 188.318,-311.429 247.976,-318.318 293.574,-319.76"/>
<polygon fill="midnightblue" stroke="midnightblue" points="293.589,-323.261 303.668,-319.995 293.752,-316.263 293.589,-323.261"/>
</g>
<!-- Node6 -->
<g id="node6" class="node"><title>Node6</title>
<g id="a_node6"><a xlink:href="classscram_1_1core_1_1NonTerminal.xhtml#aeeaafd82ae5890a7ec3462c68ffc8628" target="_top" xlink:title="scram::core::NonTerminal\l::index">
<polygon fill="white" stroke="black" points="138,-245.5 138,-275.5 268,-275.5 268,-245.5 138,-245.5"/>
<text text-anchor="start" x="146" y="-263.5" font-family="Helvetica,sans-Serif" font-size="10.00">scram::core::NonTerminal</text>
<text text-anchor="middle" x="203" y="-252.5" font-family="Helvetica,sans-Serif" font-size="10.00">::index</text>
</a>
</g>
</g>
<!-- Node1&#45;&gt;Node6 -->
<g id="edge5" class="edge"><title>Node1&#45;&gt;Node6</title>
<path fill="none" stroke="midnightblue" d="M102.365,-243.894C110.562,-245.26 119.201,-246.7 127.826,-248.138"/>
<polygon fill="midnightblue" stroke="midnightblue" points="127.476,-251.628 137.916,-249.819 128.627,-244.723 127.476,-251.628"/>
</g>
<!-- Node7 -->
<g id="node7" class="node"><title>Node7</title>
<g id="a_node7"><a xlink:href="classscram_1_1core_1_1SetNode.xhtml#a88d05af2b9f4f08b7bc66a31c2b9e249" target="_top" xlink:title="scram::core::SetNode\l::minimal">
<polygon fill="white" stroke="black" points="146.5,-196.5 146.5,-226.5 259.5,-226.5 259.5,-196.5 146.5,-196.5"/>
<text text-anchor="start" x="154.5" y="-214.5" font-family="Helvetica,sans-Serif" font-size="10.00">scram::core::SetNode</text>
<text text-anchor="middle" x="203" y="-203.5" font-family="Helvetica,sans-Serif" font-size="10.00">::minimal</text>
</a>
</g>
</g>
<!-- Node1&#45;&gt;Node7 -->
<g id="edge6" class="edge"><title>Node1&#45;&gt;Node7</title>
<path fill="none" stroke="midnightblue" d="M102.365,-227.442C113.293,-225.693 125.005,-223.819 136.421,-221.993"/>
<polygon fill="midnightblue" stroke="midnightblue" points="137.029,-225.44 146.35,-220.404 135.923,-218.528 137.029,-225.44"/>
</g>
<!-- Node8 -->
<g id="node8" class="node"><title>Node8</title>
<g id="a_node8"><a xlink:href="classscram_1_1core_1_1NonTerminal.xhtml#a9230422e92d086c34f67bcb864bfc8a9" target="_top" xlink:title="scram::core::NonTerminal\l::module">
<polygon fill="white" stroke="black" points="138,-147.5 138,-177.5 268,-177.5 268,-147.5 138,-147.5"/>
<text text-anchor="start" x="146" y="-165.5" font-family="Helvetica,sans-Serif" font-size="10.00">scram::core::NonTerminal</text>
<text text-anchor="middle" x="203" y="-154.5" font-family="Helvetica,sans-Serif" font-size="10.00">::module</text>
</a>
</g>
</g>
<!-- Node1&#45;&gt;Node8 -->
<g id="edge7" class="edge"><title>Node1&#45;&gt;Node8</title>
<path fill="none" stroke="midnightblue" d="M77.1101,-220.286C94.011,-210.347 116.968,-197.42 138,-187.5 142.356,-185.445 146.93,-183.417 151.545,-181.458"/>
<polygon fill="midnightblue" stroke="midnightblue" points="153.11,-184.598 161.018,-177.547 150.439,-178.128 153.11,-184.598"/>
</g>
<!-- Node9 -->
<g id="node9" class="node"><title>Node9</title>
<g id="a_node9"><a xlink:href="classscram_1_1core_1_1Settings.xhtml#ae64f362fceb44402e101140dfc1725ba" target="_top" xlink:title="scram::core::Settings\l::prime_implicants">
<polygon fill="white" stroke="black" points="148,-98.5 148,-128.5 258,-128.5 258,-98.5 148,-98.5"/>
<text text-anchor="start" x="156" y="-116.5" font-family="Helvetica,sans-Serif" font-size="10.00">scram::core::Settings</text>
<text text-anchor="middle" x="203" y="-105.5" font-family="Helvetica,sans-Serif" font-size="10.00">::prime_implicants</text>
</a>
</g>
</g>
<!-- Node1&#45;&gt;Node9 -->
<g id="edge8" class="edge"><title>Node1&#45;&gt;Node9</title>
<path fill="none" stroke="midnightblue" d="M61.9345,-220.354C76.3982,-199.359 105.14,-161.414 138,-138.5 140.691,-136.624 143.542,-134.862 146.488,-133.212"/>
<polygon fill="midnightblue" stroke="midnightblue" points="148.227,-136.254 155.546,-128.594 145.047,-130.018 148.227,-136.254"/>
</g>
<!-- Node10 -->
<g id="node10" class="node"><title>Node10</title>
<g id="a_node10"><a xlink:href="structscram_1_1core_1_1IntrusivePtrCast.xhtml#adc53e5b89cace18e05bac95316da7d91" target="_top" xlink:title="scram::core::IntrusivePtr\lCast\&lt; SetNode \&gt;::Ptr">
<polygon fill="white" stroke="black" points="140.5,-49.5 140.5,-79.5 265.5,-79.5 265.5,-49.5 140.5,-49.5"/>
<text text-anchor="start" x="148.5" y="-67.5" font-family="Helvetica,sans-Serif" font-size="10.00">scram::core::IntrusivePtr</text>
<text text-anchor="middle" x="203" y="-56.5" font-family="Helvetica,sans-Serif" font-size="10.00">Cast&lt; SetNode &gt;::Ptr</text>
</a>
</g>
</g>
<!-- Node1&#45;&gt;Node10 -->
<g id="edge9" class="edge"><title>Node1&#45;&gt;Node10</title>
<path fill="none" stroke="midnightblue" d="M56.9704,-220.313C67.3634,-190.821 94.1321,-125.458 138,-88.5 139.531,-87.2098 141.139,-85.9854 142.806,-84.8237"/>
<polygon fill="midnightblue" stroke="midnightblue" points="144.818,-87.697 151.56,-79.524 141.193,-81.7088 144.818,-87.697"/>
</g>
<!-- Node11 -->
<g id="node11" class="node"><title>Node11</title>
<g id="a_node11"><a xlink:href="classscram_1_1core_1_1Terminal.xhtml#a7a25b0b40498f4876571a5dac4e724c3" target="_top" xlink:title="scram::core::Terminal\l::value">
<polygon fill="white" stroke="black" points="147,-0.5 147,-30.5 259,-30.5 259,-0.5 147,-0.5"/>
<text text-anchor="start" x="155" y="-18.5" font-family="Helvetica,sans-Serif" font-size="10.00">scram::core::Terminal</text>
<text text-anchor="middle" x="203" y="-7.5" font-family="Helvetica,sans-Serif" font-size="10.00">::value</text>
</a>
</g>
</g>
<!-- Node1&#45;&gt;Node11 -->
<g id="edge12" class="edge"><title>Node1&#45;&gt;Node11</title>
<path fill="none" stroke="midnightblue" d="M54.4884,-220.444C61.2416,-184.218 83.2216,-91.3605 138,-39.5 139.131,-38.4292 140.314,-37.4051 141.542,-36.4258"/>
<polygon fill="midnightblue" stroke="midnightblue" points="143.858,-39.0851 150.19,-30.5907 139.943,-33.2823 143.858,-39.0851"/>
</g>
<!-- Node4 -->
<g id="node4" class="node"><title>Node4</title>
<g id="a_node4"><a xlink:href="classscram_1_1core_1_1SetNode.xhtml#a2d7f99792b82961df2e5ecfcd735bb5f" target="_top" xlink:title="scram::core::SetNode\l::max_set_order">
<polygon fill="white" stroke="black" points="310,-351.5 310,-381.5 423,-381.5 423,-351.5 310,-351.5"/>
<text text-anchor="start" x="318" y="-369.5" font-family="Helvetica,sans-Serif" font-size="10.00">scram::core::SetNode</text>
<text text-anchor="middle" x="366.5" y="-358.5" font-family="Helvetica,sans-Serif" font-size="10.00">::max_set_order</text>
</a>
</g>
</g>
<!-- Node3&#45;&gt;Node4 -->
<g id="edge3" class="edge"><title>Node3&#45;&gt;Node4</title>
<path fill="none" stroke="midnightblue" d="M254.214,-366.5C268.584,-366.5 284.466,-366.5 299.625,-366.5"/>
<polygon fill="midnightblue" stroke="midnightblue" points="299.976,-370 309.976,-366.5 299.976,-363 299.976,-370"/>
</g>
<!-- Node3&#45;&gt;Node5 -->
<g id="edge4" class="edge"><title>Node3&#45;&gt;Node5</title>
<path fill="none" stroke="midnightblue" d="M249.847,-351.454C268.515,-345.328 290.265,-338.19 309.832,-331.769"/>
<polygon fill="midnightblue" stroke="midnightblue" points="311.128,-335.027 319.538,-328.584 308.945,-328.376 311.128,-335.027"/>
</g>
<!-- Node12 -->
<g id="node12" class="node"><title>Node12</title>
<g id="a_node12"><a xlink:href="classscram_1_1core_1_1Vertex.xhtml#a8a4a6e9871c7b80b9951fea57617d438" target="_top" xlink:title="scram::core::Vertex::id">
<polygon fill="white" stroke="black" points="308.5,-6 308.5,-25 424.5,-25 424.5,-6 308.5,-6"/>
<text text-anchor="middle" x="366.5" y="-13" font-family="Helvetica,sans-Serif" font-size="10.00">scram::core::Vertex::id</text>
</a>
</g>
</g>
<!-- Node11&#45;&gt;Node12 -->
<g id="edge13" class="edge"><title>Node11&#45;&gt;Node12</title>
<path fill="none" stroke="midnightblue" d="M259.127,-15.5C271.673,-15.5 285.14,-15.5 298.131,-15.5"/>
<polygon fill="midnightblue" stroke="midnightblue" points="298.421,-19.0001 308.421,-15.5 298.421,-12.0001 298.421,-19.0001"/>
</g>
</g>
</svg>
