<?xml version="1.0" encoding="UTF-8" standalone="no"?>
<!DOCTYPE svg PUBLIC "-//W3C//DTD SVG 1.1//EN"
 "http://www.w3.org/Graphics/SVG/1.1/DTD/svg11.dtd">
<!-- Generated by graphviz version 2.38.0 (20140413.2041)
 -->
<!-- Title: scram::core::Preprocessor::DetectDistributivity Pages: 1 -->
<svg width="470pt" height="225pt"
 viewBox="0.00 0.00 470.00 224.50" xmlns="http://www.w3.org/2000/svg" xmlns:xlink="http://www.w3.org/1999/xlink">
<g id="graph0" class="graph" transform="scale(1 1) rotate(0) translate(4 220.5)">
<title>scram::core::Preprocessor::DetectDistributivity</title>
<polygon fill="white" stroke="none" points="-4,4 -4,-220.5 466,-220.5 466,4 -4,4"/>
<!-- Node1 -->
<g id="node1" class="node"><title>Node1</title>
<polygon fill="#bfbfbf" stroke="black" points="0,-88 0,-118 132,-118 132,-88 0,-88"/>
<text text-anchor="start" x="8" y="-106" font-family="Helvetica,sans-Serif" font-size="10.00">scram::core::Preprocessor</text>
<text text-anchor="middle" x="66" y="-95" font-family="Helvetica,sans-Serif" font-size="10.00">::DetectDistributivity</text>
</g>
<!-- Node2 -->
<g id="node2" class="node"><title>Node2</title>
<g id="a_node2"><a xlink:href="classscram_1_1core_1_1Pdag.xhtml#aa883d0e58b9faab69186bec03574c633" target="_top" xlink:title="Clears marks from graph nodes. ">
<polygon fill="white" stroke="black" points="176,-186 176,-216 279,-216 279,-186 176,-186"/>
<text text-anchor="start" x="184" y="-204" font-family="Helvetica,sans-Serif" font-size="10.00">scram::core::Pdag::</text>
<text text-anchor="middle" x="227.5" y="-193" font-family="Helvetica,sans-Serif" font-size="10.00">Clear</text>
</a>
</g>
</g>
<!-- Node1&#45;&gt;Node2 -->
<g id="edge1" class="edge"><title>Node1&#45;&gt;Node2</title>
<path fill="none" stroke="midnightblue" d="M84.7079,-118.049C104.197,-134.103 136.901,-159.571 168,-177 170.873,-178.61 173.876,-180.172 176.939,-181.676"/>
<polygon fill="midnightblue" stroke="midnightblue" points="175.695,-184.957 186.238,-186 178.646,-178.61 175.695,-184.957"/>
</g>
<!-- Node3 -->
<g id="node3" class="node"><title>Node3</title>
<g id="a_node3"><a xlink:href="classscram_1_1core_1_1Pdag.xhtml#a7933096368b6a16f9d6aab7c4abbb02b" target="_top" xlink:title="scram::core::Pdag::\lHasConstants">
<polygon fill="white" stroke="black" points="176,-137 176,-167 279,-167 279,-137 176,-137"/>
<text text-anchor="start" x="184" y="-155" font-family="Helvetica,sans-Serif" font-size="10.00">scram::core::Pdag::</text>
<text text-anchor="middle" x="227.5" y="-144" font-family="Helvetica,sans-Serif" font-size="10.00">HasConstants</text>
</a>
</g>
</g>
<!-- Node1&#45;&gt;Node3 -->
<g id="edge2" class="edge"><title>Node1&#45;&gt;Node3</title>
<path fill="none" stroke="midnightblue" d="M116.157,-118.101C132.455,-123.108 150.762,-128.732 167.71,-133.939"/>
<polygon fill="midnightblue" stroke="midnightblue" points="166.919,-137.357 177.506,-136.948 168.974,-130.666 166.919,-137.357"/>
</g>
<!-- Node4 -->
<g id="node4" class="node"><title>Node4</title>
<g id="a_node4"><a xlink:href="classscram_1_1core_1_1Pdag.xhtml#aa43a9026583f7a629fe0a3f17440f55b" target="_top" xlink:title="scram::core::Pdag::\lHasNullGates">
<polygon fill="white" stroke="black" points="176,-88 176,-118 279,-118 279,-88 176,-88"/>
<text text-anchor="start" x="184" y="-106" font-family="Helvetica,sans-Serif" font-size="10.00">scram::core::Pdag::</text>
<text text-anchor="middle" x="227.5" y="-95" font-family="Helvetica,sans-Serif" font-size="10.00">HasNullGates</text>
</a>
</g>
</g>
<!-- Node1&#45;&gt;Node4 -->
<g id="edge3" class="edge"><title>Node1&#45;&gt;Node4</title>
<path fill="none" stroke="midnightblue" d="M132.335,-103C143.288,-103 154.616,-103 165.455,-103"/>
<polygon fill="midnightblue" stroke="midnightblue" points="165.67,-106.5 175.67,-103 165.67,-99.5001 165.67,-106.5"/>
</g>
<!-- Node5 -->
<g id="node5" class="node"><title>Node5</title>
<g id="a_node5"><a xlink:href="classscram_1_1core_1_1Pdag.xhtml#a1ec495a3595a7d088f1889f46eeb725d" target="_top" xlink:title="Removes gates of Null logic with a single argument (maybe constant). ">
<polygon fill="white" stroke="black" points="176,-39 176,-69 279,-69 279,-39 176,-39"/>
<text text-anchor="start" x="184" y="-57" font-family="Helvetica,sans-Serif" font-size="10.00">scram::core::Pdag::</text>
<text text-anchor="middle" x="227.5" y="-46" font-family="Helvetica,sans-Serif" font-size="10.00">RemoveNullGates</text>
</a>
</g>
</g>
<!-- Node1&#45;&gt;Node5 -->
<g id="edge4" class="edge"><title>Node1&#45;&gt;Node5</title>
<path fill="none" stroke="midnightblue" d="M116.157,-87.8986C132.455,-82.8917 150.762,-77.2676 167.71,-72.061"/>
<polygon fill="midnightblue" stroke="midnightblue" points="168.974,-75.334 177.506,-69.0516 166.919,-68.6426 168.974,-75.334"/>
</g>
<!-- Node7 -->
<g id="node7" class="node"><title>Node7</title>
<g id="a_node7"><a xlink:href="classscram_1_1core_1_1Pdag.xhtml#ae9407efbb00e5f28aecb40db2ab7925b" target="_top" xlink:title="scram::core::Pdag::root">
<polygon fill="white" stroke="black" points="168,-0.5 168,-19.5 287,-19.5 287,-0.5 168,-0.5"/>
<text text-anchor="middle" x="227.5" y="-7.5" font-family="Helvetica,sans-Serif" font-size="10.00">scram::core::Pdag::root</text>
</a>
</g>
</g>
<!-- Node1&#45;&gt;Node7 -->
<g id="edge7" class="edge"><title>Node1&#45;&gt;Node7</title>
<path fill="none" stroke="midnightblue" d="M84.5481,-87.8119C103.901,-71.6823 136.489,-46.3103 168,-30 172.885,-27.4714 178.159,-25.1536 183.47,-23.0636"/>
<polygon fill="midnightblue" stroke="midnightblue" points="184.823,-26.2953 192.994,-19.5514 182.401,-19.7276 184.823,-26.2953"/>
</g>
<!-- Node6 -->
<g id="node6" class="node"><title>Node6</title>
<g id="a_node6"><a xlink:href="pdag_8h.xhtml#aa00922ee92d35a300d86442f8b9ad331" target="_top" xlink:title="Traverses and visits gates and nodes in the graph. ">
<polygon fill="white" stroke="black" points="323,-44.5 323,-63.5 462,-63.5 462,-44.5 323,-44.5"/>
<text text-anchor="middle" x="392.5" y="-51.5" font-family="Helvetica,sans-Serif" font-size="10.00">scram::core::TraverseGates</text>
</a>
</g>
</g>
<!-- Node5&#45;&gt;Node6 -->
<g id="edge5" class="edge"><title>Node5&#45;&gt;Node6</title>
<path fill="none" stroke="midnightblue" d="M279.181,-54C289.878,-54 301.407,-54 312.86,-54"/>
<polygon fill="midnightblue" stroke="midnightblue" points="312.883,-57.5001 322.883,-54 312.883,-50.5001 312.883,-57.5001"/>
</g>
<!-- Node6&#45;&gt;Node6 -->
<g id="edge6" class="edge"><title>Node6&#45;&gt;Node6</title>
<path fill="none" stroke="midnightblue" d="M367.223,-63.7571C354.926,-72.5653 363.352,-82 392.5,-82 412.084,-82 422.314,-77.741 423.189,-72.2746"/>
<polygon fill="midnightblue" stroke="midnightblue" points="426.094,-70.3207 417.777,-63.7571 420.186,-74.0745 426.094,-70.3207"/>
</g>
</g>
</svg>
