<?xml version="1.0" encoding="UTF-8" standalone="no"?>
<!DOCTYPE svg PUBLIC "-//W3C//DTD SVG 1.1//EN"
 "http://www.w3.org/Graphics/SVG/1.1/DTD/svg11.dtd">
<!-- Generated by graphviz version 2.38.0 (20140413.2041)
 -->
<!-- Title: scram::core::Terminal&lt; T &gt; Pages: 1 -->
<svg width="313pt" height="376pt"
 viewBox="0.00 0.00 312.50 376.00" xmlns="http://www.w3.org/2000/svg" xmlns:xlink="http://www.w3.org/1999/xlink">
<g id="graph0" class="graph" transform="scale(1 1) rotate(0) translate(4 372)">
<title>scram::core::Terminal&lt; T &gt;</title>
<polygon fill="white" stroke="none" points="-4,4 -4,-372 308.5,-372 308.5,4 -4,4"/>
<!-- Node1 -->
<g id="node1" class="node"><title>Node1</title>
<polygon fill="#bfbfbf" stroke="black" points="82.5,-0.5 82.5,-68.5 218.5,-68.5 218.5,-0.5 82.5,-0.5"/>
<text text-anchor="middle" x="150.5" y="-56.5" font-family="Helvetica,sans-Serif" font-size="10.00">scram::core::Terminal&lt; T &gt;</text>
<polyline fill="none" stroke="black" points="82.5,-49.5 218.5,-49.5 "/>
<text text-anchor="middle" x="150.5" y="-37.5" font-family="Helvetica,sans-Serif" font-size="10.00"> </text>
<polyline fill="none" stroke="black" points="82.5,-30.5 218.5,-30.5 "/>
<text text-anchor="start" x="90.5" y="-18.5" font-family="Helvetica,sans-Serif" font-size="10.00">+ Terminal()</text>
<text text-anchor="start" x="90.5" y="-7.5" font-family="Helvetica,sans-Serif" font-size="10.00">+ value()</text>
</g>
<!-- Node2 -->
<g id="node2" class="node"><title>Node2</title>
<g id="a_node2"><a xlink:href="classscram_1_1core_1_1Vertex.xhtml" target="_top" xlink:title="Representation of a vertex in BDD graphs. ">
<polygon fill="white" stroke="black" points="0,-106.5 0,-218.5 127,-218.5 127,-106.5 0,-106.5"/>
<text text-anchor="middle" x="63.5" y="-206.5" font-family="Helvetica,sans-Serif" font-size="10.00">scram::core::Vertex&lt; T &gt;</text>
<polyline fill="none" stroke="black" points="0,-199.5 127,-199.5 "/>
<text text-anchor="middle" x="63.5" y="-187.5" font-family="Helvetica,sans-Serif" font-size="10.00"> </text>
<polyline fill="none" stroke="black" points="0,-180.5 127,-180.5 "/>
<text text-anchor="start" x="8" y="-168.5" font-family="Helvetica,sans-Serif" font-size="10.00">+ Vertex()</text>
<text text-anchor="start" x="8" y="-157.5" font-family="Helvetica,sans-Serif" font-size="10.00">+ id()</text>
<text text-anchor="start" x="8" y="-146.5" font-family="Helvetica,sans-Serif" font-size="10.00">+ terminal()</text>
<text text-anchor="start" x="8" y="-135.5" font-family="Helvetica,sans-Serif" font-size="10.00">+ use_count()</text>
<text text-anchor="start" x="8" y="-124.5" font-family="Helvetica,sans-Serif" font-size="10.00">+ unique()</text>
<text text-anchor="start" x="8" y="-113.5" font-family="Helvetica,sans-Serif" font-size="10.00"># ~Vertex()</text>
</a>
</g>
</g>
<!-- Node2&#45;&gt;Node1 -->
<g id="edge1" class="edge"><title>Node2&#45;&gt;Node1</title>
<path fill="none" stroke="midnightblue" d="M107.499,-97.7767C114.466,-87.6878 121.415,-77.6235 127.632,-68.6192"/>
<polygon fill="none" stroke="midnightblue" points="104.461,-96.0169 101.659,-106.235 110.222,-99.9943 104.461,-96.0169"/>
</g>
<!-- Node3 -->
<g id="node3" class="node"><title>Node3</title>
<polygon fill="white" stroke="#bfbfbf" points="28,-288.5 28,-345.5 99,-345.5 99,-288.5 28,-288.5"/>
<text text-anchor="middle" x="63.5" y="-333.5" font-family="Helvetica,sans-Serif" font-size="10.00">noncopyable</text>
<polyline fill="none" stroke="#bfbfbf" points="28,-326.5 99,-326.5 "/>
<text text-anchor="middle" x="63.5" y="-314.5" font-family="Helvetica,sans-Serif" font-size="10.00"> </text>
<polyline fill="none" stroke="#bfbfbf" points="28,-307.5 99,-307.5 "/>
<text text-anchor="middle" x="63.5" y="-295.5" font-family="Helvetica,sans-Serif" font-size="10.00"> </text>
</g>
<!-- Node3&#45;&gt;Node2 -->
<g id="edge2" class="edge"><title>Node3&#45;&gt;Node2</title>
<path fill="none" stroke="#8b1a1a" d="M63.5,-278.299C63.5,-260.334 63.5,-238.496 63.5,-218.709"/>
<polygon fill="none" stroke="#8b1a1a" points="60.0001,-278.383 63.5,-288.383 67.0001,-278.383 60.0001,-278.383"/>
</g>
<!-- Node4 -->
<g id="node4" class="node"><title>Node4</title>
<g id="a_node4"><a xlink:href="structscram_1_1core_1_1IntrusivePtrCast.xhtml" target="_top" xlink:title="{scram::core::IntrusivePtr\lCast\&lt; T, Terminal\&lt; T \&gt; \&gt;\n||+ Ptr()\l+ Ref()\l* Ptr()\l* Ref()\l}">
<polygon fill="white" stroke="black" points="145,-112 145,-213 274,-213 274,-112 145,-112"/>
<text text-anchor="start" x="153" y="-201" font-family="Helvetica,sans-Serif" font-size="10.00">scram::core::IntrusivePtr</text>
<text text-anchor="middle" x="209.5" y="-190" font-family="Helvetica,sans-Serif" font-size="10.00">Cast&lt; T, Terminal&lt; T &gt; &gt;</text>
<polyline fill="none" stroke="black" points="145,-183 274,-183 "/>
<text text-anchor="middle" x="209.5" y="-171" font-family="Helvetica,sans-Serif" font-size="10.00"> </text>
<polyline fill="none" stroke="black" points="145,-164 274,-164 "/>
<text text-anchor="start" x="153" y="-152" font-family="Helvetica,sans-Serif" font-size="10.00">+ Ptr()</text>
<text text-anchor="start" x="153" y="-141" font-family="Helvetica,sans-Serif" font-size="10.00">+ Ref()</text>
<text text-anchor="start" x="153" y="-130" font-family="Helvetica,sans-Serif" font-size="10.00">* Ptr()</text>
<text text-anchor="start" x="153" y="-119" font-family="Helvetica,sans-Serif" font-size="10.00">* Ref()</text>
</a>
</g>
</g>
<!-- Node4&#45;&gt;Node1 -->
<g id="edge3" class="edge"><title>Node4&#45;&gt;Node1</title>
<path fill="none" stroke="midnightblue" d="M181.855,-102.461C176.419,-90.8533 170.9,-79.0655 166.038,-68.6822"/>
<polygon fill="none" stroke="midnightblue" points="178.771,-104.129 186.182,-111.701 185.111,-101.161 178.771,-104.129"/>
</g>
<!-- Node5 -->
<g id="node5" class="node"><title>Node5</title>
<g id="a_node5"><a xlink:href="structscram_1_1core_1_1IntrusivePtrCast.xhtml" target="_top" xlink:title="Provides pointer and reference cast wrappers for intrusive Vertex pointers. ">
<polygon fill="white" stroke="black" points="147,-266.5 147,-367.5 272,-367.5 272,-266.5 147,-266.5"/>
<text text-anchor="start" x="155" y="-355.5" font-family="Helvetica,sans-Serif" font-size="10.00">scram::core::IntrusivePtr</text>
<text text-anchor="middle" x="209.5" y="-344.5" font-family="Helvetica,sans-Serif" font-size="10.00">Cast&lt; T, W &gt;</text>
<polyline fill="none" stroke="black" points="147,-337.5 272,-337.5 "/>
<text text-anchor="middle" x="209.5" y="-325.5" font-family="Helvetica,sans-Serif" font-size="10.00"> </text>
<polyline fill="none" stroke="black" points="147,-318.5 272,-318.5 "/>
<text text-anchor="start" x="155" y="-306.5" font-family="Helvetica,sans-Serif" font-size="10.00">+ Ptr()</text>
<text text-anchor="start" x="155" y="-295.5" font-family="Helvetica,sans-Serif" font-size="10.00">+ Ref()</text>
<text text-anchor="start" x="155" y="-284.5" font-family="Helvetica,sans-Serif" font-size="10.00">* Ptr()</text>
<text text-anchor="start" x="155" y="-273.5" font-family="Helvetica,sans-Serif" font-size="10.00">* Ref()</text>
</a>
</g>
</g>
<!-- Node5&#45;&gt;Node4 -->
<g id="edge4" class="edge"><title>Node5&#45;&gt;Node4</title>
<path fill="none" stroke="orange" d="M209.5,-256.243C209.5,-241.935 209.5,-226.812 209.5,-213.025"/>
<polygon fill="orange" stroke="orange" points="206,-256.488 209.5,-266.488 213,-256.488 206,-256.488"/>
<text text-anchor="middle" x="257" y="-240" font-family="Helvetica,sans-Serif" font-size="10.00"> &lt; T, Terminal&lt; T &gt; &gt;</text>
</g>
</g>
</svg>
