<?xml version="1.0" encoding="UTF-8" standalone="no"?>
<!DOCTYPE svg PUBLIC "-//W3C//DTD SVG 1.1//EN"
 "http://www.w3.org/Graphics/SVG/1.1/DTD/svg11.dtd">
<!-- Generated by graphviz version 2.38.0 (20140413.2041)
 -->
<!-- Title: scram::core::Gate::type Pages: 1 -->
<svg width="297pt" height="165pt"
 viewBox="0.00 0.00 297.00 165.00" xmlns="http://www.w3.org/2000/svg" xmlns:xlink="http://www.w3.org/1999/xlink">
<g id="graph0" class="graph" transform="scale(1 1) rotate(0) translate(4 161)">
<title>scram::core::Gate::type</title>
<polygon fill="white" stroke="none" points="-4,4 -4,-161 293,-161 293,4 -4,4"/>
<!-- Node1 -->
<g id="node1" class="node"><title>Node1</title>
<polygon fill="#bfbfbf" stroke="black" points="0,-68.5 0,-87.5 120,-87.5 120,-68.5 0,-68.5"/>
<text text-anchor="middle" x="60" y="-75.5" font-family="Helvetica,sans-Serif" font-size="10.00">scram::core::Gate::type</text>
</g>
<!-- Node2 -->
<g id="node2" class="node"><title>Node2</title>
<g id="a_node2"><a xlink:href="classscram_1_1core_1_1Bdd.xhtml#ab9548d4c5f9afaa96dc24e17e2a01a57" target="_top" xlink:title="Runs the Qualitative analysis with the representation of a PDAG as ROBDD. ">
<polygon fill="white" stroke="black" points="156,-137.5 156,-156.5 289,-156.5 289,-137.5 156,-137.5"/>
<text text-anchor="middle" x="222.5" y="-144.5" font-family="Helvetica,sans-Serif" font-size="10.00">scram::core::Bdd::Analyze</text>
</a>
</g>
</g>
<!-- Node1&#45;&gt;Node2 -->
<g id="edge1" class="edge"><title>Node1&#45;&gt;Node2</title>
<path fill="none" stroke="midnightblue" d="M85.4581,-92.6354C104.268,-103.452 131.159,-117.98 156,-128 164.785,-131.543 174.475,-134.728 183.648,-137.431"/>
<polygon fill="midnightblue" stroke="midnightblue" points="87.0674,-89.5222 76.6653,-87.5105 83.5425,-95.57 87.0674,-89.5222"/>
</g>
<!-- Node3 -->
<g id="node3" class="node"><title>Node3</title>
<g id="a_node3"><a xlink:href="classscram_1_1core_1_1Zbdd.xhtml#ac90d12f0c653c679d22109124fa6344c" target="_top" xlink:title="Find or adds a ZBDD SetNode vertex using information from gates. ">
<polygon fill="white" stroke="black" points="171.5,-88 171.5,-118 273.5,-118 273.5,-88 171.5,-88"/>
<text text-anchor="start" x="179.5" y="-106" font-family="Helvetica,sans-Serif" font-size="10.00">scram::core::Zbdd::</text>
<text text-anchor="middle" x="222.5" y="-95" font-family="Helvetica,sans-Serif" font-size="10.00">FindOrAddVertex</text>
</a>
</g>
</g>
<!-- Node1&#45;&gt;Node3 -->
<g id="edge2" class="edge"><title>Node1&#45;&gt;Node3</title>
<path fill="none" stroke="midnightblue" d="M130.271,-88.7899C144.095,-90.9431 158.361,-93.1652 171.387,-95.1943"/>
<polygon fill="midnightblue" stroke="midnightblue" points="130.728,-85.3189 120.308,-87.238 129.65,-92.2355 130.728,-85.3189"/>
</g>
<!-- Node4 -->
<g id="node4" class="node"><title>Node4</title>
<g id="a_node4"><a xlink:href="classscram_1_1core_1_1Preprocessor_1_1GateSet.xhtml#ae00239084858979e096032c4cf2f05b9" target="_top" xlink:title="Inserts a gate into the set if it is semantically unique. ">
<polygon fill="white" stroke="black" points="156.5,-39 156.5,-69 288.5,-69 288.5,-39 156.5,-39"/>
<text text-anchor="start" x="164.5" y="-57" font-family="Helvetica,sans-Serif" font-size="10.00">scram::core::Preprocessor</text>
<text text-anchor="middle" x="222.5" y="-46" font-family="Helvetica,sans-Serif" font-size="10.00">::GateSet::insert</text>
</a>
</g>
</g>
<!-- Node1&#45;&gt;Node4 -->
<g id="edge3" class="edge"><title>Node1&#45;&gt;Node4</title>
<path fill="none" stroke="midnightblue" d="M130.383,-67.625C139.053,-66.3285 147.896,-65.0061 156.497,-63.7201"/>
<polygon fill="midnightblue" stroke="midnightblue" points="129.681,-64.191 120.308,-69.1315 130.716,-71.114 129.681,-64.191"/>
</g>
<!-- Node5 -->
<g id="node5" class="node"><title>Node5</title>
<g id="a_node5"><a xlink:href="classscram_1_1core_1_1Zbdd.xhtml#af92e04ed908364e0177ce444d7b72712" target="_top" xlink:title="The common constructor to initialize member variables. ">
<polygon fill="white" stroke="black" points="160.5,-0.5 160.5,-19.5 284.5,-19.5 284.5,-0.5 160.5,-0.5"/>
<text text-anchor="middle" x="222.5" y="-7.5" font-family="Helvetica,sans-Serif" font-size="10.00">scram::core::Zbdd::Zbdd</text>
</a>
</g>
</g>
<!-- Node1&#45;&gt;Node5 -->
<g id="edge4" class="edge"><title>Node1&#45;&gt;Node5</title>
<path fill="none" stroke="midnightblue" d="M86.5916,-63.5583C105.403,-53.3191 131.798,-39.7257 156,-30 165.598,-26.143 176.237,-22.5976 186.102,-19.5976"/>
<polygon fill="midnightblue" stroke="midnightblue" points="84.8243,-60.5359 77.7535,-68.426 88.2014,-66.6674 84.8243,-60.5359"/>
</g>
</g>
</svg>
