<?xml version="1.0" encoding="UTF-8" standalone="no"?>
<!DOCTYPE svg PUBLIC "-//W3C//DTD SVG 1.1//EN"
 "http://www.w3.org/Graphics/SVG/1.1/DTD/svg11.dtd">
<!-- Generated by graphviz version 2.38.0 (20140413.2041)
 -->
<!-- Title: scram::core::Preprocessor::AssignTiming Pages: 1 -->
<!--zoomable 277 -->
<svg id="main" version="1.1" xmlns="http://www.w3.org/2000/svg" xmlns:xlink="http://www.w3.org/1999/xlink" xml:space="preserve" onload="init(evt)">
<style type="text/css"><![CDATA[
.edge:hover path { stroke: red; }
.edge:hover polygon { stroke: red; fill: red; }
]]></style>
<script type="text/javascript"><![CDATA[
var edges = document.getElementsByTagName('g');
if (edges && edges.length) {
  for (var i=0;i<edges.length;i++) {
    if (edges[i].id.substr(0,4)=='edge') {
      edges[i].setAttribute('class','edge');
    }
  }
}
]]></script>
        <defs>
                <circle id="rim" cx="0" cy="0" r="7"/>
                <circle id="rim2" cx="0" cy="0" r="3.5"/>
                <g id="zoomPlus">
                        <use xlink:href="#rim" fill="#404040">
                                <set attributeName="fill" to="#808080" begin="zoomplus.mouseover" end="zoomplus.mouseout"/>
                        </use>
                        <path d="M-4,0h8M0,-4v8" fill="none" stroke="white" stroke-width="1.5" pointer-events="none"/>
                </g>
                <g id="zoomMin">
                        <use xlink:href="#rim" fill="#404040">
                                <set attributeName="fill" to="#808080" begin="zoomminus.mouseover" end="zoomminus.mouseout"/>
                        </use>
                        <path d="M-4,0h8" fill="none" stroke="white" stroke-width="1.5" pointer-events="none"/>
                </g>
                <g id="dirArrow">
                        <path fill="none" stroke="white" stroke-width="1.5" d="M0,-3.0v7 M-2.5,-0.5L0,-3.0L2.5,-0.5"/>
                </g>
               <g id="resetDef">
                       <use xlink:href="#rim2" fill="#404040">
                               <set attributeName="fill" to="#808080" begin="reset.mouseover" end="reset.mouseout"/>
                       </use>
               </g>
        </defs>

<script type="text/javascript">
var viewWidth = 1218;
var viewHeight = 277;
var sectionId = 'dynsection-29';
</script>
<script xlink:href="svgpan.js"/>
<svg id="graph" class="graph">
<g id="viewport">
<title>scram::core::Preprocessor::AssignTiming</title>
<polygon fill="white" stroke="none" points="-4,4 -4,-272.5 1214,-272.5 1214,4 -4,4"/>
<!-- Node1 -->
<g id="node1" class="node"><title>Node1</title>
<polygon fill="#bfbfbf" stroke="black" points="0,-42 0,-72 132,-72 132,-42 0,-42"/>
<text text-anchor="start" x="8" y="-60" font-family="Helvetica,sans-Serif" font-size="10.00">scram::core::Preprocessor</text>
<text text-anchor="middle" x="66" y="-49" font-family="Helvetica,sans-Serif" font-size="10.00">::AssignTiming</text>
</g>
<!-- Node2 -->
<g id="node2" class="node"><title>Node2</title>
<g id="a_node2"><a xlink:href="classscram_1_1core_1_1Preprocessor.xhtml#ae12f3096132d7f6e9daa779724255f7e" target="_top" xlink:title="The Shannon decomposition for common nodes in the PDAG. ">
<polygon fill="white" stroke="black" points="168,-98 168,-128 311,-128 311,-98 168,-98"/>
<text text-anchor="start" x="176" y="-116" font-family="Helvetica,sans-Serif" font-size="10.00">scram::core::Preprocessor</text>
<text text-anchor="middle" x="239.5" y="-105" font-family="Helvetica,sans-Serif" font-size="10.00">::DecomposeCommonNodes</text>
</a>
</g>
</g>
<!-- Node1&#45;&gt;Node2 -->
<g id="edge1" class="edge"><title>Node1&#45;&gt;Node2</title>
<path fill="none" stroke="midnightblue" d="M122.731,-75.1977C145.264,-82.5557 170.963,-90.9471 192.414,-97.9516"/>
<polygon fill="midnightblue" stroke="midnightblue" points="123.551,-71.7839 112.959,-72.007 121.378,-78.4382 123.551,-71.7839"/>
</g>
<!-- Node4 -->
<g id="node4" class="node"><title>Node4</title>
<g id="a_node4"><a xlink:href="classscram_1_1core_1_1Preprocessor.xhtml#a5ee92284aef510ce01a71c962d50f51c" target="_top" xlink:title="Runs the graph preprocessing. ">
<polygon fill="white" stroke="black" points="892.5,-99 892.5,-129 1024.5,-129 1024.5,-99 892.5,-99"/>
<text text-anchor="start" x="900.5" y="-117" font-family="Helvetica,sans-Serif" font-size="10.00">scram::core::Preprocessor</text>
<text text-anchor="middle" x="958.5" y="-106" font-family="Helvetica,sans-Serif" font-size="10.00">::operator()</text>
</a>
</g>
</g>
<!-- Node1&#45;&gt;Node4 -->
<g id="edge21" class="edge"><title>Node1&#45;&gt;Node4</title>
<path fill="none" stroke="midnightblue" d="M132.872,-39.5241C201.907,-22.7674 313.779,-0 412,-0 412,-0 412,-0 582,-0 716.555,-0 866.989,-67.8514 928.716,-98.8617"/>
<polygon fill="midnightblue" stroke="midnightblue" points="131.879,-36.1638 123.004,-41.9494 133.55,-42.9615 131.879,-36.1638"/>
</g>
<!-- Node12 -->
<g id="node12" class="node"><title>Node12</title>
<g id="a_node12"><a xlink:href="classscram_1_1core_1_1Preprocessor.xhtml#aa9856913eee7b854abfbe8d8330566d3" target="_top" xlink:title="Traverses the PDAG to detect modules. ">
<polygon fill="white" stroke="black" points="173.5,-42 173.5,-72 305.5,-72 305.5,-42 173.5,-42"/>
<text text-anchor="start" x="181.5" y="-60" font-family="Helvetica,sans-Serif" font-size="10.00">scram::core::Preprocessor</text>
<text text-anchor="middle" x="239.5" y="-49" font-family="Helvetica,sans-Serif" font-size="10.00">::DetectModules</text>
</a>
</g>
</g>
<!-- Node1&#45;&gt;Node12 -->
<g id="edge18" class="edge"><title>Node1&#45;&gt;Node12</title>
<path fill="none" stroke="midnightblue" d="M142.518,-57C152.799,-57 163.279,-57 173.356,-57"/>
<polygon fill="midnightblue" stroke="midnightblue" points="142.326,-53.5001 132.326,-57 142.326,-60.5001 142.326,-53.5001"/>
</g>
<!-- Node3 -->
<g id="node3" class="node"><title>Node3</title>
<g id="a_node3"><a xlink:href="classscram_1_1core_1_1Preprocessor.xhtml#a9d5f89471499508eb9e6c01ea43e0f15" target="_top" xlink:title="Preprocessing phase of the original structure of the graph. ">
<polygon fill="white" stroke="black" points="347,-105 347,-135 479,-135 479,-105 347,-105"/>
<text text-anchor="start" x="355" y="-123" font-family="Helvetica,sans-Serif" font-size="10.00">scram::core::Preprocessor</text>
<text text-anchor="middle" x="413" y="-112" font-family="Helvetica,sans-Serif" font-size="10.00">::RunPhaseTwo</text>
</a>
</g>
</g>
<!-- Node2&#45;&gt;Node3 -->
<g id="edge2" class="edge"><title>Node2&#45;&gt;Node3</title>
<path fill="none" stroke="midnightblue" d="M321.283,-116.297C329.877,-116.648 338.538,-117.002 346.919,-117.344"/>
<polygon fill="midnightblue" stroke="midnightblue" points="321.38,-112.798 311.246,-115.888 321.095,-119.793 321.38,-112.798"/>
</g>
<!-- Node3&#45;&gt;Node4 -->
<g id="edge3" class="edge"><title>Node3&#45;&gt;Node4</title>
<path fill="none" stroke="midnightblue" d="M474.383,-102.526C487.652,-99.3974 501.711,-96.6202 515,-95 648.384,-78.7375 805.858,-93.5305 892.38,-104.559"/>
<polygon fill="midnightblue" stroke="midnightblue" points="473.292,-99.1899 464.415,-104.974 474.961,-105.988 473.292,-99.1899"/>
</g>
<!-- Node6 -->
<g id="node6" class="node"><title>Node6</title>
<g id="a_node6"><a xlink:href="classscram_1_1core_1_1Preprocessor.xhtml#a2b6705e815fa3d02119c405b483766d5" target="_top" xlink:title="Container of unique gates by semantics. ">
<polygon fill="white" stroke="black" points="683,-241.5 683,-260.5 839,-260.5 839,-241.5 683,-241.5"/>
<text text-anchor="middle" x="761" y="-248.5" font-family="Helvetica,sans-Serif" font-size="10.00">scram::core::Preprocessor::Run</text>
</a>
</g>
</g>
<!-- Node3&#45;&gt;Node6 -->
<g id="edge5" class="edge"><title>Node3&#45;&gt;Node6</title>
<path fill="none" stroke="midnightblue" d="M438.309,-141.824C457.761,-158.186 486.424,-179.924 515,-193 570.049,-218.19 637.244,-233.1 687.331,-241.481"/>
<polygon fill="midnightblue" stroke="midnightblue" points="440.433,-139.035 430.563,-135.183 435.876,-144.349 440.433,-139.035"/>
</g>
<!-- Node9 -->
<g id="node9" class="node"><title>Node9</title>
<g id="a_node9"><a xlink:href="classscram_1_1core_1_1Preprocessor.xhtml#a3569bbcd5e863c750cdfa69115399600" target="_top" xlink:title="The final phase that cleans up the graph, and puts the structure of the graph ready for analysis...">
<polygon fill="white" stroke="black" points="695,-192 695,-222 827,-222 827,-192 695,-192"/>
<text text-anchor="start" x="703" y="-210" font-family="Helvetica,sans-Serif" font-size="10.00">scram::core::Preprocessor</text>
<text text-anchor="middle" x="761" y="-199" font-family="Helvetica,sans-Serif" font-size="10.00">::RunPhaseFive</text>
</a>
</g>
</g>
<!-- Node3&#45;&gt;Node9 -->
<g id="edge9" class="edge"><title>Node3&#45;&gt;Node9</title>
<path fill="none" stroke="midnightblue" d="M453.017,-139.581C471.432,-148.146 493.945,-157.664 515,-164 574.652,-181.95 644.868,-193.324 694.803,-199.834"/>
<polygon fill="midnightblue" stroke="midnightblue" points="454.326,-136.328 443.79,-135.211 451.33,-142.654 454.326,-136.328"/>
</g>
<!-- Node10 -->
<g id="node10" class="node"><title>Node10</title>
<g id="a_node10"><a xlink:href="classscram_1_1core_1_1Preprocessor.xhtml#a5c224938dfba861f061525658bd7b156" target="_top" xlink:title="Propagation of complements. ">
<polygon fill="white" stroke="black" points="695,-143 695,-173 827,-173 827,-143 695,-143"/>
<text text-anchor="start" x="703" y="-161" font-family="Helvetica,sans-Serif" font-size="10.00">scram::core::Preprocessor</text>
<text text-anchor="middle" x="761" y="-150" font-family="Helvetica,sans-Serif" font-size="10.00">::RunPhaseFour</text>
</a>
</g>
</g>
<!-- Node3&#45;&gt;Node10 -->
<g id="edge12" class="edge"><title>Node3&#45;&gt;Node10</title>
<path fill="none" stroke="midnightblue" d="M479.288,-137.285C491.104,-139.906 503.367,-142.299 515,-144 575.599,-152.861 645.393,-156.185 694.948,-157.396"/>
<polygon fill="midnightblue" stroke="midnightblue" points="480.02,-133.862 469.491,-135.04 478.456,-140.686 480.02,-133.862"/>
</g>
<!-- Node11 -->
<g id="node11" class="node"><title>Node11</title>
<g id="a_node11"><a xlink:href="classscram_1_1core_1_1Preprocessor.xhtml#abf2c66723172a85b2ae87ef2a034cd1f" target="_top" xlink:title="Application of gate normalization. ">
<polygon fill="white" stroke="black" points="515,-105 515,-135 647,-135 647,-105 515,-105"/>
<text text-anchor="start" x="523" y="-123" font-family="Helvetica,sans-Serif" font-size="10.00">scram::core::Preprocessor</text>
<text text-anchor="middle" x="581" y="-112" font-family="Helvetica,sans-Serif" font-size="10.00">::RunPhaseThree</text>
</a>
</g>
</g>
<!-- Node3&#45;&gt;Node11 -->
<g id="edge15" class="edge"><title>Node3&#45;&gt;Node11</title>
<path fill="none" stroke="midnightblue" d="M489.393,-120C497.869,-120 506.452,-120 514.784,-120"/>
<polygon fill="midnightblue" stroke="midnightblue" points="489.131,-116.5 479.131,-120 489.131,-123.5 489.131,-116.5"/>
</g>
<!-- Node5 -->
<g id="node5" class="node"><title>Node5</title>
<g id="a_node5"><a xlink:href="classscram_1_1core_1_1Preprocessor_1_1GateSet.xhtml#ae00239084858979e096032c4cf2f05b9" target="_top" xlink:title="Inserts a gate into the set if it is semantically unique. ">
<polygon fill="white" stroke="black" points="1078,-99 1078,-129 1210,-129 1210,-99 1078,-99"/>
<text text-anchor="start" x="1086" y="-117" font-family="Helvetica,sans-Serif" font-size="10.00">scram::core::Preprocessor</text>
<text text-anchor="middle" x="1144" y="-106" font-family="Helvetica,sans-Serif" font-size="10.00">::GateSet::insert</text>
</a>
</g>
</g>
<!-- Node4&#45;&gt;Node5 -->
<g id="edge4" class="edge"><title>Node4&#45;&gt;Node5</title>
<path fill="none" stroke="midnightblue" d="M1034.99,-114C1049.26,-114 1064.08,-114 1078,-114"/>
<polygon fill="midnightblue" stroke="midnightblue" points="1034.71,-110.5 1024.71,-114 1034.71,-117.5 1034.71,-110.5"/>
</g>
<!-- Node6&#45;&gt;Node4 -->
<g id="edge7" class="edge"><title>Node6&#45;&gt;Node4</title>
<path fill="none" stroke="midnightblue" d="M827.775,-237.479C831.716,-235.594 835.497,-233.447 839,-231 862.045,-214.904 855.747,-199.48 875,-179 893.11,-159.736 917.172,-141.441 934.633,-129.198"/>
<polygon fill="midnightblue" stroke="midnightblue" points="826.225,-234.333 818.347,-241.417 828.923,-240.792 826.225,-234.333"/>
</g>
<!-- Node7 -->
<g id="node7" class="node"><title>Node7</title>
<g id="a_node7"><a xlink:href="classscram_1_1core_1_1Preprocessor.xhtml#a9caf4677a024ed935d831210b57b8ed9" target="_top" xlink:title="Gathers nodes in the sub&#45;graph. ">
<polygon fill="white" stroke="black" points="892.5,-238 892.5,-268 1024.5,-268 1024.5,-238 892.5,-238"/>
<text text-anchor="start" x="900.5" y="-256" font-family="Helvetica,sans-Serif" font-size="10.00">scram::core::Preprocessor</text>
<text text-anchor="middle" x="958.5" y="-245" font-family="Helvetica,sans-Serif" font-size="10.00">::GatherNodes</text>
</a>
</g>
</g>
<!-- Node6&#45;&gt;Node7 -->
<g id="edge6" class="edge"><title>Node6&#45;&gt;Node7</title>
<path fill="none" stroke="midnightblue" d="M849.674,-251.897C864.062,-252.044 878.744,-252.194 892.457,-252.335"/>
<polygon fill="midnightblue" stroke="midnightblue" points="849.302,-248.393 839.267,-251.79 849.23,-255.393 849.302,-248.393"/>
</g>
<!-- Node8 -->
<g id="node8" class="node"><title>Node8</title>
<g id="a_node8"><a xlink:href="classscram_1_1core_1_1CustomPreprocessor_3_01Zbdd_01_4.xhtml#a5185075f852c647c7aa4313d23420ee5" target="_top" xlink:title="Performs preprocessing for analyses with Zero&#45;Suppressed Binary Decision Diagrams. ">
<polygon fill="white" stroke="black" points="875,-189 875,-219 1042,-219 1042,-189 875,-189"/>
<text text-anchor="start" x="883" y="-207" font-family="Helvetica,sans-Serif" font-size="10.00">scram::core::CustomPreprocessor</text>
<text text-anchor="middle" x="958.5" y="-196" font-family="Helvetica,sans-Serif" font-size="10.00">&lt; Zbdd &gt;::Run</text>
</a>
</g>
</g>
<!-- Node6&#45;&gt;Node8 -->
<g id="edge8" class="edge"><title>Node6&#45;&gt;Node8</title>
<path fill="none" stroke="midnightblue" d="M811.33,-239.141C836.69,-233.044 867.866,-225.549 894.903,-219.049"/>
<polygon fill="midnightblue" stroke="midnightblue" points="810.467,-235.748 801.562,-241.489 812.103,-242.554 810.467,-235.748"/>
</g>
<!-- Node9&#45;&gt;Node4 -->
<g id="edge10" class="edge"><title>Node9&#45;&gt;Node4</title>
<path fill="none" stroke="midnightblue" d="M823.228,-188.412C828.617,-186.389 833.941,-184.244 839,-182 873.692,-166.613 911.308,-143.898 934.642,-129.024"/>
<polygon fill="midnightblue" stroke="midnightblue" points="821.724,-185.234 813.504,-191.918 824.098,-191.819 821.724,-185.234"/>
</g>
<!-- Node9&#45;&gt;Node8 -->
<g id="edge11" class="edge"><title>Node9&#45;&gt;Node8</title>
<path fill="none" stroke="midnightblue" d="M837.313,-205.844C849.636,-205.655 862.462,-205.458 874.949,-205.267"/>
<polygon fill="midnightblue" stroke="midnightblue" points="837.044,-202.348 827.099,-206.001 837.151,-209.347 837.044,-202.348"/>
</g>
<!-- Node10&#45;&gt;Node4 -->
<g id="edge13" class="edge"><title>Node10&#45;&gt;Node4</title>
<path fill="none" stroke="midnightblue" d="M837.088,-141.1C855.307,-137 874.636,-132.65 892.353,-128.662"/>
<polygon fill="midnightblue" stroke="midnightblue" points="836.086,-137.738 827.099,-143.349 837.623,-144.567 836.086,-137.738"/>
</g>
<!-- Node10&#45;&gt;Node8 -->
<g id="edge14" class="edge"><title>Node10&#45;&gt;Node8</title>
<path fill="none" stroke="midnightblue" d="M835.835,-175.373C854.871,-179.852 875.197,-184.635 893.676,-188.983"/>
<polygon fill="midnightblue" stroke="midnightblue" points="836.55,-171.946 826.014,-173.062 834.947,-178.76 836.55,-171.946"/>
</g>
<!-- Node11&#45;&gt;Node4 -->
<g id="edge16" class="edge"><title>Node11&#45;&gt;Node4</title>
<path fill="none" stroke="midnightblue" d="M657.74,-118.79C726.516,-117.691 826.901,-116.087 892.214,-115.043"/>
<polygon fill="midnightblue" stroke="midnightblue" points="657.35,-115.295 647.407,-118.955 657.462,-122.295 657.35,-115.295"/>
</g>
<!-- Node11&#45;&gt;Node6 -->
<g id="edge17" class="edge"><title>Node11&#45;&gt;Node6</title>
<path fill="none" stroke="midnightblue" d="M597.108,-143.456C614.695,-168.853 646.092,-208.709 683,-231 690.212,-235.356 698.359,-238.771 706.585,-241.447"/>
<polygon fill="midnightblue" stroke="midnightblue" points="599.977,-141.451 591.476,-135.128 594.179,-145.372 599.977,-141.451"/>
</g>
<!-- Node12&#45;&gt;Node3 -->
<g id="edge20" class="edge"><title>Node12&#45;&gt;Node3</title>
<path fill="none" stroke="midnightblue" d="M291.065,-75.575C316.52,-84.9256 346.978,-96.1145 370.96,-104.924"/>
<polygon fill="midnightblue" stroke="midnightblue" points="292.172,-72.253 281.579,-72.0901 289.758,-78.8237 292.172,-72.253"/>
</g>
<!-- Node12&#45;&gt;Node4 -->
<g id="edge19" class="edge"><title>Node12&#45;&gt;Node4</title>
<path fill="none" stroke="midnightblue" d="M315.544,-55.88C429.348,-55.2236 652.119,-58.0201 839,-85 861.011,-88.1777 884.901,-93.6273 905.426,-98.9506"/>
<polygon fill="midnightblue" stroke="midnightblue" points="315.517,-52.38 305.541,-55.9483 315.565,-59.3799 315.517,-52.38"/>
</g>
</g>
</svg>
        <g id="navigator" transform="translate(0 0)" fill="#404254">
                <rect fill="#f2f5e9" fill-opacity="0.5" stroke="#606060" stroke-width=".5" x="0" y="0" width="60" height="60"/>
                <use id="zoomplus" xlink:href="#zoomPlus" x="17" y="9" onmousedown="handleZoom(evt,'in')"/>
                <use id="zoomminus" xlink:href="#zoomMin" x="42" y="9" onmousedown="handleZoom(evt,'out')"/>
                <use id="reset" xlink:href="#resetDef" x="30" y="36" onmousedown="handleReset()"/>
                <g id="arrowUp" xlink:href="#dirArrow" transform="translate(30 24)" onmousedown="handlePan(0,-1)">
                  <use xlink:href="#rim" fill="#404040">
                        <set attributeName="fill" to="#808080" begin="arrowUp.mouseover" end="arrowUp.mouseout"/>
                  </use>
                  <path fill="none" stroke="white" stroke-width="1.5" d="M0,-3.0v7 M-2.5,-0.5L0,-3.0L2.5,-0.5"/>
                </g>
                <g id="arrowRight" xlink:href="#dirArrow" transform="rotate(90) translate(36 -43)" onmousedown="handlePan(1,0)">
                  <use xlink:href="#rim" fill="#404040">
                        <set attributeName="fill" to="#808080" begin="arrowRight.mouseover" end="arrowRight.mouseout"/>
                  </use>
                  <path fill="none" stroke="white" stroke-width="1.5" d="M0,-3.0v7 M-2.5,-0.5L0,-3.0L2.5,-0.5"/>
                </g>
                <g id="arrowDown" xlink:href="#dirArrow" transform="rotate(180) translate(-30 -48)" onmousedown="handlePan(0,1)">
                  <use xlink:href="#rim" fill="#404040">
                        <set attributeName="fill" to="#808080" begin="arrowDown.mouseover" end="arrowDown.mouseout"/>
                  </use>
                  <path fill="none" stroke="white" stroke-width="1.5" d="M0,-3.0v7 M-2.5,-0.5L0,-3.0L2.5,-0.5"/>
                </g>
                <g id="arrowLeft" xlink:href="#dirArrow" transform="rotate(270) translate(-36 17)" onmousedown="handlePan(-1,0)">
                  <use xlink:href="#rim" fill="#404040">
                        <set attributeName="fill" to="#808080" begin="arrowLeft.mouseover" end="arrowLeft.mouseout"/>
                  </use>
                  <path fill="none" stroke="white" stroke-width="1.5" d="M0,-3.0v7 M-2.5,-0.5L0,-3.0L2.5,-0.5"/>
                </g>
        </g>
        <svg viewBox="0 0 15 15" width="100%" height="30px" preserveAspectRatio="xMaxYMin meet">
         <g id="arrow_out" transform="scale(0.3 0.3)">
          <a xlink:href="classscram_1_1core_1_1Preprocessor_ac83a0afe1f22761907f2a017abd96268_icgraph_org.svg" target="_base">
           <rect id="button" ry="5" rx="5" y="6" x="6" height="38" width="38"
                fill="#f2f5e9" fill-opacity="0.5" stroke="#606060" stroke-width="1.0"/>
           <path id="arrow"
             d="M 11.500037,31.436501 C 11.940474,20.09759 22.043105,11.32322 32.158766,21.979434 L 37.068811,17.246167 C 37.068811,17.246167 37.088388,32 37.088388,32 L 22.160133,31.978069 C 22.160133,31.978069 26.997745,27.140456 26.997745,27.140456 C 18.528582,18.264221 13.291696,25.230495 11.500037,31.436501 z"
             style="fill:#404040;"/>
          </a>
         </g>
        </svg>
</svg>
