<?xml version="1.0" encoding="UTF-8" standalone="no"?>
<!DOCTYPE svg PUBLIC "-//W3C//DTD SVG 1.1//EN"
 "http://www.w3.org/Graphics/SVG/1.1/DTD/svg11.dtd">
<!-- Generated by graphviz version 2.38.0 (20140413.2041)
 -->
<!-- Title: scram::core::ImportanceAnalyzerBase Pages: 1 -->
<svg width="348pt" height="574pt"
 viewBox="0.00 0.00 348.00 574.00" xmlns="http://www.w3.org/2000/svg" xmlns:xlink="http://www.w3.org/1999/xlink">
<g id="graph0" class="graph" transform="scale(1 1) rotate(0) translate(4 570)">
<title>scram::core::ImportanceAnalyzerBase</title>
<polygon fill="white" stroke="none" points="-4,4 -4,-570 344,-570 344,4 -4,4"/>
<!-- Node1 -->
<g id="node1" class="node"><title>Node1</title>
<polygon fill="#bfbfbf" stroke="black" points="77.5,-105.5 77.5,-184.5 261.5,-184.5 261.5,-105.5 77.5,-105.5"/>
<text text-anchor="middle" x="169.5" y="-172.5" font-family="Helvetica,sans-Serif" font-size="10.00">scram::core::ImportanceAnalyzerBase</text>
<polyline fill="none" stroke="black" points="77.5,-165.5 261.5,-165.5 "/>
<text text-anchor="middle" x="169.5" y="-153.5" font-family="Helvetica,sans-Serif" font-size="10.00"> </text>
<polyline fill="none" stroke="black" points="77.5,-146.5 261.5,-146.5 "/>
<text text-anchor="start" x="85.5" y="-134.5" font-family="Helvetica,sans-Serif" font-size="10.00">+ ImportanceAnalyzerBase()</text>
<text text-anchor="start" x="85.5" y="-123.5" font-family="Helvetica,sans-Serif" font-size="10.00"># ~ImportanceAnalyzerBase()</text>
<text text-anchor="start" x="85.5" y="-112.5" font-family="Helvetica,sans-Serif" font-size="10.00"># prob_analyzer()</text>
</g>
<!-- Node5 -->
<g id="node5" class="node"><title>Node5</title>
<g id="a_node5"><a xlink:href="classscram_1_1core_1_1ImportanceAnalyzer.xhtml" target="_top" xlink:title="Analyzer of importance factors with the help from probability analyzers. ">
<polygon fill="white" stroke="black" points="0,-0.5 0,-68.5 161,-68.5 161,-0.5 0,-0.5"/>
<text text-anchor="start" x="8" y="-56.5" font-family="Helvetica,sans-Serif" font-size="10.00">scram::core::ImportanceAnalyzer</text>
<text text-anchor="middle" x="80.5" y="-45.5" font-family="Helvetica,sans-Serif" font-size="10.00">&lt; Calculator &gt;</text>
<polyline fill="none" stroke="black" points="0,-38.5 161,-38.5 "/>
<text text-anchor="middle" x="80.5" y="-26.5" font-family="Helvetica,sans-Serif" font-size="10.00"> </text>
<polyline fill="none" stroke="black" points="0,-19.5 161,-19.5 "/>
<text text-anchor="start" x="8" y="-7.5" font-family="Helvetica,sans-Serif" font-size="10.00">+ ImportanceAnalyzer()</text>
</a>
</g>
</g>
<!-- Node1&#45;&gt;Node5 -->
<g id="edge4" class="edge"><title>Node1&#45;&gt;Node5</title>
<path fill="none" stroke="midnightblue" d="M131.508,-97.6836C123.47,-87.8846 115.142,-77.7326 107.605,-68.5439"/>
<polygon fill="none" stroke="midnightblue" points="128.823,-99.9295 137.871,-105.441 134.235,-95.4901 128.823,-99.9295"/>
</g>
<!-- Node6 -->
<g id="node6" class="node"><title>Node6</title>
<g id="a_node6"><a xlink:href="classscram_1_1core_1_1ImportanceAnalyzer_3_01Bdd_01_4.xhtml" target="_top" xlink:title="Specialization of importance analyzer with Binary Decision Diagrams. ">
<polygon fill="white" stroke="black" points="179,-0.5 179,-68.5 340,-68.5 340,-0.5 179,-0.5"/>
<text text-anchor="start" x="187" y="-56.5" font-family="Helvetica,sans-Serif" font-size="10.00">scram::core::ImportanceAnalyzer</text>
<text text-anchor="middle" x="259.5" y="-45.5" font-family="Helvetica,sans-Serif" font-size="10.00">&lt; Bdd &gt;</text>
<polyline fill="none" stroke="black" points="179,-38.5 340,-38.5 "/>
<text text-anchor="middle" x="259.5" y="-26.5" font-family="Helvetica,sans-Serif" font-size="10.00"> </text>
<polyline fill="none" stroke="black" points="179,-19.5 340,-19.5 "/>
<text text-anchor="start" x="187" y="-7.5" font-family="Helvetica,sans-Serif" font-size="10.00">+ ImportanceAnalyzer()</text>
</a>
</g>
</g>
<!-- Node1&#45;&gt;Node6 -->
<g id="edge5" class="edge"><title>Node1&#45;&gt;Node6</title>
<path fill="none" stroke="midnightblue" d="M207.919,-97.6836C216.047,-87.8846 224.468,-77.7326 232.09,-68.5439"/>
<polygon fill="none" stroke="midnightblue" points="205.175,-95.5102 201.484,-105.441 210.562,-99.9793 205.175,-95.5102"/>
</g>
<!-- Node2 -->
<g id="node2" class="node"><title>Node2</title>
<g id="a_node2"><a xlink:href="classscram_1_1core_1_1ImportanceAnalysis.xhtml" target="_top" xlink:title="Analysis of importance factors of risk model variables. ">
<polygon fill="white" stroke="black" points="89,-221.5 89,-311.5 250,-311.5 250,-221.5 89,-221.5"/>
<text text-anchor="middle" x="169.5" y="-299.5" font-family="Helvetica,sans-Serif" font-size="10.00">scram::core::ImportanceAnalysis</text>
<polyline fill="none" stroke="black" points="89,-292.5 250,-292.5 "/>
<text text-anchor="middle" x="169.5" y="-280.5" font-family="Helvetica,sans-Serif" font-size="10.00"> </text>
<polyline fill="none" stroke="black" points="89,-273.5 250,-273.5 "/>
<text text-anchor="start" x="97" y="-261.5" font-family="Helvetica,sans-Serif" font-size="10.00">+ ImportanceAnalysis()</text>
<text text-anchor="start" x="97" y="-250.5" font-family="Helvetica,sans-Serif" font-size="10.00">+ ~ImportanceAnalysis()</text>
<text text-anchor="start" x="97" y="-239.5" font-family="Helvetica,sans-Serif" font-size="10.00">+ Analyze()</text>
<text text-anchor="start" x="97" y="-228.5" font-family="Helvetica,sans-Serif" font-size="10.00">+ importance()</text>
</a>
</g>
</g>
<!-- Node2&#45;&gt;Node1 -->
<g id="edge1" class="edge"><title>Node2&#45;&gt;Node1</title>
<path fill="none" stroke="midnightblue" d="M169.5,-211.079C169.5,-202.234 169.5,-193.233 169.5,-184.858"/>
<polygon fill="none" stroke="midnightblue" points="166,-211.342 169.5,-221.342 173,-211.342 166,-211.342"/>
</g>
<!-- Node3 -->
<g id="node3" class="node"><title>Node3</title>
<g id="a_node3"><a xlink:href="classscram_1_1core_1_1Analysis.xhtml" target="_top" xlink:title="Base abstract class for all analysis with settings. ">
<polygon fill="white" stroke="black" points="113.5,-348.5 113.5,-471.5 225.5,-471.5 225.5,-348.5 113.5,-348.5"/>
<text text-anchor="middle" x="169.5" y="-459.5" font-family="Helvetica,sans-Serif" font-size="10.00">scram::core::Analysis</text>
<polyline fill="none" stroke="black" points="113.5,-452.5 225.5,-452.5 "/>
<text text-anchor="middle" x="169.5" y="-440.5" font-family="Helvetica,sans-Serif" font-size="10.00"> </text>
<polyline fill="none" stroke="black" points="113.5,-433.5 225.5,-433.5 "/>
<text text-anchor="start" x="121.5" y="-421.5" font-family="Helvetica,sans-Serif" font-size="10.00">+ Analysis()</text>
<text text-anchor="start" x="121.5" y="-410.5" font-family="Helvetica,sans-Serif" font-size="10.00">+ ~Analysis()</text>
<text text-anchor="start" x="121.5" y="-399.5" font-family="Helvetica,sans-Serif" font-size="10.00">+ settings()</text>
<text text-anchor="start" x="121.5" y="-388.5" font-family="Helvetica,sans-Serif" font-size="10.00">+ warnings()</text>
<text text-anchor="start" x="121.5" y="-377.5" font-family="Helvetica,sans-Serif" font-size="10.00">+ analysis_time()</text>
<text text-anchor="start" x="121.5" y="-366.5" font-family="Helvetica,sans-Serif" font-size="10.00"># AddWarning()</text>
<text text-anchor="start" x="121.5" y="-355.5" font-family="Helvetica,sans-Serif" font-size="10.00"># AddAnalysisTime()</text>
</a>
</g>
</g>
<!-- Node3&#45;&gt;Node2 -->
<g id="edge2" class="edge"><title>Node3&#45;&gt;Node2</title>
<path fill="none" stroke="midnightblue" d="M169.5,-338.033C169.5,-329.028 169.5,-320.028 169.5,-311.617"/>
<polygon fill="none" stroke="midnightblue" points="166,-338.17 169.5,-348.17 173,-338.17 166,-338.17"/>
</g>
<!-- Node4 -->
<g id="node4" class="node"><title>Node4</title>
<polygon fill="white" stroke="#bfbfbf" points="134,-508.5 134,-565.5 205,-565.5 205,-508.5 134,-508.5"/>
<text text-anchor="middle" x="169.5" y="-553.5" font-family="Helvetica,sans-Serif" font-size="10.00">noncopyable</text>
<polyline fill="none" stroke="#bfbfbf" points="134,-546.5 205,-546.5 "/>
<text text-anchor="middle" x="169.5" y="-534.5" font-family="Helvetica,sans-Serif" font-size="10.00"> </text>
<polyline fill="none" stroke="#bfbfbf" points="134,-527.5 205,-527.5 "/>
<text text-anchor="middle" x="169.5" y="-515.5" font-family="Helvetica,sans-Serif" font-size="10.00"> </text>
</g>
<!-- Node4&#45;&gt;Node3 -->
<g id="edge3" class="edge"><title>Node4&#45;&gt;Node3</title>
<path fill="none" stroke="#8b1a1a" d="M169.5,-498.099C169.5,-489.739 169.5,-480.68 169.5,-471.672"/>
<polygon fill="none" stroke="#8b1a1a" points="166,-498.258 169.5,-508.258 173,-498.258 166,-498.258"/>
</g>
</g>
</svg>
