<?xml version="1.0" encoding="UTF-8" standalone="no"?>
<!DOCTYPE svg PUBLIC "-//W3C//DTD SVG 1.1//EN"
 "http://www.w3.org/Graphics/SVG/1.1/DTD/svg11.dtd">
<!-- Generated by graphviz version 2.38.0 (20140413.2041)
 -->
<!-- Title: scram::core::Preprocessor::ProcessMultipleDefinitions Pages: 1 -->
<svg width="490pt" height="274pt"
 viewBox="0.00 0.00 490.00 273.50" xmlns="http://www.w3.org/2000/svg" xmlns:xlink="http://www.w3.org/1999/xlink">
<g id="graph0" class="graph" transform="scale(1 1) rotate(0) translate(4 269.5)">
<title>scram::core::Preprocessor::ProcessMultipleDefinitions</title>
<polygon fill="white" stroke="none" points="-4,4 -4,-269.5 486,-269.5 486,4 -4,4"/>
<!-- Node1 -->
<g id="node1" class="node"><title>Node1</title>
<polygon fill="#bfbfbf" stroke="black" points="0,-112 0,-142 139,-142 139,-112 0,-112"/>
<text text-anchor="start" x="8" y="-130" font-family="Helvetica,sans-Serif" font-size="10.00">scram::core::Preprocessor</text>
<text text-anchor="middle" x="69.5" y="-119" font-family="Helvetica,sans-Serif" font-size="10.00">::ProcessMultipleDefinitions</text>
</g>
<!-- Node2 -->
<g id="node2" class="node"><title>Node2</title>
<g id="a_node2"><a xlink:href="classscram_1_1core_1_1Pdag.xhtml#aa883d0e58b9faab69186bec03574c633" target="_top" xlink:title="Clears marks from graph nodes. ">
<polygon fill="white" stroke="black" points="189.5,-235 189.5,-265 292.5,-265 292.5,-235 189.5,-235"/>
<text text-anchor="start" x="197.5" y="-253" font-family="Helvetica,sans-Serif" font-size="10.00">scram::core::Pdag::</text>
<text text-anchor="middle" x="241" y="-242" font-family="Helvetica,sans-Serif" font-size="10.00">Clear</text>
</a>
</g>
</g>
<!-- Node1&#45;&gt;Node2 -->
<g id="edge1" class="edge"><title>Node1&#45;&gt;Node2</title>
<path fill="none" stroke="midnightblue" d="M82.8628,-142.073C101.053,-163.394 137.005,-202.388 175,-226 177.573,-227.599 180.27,-229.116 183.04,-230.551"/>
<polygon fill="midnightblue" stroke="midnightblue" points="181.544,-233.716 192.077,-234.858 184.556,-227.397 181.544,-233.716"/>
</g>
<!-- Node3 -->
<g id="node3" class="node"><title>Node3</title>
<g id="a_node3"><a xlink:href="classscram_1_1core_1_1Preprocessor.xhtml#ae0bdf196274427420631bc20f95cb72a" target="_top" xlink:title="Traverses the PDAG to collect multiple definitions of gates. ">
<polygon fill="white" stroke="black" points="175,-186 175,-216 307,-216 307,-186 175,-186"/>
<text text-anchor="start" x="183" y="-204" font-family="Helvetica,sans-Serif" font-size="10.00">scram::core::Preprocessor</text>
<text text-anchor="middle" x="241" y="-193" font-family="Helvetica,sans-Serif" font-size="10.00">::DetectMultipleDefinitions</text>
</a>
</g>
</g>
<!-- Node1&#45;&gt;Node3 -->
<g id="edge2" class="edge"><title>Node1&#45;&gt;Node3</title>
<path fill="none" stroke="midnightblue" d="M100.345,-142.187C121.067,-152.507 149.436,-166.192 175,-177 179.164,-178.76 183.505,-180.521 187.883,-182.244"/>
<polygon fill="midnightblue" stroke="midnightblue" points="186.881,-185.608 197.47,-185.941 189.399,-179.077 186.881,-185.608"/>
</g>
<!-- Node4 -->
<g id="node4" class="node"><title>Node4</title>
<g id="a_node4"><a xlink:href="classscram_1_1core_1_1Pdag.xhtml#aa43a9026583f7a629fe0a3f17440f55b" target="_top" xlink:title="scram::core::Pdag::\lHasNullGates">
<polygon fill="white" stroke="black" points="189.5,-137 189.5,-167 292.5,-167 292.5,-137 189.5,-137"/>
<text text-anchor="start" x="197.5" y="-155" font-family="Helvetica,sans-Serif" font-size="10.00">scram::core::Pdag::</text>
<text text-anchor="middle" x="241" y="-144" font-family="Helvetica,sans-Serif" font-size="10.00">HasNullGates</text>
</a>
</g>
</g>
<!-- Node1&#45;&gt;Node4 -->
<g id="edge3" class="edge"><title>Node1&#45;&gt;Node4</title>
<path fill="none" stroke="midnightblue" d="M139.442,-137.168C152.605,-139.11 166.294,-141.129 179.18,-143.03"/>
<polygon fill="midnightblue" stroke="midnightblue" points="178.913,-146.528 189.317,-144.525 179.934,-139.603 178.913,-146.528"/>
</g>
<!-- Node5 -->
<g id="node5" class="node"><title>Node5</title>
<g id="a_node5"><a xlink:href="classscram_1_1core_1_1Pdag.xhtml#a1ec495a3595a7d088f1889f46eeb725d" target="_top" xlink:title="Removes gates of Null logic with a single argument (maybe constant). ">
<polygon fill="white" stroke="black" points="189.5,-88 189.5,-118 292.5,-118 292.5,-88 189.5,-88"/>
<text text-anchor="start" x="197.5" y="-106" font-family="Helvetica,sans-Serif" font-size="10.00">scram::core::Pdag::</text>
<text text-anchor="middle" x="241" y="-95" font-family="Helvetica,sans-Serif" font-size="10.00">RemoveNullGates</text>
</a>
</g>
</g>
<!-- Node1&#45;&gt;Node5 -->
<g id="edge4" class="edge"><title>Node1&#45;&gt;Node5</title>
<path fill="none" stroke="midnightblue" d="M139.442,-117.238C152.605,-115.375 166.294,-113.436 179.18,-111.612"/>
<polygon fill="midnightblue" stroke="midnightblue" points="179.906,-115.044 189.317,-110.176 178.925,-108.113 179.906,-115.044"/>
</g>
<!-- Node7 -->
<g id="node7" class="node"><title>Node7</title>
<g id="a_node7"><a xlink:href="classscram_1_1core_1_1Preprocessor.xhtml#a26434bec1bc5a496f80c9cbad1ed3a62" target="_top" xlink:title="Replaces one gate in the graph with another. ">
<polygon fill="white" stroke="black" points="175,-39 175,-69 307,-69 307,-39 175,-39"/>
<text text-anchor="start" x="183" y="-57" font-family="Helvetica,sans-Serif" font-size="10.00">scram::core::Preprocessor</text>
<text text-anchor="middle" x="241" y="-46" font-family="Helvetica,sans-Serif" font-size="10.00">::ReplaceGate</text>
</a>
</g>
</g>
<!-- Node1&#45;&gt;Node7 -->
<g id="edge7" class="edge"><title>Node1&#45;&gt;Node7</title>
<path fill="none" stroke="midnightblue" d="M101.822,-111.983C122.461,-102.244 150.163,-89.4679 175,-79 179.82,-76.9683 184.868,-74.9093 189.928,-72.8902"/>
<polygon fill="midnightblue" stroke="midnightblue" points="191.597,-75.9948 199.619,-69.0743 189.032,-69.4816 191.597,-75.9948"/>
</g>
<!-- Node8 -->
<g id="node8" class="node"><title>Node8</title>
<g id="a_node8"><a xlink:href="classscram_1_1core_1_1Pdag.xhtml#ae9407efbb00e5f28aecb40db2ab7925b" target="_top" xlink:title="scram::core::Pdag::root">
<polygon fill="white" stroke="black" points="181.5,-0.5 181.5,-19.5 300.5,-19.5 300.5,-0.5 181.5,-0.5"/>
<text text-anchor="middle" x="241" y="-7.5" font-family="Helvetica,sans-Serif" font-size="10.00">scram::core::Pdag::root</text>
</a>
</g>
</g>
<!-- Node1&#45;&gt;Node8 -->
<g id="edge8" class="edge"><title>Node1&#45;&gt;Node8</title>
<path fill="none" stroke="midnightblue" d="M82.7588,-111.963C100.822,-90.7454 136.622,-52.1448 175,-30 179.487,-27.411 184.345,-25.122 189.315,-23.1062"/>
<polygon fill="midnightblue" stroke="midnightblue" points="190.77,-26.3002 198.944,-19.5593 188.351,-19.7317 190.77,-26.3002"/>
</g>
<!-- Node6 -->
<g id="node6" class="node"><title>Node6</title>
<g id="a_node6"><a xlink:href="pdag_8h.xhtml#aa00922ee92d35a300d86442f8b9ad331" target="_top" xlink:title="Traverses and visits gates and nodes in the graph. ">
<polygon fill="white" stroke="black" points="343,-93.5 343,-112.5 482,-112.5 482,-93.5 343,-93.5"/>
<text text-anchor="middle" x="412.5" y="-100.5" font-family="Helvetica,sans-Serif" font-size="10.00">scram::core::TraverseGates</text>
</a>
</g>
</g>
<!-- Node5&#45;&gt;Node6 -->
<g id="edge5" class="edge"><title>Node5&#45;&gt;Node6</title>
<path fill="none" stroke="midnightblue" d="M292.856,-103C305.366,-103 319.057,-103 332.551,-103"/>
<polygon fill="midnightblue" stroke="midnightblue" points="332.808,-106.5 342.808,-103 332.808,-99.5001 332.808,-106.5"/>
</g>
<!-- Node6&#45;&gt;Node6 -->
<g id="edge6" class="edge"><title>Node6&#45;&gt;Node6</title>
<path fill="none" stroke="midnightblue" d="M386.298,-112.757C373.551,-121.565 382.285,-131 412.5,-131 432.801,-131 443.404,-126.741 444.311,-121.275"/>
<polygon fill="midnightblue" stroke="midnightblue" points="447.125,-119.184 438.702,-112.757 441.279,-123.034 447.125,-119.184"/>
</g>
</g>
</svg>
