<?xml version="1.0" encoding="UTF-8" standalone="no"?>
<!DOCTYPE svg PUBLIC "-//W3C//DTD SVG 1.1//EN"
 "http://www.w3.org/Graphics/SVG/1.1/DTD/svg11.dtd">
<!-- Generated by graphviz version 2.38.0 (20140413.2041)
 -->
<!-- Title: scram::core::Preprocessor::NormalizeGates Pages: 1 -->
<svg width="509pt" height="421pt"
 viewBox="0.00 0.00 509.00 421.00" xmlns="http://www.w3.org/2000/svg" xmlns:xlink="http://www.w3.org/1999/xlink">
<g id="graph0" class="graph" transform="scale(1 1) rotate(0) translate(4 417)">
<title>scram::core::Preprocessor::NormalizeGates</title>
<polygon fill="white" stroke="none" points="-4,4 -4,-417 505,-417 505,4 -4,4"/>
<!-- Node1 -->
<g id="node1" class="node"><title>Node1</title>
<polygon fill="#bfbfbf" stroke="black" points="0,-196.5 0,-226.5 132,-226.5 132,-196.5 0,-196.5"/>
<text text-anchor="start" x="8" y="-214.5" font-family="Helvetica,sans-Serif" font-size="10.00">scram::core::Preprocessor</text>
<text text-anchor="middle" x="66" y="-203.5" font-family="Helvetica,sans-Serif" font-size="10.00">::NormalizeGates</text>
</g>
<!-- Node2 -->
<g id="node2" class="node"><title>Node2</title>
<g id="a_node2"><a xlink:href="classscram_1_1core_1_1Preprocessor.xhtml#afb4e28af2f1ec12db694af6e93ffbd1d" target="_top" xlink:title="Assigns order for PDAG variables. ">
<polygon fill="white" stroke="black" points="181,-333.5 181,-363.5 313,-363.5 313,-333.5 181,-333.5"/>
<text text-anchor="start" x="189" y="-351.5" font-family="Helvetica,sans-Serif" font-size="10.00">scram::core::Preprocessor</text>
<text text-anchor="middle" x="247" y="-340.5" font-family="Helvetica,sans-Serif" font-size="10.00">::AssignOrder</text>
</a>
</g>
</g>
<!-- Node1&#45;&gt;Node2 -->
<g id="edge1" class="edge"><title>Node1&#45;&gt;Node2</title>
<path fill="none" stroke="midnightblue" d="M77.7595,-226.662C94.6277,-249.449 129.386,-292.606 168,-318.5 174.048,-322.555 180.722,-326.174 187.545,-329.371"/>
<polygon fill="midnightblue" stroke="midnightblue" points="186.332,-332.66 196.896,-333.47 189.142,-326.249 186.332,-332.66"/>
</g>
<!-- Node3 -->
<g id="node3" class="node"><title>Node3</title>
<g id="a_node3"><a xlink:href="classscram_1_1core_1_1Pdag.xhtml#aa883d0e58b9faab69186bec03574c633" target="_top" xlink:title="Clears marks from graph nodes. ">
<polygon fill="white" stroke="black" points="380,-382.5 380,-412.5 483,-412.5 483,-382.5 380,-382.5"/>
<text text-anchor="start" x="388" y="-400.5" font-family="Helvetica,sans-Serif" font-size="10.00">scram::core::Pdag::</text>
<text text-anchor="middle" x="431.5" y="-389.5" font-family="Helvetica,sans-Serif" font-size="10.00">Clear</text>
</a>
</g>
</g>
<!-- Node1&#45;&gt;Node3 -->
<g id="edge5" class="edge"><title>Node1&#45;&gt;Node3</title>
<path fill="none" stroke="midnightblue" d="M71.3616,-226.621C81.8146,-259.806 111.708,-338.813 168,-373.5 228.885,-411.017 313.254,-411.673 369.748,-406.491"/>
<polygon fill="midnightblue" stroke="midnightblue" points="370.361,-409.947 379.961,-405.463 369.66,-402.983 370.361,-409.947"/>
</g>
<!-- Node5 -->
<g id="node5" class="node"><title>Node5</title>
<g id="a_node5"><a xlink:href="classscram_1_1core_1_1Pdag.xhtml#ae9407efbb00e5f28aecb40db2ab7925b" target="_top" xlink:title="scram::core::Pdag::root">
<polygon fill="white" stroke="black" points="372,-295 372,-314 491,-314 491,-295 372,-295"/>
<text text-anchor="middle" x="431.5" y="-302" font-family="Helvetica,sans-Serif" font-size="10.00">scram::core::Pdag::root</text>
</a>
</g>
</g>
<!-- Node1&#45;&gt;Node5 -->
<g id="edge16" class="edge"><title>Node1&#45;&gt;Node5</title>
<path fill="none" stroke="midnightblue" d="M81.7938,-226.626C100.158,-244.301 133.316,-272.749 168,-285.5 230.751,-308.569 307.524,-311.474 361.79,-309.729"/>
<polygon fill="midnightblue" stroke="midnightblue" points="362.134,-313.218 371.993,-309.338 361.866,-306.224 362.134,-313.218"/>
</g>
<!-- Node6 -->
<g id="node6" class="node"><title>Node6</title>
<g id="a_node6"><a xlink:href="classscram_1_1core_1_1Pdag.xhtml#af5900b29c6c9f1b1cca22ed83e4dd58b" target="_top" xlink:title="scram::core::Pdag::\lcomplement">
<polygon fill="white" stroke="black" points="195.5,-245.5 195.5,-275.5 298.5,-275.5 298.5,-245.5 195.5,-245.5"/>
<text text-anchor="start" x="203.5" y="-263.5" font-family="Helvetica,sans-Serif" font-size="10.00">scram::core::Pdag::</text>
<text text-anchor="middle" x="247" y="-252.5" font-family="Helvetica,sans-Serif" font-size="10.00">complement</text>
</a>
</g>
</g>
<!-- Node1&#45;&gt;Node6 -->
<g id="edge6" class="edge"><title>Node1&#45;&gt;Node6</title>
<path fill="none" stroke="midnightblue" d="M122.166,-226.601C142.206,-232.087 164.951,-238.314 185.432,-243.92"/>
<polygon fill="midnightblue" stroke="midnightblue" points="184.713,-247.352 195.283,-246.616 186.562,-240.6 184.713,-247.352"/>
</g>
<!-- Node7 -->
<g id="node7" class="node"><title>Node7</title>
<g id="a_node7"><a xlink:href="classscram_1_1core_1_1Pdag.xhtml#a7933096368b6a16f9d6aab7c4abbb02b" target="_top" xlink:title="scram::core::Pdag::\lHasConstants">
<polygon fill="white" stroke="black" points="195.5,-196.5 195.5,-226.5 298.5,-226.5 298.5,-196.5 195.5,-196.5"/>
<text text-anchor="start" x="203.5" y="-214.5" font-family="Helvetica,sans-Serif" font-size="10.00">scram::core::Pdag::</text>
<text text-anchor="middle" x="247" y="-203.5" font-family="Helvetica,sans-Serif" font-size="10.00">HasConstants</text>
</a>
</g>
</g>
<!-- Node1&#45;&gt;Node7 -->
<g id="edge7" class="edge"><title>Node1&#45;&gt;Node7</title>
<path fill="none" stroke="midnightblue" d="M132.129,-211.5C149.348,-211.5 167.869,-211.5 184.867,-211.5"/>
<polygon fill="midnightblue" stroke="midnightblue" points="185.229,-215 195.229,-211.5 185.229,-208 185.229,-215"/>
</g>
<!-- Node8 -->
<g id="node8" class="node"><title>Node8</title>
<g id="a_node8"><a xlink:href="classscram_1_1core_1_1Pdag.xhtml#aa43a9026583f7a629fe0a3f17440f55b" target="_top" xlink:title="scram::core::Pdag::\lHasNullGates">
<polygon fill="white" stroke="black" points="195.5,-147.5 195.5,-177.5 298.5,-177.5 298.5,-147.5 195.5,-147.5"/>
<text text-anchor="start" x="203.5" y="-165.5" font-family="Helvetica,sans-Serif" font-size="10.00">scram::core::Pdag::</text>
<text text-anchor="middle" x="247" y="-154.5" font-family="Helvetica,sans-Serif" font-size="10.00">HasNullGates</text>
</a>
</g>
</g>
<!-- Node1&#45;&gt;Node8 -->
<g id="edge8" class="edge"><title>Node1&#45;&gt;Node8</title>
<path fill="none" stroke="midnightblue" d="M122.166,-196.399C142.206,-190.913 164.951,-184.686 185.432,-179.08"/>
<polygon fill="midnightblue" stroke="midnightblue" points="186.562,-182.4 195.283,-176.384 184.713,-175.648 186.562,-182.4"/>
</g>
<!-- Node9 -->
<g id="node9" class="node"><title>Node9</title>
<g id="a_node9"><a xlink:href="classscram_1_1core_1_1Preprocessor.xhtml#abfe2eda90c983750e28db49900a4909d" target="_top" xlink:title="Normalizes complex gates into OR, AND gates. ">
<polygon fill="white" stroke="black" points="181,-98.5 181,-128.5 313,-128.5 313,-98.5 181,-98.5"/>
<text text-anchor="start" x="189" y="-116.5" font-family="Helvetica,sans-Serif" font-size="10.00">scram::core::Preprocessor</text>
<text text-anchor="middle" x="247" y="-105.5" font-family="Helvetica,sans-Serif" font-size="10.00">::NormalizeGate</text>
</a>
</g>
</g>
<!-- Node1&#45;&gt;Node9 -->
<g id="edge9" class="edge"><title>Node1&#45;&gt;Node9</title>
<path fill="none" stroke="midnightblue" d="M83.7159,-196.497C102.859,-180.001 135.754,-153.694 168,-137.5 171.703,-135.64 175.579,-133.892 179.539,-132.254"/>
<polygon fill="midnightblue" stroke="midnightblue" points="180.829,-135.508 188.89,-128.633 178.301,-128.98 180.829,-135.508"/>
</g>
<!-- Node12 -->
<g id="node12" class="node"><title>Node12</title>
<g id="a_node12"><a xlink:href="classscram_1_1core_1_1Preprocessor.xhtml#a6ee8f65454835d8de931a2d38bf8b276" target="_top" xlink:title="Notifies all parents of negative gates, such as NOT, NOR, and NAND, before transforming these gates i...">
<polygon fill="white" stroke="black" points="168,-49.5 168,-79.5 326,-79.5 326,-49.5 168,-49.5"/>
<text text-anchor="start" x="176" y="-67.5" font-family="Helvetica,sans-Serif" font-size="10.00">scram::core::Preprocessor</text>
<text text-anchor="middle" x="247" y="-56.5" font-family="Helvetica,sans-Serif" font-size="10.00">::NotifyParentsOfNegativeGates</text>
</a>
</g>
</g>
<!-- Node1&#45;&gt;Node12 -->
<g id="edge12" class="edge"><title>Node1&#45;&gt;Node12</title>
<path fill="none" stroke="midnightblue" d="M75.4618,-196.201C90.6129,-170.209 124.862,-117.44 168,-88.5 170.293,-86.9621 172.688,-85.5192 175.157,-84.1658"/>
<polygon fill="midnightblue" stroke="midnightblue" points="176.933,-87.1932 184.37,-79.6472 173.85,-80.9085 176.933,-87.1932"/>
</g>
<!-- Node13 -->
<g id="node13" class="node"><title>Node13</title>
<g id="a_node13"><a xlink:href="classscram_1_1core_1_1Pdag.xhtml#a1ec495a3595a7d088f1889f46eeb725d" target="_top" xlink:title="Removes gates of Null logic with a single argument (maybe constant). ">
<polygon fill="white" stroke="black" points="195.5,-0.5 195.5,-30.5 298.5,-30.5 298.5,-0.5 195.5,-0.5"/>
<text text-anchor="start" x="203.5" y="-18.5" font-family="Helvetica,sans-Serif" font-size="10.00">scram::core::Pdag::</text>
<text text-anchor="middle" x="247" y="-7.5" font-family="Helvetica,sans-Serif" font-size="10.00">RemoveNullGates</text>
</a>
</g>
</g>
<!-- Node1&#45;&gt;Node13 -->
<g id="edge13" class="edge"><title>Node1&#45;&gt;Node13</title>
<path fill="none" stroke="midnightblue" d="M71.6694,-196.326C82.7445,-162.873 113.814,-82.3553 168,-39.5 173.376,-35.2483 179.505,-31.7465 185.911,-28.8629"/>
<polygon fill="midnightblue" stroke="midnightblue" points="187.446,-32.0191 195.439,-25.0653 184.854,-25.5165 187.446,-32.0191"/>
</g>
<!-- Node2&#45;&gt;Node3 -->
<g id="edge2" class="edge"><title>Node2&#45;&gt;Node3</title>
<path fill="none" stroke="midnightblue" d="M304.245,-363.601C325.04,-369.185 348.694,-375.536 369.862,-381.219"/>
<polygon fill="midnightblue" stroke="midnightblue" points="369.145,-384.651 379.711,-383.863 370.961,-377.89 369.145,-384.651"/>
</g>
<!-- Node4 -->
<g id="node4" class="node"><title>Node4</title>
<g id="a_node4"><a xlink:href="classscram_1_1core_1_1Preprocessor.xhtml#ada629022465a68893952232659d41e11" target="_top" xlink:title="Assigns topological ordering to nodes of the PDAG. ">
<polygon fill="white" stroke="black" points="365.5,-333.5 365.5,-363.5 497.5,-363.5 497.5,-333.5 365.5,-333.5"/>
<text text-anchor="start" x="373.5" y="-351.5" font-family="Helvetica,sans-Serif" font-size="10.00">scram::core::Preprocessor</text>
<text text-anchor="middle" x="431.5" y="-340.5" font-family="Helvetica,sans-Serif" font-size="10.00">::TopologicalOrder</text>
</a>
</g>
</g>
<!-- Node2&#45;&gt;Node4 -->
<g id="edge3" class="edge"><title>Node2&#45;&gt;Node4</title>
<path fill="none" stroke="midnightblue" d="M313.114,-348.5C326.788,-348.5 341.317,-348.5 355.324,-348.5"/>
<polygon fill="midnightblue" stroke="midnightblue" points="355.411,-352 365.411,-348.5 355.411,-345 355.411,-352"/>
</g>
<!-- Node2&#45;&gt;Node5 -->
<g id="edge4" class="edge"><title>Node2&#45;&gt;Node5</title>
<path fill="none" stroke="midnightblue" d="M310.296,-333.481C333.488,-327.889 359.464,-321.626 381.319,-316.357"/>
<polygon fill="midnightblue" stroke="midnightblue" points="382.144,-319.759 391.045,-314.012 380.503,-312.954 382.144,-319.759"/>
</g>
<!-- Node10 -->
<g id="node10" class="node"><title>Node10</title>
<g id="a_node10"><a xlink:href="classscram_1_1core_1_1Preprocessor.xhtml#a45cf08c3809e801be50eda53dd68fca6" target="_top" xlink:title="Normalizes a gate with XOR logic. ">
<polygon fill="white" stroke="black" points="365.5,-129.5 365.5,-159.5 497.5,-159.5 497.5,-129.5 365.5,-129.5"/>
<text text-anchor="start" x="373.5" y="-147.5" font-family="Helvetica,sans-Serif" font-size="10.00">scram::core::Preprocessor</text>
<text text-anchor="middle" x="431.5" y="-136.5" font-family="Helvetica,sans-Serif" font-size="10.00">::NormalizeXorGate</text>
</a>
</g>
</g>
<!-- Node9&#45;&gt;Node10 -->
<g id="edge10" class="edge"><title>Node9&#45;&gt;Node10</title>
<path fill="none" stroke="midnightblue" d="M313.114,-124.56C326.788,-126.883 341.317,-129.351 355.324,-131.73"/>
<polygon fill="midnightblue" stroke="midnightblue" points="354.966,-135.22 365.411,-133.444 356.139,-128.319 354.966,-135.22"/>
</g>
<!-- Node11 -->
<g id="node11" class="node"><title>Node11</title>
<g id="a_node11"><a xlink:href="classscram_1_1core_1_1Preprocessor.xhtml#a56b5719bcfcfd1678928befe31d9b729" target="_top" xlink:title="Normalizes a VOTE gate with a vote number. ">
<polygon fill="white" stroke="black" points="365.5,-80.5 365.5,-110.5 497.5,-110.5 497.5,-80.5 365.5,-80.5"/>
<text text-anchor="start" x="373.5" y="-98.5" font-family="Helvetica,sans-Serif" font-size="10.00">scram::core::Preprocessor</text>
<text text-anchor="middle" x="431.5" y="-87.5" font-family="Helvetica,sans-Serif" font-size="10.00">::NormalizeVoteGate</text>
</a>
</g>
</g>
<!-- Node9&#45;&gt;Node11 -->
<g id="edge11" class="edge"><title>Node9&#45;&gt;Node11</title>
<path fill="none" stroke="midnightblue" d="M313.114,-107.078C326.788,-105.729 341.317,-104.296 355.324,-102.915"/>
<polygon fill="midnightblue" stroke="midnightblue" points="355.803,-106.384 365.411,-101.92 355.116,-99.4182 355.803,-106.384"/>
</g>
<!-- Node14 -->
<g id="node14" class="node"><title>Node14</title>
<g id="a_node14"><a xlink:href="pdag_8h.xhtml#aa00922ee92d35a300d86442f8b9ad331" target="_top" xlink:title="Traverses and visits gates and nodes in the graph. ">
<polygon fill="white" stroke="black" points="362,-6 362,-25 501,-25 501,-6 362,-6"/>
<text text-anchor="middle" x="431.5" y="-13" font-family="Helvetica,sans-Serif" font-size="10.00">scram::core::TraverseGates</text>
</a>
</g>
</g>
<!-- Node13&#45;&gt;Node14 -->
<g id="edge14" class="edge"><title>Node13&#45;&gt;Node14</title>
<path fill="none" stroke="midnightblue" d="M298.836,-15.5C315.223,-15.5 333.789,-15.5 351.703,-15.5"/>
<polygon fill="midnightblue" stroke="midnightblue" points="351.86,-19.0001 361.86,-15.5 351.86,-12.0001 351.86,-19.0001"/>
</g>
<!-- Node14&#45;&gt;Node14 -->
<g id="edge15" class="edge"><title>Node14&#45;&gt;Node14</title>
<path fill="none" stroke="midnightblue" d="M403.14,-25.2571C389.344,-34.0653 398.797,-43.5 431.5,-43.5 453.983,-43.5 465.478,-39.0406 465.983,-33.3913"/>
<polygon fill="midnightblue" stroke="midnightblue" points="468.67,-31.1417 459.86,-25.2571 463.077,-35.3515 468.67,-31.1417"/>
</g>
</g>
</svg>
