<?xml version="1.0" encoding="UTF-8" standalone="no"?>
<!DOCTYPE svg PUBLIC "-//W3C//DTD SVG 1.1//EN"
 "http://www.w3.org/Graphics/SVG/1.1/DTD/svg11.dtd">
<!-- Generated by graphviz version 2.38.0 (20140413.2041)
 -->
<!-- Title: scram::core::Pdag::coherent Pages: 1 -->
<svg width="1684pt" height="373pt"
 viewBox="0.00 0.00 1684.00 373.00" xmlns="http://www.w3.org/2000/svg" xmlns:xlink="http://www.w3.org/1999/xlink">
<g id="graph0" class="graph" transform="scale(1 1) rotate(0) translate(4 369)">
<title>scram::core::Pdag::coherent</title>
<polygon fill="white" stroke="none" points="-4,4 -4,-369 1680,-369 1680,4 -4,4"/>
<!-- Node1 -->
<g id="node1" class="node"><title>Node1</title>
<polygon fill="#bfbfbf" stroke="black" points="0,-125.5 0,-155.5 103,-155.5 103,-125.5 0,-125.5"/>
<text text-anchor="start" x="8" y="-143.5" font-family="Helvetica,sans-Serif" font-size="10.00">scram::core::Pdag::</text>
<text text-anchor="middle" x="51.5" y="-132.5" font-family="Helvetica,sans-Serif" font-size="10.00">coherent</text>
</g>
<!-- Node2 -->
<g id="node2" class="node"><title>Node2</title>
<g id="a_node2"><a xlink:href="classscram_1_1core_1_1Preprocessor.xhtml#ad79145fdd5487ef0537728f74e6a94e4" target="_top" xlink:title="Detects if parents of a node are redundant. ">
<polygon fill="white" stroke="black" points="307,-196.5 307,-226.5 441,-226.5 441,-196.5 307,-196.5"/>
<text text-anchor="start" x="315" y="-214.5" font-family="Helvetica,sans-Serif" font-size="10.00">scram::core::Preprocessor</text>
<text text-anchor="middle" x="374" y="-203.5" font-family="Helvetica,sans-Serif" font-size="10.00">::CollectRedundantParents</text>
</a>
</g>
</g>
<!-- Node1&#45;&gt;Node2 -->
<g id="edge1" class="edge"><title>Node1&#45;&gt;Node2</title>
<path fill="none" stroke="midnightblue" d="M83.7975,-160.893C99.6978,-170.26 119.697,-180.58 139,-186.5 193.977,-203.362 259.236,-209.239 306.851,-211.114"/>
<polygon fill="midnightblue" stroke="midnightblue" points="85.3117,-157.718 74.9456,-155.528 81.6838,-163.705 85.3117,-157.718"/>
</g>
<!-- Node8 -->
<g id="node8" class="node"><title>Node8</title>
<g id="a_node8"><a xlink:href="classscram_1_1core_1_1CustomPreprocessor_3_01Zbdd_01_4.xhtml#a5185075f852c647c7aa4313d23420ee5" target="_top" xlink:title="Performs preprocessing for analyses with Zero&#45;Suppressed Binary Decision Diagrams. ">
<polygon fill="white" stroke="black" points="1341,-98.5 1341,-128.5 1508,-128.5 1508,-98.5 1341,-98.5"/>
<text text-anchor="start" x="1349" y="-116.5" font-family="Helvetica,sans-Serif" font-size="10.00">scram::core::CustomPreprocessor</text>
<text text-anchor="middle" x="1424.5" y="-105.5" font-family="Helvetica,sans-Serif" font-size="10.00">&lt; Zbdd &gt;::Run</text>
</a>
</g>
</g>
<!-- Node1&#45;&gt;Node8 -->
<g id="edge27" class="edge"><title>Node1&#45;&gt;Node8</title>
<path fill="none" stroke="midnightblue" d="M101.879,-122.007C164.153,-100.38 274.953,-67.5 373,-67.5 373,-67.5 373,-67.5 1048,-67.5 1151.77,-67.5 1270.49,-85.0223 1346.17,-98.4379"/>
<polygon fill="midnightblue" stroke="midnightblue" points="100.582,-118.753 92.3109,-125.374 102.906,-125.356 100.582,-118.753"/>
</g>
<!-- Node12 -->
<g id="node12" class="node"><title>Node12</title>
<g id="a_node12"><a xlink:href="classscram_1_1core_1_1Preprocessor.xhtml#a5c224938dfba861f061525658bd7b156" target="_top" xlink:title="Propagation of complements. ">
<polygon fill="white" stroke="black" points="981,-106.5 981,-136.5 1113,-136.5 1113,-106.5 981,-106.5"/>
<text text-anchor="start" x="989" y="-124.5" font-family="Helvetica,sans-Serif" font-size="10.00">scram::core::Preprocessor</text>
<text text-anchor="middle" x="1047" y="-113.5" font-family="Helvetica,sans-Serif" font-size="10.00">::RunPhaseFour</text>
</a>
</g>
</g>
<!-- Node1&#45;&gt;Node12 -->
<g id="edge28" class="edge"><title>Node1&#45;&gt;Node12</title>
<path fill="none" stroke="midnightblue" d="M113.197,-133.846C177.589,-127.37 282.338,-118.5 373,-118.5 373,-118.5 373,-118.5 712,-118.5 805.361,-118.5 913.396,-119.687 980.722,-120.567"/>
<polygon fill="midnightblue" stroke="midnightblue" points="112.811,-130.367 103.217,-134.863 113.52,-137.331 112.811,-130.367"/>
</g>
<!-- Node14 -->
<g id="node14" class="node"><title>Node14</title>
<g id="a_node14"><a xlink:href="classscram_1_1core_1_1Preprocessor.xhtml#a019e679ad9077caac8c48253d42647ff" target="_top" xlink:title="Determines if a gate fails or succeeds due to failed/succeeded arguments. ">
<polygon fill="white" stroke="black" points="139,-147.5 139,-177.5 271,-177.5 271,-147.5 139,-147.5"/>
<text text-anchor="start" x="147" y="-165.5" font-family="Helvetica,sans-Serif" font-size="10.00">scram::core::Preprocessor</text>
<text text-anchor="middle" x="205" y="-154.5" font-family="Helvetica,sans-Serif" font-size="10.00">::DetermineGateState</text>
</a>
</g>
</g>
<!-- Node1&#45;&gt;Node14 -->
<g id="edge20" class="edge"><title>Node1&#45;&gt;Node14</title>
<path fill="none" stroke="midnightblue" d="M113.39,-149.342C121.731,-150.553 130.322,-151.801 138.737,-153.023"/>
<polygon fill="midnightblue" stroke="midnightblue" points="113.768,-145.86 103.369,-147.887 112.762,-152.788 113.768,-145.86"/>
</g>
<!-- Node16 -->
<g id="node16" class="node"><title>Node16</title>
<g id="a_node16"><a xlink:href="classscram_1_1core_1_1Preprocessor.xhtml#a14baf96279cf2950cc71564ad199007d" target="_top" xlink:title="Marks coherence of the whole graph. ">
<polygon fill="white" stroke="black" points="1161,-8.5 1161,-38.5 1293,-38.5 1293,-8.5 1161,-8.5"/>
<text text-anchor="start" x="1169" y="-26.5" font-family="Helvetica,sans-Serif" font-size="10.00">scram::core::Preprocessor</text>
<text text-anchor="middle" x="1227" y="-15.5" font-family="Helvetica,sans-Serif" font-size="10.00">::MarkCoherence</text>
</a>
</g>
</g>
<!-- Node1&#45;&gt;Node16 -->
<g id="edge23" class="edge"><title>Node1&#45;&gt;Node16</title>
<path fill="none" stroke="midnightblue" d="M68.4349,-117.237C83.8921,-96.7148 109.319,-67.8951 139,-53.5 233.196,-7.81472 268.31,-26.5 373,-26.5 373,-26.5 373,-26.5 880,-26.5 977.917,-26.5 1091.41,-25.2838 1160.96,-24.4001"/>
<polygon fill="midnightblue" stroke="midnightblue" points="65.5035,-115.317 62.4374,-125.458 71.1586,-119.442 65.5035,-115.317"/>
</g>
<!-- Node18 -->
<g id="node18" class="node"><title>Node18</title>
<g id="a_node18"><a xlink:href="classscram_1_1core_1_1Preprocessor.xhtml#a44f820b6fe2c23594c818432b33e26a6" target="_top" xlink:title="The initial phase of preprocessing. ">
<polygon fill="white" stroke="black" points="981,-334.5 981,-364.5 1113,-364.5 1113,-334.5 981,-334.5"/>
<text text-anchor="start" x="989" y="-352.5" font-family="Helvetica,sans-Serif" font-size="10.00">scram::core::Preprocessor</text>
<text text-anchor="middle" x="1047" y="-341.5" font-family="Helvetica,sans-Serif" font-size="10.00">::RunPhaseOne</text>
</a>
</g>
</g>
<!-- Node1&#45;&gt;Node18 -->
<g id="edge29" class="edge"><title>Node1&#45;&gt;Node18</title>
<path fill="none" stroke="midnightblue" d="M75.0783,-162.98C91.6532,-178.518 115.317,-198.78 139,-212.5 235.009,-268.118 262.045,-299.5 373,-299.5 373,-299.5 373,-299.5 712,-299.5 807.571,-299.5 916.845,-319.771 983.627,-334.498"/>
<polygon fill="midnightblue" stroke="midnightblue" points="77.1908,-160.158 67.542,-155.782 72.3558,-165.22 77.1908,-160.158"/>
</g>
<!-- Node3 -->
<g id="node3" class="node"><title>Node3</title>
<g id="a_node3"><a xlink:href="classscram_1_1core_1_1Preprocessor.xhtml#a4086c57695d49b4770915d5d53bd47de" target="_top" xlink:title="Tries to simplify the graph by removing redundancies generated by a common node. ">
<polygon fill="white" stroke="black" points="477,-196.5 477,-226.5 609,-226.5 609,-196.5 477,-196.5"/>
<text text-anchor="start" x="485" y="-214.5" font-family="Helvetica,sans-Serif" font-size="10.00">scram::core::Preprocessor</text>
<text text-anchor="middle" x="543" y="-203.5" font-family="Helvetica,sans-Serif" font-size="10.00">::ProcessCommonNode</text>
</a>
</g>
</g>
<!-- Node2&#45;&gt;Node3 -->
<g id="edge2" class="edge"><title>Node2&#45;&gt;Node3</title>
<path fill="none" stroke="midnightblue" d="M451.019,-211.5C459.612,-211.5 468.312,-211.5 476.75,-211.5"/>
<polygon fill="midnightblue" stroke="midnightblue" points="451.003,-208 441.003,-211.5 451.003,-215 451.003,-208"/>
</g>
<!-- Node4 -->
<g id="node4" class="node"><title>Node4</title>
<g id="a_node4"><a xlink:href="classscram_1_1core_1_1Preprocessor.xhtml#aebc709ad2e097c24e837889a6a9e4696" target="_top" xlink:title="Propagates failures of common nodes to detect redundancy. ">
<polygon fill="white" stroke="black" points="645,-196.5 645,-226.5 777,-226.5 777,-196.5 645,-196.5"/>
<text text-anchor="start" x="653" y="-214.5" font-family="Helvetica,sans-Serif" font-size="10.00">scram::core::Preprocessor</text>
<text text-anchor="middle" x="711" y="-203.5" font-family="Helvetica,sans-Serif" font-size="10.00">::BooleanOptimization</text>
</a>
</g>
</g>
<!-- Node3&#45;&gt;Node4 -->
<g id="edge3" class="edge"><title>Node3&#45;&gt;Node4</title>
<path fill="none" stroke="midnightblue" d="M619.393,-211.5C627.869,-211.5 636.452,-211.5 644.784,-211.5"/>
<polygon fill="midnightblue" stroke="midnightblue" points="619.131,-208 609.131,-211.5 619.131,-215 619.131,-208"/>
</g>
<!-- Node5 -->
<g id="node5" class="node"><title>Node5</title>
<g id="a_node5"><a xlink:href="classscram_1_1core_1_1Preprocessor.xhtml#a9d5f89471499508eb9e6c01ea43e0f15" target="_top" xlink:title="Preprocessing phase of the original structure of the graph. ">
<polygon fill="white" stroke="black" points="813,-196.5 813,-226.5 945,-226.5 945,-196.5 813,-196.5"/>
<text text-anchor="start" x="821" y="-214.5" font-family="Helvetica,sans-Serif" font-size="10.00">scram::core::Preprocessor</text>
<text text-anchor="middle" x="879" y="-203.5" font-family="Helvetica,sans-Serif" font-size="10.00">::RunPhaseTwo</text>
</a>
</g>
</g>
<!-- Node4&#45;&gt;Node5 -->
<g id="edge4" class="edge"><title>Node4&#45;&gt;Node5</title>
<path fill="none" stroke="midnightblue" d="M787.393,-211.5C795.869,-211.5 804.452,-211.5 812.784,-211.5"/>
<polygon fill="midnightblue" stroke="midnightblue" points="787.131,-208 777.131,-211.5 787.131,-215 787.131,-208"/>
</g>
<!-- Node6 -->
<g id="node6" class="node"><title>Node6</title>
<g id="a_node6"><a xlink:href="classscram_1_1core_1_1Preprocessor.xhtml#a2b6705e815fa3d02119c405b483766d5" target="_top" xlink:title="Container of unique gates by semantics. ">
<polygon fill="white" stroke="black" points="1149,-222 1149,-241 1305,-241 1305,-222 1149,-222"/>
<text text-anchor="middle" x="1227" y="-229" font-family="Helvetica,sans-Serif" font-size="10.00">scram::core::Preprocessor::Run</text>
</a>
</g>
</g>
<!-- Node5&#45;&gt;Node6 -->
<g id="edge5" class="edge"><title>Node5&#45;&gt;Node6</title>
<path fill="none" stroke="midnightblue" d="M955.158,-215.844C1012.44,-219.156 1091.04,-223.699 1148.82,-227.039"/>
<polygon fill="midnightblue" stroke="midnightblue" points="955.265,-212.345 945.08,-215.262 954.861,-219.333 955.265,-212.345"/>
</g>
<!-- Node9 -->
<g id="node9" class="node"><title>Node9</title>
<g id="a_node9"><a xlink:href="classscram_1_1core_1_1Preprocessor.xhtml#a5ee92284aef510ce01a71c962d50f51c" target="_top" xlink:title="Runs the graph preprocessing. ">
<polygon fill="white" stroke="black" points="1358.5,-235.5 1358.5,-265.5 1490.5,-265.5 1490.5,-235.5 1358.5,-235.5"/>
<text text-anchor="start" x="1366.5" y="-253.5" font-family="Helvetica,sans-Serif" font-size="10.00">scram::core::Preprocessor</text>
<text text-anchor="middle" x="1424.5" y="-242.5" font-family="Helvetica,sans-Serif" font-size="10.00">::operator()</text>
</a>
</g>
</g>
<!-- Node5&#45;&gt;Node9 -->
<g id="edge19" class="edge"><title>Node5&#45;&gt;Node9</title>
<path fill="none" stroke="midnightblue" d="M903.519,-233.343C922.733,-249.603 951.457,-270.482 981,-279.5 1117.22,-321.084 1287.65,-287.421 1371.7,-265.55"/>
<polygon fill="midnightblue" stroke="midnightblue" points="905.733,-230.63 895.892,-226.705 901.137,-235.91 905.733,-230.63"/>
</g>
<!-- Node11 -->
<g id="node11" class="node"><title>Node11</title>
<g id="a_node11"><a xlink:href="classscram_1_1core_1_1Preprocessor.xhtml#abf2c66723172a85b2ae87ef2a034cd1f" target="_top" xlink:title="Application of gate normalization. ">
<polygon fill="white" stroke="black" points="981,-240.5 981,-270.5 1113,-270.5 1113,-240.5 981,-240.5"/>
<text text-anchor="start" x="989" y="-258.5" font-family="Helvetica,sans-Serif" font-size="10.00">scram::core::Preprocessor</text>
<text text-anchor="middle" x="1047" y="-247.5" font-family="Helvetica,sans-Serif" font-size="10.00">::RunPhaseThree</text>
</a>
</g>
</g>
<!-- Node5&#45;&gt;Node11 -->
<g id="edge10" class="edge"><title>Node5&#45;&gt;Node11</title>
<path fill="none" stroke="midnightblue" d="M946.378,-229.094C960.598,-232.863 975.496,-236.812 989.31,-240.474"/>
<polygon fill="midnightblue" stroke="midnightblue" points="947.226,-225.698 936.663,-226.519 945.433,-232.465 947.226,-225.698"/>
</g>
<!-- Node5&#45;&gt;Node12 -->
<g id="edge13" class="edge"><title>Node5&#45;&gt;Node12</title>
<path fill="none" stroke="midnightblue" d="M916.834,-191.388C935.963,-180.957 959.726,-168.02 981,-156.5 993.059,-149.97 1006.39,-142.784 1017.83,-136.632"/>
<polygon fill="midnightblue" stroke="midnightblue" points="914.949,-188.429 907.846,-196.29 918.301,-194.574 914.949,-188.429"/>
</g>
<!-- Node13 -->
<g id="node13" class="node"><title>Node13</title>
<g id="a_node13"><a xlink:href="classscram_1_1core_1_1Preprocessor.xhtml#a3569bbcd5e863c750cdfa69115399600" target="_top" xlink:title="The final phase that cleans up the graph, and puts the structure of the graph ready for analysis...">
<polygon fill="white" stroke="black" points="1161,-134.5 1161,-164.5 1293,-164.5 1293,-134.5 1161,-134.5"/>
<text text-anchor="start" x="1169" y="-152.5" font-family="Helvetica,sans-Serif" font-size="10.00">scram::core::Preprocessor</text>
<text text-anchor="middle" x="1227" y="-141.5" font-family="Helvetica,sans-Serif" font-size="10.00">::RunPhaseFive</text>
</a>
</g>
</g>
<!-- Node5&#45;&gt;Node13 -->
<g id="edge16" class="edge"><title>Node5&#45;&gt;Node13</title>
<path fill="none" stroke="midnightblue" d="M955.097,-198.043C1016.49,-187.042 1102.41,-171.646 1160.92,-161.162"/>
<polygon fill="midnightblue" stroke="midnightblue" points="954.306,-194.629 945.08,-199.838 955.541,-201.52 954.306,-194.629"/>
</g>
<!-- Node7 -->
<g id="node7" class="node"><title>Node7</title>
<g id="a_node7"><a xlink:href="classscram_1_1core_1_1Preprocessor.xhtml#a9caf4677a024ed935d831210b57b8ed9" target="_top" xlink:title="Gathers nodes in the sub&#45;graph. ">
<polygon fill="white" stroke="black" points="1358.5,-49.5 1358.5,-79.5 1490.5,-79.5 1490.5,-49.5 1358.5,-49.5"/>
<text text-anchor="start" x="1366.5" y="-67.5" font-family="Helvetica,sans-Serif" font-size="10.00">scram::core::Preprocessor</text>
<text text-anchor="middle" x="1424.5" y="-56.5" font-family="Helvetica,sans-Serif" font-size="10.00">::GatherNodes</text>
</a>
</g>
</g>
<!-- Node6&#45;&gt;Node7 -->
<g id="edge6" class="edge"><title>Node6&#45;&gt;Node7</title>
<path fill="none" stroke="midnightblue" d="M1254.33,-216.617C1270.7,-206.274 1291.18,-191.197 1305,-173.5 1330.25,-141.163 1310.34,-115.756 1341,-88.5 1346.13,-83.9414 1352.08,-80.2461 1358.39,-77.2512"/>
<polygon fill="midnightblue" stroke="midnightblue" points="1252.45,-213.668 1245.73,-221.863 1256.09,-219.644 1252.45,-213.668"/>
</g>
<!-- Node6&#45;&gt;Node8 -->
<g id="edge7" class="edge"><title>Node6&#45;&gt;Node8</title>
<path fill="none" stroke="midnightblue" d="M1252.77,-216.551C1290.23,-193.938 1360.92,-151.271 1398.51,-128.581"/>
<polygon fill="midnightblue" stroke="midnightblue" points="1250.75,-213.68 1244,-221.844 1254.37,-219.673 1250.75,-213.68"/>
</g>
<!-- Node6&#45;&gt;Node9 -->
<g id="edge8" class="edge"><title>Node6&#45;&gt;Node9</title>
<path fill="none" stroke="midnightblue" d="M1315.25,-239.98C1329.78,-241.391 1344.61,-242.833 1358.46,-244.179"/>
<polygon fill="midnightblue" stroke="midnightblue" points="1315.56,-236.493 1305.27,-239.009 1314.88,-243.46 1315.56,-236.493"/>
</g>
<!-- Node10 -->
<g id="node10" class="node"><title>Node10</title>
<g id="a_node10"><a xlink:href="classscram_1_1core_1_1Preprocessor_1_1GateSet.xhtml#ae00239084858979e096032c4cf2f05b9" target="_top" xlink:title="Inserts a gate into the set if it is semantically unique. ">
<polygon fill="white" stroke="black" points="1544,-235.5 1544,-265.5 1676,-265.5 1676,-235.5 1544,-235.5"/>
<text text-anchor="start" x="1552" y="-253.5" font-family="Helvetica,sans-Serif" font-size="10.00">scram::core::Preprocessor</text>
<text text-anchor="middle" x="1610" y="-242.5" font-family="Helvetica,sans-Serif" font-size="10.00">::GateSet::insert</text>
</a>
</g>
</g>
<!-- Node9&#45;&gt;Node10 -->
<g id="edge9" class="edge"><title>Node9&#45;&gt;Node10</title>
<path fill="none" stroke="midnightblue" d="M1500.99,-250.5C1515.26,-250.5 1530.08,-250.5 1544,-250.5"/>
<polygon fill="midnightblue" stroke="midnightblue" points="1500.71,-247 1490.71,-250.5 1500.71,-254 1500.71,-247"/>
</g>
<!-- Node11&#45;&gt;Node6 -->
<g id="edge11" class="edge"><title>Node11&#45;&gt;Node6</title>
<path fill="none" stroke="midnightblue" d="M1123.17,-245.364C1133.87,-243.921 1144.85,-242.442 1155.46,-241.011"/>
<polygon fill="midnightblue" stroke="midnightblue" points="1122.46,-241.929 1113.02,-246.734 1123.4,-248.866 1122.46,-241.929"/>
</g>
<!-- Node11&#45;&gt;Node9 -->
<g id="edge12" class="edge"><title>Node11&#45;&gt;Node9</title>
<path fill="none" stroke="midnightblue" d="M1123.74,-254.491C1192.52,-253.576 1292.9,-252.239 1358.21,-251.369"/>
<polygon fill="midnightblue" stroke="midnightblue" points="1123.36,-250.996 1113.41,-254.629 1123.45,-257.996 1123.36,-250.996"/>
</g>
<!-- Node12&#45;&gt;Node8 -->
<g id="edge14" class="edge"><title>Node12&#45;&gt;Node8</title>
<path fill="none" stroke="midnightblue" d="M1123.66,-119.888C1186.58,-118.548 1276,-116.643 1340.8,-115.262"/>
<polygon fill="midnightblue" stroke="midnightblue" points="1123.33,-116.394 1113.41,-120.107 1123.48,-123.393 1123.33,-116.394"/>
</g>
<!-- Node12&#45;&gt;Node9 -->
<g id="edge15" class="edge"><title>Node12&#45;&gt;Node9</title>
<path fill="none" stroke="midnightblue" d="M1082.33,-141.687C1101.46,-152.288 1126,-164.838 1149,-173.5 1215.88,-198.691 1236.27,-192.911 1305,-212.5 1329.62,-219.517 1356.84,-228.18 1378.97,-235.462"/>
<polygon fill="midnightblue" stroke="midnightblue" points="1083.84,-138.518 1073.4,-136.666 1080.4,-144.619 1083.84,-138.518"/>
</g>
<!-- Node13&#45;&gt;Node8 -->
<g id="edge17" class="edge"><title>Node13&#45;&gt;Node8</title>
<path fill="none" stroke="midnightblue" d="M1303.16,-135.66C1315.87,-133.319 1329.12,-130.879 1341.99,-128.509"/>
<polygon fill="midnightblue" stroke="midnightblue" points="1302.3,-132.259 1293.1,-137.513 1303.57,-139.144 1302.3,-132.259"/>
</g>
<!-- Node13&#45;&gt;Node9 -->
<g id="edge18" class="edge"><title>Node13&#45;&gt;Node9</title>
<path fill="none" stroke="midnightblue" d="M1279.98,-168.37C1288.44,-171.837 1297.04,-175.601 1305,-179.5 1339.67,-196.492 1377.6,-220.193 1400.98,-235.444"/>
<polygon fill="midnightblue" stroke="midnightblue" points="1281.1,-165.049 1270.51,-164.591 1278.5,-171.55 1281.1,-165.049"/>
</g>
<!-- Node15 -->
<g id="node15" class="node"><title>Node15</title>
<g id="a_node15"><a xlink:href="classscram_1_1core_1_1Preprocessor.xhtml#ae9a8bac98061d7f82633486ed6a36861" target="_top" xlink:title="Propagates failure or success of a common node by setting its ancestors&#39; optimization values to 1 or ...">
<polygon fill="white" stroke="black" points="308,-147.5 308,-177.5 440,-177.5 440,-147.5 308,-147.5"/>
<text text-anchor="start" x="316" y="-165.5" font-family="Helvetica,sans-Serif" font-size="10.00">scram::core::Preprocessor</text>
<text text-anchor="middle" x="374" y="-154.5" font-family="Helvetica,sans-Serif" font-size="10.00">::PropagateState</text>
</a>
</g>
</g>
<!-- Node14&#45;&gt;Node15 -->
<g id="edge21" class="edge"><title>Node14&#45;&gt;Node15</title>
<path fill="none" stroke="midnightblue" d="M281.061,-162.5C290.002,-162.5 299.072,-162.5 307.858,-162.5"/>
<polygon fill="midnightblue" stroke="midnightblue" points="281.045,-159 271.045,-162.5 281.045,-166 281.045,-159"/>
</g>
<!-- Node15&#45;&gt;Node3 -->
<g id="edge22" class="edge"><title>Node15&#45;&gt;Node3</title>
<path fill="none" stroke="midnightblue" d="M436.234,-180.467C454.127,-185.717 473.492,-191.399 490.702,-196.448"/>
<polygon fill="midnightblue" stroke="midnightblue" points="437.049,-177.059 426.468,-177.601 435.078,-183.775 437.049,-177.059"/>
</g>
<!-- Node16&#45;&gt;Node7 -->
<g id="edge25" class="edge"><title>Node16&#45;&gt;Node7</title>
<path fill="none" stroke="midnightblue" d="M1303.09,-39.2474C1321.31,-43.0681 1340.64,-47.1219 1358.35,-50.8374"/>
<polygon fill="midnightblue" stroke="midnightblue" points="1303.6,-35.7795 1293.1,-37.1524 1302.17,-42.6305 1303.6,-35.7795"/>
</g>
<!-- Node16&#45;&gt;Node8 -->
<g id="edge26" class="edge"><title>Node16&#45;&gt;Node8</title>
<path fill="none" stroke="midnightblue" d="M1284.98,-42.6848C1291.94,-45.893 1298.78,-49.4992 1305,-53.5 1323.77,-65.5687 1321.78,-77.1655 1341,-88.5 1347.45,-92.3008 1354.52,-95.5706 1361.73,-98.3719"/>
<polygon fill="midnightblue" stroke="midnightblue" points="1286.04,-39.328 1275.47,-38.5568 1283.25,-45.7492 1286.04,-39.328"/>
</g>
<!-- Node17 -->
<g id="node17" class="node"><title>Node17</title>
<g id="a_node17"><a xlink:href="classscram_1_1core_1_1Preprocessor.xhtml#aeb861bbe289f7dc9fff6bd8f9b539f15" target="_top" xlink:title="Marks gates with coherence flags. ">
<polygon fill="white" stroke="black" points="1358.5,-0.5 1358.5,-30.5 1490.5,-30.5 1490.5,-0.5 1358.5,-0.5"/>
<text text-anchor="start" x="1366.5" y="-18.5" font-family="Helvetica,sans-Serif" font-size="10.00">scram::core::Preprocessor</text>
<text text-anchor="middle" x="1424.5" y="-7.5" font-family="Helvetica,sans-Serif" font-size="10.00">::MarkCoherence</text>
</a>
</g>
</g>
<!-- Node16&#45;&gt;Node17 -->
<g id="edge24" class="edge"><title>Node16&#45;&gt;Node17</title>
<path fill="none" stroke="midnightblue" d="M1303.34,-20.417C1321.49,-19.6745 1340.72,-18.8875 1358.35,-18.1659"/>
<polygon fill="midnightblue" stroke="midnightblue" points="1302.95,-16.9301 1293.1,-20.8361 1303.23,-23.9242 1302.95,-16.9301"/>
</g>
<!-- Node18&#45;&gt;Node6 -->
<g id="edge30" class="edge"><title>Node18&#45;&gt;Node6</title>
<path fill="none" stroke="midnightblue" d="M1079.25,-328.787C1118.07,-303.048 1182.71,-260.2 1211.45,-241.145"/>
<polygon fill="midnightblue" stroke="midnightblue" points="1077.31,-325.873 1070.91,-334.315 1081.17,-331.707 1077.31,-325.873"/>
</g>
<!-- Node18&#45;&gt;Node9 -->
<g id="edge31" class="edge"><title>Node18&#45;&gt;Node9</title>
<path fill="none" stroke="midnightblue" d="M1123.2,-349.742C1175.43,-347.894 1245.97,-341.335 1305,-321.5 1342.97,-308.743 1381.83,-282.416 1404.26,-265.652"/>
<polygon fill="midnightblue" stroke="midnightblue" points="1122.9,-346.249 1113.01,-350.051 1123.11,-353.246 1122.9,-346.249"/>
</g>
</g>
</svg>
