<?xml version="1.0" encoding="UTF-8" standalone="no"?>
<!DOCTYPE svg PUBLIC "-//W3C//DTD SVG 1.1//EN"
 "http://www.w3.org/Graphics/SVG/1.1/DTD/svg11.dtd">
<!-- Generated by graphviz version 2.38.0 (20140413.2041)
 -->
<!-- Title: scram::core::Preprocessor::DetectMultipleDefinitions Pages: 1 -->
<svg width="1214pt" height="278pt"
 viewBox="0.00 0.00 1214.00 277.50" xmlns="http://www.w3.org/2000/svg" xmlns:xlink="http://www.w3.org/1999/xlink">
<g id="graph0" class="graph" transform="scale(1 1) rotate(0) translate(4 273.5)">
<title>scram::core::Preprocessor::DetectMultipleDefinitions</title>
<polygon fill="white" stroke="none" points="-4,4 -4,-273.5 1210,-273.5 1210,4 -4,4"/>
<!-- Node1 -->
<g id="node1" class="node"><title>Node1</title>
<polygon fill="#bfbfbf" stroke="black" points="0,-232.5 0,-262.5 132,-262.5 132,-232.5 0,-232.5"/>
<text text-anchor="start" x="8" y="-250.5" font-family="Helvetica,sans-Serif" font-size="10.00">scram::core::Preprocessor</text>
<text text-anchor="middle" x="66" y="-239.5" font-family="Helvetica,sans-Serif" font-size="10.00">::DetectMultipleDefinitions</text>
</g>
<!-- Node2 -->
<g id="node2" class="node"><title>Node2</title>
<g id="a_node2"><a xlink:href="classscram_1_1core_1_1Preprocessor.xhtml#a5ee92284aef510ce01a71c962d50f51c" target="_top" xlink:title="Runs the graph preprocessing. ">
<polygon fill="white" stroke="black" points="888.5,-134.5 888.5,-164.5 1020.5,-164.5 1020.5,-134.5 888.5,-134.5"/>
<text text-anchor="start" x="896.5" y="-152.5" font-family="Helvetica,sans-Serif" font-size="10.00">scram::core::Preprocessor</text>
<text text-anchor="middle" x="954.5" y="-141.5" font-family="Helvetica,sans-Serif" font-size="10.00">::operator()</text>
</a>
</g>
</g>
<!-- Node1&#45;&gt;Node2 -->
<g id="edge1" class="edge"><title>Node1&#45;&gt;Node2</title>
<path fill="none" stroke="midnightblue" d="M142.634,-255.183C211.675,-261.529 316.587,-269.5 408,-269.5 408,-269.5 408,-269.5 578,-269.5 694.537,-269.5 725.946,-258.586 835,-217.5 871.18,-203.869 909.328,-180.028 932.271,-164.506"/>
<polygon fill="midnightblue" stroke="midnightblue" points="142.573,-251.663 132.291,-254.22 141.924,-258.633 142.573,-251.663"/>
</g>
<!-- Node4 -->
<g id="node4" class="node"><title>Node4</title>
<g id="a_node4"><a xlink:href="classscram_1_1core_1_1Preprocessor.xhtml#ac0abd7f5b54f98643644110b160569bd" target="_top" xlink:title="Detects and replaces multiple definitions of gates. ">
<polygon fill="white" stroke="black" points="168,-210.5 168,-240.5 307,-240.5 307,-210.5 168,-210.5"/>
<text text-anchor="start" x="176" y="-228.5" font-family="Helvetica,sans-Serif" font-size="10.00">scram::core::Preprocessor</text>
<text text-anchor="middle" x="237.5" y="-217.5" font-family="Helvetica,sans-Serif" font-size="10.00">::ProcessMultipleDefinitions</text>
</a>
</g>
</g>
<!-- Node1&#45;&gt;Node4 -->
<g id="edge3" class="edge"><title>Node1&#45;&gt;Node4</title>
<path fill="none" stroke="midnightblue" d="M142.079,-237.755C150.695,-236.637 159.446,-235.501 167.97,-234.395"/>
<polygon fill="midnightblue" stroke="midnightblue" points="141.515,-234.299 132.048,-239.057 142.416,-241.241 141.515,-234.299"/>
</g>
<!-- Node3 -->
<g id="node3" class="node"><title>Node3</title>
<g id="a_node3"><a xlink:href="classscram_1_1core_1_1Preprocessor_1_1GateSet.xhtml#ae00239084858979e096032c4cf2f05b9" target="_top" xlink:title="Inserts a gate into the set if it is semantically unique. ">
<polygon fill="white" stroke="black" points="1074,-134.5 1074,-164.5 1206,-164.5 1206,-134.5 1074,-134.5"/>
<text text-anchor="start" x="1082" y="-152.5" font-family="Helvetica,sans-Serif" font-size="10.00">scram::core::Preprocessor</text>
<text text-anchor="middle" x="1140" y="-141.5" font-family="Helvetica,sans-Serif" font-size="10.00">::GateSet::insert</text>
</a>
</g>
</g>
<!-- Node2&#45;&gt;Node3 -->
<g id="edge2" class="edge"><title>Node2&#45;&gt;Node3</title>
<path fill="none" stroke="midnightblue" d="M1030.99,-149.5C1045.26,-149.5 1060.08,-149.5 1074,-149.5"/>
<polygon fill="midnightblue" stroke="midnightblue" points="1030.71,-146 1020.71,-149.5 1030.71,-153 1030.71,-146"/>
</g>
<!-- Node4&#45;&gt;Node2 -->
<g id="edge4" class="edge"><title>Node4&#45;&gt;Node2</title>
<path fill="none" stroke="midnightblue" d="M317.413,-228.053C432.453,-230.192 652.395,-228.283 835,-191.5 864.207,-185.617 895.958,-174.066 919.236,-164.565"/>
<polygon fill="midnightblue" stroke="midnightblue" points="317.356,-224.551 307.288,-227.849 317.215,-231.55 317.356,-224.551"/>
</g>
<!-- Node5 -->
<g id="node5" class="node"><title>Node5</title>
<g id="a_node5"><a xlink:href="classscram_1_1core_1_1Preprocessor.xhtml#a9d5f89471499508eb9e6c01ea43e0f15" target="_top" xlink:title="Preprocessing phase of the original structure of the graph. ">
<polygon fill="white" stroke="black" points="343,-115.5 343,-145.5 475,-145.5 475,-115.5 343,-115.5"/>
<text text-anchor="start" x="351" y="-133.5" font-family="Helvetica,sans-Serif" font-size="10.00">scram::core::Preprocessor</text>
<text text-anchor="middle" x="409" y="-122.5" font-family="Helvetica,sans-Serif" font-size="10.00">::RunPhaseTwo</text>
</a>
</g>
</g>
<!-- Node4&#45;&gt;Node5 -->
<g id="edge5" class="edge"><title>Node4&#45;&gt;Node5</title>
<path fill="none" stroke="midnightblue" d="M274.357,-205.403C306.23,-187.539 352.125,-161.816 380.988,-145.64"/>
<polygon fill="midnightblue" stroke="midnightblue" points="272.37,-202.505 265.358,-210.447 275.792,-208.611 272.37,-202.505"/>
</g>
<!-- Node5&#45;&gt;Node2 -->
<g id="edge6" class="edge"><title>Node5&#45;&gt;Node2</title>
<path fill="none" stroke="midnightblue" d="M481.129,-147.684C491.126,-149.811 501.298,-151.823 511,-153.5 653.165,-178.079 691.445,-187.891 835,-173.5 853.38,-171.657 873.126,-168.246 891.127,-164.561"/>
<polygon fill="midnightblue" stroke="midnightblue" points="481.73,-144.233 471.214,-145.527 480.242,-151.073 481.73,-144.233"/>
</g>
<!-- Node6 -->
<g id="node6" class="node"><title>Node6</title>
<g id="a_node6"><a xlink:href="classscram_1_1core_1_1Preprocessor.xhtml#a2b6705e815fa3d02119c405b483766d5" target="_top" xlink:title="Container of unique gates by semantics. ">
<polygon fill="white" stroke="black" points="679,-8 679,-27 835,-27 835,-8 679,-8"/>
<text text-anchor="middle" x="757" y="-15" font-family="Helvetica,sans-Serif" font-size="10.00">scram::core::Preprocessor::Run</text>
</a>
</g>
</g>
<!-- Node5&#45;&gt;Node6 -->
<g id="edge7" class="edge"><title>Node5&#45;&gt;Node6</title>
<path fill="none" stroke="midnightblue" d="M428.865,-107.419C447.391,-86.553 477.66,-56.9592 511,-42.5 563.856,-19.5768 628.949,-13.8591 678.753,-13.5852"/>
<polygon fill="midnightblue" stroke="midnightblue" points="426.021,-105.357 422.129,-115.211 431.317,-109.935 426.021,-105.357"/>
</g>
<!-- Node9 -->
<g id="node9" class="node"><title>Node9</title>
<g id="a_node9"><a xlink:href="classscram_1_1core_1_1Preprocessor.xhtml#a3569bbcd5e863c750cdfa69115399600" target="_top" xlink:title="The final phase that cleans up the graph, and puts the structure of the graph ready for analysis...">
<polygon fill="white" stroke="black" points="691,-134.5 691,-164.5 823,-164.5 823,-134.5 691,-134.5"/>
<text text-anchor="start" x="699" y="-152.5" font-family="Helvetica,sans-Serif" font-size="10.00">scram::core::Preprocessor</text>
<text text-anchor="middle" x="757" y="-141.5" font-family="Helvetica,sans-Serif" font-size="10.00">::RunPhaseFive</text>
</a>
</g>
</g>
<!-- Node5&#45;&gt;Node9 -->
<g id="edge11" class="edge"><title>Node5&#45;&gt;Node9</title>
<path fill="none" stroke="midnightblue" d="M485.097,-134.624C546.493,-137.995 632.413,-142.713 690.918,-145.926"/>
<polygon fill="midnightblue" stroke="midnightblue" points="485.257,-131.127 475.08,-134.074 484.873,-138.117 485.257,-131.127"/>
</g>
<!-- Node10 -->
<g id="node10" class="node"><title>Node10</title>
<g id="a_node10"><a xlink:href="classscram_1_1core_1_1Preprocessor.xhtml#a5c224938dfba861f061525658bd7b156" target="_top" xlink:title="Propagation of complements. ">
<polygon fill="white" stroke="black" points="691,-46.5 691,-76.5 823,-76.5 823,-46.5 691,-46.5"/>
<text text-anchor="start" x="699" y="-64.5" font-family="Helvetica,sans-Serif" font-size="10.00">scram::core::Preprocessor</text>
<text text-anchor="middle" x="757" y="-53.5" font-family="Helvetica,sans-Serif" font-size="10.00">::RunPhaseFour</text>
</a>
</g>
</g>
<!-- Node5&#45;&gt;Node10 -->
<g id="edge14" class="edge"><title>Node5&#45;&gt;Node10</title>
<path fill="none" stroke="midnightblue" d="M485.24,-119.736C531.046,-112.73 590.634,-102.808 643,-91.5 662.84,-87.2157 684.423,-81.7009 703.359,-76.5706"/>
<polygon fill="midnightblue" stroke="midnightblue" points="484.454,-116.315 475.092,-121.275 485.504,-123.236 484.454,-116.315"/>
</g>
<!-- Node11 -->
<g id="node11" class="node"><title>Node11</title>
<g id="a_node11"><a xlink:href="classscram_1_1core_1_1Preprocessor.xhtml#abf2c66723172a85b2ae87ef2a034cd1f" target="_top" xlink:title="Application of gate normalization. ">
<polygon fill="white" stroke="black" points="511,-52.5 511,-82.5 643,-82.5 643,-52.5 511,-52.5"/>
<text text-anchor="start" x="519" y="-70.5" font-family="Helvetica,sans-Serif" font-size="10.00">scram::core::Preprocessor</text>
<text text-anchor="middle" x="577" y="-59.5" font-family="Helvetica,sans-Serif" font-size="10.00">::RunPhaseThree</text>
</a>
</g>
</g>
<!-- Node5&#45;&gt;Node11 -->
<g id="edge17" class="edge"><title>Node5&#45;&gt;Node11</title>
<path fill="none" stroke="midnightblue" d="M459.269,-111.801C483.841,-102.476 513.166,-91.3467 536.276,-82.576"/>
<polygon fill="midnightblue" stroke="midnightblue" points="457.869,-108.589 449.761,-115.41 460.352,-115.134 457.869,-108.589"/>
</g>
<!-- Node6&#45;&gt;Node2 -->
<g id="edge9" class="edge"><title>Node6&#45;&gt;Node2</title>
<path fill="none" stroke="midnightblue" d="M825.724,-31.0723C828.963,-32.6834 832.077,-34.4851 835,-36.5 858.142,-52.4547 851.436,-68.3168 871,-88.5 888.357,-106.406 911.403,-122.971 928.725,-134.306"/>
<polygon fill="midnightblue" stroke="midnightblue" points="826.893,-27.7651 816.325,-27.0179 824.121,-34.1926 826.893,-27.7651"/>
</g>
<!-- Node7 -->
<g id="node7" class="node"><title>Node7</title>
<g id="a_node7"><a xlink:href="classscram_1_1core_1_1Preprocessor.xhtml#a9caf4677a024ed935d831210b57b8ed9" target="_top" xlink:title="Gathers nodes in the sub&#45;graph. ">
<polygon fill="white" stroke="black" points="888.5,-0.5 888.5,-30.5 1020.5,-30.5 1020.5,-0.5 888.5,-0.5"/>
<text text-anchor="start" x="896.5" y="-18.5" font-family="Helvetica,sans-Serif" font-size="10.00">scram::core::Preprocessor</text>
<text text-anchor="middle" x="954.5" y="-7.5" font-family="Helvetica,sans-Serif" font-size="10.00">::GatherNodes</text>
</a>
</g>
</g>
<!-- Node6&#45;&gt;Node7 -->
<g id="edge8" class="edge"><title>Node6&#45;&gt;Node7</title>
<path fill="none" stroke="midnightblue" d="M845.674,-16.6031C860.062,-16.4559 874.744,-16.3057 888.457,-16.1654"/>
<polygon fill="midnightblue" stroke="midnightblue" points="845.23,-13.1073 835.267,-16.7095 845.302,-20.107 845.23,-13.1073"/>
</g>
<!-- Node8 -->
<g id="node8" class="node"><title>Node8</title>
<g id="a_node8"><a xlink:href="classscram_1_1core_1_1CustomPreprocessor_3_01Zbdd_01_4.xhtml#a5185075f852c647c7aa4313d23420ee5" target="_top" xlink:title="Performs preprocessing for analyses with Zero&#45;Suppressed Binary Decision Diagrams. ">
<polygon fill="white" stroke="black" points="871,-49.5 871,-79.5 1038,-79.5 1038,-49.5 871,-49.5"/>
<text text-anchor="start" x="879" y="-67.5" font-family="Helvetica,sans-Serif" font-size="10.00">scram::core::CustomPreprocessor</text>
<text text-anchor="middle" x="954.5" y="-56.5" font-family="Helvetica,sans-Serif" font-size="10.00">&lt; Zbdd &gt;::Run</text>
</a>
</g>
</g>
<!-- Node6&#45;&gt;Node8 -->
<g id="edge10" class="edge"><title>Node6&#45;&gt;Node8</title>
<path fill="none" stroke="midnightblue" d="M807.33,-29.3595C832.69,-35.4561 863.866,-42.9512 890.903,-49.4512"/>
<polygon fill="midnightblue" stroke="midnightblue" points="808.103,-25.9457 797.562,-27.0112 806.467,-32.7518 808.103,-25.9457"/>
</g>
<!-- Node9&#45;&gt;Node2 -->
<g id="edge12" class="edge"><title>Node9&#45;&gt;Node2</title>
<path fill="none" stroke="midnightblue" d="M833.341,-149.5C851.486,-149.5 870.718,-149.5 888.353,-149.5"/>
<polygon fill="midnightblue" stroke="midnightblue" points="833.099,-146 823.099,-149.5 833.099,-153 833.099,-146"/>
</g>
<!-- Node9&#45;&gt;Node8 -->
<g id="edge13" class="edge"><title>Node9&#45;&gt;Node8</title>
<path fill="none" stroke="midnightblue" d="M802.066,-130.341C837.334,-115.007 886.118,-93.7967 918.686,-79.6366"/>
<polygon fill="midnightblue" stroke="midnightblue" points="800.277,-127.302 792.501,-134.499 803.068,-133.722 800.277,-127.302"/>
</g>
<!-- Node10&#45;&gt;Node2 -->
<g id="edge15" class="edge"><title>Node10&#45;&gt;Node2</title>
<path fill="none" stroke="midnightblue" d="M807.933,-80.2519C816.995,-83.8539 826.321,-87.6934 835,-91.5 865.835,-105.025 900.33,-122.141 924.116,-134.265"/>
<polygon fill="midnightblue" stroke="midnightblue" points="809.21,-76.9934 798.623,-76.5955 806.651,-83.5089 809.21,-76.9934"/>
</g>
<!-- Node10&#45;&gt;Node8 -->
<g id="edge16" class="edge"><title>Node10&#45;&gt;Node8</title>
<path fill="none" stroke="midnightblue" d="M833.313,-62.6557C845.636,-62.8448 858.462,-63.0416 870.949,-63.2332"/>
<polygon fill="midnightblue" stroke="midnightblue" points="833.151,-59.1529 823.099,-62.499 833.044,-66.1521 833.151,-59.1529"/>
</g>
<!-- Node11&#45;&gt;Node2 -->
<g id="edge18" class="edge"><title>Node11&#45;&gt;Node2</title>
<path fill="none" stroke="midnightblue" d="M653.317,-83.9473C722.104,-98.9688 822.767,-120.951 888.214,-135.243"/>
<polygon fill="midnightblue" stroke="midnightblue" points="653.924,-80.4974 643.407,-81.7833 652.43,-87.3363 653.924,-80.4974"/>
</g>
<!-- Node11&#45;&gt;Node6 -->
<g id="edge19" class="edge"><title>Node11&#45;&gt;Node6</title>
<path fill="none" stroke="midnightblue" d="M634.857,-49.4399C649.216,-45.0469 664.636,-40.4731 679,-36.5 690.811,-33.233 703.716,-29.9411 715.527,-27.0366"/>
<polygon fill="midnightblue" stroke="midnightblue" points="633.638,-46.1531 625.112,-52.4427 635.699,-52.8428 633.638,-46.1531"/>
</g>
</g>
</svg>
