<?xml version="1.0" encoding="UTF-8" standalone="no"?>
<!DOCTYPE svg PUBLIC "-//W3C//DTD SVG 1.1//EN"
 "http://www.w3.org/Graphics/SVG/1.1/DTD/svg11.dtd">
<!-- Generated by graphviz version 2.38.0 (20140413.2041)
 -->
<!-- Title: scram::core::Pdag::HasConstants Pages: 1 -->
<!--zoomable 279 -->
<svg id="main" version="1.1" xmlns="http://www.w3.org/2000/svg" xmlns:xlink="http://www.w3.org/1999/xlink" xml:space="preserve" onload="init(evt)">
<style type="text/css"><![CDATA[
.edge:hover path { stroke: red; }
.edge:hover polygon { stroke: red; fill: red; }
]]></style>
<script type="text/javascript"><![CDATA[
var edges = document.getElementsByTagName('g');
if (edges && edges.length) {
  for (var i=0;i<edges.length;i++) {
    if (edges[i].id.substr(0,4)=='edge') {
      edges[i].setAttribute('class','edge');
    }
  }
}
]]></script>
        <defs>
                <circle id="rim" cx="0" cy="0" r="7"/>
                <circle id="rim2" cx="0" cy="0" r="3.5"/>
                <g id="zoomPlus">
                        <use xlink:href="#rim" fill="#404040">
                                <set attributeName="fill" to="#808080" begin="zoomplus.mouseover" end="zoomplus.mouseout"/>
                        </use>
                        <path d="M-4,0h8M0,-4v8" fill="none" stroke="white" stroke-width="1.5" pointer-events="none"/>
                </g>
                <g id="zoomMin">
                        <use xlink:href="#rim" fill="#404040">
                                <set attributeName="fill" to="#808080" begin="zoomminus.mouseover" end="zoomminus.mouseout"/>
                        </use>
                        <path d="M-4,0h8" fill="none" stroke="white" stroke-width="1.5" pointer-events="none"/>
                </g>
                <g id="dirArrow">
                        <path fill="none" stroke="white" stroke-width="1.5" d="M0,-3.0v7 M-2.5,-0.5L0,-3.0L2.5,-0.5"/>
                </g>
               <g id="resetDef">
                       <use xlink:href="#rim2" fill="#404040">
                               <set attributeName="fill" to="#808080" begin="reset.mouseover" end="reset.mouseout"/>
                       </use>
               </g>
        </defs>

<script type="text/javascript">
var viewWidth = 1178;
var viewHeight = 279;
var sectionId = 'dynsection-6';
</script>
<script xlink:href="svgpan.js"/>
<svg id="graph" class="graph">
<g id="viewport">
<title>scram::core::Pdag::HasConstants</title>
<polygon fill="white" stroke="none" points="-4,4 -4,-275.048 1174,-275.048 1174,4 -4,4"/>
<!-- Node1 -->
<g id="node1" class="node"><title>Node1</title>
<polygon fill="#bfbfbf" stroke="black" points="0,-99.5477 0,-129.548 103,-129.548 103,-99.5477 0,-99.5477"/>
<text text-anchor="start" x="8" y="-117.548" font-family="Helvetica,sans-Serif" font-size="10.00">scram::core::Pdag::</text>
<text text-anchor="middle" x="51.5" y="-106.548" font-family="Helvetica,sans-Serif" font-size="10.00">HasConstants</text>
</g>
<!-- Node2 -->
<g id="node2" class="node"><title>Node2</title>
<g id="a_node2"><a xlink:href="classscram_1_1core_1_1Preprocessor.xhtml#a4737f354474154b3cea9773c25616d27" target="_top" xlink:title="Detects and manipulates AND and OR gate distributivity for the whole graph. ">
<polygon fill="white" stroke="black" points="139,-128.548 139,-158.548 271,-158.548 271,-128.548 139,-128.548"/>
<text text-anchor="start" x="147" y="-146.548" font-family="Helvetica,sans-Serif" font-size="10.00">scram::core::Preprocessor</text>
<text text-anchor="middle" x="205" y="-135.548" font-family="Helvetica,sans-Serif" font-size="10.00">::DetectDistributivity</text>
</a>
</g>
</g>
<!-- Node1&#45;&gt;Node2 -->
<g id="edge1" class="edge"><title>Node1&#45;&gt;Node2</title>
<path fill="none" stroke="midnightblue" d="M113.39,-126.203C121.731,-127.8 130.322,-129.444 138.737,-131.055"/>
<polygon fill="midnightblue" stroke="midnightblue" points="113.848,-122.727 103.369,-124.285 112.532,-129.603 113.848,-122.727"/>
</g>
<!-- Node13 -->
<g id="node13" class="node"><title>Node13</title>
<g id="a_node13"><a xlink:href="classscram_1_1core_1_1Preprocessor.xhtml#ad13e133278ea7563c1ba037c05c35aa2" target="_top" xlink:title="Normalizes the gates of the whole PDAG into OR, AND gates. ">
<polygon fill="white" stroke="black" points="307,-57.5477 307,-87.5477 439,-87.5477 439,-57.5477 307,-57.5477"/>
<text text-anchor="start" x="315" y="-75.5477" font-family="Helvetica,sans-Serif" font-size="10.00">scram::core::Preprocessor</text>
<text text-anchor="middle" x="373" y="-64.5477" font-family="Helvetica,sans-Serif" font-size="10.00">::NormalizeGates</text>
</a>
</g>
</g>
<!-- Node1&#45;&gt;Node13 -->
<g id="edge19" class="edge"><title>Node1&#45;&gt;Node13</title>
<path fill="none" stroke="midnightblue" d="M113.152,-106.575C168.553,-99.2919 250.235,-88.5543 306.969,-81.0964"/>
<polygon fill="midnightblue" stroke="midnightblue" points="112.584,-103.119 103.126,-107.893 113.497,-110.059 112.584,-103.119"/>
</g>
<!-- Node3 -->
<g id="node3" class="node"><title>Node3</title>
<g id="a_node3"><a xlink:href="classscram_1_1core_1_1Preprocessor.xhtml#a9d5f89471499508eb9e6c01ea43e0f15" target="_top" xlink:title="Preprocessing phase of the original structure of the graph. ">
<polygon fill="white" stroke="black" points="307,-128.548 307,-158.548 439,-158.548 439,-128.548 307,-128.548"/>
<text text-anchor="start" x="315" y="-146.548" font-family="Helvetica,sans-Serif" font-size="10.00">scram::core::Preprocessor</text>
<text text-anchor="middle" x="373" y="-135.548" font-family="Helvetica,sans-Serif" font-size="10.00">::RunPhaseTwo</text>
</a>
</g>
</g>
<!-- Node2&#45;&gt;Node3 -->
<g id="edge2" class="edge"><title>Node2&#45;&gt;Node3</title>
<path fill="none" stroke="midnightblue" d="M281.393,-143.548C289.869,-143.548 298.452,-143.548 306.784,-143.548"/>
<polygon fill="midnightblue" stroke="midnightblue" points="281.131,-140.048 271.131,-143.548 281.131,-147.048 281.131,-140.048"/>
</g>
<!-- Node12 -->
<g id="node12" class="node"><title>Node12</title>
<g id="a_node12"><a xlink:href="classscram_1_1core_1_1Preprocessor.xhtml#a79fe8e90f0e8fbc20a76610aaf09fe6e" target="_top" xlink:title="Detects and manipulates AND and OR gate distributivity. ">
<polygon fill="white" stroke="black" points="307,-177.548 307,-207.548 439,-207.548 439,-177.548 307,-177.548"/>
<text text-anchor="start" x="315" y="-195.548" font-family="Helvetica,sans-Serif" font-size="10.00">scram::core::Preprocessor</text>
<text text-anchor="middle" x="373" y="-184.548" font-family="Helvetica,sans-Serif" font-size="10.00">::DetectDistributivity</text>
</a>
</g>
</g>
<!-- Node2&#45;&gt;Node12 -->
<g id="edge18" class="edge"><title>Node2&#45;&gt;Node12</title>
<path fill="none" stroke="midnightblue" d="M266.868,-161.515C284.654,-166.765 303.902,-172.447 321.009,-177.496"/>
<polygon fill="midnightblue" stroke="midnightblue" points="267.742,-158.123 257.16,-158.649 265.76,-164.837 267.742,-158.123"/>
</g>
<!-- Node4 -->
<g id="node4" class="node"><title>Node4</title>
<g id="a_node4"><a xlink:href="classscram_1_1core_1_1Preprocessor.xhtml#a2b6705e815fa3d02119c405b483766d5" target="_top" xlink:title="Container of unique gates by semantics. ">
<polygon fill="white" stroke="black" points="643,-115.048 643,-134.048 799,-134.048 799,-115.048 643,-115.048"/>
<text text-anchor="middle" x="721" y="-122.048" font-family="Helvetica,sans-Serif" font-size="10.00">scram::core::Preprocessor::Run</text>
</a>
</g>
</g>
<!-- Node3&#45;&gt;Node4 -->
<g id="edge3" class="edge"><title>Node3&#45;&gt;Node4</title>
<path fill="none" stroke="midnightblue" d="M449.158,-139.421C506.44,-136.275 585.044,-131.959 642.82,-128.786"/>
<polygon fill="midnightblue" stroke="midnightblue" points="448.873,-135.931 439.08,-139.974 449.257,-142.92 448.873,-135.931"/>
</g>
<!-- Node7 -->
<g id="node7" class="node"><title>Node7</title>
<g id="a_node7"><a xlink:href="classscram_1_1core_1_1Preprocessor.xhtml#a5ee92284aef510ce01a71c962d50f51c" target="_top" xlink:title="Runs the graph preprocessing. ">
<polygon fill="white" stroke="black" points="852.5,-82.5477 852.5,-112.548 984.5,-112.548 984.5,-82.5477 852.5,-82.5477"/>
<text text-anchor="start" x="860.5" y="-100.548" font-family="Helvetica,sans-Serif" font-size="10.00">scram::core::Preprocessor</text>
<text text-anchor="middle" x="918.5" y="-89.5477" font-family="Helvetica,sans-Serif" font-size="10.00">::operator()</text>
</a>
</g>
</g>
<!-- Node3&#45;&gt;Node7 -->
<g id="edge17" class="edge"><title>Node3&#45;&gt;Node7</title>
<path fill="none" stroke="midnightblue" d="M448.993,-156.241C535.391,-167.99 680.657,-178.849 799,-143.548 816.969,-138.188 817.847,-129.122 835,-121.548 842.505,-118.234 850.593,-115.236 858.668,-112.571"/>
<polygon fill="midnightblue" stroke="midnightblue" points="449.401,-152.764 439.012,-154.844 448.431,-159.696 449.401,-152.764"/>
</g>
<!-- Node9 -->
<g id="node9" class="node"><title>Node9</title>
<g id="a_node9"><a xlink:href="classscram_1_1core_1_1Preprocessor.xhtml#abf2c66723172a85b2ae87ef2a034cd1f" target="_top" xlink:title="Application of gate normalization. ">
<polygon fill="white" stroke="black" points="475,-71.5477 475,-101.548 607,-101.548 607,-71.5477 475,-71.5477"/>
<text text-anchor="start" x="483" y="-89.5477" font-family="Helvetica,sans-Serif" font-size="10.00">scram::core::Preprocessor</text>
<text text-anchor="middle" x="541" y="-78.5477" font-family="Helvetica,sans-Serif" font-size="10.00">::RunPhaseThree</text>
</a>
</g>
</g>
<!-- Node3&#45;&gt;Node9 -->
<g id="edge8" class="edge"><title>Node3&#45;&gt;Node9</title>
<path fill="none" stroke="midnightblue" d="M427.631,-125.132C449.741,-117.54 475.043,-108.852 496.033,-101.645"/>
<polygon fill="midnightblue" stroke="midnightblue" points="426.37,-121.864 418.049,-128.422 428.644,-128.485 426.37,-121.864"/>
</g>
<!-- Node10 -->
<g id="node10" class="node"><title>Node10</title>
<g id="a_node10"><a xlink:href="classscram_1_1core_1_1Preprocessor.xhtml#a5c224938dfba861f061525658bd7b156" target="_top" xlink:title="Propagation of complements. ">
<polygon fill="white" stroke="black" points="655,-240.548 655,-270.548 787,-270.548 787,-240.548 655,-240.548"/>
<text text-anchor="start" x="663" y="-258.548" font-family="Helvetica,sans-Serif" font-size="10.00">scram::core::Preprocessor</text>
<text text-anchor="middle" x="721" y="-247.548" font-family="Helvetica,sans-Serif" font-size="10.00">::RunPhaseFour</text>
</a>
</g>
</g>
<!-- Node3&#45;&gt;Node10 -->
<g id="edge11" class="edge"><title>Node3&#45;&gt;Node10</title>
<path fill="none" stroke="midnightblue" d="M431.916,-163.24C434.361,-164.597 436.735,-166.032 439,-167.548 458.607,-180.663 454.429,-195.004 475,-206.548 530.607,-237.753 603.136,-249.278 654.818,-253.434"/>
<polygon fill="midnightblue" stroke="midnightblue" points="433.324,-160.031 422.818,-158.663 430.178,-166.284 433.324,-160.031"/>
</g>
<!-- Node11 -->
<g id="node11" class="node"><title>Node11</title>
<g id="a_node11"><a xlink:href="classscram_1_1core_1_1Preprocessor.xhtml#a3569bbcd5e863c750cdfa69115399600" target="_top" xlink:title="The final phase that cleans up the graph, and puts the structure of the graph ready for analysis...">
<polygon fill="white" stroke="black" points="655,-191.548 655,-221.548 787,-221.548 787,-191.548 655,-191.548"/>
<text text-anchor="start" x="663" y="-209.548" font-family="Helvetica,sans-Serif" font-size="10.00">scram::core::Preprocessor</text>
<text text-anchor="middle" x="721" y="-198.548" font-family="Helvetica,sans-Serif" font-size="10.00">::RunPhaseFive</text>
</a>
</g>
</g>
<!-- Node3&#45;&gt;Node11 -->
<g id="edge14" class="edge"><title>Node3&#45;&gt;Node11</title>
<path fill="none" stroke="midnightblue" d="M425.247,-162.245C429.906,-164.013 434.546,-165.798 439,-167.548 455.134,-173.884 458.189,-178.323 475,-182.548 534.791,-197.574 604.989,-203.287 654.882,-205.411"/>
<polygon fill="midnightblue" stroke="midnightblue" points="426.299,-158.902 415.707,-158.659 423.835,-165.454 426.299,-158.902"/>
</g>
<!-- Node5 -->
<g id="node5" class="node"><title>Node5</title>
<g id="a_node5"><a xlink:href="classscram_1_1core_1_1Preprocessor.xhtml#a9caf4677a024ed935d831210b57b8ed9" target="_top" xlink:title="Gathers nodes in the sub&#45;graph. ">
<polygon fill="white" stroke="black" points="852.5,-131.548 852.5,-161.548 984.5,-161.548 984.5,-131.548 852.5,-131.548"/>
<text text-anchor="start" x="860.5" y="-149.548" font-family="Helvetica,sans-Serif" font-size="10.00">scram::core::Preprocessor</text>
<text text-anchor="middle" x="918.5" y="-138.548" font-family="Helvetica,sans-Serif" font-size="10.00">::GatherNodes</text>
</a>
</g>
</g>
<!-- Node4&#45;&gt;Node5 -->
<g id="edge4" class="edge"><title>Node4&#45;&gt;Node5</title>
<path fill="none" stroke="midnightblue" d="M809.255,-134.367C823.777,-136.001 838.611,-137.67 852.457,-139.228"/>
<polygon fill="midnightblue" stroke="midnightblue" points="809.595,-130.883 799.267,-133.243 808.813,-137.839 809.595,-130.883"/>
</g>
<!-- Node6 -->
<g id="node6" class="node"><title>Node6</title>
<g id="a_node6"><a xlink:href="classscram_1_1core_1_1CustomPreprocessor_3_01Zbdd_01_4.xhtml#a5185075f852c647c7aa4313d23420ee5" target="_top" xlink:title="Performs preprocessing for analyses with Zero&#45;Suppressed Binary Decision Diagrams. ">
<polygon fill="white" stroke="black" points="835,-191.548 835,-221.548 1002,-221.548 1002,-191.548 835,-191.548"/>
<text text-anchor="start" x="843" y="-209.548" font-family="Helvetica,sans-Serif" font-size="10.00">scram::core::CustomPreprocessor</text>
<text text-anchor="middle" x="918.5" y="-198.548" font-family="Helvetica,sans-Serif" font-size="10.00">&lt; Zbdd &gt;::Run</text>
</a>
</g>
</g>
<!-- Node4&#45;&gt;Node6 -->
<g id="edge5" class="edge"><title>Node4&#45;&gt;Node6</title>
<path fill="none" stroke="midnightblue" d="M754.104,-138.013C789.148,-152.712 845.119,-176.188 881.594,-191.487"/>
<polygon fill="midnightblue" stroke="midnightblue" points="755.384,-134.755 744.809,-134.115 752.677,-141.21 755.384,-134.755"/>
</g>
<!-- Node4&#45;&gt;Node7 -->
<g id="edge6" class="edge"><title>Node4&#45;&gt;Node7</title>
<path fill="none" stroke="midnightblue" d="M800.9,-113.651C818.025,-111.286 835.953,-108.81 852.471,-106.529"/>
<polygon fill="midnightblue" stroke="midnightblue" points="800.353,-110.193 790.926,-115.029 801.311,-117.127 800.353,-110.193"/>
</g>
<!-- Node8 -->
<g id="node8" class="node"><title>Node8</title>
<g id="a_node8"><a xlink:href="classscram_1_1core_1_1Preprocessor_1_1GateSet.xhtml#ae00239084858979e096032c4cf2f05b9" target="_top" xlink:title="Inserts a gate into the set if it is semantically unique. ">
<polygon fill="white" stroke="black" points="1038,-82.5477 1038,-112.548 1170,-112.548 1170,-82.5477 1038,-82.5477"/>
<text text-anchor="start" x="1046" y="-100.548" font-family="Helvetica,sans-Serif" font-size="10.00">scram::core::Preprocessor</text>
<text text-anchor="middle" x="1104" y="-89.5477" font-family="Helvetica,sans-Serif" font-size="10.00">::GateSet::insert</text>
</a>
</g>
</g>
<!-- Node7&#45;&gt;Node8 -->
<g id="edge7" class="edge"><title>Node7&#45;&gt;Node8</title>
<path fill="none" stroke="midnightblue" d="M994.989,-97.5477C1009.26,-97.5477 1024.08,-97.5477 1038,-97.5477"/>
<polygon fill="midnightblue" stroke="midnightblue" points="994.712,-94.0478 984.712,-97.5477 994.712,-101.048 994.712,-94.0478"/>
</g>
<!-- Node9&#45;&gt;Node4 -->
<g id="edge9" class="edge"><title>Node9&#45;&gt;Node4</title>
<path fill="none" stroke="midnightblue" d="M617,-102.559C636.897,-106.807 657.751,-111.259 675.45,-115.037"/>
<polygon fill="midnightblue" stroke="midnightblue" points="617.528,-99.0929 607.018,-100.428 616.067,-105.939 617.528,-99.0929"/>
</g>
<!-- Node9&#45;&gt;Node7 -->
<g id="edge10" class="edge"><title>Node9&#45;&gt;Node7</title>
<path fill="none" stroke="midnightblue" d="M617.74,-88.7664C686.516,-90.7812 786.901,-93.7219 852.214,-95.6352"/>
<polygon fill="midnightblue" stroke="midnightblue" points="617.505,-85.2582 607.407,-88.4638 617.3,-92.2552 617.505,-85.2582"/>
</g>
<!-- Node10&#45;&gt;Node6 -->
<g id="edge12" class="edge"><title>Node10&#45;&gt;Node6</title>
<path fill="none" stroke="midnightblue" d="M791.729,-238.071C813.277,-232.67 836.808,-226.772 857.628,-221.554"/>
<polygon fill="midnightblue" stroke="midnightblue" points="790.834,-234.687 781.985,-240.513 792.536,-241.477 790.834,-234.687"/>
</g>
<!-- Node10&#45;&gt;Node7 -->
<g id="edge13" class="edge"><title>Node10&#45;&gt;Node7</title>
<path fill="none" stroke="midnightblue" d="M794.389,-234.65C796.001,-233.363 797.543,-231.998 799,-230.548 835.166,-194.564 798.283,-156.97 835,-121.548 840.046,-116.68 846.019,-112.791 852.41,-109.685"/>
<polygon fill="midnightblue" stroke="midnightblue" points="792.135,-231.948 785.807,-240.445 796.053,-237.749 792.135,-231.948"/>
</g>
<!-- Node11&#45;&gt;Node6 -->
<g id="edge15" class="edge"><title>Node11&#45;&gt;Node6</title>
<path fill="none" stroke="midnightblue" d="M797.313,-206.548C809.636,-206.548 822.462,-206.548 834.949,-206.548"/>
<polygon fill="midnightblue" stroke="midnightblue" points="797.099,-203.048 787.099,-206.548 797.099,-210.048 797.099,-203.048"/>
</g>
<!-- Node11&#45;&gt;Node7 -->
<g id="edge16" class="edge"><title>Node11&#45;&gt;Node7</title>
<path fill="none" stroke="midnightblue" d="M782.883,-187.075C788.612,-184.014 794.1,-180.521 799,-176.548 821.692,-158.146 811.517,-138.928 835,-121.548 840.276,-117.643 846.175,-114.372 852.327,-111.631"/>
<polygon fill="midnightblue" stroke="midnightblue" points="781.185,-184.009 773.73,-191.537 784.252,-190.302 781.185,-184.009"/>
</g>
<!-- Node13&#45;&gt;Node7 -->
<g id="edge24" class="edge"><title>Node13&#45;&gt;Node7</title>
<path fill="none" stroke="midnightblue" d="M400.357,-51.486C419.744,-37.4054 447.417,-20.1226 475,-12.5477 627.755,29.403 815.722,-48.1986 887.614,-82.4658"/>
<polygon fill="midnightblue" stroke="midnightblue" points="398.241,-48.6977 392.322,-57.4848 402.429,-54.3069 398.241,-48.6977"/>
</g>
<!-- Node13&#45;&gt;Node9 -->
<g id="edge23" class="edge"><title>Node13&#45;&gt;Node9</title>
<path fill="none" stroke="midnightblue" d="M449.114,-78.8826C457.681,-79.6051 466.361,-80.3372 474.784,-81.0476"/>
<polygon fill="midnightblue" stroke="midnightblue" points="449.39,-75.3935 439.131,-78.0407 448.802,-82.3688 449.39,-75.3935"/>
</g>
<!-- Node14 -->
<g id="node14" class="node"><title>Node14</title>
<g id="a_node14"><a xlink:href="classscram_1_1core_1_1Preprocessor.xhtml#a44f820b6fe2c23594c818432b33e26a6" target="_top" xlink:title="The initial phase of preprocessing. ">
<polygon fill="white" stroke="black" points="475,-22.5477 475,-52.5477 607,-52.5477 607,-22.5477 475,-22.5477"/>
<text text-anchor="start" x="483" y="-40.5477" font-family="Helvetica,sans-Serif" font-size="10.00">scram::core::Preprocessor</text>
<text text-anchor="middle" x="541" y="-29.5477" font-family="Helvetica,sans-Serif" font-size="10.00">::RunPhaseOne</text>
</a>
</g>
</g>
<!-- Node13&#45;&gt;Node14 -->
<g id="edge20" class="edge"><title>Node13&#45;&gt;Node14</title>
<path fill="none" stroke="midnightblue" d="M449.114,-56.7104C457.681,-54.9042 466.361,-53.0741 474.784,-51.298"/>
<polygon fill="midnightblue" stroke="midnightblue" points="448.194,-53.3274 439.131,-58.8152 449.638,-60.1768 448.194,-53.3274"/>
</g>
<!-- Node14&#45;&gt;Node4 -->
<g id="edge21" class="edge"><title>Node14&#45;&gt;Node4</title>
<path fill="none" stroke="midnightblue" d="M595.179,-56.4085C599.209,-58.0735 603.189,-59.7944 607,-61.5477 643.118,-78.1624 683.31,-101.919 704.677,-114.999"/>
<polygon fill="midnightblue" stroke="midnightblue" points="596.321,-53.0957 585.736,-52.6365 593.724,-59.5963 596.321,-53.0957"/>
</g>
<!-- Node14&#45;&gt;Node7 -->
<g id="edge22" class="edge"><title>Node14&#45;&gt;Node7</title>
<path fill="none" stroke="midnightblue" d="M617.317,-49.5823C686.104,-60.5736 786.767,-76.6583 852.214,-87.1158"/>
<polygon fill="midnightblue" stroke="midnightblue" points="617.834,-46.1207 607.407,-47.9989 616.73,-53.033 617.834,-46.1207"/>
</g>
</g>
</svg>
        <g id="navigator" transform="translate(0 0)" fill="#404254">
                <rect fill="#f2f5e9" fill-opacity="0.5" stroke="#606060" stroke-width=".5" x="0" y="0" width="60" height="60"/>
                <use id="zoomplus" xlink:href="#zoomPlus" x="17" y="9" onmousedown="handleZoom(evt,'in')"/>
                <use id="zoomminus" xlink:href="#zoomMin" x="42" y="9" onmousedown="handleZoom(evt,'out')"/>
                <use id="reset" xlink:href="#resetDef" x="30" y="36" onmousedown="handleReset()"/>
                <g id="arrowUp" xlink:href="#dirArrow" transform="translate(30 24)" onmousedown="handlePan(0,-1)">
                  <use xlink:href="#rim" fill="#404040">
                        <set attributeName="fill" to="#808080" begin="arrowUp.mouseover" end="arrowUp.mouseout"/>
                  </use>
                  <path fill="none" stroke="white" stroke-width="1.5" d="M0,-3.0v7 M-2.5,-0.5L0,-3.0L2.5,-0.5"/>
                </g>
                <g id="arrowRight" xlink:href="#dirArrow" transform="rotate(90) translate(36 -43)" onmousedown="handlePan(1,0)">
                  <use xlink:href="#rim" fill="#404040">
                        <set attributeName="fill" to="#808080" begin="arrowRight.mouseover" end="arrowRight.mouseout"/>
                  </use>
                  <path fill="none" stroke="white" stroke-width="1.5" d="M0,-3.0v7 M-2.5,-0.5L0,-3.0L2.5,-0.5"/>
                </g>
                <g id="arrowDown" xlink:href="#dirArrow" transform="rotate(180) translate(-30 -48)" onmousedown="handlePan(0,1)">
                  <use xlink:href="#rim" fill="#404040">
                        <set attributeName="fill" to="#808080" begin="arrowDown.mouseover" end="arrowDown.mouseout"/>
                  </use>
                  <path fill="none" stroke="white" stroke-width="1.5" d="M0,-3.0v7 M-2.5,-0.5L0,-3.0L2.5,-0.5"/>
                </g>
                <g id="arrowLeft" xlink:href="#dirArrow" transform="rotate(270) translate(-36 17)" onmousedown="handlePan(-1,0)">
                  <use xlink:href="#rim" fill="#404040">
                        <set attributeName="fill" to="#808080" begin="arrowLeft.mouseover" end="arrowLeft.mouseout"/>
                  </use>
                  <path fill="none" stroke="white" stroke-width="1.5" d="M0,-3.0v7 M-2.5,-0.5L0,-3.0L2.5,-0.5"/>
                </g>
        </g>
        <svg viewBox="0 0 15 15" width="100%" height="30px" preserveAspectRatio="xMaxYMin meet">
         <g id="arrow_out" transform="scale(0.3 0.3)">
          <a xlink:href="classscram_1_1core_1_1Pdag_a7933096368b6a16f9d6aab7c4abbb02b_icgraph_org.svg" target="_base">
           <rect id="button" ry="5" rx="5" y="6" x="6" height="38" width="38"
                fill="#f2f5e9" fill-opacity="0.5" stroke="#606060" stroke-width="1.0"/>
           <path id="arrow"
             d="M 11.500037,31.436501 C 11.940474,20.09759 22.043105,11.32322 32.158766,21.979434 L 37.068811,17.246167 C 37.068811,17.246167 37.088388,32 37.088388,32 L 22.160133,31.978069 C 22.160133,31.978069 26.997745,27.140456 26.997745,27.140456 C 18.528582,18.264221 13.291696,25.230495 11.500037,31.436501 z"
             style="fill:#404040;"/>
          </a>
         </g>
        </svg>
</svg>
