<?xml version="1.0" encoding="UTF-8" standalone="no"?>
<!DOCTYPE svg PUBLIC "-//W3C//DTD SVG 1.1//EN"
 "http://www.w3.org/Graphics/SVG/1.1/DTD/svg11.dtd">
<!-- Generated by graphviz version 2.38.0 (20140413.2041)
 -->
<!-- Title: scram::core::Settings::time_step Pages: 1 -->
<svg width="297pt" height="78pt"
 viewBox="0.00 0.00 297.00 77.50" xmlns="http://www.w3.org/2000/svg" xmlns:xlink="http://www.w3.org/1999/xlink">
<g id="graph0" class="graph" transform="scale(1 1) rotate(0) translate(4 73.5)">
<title>scram::core::Settings::time_step</title>
<polygon fill="white" stroke="none" points="-4,4 -4,-73.5 293,-73.5 293,4 -4,4"/>
<!-- Node1 -->
<g id="node1" class="node"><title>Node1</title>
<polygon fill="#bfbfbf" stroke="black" points="0,-17 0,-47 110,-47 110,-17 0,-17"/>
<text text-anchor="start" x="8" y="-35" font-family="Helvetica,sans-Serif" font-size="10.00">scram::core::Settings</text>
<text text-anchor="middle" x="55" y="-24" font-family="Helvetica,sans-Serif" font-size="10.00">::time_step</text>
</g>
<!-- Node2 -->
<g id="node2" class="node"><title>Node2</title>
<g id="a_node2"><a xlink:href="classscram_1_1core_1_1McubCalculator.xhtml#af47379d2ba9190b34aef1acfa402e15c" target="_top" xlink:title="Calculates probabilities using the minimal cut set upper bound (MCUB) approximation. ">
<polygon fill="white" stroke="black" points="146,-39 146,-69 289,-69 289,-39 146,-39"/>
<text text-anchor="start" x="154" y="-57" font-family="Helvetica,sans-Serif" font-size="10.00">scram::core::McubCalculator</text>
<text text-anchor="middle" x="217.5" y="-46" font-family="Helvetica,sans-Serif" font-size="10.00">::Calculate</text>
</a>
</g>
</g>
<!-- Node1&#45;&gt;Node2 -->
<g id="edge1" class="edge"><title>Node1&#45;&gt;Node2</title>
<path fill="none" stroke="midnightblue" d="M120.365,-40.8226C128.704,-41.9656 137.28,-43.1412 145.715,-44.2974"/>
<polygon fill="midnightblue" stroke="midnightblue" points="120.721,-37.3387 110.338,-39.4482 119.77,-44.2739 120.721,-37.3387"/>
</g>
<!-- Node3 -->
<g id="node3" class="node"><title>Node3</title>
<g id="a_node3"><a xlink:href="classscram_1_1Config.xhtml#ab0d7940fbb627fab9867821e133eab5d" target="_top" xlink:title="A constructor with configurations for analysis. ">
<polygon fill="white" stroke="black" points="161,-0.5 161,-19.5 274,-19.5 274,-0.5 161,-0.5"/>
<text text-anchor="middle" x="217.5" y="-7.5" font-family="Helvetica,sans-Serif" font-size="10.00">scram::Config::Config</text>
</a>
</g>
</g>
<!-- Node1&#45;&gt;Node3 -->
<g id="edge2" class="edge"><title>Node1&#45;&gt;Node3</title>
<path fill="none" stroke="midnightblue" d="M120.429,-23.1686C133.815,-21.3338 147.812,-19.4151 160.85,-17.628"/>
<polygon fill="midnightblue" stroke="midnightblue" points="119.77,-19.7261 110.338,-24.5518 120.721,-26.6613 119.77,-19.7261"/>
</g>
</g>
</svg>
