<?xml version="1.0" encoding="UTF-8" standalone="no"?>
<!DOCTYPE svg PUBLIC "-//W3C//DTD SVG 1.1//EN"
 "http://www.w3.org/Graphics/SVG/1.1/DTD/svg11.dtd">
<!-- Generated by graphviz version 2.38.0 (20140413.2041)
 -->
<!-- Title: scram::core::Constant::value Pages: 1 -->
<svg width="427pt" height="52pt"
 viewBox="0.00 0.00 427.00 51.50" xmlns="http://www.w3.org/2000/svg" xmlns:xlink="http://www.w3.org/1999/xlink">
<g id="graph0" class="graph" transform="scale(1 1) rotate(0) translate(4 47.5)">
<title>scram::core::Constant::value</title>
<polygon fill="white" stroke="none" points="-4,4 -4,-47.5 423,-47.5 423,4 -4,4"/>
<!-- Node1 -->
<g id="node1" class="node"><title>Node1</title>
<polygon fill="#bfbfbf" stroke="black" points="0,-0.5 0,-30.5 114,-30.5 114,-0.5 0,-0.5"/>
<text text-anchor="start" x="8" y="-18.5" font-family="Helvetica,sans-Serif" font-size="10.00">scram::core::Constant</text>
<text text-anchor="middle" x="57" y="-7.5" font-family="Helvetica,sans-Serif" font-size="10.00">::value</text>
</g>
<!-- Node2 -->
<g id="node2" class="node"><title>Node2</title>
<g id="a_node2"><a xlink:href="pdag_8cc.xhtml#a3655e18b0516364663797b84c544bd8b" target="_top" xlink:title="Prints PDAG nodes in the Aralia format. ">
<polygon fill="white" stroke="black" points="150,-6 150,-25 272,-25 272,-6 150,-6"/>
<text text-anchor="middle" x="211" y="-13" font-family="Helvetica,sans-Serif" font-size="10.00">scram::core::operator&lt;&lt;</text>
</a>
</g>
</g>
<!-- Node1&#45;&gt;Node2 -->
<g id="edge1" class="edge"><title>Node1&#45;&gt;Node2</title>
<path fill="none" stroke="midnightblue" d="M124.427,-15.5C132.928,-15.5 141.591,-15.5 149.982,-15.5"/>
<polygon fill="midnightblue" stroke="midnightblue" points="124.167,-12.0001 114.167,-15.5 124.167,-19.0001 124.167,-12.0001"/>
</g>
<!-- Node2&#45;&gt;Node2 -->
<g id="edge2" class="edge"><title>Node2&#45;&gt;Node2</title>
<path fill="none" stroke="midnightblue" d="M182.628,-34.1539C183.814,-39.4368 193.271,-43.5 211,-43.5 238.016,-43.5 245.825,-34.0653 234.428,-25.2571"/>
<polygon fill="midnightblue" stroke="midnightblue" points="185.774,-35.6981 187.572,-25.2571 179.655,-32.2974 185.774,-35.6981"/>
</g>
<!-- Node3 -->
<g id="node3" class="node"><title>Node3</title>
<g id="a_node3"><a xlink:href="pdag_8h.xhtml#a7bd9efe5b5cecc9ce62631d4b752d3b2" target="_top" xlink:title="Specialization to clear the generic mark for the whole graph. ">
<polygon fill="white" stroke="black" points="308,-0.5 308,-30.5 419,-30.5 419,-0.5 308,-0.5"/>
<text text-anchor="start" x="316" y="-18.5" font-family="Helvetica,sans-Serif" font-size="10.00">scram::core::Clear</text>
<text text-anchor="middle" x="363.5" y="-7.5" font-family="Helvetica,sans-Serif" font-size="10.00">&lt; Pdag::kGateMark &gt;</text>
</a>
</g>
</g>
<!-- Node2&#45;&gt;Node3 -->
<g id="edge3" class="edge"><title>Node2&#45;&gt;Node3</title>
<path fill="none" stroke="midnightblue" d="M282.376,-15.5C290.976,-15.5 299.661,-15.5 307.98,-15.5"/>
<polygon fill="midnightblue" stroke="midnightblue" points="282.347,-12.0001 272.347,-15.5 282.347,-19.0001 282.347,-12.0001"/>
</g>
</g>
</svg>
