<?xml version="1.0" encoding="UTF-8" standalone="no"?>
<!DOCTYPE svg PUBLIC "-//W3C//DTD SVG 1.1//EN"
 "http://www.w3.org/Graphics/SVG/1.1/DTD/svg11.dtd">
<!-- Generated by graphviz version 2.38.0 (20140413.2041)
 -->
<!-- Title: scram::core::Preprocessor::FindModules Pages: 1 -->
<svg width="1207pt" height="278pt"
 viewBox="0.00 0.00 1207.00 277.50" xmlns="http://www.w3.org/2000/svg" xmlns:xlink="http://www.w3.org/1999/xlink">
<g id="graph0" class="graph" transform="scale(1 1) rotate(0) translate(4 273.5)">
<title>scram::core::Preprocessor::FindModules</title>
<polygon fill="white" stroke="none" points="-4,4 -4,-273.5 1203,-273.5 1203,4 -4,4"/>
<!-- Node1 -->
<g id="node1" class="node"><title>Node1</title>
<polygon fill="#bfbfbf" stroke="black" points="0,-232.5 0,-262.5 132,-262.5 132,-232.5 0,-232.5"/>
<text text-anchor="start" x="8" y="-250.5" font-family="Helvetica,sans-Serif" font-size="10.00">scram::core::Preprocessor</text>
<text text-anchor="middle" x="66" y="-239.5" font-family="Helvetica,sans-Serif" font-size="10.00">::FindModules</text>
</g>
<!-- Node2 -->
<g id="node2" class="node"><title>Node2</title>
<g id="a_node2"><a xlink:href="classscram_1_1core_1_1Preprocessor.xhtml#aa9856913eee7b854abfbe8d8330566d3" target="_top" xlink:title="Traverses the PDAG to detect modules. ">
<polygon fill="white" stroke="black" points="168,-210.5 168,-240.5 300,-240.5 300,-210.5 168,-210.5"/>
<text text-anchor="start" x="176" y="-228.5" font-family="Helvetica,sans-Serif" font-size="10.00">scram::core::Preprocessor</text>
<text text-anchor="middle" x="234" y="-217.5" font-family="Helvetica,sans-Serif" font-size="10.00">::DetectModules</text>
</a>
</g>
</g>
<!-- Node1&#45;&gt;Node2 -->
<g id="edge1" class="edge"><title>Node1&#45;&gt;Node2</title>
<path fill="none" stroke="midnightblue" d="M142.114,-237.545C150.681,-236.41 159.361,-235.259 167.784,-234.143"/>
<polygon fill="midnightblue" stroke="midnightblue" points="141.585,-234.085 132.131,-238.868 142.504,-241.024 141.585,-234.085"/>
</g>
<!-- Node3 -->
<g id="node3" class="node"><title>Node3</title>
<g id="a_node3"><a xlink:href="classscram_1_1core_1_1Preprocessor.xhtml#a5ee92284aef510ce01a71c962d50f51c" target="_top" xlink:title="Runs the graph preprocessing. ">
<polygon fill="white" stroke="black" points="881.5,-134.5 881.5,-164.5 1013.5,-164.5 1013.5,-134.5 881.5,-134.5"/>
<text text-anchor="start" x="889.5" y="-152.5" font-family="Helvetica,sans-Serif" font-size="10.00">scram::core::Preprocessor</text>
<text text-anchor="middle" x="947.5" y="-141.5" font-family="Helvetica,sans-Serif" font-size="10.00">::operator()</text>
</a>
</g>
</g>
<!-- Node1&#45;&gt;Node3 -->
<g id="edge19" class="edge"><title>Node1&#45;&gt;Node3</title>
<path fill="none" stroke="midnightblue" d="M142.334,-255.301C209.967,-261.628 312.008,-269.5 401,-269.5 401,-269.5 401,-269.5 571,-269.5 687.537,-269.5 718.946,-258.586 828,-217.5 864.18,-203.869 902.328,-180.028 925.271,-164.506"/>
<polygon fill="midnightblue" stroke="midnightblue" points="142.482,-251.8 132.196,-254.34 141.821,-258.768 142.482,-251.8"/>
</g>
<!-- Node2&#45;&gt;Node3 -->
<g id="edge2" class="edge"><title>Node2&#45;&gt;Node3</title>
<path fill="none" stroke="midnightblue" d="M310.576,-227.95C424.121,-230.112 644.936,-228.408 828,-191.5 857.206,-185.612 888.957,-174.062 912.235,-164.562"/>
<polygon fill="midnightblue" stroke="midnightblue" points="310.33,-224.444 300.26,-227.737 310.186,-231.443 310.33,-224.444"/>
</g>
<!-- Node5 -->
<g id="node5" class="node"><title>Node5</title>
<g id="a_node5"><a xlink:href="classscram_1_1core_1_1Preprocessor.xhtml#a9d5f89471499508eb9e6c01ea43e0f15" target="_top" xlink:title="Preprocessing phase of the original structure of the graph. ">
<polygon fill="white" stroke="black" points="336,-115.5 336,-145.5 468,-145.5 468,-115.5 336,-115.5"/>
<text text-anchor="start" x="344" y="-133.5" font-family="Helvetica,sans-Serif" font-size="10.00">scram::core::Preprocessor</text>
<text text-anchor="middle" x="402" y="-122.5" font-family="Helvetica,sans-Serif" font-size="10.00">::RunPhaseTwo</text>
</a>
</g>
</g>
<!-- Node2&#45;&gt;Node5 -->
<g id="edge4" class="edge"><title>Node2&#45;&gt;Node5</title>
<path fill="none" stroke="midnightblue" d="M270.116,-205.403C301.331,-187.539 346.279,-161.816 374.546,-145.64"/>
<polygon fill="midnightblue" stroke="midnightblue" points="268.244,-202.442 261.303,-210.447 271.721,-208.518 268.244,-202.442"/>
</g>
<!-- Node4 -->
<g id="node4" class="node"><title>Node4</title>
<g id="a_node4"><a xlink:href="classscram_1_1core_1_1Preprocessor_1_1GateSet.xhtml#ae00239084858979e096032c4cf2f05b9" target="_top" xlink:title="Inserts a gate into the set if it is semantically unique. ">
<polygon fill="white" stroke="black" points="1067,-134.5 1067,-164.5 1199,-164.5 1199,-134.5 1067,-134.5"/>
<text text-anchor="start" x="1075" y="-152.5" font-family="Helvetica,sans-Serif" font-size="10.00">scram::core::Preprocessor</text>
<text text-anchor="middle" x="1133" y="-141.5" font-family="Helvetica,sans-Serif" font-size="10.00">::GateSet::insert</text>
</a>
</g>
</g>
<!-- Node3&#45;&gt;Node4 -->
<g id="edge3" class="edge"><title>Node3&#45;&gt;Node4</title>
<path fill="none" stroke="midnightblue" d="M1023.99,-149.5C1038.26,-149.5 1053.08,-149.5 1067,-149.5"/>
<polygon fill="midnightblue" stroke="midnightblue" points="1023.71,-146 1013.71,-149.5 1023.71,-153 1023.71,-146"/>
</g>
<!-- Node5&#45;&gt;Node3 -->
<g id="edge5" class="edge"><title>Node5&#45;&gt;Node3</title>
<path fill="none" stroke="midnightblue" d="M474.129,-147.684C484.126,-149.811 494.298,-151.823 504,-153.5 646.165,-178.079 684.445,-187.891 828,-173.5 846.38,-171.657 866.126,-168.246 884.127,-164.561"/>
<polygon fill="midnightblue" stroke="midnightblue" points="474.73,-144.233 464.214,-145.527 473.242,-151.073 474.73,-144.233"/>
</g>
<!-- Node6 -->
<g id="node6" class="node"><title>Node6</title>
<g id="a_node6"><a xlink:href="classscram_1_1core_1_1Preprocessor.xhtml#a2b6705e815fa3d02119c405b483766d5" target="_top" xlink:title="Container of unique gates by semantics. ">
<polygon fill="white" stroke="black" points="672,-8 672,-27 828,-27 828,-8 672,-8"/>
<text text-anchor="middle" x="750" y="-15" font-family="Helvetica,sans-Serif" font-size="10.00">scram::core::Preprocessor::Run</text>
</a>
</g>
</g>
<!-- Node5&#45;&gt;Node6 -->
<g id="edge6" class="edge"><title>Node5&#45;&gt;Node6</title>
<path fill="none" stroke="midnightblue" d="M421.865,-107.419C440.391,-86.553 470.66,-56.9592 504,-42.5 556.856,-19.5768 621.949,-13.8591 671.753,-13.5852"/>
<polygon fill="midnightblue" stroke="midnightblue" points="419.021,-105.357 415.129,-115.211 424.317,-109.935 419.021,-105.357"/>
</g>
<!-- Node9 -->
<g id="node9" class="node"><title>Node9</title>
<g id="a_node9"><a xlink:href="classscram_1_1core_1_1Preprocessor.xhtml#a3569bbcd5e863c750cdfa69115399600" target="_top" xlink:title="The final phase that cleans up the graph, and puts the structure of the graph ready for analysis...">
<polygon fill="white" stroke="black" points="684,-134.5 684,-164.5 816,-164.5 816,-134.5 684,-134.5"/>
<text text-anchor="start" x="692" y="-152.5" font-family="Helvetica,sans-Serif" font-size="10.00">scram::core::Preprocessor</text>
<text text-anchor="middle" x="750" y="-141.5" font-family="Helvetica,sans-Serif" font-size="10.00">::RunPhaseFive</text>
</a>
</g>
</g>
<!-- Node5&#45;&gt;Node9 -->
<g id="edge10" class="edge"><title>Node5&#45;&gt;Node9</title>
<path fill="none" stroke="midnightblue" d="M478.097,-134.624C539.493,-137.995 625.413,-142.713 683.918,-145.926"/>
<polygon fill="midnightblue" stroke="midnightblue" points="478.257,-131.127 468.08,-134.074 477.873,-138.117 478.257,-131.127"/>
</g>
<!-- Node10 -->
<g id="node10" class="node"><title>Node10</title>
<g id="a_node10"><a xlink:href="classscram_1_1core_1_1Preprocessor.xhtml#a5c224938dfba861f061525658bd7b156" target="_top" xlink:title="Propagation of complements. ">
<polygon fill="white" stroke="black" points="684,-46.5 684,-76.5 816,-76.5 816,-46.5 684,-46.5"/>
<text text-anchor="start" x="692" y="-64.5" font-family="Helvetica,sans-Serif" font-size="10.00">scram::core::Preprocessor</text>
<text text-anchor="middle" x="750" y="-53.5" font-family="Helvetica,sans-Serif" font-size="10.00">::RunPhaseFour</text>
</a>
</g>
</g>
<!-- Node5&#45;&gt;Node10 -->
<g id="edge13" class="edge"><title>Node5&#45;&gt;Node10</title>
<path fill="none" stroke="midnightblue" d="M478.24,-119.736C524.046,-112.73 583.634,-102.808 636,-91.5 655.84,-87.2157 677.423,-81.7009 696.359,-76.5706"/>
<polygon fill="midnightblue" stroke="midnightblue" points="477.454,-116.315 468.092,-121.275 478.504,-123.236 477.454,-116.315"/>
</g>
<!-- Node11 -->
<g id="node11" class="node"><title>Node11</title>
<g id="a_node11"><a xlink:href="classscram_1_1core_1_1Preprocessor.xhtml#abf2c66723172a85b2ae87ef2a034cd1f" target="_top" xlink:title="Application of gate normalization. ">
<polygon fill="white" stroke="black" points="504,-52.5 504,-82.5 636,-82.5 636,-52.5 504,-52.5"/>
<text text-anchor="start" x="512" y="-70.5" font-family="Helvetica,sans-Serif" font-size="10.00">scram::core::Preprocessor</text>
<text text-anchor="middle" x="570" y="-59.5" font-family="Helvetica,sans-Serif" font-size="10.00">::RunPhaseThree</text>
</a>
</g>
</g>
<!-- Node5&#45;&gt;Node11 -->
<g id="edge16" class="edge"><title>Node5&#45;&gt;Node11</title>
<path fill="none" stroke="midnightblue" d="M452.269,-111.801C476.841,-102.476 506.166,-91.3467 529.276,-82.576"/>
<polygon fill="midnightblue" stroke="midnightblue" points="450.869,-108.589 442.761,-115.41 453.352,-115.134 450.869,-108.589"/>
</g>
<!-- Node6&#45;&gt;Node3 -->
<g id="edge8" class="edge"><title>Node6&#45;&gt;Node3</title>
<path fill="none" stroke="midnightblue" d="M818.724,-31.0723C821.963,-32.6834 825.077,-34.4851 828,-36.5 851.142,-52.4547 844.436,-68.3168 864,-88.5 881.357,-106.406 904.403,-122.971 921.725,-134.306"/>
<polygon fill="midnightblue" stroke="midnightblue" points="819.893,-27.7651 809.325,-27.0179 817.121,-34.1926 819.893,-27.7651"/>
</g>
<!-- Node7 -->
<g id="node7" class="node"><title>Node7</title>
<g id="a_node7"><a xlink:href="classscram_1_1core_1_1Preprocessor.xhtml#a9caf4677a024ed935d831210b57b8ed9" target="_top" xlink:title="Gathers nodes in the sub&#45;graph. ">
<polygon fill="white" stroke="black" points="881.5,-0.5 881.5,-30.5 1013.5,-30.5 1013.5,-0.5 881.5,-0.5"/>
<text text-anchor="start" x="889.5" y="-18.5" font-family="Helvetica,sans-Serif" font-size="10.00">scram::core::Preprocessor</text>
<text text-anchor="middle" x="947.5" y="-7.5" font-family="Helvetica,sans-Serif" font-size="10.00">::GatherNodes</text>
</a>
</g>
</g>
<!-- Node6&#45;&gt;Node7 -->
<g id="edge7" class="edge"><title>Node6&#45;&gt;Node7</title>
<path fill="none" stroke="midnightblue" d="M838.674,-16.6031C853.062,-16.4559 867.744,-16.3057 881.457,-16.1654"/>
<polygon fill="midnightblue" stroke="midnightblue" points="838.23,-13.1073 828.267,-16.7095 838.302,-20.107 838.23,-13.1073"/>
</g>
<!-- Node8 -->
<g id="node8" class="node"><title>Node8</title>
<g id="a_node8"><a xlink:href="classscram_1_1core_1_1CustomPreprocessor_3_01Zbdd_01_4.xhtml#a5185075f852c647c7aa4313d23420ee5" target="_top" xlink:title="Performs preprocessing for analyses with Zero&#45;Suppressed Binary Decision Diagrams. ">
<polygon fill="white" stroke="black" points="864,-49.5 864,-79.5 1031,-79.5 1031,-49.5 864,-49.5"/>
<text text-anchor="start" x="872" y="-67.5" font-family="Helvetica,sans-Serif" font-size="10.00">scram::core::CustomPreprocessor</text>
<text text-anchor="middle" x="947.5" y="-56.5" font-family="Helvetica,sans-Serif" font-size="10.00">&lt; Zbdd &gt;::Run</text>
</a>
</g>
</g>
<!-- Node6&#45;&gt;Node8 -->
<g id="edge9" class="edge"><title>Node6&#45;&gt;Node8</title>
<path fill="none" stroke="midnightblue" d="M800.33,-29.3595C825.69,-35.4561 856.866,-42.9512 883.903,-49.4512"/>
<polygon fill="midnightblue" stroke="midnightblue" points="801.103,-25.9457 790.562,-27.0112 799.467,-32.7518 801.103,-25.9457"/>
</g>
<!-- Node9&#45;&gt;Node3 -->
<g id="edge11" class="edge"><title>Node9&#45;&gt;Node3</title>
<path fill="none" stroke="midnightblue" d="M826.341,-149.5C844.486,-149.5 863.718,-149.5 881.353,-149.5"/>
<polygon fill="midnightblue" stroke="midnightblue" points="826.099,-146 816.099,-149.5 826.099,-153 826.099,-146"/>
</g>
<!-- Node9&#45;&gt;Node8 -->
<g id="edge12" class="edge"><title>Node9&#45;&gt;Node8</title>
<path fill="none" stroke="midnightblue" d="M795.066,-130.341C830.334,-115.007 879.118,-93.7967 911.686,-79.6366"/>
<polygon fill="midnightblue" stroke="midnightblue" points="793.277,-127.302 785.501,-134.499 796.068,-133.722 793.277,-127.302"/>
</g>
<!-- Node10&#45;&gt;Node3 -->
<g id="edge14" class="edge"><title>Node10&#45;&gt;Node3</title>
<path fill="none" stroke="midnightblue" d="M800.933,-80.2519C809.995,-83.8539 819.321,-87.6934 828,-91.5 858.835,-105.025 893.33,-122.141 917.116,-134.265"/>
<polygon fill="midnightblue" stroke="midnightblue" points="802.21,-76.9934 791.623,-76.5955 799.651,-83.5089 802.21,-76.9934"/>
</g>
<!-- Node10&#45;&gt;Node8 -->
<g id="edge15" class="edge"><title>Node10&#45;&gt;Node8</title>
<path fill="none" stroke="midnightblue" d="M826.313,-62.6557C838.636,-62.8448 851.462,-63.0416 863.949,-63.2332"/>
<polygon fill="midnightblue" stroke="midnightblue" points="826.151,-59.1529 816.099,-62.499 826.044,-66.1521 826.151,-59.1529"/>
</g>
<!-- Node11&#45;&gt;Node3 -->
<g id="edge17" class="edge"><title>Node11&#45;&gt;Node3</title>
<path fill="none" stroke="midnightblue" d="M646.317,-83.9473C715.104,-98.9688 815.767,-120.951 881.214,-135.243"/>
<polygon fill="midnightblue" stroke="midnightblue" points="646.924,-80.4974 636.407,-81.7833 645.43,-87.3363 646.924,-80.4974"/>
</g>
<!-- Node11&#45;&gt;Node6 -->
<g id="edge18" class="edge"><title>Node11&#45;&gt;Node6</title>
<path fill="none" stroke="midnightblue" d="M627.857,-49.4399C642.216,-45.0469 657.636,-40.4731 672,-36.5 683.811,-33.233 696.716,-29.9411 708.527,-27.0366"/>
<polygon fill="midnightblue" stroke="midnightblue" points="626.638,-46.1531 618.112,-52.4427 628.699,-52.8428 626.638,-46.1531"/>
</g>
</g>
</svg>
