<?xml version="1.0" encoding="UTF-8" standalone="no"?>
<!DOCTYPE svg PUBLIC "-//W3C//DTD SVG 1.1//EN"
 "http://www.w3.org/Graphics/SVG/1.1/DTD/svg11.dtd">
<!-- Generated by graphviz version 2.38.0 (20140413.2041)
 -->
<!-- Title: scram::core::UncertaintyAnalysis::SampleExpressions Pages: 1 -->
<svg width="303pt" height="137pt"
 viewBox="0.00 0.00 303.00 137.00" xmlns="http://www.w3.org/2000/svg" xmlns:xlink="http://www.w3.org/1999/xlink">
<g id="graph0" class="graph" transform="scale(1 1) rotate(0) translate(4 133)">
<title>scram::core::UncertaintyAnalysis::SampleExpressions</title>
<polygon fill="white" stroke="none" points="-4,4 -4,-133 299,-133 299,4 -4,4"/>
<!-- Node1 -->
<g id="node1" class="node"><title>Node1</title>
<polygon fill="#bfbfbf" stroke="black" points="0,-49.5 0,-79.5 147,-79.5 147,-49.5 0,-49.5"/>
<text text-anchor="start" x="8" y="-67.5" font-family="Helvetica,sans-Serif" font-size="10.00">scram::core::Uncertainty</text>
<text text-anchor="middle" x="73.5" y="-56.5" font-family="Helvetica,sans-Serif" font-size="10.00">Analysis::SampleExpressions</text>
</g>
<!-- Node2 -->
<g id="node2" class="node"><title>Node2</title>
<g id="a_node2"><a xlink:href="classscram_1_1core_1_1Settings.xhtml#a35d180dd84bc1006157a02791c4bd210" target="_top" xlink:title="scram::core::Settings\l::num_quantiles">
<polygon fill="white" stroke="black" points="184,-98.5 184,-128.5 294,-128.5 294,-98.5 184,-98.5"/>
<text text-anchor="start" x="192" y="-116.5" font-family="Helvetica,sans-Serif" font-size="10.00">scram::core::Settings</text>
<text text-anchor="middle" x="239" y="-105.5" font-family="Helvetica,sans-Serif" font-size="10.00">::num_quantiles</text>
</a>
</g>
</g>
<!-- Node1&#45;&gt;Node2 -->
<g id="edge1" class="edge"><title>Node1&#45;&gt;Node2</title>
<path fill="none" stroke="midnightblue" d="M124.889,-79.6014C141.596,-84.6083 160.362,-90.2324 177.735,-95.439"/>
<polygon fill="midnightblue" stroke="midnightblue" points="177.193,-98.9302 187.777,-98.4484 179.203,-92.2249 177.193,-98.9302"/>
</g>
<!-- Node3 -->
<g id="node3" class="node"><title>Node3</title>
<g id="a_node3"><a xlink:href="classscram_1_1core_1_1Settings.xhtml#adda26a07ac3d505246a23b80829f8267" target="_top" xlink:title="scram::core::Settings\l::num_trials">
<polygon fill="white" stroke="black" points="184,-49.5 184,-79.5 294,-79.5 294,-49.5 184,-49.5"/>
<text text-anchor="start" x="192" y="-67.5" font-family="Helvetica,sans-Serif" font-size="10.00">scram::core::Settings</text>
<text text-anchor="middle" x="239" y="-56.5" font-family="Helvetica,sans-Serif" font-size="10.00">::num_trials</text>
</a>
</g>
</g>
<!-- Node1&#45;&gt;Node3 -->
<g id="edge2" class="edge"><title>Node1&#45;&gt;Node3</title>
<path fill="none" stroke="midnightblue" d="M147.166,-64.5C155.993,-64.5 164.963,-64.5 173.658,-64.5"/>
<polygon fill="midnightblue" stroke="midnightblue" points="173.713,-68.0001 183.713,-64.5 173.713,-61.0001 173.713,-68.0001"/>
</g>
<!-- Node4 -->
<g id="node4" class="node"><title>Node4</title>
<g id="a_node4"><a xlink:href="classscram_1_1core_1_1Analysis.xhtml#ab04a96c555ba726368fa3868a8701610" target="_top" xlink:title="scram::core::Analysis\l::settings">
<polygon fill="white" stroke="black" points="183,-0.5 183,-30.5 295,-30.5 295,-0.5 183,-0.5"/>
<text text-anchor="start" x="191" y="-18.5" font-family="Helvetica,sans-Serif" font-size="10.00">scram::core::Analysis</text>
<text text-anchor="middle" x="239" y="-7.5" font-family="Helvetica,sans-Serif" font-size="10.00">::settings</text>
</a>
</g>
</g>
<!-- Node1&#45;&gt;Node4 -->
<g id="edge3" class="edge"><title>Node1&#45;&gt;Node4</title>
<path fill="none" stroke="midnightblue" d="M124.889,-49.3986C141.596,-44.3917 160.362,-38.7676 177.735,-33.561"/>
<polygon fill="midnightblue" stroke="midnightblue" points="179.203,-36.7751 187.777,-30.5516 177.193,-30.0698 179.203,-36.7751"/>
</g>
</g>
</svg>
