<?xml version="1.0" encoding="UTF-8" standalone="no"?>
<!DOCTYPE svg PUBLIC "-//W3C//DTD SVG 1.1//EN"
 "http://www.w3.org/Graphics/SVG/1.1/DTD/svg11.dtd">
<!-- Generated by graphviz version 2.38.0 (20140413.2041)
 -->
<!-- Title: scram::core::Vertex&lt; T &gt; Pages: 1 -->
<svg width="559pt" height="873pt"
 viewBox="0.00 0.00 559.00 873.00" xmlns="http://www.w3.org/2000/svg" xmlns:xlink="http://www.w3.org/1999/xlink">
<g id="graph0" class="graph" transform="scale(1 1) rotate(0) translate(4 869)">
<title>scram::core::Vertex&lt; T &gt;</title>
<polygon fill="white" stroke="none" points="-4,4 -4,-869 555,-869 555,4 -4,4"/>
<!-- Node1 -->
<g id="node1" class="node"><title>Node1</title>
<polygon fill="#bfbfbf" stroke="black" points="138,-657.5 138,-769.5 265,-769.5 265,-657.5 138,-657.5"/>
<text text-anchor="middle" x="201.5" y="-757.5" font-family="Helvetica,sans-Serif" font-size="10.00">scram::core::Vertex&lt; T &gt;</text>
<polyline fill="none" stroke="black" points="138,-750.5 265,-750.5 "/>
<text text-anchor="middle" x="201.5" y="-738.5" font-family="Helvetica,sans-Serif" font-size="10.00"> </text>
<polyline fill="none" stroke="black" points="138,-731.5 265,-731.5 "/>
<text text-anchor="start" x="146" y="-719.5" font-family="Helvetica,sans-Serif" font-size="10.00">+ Vertex()</text>
<text text-anchor="start" x="146" y="-708.5" font-family="Helvetica,sans-Serif" font-size="10.00">+ id()</text>
<text text-anchor="start" x="146" y="-697.5" font-family="Helvetica,sans-Serif" font-size="10.00">+ terminal()</text>
<text text-anchor="start" x="146" y="-686.5" font-family="Helvetica,sans-Serif" font-size="10.00">+ use_count()</text>
<text text-anchor="start" x="146" y="-675.5" font-family="Helvetica,sans-Serif" font-size="10.00">+ unique()</text>
<text text-anchor="start" x="146" y="-664.5" font-family="Helvetica,sans-Serif" font-size="10.00"># ~Vertex()</text>
</g>
<!-- Node3 -->
<g id="node3" class="node"><title>Node3</title>
<g id="a_node3"><a xlink:href="classscram_1_1core_1_1NonTerminal.xhtml" target="_top" xlink:title="Representation of non&#45;terminal vertices in BDD graphs. ">
<polygon fill="white" stroke="black" points="275.5,-409.5 275.5,-609.5 429.5,-609.5 429.5,-409.5 275.5,-409.5"/>
<text text-anchor="middle" x="352.5" y="-597.5" font-family="Helvetica,sans-Serif" font-size="10.00">scram::core::NonTerminal&lt; T &gt;</text>
<polyline fill="none" stroke="black" points="275.5,-590.5 429.5,-590.5 "/>
<text text-anchor="middle" x="352.5" y="-578.5" font-family="Helvetica,sans-Serif" font-size="10.00"> </text>
<polyline fill="none" stroke="black" points="275.5,-571.5 429.5,-571.5 "/>
<text text-anchor="start" x="283.5" y="-559.5" font-family="Helvetica,sans-Serif" font-size="10.00">+ NonTerminal()</text>
<text text-anchor="start" x="283.5" y="-548.5" font-family="Helvetica,sans-Serif" font-size="10.00">+ index()</text>
<text text-anchor="start" x="283.5" y="-537.5" font-family="Helvetica,sans-Serif" font-size="10.00">+ order()</text>
<text text-anchor="start" x="283.5" y="-526.5" font-family="Helvetica,sans-Serif" font-size="10.00">+ module()</text>
<text text-anchor="start" x="283.5" y="-515.5" font-family="Helvetica,sans-Serif" font-size="10.00">+ module()</text>
<text text-anchor="start" x="283.5" y="-504.5" font-family="Helvetica,sans-Serif" font-size="10.00">+ coherent()</text>
<text text-anchor="start" x="283.5" y="-493.5" font-family="Helvetica,sans-Serif" font-size="10.00">+ coherent()</text>
<text text-anchor="start" x="283.5" y="-482.5" font-family="Helvetica,sans-Serif" font-size="10.00">+ high()</text>
<text text-anchor="start" x="283.5" y="-471.5" font-family="Helvetica,sans-Serif" font-size="10.00">+ low()</text>
<text text-anchor="start" x="283.5" y="-460.5" font-family="Helvetica,sans-Serif" font-size="10.00">+ mark()</text>
<text text-anchor="start" x="283.5" y="-449.5" font-family="Helvetica,sans-Serif" font-size="10.00">+ mark()</text>
<text text-anchor="start" x="283.5" y="-438.5" font-family="Helvetica,sans-Serif" font-size="10.00"># ~NonTerminal()</text>
<text text-anchor="start" x="283.5" y="-427.5" font-family="Helvetica,sans-Serif" font-size="10.00">* get_high_id</text>
<text text-anchor="start" x="283.5" y="-416.5" font-family="Helvetica,sans-Serif" font-size="10.00">* get_low_id</text>
</a>
</g>
</g>
<!-- Node1&#45;&gt;Node3 -->
<g id="edge2" class="edge"><title>Node1&#45;&gt;Node3</title>
<path fill="none" stroke="midnightblue" d="M248.853,-649.154C258.284,-636.537 268.399,-623.006 278.479,-609.521"/>
<polygon fill="none" stroke="midnightblue" points="245.945,-647.198 242.761,-657.303 251.552,-651.389 245.945,-647.198"/>
</g>
<!-- Node8 -->
<g id="node8" class="node"><title>Node8</title>
<g id="a_node8"><a xlink:href="classscram_1_1core_1_1Terminal.xhtml" target="_top" xlink:title="Representation of terminal vertices in BDD graphs. ">
<polygon fill="white" stroke="black" points="121.5,-475.5 121.5,-543.5 257.5,-543.5 257.5,-475.5 121.5,-475.5"/>
<text text-anchor="middle" x="189.5" y="-531.5" font-family="Helvetica,sans-Serif" font-size="10.00">scram::core::Terminal&lt; T &gt;</text>
<polyline fill="none" stroke="black" points="121.5,-524.5 257.5,-524.5 "/>
<text text-anchor="middle" x="189.5" y="-512.5" font-family="Helvetica,sans-Serif" font-size="10.00"> </text>
<polyline fill="none" stroke="black" points="121.5,-505.5 257.5,-505.5 "/>
<text text-anchor="start" x="129.5" y="-493.5" font-family="Helvetica,sans-Serif" font-size="10.00">+ Terminal()</text>
<text text-anchor="start" x="129.5" y="-482.5" font-family="Helvetica,sans-Serif" font-size="10.00">+ value()</text>
</a>
</g>
</g>
<!-- Node1&#45;&gt;Node8 -->
<g id="edge7" class="edge"><title>Node1&#45;&gt;Node8</title>
<path fill="none" stroke="midnightblue" d="M197.624,-647.254C195.567,-612.621 193.127,-571.549 191.461,-543.517"/>
<polygon fill="none" stroke="midnightblue" points="194.134,-647.528 198.221,-657.303 201.122,-647.113 194.134,-647.528"/>
</g>
<!-- Node9 -->
<g id="node9" class="node"><title>Node9</title>
<g id="a_node9"><a xlink:href="classscram_1_1core_1_1Vertex.xhtml" target="_top" xlink:title="{scram::core::Vertex\l\&lt; Ite \&gt;\n||+ Vertex()\l+ id()\l+ terminal()\l+ use_count()\l+ unique()\l# ~Vertex()\l}">
<polygon fill="white" stroke="black" points="0,-448 0,-571 103,-571 103,-448 0,-448"/>
<text text-anchor="start" x="8" y="-559" font-family="Helvetica,sans-Serif" font-size="10.00">scram::core::Vertex</text>
<text text-anchor="middle" x="51.5" y="-548" font-family="Helvetica,sans-Serif" font-size="10.00">&lt; Ite &gt;</text>
<polyline fill="none" stroke="black" points="0,-541 103,-541 "/>
<text text-anchor="middle" x="51.5" y="-529" font-family="Helvetica,sans-Serif" font-size="10.00"> </text>
<polyline fill="none" stroke="black" points="0,-522 103,-522 "/>
<text text-anchor="start" x="8" y="-510" font-family="Helvetica,sans-Serif" font-size="10.00">+ Vertex()</text>
<text text-anchor="start" x="8" y="-499" font-family="Helvetica,sans-Serif" font-size="10.00">+ id()</text>
<text text-anchor="start" x="8" y="-488" font-family="Helvetica,sans-Serif" font-size="10.00">+ terminal()</text>
<text text-anchor="start" x="8" y="-477" font-family="Helvetica,sans-Serif" font-size="10.00">+ use_count()</text>
<text text-anchor="start" x="8" y="-466" font-family="Helvetica,sans-Serif" font-size="10.00">+ unique()</text>
<text text-anchor="start" x="8" y="-455" font-family="Helvetica,sans-Serif" font-size="10.00"># ~Vertex()</text>
</a>
</g>
</g>
<!-- Node1&#45;&gt;Node9 -->
<g id="edge8" class="edge"><title>Node1&#45;&gt;Node9</title>
<path fill="none" stroke="orange" d="M144.063,-649.631C133.187,-636.828 122.191,-623.223 112.5,-610 103.516,-597.743 94.5609,-584.128 86.3882,-571.002"/>
<polygon fill="orange" stroke="orange" points="141.638,-652.179 150.807,-657.488 146.95,-647.62 141.638,-652.179"/>
<text text-anchor="middle" x="150" y="-631" font-family="Helvetica,sans-Serif" font-size="10.00"> &lt; Ite &gt;</text>
</g>
<!-- Node10 -->
<g id="node10" class="node"><title>Node10</title>
<g id="a_node10"><a xlink:href="classscram_1_1core_1_1Vertex.xhtml" target="_top" xlink:title="{scram::core::Vertex\l\&lt; SetNode \&gt;\n||+ Vertex()\l+ id()\l+ terminal()\l+ use_count()\l+ unique()\l# ~Vertex()\l}">
<polygon fill="white" stroke="black" points="448,-448 448,-571 551,-571 551,-448 448,-448"/>
<text text-anchor="start" x="456" y="-559" font-family="Helvetica,sans-Serif" font-size="10.00">scram::core::Vertex</text>
<text text-anchor="middle" x="499.5" y="-548" font-family="Helvetica,sans-Serif" font-size="10.00">&lt; SetNode &gt;</text>
<polyline fill="none" stroke="black" points="448,-541 551,-541 "/>
<text text-anchor="middle" x="499.5" y="-529" font-family="Helvetica,sans-Serif" font-size="10.00"> </text>
<polyline fill="none" stroke="black" points="448,-522 551,-522 "/>
<text text-anchor="start" x="456" y="-510" font-family="Helvetica,sans-Serif" font-size="10.00">+ Vertex()</text>
<text text-anchor="start" x="456" y="-499" font-family="Helvetica,sans-Serif" font-size="10.00">+ id()</text>
<text text-anchor="start" x="456" y="-488" font-family="Helvetica,sans-Serif" font-size="10.00">+ terminal()</text>
<text text-anchor="start" x="456" y="-477" font-family="Helvetica,sans-Serif" font-size="10.00">+ use_count()</text>
<text text-anchor="start" x="456" y="-466" font-family="Helvetica,sans-Serif" font-size="10.00">+ unique()</text>
<text text-anchor="start" x="456" y="-455" font-family="Helvetica,sans-Serif" font-size="10.00"># ~Vertex()</text>
</a>
</g>
</g>
<!-- Node1&#45;&gt;Node10 -->
<g id="edge10" class="edge"><title>Node1&#45;&gt;Node10</title>
<path fill="none" stroke="orange" d="M275.028,-693.501C325.395,-677.624 391.354,-650.894 438.5,-610 450.975,-599.179 461.689,-585.164 470.499,-571.084"/>
<polygon fill="orange" stroke="orange" points="273.702,-690.247 265.173,-696.532 275.76,-696.937 273.702,-690.247"/>
<text text-anchor="middle" x="440.5" y="-631" font-family="Helvetica,sans-Serif" font-size="10.00"> &lt; SetNode &gt;</text>
</g>
<!-- Node2 -->
<g id="node2" class="node"><title>Node2</title>
<polygon fill="white" stroke="#bfbfbf" points="166,-807.5 166,-864.5 237,-864.5 237,-807.5 166,-807.5"/>
<text text-anchor="middle" x="201.5" y="-852.5" font-family="Helvetica,sans-Serif" font-size="10.00">noncopyable</text>
<polyline fill="none" stroke="#bfbfbf" points="166,-845.5 237,-845.5 "/>
<text text-anchor="middle" x="201.5" y="-833.5" font-family="Helvetica,sans-Serif" font-size="10.00"> </text>
<polyline fill="none" stroke="#bfbfbf" points="166,-826.5 237,-826.5 "/>
<text text-anchor="middle" x="201.5" y="-814.5" font-family="Helvetica,sans-Serif" font-size="10.00"> </text>
</g>
<!-- Node2&#45;&gt;Node1 -->
<g id="edge1" class="edge"><title>Node2&#45;&gt;Node1</title>
<path fill="none" stroke="#8b1a1a" d="M201.5,-797.109C201.5,-788.362 201.5,-778.883 201.5,-769.569"/>
<polygon fill="none" stroke="#8b1a1a" points="198,-797.355 201.5,-807.355 205,-797.355 198,-797.355"/>
</g>
<!-- Node4 -->
<g id="node4" class="node"><title>Node4</title>
<g id="a_node4"><a xlink:href="classscram_1_1core_1_1NonTerminal.xhtml" target="_top" xlink:title="{scram::core::NonTerminal\l\&lt; Ite \&gt;\n||+ NonTerminal()\l+ index()\l+ order()\l+ module()\l+ module()\l+ coherent()\l+ coherent()\l+ high()\l+ low()\l+ mark()\l+ mark()\l# ~NonTerminal()\l* get_high_id\l* get_low_id\l}">
<polygon fill="white" stroke="black" points="203.5,-150.5 203.5,-361.5 333.5,-361.5 333.5,-150.5 203.5,-150.5"/>
<text text-anchor="start" x="211.5" y="-349.5" font-family="Helvetica,sans-Serif" font-size="10.00">scram::core::NonTerminal</text>
<text text-anchor="middle" x="268.5" y="-338.5" font-family="Helvetica,sans-Serif" font-size="10.00">&lt; Ite &gt;</text>
<polyline fill="none" stroke="black" points="203.5,-331.5 333.5,-331.5 "/>
<text text-anchor="middle" x="268.5" y="-319.5" font-family="Helvetica,sans-Serif" font-size="10.00"> </text>
<polyline fill="none" stroke="black" points="203.5,-312.5 333.5,-312.5 "/>
<text text-anchor="start" x="211.5" y="-300.5" font-family="Helvetica,sans-Serif" font-size="10.00">+ NonTerminal()</text>
<text text-anchor="start" x="211.5" y="-289.5" font-family="Helvetica,sans-Serif" font-size="10.00">+ index()</text>
<text text-anchor="start" x="211.5" y="-278.5" font-family="Helvetica,sans-Serif" font-size="10.00">+ order()</text>
<text text-anchor="start" x="211.5" y="-267.5" font-family="Helvetica,sans-Serif" font-size="10.00">+ module()</text>
<text text-anchor="start" x="211.5" y="-256.5" font-family="Helvetica,sans-Serif" font-size="10.00">+ module()</text>
<text text-anchor="start" x="211.5" y="-245.5" font-family="Helvetica,sans-Serif" font-size="10.00">+ coherent()</text>
<text text-anchor="start" x="211.5" y="-234.5" font-family="Helvetica,sans-Serif" font-size="10.00">+ coherent()</text>
<text text-anchor="start" x="211.5" y="-223.5" font-family="Helvetica,sans-Serif" font-size="10.00">+ high()</text>
<text text-anchor="start" x="211.5" y="-212.5" font-family="Helvetica,sans-Serif" font-size="10.00">+ low()</text>
<text text-anchor="start" x="211.5" y="-201.5" font-family="Helvetica,sans-Serif" font-size="10.00">+ mark()</text>
<text text-anchor="start" x="211.5" y="-190.5" font-family="Helvetica,sans-Serif" font-size="10.00">+ mark()</text>
<text text-anchor="start" x="211.5" y="-179.5" font-family="Helvetica,sans-Serif" font-size="10.00"># ~NonTerminal()</text>
<text text-anchor="start" x="211.5" y="-168.5" font-family="Helvetica,sans-Serif" font-size="10.00">* get_high_id</text>
<text text-anchor="start" x="211.5" y="-157.5" font-family="Helvetica,sans-Serif" font-size="10.00">* get_low_id</text>
</a>
</g>
</g>
<!-- Node3&#45;&gt;Node4 -->
<g id="edge3" class="edge"><title>Node3&#45;&gt;Node4</title>
<path fill="none" stroke="orange" d="M316.211,-399.849C311.989,-387.208 307.688,-374.332 303.484,-361.745"/>
<polygon fill="orange" stroke="orange" points="312.934,-401.085 319.422,-409.462 319.573,-398.868 312.934,-401.085"/>
<text text-anchor="middle" x="330" y="-383" font-family="Helvetica,sans-Serif" font-size="10.00"> &lt; Ite &gt;</text>
</g>
<!-- Node6 -->
<g id="node6" class="node"><title>Node6</title>
<g id="a_node6"><a xlink:href="classscram_1_1core_1_1NonTerminal.xhtml" target="_top" xlink:title="{scram::core::NonTerminal\l\&lt; SetNode \&gt;\n||+ NonTerminal()\l+ index()\l+ order()\l+ module()\l+ module()\l+ coherent()\l+ coherent()\l+ high()\l+ low()\l+ mark()\l+ mark()\l# ~NonTerminal()\l* get_high_id\l* get_low_id\l}">
<polygon fill="white" stroke="black" points="383.5,-150.5 383.5,-361.5 513.5,-361.5 513.5,-150.5 383.5,-150.5"/>
<text text-anchor="start" x="391.5" y="-349.5" font-family="Helvetica,sans-Serif" font-size="10.00">scram::core::NonTerminal</text>
<text text-anchor="middle" x="448.5" y="-338.5" font-family="Helvetica,sans-Serif" font-size="10.00">&lt; SetNode &gt;</text>
<polyline fill="none" stroke="black" points="383.5,-331.5 513.5,-331.5 "/>
<text text-anchor="middle" x="448.5" y="-319.5" font-family="Helvetica,sans-Serif" font-size="10.00"> </text>
<polyline fill="none" stroke="black" points="383.5,-312.5 513.5,-312.5 "/>
<text text-anchor="start" x="391.5" y="-300.5" font-family="Helvetica,sans-Serif" font-size="10.00">+ NonTerminal()</text>
<text text-anchor="start" x="391.5" y="-289.5" font-family="Helvetica,sans-Serif" font-size="10.00">+ index()</text>
<text text-anchor="start" x="391.5" y="-278.5" font-family="Helvetica,sans-Serif" font-size="10.00">+ order()</text>
<text text-anchor="start" x="391.5" y="-267.5" font-family="Helvetica,sans-Serif" font-size="10.00">+ module()</text>
<text text-anchor="start" x="391.5" y="-256.5" font-family="Helvetica,sans-Serif" font-size="10.00">+ module()</text>
<text text-anchor="start" x="391.5" y="-245.5" font-family="Helvetica,sans-Serif" font-size="10.00">+ coherent()</text>
<text text-anchor="start" x="391.5" y="-234.5" font-family="Helvetica,sans-Serif" font-size="10.00">+ coherent()</text>
<text text-anchor="start" x="391.5" y="-223.5" font-family="Helvetica,sans-Serif" font-size="10.00">+ high()</text>
<text text-anchor="start" x="391.5" y="-212.5" font-family="Helvetica,sans-Serif" font-size="10.00">+ low()</text>
<text text-anchor="start" x="391.5" y="-201.5" font-family="Helvetica,sans-Serif" font-size="10.00">+ mark()</text>
<text text-anchor="start" x="391.5" y="-190.5" font-family="Helvetica,sans-Serif" font-size="10.00">+ mark()</text>
<text text-anchor="start" x="391.5" y="-179.5" font-family="Helvetica,sans-Serif" font-size="10.00"># ~NonTerminal()</text>
<text text-anchor="start" x="391.5" y="-168.5" font-family="Helvetica,sans-Serif" font-size="10.00">* get_high_id</text>
<text text-anchor="start" x="391.5" y="-157.5" font-family="Helvetica,sans-Serif" font-size="10.00">* get_low_id</text>
</a>
</g>
</g>
<!-- Node3&#45;&gt;Node6 -->
<g id="edge5" class="edge"><title>Node3&#45;&gt;Node6</title>
<path fill="none" stroke="orange" d="M393.973,-399.849C398.798,-387.208 403.713,-374.332 408.518,-361.745"/>
<polygon fill="orange" stroke="orange" points="390.6,-398.871 390.304,-409.462 397.14,-401.367 390.6,-398.871"/>
<text text-anchor="middle" x="430.5" y="-383" font-family="Helvetica,sans-Serif" font-size="10.00"> &lt; SetNode &gt;</text>
</g>
<!-- Node5 -->
<g id="node5" class="node"><title>Node5</title>
<g id="a_node5"><a xlink:href="classscram_1_1core_1_1Ite.xhtml" target="_top" xlink:title="Representation of non&#45;terminal if&#45;then&#45;else vertices in BDD graphs. ">
<polygon fill="white" stroke="black" points="213,-0.5 213,-112.5 324,-112.5 324,-0.5 213,-0.5"/>
<text text-anchor="middle" x="268.5" y="-100.5" font-family="Helvetica,sans-Serif" font-size="10.00">scram::core::Ite</text>
<polyline fill="none" stroke="black" points="213,-93.5 324,-93.5 "/>
<text text-anchor="middle" x="268.5" y="-81.5" font-family="Helvetica,sans-Serif" font-size="10.00"> </text>
<polyline fill="none" stroke="black" points="213,-74.5 324,-74.5 "/>
<text text-anchor="start" x="221" y="-62.5" font-family="Helvetica,sans-Serif" font-size="10.00">+ complement_edge()</text>
<text text-anchor="start" x="221" y="-51.5" font-family="Helvetica,sans-Serif" font-size="10.00">+ complement_edge()</text>
<text text-anchor="start" x="221" y="-40.5" font-family="Helvetica,sans-Serif" font-size="10.00">+ p()</text>
<text text-anchor="start" x="221" y="-29.5" font-family="Helvetica,sans-Serif" font-size="10.00">+ p()</text>
<text text-anchor="start" x="221" y="-18.5" font-family="Helvetica,sans-Serif" font-size="10.00">+ factor()</text>
<text text-anchor="start" x="221" y="-7.5" font-family="Helvetica,sans-Serif" font-size="10.00">+ factor()</text>
</a>
</g>
</g>
<!-- Node4&#45;&gt;Node5 -->
<g id="edge4" class="edge"><title>Node4&#45;&gt;Node5</title>
<path fill="none" stroke="midnightblue" d="M268.5,-140.419C268.5,-130.833 268.5,-121.451 268.5,-112.648"/>
<polygon fill="none" stroke="midnightblue" points="265,-140.467 268.5,-150.467 272,-140.467 265,-140.467"/>
</g>
<!-- Node7 -->
<g id="node7" class="node"><title>Node7</title>
<g id="a_node7"><a xlink:href="classscram_1_1core_1_1SetNode.xhtml" target="_top" xlink:title="Representation of non&#45;terminal nodes in ZBDD. ">
<polygon fill="white" stroke="black" points="392,-0.5 392,-112.5 505,-112.5 505,-0.5 392,-0.5"/>
<text text-anchor="middle" x="448.5" y="-100.5" font-family="Helvetica,sans-Serif" font-size="10.00">scram::core::SetNode</text>
<polyline fill="none" stroke="black" points="392,-93.5 505,-93.5 "/>
<text text-anchor="middle" x="448.5" y="-81.5" font-family="Helvetica,sans-Serif" font-size="10.00"> </text>
<polyline fill="none" stroke="black" points="392,-74.5 505,-74.5 "/>
<text text-anchor="start" x="400" y="-62.5" font-family="Helvetica,sans-Serif" font-size="10.00">+ minimal()</text>
<text text-anchor="start" x="400" y="-51.5" font-family="Helvetica,sans-Serif" font-size="10.00">+ minimal()</text>
<text text-anchor="start" x="400" y="-40.5" font-family="Helvetica,sans-Serif" font-size="10.00">+ max_set_order()</text>
<text text-anchor="start" x="400" y="-29.5" font-family="Helvetica,sans-Serif" font-size="10.00">+ max_set_order()</text>
<text text-anchor="start" x="400" y="-18.5" font-family="Helvetica,sans-Serif" font-size="10.00">+ count()</text>
<text text-anchor="start" x="400" y="-7.5" font-family="Helvetica,sans-Serif" font-size="10.00">+ count()</text>
</a>
</g>
</g>
<!-- Node6&#45;&gt;Node7 -->
<g id="edge6" class="edge"><title>Node6&#45;&gt;Node7</title>
<path fill="none" stroke="midnightblue" d="M448.5,-140.419C448.5,-130.833 448.5,-121.451 448.5,-112.648"/>
<polygon fill="none" stroke="midnightblue" points="445,-140.467 448.5,-150.467 452,-140.467 445,-140.467"/>
</g>
<!-- Node9&#45;&gt;Node4 -->
<g id="edge9" class="edge"><title>Node9&#45;&gt;Node4</title>
<path fill="none" stroke="midnightblue" d="M90.8866,-439.208C97.6819,-428.79 104.99,-418.399 112.5,-409 139.646,-375.028 173.884,-340.904 203.363,-313.621"/>
<polygon fill="none" stroke="midnightblue" points="87.7397,-437.633 85.3058,-447.944 93.6388,-441.401 87.7397,-437.633"/>
</g>
<!-- Node10&#45;&gt;Node6 -->
<g id="edge11" class="edge"><title>Node10&#45;&gt;Node6</title>
<path fill="none" stroke="midnightblue" d="M485.206,-438.012C480.408,-414.352 474.95,-387.434 469.736,-361.722"/>
<polygon fill="none" stroke="midnightblue" points="481.802,-438.835 487.219,-447.939 488.662,-437.443 481.802,-438.835"/>
</g>
</g>
</svg>
