<?xml version="1.0" encoding="UTF-8" standalone="no"?>
<!DOCTYPE svg PUBLIC "-//W3C//DTD SVG 1.1//EN"
 "http://www.w3.org/Graphics/SVG/1.1/DTD/svg11.dtd">
<!-- Generated by graphviz version 2.38.0 (20140413.2041)
 -->
<!-- Title: scram::core::Pdag::Log Pages: 1 -->
<svg width="1026pt" height="263pt"
 viewBox="0.00 0.00 1026.00 263.00" xmlns="http://www.w3.org/2000/svg" xmlns:xlink="http://www.w3.org/1999/xlink">
<g id="graph0" class="graph" transform="scale(1 1) rotate(0) translate(4 259)">
<title>scram::core::Pdag::Log</title>
<polygon fill="white" stroke="none" points="-4,4 -4,-259 1022,-259 1022,4 -4,4"/>
<!-- Node1 -->
<g id="node1" class="node"><title>Node1</title>
<polygon fill="#bfbfbf" stroke="black" points="0,-99 0,-118 119,-118 119,-99 0,-99"/>
<text text-anchor="middle" x="59.5" y="-106" font-family="Helvetica,sans-Serif" font-size="10.00">scram::core::Pdag::Log</text>
</g>
<!-- Node2 -->
<g id="node2" class="node"><title>Node2</title>
<g id="a_node2"><a xlink:href="classscram_1_1core_1_1Preprocessor.xhtml#a3569bbcd5e863c750cdfa69115399600" target="_top" xlink:title="The final phase that cleans up the graph, and puts the structure of the graph ready for analysis...">
<polygon fill="white" stroke="black" points="503,-0.5 503,-30.5 635,-30.5 635,-0.5 503,-0.5"/>
<text text-anchor="start" x="511" y="-18.5" font-family="Helvetica,sans-Serif" font-size="10.00">scram::core::Preprocessor</text>
<text text-anchor="middle" x="569" y="-7.5" font-family="Helvetica,sans-Serif" font-size="10.00">::RunPhaseFive</text>
</a>
</g>
</g>
<!-- Node1&#45;&gt;Node2 -->
<g id="edge1" class="edge"><title>Node1&#45;&gt;Node2</title>
<path fill="none" stroke="midnightblue" d="M86.6833,-94.3401C105.231,-84.9454 130.986,-73.1602 155,-66.5 274.917,-33.2416 420.439,-21.65 502.819,-17.6251"/>
<polygon fill="midnightblue" stroke="midnightblue" points="84.9607,-91.2905 77.6882,-98.9951 88.1781,-97.5074 84.9607,-91.2905"/>
</g>
<!-- Node6 -->
<g id="node6" class="node"><title>Node6</title>
<g id="a_node6"><a xlink:href="classscram_1_1core_1_1Preprocessor.xhtml#a5c224938dfba861f061525658bd7b156" target="_top" xlink:title="Propagation of complements. ">
<polygon fill="white" stroke="black" points="503,-49.5 503,-79.5 635,-79.5 635,-49.5 503,-49.5"/>
<text text-anchor="start" x="511" y="-67.5" font-family="Helvetica,sans-Serif" font-size="10.00">scram::core::Preprocessor</text>
<text text-anchor="middle" x="569" y="-56.5" font-family="Helvetica,sans-Serif" font-size="10.00">::RunPhaseFour</text>
</a>
</g>
</g>
<!-- Node1&#45;&gt;Node6 -->
<g id="edge5" class="edge"><title>Node1&#45;&gt;Node6</title>
<path fill="none" stroke="midnightblue" d="M99.9653,-96.0687C116.759,-91.3005 136.666,-86.3292 155,-83.5 276.835,-64.6994 421.086,-62.5734 502.836,-63.2103"/>
<polygon fill="midnightblue" stroke="midnightblue" points="98.5722,-92.8292 89.953,-98.9904 100.533,-99.5489 98.5722,-92.8292"/>
</g>
<!-- Node7 -->
<g id="node7" class="node"><title>Node7</title>
<g id="a_node7"><a xlink:href="classscram_1_1core_1_1Preprocessor.xhtml#a44f820b6fe2c23594c818432b33e26a6" target="_top" xlink:title="The initial phase of preprocessing. ">
<polygon fill="white" stroke="black" points="323,-224.5 323,-254.5 455,-254.5 455,-224.5 323,-224.5"/>
<text text-anchor="start" x="331" y="-242.5" font-family="Helvetica,sans-Serif" font-size="10.00">scram::core::Preprocessor</text>
<text text-anchor="middle" x="389" y="-231.5" font-family="Helvetica,sans-Serif" font-size="10.00">::RunPhaseOne</text>
</a>
</g>
</g>
<!-- Node1&#45;&gt;Node7 -->
<g id="edge8" class="edge"><title>Node1&#45;&gt;Node7</title>
<path fill="none" stroke="midnightblue" d="M83.7813,-123.555C102.501,-135.225 129.751,-151.25 155,-162.5 213.762,-188.682 284.267,-210.767 332.219,-224.479"/>
<polygon fill="midnightblue" stroke="midnightblue" points="85.3987,-120.437 75.0745,-118.057 81.6613,-126.355 85.3987,-120.437"/>
</g>
<!-- Node10 -->
<g id="node10" class="node"><title>Node10</title>
<g id="a_node10"><a xlink:href="classscram_1_1core_1_1Preprocessor.xhtml#abf2c66723172a85b2ae87ef2a034cd1f" target="_top" xlink:title="Application of gate normalization. ">
<polygon fill="white" stroke="black" points="323,-175.5 323,-205.5 455,-205.5 455,-175.5 323,-175.5"/>
<text text-anchor="start" x="331" y="-193.5" font-family="Helvetica,sans-Serif" font-size="10.00">scram::core::Preprocessor</text>
<text text-anchor="middle" x="389" y="-182.5" font-family="Helvetica,sans-Serif" font-size="10.00">::RunPhaseThree</text>
</a>
</g>
</g>
<!-- Node1&#45;&gt;Node10 -->
<g id="edge14" class="edge"><title>Node1&#45;&gt;Node10</title>
<path fill="none" stroke="midnightblue" d="M107.867,-120.577C122.93,-124.404 139.661,-128.643 155,-132.5 213.418,-147.189 280.123,-163.775 327.147,-175.436"/>
<polygon fill="midnightblue" stroke="midnightblue" points="108.297,-117.074 97.7426,-118.002 106.571,-123.859 108.297,-117.074"/>
</g>
<!-- Node11 -->
<g id="node11" class="node"><title>Node11</title>
<g id="a_node11"><a xlink:href="classscram_1_1core_1_1Preprocessor.xhtml#a9d5f89471499508eb9e6c01ea43e0f15" target="_top" xlink:title="Preprocessing phase of the original structure of the graph. ">
<polygon fill="white" stroke="black" points="155,-93.5 155,-123.5 287,-123.5 287,-93.5 155,-93.5"/>
<text text-anchor="start" x="163" y="-111.5" font-family="Helvetica,sans-Serif" font-size="10.00">scram::core::Preprocessor</text>
<text text-anchor="middle" x="221" y="-100.5" font-family="Helvetica,sans-Serif" font-size="10.00">::RunPhaseTwo</text>
</a>
</g>
</g>
<!-- Node1&#45;&gt;Node11 -->
<g id="edge17" class="edge"><title>Node1&#45;&gt;Node11</title>
<path fill="none" stroke="midnightblue" d="M129.574,-108.5C137.969,-108.5 146.525,-108.5 154.861,-108.5"/>
<polygon fill="midnightblue" stroke="midnightblue" points="129.439,-105 119.439,-108.5 129.439,-112 129.439,-105"/>
</g>
<!-- Node3 -->
<g id="node3" class="node"><title>Node3</title>
<g id="a_node3"><a xlink:href="classscram_1_1core_1_1CustomPreprocessor_3_01Zbdd_01_4.xhtml#a5185075f852c647c7aa4313d23420ee5" target="_top" xlink:title="Performs preprocessing for analyses with Zero&#45;Suppressed Binary Decision Diagrams. ">
<polygon fill="white" stroke="black" points="683,-46.5 683,-76.5 850,-76.5 850,-46.5 683,-46.5"/>
<text text-anchor="start" x="691" y="-64.5" font-family="Helvetica,sans-Serif" font-size="10.00">scram::core::CustomPreprocessor</text>
<text text-anchor="middle" x="766.5" y="-53.5" font-family="Helvetica,sans-Serif" font-size="10.00">&lt; Zbdd &gt;::Run</text>
</a>
</g>
</g>
<!-- Node2&#45;&gt;Node3 -->
<g id="edge2" class="edge"><title>Node2&#45;&gt;Node3</title>
<path fill="none" stroke="midnightblue" d="M643.835,-32.8729C662.871,-37.3521 683.197,-42.1346 701.676,-46.4826"/>
<polygon fill="midnightblue" stroke="midnightblue" points="644.55,-29.4456 634.014,-30.5621 642.947,-36.2596 644.55,-29.4456"/>
</g>
<!-- Node4 -->
<g id="node4" class="node"><title>Node4</title>
<g id="a_node4"><a xlink:href="classscram_1_1core_1_1Preprocessor.xhtml#a5ee92284aef510ce01a71c962d50f51c" target="_top" xlink:title="Runs the graph preprocessing. ">
<polygon fill="white" stroke="black" points="700.5,-95.5 700.5,-125.5 832.5,-125.5 832.5,-95.5 700.5,-95.5"/>
<text text-anchor="start" x="708.5" y="-113.5" font-family="Helvetica,sans-Serif" font-size="10.00">scram::core::Preprocessor</text>
<text text-anchor="middle" x="766.5" y="-102.5" font-family="Helvetica,sans-Serif" font-size="10.00">::operator()</text>
</a>
</g>
</g>
<!-- Node2&#45;&gt;Node4 -->
<g id="edge3" class="edge"><title>Node2&#45;&gt;Node4</title>
<path fill="none" stroke="midnightblue" d="M639.981,-35.1337C642.406,-36.496 644.755,-37.9495 647,-39.5 668.361,-54.2539 661.581,-70.8307 683,-85.5 688.68,-89.39 694.983,-92.6893 701.5,-95.4844"/>
<polygon fill="midnightblue" stroke="midnightblue" points="641.431,-31.9454 630.923,-30.5896 638.292,-38.2022 641.431,-31.9454"/>
</g>
<!-- Node5 -->
<g id="node5" class="node"><title>Node5</title>
<g id="a_node5"><a xlink:href="classscram_1_1core_1_1Preprocessor_1_1GateSet.xhtml#ae00239084858979e096032c4cf2f05b9" target="_top" xlink:title="Inserts a gate into the set if it is semantically unique. ">
<polygon fill="white" stroke="black" points="886,-95.5 886,-125.5 1018,-125.5 1018,-95.5 886,-95.5"/>
<text text-anchor="start" x="894" y="-113.5" font-family="Helvetica,sans-Serif" font-size="10.00">scram::core::Preprocessor</text>
<text text-anchor="middle" x="952" y="-102.5" font-family="Helvetica,sans-Serif" font-size="10.00">::GateSet::insert</text>
</a>
</g>
</g>
<!-- Node4&#45;&gt;Node5 -->
<g id="edge4" class="edge"><title>Node4&#45;&gt;Node5</title>
<path fill="none" stroke="midnightblue" d="M842.989,-110.5C857.264,-110.5 872.081,-110.5 885.998,-110.5"/>
<polygon fill="midnightblue" stroke="midnightblue" points="842.712,-107 832.712,-110.5 842.712,-114 842.712,-107"/>
</g>
<!-- Node6&#45;&gt;Node3 -->
<g id="edge6" class="edge"><title>Node6&#45;&gt;Node3</title>
<path fill="none" stroke="midnightblue" d="M645.313,-63.3443C657.636,-63.1552 670.462,-62.9584 682.949,-62.7668"/>
<polygon fill="midnightblue" stroke="midnightblue" points="645.044,-59.8479 635.099,-63.501 645.151,-66.8471 645.044,-59.8479"/>
</g>
<!-- Node6&#45;&gt;Node4 -->
<g id="edge7" class="edge"><title>Node6&#45;&gt;Node4</title>
<path fill="none" stroke="midnightblue" d="M643.835,-81.8729C662.871,-86.3521 683.197,-91.1346 701.676,-95.4826"/>
<polygon fill="midnightblue" stroke="midnightblue" points="644.55,-78.4456 634.014,-79.5621 642.947,-85.2596 644.55,-78.4456"/>
</g>
<!-- Node7&#45;&gt;Node4 -->
<g id="edge13" class="edge"><title>Node7&#45;&gt;Node4</title>
<path fill="none" stroke="midnightblue" d="M465.027,-242.823C519.907,-241.647 593.759,-232.206 647,-195.5 672.918,-177.631 658.138,-153.81 683,-134.5 688.184,-130.474 694.022,-127.123 700.138,-124.334"/>
<polygon fill="midnightblue" stroke="midnightblue" points="464.965,-239.323 455.01,-242.951 465.054,-246.323 464.965,-239.323"/>
</g>
<!-- Node8 -->
<g id="node8" class="node"><title>Node8</title>
<g id="a_node8"><a xlink:href="classscram_1_1core_1_1Preprocessor.xhtml#a2b6705e815fa3d02119c405b483766d5" target="_top" xlink:title="Container of unique gates by semantics. ">
<polygon fill="white" stroke="black" points="491,-139 491,-158 647,-158 647,-139 491,-139"/>
<text text-anchor="middle" x="569" y="-146" font-family="Helvetica,sans-Serif" font-size="10.00">scram::core::Preprocessor::Run</text>
</a>
</g>
</g>
<!-- Node7&#45;&gt;Node8 -->
<g id="edge9" class="edge"><title>Node7&#45;&gt;Node8</title>
<path fill="none" stroke="midnightblue" d="M443.426,-220.67C447.378,-219.005 451.273,-217.275 455,-215.5 492.065,-197.849 532.873,-171.896 553.836,-158.042"/>
<polygon fill="midnightblue" stroke="midnightblue" points="442.107,-217.429 434.155,-224.43 444.738,-223.915 442.107,-217.429"/>
</g>
<!-- Node8&#45;&gt;Node3 -->
<g id="edge11" class="edge"><title>Node8&#45;&gt;Node3</title>
<path fill="none" stroke="midnightblue" d="M593.266,-133.475C615.582,-119.566 650.578,-99.0493 683,-85.5 690.845,-82.2215 699.287,-79.2132 707.67,-76.5172"/>
<polygon fill="midnightblue" stroke="midnightblue" points="591.396,-130.517 584.805,-138.812 595.13,-136.437 591.396,-130.517"/>
</g>
<!-- Node8&#45;&gt;Node4 -->
<g id="edge12" class="edge"><title>Node8&#45;&gt;Node4</title>
<path fill="none" stroke="midnightblue" d="M629.13,-137.007C651.541,-132.651 677.181,-127.667 700.134,-123.205"/>
<polygon fill="midnightblue" stroke="midnightblue" points="628.229,-133.616 619.081,-138.96 629.565,-140.488 628.229,-133.616"/>
</g>
<!-- Node9 -->
<g id="node9" class="node"><title>Node9</title>
<g id="a_node9"><a xlink:href="classscram_1_1core_1_1Preprocessor.xhtml#a9caf4677a024ed935d831210b57b8ed9" target="_top" xlink:title="Gathers nodes in the sub&#45;graph. ">
<polygon fill="white" stroke="black" points="700.5,-144.5 700.5,-174.5 832.5,-174.5 832.5,-144.5 700.5,-144.5"/>
<text text-anchor="start" x="708.5" y="-162.5" font-family="Helvetica,sans-Serif" font-size="10.00">scram::core::Preprocessor</text>
<text text-anchor="middle" x="766.5" y="-151.5" font-family="Helvetica,sans-Serif" font-size="10.00">::GatherNodes</text>
</a>
</g>
</g>
<!-- Node8&#45;&gt;Node9 -->
<g id="edge10" class="edge"><title>Node8&#45;&gt;Node9</title>
<path fill="none" stroke="midnightblue" d="M657.255,-153.409C671.777,-154.227 686.611,-155.061 700.457,-155.84"/>
<polygon fill="midnightblue" stroke="midnightblue" points="657.448,-149.915 647.267,-152.847 657.054,-156.904 657.448,-149.915"/>
</g>
<!-- Node10&#45;&gt;Node4 -->
<g id="edge16" class="edge"><title>Node10&#45;&gt;Node4</title>
<path fill="none" stroke="midnightblue" d="M465.165,-196.21C518.163,-197.324 589.633,-192.817 647,-167.5 666.857,-158.737 664.084,-145.144 683,-134.5 688.98,-131.135 695.475,-128.205 702.106,-125.661"/>
<polygon fill="midnightblue" stroke="midnightblue" points="465.252,-192.711 455.157,-195.928 465.055,-199.708 465.252,-192.711"/>
</g>
<!-- Node10&#45;&gt;Node8 -->
<g id="edge15" class="edge"><title>Node10&#45;&gt;Node8</title>
<path fill="none" stroke="midnightblue" d="M463.706,-173.109C485.592,-167.945 508.75,-162.48 527.671,-158.016"/>
<polygon fill="midnightblue" stroke="midnightblue" points="462.688,-169.753 453.759,-175.456 464.296,-176.566 462.688,-169.753"/>
</g>
<!-- Node11&#45;&gt;Node2 -->
<g id="edge21" class="edge"><title>Node11&#45;&gt;Node2</title>
<path fill="none" stroke="midnightblue" d="M275.352,-90.234C290.664,-85.219 307.43,-79.9432 323,-75.5 383.534,-58.2252 453.336,-41.4323 502.911,-30.027"/>
<polygon fill="midnightblue" stroke="midnightblue" points="273.924,-87.0197 265.527,-93.4806 276.12,-93.6662 273.924,-87.0197"/>
</g>
<!-- Node11&#45;&gt;Node4 -->
<g id="edge22" class="edge"><title>Node11&#45;&gt;Node4</title>
<path fill="none" stroke="midnightblue" d="M297.105,-108.776C404.222,-109.171 599.093,-109.888 700.406,-110.26"/>
<polygon fill="midnightblue" stroke="midnightblue" points="297.032,-105.276 287.019,-108.739 297.006,-112.276 297.032,-105.276"/>
</g>
<!-- Node11&#45;&gt;Node6 -->
<g id="edge20" class="edge"><title>Node11&#45;&gt;Node6</title>
<path fill="none" stroke="midnightblue" d="M297.301,-97.9281C305.964,-96.7516 314.673,-95.5869 323,-94.5 383.976,-86.5412 453.574,-78.0786 502.969,-72.1777"/>
<polygon fill="midnightblue" stroke="midnightblue" points="296.611,-94.4897 287.177,-99.3107 297.559,-101.425 296.611,-94.4897"/>
</g>
<!-- Node11&#45;&gt;Node8 -->
<g id="edge18" class="edge"><title>Node11&#45;&gt;Node8</title>
<path fill="none" stroke="midnightblue" d="M297.284,-119.206C305.95,-120.358 314.665,-121.48 323,-122.5 379.149,-129.369 442.67,-136.08 490.961,-140.963"/>
<polygon fill="midnightblue" stroke="midnightblue" points="297.535,-115.708 287.157,-117.844 296.602,-122.645 297.535,-115.708"/>
</g>
<!-- Node11&#45;&gt;Node10 -->
<g id="edge19" class="edge"><title>Node11&#45;&gt;Node10</title>
<path fill="none" stroke="midnightblue" d="M259.479,-128.283C278.423,-138.158 301.827,-150.169 323,-160.5 333.165,-165.46 344.316,-170.684 354.469,-175.358"/>
<polygon fill="midnightblue" stroke="midnightblue" points="261.051,-125.155 250.567,-123.624 257.808,-131.359 261.051,-125.155"/>
</g>
</g>
</svg>
