<?xml version="1.0" encoding="UTF-8" standalone="no"?>
<!DOCTYPE svg PUBLIC "-//W3C//DTD SVG 1.1//EN"
 "http://www.w3.org/Graphics/SVG/1.1/DTD/svg11.dtd">
<!-- Generated by graphviz version 2.38.0 (20140413.2041)
 -->
<!-- Title: scram::core::Zbdd::EliminateConstantModules Pages: 1 -->
<svg width="641pt" height="439pt"
 viewBox="0.00 0.00 641.00 439.00" xmlns="http://www.w3.org/2000/svg" xmlns:xlink="http://www.w3.org/1999/xlink">
<g id="graph0" class="graph" transform="scale(1 1) rotate(0) translate(4 435)">
<title>scram::core::Zbdd::EliminateConstantModules</title>
<polygon fill="white" stroke="none" points="-4,4 -4,-435 637,-435 637,4 -4,4"/>
<!-- Node1 -->
<g id="node1" class="node"><title>Node1</title>
<polygon fill="#bfbfbf" stroke="black" points="0,-242.5 0,-272.5 134,-272.5 134,-242.5 0,-242.5"/>
<text text-anchor="start" x="8" y="-260.5" font-family="Helvetica,sans-Serif" font-size="10.00">scram::core::Zbdd::</text>
<text text-anchor="middle" x="67" y="-249.5" font-family="Helvetica,sans-Serif" font-size="10.00">EliminateConstantModules</text>
</g>
<!-- Node2 -->
<g id="node2" class="node"><title>Node2</title>
<g id="a_node2"><a xlink:href="classscram_1_1core_1_1Settings.xhtml#a0e43ec0f017d23a4fa4e376c4060d380" target="_top" xlink:title="scram::core::Settings\l::limit_order">
<polygon fill="white" stroke="black" points="170,-308.5 170,-338.5 280,-338.5 280,-308.5 170,-308.5"/>
<text text-anchor="start" x="178" y="-326.5" font-family="Helvetica,sans-Serif" font-size="10.00">scram::core::Settings</text>
<text text-anchor="middle" x="225" y="-315.5" font-family="Helvetica,sans-Serif" font-size="10.00">::limit_order</text>
</a>
</g>
</g>
<!-- Node1&#45;&gt;Node2 -->
<g id="edge1" class="edge"><title>Node1&#45;&gt;Node2</title>
<path fill="none" stroke="midnightblue" d="M103.79,-272.642C126.184,-282.116 155.221,-294.401 179.147,-304.524"/>
<polygon fill="midnightblue" stroke="midnightblue" points="177.804,-307.756 188.377,-308.429 180.531,-301.309 177.804,-307.756"/>
</g>
<!-- Node3 -->
<g id="node3" class="node"><title>Node3</title>
<g id="a_node3"><a xlink:href="classscram_1_1core_1_1Zbdd.xhtml#a3dbb8ef5da2882daf6c39e9724eae459" target="_top" xlink:title="Removes subsets in ZBDD. ">
<polygon fill="white" stroke="black" points="174,-220.5 174,-250.5 276,-250.5 276,-220.5 174,-220.5"/>
<text text-anchor="start" x="182" y="-238.5" font-family="Helvetica,sans-Serif" font-size="10.00">scram::core::Zbdd::</text>
<text text-anchor="middle" x="225" y="-227.5" font-family="Helvetica,sans-Serif" font-size="10.00">Minimize</text>
</a>
</g>
</g>
<!-- Node1&#45;&gt;Node3 -->
<g id="edge2" class="edge"><title>Node1&#45;&gt;Node3</title>
<path fill="none" stroke="midnightblue" d="M134.158,-248.17C144.019,-246.779 154.139,-245.352 163.867,-243.98"/>
<polygon fill="midnightblue" stroke="midnightblue" points="164.422,-247.437 173.836,-242.574 163.445,-240.505 164.422,-247.437"/>
</g>
<!-- Node4 -->
<g id="node4" class="node"><title>Node4</title>
<g id="a_node4"><a xlink:href="structscram_1_1core_1_1IntrusivePtrCast.xhtml#adc53e5b89cace18e05bac95316da7d91" target="_top" xlink:title="scram::core::IntrusivePtr\lCast\&lt; SetNode \&gt;::Ptr">
<polygon fill="white" stroke="black" points="318.5,-400.5 318.5,-430.5 443.5,-430.5 443.5,-400.5 318.5,-400.5"/>
<text text-anchor="start" x="326.5" y="-418.5" font-family="Helvetica,sans-Serif" font-size="10.00">scram::core::IntrusivePtr</text>
<text text-anchor="middle" x="381" y="-407.5" font-family="Helvetica,sans-Serif" font-size="10.00">Cast&lt; SetNode &gt;::Ptr</text>
</a>
</g>
</g>
<!-- Node1&#45;&gt;Node4 -->
<g id="edge16" class="edge"><title>Node1&#45;&gt;Node4</title>
<path fill="none" stroke="midnightblue" d="M134.195,-264.08C187.681,-270.565 257.619,-282.058 280,-299.5 309.481,-322.475 291.151,-347.581 316,-375.5 322.595,-382.909 330.886,-389.435 339.293,-394.951"/>
<polygon fill="midnightblue" stroke="midnightblue" points="337.68,-398.067 348.03,-400.328 341.349,-392.106 337.68,-398.067"/>
</g>
<!-- Node9 -->
<g id="node9" class="node"><title>Node9</title>
<g id="a_node9"><a xlink:href="classscram_1_1core_1_1Terminal.xhtml#a7a25b0b40498f4876571a5dac4e724c3" target="_top" xlink:title="scram::core::Terminal\l::value">
<polygon fill="white" stroke="black" points="325,-0.5 325,-30.5 437,-30.5 437,-0.5 325,-0.5"/>
<text text-anchor="start" x="333" y="-18.5" font-family="Helvetica,sans-Serif" font-size="10.00">scram::core::Terminal</text>
<text text-anchor="middle" x="381" y="-7.5" font-family="Helvetica,sans-Serif" font-size="10.00">::value</text>
</a>
</g>
</g>
<!-- Node1&#45;&gt;Node9 -->
<g id="edge17" class="edge"><title>Node1&#45;&gt;Node9</title>
<path fill="none" stroke="midnightblue" d="M81.3483,-242.467C116.328,-203.869 214.955,-100.061 316,-39.5 318.662,-37.9043 321.449,-36.3842 324.306,-34.9408"/>
<polygon fill="midnightblue" stroke="midnightblue" points="326.03,-37.9984 333.608,-30.5937 323.067,-31.6567 326.03,-37.9984"/>
</g>
<!-- Node3&#45;&gt;Node4 -->
<g id="edge3" class="edge"><title>Node3&#45;&gt;Node4</title>
<path fill="none" stroke="midnightblue" d="M262.364,-250.563C268.947,-254.618 275.226,-259.568 280,-265.5 314.907,-308.881 279.622,-343.344 316,-385.5 319.013,-388.991 322.52,-392.104 326.312,-394.874"/>
<polygon fill="midnightblue" stroke="midnightblue" points="324.672,-397.979 334.985,-400.405 328.435,-392.077 324.672,-397.979"/>
</g>
<!-- Node5 -->
<g id="node5" class="node"><title>Node5</title>
<g id="a_node5"><a xlink:href="structscram_1_1core_1_1IntrusivePtrCast.xhtml#af153c12dc6133b7d9f9b7a57bba29f1d" target="_top" xlink:title="scram::core::IntrusivePtr\lCast\&lt; T, Terminal\&lt; T \&gt; \&gt;::Ref">
<polygon fill="white" stroke="black" points="482,-347.5 482,-377.5 633,-377.5 633,-347.5 482,-347.5"/>
<text text-anchor="start" x="490" y="-365.5" font-family="Helvetica,sans-Serif" font-size="10.00">scram::core::IntrusivePtr</text>
<text text-anchor="middle" x="557.5" y="-354.5" font-family="Helvetica,sans-Serif" font-size="10.00">Cast&lt; T, Terminal&lt; T &gt; &gt;::Ref</text>
</a>
</g>
</g>
<!-- Node3&#45;&gt;Node5 -->
<g id="edge4" class="edge"><title>Node3&#45;&gt;Node5</title>
<path fill="none" stroke="midnightblue" d="M273.474,-250.601C275.784,-252.455 277.979,-254.426 280,-256.5 304.136,-281.277 287.509,-305.886 316,-325.5 361.026,-356.496 422.366,-363.227 471.827,-363.526"/>
<polygon fill="midnightblue" stroke="midnightblue" points="471.88,-367.026 481.871,-363.502 471.863,-360.026 471.88,-367.026"/>
</g>
<!-- Node3&#45;&gt;Node5 -->
<g id="edge8" class="edge"><title>Node3&#45;&gt;Node5</title>
<path fill="none" stroke="midnightblue" d="M245.039,-250.569C256.286,-256.817 270.197,-264.436 280,-274.5 304.136,-299.277 287.509,-323.886 316,-343.5 365.096,-377.298 433.589,-382.246 484.929,-378.404"/>
<polygon fill="midnightblue" stroke="midnightblue" points="485.301,-381.885 494.957,-377.524 484.69,-374.912 485.301,-381.885"/>
</g>
<!-- Node6 -->
<g id="node6" class="node"><title>Node6</title>
<g id="a_node6"><a xlink:href="classscram_1_1core_1_1Zbdd.xhtml#a42af18229ba2e80201bc0fdac07b7091" target="_top" xlink:title="Finds or adds a unique SetNode in the ZBDD. ">
<polygon fill="white" stroke="black" points="330,-294.5 330,-324.5 432,-324.5 432,-294.5 330,-294.5"/>
<text text-anchor="start" x="338" y="-312.5" font-family="Helvetica,sans-Serif" font-size="10.00">scram::core::Zbdd::</text>
<text text-anchor="middle" x="381" y="-301.5" font-family="Helvetica,sans-Serif" font-size="10.00">FindOrAddVertex</text>
</a>
</g>
</g>
<!-- Node3&#45;&gt;Node6 -->
<g id="edge5" class="edge"><title>Node3&#45;&gt;Node6</title>
<path fill="none" stroke="midnightblue" d="M253.409,-250.735C279.809,-265.408 315.795,-285.405 316,-285.5 319.817,-287.264 323.804,-289 327.84,-290.681"/>
<polygon fill="midnightblue" stroke="midnightblue" points="326.708,-293.999 337.292,-294.493 329.327,-287.507 326.708,-293.999"/>
</g>
<!-- Node8 -->
<g id="node8" class="node"><title>Node8</title>
<g id="a_node8"><a xlink:href="classscram_1_1core_1_1SetNode.xhtml#a88d05af2b9f4f08b7bc66a31c2b9e249" target="_top" xlink:title="scram::core::SetNode\l::minimal">
<polygon fill="white" stroke="black" points="324.5,-245.5 324.5,-275.5 437.5,-275.5 437.5,-245.5 324.5,-245.5"/>
<text text-anchor="start" x="332.5" y="-263.5" font-family="Helvetica,sans-Serif" font-size="10.00">scram::core::SetNode</text>
<text text-anchor="middle" x="381" y="-252.5" font-family="Helvetica,sans-Serif" font-size="10.00">::minimal</text>
</a>
</g>
</g>
<!-- Node3&#45;&gt;Node8 -->
<g id="edge9" class="edge"><title>Node3&#45;&gt;Node8</title>
<path fill="none" stroke="midnightblue" d="M276.425,-243.686C288.538,-245.652 301.651,-247.781 314.344,-249.842"/>
<polygon fill="midnightblue" stroke="midnightblue" points="313.974,-253.327 324.406,-251.475 315.096,-246.418 313.974,-253.327"/>
</g>
<!-- Node3&#45;&gt;Node9 -->
<g id="edge10" class="edge"><title>Node3&#45;&gt;Node9</title>
<path fill="none" stroke="midnightblue" d="M234.313,-220.265C245.318,-199.863 265.07,-162.415 280,-129.5 297.796,-90.2661 285.208,-69.6302 316,-39.5 317.087,-38.4366 318.225,-37.4196 319.407,-36.4469"/>
<polygon fill="midnightblue" stroke="midnightblue" points="321.539,-39.2279 327.757,-30.6502 317.547,-33.4776 321.539,-39.2279"/>
</g>
<!-- Node11 -->
<g id="node11" class="node"><title>Node11</title>
<g id="a_node11"><a xlink:href="classscram_1_1core_1_1Settings.xhtml#ae64f362fceb44402e101140dfc1725ba" target="_top" xlink:title="scram::core::Settings\l::prime_implicants">
<polygon fill="white" stroke="black" points="326,-196.5 326,-226.5 436,-226.5 436,-196.5 326,-196.5"/>
<text text-anchor="start" x="334" y="-214.5" font-family="Helvetica,sans-Serif" font-size="10.00">scram::core::Settings</text>
<text text-anchor="middle" x="381" y="-203.5" font-family="Helvetica,sans-Serif" font-size="10.00">::prime_implicants</text>
</a>
</g>
</g>
<!-- Node3&#45;&gt;Node11 -->
<g id="edge12" class="edge"><title>Node3&#45;&gt;Node11</title>
<path fill="none" stroke="midnightblue" d="M276.425,-227.642C289.008,-225.681 302.669,-223.552 315.818,-221.502"/>
<polygon fill="midnightblue" stroke="midnightblue" points="316.404,-224.953 325.746,-219.955 315.326,-218.037 316.404,-224.953"/>
</g>
<!-- Node12 -->
<g id="node12" class="node"><title>Node12</title>
<g id="a_node12"><a xlink:href="classscram_1_1core_1_1NonTerminal.xhtml#aeeaafd82ae5890a7ec3462c68ffc8628" target="_top" xlink:title="scram::core::NonTerminal\l::index">
<polygon fill="white" stroke="black" points="316,-147.5 316,-177.5 446,-177.5 446,-147.5 316,-147.5"/>
<text text-anchor="start" x="324" y="-165.5" font-family="Helvetica,sans-Serif" font-size="10.00">scram::core::NonTerminal</text>
<text text-anchor="middle" x="381" y="-154.5" font-family="Helvetica,sans-Serif" font-size="10.00">::index</text>
</a>
</g>
</g>
<!-- Node3&#45;&gt;Node12 -->
<g id="edge13" class="edge"><title>Node3&#45;&gt;Node12</title>
<path fill="none" stroke="midnightblue" d="M252.364,-220.382C270.088,-210.483 294.121,-197.565 316,-187.5 320.44,-185.457 325.098,-183.428 329.79,-181.461"/>
<polygon fill="midnightblue" stroke="midnightblue" points="331.482,-184.55 339.412,-177.524 328.831,-178.072 331.482,-184.55"/>
</g>
<!-- Node13 -->
<g id="node13" class="node"><title>Node13</title>
<g id="a_node13"><a xlink:href="classscram_1_1core_1_1NonTerminal.xhtml#a9230422e92d086c34f67bcb864bfc8a9" target="_top" xlink:title="scram::core::NonTerminal\l::module">
<polygon fill="white" stroke="black" points="316,-98.5 316,-128.5 446,-128.5 446,-98.5 316,-98.5"/>
<text text-anchor="start" x="324" y="-116.5" font-family="Helvetica,sans-Serif" font-size="10.00">scram::core::NonTerminal</text>
<text text-anchor="middle" x="381" y="-105.5" font-family="Helvetica,sans-Serif" font-size="10.00">::module</text>
</a>
</g>
</g>
<!-- Node3&#45;&gt;Node13 -->
<g id="edge14" class="edge"><title>Node3&#45;&gt;Node13</title>
<path fill="none" stroke="midnightblue" d="M236.559,-220.38C251.889,-199.416 282.196,-161.508 316,-138.5 318.847,-136.562 321.867,-134.743 324.983,-133.041"/>
<polygon fill="midnightblue" stroke="midnightblue" points="326.581,-136.155 333.959,-128.552 323.45,-129.895 326.581,-136.155"/>
</g>
<!-- Node14 -->
<g id="node14" class="node"><title>Node14</title>
<g id="a_node14"><a xlink:href="classscram_1_1core_1_1NonTerminal.xhtml#adcdd0c5114aa6a1d32a03928adc07c49" target="_top" xlink:title="scram::core::NonTerminal\l::coherent">
<polygon fill="white" stroke="black" points="316,-49.5 316,-79.5 446,-79.5 446,-49.5 316,-49.5"/>
<text text-anchor="start" x="324" y="-67.5" font-family="Helvetica,sans-Serif" font-size="10.00">scram::core::NonTerminal</text>
<text text-anchor="middle" x="381" y="-56.5" font-family="Helvetica,sans-Serif" font-size="10.00">::coherent</text>
</a>
</g>
</g>
<!-- Node3&#45;&gt;Node14 -->
<g id="edge15" class="edge"><title>Node3&#45;&gt;Node14</title>
<path fill="none" stroke="midnightblue" d="M233.723,-220.21C250.972,-186.556 292.923,-107.55 316,-88.5 317.544,-87.2252 319.163,-86.0142 320.84,-84.864"/>
<polygon fill="midnightblue" stroke="midnightblue" points="322.844,-87.7438 329.63,-79.6078 319.251,-81.736 322.844,-87.7438"/>
</g>
<!-- Node6&#45;&gt;Node5 -->
<g id="edge7" class="edge"><title>Node6&#45;&gt;Node5</title>
<path fill="none" stroke="midnightblue" d="M431.538,-324.546C451.985,-330.756 475.853,-338.005 497.219,-344.495"/>
<polygon fill="midnightblue" stroke="midnightblue" points="496.253,-347.859 506.838,-347.416 498.287,-341.161 496.253,-347.859"/>
</g>
<!-- Node7 -->
<g id="node7" class="node"><title>Node7</title>
<g id="a_node7"><a xlink:href="classscram_1_1core_1_1SetNode.xhtml#a2d7f99792b82961df2e5ecfcd735bb5f" target="_top" xlink:title="scram::core::SetNode\l::max_set_order">
<polygon fill="white" stroke="black" points="501,-294.5 501,-324.5 614,-324.5 614,-294.5 501,-294.5"/>
<text text-anchor="start" x="509" y="-312.5" font-family="Helvetica,sans-Serif" font-size="10.00">scram::core::SetNode</text>
<text text-anchor="middle" x="557.5" y="-301.5" font-family="Helvetica,sans-Serif" font-size="10.00">::max_set_order</text>
</a>
</g>
</g>
<!-- Node6&#45;&gt;Node7 -->
<g id="edge6" class="edge"><title>Node6&#45;&gt;Node7</title>
<path fill="none" stroke="midnightblue" d="M432.005,-309.5C450.358,-309.5 471.418,-309.5 490.933,-309.5"/>
<polygon fill="midnightblue" stroke="midnightblue" points="490.974,-313 500.974,-309.5 490.974,-306 490.974,-313"/>
</g>
<!-- Node10 -->
<g id="node10" class="node"><title>Node10</title>
<g id="a_node10"><a xlink:href="classscram_1_1core_1_1Vertex.xhtml#a8a4a6e9871c7b80b9951fea57617d438" target="_top" xlink:title="scram::core::Vertex::id">
<polygon fill="white" stroke="black" points="499.5,-6 499.5,-25 615.5,-25 615.5,-6 499.5,-6"/>
<text text-anchor="middle" x="557.5" y="-13" font-family="Helvetica,sans-Serif" font-size="10.00">scram::core::Vertex::id</text>
</a>
</g>
</g>
<!-- Node9&#45;&gt;Node10 -->
<g id="edge11" class="edge"><title>Node9&#45;&gt;Node10</title>
<path fill="none" stroke="midnightblue" d="M437.213,-15.5C453.585,-15.5 471.705,-15.5 488.774,-15.5"/>
<polygon fill="midnightblue" stroke="midnightblue" points="489.241,-19.0001 499.241,-15.5 489.241,-12.0001 489.241,-19.0001"/>
</g>
</g>
</svg>
