<?xml version="1.0" encoding="UTF-8" standalone="no"?>
<!DOCTYPE svg PUBLIC "-//W3C//DTD SVG 1.1//EN"
 "http://www.w3.org/Graphics/SVG/1.1/DTD/svg11.dtd">
<!-- Generated by graphviz version 2.38.0 (20140413.2041)
 -->
<!-- Title: scram::mef::Expression::Mean Pages: 1 -->
<!--zoomable 923 -->
<svg id="main" version="1.1" xmlns="http://www.w3.org/2000/svg" xmlns:xlink="http://www.w3.org/1999/xlink" xml:space="preserve" onload="init(evt)">
<style type="text/css"><![CDATA[
.edge:hover path { stroke: red; }
.edge:hover polygon { stroke: red; fill: red; }
]]></style>
<script type="text/javascript"><![CDATA[
var edges = document.getElementsByTagName('g');
if (edges && edges.length) {
  for (var i=0;i<edges.length;i++) {
    if (edges[i].id.substr(0,4)=='edge') {
      edges[i].setAttribute('class','edge');
    }
  }
}
]]></script>
        <defs>
                <circle id="rim" cx="0" cy="0" r="7"/>
                <circle id="rim2" cx="0" cy="0" r="3.5"/>
                <g id="zoomPlus">
                        <use xlink:href="#rim" fill="#404040">
                                <set attributeName="fill" to="#808080" begin="zoomplus.mouseover" end="zoomplus.mouseout"/>
                        </use>
                        <path d="M-4,0h8M0,-4v8" fill="none" stroke="white" stroke-width="1.5" pointer-events="none"/>
                </g>
                <g id="zoomMin">
                        <use xlink:href="#rim" fill="#404040">
                                <set attributeName="fill" to="#808080" begin="zoomminus.mouseover" end="zoomminus.mouseout"/>
                        </use>
                        <path d="M-4,0h8" fill="none" stroke="white" stroke-width="1.5" pointer-events="none"/>
                </g>
                <g id="dirArrow">
                        <path fill="none" stroke="white" stroke-width="1.5" d="M0,-3.0v7 M-2.5,-0.5L0,-3.0L2.5,-0.5"/>
                </g>
               <g id="resetDef">
                       <use xlink:href="#rim2" fill="#404040">
                               <set attributeName="fill" to="#808080" begin="reset.mouseover" end="reset.mouseout"/>
                       </use>
               </g>
        </defs>

<script type="text/javascript">
var viewWidth = 548;
var viewHeight = 923;
var sectionId = 'dynsection-4';
</script>
<script xlink:href="svgpan.js"/>
<svg id="graph" class="graph">
<g id="viewport">
<title>scram::mef::Expression::Mean</title>
<polygon fill="white" stroke="none" points="-4,4 -4,-919 544,-919 544,4 -4,4"/>
<!-- Node1 -->
<g id="node1" class="node"><title>Node1</title>
<polygon fill="#bfbfbf" stroke="black" points="0,-360.5 0,-390.5 121,-390.5 121,-360.5 0,-360.5"/>
<text text-anchor="start" x="8" y="-378.5" font-family="Helvetica,sans-Serif" font-size="10.00">scram::mef::Expression</text>
<text text-anchor="middle" x="60.5" y="-367.5" font-family="Helvetica,sans-Serif" font-size="10.00">::Mean</text>
</g>
<!-- Node2 -->
<g id="node2" class="node"><title>Node2</title>
<g id="a_node2"><a xlink:href="classscram_1_1mef_1_1Expression.xhtml#a6b2d7f3d3abf98002c8cccee426edecc" target="_top" xlink:title="scram::mef::Expression::Max">
<polygon fill="white" stroke="black" points="170,-729 170,-748 316,-748 316,-729 170,-729"/>
<text text-anchor="middle" x="243" y="-736" font-family="Helvetica,sans-Serif" font-size="10.00">scram::mef::Expression::Max</text>
</a>
</g>
</g>
<!-- Node1&#45;&gt;Node2 -->
<g id="edge1" class="edge"><title>Node1&#45;&gt;Node2</title>
<path fill="none" stroke="midnightblue" d="M65.3941,-400.811C74.3921,-453.29 100.338,-576.248 157,-662.5 175.912,-691.288 208.383,-716.052 227.245,-728.963"/>
<polygon fill="midnightblue" stroke="midnightblue" points="68.8103,-400.016 63.7263,-390.72 61.904,-401.157 68.8103,-400.016"/>
</g>
<!-- Node10 -->
<g id="node10" class="node"><title>Node10</title>
<g id="a_node10"><a xlink:href="classscram_1_1mef_1_1GammaDeviate.xhtml#a853def23b4ff78a5c774699f0eaf27ba" target="_top" xlink:title="scram::mef::GammaDeviate::Max">
<polygon fill="white" stroke="black" points="160.5,-596 160.5,-615 325.5,-615 325.5,-596 160.5,-596"/>
<text text-anchor="middle" x="243" y="-603" font-family="Helvetica,sans-Serif" font-size="10.00">scram::mef::GammaDeviate::Max</text>
</a>
</g>
</g>
<!-- Node1&#45;&gt;Node10 -->
<g id="edge9" class="edge"><title>Node1&#45;&gt;Node10</title>
<path fill="none" stroke="midnightblue" d="M65.411,-400.512C73.757,-445.114 97.6359,-538.214 157,-586.5 161.692,-590.317 166.993,-593.404 172.599,-595.898"/>
<polygon fill="midnightblue" stroke="midnightblue" points="68.833,-399.763 63.6522,-390.521 61.9391,-400.977 68.833,-399.763"/>
</g>
<!-- Node11 -->
<g id="node11" class="node"><title>Node11</title>
<g id="a_node11"><a xlink:href="classscram_1_1mef_1_1BetaDeviate.xhtml#a8143423beabd8a74c3093f1b8a68787b" target="_top" xlink:title="scram::mef::BetaDeviate::Max">
<polygon fill="white" stroke="black" points="167.5,-558 167.5,-577 318.5,-577 318.5,-558 167.5,-558"/>
<text text-anchor="middle" x="243" y="-565" font-family="Helvetica,sans-Serif" font-size="10.00">scram::mef::BetaDeviate::Max</text>
</a>
</g>
</g>
<!-- Node1&#45;&gt;Node11 -->
<g id="edge10" class="edge"><title>Node1&#45;&gt;Node11</title>
<path fill="none" stroke="midnightblue" d="M68.062,-400.326C79.4676,-438.411 106.687,-510.793 157,-548.5 162.082,-552.309 167.784,-555.379 173.767,-557.851"/>
<polygon fill="midnightblue" stroke="midnightblue" points="71.3798,-399.199 65.2584,-390.551 64.6511,-401.129 71.3798,-399.199"/>
</g>
<!-- Node12 -->
<g id="node12" class="node"><title>Node12</title>
<g id="a_node12"><a xlink:href="classscram_1_1mef_1_1Neg.xhtml#abb1ecf2329266d07ded6359470c01e29" target="_top" xlink:title="scram::mef::Neg::Mean">
<polygon fill="white" stroke="black" points="183,-520 183,-539 303,-539 303,-520 183,-520"/>
<text text-anchor="middle" x="243" y="-527" font-family="Helvetica,sans-Serif" font-size="10.00">scram::mef::Neg::Mean</text>
</a>
</g>
</g>
<!-- Node1&#45;&gt;Node12 -->
<g id="edge11" class="edge"><title>Node1&#45;&gt;Node12</title>
<path fill="none" stroke="midnightblue" d="M72.0077,-400.056C86.4975,-430.846 115.602,-482.93 157,-510.5 164.803,-515.697 173.812,-519.49 182.986,-522.256"/>
<polygon fill="midnightblue" stroke="midnightblue" points="75.1512,-398.513 67.8196,-390.865 68.7814,-401.416 75.1512,-398.513"/>
</g>
<!-- Node13 -->
<g id="node13" class="node"><title>Node13</title>
<g id="a_node13"><a xlink:href="classscram_1_1mef_1_1ExponentialExpression.xhtml#a6340b19d90ee77040e2d06cbfa39ac79" target="_top" xlink:title="scram::mef::ExponentialExpression\l::Mean">
<polygon fill="white" stroke="black" points="157,-470.5 157,-500.5 329,-500.5 329,-470.5 157,-470.5"/>
<text text-anchor="start" x="165" y="-488.5" font-family="Helvetica,sans-Serif" font-size="10.00">scram::mef::ExponentialExpression</text>
<text text-anchor="middle" x="243" y="-477.5" font-family="Helvetica,sans-Serif" font-size="10.00">::Mean</text>
</a>
</g>
</g>
<!-- Node1&#45;&gt;Node13 -->
<g id="edge12" class="edge"><title>Node1&#45;&gt;Node13</title>
<path fill="none" stroke="midnightblue" d="M81.3541,-398.062C99.3457,-417.214 127.491,-444.123 157,-460.5 163.859,-464.307 171.359,-467.589 178.972,-470.405"/>
<polygon fill="midnightblue" stroke="midnightblue" points="83.8662,-395.623 74.5189,-390.635 78.7156,-400.363 83.8662,-395.623"/>
</g>
<!-- Node15 -->
<g id="node15" class="node"><title>Node15</title>
<g id="a_node15"><a xlink:href="classscram_1_1mef_1_1Add.xhtml#ac0d5e3bfeb1ee1d48bf8cf388392825a" target="_top" xlink:title="scram::mef::Add::Mean">
<polygon fill="white" stroke="black" points="183.5,-432 183.5,-451 302.5,-451 302.5,-432 183.5,-432"/>
<text text-anchor="middle" x="243" y="-439" font-family="Helvetica,sans-Serif" font-size="10.00">scram::mef::Add::Mean</text>
</a>
</g>
</g>
<!-- Node1&#45;&gt;Node15 -->
<g id="edge14" class="edge"><title>Node1&#45;&gt;Node15</title>
<path fill="none" stroke="midnightblue" d="M97.2275,-395.603C114.803,-404.833 136.558,-415.301 157,-422.5 167.554,-426.217 179.109,-429.373 190.204,-431.981"/>
<polygon fill="midnightblue" stroke="midnightblue" points="98.3973,-392.26 87.9284,-390.631 95.0968,-398.433 98.3973,-392.26"/>
</g>
<!-- Node16 -->
<g id="node16" class="node"><title>Node16</title>
<g id="a_node16"><a xlink:href="classscram_1_1mef_1_1GlmExpression.xhtml#a8ee502d7486c54d01114f6705998eacb" target="_top" xlink:title="scram::mef::GlmExpression\l::Mean">
<polygon fill="white" stroke="black" points="173.5,-382.5 173.5,-412.5 312.5,-412.5 312.5,-382.5 173.5,-382.5"/>
<text text-anchor="start" x="181.5" y="-400.5" font-family="Helvetica,sans-Serif" font-size="10.00">scram::mef::GlmExpression</text>
<text text-anchor="middle" x="243" y="-389.5" font-family="Helvetica,sans-Serif" font-size="10.00">::Mean</text>
</a>
</g>
</g>
<!-- Node1&#45;&gt;Node16 -->
<g id="edge15" class="edge"><title>Node1&#45;&gt;Node16</title>
<path fill="none" stroke="midnightblue" d="M131.073,-383.98C144.96,-385.672 159.537,-387.449 173.392,-389.138"/>
<polygon fill="midnightblue" stroke="midnightblue" points="131.453,-380.5 121.103,-382.765 130.606,-387.449 131.453,-380.5"/>
</g>
<!-- Node17 -->
<g id="node17" class="node"><title>Node17</title>
<g id="a_node17"><a xlink:href="classscram_1_1mef_1_1Sub.xhtml#acfbcac4774aeefe9b3278d0193f0edbd" target="_top" xlink:title="scram::mef::Sub::Mean">
<polygon fill="white" stroke="black" points="183.5,-344 183.5,-363 302.5,-363 302.5,-344 183.5,-344"/>
<text text-anchor="middle" x="243" y="-351" font-family="Helvetica,sans-Serif" font-size="10.00">scram::mef::Sub::Mean</text>
</a>
</g>
</g>
<!-- Node1&#45;&gt;Node17 -->
<g id="edge16" class="edge"><title>Node1&#45;&gt;Node17</title>
<path fill="none" stroke="midnightblue" d="M131.122,-367.014C148.383,-364.91 166.707,-362.677 183.382,-360.645"/>
<polygon fill="midnightblue" stroke="midnightblue" points="130.606,-363.551 121.103,-368.235 131.453,-370.5 130.606,-363.551"/>
</g>
<!-- Node18 -->
<g id="node18" class="node"><title>Node18</title>
<g id="a_node18"><a xlink:href="classscram_1_1mef_1_1WeibullExpression.xhtml#a002a31460e00bb231399dcc1e6d0869d" target="_top" xlink:title="scram::mef::WeibullExpression\l::Mean">
<polygon fill="white" stroke="black" points="166.5,-294.5 166.5,-324.5 319.5,-324.5 319.5,-294.5 166.5,-294.5"/>
<text text-anchor="start" x="174.5" y="-312.5" font-family="Helvetica,sans-Serif" font-size="10.00">scram::mef::WeibullExpression</text>
<text text-anchor="middle" x="243" y="-301.5" font-family="Helvetica,sans-Serif" font-size="10.00">::Mean</text>
</a>
</g>
</g>
<!-- Node1&#45;&gt;Node18 -->
<g id="edge17" class="edge"><title>Node1&#45;&gt;Node18</title>
<path fill="none" stroke="midnightblue" d="M103.223,-356.304C119.787,-349.023 139.12,-340.941 157,-334.5 166.696,-331.007 177.139,-327.63 187.274,-324.547"/>
<polygon fill="midnightblue" stroke="midnightblue" points="101.54,-353.222 93.8222,-360.481 104.382,-359.619 101.54,-353.222"/>
</g>
<!-- Node19 -->
<g id="node19" class="node"><title>Node19</title>
<g id="a_node19"><a xlink:href="classscram_1_1mef_1_1Histogram.xhtml#a516d3e3a6d7f96b20ea9133c39140709" target="_top" xlink:title="scram::mef::Histogram\l::Mean">
<polygon fill="white" stroke="black" points="184.5,-245.5 184.5,-275.5 301.5,-275.5 301.5,-245.5 184.5,-245.5"/>
<text text-anchor="start" x="192.5" y="-263.5" font-family="Helvetica,sans-Serif" font-size="10.00">scram::mef::Histogram</text>
<text text-anchor="middle" x="243" y="-252.5" font-family="Helvetica,sans-Serif" font-size="10.00">::Mean</text>
</a>
</g>
</g>
<!-- Node1&#45;&gt;Node19 -->
<g id="edge18" class="edge"><title>Node1&#45;&gt;Node19</title>
<path fill="none" stroke="midnightblue" d="M80.1706,-352.61C97.9373,-332.242 126.433,-303.038 157,-285.5 165.405,-280.677 174.822,-276.714 184.242,-273.48"/>
<polygon fill="midnightblue" stroke="midnightblue" points="77.2902,-350.594 73.4606,-360.472 82.6146,-355.138 77.2902,-350.594"/>
</g>
<!-- Node20 -->
<g id="node20" class="node"><title>Node20</title>
<g id="a_node20"><a xlink:href="classscram_1_1mef_1_1Expression.xhtml#a9601745b7f61ec67c8074a4043367152" target="_top" xlink:title="scram::mef::Expression::Min">
<polygon fill="white" stroke="black" points="171.5,-634 171.5,-653 314.5,-653 314.5,-634 171.5,-634"/>
<text text-anchor="middle" x="243" y="-641" font-family="Helvetica,sans-Serif" font-size="10.00">scram::mef::Expression::Min</text>
</a>
</g>
</g>
<!-- Node1&#45;&gt;Node20 -->
<g id="edge19" class="edge"><title>Node1&#45;&gt;Node20</title>
<path fill="none" stroke="midnightblue" d="M63.489,-400.624C68.8937,-451.156 88.438,-565.301 157,-624.5 161.464,-628.354 166.54,-631.475 171.939,-633.996"/>
<polygon fill="midnightblue" stroke="midnightblue" points="66.9634,-400.19 62.5139,-390.575 59.9961,-400.866 66.9634,-400.19"/>
</g>
<!-- Node23 -->
<g id="node23" class="node"><title>Node23</title>
<g id="a_node23"><a xlink:href="classscram_1_1mef_1_1UniformDeviate.xhtml#a558a657077fa6d4c1000d21863d56fda" target="_top" xlink:title="scram::mef::UniformDeviate\l::Validate">
<polygon fill="white" stroke="black" points="173,-196.5 173,-226.5 313,-226.5 313,-196.5 173,-196.5"/>
<text text-anchor="start" x="181" y="-214.5" font-family="Helvetica,sans-Serif" font-size="10.00">scram::mef::UniformDeviate</text>
<text text-anchor="middle" x="243" y="-203.5" font-family="Helvetica,sans-Serif" font-size="10.00">::Validate</text>
</a>
</g>
</g>
<!-- Node1&#45;&gt;Node23 -->
<g id="edge24" class="edge"><title>Node1&#45;&gt;Node23</title>
<path fill="none" stroke="midnightblue" d="M71.8855,-351.14C86.4095,-319.968 115.722,-266.434 157,-236.5 162.354,-232.617 168.308,-229.333 174.509,-226.557"/>
<polygon fill="midnightblue" stroke="midnightblue" points="68.622,-349.862 67.6931,-360.416 75.0009,-352.745 68.622,-349.862"/>
</g>
<!-- Node24 -->
<g id="node24" class="node"><title>Node24</title>
<g id="a_node24"><a xlink:href="classscram_1_1mef_1_1NormalDeviate.xhtml#a00e2955e101aa9725b2dd503c5f4c61a" target="_top" xlink:title="scram::mef::NormalDeviate\l::Validate">
<polygon fill="white" stroke="black" points="174.5,-147.5 174.5,-177.5 311.5,-177.5 311.5,-147.5 174.5,-147.5"/>
<text text-anchor="start" x="182.5" y="-165.5" font-family="Helvetica,sans-Serif" font-size="10.00">scram::mef::NormalDeviate</text>
<text text-anchor="middle" x="243" y="-154.5" font-family="Helvetica,sans-Serif" font-size="10.00">::Validate</text>
</a>
</g>
</g>
<!-- Node1&#45;&gt;Node24 -->
<g id="edge25" class="edge"><title>Node1&#45;&gt;Node24</title>
<path fill="none" stroke="midnightblue" d="M67.3687,-350.409C78.1118,-310.058 104.793,-230.889 157,-187.5 162.205,-183.174 168.132,-179.597 174.379,-176.638"/>
<polygon fill="midnightblue" stroke="midnightblue" points="63.9404,-349.689 64.8636,-360.243 70.7238,-351.417 63.9404,-349.689"/>
</g>
<!-- Node25 -->
<g id="node25" class="node"><title>Node25</title>
<g id="a_node25"><a xlink:href="classscram_1_1mef_1_1Expression.xhtml#af3e09d926b52f6077aa85c26454c4e18" target="_top" xlink:title="Validates the expression. ">
<polygon fill="white" stroke="black" points="182.5,-98.5 182.5,-128.5 303.5,-128.5 303.5,-98.5 182.5,-98.5"/>
<text text-anchor="start" x="190.5" y="-116.5" font-family="Helvetica,sans-Serif" font-size="10.00">scram::mef::Expression</text>
<text text-anchor="middle" x="243" y="-105.5" font-family="Helvetica,sans-Serif" font-size="10.00">::Validate</text>
</a>
</g>
</g>
<!-- Node1&#45;&gt;Node25 -->
<g id="edge26" class="edge"><title>Node1&#45;&gt;Node25</title>
<path fill="none" stroke="midnightblue" d="M64.4378,-350.283C71.415,-301.995 93.4543,-196.163 157,-138.5 164.176,-131.988 172.969,-127.167 182.146,-123.599"/>
<polygon fill="midnightblue" stroke="midnightblue" points="60.932,-350.092 63.069,-360.469 67.8697,-351.025 60.932,-350.092"/>
</g>
<!-- Node27 -->
<g id="node27" class="node"><title>Node27</title>
<g id="a_node27"><a xlink:href="classscram_1_1mef_1_1GammaDeviate.xhtml#a4e6270b70787e8ab6f58c605ddebf674" target="_top" xlink:title="scram::mef::GammaDeviate\l::Validate">
<polygon fill="white" stroke="black" points="173,-49.5 173,-79.5 313,-79.5 313,-49.5 173,-49.5"/>
<text text-anchor="start" x="181" y="-67.5" font-family="Helvetica,sans-Serif" font-size="10.00">scram::mef::GammaDeviate</text>
<text text-anchor="middle" x="243" y="-56.5" font-family="Helvetica,sans-Serif" font-size="10.00">::Validate</text>
</a>
</g>
</g>
<!-- Node1&#45;&gt;Node27 -->
<g id="edge28" class="edge"><title>Node1&#45;&gt;Node27</title>
<path fill="none" stroke="midnightblue" d="M62.4318,-350.216C65.8667,-294.814 81.9348,-161.894 157,-89.5 161.65,-85.0153 167.062,-81.3292 172.862,-78.3004"/>
<polygon fill="midnightblue" stroke="midnightblue" points="58.9358,-350.05 61.8995,-360.222 65.9259,-350.422 58.9358,-350.05"/>
</g>
<!-- Node28 -->
<g id="node28" class="node"><title>Node28</title>
<g id="a_node28"><a xlink:href="classscram_1_1mef_1_1BetaDeviate.xhtml#aa65f2fd1412e180085e80bbcbace562b" target="_top" xlink:title="scram::mef::BetaDeviate\l::Validate">
<polygon fill="white" stroke="black" points="180,-0.5 180,-30.5 306,-30.5 306,-0.5 180,-0.5"/>
<text text-anchor="start" x="188" y="-18.5" font-family="Helvetica,sans-Serif" font-size="10.00">scram::mef::BetaDeviate</text>
<text text-anchor="middle" x="243" y="-7.5" font-family="Helvetica,sans-Serif" font-size="10.00">::Validate</text>
</a>
</g>
</g>
<!-- Node1&#45;&gt;Node28 -->
<g id="edge29" class="edge"><title>Node1&#45;&gt;Node28</title>
<path fill="none" stroke="midnightblue" d="M60.9675,-350.279C61.0853,-288.447 70.2268,-128 157,-40.5 163.39,-34.056 171.35,-29.2544 179.816,-25.6804"/>
<polygon fill="midnightblue" stroke="midnightblue" points="57.4676,-350.335 61.029,-360.313 64.4675,-350.292 57.4676,-350.335"/>
</g>
<!-- Node3 -->
<g id="node3" class="node"><title>Node3</title>
<g id="a_node3"><a xlink:href="classscram_1_1mef_1_1Neg.xhtml#a7da67dab2e2355c05a5d1726852a03b1" target="_top" xlink:title="scram::mef::Neg::Min">
<polygon fill="white" stroke="black" points="396.5,-748 396.5,-767 508.5,-767 508.5,-748 396.5,-748"/>
<text text-anchor="middle" x="452.5" y="-755" font-family="Helvetica,sans-Serif" font-size="10.00">scram::mef::Neg::Min</text>
</a>
</g>
</g>
<!-- Node2&#45;&gt;Node3 -->
<g id="edge2" class="edge"><title>Node2&#45;&gt;Node3</title>
<path fill="none" stroke="midnightblue" d="M326.276,-746.034C349.85,-748.192 374.971,-750.493 396.477,-752.462"/>
<polygon fill="midnightblue" stroke="midnightblue" points="326.56,-742.545 316.282,-745.119 325.921,-749.516 326.56,-742.545"/>
</g>
<!-- Node4 -->
<g id="node4" class="node"><title>Node4</title>
<g id="a_node4"><a xlink:href="classscram_1_1mef_1_1Add.xhtml#a77d7a4d5e65a84cbf7ba36a4da906c55" target="_top" xlink:title="scram::mef::Add::Max">
<polygon fill="white" stroke="black" points="395.5,-710 395.5,-729 509.5,-729 509.5,-710 395.5,-710"/>
<text text-anchor="middle" x="452.5" y="-717" font-family="Helvetica,sans-Serif" font-size="10.00">scram::mef::Add::Max</text>
</a>
</g>
</g>
<!-- Node2&#45;&gt;Node4 -->
<g id="edge3" class="edge"><title>Node2&#45;&gt;Node4</title>
<path fill="none" stroke="midnightblue" d="M326.452,-730.95C349.616,-728.829 374.26,-726.573 395.492,-724.628"/>
<polygon fill="midnightblue" stroke="midnightblue" points="325.921,-727.484 316.282,-731.881 326.56,-734.455 325.921,-727.484"/>
</g>
<!-- Node5 -->
<g id="node5" class="node"><title>Node5</title>
<g id="a_node5"><a xlink:href="classscram_1_1mef_1_1Sub.xhtml#ad362e2542f6148aa32ff024ef957ee24" target="_top" xlink:title="scram::mef::Sub::Max">
<polygon fill="white" stroke="black" points="395.5,-634 395.5,-653 509.5,-653 509.5,-634 395.5,-634"/>
<text text-anchor="middle" x="452.5" y="-641" font-family="Helvetica,sans-Serif" font-size="10.00">scram::mef::Sub::Max</text>
</a>
</g>
</g>
<!-- Node2&#45;&gt;Node5 -->
<g id="edge4" class="edge"><title>Node2&#45;&gt;Node5</title>
<path fill="none" stroke="midnightblue" d="M264.296,-722.652C287.414,-705.364 326.932,-678.082 365,-662.5 374.534,-658.598 385.002,-655.436 395.263,-652.896"/>
<polygon fill="midnightblue" stroke="midnightblue" points="262.123,-719.907 256.276,-728.743 266.356,-725.482 262.123,-719.907"/>
</g>
<!-- Node6 -->
<g id="node6" class="node"><title>Node6</title>
<g id="a_node6"><a xlink:href="classscram_1_1mef_1_1Sub.xhtml#a9f22864663589361efd64b28768d82d0" target="_top" xlink:title="scram::mef::Sub::Min">
<polygon fill="white" stroke="black" points="397,-672 397,-691 508,-691 508,-672 397,-672"/>
<text text-anchor="middle" x="452.5" y="-679" font-family="Helvetica,sans-Serif" font-size="10.00">scram::mef::Sub::Min</text>
</a>
</g>
</g>
<!-- Node2&#45;&gt;Node6 -->
<g id="edge5" class="edge"><title>Node2&#45;&gt;Node6</title>
<path fill="none" stroke="midnightblue" d="M281.829,-725.677C305.563,-717.867 336.888,-707.986 365,-700.5 377.778,-697.097 391.732,-693.837 404.631,-691.007"/>
<polygon fill="midnightblue" stroke="midnightblue" points="280.545,-722.415 272.154,-728.884 282.748,-729.06 280.545,-722.415"/>
</g>
<!-- Node7 -->
<g id="node7" class="node"><title>Node7</title>
<g id="a_node7"><a xlink:href="classscram_1_1mef_1_1LogNormalDeviate.xhtml#a4fa4995d3592c7b62b72a3a903425e8c" target="_top" xlink:title="scram::mef::LogNormalDeviate\l::Mean">
<polygon fill="white" stroke="black" points="376,-884.5 376,-914.5 529,-914.5 529,-884.5 376,-884.5"/>
<text text-anchor="start" x="384" y="-902.5" font-family="Helvetica,sans-Serif" font-size="10.00">scram::mef::LogNormalDeviate</text>
<text text-anchor="middle" x="452.5" y="-891.5" font-family="Helvetica,sans-Serif" font-size="10.00">::Mean</text>
</a>
</g>
</g>
<!-- Node2&#45;&gt;Node7 -->
<g id="edge6" class="edge"><title>Node2&#45;&gt;Node7</title>
<path fill="none" stroke="midnightblue" d="M255.005,-756.662C273.811,-786.133 314.992,-844.217 365,-875.5 370.417,-878.889 376.318,-881.808 382.408,-884.32"/>
<polygon fill="midnightblue" stroke="midnightblue" points="257.967,-754.798 249.702,-748.169 252.029,-758.506 257.967,-754.798"/>
</g>
<!-- Node8 -->
<g id="node8" class="node"><title>Node8</title>
<g id="a_node8"><a xlink:href="classscram_1_1mef_1_1GammaDeviate.xhtml#ae75063c53f49c74930792055004cb09f" target="_top" xlink:title="scram::mef::GammaDeviate\l::Mean">
<polygon fill="white" stroke="black" points="382.5,-835.5 382.5,-865.5 522.5,-865.5 522.5,-835.5 382.5,-835.5"/>
<text text-anchor="start" x="390.5" y="-853.5" font-family="Helvetica,sans-Serif" font-size="10.00">scram::mef::GammaDeviate</text>
<text text-anchor="middle" x="452.5" y="-842.5" font-family="Helvetica,sans-Serif" font-size="10.00">::Mean</text>
</a>
</g>
</g>
<!-- Node2&#45;&gt;Node8 -->
<g id="edge7" class="edge"><title>Node2&#45;&gt;Node8</title>
<path fill="none" stroke="midnightblue" d="M262.228,-755.035C284.805,-774.701 325.175,-807.276 365,-826.5 372.018,-829.887 379.594,-832.867 387.242,-835.469"/>
<polygon fill="midnightblue" stroke="midnightblue" points="264.294,-752.19 254.485,-748.185 259.656,-757.432 264.294,-752.19"/>
</g>
<!-- Node9 -->
<g id="node9" class="node"><title>Node9</title>
<g id="a_node9"><a xlink:href="classscram_1_1mef_1_1BetaDeviate.xhtml#abf897400d4e51de419463302de5d0f32" target="_top" xlink:title="scram::mef::BetaDeviate\l::Mean">
<polygon fill="white" stroke="black" points="389.5,-786.5 389.5,-816.5 515.5,-816.5 515.5,-786.5 389.5,-786.5"/>
<text text-anchor="start" x="397.5" y="-804.5" font-family="Helvetica,sans-Serif" font-size="10.00">scram::mef::BetaDeviate</text>
<text text-anchor="middle" x="452.5" y="-793.5" font-family="Helvetica,sans-Serif" font-size="10.00">::Mean</text>
</a>
</g>
</g>
<!-- Node2&#45;&gt;Node9 -->
<g id="edge8" class="edge"><title>Node2&#45;&gt;Node9</title>
<path fill="none" stroke="midnightblue" d="M283.438,-751.137C307.057,-758.642 337.7,-768.269 365,-776.5 375.926,-779.794 387.654,-783.242 398.839,-786.489"/>
<polygon fill="midnightblue" stroke="midnightblue" points="284.367,-747.759 273.777,-748.061 282.244,-754.43 284.367,-747.759"/>
</g>
<!-- Node14 -->
<g id="node14" class="node"><title>Node14</title>
<g id="a_node14"><a xlink:href="classscram_1_1mef_1_1PeriodicTest.xhtml#acd1ec7b252bc43adaf2c473997a54254" target="_top" xlink:title="scram::mef::PeriodicTest::Min">
<polygon fill="white" stroke="black" points="378,-476 378,-495 527,-495 527,-476 378,-476"/>
<text text-anchor="middle" x="452.5" y="-483" font-family="Helvetica,sans-Serif" font-size="10.00">scram::mef::PeriodicTest::Min</text>
</a>
</g>
</g>
<!-- Node13&#45;&gt;Node14 -->
<g id="edge13" class="edge"><title>Node13&#45;&gt;Node14</title>
<path fill="none" stroke="midnightblue" d="M339.549,-485.5C352.397,-485.5 365.414,-485.5 377.805,-485.5"/>
<polygon fill="midnightblue" stroke="midnightblue" points="339.297,-482 329.296,-485.5 339.296,-489 339.297,-482"/>
</g>
<!-- Node20&#45;&gt;Node5 -->
<g id="edge22" class="edge"><title>Node20&#45;&gt;Node5</title>
<path fill="none" stroke="midnightblue" d="M324.543,-643.5C348.161,-643.5 373.47,-643.5 395.228,-643.5"/>
<polygon fill="midnightblue" stroke="midnightblue" points="324.54,-640 314.54,-643.5 324.54,-647 324.54,-640"/>
</g>
<!-- Node20&#45;&gt;Node6 -->
<g id="edge23" class="edge"><title>Node20&#45;&gt;Node6</title>
<path fill="none" stroke="midnightblue" d="M305.96,-654.847C335.732,-660.299 371.015,-666.761 399.385,-671.956"/>
<polygon fill="midnightblue" stroke="midnightblue" points="306.56,-651.399 296.093,-653.04 305.299,-658.284 306.56,-651.399"/>
</g>
<!-- Node21 -->
<g id="node21" class="node"><title>Node21</title>
<g id="a_node21"><a xlink:href="classscram_1_1mef_1_1Neg.xhtml#aff5035560166429b589032c821d0054f" target="_top" xlink:title="scram::mef::Neg::Max">
<polygon fill="white" stroke="black" points="395,-558 395,-577 510,-577 510,-558 395,-558"/>
<text text-anchor="middle" x="452.5" y="-565" font-family="Helvetica,sans-Serif" font-size="10.00">scram::mef::Neg::Max</text>
</a>
</g>
</g>
<!-- Node20&#45;&gt;Node21 -->
<g id="edge20" class="edge"><title>Node20&#45;&gt;Node21</title>
<path fill="none" stroke="midnightblue" d="M316.52,-630.467C320.849,-628.722 325.046,-626.744 329,-624.5 349.234,-613.018 344.745,-597.945 365,-586.5 374.103,-581.357 384.473,-577.605 394.794,-574.869"/>
<polygon fill="midnightblue" stroke="midnightblue" points="315.107,-627.256 306.876,-633.926 317.47,-633.845 315.107,-627.256"/>
</g>
<!-- Node22 -->
<g id="node22" class="node"><title>Node22</title>
<g id="a_node22"><a xlink:href="classscram_1_1mef_1_1Add.xhtml#aa2b2101f0f40604e342f9f7477fdef87" target="_top" xlink:title="scram::mef::Add::Min">
<polygon fill="white" stroke="black" points="397,-596 397,-615 508,-615 508,-596 397,-596"/>
<text text-anchor="middle" x="452.5" y="-603" font-family="Helvetica,sans-Serif" font-size="10.00">scram::mef::Add::Min</text>
</a>
</g>
</g>
<!-- Node20&#45;&gt;Node22 -->
<g id="edge21" class="edge"><title>Node20&#45;&gt;Node22</title>
<path fill="none" stroke="midnightblue" d="M305.96,-632.153C335.732,-626.701 371.015,-620.239 399.385,-615.044"/>
<polygon fill="midnightblue" stroke="midnightblue" points="305.299,-628.716 296.093,-633.96 306.56,-635.601 305.299,-628.716"/>
</g>
<!-- Node26 -->
<g id="node26" class="node"><title>Node26</title>
<g id="a_node26"><a xlink:href="classscram_1_1mef_1_1LogNormalDeviate.xhtml#a8a2aea0e0923e04e58ec1c48cc695a05" target="_top" xlink:title="scram::mef::LogNormalDeviate::Min">
<polygon fill="white" stroke="black" points="365,-104 365,-123 540,-123 540,-104 365,-104"/>
<text text-anchor="middle" x="452.5" y="-111" font-family="Helvetica,sans-Serif" font-size="10.00">scram::mef::LogNormalDeviate::Min</text>
</a>
</g>
</g>
<!-- Node25&#45;&gt;Node26 -->
<g id="edge27" class="edge"><title>Node25&#45;&gt;Node26</title>
<path fill="none" stroke="midnightblue" d="M313.753,-113.5C330.126,-113.5 347.77,-113.5 364.785,-113.5"/>
<polygon fill="midnightblue" stroke="midnightblue" points="313.739,-110 303.739,-113.5 313.739,-117 313.739,-110"/>
</g>
</g>
</svg>
        <g id="navigator" transform="translate(0 0)" fill="#404254">
                <rect fill="#f2f5e9" fill-opacity="0.5" stroke="#606060" stroke-width=".5" x="0" y="0" width="60" height="60"/>
                <use id="zoomplus" xlink:href="#zoomPlus" x="17" y="9" onmousedown="handleZoom(evt,'in')"/>
                <use id="zoomminus" xlink:href="#zoomMin" x="42" y="9" onmousedown="handleZoom(evt,'out')"/>
                <use id="reset" xlink:href="#resetDef" x="30" y="36" onmousedown="handleReset()"/>
                <g id="arrowUp" xlink:href="#dirArrow" transform="translate(30 24)" onmousedown="handlePan(0,-1)">
                  <use xlink:href="#rim" fill="#404040">
                        <set attributeName="fill" to="#808080" begin="arrowUp.mouseover" end="arrowUp.mouseout"/>
                  </use>
                  <path fill="none" stroke="white" stroke-width="1.5" d="M0,-3.0v7 M-2.5,-0.5L0,-3.0L2.5,-0.5"/>
                </g>
                <g id="arrowRight" xlink:href="#dirArrow" transform="rotate(90) translate(36 -43)" onmousedown="handlePan(1,0)">
                  <use xlink:href="#rim" fill="#404040">
                        <set attributeName="fill" to="#808080" begin="arrowRight.mouseover" end="arrowRight.mouseout"/>
                  </use>
                  <path fill="none" stroke="white" stroke-width="1.5" d="M0,-3.0v7 M-2.5,-0.5L0,-3.0L2.5,-0.5"/>
                </g>
                <g id="arrowDown" xlink:href="#dirArrow" transform="rotate(180) translate(-30 -48)" onmousedown="handlePan(0,1)">
                  <use xlink:href="#rim" fill="#404040">
                        <set attributeName="fill" to="#808080" begin="arrowDown.mouseover" end="arrowDown.mouseout"/>
                  </use>
                  <path fill="none" stroke="white" stroke-width="1.5" d="M0,-3.0v7 M-2.5,-0.5L0,-3.0L2.5,-0.5"/>
                </g>
                <g id="arrowLeft" xlink:href="#dirArrow" transform="rotate(270) translate(-36 17)" onmousedown="handlePan(-1,0)">
                  <use xlink:href="#rim" fill="#404040">
                        <set attributeName="fill" to="#808080" begin="arrowLeft.mouseover" end="arrowLeft.mouseout"/>
                  </use>
                  <path fill="none" stroke="white" stroke-width="1.5" d="M0,-3.0v7 M-2.5,-0.5L0,-3.0L2.5,-0.5"/>
                </g>
        </g>
        <svg viewBox="0 0 15 15" width="100%" height="30px" preserveAspectRatio="xMaxYMin meet">
         <g id="arrow_out" transform="scale(0.3 0.3)">
          <a xlink:href="classscram_1_1mef_1_1Expression_ac7e0dd118eafdfa943944172c1625a4e_icgraph_org.svg" target="_base">
           <rect id="button" ry="5" rx="5" y="6" x="6" height="38" width="38"
                fill="#f2f5e9" fill-opacity="0.5" stroke="#606060" stroke-width="1.0"/>
           <path id="arrow"
             d="M 11.500037,31.436501 C 11.940474,20.09759 22.043105,11.32322 32.158766,21.979434 L 37.068811,17.246167 C 37.068811,17.246167 37.088388,32 37.088388,32 L 22.160133,31.978069 C 22.160133,31.978069 26.997745,27.140456 26.997745,27.140456 C 18.528582,18.264221 13.291696,25.230495 11.500037,31.436501 z"
             style="fill:#404040;"/>
          </a>
         </g>
        </svg>
</svg>
