<?xml version="1.0" encoding="UTF-8" standalone="no"?>
<!DOCTYPE svg PUBLIC "-//W3C//DTD SVG 1.1//EN"
 "http://www.w3.org/Graphics/SVG/1.1/DTD/svg11.dtd">
<!-- Generated by graphviz version 2.38.0 (20140413.2041)
 -->
<!-- Title: scram::core::Ite::p Pages: 1 -->
<svg width="302pt" height="99pt"
 viewBox="0.00 0.00 302.00 98.50" xmlns="http://www.w3.org/2000/svg" xmlns:xlink="http://www.w3.org/1999/xlink">
<g id="graph0" class="graph" transform="scale(1 1) rotate(0) translate(4 94.5)">
<title>scram::core::Ite::p</title>
<polygon fill="white" stroke="none" points="-4,4 -4,-94.5 298,-94.5 298,4 -4,4"/>
<!-- Node1 -->
<g id="node1" class="node"><title>Node1</title>
<polygon fill="#bfbfbf" stroke="black" points="0,-38.5 0,-57.5 97,-57.5 97,-38.5 0,-38.5"/>
<text text-anchor="middle" x="48.5" y="-45.5" font-family="Helvetica,sans-Serif" font-size="10.00">scram::core::Ite::p</text>
</g>
<!-- Node2 -->
<g id="node2" class="node"><title>Node2</title>
<g id="a_node2"><a xlink:href="classscram_1_1core_1_1ImportanceAnalysis.xhtml#acf487235f07ddcc1c920943ebfe2ce60" target="_top" xlink:title="Performs quantitative analysis of importance factors of basic events in products. ...">
<polygon fill="white" stroke="black" points="133,-60 133,-90 294,-90 294,-60 133,-60"/>
<text text-anchor="start" x="141" y="-78" font-family="Helvetica,sans-Serif" font-size="10.00">scram::core::ImportanceAnalysis</text>
<text text-anchor="middle" x="213.5" y="-67" font-family="Helvetica,sans-Serif" font-size="10.00">::Analyze</text>
</a>
</g>
</g>
<!-- Node1&#45;&gt;Node2 -->
<g id="edge1" class="edge"><title>Node1&#45;&gt;Node2</title>
<path fill="none" stroke="midnightblue" d="M107.1,-57.5412C115.484,-58.9299 124.238,-60.38 132.962,-61.825"/>
<polygon fill="midnightblue" stroke="midnightblue" points="107.522,-54.0634 97.0845,-55.8821 106.378,-60.9693 107.522,-54.0634"/>
</g>
<!-- Node3 -->
<g id="node3" class="node"><title>Node3</title>
<g id="a_node3"><a xlink:href="classscram_1_1core_1_1ProbabilityAnalyzer_3_01Bdd_01_4.xhtml#a45b66605634ae60f1c00e3ac469a7c7a" target="_top" xlink:title="Calculates the total probability with a different set of probability values than the one given upon c...">
<polygon fill="white" stroke="black" points="134,-0.5 134,-41.5 293,-41.5 293,-0.5 134,-0.5"/>
<text text-anchor="start" x="142" y="-29.5" font-family="Helvetica,sans-Serif" font-size="10.00">scram::core::Probability</text>
<text text-anchor="start" x="142" y="-18.5" font-family="Helvetica,sans-Serif" font-size="10.00">Analyzer&lt; Bdd &gt;::CalculateTotal</text>
<text text-anchor="middle" x="213.5" y="-7.5" font-family="Helvetica,sans-Serif" font-size="10.00">Probability</text>
</a>
</g>
</g>
<!-- Node1&#45;&gt;Node3 -->
<g id="edge2" class="edge"><title>Node1&#45;&gt;Node3</title>
<path fill="none" stroke="midnightblue" d="M107.073,-38.4634C115.76,-37.0244 124.845,-35.5196 133.882,-34.0225"/>
<polygon fill="midnightblue" stroke="midnightblue" points="106.378,-35.0307 97.0845,-40.1179 107.522,-41.9366 106.378,-35.0307"/>
</g>
</g>
</svg>
