<?xml version="1.0" encoding="UTF-8" standalone="no"?>
<!DOCTYPE svg PUBLIC "-//W3C//DTD SVG 1.1//EN"
 "http://www.w3.org/Graphics/SVG/1.1/DTD/svg11.dtd">
<!-- Generated by graphviz version 2.38.0 (20140413.2041)
 -->
<!-- Title: scram::core::Preprocessor::ProcessMultipleDefinitions Pages: 1 -->
<svg width="1046pt" height="228pt"
 viewBox="0.00 0.00 1046.00 227.89" xmlns="http://www.w3.org/2000/svg" xmlns:xlink="http://www.w3.org/1999/xlink">
<g id="graph0" class="graph" transform="scale(1 1) rotate(0) translate(4 223.889)">
<title>scram::core::Preprocessor::ProcessMultipleDefinitions</title>
<polygon fill="white" stroke="none" points="-4,4 -4,-223.889 1042,-223.889 1042,4 -4,4"/>
<!-- Node1 -->
<g id="node1" class="node"><title>Node1</title>
<polygon fill="#bfbfbf" stroke="black" points="0,-175.5 0,-205.5 139,-205.5 139,-175.5 0,-175.5"/>
<text text-anchor="start" x="8" y="-193.5" font-family="Helvetica,sans-Serif" font-size="10.00">scram::core::Preprocessor</text>
<text text-anchor="middle" x="69.5" y="-182.5" font-family="Helvetica,sans-Serif" font-size="10.00">::ProcessMultipleDefinitions</text>
</g>
<!-- Node2 -->
<g id="node2" class="node"><title>Node2</title>
<g id="a_node2"><a xlink:href="classscram_1_1core_1_1Preprocessor.xhtml#a5ee92284aef510ce01a71c962d50f51c" target="_top" xlink:title="Runs the graph preprocessing. ">
<polygon fill="white" stroke="black" points="720.5,-116.5 720.5,-146.5 852.5,-146.5 852.5,-116.5 720.5,-116.5"/>
<text text-anchor="start" x="728.5" y="-134.5" font-family="Helvetica,sans-Serif" font-size="10.00">scram::core::Preprocessor</text>
<text text-anchor="middle" x="786.5" y="-123.5" font-family="Helvetica,sans-Serif" font-size="10.00">::operator()</text>
</a>
</g>
</g>
<!-- Node1&#45;&gt;Node2 -->
<g id="edge1" class="edge"><title>Node1&#45;&gt;Node2</title>
<path fill="none" stroke="midnightblue" d="M149.443,-202.574C264.968,-217.609 486.012,-236.349 667,-192.5 703.431,-183.674 741.207,-161.591 764.038,-146.563"/>
<polygon fill="midnightblue" stroke="midnightblue" points="149.648,-199.071 139.275,-201.224 148.727,-206.01 149.648,-199.071"/>
</g>
<!-- Node4 -->
<g id="node4" class="node"><title>Node4</title>
<g id="a_node4"><a xlink:href="classscram_1_1core_1_1Preprocessor.xhtml#a9d5f89471499508eb9e6c01ea43e0f15" target="_top" xlink:title="Preprocessing phase of the original structure of the graph. ">
<polygon fill="white" stroke="black" points="175,-115.5 175,-145.5 307,-145.5 307,-115.5 175,-115.5"/>
<text text-anchor="start" x="183" y="-133.5" font-family="Helvetica,sans-Serif" font-size="10.00">scram::core::Preprocessor</text>
<text text-anchor="middle" x="241" y="-122.5" font-family="Helvetica,sans-Serif" font-size="10.00">::RunPhaseTwo</text>
</a>
</g>
</g>
<!-- Node1&#45;&gt;Node4 -->
<g id="edge3" class="edge"><title>Node1&#45;&gt;Node4</title>
<path fill="none" stroke="midnightblue" d="M122.923,-171.943C146.89,-163.459 174.915,-153.539 197.536,-145.532"/>
<polygon fill="midnightblue" stroke="midnightblue" points="121.531,-168.723 113.272,-175.359 123.867,-175.322 121.531,-168.723"/>
</g>
<!-- Node3 -->
<g id="node3" class="node"><title>Node3</title>
<g id="a_node3"><a xlink:href="classscram_1_1core_1_1Preprocessor_1_1GateSet.xhtml#ae00239084858979e096032c4cf2f05b9" target="_top" xlink:title="Inserts a gate into the set if it is semantically unique. ">
<polygon fill="white" stroke="black" points="906,-116.5 906,-146.5 1038,-146.5 1038,-116.5 906,-116.5"/>
<text text-anchor="start" x="914" y="-134.5" font-family="Helvetica,sans-Serif" font-size="10.00">scram::core::Preprocessor</text>
<text text-anchor="middle" x="972" y="-123.5" font-family="Helvetica,sans-Serif" font-size="10.00">::GateSet::insert</text>
</a>
</g>
</g>
<!-- Node2&#45;&gt;Node3 -->
<g id="edge2" class="edge"><title>Node2&#45;&gt;Node3</title>
<path fill="none" stroke="midnightblue" d="M862.989,-131.5C877.264,-131.5 892.081,-131.5 905.998,-131.5"/>
<polygon fill="midnightblue" stroke="midnightblue" points="862.712,-128 852.712,-131.5 862.712,-135 862.712,-128"/>
</g>
<!-- Node4&#45;&gt;Node2 -->
<g id="edge4" class="edge"><title>Node4&#45;&gt;Node2</title>
<path fill="none" stroke="midnightblue" d="M306.879,-147.914C390.559,-167.897 540.404,-195.271 667,-173.5 696.9,-168.358 729.266,-156.418 752.605,-146.577"/>
<polygon fill="midnightblue" stroke="midnightblue" points="307.551,-144.476 297.008,-145.518 305.9,-151.278 307.551,-144.476"/>
</g>
<!-- Node5 -->
<g id="node5" class="node"><title>Node5</title>
<g id="a_node5"><a xlink:href="classscram_1_1core_1_1Preprocessor.xhtml#a2b6705e815fa3d02119c405b483766d5" target="_top" xlink:title="Container of unique gates by semantics. ">
<polygon fill="white" stroke="black" points="511,-8 511,-27 667,-27 667,-8 511,-8"/>
<text text-anchor="middle" x="589" y="-15" font-family="Helvetica,sans-Serif" font-size="10.00">scram::core::Preprocessor::Run</text>
</a>
</g>
</g>
<!-- Node4&#45;&gt;Node5 -->
<g id="edge5" class="edge"><title>Node4&#45;&gt;Node5</title>
<path fill="none" stroke="midnightblue" d="M260.865,-107.419C279.391,-86.553 309.66,-56.9592 343,-42.5 395.856,-19.5768 460.949,-13.8591 510.753,-13.5852"/>
<polygon fill="midnightblue" stroke="midnightblue" points="258.021,-105.357 254.129,-115.211 263.317,-109.935 258.021,-105.357"/>
</g>
<!-- Node8 -->
<g id="node8" class="node"><title>Node8</title>
<g id="a_node8"><a xlink:href="classscram_1_1core_1_1Preprocessor.xhtml#a3569bbcd5e863c750cdfa69115399600" target="_top" xlink:title="The final phase that cleans up the graph, and puts the structure of the graph ready for analysis...">
<polygon fill="white" stroke="black" points="523,-46.5 523,-76.5 655,-76.5 655,-46.5 523,-46.5"/>
<text text-anchor="start" x="531" y="-64.5" font-family="Helvetica,sans-Serif" font-size="10.00">scram::core::Preprocessor</text>
<text text-anchor="middle" x="589" y="-53.5" font-family="Helvetica,sans-Serif" font-size="10.00">::RunPhaseFive</text>
</a>
</g>
</g>
<!-- Node4&#45;&gt;Node8 -->
<g id="edge9" class="edge"><title>Node4&#45;&gt;Node8</title>
<path fill="none" stroke="midnightblue" d="M317.24,-119.736C363.046,-112.73 422.634,-102.808 475,-91.5 494.84,-87.2157 516.423,-81.7009 535.359,-76.5706"/>
<polygon fill="midnightblue" stroke="midnightblue" points="316.454,-116.315 307.092,-121.275 317.504,-123.236 316.454,-116.315"/>
</g>
<!-- Node9 -->
<g id="node9" class="node"><title>Node9</title>
<g id="a_node9"><a xlink:href="classscram_1_1core_1_1Preprocessor.xhtml#a5c224938dfba861f061525658bd7b156" target="_top" xlink:title="Propagation of complements. ">
<polygon fill="white" stroke="black" points="523,-134.5 523,-164.5 655,-164.5 655,-134.5 523,-134.5"/>
<text text-anchor="start" x="531" y="-152.5" font-family="Helvetica,sans-Serif" font-size="10.00">scram::core::Preprocessor</text>
<text text-anchor="middle" x="589" y="-141.5" font-family="Helvetica,sans-Serif" font-size="10.00">::RunPhaseFour</text>
</a>
</g>
</g>
<!-- Node4&#45;&gt;Node9 -->
<g id="edge12" class="edge"><title>Node4&#45;&gt;Node9</title>
<path fill="none" stroke="midnightblue" d="M317.097,-134.624C378.493,-137.995 464.413,-142.713 522.918,-145.926"/>
<polygon fill="midnightblue" stroke="midnightblue" points="317.257,-131.127 307.08,-134.074 316.873,-138.117 317.257,-131.127"/>
</g>
<!-- Node10 -->
<g id="node10" class="node"><title>Node10</title>
<g id="a_node10"><a xlink:href="classscram_1_1core_1_1Preprocessor.xhtml#abf2c66723172a85b2ae87ef2a034cd1f" target="_top" xlink:title="Application of gate normalization. ">
<polygon fill="white" stroke="black" points="343,-52.5 343,-82.5 475,-82.5 475,-52.5 343,-52.5"/>
<text text-anchor="start" x="351" y="-70.5" font-family="Helvetica,sans-Serif" font-size="10.00">scram::core::Preprocessor</text>
<text text-anchor="middle" x="409" y="-59.5" font-family="Helvetica,sans-Serif" font-size="10.00">::RunPhaseThree</text>
</a>
</g>
</g>
<!-- Node4&#45;&gt;Node10 -->
<g id="edge15" class="edge"><title>Node4&#45;&gt;Node10</title>
<path fill="none" stroke="midnightblue" d="M291.269,-111.801C315.841,-102.476 345.166,-91.3467 368.276,-82.576"/>
<polygon fill="midnightblue" stroke="midnightblue" points="289.869,-108.589 281.761,-115.41 292.352,-115.134 289.869,-108.589"/>
</g>
<!-- Node5&#45;&gt;Node2 -->
<g id="edge7" class="edge"><title>Node5&#45;&gt;Node2</title>
<path fill="none" stroke="midnightblue" d="M657.724,-31.0723C660.963,-32.6834 664.077,-34.4851 667,-36.5 690.142,-52.4547 681.921,-69.9049 703,-88.5 715.96,-99.9328 732.499,-109.321 747.361,-116.375"/>
<polygon fill="midnightblue" stroke="midnightblue" points="658.893,-27.7651 648.325,-27.0179 656.121,-34.1926 658.893,-27.7651"/>
</g>
<!-- Node6 -->
<g id="node6" class="node"><title>Node6</title>
<g id="a_node6"><a xlink:href="classscram_1_1core_1_1Preprocessor.xhtml#a9caf4677a024ed935d831210b57b8ed9" target="_top" xlink:title="Gathers nodes in the sub&#45;graph. ">
<polygon fill="white" stroke="black" points="720.5,-0.5 720.5,-30.5 852.5,-30.5 852.5,-0.5 720.5,-0.5"/>
<text text-anchor="start" x="728.5" y="-18.5" font-family="Helvetica,sans-Serif" font-size="10.00">scram::core::Preprocessor</text>
<text text-anchor="middle" x="786.5" y="-7.5" font-family="Helvetica,sans-Serif" font-size="10.00">::GatherNodes</text>
</a>
</g>
</g>
<!-- Node5&#45;&gt;Node6 -->
<g id="edge6" class="edge"><title>Node5&#45;&gt;Node6</title>
<path fill="none" stroke="midnightblue" d="M677.674,-16.6031C692.062,-16.4559 706.744,-16.3057 720.457,-16.1654"/>
<polygon fill="midnightblue" stroke="midnightblue" points="677.23,-13.1073 667.267,-16.7095 677.302,-20.107 677.23,-13.1073"/>
</g>
<!-- Node7 -->
<g id="node7" class="node"><title>Node7</title>
<g id="a_node7"><a xlink:href="classscram_1_1core_1_1CustomPreprocessor_3_01Zbdd_01_4.xhtml#a5185075f852c647c7aa4313d23420ee5" target="_top" xlink:title="Performs preprocessing for analyses with Zero&#45;Suppressed Binary Decision Diagrams. ">
<polygon fill="white" stroke="black" points="703,-49.5 703,-79.5 870,-79.5 870,-49.5 703,-49.5"/>
<text text-anchor="start" x="711" y="-67.5" font-family="Helvetica,sans-Serif" font-size="10.00">scram::core::CustomPreprocessor</text>
<text text-anchor="middle" x="786.5" y="-56.5" font-family="Helvetica,sans-Serif" font-size="10.00">&lt; Zbdd &gt;::Run</text>
</a>
</g>
</g>
<!-- Node5&#45;&gt;Node7 -->
<g id="edge8" class="edge"><title>Node5&#45;&gt;Node7</title>
<path fill="none" stroke="midnightblue" d="M639.33,-29.3595C664.69,-35.4561 695.866,-42.9512 722.903,-49.4512"/>
<polygon fill="midnightblue" stroke="midnightblue" points="640.103,-25.9457 629.562,-27.0112 638.467,-32.7518 640.103,-25.9457"/>
</g>
<!-- Node8&#45;&gt;Node2 -->
<g id="edge10" class="edge"><title>Node8&#45;&gt;Node2</title>
<path fill="none" stroke="midnightblue" d="M641.498,-79.9393C673.241,-91.3049 713.439,-105.698 743.293,-116.387"/>
<polygon fill="midnightblue" stroke="midnightblue" points="642.534,-76.5927 631.94,-76.5168 640.174,-83.183 642.534,-76.5927"/>
</g>
<!-- Node8&#45;&gt;Node7 -->
<g id="edge11" class="edge"><title>Node8&#45;&gt;Node7</title>
<path fill="none" stroke="midnightblue" d="M665.313,-62.6557C677.636,-62.8448 690.462,-63.0416 702.949,-63.2332"/>
<polygon fill="midnightblue" stroke="midnightblue" points="665.151,-59.1529 655.099,-62.499 665.044,-66.1521 665.151,-59.1529"/>
</g>
<!-- Node9&#45;&gt;Node2 -->
<g id="edge13" class="edge"><title>Node9&#45;&gt;Node2</title>
<path fill="none" stroke="midnightblue" d="M665.088,-142.586C683.307,-140.909 702.636,-139.129 720.353,-137.498"/>
<polygon fill="midnightblue" stroke="midnightblue" points="664.736,-139.104 655.099,-143.506 665.377,-146.075 664.736,-139.104"/>
</g>
<!-- Node9&#45;&gt;Node7 -->
<g id="edge14" class="edge"><title>Node9&#45;&gt;Node7</title>
<path fill="none" stroke="midnightblue" d="M634.066,-130.341C669.334,-115.007 718.118,-93.7967 750.686,-79.6366"/>
<polygon fill="midnightblue" stroke="midnightblue" points="632.277,-127.302 624.501,-134.499 635.068,-133.722 632.277,-127.302"/>
</g>
<!-- Node10&#45;&gt;Node2 -->
<g id="edge16" class="edge"><title>Node10&#45;&gt;Node2</title>
<path fill="none" stroke="midnightblue" d="M485.303,-81.0087C493.966,-82.5365 502.674,-84.0606 511,-85.5 582.541,-97.8689 664.661,-111.564 720.299,-120.769"/>
<polygon fill="midnightblue" stroke="midnightblue" points="485.637,-77.5134 475.18,-79.2182 484.418,-84.4064 485.637,-77.5134"/>
</g>
<!-- Node10&#45;&gt;Node5 -->
<g id="edge17" class="edge"><title>Node10&#45;&gt;Node5</title>
<path fill="none" stroke="midnightblue" d="M466.857,-49.4399C481.216,-45.0469 496.636,-40.4731 511,-36.5 522.811,-33.233 535.716,-29.9411 547.527,-27.0366"/>
<polygon fill="midnightblue" stroke="midnightblue" points="465.638,-46.1531 457.112,-52.4427 467.699,-52.8428 465.638,-46.1531"/>
</g>
</g>
</svg>
