<?xml version="1.0" encoding="UTF-8" standalone="no"?>
<!DOCTYPE svg PUBLIC "-//W3C//DTD SVG 1.1//EN"
 "http://www.w3.org/Graphics/SVG/1.1/DTD/svg11.dtd">
<!-- Generated by graphviz version 2.38.0 (20140413.2041)
 -->
<!-- Title: scram::core::Pdag::RemoveNullGates Pages: 1 -->
<svg width="1353pt" height="419pt"
 viewBox="0.00 0.00 1353.00 419.28" xmlns="http://www.w3.org/2000/svg" xmlns:xlink="http://www.w3.org/1999/xlink">
<g id="graph0" class="graph" transform="scale(1 1) rotate(0) translate(4 415.285)">
<title>scram::core::Pdag::RemoveNullGates</title>
<polygon fill="white" stroke="none" points="-4,4 -4,-415.285 1349,-415.285 1349,4 -4,4"/>
<!-- Node1 -->
<g id="node1" class="node"><title>Node1</title>
<polygon fill="#bfbfbf" stroke="black" points="0,-132.5 0,-162.5 103,-162.5 103,-132.5 0,-132.5"/>
<text text-anchor="start" x="8" y="-150.5" font-family="Helvetica,sans-Serif" font-size="10.00">scram::core::Pdag::</text>
<text text-anchor="middle" x="51.5" y="-139.5" font-family="Helvetica,sans-Serif" font-size="10.00">RemoveNullGates</text>
</g>
<!-- Node2 -->
<g id="node2" class="node"><title>Node2</title>
<g id="a_node2"><a xlink:href="classscram_1_1core_1_1Preprocessor.xhtml#a00288bef180767d7c79e3c79a33ef2d8" target="_top" xlink:title="Runs gate coalescence on the whole PDAG. ">
<polygon fill="white" stroke="black" points="310.5,-312.5 310.5,-342.5 442.5,-342.5 442.5,-312.5 310.5,-312.5"/>
<text text-anchor="start" x="318.5" y="-330.5" font-family="Helvetica,sans-Serif" font-size="10.00">scram::core::Preprocessor</text>
<text text-anchor="middle" x="376.5" y="-319.5" font-family="Helvetica,sans-Serif" font-size="10.00">::CoalesceGates</text>
</a>
</g>
</g>
<!-- Node1&#45;&gt;Node2 -->
<g id="edge1" class="edge"><title>Node1&#45;&gt;Node2</title>
<path fill="none" stroke="midnightblue" d="M62.1901,-172.232C75.1127,-201.831 100.879,-250.629 139,-276.5 189.829,-310.995 259.769,-322.722 310.395,-326.437"/>
<polygon fill="midnightblue" stroke="midnightblue" points="65.2568,-170.495 58.1557,-162.633 58.8036,-173.208 65.2568,-170.495"/>
</g>
<!-- Node13 -->
<g id="node13" class="node"><title>Node13</title>
<g id="a_node13"><a xlink:href="classscram_1_1core_1_1Preprocessor.xhtml#a4737f354474154b3cea9773c25616d27" target="_top" xlink:title="Detects and manipulates AND and OR gate distributivity for the whole graph. ">
<polygon fill="white" stroke="black" points="139,-176.5 139,-206.5 271,-206.5 271,-176.5 139,-176.5"/>
<text text-anchor="start" x="147" y="-194.5" font-family="Helvetica,sans-Serif" font-size="10.00">scram::core::Preprocessor</text>
<text text-anchor="middle" x="205" y="-183.5" font-family="Helvetica,sans-Serif" font-size="10.00">::DetectDistributivity</text>
</a>
</g>
</g>
<!-- Node1&#45;&gt;Node13 -->
<g id="edge21" class="edge"><title>Node1&#45;&gt;Node13</title>
<path fill="none" stroke="midnightblue" d="M113.128,-165.108C126.081,-168.87 139.649,-172.811 152.232,-176.465"/>
<polygon fill="midnightblue" stroke="midnightblue" points="113.948,-161.702 103.369,-162.274 111.996,-168.424 113.948,-161.702"/>
</g>
<!-- Node15 -->
<g id="node15" class="node"><title>Node15</title>
<g id="a_node15"><a xlink:href="classscram_1_1core_1_1Preprocessor.xhtml#a651b32816243e37c58b7835220997ef2" target="_top" xlink:title="Merges common arguments for a specific group of gates. ">
<polygon fill="white" stroke="black" points="139,-0.5 139,-30.5 271,-30.5 271,-0.5 139,-0.5"/>
<text text-anchor="start" x="147" y="-18.5" font-family="Helvetica,sans-Serif" font-size="10.00">scram::core::Preprocessor</text>
<text text-anchor="middle" x="205" y="-7.5" font-family="Helvetica,sans-Serif" font-size="10.00">::MergeCommonArgs</text>
</a>
</g>
</g>
<!-- Node1&#45;&gt;Node15 -->
<g id="edge24" class="edge"><title>Node1&#45;&gt;Node15</title>
<path fill="none" stroke="midnightblue" d="M67.9762,-123.871C83.6815,-101.36 109.789,-67.7027 139,-45.5 146.52,-39.7841 155.304,-34.818 163.938,-30.6602"/>
<polygon fill="midnightblue" stroke="midnightblue" points="65.0413,-121.962 62.2888,-132.193 70.8207,-125.912 65.0413,-121.962"/>
</g>
<!-- Node16 -->
<g id="node16" class="node"><title>Node16</title>
<g id="a_node16"><a xlink:href="classscram_1_1core_1_1Preprocessor.xhtml#ad13e133278ea7563c1ba037c05c35aa2" target="_top" xlink:title="Normalizes the gates of the whole PDAG into OR, AND gates. ">
<polygon fill="white" stroke="black" points="482,-58.5 482,-88.5 614,-88.5 614,-58.5 482,-58.5"/>
<text text-anchor="start" x="490" y="-76.5" font-family="Helvetica,sans-Serif" font-size="10.00">scram::core::Preprocessor</text>
<text text-anchor="middle" x="548" y="-65.5" font-family="Helvetica,sans-Serif" font-size="10.00">::NormalizeGates</text>
</a>
</g>
</g>
<!-- Node1&#45;&gt;Node16 -->
<g id="edge25" class="edge"><title>Node1&#45;&gt;Node16</title>
<path fill="none" stroke="midnightblue" d="M93.8012,-128.275C107.911,-122.257 123.935,-116.017 139,-111.5 211.807,-89.6703 231.422,-87.5878 307,-79.5 365.953,-73.1912 433.493,-72.041 481.874,-72.2644"/>
<polygon fill="midnightblue" stroke="midnightblue" points="92.1442,-125.179 84.3739,-132.381 94.9397,-131.596 92.1442,-125.179"/>
</g>
<!-- Node17 -->
<g id="node17" class="node"><title>Node17</title>
<g id="a_node17"><a xlink:href="classscram_1_1core_1_1Preprocessor.xhtml#a44f820b6fe2c23594c818432b33e26a6" target="_top" xlink:title="The initial phase of preprocessing. ">
<polygon fill="white" stroke="black" points="650,-82.5 650,-112.5 782,-112.5 782,-82.5 650,-82.5"/>
<text text-anchor="start" x="658" y="-100.5" font-family="Helvetica,sans-Serif" font-size="10.00">scram::core::Preprocessor</text>
<text text-anchor="middle" x="716" y="-89.5" font-family="Helvetica,sans-Serif" font-size="10.00">::RunPhaseOne</text>
</a>
</g>
</g>
<!-- Node1&#45;&gt;Node17 -->
<g id="edge37" class="edge"><title>Node1&#45;&gt;Node17</title>
<path fill="none" stroke="midnightblue" d="M113.244,-145.82C190.616,-143.392 328.406,-138.104 446,-128.5 515.813,-122.798 595.486,-113.232 649.891,-106.231"/>
<polygon fill="midnightblue" stroke="midnightblue" points="113.083,-142.323 103.195,-146.13 113.299,-149.32 113.083,-142.323"/>
</g>
<!-- Node18 -->
<g id="node18" class="node"><title>Node18</title>
<g id="a_node18"><a xlink:href="classscram_1_1core_1_1Preprocessor.xhtml#a4086c57695d49b4770915d5d53bd47de" target="_top" xlink:title="Tries to simplify the graph by removing redundancies generated by a common node. ">
<polygon fill="white" stroke="black" points="139,-236.5 139,-266.5 271,-266.5 271,-236.5 139,-236.5"/>
<text text-anchor="start" x="147" y="-254.5" font-family="Helvetica,sans-Serif" font-size="10.00">scram::core::Preprocessor</text>
<text text-anchor="middle" x="205" y="-243.5" font-family="Helvetica,sans-Serif" font-size="10.00">::ProcessCommonNode</text>
</a>
</g>
</g>
<!-- Node1&#45;&gt;Node18 -->
<g id="edge31" class="edge"><title>Node1&#45;&gt;Node18</title>
<path fill="none" stroke="midnightblue" d="M77.4111,-169.349C94.2233,-183.589 117.234,-202.126 139,-216.5 149.802,-223.633 162.198,-230.586 173.249,-236.39"/>
<polygon fill="midnightblue" stroke="midnightblue" points="79.562,-166.583 69.6885,-162.74 75.0107,-171.901 79.562,-166.583"/>
</g>
<!-- Node20 -->
<g id="node20" class="node"><title>Node20</title>
<g id="a_node20"><a xlink:href="classscram_1_1core_1_1Preprocessor.xhtml#ac0abd7f5b54f98643644110b160569bd" target="_top" xlink:title="Detects and replaces multiple definitions of gates. ">
<polygon fill="white" stroke="black" points="307,-88.5 307,-118.5 446,-118.5 446,-88.5 307,-88.5"/>
<text text-anchor="start" x="315" y="-106.5" font-family="Helvetica,sans-Serif" font-size="10.00">scram::core::Preprocessor</text>
<text text-anchor="middle" x="376.5" y="-95.5" font-family="Helvetica,sans-Serif" font-size="10.00">::ProcessMultipleDefinitions</text>
</a>
</g>
</g>
<!-- Node1&#45;&gt;Node20 -->
<g id="edge34" class="edge"><title>Node1&#45;&gt;Node20</title>
<path fill="none" stroke="midnightblue" d="M113.261,-137.396C121.894,-136.039 130.667,-134.703 139,-133.5 195.428,-125.357 259.605,-117.291 306.854,-111.577"/>
<polygon fill="midnightblue" stroke="midnightblue" points="112.552,-133.965 103.226,-138.992 113.652,-140.878 112.552,-133.965"/>
</g>
<!-- Node3 -->
<g id="node3" class="node"><title>Node3</title>
<g id="a_node3"><a xlink:href="classscram_1_1core_1_1Preprocessor.xhtml#a9d5f89471499508eb9e6c01ea43e0f15" target="_top" xlink:title="Preprocessing phase of the original structure of the graph. ">
<polygon fill="white" stroke="black" points="482,-213.5 482,-243.5 614,-243.5 614,-213.5 482,-213.5"/>
<text text-anchor="start" x="490" y="-231.5" font-family="Helvetica,sans-Serif" font-size="10.00">scram::core::Preprocessor</text>
<text text-anchor="middle" x="548" y="-220.5" font-family="Helvetica,sans-Serif" font-size="10.00">::RunPhaseTwo</text>
</a>
</g>
</g>
<!-- Node2&#45;&gt;Node3 -->
<g id="edge2" class="edge"><title>Node2&#45;&gt;Node3</title>
<path fill="none" stroke="midnightblue" d="M436.439,-308.354C439.724,-306.824 442.934,-305.205 446,-303.5 463.956,-293.514 465.607,-286.885 482,-274.5 496.009,-263.917 512.116,-252.513 524.791,-243.707"/>
<polygon fill="midnightblue" stroke="midnightblue" points="434.817,-305.242 427.034,-312.431 437.601,-311.664 434.817,-305.242"/>
</g>
<!-- Node7 -->
<g id="node7" class="node"><title>Node7</title>
<g id="a_node7"><a xlink:href="classscram_1_1core_1_1Preprocessor.xhtml#a5ee92284aef510ce01a71c962d50f51c" target="_top" xlink:title="Runs the graph preprocessing. ">
<polygon fill="white" stroke="black" points="1027.5,-142.5 1027.5,-172.5 1159.5,-172.5 1159.5,-142.5 1027.5,-142.5"/>
<text text-anchor="start" x="1035.5" y="-160.5" font-family="Helvetica,sans-Serif" font-size="10.00">scram::core::Preprocessor</text>
<text text-anchor="middle" x="1093.5" y="-149.5" font-family="Helvetica,sans-Serif" font-size="10.00">::operator()</text>
</a>
</g>
</g>
<!-- Node2&#45;&gt;Node7 -->
<g id="edge20" class="edge"><title>Node2&#45;&gt;Node7</title>
<path fill="none" stroke="midnightblue" d="M423.458,-346.171C532.53,-387.131 810.118,-471.242 974,-340.5 1030.3,-295.584 960.892,-235.183 1010,-182.5 1014.9,-177.245 1020.86,-173.082 1027.31,-169.786"/>
<polygon fill="midnightblue" stroke="midnightblue" points="424.641,-342.877 414.05,-342.588 422.149,-349.418 424.641,-342.877"/>
</g>
<!-- Node11 -->
<g id="node11" class="node"><title>Node11</title>
<g id="a_node11"><a xlink:href="classscram_1_1core_1_1Preprocessor.xhtml#a3569bbcd5e863c750cdfa69115399600" target="_top" xlink:title="The final phase that cleans up the graph, and puts the structure of the graph ready for analysis...">
<polygon fill="white" stroke="black" points="830,-300.5 830,-330.5 962,-330.5 962,-300.5 830,-300.5"/>
<text text-anchor="start" x="838" y="-318.5" font-family="Helvetica,sans-Serif" font-size="10.00">scram::core::Preprocessor</text>
<text text-anchor="middle" x="896" y="-307.5" font-family="Helvetica,sans-Serif" font-size="10.00">::RunPhaseFive</text>
</a>
</g>
</g>
<!-- Node2&#45;&gt;Node11 -->
<g id="edge18" class="edge"><title>Node2&#45;&gt;Node11</title>
<path fill="none" stroke="midnightblue" d="M452.788,-326.448C499.255,-325.744 560.088,-324.723 614,-323.5 688.042,-321.82 773.041,-319.321 829.991,-317.564"/>
<polygon fill="midnightblue" stroke="midnightblue" points="452.447,-322.953 442.501,-326.603 452.552,-329.952 452.447,-322.953"/>
</g>
<!-- Node12 -->
<g id="node12" class="node"><title>Node12</title>
<g id="a_node12"><a xlink:href="classscram_1_1core_1_1Preprocessor.xhtml#a3a0500bd52152df42fca486c97043140" target="_top" xlink:title="Coalesces positive argument gates with the same OR or AND logic as parents. ">
<polygon fill="white" stroke="black" points="482,-283.5 482,-313.5 614,-313.5 614,-283.5 482,-283.5"/>
<text text-anchor="start" x="490" y="-301.5" font-family="Helvetica,sans-Serif" font-size="10.00">scram::core::Preprocessor</text>
<text text-anchor="middle" x="548" y="-290.5" font-family="Helvetica,sans-Serif" font-size="10.00">::CoalesceGates</text>
</a>
</g>
</g>
<!-- Node2&#45;&gt;Node12 -->
<g id="edge19" class="edge"><title>Node2&#45;&gt;Node12</title>
<path fill="none" stroke="midnightblue" d="M452.619,-314.648C462.364,-312.98 472.281,-311.284 481.846,-309.647"/>
<polygon fill="midnightblue" stroke="midnightblue" points="451.815,-311.234 442.548,-316.371 452.995,-318.134 451.815,-311.234"/>
</g>
<!-- Node4 -->
<g id="node4" class="node"><title>Node4</title>
<g id="a_node4"><a xlink:href="classscram_1_1core_1_1Preprocessor.xhtml#a2b6705e815fa3d02119c405b483766d5" target="_top" xlink:title="Container of unique gates by semantics. ">
<polygon fill="white" stroke="black" points="818,-175 818,-194 974,-194 974,-175 818,-175"/>
<text text-anchor="middle" x="896" y="-182" font-family="Helvetica,sans-Serif" font-size="10.00">scram::core::Preprocessor::Run</text>
</a>
</g>
</g>
<!-- Node3&#45;&gt;Node4 -->
<g id="edge3" class="edge"><title>Node3&#45;&gt;Node4</title>
<path fill="none" stroke="midnightblue" d="M624.301,-217.928C632.964,-216.752 641.673,-215.587 650,-214.5 706.196,-207.165 769.715,-199.402 817.993,-193.611"/>
<polygon fill="midnightblue" stroke="midnightblue" points="623.611,-214.49 614.177,-219.311 624.559,-221.425 623.611,-214.49"/>
</g>
<!-- Node3&#45;&gt;Node7 -->
<g id="edge17" class="edge"><title>Node3&#45;&gt;Node7</title>
<path fill="none" stroke="midnightblue" d="M624.6,-234.484C711.048,-238.961 855.868,-239.192 974,-203.5 991.732,-198.143 993.02,-189.903 1010,-182.5 1018.37,-178.851 1027.43,-175.522 1036.39,-172.567"/>
<polygon fill="midnightblue" stroke="midnightblue" points="624.531,-230.975 614.353,-233.919 624.145,-237.964 624.531,-230.975"/>
</g>
<!-- Node9 -->
<g id="node9" class="node"><title>Node9</title>
<g id="a_node9"><a xlink:href="classscram_1_1core_1_1Preprocessor.xhtml#abf2c66723172a85b2ae87ef2a034cd1f" target="_top" xlink:title="Application of gate normalization. ">
<polygon fill="white" stroke="black" points="650,-131.5 650,-161.5 782,-161.5 782,-131.5 650,-131.5"/>
<text text-anchor="start" x="658" y="-149.5" font-family="Helvetica,sans-Serif" font-size="10.00">scram::core::Preprocessor</text>
<text text-anchor="middle" x="716" y="-138.5" font-family="Helvetica,sans-Serif" font-size="10.00">::RunPhaseThree</text>
</a>
</g>
</g>
<!-- Node3&#45;&gt;Node9 -->
<g id="edge8" class="edge"><title>Node3&#45;&gt;Node9</title>
<path fill="none" stroke="midnightblue" d="M586.479,-208.717C605.423,-198.842 628.827,-186.831 650,-176.5 660.165,-171.54 671.316,-166.316 681.469,-161.642"/>
<polygon fill="midnightblue" stroke="midnightblue" points="584.808,-205.641 577.567,-213.376 588.051,-211.845 584.808,-205.641"/>
</g>
<!-- Node10 -->
<g id="node10" class="node"><title>Node10</title>
<g id="a_node10"><a xlink:href="classscram_1_1core_1_1Preprocessor.xhtml#a5c224938dfba861f061525658bd7b156" target="_top" xlink:title="Propagation of complements. ">
<polygon fill="white" stroke="black" points="830,-251.5 830,-281.5 962,-281.5 962,-251.5 830,-251.5"/>
<text text-anchor="start" x="838" y="-269.5" font-family="Helvetica,sans-Serif" font-size="10.00">scram::core::Preprocessor</text>
<text text-anchor="middle" x="896" y="-258.5" font-family="Helvetica,sans-Serif" font-size="10.00">::RunPhaseFour</text>
</a>
</g>
</g>
<!-- Node3&#45;&gt;Node10 -->
<g id="edge11" class="edge"><title>Node3&#45;&gt;Node10</title>
<path fill="none" stroke="midnightblue" d="M624.276,-239.273C632.944,-240.413 641.661,-241.514 650,-242.5 710.905,-249.701 780.512,-256.37 829.928,-260.841"/>
<polygon fill="midnightblue" stroke="midnightblue" points="624.523,-235.775 614.148,-237.921 623.597,-242.713 624.523,-235.775"/>
</g>
<!-- Node3&#45;&gt;Node11 -->
<g id="edge14" class="edge"><title>Node3&#45;&gt;Node11</title>
<path fill="none" stroke="midnightblue" d="M600.08,-246.929C615.961,-252.325 633.604,-257.982 650,-262.5 710.31,-279.119 780.14,-293.785 829.782,-303.452"/>
<polygon fill="midnightblue" stroke="midnightblue" points="601.041,-243.559 590.446,-243.616 598.764,-250.178 601.041,-243.559"/>
</g>
<!-- Node5 -->
<g id="node5" class="node"><title>Node5</title>
<g id="a_node5"><a xlink:href="classscram_1_1core_1_1Preprocessor.xhtml#a9caf4677a024ed935d831210b57b8ed9" target="_top" xlink:title="Gathers nodes in the sub&#45;graph. ">
<polygon fill="white" stroke="black" points="1027.5,-191.5 1027.5,-221.5 1159.5,-221.5 1159.5,-191.5 1027.5,-191.5"/>
<text text-anchor="start" x="1035.5" y="-209.5" font-family="Helvetica,sans-Serif" font-size="10.00">scram::core::Preprocessor</text>
<text text-anchor="middle" x="1093.5" y="-198.5" font-family="Helvetica,sans-Serif" font-size="10.00">::GatherNodes</text>
</a>
</g>
</g>
<!-- Node4&#45;&gt;Node5 -->
<g id="edge4" class="edge"><title>Node4&#45;&gt;Node5</title>
<path fill="none" stroke="midnightblue" d="M984.255,-194.319C998.777,-195.953 1013.61,-197.622 1027.46,-199.181"/>
<polygon fill="midnightblue" stroke="midnightblue" points="984.595,-190.835 974.267,-193.195 983.813,-197.791 984.595,-190.835"/>
</g>
<!-- Node6 -->
<g id="node6" class="node"><title>Node6</title>
<g id="a_node6"><a xlink:href="classscram_1_1core_1_1CustomPreprocessor_3_01Zbdd_01_4.xhtml#a5185075f852c647c7aa4313d23420ee5" target="_top" xlink:title="Performs preprocessing for analyses with Zero&#45;Suppressed Binary Decision Diagrams. ">
<polygon fill="white" stroke="black" points="1010,-251.5 1010,-281.5 1177,-281.5 1177,-251.5 1010,-251.5"/>
<text text-anchor="start" x="1018" y="-269.5" font-family="Helvetica,sans-Serif" font-size="10.00">scram::core::CustomPreprocessor</text>
<text text-anchor="middle" x="1093.5" y="-258.5" font-family="Helvetica,sans-Serif" font-size="10.00">&lt; Zbdd &gt;::Run</text>
</a>
</g>
</g>
<!-- Node4&#45;&gt;Node6 -->
<g id="edge5" class="edge"><title>Node4&#45;&gt;Node6</title>
<path fill="none" stroke="midnightblue" d="M929.104,-197.966C964.148,-212.664 1020.12,-236.141 1056.59,-251.44"/>
<polygon fill="midnightblue" stroke="midnightblue" points="930.384,-194.707 919.809,-194.067 927.677,-201.162 930.384,-194.707"/>
</g>
<!-- Node4&#45;&gt;Node7 -->
<g id="edge6" class="edge"><title>Node4&#45;&gt;Node7</title>
<path fill="none" stroke="midnightblue" d="M975.9,-173.603C993.025,-171.238 1010.95,-168.762 1027.47,-166.481"/>
<polygon fill="midnightblue" stroke="midnightblue" points="975.353,-170.146 965.926,-174.981 976.311,-177.08 975.353,-170.146"/>
</g>
<!-- Node8 -->
<g id="node8" class="node"><title>Node8</title>
<g id="a_node8"><a xlink:href="classscram_1_1core_1_1Preprocessor_1_1GateSet.xhtml#ae00239084858979e096032c4cf2f05b9" target="_top" xlink:title="Inserts a gate into the set if it is semantically unique. ">
<polygon fill="white" stroke="black" points="1213,-142.5 1213,-172.5 1345,-172.5 1345,-142.5 1213,-142.5"/>
<text text-anchor="start" x="1221" y="-160.5" font-family="Helvetica,sans-Serif" font-size="10.00">scram::core::Preprocessor</text>
<text text-anchor="middle" x="1279" y="-149.5" font-family="Helvetica,sans-Serif" font-size="10.00">::GateSet::insert</text>
</a>
</g>
</g>
<!-- Node7&#45;&gt;Node8 -->
<g id="edge7" class="edge"><title>Node7&#45;&gt;Node8</title>
<path fill="none" stroke="midnightblue" d="M1169.99,-157.5C1184.26,-157.5 1199.08,-157.5 1213,-157.5"/>
<polygon fill="midnightblue" stroke="midnightblue" points="1169.71,-154 1159.71,-157.5 1169.71,-161 1169.71,-154"/>
</g>
<!-- Node9&#45;&gt;Node4 -->
<g id="edge9" class="edge"><title>Node9&#45;&gt;Node4</title>
<path fill="none" stroke="midnightblue" d="M792,-162.511C811.897,-166.759 832.751,-171.211 850.45,-174.989"/>
<polygon fill="midnightblue" stroke="midnightblue" points="792.528,-159.045 782.018,-160.38 791.067,-165.891 792.528,-159.045"/>
</g>
<!-- Node9&#45;&gt;Node7 -->
<g id="edge10" class="edge"><title>Node9&#45;&gt;Node7</title>
<path fill="none" stroke="midnightblue" d="M792.74,-148.719C861.516,-150.734 961.901,-153.674 1027.21,-155.587"/>
<polygon fill="midnightblue" stroke="midnightblue" points="792.505,-145.21 782.407,-148.416 792.3,-152.207 792.505,-145.21"/>
</g>
<!-- Node10&#45;&gt;Node6 -->
<g id="edge12" class="edge"><title>Node10&#45;&gt;Node6</title>
<path fill="none" stroke="midnightblue" d="M972.313,-266.5C984.636,-266.5 997.462,-266.5 1009.95,-266.5"/>
<polygon fill="midnightblue" stroke="midnightblue" points="972.099,-263 962.099,-266.5 972.099,-270 972.099,-263"/>
</g>
<!-- Node10&#45;&gt;Node7 -->
<g id="edge13" class="edge"><title>Node10&#45;&gt;Node7</title>
<path fill="none" stroke="midnightblue" d="M957.848,-246.985C963.585,-243.932 969.084,-240.453 974,-236.5 996.48,-218.427 986.838,-199.691 1010,-182.5 1015.29,-178.575 1021.19,-175.261 1027.35,-172.464"/>
<polygon fill="midnightblue" stroke="midnightblue" points="956.152,-243.918 948.688,-251.438 959.212,-250.214 956.152,-243.918"/>
</g>
<!-- Node11&#45;&gt;Node6 -->
<g id="edge15" class="edge"><title>Node11&#45;&gt;Node6</title>
<path fill="none" stroke="midnightblue" d="M966.729,-298.023C988.277,-292.623 1011.81,-286.724 1032.63,-281.506"/>
<polygon fill="midnightblue" stroke="midnightblue" points="965.834,-294.639 956.985,-300.465 967.536,-301.429 965.834,-294.639"/>
</g>
<!-- Node11&#45;&gt;Node7 -->
<g id="edge16" class="edge"><title>Node11&#45;&gt;Node7</title>
<path fill="none" stroke="midnightblue" d="M970.588,-294.58C971.769,-293.6 972.908,-292.574 974,-291.5 1010.38,-255.73 973.481,-218.126 1010,-182.5 1015.04,-177.588 1021,-173.637 1027.39,-170.46"/>
<polygon fill="midnightblue" stroke="midnightblue" points="968.449,-291.804 962.263,-300.405 972.463,-297.54 968.449,-291.804"/>
</g>
<!-- Node13&#45;&gt;Node3 -->
<g id="edge22" class="edge"><title>Node13&#45;&gt;Node3</title>
<path fill="none" stroke="midnightblue" d="M281.419,-192.701C328.855,-194.245 391.237,-197.722 446,-205.5 459.888,-207.472 474.689,-210.378 488.558,-213.465"/>
<polygon fill="midnightblue" stroke="midnightblue" points="281.329,-189.196 271.227,-192.391 281.116,-196.193 281.329,-189.196"/>
</g>
<!-- Node14 -->
<g id="node14" class="node"><title>Node14</title>
<g id="a_node14"><a xlink:href="classscram_1_1core_1_1Preprocessor.xhtml#a79fe8e90f0e8fbc20a76610aaf09fe6e" target="_top" xlink:title="Detects and manipulates AND and OR gate distributivity. ">
<polygon fill="white" stroke="black" points="310.5,-214.5 310.5,-244.5 442.5,-244.5 442.5,-214.5 310.5,-214.5"/>
<text text-anchor="start" x="318.5" y="-232.5" font-family="Helvetica,sans-Serif" font-size="10.00">scram::core::Preprocessor</text>
<text text-anchor="middle" x="376.5" y="-221.5" font-family="Helvetica,sans-Serif" font-size="10.00">::DetectDistributivity</text>
</a>
</g>
</g>
<!-- Node13&#45;&gt;Node14 -->
<g id="edge23" class="edge"><title>Node13&#45;&gt;Node14</title>
<path fill="none" stroke="midnightblue" d="M280.812,-208.272C290.655,-210.479 300.68,-212.726 310.346,-214.893"/>
<polygon fill="midnightblue" stroke="midnightblue" points="281.572,-204.856 271.048,-206.083 280.04,-211.686 281.572,-204.856"/>
</g>
<!-- Node16&#45;&gt;Node7 -->
<g id="edge30" class="edge"><title>Node16&#45;&gt;Node7</title>
<path fill="none" stroke="midnightblue" d="M624.561,-69.8723C670.242,-68.5802 729.588,-68.496 782,-73.5 868.51,-81.7596 890.577,-86.1512 974,-110.5 1003.53,-119.119 1035.93,-132.235 1059.37,-142.423"/>
<polygon fill="midnightblue" stroke="midnightblue" points="624.327,-66.3778 614.44,-70.1846 624.543,-73.3745 624.327,-66.3778"/>
</g>
<!-- Node16&#45;&gt;Node9 -->
<g id="edge29" class="edge"><title>Node16&#45;&gt;Node9</title>
<path fill="none" stroke="midnightblue" d="M587.344,-93.1991C606.044,-102.523 628.986,-113.548 650,-122.5 657.194,-125.564 664.925,-128.62 672.456,-131.473"/>
<polygon fill="midnightblue" stroke="midnightblue" points="588.766,-89.9968 578.259,-88.6371 585.625,-96.2524 588.766,-89.9968"/>
</g>
<!-- Node16&#45;&gt;Node17 -->
<g id="edge26" class="edge"><title>Node16&#45;&gt;Node17</title>
<path fill="none" stroke="midnightblue" d="M624.114,-84.3598C632.681,-85.5984 641.361,-86.8534 649.784,-88.0712"/>
<polygon fill="midnightblue" stroke="midnightblue" points="624.529,-80.8836 614.131,-82.9166 623.527,-87.8115 624.529,-80.8836"/>
</g>
<!-- Node17&#45;&gt;Node4 -->
<g id="edge27" class="edge"><title>Node17&#45;&gt;Node4</title>
<path fill="none" stroke="midnightblue" d="M768.235,-116.457C772.924,-118.416 777.572,-120.445 782,-122.5 817.724,-139.079 857.738,-162.166 879.258,-174.977"/>
<polygon fill="midnightblue" stroke="midnightblue" points="769.194,-113.069 758.612,-112.546 766.558,-119.553 769.194,-113.069"/>
</g>
<!-- Node17&#45;&gt;Node7 -->
<g id="edge28" class="edge"><title>Node17&#45;&gt;Node7</title>
<path fill="none" stroke="midnightblue" d="M792.317,-109.535C861.104,-120.526 961.767,-136.611 1027.21,-147.068"/>
<polygon fill="midnightblue" stroke="midnightblue" points="792.834,-106.073 782.407,-107.951 791.73,-112.985 792.834,-106.073"/>
</g>
<!-- Node19 -->
<g id="node19" class="node"><title>Node19</title>
<g id="a_node19"><a xlink:href="classscram_1_1core_1_1Preprocessor.xhtml#aebc709ad2e097c24e837889a6a9e4696" target="_top" xlink:title="Propagates failures of common nodes to detect redundancy. ">
<polygon fill="white" stroke="black" points="310.5,-263.5 310.5,-293.5 442.5,-293.5 442.5,-263.5 310.5,-263.5"/>
<text text-anchor="start" x="318.5" y="-281.5" font-family="Helvetica,sans-Serif" font-size="10.00">scram::core::Preprocessor</text>
<text text-anchor="middle" x="376.5" y="-270.5" font-family="Helvetica,sans-Serif" font-size="10.00">::BooleanOptimization</text>
</a>
</g>
</g>
<!-- Node18&#45;&gt;Node19 -->
<g id="edge32" class="edge"><title>Node18&#45;&gt;Node19</title>
<path fill="none" stroke="midnightblue" d="M281.119,-263.466C290.864,-265.018 300.781,-266.598 310.346,-268.121"/>
<polygon fill="midnightblue" stroke="midnightblue" points="281.474,-259.978 271.048,-261.862 280.373,-266.891 281.474,-259.978"/>
</g>
<!-- Node19&#45;&gt;Node3 -->
<g id="edge33" class="edge"><title>Node19&#45;&gt;Node3</title>
<path fill="none" stroke="midnightblue" d="M438.07,-260.633C456.997,-255.05 477.679,-248.949 495.888,-243.577"/>
<polygon fill="midnightblue" stroke="midnightblue" points="436.957,-257.312 428.356,-263.498 438.937,-264.026 436.957,-257.312"/>
</g>
<!-- Node20&#45;&gt;Node3 -->
<g id="edge35" class="edge"><title>Node20&#45;&gt;Node3</title>
<path fill="none" stroke="midnightblue" d="M406.115,-124.603C440.233,-149.763 496.406,-191.189 526.482,-213.369"/>
<polygon fill="midnightblue" stroke="midnightblue" points="408.071,-121.696 397.946,-118.578 403.917,-127.33 408.071,-121.696"/>
</g>
<!-- Node20&#45;&gt;Node7 -->
<g id="edge36" class="edge"><title>Node20&#45;&gt;Node7</title>
<path fill="none" stroke="midnightblue" d="M407.776,-82.9157C427.855,-70.5461 455.328,-55.9842 482,-49.5 585.834,-24.2575 877.186,-37.9237 974,-72.5 1015.96,-87.4871 1056.24,-122.043 1077.31,-142.176"/>
<polygon fill="midnightblue" stroke="midnightblue" points="405.678,-80.1018 399.1,-88.4079 409.422,-86.0163 405.678,-80.1018"/>
</g>
</g>
</svg>
