<?xml version="1.0" encoding="UTF-8" standalone="no"?>
<!DOCTYPE svg PUBLIC "-//W3C//DTD SVG 1.1//EN"
 "http://www.w3.org/Graphics/SVG/1.1/DTD/svg11.dtd">
<!-- Generated by graphviz version 2.38.0 (20140413.2041)
 -->
<!-- Title: scram::core::Preprocessor::ProcessCommonNode Pages: 1 -->
<svg width="1207pt" height="197pt"
 viewBox="0.00 0.00 1207.00 197.19" xmlns="http://www.w3.org/2000/svg" xmlns:xlink="http://www.w3.org/1999/xlink">
<g id="graph0" class="graph" transform="scale(1 1) rotate(0) translate(4 193.192)">
<title>scram::core::Preprocessor::ProcessCommonNode</title>
<polygon fill="white" stroke="none" points="-4,4 -4,-193.192 1203,-193.192 1203,4 -4,4"/>
<!-- Node1 -->
<g id="node1" class="node"><title>Node1</title>
<polygon fill="#bfbfbf" stroke="black" points="0,-84.5 0,-114.5 132,-114.5 132,-84.5 0,-84.5"/>
<text text-anchor="start" x="8" y="-102.5" font-family="Helvetica,sans-Serif" font-size="10.00">scram::core::Preprocessor</text>
<text text-anchor="middle" x="66" y="-91.5" font-family="Helvetica,sans-Serif" font-size="10.00">::ProcessCommonNode</text>
</g>
<!-- Node2 -->
<g id="node2" class="node"><title>Node2</title>
<g id="a_node2"><a xlink:href="classscram_1_1core_1_1Preprocessor.xhtml#aebc709ad2e097c24e837889a6a9e4696" target="_top" xlink:title="Propagates failures of common nodes to detect redundancy. ">
<polygon fill="white" stroke="black" points="168,-84.5 168,-114.5 300,-114.5 300,-84.5 168,-84.5"/>
<text text-anchor="start" x="176" y="-102.5" font-family="Helvetica,sans-Serif" font-size="10.00">scram::core::Preprocessor</text>
<text text-anchor="middle" x="234" y="-91.5" font-family="Helvetica,sans-Serif" font-size="10.00">::BooleanOptimization</text>
</a>
</g>
</g>
<!-- Node1&#45;&gt;Node2 -->
<g id="edge1" class="edge"><title>Node1&#45;&gt;Node2</title>
<path fill="none" stroke="midnightblue" d="M142.393,-99.5C150.869,-99.5 159.452,-99.5 167.784,-99.5"/>
<polygon fill="midnightblue" stroke="midnightblue" points="142.131,-96.0001 132.131,-99.5 142.131,-103 142.131,-96.0001"/>
</g>
<!-- Node3 -->
<g id="node3" class="node"><title>Node3</title>
<g id="a_node3"><a xlink:href="classscram_1_1core_1_1Preprocessor.xhtml#a9d5f89471499508eb9e6c01ea43e0f15" target="_top" xlink:title="Preprocessing phase of the original structure of the graph. ">
<polygon fill="white" stroke="black" points="336,-84.5 336,-114.5 468,-114.5 468,-84.5 336,-84.5"/>
<text text-anchor="start" x="344" y="-102.5" font-family="Helvetica,sans-Serif" font-size="10.00">scram::core::Preprocessor</text>
<text text-anchor="middle" x="402" y="-91.5" font-family="Helvetica,sans-Serif" font-size="10.00">::RunPhaseTwo</text>
</a>
</g>
</g>
<!-- Node2&#45;&gt;Node3 -->
<g id="edge2" class="edge"><title>Node2&#45;&gt;Node3</title>
<path fill="none" stroke="midnightblue" d="M310.393,-99.5C318.869,-99.5 327.452,-99.5 335.784,-99.5"/>
<polygon fill="midnightblue" stroke="midnightblue" points="310.131,-96.0001 300.131,-99.5 310.131,-103 310.131,-96.0001"/>
</g>
<!-- Node4 -->
<g id="node4" class="node"><title>Node4</title>
<g id="a_node4"><a xlink:href="classscram_1_1core_1_1Preprocessor.xhtml#a5ee92284aef510ce01a71c962d50f51c" target="_top" xlink:title="Runs the graph preprocessing. ">
<polygon fill="white" stroke="black" points="881.5,-93.5 881.5,-123.5 1013.5,-123.5 1013.5,-93.5 881.5,-93.5"/>
<text text-anchor="start" x="889.5" y="-111.5" font-family="Helvetica,sans-Serif" font-size="10.00">scram::core::Preprocessor</text>
<text text-anchor="middle" x="947.5" y="-100.5" font-family="Helvetica,sans-Serif" font-size="10.00">::operator()</text>
</a>
</g>
</g>
<!-- Node3&#45;&gt;Node4 -->
<g id="edge3" class="edge"><title>Node3&#45;&gt;Node4</title>
<path fill="none" stroke="midnightblue" d="M426.519,-121.343C445.733,-137.603 474.457,-158.482 504,-167.5 641.988,-209.623 688.186,-183.095 828,-147.5 844.798,-143.224 847.653,-138.263 864,-132.5 872.863,-129.375 882.36,-126.335 891.642,-123.527"/>
<polygon fill="midnightblue" stroke="midnightblue" points="428.733,-118.63 418.892,-114.705 424.137,-123.91 428.733,-118.63"/>
</g>
<!-- Node6 -->
<g id="node6" class="node"><title>Node6</title>
<g id="a_node6"><a xlink:href="classscram_1_1core_1_1Preprocessor.xhtml#a2b6705e815fa3d02119c405b483766d5" target="_top" xlink:title="Container of unique gates by semantics. ">
<polygon fill="white" stroke="black" points="672,-99 672,-118 828,-118 828,-99 672,-99"/>
<text text-anchor="middle" x="750" y="-106" font-family="Helvetica,sans-Serif" font-size="10.00">scram::core::Preprocessor::Run</text>
</a>
</g>
</g>
<!-- Node3&#45;&gt;Node6 -->
<g id="edge5" class="edge"><title>Node3&#45;&gt;Node6</title>
<path fill="none" stroke="midnightblue" d="M478.158,-101.455C535.44,-102.945 614.044,-104.99 671.82,-106.492"/>
<polygon fill="midnightblue" stroke="midnightblue" points="478.168,-97.9541 468.08,-101.193 477.986,-104.952 478.168,-97.9541"/>
</g>
<!-- Node9 -->
<g id="node9" class="node"><title>Node9</title>
<g id="a_node9"><a xlink:href="classscram_1_1core_1_1Preprocessor.xhtml#a3569bbcd5e863c750cdfa69115399600" target="_top" xlink:title="The final phase that cleans up the graph, and puts the structure of the graph ready for analysis...">
<polygon fill="white" stroke="black" points="684,-0.5 684,-30.5 816,-30.5 816,-0.5 684,-0.5"/>
<text text-anchor="start" x="692" y="-18.5" font-family="Helvetica,sans-Serif" font-size="10.00">scram::core::Preprocessor</text>
<text text-anchor="middle" x="750" y="-7.5" font-family="Helvetica,sans-Serif" font-size="10.00">::RunPhaseFive</text>
</a>
</g>
</g>
<!-- Node3&#45;&gt;Node9 -->
<g id="edge9" class="edge"><title>Node3&#45;&gt;Node9</title>
<path fill="none" stroke="midnightblue" d="M470.389,-81.9577C481.605,-79.0941 493.124,-76.1871 504,-73.5 564.894,-58.4559 634.502,-42.0533 683.921,-30.5423"/>
<polygon fill="midnightblue" stroke="midnightblue" points="469.453,-78.5843 460.635,-84.4565 471.191,-85.3654 469.453,-78.5843"/>
</g>
<!-- Node10 -->
<g id="node10" class="node"><title>Node10</title>
<g id="a_node10"><a xlink:href="classscram_1_1core_1_1Preprocessor.xhtml#a5c224938dfba861f061525658bd7b156" target="_top" xlink:title="Propagation of complements. ">
<polygon fill="white" stroke="black" points="684,-49.5 684,-79.5 816,-79.5 816,-49.5 684,-49.5"/>
<text text-anchor="start" x="692" y="-67.5" font-family="Helvetica,sans-Serif" font-size="10.00">scram::core::Preprocessor</text>
<text text-anchor="middle" x="750" y="-56.5" font-family="Helvetica,sans-Serif" font-size="10.00">::RunPhaseFour</text>
</a>
</g>
</g>
<!-- Node3&#45;&gt;Node10 -->
<g id="edge12" class="edge"><title>Node3&#45;&gt;Node10</title>
<path fill="none" stroke="midnightblue" d="M478.097,-91.9035C539.493,-85.6929 625.413,-77.0015 683.918,-71.0834"/>
<polygon fill="midnightblue" stroke="midnightblue" points="477.677,-88.428 468.08,-92.9168 478.381,-95.3925 477.677,-88.428"/>
</g>
<!-- Node11 -->
<g id="node11" class="node"><title>Node11</title>
<g id="a_node11"><a xlink:href="classscram_1_1core_1_1Preprocessor.xhtml#abf2c66723172a85b2ae87ef2a034cd1f" target="_top" xlink:title="Application of gate normalization. ">
<polygon fill="white" stroke="black" points="504,-128.5 504,-158.5 636,-158.5 636,-128.5 504,-128.5"/>
<text text-anchor="start" x="512" y="-146.5" font-family="Helvetica,sans-Serif" font-size="10.00">scram::core::Preprocessor</text>
<text text-anchor="middle" x="570" y="-135.5" font-family="Helvetica,sans-Serif" font-size="10.00">::RunPhaseThree</text>
</a>
</g>
</g>
<!-- Node3&#45;&gt;Node11 -->
<g id="edge15" class="edge"><title>Node3&#45;&gt;Node11</title>
<path fill="none" stroke="midnightblue" d="M469.378,-117.094C483.598,-120.863 498.496,-124.812 512.31,-128.474"/>
<polygon fill="midnightblue" stroke="midnightblue" points="470.226,-113.698 459.663,-114.519 468.433,-120.465 470.226,-113.698"/>
</g>
<!-- Node5 -->
<g id="node5" class="node"><title>Node5</title>
<g id="a_node5"><a xlink:href="classscram_1_1core_1_1Preprocessor_1_1GateSet.xhtml#ae00239084858979e096032c4cf2f05b9" target="_top" xlink:title="Inserts a gate into the set if it is semantically unique. ">
<polygon fill="white" stroke="black" points="1067,-93.5 1067,-123.5 1199,-123.5 1199,-93.5 1067,-93.5"/>
<text text-anchor="start" x="1075" y="-111.5" font-family="Helvetica,sans-Serif" font-size="10.00">scram::core::Preprocessor</text>
<text text-anchor="middle" x="1133" y="-100.5" font-family="Helvetica,sans-Serif" font-size="10.00">::GateSet::insert</text>
</a>
</g>
</g>
<!-- Node4&#45;&gt;Node5 -->
<g id="edge4" class="edge"><title>Node4&#45;&gt;Node5</title>
<path fill="none" stroke="midnightblue" d="M1023.99,-108.5C1038.26,-108.5 1053.08,-108.5 1067,-108.5"/>
<polygon fill="midnightblue" stroke="midnightblue" points="1023.71,-105 1013.71,-108.5 1023.71,-112 1023.71,-105"/>
</g>
<!-- Node6&#45;&gt;Node4 -->
<g id="edge7" class="edge"><title>Node6&#45;&gt;Node4</title>
<path fill="none" stroke="midnightblue" d="M838.674,-108.5C853.062,-108.5 867.744,-108.5 881.457,-108.5"/>
<polygon fill="midnightblue" stroke="midnightblue" points="838.267,-105 828.267,-108.5 838.267,-112 838.267,-105"/>
</g>
<!-- Node7 -->
<g id="node7" class="node"><title>Node7</title>
<g id="a_node7"><a xlink:href="classscram_1_1core_1_1Preprocessor.xhtml#a9caf4677a024ed935d831210b57b8ed9" target="_top" xlink:title="Gathers nodes in the sub&#45;graph. ">
<polygon fill="white" stroke="black" points="881.5,-142.5 881.5,-172.5 1013.5,-172.5 1013.5,-142.5 881.5,-142.5"/>
<text text-anchor="start" x="889.5" y="-160.5" font-family="Helvetica,sans-Serif" font-size="10.00">scram::core::Preprocessor</text>
<text text-anchor="middle" x="947.5" y="-149.5" font-family="Helvetica,sans-Serif" font-size="10.00">::GatherNodes</text>
</a>
</g>
</g>
<!-- Node6&#45;&gt;Node7 -->
<g id="edge6" class="edge"><title>Node6&#45;&gt;Node7</title>
<path fill="none" stroke="midnightblue" d="M798.934,-120.514C825.35,-127.135 858.39,-135.416 886.506,-142.463"/>
<polygon fill="midnightblue" stroke="midnightblue" points="799.709,-117.1 789.158,-118.064 798.007,-123.89 799.709,-117.1"/>
</g>
<!-- Node8 -->
<g id="node8" class="node"><title>Node8</title>
<g id="a_node8"><a xlink:href="classscram_1_1core_1_1CustomPreprocessor_3_01Zbdd_01_4.xhtml#a5185075f852c647c7aa4313d23420ee5" target="_top" xlink:title="Performs preprocessing for analyses with Zero&#45;Suppressed Binary Decision Diagrams. ">
<polygon fill="white" stroke="black" points="864,-44.5 864,-74.5 1031,-74.5 1031,-44.5 864,-44.5"/>
<text text-anchor="start" x="872" y="-62.5" font-family="Helvetica,sans-Serif" font-size="10.00">scram::core::CustomPreprocessor</text>
<text text-anchor="middle" x="947.5" y="-51.5" font-family="Helvetica,sans-Serif" font-size="10.00">&lt; Zbdd &gt;::Run</text>
</a>
</g>
</g>
<!-- Node6&#45;&gt;Node8 -->
<g id="edge8" class="edge"><title>Node6&#45;&gt;Node8</title>
<path fill="none" stroke="midnightblue" d="M798.934,-96.4858C825.35,-89.865 858.39,-81.5839 886.506,-74.537"/>
<polygon fill="midnightblue" stroke="midnightblue" points="798.007,-93.1097 789.158,-98.936 799.709,-99.8997 798.007,-93.1097"/>
</g>
<!-- Node9&#45;&gt;Node4 -->
<g id="edge10" class="edge"><title>Node9&#45;&gt;Node4</title>
<path fill="none" stroke="midnightblue" d="M820.51,-34.961C823.098,-36.3737 825.606,-37.8846 828,-39.5 848.945,-53.6332 843,-69.4498 864,-83.5 869.722,-87.3282 876.051,-90.5879 882.585,-93.3596"/>
<polygon fill="midnightblue" stroke="midnightblue" points="821.971,-31.7795 811.451,-30.5266 818.894,-38.0667 821.971,-31.7795"/>
</g>
<!-- Node9&#45;&gt;Node8 -->
<g id="edge11" class="edge"><title>Node9&#45;&gt;Node8</title>
<path fill="none" stroke="midnightblue" d="M826.313,-32.4503C843.894,-36.4071 862.499,-40.5943 879.681,-44.4615"/>
<polygon fill="midnightblue" stroke="midnightblue" points="826.623,-28.9326 816.099,-30.1514 825.086,-35.7617 826.623,-28.9326"/>
</g>
<!-- Node10&#45;&gt;Node4 -->
<g id="edge13" class="edge"><title>Node10&#45;&gt;Node4</title>
<path fill="none" stroke="midnightblue" d="M826.088,-81.3997C844.307,-85.4999 863.636,-89.8504 881.353,-93.8376"/>
<polygon fill="midnightblue" stroke="midnightblue" points="826.623,-77.9326 816.099,-79.1514 825.086,-84.7617 826.623,-77.9326"/>
</g>
<!-- Node10&#45;&gt;Node8 -->
<g id="edge14" class="edge"><title>Node10&#45;&gt;Node8</title>
<path fill="none" stroke="midnightblue" d="M826.313,-62.5738C838.636,-62.2587 851.462,-61.9306 863.949,-61.6113"/>
<polygon fill="midnightblue" stroke="midnightblue" points="826.006,-59.0805 816.099,-62.8351 826.185,-66.0782 826.006,-59.0805"/>
</g>
<!-- Node11&#45;&gt;Node4 -->
<g id="edge16" class="edge"><title>Node11&#45;&gt;Node4</title>
<path fill="none" stroke="midnightblue" d="M646.125,-140.741C697.458,-138.386 766.976,-134.276 828,-127.5 845.395,-125.569 864.133,-122.859 881.46,-120.09"/>
<polygon fill="midnightblue" stroke="midnightblue" points="645.942,-137.246 636.109,-141.189 646.255,-144.239 645.942,-137.246"/>
</g>
<!-- Node11&#45;&gt;Node6 -->
<g id="edge17" class="edge"><title>Node11&#45;&gt;Node6</title>
<path fill="none" stroke="midnightblue" d="M645.896,-128.773C664.402,-125.134 683.743,-121.331 700.608,-118.015"/>
<polygon fill="midnightblue" stroke="midnightblue" points="645.154,-125.352 636.018,-130.716 646.505,-132.22 645.154,-125.352"/>
</g>
</g>
</svg>
