<?xml version="1.0" encoding="UTF-8" standalone="no"?>
<!DOCTYPE svg PUBLIC "-//W3C//DTD SVG 1.1//EN"
 "http://www.w3.org/Graphics/SVG/1.1/DTD/svg11.dtd">
<!-- Generated by graphviz version 2.38.0 (20140413.2041)
 -->
<!-- Title: scram::core::Pdag::RemoveNullGates Pages: 1 -->
<svg width="286pt" height="52pt"
 viewBox="0.00 0.00 286.00 51.50" xmlns="http://www.w3.org/2000/svg" xmlns:xlink="http://www.w3.org/1999/xlink">
<g id="graph0" class="graph" transform="scale(1 1) rotate(0) translate(4 47.5)">
<title>scram::core::Pdag::RemoveNullGates</title>
<polygon fill="white" stroke="none" points="-4,4 -4,-47.5 282,-47.5 282,4 -4,4"/>
<!-- Node1 -->
<g id="node1" class="node"><title>Node1</title>
<polygon fill="#bfbfbf" stroke="black" points="0,-0.5 0,-30.5 103,-30.5 103,-0.5 0,-0.5"/>
<text text-anchor="start" x="8" y="-18.5" font-family="Helvetica,sans-Serif" font-size="10.00">scram::core::Pdag::</text>
<text text-anchor="middle" x="51.5" y="-7.5" font-family="Helvetica,sans-Serif" font-size="10.00">RemoveNullGates</text>
</g>
<!-- Node2 -->
<g id="node2" class="node"><title>Node2</title>
<g id="a_node2"><a xlink:href="pdag_8h.xhtml#aa00922ee92d35a300d86442f8b9ad331" target="_top" xlink:title="Traverses and visits gates and nodes in the graph. ">
<polygon fill="white" stroke="black" points="139,-6 139,-25 278,-25 278,-6 139,-6"/>
<text text-anchor="middle" x="208.5" y="-13" font-family="Helvetica,sans-Serif" font-size="10.00">scram::core::TraverseGates</text>
</a>
</g>
</g>
<!-- Node1&#45;&gt;Node2 -->
<g id="edge1" class="edge"><title>Node1&#45;&gt;Node2</title>
<path fill="none" stroke="midnightblue" d="M103.253,-15.5C111.439,-15.5 120.079,-15.5 128.74,-15.5"/>
<polygon fill="midnightblue" stroke="midnightblue" points="128.891,-19.0001 138.891,-15.5 128.891,-12.0001 128.891,-19.0001"/>
</g>
<!-- Node2&#45;&gt;Node2 -->
<g id="edge2" class="edge"><title>Node2&#45;&gt;Node2</title>
<path fill="none" stroke="midnightblue" d="M184.456,-25.2571C172.759,-34.0653 180.773,-43.5 208.5,-43.5 226.696,-43.5 236.402,-39.4368 237.619,-34.1539"/>
<polygon fill="midnightblue" stroke="midnightblue" points="240.539,-32.2091 232.544,-25.2571 234.459,-35.6775 240.539,-32.2091"/>
</g>
</g>
</svg>
