<?xml version="1.0" encoding="UTF-8" standalone="no"?>
<!DOCTYPE svg PUBLIC "-//W3C//DTD SVG 1.1//EN"
 "http://www.w3.org/Graphics/SVG/1.1/DTD/svg11.dtd">
<!-- Generated by graphviz version 2.38.0 (20140413.2041)
 -->
<!-- Title: scram::mef::Role::base_path Pages: 1 -->
<svg width="332pt" height="127pt"
 viewBox="0.00 0.00 332.00 127.00" xmlns="http://www.w3.org/2000/svg" xmlns:xlink="http://www.w3.org/1999/xlink">
<g id="graph0" class="graph" transform="scale(1 1) rotate(0) translate(4 123)">
<title>scram::mef::Role::base_path</title>
<polygon fill="white" stroke="none" points="-4,4 -4,-123 328,-123 328,4 -4,4"/>
<!-- Node1 -->
<g id="node1" class="node"><title>Node1</title>
<polygon fill="#bfbfbf" stroke="black" points="0,-50 0,-69 143,-69 143,-50 0,-50"/>
<text text-anchor="middle" x="71.5" y="-57" font-family="Helvetica,sans-Serif" font-size="10.00">scram::mef::Role::base_path</text>
</g>
<!-- Node2 -->
<g id="node2" class="node"><title>Node2</title>
<g id="a_node2"><a xlink:href="classscram_1_1mef_1_1Initializer.xhtml#a14baeb786ca655ac41c6ad3197ebf612" target="_top" xlink:title="Specializations for elements defined after registration. ">
<polygon fill="white" stroke="black" points="196,-88.5 196,-118.5 307,-118.5 307,-88.5 196,-88.5"/>
<text text-anchor="start" x="204" y="-106.5" font-family="Helvetica,sans-Serif" font-size="10.00">scram::mef::Initializer</text>
<text text-anchor="middle" x="251.5" y="-95.5" font-family="Helvetica,sans-Serif" font-size="10.00">::Define</text>
</a>
</g>
</g>
<!-- Node1&#45;&gt;Node2 -->
<g id="edge1" class="edge"><title>Node1&#45;&gt;Node2</title>
<path fill="none" stroke="midnightblue" d="M121.051,-71.5014C144.159,-77.2135 171.888,-84.0679 195.744,-89.9648"/>
<polygon fill="midnightblue" stroke="midnightblue" points="121.671,-68.0494 111.123,-69.0473 119.991,-74.8448 121.671,-68.0494"/>
</g>
<!-- Node3 -->
<g id="node3" class="node"><title>Node3</title>
<g id="a_node3"><a xlink:href="classscram_1_1mef_1_1Id.xhtml#aae8674c47f234e5d98dfcfa1b6cf69c1" target="_top" xlink:title="Constructs an element with an original name. ">
<polygon fill="white" stroke="black" points="204,-50 204,-69 299,-69 299,-50 204,-50"/>
<text text-anchor="middle" x="251.5" y="-57" font-family="Helvetica,sans-Serif" font-size="10.00">scram::mef::Id::Id</text>
</a>
</g>
</g>
<!-- Node1&#45;&gt;Node3 -->
<g id="edge2" class="edge"><title>Node1&#45;&gt;Node3</title>
<path fill="none" stroke="midnightblue" d="M153.227,-59.5C170.533,-59.5 188.261,-59.5 203.761,-59.5"/>
<polygon fill="midnightblue" stroke="midnightblue" points="153.106,-56.0001 143.106,-59.5 153.106,-63.0001 153.106,-56.0001"/>
</g>
<!-- Node4 -->
<g id="node4" class="node"><title>Node4</title>
<g id="a_node4"><a xlink:href="structscram_1_1mef_1_1Initializer_1_1Extractor_3_01T_00-1_01_4.xhtml#aa3a2ab99081e017bfa97747a8f6bca04" target="_top" xlink:title="Constructs an expression with a variable number of arguments. ">
<polygon fill="white" stroke="black" points="179,-0.5 179,-30.5 324,-30.5 324,-0.5 179,-0.5"/>
<text text-anchor="start" x="187" y="-18.5" font-family="Helvetica,sans-Serif" font-size="10.00">scram::mef::Initializer</text>
<text text-anchor="middle" x="251.5" y="-7.5" font-family="Helvetica,sans-Serif" font-size="10.00">::Extractor&lt; T,&#45;1 &gt;::operator()</text>
</a>
</g>
</g>
<!-- Node1&#45;&gt;Node4 -->
<g id="edge3" class="edge"><title>Node1&#45;&gt;Node4</title>
<path fill="none" stroke="midnightblue" d="M120.864,-47.545C142.038,-42.3108 167.12,-36.1107 189.554,-30.5654"/>
<polygon fill="midnightblue" stroke="midnightblue" points="119.991,-44.1552 111.123,-49.9527 121.671,-50.9506 119.991,-44.1552"/>
</g>
</g>
</svg>
