<?xml version="1.0" encoding="UTF-8" standalone="no"?>
<!DOCTYPE svg PUBLIC "-//W3C//DTD SVG 1.1//EN"
 "http://www.w3.org/Graphics/SVG/1.1/DTD/svg11.dtd">
<!-- Generated by graphviz version 2.38.0 (20140413.2041)
 -->
<!-- Title: scram::core::zbdd::CutSetContainer::ExpandGate Pages: 1 -->
<svg width="318pt" height="186pt"
 viewBox="0.00 0.00 318.00 186.00" xmlns="http://www.w3.org/2000/svg" xmlns:xlink="http://www.w3.org/1999/xlink">
<g id="graph0" class="graph" transform="scale(1 1) rotate(0) translate(4 182)">
<title>scram::core::zbdd::CutSetContainer::ExpandGate</title>
<polygon fill="white" stroke="none" points="-4,4 -4,-182 314,-182 314,4 -4,4"/>
<!-- Node1 -->
<g id="node1" class="node"><title>Node1</title>
<polygon fill="#bfbfbf" stroke="black" points="-2.84217e-14,-73.5 -2.84217e-14,-103.5 149,-103.5 149,-73.5 -2.84217e-14,-73.5"/>
<text text-anchor="start" x="8" y="-91.5" font-family="Helvetica,sans-Serif" font-size="10.00">scram::core::zbdd::</text>
<text text-anchor="middle" x="74.5" y="-80.5" font-family="Helvetica,sans-Serif" font-size="10.00">CutSetContainer::ExpandGate</text>
</g>
<!-- Node2 -->
<g id="node2" class="node"><title>Node2</title>
<g id="a_node2"><a xlink:href="classscram_1_1core_1_1Settings.xhtml#a0e43ec0f017d23a4fa4e376c4060d380" target="_top" xlink:title="scram::core::Settings\l::limit_order">
<polygon fill="white" stroke="black" points="192.5,-147.5 192.5,-177.5 302.5,-177.5 302.5,-147.5 192.5,-147.5"/>
<text text-anchor="start" x="200.5" y="-165.5" font-family="Helvetica,sans-Serif" font-size="10.00">scram::core::Settings</text>
<text text-anchor="middle" x="247.5" y="-154.5" font-family="Helvetica,sans-Serif" font-size="10.00">::limit_order</text>
</a>
</g>
</g>
<!-- Node1&#45;&gt;Node2 -->
<g id="edge1" class="edge"><title>Node1&#45;&gt;Node2</title>
<path fill="none" stroke="midnightblue" d="M107.392,-103.637C129.126,-113.81 158.631,-127.345 185,-138.5 189.089,-140.23 193.348,-141.985 197.633,-143.72"/>
<polygon fill="midnightblue" stroke="midnightblue" points="196.412,-147.001 206.997,-147.463 199.011,-140.501 196.412,-147.001"/>
</g>
<!-- Node3 -->
<g id="node3" class="node"><title>Node3</title>
<g id="a_node3"><a xlink:href="classscram_1_1core_1_1SetNode.xhtml#a2d7f99792b82961df2e5ecfcd735bb5f" target="_top" xlink:title="scram::core::SetNode\l::max_set_order">
<polygon fill="white" stroke="black" points="191,-98.5 191,-128.5 304,-128.5 304,-98.5 191,-98.5"/>
<text text-anchor="start" x="199" y="-116.5" font-family="Helvetica,sans-Serif" font-size="10.00">scram::core::SetNode</text>
<text text-anchor="middle" x="247.5" y="-105.5" font-family="Helvetica,sans-Serif" font-size="10.00">::max_set_order</text>
</a>
</g>
</g>
<!-- Node1&#45;&gt;Node3 -->
<g id="edge2" class="edge"><title>Node1&#45;&gt;Node3</title>
<path fill="none" stroke="midnightblue" d="M149.012,-99.2473C159.535,-100.786 170.305,-102.36 180.668,-103.875"/>
<polygon fill="midnightblue" stroke="midnightblue" points="180.469,-107.384 190.87,-105.367 181.482,-100.457 180.469,-107.384"/>
</g>
<!-- Node4 -->
<g id="node4" class="node"><title>Node4</title>
<g id="a_node4"><a xlink:href="structscram_1_1core_1_1IntrusivePtrCast.xhtml#af153c12dc6133b7d9f9b7a57bba29f1d" target="_top" xlink:title="scram::core::IntrusivePtr\lCast\&lt; SetNode \&gt;::Ref">
<polygon fill="white" stroke="black" points="185,-49.5 185,-79.5 310,-79.5 310,-49.5 185,-49.5"/>
<text text-anchor="start" x="193" y="-67.5" font-family="Helvetica,sans-Serif" font-size="10.00">scram::core::IntrusivePtr</text>
<text text-anchor="middle" x="247.5" y="-56.5" font-family="Helvetica,sans-Serif" font-size="10.00">Cast&lt; SetNode &gt;::Ref</text>
</a>
</g>
</g>
<!-- Node1&#45;&gt;Node4 -->
<g id="edge3" class="edge"><title>Node1&#45;&gt;Node4</title>
<path fill="none" stroke="midnightblue" d="M149.012,-78.1826C157.6,-76.9772 166.353,-75.7487 174.914,-74.5471"/>
<polygon fill="midnightblue" stroke="midnightblue" points="175.439,-78.0078 184.856,-73.1518 174.466,-71.0758 175.439,-78.0078"/>
</g>
<!-- Node5 -->
<g id="node5" class="node"><title>Node5</title>
<g id="a_node5"><a xlink:href="classscram_1_1core_1_1Zbdd.xhtml#ab71281cd644eb442dd2d3ee1c5df56c4" target="_top" xlink:title="scram::core::Zbdd::\lsettings">
<polygon fill="white" stroke="black" points="196.5,-0.5 196.5,-30.5 298.5,-30.5 298.5,-0.5 196.5,-0.5"/>
<text text-anchor="start" x="204.5" y="-18.5" font-family="Helvetica,sans-Serif" font-size="10.00">scram::core::Zbdd::</text>
<text text-anchor="middle" x="247.5" y="-7.5" font-family="Helvetica,sans-Serif" font-size="10.00">settings</text>
</a>
</g>
</g>
<!-- Node1&#45;&gt;Node5 -->
<g id="edge4" class="edge"><title>Node1&#45;&gt;Node5</title>
<path fill="none" stroke="midnightblue" d="M109.431,-73.344C131.007,-63.7769 159.569,-51.2406 185,-40.5 189.723,-38.5052 194.662,-36.4489 199.598,-34.4125"/>
<polygon fill="midnightblue" stroke="midnightblue" points="201.109,-37.576 209.032,-30.5426 198.452,-31.0997 201.109,-37.576"/>
</g>
</g>
</svg>
