<?xml version="1.0" encoding="UTF-8" standalone="no"?>
<!DOCTYPE svg PUBLIC "-//W3C//DTD SVG 1.1//EN"
 "http://www.w3.org/Graphics/SVG/1.1/DTD/svg11.dtd">
<!-- Generated by graphviz version 2.38.0 (20140413.2041)
 -->
<!-- Title: scram::core::Node::opti_value Pages: 1 -->
<svg width="1515pt" height="199pt"
 viewBox="0.00 0.00 1515.00 198.74" xmlns="http://www.w3.org/2000/svg" xmlns:xlink="http://www.w3.org/1999/xlink">
<g id="graph0" class="graph" transform="scale(1 1) rotate(0) translate(4 194.745)">
<title>scram::core::Node::opti_value</title>
<polygon fill="white" stroke="none" points="-4,4 -4,-194.745 1511,-194.745 1511,4 -4,4"/>
<!-- Node1 -->
<g id="node1" class="node"><title>Node1</title>
<polygon fill="#bfbfbf" stroke="black" points="0,-70.2447 0,-100.245 104,-100.245 104,-70.2447 0,-70.2447"/>
<text text-anchor="start" x="8" y="-88.2447" font-family="Helvetica,sans-Serif" font-size="10.00">scram::core::Node::</text>
<text text-anchor="middle" x="52" y="-77.2447" font-family="Helvetica,sans-Serif" font-size="10.00">opti_value</text>
</g>
<!-- Node2 -->
<g id="node2" class="node"><title>Node2</title>
<g id="a_node2"><a xlink:href="classscram_1_1core_1_1Preprocessor.xhtml#ae9a8bac98061d7f82633486ed6a36861" target="_top" xlink:title="Propagates failure or success of a common node by setting its ancestors&#39; optimization values to 1 or ...">
<polygon fill="white" stroke="black" points="140,-70.2447 140,-100.245 272,-100.245 272,-70.2447 140,-70.2447"/>
<text text-anchor="start" x="148" y="-88.2447" font-family="Helvetica,sans-Serif" font-size="10.00">scram::core::Preprocessor</text>
<text text-anchor="middle" x="206" y="-77.2447" font-family="Helvetica,sans-Serif" font-size="10.00">::PropagateState</text>
</a>
</g>
</g>
<!-- Node1&#45;&gt;Node2 -->
<g id="edge1" class="edge"><title>Node1&#45;&gt;Node2</title>
<path fill="none" stroke="midnightblue" d="M114.168,-85.2447C122.602,-85.2447 131.289,-85.2447 139.792,-85.2447"/>
<polygon fill="midnightblue" stroke="midnightblue" points="114.037,-81.7448 104.037,-85.2447 114.037,-88.7448 114.037,-81.7448"/>
</g>
<!-- Node3 -->
<g id="node3" class="node"><title>Node3</title>
<g id="a_node3"><a xlink:href="classscram_1_1core_1_1Preprocessor.xhtml#a4086c57695d49b4770915d5d53bd47de" target="_top" xlink:title="Tries to simplify the graph by removing redundancies generated by a common node. ">
<polygon fill="white" stroke="black" points="308,-70.2447 308,-100.245 440,-100.245 440,-70.2447 308,-70.2447"/>
<text text-anchor="start" x="316" y="-88.2447" font-family="Helvetica,sans-Serif" font-size="10.00">scram::core::Preprocessor</text>
<text text-anchor="middle" x="374" y="-77.2447" font-family="Helvetica,sans-Serif" font-size="10.00">::ProcessCommonNode</text>
</a>
</g>
</g>
<!-- Node2&#45;&gt;Node3 -->
<g id="edge2" class="edge"><title>Node2&#45;&gt;Node3</title>
<path fill="none" stroke="midnightblue" d="M282.393,-85.2447C290.869,-85.2447 299.452,-85.2447 307.784,-85.2447"/>
<polygon fill="midnightblue" stroke="midnightblue" points="282.131,-81.7448 272.131,-85.2447 282.131,-88.7448 282.131,-81.7448"/>
</g>
<!-- Node4 -->
<g id="node4" class="node"><title>Node4</title>
<g id="a_node4"><a xlink:href="classscram_1_1core_1_1Preprocessor.xhtml#aebc709ad2e097c24e837889a6a9e4696" target="_top" xlink:title="Propagates failures of common nodes to detect redundancy. ">
<polygon fill="white" stroke="black" points="476,-70.2447 476,-100.245 608,-100.245 608,-70.2447 476,-70.2447"/>
<text text-anchor="start" x="484" y="-88.2447" font-family="Helvetica,sans-Serif" font-size="10.00">scram::core::Preprocessor</text>
<text text-anchor="middle" x="542" y="-77.2447" font-family="Helvetica,sans-Serif" font-size="10.00">::BooleanOptimization</text>
</a>
</g>
</g>
<!-- Node3&#45;&gt;Node4 -->
<g id="edge3" class="edge"><title>Node3&#45;&gt;Node4</title>
<path fill="none" stroke="midnightblue" d="M450.393,-85.2447C458.869,-85.2447 467.452,-85.2447 475.784,-85.2447"/>
<polygon fill="midnightblue" stroke="midnightblue" points="450.131,-81.7448 440.131,-85.2447 450.131,-88.7448 450.131,-81.7448"/>
</g>
<!-- Node5 -->
<g id="node5" class="node"><title>Node5</title>
<g id="a_node5"><a xlink:href="classscram_1_1core_1_1Preprocessor.xhtml#a9d5f89471499508eb9e6c01ea43e0f15" target="_top" xlink:title="Preprocessing phase of the original structure of the graph. ">
<polygon fill="white" stroke="black" points="644,-70.2447 644,-100.245 776,-100.245 776,-70.2447 644,-70.2447"/>
<text text-anchor="start" x="652" y="-88.2447" font-family="Helvetica,sans-Serif" font-size="10.00">scram::core::Preprocessor</text>
<text text-anchor="middle" x="710" y="-77.2447" font-family="Helvetica,sans-Serif" font-size="10.00">::RunPhaseTwo</text>
</a>
</g>
</g>
<!-- Node4&#45;&gt;Node5 -->
<g id="edge4" class="edge"><title>Node4&#45;&gt;Node5</title>
<path fill="none" stroke="midnightblue" d="M618.393,-85.2447C626.869,-85.2447 635.452,-85.2447 643.784,-85.2447"/>
<polygon fill="midnightblue" stroke="midnightblue" points="618.131,-81.7448 608.131,-85.2447 618.131,-88.7448 618.131,-81.7448"/>
</g>
<!-- Node6 -->
<g id="node6" class="node"><title>Node6</title>
<g id="a_node6"><a xlink:href="classscram_1_1core_1_1Preprocessor.xhtml#a2b6705e815fa3d02119c405b483766d5" target="_top" xlink:title="Container of unique gates by semantics. ">
<polygon fill="white" stroke="black" points="980,-160.745 980,-179.745 1136,-179.745 1136,-160.745 980,-160.745"/>
<text text-anchor="middle" x="1058" y="-167.745" font-family="Helvetica,sans-Serif" font-size="10.00">scram::core::Preprocessor::Run</text>
</a>
</g>
</g>
<!-- Node5&#45;&gt;Node6 -->
<g id="edge5" class="edge"><title>Node5&#45;&gt;Node6</title>
<path fill="none" stroke="midnightblue" d="M761.629,-103.607C777.62,-109.05 795.439,-114.751 812,-119.245 876.363,-136.71 951.626,-151.567 1001.58,-160.664"/>
<polygon fill="midnightblue" stroke="midnightblue" points="762.531,-100.216 751.936,-100.264 760.249,-106.833 762.531,-100.216"/>
</g>
<!-- Node9 -->
<g id="node9" class="node"><title>Node9</title>
<g id="a_node9"><a xlink:href="classscram_1_1core_1_1Preprocessor.xhtml#a5ee92284aef510ce01a71c962d50f51c" target="_top" xlink:title="Runs the graph preprocessing. ">
<polygon fill="white" stroke="black" points="1189.5,-62.2447 1189.5,-92.2447 1321.5,-92.2447 1321.5,-62.2447 1189.5,-62.2447"/>
<text text-anchor="start" x="1197.5" y="-80.2447" font-family="Helvetica,sans-Serif" font-size="10.00">scram::core::Preprocessor</text>
<text text-anchor="middle" x="1255.5" y="-69.2447" font-family="Helvetica,sans-Serif" font-size="10.00">::operator()</text>
</a>
</g>
</g>
<!-- Node5&#45;&gt;Node9 -->
<g id="edge19" class="edge"><title>Node5&#45;&gt;Node9</title>
<path fill="none" stroke="midnightblue" d="M734.117,-63.3819C753.299,-46.8434 782.174,-25.4601 812,-16.2447 958.52,29.0262 1142.72,-32.0414 1218.95,-62.1757"/>
<polygon fill="midnightblue" stroke="midnightblue" points="731.675,-60.8699 726.515,-70.1236 736.319,-66.1071 731.675,-60.8699"/>
</g>
<!-- Node11 -->
<g id="node11" class="node"><title>Node11</title>
<g id="a_node11"><a xlink:href="classscram_1_1core_1_1Preprocessor.xhtml#abf2c66723172a85b2ae87ef2a034cd1f" target="_top" xlink:title="Application of gate normalization. ">
<polygon fill="white" stroke="black" points="812,-26.2447 812,-56.2447 944,-56.2447 944,-26.2447 812,-26.2447"/>
<text text-anchor="start" x="820" y="-44.2447" font-family="Helvetica,sans-Serif" font-size="10.00">scram::core::Preprocessor</text>
<text text-anchor="middle" x="878" y="-33.2447" font-family="Helvetica,sans-Serif" font-size="10.00">::RunPhaseThree</text>
</a>
</g>
</g>
<!-- Node5&#45;&gt;Node11 -->
<g id="edge10" class="edge"><title>Node5&#45;&gt;Node11</title>
<path fill="none" stroke="midnightblue" d="M777.378,-67.6506C791.598,-63.8815 806.496,-59.9325 820.31,-56.2709"/>
<polygon fill="midnightblue" stroke="midnightblue" points="776.433,-64.2801 767.663,-70.2255 778.226,-71.0464 776.433,-64.2801"/>
</g>
<!-- Node12 -->
<g id="node12" class="node"><title>Node12</title>
<g id="a_node12"><a xlink:href="classscram_1_1core_1_1Preprocessor.xhtml#a5c224938dfba861f061525658bd7b156" target="_top" xlink:title="Propagation of complements. ">
<polygon fill="white" stroke="black" points="992,-62.2447 992,-92.2447 1124,-92.2447 1124,-62.2447 992,-62.2447"/>
<text text-anchor="start" x="1000" y="-80.2447" font-family="Helvetica,sans-Serif" font-size="10.00">scram::core::Preprocessor</text>
<text text-anchor="middle" x="1058" y="-69.2447" font-family="Helvetica,sans-Serif" font-size="10.00">::RunPhaseFour</text>
</a>
</g>
</g>
<!-- Node5&#45;&gt;Node12 -->
<g id="edge13" class="edge"><title>Node5&#45;&gt;Node12</title>
<path fill="none" stroke="midnightblue" d="M786.097,-83.5084C847.493,-82.0888 933.413,-80.1022 991.918,-78.7495"/>
<polygon fill="midnightblue" stroke="midnightblue" points="785.996,-80.0097 776.08,-83.74 786.158,-87.0078 785.996,-80.0097"/>
</g>
<!-- Node13 -->
<g id="node13" class="node"><title>Node13</title>
<g id="a_node13"><a xlink:href="classscram_1_1core_1_1Preprocessor.xhtml#a3569bbcd5e863c750cdfa69115399600" target="_top" xlink:title="The final phase that cleans up the graph, and puts the structure of the graph ready for analysis...">
<polygon fill="white" stroke="black" points="992,-111.245 992,-141.245 1124,-141.245 1124,-111.245 992,-111.245"/>
<text text-anchor="start" x="1000" y="-129.245" font-family="Helvetica,sans-Serif" font-size="10.00">scram::core::Preprocessor</text>
<text text-anchor="middle" x="1058" y="-118.245" font-family="Helvetica,sans-Serif" font-size="10.00">::RunPhaseFive</text>
</a>
</g>
</g>
<!-- Node5&#45;&gt;Node13 -->
<g id="edge16" class="edge"><title>Node5&#45;&gt;Node13</title>
<path fill="none" stroke="midnightblue" d="M786.097,-94.1435C847.493,-101.419 933.413,-111.6 991.918,-118.533"/>
<polygon fill="midnightblue" stroke="midnightblue" points="786.422,-90.6576 776.08,-92.9565 785.599,-97.609 786.422,-90.6576"/>
</g>
<!-- Node7 -->
<g id="node7" class="node"><title>Node7</title>
<g id="a_node7"><a xlink:href="classscram_1_1core_1_1Preprocessor.xhtml#a9caf4677a024ed935d831210b57b8ed9" target="_top" xlink:title="Gathers nodes in the sub&#45;graph. ">
<polygon fill="white" stroke="black" points="1189.5,-160.245 1189.5,-190.245 1321.5,-190.245 1321.5,-160.245 1189.5,-160.245"/>
<text text-anchor="start" x="1197.5" y="-178.245" font-family="Helvetica,sans-Serif" font-size="10.00">scram::core::Preprocessor</text>
<text text-anchor="middle" x="1255.5" y="-167.245" font-family="Helvetica,sans-Serif" font-size="10.00">::GatherNodes</text>
</a>
</g>
</g>
<!-- Node6&#45;&gt;Node7 -->
<g id="edge6" class="edge"><title>Node6&#45;&gt;Node7</title>
<path fill="none" stroke="midnightblue" d="M1146.67,-172.487C1161.06,-172.855 1175.74,-173.23 1189.46,-173.581"/>
<polygon fill="midnightblue" stroke="midnightblue" points="1146.35,-168.978 1136.27,-172.221 1146.17,-175.975 1146.35,-168.978"/>
</g>
<!-- Node8 -->
<g id="node8" class="node"><title>Node8</title>
<g id="a_node8"><a xlink:href="classscram_1_1core_1_1CustomPreprocessor_3_01Zbdd_01_4.xhtml#a5185075f852c647c7aa4313d23420ee5" target="_top" xlink:title="Performs preprocessing for analyses with Zero&#45;Suppressed Binary Decision Diagrams. ">
<polygon fill="white" stroke="black" points="1172,-111.245 1172,-141.245 1339,-141.245 1339,-111.245 1172,-111.245"/>
<text text-anchor="start" x="1180" y="-129.245" font-family="Helvetica,sans-Serif" font-size="10.00">scram::core::CustomPreprocessor</text>
<text text-anchor="middle" x="1255.5" y="-118.245" font-family="Helvetica,sans-Serif" font-size="10.00">&lt; Zbdd &gt;::Run</text>
</a>
</g>
</g>
<!-- Node6&#45;&gt;Node8 -->
<g id="edge7" class="edge"><title>Node6&#45;&gt;Node8</title>
<path fill="none" stroke="midnightblue" d="M1111.49,-158.432C1134.88,-153.168 1162.7,-146.906 1187.56,-141.31"/>
<polygon fill="midnightblue" stroke="midnightblue" points="1110.41,-155.087 1101.42,-160.697 1111.95,-161.916 1110.41,-155.087"/>
</g>
<!-- Node6&#45;&gt;Node9 -->
<g id="edge8" class="edge"><title>Node6&#45;&gt;Node9</title>
<path fill="none" stroke="midnightblue" d="M1124.14,-156.866C1128.3,-154.947 1132.3,-152.753 1136,-150.245 1158.37,-135.083 1149.85,-116.728 1172,-101.245 1177.26,-97.5696 1183.08,-94.4519 1189.12,-91.8082"/>
<polygon fill="midnightblue" stroke="midnightblue" points="1122.79,-153.64 1114.83,-160.643 1125.42,-160.127 1122.79,-153.64"/>
</g>
<!-- Node10 -->
<g id="node10" class="node"><title>Node10</title>
<g id="a_node10"><a xlink:href="classscram_1_1core_1_1Preprocessor_1_1GateSet.xhtml#ae00239084858979e096032c4cf2f05b9" target="_top" xlink:title="Inserts a gate into the set if it is semantically unique. ">
<polygon fill="white" stroke="black" points="1375,-62.2447 1375,-92.2447 1507,-92.2447 1507,-62.2447 1375,-62.2447"/>
<text text-anchor="start" x="1383" y="-80.2447" font-family="Helvetica,sans-Serif" font-size="10.00">scram::core::Preprocessor</text>
<text text-anchor="middle" x="1441" y="-69.2447" font-family="Helvetica,sans-Serif" font-size="10.00">::GateSet::insert</text>
</a>
</g>
</g>
<!-- Node9&#45;&gt;Node10 -->
<g id="edge9" class="edge"><title>Node9&#45;&gt;Node10</title>
<path fill="none" stroke="midnightblue" d="M1331.99,-77.2447C1346.26,-77.2447 1361.08,-77.2447 1375,-77.2447"/>
<polygon fill="midnightblue" stroke="midnightblue" points="1331.71,-73.7448 1321.71,-77.2447 1331.71,-80.7448 1331.71,-73.7448"/>
</g>
<!-- Node11&#45;&gt;Node6 -->
<g id="edge11" class="edge"><title>Node11&#45;&gt;Node6</title>
<path fill="none" stroke="midnightblue" d="M894.727,-65.0045C912.495,-89.9663 943.712,-128.552 980,-150.245 987.231,-154.568 995.389,-157.966 1003.62,-160.635"/>
<polygon fill="midnightblue" stroke="midnightblue" points="897.385,-62.6962 888.805,-56.481 891.637,-66.6904 897.385,-62.6962"/>
</g>
<!-- Node11&#45;&gt;Node9 -->
<g id="edge12" class="edge"><title>Node11&#45;&gt;Node9</title>
<path fill="none" stroke="midnightblue" d="M954.234,-41.2013C1005.61,-41.97 1075.15,-44.5764 1136,-52.2447 1154.57,-54.5842 1174.55,-58.3186 1192.71,-62.1953"/>
<polygon fill="midnightblue" stroke="midnightblue" points="954.252,-37.7014 944.207,-41.0711 954.161,-44.7008 954.252,-37.7014"/>
</g>
<!-- Node12&#45;&gt;Node8 -->
<g id="edge14" class="edge"><title>Node12&#45;&gt;Node8</title>
<path fill="none" stroke="midnightblue" d="M1128.73,-94.7215C1150.28,-100.122 1173.81,-106.02 1194.63,-111.239"/>
<polygon fill="midnightblue" stroke="midnightblue" points="1129.54,-91.3156 1118.99,-92.2793 1127.83,-98.1056 1129.54,-91.3156"/>
</g>
<!-- Node12&#45;&gt;Node9 -->
<g id="edge15" class="edge"><title>Node12&#45;&gt;Node9</title>
<path fill="none" stroke="midnightblue" d="M1134.34,-77.2447C1152.49,-77.2447 1171.72,-77.2447 1189.35,-77.2447"/>
<polygon fill="midnightblue" stroke="midnightblue" points="1134.1,-73.7448 1124.1,-77.2447 1134.1,-80.7448 1134.1,-73.7448"/>
</g>
<!-- Node13&#45;&gt;Node8 -->
<g id="edge17" class="edge"><title>Node13&#45;&gt;Node8</title>
<path fill="none" stroke="midnightblue" d="M1134.31,-126.245C1146.64,-126.245 1159.46,-126.245 1171.95,-126.245"/>
<polygon fill="midnightblue" stroke="midnightblue" points="1134.1,-122.745 1124.1,-126.245 1134.1,-129.745 1134.1,-122.745"/>
</g>
<!-- Node13&#45;&gt;Node9 -->
<g id="edge18" class="edge"><title>Node13&#45;&gt;Node9</title>
<path fill="none" stroke="midnightblue" d="M1128.73,-108.768C1150.28,-103.367 1173.81,-97.4692 1194.63,-92.2509"/>
<polygon fill="midnightblue" stroke="midnightblue" points="1127.83,-105.384 1118.99,-111.21 1129.54,-112.174 1127.83,-105.384"/>
</g>
</g>
</svg>
