<?xml version="1.0" encoding="UTF-8" standalone="no"?>
<!DOCTYPE svg PUBLIC "-//W3C//DTD SVG 1.1//EN"
 "http://www.w3.org/Graphics/SVG/1.1/DTD/svg11.dtd">
<!-- Generated by graphviz version 2.38.0 (20140413.2041)
 -->
<!-- Title: scram::mef::Expression::Sample Pages: 1 -->
<!--zoomable 340 -->
<svg id="main" version="1.1" xmlns="http://www.w3.org/2000/svg" xmlns:xlink="http://www.w3.org/1999/xlink" xml:space="preserve" onload="init(evt)">
<style type="text/css"><![CDATA[
.edge:hover path { stroke: red; }
.edge:hover polygon { stroke: red; fill: red; }
]]></style>
<script type="text/javascript"><![CDATA[
var edges = document.getElementsByTagName('g');
if (edges && edges.length) {
  for (var i=0;i<edges.length;i++) {
    if (edges[i].id.substr(0,4)=='edge') {
      edges[i].setAttribute('class','edge');
    }
  }
}
]]></script>
        <defs>
                <circle id="rim" cx="0" cy="0" r="7"/>
                <circle id="rim2" cx="0" cy="0" r="3.5"/>
                <g id="zoomPlus">
                        <use xlink:href="#rim" fill="#404040">
                                <set attributeName="fill" to="#808080" begin="zoomplus.mouseover" end="zoomplus.mouseout"/>
                        </use>
                        <path d="M-4,0h8M0,-4v8" fill="none" stroke="white" stroke-width="1.5" pointer-events="none"/>
                </g>
                <g id="zoomMin">
                        <use xlink:href="#rim" fill="#404040">
                                <set attributeName="fill" to="#808080" begin="zoomminus.mouseover" end="zoomminus.mouseout"/>
                        </use>
                        <path d="M-4,0h8" fill="none" stroke="white" stroke-width="1.5" pointer-events="none"/>
                </g>
                <g id="dirArrow">
                        <path fill="none" stroke="white" stroke-width="1.5" d="M0,-3.0v7 M-2.5,-0.5L0,-3.0L2.5,-0.5"/>
                </g>
               <g id="resetDef">
                       <use xlink:href="#rim2" fill="#404040">
                               <set attributeName="fill" to="#808080" begin="reset.mouseover" end="reset.mouseout"/>
                       </use>
               </g>
        </defs>

<script type="text/javascript">
var viewWidth = 548;
var viewHeight = 340;
var sectionId = 'dynsection-5';
</script>
<script xlink:href="svgpan.js"/>
<svg id="graph" class="graph">
<g id="viewport">
<title>scram::mef::Expression::Sample</title>
<polygon fill="white" stroke="none" points="-4,4 -4,-336 544,-336 544,4 -4,4"/>
<!-- Node1 -->
<g id="node1" class="node"><title>Node1</title>
<polygon fill="#bfbfbf" stroke="black" points="0,-142.5 0,-172.5 121,-172.5 121,-142.5 0,-142.5"/>
<text text-anchor="start" x="8" y="-160.5" font-family="Helvetica,sans-Serif" font-size="10.00">scram::mef::Expression</text>
<text text-anchor="middle" x="60.5" y="-149.5" font-family="Helvetica,sans-Serif" font-size="10.00">::Sample</text>
</g>
<!-- Node2 -->
<g id="node2" class="node"><title>Node2</title>
<g id="a_node2"><a xlink:href="classscram_1_1mef_1_1ExponentialExpression.xhtml#a6340b19d90ee77040e2d06cbfa39ac79" target="_top" xlink:title="scram::mef::ExponentialExpression\l::Mean">
<polygon fill="white" stroke="black" points="157,-301.5 157,-331.5 329,-331.5 329,-301.5 157,-301.5"/>
<text text-anchor="start" x="165" y="-319.5" font-family="Helvetica,sans-Serif" font-size="10.00">scram::mef::ExponentialExpression</text>
<text text-anchor="middle" x="243" y="-308.5" font-family="Helvetica,sans-Serif" font-size="10.00">::Mean</text>
</a>
</g>
</g>
<!-- Node1&#45;&gt;Node2 -->
<g id="edge1" class="edge"><title>Node1&#45;&gt;Node2</title>
<path fill="none" stroke="midnightblue" d="M73.5004,-181.505C89.0451,-210.304 118.745,-258.231 157,-286.5 165.181,-292.545 174.687,-297.455 184.318,-301.415"/>
<polygon fill="midnightblue" stroke="midnightblue" points="76.5317,-179.749 68.7795,-172.528 70.3362,-183.007 76.5317,-179.749"/>
</g>
<!-- Node3 -->
<g id="node3" class="node"><title>Node3</title>
<g id="a_node3"><a xlink:href="classscram_1_1mef_1_1PeriodicTest.xhtml#acd1ec7b252bc43adaf2c473997a54254" target="_top" xlink:title="scram::mef::PeriodicTest::Min">
<polygon fill="white" stroke="black" points="378,-285 378,-304 527,-304 527,-285 378,-285"/>
<text text-anchor="middle" x="452.5" y="-292" font-family="Helvetica,sans-Serif" font-size="10.00">scram::mef::PeriodicTest::Min</text>
</a>
</g>
</g>
<!-- Node1&#45;&gt;Node3 -->
<g id="edge8" class="edge"><title>Node1&#45;&gt;Node3</title>
<path fill="none" stroke="midnightblue" d="M77.6444,-180.951C94.598,-203.558 123.431,-236.735 157,-253.5 194.581,-272.268 303.406,-283.744 377.7,-289.614"/>
<polygon fill="midnightblue" stroke="midnightblue" points="80.4639,-178.877 71.7434,-172.86 74.8084,-183.002 80.4639,-178.877"/>
</g>
<!-- Node4 -->
<g id="node4" class="node"><title>Node4</title>
<g id="a_node4"><a xlink:href="classscram_1_1mef_1_1GlmExpression.xhtml#a8ee502d7486c54d01114f6705998eacb" target="_top" xlink:title="scram::mef::GlmExpression\l::Mean">
<polygon fill="white" stroke="black" points="173.5,-213.5 173.5,-243.5 312.5,-243.5 312.5,-213.5 173.5,-213.5"/>
<text text-anchor="start" x="181.5" y="-231.5" font-family="Helvetica,sans-Serif" font-size="10.00">scram::mef::GlmExpression</text>
<text text-anchor="middle" x="243" y="-220.5" font-family="Helvetica,sans-Serif" font-size="10.00">::Mean</text>
</a>
</g>
</g>
<!-- Node1&#45;&gt;Node4 -->
<g id="edge3" class="edge"><title>Node1&#45;&gt;Node4</title>
<path fill="none" stroke="midnightblue" d="M98.1726,-177.502C115.652,-186.526 137.056,-196.85 157,-204.5 165.447,-207.74 174.515,-210.761 183.47,-213.493"/>
<polygon fill="midnightblue" stroke="midnightblue" points="99.3825,-174.185 88.8997,-172.648 96.1361,-180.387 99.3825,-174.185"/>
</g>
<!-- Node5 -->
<g id="node5" class="node"><title>Node5</title>
<g id="a_node5"><a xlink:href="classscram_1_1mef_1_1WeibullExpression.xhtml#a002a31460e00bb231399dcc1e6d0869d" target="_top" xlink:title="scram::mef::WeibullExpression\l::Mean">
<polygon fill="white" stroke="black" points="166.5,-164.5 166.5,-194.5 319.5,-194.5 319.5,-164.5 166.5,-164.5"/>
<text text-anchor="start" x="174.5" y="-182.5" font-family="Helvetica,sans-Serif" font-size="10.00">scram::mef::WeibullExpression</text>
<text text-anchor="middle" x="243" y="-171.5" font-family="Helvetica,sans-Serif" font-size="10.00">::Mean</text>
</a>
</g>
</g>
<!-- Node1&#45;&gt;Node5 -->
<g id="edge4" class="edge"><title>Node1&#45;&gt;Node5</title>
<path fill="none" stroke="midnightblue" d="M131.107,-165.984C142.655,-167.391 154.678,-168.857 166.366,-170.281"/>
<polygon fill="midnightblue" stroke="midnightblue" points="131.453,-162.5 121.103,-164.765 130.606,-169.449 131.453,-162.5"/>
</g>
<!-- Node6 -->
<g id="node6" class="node"><title>Node6</title>
<g id="a_node6"><a xlink:href="classscram_1_1mef_1_1Neg.xhtml#a7da67dab2e2355c05a5d1726852a03b1" target="_top" xlink:title="scram::mef::Neg::Min">
<polygon fill="white" stroke="black" points="187,-126 187,-145 299,-145 299,-126 187,-126"/>
<text text-anchor="middle" x="243" y="-133" font-family="Helvetica,sans-Serif" font-size="10.00">scram::mef::Neg::Min</text>
</a>
</g>
</g>
<!-- Node1&#45;&gt;Node6 -->
<g id="edge5" class="edge"><title>Node1&#45;&gt;Node6</title>
<path fill="none" stroke="midnightblue" d="M131.184,-149.007C149.592,-146.763 169.205,-144.373 186.735,-142.236"/>
<polygon fill="midnightblue" stroke="midnightblue" points="130.606,-145.551 121.103,-150.235 131.453,-152.5 130.606,-145.551"/>
</g>
<!-- Node7 -->
<g id="node7" class="node"><title>Node7</title>
<g id="a_node7"><a xlink:href="classscram_1_1mef_1_1Add.xhtml#aa2b2101f0f40604e342f9f7477fdef87" target="_top" xlink:title="scram::mef::Add::Min">
<polygon fill="white" stroke="black" points="187.5,-88 187.5,-107 298.5,-107 298.5,-88 187.5,-88"/>
<text text-anchor="middle" x="243" y="-95" font-family="Helvetica,sans-Serif" font-size="10.00">scram::mef::Add::Min</text>
</a>
</g>
</g>
<!-- Node1&#45;&gt;Node7 -->
<g id="edge6" class="edge"><title>Node1&#45;&gt;Node7</title>
<path fill="none" stroke="midnightblue" d="M102.227,-138.037C118.933,-130.577 138.63,-122.44 157,-116.5 168.222,-112.871 180.497,-109.69 192.141,-107.021"/>
<polygon fill="midnightblue" stroke="midnightblue" points="100.428,-135.009 92.7686,-142.329 103.321,-141.383 100.428,-135.009"/>
</g>
<!-- Node8 -->
<g id="node8" class="node"><title>Node8</title>
<g id="a_node8"><a xlink:href="classscram_1_1mef_1_1Sub.xhtml#a9f22864663589361efd64b28768d82d0" target="_top" xlink:title="scram::mef::Sub::Min">
<polygon fill="white" stroke="black" points="187.5,-50 187.5,-69 298.5,-69 298.5,-50 187.5,-50"/>
<text text-anchor="middle" x="243" y="-57" font-family="Helvetica,sans-Serif" font-size="10.00">scram::mef::Sub::Min</text>
</a>
</g>
</g>
<!-- Node1&#45;&gt;Node8 -->
<g id="edge7" class="edge"><title>Node1&#45;&gt;Node8</title>
<path fill="none" stroke="midnightblue" d="M82.6058,-134.935C100.673,-116.971 128.256,-92.5809 157,-78.5 166.37,-73.91 176.864,-70.414 187.195,-67.7557"/>
<polygon fill="midnightblue" stroke="midnightblue" points="79.9857,-132.608 75.4698,-142.192 84.9769,-137.516 79.9857,-132.608"/>
</g>
<!-- Node9 -->
<g id="node9" class="node"><title>Node9</title>
<g id="a_node9"><a xlink:href="classscram_1_1mef_1_1Expression.xhtml#af3e09d926b52f6077aa85c26454c4e18" target="_top" xlink:title="Validates the expression. ">
<polygon fill="white" stroke="black" points="182.5,-0.5 182.5,-30.5 303.5,-30.5 303.5,-0.5 182.5,-0.5"/>
<text text-anchor="start" x="190.5" y="-18.5" font-family="Helvetica,sans-Serif" font-size="10.00">scram::mef::Expression</text>
<text text-anchor="middle" x="243" y="-7.5" font-family="Helvetica,sans-Serif" font-size="10.00">::Validate</text>
</a>
</g>
</g>
<!-- Node1&#45;&gt;Node9 -->
<g id="edge9" class="edge"><title>Node1&#45;&gt;Node9</title>
<path fill="none" stroke="midnightblue" d="M74.795,-133.824C90.8977,-107.272 120.461,-64.7613 157,-40.5 164.689,-35.3949 173.442,-31.3095 182.34,-28.0463"/>
<polygon fill="midnightblue" stroke="midnightblue" points="71.7458,-132.104 69.6712,-142.494 77.7721,-135.665 71.7458,-132.104"/>
</g>
<!-- Node2&#45;&gt;Node3 -->
<g id="edge2" class="edge"><title>Node2&#45;&gt;Node3</title>
<path fill="none" stroke="midnightblue" d="M339.549,-306.37C352.397,-305.007 365.414,-303.627 377.805,-302.313"/>
<polygon fill="midnightblue" stroke="midnightblue" points="338.872,-302.922 329.296,-307.457 339.61,-309.883 338.872,-302.922"/>
</g>
<!-- Node10 -->
<g id="node10" class="node"><title>Node10</title>
<g id="a_node10"><a xlink:href="classscram_1_1mef_1_1LogNormalDeviate.xhtml#a8a2aea0e0923e04e58ec1c48cc695a05" target="_top" xlink:title="scram::mef::LogNormalDeviate::Min">
<polygon fill="white" stroke="black" points="365,-6 365,-25 540,-25 540,-6 365,-6"/>
<text text-anchor="middle" x="452.5" y="-13" font-family="Helvetica,sans-Serif" font-size="10.00">scram::mef::LogNormalDeviate::Min</text>
</a>
</g>
</g>
<!-- Node9&#45;&gt;Node10 -->
<g id="edge10" class="edge"><title>Node9&#45;&gt;Node10</title>
<path fill="none" stroke="midnightblue" d="M313.753,-15.5C330.126,-15.5 347.77,-15.5 364.785,-15.5"/>
<polygon fill="midnightblue" stroke="midnightblue" points="313.739,-12.0001 303.739,-15.5 313.739,-19.0001 313.739,-12.0001"/>
</g>
</g>
</svg>
        <g id="navigator" transform="translate(0 0)" fill="#404254">
                <rect fill="#f2f5e9" fill-opacity="0.5" stroke="#606060" stroke-width=".5" x="0" y="0" width="60" height="60"/>
                <use id="zoomplus" xlink:href="#zoomPlus" x="17" y="9" onmousedown="handleZoom(evt,'in')"/>
                <use id="zoomminus" xlink:href="#zoomMin" x="42" y="9" onmousedown="handleZoom(evt,'out')"/>
                <use id="reset" xlink:href="#resetDef" x="30" y="36" onmousedown="handleReset()"/>
                <g id="arrowUp" xlink:href="#dirArrow" transform="translate(30 24)" onmousedown="handlePan(0,-1)">
                  <use xlink:href="#rim" fill="#404040">
                        <set attributeName="fill" to="#808080" begin="arrowUp.mouseover" end="arrowUp.mouseout"/>
                  </use>
                  <path fill="none" stroke="white" stroke-width="1.5" d="M0,-3.0v7 M-2.5,-0.5L0,-3.0L2.5,-0.5"/>
                </g>
                <g id="arrowRight" xlink:href="#dirArrow" transform="rotate(90) translate(36 -43)" onmousedown="handlePan(1,0)">
                  <use xlink:href="#rim" fill="#404040">
                        <set attributeName="fill" to="#808080" begin="arrowRight.mouseover" end="arrowRight.mouseout"/>
                  </use>
                  <path fill="none" stroke="white" stroke-width="1.5" d="M0,-3.0v7 M-2.5,-0.5L0,-3.0L2.5,-0.5"/>
                </g>
                <g id="arrowDown" xlink:href="#dirArrow" transform="rotate(180) translate(-30 -48)" onmousedown="handlePan(0,1)">
                  <use xlink:href="#rim" fill="#404040">
                        <set attributeName="fill" to="#808080" begin="arrowDown.mouseover" end="arrowDown.mouseout"/>
                  </use>
                  <path fill="none" stroke="white" stroke-width="1.5" d="M0,-3.0v7 M-2.5,-0.5L0,-3.0L2.5,-0.5"/>
                </g>
                <g id="arrowLeft" xlink:href="#dirArrow" transform="rotate(270) translate(-36 17)" onmousedown="handlePan(-1,0)">
                  <use xlink:href="#rim" fill="#404040">
                        <set attributeName="fill" to="#808080" begin="arrowLeft.mouseover" end="arrowLeft.mouseout"/>
                  </use>
                  <path fill="none" stroke="white" stroke-width="1.5" d="M0,-3.0v7 M-2.5,-0.5L0,-3.0L2.5,-0.5"/>
                </g>
        </g>
        <svg viewBox="0 0 15 15" width="100%" height="30px" preserveAspectRatio="xMaxYMin meet">
         <g id="arrow_out" transform="scale(0.3 0.3)">
          <a xlink:href="classscram_1_1mef_1_1Expression_a5cf00d8b2ff843ad029a501a89ee572a_icgraph_org.svg" target="_base">
           <rect id="button" ry="5" rx="5" y="6" x="6" height="38" width="38"
                fill="#f2f5e9" fill-opacity="0.5" stroke="#606060" stroke-width="1.0"/>
           <path id="arrow"
             d="M 11.500037,31.436501 C 11.940474,20.09759 22.043105,11.32322 32.158766,21.979434 L 37.068811,17.246167 C 37.068811,17.246167 37.088388,32 37.088388,32 L 22.160133,31.978069 C 22.160133,31.978069 26.997745,27.140456 26.997745,27.140456 C 18.528582,18.264221 13.291696,25.230495 11.500037,31.436501 z"
             style="fill:#404040;"/>
          </a>
         </g>
        </svg>
</svg>
