<?xml version="1.0" encoding="UTF-8" standalone="no"?>
<!DOCTYPE svg PUBLIC "-//W3C//DTD SVG 1.1//EN"
 "http://www.w3.org/Graphics/SVG/1.1/DTD/svg11.dtd">
<!-- Generated by graphviz version 2.38.0 (20140413.2041)
 -->
<!-- Title: scram::core::Zbdd::Zbdd Pages: 1 -->
<!--zoomable 1016 -->
<svg id="main" version="1.1" xmlns="http://www.w3.org/2000/svg" xmlns:xlink="http://www.w3.org/1999/xlink" xml:space="preserve" onload="init(evt)">
<style type="text/css"><![CDATA[
.edge:hover path { stroke: red; }
.edge:hover polygon { stroke: red; fill: red; }
]]></style>
<script type="text/javascript"><![CDATA[
var edges = document.getElementsByTagName('g');
if (edges && edges.length) {
  for (var i=0;i<edges.length;i++) {
    if (edges[i].id.substr(0,4)=='edge') {
      edges[i].setAttribute('class','edge');
    }
  }
}
]]></script>
        <defs>
                <circle id="rim" cx="0" cy="0" r="7"/>
                <circle id="rim2" cx="0" cy="0" r="3.5"/>
                <g id="zoomPlus">
                        <use xlink:href="#rim" fill="#404040">
                                <set attributeName="fill" to="#808080" begin="zoomplus.mouseover" end="zoomplus.mouseout"/>
                        </use>
                        <path d="M-4,0h8M0,-4v8" fill="none" stroke="white" stroke-width="1.5" pointer-events="none"/>
                </g>
                <g id="zoomMin">
                        <use xlink:href="#rim" fill="#404040">
                                <set attributeName="fill" to="#808080" begin="zoomminus.mouseover" end="zoomminus.mouseout"/>
                        </use>
                        <path d="M-4,0h8" fill="none" stroke="white" stroke-width="1.5" pointer-events="none"/>
                </g>
                <g id="dirArrow">
                        <path fill="none" stroke="white" stroke-width="1.5" d="M0,-3.0v7 M-2.5,-0.5L0,-3.0L2.5,-0.5"/>
                </g>
               <g id="resetDef">
                       <use xlink:href="#rim2" fill="#404040">
                               <set attributeName="fill" to="#808080" begin="reset.mouseover" end="reset.mouseout"/>
                       </use>
               </g>
        </defs>

<script type="text/javascript">
var viewWidth = 795;
var viewHeight = 1016;
var sectionId = 'dynsection-3';
</script>
<script xlink:href="svgpan.js"/>
<svg id="graph" class="graph">
<g id="viewport">
<title>scram::core::Zbdd::Zbdd</title>
<polygon fill="white" stroke="none" points="-4,4 -4,-1011.86 791,-1011.86 791,4 -4,4"/>
<!-- Node1 -->
<g id="node1" class="node"><title>Node1</title>
<polygon fill="#bfbfbf" stroke="black" points="0,-530.863 0,-549.863 124,-549.863 124,-530.863 0,-530.863"/>
<text text-anchor="middle" x="62" y="-537.863" font-family="Helvetica,sans-Serif" font-size="10.00">scram::core::Zbdd::Zbdd</text>
</g>
<!-- Node2 -->
<g id="node2" class="node"><title>Node2</title>
<g id="a_node2"><a xlink:href="classscram_1_1core_1_1Gate.xhtml#a0d070ec20569129162398c73165f65bc" target="_top" xlink:title="scram::core::Gate::\lcoherent">
<polygon fill="white" stroke="black" points="176.5,-977.363 176.5,-1007.36 277.5,-1007.36 277.5,-977.363 176.5,-977.363"/>
<text text-anchor="start" x="184.5" y="-995.363" font-family="Helvetica,sans-Serif" font-size="10.00">scram::core::Gate::</text>
<text text-anchor="middle" x="227" y="-984.363" font-family="Helvetica,sans-Serif" font-size="10.00">coherent</text>
</a>
</g>
</g>
<!-- Node1&#45;&gt;Node2 -->
<g id="edge1" class="edge"><title>Node1&#45;&gt;Node2</title>
<path fill="none" stroke="midnightblue" d="M63.9298,-549.922C69.6556,-606.981 101.813,-902.347 160,-968.363 162.328,-971.004 164.97,-973.355 167.827,-975.447"/>
<polygon fill="midnightblue" stroke="midnightblue" points="166.006,-978.436 176.359,-980.685 169.668,-972.47 166.006,-978.436"/>
</g>
<!-- Node3 -->
<g id="node3" class="node"><title>Node3</title>
<g id="a_node3"><a xlink:href="classscram_1_1core_1_1Gate.xhtml#ab2a4e8ac78b36541a32cc719863910a5" target="_top" xlink:title="scram::core::Gate::\lconstant">
<polygon fill="white" stroke="black" points="176.5,-928.363 176.5,-958.363 277.5,-958.363 277.5,-928.363 176.5,-928.363"/>
<text text-anchor="start" x="184.5" y="-946.363" font-family="Helvetica,sans-Serif" font-size="10.00">scram::core::Gate::</text>
<text text-anchor="middle" x="227" y="-935.363" font-family="Helvetica,sans-Serif" font-size="10.00">constant</text>
</a>
</g>
</g>
<!-- Node1&#45;&gt;Node3 -->
<g id="edge2" class="edge"><title>Node1&#45;&gt;Node3</title>
<path fill="none" stroke="midnightblue" d="M62.6668,-550.068C61.5944,-596.433 62.8795,-797.892 160,-913.363 162.951,-916.871 166.398,-919.988 170.14,-922.755"/>
<polygon fill="midnightblue" stroke="midnightblue" points="168.421,-925.81 178.727,-928.267 172.202,-919.919 168.421,-925.81"/>
</g>
<!-- Node4 -->
<g id="node4" class="node"><title>Node4</title>
<g id="a_node4"><a xlink:href="classscram_1_1core_1_1Zbdd.xhtml#ac3ac27090b550d973b20bd971c3de9f9" target="_top" xlink:title="Removes complements of variables from products. ">
<polygon fill="white" stroke="black" points="168,-695.363 168,-725.363 286,-725.363 286,-695.363 168,-695.363"/>
<text text-anchor="start" x="176" y="-713.363" font-family="Helvetica,sans-Serif" font-size="10.00">scram::core::Zbdd::</text>
<text text-anchor="middle" x="227" y="-702.363" font-family="Helvetica,sans-Serif" font-size="10.00">EliminateComplements</text>
</a>
</g>
</g>
<!-- Node1&#45;&gt;Node4 -->
<g id="edge3" class="edge"><title>Node1&#45;&gt;Node4</title>
<path fill="none" stroke="midnightblue" d="M68.5062,-550.171C81.8411,-573.289 117.891,-632.121 160,-670.363 168.043,-677.667 177.612,-684.357 186.934,-690.089"/>
<polygon fill="midnightblue" stroke="midnightblue" points="185.346,-693.216 195.737,-695.28 188.901,-687.186 185.346,-693.216"/>
</g>
<!-- Node6 -->
<g id="node6" class="node"><title>Node6</title>
<g id="a_node6"><a xlink:href="structscram_1_1core_1_1IntrusivePtrCast.xhtml#af153c12dc6133b7d9f9b7a57bba29f1d" target="_top" xlink:title="scram::core::IntrusivePtr\lCast\&lt; SetNode \&gt;::Ref">
<polygon fill="white" stroke="black" points="662,-591.363 662,-621.363 787,-621.363 787,-591.363 662,-591.363"/>
<text text-anchor="start" x="670" y="-609.363" font-family="Helvetica,sans-Serif" font-size="10.00">scram::core::IntrusivePtr</text>
<text text-anchor="middle" x="724.5" y="-598.363" font-family="Helvetica,sans-Serif" font-size="10.00">Cast&lt; SetNode &gt;::Ref</text>
</a>
</g>
</g>
<!-- Node1&#45;&gt;Node6 -->
<g id="edge59" class="edge"><title>Node1&#45;&gt;Node6</title>
<path fill="none" stroke="midnightblue" d="M63.1882,-550.022C64.5152,-590.552 75.1457,-748.57 160,-830.363 216.702,-885.019 252.048,-869.137 330,-880.363 460.605,-899.171 522.972,-939.804 626,-857.363 661.579,-828.893 645.596,-803.876 662,-761.363 679.79,-715.256 701.2,-661.72 713.492,-631.163"/>
<polygon fill="midnightblue" stroke="midnightblue" points="716.804,-632.309 717.293,-621.725 710.311,-629.694 716.804,-632.309"/>
</g>
<!-- Node8 -->
<g id="node8" class="node"><title>Node8</title>
<g id="a_node8"><a xlink:href="classscram_1_1core_1_1Settings.xhtml#a0e43ec0f017d23a4fa4e376c4060d380" target="_top" xlink:title="scram::core::Settings\l::limit_order">
<polygon fill="white" stroke="black" points="340,-676.363 340,-706.363 450,-706.363 450,-676.363 340,-676.363"/>
<text text-anchor="start" x="348" y="-694.363" font-family="Helvetica,sans-Serif" font-size="10.00">scram::core::Settings</text>
<text text-anchor="middle" x="395" y="-683.363" font-family="Helvetica,sans-Serif" font-size="10.00">::limit_order</text>
</a>
</g>
</g>
<!-- Node1&#45;&gt;Node8 -->
<g id="edge52" class="edge"><title>Node1&#45;&gt;Node8</title>
<path fill="none" stroke="midnightblue" d="M70.7347,-549.906C85.9116,-567.993 121.486,-607.328 160,-628.363 213.259,-657.451 280.788,-673.76 329.598,-682.457"/>
<polygon fill="midnightblue" stroke="midnightblue" points="329.269,-685.952 339.718,-684.199 330.457,-679.053 329.269,-685.952"/>
</g>
<!-- Node9 -->
<g id="node9" class="node"><title>Node9</title>
<g id="a_node9"><a xlink:href="classscram_1_1core_1_1Zbdd.xhtml#a3dbb8ef5da2882daf6c39e9724eae459" target="_top" xlink:title="Removes subsets in ZBDD. ">
<polygon fill="white" stroke="black" points="344,-550.363 344,-580.363 446,-580.363 446,-550.363 344,-550.363"/>
<text text-anchor="start" x="352" y="-568.363" font-family="Helvetica,sans-Serif" font-size="10.00">scram::core::Zbdd::</text>
<text text-anchor="middle" x="395" y="-557.363" font-family="Helvetica,sans-Serif" font-size="10.00">Minimize</text>
</a>
</g>
</g>
<!-- Node1&#45;&gt;Node9 -->
<g id="edge55" class="edge"><title>Node1&#45;&gt;Node9</title>
<path fill="none" stroke="midnightblue" d="M124.096,-544.977C183.869,-549.492 274.352,-556.326 333.812,-560.817"/>
<polygon fill="midnightblue" stroke="midnightblue" points="333.573,-564.309 343.808,-561.572 334.1,-557.329 333.573,-564.309"/>
</g>
<!-- Node11 -->
<g id="node11" class="node"><title>Node11</title>
<g id="a_node11"><a xlink:href="classscram_1_1core_1_1SetNode.xhtml#a88d05af2b9f4f08b7bc66a31c2b9e249" target="_top" xlink:title="scram::core::SetNode\l::minimal">
<polygon fill="white" stroke="black" points="504.5,-734.363 504.5,-764.363 617.5,-764.363 617.5,-734.363 504.5,-734.363"/>
<text text-anchor="start" x="512.5" y="-752.363" font-family="Helvetica,sans-Serif" font-size="10.00">scram::core::SetNode</text>
<text text-anchor="middle" x="561" y="-741.363" font-family="Helvetica,sans-Serif" font-size="10.00">::minimal</text>
</a>
</g>
</g>
<!-- Node1&#45;&gt;Node11 -->
<g id="edge54" class="edge"><title>Node1&#45;&gt;Node11</title>
<path fill="none" stroke="midnightblue" d="M64.3351,-549.919C69.4857,-582.722 91.3322,-691.146 160,-735.363 261.614,-800.795 409.793,-783.779 494.358,-766.143"/>
<polygon fill="midnightblue" stroke="midnightblue" points="495.307,-769.519 504.348,-763.995 493.836,-762.676 495.307,-769.519"/>
</g>
<!-- Node14 -->
<g id="node14" class="node"><title>Node14</title>
<g id="a_node14"><a xlink:href="classscram_1_1core_1_1Settings.xhtml#ae64f362fceb44402e101140dfc1725ba" target="_top" xlink:title="scram::core::Settings\l::prime_implicants">
<polygon fill="white" stroke="black" points="506,-512.363 506,-542.363 616,-542.363 616,-512.363 506,-512.363"/>
<text text-anchor="start" x="514" y="-530.363" font-family="Helvetica,sans-Serif" font-size="10.00">scram::core::Settings</text>
<text text-anchor="middle" x="561" y="-519.363" font-family="Helvetica,sans-Serif" font-size="10.00">::prime_implicants</text>
</a>
</g>
</g>
<!-- Node1&#45;&gt;Node14 -->
<g id="edge58" class="edge"><title>Node1&#45;&gt;Node14</title>
<path fill="none" stroke="midnightblue" d="M124.191,-538.762C218.694,-536.29 399.289,-531.567 495.663,-529.046"/>
<polygon fill="midnightblue" stroke="midnightblue" points="495.949,-532.54 505.854,-528.779 495.766,-525.542 495.949,-532.54"/>
</g>
<!-- Node18 -->
<g id="node18" class="node"><title>Node18</title>
<g id="a_node18"><a xlink:href="classscram_1_1core_1_1Zbdd.xhtml#aeb83fd37f2aee74ac41e6ccadba82d39" target="_top" xlink:title="Removes constant modules from products. ">
<polygon fill="white" stroke="black" points="160,-588.363 160,-618.363 294,-618.363 294,-588.363 160,-588.363"/>
<text text-anchor="start" x="168" y="-606.363" font-family="Helvetica,sans-Serif" font-size="10.00">scram::core::Zbdd::</text>
<text text-anchor="middle" x="227" y="-595.363" font-family="Helvetica,sans-Serif" font-size="10.00">EliminateConstantModules</text>
</a>
</g>
</g>
<!-- Node1&#45;&gt;Node18 -->
<g id="edge22" class="edge"><title>Node1&#45;&gt;Node18</title>
<path fill="none" stroke="midnightblue" d="M87.7562,-549.931C111.441,-559.085 147.817,-573.145 177.312,-584.545"/>
<polygon fill="midnightblue" stroke="midnightblue" points="176.433,-587.957 187.022,-588.298 178.956,-581.428 176.433,-587.957"/>
</g>
<!-- Node19 -->
<g id="node19" class="node"><title>Node19</title>
<g id="a_node19"><a xlink:href="classscram_1_1core_1_1Zbdd.xhtml#a516f0d2f35ad213399f83fb9ab102561" target="_top" xlink:title="Traverses ZBDD to find modules and adjusted cut&#45;offs. ">
<polygon fill="white" stroke="black" points="176,-459.363 176,-489.363 278,-489.363 278,-459.363 176,-459.363"/>
<text text-anchor="start" x="184" y="-477.363" font-family="Helvetica,sans-Serif" font-size="10.00">scram::core::Zbdd::</text>
<text text-anchor="middle" x="227" y="-466.363" font-family="Helvetica,sans-Serif" font-size="10.00">GatherModules</text>
</a>
</g>
</g>
<!-- Node1&#45;&gt;Node19 -->
<g id="edge27" class="edge"><title>Node1&#45;&gt;Node19</title>
<path fill="none" stroke="midnightblue" d="M86.7016,-530.766C110.843,-520.991 148.923,-505.572 179.172,-493.324"/>
<polygon fill="midnightblue" stroke="midnightblue" points="180.735,-496.467 188.69,-489.47 178.107,-489.979 180.735,-496.467"/>
</g>
<!-- Node26 -->
<g id="node26" class="node"><title>Node26</title>
<g id="a_node26"><a xlink:href="classscram_1_1core_1_1Node.xhtml#a62121e217b0da73112af7e07275f2c15" target="_top" xlink:title="scram::core::Node::\lindex">
<polygon fill="white" stroke="black" points="175,-410.363 175,-440.363 279,-440.363 279,-410.363 175,-410.363"/>
<text text-anchor="start" x="183" y="-428.363" font-family="Helvetica,sans-Serif" font-size="10.00">scram::core::Node::</text>
<text text-anchor="middle" x="227" y="-417.363" font-family="Helvetica,sans-Serif" font-size="10.00">index</text>
</a>
</g>
</g>
<!-- Node1&#45;&gt;Node26 -->
<g id="edge48" class="edge"><title>Node1&#45;&gt;Node26</title>
<path fill="none" stroke="midnightblue" d="M71.1276,-530.658C86.6945,-512.61 122.514,-473.606 160,-450.363 163.303,-448.315 166.801,-446.391 170.394,-444.591"/>
<polygon fill="midnightblue" stroke="midnightblue" points="171.874,-447.762 179.467,-440.374 168.924,-441.415 171.874,-447.762"/>
</g>
<!-- Node27 -->
<g id="node27" class="node"><title>Node27</title>
<g id="a_node27"><a xlink:href="classscram_1_1core_1_1Zbdd.xhtml#a4ecbf60e6ac51e5260e8d8139c1b8599" target="_top" xlink:title="Joins a ZBDD representing a module gate. ">
<polygon fill="white" stroke="black" points="344,-840.363 344,-870.363 446,-870.363 446,-840.363 344,-840.363"/>
<text text-anchor="start" x="352" y="-858.363" font-family="Helvetica,sans-Serif" font-size="10.00">scram::core::Zbdd::</text>
<text text-anchor="middle" x="395" y="-847.363" font-family="Helvetica,sans-Serif" font-size="10.00">JoinModule</text>
</a>
</g>
</g>
<!-- Node1&#45;&gt;Node27 -->
<g id="edge49" class="edge"><title>Node1&#45;&gt;Node27</title>
<path fill="none" stroke="midnightblue" d="M63.8226,-550.088C67.4698,-586.943 85.4728,-719.354 160,-787.363 207.754,-830.94 281.875,-846.722 333.87,-852.365"/>
<polygon fill="midnightblue" stroke="midnightblue" points="333.663,-855.862 343.959,-853.364 334.353,-848.896 333.663,-855.862"/>
</g>
<!-- Node28 -->
<g id="node28" class="node"><title>Node28</title>
<g id="a_node28"><a xlink:href="classscram_1_1core_1_1Zbdd.xhtml#ae819f5439416479971018ac134233091" target="_top" xlink:title="Logs properties of the Zbdd. ">
<polygon fill="white" stroke="black" points="168,-371.863 168,-390.863 286,-390.863 286,-371.863 168,-371.863"/>
<text text-anchor="middle" x="227" y="-378.863" font-family="Helvetica,sans-Serif" font-size="10.00">scram::core::Zbdd::Log</text>
</a>
</g>
</g>
<!-- Node1&#45;&gt;Node28 -->
<g id="edge53" class="edge"><title>Node1&#45;&gt;Node28</title>
<path fill="none" stroke="midnightblue" d="M67.0411,-530.602C78.0271,-505.278 110.942,-436.973 160,-401.363 163.379,-398.91 167.063,-396.754 170.904,-394.86"/>
<polygon fill="midnightblue" stroke="midnightblue" points="172.292,-398.074 180.088,-390.899 169.52,-391.646 172.292,-398.074"/>
</g>
<!-- Node29 -->
<g id="node29" class="node"><title>Node29</title>
<g id="a_node29"><a xlink:href="classscram_1_1core_1_1Gate.xhtml#a93fa477d60140843c4abae7de52fffa1" target="_top" xlink:title="scram::core::Gate::\lmodule">
<polygon fill="white" stroke="black" points="176.5,-322.363 176.5,-352.363 277.5,-352.363 277.5,-322.363 176.5,-322.363"/>
<text text-anchor="start" x="184.5" y="-340.363" font-family="Helvetica,sans-Serif" font-size="10.00">scram::core::Gate::</text>
<text text-anchor="middle" x="227" y="-329.363" font-family="Helvetica,sans-Serif" font-size="10.00">module</text>
</a>
</g>
</g>
<!-- Node1&#45;&gt;Node29 -->
<g id="edge56" class="edge"><title>Node1&#45;&gt;Node29</title>
<path fill="none" stroke="midnightblue" d="M65.6272,-530.74C74.1453,-501.286 103.759,-411.389 160,-362.363 162.326,-360.335 164.834,-358.464 167.464,-356.739"/>
<polygon fill="midnightblue" stroke="midnightblue" points="169.286,-359.729 176.213,-351.712 165.798,-353.66 169.286,-359.729"/>
</g>
<!-- Node30 -->
<g id="node30" class="node"><title>Node30</title>
<g id="a_node30"><a xlink:href="classscram_1_1core_1_1Bdd.xhtml#a084e72279927831ec728a1542861dfec" target="_top" xlink:title="scram::core::Bdd::modules">
<polygon fill="white" stroke="black" points="160,-283.863 160,-302.863 294,-302.863 294,-283.863 160,-283.863"/>
<text text-anchor="middle" x="227" y="-290.863" font-family="Helvetica,sans-Serif" font-size="10.00">scram::core::Bdd::modules</text>
</a>
</g>
</g>
<!-- Node1&#45;&gt;Node30 -->
<g id="edge57" class="edge"><title>Node1&#45;&gt;Node30</title>
<path fill="none" stroke="midnightblue" d="M64.2006,-530.408C69.0043,-495.034 90.095,-374.224 160,-312.363 161.778,-310.79 163.678,-309.347 165.671,-308.023"/>
<polygon fill="midnightblue" stroke="midnightblue" points="167.831,-310.829 174.911,-302.946 164.461,-304.694 167.831,-310.829"/>
</g>
<!-- Node31 -->
<g id="node31" class="node"><title>Node31</title>
<g id="a_node31"><a xlink:href="classscram_1_1core_1_1Zbdd.xhtml#ab71281cd644eb442dd2d3ee1c5df56c4" target="_top" xlink:title="scram::core::Zbdd::\lsettings">
<polygon fill="white" stroke="black" points="176,-234.363 176,-264.363 278,-264.363 278,-234.363 176,-234.363"/>
<text text-anchor="start" x="184" y="-252.363" font-family="Helvetica,sans-Serif" font-size="10.00">scram::core::Zbdd::</text>
<text text-anchor="middle" x="227" y="-241.363" font-family="Helvetica,sans-Serif" font-size="10.00">settings</text>
</a>
</g>
</g>
<!-- Node1&#45;&gt;Node31 -->
<g id="edge60" class="edge"><title>Node1&#45;&gt;Node31</title>
<path fill="none" stroke="midnightblue" d="M63.7068,-530.626C66.9904,-492.45 84.0084,-351.304 160,-274.363 162.139,-272.197 164.485,-270.216 166.976,-268.405"/>
<polygon fill="midnightblue" stroke="midnightblue" points="169.256,-271.11 175.924,-262.876 165.577,-265.155 169.256,-271.11"/>
</g>
<!-- Node32 -->
<g id="node32" class="node"><title>Node32</title>
<g id="a_node32"><a xlink:href="classscram_1_1core_1_1Gate.xhtml#ad5a5766ce9dbbd2104c0bb07b9639a48" target="_top" xlink:title="scram::core::Gate::type">
<polygon fill="white" stroke="black" points="167,-195.863 167,-214.863 287,-214.863 287,-195.863 167,-195.863"/>
<text text-anchor="middle" x="227" y="-202.863" font-family="Helvetica,sans-Serif" font-size="10.00">scram::core::Gate::type</text>
</a>
</g>
</g>
<!-- Node1&#45;&gt;Node32 -->
<g id="edge61" class="edge"><title>Node1&#45;&gt;Node32</title>
<path fill="none" stroke="midnightblue" d="M62.8697,-530.724C62.8367,-488.047 68.514,-314.259 160,-224.363 161.467,-222.921 163.036,-221.588 164.687,-220.354"/>
<polygon fill="midnightblue" stroke="midnightblue" points="166.797,-223.167 173.525,-214.982 163.162,-217.185 166.797,-223.167"/>
</g>
<!-- Node33 -->
<g id="node33" class="node"><title>Node33</title>
<g id="a_node33"><a xlink:href="classscram_1_1core_1_1Zbdd.xhtml#a7dd59951e7bc8fd08c75feb44bc496e2" target="_top" xlink:title="Converts Reduced Ordered BDD into Zero&#45;Suppressed BDD. ">
<polygon fill="white" stroke="black" points="165,-157.863 165,-176.863 289,-176.863 289,-157.863 165,-157.863"/>
<text text-anchor="middle" x="227" y="-164.863" font-family="Helvetica,sans-Serif" font-size="10.00">scram::core::Zbdd::Zbdd</text>
</a>
</g>
</g>
<!-- Node1&#45;&gt;Node33 -->
<g id="edge62" class="edge"><title>Node1&#45;&gt;Node33</title>
<path fill="none" stroke="midnightblue" d="M62.5035,-530.84C60.6809,-485.403 59.0458,-288.623 160,-186.363 161.445,-184.899 162.995,-183.546 164.629,-182.296"/>
<polygon fill="midnightblue" stroke="midnightblue" points="166.746,-185.103 173.406,-176.863 163.061,-179.151 166.746,-185.103"/>
</g>
<!-- Node5 -->
<g id="node5" class="node"><title>Node5</title>
<g id="a_node5"><a xlink:href="structscram_1_1core_1_1IntrusivePtrCast.xhtml#adc53e5b89cace18e05bac95316da7d91" target="_top" xlink:title="scram::core::IntrusivePtr\lCast\&lt; SetNode \&gt;::Ptr">
<polygon fill="white" stroke="black" points="498.5,-667.363 498.5,-697.363 623.5,-697.363 623.5,-667.363 498.5,-667.363"/>
<text text-anchor="start" x="506.5" y="-685.363" font-family="Helvetica,sans-Serif" font-size="10.00">scram::core::IntrusivePtr</text>
<text text-anchor="middle" x="561" y="-674.363" font-family="Helvetica,sans-Serif" font-size="10.00">Cast&lt; SetNode &gt;::Ptr</text>
</a>
</g>
</g>
<!-- Node4&#45;&gt;Node5 -->
<g id="edge4" class="edge"><title>Node4&#45;&gt;Node5</title>
<path fill="none" stroke="midnightblue" d="M286.1,-717.907C333.281,-722.589 401.367,-726.058 460,-716.363 478.602,-713.287 498.393,-707.197 515.417,-701.011"/>
<polygon fill="midnightblue" stroke="midnightblue" points="516.959,-704.17 525.091,-697.379 514.498,-697.617 516.959,-704.17"/>
</g>
<!-- Node4&#45;&gt;Node6 -->
<g id="edge5" class="edge"><title>Node4&#45;&gt;Node6</title>
<path fill="none" stroke="midnightblue" d="M254.291,-725.495C321.245,-761.849 501.672,-845.957 626,-774.363 679.692,-743.445 706.535,-670.374 717.413,-631.58"/>
<polygon fill="midnightblue" stroke="midnightblue" points="720.876,-632.174 720.066,-621.611 714.112,-630.374 720.876,-632.174"/>
</g>
<!-- Node7 -->
<g id="node7" class="node"><title>Node7</title>
<g id="a_node7"><a xlink:href="classscram_1_1core_1_1SetNode.xhtml#a2d7f99792b82961df2e5ecfcd735bb5f" target="_top" xlink:title="scram::core::SetNode\l::max_set_order">
<polygon fill="white" stroke="black" points="668,-770.363 668,-800.363 781,-800.363 781,-770.363 668,-770.363"/>
<text text-anchor="start" x="676" y="-788.363" font-family="Helvetica,sans-Serif" font-size="10.00">scram::core::SetNode</text>
<text text-anchor="middle" x="724.5" y="-777.363" font-family="Helvetica,sans-Serif" font-size="10.00">::max_set_order</text>
</a>
</g>
</g>
<!-- Node4&#45;&gt;Node7 -->
<g id="edge6" class="edge"><title>Node4&#45;&gt;Node7</title>
<path fill="none" stroke="midnightblue" d="M231.694,-725.551C241.11,-760.492 269.648,-846.192 330,-880.363 444.825,-945.376 503.8,-907.148 626,-857.363 654.348,-845.814 681.962,-824.14 700.523,-807.579"/>
<polygon fill="midnightblue" stroke="midnightblue" points="703.124,-809.943 708.141,-800.611 698.4,-804.778 703.124,-809.943"/>
</g>
<!-- Node4&#45;&gt;Node8 -->
<g id="edge7" class="edge"><title>Node4&#45;&gt;Node8</title>
<path fill="none" stroke="midnightblue" d="M286.059,-703.718C300.128,-702.107 315.25,-700.376 329.592,-698.735"/>
<polygon fill="midnightblue" stroke="midnightblue" points="330.334,-702.173 339.871,-697.558 329.538,-695.218 330.334,-702.173"/>
</g>
<!-- Node4&#45;&gt;Node9 -->
<g id="edge8" class="edge"><title>Node4&#45;&gt;Node9</title>
<path fill="none" stroke="midnightblue" d="M245.451,-695.119C275.044,-669.271 335.158,-616.761 369.142,-587.076"/>
<polygon fill="midnightblue" stroke="midnightblue" points="371.554,-589.617 376.783,-580.402 366.949,-584.345 371.554,-589.617"/>
</g>
<!-- Node9&#45;&gt;Node5 -->
<g id="edge9" class="edge"><title>Node9&#45;&gt;Node5</title>
<path fill="none" stroke="midnightblue" d="M437.928,-580.466C445.821,-584.518 453.595,-589.456 460,-595.363 483.706,-617.227 471.443,-637.459 496,-658.363 497.367,-659.526 498.795,-660.636 500.274,-661.694"/>
<polygon fill="midnightblue" stroke="midnightblue" points="498.855,-664.932 509.202,-667.209 502.533,-658.976 498.855,-664.932"/>
</g>
<!-- Node9&#45;&gt;Node6 -->
<g id="edge10" class="edge"><title>Node9&#45;&gt;Node6</title>
<path fill="none" stroke="midnightblue" d="M446.097,-566.612C501.006,-571.434 589.559,-582.296 651.813,-591.694"/>
<polygon fill="midnightblue" stroke="midnightblue" points="651.541,-595.193 661.956,-593.248 652.601,-588.274 651.541,-595.193"/>
</g>
<!-- Node9&#45;&gt;Node6 -->
<g id="edge14" class="edge"><title>Node9&#45;&gt;Node6</title>
<path fill="none" stroke="midnightblue" d="M446.097,-576.657C501.006,-585.583 589.559,-596.893 651.813,-603.083"/>
<polygon fill="midnightblue" stroke="midnightblue" points="651.664,-606.585 661.956,-604.068 652.341,-599.618 651.664,-606.585"/>
</g>
<!-- Node10 -->
<g id="node10" class="node"><title>Node10</title>
<g id="a_node10"><a xlink:href="classscram_1_1core_1_1Zbdd.xhtml#a42af18229ba2e80201bc0fdac07b7091" target="_top" xlink:title="Finds or adds a unique SetNode in the ZBDD. ">
<polygon fill="white" stroke="black" points="510,-618.363 510,-648.363 612,-648.363 612,-618.363 510,-618.363"/>
<text text-anchor="start" x="518" y="-636.363" font-family="Helvetica,sans-Serif" font-size="10.00">scram::core::Zbdd::</text>
<text text-anchor="middle" x="561" y="-625.363" font-family="Helvetica,sans-Serif" font-size="10.00">FindOrAddVertex</text>
</a>
</g>
</g>
<!-- Node9&#45;&gt;Node10 -->
<g id="edge11" class="edge"><title>Node9&#45;&gt;Node10</title>
<path fill="none" stroke="midnightblue" d="M432.397,-580.454C456.496,-590.447 488.3,-603.634 514.127,-614.343"/>
<polygon fill="midnightblue" stroke="midnightblue" points="513.127,-617.717 523.705,-618.314 515.808,-611.25 513.127,-617.717"/>
</g>
<!-- Node9&#45;&gt;Node11 -->
<g id="edge15" class="edge"><title>Node9&#45;&gt;Node11</title>
<path fill="none" stroke="midnightblue" d="M440.917,-580.544C448.01,-584.494 454.73,-589.375 460,-595.363 494.545,-634.612 464.336,-665.755 496,-707.363 502.404,-715.778 511.01,-723.02 519.831,-729.004"/>
<polygon fill="midnightblue" stroke="midnightblue" points="517.966,-731.966 528.288,-734.354 521.708,-726.05 517.966,-731.966"/>
</g>
<!-- Node12 -->
<g id="node12" class="node"><title>Node12</title>
<g id="a_node12"><a xlink:href="classscram_1_1core_1_1Terminal.xhtml#a7a25b0b40498f4876571a5dac4e724c3" target="_top" xlink:title="scram::core::Terminal\l::value">
<polygon fill="white" stroke="black" points="505,-406.363 505,-436.363 617,-436.363 617,-406.363 505,-406.363"/>
<text text-anchor="start" x="513" y="-424.363" font-family="Helvetica,sans-Serif" font-size="10.00">scram::core::Terminal</text>
<text text-anchor="middle" x="561" y="-413.363" font-family="Helvetica,sans-Serif" font-size="10.00">::value</text>
</a>
</g>
</g>
<!-- Node9&#45;&gt;Node12 -->
<g id="edge16" class="edge"><title>Node9&#45;&gt;Node12</title>
<path fill="none" stroke="midnightblue" d="M413.241,-550.225C442.325,-524.688 501.249,-472.949 534.915,-443.389"/>
<polygon fill="midnightblue" stroke="midnightblue" points="537.291,-445.96 542.496,-436.732 532.673,-440.7 537.291,-445.96"/>
</g>
<!-- Node9&#45;&gt;Node14 -->
<g id="edge18" class="edge"><title>Node9&#45;&gt;Node14</title>
<path fill="none" stroke="midnightblue" d="M446.097,-553.755C461.776,-550.122 479.299,-546.062 495.81,-542.236"/>
<polygon fill="midnightblue" stroke="midnightblue" points="496.983,-545.557 505.935,-539.89 495.403,-538.738 496.983,-545.557"/>
</g>
<!-- Node15 -->
<g id="node15" class="node"><title>Node15</title>
<g id="a_node15"><a xlink:href="classscram_1_1core_1_1NonTerminal.xhtml#aeeaafd82ae5890a7ec3462c68ffc8628" target="_top" xlink:title="scram::core::NonTerminal\l::index">
<polygon fill="white" stroke="black" points="496,-286.363 496,-316.363 626,-316.363 626,-286.363 496,-286.363"/>
<text text-anchor="start" x="504" y="-304.363" font-family="Helvetica,sans-Serif" font-size="10.00">scram::core::NonTerminal</text>
<text text-anchor="middle" x="561" y="-293.363" font-family="Helvetica,sans-Serif" font-size="10.00">::index</text>
</a>
</g>
</g>
<!-- Node9&#45;&gt;Node15 -->
<g id="edge19" class="edge"><title>Node9&#45;&gt;Node15</title>
<path fill="none" stroke="midnightblue" d="M404.841,-549.916C421.969,-520.126 461.066,-452.78 496,-397.363 511.769,-372.348 530.633,-344.261 543.779,-324.962"/>
<polygon fill="midnightblue" stroke="midnightblue" points="546.808,-326.733 549.56,-316.502 541.028,-322.784 546.808,-326.733"/>
</g>
<!-- Node16 -->
<g id="node16" class="node"><title>Node16</title>
<g id="a_node16"><a xlink:href="classscram_1_1core_1_1NonTerminal.xhtml#a9230422e92d086c34f67bcb864bfc8a9" target="_top" xlink:title="scram::core::NonTerminal\l::module">
<polygon fill="white" stroke="black" points="496,-203.363 496,-233.363 626,-233.363 626,-203.363 496,-203.363"/>
<text text-anchor="start" x="504" y="-221.363" font-family="Helvetica,sans-Serif" font-size="10.00">scram::core::NonTerminal</text>
<text text-anchor="middle" x="561" y="-210.363" font-family="Helvetica,sans-Serif" font-size="10.00">::module</text>
</a>
</g>
</g>
<!-- Node9&#45;&gt;Node16 -->
<g id="edge20" class="edge"><title>Node9&#45;&gt;Node16</title>
<path fill="none" stroke="midnightblue" d="M402.776,-550.332C415.167,-522.503 441.869,-460.903 460,-407.363 479.367,-350.173 464.37,-327.796 496,-276.363 504.616,-262.353 517.598,-249.7 529.623,-239.814"/>
<polygon fill="midnightblue" stroke="midnightblue" points="532.039,-242.367 537.73,-233.43 527.708,-236.867 532.039,-242.367"/>
</g>
<!-- Node17 -->
<g id="node17" class="node"><title>Node17</title>
<g id="a_node17"><a xlink:href="classscram_1_1core_1_1NonTerminal.xhtml#adcdd0c5114aa6a1d32a03928adc07c49" target="_top" xlink:title="scram::core::NonTerminal\l::coherent">
<polygon fill="white" stroke="black" points="496,-154.363 496,-184.363 626,-184.363 626,-154.363 496,-154.363"/>
<text text-anchor="start" x="504" y="-172.363" font-family="Helvetica,sans-Serif" font-size="10.00">scram::core::NonTerminal</text>
<text text-anchor="middle" x="561" y="-161.363" font-family="Helvetica,sans-Serif" font-size="10.00">::coherent</text>
</a>
</g>
</g>
<!-- Node9&#45;&gt;Node17 -->
<g id="edge21" class="edge"><title>Node9&#45;&gt;Node17</title>
<path fill="none" stroke="midnightblue" d="M403.515,-550.061C416.851,-522.295 444.689,-461.47 460,-407.363 486.261,-314.559 434.656,-267.788 496,-193.363 496.717,-192.493 497.469,-191.655 498.252,-190.847"/>
<polygon fill="midnightblue" stroke="midnightblue" points="500.599,-193.447 506.051,-184.363 496.124,-188.064 500.599,-193.447"/>
</g>
<!-- Node10&#45;&gt;Node6 -->
<g id="edge12" class="edge"><title>Node10&#45;&gt;Node6</title>
<path fill="none" stroke="midnightblue" d="M612.214,-624.968C624.758,-622.871 638.455,-620.581 651.816,-618.347"/>
<polygon fill="midnightblue" stroke="midnightblue" points="652.657,-621.755 661.943,-616.654 651.503,-614.851 652.657,-621.755"/>
</g>
<!-- Node10&#45;&gt;Node7 -->
<g id="edge13" class="edge"><title>Node10&#45;&gt;Node7</title>
<path fill="none" stroke="midnightblue" d="M609.371,-648.429C615.24,-651.27 620.945,-654.566 626,-658.363 663.74,-686.71 694.311,-733.328 710.619,-761.506"/>
<polygon fill="midnightblue" stroke="midnightblue" points="707.624,-763.32 715.592,-770.303 713.717,-759.875 707.624,-763.32"/>
</g>
<!-- Node13 -->
<g id="node13" class="node"><title>Node13</title>
<g id="a_node13"><a xlink:href="classscram_1_1core_1_1Vertex.xhtml#a8a4a6e9871c7b80b9951fea57617d438" target="_top" xlink:title="scram::core::Vertex::id">
<polygon fill="white" stroke="black" points="666.5,-411.863 666.5,-430.863 782.5,-430.863 782.5,-411.863 666.5,-411.863"/>
<text text-anchor="middle" x="724.5" y="-418.863" font-family="Helvetica,sans-Serif" font-size="10.00">scram::core::Vertex::id</text>
</a>
</g>
</g>
<!-- Node12&#45;&gt;Node13 -->
<g id="edge17" class="edge"><title>Node12&#45;&gt;Node13</title>
<path fill="none" stroke="midnightblue" d="M617.127,-421.363C629.673,-421.363 643.14,-421.363 656.131,-421.363"/>
<polygon fill="midnightblue" stroke="midnightblue" points="656.421,-424.863 666.421,-421.363 656.421,-417.863 656.421,-424.863"/>
</g>
<!-- Node18&#45;&gt;Node5 -->
<g id="edge23" class="edge"><title>Node18&#45;&gt;Node5</title>
<path fill="none" stroke="midnightblue" d="M291.228,-618.408C347.517,-631.802 429.799,-651.381 488.474,-665.343"/>
<polygon fill="midnightblue" stroke="midnightblue" points="487.872,-668.798 498.411,-667.708 489.493,-661.988 487.872,-668.798"/>
</g>
<!-- Node18&#45;&gt;Node8 -->
<g id="edge25" class="edge"><title>Node18&#45;&gt;Node8</title>
<path fill="none" stroke="midnightblue" d="M253.265,-618.466C273.722,-630.516 303.407,-647.596 330,-661.363 336.743,-664.853 343.965,-668.409 351.041,-671.795"/>
<polygon fill="midnightblue" stroke="midnightblue" points="350.004,-675.176 360.54,-676.284 352.995,-668.847 350.004,-675.176"/>
</g>
<!-- Node18&#45;&gt;Node9 -->
<g id="edge26" class="edge"><title>Node18&#45;&gt;Node9</title>
<path fill="none" stroke="midnightblue" d="M293.608,-588.344C306.968,-585.286 320.957,-582.084 334.106,-579.074"/>
<polygon fill="midnightblue" stroke="midnightblue" points="335.006,-582.458 343.973,-576.815 333.444,-575.635 335.006,-582.458"/>
</g>
<!-- Node18&#45;&gt;Node12 -->
<g id="edge24" class="edge"><title>Node18&#45;&gt;Node12</title>
<path fill="none" stroke="midnightblue" d="M252.055,-588.131C272.559,-575.295 302.925,-556.633 330,-541.363 395.878,-504.208 474.298,-464.162 520.457,-441.005"/>
<polygon fill="midnightblue" stroke="midnightblue" points="522.148,-444.073 529.524,-436.466 519.015,-437.814 522.148,-444.073"/>
</g>
<!-- Node19&#45;&gt;Node6 -->
<g id="edge29" class="edge"><title>Node19&#45;&gt;Node6</title>
<path fill="none" stroke="midnightblue" d="M278.044,-461.232C356.446,-448.611 511.13,-439.894 626,-494.363 665.406,-513.048 696.956,-555.182 712.657,-582.354"/>
<polygon fill="midnightblue" stroke="midnightblue" points="709.669,-584.183 717.537,-591.278 715.81,-580.825 709.669,-584.183"/>
</g>
<!-- Node19&#45;&gt;Node6 -->
<g id="edge46" class="edge"><title>Node19&#45;&gt;Node6</title>
<path fill="none" stroke="midnightblue" d="M278.044,-472.603C356.446,-466.611 511.13,-457.894 626,-512.363 659.34,-528.172 687.057,-560.767 704.31,-583.273"/>
<polygon fill="midnightblue" stroke="midnightblue" points="701.584,-585.472 710.399,-591.349 707.173,-581.257 701.584,-585.472"/>
</g>
<!-- Node19&#45;&gt;Node8 -->
<g id="edge39" class="edge"><title>Node19&#45;&gt;Node8</title>
<path fill="none" stroke="midnightblue" d="M237.396,-489.715C254.558,-517.362 292.654,-576.963 330,-623.363 342.916,-639.41 358.777,-656.28 371.478,-669.202"/>
<polygon fill="midnightblue" stroke="midnightblue" points="369.015,-671.688 378.544,-676.318 373.982,-666.756 369.015,-671.688"/>
</g>
<!-- Node19&#45;&gt;Node11 -->
<g id="edge47" class="edge"><title>Node19&#45;&gt;Node11</title>
<path fill="none" stroke="midnightblue" d="M238.935,-489.641C256.33,-513.225 292.218,-559.044 330,-590.363 381.699,-633.218 408.054,-624.807 460,-667.363 478.502,-682.52 477.852,-691.784 496,-707.363 504.879,-714.985 515.221,-722.332 524.969,-728.692"/>
<polygon fill="midnightblue" stroke="midnightblue" points="523.378,-731.827 533.696,-734.235 527.131,-725.919 523.378,-731.827"/>
</g>
<!-- Node19&#45;&gt;Node12 -->
<g id="edge28" class="edge"><title>Node19&#45;&gt;Node12</title>
<path fill="none" stroke="midnightblue" d="M278.294,-461.368C284.046,-458.411 289.463,-454.791 294,-450.363 325.421,-419.694 293.734,-383.115 330,-358.363 377.722,-325.791 404.49,-342.335 460,-358.363 487.991,-366.445 515.695,-384.942 534.819,-399.815"/>
<polygon fill="midnightblue" stroke="midnightblue" points="532.724,-402.621 542.719,-406.134 537.096,-397.154 532.724,-402.621"/>
</g>
<!-- Node19&#45;&gt;Node15 -->
<g id="edge40" class="edge"><title>Node19&#45;&gt;Node15</title>
<path fill="none" stroke="midnightblue" d="M278.252,-461.825C284.082,-458.792 289.53,-455.029 294,-450.363 330.756,-411.995 289.636,-370.915 330,-336.363 372.485,-299.996 436.296,-292.729 485.935,-293.723"/>
<polygon fill="midnightblue" stroke="midnightblue" points="485.876,-297.223 495.981,-294.039 486.096,-290.226 485.876,-297.223"/>
</g>
<!-- Node19&#45;&gt;Node16 -->
<g id="edge38" class="edge"><title>Node19&#45;&gt;Node16</title>
<path fill="none" stroke="midnightblue" d="M278.248,-462.753C284.228,-459.573 289.717,-455.523 294,-450.363 356.724,-374.804 257.083,-298.14 330,-232.363 372.468,-194.053 439.236,-194.167 489.918,-201.736"/>
<polygon fill="midnightblue" stroke="midnightblue" points="489.397,-205.197 499.828,-203.339 490.515,-198.287 489.397,-205.197"/>
</g>
<!-- Node19&#45;&gt;Node17 -->
<g id="edge41" class="edge"><title>Node19&#45;&gt;Node17</title>
<path fill="none" stroke="midnightblue" d="M278.038,-463.02C284.126,-459.801 289.702,-455.668 294,-450.363 366.324,-361.085 247.488,-274.32 330,-194.363 351.632,-173.4 426.873,-168.42 485.477,-167.89"/>
<polygon fill="midnightblue" stroke="midnightblue" points="485.854,-171.388 495.837,-167.84 485.821,-164.388 485.854,-171.388"/>
</g>
<!-- Node20 -->
<g id="node20" class="node"><title>Node20</title>
<g id="a_node20"><a xlink:href="classscram_1_1core_1_1NonTerminal.xhtml#a7b184b2ba68a289aae9f3737f1d13b97" target="_top" xlink:title="scram::core::NonTerminal\l::high">
<polygon fill="white" stroke="black" points="496,-104.363 496,-134.363 626,-134.363 626,-104.363 496,-104.363"/>
<text text-anchor="start" x="504" y="-122.363" font-family="Helvetica,sans-Serif" font-size="10.00">scram::core::NonTerminal</text>
<text text-anchor="middle" x="561" y="-111.363" font-family="Helvetica,sans-Serif" font-size="10.00">::high</text>
</a>
</g>
</g>
<!-- Node19&#45;&gt;Node20 -->
<g id="edge30" class="edge"><title>Node19&#45;&gt;Node20</title>
<path fill="none" stroke="midnightblue" d="M278.211,-463.158C284.274,-459.919 289.797,-455.744 294,-450.363 341.316,-389.791 272.892,-157.806 330,-106.363 380.668,-60.7205 465.876,-81.6462 517.135,-100.712"/>
<polygon fill="midnightblue" stroke="midnightblue" points="516.014,-104.031 526.604,-104.357 518.529,-97.4984 516.014,-104.031"/>
</g>
<!-- Node21 -->
<g id="node21" class="node"><title>Node21</title>
<g id="a_node21"><a xlink:href="classscram_1_1core_1_1Zbdd.xhtml#aed1eaa96df30e6eaa32e9e51427c9743" target="_top" xlink:title="scram::core::Zbdd::\lmodules">
<polygon fill="white" stroke="black" points="344,-116.363 344,-146.363 446,-146.363 446,-116.363 344,-116.363"/>
<text text-anchor="start" x="352" y="-134.363" font-family="Helvetica,sans-Serif" font-size="10.00">scram::core::Zbdd::</text>
<text text-anchor="middle" x="395" y="-123.363" font-family="Helvetica,sans-Serif" font-size="10.00">modules</text>
</a>
</g>
</g>
<!-- Node19&#45;&gt;Node21 -->
<g id="edge31" class="edge"><title>Node19&#45;&gt;Node21</title>
<path fill="none" stroke="midnightblue" d="M278.114,-463.082C284.192,-459.854 289.744,-455.702 294,-450.363 374.68,-349.147 253.932,-266.089 330,-161.363 332.406,-158.051 335.271,-155.092 338.436,-152.452"/>
<polygon fill="midnightblue" stroke="midnightblue" points="340.68,-155.152 346.827,-146.523 336.64,-149.435 340.68,-155.152"/>
</g>
<!-- Node22 -->
<g id="node22" class="node"><title>Node22</title>
<g id="a_node22"><a xlink:href="classscram_1_1core_1_1NonTerminal.xhtml#adeb100923176ebd5f820c75b79280796" target="_top" xlink:title="scram::core::NonTerminal\l\&lt; SetNode \&gt;::low">
<polygon fill="white" stroke="black" points="496,-54.3629 496,-84.3629 626,-84.3629 626,-54.3629 496,-54.3629"/>
<text text-anchor="start" x="504" y="-72.3629" font-family="Helvetica,sans-Serif" font-size="10.00">scram::core::NonTerminal</text>
<text text-anchor="middle" x="561" y="-61.3629" font-family="Helvetica,sans-Serif" font-size="10.00">&lt; SetNode &gt;::low</text>
</a>
</g>
</g>
<!-- Node19&#45;&gt;Node22 -->
<g id="edge42" class="edge"><title>Node19&#45;&gt;Node22</title>
<path fill="none" stroke="midnightblue" d="M278.253,-463.191C284.31,-459.947 289.82,-455.761 294,-450.363 345.253,-384.169 268.779,-132.463 330,-75.3629 375.554,-32.8752 450.959,-39.9259 502.941,-51.9268"/>
<polygon fill="midnightblue" stroke="midnightblue" points="502.142,-55.3343 512.686,-54.2969 503.796,-48.5326 502.142,-55.3343"/>
</g>
<!-- Node23 -->
<g id="node23" class="node"><title>Node23</title>
<g id="a_node23"><a xlink:href="classscram_1_1core_1_1NonTerminal.xhtml#af5853746ad388f479a7aa45c5d843466" target="_top" xlink:title="scram::core::NonTerminal\l\&lt; SetNode \&gt;::order">
<polygon fill="white" stroke="black" points="496,-2.36288 496,-32.3629 626,-32.3629 626,-2.36288 496,-2.36288"/>
<text text-anchor="start" x="504" y="-20.3629" font-family="Helvetica,sans-Serif" font-size="10.00">scram::core::NonTerminal</text>
<text text-anchor="middle" x="561" y="-9.36288" font-family="Helvetica,sans-Serif" font-size="10.00">&lt; SetNode &gt;::order</text>
</a>
</g>
</g>
<!-- Node19&#45;&gt;Node23 -->
<g id="edge45" class="edge"><title>Node19&#45;&gt;Node23</title>
<path fill="none" stroke="midnightblue" d="M278.294,-463.223C284.346,-459.974 289.842,-455.779 294,-450.363 349.828,-377.637 265.43,-104.451 330,-39.3629 369.661,0.616415 434.993,3.36271 485.912,-2.31029"/>
<polygon fill="midnightblue" stroke="midnightblue" points="485.537,-5.7905 495.891,-3.54861 486.399,1.15622 485.537,-5.7905"/>
</g>
<!-- Node24 -->
<g id="node24" class="node"><title>Node24</title>
<g id="a_node24"><a xlink:href="classscram_1_1core_1_1NonTerminal.xhtml#a7b70ab1b978f3197458c95e0891fd79c" target="_top" xlink:title="scram::core::NonTerminal\l::mark">
<polygon fill="white" stroke="black" points="330,-242.363 330,-272.363 460,-272.363 460,-242.363 330,-242.363"/>
<text text-anchor="start" x="338" y="-260.363" font-family="Helvetica,sans-Serif" font-size="10.00">scram::core::NonTerminal</text>
<text text-anchor="middle" x="395" y="-249.363" font-family="Helvetica,sans-Serif" font-size="10.00">::mark</text>
</a>
</g>
</g>
<!-- Node19&#45;&gt;Node24 -->
<g id="edge43" class="edge"><title>Node19&#45;&gt;Node24</title>
<path fill="none" stroke="midnightblue" d="M278.323,-462.364C284.215,-459.244 289.66,-455.314 294,-450.363 342.903,-394.571 283.644,-345.288 330,-287.363 332.717,-283.968 335.908,-280.938 339.391,-278.237"/>
<polygon fill="midnightblue" stroke="midnightblue" points="341.585,-280.979 347.957,-272.514 337.697,-275.159 341.585,-280.979"/>
</g>
<!-- Node25 -->
<g id="node25" class="node"><title>Node25</title>
<g id="a_node25"><a xlink:href="classscram_1_1core_1_1SetNode.xhtml#a687ac81766268cd0094acbfcd7c26af0" target="_top" xlink:title="scram::core::SetNode\l::count">
<polygon fill="white" stroke="black" points="338.5,-368.363 338.5,-398.363 451.5,-398.363 451.5,-368.363 338.5,-368.363"/>
<text text-anchor="start" x="346.5" y="-386.363" font-family="Helvetica,sans-Serif" font-size="10.00">scram::core::SetNode</text>
<text text-anchor="middle" x="395" y="-375.363" font-family="Helvetica,sans-Serif" font-size="10.00">::count</text>
</a>
</g>
</g>
<!-- Node19&#45;&gt;Node25 -->
<g id="edge44" class="edge"><title>Node19&#45;&gt;Node25</title>
<path fill="none" stroke="midnightblue" d="M277.14,-459.336C283.018,-456.722 288.778,-453.739 294,-450.363 313.268,-437.906 311.309,-426.67 330,-413.363 335.183,-409.673 340.891,-406.247 346.699,-403.13"/>
<polygon fill="midnightblue" stroke="midnightblue" points="348.512,-406.135 355.848,-398.492 345.346,-399.892 348.512,-406.135"/>
</g>
<!-- Node21&#45;&gt;Node15 -->
<g id="edge32" class="edge"><title>Node21&#45;&gt;Node15</title>
<path fill="none" stroke="midnightblue" d="M408.839,-146.487C427.473,-168.232 463.359,-209.345 496,-242.363 508.55,-255.058 523.145,-268.599 535.225,-279.503"/>
<polygon fill="midnightblue" stroke="midnightblue" points="532.972,-282.183 542.754,-286.252 537.644,-276.971 532.972,-282.183"/>
</g>
<!-- Node21&#45;&gt;Node16 -->
<g id="edge36" class="edge"><title>Node21&#45;&gt;Node16</title>
<path fill="none" stroke="midnightblue" d="M417.963,-146.608C437.787,-159.969 468.047,-179.384 496,-193.363 500.071,-195.399 504.35,-197.383 508.685,-199.286"/>
<polygon fill="midnightblue" stroke="midnightblue" points="507.631,-202.64 518.205,-203.31 510.357,-196.193 507.631,-202.64"/>
</g>
<!-- Node21&#45;&gt;Node17 -->
<g id="edge37" class="edge"><title>Node21&#45;&gt;Node17</title>
<path fill="none" stroke="midnightblue" d="M446.097,-142.971C458.755,-145.904 472.615,-149.115 486.175,-152.257"/>
<polygon fill="midnightblue" stroke="midnightblue" points="485.441,-155.68 495.973,-154.527 487.021,-148.86 485.441,-155.68"/>
</g>
<!-- Node21&#45;&gt;Node20 -->
<g id="edge33" class="edge"><title>Node21&#45;&gt;Node20</title>
<path fill="none" stroke="midnightblue" d="M446.097,-127.697C458.632,-126.78 472.346,-125.777 485.78,-124.794"/>
<polygon fill="midnightblue" stroke="midnightblue" points="486.255,-128.268 495.973,-124.048 485.744,-121.287 486.255,-128.268"/>
</g>
<!-- Node21&#45;&gt;Node22 -->
<g id="edge34" class="edge"><title>Node21&#45;&gt;Node22</title>
<path fill="none" stroke="midnightblue" d="M435.7,-116.354C458.196,-107.85 486.541,-97.1341 510.48,-88.0838"/>
<polygon fill="midnightblue" stroke="midnightblue" points="511.981,-91.2582 520.097,-84.448 509.506,-84.7105 511.981,-91.2582"/>
</g>
<!-- Node21&#45;&gt;Node23 -->
<g id="edge35" class="edge"><title>Node21&#45;&gt;Node23</title>
<path fill="none" stroke="midnightblue" d="M410.386,-116.174C428.818,-97.3807 462.415,-65.3071 496,-44.3629 500.303,-41.6797 504.918,-39.1496 509.628,-36.7946"/>
<polygon fill="midnightblue" stroke="midnightblue" points="511.198,-39.9241 518.744,-32.4875 508.207,-33.595 511.198,-39.9241"/>
</g>
<!-- Node27&#45;&gt;Node6 -->
<g id="edge50" class="edge"><title>Node27&#45;&gt;Node6</title>
<path fill="none" stroke="midnightblue" d="M446.042,-862.048C496.458,-865.996 574.03,-864.123 626,-825.363 642.729,-812.886 693.095,-685.526 714.12,-630.961"/>
<polygon fill="midnightblue" stroke="midnightblue" points="717.486,-631.958 717.803,-621.368 710.951,-629.45 717.486,-631.958"/>
</g>
<!-- Node27&#45;&gt;Node11 -->
<g id="edge51" class="edge"><title>Node27&#45;&gt;Node11</title>
<path fill="none" stroke="midnightblue" d="M419.497,-840.176C447.994,-821.757 496.161,-790.625 528.022,-770.031"/>
<polygon fill="midnightblue" stroke="midnightblue" points="530.048,-772.89 536.546,-764.522 526.248,-767.011 530.048,-772.89"/>
</g>
</g>
</svg>
        <g id="navigator" transform="translate(0 0)" fill="#404254">
                <rect fill="#f2f5e9" fill-opacity="0.5" stroke="#606060" stroke-width=".5" x="0" y="0" width="60" height="60"/>
                <use id="zoomplus" xlink:href="#zoomPlus" x="17" y="9" onmousedown="handleZoom(evt,'in')"/>
                <use id="zoomminus" xlink:href="#zoomMin" x="42" y="9" onmousedown="handleZoom(evt,'out')"/>
                <use id="reset" xlink:href="#resetDef" x="30" y="36" onmousedown="handleReset()"/>
                <g id="arrowUp" xlink:href="#dirArrow" transform="translate(30 24)" onmousedown="handlePan(0,-1)">
                  <use xlink:href="#rim" fill="#404040">
                        <set attributeName="fill" to="#808080" begin="arrowUp.mouseover" end="arrowUp.mouseout"/>
                  </use>
                  <path fill="none" stroke="white" stroke-width="1.5" d="M0,-3.0v7 M-2.5,-0.5L0,-3.0L2.5,-0.5"/>
                </g>
                <g id="arrowRight" xlink:href="#dirArrow" transform="rotate(90) translate(36 -43)" onmousedown="handlePan(1,0)">
                  <use xlink:href="#rim" fill="#404040">
                        <set attributeName="fill" to="#808080" begin="arrowRight.mouseover" end="arrowRight.mouseout"/>
                  </use>
                  <path fill="none" stroke="white" stroke-width="1.5" d="M0,-3.0v7 M-2.5,-0.5L0,-3.0L2.5,-0.5"/>
                </g>
                <g id="arrowDown" xlink:href="#dirArrow" transform="rotate(180) translate(-30 -48)" onmousedown="handlePan(0,1)">
                  <use xlink:href="#rim" fill="#404040">
                        <set attributeName="fill" to="#808080" begin="arrowDown.mouseover" end="arrowDown.mouseout"/>
                  </use>
                  <path fill="none" stroke="white" stroke-width="1.5" d="M0,-3.0v7 M-2.5,-0.5L0,-3.0L2.5,-0.5"/>
                </g>
                <g id="arrowLeft" xlink:href="#dirArrow" transform="rotate(270) translate(-36 17)" onmousedown="handlePan(-1,0)">
                  <use xlink:href="#rim" fill="#404040">
                        <set attributeName="fill" to="#808080" begin="arrowLeft.mouseover" end="arrowLeft.mouseout"/>
                  </use>
                  <path fill="none" stroke="white" stroke-width="1.5" d="M0,-3.0v7 M-2.5,-0.5L0,-3.0L2.5,-0.5"/>
                </g>
        </g>
        <svg viewBox="0 0 15 15" width="100%" height="30px" preserveAspectRatio="xMaxYMin meet">
         <g id="arrow_out" transform="scale(0.3 0.3)">
          <a xlink:href="classscram_1_1core_1_1Zbdd_af92e04ed908364e0177ce444d7b72712_cgraph_org.svg" target="_base">
           <rect id="button" ry="5" rx="5" y="6" x="6" height="38" width="38"
                fill="#f2f5e9" fill-opacity="0.5" stroke="#606060" stroke-width="1.0"/>
           <path id="arrow"
             d="M 11.500037,31.436501 C 11.940474,20.09759 22.043105,11.32322 32.158766,21.979434 L 37.068811,17.246167 C 37.068811,17.246167 37.088388,32 37.088388,32 L 22.160133,31.978069 C 22.160133,31.978069 26.997745,27.140456 26.997745,27.140456 C 18.528582,18.264221 13.291696,25.230495 11.500037,31.436501 z"
             style="fill:#404040;"/>
          </a>
         </g>
        </svg>
</svg>
