<?xml version="1.0" encoding="UTF-8" standalone="no"?>
<!DOCTYPE svg PUBLIC "-//W3C//DTD SVG 1.1//EN"
 "http://www.w3.org/Graphics/SVG/1.1/DTD/svg11.dtd">
<!-- Generated by graphviz version 2.38.0 (20140413.2041)
 -->
<!-- Title: scram::core::FaultTreeAnalysis::Analyze Pages: 1 -->
<svg width="536pt" height="566pt"
 viewBox="0.00 0.00 536.00 565.50" xmlns="http://www.w3.org/2000/svg" xmlns:xlink="http://www.w3.org/1999/xlink">
<g id="graph0" class="graph" transform="scale(1 1) rotate(0) translate(4 561.5)">
<title>scram::core::FaultTreeAnalysis::Analyze</title>
<polygon fill="white" stroke="none" points="-4,4 -4,-561.5 532,-561.5 532,4 -4,4"/>
<!-- Node1 -->
<g id="node1" class="node"><title>Node1</title>
<polygon fill="#bfbfbf" stroke="black" points="0,-267 0,-297 153,-297 153,-267 0,-267"/>
<text text-anchor="start" x="8" y="-285" font-family="Helvetica,sans-Serif" font-size="10.00">scram::core::FaultTreeAnalysis</text>
<text text-anchor="middle" x="76.5" y="-274" font-family="Helvetica,sans-Serif" font-size="10.00">::Analyze</text>
</g>
<!-- Node2 -->
<g id="node2" class="node"><title>Node2</title>
<g id="a_node2"><a xlink:href="classscram_1_1core_1_1Analysis.xhtml#a1a4f345f29240b0236853641f728a103" target="_top" xlink:title="Adds time to the total analysis time. ">
<polygon fill="white" stroke="black" points="209.5,-527 209.5,-557 321.5,-557 321.5,-527 209.5,-527"/>
<text text-anchor="start" x="217.5" y="-545" font-family="Helvetica,sans-Serif" font-size="10.00">scram::core::Analysis</text>
<text text-anchor="middle" x="265.5" y="-534" font-family="Helvetica,sans-Serif" font-size="10.00">::AddAnalysisTime</text>
</a>
</g>
</g>
<!-- Node1&#45;&gt;Node2 -->
<g id="edge1" class="edge"><title>Node1&#45;&gt;Node2</title>
<path fill="none" stroke="midnightblue" d="M80.307,-297.235C88.787,-338.934 118.052,-455.949 189,-518 192.412,-520.984 196.196,-523.597 200.2,-525.886"/>
<polygon fill="midnightblue" stroke="midnightblue" points="198.748,-529.072 209.26,-530.396 201.867,-522.806 198.748,-529.072"/>
</g>
<!-- Node3 -->
<g id="node3" class="node"><title>Node3</title>
<g id="a_node3"><a xlink:href="classscram_1_1core_1_1Analysis.xhtml#abb78b5ecbaae6f4e7ccbca0b51cf2187" target="_top" xlink:title="Appends a warning message to the analysis warnings. ">
<polygon fill="white" stroke="black" points="209.5,-478 209.5,-508 321.5,-508 321.5,-478 209.5,-478"/>
<text text-anchor="start" x="217.5" y="-496" font-family="Helvetica,sans-Serif" font-size="10.00">scram::core::Analysis</text>
<text text-anchor="middle" x="265.5" y="-485" font-family="Helvetica,sans-Serif" font-size="10.00">::AddWarning</text>
</a>
</g>
</g>
<!-- Node1&#45;&gt;Node3 -->
<g id="edge2" class="edge"><title>Node1&#45;&gt;Node3</title>
<path fill="none" stroke="midnightblue" d="M82.3048,-297.119C94.3392,-332.556 129.175,-421.559 189,-469 192.395,-471.692 196.097,-474.085 199.98,-476.211"/>
<polygon fill="midnightblue" stroke="midnightblue" points="198.78,-479.518 209.308,-480.706 201.818,-473.212 198.78,-479.518"/>
</g>
<!-- Node4 -->
<g id="node4" class="node"><title>Node4</title>
<g id="a_node4"><a xlink:href="classscram_1_1core_1_1Analysis.xhtml#ad49662e0dcd76e35a7bdd776cc6f2f03" target="_top" xlink:title="scram::core::Analysis\l::analysis_time">
<polygon fill="white" stroke="black" points="209.5,-429 209.5,-459 321.5,-459 321.5,-429 209.5,-429"/>
<text text-anchor="start" x="217.5" y="-447" font-family="Helvetica,sans-Serif" font-size="10.00">scram::core::Analysis</text>
<text text-anchor="middle" x="265.5" y="-436" font-family="Helvetica,sans-Serif" font-size="10.00">::analysis_time</text>
</a>
</g>
</g>
<!-- Node1&#45;&gt;Node4 -->
<g id="edge3" class="edge"><title>Node1&#45;&gt;Node4</title>
<path fill="none" stroke="midnightblue" d="M85.8334,-297.139C102.045,-325.225 140.528,-385.574 189,-419 192.453,-421.381 196.149,-423.549 199.982,-425.521"/>
<polygon fill="midnightblue" stroke="midnightblue" points="198.583,-428.73 209.126,-429.774 201.535,-422.383 198.583,-428.73"/>
</g>
<!-- Node5 -->
<g id="node5" class="node"><title>Node5</title>
<g id="a_node5"><a xlink:href="classscram_1_1core_1_1Zbdd.xhtml#a9387ad9ed66536ba2ea9ad54c37e448c" target="_top" xlink:title="scram::core::Zbdd::base">
<polygon fill="white" stroke="black" points="204,-390.5 204,-409.5 327,-409.5 327,-390.5 204,-390.5"/>
<text text-anchor="middle" x="265.5" y="-397.5" font-family="Helvetica,sans-Serif" font-size="10.00">scram::core::Zbdd::base</text>
</a>
</g>
</g>
<!-- Node1&#45;&gt;Node5 -->
<g id="edge4" class="edge"><title>Node1&#45;&gt;Node5</title>
<path fill="none" stroke="midnightblue" d="M90.2544,-297.237C109.417,-319.125 147.806,-359.222 189,-381 193.328,-383.288 197.942,-385.309 202.676,-387.092"/>
<polygon fill="midnightblue" stroke="midnightblue" points="201.911,-390.529 212.505,-390.43 204.161,-383.9 201.911,-390.529"/>
</g>
<!-- Node7 -->
<g id="node7" class="node"><title>Node7</title>
<g id="a_node7"><a xlink:href="classscram_1_1core_1_1Settings.xhtml#a4a71410d7b91bb82cadc29c0fe0b2506" target="_top" xlink:title="scram::core::Settings\l::ccf_analysis">
<polygon fill="white" stroke="black" points="210.5,-341 210.5,-371 320.5,-371 320.5,-341 210.5,-341"/>
<text text-anchor="start" x="218.5" y="-359" font-family="Helvetica,sans-Serif" font-size="10.00">scram::core::Settings</text>
<text text-anchor="middle" x="265.5" y="-348" font-family="Helvetica,sans-Serif" font-size="10.00">::ccf_analysis</text>
</a>
</g>
</g>
<!-- Node1&#45;&gt;Node7 -->
<g id="edge6" class="edge"><title>Node1&#45;&gt;Node7</title>
<path fill="none" stroke="midnightblue" d="M108.818,-297.195C130.946,-307.646 161.45,-321.483 189,-332 194.06,-333.931 199.349,-335.836 204.677,-337.678"/>
<polygon fill="midnightblue" stroke="midnightblue" points="203.676,-341.033 214.27,-340.914 205.914,-334.401 203.676,-341.033"/>
</g>
<!-- Node8 -->
<g id="node8" class="node"><title>Node8</title>
<g id="a_node8"><a xlink:href="classscram_1_1core_1_1Zbdd.xhtml#a284d6ef787a71e3c3519a06480f93cb3" target="_top" xlink:title="scram::core::Zbdd::\lempty">
<polygon fill="white" stroke="black" points="214.5,-292 214.5,-322 316.5,-322 316.5,-292 214.5,-292"/>
<text text-anchor="start" x="222.5" y="-310" font-family="Helvetica,sans-Serif" font-size="10.00">scram::core::Zbdd::</text>
<text text-anchor="middle" x="265.5" y="-299" font-family="Helvetica,sans-Serif" font-size="10.00">empty</text>
</a>
</g>
</g>
<!-- Node1&#45;&gt;Node8 -->
<g id="edge7" class="edge"><title>Node1&#45;&gt;Node8</title>
<path fill="none" stroke="midnightblue" d="M153.021,-292.096C170.146,-294.386 188.106,-296.787 204.487,-298.977"/>
<polygon fill="midnightblue" stroke="midnightblue" points="204.085,-302.454 214.46,-300.31 205.012,-295.516 204.085,-302.454"/>
</g>
<!-- Node9 -->
<g id="node9" class="node"><title>Node9</title>
<g id="a_node9"><a xlink:href="classscram_1_1core_1_1FaultTreeAnalysis.xhtml#afb76572c7b6ed0e3063eec7e40dd0cce" target="_top" xlink:title="scram::core::FaultTreeAnalysis\l::graph">
<polygon fill="white" stroke="black" points="189,-243 189,-273 342,-273 342,-243 189,-243"/>
<text text-anchor="start" x="197" y="-261" font-family="Helvetica,sans-Serif" font-size="10.00">scram::core::FaultTreeAnalysis</text>
<text text-anchor="middle" x="265.5" y="-250" font-family="Helvetica,sans-Serif" font-size="10.00">::graph</text>
</a>
</g>
</g>
<!-- Node1&#45;&gt;Node9 -->
<g id="edge8" class="edge"><title>Node1&#45;&gt;Node9</title>
<path fill="none" stroke="midnightblue" d="M153.021,-272.307C161.472,-271.223 170.127,-270.112 178.696,-269.012"/>
<polygon fill="midnightblue" stroke="midnightblue" points="179.224,-272.473 188.697,-267.729 178.333,-265.53 179.224,-272.473"/>
</g>
<!-- Node10 -->
<g id="node10" class="node"><title>Node10</title>
<g id="a_node10"><a xlink:href="classscram_1_1core_1_1Settings.xhtml#a0e43ec0f017d23a4fa4e376c4060d380" target="_top" xlink:title="scram::core::Settings\l::limit_order">
<polygon fill="white" stroke="black" points="210.5,-194 210.5,-224 320.5,-224 320.5,-194 210.5,-194"/>
<text text-anchor="start" x="218.5" y="-212" font-family="Helvetica,sans-Serif" font-size="10.00">scram::core::Settings</text>
<text text-anchor="middle" x="265.5" y="-201" font-family="Helvetica,sans-Serif" font-size="10.00">::limit_order</text>
</a>
</g>
</g>
<!-- Node1&#45;&gt;Node10 -->
<g id="edge9" class="edge"><title>Node1&#45;&gt;Node10</title>
<path fill="none" stroke="midnightblue" d="M110.369,-266.958C132.413,-257.092 162.207,-244.181 189,-234 194.844,-231.779 200.984,-229.562 207.13,-227.416"/>
<polygon fill="midnightblue" stroke="midnightblue" points="208.432,-230.67 216.754,-224.113 206.159,-224.049 208.432,-230.67"/>
</g>
<!-- Node11 -->
<g id="node11" class="node"><title>Node11</title>
<g id="a_node11"><a xlink:href="fault__tree__analysis_8cc.xhtml#af405213a7ee34a3dd833ce5298983b04" target="_top" xlink:title="Prints a collection of products to the standard error. ">
<polygon fill="white" stroke="black" points="218,-137.5 218,-156.5 313,-156.5 313,-137.5 218,-137.5"/>
<text text-anchor="middle" x="265.5" y="-144.5" font-family="Helvetica,sans-Serif" font-size="10.00">scram::core::Print</text>
</a>
</g>
</g>
<!-- Node1&#45;&gt;Node11 -->
<g id="edge10" class="edge"><title>Node1&#45;&gt;Node11</title>
<path fill="none" stroke="midnightblue" d="M92.3758,-266.875C112.865,-246.577 151.505,-210.166 189,-185 202.662,-175.83 218.839,-167.404 232.708,-160.828"/>
<polygon fill="midnightblue" stroke="midnightblue" points="234.275,-163.959 241.882,-156.585 231.337,-157.606 234.275,-163.959"/>
</g>
<!-- Node15 -->
<g id="node15" class="node"><title>Node15</title>
<g id="a_node15"><a xlink:href="classscram_1_1core_1_1FaultTreeAnalysis.xhtml#a2f72ce18bab118ab1949ae70f16d9203" target="_top" xlink:title="scram::core::FaultTreeAnalysis\l::products">
<polygon fill="white" stroke="black" points="189,-88 189,-118 342,-118 342,-88 189,-88"/>
<text text-anchor="start" x="197" y="-106" font-family="Helvetica,sans-Serif" font-size="10.00">scram::core::FaultTreeAnalysis</text>
<text text-anchor="middle" x="265.5" y="-95" font-family="Helvetica,sans-Serif" font-size="10.00">::products</text>
</a>
</g>
</g>
<!-- Node1&#45;&gt;Node15 -->
<g id="edge16" class="edge"><title>Node1&#45;&gt;Node15</title>
<path fill="none" stroke="midnightblue" d="M84.401,-266.885C99.1711,-236.186 136.798,-166.217 189,-128 191.536,-126.143 194.219,-124.419 197.001,-122.818"/>
<polygon fill="midnightblue" stroke="midnightblue" points="198.869,-125.794 206.17,-118.116 195.675,-119.565 198.869,-125.794"/>
</g>
<!-- Node16 -->
<g id="node16" class="node"><title>Node16</title>
<g id="a_node16"><a xlink:href="classscram_1_1core_1_1Analysis.xhtml#ab04a96c555ba726368fa3868a8701610" target="_top" xlink:title="scram::core::Analysis\l::settings">
<polygon fill="white" stroke="black" points="209.5,-39 209.5,-69 321.5,-69 321.5,-39 209.5,-39"/>
<text text-anchor="start" x="217.5" y="-57" font-family="Helvetica,sans-Serif" font-size="10.00">scram::core::Analysis</text>
<text text-anchor="middle" x="265.5" y="-46" font-family="Helvetica,sans-Serif" font-size="10.00">::settings</text>
</a>
</g>
</g>
<!-- Node1&#45;&gt;Node16 -->
<g id="edge17" class="edge"><title>Node1&#45;&gt;Node16</title>
<path fill="none" stroke="midnightblue" d="M81.6286,-266.771C92.5839,-229.225 125.954,-131.475 189,-79 192.436,-76.1403 196.21,-73.6041 200.182,-71.3552"/>
<polygon fill="midnightblue" stroke="midnightblue" points="201.76,-74.4794 209.14,-66.8772 198.63,-68.2182 201.76,-74.4794"/>
</g>
<!-- Node17 -->
<g id="node17" class="node"><title>Node17</title>
<g id="a_node17"><a xlink:href="classscram_1_1core_1_1Zbdd.xhtml#a7947e6b7a94bd315fcbf3c7a08bad59b" target="_top" xlink:title="scram::core::Zbdd::size">
<polygon fill="white" stroke="black" points="205.5,-0.5 205.5,-19.5 325.5,-19.5 325.5,-0.5 205.5,-0.5"/>
<text text-anchor="middle" x="265.5" y="-7.5" font-family="Helvetica,sans-Serif" font-size="10.00">scram::core::Zbdd::size</text>
</a>
</g>
</g>
<!-- Node1&#45;&gt;Node17 -->
<g id="edge18" class="edge"><title>Node1&#45;&gt;Node17</title>
<path fill="none" stroke="midnightblue" d="M79.5457,-266.728C86.2899,-222.615 111.976,-94.0231 189,-29 191.275,-27.0791 193.718,-25.3481 196.283,-23.7886"/>
<polygon fill="midnightblue" stroke="midnightblue" points="198.099,-26.7912 205.406,-19.1199 194.91,-20.5597 198.099,-26.7912"/>
</g>
<!-- Node6 -->
<g id="node6" class="node"><title>Node6</title>
<g id="a_node6"><a xlink:href="classscram_1_1core_1_1NonTerminal.xhtml#adcdd0c5114aa6a1d32a03928adc07c49" target="_top" xlink:title="scram::core::NonTerminal\l\&lt; SetNode \&gt;::coherent">
<polygon fill="white" stroke="black" points="388,-385 388,-415 518,-415 518,-385 388,-385"/>
<text text-anchor="start" x="396" y="-403" font-family="Helvetica,sans-Serif" font-size="10.00">scram::core::NonTerminal</text>
<text text-anchor="middle" x="453" y="-392" font-family="Helvetica,sans-Serif" font-size="10.00">&lt; SetNode &gt;::coherent</text>
</a>
</g>
</g>
<!-- Node5&#45;&gt;Node6 -->
<g id="edge5" class="edge"><title>Node5&#45;&gt;Node6</title>
<path fill="none" stroke="midnightblue" d="M327.24,-400C343.34,-400 360.907,-400 377.642,-400"/>
<polygon fill="midnightblue" stroke="midnightblue" points="377.934,-403.5 387.934,-400 377.934,-396.5 377.934,-403.5"/>
</g>
<!-- Node11&#45;&gt;Node11 -->
<g id="edge13" class="edge"><title>Node11&#45;&gt;Node11</title>
<path fill="none" stroke="midnightblue" d="M236.832,-156.757C222.885,-165.565 232.441,-175 265.5,-175 288.228,-175 299.847,-170.541 300.357,-164.891"/>
<polygon fill="midnightblue" stroke="midnightblue" points="303.009,-162.596 294.168,-156.757 297.438,-166.835 303.009,-162.596"/>
</g>
<!-- Node12 -->
<g id="node12" class="node"><title>Node12</title>
<g id="a_node12"><a xlink:href="classscram_1_1core_1_1ProductContainer.xhtml#ae3c4f3a13d162014a7e7bd35c12f4bcf" target="_top" xlink:title="Begin and end iterators over products in the container. ">
<polygon fill="white" stroke="black" points="378,-205 378,-235 528,-235 528,-205 378,-205"/>
<text text-anchor="start" x="386" y="-223" font-family="Helvetica,sans-Serif" font-size="10.00">scram::core::ProductContainer</text>
<text text-anchor="middle" x="453" y="-212" font-family="Helvetica,sans-Serif" font-size="10.00">::begin</text>
</a>
</g>
</g>
<!-- Node11&#45;&gt;Node12 -->
<g id="edge11" class="edge"><title>Node11&#45;&gt;Node12</title>
<path fill="none" stroke="midnightblue" d="M286.795,-156.655C308.948,-167.021 345.593,-183.66 378,-196 383.049,-197.923 388.326,-199.83 393.638,-201.681"/>
<polygon fill="midnightblue" stroke="midnightblue" points="392.6,-205.024 403.194,-204.941 394.86,-198.399 392.6,-205.024"/>
</g>
<!-- Node13 -->
<g id="node13" class="node"><title>Node13</title>
<g id="a_node13"><a xlink:href="classscram_1_1core_1_1ProductContainer.xhtml#ac48d179d37d1109d36bf2d36e02aebe7" target="_top" xlink:title="scram::core::ProductContainer\l::empty">
<polygon fill="white" stroke="black" points="378,-156 378,-186 528,-186 528,-156 378,-156"/>
<text text-anchor="start" x="386" y="-174" font-family="Helvetica,sans-Serif" font-size="10.00">scram::core::ProductContainer</text>
<text text-anchor="middle" x="453" y="-163" font-family="Helvetica,sans-Serif" font-size="10.00">::empty</text>
</a>
</g>
</g>
<!-- Node11&#45;&gt;Node13 -->
<g id="edge12" class="edge"><title>Node11&#45;&gt;Node13</title>
<path fill="none" stroke="midnightblue" d="M313.309,-153.056C329.868,-155.199 349.039,-157.679 367.746,-160.099"/>
<polygon fill="midnightblue" stroke="midnightblue" points="367.403,-163.584 377.769,-161.396 368.301,-156.642 367.403,-163.584"/>
</g>
<!-- Node14 -->
<g id="node14" class="node"><title>Node14</title>
<g id="a_node14"><a xlink:href="classscram_1_1core_1_1ProductContainer.xhtml#ac02fbe13144218abf07fdd6ba9c8b532" target="_top" xlink:title="scram::core::ProductContainer\l::size">
<polygon fill="white" stroke="black" points="378,-107 378,-137 528,-137 528,-107 378,-107"/>
<text text-anchor="start" x="386" y="-125" font-family="Helvetica,sans-Serif" font-size="10.00">scram::core::ProductContainer</text>
<text text-anchor="middle" x="453" y="-114" font-family="Helvetica,sans-Serif" font-size="10.00">::size</text>
</a>
</g>
</g>
<!-- Node11&#45;&gt;Node14 -->
<g id="edge14" class="edge"><title>Node11&#45;&gt;Node14</title>
<path fill="none" stroke="midnightblue" d="M298.389,-137.46C317.599,-133.737 343.046,-129.813 367.691,-126.637"/>
<polygon fill="midnightblue" stroke="midnightblue" points="368.326,-130.085 377.814,-125.37 367.456,-123.139 368.326,-130.085"/>
</g>
<!-- Node14&#45;&gt;Node11 -->
<g id="edge15" class="edge"><title>Node14&#45;&gt;Node11</title>
<path fill="none" stroke="midnightblue" d="M388.389,-137.018C367.313,-140.314 344.003,-143.401 323.461,-145.605"/>
<polygon fill="midnightblue" stroke="midnightblue" points="322.901,-142.144 313.309,-146.644 323.614,-149.108 322.901,-142.144"/>
</g>
</g>
</svg>
