<?xml version="1.0" encoding="UTF-8" standalone="no"?>
<!DOCTYPE svg PUBLIC "-//W3C//DTD SVG 1.1//EN"
 "http://www.w3.org/Graphics/SVG/1.1/DTD/svg11.dtd">
<!-- Generated by graphviz version 2.38.0 (20140413.2041)
 -->
<!-- Title: scram::mef::Model::ccf_groups Pages: 1 -->
<svg width="272pt" height="331pt"
 viewBox="0.00 0.00 272.00 330.50" xmlns="http://www.w3.org/2000/svg" xmlns:xlink="http://www.w3.org/1999/xlink">
<g id="graph0" class="graph" transform="scale(1 1) rotate(0) translate(4 326.5)">
<title>scram::mef::Model::ccf_groups</title>
<polygon fill="white" stroke="none" points="-4,4 -4,-326.5 268,-326.5 268,4 -4,4"/>
<!-- Node1 -->
<g id="node1" class="node"><title>Node1</title>
<polygon fill="#bfbfbf" stroke="black" points="0,-142.5 0,-172.5 104,-172.5 104,-142.5 0,-142.5"/>
<text text-anchor="start" x="8" y="-160.5" font-family="Helvetica,sans-Serif" font-size="10.00">scram::mef::Model::</text>
<text text-anchor="middle" x="52" y="-149.5" font-family="Helvetica,sans-Serif" font-size="10.00">ccf_groups</text>
</g>
<!-- Node2 -->
<g id="node2" class="node"><title>Node2</title>
<g id="a_node2"><a xlink:href="classscram_1_1mef_1_1Model.xhtml#a1ebc111c90194d255400e58a8ab02563" target="_top" xlink:title="Adds MEF constructs into the model container. ">
<polygon fill="white" stroke="black" points="141,-303 141,-322 263,-322 263,-303 141,-303"/>
<text text-anchor="middle" x="202" y="-310" font-family="Helvetica,sans-Serif" font-size="10.00">scram::mef::Model::Add</text>
</a>
</g>
</g>
<!-- Node1&#45;&gt;Node2 -->
<g id="edge1" class="edge"><title>Node1&#45;&gt;Node2</title>
<path fill="none" stroke="midnightblue" d="M58.5721,-172.629C69.6714,-200.677 97.2177,-260.854 140,-293.5 142.477,-295.39 145.146,-297.095 147.933,-298.631"/>
<polygon fill="midnightblue" stroke="midnightblue" points="146.616,-301.88 157.153,-302.988 149.607,-295.551 146.616,-301.88"/>
</g>
<!-- Node3 -->
<g id="node3" class="node"><title>Node3</title>
<g id="a_node3"><a xlink:href="classscram_1_1mef_1_1Model.xhtml#ae7266a6fb9b501538885c208dfc934f6" target="_top" xlink:title="Binds a formula with its argument event. ">
<polygon fill="white" stroke="black" points="150,-253.5 150,-283.5 254,-283.5 254,-253.5 150,-253.5"/>
<text text-anchor="start" x="158" y="-271.5" font-family="Helvetica,sans-Serif" font-size="10.00">scram::mef::Model::</text>
<text text-anchor="middle" x="202" y="-260.5" font-family="Helvetica,sans-Serif" font-size="10.00">BindEvent</text>
</a>
</g>
</g>
<!-- Node1&#45;&gt;Node3 -->
<g id="edge2" class="edge"><title>Node1&#45;&gt;Node3</title>
<path fill="none" stroke="midnightblue" d="M64.7587,-172.618C80.2269,-191.635 109.092,-224.245 140,-244.5 142.286,-245.998 144.68,-247.426 147.141,-248.785"/>
<polygon fill="midnightblue" stroke="midnightblue" points="145.773,-252.015 156.278,-253.397 148.928,-245.766 145.773,-252.015"/>
</g>
<!-- Node4 -->
<g id="node4" class="node"><title>Node4</title>
<g id="a_node4"><a xlink:href="classscram_1_1mef_1_1Model.xhtml#ab0ac16c0222b9718760e19a65e736093" target="_top" xlink:title="Finds an entity (parameter, basic and house event, gate) from a reference. ">
<polygon fill="white" stroke="black" points="150,-204.5 150,-234.5 254,-234.5 254,-204.5 150,-204.5"/>
<text text-anchor="start" x="158" y="-222.5" font-family="Helvetica,sans-Serif" font-size="10.00">scram::mef::Model::</text>
<text text-anchor="middle" x="202" y="-211.5" font-family="Helvetica,sans-Serif" font-size="10.00">GetBasicEvent</text>
</a>
</g>
</g>
<!-- Node1&#45;&gt;Node4 -->
<g id="edge3" class="edge"><title>Node1&#45;&gt;Node4</title>
<path fill="none" stroke="midnightblue" d="M88.0904,-172.548C103.928,-179.307 122.885,-187.354 140,-194.5 144.698,-196.462 149.606,-198.497 154.507,-200.52"/>
<polygon fill="midnightblue" stroke="midnightblue" points="153.291,-203.804 163.871,-204.374 155.956,-197.331 153.291,-203.804"/>
</g>
<!-- Node5 -->
<g id="node5" class="node"><title>Node5</title>
<g id="a_node5"><a xlink:href="element_8h.xhtml#a34a172bfae7e234836f4ca9cc55a193d" target="_top" xlink:title="Computes the full path of an element. ">
<polygon fill="white" stroke="black" points="140,-148 140,-167 264,-167 264,-148 140,-148"/>
<text text-anchor="middle" x="202" y="-155" font-family="Helvetica,sans-Serif" font-size="10.00">scram::mef::GetFullPath</text>
</a>
</g>
</g>
<!-- Node1&#45;&gt;Node5 -->
<g id="edge4" class="edge"><title>Node1&#45;&gt;Node5</title>
<path fill="none" stroke="midnightblue" d="M104.348,-157.5C112.569,-157.5 121.203,-157.5 129.786,-157.5"/>
<polygon fill="midnightblue" stroke="midnightblue" points="129.812,-161 139.812,-157.5 129.812,-154 129.812,-161"/>
</g>
<!-- Node6 -->
<g id="node6" class="node"><title>Node6</title>
<g id="a_node6"><a xlink:href="classscram_1_1mef_1_1Model.xhtml#ac100f59b5e4163a617b5d3b893afd3f9" target="_top" xlink:title="Finds an entity (parameter, basic and house event, gate) from a reference. ">
<polygon fill="white" stroke="black" points="150,-98.5 150,-128.5 254,-128.5 254,-98.5 150,-98.5"/>
<text text-anchor="start" x="158" y="-116.5" font-family="Helvetica,sans-Serif" font-size="10.00">scram::mef::Model::</text>
<text text-anchor="middle" x="202" y="-105.5" font-family="Helvetica,sans-Serif" font-size="10.00">GetGate</text>
</a>
</g>
</g>
<!-- Node1&#45;&gt;Node6 -->
<g id="edge6" class="edge"><title>Node1&#45;&gt;Node6</title>
<path fill="none" stroke="midnightblue" d="M103.519,-142.481C115.479,-138.925 128.351,-135.098 140.697,-131.428"/>
<polygon fill="midnightblue" stroke="midnightblue" points="141.869,-134.731 150.457,-128.526 139.875,-128.021 141.869,-134.731"/>
</g>
<!-- Node7 -->
<g id="node7" class="node"><title>Node7</title>
<g id="a_node7"><a xlink:href="classscram_1_1mef_1_1Model.xhtml#ad94f586b7fe8d530e74ca6188d76632f" target="_top" xlink:title="Finds an entity (parameter, basic and house event, gate) from a reference. ">
<polygon fill="white" stroke="black" points="150,-49.5 150,-79.5 254,-79.5 254,-49.5 150,-49.5"/>
<text text-anchor="start" x="158" y="-67.5" font-family="Helvetica,sans-Serif" font-size="10.00">scram::mef::Model::</text>
<text text-anchor="middle" x="202" y="-56.5" font-family="Helvetica,sans-Serif" font-size="10.00">GetHouseEvent</text>
</a>
</g>
</g>
<!-- Node1&#45;&gt;Node7 -->
<g id="edge7" class="edge"><title>Node1&#45;&gt;Node7</title>
<path fill="none" stroke="midnightblue" d="M69.3377,-142.483C86.123,-127.616 113.476,-104.905 140,-89.5 143.41,-87.5195 147.007,-85.6193 150.678,-83.8137"/>
<polygon fill="midnightblue" stroke="midnightblue" points="152.304,-86.9178 159.896,-79.5281 149.353,-80.5703 152.304,-86.9178"/>
</g>
<!-- Node8 -->
<g id="node8" class="node"><title>Node8</title>
<g id="a_node8"><a xlink:href="classscram_1_1mef_1_1Model.xhtml#a0ccac47c51f11484aed5e7cf3bdd73dd" target="_top" xlink:title="Finds an entity (parameter, basic and house event, gate) from a reference. ">
<polygon fill="white" stroke="black" points="150,-0.5 150,-30.5 254,-30.5 254,-0.5 150,-0.5"/>
<text text-anchor="start" x="158" y="-18.5" font-family="Helvetica,sans-Serif" font-size="10.00">scram::mef::Model::</text>
<text text-anchor="middle" x="202" y="-7.5" font-family="Helvetica,sans-Serif" font-size="10.00">GetParameter</text>
</a>
</g>
</g>
<!-- Node1&#45;&gt;Node8 -->
<g id="edge8" class="edge"><title>Node1&#45;&gt;Node8</title>
<path fill="none" stroke="midnightblue" d="M60.8285,-142.12C74.0485,-117.531 103.011,-69.2181 140,-40.5 142.288,-38.7233 144.721,-37.0536 147.246,-35.487"/>
<polygon fill="midnightblue" stroke="midnightblue" points="149.079,-38.4726 156.116,-30.5526 145.676,-32.3554 149.079,-38.4726"/>
</g>
<!-- Node5&#45;&gt;Node5 -->
<g id="edge5" class="edge"><title>Node5&#45;&gt;Node5</title>
<path fill="none" stroke="midnightblue" d="M178.881,-167.257C167.633,-176.065 175.34,-185.5 202,-185.5 219.496,-185.5 228.829,-181.437 229.999,-176.154"/>
<polygon fill="midnightblue" stroke="midnightblue" points="232.997,-174.342 225.119,-167.257 226.86,-177.708 232.997,-174.342"/>
</g>
</g>
</svg>
