<?xml version="1.0" encoding="UTF-8" standalone="no"?>
<!DOCTYPE svg PUBLIC "-//W3C//DTD SVG 1.1//EN"
 "http://www.w3.org/Graphics/SVG/1.1/DTD/svg11.dtd">
<!-- Generated by graphviz version 2.38.0 (20140413.2041)
 -->
<!-- Title: scram::core::Settings::algorithm Pages: 1 -->
<svg width="267pt" height="78pt"
 viewBox="0.00 0.00 267.00 77.50" xmlns="http://www.w3.org/2000/svg" xmlns:xlink="http://www.w3.org/1999/xlink">
<g id="graph0" class="graph" transform="scale(1 1) rotate(0) translate(4 73.5)">
<title>scram::core::Settings::algorithm</title>
<polygon fill="white" stroke="none" points="-4,4 -4,-73.5 263,-73.5 263,4 -4,4"/>
<!-- Node1 -->
<g id="node1" class="node"><title>Node1</title>
<polygon fill="#bfbfbf" stroke="black" points="0,-17 0,-47 110,-47 110,-17 0,-17"/>
<text text-anchor="start" x="8" y="-35" font-family="Helvetica,sans-Serif" font-size="10.00">scram::core::Settings</text>
<text text-anchor="middle" x="55" y="-24" font-family="Helvetica,sans-Serif" font-size="10.00">::algorithm</text>
</g>
<!-- Node2 -->
<g id="node2" class="node"><title>Node2</title>
<g id="a_node2"><a xlink:href="classscram_1_1core_1_1Settings.xhtml#aee3309daf6a5313bc1d90a664d9a668c" target="_top" xlink:title="Provides a convenient wrapper for algorithm setting from a string. ">
<polygon fill="white" stroke="black" points="147.5,-39 147.5,-69 257.5,-69 257.5,-39 147.5,-39"/>
<text text-anchor="start" x="155.5" y="-57" font-family="Helvetica,sans-Serif" font-size="10.00">scram::core::Settings</text>
<text text-anchor="middle" x="202.5" y="-46" font-family="Helvetica,sans-Serif" font-size="10.00">::algorithm</text>
</a>
</g>
</g>
<!-- Node1&#45;&gt;Node2 -->
<g id="edge1" class="edge"><title>Node1&#45;&gt;Node2</title>
<path fill="none" stroke="midnightblue" d="M120.256,-41.7156C129.274,-43.0793 138.469,-44.4695 147.276,-45.8012"/>
<polygon fill="midnightblue" stroke="midnightblue" points="120.59,-38.2264 110.179,-40.192 119.543,-45.1478 120.59,-38.2264"/>
</g>
<!-- Node3 -->
<g id="node3" class="node"><title>Node3</title>
<g id="a_node3"><a xlink:href="classscram_1_1Config.xhtml#ab0d7940fbb627fab9867821e133eab5d" target="_top" xlink:title="A constructor with configurations for analysis. ">
<polygon fill="white" stroke="black" points="146,-0.5 146,-19.5 259,-19.5 259,-0.5 146,-0.5"/>
<text text-anchor="middle" x="202.5" y="-7.5" font-family="Helvetica,sans-Serif" font-size="10.00">scram::Config::Config</text>
</a>
</g>
</g>
<!-- Node1&#45;&gt;Node3 -->
<g id="edge2" class="edge"><title>Node1&#45;&gt;Node3</title>
<path fill="none" stroke="midnightblue" d="M120.128,-22.3037C128.691,-21.009 137.415,-19.6898 145.818,-18.4193"/>
<polygon fill="midnightblue" stroke="midnightblue" points="119.543,-18.8522 110.179,-23.808 120.59,-25.7736 119.543,-18.8522"/>
</g>
</g>
</svg>
