<?xml version="1.0" encoding="UTF-8" standalone="no"?>
<!DOCTYPE svg PUBLIC "-//W3C//DTD SVG 1.1//EN"
 "http://www.w3.org/Graphics/SVG/1.1/DTD/svg11.dtd">
<!-- Generated by graphviz version 2.38.0 (20140413.2041)
 -->
<!-- Title: scram::core::Zbdd::GatherModules Pages: 1 -->
<svg width="484pt" height="567pt"
 viewBox="0.00 0.00 484.00 567.00" xmlns="http://www.w3.org/2000/svg" xmlns:xlink="http://www.w3.org/1999/xlink">
<g id="graph0" class="graph" transform="scale(1 1) rotate(0) translate(4 563)">
<title>scram::core::Zbdd::GatherModules</title>
<polygon fill="white" stroke="none" points="-4,4 -4,-563 480,-563 480,4 -4,4"/>
<!-- Node1 -->
<g id="node1" class="node"><title>Node1</title>
<polygon fill="#bfbfbf" stroke="black" points="0,-267.5 0,-297.5 102,-297.5 102,-267.5 0,-267.5"/>
<text text-anchor="start" x="8" y="-285.5" font-family="Helvetica,sans-Serif" font-size="10.00">scram::core::Zbdd::</text>
<text text-anchor="middle" x="51" y="-274.5" font-family="Helvetica,sans-Serif" font-size="10.00">GatherModules</text>
</g>
<!-- Node2 -->
<g id="node2" class="node"><title>Node2</title>
<g id="a_node2"><a xlink:href="classscram_1_1core_1_1NonTerminal.xhtml#adcdd0c5114aa6a1d32a03928adc07c49" target="_top" xlink:title="scram::core::NonTerminal\l::coherent">
<polygon fill="white" stroke="black" points="335.5,-528.5 335.5,-558.5 465.5,-558.5 465.5,-528.5 335.5,-528.5"/>
<text text-anchor="start" x="343.5" y="-546.5" font-family="Helvetica,sans-Serif" font-size="10.00">scram::core::NonTerminal</text>
<text text-anchor="middle" x="400.5" y="-535.5" font-family="Helvetica,sans-Serif" font-size="10.00">::coherent</text>
</a>
</g>
</g>
<!-- Node1&#45;&gt;Node2 -->
<g id="edge1" class="edge"><title>Node1&#45;&gt;Node2</title>
<path fill="none" stroke="midnightblue" d="M52.8092,-297.776C55.8764,-338.935 70.377,-452.662 138,-506.5 190.451,-548.259 268.297,-554.386 325.416,-551.961"/>
<polygon fill="midnightblue" stroke="midnightblue" points="325.665,-555.453 335.47,-551.438 325.302,-548.462 325.665,-555.453"/>
</g>
<!-- Node3 -->
<g id="node3" class="node"><title>Node3</title>
<g id="a_node3"><a xlink:href="classscram_1_1core_1_1SetNode.xhtml#a687ac81766268cd0094acbfcd7c26af0" target="_top" xlink:title="scram::core::SetNode\l::count">
<polygon fill="white" stroke="black" points="157,-245.5 157,-275.5 270,-275.5 270,-245.5 157,-245.5"/>
<text text-anchor="start" x="165" y="-263.5" font-family="Helvetica,sans-Serif" font-size="10.00">scram::core::SetNode</text>
<text text-anchor="middle" x="213.5" y="-252.5" font-family="Helvetica,sans-Serif" font-size="10.00">::count</text>
</a>
</g>
</g>
<!-- Node1&#45;&gt;Node3 -->
<g id="edge2" class="edge"><title>Node1&#45;&gt;Node3</title>
<path fill="none" stroke="midnightblue" d="M102.343,-275.599C116.386,-273.675 131.854,-271.554 146.647,-269.527"/>
<polygon fill="midnightblue" stroke="midnightblue" points="147.324,-272.967 156.756,-268.141 146.373,-266.032 147.324,-272.967"/>
</g>
<!-- Node4 -->
<g id="node4" class="node"><title>Node4</title>
<g id="a_node4"><a xlink:href="classscram_1_1core_1_1NonTerminal.xhtml#a7b184b2ba68a289aae9f3737f1d13b97" target="_top" xlink:title="scram::core::NonTerminal\l::high">
<polygon fill="white" stroke="black" points="335.5,-479.5 335.5,-509.5 465.5,-509.5 465.5,-479.5 335.5,-479.5"/>
<text text-anchor="start" x="343.5" y="-497.5" font-family="Helvetica,sans-Serif" font-size="10.00">scram::core::NonTerminal</text>
<text text-anchor="middle" x="400.5" y="-486.5" font-family="Helvetica,sans-Serif" font-size="10.00">::high</text>
</a>
</g>
</g>
<!-- Node1&#45;&gt;Node4 -->
<g id="edge3" class="edge"><title>Node1&#45;&gt;Node4</title>
<path fill="none" stroke="midnightblue" d="M53.5866,-297.557C58.418,-335 76.6019,-432.398 138,-475.5 192.124,-513.495 269.033,-514.485 325.436,-508.234"/>
<polygon fill="midnightblue" stroke="midnightblue" points="325.856,-511.709 335.365,-507.037 325.017,-504.76 325.856,-511.709"/>
</g>
<!-- Node5 -->
<g id="node5" class="node"><title>Node5</title>
<g id="a_node5"><a xlink:href="classscram_1_1core_1_1NonTerminal.xhtml#aeeaafd82ae5890a7ec3462c68ffc8628" target="_top" xlink:title="scram::core::NonTerminal\l::index">
<polygon fill="white" stroke="black" points="335.5,-430.5 335.5,-460.5 465.5,-460.5 465.5,-430.5 335.5,-430.5"/>
<text text-anchor="start" x="343.5" y="-448.5" font-family="Helvetica,sans-Serif" font-size="10.00">scram::core::NonTerminal</text>
<text text-anchor="middle" x="400.5" y="-437.5" font-family="Helvetica,sans-Serif" font-size="10.00">::index</text>
</a>
</g>
</g>
<!-- Node1&#45;&gt;Node5 -->
<g id="edge4" class="edge"><title>Node1&#45;&gt;Node5</title>
<path fill="none" stroke="midnightblue" d="M54.4535,-297.587C60.9366,-331.885 82.0362,-415.371 138,-449.5 199.619,-487.078 285.537,-476.448 341.821,-462.988"/>
<polygon fill="midnightblue" stroke="midnightblue" points="342.771,-466.359 351.627,-460.543 341.077,-459.567 342.771,-466.359"/>
</g>
<!-- Node6 -->
<g id="node6" class="node"><title>Node6</title>
<g id="a_node6"><a xlink:href="classscram_1_1core_1_1Settings.xhtml#a0e43ec0f017d23a4fa4e376c4060d380" target="_top" xlink:title="scram::core::Settings\l::limit_order">
<polygon fill="white" stroke="black" points="158.5,-196.5 158.5,-226.5 268.5,-226.5 268.5,-196.5 158.5,-196.5"/>
<text text-anchor="start" x="166.5" y="-214.5" font-family="Helvetica,sans-Serif" font-size="10.00">scram::core::Settings</text>
<text text-anchor="middle" x="213.5" y="-203.5" font-family="Helvetica,sans-Serif" font-size="10.00">::limit_order</text>
</a>
</g>
</g>
<!-- Node1&#45;&gt;Node6 -->
<g id="edge5" class="edge"><title>Node1&#45;&gt;Node6</title>
<path fill="none" stroke="midnightblue" d="M76.5895,-267.441C93.4599,-257.517 116.584,-244.704 138,-235.5 142.448,-233.589 147.1,-231.744 151.814,-229.986"/>
<polygon fill="midnightblue" stroke="midnightblue" points="153.3,-233.171 161.532,-226.502 150.937,-226.582 153.3,-233.171"/>
</g>
<!-- Node7 -->
<g id="node7" class="node"><title>Node7</title>
<g id="a_node7"><a xlink:href="classscram_1_1core_1_1NonTerminal.xhtml#adeb100923176ebd5f820c75b79280796" target="_top" xlink:title="scram::core::NonTerminal::low">
<polygon fill="white" stroke="black" points="325,-391 325,-410 476,-410 476,-391 325,-391"/>
<text text-anchor="middle" x="400.5" y="-398" font-family="Helvetica,sans-Serif" font-size="10.00">scram::core::NonTerminal::low</text>
</a>
</g>
</g>
<!-- Node1&#45;&gt;Node7 -->
<g id="edge6" class="edge"><title>Node1&#45;&gt;Node7</title>
<path fill="none" stroke="midnightblue" d="M72.5703,-297.709C89.4049,-309.516 114.234,-325.509 138,-335.5 200.189,-361.644 275.292,-378.959 329.027,-389.096"/>
<polygon fill="midnightblue" stroke="midnightblue" points="328.672,-392.59 339.141,-390.967 329.945,-385.707 328.672,-392.59"/>
</g>
<!-- Node8 -->
<g id="node8" class="node"><title>Node8</title>
<g id="a_node8"><a xlink:href="classscram_1_1core_1_1NonTerminal.xhtml#a7b70ab1b978f3197458c95e0891fd79c" target="_top" xlink:title="scram::core::NonTerminal\l::mark">
<polygon fill="white" stroke="black" points="148.5,-147.5 148.5,-177.5 278.5,-177.5 278.5,-147.5 148.5,-147.5"/>
<text text-anchor="start" x="156.5" y="-165.5" font-family="Helvetica,sans-Serif" font-size="10.00">scram::core::NonTerminal</text>
<text text-anchor="middle" x="213.5" y="-154.5" font-family="Helvetica,sans-Serif" font-size="10.00">::mark</text>
</a>
</g>
</g>
<!-- Node1&#45;&gt;Node8 -->
<g id="edge7" class="edge"><title>Node1&#45;&gt;Node8</title>
<path fill="none" stroke="midnightblue" d="M61.7831,-267.236C76.067,-246.131 104.596,-208.193 138,-186.5 140.457,-184.904 143.029,-183.407 145.679,-182.003"/>
<polygon fill="midnightblue" stroke="midnightblue" points="147.42,-185.05 154.935,-177.581 144.403,-178.734 147.42,-185.05"/>
</g>
<!-- Node9 -->
<g id="node9" class="node"><title>Node9</title>
<g id="a_node9"><a xlink:href="classscram_1_1core_1_1SetNode.xhtml#a88d05af2b9f4f08b7bc66a31c2b9e249" target="_top" xlink:title="scram::core::SetNode\l::minimal">
<polygon fill="white" stroke="black" points="157,-98.5 157,-128.5 270,-128.5 270,-98.5 157,-98.5"/>
<text text-anchor="start" x="165" y="-116.5" font-family="Helvetica,sans-Serif" font-size="10.00">scram::core::SetNode</text>
<text text-anchor="middle" x="213.5" y="-105.5" font-family="Helvetica,sans-Serif" font-size="10.00">::minimal</text>
</a>
</g>
</g>
<!-- Node1&#45;&gt;Node9 -->
<g id="edge8" class="edge"><title>Node1&#45;&gt;Node9</title>
<path fill="none" stroke="midnightblue" d="M56.8803,-267.337C67.1153,-237.926 93.6199,-172.918 138,-137.5 141.078,-135.043 144.415,-132.835 147.911,-130.851"/>
<polygon fill="midnightblue" stroke="midnightblue" points="149.499,-133.97 156.876,-126.365 146.367,-127.71 149.499,-133.97"/>
</g>
<!-- Node10 -->
<g id="node10" class="node"><title>Node10</title>
<g id="a_node10"><a xlink:href="classscram_1_1core_1_1NonTerminal.xhtml#a9230422e92d086c34f67bcb864bfc8a9" target="_top" xlink:title="scram::core::NonTerminal\l::module">
<polygon fill="white" stroke="black" points="335.5,-340.5 335.5,-370.5 465.5,-370.5 465.5,-340.5 335.5,-340.5"/>
<text text-anchor="start" x="343.5" y="-358.5" font-family="Helvetica,sans-Serif" font-size="10.00">scram::core::NonTerminal</text>
<text text-anchor="middle" x="400.5" y="-347.5" font-family="Helvetica,sans-Serif" font-size="10.00">::module</text>
</a>
</g>
</g>
<!-- Node1&#45;&gt;Node10 -->
<g id="edge9" class="edge"><title>Node1&#45;&gt;Node10</title>
<path fill="none" stroke="midnightblue" d="M100.437,-297.512C112.634,-301.034 125.744,-304.602 138,-307.5 200.771,-322.344 272.933,-335.285 325.53,-343.978"/>
<polygon fill="midnightblue" stroke="midnightblue" points="325.013,-347.44 335.447,-345.605 326.146,-340.532 325.013,-347.44"/>
</g>
<!-- Node11 -->
<g id="node11" class="node"><title>Node11</title>
<g id="a_node11"><a xlink:href="classscram_1_1core_1_1Zbdd.xhtml#aed1eaa96df30e6eaa32e9e51427c9743" target="_top" xlink:title="scram::core::Zbdd::\lmodules">
<polygon fill="white" stroke="black" points="162.5,-409.5 162.5,-439.5 264.5,-439.5 264.5,-409.5 162.5,-409.5"/>
<text text-anchor="start" x="170.5" y="-427.5" font-family="Helvetica,sans-Serif" font-size="10.00">scram::core::Zbdd::</text>
<text text-anchor="middle" x="213.5" y="-416.5" font-family="Helvetica,sans-Serif" font-size="10.00">modules</text>
</a>
</g>
</g>
<!-- Node1&#45;&gt;Node11 -->
<g id="edge10" class="edge"><title>Node1&#45;&gt;Node11</title>
<path fill="none" stroke="midnightblue" d="M60.0561,-297.622C73.3635,-321.297 102.073,-367.223 138,-394.5 143.101,-398.373 148.771,-401.822 154.64,-404.875"/>
<polygon fill="midnightblue" stroke="midnightblue" points="153.445,-408.183 163.975,-409.349 156.471,-401.871 153.445,-408.183"/>
</g>
<!-- Node12 -->
<g id="node12" class="node"><title>Node12</title>
<g id="a_node12"><a xlink:href="classscram_1_1core_1_1NonTerminal.xhtml#af5853746ad388f479a7aa45c5d843466" target="_top" xlink:title="scram::core::NonTerminal\l\&lt; SetNode \&gt;::order">
<polygon fill="white" stroke="black" points="335.5,-289.5 335.5,-319.5 465.5,-319.5 465.5,-289.5 335.5,-289.5"/>
<text text-anchor="start" x="343.5" y="-307.5" font-family="Helvetica,sans-Serif" font-size="10.00">scram::core::NonTerminal</text>
<text text-anchor="middle" x="400.5" y="-296.5" font-family="Helvetica,sans-Serif" font-size="10.00">&lt; SetNode &gt;::order</text>
</a>
</g>
</g>
<!-- Node1&#45;&gt;Node12 -->
<g id="edge17" class="edge"><title>Node1&#45;&gt;Node12</title>
<path fill="none" stroke="midnightblue" d="M102.158,-285.675C160.708,-289.382 258.08,-295.547 325.36,-299.806"/>
<polygon fill="midnightblue" stroke="midnightblue" points="325.273,-303.308 335.474,-300.447 325.715,-296.322 325.273,-303.308"/>
</g>
<!-- Node13 -->
<g id="node13" class="node"><title>Node13</title>
<g id="a_node13"><a xlink:href="structscram_1_1core_1_1IntrusivePtrCast.xhtml#af153c12dc6133b7d9f9b7a57bba29f1d" target="_top" xlink:title="scram::core::IntrusivePtr\lCast\&lt; T, Terminal\&lt; T \&gt; \&gt;::Ref">
<polygon fill="white" stroke="black" points="138,-49.5 138,-79.5 289,-79.5 289,-49.5 138,-49.5"/>
<text text-anchor="start" x="146" y="-67.5" font-family="Helvetica,sans-Serif" font-size="10.00">scram::core::IntrusivePtr</text>
<text text-anchor="middle" x="213.5" y="-56.5" font-family="Helvetica,sans-Serif" font-size="10.00">Cast&lt; T, Terminal&lt; T &gt; &gt;::Ref</text>
</a>
</g>
</g>
<!-- Node1&#45;&gt;Node13 -->
<g id="edge18" class="edge"><title>Node1&#45;&gt;Node13</title>
<path fill="none" stroke="midnightblue" d="M53.6806,-267.483C59.0093,-231.269 78.3601,-140.164 130.446,-86.7617"/>
<polygon fill="midnightblue" stroke="midnightblue" points="132.892,-89.2656 137.662,-79.8052 128.033,-84.2263 132.892,-89.2656"/>
</g>
<!-- Node1&#45;&gt;Node13 -->
<g id="edge19" class="edge"><title>Node1&#45;&gt;Node13</title>
<path fill="none" stroke="midnightblue" d="M55.3396,-267.369C62.8742,-232.064 84.864,-145.301 138,-97.5 144.9,-91.2932 153.42,-86.6899 162.206,-83.1055"/>
<polygon fill="midnightblue" stroke="midnightblue" points="163.6,-86.3223 171.779,-79.5883 161.186,-79.7517 163.6,-86.3223"/>
</g>
<!-- Node14 -->
<g id="node14" class="node"><title>Node14</title>
<g id="a_node14"><a xlink:href="classscram_1_1core_1_1Terminal.xhtml#a7a25b0b40498f4876571a5dac4e724c3" target="_top" xlink:title="scram::core::Terminal\l::value">
<polygon fill="white" stroke="black" points="157.5,-0.5 157.5,-30.5 269.5,-30.5 269.5,-0.5 157.5,-0.5"/>
<text text-anchor="start" x="165.5" y="-18.5" font-family="Helvetica,sans-Serif" font-size="10.00">scram::core::Terminal</text>
<text text-anchor="middle" x="213.5" y="-7.5" font-family="Helvetica,sans-Serif" font-size="10.00">::value</text>
</a>
</g>
</g>
<!-- Node1&#45;&gt;Node14 -->
<g id="edge20" class="edge"><title>Node1&#45;&gt;Node14</title>
<path fill="none" stroke="midnightblue" d="M52.8728,-267.223C56.1228,-224.823 71.0883,-104.531 138,-39.5 141.07,-36.5167 144.512,-33.9043 148.188,-31.6165"/>
<polygon fill="midnightblue" stroke="midnightblue" points="149.953,-34.6421 157.127,-26.846 146.657,-28.4665 149.953,-34.6421"/>
</g>
<!-- Node11&#45;&gt;Node2 -->
<g id="edge11" class="edge"><title>Node11&#45;&gt;Node2</title>
<path fill="none" stroke="midnightblue" d="M228.415,-439.802C248.068,-460.573 285.938,-497.605 325,-519.5 328.212,-521.3 331.578,-522.988 335.03,-524.567"/>
<polygon fill="midnightblue" stroke="midnightblue" points="333.748,-527.825 344.322,-528.497 336.475,-521.378 333.748,-527.825"/>
</g>
<!-- Node11&#45;&gt;Node4 -->
<g id="edge12" class="edge"><title>Node11&#45;&gt;Node4</title>
<path fill="none" stroke="midnightblue" d="M248.555,-439.535C270.255,-448.901 299.067,-460.944 325,-470.5 330.18,-472.409 335.592,-474.316 341.032,-476.174"/>
<polygon fill="midnightblue" stroke="midnightblue" points="340.216,-479.592 350.81,-479.456 342.443,-472.956 340.216,-479.592"/>
</g>
<!-- Node11&#45;&gt;Node5 -->
<g id="edge13" class="edge"><title>Node11&#45;&gt;Node5</title>
<path fill="none" stroke="midnightblue" d="M264.564,-430.183C283.238,-432.303 304.859,-434.757 325.248,-437.071"/>
<polygon fill="midnightblue" stroke="midnightblue" points="325.126,-440.58 335.457,-438.23 325.916,-433.625 325.126,-440.58"/>
</g>
<!-- Node11&#45;&gt;Node7 -->
<g id="edge14" class="edge"><title>Node11&#45;&gt;Node7</title>
<path fill="none" stroke="midnightblue" d="M264.564,-418.005C280.397,-415.951 298.348,-413.622 315.87,-411.349"/>
<polygon fill="midnightblue" stroke="midnightblue" points="316.652,-414.777 326.118,-410.02 315.751,-407.835 316.652,-414.777"/>
</g>
<!-- Node11&#45;&gt;Node10 -->
<g id="edge15" class="edge"><title>Node11&#45;&gt;Node10</title>
<path fill="none" stroke="midnightblue" d="M252.219,-409.442C273.517,-401.035 300.666,-390.478 325,-381.5 331.804,-378.99 338.979,-376.406 346.082,-373.886"/>
<polygon fill="midnightblue" stroke="midnightblue" points="347.413,-377.129 355.68,-370.503 345.086,-370.527 347.413,-377.129"/>
</g>
<!-- Node11&#45;&gt;Node12 -->
<g id="edge16" class="edge"><title>Node11&#45;&gt;Node12</title>
<path fill="none" stroke="midnightblue" d="M228.932,-409.395C248.886,-389.249 286.783,-353.567 325,-331.5 330.037,-328.591 335.443,-325.907 340.958,-323.452"/>
<polygon fill="midnightblue" stroke="midnightblue" points="342.426,-326.632 350.296,-319.538 339.72,-320.176 342.426,-326.632"/>
</g>
<!-- Node15 -->
<g id="node15" class="node"><title>Node15</title>
<g id="a_node15"><a xlink:href="classscram_1_1core_1_1Vertex.xhtml#a8a4a6e9871c7b80b9951fea57617d438" target="_top" xlink:title="scram::core::Vertex::id">
<polygon fill="white" stroke="black" points="342.5,-6 342.5,-25 458.5,-25 458.5,-6 342.5,-6"/>
<text text-anchor="middle" x="400.5" y="-13" font-family="Helvetica,sans-Serif" font-size="10.00">scram::core::Vertex::id</text>
</a>
</g>
</g>
<!-- Node14&#45;&gt;Node15 -->
<g id="edge21" class="edge"><title>Node14&#45;&gt;Node15</title>
<path fill="none" stroke="midnightblue" d="M269.505,-15.5C289.186,-15.5 311.593,-15.5 332.195,-15.5"/>
<polygon fill="midnightblue" stroke="midnightblue" points="332.461,-19.0001 342.461,-15.5 332.461,-12.0001 332.461,-19.0001"/>
</g>
</g>
</svg>
