<?xml version="1.0" encoding="UTF-8" standalone="no"?>
<!DOCTYPE svg PUBLIC "-//W3C//DTD SVG 1.1//EN"
 "http://www.w3.org/Graphics/SVG/1.1/DTD/svg11.dtd">
<!-- Generated by graphviz version 2.38.0 (20140413.2041)
 -->
<!-- Title: scram::core::Preprocessor::DecomposeCommonNodes Pages: 1 -->
<svg width="475pt" height="215pt"
 viewBox="0.00 0.00 475.00 215.00" xmlns="http://www.w3.org/2000/svg" xmlns:xlink="http://www.w3.org/1999/xlink">
<g id="graph0" class="graph" transform="scale(1 1) rotate(0) translate(4 211)">
<title>scram::core::Preprocessor::DecomposeCommonNodes</title>
<polygon fill="white" stroke="none" points="-4,4 -4,-211 471,-211 471,4 -4,4"/>
<!-- Node1 -->
<g id="node1" class="node"><title>Node1</title>
<polygon fill="#bfbfbf" stroke="black" points="0,-88.5 0,-118.5 143,-118.5 143,-88.5 0,-88.5"/>
<text text-anchor="start" x="8" y="-106.5" font-family="Helvetica,sans-Serif" font-size="10.00">scram::core::Preprocessor</text>
<text text-anchor="middle" x="71.5" y="-95.5" font-family="Helvetica,sans-Serif" font-size="10.00">::DecomposeCommonNodes</text>
</g>
<!-- Node2 -->
<g id="node2" class="node"><title>Node2</title>
<g id="a_node2"><a xlink:href="classscram_1_1core_1_1Preprocessor.xhtml#ac83a0afe1f22761907f2a017abd96268" target="_top" xlink:title="Traverses the given gate and assigns time of visit to nodes. ">
<polygon fill="white" stroke="black" points="179,-176.5 179,-206.5 311,-206.5 311,-176.5 179,-176.5"/>
<text text-anchor="start" x="187" y="-194.5" font-family="Helvetica,sans-Serif" font-size="10.00">scram::core::Preprocessor</text>
<text text-anchor="middle" x="245" y="-183.5" font-family="Helvetica,sans-Serif" font-size="10.00">::AssignTiming</text>
</a>
</g>
</g>
<!-- Node1&#45;&gt;Node2 -->
<g id="edge1" class="edge"><title>Node1&#45;&gt;Node2</title>
<path fill="none" stroke="midnightblue" d="M98.9398,-118.534C120.334,-130.545 151.345,-147.607 179,-161.5 186.028,-165.031 193.553,-168.649 200.9,-172.096"/>
<polygon fill="midnightblue" stroke="midnightblue" points="199.517,-175.312 210.061,-176.351 202.466,-168.964 199.517,-175.312"/>
</g>
<!-- Node3 -->
<g id="node3" class="node"><title>Node3</title>
<g id="a_node3"><a xlink:href="classscram_1_1core_1_1Pdag.xhtml#aa883d0e58b9faab69186bec03574c633" target="_top" xlink:title="Clears marks from graph nodes. ">
<polygon fill="white" stroke="black" points="355.5,-154.5 355.5,-184.5 458.5,-184.5 458.5,-154.5 355.5,-154.5"/>
<text text-anchor="start" x="363.5" y="-172.5" font-family="Helvetica,sans-Serif" font-size="10.00">scram::core::Pdag::</text>
<text text-anchor="middle" x="407" y="-161.5" font-family="Helvetica,sans-Serif" font-size="10.00">Clear</text>
</a>
</g>
</g>
<!-- Node1&#45;&gt;Node3 -->
<g id="edge2" class="edge"><title>Node1&#45;&gt;Node3</title>
<path fill="none" stroke="midnightblue" d="M137.464,-118.56C151.161,-121.617 165.539,-124.739 179,-127.5 235.211,-139.029 299.549,-150.799 345.342,-158.935"/>
<polygon fill="midnightblue" stroke="midnightblue" points="344.945,-162.419 355.402,-160.717 346.166,-155.526 344.945,-162.419"/>
</g>
<!-- Node4 -->
<g id="node4" class="node"><title>Node4</title>
<g id="a_node4"><a xlink:href="classscram_1_1core_1_1Preprocessor.xhtml#a394fb1b5b5f9ee31dc81ad8d64353ee3" target="_top" xlink:title="Traverses the graph to find nodes that have more than one parent. ">
<polygon fill="white" stroke="black" points="179,-88.5 179,-118.5 311,-118.5 311,-88.5 179,-88.5"/>
<text text-anchor="start" x="187" y="-106.5" font-family="Helvetica,sans-Serif" font-size="10.00">scram::core::Preprocessor</text>
<text text-anchor="middle" x="245" y="-95.5" font-family="Helvetica,sans-Serif" font-size="10.00">::GatherCommonNodes</text>
</a>
</g>
</g>
<!-- Node1&#45;&gt;Node4 -->
<g id="edge3" class="edge"><title>Node1&#45;&gt;Node4</title>
<path fill="none" stroke="midnightblue" d="M143.246,-103.5C151.642,-103.5 160.237,-103.5 168.694,-103.5"/>
<polygon fill="midnightblue" stroke="midnightblue" points="168.919,-107 178.919,-103.5 168.919,-100 168.919,-107"/>
</g>
<!-- Node6 -->
<g id="node6" class="node"><title>Node6</title>
<g id="a_node6"><a xlink:href="classscram_1_1core_1_1Pdag.xhtml#ae9407efbb00e5f28aecb40db2ab7925b" target="_top" xlink:title="scram::core::Pdag::root">
<polygon fill="white" stroke="black" points="347.5,-28 347.5,-47 466.5,-47 466.5,-28 347.5,-28"/>
<text text-anchor="middle" x="407" y="-35" font-family="Helvetica,sans-Serif" font-size="10.00">scram::core::Pdag::root</text>
</a>
</g>
</g>
<!-- Node1&#45;&gt;Node6 -->
<g id="edge9" class="edge"><title>Node1&#45;&gt;Node6</title>
<path fill="none" stroke="midnightblue" d="M134.046,-88.4798C148.743,-85.0518 164.402,-81.5295 179,-78.5 232.406,-67.4164 293.238,-56.5212 338.478,-48.7511"/>
<polygon fill="midnightblue" stroke="midnightblue" points="339.198,-52.1789 348.465,-47.0431 338.018,-45.2791 339.198,-52.1789"/>
</g>
<!-- Node8 -->
<g id="node8" class="node"><title>Node8</title>
<g id="a_node8"><a xlink:href="classscram_1_1core_1_1Pdag.xhtml#aa43a9026583f7a629fe0a3f17440f55b" target="_top" xlink:title="scram::core::Pdag::\lHasNullGates">
<polygon fill="white" stroke="black" points="193.5,-0.5 193.5,-30.5 296.5,-30.5 296.5,-0.5 193.5,-0.5"/>
<text text-anchor="start" x="201.5" y="-18.5" font-family="Helvetica,sans-Serif" font-size="10.00">scram::core::Pdag::</text>
<text text-anchor="middle" x="245" y="-7.5" font-family="Helvetica,sans-Serif" font-size="10.00">HasNullGates</text>
</a>
</g>
</g>
<!-- Node1&#45;&gt;Node8 -->
<g id="edge8" class="edge"><title>Node1&#45;&gt;Node8</title>
<path fill="none" stroke="midnightblue" d="M98.9398,-88.4658C120.334,-76.4553 151.345,-59.3934 179,-45.5 186.028,-41.9693 193.553,-38.351 200.9,-34.9041"/>
<polygon fill="midnightblue" stroke="midnightblue" points="202.466,-38.0362 210.061,-30.6493 199.517,-31.6876 202.466,-38.0362"/>
</g>
<!-- Node4&#45;&gt;Node3 -->
<g id="edge5" class="edge"><title>Node4&#45;&gt;Node3</title>
<path fill="none" stroke="midnightblue" d="M282.707,-118.642C305.676,-128.116 335.458,-140.401 359.997,-150.524"/>
<polygon fill="midnightblue" stroke="midnightblue" points="358.884,-153.851 369.464,-154.429 361.554,-147.38 358.884,-153.851"/>
</g>
<!-- Node5 -->
<g id="node5" class="node"><title>Node5</title>
<g id="a_node5"><a xlink:href="classscram_1_1core_1_1Gate.xhtml#aa793eeaa12244c5b39a0d80e5b1518ae" target="_top" xlink:title="scram::core::Gate::args">
<polygon fill="white" stroke="black" points="347,-116 347,-135 467,-135 467,-116 347,-116"/>
<text text-anchor="middle" x="407" y="-123" font-family="Helvetica,sans-Serif" font-size="10.00">scram::core::Gate::args</text>
</a>
</g>
</g>
<!-- Node4&#45;&gt;Node5 -->
<g id="edge4" class="edge"><title>Node4&#45;&gt;Node5</title>
<path fill="none" stroke="midnightblue" d="M311.078,-112.448C319.597,-113.62 328.351,-114.823 336.933,-116.003"/>
<polygon fill="midnightblue" stroke="midnightblue" points="336.521,-119.48 346.905,-117.374 337.475,-112.545 336.521,-119.48"/>
</g>
<!-- Node4&#45;&gt;Node6 -->
<g id="edge6" class="edge"><title>Node4&#45;&gt;Node6</title>
<path fill="none" stroke="midnightblue" d="M278.76,-88.448C289.084,-83.686 300.527,-78.3897 311,-73.5 327.033,-66.0147 330.544,-63.0034 347,-56.5 352.514,-54.321 358.387,-52.1998 364.209,-50.2126"/>
<polygon fill="midnightblue" stroke="midnightblue" points="365.495,-53.4739 373.888,-47.0081 363.294,-46.8287 365.495,-53.4739"/>
</g>
<!-- Node7 -->
<g id="node7" class="node"><title>Node7</title>
<g id="a_node7"><a xlink:href="classscram_1_1core_1_1Node.xhtml#a54799feee1f1e91f848d11f3918e3e88" target="_top" xlink:title="Registers the visit time for this node upon graph traversal. ">
<polygon fill="white" stroke="black" points="355,-66.5 355,-96.5 459,-96.5 459,-66.5 355,-66.5"/>
<text text-anchor="start" x="363" y="-84.5" font-family="Helvetica,sans-Serif" font-size="10.00">scram::core::Node::</text>
<text text-anchor="middle" x="407" y="-73.5" font-family="Helvetica,sans-Serif" font-size="10.00">Visit</text>
</a>
</g>
</g>
<!-- Node4&#45;&gt;Node7 -->
<g id="edge7" class="edge"><title>Node4&#45;&gt;Node7</title>
<path fill="none" stroke="midnightblue" d="M311.078,-94.5518C322.206,-93.0216 333.734,-91.4366 344.758,-89.9208"/>
<polygon fill="midnightblue" stroke="midnightblue" points="345.285,-93.3814 354.715,-88.5517 344.331,-86.4466 345.285,-93.3814"/>
</g>
</g>
</svg>
