<?xml version="1.0" encoding="UTF-8" standalone="no"?>
<!DOCTYPE svg PUBLIC "-//W3C//DTD SVG 1.1//EN"
 "http://www.w3.org/Graphics/SVG/1.1/DTD/svg11.dtd">
<!-- Generated by graphviz version 2.38.0 (20140413.2041)
 -->
<!-- Title: scram::core::ProductContainer::empty Pages: 1 -->
<svg width="676pt" height="137pt"
 viewBox="0.00 0.00 676.00 137.00" xmlns="http://www.w3.org/2000/svg" xmlns:xlink="http://www.w3.org/1999/xlink">
<g id="graph0" class="graph" transform="scale(1 1) rotate(0) translate(4 133)">
<title>scram::core::ProductContainer::empty</title>
<polygon fill="white" stroke="none" points="-4,4 -4,-133 672,-133 672,4 -4,4"/>
<!-- Node1 -->
<g id="node1" class="node"><title>Node1</title>
<polygon fill="#bfbfbf" stroke="black" points="0,-24.5 0,-54.5 150,-54.5 150,-24.5 0,-24.5"/>
<text text-anchor="start" x="8" y="-42.5" font-family="Helvetica,sans-Serif" font-size="10.00">scram::core::ProductContainer</text>
<text text-anchor="middle" x="75" y="-31.5" font-family="Helvetica,sans-Serif" font-size="10.00">::empty</text>
</g>
<!-- Node2 -->
<g id="node2" class="node"><title>Node2</title>
<g id="a_node2"><a xlink:href="fault__tree__analysis_8cc.xhtml#af405213a7ee34a3dd833ce5298983b04" target="_top" xlink:title="Prints a collection of products to the standard error. ">
<polygon fill="white" stroke="black" points="186,-30 186,-49 281,-49 281,-30 186,-30"/>
<text text-anchor="middle" x="233.5" y="-37" font-family="Helvetica,sans-Serif" font-size="10.00">scram::core::Print</text>
</a>
</g>
</g>
<!-- Node1&#45;&gt;Node2 -->
<g id="edge1" class="edge"><title>Node1&#45;&gt;Node2</title>
<path fill="none" stroke="midnightblue" d="M160.396,-39.5C169.128,-39.5 177.757,-39.5 185.845,-39.5"/>
<polygon fill="midnightblue" stroke="midnightblue" points="160.125,-36.0001 150.125,-39.5 160.125,-43.0001 160.125,-36.0001"/>
</g>
<!-- Node2&#45;&gt;Node2 -->
<g id="edge5" class="edge"><title>Node2&#45;&gt;Node2</title>
<path fill="none" stroke="midnightblue" d="M204.008,-58.1539C205.24,-63.4368 215.071,-67.5 233.5,-67.5 261.582,-67.5 269.699,-58.0653 257.852,-49.2571"/>
<polygon fill="midnightblue" stroke="midnightblue" points="207.176,-59.6668 209.148,-49.2571 201.114,-56.165 207.176,-59.6668"/>
</g>
<!-- Node3 -->
<g id="node3" class="node"><title>Node3</title>
<g id="a_node3"><a xlink:href="classscram_1_1core_1_1FaultTreeAnalysis.xhtml#a327afc0524cff5289c3887357487266b" target="_top" xlink:title="Analyzes the fault tree and performs computations. ">
<polygon fill="white" stroke="black" points="317,-98.5 317,-128.5 470,-128.5 470,-98.5 317,-98.5"/>
<text text-anchor="start" x="325" y="-116.5" font-family="Helvetica,sans-Serif" font-size="10.00">scram::core::FaultTreeAnalysis</text>
<text text-anchor="middle" x="393.5" y="-105.5" font-family="Helvetica,sans-Serif" font-size="10.00">::Analyze</text>
</a>
</g>
</g>
<!-- Node2&#45;&gt;Node3 -->
<g id="edge2" class="edge"><title>Node2&#45;&gt;Node3</title>
<path fill="none" stroke="midnightblue" d="M256.665,-54.9217C272.838,-65.6715 295.585,-79.7737 317,-89.5 324.138,-92.7419 331.84,-95.73 339.502,-98.4166"/>
<polygon fill="midnightblue" stroke="midnightblue" points="258.207,-51.7393 247.962,-49.0381 254.286,-57.5384 258.207,-51.7393"/>
</g>
<!-- Node4 -->
<g id="node4" class="node"><title>Node4</title>
<g id="a_node4"><a xlink:href="classscram_1_1core_1_1Pdag.xhtml#a9463ecda2e2b78590a01d2f589b067c6" target="_top" xlink:title="scram::core::Pdag::\lbasic_events">
<polygon fill="white" stroke="black" points="342,-49.5 342,-79.5 445,-79.5 445,-49.5 342,-49.5"/>
<text text-anchor="start" x="350" y="-67.5" font-family="Helvetica,sans-Serif" font-size="10.00">scram::core::Pdag::</text>
<text text-anchor="middle" x="393.5" y="-56.5" font-family="Helvetica,sans-Serif" font-size="10.00">basic_events</text>
</a>
</g>
</g>
<!-- Node2&#45;&gt;Node4 -->
<g id="edge3" class="edge"><title>Node2&#45;&gt;Node4</title>
<path fill="none" stroke="midnightblue" d="M291.15,-48.4636C307.713,-51.0844 325.705,-53.9312 341.869,-56.4888"/>
<polygon fill="midnightblue" stroke="midnightblue" points="291.475,-44.9715 281.051,-46.8656 290.381,-51.8855 291.475,-44.9715"/>
</g>
<!-- Node6 -->
<g id="node6" class="node"><title>Node6</title>
<g id="a_node6"><a xlink:href="classscram_1_1core_1_1ProductContainer.xhtml#ac02fbe13144218abf07fdd6ba9c8b532" target="_top" xlink:title="scram::core::ProductContainer\l::size">
<polygon fill="white" stroke="black" points="318.5,-0.5 318.5,-30.5 468.5,-30.5 468.5,-0.5 318.5,-0.5"/>
<text text-anchor="start" x="326.5" y="-18.5" font-family="Helvetica,sans-Serif" font-size="10.00">scram::core::ProductContainer</text>
<text text-anchor="middle" x="393.5" y="-7.5" font-family="Helvetica,sans-Serif" font-size="10.00">::size</text>
</a>
</g>
</g>
<!-- Node2&#45;&gt;Node6 -->
<g id="edge6" class="edge"><title>Node2&#45;&gt;Node6</title>
<path fill="none" stroke="midnightblue" d="M272.479,-27.8655C286.33,-25.1042 302.509,-22.3556 318.422,-20.0141"/>
<polygon fill="midnightblue" stroke="midnightblue" points="271.457,-24.5033 262.384,-29.9731 272.888,-31.3555 271.457,-24.5033"/>
</g>
<!-- Node5 -->
<g id="node5" class="node"><title>Node5</title>
<g id="a_node5"><a xlink:href="classscram_1_1core_1_1Mocus.xhtml#a008348c27bdc85ad9d0d106b18dcc1a2" target="_top" xlink:title="Finds minimal cut sets from the PDAG. ">
<polygon fill="white" stroke="black" points="535,-49.5 535,-79.5 639,-79.5 639,-49.5 535,-49.5"/>
<text text-anchor="start" x="543" y="-67.5" font-family="Helvetica,sans-Serif" font-size="10.00">scram::core::Mocus</text>
<text text-anchor="middle" x="587" y="-56.5" font-family="Helvetica,sans-Serif" font-size="10.00">::Analyze</text>
</a>
</g>
</g>
<!-- Node4&#45;&gt;Node5 -->
<g id="edge4" class="edge"><title>Node4&#45;&gt;Node5</title>
<path fill="none" stroke="midnightblue" d="M455.394,-64.5C480.968,-64.5 510.385,-64.5 534.818,-64.5"/>
<polygon fill="midnightblue" stroke="midnightblue" points="455.065,-61.0001 445.065,-64.5 455.065,-68.0001 455.065,-61.0001"/>
</g>
<!-- Node6&#45;&gt;Node2 -->
<g id="edge7" class="edge"><title>Node6&#45;&gt;Node2</title>
<path fill="none" stroke="midnightblue" d="M326.339,-32.2198C311.116,-34.7232 295.238,-36.9836 281.051,-38.6451"/>
<polygon fill="midnightblue" stroke="midnightblue" points="326.951,-35.6662 336.225,-30.5435 325.781,-28.7647 326.951,-35.6662"/>
</g>
<!-- Node7 -->
<g id="node7" class="node"><title>Node7</title>
<g id="a_node7"><a xlink:href="reporter_8cc.xhtml#ad6460094a94fb73e56c2a4a5efc598ed" target="_top" xlink:title="Describes all performed analyses deduced from settings. ">
<polygon fill="white" stroke="black" points="506,-0.5 506,-30.5 668,-30.5 668,-0.5 506,-0.5"/>
<text text-anchor="start" x="514" y="-18.5" font-family="Helvetica,sans-Serif" font-size="10.00">scram::ReportCalculatedQuantity</text>
<text text-anchor="middle" x="587" y="-7.5" font-family="Helvetica,sans-Serif" font-size="10.00">&lt; core::RiskAnalysis &gt;</text>
</a>
</g>
</g>
<!-- Node6&#45;&gt;Node7 -->
<g id="edge8" class="edge"><title>Node6&#45;&gt;Node7</title>
<path fill="none" stroke="midnightblue" d="M478.648,-15.5C487.67,-15.5 496.831,-15.5 505.805,-15.5"/>
<polygon fill="midnightblue" stroke="midnightblue" points="478.539,-12.0001 468.539,-15.5 478.539,-19.0001 478.539,-12.0001"/>
</g>
</g>
</svg>
