<?xml version="1.0" encoding="UTF-8" standalone="no"?>
<!DOCTYPE svg PUBLIC "-//W3C//DTD SVG 1.1//EN"
 "http://www.w3.org/Graphics/SVG/1.1/DTD/svg11.dtd">
<!-- Generated by graphviz version 2.38.0 (20140413.2041)
 -->
<!-- Title: scram::core::Bdd::Analyze Pages: 1 -->
<!--zoomable 1073 -->
<svg id="main" version="1.1" xmlns="http://www.w3.org/2000/svg" xmlns:xlink="http://www.w3.org/1999/xlink" xml:space="preserve" onload="init(evt)">
<style type="text/css"><![CDATA[
.edge:hover path { stroke: red; }
.edge:hover polygon { stroke: red; fill: red; }
]]></style>
<script type="text/javascript"><![CDATA[
var edges = document.getElementsByTagName('g');
if (edges && edges.length) {
  for (var i=0;i<edges.length;i++) {
    if (edges[i].id.substr(0,4)=='edge') {
      edges[i].setAttribute('class','edge');
    }
  }
}
]]></script>
        <defs>
                <circle id="rim" cx="0" cy="0" r="7"/>
                <circle id="rim2" cx="0" cy="0" r="3.5"/>
                <g id="zoomPlus">
                        <use xlink:href="#rim" fill="#404040">
                                <set attributeName="fill" to="#808080" begin="zoomplus.mouseover" end="zoomplus.mouseout"/>
                        </use>
                        <path d="M-4,0h8M0,-4v8" fill="none" stroke="white" stroke-width="1.5" pointer-events="none"/>
                </g>
                <g id="zoomMin">
                        <use xlink:href="#rim" fill="#404040">
                                <set attributeName="fill" to="#808080" begin="zoomminus.mouseover" end="zoomminus.mouseout"/>
                        </use>
                        <path d="M-4,0h8" fill="none" stroke="white" stroke-width="1.5" pointer-events="none"/>
                </g>
                <g id="dirArrow">
                        <path fill="none" stroke="white" stroke-width="1.5" d="M0,-3.0v7 M-2.5,-0.5L0,-3.0L2.5,-0.5"/>
                </g>
               <g id="resetDef">
                       <use xlink:href="#rim2" fill="#404040">
                               <set attributeName="fill" to="#808080" begin="reset.mouseover" end="reset.mouseout"/>
                       </use>
               </g>
        </defs>

<script type="text/javascript">
var viewWidth = 348;
var viewHeight = 1073;
var sectionId = 'dynsection-5';
</script>
<script xlink:href="svgpan.js"/>
<svg id="graph" class="graph">
<g id="viewport">
<title>scram::core::Bdd::Analyze</title>
<polygon fill="white" stroke="none" points="-4,4 -4,-1069 344,-1069 344,4 -4,4"/>
<!-- Node1 -->
<g id="node1" class="node"><title>Node1</title>
<polygon fill="#bfbfbf" stroke="black" points="0,-519.5 0,-538.5 133,-538.5 133,-519.5 0,-519.5"/>
<text text-anchor="middle" x="66.5" y="-526.5" font-family="Helvetica,sans-Serif" font-size="10.00">scram::core::Bdd::Analyze</text>
</g>
<!-- Node2 -->
<g id="node2" class="node"><title>Node2</title>
<g id="a_node2"><a xlink:href="classscram_1_1core_1_1Gate.xhtml#aa793eeaa12244c5b39a0d80e5b1518ae" target="_top" xlink:title="scram::core::Gate::args">
<polygon fill="white" stroke="black" points="194.5,-1045.5 194.5,-1064.5 314.5,-1064.5 314.5,-1045.5 194.5,-1045.5"/>
<text text-anchor="middle" x="254.5" y="-1052.5" font-family="Helvetica,sans-Serif" font-size="10.00">scram::core::Gate::args</text>
</a>
</g>
</g>
<!-- Node1&#45;&gt;Node2 -->
<g id="edge1" class="edge"><title>Node1&#45;&gt;Node2</title>
<path fill="none" stroke="midnightblue" d="M68.0412,-538.73C71.789,-602.566 95.9288,-961.184 169,-1036 173.551,-1040.66 178.98,-1044.29 184.861,-1047.1"/>
<polygon fill="midnightblue" stroke="midnightblue" points="183.826,-1050.45 194.412,-1050.87 186.398,-1043.94 183.826,-1050.45"/>
</g>
<!-- Node3 -->
<g id="node3" class="node"><title>Node3</title>
<g id="a_node3"><a xlink:href="classscram_1_1core_1_1Bdd.xhtml#a85ca781ff5bec86a44c217fb4b26ff76" target="_top" xlink:title="Helper function to clear and set vertex marks. ">
<polygon fill="white" stroke="black" points="180.5,-989.5 180.5,-1008.5 328.5,-1008.5 328.5,-989.5 180.5,-989.5"/>
<text text-anchor="middle" x="254.5" y="-996.5" font-family="Helvetica,sans-Serif" font-size="10.00">scram::core::Bdd::ClearMarks</text>
</a>
</g>
</g>
<!-- Node1&#45;&gt;Node3 -->
<g id="edge2" class="edge"><title>Node1&#45;&gt;Node3</title>
<path fill="none" stroke="midnightblue" d="M68.3059,-538.797C73.4237,-598.622 103.305,-914.318 169,-980 170.279,-981.279 171.625,-982.48 173.028,-983.607"/>
<polygon fill="midnightblue" stroke="midnightblue" points="171.354,-986.696 181.627,-989.288 175.213,-980.855 171.354,-986.696"/>
</g>
<!-- Node4 -->
<g id="node4" class="node"><title>Node4</title>
<g id="a_node4"><a xlink:href="classscram_1_1core_1_1Gate.xhtml#a0d070ec20569129162398c73165f65bc" target="_top" xlink:title="scram::core::Gate::\lcoherent">
<polygon fill="white" stroke="black" points="204,-940 204,-970 305,-970 305,-940 204,-940"/>
<text text-anchor="start" x="212" y="-958" font-family="Helvetica,sans-Serif" font-size="10.00">scram::core::Gate::</text>
<text text-anchor="middle" x="254.5" y="-947" font-family="Helvetica,sans-Serif" font-size="10.00">coherent</text>
</a>
</g>
</g>
<!-- Node1&#45;&gt;Node4 -->
<g id="edge4" class="edge"><title>Node1&#45;&gt;Node4</title>
<path fill="none" stroke="midnightblue" d="M68.6574,-538.726C75.4464,-594.222 111.775,-870.454 169,-930 175.917,-937.197 184.797,-942.35 194.191,-946.033"/>
<polygon fill="midnightblue" stroke="midnightblue" points="193.108,-949.361 203.702,-949.246 195.349,-942.729 193.108,-949.361"/>
</g>
<!-- Node5 -->
<g id="node5" class="node"><title>Node5</title>
<g id="a_node5"><a xlink:href="classscram_1_1core_1_1Ite.xhtml#afc14becd66d22adf37cf1177671d5a2c" target="_top" xlink:title="scram::core::Ite::complement_edge">
<polygon fill="white" stroke="black" points="169,-901.5 169,-920.5 340,-920.5 340,-901.5 169,-901.5"/>
<text text-anchor="middle" x="254.5" y="-908.5" font-family="Helvetica,sans-Serif" font-size="10.00">scram::core::Ite::complement_edge</text>
</a>
</g>
</g>
<!-- Node1&#45;&gt;Node5 -->
<g id="edge5" class="edge"><title>Node1&#45;&gt;Node5</title>
<path fill="none" stroke="midnightblue" d="M68.836,-538.54C76.3215,-590.648 114.673,-840.4 169,-892 170.513,-893.437 172.11,-894.774 173.777,-896.017"/>
<polygon fill="midnightblue" stroke="midnightblue" points="172.294,-899.214 182.642,-901.488 175.97,-893.257 172.294,-899.214"/>
</g>
<!-- Node6 -->
<g id="node6" class="node"><title>Node6</title>
<g id="a_node6"><a xlink:href="classscram_1_1core_1_1Gate.xhtml#ab2a4e8ac78b36541a32cc719863910a5" target="_top" xlink:title="scram::core::Gate::\lconstant">
<polygon fill="white" stroke="black" points="204,-852 204,-882 305,-882 305,-852 204,-852"/>
<text text-anchor="start" x="212" y="-870" font-family="Helvetica,sans-Serif" font-size="10.00">scram::core::Gate::</text>
<text text-anchor="middle" x="254.5" y="-859" font-family="Helvetica,sans-Serif" font-size="10.00">constant</text>
</a>
</g>
</g>
<!-- Node1&#45;&gt;Node6 -->
<g id="edge6" class="edge"><title>Node1&#45;&gt;Node6</title>
<path fill="none" stroke="midnightblue" d="M67.5366,-538.599C68.2373,-581.093 76.8469,-754.098 169,-843 176.005,-849.758 184.771,-854.638 193.982,-858.157"/>
<polygon fill="midnightblue" stroke="midnightblue" points="193.096,-861.55 203.689,-861.352 195.284,-854.901 193.096,-861.55"/>
</g>
<!-- Node7 -->
<g id="node7" class="node"><title>Node7</title>
<g id="a_node7"><a xlink:href="classscram_1_1core_1_1CacheTable.xhtml#ae97b2ee82cab1f6944e8bb7c973575d6" target="_top" xlink:title="Emplaces a new entry. ">
<polygon fill="white" stroke="black" points="191,-803 191,-833 318,-833 318,-803 191,-803"/>
<text text-anchor="start" x="199" y="-821" font-family="Helvetica,sans-Serif" font-size="10.00">scram::core::CacheTable</text>
<text text-anchor="middle" x="254.5" y="-810" font-family="Helvetica,sans-Serif" font-size="10.00">::emplace</text>
</a>
</g>
</g>
<!-- Node1&#45;&gt;Node7 -->
<g id="edge7" class="edge"><title>Node1&#45;&gt;Node7</title>
<path fill="none" stroke="midnightblue" d="M68.1899,-538.645C71.4675,-577.066 88.8428,-720.681 169,-794 172.84,-797.512 177.158,-800.515 181.758,-803.081"/>
<polygon fill="midnightblue" stroke="midnightblue" points="180.373,-806.299 190.9,-807.497 183.418,-799.996 180.373,-806.299"/>
</g>
<!-- Node8 -->
<g id="node8" class="node"><title>Node8</title>
<g id="a_node8"><a xlink:href="classscram_1_1core_1_1WeakIntrusivePtr.xhtml#a7c782e61588664e379a54ad68b6a0c39" target="_top" xlink:title="scram::core::WeakIntrusive\lPtr::expired">
<polygon fill="white" stroke="black" points="186,-754 186,-784 323,-784 323,-754 186,-754"/>
<text text-anchor="start" x="194" y="-772" font-family="Helvetica,sans-Serif" font-size="10.00">scram::core::WeakIntrusive</text>
<text text-anchor="middle" x="254.5" y="-761" font-family="Helvetica,sans-Serif" font-size="10.00">Ptr::expired</text>
</a>
</g>
</g>
<!-- Node1&#45;&gt;Node8 -->
<g id="edge8" class="edge"><title>Node1&#45;&gt;Node8</title>
<path fill="none" stroke="midnightblue" d="M69.1636,-538.929C75.4242,-573.121 100.787,-687.063 169,-745 171.421,-747.056 174.007,-748.937 176.716,-750.657"/>
<polygon fill="midnightblue" stroke="midnightblue" points="175.283,-753.863 185.731,-755.62 178.66,-747.731 175.283,-753.863"/>
</g>
<!-- Node9 -->
<g id="node9" class="node"><title>Node9</title>
<g id="a_node9"><a xlink:href="classscram_1_1core_1_1NonTerminal.xhtml#a7b184b2ba68a289aae9f3737f1d13b97" target="_top" xlink:title="scram::core::NonTerminal\l::high">
<polygon fill="white" stroke="black" points="189.5,-705 189.5,-735 319.5,-735 319.5,-705 189.5,-705"/>
<text text-anchor="start" x="197.5" y="-723" font-family="Helvetica,sans-Serif" font-size="10.00">scram::core::NonTerminal</text>
<text text-anchor="middle" x="254.5" y="-712" font-family="Helvetica,sans-Serif" font-size="10.00">::high</text>
</a>
</g>
</g>
<!-- Node1&#45;&gt;Node9 -->
<g id="edge9" class="edge"><title>Node1&#45;&gt;Node9</title>
<path fill="none" stroke="midnightblue" d="M70.5262,-538.647C80.0224,-567.306 112.04,-652.636 169,-696 172.413,-698.598 176.095,-700.915 179.948,-702.981"/>
<polygon fill="midnightblue" stroke="midnightblue" points="178.661,-706.244 189.197,-707.362 181.657,-699.918 178.661,-706.244"/>
</g>
<!-- Node10 -->
<g id="node10" class="node"><title>Node10</title>
<g id="a_node10"><a xlink:href="classscram_1_1core_1_1Node.xhtml#a62121e217b0da73112af7e07275f2c15" target="_top" xlink:title="scram::core::Node::\lindex">
<polygon fill="white" stroke="black" points="202.5,-656 202.5,-686 306.5,-686 306.5,-656 202.5,-656"/>
<text text-anchor="start" x="210.5" y="-674" font-family="Helvetica,sans-Serif" font-size="10.00">scram::core::Node::</text>
<text text-anchor="middle" x="254.5" y="-663" font-family="Helvetica,sans-Serif" font-size="10.00">index</text>
</a>
</g>
</g>
<!-- Node1&#45;&gt;Node10 -->
<g id="edge10" class="edge"><title>Node1&#45;&gt;Node10</title>
<path fill="none" stroke="midnightblue" d="M73.0035,-538.613C86.3992,-561.132 123.003,-617.609 169,-647 176.205,-651.604 184.306,-655.342 192.566,-658.373"/>
<polygon fill="midnightblue" stroke="midnightblue" points="191.698,-661.773 202.292,-661.616 193.912,-655.132 191.698,-661.773"/>
</g>
<!-- Node11 -->
<g id="node11" class="node"><title>Node11</title>
<g id="a_node11"><a xlink:href="classscram_1_1core_1_1NonTerminal.xhtml#aeeaafd82ae5890a7ec3462c68ffc8628" target="_top" xlink:title="scram::core::NonTerminal\l::index">
<polygon fill="white" stroke="black" points="189.5,-607 189.5,-637 319.5,-637 319.5,-607 189.5,-607"/>
<text text-anchor="start" x="197.5" y="-625" font-family="Helvetica,sans-Serif" font-size="10.00">scram::core::NonTerminal</text>
<text text-anchor="middle" x="254.5" y="-614" font-family="Helvetica,sans-Serif" font-size="10.00">::index</text>
</a>
</g>
</g>
<!-- Node1&#45;&gt;Node11 -->
<g id="edge11" class="edge"><title>Node1&#45;&gt;Node11</title>
<path fill="none" stroke="midnightblue" d="M78.9345,-538.607C96.9839,-553.331 133.669,-581.501 169,-598 173.266,-599.992 177.733,-601.853 182.289,-603.585"/>
<polygon fill="midnightblue" stroke="midnightblue" points="181.137,-606.89 191.731,-606.961 183.493,-600.299 181.137,-606.89"/>
</g>
<!-- Node12 -->
<g id="node12" class="node"><title>Node12</title>
<g id="a_node12"><a xlink:href="classscram_1_1core_1_1WeakIntrusivePtr.xhtml#ad1e3be6267e1316cbc4fb440fc08dde1" target="_top" xlink:title="scram::core::WeakIntrusive\lPtr::lock">
<polygon fill="white" stroke="black" points="186,-558 186,-588 323,-588 323,-558 186,-558"/>
<text text-anchor="start" x="194" y="-576" font-family="Helvetica,sans-Serif" font-size="10.00">scram::core::WeakIntrusive</text>
<text text-anchor="middle" x="254.5" y="-565" font-family="Helvetica,sans-Serif" font-size="10.00">Ptr::lock</text>
</a>
</g>
</g>
<!-- Node1&#45;&gt;Node12 -->
<g id="edge12" class="edge"><title>Node1&#45;&gt;Node12</title>
<path fill="none" stroke="midnightblue" d="M107.859,-538.547C128.894,-543.523 155.286,-549.767 179.806,-555.567"/>
<polygon fill="midnightblue" stroke="midnightblue" points="179.277,-559.039 189.815,-557.935 180.889,-552.227 179.277,-559.039"/>
</g>
<!-- Node13 -->
<g id="node13" class="node"><title>Node13</title>
<g id="a_node13"><a xlink:href="classscram_1_1core_1_1NonTerminal.xhtml#adeb100923176ebd5f820c75b79280796" target="_top" xlink:title="scram::core::NonTerminal::low">
<polygon fill="white" stroke="black" points="179,-519.5 179,-538.5 330,-538.5 330,-519.5 179,-519.5"/>
<text text-anchor="middle" x="254.5" y="-526.5" font-family="Helvetica,sans-Serif" font-size="10.00">scram::core::NonTerminal::low</text>
</a>
</g>
</g>
<!-- Node1&#45;&gt;Node13 -->
<g id="edge13" class="edge"><title>Node1&#45;&gt;Node13</title>
<path fill="none" stroke="midnightblue" d="M133.077,-529C144.68,-529 156.908,-529 168.946,-529"/>
<polygon fill="midnightblue" stroke="midnightblue" points="168.996,-532.5 178.996,-529 168.996,-525.5 168.996,-532.5"/>
</g>
<!-- Node14 -->
<g id="node14" class="node"><title>Node14</title>
<g id="a_node14"><a xlink:href="classscram_1_1core_1_1NonTerminal.xhtml#a7b70ab1b978f3197458c95e0891fd79c" target="_top" xlink:title="scram::core::NonTerminal\l::mark">
<polygon fill="white" stroke="black" points="189.5,-470 189.5,-500 319.5,-500 319.5,-470 189.5,-470"/>
<text text-anchor="start" x="197.5" y="-488" font-family="Helvetica,sans-Serif" font-size="10.00">scram::core::NonTerminal</text>
<text text-anchor="middle" x="254.5" y="-477" font-family="Helvetica,sans-Serif" font-size="10.00">::mark</text>
</a>
</g>
</g>
<!-- Node1&#45;&gt;Node14 -->
<g id="edge14" class="edge"><title>Node1&#45;&gt;Node14</title>
<path fill="none" stroke="midnightblue" d="M107.859,-519.453C128.894,-514.477 155.286,-508.233 179.806,-502.433"/>
<polygon fill="midnightblue" stroke="midnightblue" points="180.889,-505.773 189.815,-500.065 179.277,-498.961 180.889,-505.773"/>
</g>
<!-- Node15 -->
<g id="node15" class="node"><title>Node15</title>
<g id="a_node15"><a xlink:href="classscram_1_1core_1_1NonTerminal.xhtml#a9230422e92d086c34f67bcb864bfc8a9" target="_top" xlink:title="scram::core::NonTerminal\l::module">
<polygon fill="white" stroke="black" points="189.5,-421 189.5,-451 319.5,-451 319.5,-421 189.5,-421"/>
<text text-anchor="start" x="197.5" y="-439" font-family="Helvetica,sans-Serif" font-size="10.00">scram::core::NonTerminal</text>
<text text-anchor="middle" x="254.5" y="-428" font-family="Helvetica,sans-Serif" font-size="10.00">::module</text>
</a>
</g>
</g>
<!-- Node1&#45;&gt;Node15 -->
<g id="edge15" class="edge"><title>Node1&#45;&gt;Node15</title>
<path fill="none" stroke="midnightblue" d="M79.2807,-519.352C97.497,-504.854 134.057,-477.406 169,-461 173.933,-458.684 179.13,-456.528 184.421,-454.533"/>
<polygon fill="midnightblue" stroke="midnightblue" points="185.766,-457.769 194.011,-451.115 183.417,-451.175 185.766,-457.769"/>
</g>
<!-- Node16 -->
<g id="node16" class="node"><title>Node16</title>
<g id="a_node16"><a xlink:href="classscram_1_1core_1_1Gate.xhtml#a93fa477d60140843c4abae7de52fffa1" target="_top" xlink:title="scram::core::Gate::\lmodule">
<polygon fill="white" stroke="black" points="204,-372 204,-402 305,-402 305,-372 204,-372"/>
<text text-anchor="start" x="212" y="-390" font-family="Helvetica,sans-Serif" font-size="10.00">scram::core::Gate::</text>
<text text-anchor="middle" x="254.5" y="-379" font-family="Helvetica,sans-Serif" font-size="10.00">module</text>
</a>
</g>
</g>
<!-- Node1&#45;&gt;Node16 -->
<g id="edge16" class="edge"><title>Node1&#45;&gt;Node16</title>
<path fill="none" stroke="midnightblue" d="M73.2485,-519.17C86.8995,-496.698 123.551,-441.255 169,-412 176.652,-407.074 185.31,-403.088 194.094,-399.87"/>
<polygon fill="midnightblue" stroke="midnightblue" points="195.264,-403.17 203.633,-396.672 193.039,-396.533 195.264,-403.17"/>
</g>
<!-- Node17 -->
<g id="node17" class="node"><title>Node17</title>
<g id="a_node17"><a xlink:href="classscram_1_1core_1_1Node.xhtml#a8b76f2081293edc1cf85ddf8cb2ac2ed" target="_top" xlink:title="scram::core::Node::\lorder">
<polygon fill="white" stroke="black" points="202.5,-323 202.5,-353 306.5,-353 306.5,-323 202.5,-323"/>
<text text-anchor="start" x="210.5" y="-341" font-family="Helvetica,sans-Serif" font-size="10.00">scram::core::Node::</text>
<text text-anchor="middle" x="254.5" y="-330" font-family="Helvetica,sans-Serif" font-size="10.00">order</text>
</a>
</g>
</g>
<!-- Node1&#45;&gt;Node17 -->
<g id="edge17" class="edge"><title>Node1&#45;&gt;Node17</title>
<path fill="none" stroke="midnightblue" d="M70.5658,-519.439C80.1727,-491.031 112.468,-406.408 169,-363 176.053,-357.584 184.259,-353.339 192.732,-350.012"/>
<polygon fill="midnightblue" stroke="midnightblue" points="194.086,-353.246 202.363,-346.632 191.768,-346.641 194.086,-353.246"/>
</g>
<!-- Node18 -->
<g id="node18" class="node"><title>Node18</title>
<g id="a_node18"><a xlink:href="classscram_1_1core_1_1NonTerminal.xhtml#af5853746ad388f479a7aa45c5d843466" target="_top" xlink:title="scram::core::NonTerminal\l::order">
<polygon fill="white" stroke="black" points="189.5,-274 189.5,-304 319.5,-304 319.5,-274 189.5,-274"/>
<text text-anchor="start" x="197.5" y="-292" font-family="Helvetica,sans-Serif" font-size="10.00">scram::core::NonTerminal</text>
<text text-anchor="middle" x="254.5" y="-281" font-family="Helvetica,sans-Serif" font-size="10.00">::order</text>
</a>
</g>
</g>
<!-- Node1&#45;&gt;Node18 -->
<g id="edge18" class="edge"><title>Node1&#45;&gt;Node18</title>
<path fill="none" stroke="midnightblue" d="M69.2019,-519.143C75.5875,-485.195 101.31,-372.027 169,-314 172.425,-311.064 176.181,-308.473 180.148,-306.186"/>
<polygon fill="midnightblue" stroke="midnightblue" points="181.775,-309.285 189.12,-301.65 178.617,-303.038 181.775,-309.285"/>
</g>
<!-- Node19 -->
<g id="node19" class="node"><title>Node19</title>
<g id="a_node19"><a xlink:href="classscram_1_1core_1_1NodeParentManager.xhtml#a6fca1af860a85acc2907699d1d1be716" target="_top" xlink:title="scram::core::NodeParentManager\l::parents">
<polygon fill="white" stroke="black" points="172.5,-225 172.5,-255 336.5,-255 336.5,-225 172.5,-225"/>
<text text-anchor="start" x="180.5" y="-243" font-family="Helvetica,sans-Serif" font-size="10.00">scram::core::NodeParentManager</text>
<text text-anchor="middle" x="254.5" y="-232" font-family="Helvetica,sans-Serif" font-size="10.00">::parents</text>
</a>
</g>
</g>
<!-- Node1&#45;&gt;Node19 -->
<g id="edge19" class="edge"><title>Node1&#45;&gt;Node19</title>
<path fill="none" stroke="midnightblue" d="M68.2255,-519.416C71.6387,-481.232 89.4602,-338.463 169,-265 170.689,-263.44 172.472,-261.977 174.33,-260.604"/>
<polygon fill="midnightblue" stroke="midnightblue" points="176.35,-263.468 182.915,-255.152 172.597,-257.559 176.35,-263.468"/>
</g>
<!-- Node20 -->
<g id="node20" class="node"><title>Node20</title>
<g id="a_node20"><a xlink:href="structscram_1_1core_1_1IntrusivePtrCast.xhtml#adc53e5b89cace18e05bac95316da7d91" target="_top" xlink:title="scram::core::IntrusivePtr\lCast\&lt; Ite \&gt;::Ptr">
<polygon fill="white" stroke="black" points="192,-176 192,-206 317,-206 317,-176 192,-176"/>
<text text-anchor="start" x="200" y="-194" font-family="Helvetica,sans-Serif" font-size="10.00">scram::core::IntrusivePtr</text>
<text text-anchor="middle" x="254.5" y="-183" font-family="Helvetica,sans-Serif" font-size="10.00">Cast&lt; Ite &gt;::Ptr</text>
</a>
</g>
</g>
<!-- Node1&#45;&gt;Node20 -->
<g id="edge20" class="edge"><title>Node1&#45;&gt;Node20</title>
<path fill="none" stroke="midnightblue" d="M67.5709,-519.455C68.4174,-477.196 77.5561,-305.103 169,-216 173.04,-212.063 177.67,-208.741 182.636,-205.94"/>
<polygon fill="midnightblue" stroke="midnightblue" points="184.423,-208.963 191.881,-201.438 181.358,-202.669 184.423,-208.963"/>
</g>
<!-- Node21 -->
<g id="node21" class="node"><title>Node21</title>
<g id="a_node21"><a xlink:href="structscram_1_1core_1_1IntrusivePtrCast.xhtml#af153c12dc6133b7d9f9b7a57bba29f1d" target="_top" xlink:title="scram::core::IntrusivePtr\lCast\&lt; Ite \&gt;::Ref">
<polygon fill="white" stroke="black" points="192,-127 192,-157 317,-157 317,-127 192,-127"/>
<text text-anchor="start" x="200" y="-145" font-family="Helvetica,sans-Serif" font-size="10.00">scram::core::IntrusivePtr</text>
<text text-anchor="middle" x="254.5" y="-134" font-family="Helvetica,sans-Serif" font-size="10.00">Cast&lt; Ite &gt;::Ref</text>
</a>
</g>
</g>
<!-- Node1&#45;&gt;Node21 -->
<g id="edge21" class="edge"><title>Node1&#45;&gt;Node21</title>
<path fill="none" stroke="midnightblue" d="M67.0788,-519.273C65.6232,-472.856 65.6699,-271.817 169,-167 172.96,-162.983 177.533,-159.604 182.46,-156.763"/>
<polygon fill="midnightblue" stroke="midnightblue" points="184.246,-159.784 191.654,-152.209 181.139,-153.511 184.246,-159.784"/>
</g>
<!-- Node22 -->
<g id="node22" class="node"><title>Node22</title>
<g id="a_node22"><a xlink:href="classext_1_1linear__map.xhtml#a670bc30d04c01d2fb124d5ebbc8ade71" target="_top" xlink:title="ext::linear_map::size">
<polygon fill="white" stroke="black" points="201,-88.5 201,-107.5 308,-107.5 308,-88.5 201,-88.5"/>
<text text-anchor="middle" x="254.5" y="-95.5" font-family="Helvetica,sans-Serif" font-size="10.00">ext::linear_map::size</text>
</a>
</g>
</g>
<!-- Node1&#45;&gt;Node22 -->
<g id="edge22" class="edge"><title>Node1&#45;&gt;Node22</title>
<path fill="none" stroke="midnightblue" d="M68.5291,-519.353C74.7234,-463.073 108.814,-177.605 169,-118 175.159,-111.9 182.814,-107.532 190.983,-104.424"/>
<polygon fill="midnightblue" stroke="midnightblue" points="192.275,-107.687 200.749,-101.328 190.159,-101.014 192.275,-107.687"/>
</g>
<!-- Node23 -->
<g id="node23" class="node"><title>Node23</title>
<g id="a_node23"><a xlink:href="structscram_1_1core_1_1Bdd_1_1Function.xhtml#abed3bea3547fa39e96f4dee788311e00" target="_top" xlink:title="Swaps with another function. ">
<polygon fill="white" stroke="black" points="187,-39 187,-69 322,-69 322,-39 187,-39"/>
<text text-anchor="start" x="195" y="-57" font-family="Helvetica,sans-Serif" font-size="10.00">scram::core::Bdd::Function</text>
<text text-anchor="middle" x="254.5" y="-46" font-family="Helvetica,sans-Serif" font-size="10.00">::swap</text>
</a>
</g>
</g>
<!-- Node1&#45;&gt;Node23 -->
<g id="edge23" class="edge"><title>Node1&#45;&gt;Node23</title>
<path fill="none" stroke="midnightblue" d="M68.3701,-519.284C73.871,-459.941 105.642,-146.671 169,-79 171.745,-76.0684 174.815,-73.4752 178.115,-71.1818"/>
<polygon fill="midnightblue" stroke="midnightblue" points="179.916,-74.183 186.738,-66.0764 176.35,-68.1596 179.916,-74.183"/>
</g>
<!-- Node24 -->
<g id="node24" class="node"><title>Node24</title>
<g id="a_node24"><a xlink:href="classscram_1_1core_1_1Gate.xhtml#ad5a5766ce9dbbd2104c0bb07b9639a48" target="_top" xlink:title="scram::core::Gate::type">
<polygon fill="white" stroke="black" points="194.5,-0.5 194.5,-19.5 314.5,-19.5 314.5,-0.5 194.5,-0.5"/>
<text text-anchor="middle" x="254.5" y="-7.5" font-family="Helvetica,sans-Serif" font-size="10.00">scram::core::Gate::type</text>
</a>
</g>
</g>
<!-- Node1&#45;&gt;Node24 -->
<g id="edge24" class="edge"><title>Node1&#45;&gt;Node24</title>
<path fill="none" stroke="midnightblue" d="M68.0753,-519.431C72.0422,-456.656 97.3379,-103.974 169,-30 173.543,-25.3102 178.968,-21.6349 184.846,-18.7649"/>
<polygon fill="midnightblue" stroke="midnightblue" points="186.445,-21.893 194.394,-14.8879 183.812,-15.4073 186.445,-21.893"/>
</g>
<!-- Node3&#45;&gt;Node3 -->
<g id="edge3" class="edge"><title>Node3&#45;&gt;Node3</title>
<path fill="none" stroke="midnightblue" d="M225.524,-1008.76C211.427,-1017.57 221.086,-1027 254.5,-1027 277.472,-1027 289.216,-1022.54 289.732,-1016.89"/>
<polygon fill="midnightblue" stroke="midnightblue" points="292.347,-1014.55 283.476,-1008.76 286.798,-1018.82 292.347,-1014.55"/>
</g>
</g>
</svg>
        <g id="navigator" transform="translate(0 0)" fill="#404254">
                <rect fill="#f2f5e9" fill-opacity="0.5" stroke="#606060" stroke-width=".5" x="0" y="0" width="60" height="60"/>
                <use id="zoomplus" xlink:href="#zoomPlus" x="17" y="9" onmousedown="handleZoom(evt,'in')"/>
                <use id="zoomminus" xlink:href="#zoomMin" x="42" y="9" onmousedown="handleZoom(evt,'out')"/>
                <use id="reset" xlink:href="#resetDef" x="30" y="36" onmousedown="handleReset()"/>
                <g id="arrowUp" xlink:href="#dirArrow" transform="translate(30 24)" onmousedown="handlePan(0,-1)">
                  <use xlink:href="#rim" fill="#404040">
                        <set attributeName="fill" to="#808080" begin="arrowUp.mouseover" end="arrowUp.mouseout"/>
                  </use>
                  <path fill="none" stroke="white" stroke-width="1.5" d="M0,-3.0v7 M-2.5,-0.5L0,-3.0L2.5,-0.5"/>
                </g>
                <g id="arrowRight" xlink:href="#dirArrow" transform="rotate(90) translate(36 -43)" onmousedown="handlePan(1,0)">
                  <use xlink:href="#rim" fill="#404040">
                        <set attributeName="fill" to="#808080" begin="arrowRight.mouseover" end="arrowRight.mouseout"/>
                  </use>
                  <path fill="none" stroke="white" stroke-width="1.5" d="M0,-3.0v7 M-2.5,-0.5L0,-3.0L2.5,-0.5"/>
                </g>
                <g id="arrowDown" xlink:href="#dirArrow" transform="rotate(180) translate(-30 -48)" onmousedown="handlePan(0,1)">
                  <use xlink:href="#rim" fill="#404040">
                        <set attributeName="fill" to="#808080" begin="arrowDown.mouseover" end="arrowDown.mouseout"/>
                  </use>
                  <path fill="none" stroke="white" stroke-width="1.5" d="M0,-3.0v7 M-2.5,-0.5L0,-3.0L2.5,-0.5"/>
                </g>
                <g id="arrowLeft" xlink:href="#dirArrow" transform="rotate(270) translate(-36 17)" onmousedown="handlePan(-1,0)">
                  <use xlink:href="#rim" fill="#404040">
                        <set attributeName="fill" to="#808080" begin="arrowLeft.mouseover" end="arrowLeft.mouseout"/>
                  </use>
                  <path fill="none" stroke="white" stroke-width="1.5" d="M0,-3.0v7 M-2.5,-0.5L0,-3.0L2.5,-0.5"/>
                </g>
        </g>
        <svg viewBox="0 0 15 15" width="100%" height="30px" preserveAspectRatio="xMaxYMin meet">
         <g id="arrow_out" transform="scale(0.3 0.3)">
          <a xlink:href="classscram_1_1core_1_1Bdd_ab9548d4c5f9afaa96dc24e17e2a01a57_cgraph_org.svg" target="_base">
           <rect id="button" ry="5" rx="5" y="6" x="6" height="38" width="38"
                fill="#f2f5e9" fill-opacity="0.5" stroke="#606060" stroke-width="1.0"/>
           <path id="arrow"
             d="M 11.500037,31.436501 C 11.940474,20.09759 22.043105,11.32322 32.158766,21.979434 L 37.068811,17.246167 C 37.068811,17.246167 37.088388,32 37.088388,32 L 22.160133,31.978069 C 22.160133,31.978069 26.997745,27.140456 26.997745,27.140456 C 18.528582,18.264221 13.291696,25.230495 11.500037,31.436501 z"
             style="fill:#404040;"/>
          </a>
         </g>
        </svg>
</svg>
