<?xml version="1.0" encoding="UTF-8" standalone="no"?>
<!DOCTYPE svg PUBLIC "-//W3C//DTD SVG 1.1//EN"
 "http://www.w3.org/Graphics/SVG/1.1/DTD/svg11.dtd">
<!-- Generated by graphviz version 2.38.0 (20140413.2041)
 -->
<!-- Title: scram::core::Bdd::Bdd Pages: 1 -->
<svg width="307pt" height="456pt"
 viewBox="0.00 0.00 307.00 456.00" xmlns="http://www.w3.org/2000/svg" xmlns:xlink="http://www.w3.org/1999/xlink">
<g id="graph0" class="graph" transform="scale(1 1) rotate(0) translate(4 452)">
<title>scram::core::Bdd::Bdd</title>
<polygon fill="white" stroke="none" points="-4,4 -4,-452 303,-452 303,4 -4,4"/>
<!-- Node1 -->
<g id="node1" class="node"><title>Node1</title>
<polygon fill="#bfbfbf" stroke="black" points="0,-205.5 0,-224.5 115,-224.5 115,-205.5 0,-205.5"/>
<text text-anchor="middle" x="57.5" y="-212.5" font-family="Helvetica,sans-Serif" font-size="10.00">scram::core::Bdd::Bdd</text>
</g>
<!-- Node2 -->
<g id="node2" class="node"><title>Node2</title>
<g id="a_node2"><a xlink:href="classscram_1_1core_1_1Gate.xhtml#aa793eeaa12244c5b39a0d80e5b1518ae" target="_top" xlink:title="scram::core::Gate::args">
<polygon fill="white" stroke="black" points="165,-428.5 165,-447.5 285,-447.5 285,-428.5 165,-428.5"/>
<text text-anchor="middle" x="225" y="-435.5" font-family="Helvetica,sans-Serif" font-size="10.00">scram::core::Gate::args</text>
</a>
</g>
</g>
<!-- Node1&#45;&gt;Node2 -->
<g id="edge1" class="edge"><title>Node1&#45;&gt;Node2</title>
<path fill="none" stroke="midnightblue" d="M59.9366,-224.878C65.2708,-257.861 87.0455,-365.147 151,-419 153.016,-420.698 155.166,-422.246 157.417,-423.657"/>
<polygon fill="midnightblue" stroke="midnightblue" points="156.047,-426.892 166.526,-428.453 159.308,-420.697 156.047,-426.892"/>
</g>
<!-- Node3 -->
<g id="node3" class="node"><title>Node3</title>
<g id="a_node3"><a xlink:href="classscram_1_1core_1_1Bdd.xhtml#a85ca781ff5bec86a44c217fb4b26ff76" target="_top" xlink:title="Helper function to clear and set vertex marks. ">
<polygon fill="white" stroke="black" points="151,-372.5 151,-391.5 299,-391.5 299,-372.5 151,-372.5"/>
<text text-anchor="middle" x="225" y="-379.5" font-family="Helvetica,sans-Serif" font-size="10.00">scram::core::Bdd::ClearMarks</text>
</a>
</g>
</g>
<!-- Node1&#45;&gt;Node3 -->
<g id="edge2" class="edge"><title>Node1&#45;&gt;Node3</title>
<path fill="none" stroke="midnightblue" d="M61.6787,-224.724C70.8862,-251.308 100.202,-325.696 151,-363 153.639,-364.938 156.458,-366.678 159.398,-368.242"/>
<polygon fill="midnightblue" stroke="midnightblue" points="157.97,-371.437 168.519,-372.42 160.885,-365.073 157.97,-371.437"/>
</g>
<!-- Node4 -->
<g id="node4" class="node"><title>Node4</title>
<g id="a_node4"><a xlink:href="classscram_1_1core_1_1Pdag.xhtml#af5900b29c6c9f1b1cca22ed83e4dd58b" target="_top" xlink:title="scram::core::Pdag::\lcomplement">
<polygon fill="white" stroke="black" points="173.5,-323 173.5,-353 276.5,-353 276.5,-323 173.5,-323"/>
<text text-anchor="start" x="181.5" y="-341" font-family="Helvetica,sans-Serif" font-size="10.00">scram::core::Pdag::</text>
<text text-anchor="middle" x="225" y="-330" font-family="Helvetica,sans-Serif" font-size="10.00">complement</text>
</a>
</g>
</g>
<!-- Node1&#45;&gt;Node4 -->
<g id="edge4" class="edge"><title>Node1&#45;&gt;Node4</title>
<path fill="none" stroke="midnightblue" d="M64.959,-224.675C78.566,-244.334 112.147,-289.18 151,-314 155.072,-316.601 159.453,-318.947 163.974,-321.057"/>
<polygon fill="midnightblue" stroke="midnightblue" points="162.824,-324.372 173.397,-325.065 165.564,-317.93 162.824,-324.372"/>
</g>
<!-- Node5 -->
<g id="node5" class="node"><title>Node5</title>
<g id="a_node5"><a xlink:href="classscram_1_1core_1_1Gate.xhtml#ab2a4e8ac78b36541a32cc719863910a5" target="_top" xlink:title="scram::core::Gate::\lconstant">
<polygon fill="white" stroke="black" points="174.5,-274 174.5,-304 275.5,-304 275.5,-274 174.5,-274"/>
<text text-anchor="start" x="182.5" y="-292" font-family="Helvetica,sans-Serif" font-size="10.00">scram::core::Gate::</text>
<text text-anchor="middle" x="225" y="-281" font-family="Helvetica,sans-Serif" font-size="10.00">constant</text>
</a>
</g>
</g>
<!-- Node1&#45;&gt;Node5 -->
<g id="edge5" class="edge"><title>Node1&#45;&gt;Node5</title>
<path fill="none" stroke="midnightblue" d="M74.1136,-224.556C92.1674,-235.339 123,-252.943 151,-265 155.438,-266.911 160.081,-268.762 164.783,-270.531"/>
<polygon fill="midnightblue" stroke="midnightblue" points="163.875,-273.924 174.47,-274.041 166.26,-267.343 163.875,-273.924"/>
</g>
<!-- Node6 -->
<g id="node6" class="node"><title>Node6</title>
<g id="a_node6"><a xlink:href="classscram_1_1core_1_1Node.xhtml#a62121e217b0da73112af7e07275f2c15" target="_top" xlink:title="scram::core::Node::\lindex">
<polygon fill="white" stroke="black" points="173,-225 173,-255 277,-255 277,-225 173,-225"/>
<text text-anchor="start" x="181" y="-243" font-family="Helvetica,sans-Serif" font-size="10.00">scram::core::Node::</text>
<text text-anchor="middle" x="225" y="-232" font-family="Helvetica,sans-Serif" font-size="10.00">index</text>
</a>
</g>
</g>
<!-- Node1&#45;&gt;Node6 -->
<g id="edge6" class="edge"><title>Node1&#45;&gt;Node6</title>
<path fill="none" stroke="midnightblue" d="M115.456,-223.604C130.719,-225.909 147.284,-228.411 162.768,-230.75"/>
<polygon fill="midnightblue" stroke="midnightblue" points="162.352,-234.227 172.763,-232.26 163.398,-227.306 162.352,-234.227"/>
</g>
<!-- Node7 -->
<g id="node7" class="node"><title>Node7</title>
<g id="a_node7"><a xlink:href="classscram_1_1core_1_1Pdag.xhtml#a09f0aa3bddb78b2eff0446736d040e1b" target="_top" xlink:title="scram::core::Pdag::\lIsTrivial">
<polygon fill="white" stroke="black" points="173.5,-176 173.5,-206 276.5,-206 276.5,-176 173.5,-176"/>
<text text-anchor="start" x="181.5" y="-194" font-family="Helvetica,sans-Serif" font-size="10.00">scram::core::Pdag::</text>
<text text-anchor="middle" x="225" y="-183" font-family="Helvetica,sans-Serif" font-size="10.00">IsTrivial</text>
</a>
</g>
</g>
<!-- Node1&#45;&gt;Node7 -->
<g id="edge7" class="edge"><title>Node1&#45;&gt;Node7</title>
<path fill="none" stroke="midnightblue" d="M115.456,-206.741C130.873,-204.505 147.617,-202.077 163.235,-199.812"/>
<polygon fill="midnightblue" stroke="midnightblue" points="163.916,-203.25 173.31,-198.351 162.911,-196.322 163.916,-203.25"/>
</g>
<!-- Node8 -->
<g id="node8" class="node"><title>Node8</title>
<g id="a_node8"><a xlink:href="classscram_1_1core_1_1Node.xhtml#a8b76f2081293edc1cf85ddf8cb2ac2ed" target="_top" xlink:title="scram::core::Node::\lorder">
<polygon fill="white" stroke="black" points="173,-127 173,-157 277,-157 277,-127 173,-127"/>
<text text-anchor="start" x="181" y="-145" font-family="Helvetica,sans-Serif" font-size="10.00">scram::core::Node::</text>
<text text-anchor="middle" x="225" y="-134" font-family="Helvetica,sans-Serif" font-size="10.00">order</text>
</a>
</g>
</g>
<!-- Node1&#45;&gt;Node8 -->
<g id="edge8" class="edge"><title>Node1&#45;&gt;Node8</title>
<path fill="none" stroke="midnightblue" d="M75.1833,-205.38C93.4309,-195.089 123.721,-178.672 151,-167 156.08,-164.826 161.419,-162.704 166.8,-160.673"/>
<polygon fill="midnightblue" stroke="midnightblue" points="168.301,-163.85 176.487,-157.124 165.894,-157.278 168.301,-163.85"/>
</g>
<!-- Node9 -->
<g id="node9" class="node"><title>Node9</title>
<g id="a_node9"><a xlink:href="classscram_1_1core_1_1Pdag.xhtml#ae9407efbb00e5f28aecb40db2ab7925b" target="_top" xlink:title="scram::core::Pdag::root">
<polygon fill="white" stroke="black" points="165.5,-88.5 165.5,-107.5 284.5,-107.5 284.5,-88.5 165.5,-88.5"/>
<text text-anchor="middle" x="225" y="-95.5" font-family="Helvetica,sans-Serif" font-size="10.00">scram::core::Pdag::root</text>
</a>
</g>
</g>
<!-- Node1&#45;&gt;Node9 -->
<g id="edge9" class="edge"><title>Node1&#45;&gt;Node9</title>
<path fill="none" stroke="midnightblue" d="M64.9084,-205.366C78.4221,-185.82 111.84,-141.382 151,-118 155.4,-115.373 160.154,-113.082 165.051,-111.086"/>
<polygon fill="midnightblue" stroke="midnightblue" points="166.4,-114.319 174.591,-107.599 163.997,-107.744 166.4,-114.319"/>
</g>
<!-- Node10 -->
<g id="node10" class="node"><title>Node10</title>
<g id="a_node10"><a xlink:href="classscram_1_1core_1_1CacheTable.xhtml#a371345f30fc0280f2f8b45c3602d0b76" target="_top" xlink:title="scram::core::CacheTable\l::size">
<polygon fill="white" stroke="black" points="161.5,-39 161.5,-69 288.5,-69 288.5,-39 161.5,-39"/>
<text text-anchor="start" x="169.5" y="-57" font-family="Helvetica,sans-Serif" font-size="10.00">scram::core::CacheTable</text>
<text text-anchor="middle" x="225" y="-46" font-family="Helvetica,sans-Serif" font-size="10.00">::size</text>
</a>
</g>
</g>
<!-- Node1&#45;&gt;Node10 -->
<g id="edge10" class="edge"><title>Node1&#45;&gt;Node10</title>
<path fill="none" stroke="midnightblue" d="M62.5096,-205.185C73.1414,-180.357 104.461,-114.507 151,-79 153.346,-77.2098 155.83,-75.5426 158.409,-73.9904"/>
<polygon fill="midnightblue" stroke="midnightblue" points="160.313,-76.9413 167.487,-69.145 157.017,-70.7658 160.313,-76.9413"/>
</g>
<!-- Node11 -->
<g id="node11" class="node"><title>Node11</title>
<g id="a_node11"><a xlink:href="classscram_1_1core_1_1Bdd.xhtml#a7ef48b098f618469a9347005f90a2280" target="_top" xlink:title="To handle incomplete ZBDD type with unique pointers. ">
<polygon fill="white" stroke="black" points="164.5,-0.5 164.5,-19.5 285.5,-19.5 285.5,-0.5 164.5,-0.5"/>
<text text-anchor="middle" x="225" y="-7.5" font-family="Helvetica,sans-Serif" font-size="10.00">scram::core::Bdd::~Bdd</text>
</a>
</g>
</g>
<!-- Node1&#45;&gt;Node11 -->
<g id="edge11" class="edge"><title>Node1&#45;&gt;Node11</title>
<path fill="none" stroke="midnightblue" d="M60.4484,-205.202C67.1032,-174.373 91.878,-78.5258 151,-30 153.723,-27.7647 156.677,-25.7782 159.783,-24.0129"/>
<polygon fill="midnightblue" stroke="midnightblue" points="161.406,-27.1158 168.874,-19.601 158.35,-20.8183 161.406,-27.1158"/>
</g>
<!-- Node3&#45;&gt;Node3 -->
<g id="edge3" class="edge"><title>Node3&#45;&gt;Node3</title>
<path fill="none" stroke="midnightblue" d="M199.415,-391.757C186.968,-400.565 195.496,-410 225,-410 244.823,-410 255.177,-405.741 256.063,-400.275"/>
<polygon fill="midnightblue" stroke="midnightblue" points="258.938,-398.275 250.585,-391.757 253.051,-402.061 258.938,-398.275"/>
</g>
</g>
</svg>
