<?xml version="1.0" encoding="UTF-8" standalone="no"?>
<!DOCTYPE svg PUBLIC "-//W3C//DTD SVG 1.1//EN"
 "http://www.w3.org/Graphics/SVG/1.1/DTD/svg11.dtd">
<!-- Generated by graphviz version 2.38.0 (20140413.2041)
 -->
<!-- Title: scram::core::Zbdd::FindOrAddVertex Pages: 1 -->
<!--zoomable 839 -->
<svg id="main" version="1.1" xmlns="http://www.w3.org/2000/svg" xmlns:xlink="http://www.w3.org/1999/xlink" xml:space="preserve" onload="init(evt)">
<style type="text/css"><![CDATA[
.edge:hover path { stroke: red; }
.edge:hover polygon { stroke: red; fill: red; }
]]></style>
<script type="text/javascript"><![CDATA[
var edges = document.getElementsByTagName('g');
if (edges && edges.length) {
  for (var i=0;i<edges.length;i++) {
    if (edges[i].id.substr(0,4)=='edge') {
      edges[i].setAttribute('class','edge');
    }
  }
}
]]></script>
        <defs>
                <circle id="rim" cx="0" cy="0" r="7"/>
                <circle id="rim2" cx="0" cy="0" r="3.5"/>
                <g id="zoomPlus">
                        <use xlink:href="#rim" fill="#404040">
                                <set attributeName="fill" to="#808080" begin="zoomplus.mouseover" end="zoomplus.mouseout"/>
                        </use>
                        <path d="M-4,0h8M0,-4v8" fill="none" stroke="white" stroke-width="1.5" pointer-events="none"/>
                </g>
                <g id="zoomMin">
                        <use xlink:href="#rim" fill="#404040">
                                <set attributeName="fill" to="#808080" begin="zoomminus.mouseover" end="zoomminus.mouseout"/>
                        </use>
                        <path d="M-4,0h8" fill="none" stroke="white" stroke-width="1.5" pointer-events="none"/>
                </g>
                <g id="dirArrow">
                        <path fill="none" stroke="white" stroke-width="1.5" d="M0,-3.0v7 M-2.5,-0.5L0,-3.0L2.5,-0.5"/>
                </g>
               <g id="resetDef">
                       <use xlink:href="#rim2" fill="#404040">
                               <set attributeName="fill" to="#808080" begin="reset.mouseover" end="reset.mouseout"/>
                       </use>
               </g>
        </defs>

<script type="text/javascript">
var viewWidth = 471;
var viewHeight = 839;
var sectionId = 'dynsection-17';
</script>
<script xlink:href="svgpan.js"/>
<svg id="graph" class="graph">
<g id="viewport">
<title>scram::core::Zbdd::FindOrAddVertex</title>
<polygon fill="white" stroke="none" points="-4,4 -4,-834.5 467,-834.5 467,4 -4,4"/>
<!-- Node1 -->
<g id="node1" class="node"><title>Node1</title>
<polygon fill="#bfbfbf" stroke="black" points="0,-420 0,-450 102,-450 102,-420 0,-420"/>
<text text-anchor="start" x="8" y="-438" font-family="Helvetica,sans-Serif" font-size="10.00">scram::core::Zbdd::</text>
<text text-anchor="middle" x="51" y="-427" font-family="Helvetica,sans-Serif" font-size="10.00">FindOrAddVertex</text>
</g>
<!-- Node2 -->
<g id="node2" class="node"><title>Node2</title>
<g id="a_node2"><a xlink:href="classscram_1_1core_1_1Zbdd.xhtml#a711aca319bb4d1586bf1ed92eccfaa97" target="_top" xlink:title="Applies Boolean operation to two vertices representing sets. ">
<polygon fill="white" stroke="black" points="169,-800 169,-830 271,-830 271,-800 169,-800"/>
<text text-anchor="start" x="177" y="-818" font-family="Helvetica,sans-Serif" font-size="10.00">scram::core::Zbdd::</text>
<text text-anchor="middle" x="220" y="-807" font-family="Helvetica,sans-Serif" font-size="10.00">Apply</text>
</a>
</g>
</g>
<!-- Node1&#45;&gt;Node2 -->
<g id="edge1" class="edge"><title>Node1&#45;&gt;Node2</title>
<path fill="none" stroke="midnightblue" d="M53.6915,-450.23C60.7838,-511.475 90.0025,-738.946 138,-790 143.869,-796.243 151.258,-800.939 159.171,-804.469"/>
<polygon fill="midnightblue" stroke="midnightblue" points="158.053,-807.788 168.643,-808.101 160.559,-801.252 158.053,-807.788"/>
</g>
<!-- Node3 -->
<g id="node3" class="node"><title>Node3</title>
<g id="a_node3"><a xlink:href="classscram_1_1core_1_1Gate.xhtml#aa793eeaa12244c5b39a0d80e5b1518ae" target="_top" xlink:title="scram::core::Gate::args">
<polygon fill="white" stroke="black" points="160,-761.5 160,-780.5 280,-780.5 280,-761.5 160,-761.5"/>
<text text-anchor="middle" x="220" y="-768.5" font-family="Helvetica,sans-Serif" font-size="10.00">scram::core::Gate::args</text>
</a>
</g>
</g>
<!-- Node1&#45;&gt;Node3 -->
<g id="edge2" class="edge"><title>Node1&#45;&gt;Node3</title>
<path fill="none" stroke="midnightblue" d="M54.0559,-450.233C62.0817,-507.47 93.092,-708.616 138,-752 141.735,-755.608 146.018,-758.578 150.623,-761.017"/>
<polygon fill="midnightblue" stroke="midnightblue" points="149.251,-764.237 159.813,-765.082 152.083,-757.835 149.251,-764.237"/>
</g>
<!-- Node4 -->
<g id="node4" class="node"><title>Node4</title>
<g id="a_node4"><a xlink:href="classscram_1_1core_1_1Zbdd.xhtml#a7c1129acd9810b5b9ff4952f587ce490" target="_top" xlink:title="Clears all memoization tables. ">
<polygon fill="white" stroke="black" points="169,-712 169,-742 271,-742 271,-712 169,-712"/>
<text text-anchor="start" x="177" y="-730" font-family="Helvetica,sans-Serif" font-size="10.00">scram::core::Zbdd::</text>
<text text-anchor="middle" x="220" y="-719" font-family="Helvetica,sans-Serif" font-size="10.00">ClearTables</text>
</a>
</g>
</g>
<!-- Node1&#45;&gt;Node4 -->
<g id="edge3" class="edge"><title>Node1&#45;&gt;Node4</title>
<path fill="none" stroke="midnightblue" d="M52.2041,-450.25C53.6599,-495.596 64.28,-630.917 138,-703 144.03,-708.896 151.437,-713.354 159.3,-716.723"/>
<polygon fill="midnightblue" stroke="midnightblue" points="158.089,-720.007 168.683,-720.198 160.521,-713.443 158.089,-720.007"/>
</g>
<!-- Node5 -->
<g id="node5" class="node"><title>Node5</title>
<g id="a_node5"><a xlink:href="classscram_1_1core_1_1Gate.xhtml#a0d070ec20569129162398c73165f65bc" target="_top" xlink:title="scram::core::Gate::\lcoherent">
<polygon fill="white" stroke="black" points="169.5,-663 169.5,-693 270.5,-693 270.5,-663 169.5,-663"/>
<text text-anchor="start" x="177.5" y="-681" font-family="Helvetica,sans-Serif" font-size="10.00">scram::core::Gate::</text>
<text text-anchor="middle" x="220" y="-670" font-family="Helvetica,sans-Serif" font-size="10.00">coherent</text>
</a>
</g>
</g>
<!-- Node1&#45;&gt;Node5 -->
<g id="edge4" class="edge"><title>Node1&#45;&gt;Node5</title>
<path fill="none" stroke="midnightblue" d="M53.4309,-450.002C58.0052,-489.452 75.843,-596.979 138,-654 144.292,-659.772 151.912,-664.16 159.929,-667.495"/>
<polygon fill="midnightblue" stroke="midnightblue" points="158.874,-670.836 169.469,-670.946 161.256,-664.253 158.874,-670.836"/>
</g>
<!-- Node6 -->
<g id="node6" class="node"><title>Node6</title>
<g id="a_node6"><a xlink:href="classscram_1_1core_1_1Gate.xhtml#ab2a4e8ac78b36541a32cc719863910a5" target="_top" xlink:title="scram::core::Gate::\lconstant">
<polygon fill="white" stroke="black" points="169.5,-614 169.5,-644 270.5,-644 270.5,-614 169.5,-614"/>
<text text-anchor="start" x="177.5" y="-632" font-family="Helvetica,sans-Serif" font-size="10.00">scram::core::Gate::</text>
<text text-anchor="middle" x="220" y="-621" font-family="Helvetica,sans-Serif" font-size="10.00">constant</text>
</a>
</g>
</g>
<!-- Node1&#45;&gt;Node6 -->
<g id="edge5" class="edge"><title>Node1&#45;&gt;Node6</title>
<path fill="none" stroke="midnightblue" d="M56.0194,-450.454C65.1494,-482.605 90.4377,-557.178 138,-599 144.394,-604.623 151.937,-609.227 159.804,-612.988"/>
<polygon fill="midnightblue" stroke="midnightblue" points="158.571,-616.268 169.139,-617.027 161.351,-609.844 158.571,-616.268"/>
</g>
<!-- Node7 -->
<g id="node7" class="node"><title>Node7</title>
<g id="a_node7"><a xlink:href="classscram_1_1core_1_1Zbdd.xhtml#a42af18229ba2e80201bc0fdac07b7091" target="_top" xlink:title="Finds or adds a unique SetNode in the ZBDD. ">
<polygon fill="white" stroke="black" points="169,-526 169,-556 271,-556 271,-526 169,-526"/>
<text text-anchor="start" x="177" y="-544" font-family="Helvetica,sans-Serif" font-size="10.00">scram::core::Zbdd::</text>
<text text-anchor="middle" x="220" y="-533" font-family="Helvetica,sans-Serif" font-size="10.00">FindOrAddVertex</text>
</a>
</g>
</g>
<!-- Node1&#45;&gt;Node7 -->
<g id="edge6" class="edge"><title>Node1&#45;&gt;Node7</title>
<path fill="none" stroke="midnightblue" d="M65.8902,-450.278C81.883,-467.103 109.617,-494.016 138,-511 144.861,-515.106 152.378,-518.803 159.98,-522.083"/>
<polygon fill="midnightblue" stroke="midnightblue" points="158.676,-525.331 169.257,-525.877 161.326,-518.852 158.676,-525.331"/>
</g>
<!-- Node8 -->
<g id="node8" class="node"><title>Node8</title>
<g id="a_node8"><a xlink:href="classscram_1_1core_1_1SetNode.xhtml#a2d7f99792b82961df2e5ecfcd735bb5f" target="_top" xlink:title="scram::core::SetNode\l::max_set_order">
<polygon fill="white" stroke="black" points="344,-548 344,-578 457,-578 457,-548 344,-548"/>
<text text-anchor="start" x="352" y="-566" font-family="Helvetica,sans-Serif" font-size="10.00">scram::core::SetNode</text>
<text text-anchor="middle" x="400.5" y="-555" font-family="Helvetica,sans-Serif" font-size="10.00">::max_set_order</text>
</a>
</g>
</g>
<!-- Node1&#45;&gt;Node8 -->
<g id="edge11" class="edge"><title>Node1&#45;&gt;Node8</title>
<path fill="none" stroke="midnightblue" d="M56.6664,-450.365C66.3774,-479.268 91.7933,-541.06 138,-566 198.933,-598.888 280.072,-591.527 335.718,-580.199"/>
<polygon fill="midnightblue" stroke="midnightblue" points="336.752,-583.558 345.801,-578.047 335.29,-576.712 336.752,-583.558"/>
</g>
<!-- Node9 -->
<g id="node9" class="node"><title>Node9</title>
<g id="a_node9"><a xlink:href="structscram_1_1core_1_1IntrusivePtrCast.xhtml#af153c12dc6133b7d9f9b7a57bba29f1d" target="_top" xlink:title="scram::core::IntrusivePtr\lCast\&lt; SetNode \&gt;::Ref">
<polygon fill="white" stroke="black" points="338,-473 338,-503 463,-503 463,-473 338,-473"/>
<text text-anchor="start" x="346" y="-491" font-family="Helvetica,sans-Serif" font-size="10.00">scram::core::IntrusivePtr</text>
<text text-anchor="middle" x="400.5" y="-480" font-family="Helvetica,sans-Serif" font-size="10.00">Cast&lt; SetNode &gt;::Ref</text>
</a>
</g>
</g>
<!-- Node1&#45;&gt;Node9 -->
<g id="edge18" class="edge"><title>Node1&#45;&gt;Node9</title>
<path fill="none" stroke="midnightblue" d="M102.111,-442.421C113.794,-445.498 126.254,-448.683 138,-451 201.546,-463.537 274.962,-470.777 327.798,-476.273"/>
<polygon fill="midnightblue" stroke="midnightblue" points="327.439,-479.754 337.749,-477.315 328.168,-472.792 327.439,-479.754"/>
</g>
<!-- Node1&#45;&gt;Node9 -->
<g id="edge19" class="edge"><title>Node1&#45;&gt;Node9</title>
<path fill="none" stroke="midnightblue" d="M74.3659,-450.078C91.5683,-457.298 116.033,-464.666 138,-469 201.413,-481.511 274.657,-488.747 327.468,-491.195"/>
<polygon fill="midnightblue" stroke="midnightblue" points="327.613,-494.704 337.749,-491.621 327.903,-487.71 327.613,-494.704"/>
</g>
<!-- Node10 -->
<g id="node10" class="node"><title>Node10</title>
<g id="a_node10"><a xlink:href="classscram_1_1core_1_1Node.xhtml#a62121e217b0da73112af7e07275f2c15" target="_top" xlink:title="scram::core::Node::\lindex">
<polygon fill="white" stroke="black" points="168,-420 168,-450 272,-450 272,-420 168,-420"/>
<text text-anchor="start" x="176" y="-438" font-family="Helvetica,sans-Serif" font-size="10.00">scram::core::Node::</text>
<text text-anchor="middle" x="220" y="-427" font-family="Helvetica,sans-Serif" font-size="10.00">index</text>
</a>
</g>
</g>
<!-- Node1&#45;&gt;Node10 -->
<g id="edge9" class="edge"><title>Node1&#45;&gt;Node10</title>
<path fill="none" stroke="midnightblue" d="M102.106,-435C119.534,-435 139.287,-435 157.529,-435"/>
<polygon fill="midnightblue" stroke="midnightblue" points="157.774,-438.5 167.774,-435 157.774,-431.5 157.774,-438.5"/>
</g>
<!-- Node11 -->
<g id="node11" class="node"><title>Node11</title>
<g id="a_node11"><a xlink:href="classscram_1_1core_1_1Settings.xhtml#a0e43ec0f017d23a4fa4e376c4060d380" target="_top" xlink:title="scram::core::Settings\l::limit_order">
<polygon fill="white" stroke="black" points="165,-371 165,-401 275,-401 275,-371 165,-371"/>
<text text-anchor="start" x="173" y="-389" font-family="Helvetica,sans-Serif" font-size="10.00">scram::core::Settings</text>
<text text-anchor="middle" x="220" y="-378" font-family="Helvetica,sans-Serif" font-size="10.00">::limit_order</text>
</a>
</g>
</g>
<!-- Node1&#45;&gt;Node11 -->
<g id="edge10" class="edge"><title>Node1&#45;&gt;Node11</title>
<path fill="none" stroke="midnightblue" d="M102.106,-420.298C119.696,-415.137 139.655,-409.281 158.038,-403.887"/>
<polygon fill="midnightblue" stroke="midnightblue" points="159.164,-407.204 167.774,-401.03 157.193,-400.488 159.164,-407.204"/>
</g>
<!-- Node12 -->
<g id="node12" class="node"><title>Node12</title>
<g id="a_node12"><a xlink:href="classscram_1_1core_1_1Gate.xhtml#a93fa477d60140843c4abae7de52fffa1" target="_top" xlink:title="scram::core::Gate::\lmodule">
<polygon fill="white" stroke="black" points="169.5,-322 169.5,-352 270.5,-352 270.5,-322 169.5,-322"/>
<text text-anchor="start" x="177.5" y="-340" font-family="Helvetica,sans-Serif" font-size="10.00">scram::core::Gate::</text>
<text text-anchor="middle" x="220" y="-329" font-family="Helvetica,sans-Serif" font-size="10.00">module</text>
</a>
</g>
</g>
<!-- Node1&#45;&gt;Node12 -->
<g id="edge12" class="edge"><title>Node1&#45;&gt;Node12</title>
<path fill="none" stroke="midnightblue" d="M66.1343,-419.775C82.1305,-403.372 109.667,-377.537 138,-362 144.805,-358.268 152.243,-355.013 159.766,-352.197"/>
<polygon fill="midnightblue" stroke="midnightblue" points="161.015,-355.468 169.297,-348.861 158.703,-348.861 161.015,-355.468"/>
</g>
<!-- Node13 -->
<g id="node13" class="node"><title>Node13</title>
<g id="a_node13"><a xlink:href="classscram_1_1core_1_1Node.xhtml#a8b76f2081293edc1cf85ddf8cb2ac2ed" target="_top" xlink:title="scram::core::Node::\lorder">
<polygon fill="white" stroke="black" points="168,-273 168,-303 272,-303 272,-273 168,-273"/>
<text text-anchor="start" x="176" y="-291" font-family="Helvetica,sans-Serif" font-size="10.00">scram::core::Node::</text>
<text text-anchor="middle" x="220" y="-280" font-family="Helvetica,sans-Serif" font-size="10.00">order</text>
</a>
</g>
</g>
<!-- Node1&#45;&gt;Node13 -->
<g id="edge13" class="edge"><title>Node1&#45;&gt;Node13</title>
<path fill="none" stroke="midnightblue" d="M58.6358,-419.809C70.6772,-394.003 98.5789,-341.626 138,-313 144.058,-308.601 150.908,-304.962 157.995,-301.957"/>
<polygon fill="midnightblue" stroke="midnightblue" points="159.655,-305.069 167.754,-298.238 157.163,-298.528 159.655,-305.069"/>
</g>
<!-- Node14 -->
<g id="node14" class="node"><title>Node14</title>
<g id="a_node14"><a xlink:href="classscram_1_1core_1_1NonTerminal.xhtml#af5853746ad388f479a7aa45c5d843466" target="_top" xlink:title="scram::core::NonTerminal\l::order">
<polygon fill="white" stroke="black" points="155,-224 155,-254 285,-254 285,-224 155,-224"/>
<text text-anchor="start" x="163" y="-242" font-family="Helvetica,sans-Serif" font-size="10.00">scram::core::NonTerminal</text>
<text text-anchor="middle" x="220" y="-231" font-family="Helvetica,sans-Serif" font-size="10.00">::order</text>
</a>
</g>
</g>
<!-- Node1&#45;&gt;Node14 -->
<g id="edge14" class="edge"><title>Node1&#45;&gt;Node14</title>
<path fill="none" stroke="midnightblue" d="M55.3216,-419.945C63.4297,-386.747 87.3842,-306.814 138,-264 140.528,-261.861 143.238,-259.906 146.077,-258.117"/>
<polygon fill="midnightblue" stroke="midnightblue" points="147.864,-261.129 154.934,-253.238 144.486,-254.998 147.864,-261.129"/>
</g>
<!-- Node15 -->
<g id="node15" class="node"><title>Node15</title>
<g id="a_node15"><a xlink:href="classscram_1_1core_1_1NodeParentManager.xhtml#a6fca1af860a85acc2907699d1d1be716" target="_top" xlink:title="scram::core::NodeParentManager\l::parents">
<polygon fill="white" stroke="black" points="138,-175 138,-205 302,-205 302,-175 138,-175"/>
<text text-anchor="start" x="146" y="-193" font-family="Helvetica,sans-Serif" font-size="10.00">scram::core::NodeParentManager</text>
<text text-anchor="middle" x="220" y="-182" font-family="Helvetica,sans-Serif" font-size="10.00">::parents</text>
</a>
</g>
</g>
<!-- Node1&#45;&gt;Node15 -->
<g id="edge15" class="edge"><title>Node1&#45;&gt;Node15</title>
<path fill="none" stroke="midnightblue" d="M53.4447,-419.971C58.0529,-380.44 75.9664,-272.647 138,-215 139.708,-213.413 141.515,-211.926 143.402,-210.534"/>
<polygon fill="midnightblue" stroke="midnightblue" points="145.549,-213.317 152.13,-205.014 141.808,-207.401 145.549,-213.317"/>
</g>
<!-- Node16 -->
<g id="node16" class="node"><title>Node16</title>
<g id="a_node16"><a xlink:href="classscram_1_1core_1_1Settings.xhtml#ae64f362fceb44402e101140dfc1725ba" target="_top" xlink:title="scram::core::Settings\l::prime_implicants">
<polygon fill="white" stroke="black" points="165,-126 165,-156 275,-156 275,-126 165,-126"/>
<text text-anchor="start" x="173" y="-144" font-family="Helvetica,sans-Serif" font-size="10.00">scram::core::Settings</text>
<text text-anchor="middle" x="220" y="-133" font-family="Helvetica,sans-Serif" font-size="10.00">::prime_implicants</text>
</a>
</g>
</g>
<!-- Node1&#45;&gt;Node16 -->
<g id="edge16" class="edge"><title>Node1&#45;&gt;Node16</title>
<path fill="none" stroke="midnightblue" d="M52.2227,-419.733C53.7302,-374.329 64.4802,-238.783 138,-166 142.989,-161.061 148.932,-157.094 155.299,-153.909"/>
<polygon fill="midnightblue" stroke="midnightblue" points="157.074,-156.955 164.869,-149.78 154.301,-150.528 157.074,-156.955"/>
</g>
<!-- Node17 -->
<g id="node17" class="node"><title>Node17</title>
<g id="a_node17"><a xlink:href="structscram_1_1core_1_1IntrusivePtrCast.xhtml#adc53e5b89cace18e05bac95316da7d91" target="_top" xlink:title="scram::core::IntrusivePtr\lCast\&lt; Ite \&gt;::Ptr">
<polygon fill="white" stroke="black" points="157.5,-77 157.5,-107 282.5,-107 282.5,-77 157.5,-77"/>
<text text-anchor="start" x="165.5" y="-95" font-family="Helvetica,sans-Serif" font-size="10.00">scram::core::IntrusivePtr</text>
<text text-anchor="middle" x="220" y="-84" font-family="Helvetica,sans-Serif" font-size="10.00">Cast&lt; Ite &gt;::Ptr</text>
</a>
</g>
</g>
<!-- Node1&#45;&gt;Node17 -->
<g id="edge17" class="edge"><title>Node1&#45;&gt;Node17</title>
<path fill="none" stroke="midnightblue" d="M51.3395,-419.95C49.9858,-369.634 52.5984,-205.466 138,-117 141.047,-113.843 144.483,-111.083 148.176,-108.669"/>
<polygon fill="midnightblue" stroke="midnightblue" points="150.165,-111.568 157.197,-103.643 146.758,-105.453 150.165,-111.568"/>
</g>
<!-- Node18 -->
<g id="node18" class="node"><title>Node18</title>
<g id="a_node18"><a xlink:href="classext_1_1linear__map.xhtml#a670bc30d04c01d2fb124d5ebbc8ade71" target="_top" xlink:title="ext::linear_map::size">
<polygon fill="white" stroke="black" points="166.5,-38.5 166.5,-57.5 273.5,-57.5 273.5,-38.5 166.5,-38.5"/>
<text text-anchor="middle" x="220" y="-45.5" font-family="Helvetica,sans-Serif" font-size="10.00">ext::linear_map::size</text>
</a>
</g>
</g>
<!-- Node1&#45;&gt;Node18 -->
<g id="edge20" class="edge"><title>Node1&#45;&gt;Node18</title>
<path fill="none" stroke="midnightblue" d="M53.4891,-419.609C59.8871,-356.642 87.0572,-119.552 138,-68 143.25,-62.6875 149.671,-58.7037 156.578,-55.7288"/>
<polygon fill="midnightblue" stroke="midnightblue" points="158.002,-58.9365 166.235,-52.2675 155.64,-52.347 158.002,-58.9365"/>
</g>
<!-- Node19 -->
<g id="node19" class="node"><title>Node19</title>
<g id="a_node19"><a xlink:href="classscram_1_1core_1_1Gate.xhtml#ad5a5766ce9dbbd2104c0bb07b9639a48" target="_top" xlink:title="scram::core::Gate::type">
<polygon fill="white" stroke="black" points="160,-0.5 160,-19.5 280,-19.5 280,-0.5 160,-0.5"/>
<text text-anchor="middle" x="220" y="-7.5" font-family="Helvetica,sans-Serif" font-size="10.00">scram::core::Gate::type</text>
</a>
</g>
</g>
<!-- Node1&#45;&gt;Node19 -->
<g id="edge21" class="edge"><title>Node1&#45;&gt;Node19</title>
<path fill="none" stroke="midnightblue" d="M53.0835,-419.813C58.1516,-353.069 81.6867,-86.5468 138,-29 141.694,-25.2254 145.985,-22.1415 150.627,-19.6279"/>
<polygon fill="midnightblue" stroke="midnightblue" points="152.226,-22.7468 159.922,-15.4654 149.365,-16.3581 152.226,-22.7468"/>
</g>
<!-- Node7&#45;&gt;Node8 -->
<g id="edge7" class="edge"><title>Node7&#45;&gt;Node8</title>
<path fill="none" stroke="midnightblue" d="M271.197,-547.187C290.604,-549.579 313.08,-552.349 333.746,-554.896"/>
<polygon fill="midnightblue" stroke="midnightblue" points="333.371,-558.376 343.724,-556.126 334.227,-551.429 333.371,-558.376"/>
</g>
<!-- Node7&#45;&gt;Node9 -->
<g id="edge8" class="edge"><title>Node7&#45;&gt;Node9</title>
<path fill="none" stroke="midnightblue" d="M271.197,-526.096C292.306,-519.828 317.045,-512.482 339.138,-505.923"/>
<polygon fill="midnightblue" stroke="midnightblue" points="340.161,-509.27 348.751,-503.068 338.168,-502.56 340.161,-509.27"/>
</g>
</g>
</svg>
        <g id="navigator" transform="translate(0 0)" fill="#404254">
                <rect fill="#f2f5e9" fill-opacity="0.5" stroke="#606060" stroke-width=".5" x="0" y="0" width="60" height="60"/>
                <use id="zoomplus" xlink:href="#zoomPlus" x="17" y="9" onmousedown="handleZoom(evt,'in')"/>
                <use id="zoomminus" xlink:href="#zoomMin" x="42" y="9" onmousedown="handleZoom(evt,'out')"/>
                <use id="reset" xlink:href="#resetDef" x="30" y="36" onmousedown="handleReset()"/>
                <g id="arrowUp" xlink:href="#dirArrow" transform="translate(30 24)" onmousedown="handlePan(0,-1)">
                  <use xlink:href="#rim" fill="#404040">
                        <set attributeName="fill" to="#808080" begin="arrowUp.mouseover" end="arrowUp.mouseout"/>
                  </use>
                  <path fill="none" stroke="white" stroke-width="1.5" d="M0,-3.0v7 M-2.5,-0.5L0,-3.0L2.5,-0.5"/>
                </g>
                <g id="arrowRight" xlink:href="#dirArrow" transform="rotate(90) translate(36 -43)" onmousedown="handlePan(1,0)">
                  <use xlink:href="#rim" fill="#404040">
                        <set attributeName="fill" to="#808080" begin="arrowRight.mouseover" end="arrowRight.mouseout"/>
                  </use>
                  <path fill="none" stroke="white" stroke-width="1.5" d="M0,-3.0v7 M-2.5,-0.5L0,-3.0L2.5,-0.5"/>
                </g>
                <g id="arrowDown" xlink:href="#dirArrow" transform="rotate(180) translate(-30 -48)" onmousedown="handlePan(0,1)">
                  <use xlink:href="#rim" fill="#404040">
                        <set attributeName="fill" to="#808080" begin="arrowDown.mouseover" end="arrowDown.mouseout"/>
                  </use>
                  <path fill="none" stroke="white" stroke-width="1.5" d="M0,-3.0v7 M-2.5,-0.5L0,-3.0L2.5,-0.5"/>
                </g>
                <g id="arrowLeft" xlink:href="#dirArrow" transform="rotate(270) translate(-36 17)" onmousedown="handlePan(-1,0)">
                  <use xlink:href="#rim" fill="#404040">
                        <set attributeName="fill" to="#808080" begin="arrowLeft.mouseover" end="arrowLeft.mouseout"/>
                  </use>
                  <path fill="none" stroke="white" stroke-width="1.5" d="M0,-3.0v7 M-2.5,-0.5L0,-3.0L2.5,-0.5"/>
                </g>
        </g>
        <svg viewBox="0 0 15 15" width="100%" height="30px" preserveAspectRatio="xMaxYMin meet">
         <g id="arrow_out" transform="scale(0.3 0.3)">
          <a xlink:href="classscram_1_1core_1_1Zbdd_ac90d12f0c653c679d22109124fa6344c_cgraph_org.svg" target="_base">
           <rect id="button" ry="5" rx="5" y="6" x="6" height="38" width="38"
                fill="#f2f5e9" fill-opacity="0.5" stroke="#606060" stroke-width="1.0"/>
           <path id="arrow"
             d="M 11.500037,31.436501 C 11.940474,20.09759 22.043105,11.32322 32.158766,21.979434 L 37.068811,17.246167 C 37.068811,17.246167 37.088388,32 37.088388,32 L 22.160133,31.978069 C 22.160133,31.978069 26.997745,27.140456 26.997745,27.140456 C 18.528582,18.264221 13.291696,25.230495 11.500037,31.436501 z"
             style="fill:#404040;"/>
          </a>
         </g>
        </svg>
</svg>
