<?xml version="1.0" encoding="UTF-8" standalone="no"?>
<!DOCTYPE svg PUBLIC "-//W3C//DTD SVG 1.1//EN"
 "http://www.w3.org/Graphics/SVG/1.1/DTD/svg11.dtd">
<!-- Generated by graphviz version 2.38.0 (20140413.2041)
 -->
<!-- Title: scram::core::RareEventCalculator Pages: 1 -->
<svg width="173pt" height="171pt"
 viewBox="0.00 0.00 173.00 171.00" xmlns="http://www.w3.org/2000/svg" xmlns:xlink="http://www.w3.org/1999/xlink">
<g id="graph0" class="graph" transform="scale(1 1) rotate(0) translate(4 167)">
<title>scram::core::RareEventCalculator</title>
<polygon fill="white" stroke="none" points="-4,4 -4,-167 169,-167 169,4 -4,4"/>
<!-- Node1 -->
<g id="node1" class="node"><title>Node1</title>
<polygon fill="#bfbfbf" stroke="black" points="0,-0.5 0,-57.5 165,-57.5 165,-0.5 0,-0.5"/>
<text text-anchor="middle" x="82.5" y="-45.5" font-family="Helvetica,sans-Serif" font-size="10.00">scram::core::RareEventCalculator</text>
<polyline fill="none" stroke="black" points="0,-38.5 165,-38.5 "/>
<text text-anchor="middle" x="82.5" y="-26.5" font-family="Helvetica,sans-Serif" font-size="10.00"> </text>
<polyline fill="none" stroke="black" points="0,-19.5 165,-19.5 "/>
<text text-anchor="start" x="8" y="-7.5" font-family="Helvetica,sans-Serif" font-size="10.00">+ Calculate()</text>
</g>
<!-- Node2 -->
<g id="node2" class="node"><title>Node2</title>
<g id="a_node2"><a xlink:href="classscram_1_1core_1_1CutSetProbabilityCalculator.xhtml" target="_top" xlink:title="Quantitative calculator of a probability value of a single cut set. ">
<polygon fill="white" stroke="black" points="7,-94.5 7,-162.5 158,-162.5 158,-94.5 7,-94.5"/>
<text text-anchor="start" x="15" y="-150.5" font-family="Helvetica,sans-Serif" font-size="10.00">scram::core::CutSetProbability</text>
<text text-anchor="middle" x="82.5" y="-139.5" font-family="Helvetica,sans-Serif" font-size="10.00">Calculator</text>
<polyline fill="none" stroke="black" points="7,-132.5 158,-132.5 "/>
<text text-anchor="middle" x="82.5" y="-120.5" font-family="Helvetica,sans-Serif" font-size="10.00"> </text>
<polyline fill="none" stroke="black" points="7,-113.5 158,-113.5 "/>
<text text-anchor="start" x="15" y="-101.5" font-family="Helvetica,sans-Serif" font-size="10.00">+ Calculate()</text>
</a>
</g>
</g>
<!-- Node2&#45;&gt;Node1 -->
<g id="edge1" class="edge"><title>Node2&#45;&gt;Node1</title>
<path fill="none" stroke="#8b1a1a" d="M82.5,-84.4538C82.5,-75.4036 82.5,-66.0876 82.5,-57.7765"/>
<polygon fill="none" stroke="#8b1a1a" points="79.0001,-84.4909 82.5,-94.4909 86.0001,-84.491 79.0001,-84.4909"/>
</g>
</g>
</svg>
