<?xml version="1.0" encoding="UTF-8" standalone="no"?>
<!DOCTYPE svg PUBLIC "-//W3C//DTD SVG 1.1//EN"
 "http://www.w3.org/Graphics/SVG/1.1/DTD/svg11.dtd">
<!-- Generated by graphviz version 2.38.0 (20140413.2041)
 -->
<!-- Title: scram::core::Preprocessor::NormalizeGate Pages: 1 -->
<svg width="1039pt" height="204pt"
 viewBox="0.00 0.00 1039.00 204.00" xmlns="http://www.w3.org/2000/svg" xmlns:xlink="http://www.w3.org/1999/xlink">
<g id="graph0" class="graph" transform="scale(1 1) rotate(0) translate(4 200)">
<title>scram::core::Preprocessor::NormalizeGate</title>
<polygon fill="white" stroke="none" points="-4,4 -4,-200 1035,-200 1035,4 -4,4"/>
<!-- Node1 -->
<g id="node1" class="node"><title>Node1</title>
<polygon fill="#bfbfbf" stroke="black" points="0,-165.5 0,-195.5 132,-195.5 132,-165.5 0,-165.5"/>
<text text-anchor="start" x="8" y="-183.5" font-family="Helvetica,sans-Serif" font-size="10.00">scram::core::Preprocessor</text>
<text text-anchor="middle" x="66" y="-172.5" font-family="Helvetica,sans-Serif" font-size="10.00">::NormalizeGate</text>
</g>
<!-- Node2 -->
<g id="node2" class="node"><title>Node2</title>
<g id="a_node2"><a xlink:href="classscram_1_1core_1_1Preprocessor.xhtml#ad13e133278ea7563c1ba037c05c35aa2" target="_top" xlink:title="Normalizes the gates of the whole PDAG into OR, AND gates. ">
<polygon fill="white" stroke="black" points="168,-124.5 168,-154.5 300,-154.5 300,-124.5 168,-124.5"/>
<text text-anchor="start" x="176" y="-142.5" font-family="Helvetica,sans-Serif" font-size="10.00">scram::core::Preprocessor</text>
<text text-anchor="middle" x="234" y="-131.5" font-family="Helvetica,sans-Serif" font-size="10.00">::NormalizeGates</text>
</a>
</g>
</g>
<!-- Node1&#45;&gt;Node2 -->
<g id="edge1" class="edge"><title>Node1&#45;&gt;Node2</title>
<path fill="none" stroke="midnightblue" d="M137.807,-163.012C149.233,-160.19 160.973,-157.29 172.138,-154.532"/>
<polygon fill="midnightblue" stroke="midnightblue" points="136.739,-159.67 127.87,-165.466 138.417,-166.466 136.739,-159.67"/>
</g>
<!-- Node3 -->
<g id="node3" class="node"><title>Node3</title>
<g id="a_node3"><a xlink:href="classscram_1_1core_1_1Preprocessor.xhtml#a5ee92284aef510ce01a71c962d50f51c" target="_top" xlink:title="Runs the graph preprocessing. ">
<polygon fill="white" stroke="black" points="713.5,-111.5 713.5,-141.5 845.5,-141.5 845.5,-111.5 713.5,-111.5"/>
<text text-anchor="start" x="721.5" y="-129.5" font-family="Helvetica,sans-Serif" font-size="10.00">scram::core::Preprocessor</text>
<text text-anchor="middle" x="779.5" y="-118.5" font-family="Helvetica,sans-Serif" font-size="10.00">::operator()</text>
</a>
</g>
</g>
<!-- Node1&#45;&gt;Node3 -->
<g id="edge13" class="edge"><title>Node1&#45;&gt;Node3</title>
<path fill="none" stroke="midnightblue" d="M142.621,-182.432C255.778,-184.199 475.59,-183.278 660,-156.5 682.892,-153.176 707.773,-147.244 728.799,-141.527"/>
<polygon fill="midnightblue" stroke="midnightblue" points="142.397,-178.928 132.34,-182.26 142.28,-185.927 142.397,-178.928"/>
</g>
<!-- Node2&#45;&gt;Node3 -->
<g id="edge2" class="edge"><title>Node2&#45;&gt;Node3</title>
<path fill="none" stroke="midnightblue" d="M310.303,-143.638C318.966,-143.993 327.674,-144.294 336,-144.5 479.99,-148.062 516.266,-146.784 660,-137.5 677.319,-136.381 696.031,-134.812 713.357,-133.209"/>
<polygon fill="midnightblue" stroke="midnightblue" points="310.322,-140.136 300.18,-143.201 310.019,-147.13 310.322,-140.136"/>
</g>
<!-- Node5 -->
<g id="node5" class="node"><title>Node5</title>
<g id="a_node5"><a xlink:href="classscram_1_1core_1_1Preprocessor.xhtml#a44f820b6fe2c23594c818432b33e26a6" target="_top" xlink:title="The initial phase of preprocessing. ">
<polygon fill="white" stroke="black" points="336,-105.5 336,-135.5 468,-135.5 468,-105.5 336,-105.5"/>
<text text-anchor="start" x="344" y="-123.5" font-family="Helvetica,sans-Serif" font-size="10.00">scram::core::Preprocessor</text>
<text text-anchor="middle" x="402" y="-112.5" font-family="Helvetica,sans-Serif" font-size="10.00">::RunPhaseOne</text>
</a>
</g>
</g>
<!-- Node2&#45;&gt;Node5 -->
<g id="edge4" class="edge"><title>Node2&#45;&gt;Node5</title>
<path fill="none" stroke="midnightblue" d="M310.114,-130.903C318.681,-129.922 327.361,-128.929 335.784,-127.964"/>
<polygon fill="midnightblue" stroke="midnightblue" points="309.668,-127.431 300.131,-132.045 310.464,-134.385 309.668,-127.431"/>
</g>
<!-- Node9 -->
<g id="node9" class="node"><title>Node9</title>
<g id="a_node9"><a xlink:href="classscram_1_1core_1_1Preprocessor.xhtml#abf2c66723172a85b2ae87ef2a034cd1f" target="_top" xlink:title="Application of gate normalization. ">
<polygon fill="white" stroke="black" points="336,-56.5 336,-86.5 468,-86.5 468,-56.5 336,-56.5"/>
<text text-anchor="start" x="344" y="-74.5" font-family="Helvetica,sans-Serif" font-size="10.00">scram::core::Preprocessor</text>
<text text-anchor="middle" x="402" y="-63.5" font-family="Helvetica,sans-Serif" font-size="10.00">::RunPhaseThree</text>
</a>
</g>
</g>
<!-- Node2&#45;&gt;Node9 -->
<g id="edge10" class="edge"><title>Node2&#45;&gt;Node9</title>
<path fill="none" stroke="midnightblue" d="M278.023,-120.112C295.864,-112.241 316.835,-103.206 336,-95.5 343.478,-92.4935 351.494,-89.4167 359.254,-86.5125"/>
<polygon fill="midnightblue" stroke="midnightblue" points="276.188,-117.097 268.464,-124.349 279.024,-123.496 276.188,-117.097"/>
</g>
<!-- Node4 -->
<g id="node4" class="node"><title>Node4</title>
<g id="a_node4"><a xlink:href="classscram_1_1core_1_1Preprocessor_1_1GateSet.xhtml#ae00239084858979e096032c4cf2f05b9" target="_top" xlink:title="Inserts a gate into the set if it is semantically unique. ">
<polygon fill="white" stroke="black" points="899,-111.5 899,-141.5 1031,-141.5 1031,-111.5 899,-111.5"/>
<text text-anchor="start" x="907" y="-129.5" font-family="Helvetica,sans-Serif" font-size="10.00">scram::core::Preprocessor</text>
<text text-anchor="middle" x="965" y="-118.5" font-family="Helvetica,sans-Serif" font-size="10.00">::GateSet::insert</text>
</a>
</g>
</g>
<!-- Node3&#45;&gt;Node4 -->
<g id="edge3" class="edge"><title>Node3&#45;&gt;Node4</title>
<path fill="none" stroke="midnightblue" d="M855.989,-126.5C870.264,-126.5 885.081,-126.5 898.998,-126.5"/>
<polygon fill="midnightblue" stroke="midnightblue" points="855.712,-123 845.712,-126.5 855.712,-130 855.712,-123"/>
</g>
<!-- Node5&#45;&gt;Node3 -->
<g id="edge5" class="edge"><title>Node5&#45;&gt;Node3</title>
<path fill="none" stroke="midnightblue" d="M478.74,-121.71C547.516,-122.809 647.901,-124.413 713.214,-125.457"/>
<polygon fill="midnightblue" stroke="midnightblue" points="478.462,-118.205 468.407,-121.545 478.35,-125.205 478.462,-118.205"/>
</g>
<!-- Node6 -->
<g id="node6" class="node"><title>Node6</title>
<g id="a_node6"><a xlink:href="classscram_1_1core_1_1Preprocessor.xhtml#a2b6705e815fa3d02119c405b483766d5" target="_top" xlink:title="Container of unique gates by semantics. ">
<polygon fill="white" stroke="black" points="504,-41 504,-60 660,-60 660,-41 504,-41"/>
<text text-anchor="middle" x="582" y="-48" font-family="Helvetica,sans-Serif" font-size="10.00">scram::core::Preprocessor::Run</text>
</a>
</g>
</g>
<!-- Node5&#45;&gt;Node6 -->
<g id="edge6" class="edge"><title>Node5&#45;&gt;Node6</title>
<path fill="none" stroke="midnightblue" d="M452.135,-101.673C457.493,-99.5986 462.863,-97.5106 468,-95.5 498.872,-83.4164 534.379,-69.229 557.224,-60.063"/>
<polygon fill="midnightblue" stroke="midnightblue" points="450.626,-98.5033 442.558,-105.371 453.148,-105.033 450.626,-98.5033"/>
</g>
<!-- Node6&#45;&gt;Node3 -->
<g id="edge8" class="edge"><title>Node6&#45;&gt;Node3</title>
<path fill="none" stroke="midnightblue" d="M626.487,-63.1267C637.503,-66.5784 649.256,-70.4824 660,-74.5 689.882,-85.6736 723.073,-100.451 746.709,-111.396"/>
<polygon fill="midnightblue" stroke="midnightblue" points="627.215,-59.6888 616.628,-60.0937 625.156,-66.3794 627.215,-59.6888"/>
</g>
<!-- Node7 -->
<g id="node7" class="node"><title>Node7</title>
<g id="a_node7"><a xlink:href="classscram_1_1core_1_1Preprocessor.xhtml#a9caf4677a024ed935d831210b57b8ed9" target="_top" xlink:title="Gathers nodes in the sub&#45;graph. ">
<polygon fill="white" stroke="black" points="713.5,-0.5 713.5,-30.5 845.5,-30.5 845.5,-0.5 713.5,-0.5"/>
<text text-anchor="start" x="721.5" y="-18.5" font-family="Helvetica,sans-Serif" font-size="10.00">scram::core::Preprocessor</text>
<text text-anchor="middle" x="779.5" y="-7.5" font-family="Helvetica,sans-Serif" font-size="10.00">::GatherNodes</text>
</a>
</g>
</g>
<!-- Node6&#45;&gt;Node7 -->
<g id="edge7" class="edge"><title>Node6&#45;&gt;Node7</title>
<path fill="none" stroke="midnightblue" d="M646.181,-39.1888C667.716,-35.3334 691.821,-31.018 713.496,-27.1375"/>
<polygon fill="midnightblue" stroke="midnightblue" points="645.39,-35.7748 636.163,-40.9823 646.623,-42.6652 645.39,-35.7748"/>
</g>
<!-- Node8 -->
<g id="node8" class="node"><title>Node8</title>
<g id="a_node8"><a xlink:href="classscram_1_1core_1_1CustomPreprocessor_3_01Zbdd_01_4.xhtml#a5185075f852c647c7aa4313d23420ee5" target="_top" xlink:title="Performs preprocessing for analyses with Zero&#45;Suppressed Binary Decision Diagrams. ">
<polygon fill="white" stroke="black" points="696,-49.5 696,-79.5 863,-79.5 863,-49.5 696,-49.5"/>
<text text-anchor="start" x="704" y="-67.5" font-family="Helvetica,sans-Serif" font-size="10.00">scram::core::CustomPreprocessor</text>
<text text-anchor="middle" x="779.5" y="-56.5" font-family="Helvetica,sans-Serif" font-size="10.00">&lt; Zbdd &gt;::Run</text>
</a>
</g>
</g>
<!-- Node6&#45;&gt;Node8 -->
<g id="edge9" class="edge"><title>Node6&#45;&gt;Node8</title>
<path fill="none" stroke="midnightblue" d="M670.44,-56.7617C678.836,-57.3629 687.334,-57.9715 695.683,-58.5694"/>
<polygon fill="midnightblue" stroke="midnightblue" points="670.491,-53.2565 660.267,-56.0332 669.991,-60.2386 670.491,-53.2565"/>
</g>
<!-- Node9&#45;&gt;Node3 -->
<g id="edge11" class="edge"><title>Node9&#45;&gt;Node3</title>
<path fill="none" stroke="midnightblue" d="M478.317,-82.5317C547.104,-92.6071 647.767,-107.351 713.214,-116.937"/>
<polygon fill="midnightblue" stroke="midnightblue" points="478.809,-79.0666 468.407,-81.0803 477.794,-85.9927 478.809,-79.0666"/>
</g>
<!-- Node9&#45;&gt;Node6 -->
<g id="edge12" class="edge"><title>Node9&#45;&gt;Node6</title>
<path fill="none" stroke="midnightblue" d="M478.221,-62.6257C486.672,-61.6286 495.292,-60.6116 503.768,-59.6116"/>
<polygon fill="midnightblue" stroke="midnightblue" points="477.539,-59.1817 468.018,-63.8294 478.359,-66.1335 477.539,-59.1817"/>
</g>
</g>
</svg>
