<?xml version="1.0" encoding="UTF-8" standalone="no"?>
<!DOCTYPE svg PUBLIC "-//W3C//DTD SVG 1.1//EN"
 "http://www.w3.org/Graphics/SVG/1.1/DTD/svg11.dtd">
<!-- Generated by graphviz version 2.38.0 (20140413.2041)
 -->
<!-- Title: scram::core::Preprocessor::BooleanOptimization Pages: 1 -->
<svg width="798pt" height="630pt"
 viewBox="0.00 0.00 798.00 630.10" xmlns="http://www.w3.org/2000/svg" xmlns:xlink="http://www.w3.org/1999/xlink">
<g id="graph0" class="graph" transform="scale(1 1) rotate(0) translate(4 626.1)">
<title>scram::core::Preprocessor::BooleanOptimization</title>
<polygon fill="white" stroke="none" points="-4,4 -4,-626.1 794,-626.1 794,4 -4,4"/>
<!-- Node1 -->
<g id="node1" class="node"><title>Node1</title>
<polygon fill="#bfbfbf" stroke="black" points="0,-481.5 0,-511.5 132,-511.5 132,-481.5 0,-481.5"/>
<text text-anchor="start" x="8" y="-499.5" font-family="Helvetica,sans-Serif" font-size="10.00">scram::core::Preprocessor</text>
<text text-anchor="middle" x="66" y="-488.5" font-family="Helvetica,sans-Serif" font-size="10.00">::BooleanOptimization</text>
</g>
<!-- Node2 -->
<g id="node2" class="node"><title>Node2</title>
<g id="a_node2"><a xlink:href="classscram_1_1core_1_1Pdag.xhtml#aa883d0e58b9faab69186bec03574c633" target="_top" xlink:title="Clears marks from graph nodes. ">
<polygon fill="white" stroke="black" points="354.5,-558.5 354.5,-588.5 457.5,-588.5 457.5,-558.5 354.5,-558.5"/>
<text text-anchor="start" x="362.5" y="-576.5" font-family="Helvetica,sans-Serif" font-size="10.00">scram::core::Pdag::</text>
<text text-anchor="middle" x="406" y="-565.5" font-family="Helvetica,sans-Serif" font-size="10.00">Clear</text>
</a>
</g>
</g>
<!-- Node1&#45;&gt;Node2 -->
<g id="edge1" class="edge"><title>Node1&#45;&gt;Node2</title>
<path fill="none" stroke="midnightblue" d="M126.485,-511.504C140.109,-514.862 154.543,-518.359 168,-521.5 227.744,-535.446 296.217,-550.354 344.151,-560.616"/>
<polygon fill="midnightblue" stroke="midnightblue" points="343.546,-564.066 354.057,-562.733 345.009,-557.22 343.546,-564.066"/>
</g>
<!-- Node3 -->
<g id="node3" class="node"><title>Node3</title>
<g id="a_node3"><a xlink:href="classscram_1_1core_1_1Preprocessor.xhtml#a394fb1b5b5f9ee31dc81ad8d64353ee3" target="_top" xlink:title="Traverses the graph to find nodes that have more than one parent. ">
<polygon fill="white" stroke="black" points="168,-481.5 168,-511.5 300,-511.5 300,-481.5 168,-481.5"/>
<text text-anchor="start" x="176" y="-499.5" font-family="Helvetica,sans-Serif" font-size="10.00">scram::core::Preprocessor</text>
<text text-anchor="middle" x="234" y="-488.5" font-family="Helvetica,sans-Serif" font-size="10.00">::GatherCommonNodes</text>
</a>
</g>
</g>
<!-- Node1&#45;&gt;Node3 -->
<g id="edge2" class="edge"><title>Node1&#45;&gt;Node3</title>
<path fill="none" stroke="midnightblue" d="M132.131,-496.5C140.461,-496.5 149.044,-496.5 157.521,-496.5"/>
<polygon fill="midnightblue" stroke="midnightblue" points="157.784,-500 167.784,-496.5 157.784,-493 157.784,-500"/>
</g>
<!-- Node4 -->
<g id="node4" class="node"><title>Node4</title>
<g id="a_node4"><a xlink:href="classscram_1_1core_1_1Pdag.xhtml#ae9407efbb00e5f28aecb40db2ab7925b" target="_top" xlink:title="scram::core::Pdag::root">
<polygon fill="white" stroke="black" points="522,-432 522,-451 641,-451 641,-432 522,-432"/>
<text text-anchor="middle" x="581.5" y="-439" font-family="Helvetica,sans-Serif" font-size="10.00">scram::core::Pdag::root</text>
</a>
</g>
</g>
<!-- Node1&#45;&gt;Node4 -->
<g id="edge26" class="edge"><title>Node1&#45;&gt;Node4</title>
<path fill="none" stroke="midnightblue" d="M87.8527,-511.606C150.298,-554.841 339.884,-671.411 476,-598.5 531.191,-568.937 562.236,-495.943 574.414,-460.893"/>
<polygon fill="midnightblue" stroke="midnightblue" points="577.762,-461.918 577.594,-451.324 571.119,-459.71 577.762,-461.918"/>
</g>
<!-- Node7 -->
<g id="node7" class="node"><title>Node7</title>
<g id="a_node7"><a xlink:href="classscram_1_1core_1_1Pdag.xhtml#aa43a9026583f7a629fe0a3f17440f55b" target="_top" xlink:title="scram::core::Pdag::\lHasNullGates">
<polygon fill="white" stroke="black" points="354.5,-382.5 354.5,-412.5 457.5,-412.5 457.5,-382.5 354.5,-382.5"/>
<text text-anchor="start" x="362.5" y="-400.5" font-family="Helvetica,sans-Serif" font-size="10.00">scram::core::Pdag::</text>
<text text-anchor="middle" x="406" y="-389.5" font-family="Helvetica,sans-Serif" font-size="10.00">HasNullGates</text>
</a>
</g>
</g>
<!-- Node1&#45;&gt;Node7 -->
<g id="edge7" class="edge"><title>Node1&#45;&gt;Node7</title>
<path fill="none" stroke="midnightblue" d="M118.335,-481.464C179.113,-463.662 280.199,-434.054 344.662,-415.173"/>
<polygon fill="midnightblue" stroke="midnightblue" points="345.676,-418.523 354.289,-412.353 343.709,-411.805 345.676,-418.523"/>
</g>
<!-- Node8 -->
<g id="node8" class="node"><title>Node8</title>
<g id="a_node8"><a xlink:href="classscram_1_1core_1_1Preprocessor.xhtml#a4086c57695d49b4770915d5d53bd47de" target="_top" xlink:title="Tries to simplify the graph by removing redundancies generated by a common node. ">
<polygon fill="white" stroke="black" points="168,-211.5 168,-241.5 300,-241.5 300,-211.5 168,-211.5"/>
<text text-anchor="start" x="176" y="-229.5" font-family="Helvetica,sans-Serif" font-size="10.00">scram::core::Preprocessor</text>
<text text-anchor="middle" x="234" y="-218.5" font-family="Helvetica,sans-Serif" font-size="10.00">::ProcessCommonNode</text>
</a>
</g>
</g>
<!-- Node1&#45;&gt;Node8 -->
<g id="edge8" class="edge"><title>Node1&#45;&gt;Node8</title>
<path fill="none" stroke="midnightblue" d="M76.4005,-481.21C104.02,-436.286 185.07,-304.459 218.414,-250.224"/>
<polygon fill="midnightblue" stroke="midnightblue" points="221.447,-251.974 223.703,-241.622 215.484,-248.308 221.447,-251.974"/>
</g>
<!-- Node3&#45;&gt;Node2 -->
<g id="edge3" class="edge"><title>Node3&#45;&gt;Node2</title>
<path fill="none" stroke="midnightblue" d="M261.978,-511.587C282.064,-522.523 310.333,-537.297 336,-548.5 340.963,-550.666 346.18,-552.802 351.429,-554.858"/>
<polygon fill="midnightblue" stroke="midnightblue" points="350.276,-558.164 360.866,-558.462 352.773,-551.625 350.276,-558.164"/>
</g>
<!-- Node3&#45;&gt;Node4 -->
<g id="edge4" class="edge"><title>Node3&#45;&gt;Node4</title>
<path fill="none" stroke="midnightblue" d="M271.307,-481.427C290.262,-474.2 314.027,-466.128 336,-461.5 394.362,-449.207 462.036,-444.378 511.371,-442.526"/>
<polygon fill="midnightblue" stroke="midnightblue" points="511.736,-446.016 521.61,-442.175 511.496,-439.02 511.736,-446.016"/>
</g>
<!-- Node5 -->
<g id="node5" class="node"><title>Node5</title>
<g id="a_node5"><a xlink:href="classscram_1_1core_1_1Gate.xhtml#aa793eeaa12244c5b39a0d80e5b1518ae" target="_top" xlink:title="scram::core::Gate::args">
<polygon fill="white" stroke="black" points="346,-520 346,-539 466,-539 466,-520 346,-520"/>
<text text-anchor="middle" x="406" y="-527" font-family="Helvetica,sans-Serif" font-size="10.00">scram::core::Gate::args</text>
</a>
</g>
</g>
<!-- Node3&#45;&gt;Node5 -->
<g id="edge5" class="edge"><title>Node3&#45;&gt;Node5</title>
<path fill="none" stroke="midnightblue" d="M300.24,-509.164C315.304,-512.088 331.244,-515.183 346.022,-518.051"/>
<polygon fill="midnightblue" stroke="midnightblue" points="345.559,-521.527 356.043,-519.997 346.893,-514.655 345.559,-521.527"/>
</g>
<!-- Node6 -->
<g id="node6" class="node"><title>Node6</title>
<g id="a_node6"><a xlink:href="classscram_1_1core_1_1Node.xhtml#a54799feee1f1e91f848d11f3918e3e88" target="_top" xlink:title="Registers the visit time for this node upon graph traversal. ">
<polygon fill="white" stroke="black" points="354,-470.5 354,-500.5 458,-500.5 458,-470.5 354,-470.5"/>
<text text-anchor="start" x="362" y="-488.5" font-family="Helvetica,sans-Serif" font-size="10.00">scram::core::Node::</text>
<text text-anchor="middle" x="406" y="-477.5" font-family="Helvetica,sans-Serif" font-size="10.00">Visit</text>
</a>
</g>
</g>
<!-- Node3&#45;&gt;Node6 -->
<g id="edge6" class="edge"><title>Node3&#45;&gt;Node6</title>
<path fill="none" stroke="midnightblue" d="M300.24,-492.279C314.556,-491.352 329.664,-490.375 343.813,-489.459"/>
<polygon fill="midnightblue" stroke="midnightblue" points="344.169,-492.944 353.922,-488.805 343.717,-485.958 344.169,-492.944"/>
</g>
<!-- Node8&#45;&gt;Node7 -->
<g id="edge9" class="edge"><title>Node8&#45;&gt;Node7</title>
<path fill="none" stroke="midnightblue" d="M241.499,-241.779C254.866,-271.431 288.243,-337.062 336,-373.5 338.946,-375.748 342.119,-377.795 345.428,-379.659"/>
<polygon fill="midnightblue" stroke="midnightblue" points="343.934,-382.825 354.443,-384.173 347.068,-376.566 343.934,-382.825"/>
</g>
<!-- Node9 -->
<g id="node9" class="node"><title>Node9</title>
<g id="a_node9"><a xlink:href="classscram_1_1core_1_1Preprocessor.xhtml#a3b83bc14261cee28f0e1553222b7d5e5" target="_top" xlink:title="Marks ancestor gates true. ">
<polygon fill="white" stroke="black" points="340,-0.5 340,-30.5 472,-30.5 472,-0.5 340,-0.5"/>
<text text-anchor="start" x="348" y="-18.5" font-family="Helvetica,sans-Serif" font-size="10.00">scram::core::Preprocessor</text>
<text text-anchor="middle" x="406" y="-7.5" font-family="Helvetica,sans-Serif" font-size="10.00">::MarkAncestors</text>
</a>
</g>
</g>
<!-- Node8&#45;&gt;Node9 -->
<g id="edge10" class="edge"><title>Node8&#45;&gt;Node9</title>
<path fill="none" stroke="midnightblue" d="M239.01,-211.497C249.171,-176.31 279.242,-87.8095 336,-39.5 337.521,-38.2053 339.116,-36.979 340.771,-35.8176"/>
<polygon fill="midnightblue" stroke="midnightblue" points="342.736,-38.7188 349.466,-30.5359 339.102,-32.736 342.736,-38.7188"/>
</g>
<!-- Node10 -->
<g id="node10" class="node"><title>Node10</title>
<g id="a_node10"><a xlink:href="classscram_1_1core_1_1Preprocessor.xhtml#ae9a8bac98061d7f82633486ed6a36861" target="_top" xlink:title="Propagates failure or success of a common node by setting its ancestors&#39; optimization values to 1 or ...">
<polygon fill="white" stroke="black" points="340,-284.5 340,-314.5 472,-314.5 472,-284.5 340,-284.5"/>
<text text-anchor="start" x="348" y="-302.5" font-family="Helvetica,sans-Serif" font-size="10.00">scram::core::Preprocessor</text>
<text text-anchor="middle" x="406" y="-291.5" font-family="Helvetica,sans-Serif" font-size="10.00">::PropagateState</text>
</a>
</g>
</g>
<!-- Node8&#45;&gt;Node10 -->
<g id="edge11" class="edge"><title>Node8&#45;&gt;Node10</title>
<path fill="none" stroke="midnightblue" d="M264.712,-241.545C284.654,-251.414 311.636,-264.324 336,-274.5 341.07,-276.618 346.39,-278.731 351.732,-280.782"/>
<polygon fill="midnightblue" stroke="midnightblue" points="350.73,-284.144 361.322,-284.393 353.197,-277.593 350.73,-284.144"/>
</g>
<!-- Node14 -->
<g id="node14" class="node"><title>Node14</title>
<g id="a_node14"><a xlink:href="classscram_1_1core_1_1Preprocessor.xhtml#a4539f18d3dde97514ca267b41d30d220" target="_top" xlink:title="Collects failure or success destinations and marks non&#45;redundant nodes. ">
<polygon fill="white" stroke="black" points="340,-235.5 340,-265.5 472,-265.5 472,-235.5 340,-235.5"/>
<text text-anchor="start" x="348" y="-253.5" font-family="Helvetica,sans-Serif" font-size="10.00">scram::core::Preprocessor</text>
<text text-anchor="middle" x="406" y="-242.5" font-family="Helvetica,sans-Serif" font-size="10.00">::CollectStateDestinations</text>
</a>
</g>
</g>
<!-- Node8&#45;&gt;Node14 -->
<g id="edge15" class="edge"><title>Node8&#45;&gt;Node14</title>
<path fill="none" stroke="midnightblue" d="M300.24,-235.71C309.9,-237.074 319.92,-238.489 329.763,-239.878"/>
<polygon fill="midnightblue" stroke="midnightblue" points="329.543,-243.382 339.934,-241.314 330.522,-236.451 329.543,-243.382"/>
</g>
<!-- Node15 -->
<g id="node15" class="node"><title>Node15</title>
<g id="a_node15"><a xlink:href="classscram_1_1core_1_1Preprocessor.xhtml#ad79145fdd5487ef0537728f74e6a94e4" target="_top" xlink:title="Detects if parents of a node are redundant. ">
<polygon fill="white" stroke="black" points="514.5,-130.5 514.5,-160.5 648.5,-160.5 648.5,-130.5 514.5,-130.5"/>
<text text-anchor="start" x="522.5" y="-148.5" font-family="Helvetica,sans-Serif" font-size="10.00">scram::core::Preprocessor</text>
<text text-anchor="middle" x="581.5" y="-137.5" font-family="Helvetica,sans-Serif" font-size="10.00">::CollectRedundantParents</text>
</a>
</g>
</g>
<!-- Node8&#45;&gt;Node15 -->
<g id="edge16" class="edge"><title>Node8&#45;&gt;Node15</title>
<path fill="none" stroke="midnightblue" d="M244.548,-211.465C260.296,-188.251 294.175,-144.58 336,-127.5 397.322,-102.458 474.444,-114.515 525.494,-127.819"/>
<polygon fill="midnightblue" stroke="midnightblue" points="524.776,-131.251 535.344,-130.486 526.606,-124.494 524.776,-131.251"/>
</g>
<!-- Node16 -->
<g id="node16" class="node"><title>Node16</title>
<g id="a_node16"><a xlink:href="classscram_1_1core_1_1Preprocessor.xhtml#a6edfe2a6d9836942944921a8de0c011e" target="_top" xlink:title="Detects if parents of a node are redundant. ">
<polygon fill="white" stroke="black" points="336,-186.5 336,-216.5 476,-216.5 476,-186.5 336,-186.5"/>
<text text-anchor="start" x="344" y="-204.5" font-family="Helvetica,sans-Serif" font-size="10.00">scram::core::Preprocessor</text>
<text text-anchor="middle" x="406" y="-193.5" font-family="Helvetica,sans-Serif" font-size="10.00">::ProcessRedundantParents</text>
</a>
</g>
</g>
<!-- Node8&#45;&gt;Node16 -->
<g id="edge18" class="edge"><title>Node8&#45;&gt;Node16</title>
<path fill="none" stroke="midnightblue" d="M300.24,-216.906C308.653,-215.669 317.339,-214.391 325.943,-213.126"/>
<polygon fill="midnightblue" stroke="midnightblue" points="326.6,-216.567 335.985,-211.649 325.582,-209.642 326.6,-216.567"/>
</g>
<!-- Node17 -->
<g id="node17" class="node"><title>Node17</title>
<g id="a_node17"><a xlink:href="classscram_1_1core_1_1Preprocessor.xhtml#aa42b66bb888f665bc68324cca15452ad" target="_top" xlink:title="Transforms failure or success destination according to the logic and the common node. ">
<polygon fill="white" stroke="black" points="337.5,-333.5 337.5,-363.5 474.5,-363.5 474.5,-333.5 337.5,-333.5"/>
<text text-anchor="start" x="345.5" y="-351.5" font-family="Helvetica,sans-Serif" font-size="10.00">scram::core::Preprocessor</text>
<text text-anchor="middle" x="406" y="-340.5" font-family="Helvetica,sans-Serif" font-size="10.00">::ProcessStateDestinations</text>
</a>
</g>
</g>
<!-- Node8&#45;&gt;Node17 -->
<g id="edge19" class="edge"><title>Node8&#45;&gt;Node17</title>
<path fill="none" stroke="midnightblue" d="M247.181,-241.662C264.778,-262.677 299.253,-300.645 336,-323.5 339.313,-325.561 342.822,-327.486 346.43,-329.279"/>
<polygon fill="midnightblue" stroke="midnightblue" points="345.006,-332.477 355.555,-333.465 347.925,-326.114 345.006,-332.477"/>
</g>
<!-- Node19 -->
<g id="node19" class="node"><title>Node19</title>
<g id="a_node19"><a xlink:href="classscram_1_1core_1_1Preprocessor.xhtml#a5eb477e9ecd0552b2b554d7df56df652" target="_top" xlink:title="Clears all the ancestor marks used in Boolean optimization steps. ">
<polygon fill="white" stroke="black" points="340,-137.5 340,-167.5 472,-167.5 472,-137.5 340,-137.5"/>
<text text-anchor="start" x="348" y="-155.5" font-family="Helvetica,sans-Serif" font-size="10.00">scram::core::Preprocessor</text>
<text text-anchor="middle" x="406" y="-144.5" font-family="Helvetica,sans-Serif" font-size="10.00">::ClearStateMarks</text>
</a>
</g>
</g>
<!-- Node8&#45;&gt;Node19 -->
<g id="edge22" class="edge"><title>Node8&#45;&gt;Node19</title>
<path fill="none" stroke="midnightblue" d="M263.291,-211.307C283.3,-200.857 310.921,-187.021 336,-176.5 340.375,-174.665 344.945,-172.853 349.558,-171.098"/>
<polygon fill="midnightblue" stroke="midnightblue" points="350.882,-174.34 359.043,-167.584 348.45,-167.776 350.882,-174.34"/>
</g>
<!-- Node20 -->
<g id="node20" class="node"><title>Node20</title>
<g id="a_node20"><a xlink:href="classscram_1_1core_1_1Pdag.xhtml#a1ec495a3595a7d088f1889f46eeb725d" target="_top" xlink:title="Removes gates of Null logic with a single argument (maybe constant). ">
<polygon fill="white" stroke="black" points="354.5,-49.5 354.5,-79.5 457.5,-79.5 457.5,-49.5 354.5,-49.5"/>
<text text-anchor="start" x="362.5" y="-67.5" font-family="Helvetica,sans-Serif" font-size="10.00">scram::core::Pdag::</text>
<text text-anchor="middle" x="406" y="-56.5" font-family="Helvetica,sans-Serif" font-size="10.00">RemoveNullGates</text>
</a>
</g>
</g>
<!-- Node8&#45;&gt;Node20 -->
<g id="edge23" class="edge"><title>Node8&#45;&gt;Node20</title>
<path fill="none" stroke="midnightblue" d="M243.068,-211.439C258.1,-184.631 292.82,-128.283 336,-94.5 340.929,-90.644 346.429,-87.1807 352.114,-84.098"/>
<polygon fill="midnightblue" stroke="midnightblue" points="353.778,-87.1792 361.145,-79.5654 350.638,-80.923 353.778,-87.1792"/>
</g>
<!-- Node11 -->
<g id="node11" class="node"><title>Node11</title>
<g id="a_node11"><a xlink:href="classscram_1_1core_1_1Node.xhtml#a90ef93c4b0667215d2a8c3a3eb4f3822" target="_top" xlink:title="scram::core::Node::\lopti_value">
<polygon fill="white" stroke="black" points="529.5,-284.5 529.5,-314.5 633.5,-314.5 633.5,-284.5 529.5,-284.5"/>
<text text-anchor="start" x="537.5" y="-302.5" font-family="Helvetica,sans-Serif" font-size="10.00">scram::core::Node::</text>
<text text-anchor="middle" x="581.5" y="-291.5" font-family="Helvetica,sans-Serif" font-size="10.00">opti_value</text>
</a>
</g>
</g>
<!-- Node10&#45;&gt;Node11 -->
<g id="edge12" class="edge"><title>Node10&#45;&gt;Node11</title>
<path fill="none" stroke="midnightblue" d="M472.099,-299.5C487.489,-299.5 503.852,-299.5 519.074,-299.5"/>
<polygon fill="midnightblue" stroke="midnightblue" points="519.404,-303 529.404,-299.5 519.404,-296 519.404,-303"/>
</g>
<!-- Node12 -->
<g id="node12" class="node"><title>Node12</title>
<g id="a_node12"><a xlink:href="classscram_1_1core_1_1Preprocessor.xhtml#a019e679ad9077caac8c48253d42647ff" target="_top" xlink:title="Determines if a gate fails or succeeds due to failed/succeeded arguments. ">
<polygon fill="white" stroke="black" points="515.5,-216.5 515.5,-246.5 647.5,-246.5 647.5,-216.5 515.5,-216.5"/>
<text text-anchor="start" x="523.5" y="-234.5" font-family="Helvetica,sans-Serif" font-size="10.00">scram::core::Preprocessor</text>
<text text-anchor="middle" x="581.5" y="-223.5" font-family="Helvetica,sans-Serif" font-size="10.00">::DetermineGateState</text>
</a>
</g>
</g>
<!-- Node10&#45;&gt;Node12 -->
<g id="edge13" class="edge"><title>Node10&#45;&gt;Node12</title>
<path fill="none" stroke="midnightblue" d="M449.436,-284.448C458.242,-281.234 467.444,-277.809 476,-274.5 495.633,-266.908 517.166,-258.126 535.557,-250.486"/>
<polygon fill="midnightblue" stroke="midnightblue" points="536.978,-253.685 544.861,-246.607 534.285,-247.224 536.978,-253.685"/>
</g>
<!-- Node13 -->
<g id="node13" class="node"><title>Node13</title>
<g id="a_node13"><a xlink:href="classscram_1_1core_1_1Pdag.xhtml#ae8e2a4c99322296441f87c6ee9305979" target="_top" xlink:title="scram::core::Pdag::\lcoherent">
<polygon fill="white" stroke="black" points="687,-173.5 687,-203.5 790,-203.5 790,-173.5 687,-173.5"/>
<text text-anchor="start" x="695" y="-191.5" font-family="Helvetica,sans-Serif" font-size="10.00">scram::core::Pdag::</text>
<text text-anchor="middle" x="738.5" y="-180.5" font-family="Helvetica,sans-Serif" font-size="10.00">coherent</text>
</a>
</g>
</g>
<!-- Node12&#45;&gt;Node13 -->
<g id="edge14" class="edge"><title>Node12&#45;&gt;Node13</title>
<path fill="none" stroke="midnightblue" d="M636.711,-216.461C649.721,-212.852 663.695,-208.975 676.97,-205.292"/>
<polygon fill="midnightblue" stroke="midnightblue" points="678.258,-208.567 686.958,-202.521 676.387,-201.822 678.258,-208.567"/>
</g>
<!-- Node15&#45;&gt;Node13 -->
<g id="edge17" class="edge"><title>Node15&#45;&gt;Node13</title>
<path fill="none" stroke="midnightblue" d="M636.711,-160.539C649.721,-164.148 663.695,-168.025 676.97,-171.708"/>
<polygon fill="midnightblue" stroke="midnightblue" points="676.387,-175.178 686.958,-174.479 678.258,-168.433 676.387,-175.178"/>
</g>
<!-- Node17&#45;&gt;Node4 -->
<g id="edge20" class="edge"><title>Node17&#45;&gt;Node4</title>
<path fill="none" stroke="midnightblue" d="M453.27,-363.599C460.988,-366.588 468.815,-369.92 476,-373.5 506.546,-388.719 539.105,-410.986 559.611,-425.846"/>
<polygon fill="midnightblue" stroke="midnightblue" points="557.743,-428.816 567.877,-431.909 561.884,-423.172 557.743,-428.816"/>
</g>
<!-- Node18 -->
<g id="node18" class="node"><title>Node18</title>
<g id="a_node18"><a xlink:href="classscram_1_1core_1_1Preprocessor.xhtml#a26434bec1bc5a496f80c9cbad1ed3a62" target="_top" xlink:title="Replaces one gate in the graph with another. ">
<polygon fill="white" stroke="black" points="515.5,-333.5 515.5,-363.5 647.5,-363.5 647.5,-333.5 515.5,-333.5"/>
<text text-anchor="start" x="523.5" y="-351.5" font-family="Helvetica,sans-Serif" font-size="10.00">scram::core::Preprocessor</text>
<text text-anchor="middle" x="581.5" y="-340.5" font-family="Helvetica,sans-Serif" font-size="10.00">::ReplaceGate</text>
</a>
</g>
</g>
<!-- Node17&#45;&gt;Node18 -->
<g id="edge21" class="edge"><title>Node17&#45;&gt;Node18</title>
<path fill="none" stroke="midnightblue" d="M474.576,-348.5C484.638,-348.5 495.063,-348.5 505.27,-348.5"/>
<polygon fill="midnightblue" stroke="midnightblue" points="505.384,-352 515.384,-348.5 505.384,-345 505.384,-352"/>
</g>
<!-- Node21 -->
<g id="node21" class="node"><title>Node21</title>
<g id="a_node21"><a xlink:href="pdag_8h.xhtml#aa00922ee92d35a300d86442f8b9ad331" target="_top" xlink:title="Traverses and visits gates and nodes in the graph. ">
<polygon fill="white" stroke="black" points="512,-55 512,-74 651,-74 651,-55 512,-55"/>
<text text-anchor="middle" x="581.5" y="-62" font-family="Helvetica,sans-Serif" font-size="10.00">scram::core::TraverseGates</text>
</a>
</g>
</g>
<!-- Node20&#45;&gt;Node21 -->
<g id="edge24" class="edge"><title>Node20&#45;&gt;Node21</title>
<path fill="none" stroke="midnightblue" d="M457.65,-64.5C471.384,-64.5 486.587,-64.5 501.484,-64.5"/>
<polygon fill="midnightblue" stroke="midnightblue" points="501.727,-68.0001 511.727,-64.5 501.727,-61.0001 501.727,-68.0001"/>
</g>
<!-- Node21&#45;&gt;Node21 -->
<g id="edge25" class="edge"><title>Node21&#45;&gt;Node21</title>
<path fill="none" stroke="midnightblue" d="M557.456,-74.2571C545.759,-83.0653 553.773,-92.5 581.5,-92.5 599.696,-92.5 609.402,-88.4368 610.619,-83.1539"/>
<polygon fill="midnightblue" stroke="midnightblue" points="613.539,-81.2091 605.544,-74.2571 607.459,-84.6775 613.539,-81.2091"/>
</g>
</g>
</svg>
