<?xml version="1.0" encoding="UTF-8" standalone="no"?>
<!DOCTYPE svg PUBLIC "-//W3C//DTD SVG 1.1//EN"
 "http://www.w3.org/Graphics/SVG/1.1/DTD/svg11.dtd">
<!-- Generated by graphviz version 2.38.0 (20140413.2041)
 -->
<!-- Title: scram::core::Pdag::root Pages: 1 -->
<!--zoomable 821 -->
<svg id="main" version="1.1" xmlns="http://www.w3.org/2000/svg" xmlns:xlink="http://www.w3.org/1999/xlink" xml:space="preserve" onload="init(evt)">
<style type="text/css"><![CDATA[
.edge:hover path { stroke: red; }
.edge:hover polygon { stroke: red; fill: red; }
]]></style>
<script type="text/javascript"><![CDATA[
var edges = document.getElementsByTagName('g');
if (edges && edges.length) {
  for (var i=0;i<edges.length;i++) {
    if (edges[i].id.substr(0,4)=='edge') {
      edges[i].setAttribute('class','edge');
    }
  }
}
]]></script>
        <defs>
                <circle id="rim" cx="0" cy="0" r="7"/>
                <circle id="rim2" cx="0" cy="0" r="3.5"/>
                <g id="zoomPlus">
                        <use xlink:href="#rim" fill="#404040">
                                <set attributeName="fill" to="#808080" begin="zoomplus.mouseover" end="zoomplus.mouseout"/>
                        </use>
                        <path d="M-4,0h8M0,-4v8" fill="none" stroke="white" stroke-width="1.5" pointer-events="none"/>
                </g>
                <g id="zoomMin">
                        <use xlink:href="#rim" fill="#404040">
                                <set attributeName="fill" to="#808080" begin="zoomminus.mouseover" end="zoomminus.mouseout"/>
                        </use>
                        <path d="M-4,0h8" fill="none" stroke="white" stroke-width="1.5" pointer-events="none"/>
                </g>
                <g id="dirArrow">
                        <path fill="none" stroke="white" stroke-width="1.5" d="M0,-3.0v7 M-2.5,-0.5L0,-3.0L2.5,-0.5"/>
                </g>
               <g id="resetDef">
                       <use xlink:href="#rim2" fill="#404040">
                               <set attributeName="fill" to="#808080" begin="reset.mouseover" end="reset.mouseout"/>
                       </use>
               </g>
        </defs>

<script type="text/javascript">
var viewWidth = 1553;
var viewHeight = 821;
var sectionId = 'dynsection-3';
</script>
<script xlink:href="svgpan.js"/>
<svg id="graph" class="graph">
<g id="viewport">
<title>scram::core::Pdag::root</title>
<polygon fill="white" stroke="none" points="-4,4 -4,-816.5 1549,-816.5 1549,4 -4,4"/>
<!-- Node1 -->
<g id="node1" class="node"><title>Node1</title>
<polygon fill="#bfbfbf" stroke="black" points="0,-426.5 0,-445.5 119,-445.5 119,-426.5 0,-426.5"/>
<text text-anchor="middle" x="59.5" y="-433.5" font-family="Helvetica,sans-Serif" font-size="10.00">scram::core::Pdag::root</text>
</g>
<!-- Node2 -->
<g id="node2" class="node"><title>Node2</title>
<g id="a_node2"><a xlink:href="classscram_1_1core_1_1Mocus.xhtml#a008348c27bdc85ad9d0d106b18dcc1a2" target="_top" xlink:title="Finds minimal cut sets from the PDAG. ">
<polygon fill="white" stroke="black" points="171.5,-782 171.5,-812 275.5,-812 275.5,-782 171.5,-782"/>
<text text-anchor="start" x="179.5" y="-800" font-family="Helvetica,sans-Serif" font-size="10.00">scram::core::Mocus</text>
<text text-anchor="middle" x="223.5" y="-789" font-family="Helvetica,sans-Serif" font-size="10.00">::Analyze</text>
</a>
</g>
</g>
<!-- Node1&#45;&gt;Node2 -->
<g id="edge1" class="edge"><title>Node1&#45;&gt;Node2</title>
<path fill="none" stroke="midnightblue" d="M60.6092,-456.115C61.9709,-512.288 73.2148,-672.87 155,-767 160.299,-773.099 167.078,-778.013 174.287,-781.955"/>
<polygon fill="midnightblue" stroke="midnightblue" points="64.1035,-455.718 60.4468,-445.775 57.1044,-455.828 64.1035,-455.718"/>
</g>
<!-- Node3 -->
<g id="node3" class="node"><title>Node3</title>
<g id="a_node3"><a xlink:href="classscram_1_1core_1_1Preprocessor.xhtml#afb4e28af2f1ec12db694af6e93ffbd1d" target="_top" xlink:title="Assigns order for PDAG variables. ">
<polygon fill="white" stroke="black" points="510.5,-191 510.5,-221 642.5,-221 642.5,-191 510.5,-191"/>
<text text-anchor="start" x="518.5" y="-209" font-family="Helvetica,sans-Serif" font-size="10.00">scram::core::Preprocessor</text>
<text text-anchor="middle" x="576.5" y="-198" font-family="Helvetica,sans-Serif" font-size="10.00">::AssignOrder</text>
</a>
</g>
</g>
<!-- Node1&#45;&gt;Node3 -->
<g id="edge2" class="edge"><title>Node1&#45;&gt;Node3</title>
<path fill="none" stroke="midnightblue" d="M63.2068,-416.38C70.0704,-374.968 92.3007,-278.923 155,-236 261.744,-162.924 421.539,-176.455 510.245,-191.836"/>
<polygon fill="midnightblue" stroke="midnightblue" points="59.7403,-415.895 61.6871,-426.309 66.6598,-416.954 59.7403,-415.895"/>
</g>
<!-- Node4 -->
<g id="node4" class="node"><title>Node4</title>
<g id="a_node4"><a xlink:href="classscram_1_1core_1_1Preprocessor.xhtml#ad13e133278ea7563c1ba037c05c35aa2" target="_top" xlink:title="Normalizes the gates of the whole PDAG into OR, AND gates. ">
<polygon fill="white" stroke="black" points="682,-279 682,-309 814,-309 814,-279 682,-279"/>
<text text-anchor="start" x="690" y="-297" font-family="Helvetica,sans-Serif" font-size="10.00">scram::core::Preprocessor</text>
<text text-anchor="middle" x="748" y="-286" font-family="Helvetica,sans-Serif" font-size="10.00">::NormalizeGates</text>
</a>
</g>
</g>
<!-- Node1&#45;&gt;Node4 -->
<g id="edge56" class="edge"><title>Node1&#45;&gt;Node4</title>
<path fill="none" stroke="midnightblue" d="M73.017,-418.285C89.2128,-396.952 119.59,-361.997 155,-346 332.001,-266.039 568.805,-275.558 681.748,-286.197"/>
<polygon fill="midnightblue" stroke="midnightblue" points="70.0803,-416.37 66.9708,-426.499 75.7177,-420.52 70.0803,-416.37"/>
</g>
<!-- Node12 -->
<g id="node12" class="node"><title>Node12</title>
<g id="a_node12"><a xlink:href="classscram_1_1core_1_1Bdd.xhtml#ab7af95900c1ab921446e2e67177a315c" target="_top" xlink:title="Constructor with the analysis target. ">
<polygon fill="white" stroke="black" points="166,-38.5 166,-57.5 281,-57.5 281,-38.5 166,-38.5"/>
<text text-anchor="middle" x="223.5" y="-45.5" font-family="Helvetica,sans-Serif" font-size="10.00">scram::core::Bdd::Bdd</text>
</a>
</g>
</g>
<!-- Node1&#45;&gt;Node12 -->
<g id="edge17" class="edge"><title>Node1&#45;&gt;Node12</title>
<path fill="none" stroke="midnightblue" d="M63.2115,-415.929C72.8389,-347.393 107.37,-123.996 155,-72 160.797,-65.6718 168.372,-61.0114 176.347,-57.5794"/>
<polygon fill="midnightblue" stroke="midnightblue" points="59.6933,-415.821 61.7929,-426.205 66.6275,-416.778 59.6933,-415.821"/>
</g>
<!-- Node13 -->
<g id="node13" class="node"><title>Node13</title>
<g id="a_node13"><a xlink:href="classscram_1_1core_1_1Preprocessor.xhtml#aebc709ad2e097c24e837889a6a9e4696" target="_top" xlink:title="Propagates failures of common nodes to detect redundancy. ">
<polygon fill="white" stroke="black" points="510.5,-489 510.5,-519 642.5,-519 642.5,-489 510.5,-489"/>
<text text-anchor="start" x="518.5" y="-507" font-family="Helvetica,sans-Serif" font-size="10.00">scram::core::Preprocessor</text>
<text text-anchor="middle" x="576.5" y="-496" font-family="Helvetica,sans-Serif" font-size="10.00">::BooleanOptimization</text>
</a>
</g>
</g>
<!-- Node1&#45;&gt;Node13 -->
<g id="edge18" class="edge"><title>Node1&#45;&gt;Node13</title>
<path fill="none" stroke="midnightblue" d="M71.8166,-454.391C87.2901,-477.569 117.461,-516.277 155,-532 283.728,-585.915 454.082,-543.939 532.561,-519.038"/>
<polygon fill="midnightblue" stroke="midnightblue" points="74.6364,-452.305 66.2771,-445.796 68.7525,-456.097 74.6364,-452.305"/>
</g>
<!-- Node15 -->
<g id="node15" class="node"><title>Node15</title>
<g id="a_node15"><a xlink:href="classscram_1_1core_1_1Preprocessor.xhtml#a5c224938dfba861f061525658bd7b156" target="_top" xlink:title="Propagation of complements. ">
<polygon fill="white" stroke="black" points="1030,-279 1030,-309 1162,-309 1162,-279 1030,-279"/>
<text text-anchor="start" x="1038" y="-297" font-family="Helvetica,sans-Serif" font-size="10.00">scram::core::Preprocessor</text>
<text text-anchor="middle" x="1096" y="-286" font-family="Helvetica,sans-Serif" font-size="10.00">::RunPhaseFour</text>
</a>
</g>
</g>
<!-- Node1&#45;&gt;Node15 -->
<g id="edge64" class="edge"><title>Node1&#45;&gt;Node15</title>
<path fill="none" stroke="midnightblue" d="M67.8878,-416.945C80.7122,-386.567 110.099,-327.578 155,-298 247.115,-237.32 288.195,-250 398.5,-250 398.5,-250 398.5,-250 749,-250 852.936,-250 879.192,-254.73 982,-270 997.97,-272.372 1015.07,-275.625 1031.01,-278.971"/>
<polygon fill="midnightblue" stroke="midnightblue" points="64.5671,-415.82 64.0441,-426.402 71.0519,-418.456 64.5671,-415.82"/>
</g>
<!-- Node17 -->
<g id="node17" class="node"><title>Node17</title>
<g id="a_node17"><a xlink:href="classscram_1_1core_1_1Preprocessor.xhtml#a00288bef180767d7c79e3c79a33ef2d8" target="_top" xlink:title="Runs gate coalescence on the whole PDAG. ">
<polygon fill="white" stroke="black" points="510.5,-612 510.5,-642 642.5,-642 642.5,-612 510.5,-612"/>
<text text-anchor="start" x="518.5" y="-630" font-family="Helvetica,sans-Serif" font-size="10.00">scram::core::Preprocessor</text>
<text text-anchor="middle" x="576.5" y="-619" font-family="Helvetica,sans-Serif" font-size="10.00">::CoalesceGates</text>
</a>
</g>
</g>
<!-- Node1&#45;&gt;Node17 -->
<g id="edge29" class="edge"><title>Node1&#45;&gt;Node17</title>
<path fill="none" stroke="midnightblue" d="M66.1147,-455.525C77.0339,-489.612 104.596,-559.445 155,-592 212.075,-628.864 407.223,-630.681 510.378,-628.886"/>
<polygon fill="midnightblue" stroke="midnightblue" points="69.4148,-454.347 63.1464,-445.806 62.7201,-456.392 69.4148,-454.347"/>
</g>
<!-- Node19 -->
<g id="node19" class="node"><title>Node19</title>
<g id="a_node19"><a xlink:href="classscram_1_1core_1_1Preprocessor.xhtml#ae12f3096132d7f6e9daa779724255f7e" target="_top" xlink:title="The Shannon decomposition for common nodes in the PDAG. ">
<polygon fill="white" stroke="black" points="328,-404 328,-434 471,-434 471,-404 328,-404"/>
<text text-anchor="start" x="336" y="-422" font-family="Helvetica,sans-Serif" font-size="10.00">scram::core::Preprocessor</text>
<text text-anchor="middle" x="399.5" y="-411" font-family="Helvetica,sans-Serif" font-size="10.00">::DecomposeCommonNodes</text>
</a>
</g>
</g>
<!-- Node1&#45;&gt;Node19 -->
<g id="edge34" class="edge"><title>Node1&#45;&gt;Node19</title>
<path fill="none" stroke="midnightblue" d="M129.51,-432.529C187.296,-429.623 269.437,-425.491 327.715,-422.56"/>
<polygon fill="midnightblue" stroke="midnightblue" points="129.187,-429.041 119.375,-433.039 129.538,-436.032 129.187,-429.041"/>
</g>
<!-- Node20 -->
<g id="node20" class="node"><title>Node20</title>
<g id="a_node20"><a xlink:href="classscram_1_1core_1_1Preprocessor.xhtml#a4737f354474154b3cea9773c25616d27" target="_top" xlink:title="Detects and manipulates AND and OR gate distributivity for the whole graph. ">
<polygon fill="white" stroke="black" points="157.5,-355 157.5,-385 289.5,-385 289.5,-355 157.5,-355"/>
<text text-anchor="start" x="165.5" y="-373" font-family="Helvetica,sans-Serif" font-size="10.00">scram::core::Preprocessor</text>
<text text-anchor="middle" x="223.5" y="-362" font-family="Helvetica,sans-Serif" font-size="10.00">::DetectDistributivity</text>
</a>
</g>
</g>
<!-- Node1&#45;&gt;Node20 -->
<g id="edge36" class="edge"><title>Node1&#45;&gt;Node20</title>
<path fill="none" stroke="midnightblue" d="M93.353,-422.615C120.036,-411.745 157.659,-396.417 185.419,-385.107"/>
<polygon fill="midnightblue" stroke="midnightblue" points="91.9966,-419.389 84.0562,-426.403 94.6377,-425.871 91.9966,-419.389"/>
</g>
<!-- Node22 -->
<g id="node22" class="node"><title>Node22</title>
<g id="a_node22"><a xlink:href="classscram_1_1core_1_1Preprocessor.xhtml#aa9856913eee7b854abfbe8d8330566d3" target="_top" xlink:title="Traverses the PDAG to detect modules. ">
<polygon fill="white" stroke="black" points="510.5,-563 510.5,-593 642.5,-593 642.5,-563 510.5,-563"/>
<text text-anchor="start" x="518.5" y="-581" font-family="Helvetica,sans-Serif" font-size="10.00">scram::core::Preprocessor</text>
<text text-anchor="middle" x="576.5" y="-570" font-family="Helvetica,sans-Serif" font-size="10.00">::DetectModules</text>
</a>
</g>
</g>
<!-- Node1&#45;&gt;Node22 -->
<g id="edge39" class="edge"><title>Node1&#45;&gt;Node22</title>
<path fill="none" stroke="midnightblue" d="M68.6016,-454.942C81.923,-483.403 111.399,-536.278 155,-559 268.572,-618.188 423.709,-605.243 510.28,-591.188"/>
<polygon fill="midnightblue" stroke="midnightblue" points="71.722,-453.347 64.4284,-445.662 65.3379,-456.218 71.722,-453.347"/>
</g>
<!-- Node23 -->
<g id="node23" class="node"><title>Node23</title>
<g id="a_node23"><a xlink:href="classscram_1_1core_1_1Preprocessor.xhtml#a394fb1b5b5f9ee31dc81ad8d64353ee3" target="_top" xlink:title="Traverses the graph to find nodes that have more than one parent. ">
<polygon fill="white" stroke="black" points="157.5,-443 157.5,-473 289.5,-473 289.5,-443 157.5,-443"/>
<text text-anchor="start" x="165.5" y="-461" font-family="Helvetica,sans-Serif" font-size="10.00">scram::core::Preprocessor</text>
<text text-anchor="middle" x="223.5" y="-450" font-family="Helvetica,sans-Serif" font-size="10.00">::GatherCommonNodes</text>
</a>
</g>
</g>
<!-- Node1&#45;&gt;Node23 -->
<g id="edge42" class="edge"><title>Node1&#45;&gt;Node23</title>
<path fill="none" stroke="midnightblue" d="M129.38,-445.354C138.638,-446.611 148.111,-447.898 157.301,-449.146"/>
<polygon fill="midnightblue" stroke="midnightblue" points="129.824,-441.882 119.444,-444.005 128.882,-448.819 129.824,-441.882"/>
</g>
<!-- Node24 -->
<g id="node24" class="node"><title>Node24</title>
<g id="a_node24"><a xlink:href="classscram_1_1core_1_1Preprocessor.xhtml#af4dae5abf76e5da8b8c9f4371550b7dc" target="_top" xlink:title="Gathers all modules in the PDAG. ">
<polygon fill="white" stroke="black" points="157.5,-694 157.5,-724 289.5,-724 289.5,-694 157.5,-694"/>
<text text-anchor="start" x="165.5" y="-712" font-family="Helvetica,sans-Serif" font-size="10.00">scram::core::Preprocessor</text>
<text text-anchor="middle" x="223.5" y="-701" font-family="Helvetica,sans-Serif" font-size="10.00">::GatherModules</text>
</a>
</g>
</g>
<!-- Node1&#45;&gt;Node24 -->
<g id="edge45" class="edge"><title>Node1&#45;&gt;Node24</title>
<path fill="none" stroke="midnightblue" d="M63.0193,-455.734C69.7685,-500.942 92.2153,-613.171 155,-679 160.753,-685.032 167.936,-689.935 175.452,-693.893"/>
<polygon fill="midnightblue" stroke="midnightblue" points="66.4751,-455.173 61.6266,-445.753 59.5422,-456.141 66.4751,-455.173"/>
</g>
<!-- Node25 -->
<g id="node25" class="node"><title>Node25</title>
<g id="a_node25"><a xlink:href="classscram_1_1core_1_1Preprocessor.xhtml#a651b32816243e37c58b7835220997ef2" target="_top" xlink:title="Merges common arguments for a specific group of gates. ">
<polygon fill="white" stroke="black" points="333.5,-656 333.5,-686 465.5,-686 465.5,-656 333.5,-656"/>
<text text-anchor="start" x="341.5" y="-674" font-family="Helvetica,sans-Serif" font-size="10.00">scram::core::Preprocessor</text>
<text text-anchor="middle" x="399.5" y="-663" font-family="Helvetica,sans-Serif" font-size="10.00">::MergeCommonArgs</text>
</a>
</g>
</g>
<!-- Node1&#45;&gt;Node25 -->
<g id="edge55" class="edge"><title>Node1&#45;&gt;Node25</title>
<path fill="none" stroke="midnightblue" d="M63.2188,-455.843C70.1055,-497.771 92.378,-595.272 155,-641 206.255,-678.427 280.334,-682.449 333.305,-679.273"/>
<polygon fill="midnightblue" stroke="midnightblue" points="66.6547,-455.156 61.6933,-445.794 59.7339,-456.206 66.6547,-455.156"/>
</g>
<!-- Node26 -->
<g id="node26" class="node"><title>Node26</title>
<g id="a_node26"><a xlink:href="classscram_1_1core_1_1Preprocessor.xhtml#a3fa7788f0a789a43a8bd1bb7ee8a5e22" target="_top" xlink:title="Gathers all nodes in the PDAG. ">
<polygon fill="white" stroke="black" points="1030,-153 1030,-183 1162,-183 1162,-153 1030,-153"/>
<text text-anchor="start" x="1038" y="-171" font-family="Helvetica,sans-Serif" font-size="10.00">scram::core::Preprocessor</text>
<text text-anchor="middle" x="1096" y="-160" font-family="Helvetica,sans-Serif" font-size="10.00">::GatherNodes</text>
</a>
</g>
</g>
<!-- Node1&#45;&gt;Node26 -->
<g id="edge48" class="edge"><title>Node1&#45;&gt;Node26</title>
<path fill="none" stroke="midnightblue" d="M61.1374,-416.089C63.8903,-367.005 78.4397,-239.994 155,-182 241.557,-116.433 289.913,-162 398.5,-162 398.5,-162 398.5,-162 749,-162 846.928,-162 960.423,-164.432 1029.96,-166.2"/>
<polygon fill="midnightblue" stroke="midnightblue" points="57.6303,-416.168 60.6769,-426.315 64.6232,-416.483 57.6303,-416.168"/>
</g>
<!-- Node27 -->
<g id="node27" class="node"><title>Node27</title>
<g id="a_node27"><a xlink:href="classscram_1_1core_1_1Preprocessor.xhtml#a14baf96279cf2950cc71564ad199007d" target="_top" xlink:title="Marks coherence of the whole graph. ">
<polygon fill="white" stroke="black" points="1030,-65 1030,-95 1162,-95 1162,-65 1030,-65"/>
<text text-anchor="start" x="1038" y="-83" font-family="Helvetica,sans-Serif" font-size="10.00">scram::core::Preprocessor</text>
<text text-anchor="middle" x="1096" y="-72" font-family="Helvetica,sans-Serif" font-size="10.00">::MarkCoherence</text>
</a>
</g>
</g>
<!-- Node1&#45;&gt;Node27 -->
<g id="edge51" class="edge"><title>Node1&#45;&gt;Node27</title>
<path fill="none" stroke="midnightblue" d="M60.5719,-416.284C61.8924,-363.372 73.1493,-217.177 155,-142 236.786,-66.8827 287.453,-86 398.5,-86 398.5,-86 398.5,-86 749,-86 846.928,-86 960.423,-83.5675 1029.96,-81.8002"/>
<polygon fill="midnightblue" stroke="midnightblue" points="57.0712,-416.307 60.4178,-426.36 64.0704,-416.414 57.0712,-416.307"/>
</g>
<!-- Node29 -->
<g id="node29" class="node"><title>Node29</title>
<g id="a_node29"><a xlink:href="pdag_8cc.xhtml#ad65613c68952cbb0ade0aadfc4fba657" target="_top" xlink:title="Prints the PDAG as a fault tree in the Aralia format. ">
<polygon fill="white" stroke="black" points="162.5,-0.5 162.5,-19.5 284.5,-19.5 284.5,-0.5 162.5,-0.5"/>
<text text-anchor="middle" x="223.5" y="-7.5" font-family="Helvetica,sans-Serif" font-size="10.00">scram::core::operator&lt;&lt;</text>
</a>
</g>
</g>
<!-- Node1&#45;&gt;Node29 -->
<g id="edge57" class="edge"><title>Node1&#45;&gt;Node29</title>
<path fill="none" stroke="midnightblue" d="M62.4353,-416.346C70.0431,-342.979 100.199,-86.3955 155,-29 158.699,-25.1257 163.121,-22.022 167.907,-19.5383"/>
<polygon fill="midnightblue" stroke="midnightblue" points="58.9336,-416.188 61.4076,-426.49 65.8979,-416.893 58.9336,-416.188"/>
</g>
<!-- Node30 -->
<g id="node30" class="node"><title>Node30</title>
<g id="a_node30"><a xlink:href="classscram_1_1core_1_1Preprocessor.xhtml#ac0abd7f5b54f98643644110b160569bd" target="_top" xlink:title="Detects and replaces multiple definitions of gates. ">
<polygon fill="white" stroke="black" points="507,-743 507,-773 646,-773 646,-743 507,-743"/>
<text text-anchor="start" x="515" y="-761" font-family="Helvetica,sans-Serif" font-size="10.00">scram::core::Preprocessor</text>
<text text-anchor="middle" x="576.5" y="-750" font-family="Helvetica,sans-Serif" font-size="10.00">::ProcessMultipleDefinitions</text>
</a>
</g>
</g>
<!-- Node1&#45;&gt;Node30 -->
<g id="edge58" class="edge"><title>Node1&#45;&gt;Node30</title>
<path fill="none" stroke="midnightblue" d="M59.8237,-455.677C59.1393,-510.333 65.559,-664.532 155,-734 208.058,-775.209 401.59,-769.625 506.603,-763.191"/>
<polygon fill="midnightblue" stroke="midnightblue" points="63.3247,-455.668 60.0503,-445.591 56.3265,-455.51 63.3247,-455.668"/>
</g>
<!-- Node31 -->
<g id="node31" class="node"><title>Node31</title>
<g id="a_node31"><a xlink:href="classscram_1_1core_1_1Preprocessor.xhtml#aa42b66bb888f665bc68324cca15452ad" target="_top" xlink:title="Transforms failure or success destination according to the logic and the common node. ">
<polygon fill="white" stroke="black" points="155,-492 155,-522 292,-522 292,-492 155,-492"/>
<text text-anchor="start" x="163" y="-510" font-family="Helvetica,sans-Serif" font-size="10.00">scram::core::Preprocessor</text>
<text text-anchor="middle" x="223.5" y="-499" font-family="Helvetica,sans-Serif" font-size="10.00">::ProcessStateDestinations</text>
</a>
</g>
</g>
<!-- Node1&#45;&gt;Node31 -->
<g id="edge61" class="edge"><title>Node1&#45;&gt;Node31</title>
<path fill="none" stroke="midnightblue" d="M87.4082,-450.462C106.1,-460.24 131.733,-473.12 155,-483 162.212,-486.063 169.963,-489.071 177.55,-491.867"/>
<polygon fill="midnightblue" stroke="midnightblue" points="88.7929,-447.235 78.3152,-445.664 85.5261,-453.426 88.7929,-447.235"/>
</g>
<!-- Node3&#45;&gt;Node4 -->
<g id="edge3" class="edge"><title>Node3&#45;&gt;Node4</title>
<path fill="none" stroke="midnightblue" d="M615.84,-225.905C646.823,-241.991 689.771,-264.288 717.959,-278.923"/>
<polygon fill="midnightblue" stroke="midnightblue" points="617.126,-222.629 606.638,-221.128 613.901,-228.842 617.126,-222.629"/>
</g>
<!-- Node7 -->
<g id="node7" class="node"><title>Node7</title>
<g id="a_node7"><a xlink:href="classscram_1_1core_1_1Preprocessor.xhtml#a9caf4677a024ed935d831210b57b8ed9" target="_top" xlink:title="Gathers nodes in the sub&#45;graph. ">
<polygon fill="white" stroke="black" points="1227.5,-142 1227.5,-172 1359.5,-172 1359.5,-142 1227.5,-142"/>
<text text-anchor="start" x="1235.5" y="-160" font-family="Helvetica,sans-Serif" font-size="10.00">scram::core::Preprocessor</text>
<text text-anchor="middle" x="1293.5" y="-149" font-family="Helvetica,sans-Serif" font-size="10.00">::GatherNodes</text>
</a>
</g>
</g>
<!-- Node3&#45;&gt;Node7 -->
<g id="edge15" class="edge"><title>Node3&#45;&gt;Node7</title>
<path fill="none" stroke="midnightblue" d="M652.591,-192.165C739.997,-176.823 888.869,-153.043 1018,-144 1087.16,-139.156 1104.77,-140.214 1174,-144 1191.36,-144.949 1210.08,-146.675 1227.41,-148.566"/>
<polygon fill="midnightblue" stroke="midnightblue" points="651.742,-188.761 642.503,-193.947 652.959,-195.654 651.742,-188.761"/>
</g>
<!-- Node8 -->
<g id="node8" class="node"><title>Node8</title>
<g id="a_node8"><a xlink:href="classscram_1_1core_1_1CustomPreprocessor_3_01Zbdd_01_4.xhtml#a5185075f852c647c7aa4313d23420ee5" target="_top" xlink:title="Performs preprocessing for analyses with Zero&#45;Suppressed Binary Decision Diagrams. ">
<polygon fill="white" stroke="black" points="1210,-208 1210,-238 1377,-238 1377,-208 1210,-208"/>
<text text-anchor="start" x="1218" y="-226" font-family="Helvetica,sans-Serif" font-size="10.00">scram::core::CustomPreprocessor</text>
<text text-anchor="middle" x="1293.5" y="-215" font-family="Helvetica,sans-Serif" font-size="10.00">&lt; Zbdd &gt;::Run</text>
</a>
</g>
</g>
<!-- Node3&#45;&gt;Node8 -->
<g id="edge16" class="edge"><title>Node3&#45;&gt;Node8</title>
<path fill="none" stroke="midnightblue" d="M652.771,-207.79C787.704,-210.998 1069.73,-217.703 1209.84,-221.035"/>
<polygon fill="midnightblue" stroke="midnightblue" points="652.61,-204.285 642.529,-207.546 652.443,-211.283 652.61,-204.285"/>
</g>
<!-- Node5 -->
<g id="node5" class="node"><title>Node5</title>
<g id="a_node5"><a xlink:href="classscram_1_1core_1_1Preprocessor.xhtml#a44f820b6fe2c23594c818432b33e26a6" target="_top" xlink:title="The initial phase of preprocessing. ">
<polygon fill="white" stroke="black" points="850,-279 850,-309 982,-309 982,-279 850,-279"/>
<text text-anchor="start" x="858" y="-297" font-family="Helvetica,sans-Serif" font-size="10.00">scram::core::Preprocessor</text>
<text text-anchor="middle" x="916" y="-286" font-family="Helvetica,sans-Serif" font-size="10.00">::RunPhaseOne</text>
</a>
</g>
</g>
<!-- Node4&#45;&gt;Node5 -->
<g id="edge4" class="edge"><title>Node4&#45;&gt;Node5</title>
<path fill="none" stroke="midnightblue" d="M824.393,-294C832.869,-294 841.452,-294 849.784,-294"/>
<polygon fill="midnightblue" stroke="midnightblue" points="824.131,-290.5 814.131,-294 824.131,-297.5 824.131,-290.5"/>
</g>
<!-- Node9 -->
<g id="node9" class="node"><title>Node9</title>
<g id="a_node9"><a xlink:href="classscram_1_1core_1_1Preprocessor.xhtml#a5ee92284aef510ce01a71c962d50f51c" target="_top" xlink:title="Runs the graph preprocessing. ">
<polygon fill="white" stroke="black" points="1227.5,-487 1227.5,-517 1359.5,-517 1359.5,-487 1227.5,-487"/>
<text text-anchor="start" x="1235.5" y="-505" font-family="Helvetica,sans-Serif" font-size="10.00">scram::core::Preprocessor</text>
<text text-anchor="middle" x="1293.5" y="-494" font-family="Helvetica,sans-Serif" font-size="10.00">::operator()</text>
</a>
</g>
</g>
<!-- Node4&#45;&gt;Node9 -->
<g id="edge14" class="edge"><title>Node4&#45;&gt;Node9</title>
<path fill="none" stroke="midnightblue" d="M810.579,-311.945C894.242,-337.045 1047.86,-385.703 1174,-440 1206.63,-454.045 1242.58,-473.448 1266.23,-486.788"/>
<polygon fill="midnightblue" stroke="midnightblue" points="811.56,-308.585 800.976,-309.075 809.555,-315.292 811.56,-308.585"/>
</g>
<!-- Node11 -->
<g id="node11" class="node"><title>Node11</title>
<g id="a_node11"><a xlink:href="classscram_1_1core_1_1Preprocessor.xhtml#abf2c66723172a85b2ae87ef2a034cd1f" target="_top" xlink:title="Application of gate normalization. ">
<polygon fill="white" stroke="black" points="850,-405 850,-435 982,-435 982,-405 850,-405"/>
<text text-anchor="start" x="858" y="-423" font-family="Helvetica,sans-Serif" font-size="10.00">scram::core::Preprocessor</text>
<text text-anchor="middle" x="916" y="-412" font-family="Helvetica,sans-Serif" font-size="10.00">::RunPhaseThree</text>
</a>
</g>
</g>
<!-- Node4&#45;&gt;Node11 -->
<g id="edge11" class="edge"><title>Node4&#45;&gt;Node11</title>
<path fill="none" stroke="midnightblue" d="M777.047,-315.289C810.561,-340.727 865.781,-382.641 895.164,-404.944"/>
<polygon fill="midnightblue" stroke="midnightblue" points="779.105,-312.457 769.023,-309.199 774.873,-318.032 779.105,-312.457"/>
</g>
<!-- Node6 -->
<g id="node6" class="node"><title>Node6</title>
<g id="a_node6"><a xlink:href="classscram_1_1core_1_1Preprocessor.xhtml#a2b6705e815fa3d02119c405b483766d5" target="_top" xlink:title="Container of unique gates by semantics. ">
<polygon fill="white" stroke="black" points="1018,-240.5 1018,-259.5 1174,-259.5 1174,-240.5 1018,-240.5"/>
<text text-anchor="middle" x="1096" y="-247.5" font-family="Helvetica,sans-Serif" font-size="10.00">scram::core::Preprocessor::Run</text>
</a>
</g>
</g>
<!-- Node5&#45;&gt;Node6 -->
<g id="edge5" class="edge"><title>Node5&#45;&gt;Node6</title>
<path fill="none" stroke="midnightblue" d="M987.691,-276.526C1011.16,-270.724 1036.41,-264.482 1056.52,-259.512"/>
<polygon fill="midnightblue" stroke="midnightblue" points="986.628,-273.183 977.76,-278.981 988.307,-279.979 986.628,-273.183"/>
</g>
<!-- Node5&#45;&gt;Node9 -->
<g id="edge10" class="edge"><title>Node5&#45;&gt;Node9</title>
<path fill="none" stroke="midnightblue" d="M975.825,-312.24C1029.64,-330.294 1110.32,-360.872 1174,-400 1215.4,-425.436 1256.84,-465.17 1278.02,-486.771"/>
<polygon fill="midnightblue" stroke="midnightblue" points="976.694,-308.841 966.1,-309.016 974.491,-315.485 976.694,-308.841"/>
</g>
<!-- Node6&#45;&gt;Node7 -->
<g id="edge6" class="edge"><title>Node6&#45;&gt;Node7</title>
<path fill="none" stroke="midnightblue" d="M1126.24,-236.092C1162.38,-218.9 1223.65,-189.754 1260.86,-172.051"/>
<polygon fill="midnightblue" stroke="midnightblue" points="1124.71,-232.941 1117.19,-240.398 1127.72,-239.262 1124.71,-232.941"/>
</g>
<!-- Node6&#45;&gt;Node8 -->
<g id="edge7" class="edge"><title>Node6&#45;&gt;Node8</title>
<path fill="none" stroke="midnightblue" d="M1176.03,-239.086C1187.15,-237.55 1198.6,-235.968 1209.79,-234.423"/>
<polygon fill="midnightblue" stroke="midnightblue" points="1175.35,-235.646 1165.93,-240.481 1176.31,-242.58 1175.35,-235.646"/>
</g>
<!-- Node6&#45;&gt;Node9 -->
<g id="edge8" class="edge"><title>Node6&#45;&gt;Node9</title>
<path fill="none" stroke="midnightblue" d="M1165.08,-264.025C1168.22,-265.788 1171.22,-267.771 1174,-270 1247.36,-328.885 1279.74,-445.238 1289.3,-486.8"/>
<polygon fill="midnightblue" stroke="midnightblue" points="1166.4,-260.779 1155.87,-259.612 1163.38,-267.091 1166.4,-260.779"/>
</g>
<!-- Node10 -->
<g id="node10" class="node"><title>Node10</title>
<g id="a_node10"><a xlink:href="classscram_1_1core_1_1Preprocessor_1_1GateSet.xhtml#ae00239084858979e096032c4cf2f05b9" target="_top" xlink:title="Inserts a gate into the set if it is semantically unique. ">
<polygon fill="white" stroke="black" points="1413,-487 1413,-517 1545,-517 1545,-487 1413,-487"/>
<text text-anchor="start" x="1421" y="-505" font-family="Helvetica,sans-Serif" font-size="10.00">scram::core::Preprocessor</text>
<text text-anchor="middle" x="1479" y="-494" font-family="Helvetica,sans-Serif" font-size="10.00">::GateSet::insert</text>
</a>
</g>
</g>
<!-- Node9&#45;&gt;Node10 -->
<g id="edge9" class="edge"><title>Node9&#45;&gt;Node10</title>
<path fill="none" stroke="midnightblue" d="M1369.99,-502C1384.26,-502 1399.08,-502 1413,-502"/>
<polygon fill="midnightblue" stroke="midnightblue" points="1369.71,-498.5 1359.71,-502 1369.71,-505.5 1369.71,-498.5"/>
</g>
<!-- Node11&#45;&gt;Node6 -->
<g id="edge12" class="edge"><title>Node11&#45;&gt;Node6</title>
<path fill="none" stroke="midnightblue" d="M971.7,-399.323C975.484,-396.568 978.985,-393.473 982,-390 1018.5,-347.952 977.899,-308.631 1018,-270 1022.48,-265.688 1027.76,-262.274 1033.42,-259.575"/>
<polygon fill="midnightblue" stroke="midnightblue" points="969.607,-396.506 963.044,-404.824 973.361,-402.414 969.607,-396.506"/>
</g>
<!-- Node11&#45;&gt;Node9 -->
<g id="edge13" class="edge"><title>Node11&#45;&gt;Node9</title>
<path fill="none" stroke="midnightblue" d="M992.317,-436.447C1061.1,-451.469 1161.77,-473.451 1227.21,-487.743"/>
<polygon fill="midnightblue" stroke="midnightblue" points="992.924,-432.997 982.407,-434.283 991.43,-439.836 992.924,-432.997"/>
</g>
<!-- Node14 -->
<g id="node14" class="node"><title>Node14</title>
<g id="a_node14"><a xlink:href="classscram_1_1core_1_1Preprocessor.xhtml#a9d5f89471499508eb9e6c01ea43e0f15" target="_top" xlink:title="Preprocessing phase of the original structure of the graph. ">
<polygon fill="white" stroke="black" points="682,-487 682,-517 814,-517 814,-487 682,-487"/>
<text text-anchor="start" x="690" y="-505" font-family="Helvetica,sans-Serif" font-size="10.00">scram::core::Preprocessor</text>
<text text-anchor="middle" x="748" y="-494" font-family="Helvetica,sans-Serif" font-size="10.00">::RunPhaseTwo</text>
</a>
</g>
</g>
<!-- Node13&#45;&gt;Node14 -->
<g id="edge19" class="edge"><title>Node13&#45;&gt;Node14</title>
<path fill="none" stroke="midnightblue" d="M652.619,-503.114C662.364,-502.999 672.281,-502.882 681.846,-502.769"/>
<polygon fill="midnightblue" stroke="midnightblue" points="652.506,-499.615 642.548,-503.232 652.589,-506.614 652.506,-499.615"/>
</g>
<!-- Node14&#45;&gt;Node6 -->
<g id="edge20" class="edge"><title>Node14&#45;&gt;Node6</title>
<path fill="none" stroke="midnightblue" d="M767.703,-478.852C786.843,-456.066 818.207,-421.127 850,-396 903.286,-353.887 931.508,-364.425 982,-319 1002.09,-300.926 995.63,-285.161 1018,-270 1024.4,-265.661 1031.69,-262.263 1039.17,-259.602"/>
<polygon fill="midnightblue" stroke="midnightblue" points="764.92,-476.726 761.227,-486.657 770.306,-481.196 764.92,-476.726"/>
</g>
<!-- Node14&#45;&gt;Node9 -->
<g id="edge28" class="edge"><title>Node14&#45;&gt;Node9</title>
<path fill="none" stroke="midnightblue" d="M824.105,-502C931.222,-502 1126.09,-502 1227.41,-502"/>
<polygon fill="midnightblue" stroke="midnightblue" points="824.019,-498.5 814.019,-502 824.019,-505.5 824.019,-498.5"/>
</g>
<!-- Node14&#45;&gt;Node11 -->
<g id="edge21" class="edge"><title>Node14&#45;&gt;Node11</title>
<path fill="none" stroke="midnightblue" d="M786.479,-482.217C805.423,-472.342 828.827,-460.331 850,-450 860.165,-445.04 871.316,-439.816 881.469,-435.142"/>
<polygon fill="midnightblue" stroke="midnightblue" points="784.808,-479.141 777.567,-486.876 788.051,-485.345 784.808,-479.141"/>
</g>
<!-- Node14&#45;&gt;Node15 -->
<g id="edge22" class="edge"><title>Node14&#45;&gt;Node15</title>
<path fill="none" stroke="midnightblue" d="M824.235,-491.006C882.883,-481.109 958.228,-465.053 982,-445 1012.73,-419.074 994.366,-394.53 1018,-362 1033.31,-340.934 1056.2,-321.779 1073.04,-309.207"/>
<polygon fill="midnightblue" stroke="midnightblue" points="823.531,-487.575 814.237,-492.662 824.675,-494.481 823.531,-487.575"/>
</g>
<!-- Node16 -->
<g id="node16" class="node"><title>Node16</title>
<g id="a_node16"><a xlink:href="classscram_1_1core_1_1Preprocessor.xhtml#a3569bbcd5e863c750cdfa69115399600" target="_top" xlink:title="The final phase that cleans up the graph, and puts the structure of the graph ready for analysis...">
<polygon fill="white" stroke="black" points="850,-531 850,-561 982,-561 982,-531 850,-531"/>
<text text-anchor="start" x="858" y="-549" font-family="Helvetica,sans-Serif" font-size="10.00">scram::core::Preprocessor</text>
<text text-anchor="middle" x="916" y="-538" font-family="Helvetica,sans-Serif" font-size="10.00">::RunPhaseFive</text>
</a>
</g>
</g>
<!-- Node14&#45;&gt;Node16 -->
<g id="edge25" class="edge"><title>Node14&#45;&gt;Node16</title>
<path fill="none" stroke="midnightblue" d="M815.378,-519.594C829.598,-523.363 844.496,-527.312 858.31,-530.974"/>
<polygon fill="midnightblue" stroke="midnightblue" points="816.226,-516.198 805.663,-517.019 814.433,-522.965 816.226,-516.198"/>
</g>
<!-- Node15&#45;&gt;Node8 -->
<g id="edge23" class="edge"><title>Node15&#45;&gt;Node8</title>
<path fill="none" stroke="midnightblue" d="M1154.43,-275.748C1161.05,-273.528 1167.68,-271.249 1174,-269 1201.44,-259.227 1232.09,-247.303 1255.34,-238.044"/>
<polygon fill="midnightblue" stroke="midnightblue" points="1153.18,-272.476 1144.79,-278.947 1155.38,-279.12 1153.18,-272.476"/>
</g>
<!-- Node15&#45;&gt;Node9 -->
<g id="edge24" class="edge"><title>Node15&#45;&gt;Node9</title>
<path fill="none" stroke="midnightblue" d="M1157.85,-313.512C1163.59,-316.565 1169.08,-320.046 1174,-324 1231.85,-370.542 1271.64,-453.005 1286.27,-486.855"/>
<polygon fill="midnightblue" stroke="midnightblue" points="1159.22,-310.283 1148.69,-309.058 1156.15,-316.579 1159.22,-310.283"/>
</g>
<!-- Node16&#45;&gt;Node8 -->
<g id="edge26" class="edge"><title>Node16&#45;&gt;Node8</title>
<path fill="none" stroke="midnightblue" d="M942.238,-524.29C1013.37,-463.101 1214.26,-290.304 1274.93,-238.113"/>
<polygon fill="midnightblue" stroke="midnightblue" points="939.906,-521.68 934.607,-530.854 944.471,-526.986 939.906,-521.68"/>
</g>
<!-- Node16&#45;&gt;Node9 -->
<g id="edge27" class="edge"><title>Node16&#45;&gt;Node9</title>
<path fill="none" stroke="midnightblue" d="M992.225,-537.247C1043.46,-531.278 1112.83,-523.184 1174,-516 1191.28,-513.97 1209.98,-511.765 1227.31,-509.719"/>
<polygon fill="midnightblue" stroke="midnightblue" points="991.755,-533.778 982.228,-538.411 992.565,-540.731 991.755,-533.778"/>
</g>
<!-- Node17&#45;&gt;Node9 -->
<g id="edge33" class="edge"><title>Node17&#45;&gt;Node9</title>
<path fill="none" stroke="midnightblue" d="M631.235,-644.906C647.368,-649.464 665.237,-653.717 682,-656 740.13,-663.916 755.773,-663.168 814,-656 977.689,-635.849 1020.24,-625.653 1174,-566 1208.44,-552.638 1245.51,-531.391 1268.84,-517.081"/>
<polygon fill="midnightblue" stroke="midnightblue" points="632.019,-641.489 621.439,-642.043 630.055,-648.207 632.019,-641.489"/>
</g>
<!-- Node17&#45;&gt;Node14 -->
<g id="edge30" class="edge"><title>Node17&#45;&gt;Node14</title>
<path fill="none" stroke="midnightblue" d="M641.812,-606.334C643.261,-605.277 644.661,-604.166 646,-603 672.384,-580.027 656.894,-557.364 682,-533 688.55,-526.644 696.649,-521.392 704.883,-517.131"/>
<polygon fill="midnightblue" stroke="midnightblue" points="639.661,-603.552 633.047,-611.829 643.379,-609.483 639.661,-603.552"/>
</g>
<!-- Node17&#45;&gt;Node16 -->
<g id="edge31" class="edge"><title>Node17&#45;&gt;Node16</title>
<path fill="none" stroke="midnightblue" d="M650.012,-609.597C710.242,-595.142 795.043,-574.79 852.36,-561.034"/>
<polygon fill="midnightblue" stroke="midnightblue" points="649.097,-606.217 640.19,-611.954 650.731,-613.024 649.097,-606.217"/>
</g>
<!-- Node18 -->
<g id="node18" class="node"><title>Node18</title>
<g id="a_node18"><a xlink:href="classscram_1_1core_1_1Preprocessor.xhtml#a3a0500bd52152df42fca486c97043140" target="_top" xlink:title="Coalesces positive argument gates with the same OR or AND logic as parents. ">
<polygon fill="white" stroke="black" points="682,-616 682,-646 814,-646 814,-616 682,-616"/>
<text text-anchor="start" x="690" y="-634" font-family="Helvetica,sans-Serif" font-size="10.00">scram::core::Preprocessor</text>
<text text-anchor="middle" x="748" y="-623" font-family="Helvetica,sans-Serif" font-size="10.00">::CoalesceGates</text>
</a>
</g>
</g>
<!-- Node17&#45;&gt;Node18 -->
<g id="edge32" class="edge"><title>Node17&#45;&gt;Node18</title>
<path fill="none" stroke="midnightblue" d="M652.619,-628.773C662.364,-629.003 672.281,-629.237 681.846,-629.462"/>
<polygon fill="midnightblue" stroke="midnightblue" points="652.628,-625.272 642.548,-628.535 652.463,-632.27 652.628,-625.272"/>
</g>
<!-- Node19&#45;&gt;Node14 -->
<g id="edge35" class="edge"><title>Node19&#45;&gt;Node14</title>
<path fill="none" stroke="midnightblue" d="M473.033,-436.374C535.479,-451.333 624.671,-472.698 684.134,-486.941"/>
<polygon fill="midnightblue" stroke="midnightblue" points="473.789,-432.957 463.249,-434.031 472.158,-439.764 473.789,-432.957"/>
</g>
<!-- Node20&#45;&gt;Node14 -->
<g id="edge37" class="edge"><title>Node20&#45;&gt;Node14</title>
<path fill="none" stroke="midnightblue" d="M285.56,-352.567C335.987,-340.891 409.074,-330.275 471,-346 577.696,-373.093 686.137,-453.068 728.474,-486.761"/>
<polygon fill="midnightblue" stroke="midnightblue" points="284.696,-349.175 275.787,-354.909 286.327,-355.982 284.696,-349.175"/>
</g>
<!-- Node21 -->
<g id="node21" class="node"><title>Node21</title>
<g id="a_node21"><a xlink:href="classscram_1_1core_1_1Preprocessor.xhtml#a79fe8e90f0e8fbc20a76610aaf09fe6e" target="_top" xlink:title="Detects and manipulates AND and OR gate distributivity. ">
<polygon fill="white" stroke="black" points="333.5,-355 333.5,-385 465.5,-385 465.5,-355 333.5,-355"/>
<text text-anchor="start" x="341.5" y="-373" font-family="Helvetica,sans-Serif" font-size="10.00">scram::core::Preprocessor</text>
<text text-anchor="middle" x="399.5" y="-362" font-family="Helvetica,sans-Serif" font-size="10.00">::DetectDistributivity</text>
</a>
</g>
</g>
<!-- Node20&#45;&gt;Node21 -->
<g id="edge38" class="edge"><title>Node20&#45;&gt;Node21</title>
<path fill="none" stroke="midnightblue" d="M299.937,-370C311.092,-370 322.506,-370 333.427,-370"/>
<polygon fill="midnightblue" stroke="midnightblue" points="299.786,-366.5 289.786,-370 299.786,-373.5 299.786,-366.5"/>
</g>
<!-- Node22&#45;&gt;Node9 -->
<g id="edge41" class="edge"><title>Node22&#45;&gt;Node9</title>
<path fill="none" stroke="midnightblue" d="M652.977,-580.129C734.37,-581.625 867.663,-581.751 982,-571 1068.2,-562.894 1089.75,-557.956 1174,-538 1198.69,-532.152 1225.79,-524.047 1247.84,-517.007"/>
<polygon fill="midnightblue" stroke="midnightblue" points="652.891,-576.627 642.824,-579.931 652.754,-583.626 652.891,-576.627"/>
</g>
<!-- Node22&#45;&gt;Node14 -->
<g id="edge40" class="edge"><title>Node22&#45;&gt;Node14</title>
<path fill="none" stroke="midnightblue" d="M620.398,-558.765C649.204,-545.85 686.622,-529.072 713.292,-517.114"/>
<polygon fill="midnightblue" stroke="midnightblue" points="618.681,-555.7 610.988,-562.985 621.544,-562.087 618.681,-555.7"/>
</g>
<!-- Node23&#45;&gt;Node13 -->
<g id="edge43" class="edge"><title>Node23&#45;&gt;Node13</title>
<path fill="none" stroke="midnightblue" d="M299.779,-463.724C348.715,-467.915 413.819,-474.376 471,-483 483.809,-484.932 497.426,-487.377 510.452,-489.911"/>
<polygon fill="midnightblue" stroke="midnightblue" points="299.85,-460.217 289.591,-462.864 299.261,-467.193 299.85,-460.217"/>
</g>
<!-- Node23&#45;&gt;Node19 -->
<g id="edge44" class="edge"><title>Node23&#45;&gt;Node19</title>
<path fill="none" stroke="midnightblue" d="M299.778,-441.127C310.295,-438.77 321.045,-436.361 331.397,-434.04"/>
<polygon fill="midnightblue" stroke="midnightblue" points="298.779,-437.764 289.786,-443.367 300.31,-444.595 298.779,-437.764"/>
</g>
<!-- Node24&#45;&gt;Node9 -->
<g id="edge47" class="edge"><title>Node24&#45;&gt;Node9</title>
<path fill="none" stroke="midnightblue" d="M299.821,-710.173C401.368,-711.651 587.817,-714 747,-714 747,-714 747,-714 917,-714 1077.21,-714 1231.96,-565.856 1278.43,-517.247"/>
<polygon fill="midnightblue" stroke="midnightblue" points="299.714,-706.671 289.664,-710.024 299.612,-713.67 299.714,-706.671"/>
</g>
<!-- Node24&#45;&gt;Node25 -->
<g id="edge46" class="edge"><title>Node24&#45;&gt;Node25</title>
<path fill="none" stroke="midnightblue" d="M299.595,-692.6C310.859,-690.14 322.395,-687.621 333.427,-685.211"/>
<polygon fill="midnightblue" stroke="midnightblue" points="298.809,-689.189 289.786,-694.742 300.303,-696.028 298.809,-689.189"/>
</g>
<!-- Node26&#45;&gt;Node7 -->
<g id="edge49" class="edge"><title>Node26&#45;&gt;Node7</title>
<path fill="none" stroke="midnightblue" d="M1172.09,-163.775C1190.31,-162.75 1209.64,-161.662 1227.35,-160.666"/>
<polygon fill="midnightblue" stroke="midnightblue" points="1171.89,-160.281 1162.1,-164.337 1172.28,-167.27 1171.89,-160.281"/>
</g>
<!-- Node26&#45;&gt;Node8 -->
<g id="edge50" class="edge"><title>Node26&#45;&gt;Node8</title>
<path fill="none" stroke="midnightblue" d="M1160.35,-185.821C1185.79,-192.979 1214.8,-201.14 1239.14,-207.989"/>
<polygon fill="midnightblue" stroke="midnightblue" points="1161,-182.368 1150.42,-183.029 1159.1,-189.106 1161,-182.368"/>
</g>
<!-- Node27&#45;&gt;Node7 -->
<g id="edge53" class="edge"><title>Node27&#45;&gt;Node7</title>
<path fill="none" stroke="midnightblue" d="M1145.18,-98.7188C1154.73,-102.446 1164.69,-106.339 1174,-110 1200.98,-120.607 1231.38,-132.666 1254.63,-141.913"/>
<polygon fill="midnightblue" stroke="midnightblue" points="1146.38,-95.4322 1135.79,-95.062 1143.84,-101.954 1146.38,-95.4322"/>
</g>
<!-- Node27&#45;&gt;Node8 -->
<g id="edge54" class="edge"><title>Node27&#45;&gt;Node8</title>
<path fill="none" stroke="midnightblue" d="M1124.44,-101.489C1139.45,-113.567 1158.16,-129.157 1174,-144 1190.98,-159.908 1191.3,-168.166 1210,-182 1223.76,-192.177 1240.43,-201.009 1255.17,-207.843"/>
<polygon fill="midnightblue" stroke="midnightblue" points="1126.53,-98.673 1116.53,-95.1683 1122.16,-104.143 1126.53,-98.673"/>
</g>
<!-- Node28 -->
<g id="node28" class="node"><title>Node28</title>
<g id="a_node28"><a xlink:href="classscram_1_1core_1_1Preprocessor.xhtml#aeb861bbe289f7dc9fff6bd8f9b539f15" target="_top" xlink:title="Marks gates with coherence flags. ">
<polygon fill="white" stroke="black" points="1227.5,-65 1227.5,-95 1359.5,-95 1359.5,-65 1227.5,-65"/>
<text text-anchor="start" x="1235.5" y="-83" font-family="Helvetica,sans-Serif" font-size="10.00">scram::core::Preprocessor</text>
<text text-anchor="middle" x="1293.5" y="-72" font-family="Helvetica,sans-Serif" font-size="10.00">::MarkCoherence</text>
</a>
</g>
</g>
<!-- Node27&#45;&gt;Node28 -->
<g id="edge52" class="edge"><title>Node27&#45;&gt;Node28</title>
<path fill="none" stroke="midnightblue" d="M1172.34,-80C1190.49,-80 1209.72,-80 1227.35,-80"/>
<polygon fill="midnightblue" stroke="midnightblue" points="1172.1,-76.5001 1162.1,-80 1172.1,-83.5001 1172.1,-76.5001"/>
</g>
<!-- Node30&#45;&gt;Node9 -->
<g id="edge60" class="edge"><title>Node30&#45;&gt;Node9</title>
<path fill="none" stroke="midnightblue" d="M647.525,-775.194C766.276,-800.145 1010.19,-832.78 1174,-728 1252,-678.107 1281.62,-559.047 1289.87,-517.011"/>
<polygon fill="midnightblue" stroke="midnightblue" points="647.978,-771.712 637.466,-773.036 646.509,-778.556 647.978,-771.712"/>
</g>
<!-- Node30&#45;&gt;Node14 -->
<g id="edge59" class="edge"><title>Node30&#45;&gt;Node14</title>
<path fill="none" stroke="midnightblue" d="M593.264,-734.191C627.651,-682.256 708.583,-560.022 736.958,-517.167"/>
<polygon fill="midnightblue" stroke="midnightblue" points="590.198,-732.482 587.595,-742.753 596.034,-736.347 590.198,-732.482"/>
</g>
<!-- Node32 -->
<g id="node32" class="node"><title>Node32</title>
<g id="a_node32"><a xlink:href="classscram_1_1core_1_1Preprocessor.xhtml#a4086c57695d49b4770915d5d53bd47de" target="_top" xlink:title="Tries to simplify the graph by removing redundancies generated by a common node. ">
<polygon fill="white" stroke="black" points="333.5,-492 333.5,-522 465.5,-522 465.5,-492 333.5,-492"/>
<text text-anchor="start" x="341.5" y="-510" font-family="Helvetica,sans-Serif" font-size="10.00">scram::core::Preprocessor</text>
<text text-anchor="middle" x="399.5" y="-499" font-family="Helvetica,sans-Serif" font-size="10.00">::ProcessCommonNode</text>
</a>
</g>
</g>
<!-- Node31&#45;&gt;Node32 -->
<g id="edge62" class="edge"><title>Node31&#45;&gt;Node32</title>
<path fill="none" stroke="midnightblue" d="M302.535,-507C312.877,-507 323.39,-507 333.481,-507"/>
<polygon fill="midnightblue" stroke="midnightblue" points="302.271,-503.5 292.271,-507 302.271,-510.5 302.271,-503.5"/>
</g>
<!-- Node32&#45;&gt;Node13 -->
<g id="edge63" class="edge"><title>Node32&#45;&gt;Node13</title>
<path fill="none" stroke="midnightblue" d="M475.687,-505.711C487.201,-505.514 499.006,-505.311 510.282,-505.118"/>
<polygon fill="midnightblue" stroke="midnightblue" points="475.602,-502.212 465.664,-505.883 475.722,-509.211 475.602,-502.212"/>
</g>
</g>
</svg>
        <g id="navigator" transform="translate(0 0)" fill="#404254">
                <rect fill="#f2f5e9" fill-opacity="0.5" stroke="#606060" stroke-width=".5" x="0" y="0" width="60" height="60"/>
                <use id="zoomplus" xlink:href="#zoomPlus" x="17" y="9" onmousedown="handleZoom(evt,'in')"/>
                <use id="zoomminus" xlink:href="#zoomMin" x="42" y="9" onmousedown="handleZoom(evt,'out')"/>
                <use id="reset" xlink:href="#resetDef" x="30" y="36" onmousedown="handleReset()"/>
                <g id="arrowUp" xlink:href="#dirArrow" transform="translate(30 24)" onmousedown="handlePan(0,-1)">
                  <use xlink:href="#rim" fill="#404040">
                        <set attributeName="fill" to="#808080" begin="arrowUp.mouseover" end="arrowUp.mouseout"/>
                  </use>
                  <path fill="none" stroke="white" stroke-width="1.5" d="M0,-3.0v7 M-2.5,-0.5L0,-3.0L2.5,-0.5"/>
                </g>
                <g id="arrowRight" xlink:href="#dirArrow" transform="rotate(90) translate(36 -43)" onmousedown="handlePan(1,0)">
                  <use xlink:href="#rim" fill="#404040">
                        <set attributeName="fill" to="#808080" begin="arrowRight.mouseover" end="arrowRight.mouseout"/>
                  </use>
                  <path fill="none" stroke="white" stroke-width="1.5" d="M0,-3.0v7 M-2.5,-0.5L0,-3.0L2.5,-0.5"/>
                </g>
                <g id="arrowDown" xlink:href="#dirArrow" transform="rotate(180) translate(-30 -48)" onmousedown="handlePan(0,1)">
                  <use xlink:href="#rim" fill="#404040">
                        <set attributeName="fill" to="#808080" begin="arrowDown.mouseover" end="arrowDown.mouseout"/>
                  </use>
                  <path fill="none" stroke="white" stroke-width="1.5" d="M0,-3.0v7 M-2.5,-0.5L0,-3.0L2.5,-0.5"/>
                </g>
                <g id="arrowLeft" xlink:href="#dirArrow" transform="rotate(270) translate(-36 17)" onmousedown="handlePan(-1,0)">
                  <use xlink:href="#rim" fill="#404040">
                        <set attributeName="fill" to="#808080" begin="arrowLeft.mouseover" end="arrowLeft.mouseout"/>
                  </use>
                  <path fill="none" stroke="white" stroke-width="1.5" d="M0,-3.0v7 M-2.5,-0.5L0,-3.0L2.5,-0.5"/>
                </g>
        </g>
        <svg viewBox="0 0 15 15" width="100%" height="30px" preserveAspectRatio="xMaxYMin meet">
         <g id="arrow_out" transform="scale(0.3 0.3)">
          <a xlink:href="classscram_1_1core_1_1Pdag_ae9407efbb00e5f28aecb40db2ab7925b_icgraph_org.svg" target="_base">
           <rect id="button" ry="5" rx="5" y="6" x="6" height="38" width="38"
                fill="#f2f5e9" fill-opacity="0.5" stroke="#606060" stroke-width="1.0"/>
           <path id="arrow"
             d="M 11.500037,31.436501 C 11.940474,20.09759 22.043105,11.32322 32.158766,21.979434 L 37.068811,17.246167 C 37.068811,17.246167 37.088388,32 37.088388,32 L 22.160133,31.978069 C 22.160133,31.978069 26.997745,27.140456 26.997745,27.140456 C 18.528582,18.264221 13.291696,25.230495 11.500037,31.436501 z"
             style="fill:#404040;"/>
          </a>
         </g>
        </svg>
</svg>
