<?xml version="1.0" encoding="UTF-8" standalone="no"?>
<!DOCTYPE svg PUBLIC "-//W3C//DTD SVG 1.1//EN"
 "http://www.w3.org/Graphics/SVG/1.1/DTD/svg11.dtd">
<!-- Generated by graphviz version 2.38.0 (20140413.2041)
 -->
<!-- Title: scram::mef::Element Pages: 1 -->
<svg width="1010pt" height="1300pt"
 viewBox="0.00 0.00 1009.50 1300.00" xmlns="http://www.w3.org/2000/svg" xmlns:xlink="http://www.w3.org/1999/xlink">
<g id="graph0" class="graph" transform="scale(1 1) rotate(0) translate(4 1296)">
<title>scram::mef::Element</title>
<polygon fill="white" stroke="none" points="-4,4 -4,-1296 1005.5,-1296 1005.5,4 -4,4"/>
<!-- Node1 -->
<g id="node1" class="node"><title>Node1</title>
<polygon fill="#bfbfbf" stroke="black" points="608.5,-1157.5 608.5,-1291.5 716.5,-1291.5 716.5,-1157.5 608.5,-1157.5"/>
<text text-anchor="middle" x="662.5" y="-1279.5" font-family="Helvetica,sans-Serif" font-size="10.00">scram::mef::Element</text>
<polyline fill="none" stroke="black" points="608.5,-1272.5 716.5,-1272.5 "/>
<text text-anchor="middle" x="662.5" y="-1260.5" font-family="Helvetica,sans-Serif" font-size="10.00"> </text>
<polyline fill="none" stroke="black" points="608.5,-1253.5 716.5,-1253.5 "/>
<text text-anchor="start" x="616.5" y="-1241.5" font-family="Helvetica,sans-Serif" font-size="10.00">+ Element()</text>
<text text-anchor="start" x="616.5" y="-1230.5" font-family="Helvetica,sans-Serif" font-size="10.00">+ name()</text>
<text text-anchor="start" x="616.5" y="-1219.5" font-family="Helvetica,sans-Serif" font-size="10.00">+ label()</text>
<text text-anchor="start" x="616.5" y="-1208.5" font-family="Helvetica,sans-Serif" font-size="10.00">+ label()</text>
<text text-anchor="start" x="616.5" y="-1197.5" font-family="Helvetica,sans-Serif" font-size="10.00">+ AddAttribute()</text>
<text text-anchor="start" x="616.5" y="-1186.5" font-family="Helvetica,sans-Serif" font-size="10.00">+ HasAttribute()</text>
<text text-anchor="start" x="616.5" y="-1175.5" font-family="Helvetica,sans-Serif" font-size="10.00">+ GetAttribute()</text>
<text text-anchor="start" x="616.5" y="-1164.5" font-family="Helvetica,sans-Serif" font-size="10.00"># ~Element()</text>
</g>
<!-- Node2 -->
<g id="node2" class="node"><title>Node2</title>
<g id="a_node2"><a xlink:href="classscram_1_1mef_1_1Component.xhtml" target="_top" xlink:title="Component is for logical grouping of events, gates, and other components. ">
<polygon fill="white" stroke="black" points="303.5,-601.5 303.5,-1010.5 425.5,-1010.5 425.5,-601.5 303.5,-601.5"/>
<text text-anchor="middle" x="364.5" y="-998.5" font-family="Helvetica,sans-Serif" font-size="10.00">scram::mef::Component</text>
<polyline fill="none" stroke="black" points="303.5,-991.5 425.5,-991.5 "/>
<text text-anchor="middle" x="364.5" y="-979.5" font-family="Helvetica,sans-Serif" font-size="10.00"> </text>
<polyline fill="none" stroke="black" points="303.5,-972.5 425.5,-972.5 "/>
<text text-anchor="start" x="311.5" y="-960.5" font-family="Helvetica,sans-Serif" font-size="10.00">+ Component()</text>
<text text-anchor="start" x="311.5" y="-949.5" font-family="Helvetica,sans-Serif" font-size="10.00">+ ~Component()</text>
<text text-anchor="start" x="311.5" y="-938.5" font-family="Helvetica,sans-Serif" font-size="10.00">+ gates()</text>
<text text-anchor="start" x="311.5" y="-927.5" font-family="Helvetica,sans-Serif" font-size="10.00">+ basic_events()</text>
<text text-anchor="start" x="311.5" y="-916.5" font-family="Helvetica,sans-Serif" font-size="10.00">+ house_events()</text>
<text text-anchor="start" x="311.5" y="-905.5" font-family="Helvetica,sans-Serif" font-size="10.00">+ parameters()</text>
<text text-anchor="start" x="311.5" y="-894.5" font-family="Helvetica,sans-Serif" font-size="10.00">+ ccf_groups()</text>
<text text-anchor="start" x="311.5" y="-883.5" font-family="Helvetica,sans-Serif" font-size="10.00">+ components()</text>
<text text-anchor="start" x="311.5" y="-872.5" font-family="Helvetica,sans-Serif" font-size="10.00">+ Add()</text>
<text text-anchor="start" x="311.5" y="-861.5" font-family="Helvetica,sans-Serif" font-size="10.00">+ Add()</text>
<text text-anchor="start" x="311.5" y="-850.5" font-family="Helvetica,sans-Serif" font-size="10.00">+ Add()</text>
<text text-anchor="start" x="311.5" y="-839.5" font-family="Helvetica,sans-Serif" font-size="10.00">+ Add()</text>
<text text-anchor="start" x="311.5" y="-828.5" font-family="Helvetica,sans-Serif" font-size="10.00">+ Add()</text>
<text text-anchor="start" x="311.5" y="-817.5" font-family="Helvetica,sans-Serif" font-size="10.00">+ Add()</text>
<text text-anchor="start" x="311.5" y="-806.5" font-family="Helvetica,sans-Serif" font-size="10.00"># GatherGates()</text>
<text text-anchor="start" x="311.5" y="-795.5" font-family="Helvetica,sans-Serif" font-size="10.00">* gates()</text>
<text text-anchor="start" x="311.5" y="-784.5" font-family="Helvetica,sans-Serif" font-size="10.00">* basic_events()</text>
<text text-anchor="start" x="311.5" y="-773.5" font-family="Helvetica,sans-Serif" font-size="10.00">* house_events()</text>
<text text-anchor="start" x="311.5" y="-762.5" font-family="Helvetica,sans-Serif" font-size="10.00">* parameters()</text>
<text text-anchor="start" x="311.5" y="-751.5" font-family="Helvetica,sans-Serif" font-size="10.00">* ccf_groups()</text>
<text text-anchor="start" x="311.5" y="-740.5" font-family="Helvetica,sans-Serif" font-size="10.00">* components()</text>
<text text-anchor="start" x="311.5" y="-729.5" font-family="Helvetica,sans-Serif" font-size="10.00">* Add()</text>
<text text-anchor="start" x="311.5" y="-718.5" font-family="Helvetica,sans-Serif" font-size="10.00">* Add()</text>
<text text-anchor="start" x="311.5" y="-707.5" font-family="Helvetica,sans-Serif" font-size="10.00">* Add()</text>
<text text-anchor="start" x="311.5" y="-696.5" font-family="Helvetica,sans-Serif" font-size="10.00">* Add()</text>
<text text-anchor="start" x="311.5" y="-685.5" font-family="Helvetica,sans-Serif" font-size="10.00">* Add()</text>
<text text-anchor="start" x="311.5" y="-674.5" font-family="Helvetica,sans-Serif" font-size="10.00">* Add()</text>
<text text-anchor="start" x="311.5" y="-663.5" font-family="Helvetica,sans-Serif" font-size="10.00">* gates_</text>
<text text-anchor="start" x="311.5" y="-652.5" font-family="Helvetica,sans-Serif" font-size="10.00">* basic_events_</text>
<text text-anchor="start" x="311.5" y="-641.5" font-family="Helvetica,sans-Serif" font-size="10.00">* house_events_</text>
<text text-anchor="start" x="311.5" y="-630.5" font-family="Helvetica,sans-Serif" font-size="10.00">* parameters_</text>
<text text-anchor="start" x="311.5" y="-619.5" font-family="Helvetica,sans-Serif" font-size="10.00">* ccf_groups_</text>
<text text-anchor="start" x="311.5" y="-608.5" font-family="Helvetica,sans-Serif" font-size="10.00">* components_</text>
</a>
</g>
</g>
<!-- Node1&#45;&gt;Node2 -->
<g id="edge1" class="edge"><title>Node1&#45;&gt;Node2</title>
<path fill="none" stroke="midnightblue" d="M598.819,-1201.36C559.367,-1184.73 510.325,-1158.37 478.5,-1121 451.333,-1089.1 430.421,-1050.19 414.396,-1010.78"/>
<polygon fill="none" stroke="midnightblue" points="597.529,-1204.61 608.109,-1205.17 600.185,-1198.13 597.529,-1204.61"/>
</g>
<!-- Node4 -->
<g id="node4" class="node"><title>Node4</title>
<g id="a_node4"><a xlink:href="classscram_1_1mef_1_1EventTree.xhtml" target="_top" xlink:title="Event Tree representation with MEF constructs. ">
<polygon fill="white" stroke="black" points="487,-777.5 487,-834.5 604,-834.5 604,-777.5 487,-777.5"/>
<text text-anchor="middle" x="545.5" y="-822.5" font-family="Helvetica,sans-Serif" font-size="10.00">scram::mef::EventTree</text>
<polyline fill="none" stroke="black" points="487,-815.5 604,-815.5 "/>
<text text-anchor="middle" x="545.5" y="-803.5" font-family="Helvetica,sans-Serif" font-size="10.00"> </text>
<polyline fill="none" stroke="black" points="487,-796.5 604,-796.5 "/>
<text text-anchor="start" x="495" y="-784.5" font-family="Helvetica,sans-Serif" font-size="10.00">+ Add()</text>
</a>
</g>
</g>
<!-- Node1&#45;&gt;Node4 -->
<g id="edge3" class="edge"><title>Node1&#45;&gt;Node4</title>
<path fill="none" stroke="midnightblue" d="M624.059,-1148.13C620.183,-1139.11 616.556,-1129.93 613.5,-1121 578.386,-1018.35 557.376,-890.426 549.308,-834.886"/>
<polygon fill="none" stroke="midnightblue" points="620.935,-1149.72 628.177,-1157.45 627.338,-1146.89 620.935,-1149.72"/>
</g>
<!-- Node5 -->
<g id="node5" class="node"><title>Node5</title>
<g id="a_node5"><a xlink:href="classscram_1_1mef_1_1Id.xhtml" target="_top" xlink:title="Mixin class for assigning unique identifiers to elements. ">
<polygon fill="white" stroke="black" points="622.5,-766.5 622.5,-845.5 702.5,-845.5 702.5,-766.5 622.5,-766.5"/>
<text text-anchor="middle" x="662.5" y="-833.5" font-family="Helvetica,sans-Serif" font-size="10.00">scram::mef::Id</text>
<polyline fill="none" stroke="black" points="622.5,-826.5 702.5,-826.5 "/>
<text text-anchor="middle" x="662.5" y="-814.5" font-family="Helvetica,sans-Serif" font-size="10.00"> </text>
<polyline fill="none" stroke="black" points="622.5,-807.5 702.5,-807.5 "/>
<text text-anchor="start" x="630.5" y="-795.5" font-family="Helvetica,sans-Serif" font-size="10.00">+ Id()</text>
<text text-anchor="start" x="630.5" y="-784.5" font-family="Helvetica,sans-Serif" font-size="10.00">+ id()</text>
<text text-anchor="start" x="630.5" y="-773.5" font-family="Helvetica,sans-Serif" font-size="10.00"># ~Id()</text>
</a>
</g>
</g>
<!-- Node1&#45;&gt;Node5 -->
<g id="edge4" class="edge"><title>Node1&#45;&gt;Node5</title>
<path fill="none" stroke="midnightblue" d="M662.5,-1146.99C662.5,-1057.89 662.5,-914.204 662.5,-845.714"/>
<polygon fill="none" stroke="midnightblue" points="659,-1147.04 662.5,-1157.04 666,-1147.04 659,-1147.04"/>
</g>
<!-- Node17 -->
<g id="node17" class="node"><title>Node17</title>
<g id="a_node17"><a xlink:href="classscram_1_1mef_1_1Model.xhtml" target="_top" xlink:title="This class represents a risk analysis model. ">
<polygon fill="white" stroke="black" points="721,-491.5 721,-1120.5 822,-1120.5 822,-491.5 721,-491.5"/>
<text text-anchor="middle" x="771.5" y="-1108.5" font-family="Helvetica,sans-Serif" font-size="10.00">scram::mef::Model</text>
<polyline fill="none" stroke="black" points="721,-1101.5 822,-1101.5 "/>
<text text-anchor="start" x="729" y="-1089.5" font-family="Helvetica,sans-Serif" font-size="10.00">+ kDefaultName</text>
<polyline fill="none" stroke="black" points="721,-1082.5 822,-1082.5 "/>
<text text-anchor="start" x="729" y="-1070.5" font-family="Helvetica,sans-Serif" font-size="10.00">+ Model()</text>
<text text-anchor="start" x="729" y="-1059.5" font-family="Helvetica,sans-Serif" font-size="10.00">+ BindEvent()</text>
<text text-anchor="start" x="729" y="-1048.5" font-family="Helvetica,sans-Serif" font-size="10.00">+ event_trees()</text>
<text text-anchor="start" x="729" y="-1037.5" font-family="Helvetica,sans-Serif" font-size="10.00">+ sequences()</text>
<text text-anchor="start" x="729" y="-1026.5" font-family="Helvetica,sans-Serif" font-size="10.00">+ fault_trees()</text>
<text text-anchor="start" x="729" y="-1015.5" font-family="Helvetica,sans-Serif" font-size="10.00">+ parameters()</text>
<text text-anchor="start" x="729" y="-1004.5" font-family="Helvetica,sans-Serif" font-size="10.00">+ mission_time()</text>
<text text-anchor="start" x="729" y="-993.5" font-family="Helvetica,sans-Serif" font-size="10.00">+ house_events()</text>
<text text-anchor="start" x="729" y="-982.5" font-family="Helvetica,sans-Serif" font-size="10.00">+ basic_events()</text>
<text text-anchor="start" x="729" y="-971.5" font-family="Helvetica,sans-Serif" font-size="10.00">+ gates()</text>
<text text-anchor="start" x="729" y="-960.5" font-family="Helvetica,sans-Serif" font-size="10.00">+ ccf_groups()</text>
<text text-anchor="start" x="729" y="-949.5" font-family="Helvetica,sans-Serif" font-size="10.00">+ Add()</text>
<text text-anchor="start" x="729" y="-938.5" font-family="Helvetica,sans-Serif" font-size="10.00">+ Add()</text>
<text text-anchor="start" x="729" y="-927.5" font-family="Helvetica,sans-Serif" font-size="10.00">+ Add()</text>
<text text-anchor="start" x="729" y="-916.5" font-family="Helvetica,sans-Serif" font-size="10.00">+ Add()</text>
<text text-anchor="start" x="729" y="-905.5" font-family="Helvetica,sans-Serif" font-size="10.00">+ Add()</text>
<text text-anchor="start" x="729" y="-894.5" font-family="Helvetica,sans-Serif" font-size="10.00">+ Add()</text>
<text text-anchor="start" x="729" y="-883.5" font-family="Helvetica,sans-Serif" font-size="10.00">+ Add()</text>
<text text-anchor="start" x="729" y="-872.5" font-family="Helvetica,sans-Serif" font-size="10.00">+ Add()</text>
<text text-anchor="start" x="729" y="-861.5" font-family="Helvetica,sans-Serif" font-size="10.00">+ GetParameter()</text>
<text text-anchor="start" x="729" y="-850.5" font-family="Helvetica,sans-Serif" font-size="10.00">+ GetHouseEvent()</text>
<text text-anchor="start" x="729" y="-839.5" font-family="Helvetica,sans-Serif" font-size="10.00">+ GetBasicEvent()</text>
<text text-anchor="start" x="729" y="-828.5" font-family="Helvetica,sans-Serif" font-size="10.00">+ GetGate()</text>
<text text-anchor="start" x="729" y="-817.5" font-family="Helvetica,sans-Serif" font-size="10.00">* event_trees_</text>
<text text-anchor="start" x="729" y="-806.5" font-family="Helvetica,sans-Serif" font-size="10.00">* sequences_</text>
<text text-anchor="start" x="729" y="-795.5" font-family="Helvetica,sans-Serif" font-size="10.00">* fault_trees_</text>
<text text-anchor="start" x="729" y="-784.5" font-family="Helvetica,sans-Serif" font-size="10.00">* gates_</text>
<text text-anchor="start" x="729" y="-773.5" font-family="Helvetica,sans-Serif" font-size="10.00">* house_events_</text>
<text text-anchor="start" x="729" y="-762.5" font-family="Helvetica,sans-Serif" font-size="10.00">* basic_events_</text>
<text text-anchor="start" x="729" y="-751.5" font-family="Helvetica,sans-Serif" font-size="10.00">* parameters_</text>
<text text-anchor="start" x="729" y="-740.5" font-family="Helvetica,sans-Serif" font-size="10.00">* mission_time_</text>
<text text-anchor="start" x="729" y="-729.5" font-family="Helvetica,sans-Serif" font-size="10.00">* ccf_groups_</text>
<text text-anchor="start" x="729" y="-718.5" font-family="Helvetica,sans-Serif" font-size="10.00">* event_trees()</text>
<text text-anchor="start" x="729" y="-707.5" font-family="Helvetica,sans-Serif" font-size="10.00">* sequences()</text>
<text text-anchor="start" x="729" y="-696.5" font-family="Helvetica,sans-Serif" font-size="10.00">* fault_trees()</text>
<text text-anchor="start" x="729" y="-685.5" font-family="Helvetica,sans-Serif" font-size="10.00">* parameters()</text>
<text text-anchor="start" x="729" y="-674.5" font-family="Helvetica,sans-Serif" font-size="10.00">* mission_time()</text>
<text text-anchor="start" x="729" y="-663.5" font-family="Helvetica,sans-Serif" font-size="10.00">* house_events()</text>
<text text-anchor="start" x="729" y="-652.5" font-family="Helvetica,sans-Serif" font-size="10.00">* basic_events()</text>
<text text-anchor="start" x="729" y="-641.5" font-family="Helvetica,sans-Serif" font-size="10.00">* gates()</text>
<text text-anchor="start" x="729" y="-630.5" font-family="Helvetica,sans-Serif" font-size="10.00">* ccf_groups()</text>
<text text-anchor="start" x="729" y="-619.5" font-family="Helvetica,sans-Serif" font-size="10.00">* Add()</text>
<text text-anchor="start" x="729" y="-608.5" font-family="Helvetica,sans-Serif" font-size="10.00">* Add()</text>
<text text-anchor="start" x="729" y="-597.5" font-family="Helvetica,sans-Serif" font-size="10.00">* Add()</text>
<text text-anchor="start" x="729" y="-586.5" font-family="Helvetica,sans-Serif" font-size="10.00">* Add()</text>
<text text-anchor="start" x="729" y="-575.5" font-family="Helvetica,sans-Serif" font-size="10.00">* Add()</text>
<text text-anchor="start" x="729" y="-564.5" font-family="Helvetica,sans-Serif" font-size="10.00">* Add()</text>
<text text-anchor="start" x="729" y="-553.5" font-family="Helvetica,sans-Serif" font-size="10.00">* Add()</text>
<text text-anchor="start" x="729" y="-542.5" font-family="Helvetica,sans-Serif" font-size="10.00">* Add()</text>
<text text-anchor="start" x="729" y="-531.5" font-family="Helvetica,sans-Serif" font-size="10.00">* GetParameter()</text>
<text text-anchor="start" x="729" y="-520.5" font-family="Helvetica,sans-Serif" font-size="10.00">* GetHouseEvent()</text>
<text text-anchor="start" x="729" y="-509.5" font-family="Helvetica,sans-Serif" font-size="10.00">* GetBasicEvent()</text>
<text text-anchor="start" x="729" y="-498.5" font-family="Helvetica,sans-Serif" font-size="10.00">* GetGate()</text>
</a>
</g>
</g>
<!-- Node1&#45;&gt;Node17 -->
<g id="edge16" class="edge"><title>Node1&#45;&gt;Node17</title>
<path fill="none" stroke="midnightblue" d="M701.247,-1147.99C705.051,-1139.03 708.576,-1129.9 711.5,-1121 714.791,-1110.98 717.924,-1100.72 720.904,-1090.31"/>
<polygon fill="none" stroke="midnightblue" points="697.996,-1146.69 697.196,-1157.25 704.409,-1149.49 697.996,-1146.69"/>
</g>
<!-- Node18 -->
<g id="node18" class="node"><title>Node18</title>
<g id="a_node18"><a xlink:href="classscram_1_1mef_1_1Sequence.xhtml" target="_top" xlink:title="Representation of sequences in event trees. ">
<polygon fill="white" stroke="black" points="840.5,-777.5 840.5,-834.5 956.5,-834.5 956.5,-777.5 840.5,-777.5"/>
<text text-anchor="middle" x="898.5" y="-822.5" font-family="Helvetica,sans-Serif" font-size="10.00">scram::mef::Sequence</text>
<polyline fill="none" stroke="black" points="840.5,-815.5 956.5,-815.5 "/>
<text text-anchor="middle" x="898.5" y="-803.5" font-family="Helvetica,sans-Serif" font-size="10.00"> </text>
<polyline fill="none" stroke="black" points="840.5,-796.5 956.5,-796.5 "/>
<text text-anchor="start" x="848.5" y="-784.5" font-family="Helvetica,sans-Serif" font-size="10.00">+ instructions()</text>
</a>
</g>
</g>
<!-- Node1&#45;&gt;Node18 -->
<g id="edge17" class="edge"><title>Node1&#45;&gt;Node18</title>
<path fill="none" stroke="midnightblue" d="M726.328,-1199.83C762.551,-1183.18 805.677,-1157.33 831.5,-1121 895.278,-1031.27 900.526,-893.101 899.594,-834.64"/>
<polygon fill="none" stroke="midnightblue" points="724.51,-1196.81 716.799,-1204.08 727.358,-1203.21 724.51,-1196.81"/>
</g>
<!-- Node3 -->
<g id="node3" class="node"><title>Node3</title>
<g id="a_node3"><a xlink:href="classscram_1_1mef_1_1FaultTree.xhtml" target="_top" xlink:title="Fault tree representation as a container of gates, basic and house events, and other information...">
<polygon fill="white" stroke="black" points="223,-342.5 223,-421.5 336,-421.5 336,-342.5 223,-342.5"/>
<text text-anchor="middle" x="279.5" y="-409.5" font-family="Helvetica,sans-Serif" font-size="10.00">scram::mef::FaultTree</text>
<polyline fill="none" stroke="black" points="223,-402.5 336,-402.5 "/>
<text text-anchor="middle" x="279.5" y="-390.5" font-family="Helvetica,sans-Serif" font-size="10.00"> </text>
<polyline fill="none" stroke="black" points="223,-383.5 336,-383.5 "/>
<text text-anchor="start" x="231" y="-371.5" font-family="Helvetica,sans-Serif" font-size="10.00">+ FaultTree()</text>
<text text-anchor="start" x="231" y="-360.5" font-family="Helvetica,sans-Serif" font-size="10.00">+ top_events()</text>
<text text-anchor="start" x="231" y="-349.5" font-family="Helvetica,sans-Serif" font-size="10.00">+ CollectTopEvents()</text>
</a>
</g>
</g>
<!-- Node2&#45;&gt;Node3 -->
<g id="edge2" class="edge"><title>Node2&#45;&gt;Node3</title>
<path fill="none" stroke="midnightblue" d="M321.472,-591.378C308.342,-526.192 295.279,-461.339 287.297,-421.712"/>
<polygon fill="none" stroke="midnightblue" points="318.088,-592.305 323.494,-601.417 324.95,-590.922 318.088,-592.305"/>
</g>
<!-- Node6 -->
<g id="node6" class="node"><title>Node6</title>
<g id="a_node6"><a xlink:href="classscram_1_1mef_1_1CcfGroup.xhtml" target="_top" xlink:title="Abstract base class for all common cause failure models. ">
<polygon fill="white" stroke="black" points="354.5,-309.5 354.5,-454.5 468.5,-454.5 468.5,-309.5 354.5,-309.5"/>
<text text-anchor="middle" x="411.5" y="-442.5" font-family="Helvetica,sans-Serif" font-size="10.00">scram::mef::CcfGroup</text>
<polyline fill="none" stroke="black" points="354.5,-435.5 468.5,-435.5 "/>
<text text-anchor="middle" x="411.5" y="-423.5" font-family="Helvetica,sans-Serif" font-size="10.00"> </text>
<polyline fill="none" stroke="black" points="354.5,-416.5 468.5,-416.5 "/>
<text text-anchor="start" x="362.5" y="-404.5" font-family="Helvetica,sans-Serif" font-size="10.00">+ ~CcfGroup()</text>
<text text-anchor="start" x="362.5" y="-393.5" font-family="Helvetica,sans-Serif" font-size="10.00">+ members()</text>
<text text-anchor="start" x="362.5" y="-382.5" font-family="Helvetica,sans-Serif" font-size="10.00">+ AddMember()</text>
<text text-anchor="start" x="362.5" y="-371.5" font-family="Helvetica,sans-Serif" font-size="10.00">+ AddDistribution()</text>
<text text-anchor="start" x="362.5" y="-360.5" font-family="Helvetica,sans-Serif" font-size="10.00">+ AddFactor()</text>
<text text-anchor="start" x="362.5" y="-349.5" font-family="Helvetica,sans-Serif" font-size="10.00">+ Validate()</text>
<text text-anchor="start" x="362.5" y="-338.5" font-family="Helvetica,sans-Serif" font-size="10.00">+ ApplyModel()</text>
<text text-anchor="start" x="362.5" y="-327.5" font-family="Helvetica,sans-Serif" font-size="10.00"># distribution()</text>
<text text-anchor="start" x="362.5" y="-316.5" font-family="Helvetica,sans-Serif" font-size="10.00"># factors()</text>
</a>
</g>
</g>
<!-- Node5&#45;&gt;Node6 -->
<g id="edge5" class="edge"><title>Node5&#45;&gt;Node6</title>
<path fill="none" stroke="midnightblue" d="M667.546,-756.265C671.808,-689.973 669.962,-570.54 613.5,-491 578.972,-442.358 515.555,-413.64 468.958,-398.197"/>
<polygon fill="none" stroke="midnightblue" points="664.041,-756.21 666.817,-766.434 671.023,-756.71 664.041,-756.21"/>
</g>
<!-- Node11 -->
<g id="node11" class="node"><title>Node11</title>
<g id="a_node11"><a xlink:href="classscram_1_1mef_1_1Event.xhtml" target="_top" xlink:title="Abstract base class for general fault tree events. ">
<polygon fill="white" stroke="black" points="635.5,-342.5 635.5,-421.5 733.5,-421.5 733.5,-342.5 635.5,-342.5"/>
<text text-anchor="middle" x="684.5" y="-409.5" font-family="Helvetica,sans-Serif" font-size="10.00">scram::mef::Event</text>
<polyline fill="none" stroke="black" points="635.5,-402.5 733.5,-402.5 "/>
<text text-anchor="middle" x="684.5" y="-390.5" font-family="Helvetica,sans-Serif" font-size="10.00"> </text>
<polyline fill="none" stroke="black" points="635.5,-383.5 733.5,-383.5 "/>
<text text-anchor="start" x="643.5" y="-371.5" font-family="Helvetica,sans-Serif" font-size="10.00">+ ~Event()</text>
<text text-anchor="start" x="643.5" y="-360.5" font-family="Helvetica,sans-Serif" font-size="10.00">+ orphan()</text>
<text text-anchor="start" x="643.5" y="-349.5" font-family="Helvetica,sans-Serif" font-size="10.00">+ orphan()</text>
</a>
</g>
</g>
<!-- Node5&#45;&gt;Node11 -->
<g id="edge10" class="edge"><title>Node5&#45;&gt;Node11</title>
<path fill="none" stroke="midnightblue" d="M665.039,-756.303C669.456,-671.579 678.466,-498.737 682.486,-421.631"/>
<polygon fill="none" stroke="midnightblue" points="661.536,-756.263 664.511,-766.432 668.527,-756.627 661.536,-756.263"/>
</g>
<!-- Node16 -->
<g id="node16" class="node"><title>Node16</title>
<g id="a_node16"><a xlink:href="classscram_1_1mef_1_1Parameter.xhtml" target="_top" xlink:title="This class provides a representation of a variable in basic event description. ">
<polygon fill="white" stroke="black" points="752,-315 752,-449 869,-449 869,-315 752,-315"/>
<text text-anchor="middle" x="810.5" y="-437" font-family="Helvetica,sans-Serif" font-size="10.00">scram::mef::Parameter</text>
<polyline fill="none" stroke="black" points="752,-430 869,-430 "/>
<text text-anchor="middle" x="810.5" y="-418" font-family="Helvetica,sans-Serif" font-size="10.00"> </text>
<polyline fill="none" stroke="black" points="752,-411 869,-411 "/>
<text text-anchor="start" x="760" y="-399" font-family="Helvetica,sans-Serif" font-size="10.00">+ expression()</text>
<text text-anchor="start" x="760" y="-388" font-family="Helvetica,sans-Serif" font-size="10.00">+ unit()</text>
<text text-anchor="start" x="760" y="-377" font-family="Helvetica,sans-Serif" font-size="10.00">+ unit()</text>
<text text-anchor="start" x="760" y="-366" font-family="Helvetica,sans-Serif" font-size="10.00">+ unused()</text>
<text text-anchor="start" x="760" y="-355" font-family="Helvetica,sans-Serif" font-size="10.00">+ unused()</text>
<text text-anchor="start" x="760" y="-344" font-family="Helvetica,sans-Serif" font-size="10.00">+ Mean()</text>
<text text-anchor="start" x="760" y="-333" font-family="Helvetica,sans-Serif" font-size="10.00">+ Max()</text>
<text text-anchor="start" x="760" y="-322" font-family="Helvetica,sans-Serif" font-size="10.00">+ Min()</text>
</a>
</g>
</g>
<!-- Node5&#45;&gt;Node16 -->
<g id="edge15" class="edge"><title>Node5&#45;&gt;Node16</title>
<path fill="none" stroke="midnightblue" d="M661.809,-755.971C662.753,-691.924 670.876,-577.743 712.5,-491 713.986,-487.904 731.816,-468.032 751.869,-446.161"/>
<polygon fill="none" stroke="midnightblue" points="658.307,-756.156 661.713,-766.188 665.307,-756.221 658.307,-756.156"/>
</g>
<!-- Node7 -->
<g id="node7" class="node"><title>Node7</title>
<g id="a_node7"><a xlink:href="classscram_1_1mef_1_1AlphaFactorModel.xhtml" target="_top" xlink:title="Alpha factor model characterizes failure of exactly k members of the group due to common cause...">
<polygon fill="white" stroke="black" points="0,-171.5 0,-228.5 151,-228.5 151,-171.5 0,-171.5"/>
<text text-anchor="middle" x="75.5" y="-216.5" font-family="Helvetica,sans-Serif" font-size="10.00">scram::mef::AlphaFactorModel</text>
<polyline fill="none" stroke="black" points="0,-209.5 151,-209.5 "/>
<text text-anchor="middle" x="75.5" y="-197.5" font-family="Helvetica,sans-Serif" font-size="10.00"> </text>
<polyline fill="none" stroke="black" points="0,-190.5 151,-190.5 "/>
<text text-anchor="middle" x="75.5" y="-178.5" font-family="Helvetica,sans-Serif" font-size="10.00"> </text>
</a>
</g>
</g>
<!-- Node6&#45;&gt;Node7 -->
<g id="edge6" class="edge"><title>Node6&#45;&gt;Node7</title>
<path fill="none" stroke="midnightblue" d="M345.777,-309.156C345.685,-309.104 345.592,-309.052 345.5,-309 272.416,-268.07 236.017,-309.245 160.5,-273 138.008,-262.205 116.601,-244.007 100.896,-228.608"/>
<polygon fill="none" stroke="midnightblue" points="343.867,-312.089 354.19,-314.475 347.608,-306.172 343.867,-312.089"/>
</g>
<!-- Node8 -->
<g id="node8" class="node"><title>Node8</title>
<g id="a_node8"><a xlink:href="classscram_1_1mef_1_1BetaFactorModel.xhtml" target="_top" xlink:title="Common cause failure model that assumes, if common cause failure occurs, then all components or membe...">
<polygon fill="white" stroke="black" points="169.5,-171.5 169.5,-228.5 315.5,-228.5 315.5,-171.5 169.5,-171.5"/>
<text text-anchor="middle" x="242.5" y="-216.5" font-family="Helvetica,sans-Serif" font-size="10.00">scram::mef::BetaFactorModel</text>
<polyline fill="none" stroke="black" points="169.5,-209.5 315.5,-209.5 "/>
<text text-anchor="middle" x="242.5" y="-197.5" font-family="Helvetica,sans-Serif" font-size="10.00"> </text>
<polyline fill="none" stroke="black" points="169.5,-190.5 315.5,-190.5 "/>
<text text-anchor="middle" x="242.5" y="-178.5" font-family="Helvetica,sans-Serif" font-size="10.00"> </text>
</a>
</g>
</g>
<!-- Node6&#45;&gt;Node8 -->
<g id="edge7" class="edge"><title>Node6&#45;&gt;Node8</title>
<path fill="none" stroke="midnightblue" d="M347.409,-311.043C346.77,-310.359 346.133,-309.677 345.5,-309 319.841,-281.558 290.205,-250.554 269.329,-228.828"/>
<polygon fill="none" stroke="midnightblue" points="344.963,-313.553 354.338,-318.49 350.088,-308.785 344.963,-313.553"/>
</g>
<!-- Node9 -->
<g id="node9" class="node"><title>Node9</title>
<g id="a_node9"><a xlink:href="classscram_1_1mef_1_1MglModel.xhtml" target="_top" xlink:title="Multiple Greek Letters model characterizes failure of sub&#45;groups of the group due to common cause...">
<polygon fill="white" stroke="black" points="333.5,-171.5 333.5,-228.5 447.5,-228.5 447.5,-171.5 333.5,-171.5"/>
<text text-anchor="middle" x="390.5" y="-216.5" font-family="Helvetica,sans-Serif" font-size="10.00">scram::mef::MglModel</text>
<polyline fill="none" stroke="black" points="333.5,-209.5 447.5,-209.5 "/>
<text text-anchor="middle" x="390.5" y="-197.5" font-family="Helvetica,sans-Serif" font-size="10.00"> </text>
<polyline fill="none" stroke="black" points="333.5,-190.5 447.5,-190.5 "/>
<text text-anchor="middle" x="390.5" y="-178.5" font-family="Helvetica,sans-Serif" font-size="10.00"> </text>
</a>
</g>
</g>
<!-- Node6&#45;&gt;Node9 -->
<g id="edge8" class="edge"><title>Node6&#45;&gt;Node9</title>
<path fill="none" stroke="midnightblue" d="M401.972,-299.331C399.02,-274.026 395.964,-247.836 393.75,-228.854"/>
<polygon fill="none" stroke="midnightblue" points="398.505,-299.815 403.14,-309.342 405.457,-299.004 398.505,-299.815"/>
</g>
<!-- Node10 -->
<g id="node10" class="node"><title>Node10</title>
<g id="a_node10"><a xlink:href="classscram_1_1mef_1_1PhiFactorModel.xhtml" target="_top" xlink:title="Phi factor model is a simplification, where fractions of k&#45;member group failure is given directly...">
<polygon fill="white" stroke="black" points="465.5,-171.5 465.5,-228.5 605.5,-228.5 605.5,-171.5 465.5,-171.5"/>
<text text-anchor="middle" x="535.5" y="-216.5" font-family="Helvetica,sans-Serif" font-size="10.00">scram::mef::PhiFactorModel</text>
<polyline fill="none" stroke="black" points="465.5,-209.5 605.5,-209.5 "/>
<text text-anchor="middle" x="535.5" y="-197.5" font-family="Helvetica,sans-Serif" font-size="10.00"> </text>
<polyline fill="none" stroke="black" points="465.5,-190.5 605.5,-190.5 "/>
<text text-anchor="middle" x="535.5" y="-178.5" font-family="Helvetica,sans-Serif" font-size="10.00"> </text>
</a>
</g>
</g>
<!-- Node6&#45;&gt;Node10 -->
<g id="edge9" class="edge"><title>Node6&#45;&gt;Node10</title>
<path fill="none" stroke="midnightblue" d="M466.605,-301.009C484.392,-275.189 502.946,-248.256 516.312,-228.854"/>
<polygon fill="none" stroke="midnightblue" points="463.655,-299.121 460.864,-309.342 469.42,-303.093 463.655,-299.121"/>
</g>
<!-- Node12 -->
<g id="node12" class="node"><title>Node12</title>
<g id="a_node12"><a xlink:href="classscram_1_1mef_1_1BasicEvent.xhtml" target="_top" xlink:title="Representation of a basic event in a fault tree. ">
<polygon fill="white" stroke="black" points="623.5,-127.5 623.5,-272.5 745.5,-272.5 745.5,-127.5 623.5,-127.5"/>
<text text-anchor="middle" x="684.5" y="-260.5" font-family="Helvetica,sans-Serif" font-size="10.00">scram::mef::BasicEvent</text>
<polyline fill="none" stroke="black" points="623.5,-253.5 745.5,-253.5 "/>
<text text-anchor="middle" x="684.5" y="-241.5" font-family="Helvetica,sans-Serif" font-size="10.00"> </text>
<polyline fill="none" stroke="black" points="623.5,-234.5 745.5,-234.5 "/>
<text text-anchor="start" x="631.5" y="-222.5" font-family="Helvetica,sans-Serif" font-size="10.00">+ ~BasicEvent()</text>
<text text-anchor="start" x="631.5" y="-211.5" font-family="Helvetica,sans-Serif" font-size="10.00">+ HasExpression()</text>
<text text-anchor="start" x="631.5" y="-200.5" font-family="Helvetica,sans-Serif" font-size="10.00">+ expression()</text>
<text text-anchor="start" x="631.5" y="-189.5" font-family="Helvetica,sans-Serif" font-size="10.00">+ expression()</text>
<text text-anchor="start" x="631.5" y="-178.5" font-family="Helvetica,sans-Serif" font-size="10.00">+ p()</text>
<text text-anchor="start" x="631.5" y="-167.5" font-family="Helvetica,sans-Serif" font-size="10.00">+ Validate()</text>
<text text-anchor="start" x="631.5" y="-156.5" font-family="Helvetica,sans-Serif" font-size="10.00">+ HasCcf()</text>
<text text-anchor="start" x="631.5" y="-145.5" font-family="Helvetica,sans-Serif" font-size="10.00">+ ccf_gate()</text>
<text text-anchor="start" x="631.5" y="-134.5" font-family="Helvetica,sans-Serif" font-size="10.00">+ ccf_gate()</text>
</a>
</g>
</g>
<!-- Node11&#45;&gt;Node12 -->
<g id="edge11" class="edge"><title>Node11&#45;&gt;Node12</title>
<path fill="none" stroke="midnightblue" d="M684.5,-332.231C684.5,-313.875 684.5,-292.598 684.5,-272.59"/>
<polygon fill="none" stroke="midnightblue" points="681,-332.385 684.5,-342.385 688,-332.386 681,-332.385"/>
</g>
<!-- Node14 -->
<g id="node14" class="node"><title>Node14</title>
<g id="a_node14"><a xlink:href="classscram_1_1mef_1_1Gate.xhtml" target="_top" xlink:title="A representation of a gate in a fault tree. ">
<polygon fill="white" stroke="black" points="764,-144 764,-256 857,-256 857,-144 764,-144"/>
<text text-anchor="middle" x="810.5" y="-244" font-family="Helvetica,sans-Serif" font-size="10.00">scram::mef::Gate</text>
<polyline fill="none" stroke="black" points="764,-237 857,-237 "/>
<text text-anchor="middle" x="810.5" y="-225" font-family="Helvetica,sans-Serif" font-size="10.00"> </text>
<polyline fill="none" stroke="black" points="764,-218 857,-218 "/>
<text text-anchor="start" x="772" y="-206" font-family="Helvetica,sans-Serif" font-size="10.00">+ formula()</text>
<text text-anchor="start" x="772" y="-195" font-family="Helvetica,sans-Serif" font-size="10.00">+ Validate()</text>
<text text-anchor="start" x="772" y="-184" font-family="Helvetica,sans-Serif" font-size="10.00">+ formula()</text>
<text text-anchor="start" x="772" y="-173" font-family="Helvetica,sans-Serif" font-size="10.00">+ formula()</text>
<text text-anchor="start" x="772" y="-162" font-family="Helvetica,sans-Serif" font-size="10.00">* formula()</text>
<text text-anchor="start" x="772" y="-151" font-family="Helvetica,sans-Serif" font-size="10.00">* formula()</text>
</a>
</g>
</g>
<!-- Node11&#45;&gt;Node14 -->
<g id="edge13" class="edge"><title>Node11&#45;&gt;Node14</title>
<path fill="none" stroke="midnightblue" d="M717.266,-334.191C733.951,-310.355 754.345,-281.221 771.8,-256.286"/>
<polygon fill="none" stroke="midnightblue" points="714.398,-332.186 711.53,-342.385 720.132,-336.2 714.398,-332.186"/>
</g>
<!-- Node15 -->
<g id="node15" class="node"><title>Node15</title>
<g id="a_node15"><a xlink:href="classscram_1_1mef_1_1HouseEvent.xhtml" target="_top" xlink:title="Representation of a house event in a fault tree. ">
<polygon fill="white" stroke="black" points="875.5,-166 875.5,-234 1001.5,-234 1001.5,-166 875.5,-166"/>
<text text-anchor="middle" x="938.5" y="-222" font-family="Helvetica,sans-Serif" font-size="10.00">scram::mef::HouseEvent</text>
<polyline fill="none" stroke="black" points="875.5,-215 1001.5,-215 "/>
<text text-anchor="middle" x="938.5" y="-203" font-family="Helvetica,sans-Serif" font-size="10.00"> </text>
<polyline fill="none" stroke="black" points="875.5,-196 1001.5,-196 "/>
<text text-anchor="start" x="883.5" y="-184" font-family="Helvetica,sans-Serif" font-size="10.00">+ state()</text>
<text text-anchor="start" x="883.5" y="-173" font-family="Helvetica,sans-Serif" font-size="10.00">+ state()</text>
</a>
</g>
</g>
<!-- Node11&#45;&gt;Node15 -->
<g id="edge14" class="edge"><title>Node11&#45;&gt;Node15</title>
<path fill="none" stroke="midnightblue" d="M715.866,-334.24C723.95,-324.824 733.286,-315.758 743.5,-309 791.003,-277.569 817.501,-302.044 866.5,-273 883.532,-262.905 899.442,-247.861 911.952,-234.132"/>
<polygon fill="none" stroke="midnightblue" points="712.99,-332.228 709.378,-342.188 718.413,-336.654 712.99,-332.228"/>
</g>
<!-- Node13 -->
<g id="node13" class="node"><title>Node13</title>
<g id="a_node13"><a xlink:href="classscram_1_1mef_1_1CcfEvent.xhtml" target="_top" xlink:title="A basic event that represents a multiple failure of a group of events due to a common cause...">
<polygon fill="white" stroke="black" points="628,-0.5 628,-90.5 741,-90.5 741,-0.5 628,-0.5"/>
<text text-anchor="middle" x="684.5" y="-78.5" font-family="Helvetica,sans-Serif" font-size="10.00">scram::mef::CcfEvent</text>
<polyline fill="none" stroke="black" points="628,-71.5 741,-71.5 "/>
<text text-anchor="middle" x="684.5" y="-59.5" font-family="Helvetica,sans-Serif" font-size="10.00"> </text>
<polyline fill="none" stroke="black" points="628,-52.5 741,-52.5 "/>
<text text-anchor="start" x="636" y="-40.5" font-family="Helvetica,sans-Serif" font-size="10.00">+ CcfEvent()</text>
<text text-anchor="start" x="636" y="-29.5" font-family="Helvetica,sans-Serif" font-size="10.00">+ ccf_group()</text>
<text text-anchor="start" x="636" y="-18.5" font-family="Helvetica,sans-Serif" font-size="10.00">+ members()</text>
<text text-anchor="start" x="636" y="-7.5" font-family="Helvetica,sans-Serif" font-size="10.00">+ members()</text>
</a>
</g>
</g>
<!-- Node12&#45;&gt;Node13 -->
<g id="edge12" class="edge"><title>Node12&#45;&gt;Node13</title>
<path fill="none" stroke="midnightblue" d="M684.5,-116.941C684.5,-107.857 684.5,-98.8847 684.5,-90.5422"/>
<polygon fill="none" stroke="midnightblue" points="681,-117.215 684.5,-127.216 688,-117.216 681,-117.215"/>
</g>
</g>
</svg>
