<?xml version="1.0" encoding="UTF-8" standalone="no"?>
<!DOCTYPE svg PUBLIC "-//W3C//DTD SVG 1.1//EN"
 "http://www.w3.org/Graphics/SVG/1.1/DTD/svg11.dtd">
<!-- Generated by graphviz version 2.38.0 (20140413.2041)
 -->
<!-- Title: scram::core::Preprocessor::GatherCommonNodes Pages: 1 -->
<!--zoomable 197 -->
<svg id="main" version="1.1" xmlns="http://www.w3.org/2000/svg" xmlns:xlink="http://www.w3.org/1999/xlink" xml:space="preserve" onload="init(evt)">
<style type="text/css"><![CDATA[
.edge:hover path { stroke: red; }
.edge:hover polygon { stroke: red; fill: red; }
]]></style>
<script type="text/javascript"><![CDATA[
var edges = document.getElementsByTagName('g');
if (edges && edges.length) {
  for (var i=0;i<edges.length;i++) {
    if (edges[i].id.substr(0,4)=='edge') {
      edges[i].setAttribute('class','edge');
    }
  }
}
]]></script>
        <defs>
                <circle id="rim" cx="0" cy="0" r="7"/>
                <circle id="rim2" cx="0" cy="0" r="3.5"/>
                <g id="zoomPlus">
                        <use xlink:href="#rim" fill="#404040">
                                <set attributeName="fill" to="#808080" begin="zoomplus.mouseover" end="zoomplus.mouseout"/>
                        </use>
                        <path d="M-4,0h8M0,-4v8" fill="none" stroke="white" stroke-width="1.5" pointer-events="none"/>
                </g>
                <g id="zoomMin">
                        <use xlink:href="#rim" fill="#404040">
                                <set attributeName="fill" to="#808080" begin="zoomminus.mouseover" end="zoomminus.mouseout"/>
                        </use>
                        <path d="M-4,0h8" fill="none" stroke="white" stroke-width="1.5" pointer-events="none"/>
                </g>
                <g id="dirArrow">
                        <path fill="none" stroke="white" stroke-width="1.5" d="M0,-3.0v7 M-2.5,-0.5L0,-3.0L2.5,-0.5"/>
                </g>
               <g id="resetDef">
                       <use xlink:href="#rim2" fill="#404040">
                               <set attributeName="fill" to="#808080" begin="reset.mouseover" end="reset.mouseout"/>
                       </use>
               </g>
        </defs>

<script type="text/javascript">
var viewWidth = 1218;
var viewHeight = 197;
var sectionId = 'dynsection-67';
</script>
<script xlink:href="svgpan.js"/>
<svg id="graph" class="graph">
<g id="viewport">
<title>scram::core::Preprocessor::GatherCommonNodes</title>
<polygon fill="white" stroke="none" points="-4,4 -4,-193.192 1214,-193.192 1214,4 -4,4"/>
<!-- Node1 -->
<g id="node1" class="node"><title>Node1</title>
<polygon fill="#bfbfbf" stroke="black" points="0,-84.5 0,-114.5 132,-114.5 132,-84.5 0,-84.5"/>
<text text-anchor="start" x="8" y="-102.5" font-family="Helvetica,sans-Serif" font-size="10.00">scram::core::Preprocessor</text>
<text text-anchor="middle" x="66" y="-91.5" font-family="Helvetica,sans-Serif" font-size="10.00">::GatherCommonNodes</text>
</g>
<!-- Node2 -->
<g id="node2" class="node"><title>Node2</title>
<g id="a_node2"><a xlink:href="classscram_1_1core_1_1Preprocessor.xhtml#aebc709ad2e097c24e837889a6a9e4696" target="_top" xlink:title="Propagates failures of common nodes to detect redundancy. ">
<polygon fill="white" stroke="black" points="173.5,-109.5 173.5,-139.5 305.5,-139.5 305.5,-109.5 173.5,-109.5"/>
<text text-anchor="start" x="181.5" y="-127.5" font-family="Helvetica,sans-Serif" font-size="10.00">scram::core::Preprocessor</text>
<text text-anchor="middle" x="239.5" y="-116.5" font-family="Helvetica,sans-Serif" font-size="10.00">::BooleanOptimization</text>
</a>
</g>
</g>
<!-- Node1&#45;&gt;Node2 -->
<g id="edge1" class="edge"><title>Node1&#45;&gt;Node2</title>
<path fill="none" stroke="midnightblue" d="M142.518,-110.508C152.799,-112.007 163.279,-113.535 173.356,-115.004"/>
<polygon fill="midnightblue" stroke="midnightblue" points="142.726,-107.002 132.326,-109.023 141.717,-113.929 142.726,-107.002"/>
</g>
<!-- Node12 -->
<g id="node12" class="node"><title>Node12</title>
<g id="a_node12"><a xlink:href="classscram_1_1core_1_1Preprocessor.xhtml#ae12f3096132d7f6e9daa779724255f7e" target="_top" xlink:title="The Shannon decomposition for common nodes in the PDAG. ">
<polygon fill="white" stroke="black" points="168,-60.5 168,-90.5 311,-90.5 311,-60.5 168,-60.5"/>
<text text-anchor="start" x="176" y="-78.5" font-family="Helvetica,sans-Serif" font-size="10.00">scram::core::Preprocessor</text>
<text text-anchor="middle" x="239.5" y="-67.5" font-family="Helvetica,sans-Serif" font-size="10.00">::DecomposeCommonNodes</text>
</a>
</g>
</g>
<!-- Node1&#45;&gt;Node12 -->
<g id="edge18" class="edge"><title>Node1&#45;&gt;Node12</title>
<path fill="none" stroke="midnightblue" d="M142.256,-88.9686C150.787,-87.7747 159.459,-86.5611 167.927,-85.376"/>
<polygon fill="midnightblue" stroke="midnightblue" points="141.744,-85.5059 132.326,-90.3582 142.715,-92.4384 141.744,-85.5059"/>
</g>
<!-- Node3 -->
<g id="node3" class="node"><title>Node3</title>
<g id="a_node3"><a xlink:href="classscram_1_1core_1_1Preprocessor.xhtml#a9d5f89471499508eb9e6c01ea43e0f15" target="_top" xlink:title="Preprocessing phase of the original structure of the graph. ">
<polygon fill="white" stroke="black" points="347,-84.5 347,-114.5 479,-114.5 479,-84.5 347,-84.5"/>
<text text-anchor="start" x="355" y="-102.5" font-family="Helvetica,sans-Serif" font-size="10.00">scram::core::Preprocessor</text>
<text text-anchor="middle" x="413" y="-91.5" font-family="Helvetica,sans-Serif" font-size="10.00">::RunPhaseTwo</text>
</a>
</g>
</g>
<!-- Node2&#45;&gt;Node3 -->
<g id="edge2" class="edge"><title>Node2&#45;&gt;Node3</title>
<path fill="none" stroke="midnightblue" d="M316.018,-113.492C326.299,-111.993 336.779,-110.465 346.856,-108.996"/>
<polygon fill="midnightblue" stroke="midnightblue" points="315.217,-110.071 305.826,-114.977 316.226,-116.998 315.217,-110.071"/>
</g>
<!-- Node4 -->
<g id="node4" class="node"><title>Node4</title>
<g id="a_node4"><a xlink:href="classscram_1_1core_1_1Preprocessor.xhtml#a5ee92284aef510ce01a71c962d50f51c" target="_top" xlink:title="Runs the graph preprocessing. ">
<polygon fill="white" stroke="black" points="892.5,-93.5 892.5,-123.5 1024.5,-123.5 1024.5,-93.5 892.5,-93.5"/>
<text text-anchor="start" x="900.5" y="-111.5" font-family="Helvetica,sans-Serif" font-size="10.00">scram::core::Preprocessor</text>
<text text-anchor="middle" x="958.5" y="-100.5" font-family="Helvetica,sans-Serif" font-size="10.00">::operator()</text>
</a>
</g>
</g>
<!-- Node3&#45;&gt;Node4 -->
<g id="edge3" class="edge"><title>Node3&#45;&gt;Node4</title>
<path fill="none" stroke="midnightblue" d="M437.519,-121.343C456.733,-137.603 485.457,-158.482 515,-167.5 652.988,-209.623 699.186,-183.095 839,-147.5 855.798,-143.224 858.653,-138.263 875,-132.5 883.863,-129.375 893.36,-126.335 902.642,-123.527"/>
<polygon fill="midnightblue" stroke="midnightblue" points="439.733,-118.63 429.892,-114.705 435.137,-123.91 439.733,-118.63"/>
</g>
<!-- Node6 -->
<g id="node6" class="node"><title>Node6</title>
<g id="a_node6"><a xlink:href="classscram_1_1core_1_1Preprocessor.xhtml#a2b6705e815fa3d02119c405b483766d5" target="_top" xlink:title="Container of unique gates by semantics. ">
<polygon fill="white" stroke="black" points="683,-99 683,-118 839,-118 839,-99 683,-99"/>
<text text-anchor="middle" x="761" y="-106" font-family="Helvetica,sans-Serif" font-size="10.00">scram::core::Preprocessor::Run</text>
</a>
</g>
</g>
<!-- Node3&#45;&gt;Node6 -->
<g id="edge5" class="edge"><title>Node3&#45;&gt;Node6</title>
<path fill="none" stroke="midnightblue" d="M489.158,-101.455C546.44,-102.945 625.044,-104.99 682.82,-106.492"/>
<polygon fill="midnightblue" stroke="midnightblue" points="489.168,-97.9541 479.08,-101.193 488.986,-104.952 489.168,-97.9541"/>
</g>
<!-- Node9 -->
<g id="node9" class="node"><title>Node9</title>
<g id="a_node9"><a xlink:href="classscram_1_1core_1_1Preprocessor.xhtml#a3569bbcd5e863c750cdfa69115399600" target="_top" xlink:title="The final phase that cleans up the graph, and puts the structure of the graph ready for analysis...">
<polygon fill="white" stroke="black" points="695,-0.5 695,-30.5 827,-30.5 827,-0.5 695,-0.5"/>
<text text-anchor="start" x="703" y="-18.5" font-family="Helvetica,sans-Serif" font-size="10.00">scram::core::Preprocessor</text>
<text text-anchor="middle" x="761" y="-7.5" font-family="Helvetica,sans-Serif" font-size="10.00">::RunPhaseFive</text>
</a>
</g>
</g>
<!-- Node3&#45;&gt;Node9 -->
<g id="edge9" class="edge"><title>Node3&#45;&gt;Node9</title>
<path fill="none" stroke="midnightblue" d="M481.389,-81.9577C492.605,-79.0941 504.124,-76.1871 515,-73.5 575.894,-58.4559 645.502,-42.0533 694.921,-30.5423"/>
<polygon fill="midnightblue" stroke="midnightblue" points="480.453,-78.5843 471.635,-84.4565 482.191,-85.3654 480.453,-78.5843"/>
</g>
<!-- Node10 -->
<g id="node10" class="node"><title>Node10</title>
<g id="a_node10"><a xlink:href="classscram_1_1core_1_1Preprocessor.xhtml#a5c224938dfba861f061525658bd7b156" target="_top" xlink:title="Propagation of complements. ">
<polygon fill="white" stroke="black" points="695,-49.5 695,-79.5 827,-79.5 827,-49.5 695,-49.5"/>
<text text-anchor="start" x="703" y="-67.5" font-family="Helvetica,sans-Serif" font-size="10.00">scram::core::Preprocessor</text>
<text text-anchor="middle" x="761" y="-56.5" font-family="Helvetica,sans-Serif" font-size="10.00">::RunPhaseFour</text>
</a>
</g>
</g>
<!-- Node3&#45;&gt;Node10 -->
<g id="edge12" class="edge"><title>Node3&#45;&gt;Node10</title>
<path fill="none" stroke="midnightblue" d="M489.097,-91.9035C550.493,-85.6929 636.413,-77.0015 694.918,-71.0834"/>
<polygon fill="midnightblue" stroke="midnightblue" points="488.677,-88.428 479.08,-92.9168 489.381,-95.3925 488.677,-88.428"/>
</g>
<!-- Node11 -->
<g id="node11" class="node"><title>Node11</title>
<g id="a_node11"><a xlink:href="classscram_1_1core_1_1Preprocessor.xhtml#abf2c66723172a85b2ae87ef2a034cd1f" target="_top" xlink:title="Application of gate normalization. ">
<polygon fill="white" stroke="black" points="515,-128.5 515,-158.5 647,-158.5 647,-128.5 515,-128.5"/>
<text text-anchor="start" x="523" y="-146.5" font-family="Helvetica,sans-Serif" font-size="10.00">scram::core::Preprocessor</text>
<text text-anchor="middle" x="581" y="-135.5" font-family="Helvetica,sans-Serif" font-size="10.00">::RunPhaseThree</text>
</a>
</g>
</g>
<!-- Node3&#45;&gt;Node11 -->
<g id="edge15" class="edge"><title>Node3&#45;&gt;Node11</title>
<path fill="none" stroke="midnightblue" d="M480.378,-117.094C494.598,-120.863 509.496,-124.812 523.31,-128.474"/>
<polygon fill="midnightblue" stroke="midnightblue" points="481.226,-113.698 470.663,-114.519 479.433,-120.465 481.226,-113.698"/>
</g>
<!-- Node5 -->
<g id="node5" class="node"><title>Node5</title>
<g id="a_node5"><a xlink:href="classscram_1_1core_1_1Preprocessor_1_1GateSet.xhtml#ae00239084858979e096032c4cf2f05b9" target="_top" xlink:title="Inserts a gate into the set if it is semantically unique. ">
<polygon fill="white" stroke="black" points="1078,-93.5 1078,-123.5 1210,-123.5 1210,-93.5 1078,-93.5"/>
<text text-anchor="start" x="1086" y="-111.5" font-family="Helvetica,sans-Serif" font-size="10.00">scram::core::Preprocessor</text>
<text text-anchor="middle" x="1144" y="-100.5" font-family="Helvetica,sans-Serif" font-size="10.00">::GateSet::insert</text>
</a>
</g>
</g>
<!-- Node4&#45;&gt;Node5 -->
<g id="edge4" class="edge"><title>Node4&#45;&gt;Node5</title>
<path fill="none" stroke="midnightblue" d="M1034.99,-108.5C1049.26,-108.5 1064.08,-108.5 1078,-108.5"/>
<polygon fill="midnightblue" stroke="midnightblue" points="1034.71,-105 1024.71,-108.5 1034.71,-112 1034.71,-105"/>
</g>
<!-- Node6&#45;&gt;Node4 -->
<g id="edge7" class="edge"><title>Node6&#45;&gt;Node4</title>
<path fill="none" stroke="midnightblue" d="M849.674,-108.5C864.062,-108.5 878.744,-108.5 892.457,-108.5"/>
<polygon fill="midnightblue" stroke="midnightblue" points="849.267,-105 839.267,-108.5 849.267,-112 849.267,-105"/>
</g>
<!-- Node7 -->
<g id="node7" class="node"><title>Node7</title>
<g id="a_node7"><a xlink:href="classscram_1_1core_1_1Preprocessor.xhtml#a9caf4677a024ed935d831210b57b8ed9" target="_top" xlink:title="Gathers nodes in the sub&#45;graph. ">
<polygon fill="white" stroke="black" points="892.5,-142.5 892.5,-172.5 1024.5,-172.5 1024.5,-142.5 892.5,-142.5"/>
<text text-anchor="start" x="900.5" y="-160.5" font-family="Helvetica,sans-Serif" font-size="10.00">scram::core::Preprocessor</text>
<text text-anchor="middle" x="958.5" y="-149.5" font-family="Helvetica,sans-Serif" font-size="10.00">::GatherNodes</text>
</a>
</g>
</g>
<!-- Node6&#45;&gt;Node7 -->
<g id="edge6" class="edge"><title>Node6&#45;&gt;Node7</title>
<path fill="none" stroke="midnightblue" d="M809.934,-120.514C836.35,-127.135 869.39,-135.416 897.506,-142.463"/>
<polygon fill="midnightblue" stroke="midnightblue" points="810.709,-117.1 800.158,-118.064 809.007,-123.89 810.709,-117.1"/>
</g>
<!-- Node8 -->
<g id="node8" class="node"><title>Node8</title>
<g id="a_node8"><a xlink:href="classscram_1_1core_1_1CustomPreprocessor_3_01Zbdd_01_4.xhtml#a5185075f852c647c7aa4313d23420ee5" target="_top" xlink:title="Performs preprocessing for analyses with Zero&#45;Suppressed Binary Decision Diagrams. ">
<polygon fill="white" stroke="black" points="875,-44.5 875,-74.5 1042,-74.5 1042,-44.5 875,-44.5"/>
<text text-anchor="start" x="883" y="-62.5" font-family="Helvetica,sans-Serif" font-size="10.00">scram::core::CustomPreprocessor</text>
<text text-anchor="middle" x="958.5" y="-51.5" font-family="Helvetica,sans-Serif" font-size="10.00">&lt; Zbdd &gt;::Run</text>
</a>
</g>
</g>
<!-- Node6&#45;&gt;Node8 -->
<g id="edge8" class="edge"><title>Node6&#45;&gt;Node8</title>
<path fill="none" stroke="midnightblue" d="M809.934,-96.4858C836.35,-89.865 869.39,-81.5839 897.506,-74.537"/>
<polygon fill="midnightblue" stroke="midnightblue" points="809.007,-93.1097 800.158,-98.936 810.709,-99.8997 809.007,-93.1097"/>
</g>
<!-- Node9&#45;&gt;Node4 -->
<g id="edge10" class="edge"><title>Node9&#45;&gt;Node4</title>
<path fill="none" stroke="midnightblue" d="M831.51,-34.961C834.098,-36.3737 836.606,-37.8846 839,-39.5 859.945,-53.6332 854,-69.4498 875,-83.5 880.722,-87.3282 887.051,-90.5879 893.585,-93.3596"/>
<polygon fill="midnightblue" stroke="midnightblue" points="832.971,-31.7795 822.451,-30.5266 829.894,-38.0667 832.971,-31.7795"/>
</g>
<!-- Node9&#45;&gt;Node8 -->
<g id="edge11" class="edge"><title>Node9&#45;&gt;Node8</title>
<path fill="none" stroke="midnightblue" d="M837.313,-32.4503C854.894,-36.4071 873.499,-40.5943 890.681,-44.4615"/>
<polygon fill="midnightblue" stroke="midnightblue" points="837.623,-28.9326 827.099,-30.1514 836.086,-35.7617 837.623,-28.9326"/>
</g>
<!-- Node10&#45;&gt;Node4 -->
<g id="edge13" class="edge"><title>Node10&#45;&gt;Node4</title>
<path fill="none" stroke="midnightblue" d="M837.088,-81.3997C855.307,-85.4999 874.636,-89.8504 892.353,-93.8376"/>
<polygon fill="midnightblue" stroke="midnightblue" points="837.623,-77.9326 827.099,-79.1514 836.086,-84.7617 837.623,-77.9326"/>
</g>
<!-- Node10&#45;&gt;Node8 -->
<g id="edge14" class="edge"><title>Node10&#45;&gt;Node8</title>
<path fill="none" stroke="midnightblue" d="M837.313,-62.5738C849.636,-62.2587 862.462,-61.9306 874.949,-61.6113"/>
<polygon fill="midnightblue" stroke="midnightblue" points="837.006,-59.0805 827.099,-62.8351 837.185,-66.0782 837.006,-59.0805"/>
</g>
<!-- Node11&#45;&gt;Node4 -->
<g id="edge16" class="edge"><title>Node11&#45;&gt;Node4</title>
<path fill="none" stroke="midnightblue" d="M657.125,-140.741C708.458,-138.386 777.976,-134.276 839,-127.5 856.395,-125.569 875.133,-122.859 892.46,-120.09"/>
<polygon fill="midnightblue" stroke="midnightblue" points="656.942,-137.246 647.109,-141.189 657.255,-144.239 656.942,-137.246"/>
</g>
<!-- Node11&#45;&gt;Node6 -->
<g id="edge17" class="edge"><title>Node11&#45;&gt;Node6</title>
<path fill="none" stroke="midnightblue" d="M656.896,-128.773C675.402,-125.134 694.743,-121.331 711.608,-118.015"/>
<polygon fill="midnightblue" stroke="midnightblue" points="656.154,-125.352 647.018,-130.716 657.505,-132.22 656.154,-125.352"/>
</g>
<!-- Node12&#45;&gt;Node3 -->
<g id="edge19" class="edge"><title>Node12&#45;&gt;Node3</title>
<path fill="none" stroke="midnightblue" d="M321.283,-86.8049C329.877,-88.0076 338.538,-89.2196 346.919,-90.3924"/>
<polygon fill="midnightblue" stroke="midnightblue" points="321.634,-83.3201 311.246,-85.4003 320.664,-90.2525 321.634,-83.3201"/>
</g>
</g>
</svg>
        <g id="navigator" transform="translate(0 0)" fill="#404254">
                <rect fill="#f2f5e9" fill-opacity="0.5" stroke="#606060" stroke-width=".5" x="0" y="0" width="60" height="60"/>
                <use id="zoomplus" xlink:href="#zoomPlus" x="17" y="9" onmousedown="handleZoom(evt,'in')"/>
                <use id="zoomminus" xlink:href="#zoomMin" x="42" y="9" onmousedown="handleZoom(evt,'out')"/>
                <use id="reset" xlink:href="#resetDef" x="30" y="36" onmousedown="handleReset()"/>
                <g id="arrowUp" xlink:href="#dirArrow" transform="translate(30 24)" onmousedown="handlePan(0,-1)">
                  <use xlink:href="#rim" fill="#404040">
                        <set attributeName="fill" to="#808080" begin="arrowUp.mouseover" end="arrowUp.mouseout"/>
                  </use>
                  <path fill="none" stroke="white" stroke-width="1.5" d="M0,-3.0v7 M-2.5,-0.5L0,-3.0L2.5,-0.5"/>
                </g>
                <g id="arrowRight" xlink:href="#dirArrow" transform="rotate(90) translate(36 -43)" onmousedown="handlePan(1,0)">
                  <use xlink:href="#rim" fill="#404040">
                        <set attributeName="fill" to="#808080" begin="arrowRight.mouseover" end="arrowRight.mouseout"/>
                  </use>
                  <path fill="none" stroke="white" stroke-width="1.5" d="M0,-3.0v7 M-2.5,-0.5L0,-3.0L2.5,-0.5"/>
                </g>
                <g id="arrowDown" xlink:href="#dirArrow" transform="rotate(180) translate(-30 -48)" onmousedown="handlePan(0,1)">
                  <use xlink:href="#rim" fill="#404040">
                        <set attributeName="fill" to="#808080" begin="arrowDown.mouseover" end="arrowDown.mouseout"/>
                  </use>
                  <path fill="none" stroke="white" stroke-width="1.5" d="M0,-3.0v7 M-2.5,-0.5L0,-3.0L2.5,-0.5"/>
                </g>
                <g id="arrowLeft" xlink:href="#dirArrow" transform="rotate(270) translate(-36 17)" onmousedown="handlePan(-1,0)">
                  <use xlink:href="#rim" fill="#404040">
                        <set attributeName="fill" to="#808080" begin="arrowLeft.mouseover" end="arrowLeft.mouseout"/>
                  </use>
                  <path fill="none" stroke="white" stroke-width="1.5" d="M0,-3.0v7 M-2.5,-0.5L0,-3.0L2.5,-0.5"/>
                </g>
        </g>
        <svg viewBox="0 0 15 15" width="100%" height="30px" preserveAspectRatio="xMaxYMin meet">
         <g id="arrow_out" transform="scale(0.3 0.3)">
          <a xlink:href="classscram_1_1core_1_1Preprocessor_a394fb1b5b5f9ee31dc81ad8d64353ee3_icgraph_org.svg" target="_base">
           <rect id="button" ry="5" rx="5" y="6" x="6" height="38" width="38"
                fill="#f2f5e9" fill-opacity="0.5" stroke="#606060" stroke-width="1.0"/>
           <path id="arrow"
             d="M 11.500037,31.436501 C 11.940474,20.09759 22.043105,11.32322 32.158766,21.979434 L 37.068811,17.246167 C 37.068811,17.246167 37.088388,32 37.088388,32 L 22.160133,31.978069 C 22.160133,31.978069 26.997745,27.140456 26.997745,27.140456 C 18.528582,18.264221 13.291696,25.230495 11.500037,31.436501 z"
             style="fill:#404040;"/>
          </a>
         </g>
        </svg>
</svg>
