<?xml version="1.0" encoding="UTF-8" standalone="no"?>
<!DOCTYPE svg PUBLIC "-//W3C//DTD SVG 1.1//EN"
 "http://www.w3.org/Graphics/SVG/1.1/DTD/svg11.dtd">
<!-- Generated by graphviz version 2.38.0 (20140413.2041)
 -->
<!-- Title: scram::core::Preprocessor::CollectRedundantParents Pages: 1 -->
<svg width="1377pt" height="197pt"
 viewBox="0.00 0.00 1377.00 197.19" xmlns="http://www.w3.org/2000/svg" xmlns:xlink="http://www.w3.org/1999/xlink">
<g id="graph0" class="graph" transform="scale(1 1) rotate(0) translate(4 193.192)">
<title>scram::core::Preprocessor::CollectRedundantParents</title>
<polygon fill="white" stroke="none" points="-4,4 -4,-193.192 1373,-193.192 1373,4 -4,4"/>
<!-- Node1 -->
<g id="node1" class="node"><title>Node1</title>
<polygon fill="#bfbfbf" stroke="black" points="0,-84.5 0,-114.5 134,-114.5 134,-84.5 0,-84.5"/>
<text text-anchor="start" x="8" y="-102.5" font-family="Helvetica,sans-Serif" font-size="10.00">scram::core::Preprocessor</text>
<text text-anchor="middle" x="67" y="-91.5" font-family="Helvetica,sans-Serif" font-size="10.00">::CollectRedundantParents</text>
</g>
<!-- Node2 -->
<g id="node2" class="node"><title>Node2</title>
<g id="a_node2"><a xlink:href="classscram_1_1core_1_1Preprocessor.xhtml#a4086c57695d49b4770915d5d53bd47de" target="_top" xlink:title="Tries to simplify the graph by removing redundancies generated by a common node. ">
<polygon fill="white" stroke="black" points="170,-84.5 170,-114.5 302,-114.5 302,-84.5 170,-84.5"/>
<text text-anchor="start" x="178" y="-102.5" font-family="Helvetica,sans-Serif" font-size="10.00">scram::core::Preprocessor</text>
<text text-anchor="middle" x="236" y="-91.5" font-family="Helvetica,sans-Serif" font-size="10.00">::ProcessCommonNode</text>
</a>
</g>
</g>
<!-- Node1&#45;&gt;Node2 -->
<g id="edge1" class="edge"><title>Node1&#45;&gt;Node2</title>
<path fill="none" stroke="midnightblue" d="M144.019,-99.5C152.612,-99.5 161.312,-99.5 169.75,-99.5"/>
<polygon fill="midnightblue" stroke="midnightblue" points="144.003,-96.0001 134.003,-99.5 144.003,-103 144.003,-96.0001"/>
</g>
<!-- Node3 -->
<g id="node3" class="node"><title>Node3</title>
<g id="a_node3"><a xlink:href="classscram_1_1core_1_1Preprocessor.xhtml#aebc709ad2e097c24e837889a6a9e4696" target="_top" xlink:title="Propagates failures of common nodes to detect redundancy. ">
<polygon fill="white" stroke="black" points="338,-84.5 338,-114.5 470,-114.5 470,-84.5 338,-84.5"/>
<text text-anchor="start" x="346" y="-102.5" font-family="Helvetica,sans-Serif" font-size="10.00">scram::core::Preprocessor</text>
<text text-anchor="middle" x="404" y="-91.5" font-family="Helvetica,sans-Serif" font-size="10.00">::BooleanOptimization</text>
</a>
</g>
</g>
<!-- Node2&#45;&gt;Node3 -->
<g id="edge2" class="edge"><title>Node2&#45;&gt;Node3</title>
<path fill="none" stroke="midnightblue" d="M312.393,-99.5C320.869,-99.5 329.452,-99.5 337.784,-99.5"/>
<polygon fill="midnightblue" stroke="midnightblue" points="312.131,-96.0001 302.131,-99.5 312.131,-103 312.131,-96.0001"/>
</g>
<!-- Node4 -->
<g id="node4" class="node"><title>Node4</title>
<g id="a_node4"><a xlink:href="classscram_1_1core_1_1Preprocessor.xhtml#a9d5f89471499508eb9e6c01ea43e0f15" target="_top" xlink:title="Preprocessing phase of the original structure of the graph. ">
<polygon fill="white" stroke="black" points="506,-84.5 506,-114.5 638,-114.5 638,-84.5 506,-84.5"/>
<text text-anchor="start" x="514" y="-102.5" font-family="Helvetica,sans-Serif" font-size="10.00">scram::core::Preprocessor</text>
<text text-anchor="middle" x="572" y="-91.5" font-family="Helvetica,sans-Serif" font-size="10.00">::RunPhaseTwo</text>
</a>
</g>
</g>
<!-- Node3&#45;&gt;Node4 -->
<g id="edge3" class="edge"><title>Node3&#45;&gt;Node4</title>
<path fill="none" stroke="midnightblue" d="M480.393,-99.5C488.869,-99.5 497.452,-99.5 505.784,-99.5"/>
<polygon fill="midnightblue" stroke="midnightblue" points="480.131,-96.0001 470.131,-99.5 480.131,-103 480.131,-96.0001"/>
</g>
<!-- Node5 -->
<g id="node5" class="node"><title>Node5</title>
<g id="a_node5"><a xlink:href="classscram_1_1core_1_1Preprocessor.xhtml#a5ee92284aef510ce01a71c962d50f51c" target="_top" xlink:title="Runs the graph preprocessing. ">
<polygon fill="white" stroke="black" points="1051.5,-93.5 1051.5,-123.5 1183.5,-123.5 1183.5,-93.5 1051.5,-93.5"/>
<text text-anchor="start" x="1059.5" y="-111.5" font-family="Helvetica,sans-Serif" font-size="10.00">scram::core::Preprocessor</text>
<text text-anchor="middle" x="1117.5" y="-100.5" font-family="Helvetica,sans-Serif" font-size="10.00">::operator()</text>
</a>
</g>
</g>
<!-- Node4&#45;&gt;Node5 -->
<g id="edge4" class="edge"><title>Node4&#45;&gt;Node5</title>
<path fill="none" stroke="midnightblue" d="M596.519,-121.343C615.733,-137.603 644.457,-158.482 674,-167.5 811.988,-209.623 858.186,-183.095 998,-147.5 1014.8,-143.224 1017.65,-138.263 1034,-132.5 1042.86,-129.375 1052.36,-126.335 1061.64,-123.527"/>
<polygon fill="midnightblue" stroke="midnightblue" points="598.733,-118.63 588.892,-114.705 594.137,-123.91 598.733,-118.63"/>
</g>
<!-- Node7 -->
<g id="node7" class="node"><title>Node7</title>
<g id="a_node7"><a xlink:href="classscram_1_1core_1_1Preprocessor.xhtml#a2b6705e815fa3d02119c405b483766d5" target="_top" xlink:title="Container of unique gates by semantics. ">
<polygon fill="white" stroke="black" points="842,-99 842,-118 998,-118 998,-99 842,-99"/>
<text text-anchor="middle" x="920" y="-106" font-family="Helvetica,sans-Serif" font-size="10.00">scram::core::Preprocessor::Run</text>
</a>
</g>
</g>
<!-- Node4&#45;&gt;Node7 -->
<g id="edge6" class="edge"><title>Node4&#45;&gt;Node7</title>
<path fill="none" stroke="midnightblue" d="M648.158,-101.455C705.44,-102.945 784.044,-104.99 841.82,-106.492"/>
<polygon fill="midnightblue" stroke="midnightblue" points="648.168,-97.9541 638.08,-101.193 647.986,-104.952 648.168,-97.9541"/>
</g>
<!-- Node10 -->
<g id="node10" class="node"><title>Node10</title>
<g id="a_node10"><a xlink:href="classscram_1_1core_1_1Preprocessor.xhtml#a3569bbcd5e863c750cdfa69115399600" target="_top" xlink:title="The final phase that cleans up the graph, and puts the structure of the graph ready for analysis...">
<polygon fill="white" stroke="black" points="854,-0.5 854,-30.5 986,-30.5 986,-0.5 854,-0.5"/>
<text text-anchor="start" x="862" y="-18.5" font-family="Helvetica,sans-Serif" font-size="10.00">scram::core::Preprocessor</text>
<text text-anchor="middle" x="920" y="-7.5" font-family="Helvetica,sans-Serif" font-size="10.00">::RunPhaseFive</text>
</a>
</g>
</g>
<!-- Node4&#45;&gt;Node10 -->
<g id="edge10" class="edge"><title>Node4&#45;&gt;Node10</title>
<path fill="none" stroke="midnightblue" d="M640.389,-81.9577C651.605,-79.0941 663.124,-76.1871 674,-73.5 734.894,-58.4559 804.502,-42.0533 853.921,-30.5423"/>
<polygon fill="midnightblue" stroke="midnightblue" points="639.453,-78.5843 630.635,-84.4565 641.191,-85.3654 639.453,-78.5843"/>
</g>
<!-- Node11 -->
<g id="node11" class="node"><title>Node11</title>
<g id="a_node11"><a xlink:href="classscram_1_1core_1_1Preprocessor.xhtml#a5c224938dfba861f061525658bd7b156" target="_top" xlink:title="Propagation of complements. ">
<polygon fill="white" stroke="black" points="854,-49.5 854,-79.5 986,-79.5 986,-49.5 854,-49.5"/>
<text text-anchor="start" x="862" y="-67.5" font-family="Helvetica,sans-Serif" font-size="10.00">scram::core::Preprocessor</text>
<text text-anchor="middle" x="920" y="-56.5" font-family="Helvetica,sans-Serif" font-size="10.00">::RunPhaseFour</text>
</a>
</g>
</g>
<!-- Node4&#45;&gt;Node11 -->
<g id="edge13" class="edge"><title>Node4&#45;&gt;Node11</title>
<path fill="none" stroke="midnightblue" d="M648.097,-91.9035C709.493,-85.6929 795.413,-77.0015 853.918,-71.0834"/>
<polygon fill="midnightblue" stroke="midnightblue" points="647.677,-88.428 638.08,-92.9168 648.381,-95.3925 647.677,-88.428"/>
</g>
<!-- Node12 -->
<g id="node12" class="node"><title>Node12</title>
<g id="a_node12"><a xlink:href="classscram_1_1core_1_1Preprocessor.xhtml#abf2c66723172a85b2ae87ef2a034cd1f" target="_top" xlink:title="Application of gate normalization. ">
<polygon fill="white" stroke="black" points="674,-128.5 674,-158.5 806,-158.5 806,-128.5 674,-128.5"/>
<text text-anchor="start" x="682" y="-146.5" font-family="Helvetica,sans-Serif" font-size="10.00">scram::core::Preprocessor</text>
<text text-anchor="middle" x="740" y="-135.5" font-family="Helvetica,sans-Serif" font-size="10.00">::RunPhaseThree</text>
</a>
</g>
</g>
<!-- Node4&#45;&gt;Node12 -->
<g id="edge16" class="edge"><title>Node4&#45;&gt;Node12</title>
<path fill="none" stroke="midnightblue" d="M639.378,-117.094C653.598,-120.863 668.496,-124.812 682.31,-128.474"/>
<polygon fill="midnightblue" stroke="midnightblue" points="640.226,-113.698 629.663,-114.519 638.433,-120.465 640.226,-113.698"/>
</g>
<!-- Node6 -->
<g id="node6" class="node"><title>Node6</title>
<g id="a_node6"><a xlink:href="classscram_1_1core_1_1Preprocessor_1_1GateSet.xhtml#ae00239084858979e096032c4cf2f05b9" target="_top" xlink:title="Inserts a gate into the set if it is semantically unique. ">
<polygon fill="white" stroke="black" points="1237,-93.5 1237,-123.5 1369,-123.5 1369,-93.5 1237,-93.5"/>
<text text-anchor="start" x="1245" y="-111.5" font-family="Helvetica,sans-Serif" font-size="10.00">scram::core::Preprocessor</text>
<text text-anchor="middle" x="1303" y="-100.5" font-family="Helvetica,sans-Serif" font-size="10.00">::GateSet::insert</text>
</a>
</g>
</g>
<!-- Node5&#45;&gt;Node6 -->
<g id="edge5" class="edge"><title>Node5&#45;&gt;Node6</title>
<path fill="none" stroke="midnightblue" d="M1193.99,-108.5C1208.26,-108.5 1223.08,-108.5 1237,-108.5"/>
<polygon fill="midnightblue" stroke="midnightblue" points="1193.71,-105 1183.71,-108.5 1193.71,-112 1193.71,-105"/>
</g>
<!-- Node7&#45;&gt;Node5 -->
<g id="edge8" class="edge"><title>Node7&#45;&gt;Node5</title>
<path fill="none" stroke="midnightblue" d="M1008.67,-108.5C1023.06,-108.5 1037.74,-108.5 1051.46,-108.5"/>
<polygon fill="midnightblue" stroke="midnightblue" points="1008.27,-105 998.267,-108.5 1008.27,-112 1008.27,-105"/>
</g>
<!-- Node8 -->
<g id="node8" class="node"><title>Node8</title>
<g id="a_node8"><a xlink:href="classscram_1_1core_1_1Preprocessor.xhtml#a9caf4677a024ed935d831210b57b8ed9" target="_top" xlink:title="Gathers nodes in the sub&#45;graph. ">
<polygon fill="white" stroke="black" points="1051.5,-142.5 1051.5,-172.5 1183.5,-172.5 1183.5,-142.5 1051.5,-142.5"/>
<text text-anchor="start" x="1059.5" y="-160.5" font-family="Helvetica,sans-Serif" font-size="10.00">scram::core::Preprocessor</text>
<text text-anchor="middle" x="1117.5" y="-149.5" font-family="Helvetica,sans-Serif" font-size="10.00">::GatherNodes</text>
</a>
</g>
</g>
<!-- Node7&#45;&gt;Node8 -->
<g id="edge7" class="edge"><title>Node7&#45;&gt;Node8</title>
<path fill="none" stroke="midnightblue" d="M968.934,-120.514C995.35,-127.135 1028.39,-135.416 1056.51,-142.463"/>
<polygon fill="midnightblue" stroke="midnightblue" points="969.709,-117.1 959.158,-118.064 968.007,-123.89 969.709,-117.1"/>
</g>
<!-- Node9 -->
<g id="node9" class="node"><title>Node9</title>
<g id="a_node9"><a xlink:href="classscram_1_1core_1_1CustomPreprocessor_3_01Zbdd_01_4.xhtml#a5185075f852c647c7aa4313d23420ee5" target="_top" xlink:title="Performs preprocessing for analyses with Zero&#45;Suppressed Binary Decision Diagrams. ">
<polygon fill="white" stroke="black" points="1034,-44.5 1034,-74.5 1201,-74.5 1201,-44.5 1034,-44.5"/>
<text text-anchor="start" x="1042" y="-62.5" font-family="Helvetica,sans-Serif" font-size="10.00">scram::core::CustomPreprocessor</text>
<text text-anchor="middle" x="1117.5" y="-51.5" font-family="Helvetica,sans-Serif" font-size="10.00">&lt; Zbdd &gt;::Run</text>
</a>
</g>
</g>
<!-- Node7&#45;&gt;Node9 -->
<g id="edge9" class="edge"><title>Node7&#45;&gt;Node9</title>
<path fill="none" stroke="midnightblue" d="M968.934,-96.4858C995.35,-89.865 1028.39,-81.5839 1056.51,-74.537"/>
<polygon fill="midnightblue" stroke="midnightblue" points="968.007,-93.1097 959.158,-98.936 969.709,-99.8997 968.007,-93.1097"/>
</g>
<!-- Node10&#45;&gt;Node5 -->
<g id="edge11" class="edge"><title>Node10&#45;&gt;Node5</title>
<path fill="none" stroke="midnightblue" d="M990.51,-34.961C993.098,-36.3737 995.606,-37.8846 998,-39.5 1018.94,-53.6332 1013,-69.4498 1034,-83.5 1039.72,-87.3282 1046.05,-90.5879 1052.58,-93.3596"/>
<polygon fill="midnightblue" stroke="midnightblue" points="991.971,-31.7795 981.451,-30.5266 988.894,-38.0667 991.971,-31.7795"/>
</g>
<!-- Node10&#45;&gt;Node9 -->
<g id="edge12" class="edge"><title>Node10&#45;&gt;Node9</title>
<path fill="none" stroke="midnightblue" d="M996.313,-32.4503C1013.89,-36.4071 1032.5,-40.5943 1049.68,-44.4615"/>
<polygon fill="midnightblue" stroke="midnightblue" points="996.623,-28.9326 986.099,-30.1514 995.086,-35.7617 996.623,-28.9326"/>
</g>
<!-- Node11&#45;&gt;Node5 -->
<g id="edge14" class="edge"><title>Node11&#45;&gt;Node5</title>
<path fill="none" stroke="midnightblue" d="M996.088,-81.3997C1014.31,-85.4999 1033.64,-89.8504 1051.35,-93.8376"/>
<polygon fill="midnightblue" stroke="midnightblue" points="996.623,-77.9326 986.099,-79.1514 995.086,-84.7617 996.623,-77.9326"/>
</g>
<!-- Node11&#45;&gt;Node9 -->
<g id="edge15" class="edge"><title>Node11&#45;&gt;Node9</title>
<path fill="none" stroke="midnightblue" d="M996.313,-62.5738C1008.64,-62.2587 1021.46,-61.9306 1033.95,-61.6113"/>
<polygon fill="midnightblue" stroke="midnightblue" points="996.006,-59.0805 986.099,-62.8351 996.185,-66.0782 996.006,-59.0805"/>
</g>
<!-- Node12&#45;&gt;Node5 -->
<g id="edge17" class="edge"><title>Node12&#45;&gt;Node5</title>
<path fill="none" stroke="midnightblue" d="M816.125,-140.741C867.458,-138.386 936.976,-134.276 998,-127.5 1015.4,-125.569 1034.13,-122.859 1051.46,-120.09"/>
<polygon fill="midnightblue" stroke="midnightblue" points="815.942,-137.246 806.109,-141.189 816.255,-144.239 815.942,-137.246"/>
</g>
<!-- Node12&#45;&gt;Node7 -->
<g id="edge18" class="edge"><title>Node12&#45;&gt;Node7</title>
<path fill="none" stroke="midnightblue" d="M815.896,-128.773C834.402,-125.134 853.743,-121.331 870.608,-118.015"/>
<polygon fill="midnightblue" stroke="midnightblue" points="815.154,-125.352 806.018,-130.716 816.505,-132.22 815.154,-125.352"/>
</g>
</g>
</svg>
