<?xml version="1.0" encoding="UTF-8" standalone="no"?>
<!DOCTYPE svg PUBLIC "-//W3C//DTD SVG 1.1//EN"
 "http://www.w3.org/Graphics/SVG/1.1/DTD/svg11.dtd">
<!-- Generated by graphviz version 2.38.0 (20140413.2041)
 -->
<!-- Title: scram::mef::MissionTime Pages: 1 -->
<svg width="136pt" height="419pt"
 viewBox="0.00 0.00 136.00 419.00" xmlns="http://www.w3.org/2000/svg" xmlns:xlink="http://www.w3.org/1999/xlink">
<g id="graph0" class="graph" transform="scale(1 1) rotate(0) translate(4 415)">
<title>scram::mef::MissionTime</title>
<polygon fill="white" stroke="none" points="-4,4 -4,-415 132,-415 132,4 -4,4"/>
<!-- Node1 -->
<g id="node1" class="node"><title>Node1</title>
<polygon fill="#bfbfbf" stroke="black" points="0,-0.5 0,-112.5 128,-112.5 128,-0.5 0,-0.5"/>
<text text-anchor="middle" x="64" y="-100.5" font-family="Helvetica,sans-Serif" font-size="10.00">scram::mef::MissionTime</text>
<polyline fill="none" stroke="black" points="0,-93.5 128,-93.5 "/>
<text text-anchor="middle" x="64" y="-81.5" font-family="Helvetica,sans-Serif" font-size="10.00"> </text>
<polyline fill="none" stroke="black" points="0,-74.5 128,-74.5 "/>
<text text-anchor="start" x="8" y="-62.5" font-family="Helvetica,sans-Serif" font-size="10.00">+ MissionTime()</text>
<text text-anchor="start" x="8" y="-51.5" font-family="Helvetica,sans-Serif" font-size="10.00">+ unit()</text>
<text text-anchor="start" x="8" y="-40.5" font-family="Helvetica,sans-Serif" font-size="10.00">+ value()</text>
<text text-anchor="start" x="8" y="-29.5" font-family="Helvetica,sans-Serif" font-size="10.00">+ Min()</text>
<text text-anchor="start" x="8" y="-18.5" font-family="Helvetica,sans-Serif" font-size="10.00">+ Mean()</text>
<text text-anchor="start" x="8" y="-7.5" font-family="Helvetica,sans-Serif" font-size="10.00">+ IsDeviate()</text>
</g>
<!-- Node2 -->
<g id="node2" class="node"><title>Node2</title>
<g id="a_node2"><a xlink:href="classscram_1_1mef_1_1Expression.xhtml" target="_top" xlink:title="Abstract base class for all sorts of expressions to describe events. ">
<polygon fill="white" stroke="black" points="3.5,-149.5 3.5,-316.5 124.5,-316.5 124.5,-149.5 3.5,-149.5"/>
<text text-anchor="middle" x="64" y="-304.5" font-family="Helvetica,sans-Serif" font-size="10.00">scram::mef::Expression</text>
<polyline fill="none" stroke="black" points="3.5,-297.5 124.5,-297.5 "/>
<text text-anchor="middle" x="64" y="-285.5" font-family="Helvetica,sans-Serif" font-size="10.00"> </text>
<polyline fill="none" stroke="black" points="3.5,-278.5 124.5,-278.5 "/>
<text text-anchor="start" x="11.5" y="-266.5" font-family="Helvetica,sans-Serif" font-size="10.00">+ Expression()</text>
<text text-anchor="start" x="11.5" y="-255.5" font-family="Helvetica,sans-Serif" font-size="10.00">+ ~Expression()</text>
<text text-anchor="start" x="11.5" y="-244.5" font-family="Helvetica,sans-Serif" font-size="10.00">+ args()</text>
<text text-anchor="start" x="11.5" y="-233.5" font-family="Helvetica,sans-Serif" font-size="10.00">+ Validate()</text>
<text text-anchor="start" x="11.5" y="-222.5" font-family="Helvetica,sans-Serif" font-size="10.00">+ Mean()</text>
<text text-anchor="start" x="11.5" y="-211.5" font-family="Helvetica,sans-Serif" font-size="10.00">+ Sample()</text>
<text text-anchor="start" x="11.5" y="-200.5" font-family="Helvetica,sans-Serif" font-size="10.00">+ Reset()</text>
<text text-anchor="start" x="11.5" y="-189.5" font-family="Helvetica,sans-Serif" font-size="10.00">+ IsDeviate()</text>
<text text-anchor="start" x="11.5" y="-178.5" font-family="Helvetica,sans-Serif" font-size="10.00">+ Max()</text>
<text text-anchor="start" x="11.5" y="-167.5" font-family="Helvetica,sans-Serif" font-size="10.00">+ Min()</text>
<text text-anchor="start" x="11.5" y="-156.5" font-family="Helvetica,sans-Serif" font-size="10.00"># AddArg()</text>
</a>
</g>
</g>
<!-- Node2&#45;&gt;Node1 -->
<g id="edge1" class="edge"><title>Node2&#45;&gt;Node1</title>
<path fill="none" stroke="midnightblue" d="M64,-139.225C64,-130.269 64,-121.392 64,-112.971"/>
<polygon fill="none" stroke="midnightblue" points="60.5001,-139.349 64,-149.349 67.5001,-139.349 60.5001,-139.349"/>
</g>
<!-- Node3 -->
<g id="node3" class="node"><title>Node3</title>
<polygon fill="white" stroke="#bfbfbf" points="28.5,-353.5 28.5,-410.5 99.5,-410.5 99.5,-353.5 28.5,-353.5"/>
<text text-anchor="middle" x="64" y="-398.5" font-family="Helvetica,sans-Serif" font-size="10.00">noncopyable</text>
<polyline fill="none" stroke="#bfbfbf" points="28.5,-391.5 99.5,-391.5 "/>
<text text-anchor="middle" x="64" y="-379.5" font-family="Helvetica,sans-Serif" font-size="10.00"> </text>
<polyline fill="none" stroke="#bfbfbf" points="28.5,-372.5 99.5,-372.5 "/>
<text text-anchor="middle" x="64" y="-360.5" font-family="Helvetica,sans-Serif" font-size="10.00"> </text>
</g>
<!-- Node3&#45;&gt;Node2 -->
<g id="edge2" class="edge"><title>Node3&#45;&gt;Node2</title>
<path fill="none" stroke="#8b1a1a" d="M64,-343.35C64,-335.08 64,-326.008 64,-316.738"/>
<polygon fill="none" stroke="#8b1a1a" points="60.5001,-343.35 64,-353.35 67.5001,-343.35 60.5001,-343.35"/>
</g>
</g>
</svg>
