<?xml version="1.0" encoding="UTF-8" standalone="no"?>
<!DOCTYPE svg PUBLIC "-//W3C//DTD SVG 1.1//EN"
 "http://www.w3.org/Graphics/SVG/1.1/DTD/svg11.dtd">
<!-- Generated by graphviz version 2.38.0 (20140413.2041)
 -->
<!-- Title: scram::core::Analysis Pages: 1 -->
<!--zoomable 772 -->
<svg id="main" version="1.1" xmlns="http://www.w3.org/2000/svg" xmlns:xlink="http://www.w3.org/1999/xlink" xml:space="preserve" onload="init(evt)">
<style type="text/css"><![CDATA[
.edge:hover path { stroke: red; }
.edge:hover polygon { stroke: red; fill: red; }
]]></style>
<script type="text/javascript"><![CDATA[
var edges = document.getElementsByTagName('g');
if (edges && edges.length) {
  for (var i=0;i<edges.length;i++) {
    if (edges[i].id.substr(0,4)=='edge') {
      edges[i].setAttribute('class','edge');
    }
  }
}
]]></script>
        <defs>
                <circle id="rim" cx="0" cy="0" r="7"/>
                <circle id="rim2" cx="0" cy="0" r="3.5"/>
                <g id="zoomPlus">
                        <use xlink:href="#rim" fill="#404040">
                                <set attributeName="fill" to="#808080" begin="zoomplus.mouseover" end="zoomplus.mouseout"/>
                        </use>
                        <path d="M-4,0h8M0,-4v8" fill="none" stroke="white" stroke-width="1.5" pointer-events="none"/>
                </g>
                <g id="zoomMin">
                        <use xlink:href="#rim" fill="#404040">
                                <set attributeName="fill" to="#808080" begin="zoomminus.mouseover" end="zoomminus.mouseout"/>
                        </use>
                        <path d="M-4,0h8" fill="none" stroke="white" stroke-width="1.5" pointer-events="none"/>
                </g>
                <g id="dirArrow">
                        <path fill="none" stroke="white" stroke-width="1.5" d="M0,-3.0v7 M-2.5,-0.5L0,-3.0L2.5,-0.5"/>
                </g>
               <g id="resetDef">
                       <use xlink:href="#rim2" fill="#404040">
                               <set attributeName="fill" to="#808080" begin="reset.mouseover" end="reset.mouseout"/>
                       </use>
               </g>
        </defs>

<script type="text/javascript">
var viewWidth = 808;
var viewHeight = 772;
var sectionId = 'dynsection-0';
</script>
<script xlink:href="svgpan.js"/>
<svg id="graph" class="graph">
<g id="viewport">
<title>scram::core::Analysis</title>
<polygon fill="white" stroke="none" points="-4,4 -4,-768 804,-768 804,4 -4,4"/>
<!-- Node1 -->
<g id="node1" class="node"><title>Node1</title>
<polygon fill="#bfbfbf" stroke="black" points="367,-546.5 367,-669.5 479,-669.5 479,-546.5 367,-546.5"/>
<text text-anchor="middle" x="423" y="-657.5" font-family="Helvetica,sans-Serif" font-size="10.00">scram::core::Analysis</text>
<polyline fill="none" stroke="black" points="367,-650.5 479,-650.5 "/>
<text text-anchor="middle" x="423" y="-638.5" font-family="Helvetica,sans-Serif" font-size="10.00"> </text>
<polyline fill="none" stroke="black" points="367,-631.5 479,-631.5 "/>
<text text-anchor="start" x="375" y="-619.5" font-family="Helvetica,sans-Serif" font-size="10.00">+ Analysis()</text>
<text text-anchor="start" x="375" y="-608.5" font-family="Helvetica,sans-Serif" font-size="10.00">+ ~Analysis()</text>
<text text-anchor="start" x="375" y="-597.5" font-family="Helvetica,sans-Serif" font-size="10.00">+ settings()</text>
<text text-anchor="start" x="375" y="-586.5" font-family="Helvetica,sans-Serif" font-size="10.00">+ warnings()</text>
<text text-anchor="start" x="375" y="-575.5" font-family="Helvetica,sans-Serif" font-size="10.00">+ analysis_time()</text>
<text text-anchor="start" x="375" y="-564.5" font-family="Helvetica,sans-Serif" font-size="10.00"># AddWarning()</text>
<text text-anchor="start" x="375" y="-553.5" font-family="Helvetica,sans-Serif" font-size="10.00"># AddAnalysisTime()</text>
</g>
<!-- Node3 -->
<g id="node3" class="node"><title>Node3</title>
<g id="a_node3"><a xlink:href="classscram_1_1core_1_1FaultTreeAnalysis.xhtml" target="_top" xlink:title="Fault tree analysis functionality. ">
<polygon fill="white" stroke="black" points="6.5,-348 6.5,-460 159.5,-460 159.5,-348 6.5,-348"/>
<text text-anchor="middle" x="83" y="-448" font-family="Helvetica,sans-Serif" font-size="10.00">scram::core::FaultTreeAnalysis</text>
<polyline fill="none" stroke="black" points="6.5,-441 159.5,-441 "/>
<text text-anchor="middle" x="83" y="-429" font-family="Helvetica,sans-Serif" font-size="10.00"> </text>
<polyline fill="none" stroke="black" points="6.5,-422 159.5,-422 "/>
<text text-anchor="start" x="14.5" y="-410" font-family="Helvetica,sans-Serif" font-size="10.00">+ FaultTreeAnalysis()</text>
<text text-anchor="start" x="14.5" y="-399" font-family="Helvetica,sans-Serif" font-size="10.00">+ ~FaultTreeAnalysis()</text>
<text text-anchor="start" x="14.5" y="-388" font-family="Helvetica,sans-Serif" font-size="10.00">+ top_event()</text>
<text text-anchor="start" x="14.5" y="-377" font-family="Helvetica,sans-Serif" font-size="10.00">+ Analyze()</text>
<text text-anchor="start" x="14.5" y="-366" font-family="Helvetica,sans-Serif" font-size="10.00">+ products()</text>
<text text-anchor="start" x="14.5" y="-355" font-family="Helvetica,sans-Serif" font-size="10.00"># graph()</text>
</a>
</g>
</g>
<!-- Node1&#45;&gt;Node3 -->
<g id="edge2" class="edge"><title>Node1&#45;&gt;Node3</title>
<path fill="none" stroke="midnightblue" d="M356.863,-590.744C304.063,-575.623 229.926,-549.429 174,-510 154.679,-496.378 136.815,-477.798 122.124,-460.053"/>
<polygon fill="none" stroke="midnightblue" points="356.221,-594.199 366.795,-593.53 358.112,-587.459 356.221,-594.199"/>
</g>
<!-- Node5 -->
<g id="node5" class="node"><title>Node5</title>
<g id="a_node5"><a xlink:href="classscram_1_1core_1_1ImportanceAnalysis.xhtml" target="_top" xlink:title="Analysis of importance factors of risk model variables. ">
<polygon fill="white" stroke="black" points="183.5,-359 183.5,-449 344.5,-449 344.5,-359 183.5,-359"/>
<text text-anchor="middle" x="264" y="-437" font-family="Helvetica,sans-Serif" font-size="10.00">scram::core::ImportanceAnalysis</text>
<polyline fill="none" stroke="black" points="183.5,-430 344.5,-430 "/>
<text text-anchor="middle" x="264" y="-418" font-family="Helvetica,sans-Serif" font-size="10.00"> </text>
<polyline fill="none" stroke="black" points="183.5,-411 344.5,-411 "/>
<text text-anchor="start" x="191.5" y="-399" font-family="Helvetica,sans-Serif" font-size="10.00">+ ImportanceAnalysis()</text>
<text text-anchor="start" x="191.5" y="-388" font-family="Helvetica,sans-Serif" font-size="10.00">+ ~ImportanceAnalysis()</text>
<text text-anchor="start" x="191.5" y="-377" font-family="Helvetica,sans-Serif" font-size="10.00">+ Analyze()</text>
<text text-anchor="start" x="191.5" y="-366" font-family="Helvetica,sans-Serif" font-size="10.00">+ importance()</text>
</a>
</g>
</g>
<!-- Node1&#45;&gt;Node5 -->
<g id="edge4" class="edge"><title>Node1&#45;&gt;Node5</title>
<path fill="none" stroke="midnightblue" d="M368.851,-538.207C345.675,-508.763 319.289,-475.241 298.784,-449.191"/>
<polygon fill="none" stroke="midnightblue" points="366.359,-540.7 375.295,-546.393 371.86,-536.371 366.359,-540.7"/>
</g>
<!-- Node9 -->
<g id="node9" class="node"><title>Node9</title>
<g id="a_node9"><a xlink:href="classscram_1_1core_1_1ProbabilityAnalysis.xhtml" target="_top" xlink:title="Main quantitative analysis class. ">
<polygon fill="white" stroke="black" points="362.5,-337 362.5,-471 483.5,-471 483.5,-337 362.5,-337"/>
<text text-anchor="start" x="370.5" y="-459" font-family="Helvetica,sans-Serif" font-size="10.00">scram::core::Probability</text>
<text text-anchor="middle" x="423" y="-448" font-family="Helvetica,sans-Serif" font-size="10.00">Analysis</text>
<polyline fill="none" stroke="black" points="362.5,-441 483.5,-441 "/>
<text text-anchor="middle" x="423" y="-429" font-family="Helvetica,sans-Serif" font-size="10.00"> </text>
<polyline fill="none" stroke="black" points="362.5,-422 483.5,-422 "/>
<text text-anchor="start" x="370.5" y="-410" font-family="Helvetica,sans-Serif" font-size="10.00">+ ProbabilityAnalysis()</text>
<text text-anchor="start" x="370.5" y="-399" font-family="Helvetica,sans-Serif" font-size="10.00">+ ~ProbabilityAnalysis()</text>
<text text-anchor="start" x="370.5" y="-388" font-family="Helvetica,sans-Serif" font-size="10.00">+ Analyze()</text>
<text text-anchor="start" x="370.5" y="-377" font-family="Helvetica,sans-Serif" font-size="10.00">+ p_total()</text>
<text text-anchor="start" x="370.5" y="-366" font-family="Helvetica,sans-Serif" font-size="10.00">+ p_time()</text>
<text text-anchor="start" x="370.5" y="-355" font-family="Helvetica,sans-Serif" font-size="10.00">+ sil()</text>
<text text-anchor="start" x="370.5" y="-344" font-family="Helvetica,sans-Serif" font-size="10.00"># mission_time()</text>
</a>
</g>
</g>
<!-- Node1&#45;&gt;Node9 -->
<g id="edge8" class="edge"><title>Node1&#45;&gt;Node9</title>
<path fill="none" stroke="midnightblue" d="M423,-536.199C423,-515.079 423,-492.018 423,-471.204"/>
<polygon fill="none" stroke="midnightblue" points="419.5,-536.393 423,-546.393 426.5,-536.393 419.5,-536.393"/>
</g>
<!-- Node13 -->
<g id="node13" class="node"><title>Node13</title>
<g id="a_node13"><a xlink:href="classscram_1_1core_1_1RiskAnalysis.xhtml" target="_top" xlink:title="Main system that performs analyses. ">
<polygon fill="white" stroke="black" points="502,-298.5 502,-509.5 634,-509.5 634,-298.5 502,-298.5"/>
<text text-anchor="middle" x="568" y="-497.5" font-family="Helvetica,sans-Serif" font-size="10.00">scram::core::RiskAnalysis</text>
<polyline fill="none" stroke="black" points="502,-490.5 634,-490.5 "/>
<text text-anchor="middle" x="568" y="-478.5" font-family="Helvetica,sans-Serif" font-size="10.00"> </text>
<polyline fill="none" stroke="black" points="502,-471.5 634,-471.5 "/>
<text text-anchor="start" x="510" y="-459.5" font-family="Helvetica,sans-Serif" font-size="10.00">+ RiskAnalysis()</text>
<text text-anchor="start" x="510" y="-448.5" font-family="Helvetica,sans-Serif" font-size="10.00">+ model()</text>
<text text-anchor="start" x="510" y="-437.5" font-family="Helvetica,sans-Serif" font-size="10.00">+ Analyze()</text>
<text text-anchor="start" x="510" y="-426.5" font-family="Helvetica,sans-Serif" font-size="10.00">+ fault_tree_analyses()</text>
<text text-anchor="start" x="510" y="-415.5" font-family="Helvetica,sans-Serif" font-size="10.00">+ probability_analyses()</text>
<text text-anchor="start" x="510" y="-404.5" font-family="Helvetica,sans-Serif" font-size="10.00">+ importance_analyses()</text>
<text text-anchor="start" x="510" y="-393.5" font-family="Helvetica,sans-Serif" font-size="10.00">+ uncertainty_analyses()</text>
<text text-anchor="start" x="510" y="-382.5" font-family="Helvetica,sans-Serif" font-size="10.00">* fault_tree_analyses_</text>
<text text-anchor="start" x="510" y="-371.5" font-family="Helvetica,sans-Serif" font-size="10.00">* probability_analyses_</text>
<text text-anchor="start" x="510" y="-360.5" font-family="Helvetica,sans-Serif" font-size="10.00">* importance_analyses_</text>
<text text-anchor="start" x="510" y="-349.5" font-family="Helvetica,sans-Serif" font-size="10.00">* uncertainty_analyses_</text>
<text text-anchor="start" x="510" y="-338.5" font-family="Helvetica,sans-Serif" font-size="10.00">* fault_tree_analyses()</text>
<text text-anchor="start" x="510" y="-327.5" font-family="Helvetica,sans-Serif" font-size="10.00">* probability_analyses()</text>
<text text-anchor="start" x="510" y="-316.5" font-family="Helvetica,sans-Serif" font-size="10.00">* importance_analyses()</text>
<text text-anchor="start" x="510" y="-305.5" font-family="Helvetica,sans-Serif" font-size="10.00">* uncertainty_analyses()</text>
</a>
</g>
</g>
<!-- Node1&#45;&gt;Node13 -->
<g id="edge12" class="edge"><title>Node1&#45;&gt;Node13</title>
<path fill="none" stroke="midnightblue" d="M472.583,-537.926C481.969,-524.85 491.927,-510.978 501.731,-497.32"/>
<polygon fill="none" stroke="midnightblue" points="469.493,-536.229 466.505,-546.393 475.18,-540.311 469.493,-536.229"/>
</g>
<!-- Node14 -->
<g id="node14" class="node"><title>Node14</title>
<g id="a_node14"><a xlink:href="classscram_1_1core_1_1UncertaintyAnalysis.xhtml" target="_top" xlink:title="Uncertainty analysis and statistics for top event or gate probabilities with probability distribution...">
<polygon fill="white" stroke="black" points="652,-315 652,-493 800,-493 800,-315 652,-315"/>
<text text-anchor="start" x="660" y="-481" font-family="Helvetica,sans-Serif" font-size="10.00">scram::core::Uncertainty</text>
<text text-anchor="middle" x="726" y="-470" font-family="Helvetica,sans-Serif" font-size="10.00">Analysis</text>
<polyline fill="none" stroke="black" points="652,-463 800,-463 "/>
<text text-anchor="middle" x="726" y="-451" font-family="Helvetica,sans-Serif" font-size="10.00"> </text>
<polyline fill="none" stroke="black" points="652,-444 800,-444 "/>
<text text-anchor="start" x="660" y="-432" font-family="Helvetica,sans-Serif" font-size="10.00">+ UncertaintyAnalysis()</text>
<text text-anchor="start" x="660" y="-421" font-family="Helvetica,sans-Serif" font-size="10.00">+ ~UncertaintyAnalysis()</text>
<text text-anchor="start" x="660" y="-410" font-family="Helvetica,sans-Serif" font-size="10.00">+ Analyze()</text>
<text text-anchor="start" x="660" y="-399" font-family="Helvetica,sans-Serif" font-size="10.00">+ mean()</text>
<text text-anchor="start" x="660" y="-388" font-family="Helvetica,sans-Serif" font-size="10.00">+ sigma()</text>
<text text-anchor="start" x="660" y="-377" font-family="Helvetica,sans-Serif" font-size="10.00">+ error_factor()</text>
<text text-anchor="start" x="660" y="-366" font-family="Helvetica,sans-Serif" font-size="10.00">+ confidence_interval()</text>
<text text-anchor="start" x="660" y="-355" font-family="Helvetica,sans-Serif" font-size="10.00">+ distribution()</text>
<text text-anchor="start" x="660" y="-344" font-family="Helvetica,sans-Serif" font-size="10.00">+ quantiles()</text>
<text text-anchor="start" x="660" y="-333" font-family="Helvetica,sans-Serif" font-size="10.00"># GatherDeviateExpressions()</text>
<text text-anchor="start" x="660" y="-322" font-family="Helvetica,sans-Serif" font-size="10.00"># SampleExpressions()</text>
</a>
</g>
</g>
<!-- Node1&#45;&gt;Node14 -->
<g id="edge13" class="edge"><title>Node1&#45;&gt;Node14</title>
<path fill="none" stroke="midnightblue" d="M489.07,-587.343C535.285,-571.436 596.77,-545.774 643,-510 649.616,-504.881 656.012,-499.125 662.12,-493.012"/>
<polygon fill="none" stroke="midnightblue" points="487.806,-584.076 479.45,-590.59 490.045,-590.708 487.806,-584.076"/>
</g>
<!-- Node2 -->
<g id="node2" class="node"><title>Node2</title>
<polygon fill="white" stroke="#bfbfbf" points="387.5,-706.5 387.5,-763.5 458.5,-763.5 458.5,-706.5 387.5,-706.5"/>
<text text-anchor="middle" x="423" y="-751.5" font-family="Helvetica,sans-Serif" font-size="10.00">noncopyable</text>
<polyline fill="none" stroke="#bfbfbf" points="387.5,-744.5 458.5,-744.5 "/>
<text text-anchor="middle" x="423" y="-732.5" font-family="Helvetica,sans-Serif" font-size="10.00"> </text>
<polyline fill="none" stroke="#bfbfbf" points="387.5,-725.5 458.5,-725.5 "/>
<text text-anchor="middle" x="423" y="-713.5" font-family="Helvetica,sans-Serif" font-size="10.00"> </text>
</g>
<!-- Node2&#45;&gt;Node1 -->
<g id="edge1" class="edge"><title>Node2&#45;&gt;Node1</title>
<path fill="none" stroke="#8b1a1a" d="M423,-696.099C423,-687.739 423,-678.68 423,-669.672"/>
<polygon fill="none" stroke="#8b1a1a" points="419.5,-696.258 423,-706.258 426.5,-696.258 419.5,-696.258"/>
</g>
<!-- Node4 -->
<g id="node4" class="node"><title>Node4</title>
<g id="a_node4"><a xlink:href="classscram_1_1core_1_1FaultTreeAnalyzer.xhtml" target="_top" xlink:title="Fault tree analysis facility with specific algorithms. ">
<polygon fill="white" stroke="black" points="0,-155 0,-256 154,-256 154,-155 0,-155"/>
<text text-anchor="start" x="8" y="-244" font-family="Helvetica,sans-Serif" font-size="10.00">scram::core::FaultTreeAnalyzer</text>
<text text-anchor="middle" x="77" y="-233" font-family="Helvetica,sans-Serif" font-size="10.00">&lt; Algorithm &gt;</text>
<polyline fill="none" stroke="black" points="0,-226 154,-226 "/>
<text text-anchor="middle" x="77" y="-214" font-family="Helvetica,sans-Serif" font-size="10.00"> </text>
<polyline fill="none" stroke="black" points="0,-207 154,-207 "/>
<text text-anchor="start" x="8" y="-195" font-family="Helvetica,sans-Serif" font-size="10.00">+ algorithm()</text>
<text text-anchor="start" x="8" y="-184" font-family="Helvetica,sans-Serif" font-size="10.00">+ algorithm()</text>
<text text-anchor="start" x="8" y="-173" font-family="Helvetica,sans-Serif" font-size="10.00">* algorithm()</text>
<text text-anchor="start" x="8" y="-162" font-family="Helvetica,sans-Serif" font-size="10.00">* algorithm()</text>
</a>
</g>
</g>
<!-- Node3&#45;&gt;Node4 -->
<g id="edge3" class="edge"><title>Node3&#45;&gt;Node4</title>
<path fill="none" stroke="midnightblue" d="M80.9974,-337.414C80.1895,-310.955 79.2727,-280.93 78.5211,-256.314"/>
<polygon fill="none" stroke="midnightblue" points="77.509,-337.852 81.3127,-347.741 84.5058,-337.639 77.509,-337.852"/>
</g>
<!-- Node6 -->
<g id="node6" class="node"><title>Node6</title>
<g id="a_node6"><a xlink:href="classscram_1_1core_1_1ImportanceAnalyzerBase.xhtml" target="_top" xlink:title="Base class for analyzers of importance factors with the help from probability analyzers. ">
<polygon fill="white" stroke="black" points="172,-166 172,-245 356,-245 356,-166 172,-166"/>
<text text-anchor="middle" x="264" y="-233" font-family="Helvetica,sans-Serif" font-size="10.00">scram::core::ImportanceAnalyzerBase</text>
<polyline fill="none" stroke="black" points="172,-226 356,-226 "/>
<text text-anchor="middle" x="264" y="-214" font-family="Helvetica,sans-Serif" font-size="10.00"> </text>
<polyline fill="none" stroke="black" points="172,-207 356,-207 "/>
<text text-anchor="start" x="180" y="-195" font-family="Helvetica,sans-Serif" font-size="10.00">+ ImportanceAnalyzerBase()</text>
<text text-anchor="start" x="180" y="-184" font-family="Helvetica,sans-Serif" font-size="10.00"># ~ImportanceAnalyzerBase()</text>
<text text-anchor="start" x="180" y="-173" font-family="Helvetica,sans-Serif" font-size="10.00"># prob_analyzer()</text>
</a>
</g>
</g>
<!-- Node5&#45;&gt;Node6 -->
<g id="edge5" class="edge"><title>Node5&#45;&gt;Node6</title>
<path fill="none" stroke="midnightblue" d="M264,-348.552C264,-315.708 264,-274.652 264,-245.137"/>
<polygon fill="none" stroke="midnightblue" points="260.5,-348.902 264,-358.902 267.5,-348.902 260.5,-348.902"/>
</g>
<!-- Node7 -->
<g id="node7" class="node"><title>Node7</title>
<g id="a_node7"><a xlink:href="classscram_1_1core_1_1ImportanceAnalyzer.xhtml" target="_top" xlink:title="Analyzer of importance factors with the help from probability analyzers. ">
<polygon fill="white" stroke="black" points="8.5,-22.5 8.5,-90.5 169.5,-90.5 169.5,-22.5 8.5,-22.5"/>
<text text-anchor="start" x="16.5" y="-78.5" font-family="Helvetica,sans-Serif" font-size="10.00">scram::core::ImportanceAnalyzer</text>
<text text-anchor="middle" x="89" y="-67.5" font-family="Helvetica,sans-Serif" font-size="10.00">&lt; Calculator &gt;</text>
<polyline fill="none" stroke="black" points="8.5,-60.5 169.5,-60.5 "/>
<text text-anchor="middle" x="89" y="-48.5" font-family="Helvetica,sans-Serif" font-size="10.00"> </text>
<polyline fill="none" stroke="black" points="8.5,-41.5 169.5,-41.5 "/>
<text text-anchor="start" x="16.5" y="-29.5" font-family="Helvetica,sans-Serif" font-size="10.00">+ ImportanceAnalyzer()</text>
</a>
</g>
</g>
<!-- Node6&#45;&gt;Node7 -->
<g id="edge6" class="edge"><title>Node6&#45;&gt;Node7</title>
<path fill="none" stroke="midnightblue" d="M210.349,-159.433C183.924,-137.237 152.63,-110.949 128.44,-90.63"/>
<polygon fill="none" stroke="midnightblue" points="208.113,-162.125 218.021,-165.877 212.615,-156.766 208.113,-162.125"/>
</g>
<!-- Node8 -->
<g id="node8" class="node"><title>Node8</title>
<g id="a_node8"><a xlink:href="classscram_1_1core_1_1ImportanceAnalyzer_3_01Bdd_01_4.xhtml" target="_top" xlink:title="Specialization of importance analyzer with Binary Decision Diagrams. ">
<polygon fill="white" stroke="black" points="187.5,-22.5 187.5,-90.5 348.5,-90.5 348.5,-22.5 187.5,-22.5"/>
<text text-anchor="start" x="195.5" y="-78.5" font-family="Helvetica,sans-Serif" font-size="10.00">scram::core::ImportanceAnalyzer</text>
<text text-anchor="middle" x="268" y="-67.5" font-family="Helvetica,sans-Serif" font-size="10.00">&lt; Bdd &gt;</text>
<polyline fill="none" stroke="black" points="187.5,-60.5 348.5,-60.5 "/>
<text text-anchor="middle" x="268" y="-48.5" font-family="Helvetica,sans-Serif" font-size="10.00"> </text>
<polyline fill="none" stroke="black" points="187.5,-41.5 348.5,-41.5 "/>
<text text-anchor="start" x="195.5" y="-29.5" font-family="Helvetica,sans-Serif" font-size="10.00">+ ImportanceAnalyzer()</text>
</a>
</g>
</g>
<!-- Node6&#45;&gt;Node8 -->
<g id="edge7" class="edge"><title>Node6&#45;&gt;Node8</title>
<path fill="none" stroke="midnightblue" d="M265.327,-155.72C265.906,-134.441 266.57,-110.035 267.092,-90.8738"/>
<polygon fill="none" stroke="midnightblue" points="261.824,-155.786 265.051,-165.877 268.822,-155.976 261.824,-155.786"/>
</g>
<!-- Node10 -->
<g id="node10" class="node"><title>Node10</title>
<g id="a_node10"><a xlink:href="classscram_1_1core_1_1ProbabilityAnalyzerBase.xhtml" target="_top" xlink:title="Base class for Probability analyzers. ">
<polygon fill="white" stroke="black" points="374.5,-149.5 374.5,-261.5 517.5,-261.5 517.5,-149.5 374.5,-149.5"/>
<text text-anchor="start" x="382.5" y="-249.5" font-family="Helvetica,sans-Serif" font-size="10.00">scram::core::Probability</text>
<text text-anchor="middle" x="446" y="-238.5" font-family="Helvetica,sans-Serif" font-size="10.00">AnalyzerBase</text>
<polyline fill="none" stroke="black" points="374.5,-231.5 517.5,-231.5 "/>
<text text-anchor="middle" x="446" y="-219.5" font-family="Helvetica,sans-Serif" font-size="10.00"> </text>
<polyline fill="none" stroke="black" points="374.5,-212.5 517.5,-212.5 "/>
<text text-anchor="start" x="382.5" y="-200.5" font-family="Helvetica,sans-Serif" font-size="10.00">+ ProbabilityAnalyzerBase()</text>
<text text-anchor="start" x="382.5" y="-189.5" font-family="Helvetica,sans-Serif" font-size="10.00">+ graph()</text>
<text text-anchor="start" x="382.5" y="-178.5" font-family="Helvetica,sans-Serif" font-size="10.00">+ products()</text>
<text text-anchor="start" x="382.5" y="-167.5" font-family="Helvetica,sans-Serif" font-size="10.00">+ p_vars()</text>
<text text-anchor="start" x="382.5" y="-156.5" font-family="Helvetica,sans-Serif" font-size="10.00"># ~ProbabilityAnalyzerBase()</text>
</a>
</g>
</g>
<!-- Node9&#45;&gt;Node10 -->
<g id="edge9" class="edge"><title>Node9&#45;&gt;Node10</title>
<path fill="none" stroke="midnightblue" d="M431.943,-326.592C434.477,-304.943 437.186,-281.803 439.542,-261.672"/>
<polygon fill="none" stroke="midnightblue" points="428.441,-326.409 430.755,-336.748 435.394,-327.223 428.441,-326.409"/>
</g>
<!-- Node11 -->
<g id="node11" class="node"><title>Node11</title>
<g id="a_node11"><a xlink:href="classscram_1_1core_1_1ProbabilityAnalyzer.xhtml" target="_top" xlink:title="Fault&#45;tree&#45;analysis&#45;aware probability analyzer. ">
<polygon fill="white" stroke="black" points="370,-22.5 370,-90.5 510,-90.5 510,-22.5 370,-22.5"/>
<text text-anchor="start" x="378" y="-78.5" font-family="Helvetica,sans-Serif" font-size="10.00">scram::core::Probability</text>
<text text-anchor="middle" x="440" y="-67.5" font-family="Helvetica,sans-Serif" font-size="10.00">Analyzer&lt; Calculator &gt;</text>
<polyline fill="none" stroke="black" points="370,-60.5 510,-60.5 "/>
<text text-anchor="middle" x="440" y="-48.5" font-family="Helvetica,sans-Serif" font-size="10.00"> </text>
<polyline fill="none" stroke="black" points="370,-41.5 510,-41.5 "/>
<text text-anchor="start" x="378" y="-29.5" font-family="Helvetica,sans-Serif" font-size="10.00">+ CalculateTotalProbability()</text>
</a>
</g>
</g>
<!-- Node10&#45;&gt;Node11 -->
<g id="edge10" class="edge"><title>Node10&#45;&gt;Node11</title>
<path fill="none" stroke="midnightblue" d="M443.328,-139.043C442.646,-122.332 441.941,-105.06 441.357,-90.7375"/>
<polygon fill="none" stroke="midnightblue" points="439.844,-139.495 443.749,-149.344 446.838,-139.21 439.844,-139.495"/>
</g>
<!-- Node12 -->
<g id="node12" class="node"><title>Node12</title>
<g id="a_node12"><a xlink:href="classscram_1_1core_1_1ProbabilityAnalyzer_3_01Bdd_01_4.xhtml" target="_top" xlink:title="Specialization of probability analyzer with Binary Decision Diagrams. ">
<polygon fill="white" stroke="black" points="528,-0.5 528,-112.5 668,-112.5 668,-0.5 528,-0.5"/>
<text text-anchor="start" x="536" y="-100.5" font-family="Helvetica,sans-Serif" font-size="10.00">scram::core::Probability</text>
<text text-anchor="middle" x="598" y="-89.5" font-family="Helvetica,sans-Serif" font-size="10.00">Analyzer&lt; Bdd &gt;</text>
<polyline fill="none" stroke="black" points="528,-82.5 668,-82.5 "/>
<text text-anchor="middle" x="598" y="-70.5" font-family="Helvetica,sans-Serif" font-size="10.00"> </text>
<polyline fill="none" stroke="black" points="528,-63.5 668,-63.5 "/>
<text text-anchor="start" x="536" y="-51.5" font-family="Helvetica,sans-Serif" font-size="10.00">+ ProbabilityAnalyzer()</text>
<text text-anchor="start" x="536" y="-40.5" font-family="Helvetica,sans-Serif" font-size="10.00">+ ProbabilityAnalyzer()</text>
<text text-anchor="start" x="536" y="-29.5" font-family="Helvetica,sans-Serif" font-size="10.00">+ ~ProbabilityAnalyzer()</text>
<text text-anchor="start" x="536" y="-18.5" font-family="Helvetica,sans-Serif" font-size="10.00">+ bdd_graph()</text>
<text text-anchor="start" x="536" y="-7.5" font-family="Helvetica,sans-Serif" font-size="10.00">+ CalculateTotalProbability()</text>
</a>
</g>
</g>
<!-- Node10&#45;&gt;Node12 -->
<g id="edge11" class="edge"><title>Node10&#45;&gt;Node12</title>
<path fill="none" stroke="midnightblue" d="M510.359,-142.258C520.505,-132.446 530.935,-122.359 540.902,-112.72"/>
<polygon fill="none" stroke="midnightblue" points="507.787,-139.877 503.032,-149.344 512.653,-144.908 507.787,-139.877"/>
</g>
<!-- Node15 -->
<g id="node15" class="node"><title>Node15</title>
<g id="a_node15"><a xlink:href="classscram_1_1core_1_1UncertaintyAnalyzer.xhtml" target="_top" xlink:title="Uncertainty analysis facility. ">
<polygon fill="white" stroke="black" points="663.5,-171.5 663.5,-239.5 788.5,-239.5 788.5,-171.5 663.5,-171.5"/>
<text text-anchor="start" x="671.5" y="-227.5" font-family="Helvetica,sans-Serif" font-size="10.00">scram::core::Uncertainty</text>
<text text-anchor="middle" x="726" y="-216.5" font-family="Helvetica,sans-Serif" font-size="10.00">Analyzer&lt; Calculator &gt;</text>
<polyline fill="none" stroke="black" points="663.5,-209.5 788.5,-209.5 "/>
<text text-anchor="middle" x="726" y="-197.5" font-family="Helvetica,sans-Serif" font-size="10.00"> </text>
<polyline fill="none" stroke="black" points="663.5,-190.5 788.5,-190.5 "/>
<text text-anchor="start" x="671.5" y="-178.5" font-family="Helvetica,sans-Serif" font-size="10.00">+ UncertaintyAnalyzer()</text>
</a>
</g>
</g>
<!-- Node14&#45;&gt;Node15 -->
<g id="edge14" class="edge"><title>Node14&#45;&gt;Node15</title>
<path fill="none" stroke="midnightblue" d="M726,-304.753C726,-281.254 726,-257.754 726,-239.631"/>
<polygon fill="none" stroke="midnightblue" points="722.5,-304.809 726,-314.809 729.5,-304.809 722.5,-304.809"/>
</g>
</g>
</svg>
        <g id="navigator" transform="translate(0 0)" fill="#404254">
                <rect fill="#f2f5e9" fill-opacity="0.5" stroke="#606060" stroke-width=".5" x="0" y="0" width="60" height="60"/>
                <use id="zoomplus" xlink:href="#zoomPlus" x="17" y="9" onmousedown="handleZoom(evt,'in')"/>
                <use id="zoomminus" xlink:href="#zoomMin" x="42" y="9" onmousedown="handleZoom(evt,'out')"/>
                <use id="reset" xlink:href="#resetDef" x="30" y="36" onmousedown="handleReset()"/>
                <g id="arrowUp" xlink:href="#dirArrow" transform="translate(30 24)" onmousedown="handlePan(0,-1)">
                  <use xlink:href="#rim" fill="#404040">
                        <set attributeName="fill" to="#808080" begin="arrowUp.mouseover" end="arrowUp.mouseout"/>
                  </use>
                  <path fill="none" stroke="white" stroke-width="1.5" d="M0,-3.0v7 M-2.5,-0.5L0,-3.0L2.5,-0.5"/>
                </g>
                <g id="arrowRight" xlink:href="#dirArrow" transform="rotate(90) translate(36 -43)" onmousedown="handlePan(1,0)">
                  <use xlink:href="#rim" fill="#404040">
                        <set attributeName="fill" to="#808080" begin="arrowRight.mouseover" end="arrowRight.mouseout"/>
                  </use>
                  <path fill="none" stroke="white" stroke-width="1.5" d="M0,-3.0v7 M-2.5,-0.5L0,-3.0L2.5,-0.5"/>
                </g>
                <g id="arrowDown" xlink:href="#dirArrow" transform="rotate(180) translate(-30 -48)" onmousedown="handlePan(0,1)">
                  <use xlink:href="#rim" fill="#404040">
                        <set attributeName="fill" to="#808080" begin="arrowDown.mouseover" end="arrowDown.mouseout"/>
                  </use>
                  <path fill="none" stroke="white" stroke-width="1.5" d="M0,-3.0v7 M-2.5,-0.5L0,-3.0L2.5,-0.5"/>
                </g>
                <g id="arrowLeft" xlink:href="#dirArrow" transform="rotate(270) translate(-36 17)" onmousedown="handlePan(-1,0)">
                  <use xlink:href="#rim" fill="#404040">
                        <set attributeName="fill" to="#808080" begin="arrowLeft.mouseover" end="arrowLeft.mouseout"/>
                  </use>
                  <path fill="none" stroke="white" stroke-width="1.5" d="M0,-3.0v7 M-2.5,-0.5L0,-3.0L2.5,-0.5"/>
                </g>
        </g>
        <svg viewBox="0 0 15 15" width="100%" height="30px" preserveAspectRatio="xMaxYMin meet">
         <g id="arrow_out" transform="scale(0.3 0.3)">
          <a xlink:href="classscram_1_1core_1_1Analysis__inherit__graph_org.svg" target="_base">
           <rect id="button" ry="5" rx="5" y="6" x="6" height="38" width="38"
                fill="#f2f5e9" fill-opacity="0.5" stroke="#606060" stroke-width="1.0"/>
           <path id="arrow"
             d="M 11.500037,31.436501 C 11.940474,20.09759 22.043105,11.32322 32.158766,21.979434 L 37.068811,17.246167 C 37.068811,17.246167 37.088388,32 37.088388,32 L 22.160133,31.978069 C 22.160133,31.978069 26.997745,27.140456 26.997745,27.140456 C 18.528582,18.264221 13.291696,25.230495 11.500037,31.436501 z"
             style="fill:#404040;"/>
          </a>
         </g>
        </svg>
</svg>
