<?xml version="1.0" encoding="UTF-8" standalone="no"?>
<!DOCTYPE svg PUBLIC "-//W3C//DTD SVG 1.1//EN"
 "http://www.w3.org/Graphics/SVG/1.1/DTD/svg11.dtd">
<!-- Generated by graphviz version 2.38.0 (20140413.2041)
 -->
<!-- Title: scram::core::Preprocessor::TopologicalOrder Pages: 1 -->
<svg width="1207pt" height="182pt"
 viewBox="0.00 0.00 1207.00 182.00" xmlns="http://www.w3.org/2000/svg" xmlns:xlink="http://www.w3.org/1999/xlink">
<g id="graph0" class="graph" transform="scale(1 1) rotate(0) translate(4 178)">
<title>scram::core::Preprocessor::TopologicalOrder</title>
<polygon fill="white" stroke="none" points="-4,4 -4,-178 1203,-178 1203,4 -4,4"/>
<!-- Node1 -->
<g id="node1" class="node"><title>Node1</title>
<polygon fill="#bfbfbf" stroke="black" points="0,-52.5 0,-82.5 132,-82.5 132,-52.5 0,-52.5"/>
<text text-anchor="start" x="8" y="-70.5" font-family="Helvetica,sans-Serif" font-size="10.00">scram::core::Preprocessor</text>
<text text-anchor="middle" x="66" y="-59.5" font-family="Helvetica,sans-Serif" font-size="10.00">::TopologicalOrder</text>
</g>
<!-- Node2 -->
<g id="node2" class="node"><title>Node2</title>
<g id="a_node2"><a xlink:href="classscram_1_1core_1_1Preprocessor.xhtml#afb4e28af2f1ec12db694af6e93ffbd1d" target="_top" xlink:title="Assigns order for PDAG variables. ">
<polygon fill="white" stroke="black" points="168,-52.5 168,-82.5 300,-82.5 300,-52.5 168,-52.5"/>
<text text-anchor="start" x="176" y="-70.5" font-family="Helvetica,sans-Serif" font-size="10.00">scram::core::Preprocessor</text>
<text text-anchor="middle" x="234" y="-59.5" font-family="Helvetica,sans-Serif" font-size="10.00">::AssignOrder</text>
</a>
</g>
</g>
<!-- Node1&#45;&gt;Node2 -->
<g id="edge1" class="edge"><title>Node1&#45;&gt;Node2</title>
<path fill="none" stroke="midnightblue" d="M142.393,-67.5C150.869,-67.5 159.452,-67.5 167.784,-67.5"/>
<polygon fill="midnightblue" stroke="midnightblue" points="142.131,-64.0001 132.131,-67.5 142.131,-71.0001 142.131,-64.0001"/>
</g>
<!-- Node3 -->
<g id="node3" class="node"><title>Node3</title>
<g id="a_node3"><a xlink:href="classscram_1_1core_1_1Preprocessor.xhtml#a9caf4677a024ed935d831210b57b8ed9" target="_top" xlink:title="Gathers nodes in the sub&#45;graph. ">
<polygon fill="white" stroke="black" points="881.5,-143.5 881.5,-173.5 1013.5,-173.5 1013.5,-143.5 881.5,-143.5"/>
<text text-anchor="start" x="889.5" y="-161.5" font-family="Helvetica,sans-Serif" font-size="10.00">scram::core::Preprocessor</text>
<text text-anchor="middle" x="947.5" y="-150.5" font-family="Helvetica,sans-Serif" font-size="10.00">::GatherNodes</text>
</a>
</g>
</g>
<!-- Node2&#45;&gt;Node3 -->
<g id="edge2" class="edge"><title>Node2&#45;&gt;Node3</title>
<path fill="none" stroke="midnightblue" d="M288.266,-85.7672C341.994,-103.282 427.684,-128.745 504,-140.5 636.793,-160.954 794.483,-161.871 881.202,-160.392"/>
<polygon fill="midnightblue" stroke="midnightblue" points="289.208,-82.3927 278.615,-82.5943 287.022,-89.0426 289.208,-82.3927"/>
</g>
<!-- Node4 -->
<g id="node4" class="node"><title>Node4</title>
<g id="a_node4"><a xlink:href="classscram_1_1core_1_1Preprocessor.xhtml#ad13e133278ea7563c1ba037c05c35aa2" target="_top" xlink:title="Normalizes the gates of the whole PDAG into OR, AND gates. ">
<polygon fill="white" stroke="black" points="336,-52.5 336,-82.5 468,-82.5 468,-52.5 336,-52.5"/>
<text text-anchor="start" x="344" y="-70.5" font-family="Helvetica,sans-Serif" font-size="10.00">scram::core::Preprocessor</text>
<text text-anchor="middle" x="402" y="-59.5" font-family="Helvetica,sans-Serif" font-size="10.00">::NormalizeGates</text>
</a>
</g>
</g>
<!-- Node2&#45;&gt;Node4 -->
<g id="edge3" class="edge"><title>Node2&#45;&gt;Node4</title>
<path fill="none" stroke="midnightblue" d="M310.393,-67.5C318.869,-67.5 327.452,-67.5 335.784,-67.5"/>
<polygon fill="midnightblue" stroke="midnightblue" points="310.131,-64.0001 300.131,-67.5 310.131,-71.0001 310.131,-64.0001"/>
</g>
<!-- Node9 -->
<g id="node9" class="node"><title>Node9</title>
<g id="a_node9"><a xlink:href="classscram_1_1core_1_1CustomPreprocessor_3_01Zbdd_01_4.xhtml#a5185075f852c647c7aa4313d23420ee5" target="_top" xlink:title="Performs preprocessing for analyses with Zero&#45;Suppressed Binary Decision Diagrams. ">
<polygon fill="white" stroke="black" points="864,-0.5 864,-30.5 1031,-30.5 1031,-0.5 864,-0.5"/>
<text text-anchor="start" x="872" y="-18.5" font-family="Helvetica,sans-Serif" font-size="10.00">scram::core::CustomPreprocessor</text>
<text text-anchor="middle" x="947.5" y="-7.5" font-family="Helvetica,sans-Serif" font-size="10.00">&lt; Zbdd &gt;::Run</text>
</a>
</g>
</g>
<!-- Node2&#45;&gt;Node9 -->
<g id="edge15" class="edge"><title>Node2&#45;&gt;Node9</title>
<path fill="none" stroke="midnightblue" d="M297.547,-50.0687C310.19,-47.0978 323.453,-44.3717 336,-42.5 523.041,-14.5979 745.595,-12.4616 863.526,-13.7376"/>
<polygon fill="midnightblue" stroke="midnightblue" points="296.458,-46.7314 287.566,-52.4922 298.109,-53.5337 296.458,-46.7314"/>
</g>
<!-- Node5 -->
<g id="node5" class="node"><title>Node5</title>
<g id="a_node5"><a xlink:href="classscram_1_1core_1_1Preprocessor.xhtml#a5ee92284aef510ce01a71c962d50f51c" target="_top" xlink:title="Runs the graph preprocessing. ">
<polygon fill="white" stroke="black" points="881.5,-62.5 881.5,-92.5 1013.5,-92.5 1013.5,-62.5 881.5,-62.5"/>
<text text-anchor="start" x="889.5" y="-80.5" font-family="Helvetica,sans-Serif" font-size="10.00">scram::core::Preprocessor</text>
<text text-anchor="middle" x="947.5" y="-69.5" font-family="Helvetica,sans-Serif" font-size="10.00">::operator()</text>
</a>
</g>
</g>
<!-- Node4&#45;&gt;Node5 -->
<g id="edge4" class="edge"><title>Node4&#45;&gt;Node5</title>
<path fill="none" stroke="midnightblue" d="M463.383,-50.026C476.652,-46.8974 490.711,-44.1202 504,-42.5 637.677,-26.2017 795.044,-48.4632 881.469,-64.2358"/>
<polygon fill="midnightblue" stroke="midnightblue" points="462.292,-46.6899 453.415,-52.4736 463.961,-53.4879 462.292,-46.6899"/>
</g>
<!-- Node7 -->
<g id="node7" class="node"><title>Node7</title>
<g id="a_node7"><a xlink:href="classscram_1_1core_1_1Preprocessor.xhtml#a44f820b6fe2c23594c818432b33e26a6" target="_top" xlink:title="The initial phase of preprocessing. ">
<polygon fill="white" stroke="black" points="504,-101.5 504,-131.5 636,-131.5 636,-101.5 504,-101.5"/>
<text text-anchor="start" x="512" y="-119.5" font-family="Helvetica,sans-Serif" font-size="10.00">scram::core::Preprocessor</text>
<text text-anchor="middle" x="570" y="-108.5" font-family="Helvetica,sans-Serif" font-size="10.00">::RunPhaseOne</text>
</a>
</g>
</g>
<!-- Node4&#45;&gt;Node7 -->
<g id="edge6" class="edge"><title>Node4&#45;&gt;Node7</title>
<path fill="none" stroke="midnightblue" d="M463.868,-85.467C481.654,-90.717 500.902,-96.3989 518.009,-101.448"/>
<polygon fill="midnightblue" stroke="midnightblue" points="464.742,-82.0757 454.16,-82.6014 462.76,-88.7894 464.742,-82.0757"/>
</g>
<!-- Node10 -->
<g id="node10" class="node"><title>Node10</title>
<g id="a_node10"><a xlink:href="classscram_1_1core_1_1Preprocessor.xhtml#abf2c66723172a85b2ae87ef2a034cd1f" target="_top" xlink:title="Application of gate normalization. ">
<polygon fill="white" stroke="black" points="504,-52.5 504,-82.5 636,-82.5 636,-52.5 504,-52.5"/>
<text text-anchor="start" x="512" y="-70.5" font-family="Helvetica,sans-Serif" font-size="10.00">scram::core::Preprocessor</text>
<text text-anchor="middle" x="570" y="-59.5" font-family="Helvetica,sans-Serif" font-size="10.00">::RunPhaseThree</text>
</a>
</g>
</g>
<!-- Node4&#45;&gt;Node10 -->
<g id="edge12" class="edge"><title>Node4&#45;&gt;Node10</title>
<path fill="none" stroke="midnightblue" d="M478.393,-67.5C486.869,-67.5 495.452,-67.5 503.784,-67.5"/>
<polygon fill="midnightblue" stroke="midnightblue" points="478.131,-64.0001 468.131,-67.5 478.131,-71.0001 478.131,-64.0001"/>
</g>
<!-- Node6 -->
<g id="node6" class="node"><title>Node6</title>
<g id="a_node6"><a xlink:href="classscram_1_1core_1_1Preprocessor_1_1GateSet.xhtml#ae00239084858979e096032c4cf2f05b9" target="_top" xlink:title="Inserts a gate into the set if it is semantically unique. ">
<polygon fill="white" stroke="black" points="1067,-62.5 1067,-92.5 1199,-92.5 1199,-62.5 1067,-62.5"/>
<text text-anchor="start" x="1075" y="-80.5" font-family="Helvetica,sans-Serif" font-size="10.00">scram::core::Preprocessor</text>
<text text-anchor="middle" x="1133" y="-69.5" font-family="Helvetica,sans-Serif" font-size="10.00">::GateSet::insert</text>
</a>
</g>
</g>
<!-- Node5&#45;&gt;Node6 -->
<g id="edge5" class="edge"><title>Node5&#45;&gt;Node6</title>
<path fill="none" stroke="midnightblue" d="M1023.99,-77.5C1038.26,-77.5 1053.08,-77.5 1067,-77.5"/>
<polygon fill="midnightblue" stroke="midnightblue" points="1023.71,-74.0001 1013.71,-77.5 1023.71,-81.0001 1023.71,-74.0001"/>
</g>
<!-- Node7&#45;&gt;Node5 -->
<g id="edge7" class="edge"><title>Node7&#45;&gt;Node5</title>
<path fill="none" stroke="midnightblue" d="M646.241,-123.921C697.768,-127.338 767.463,-128.677 828,-118.5 857.519,-113.538 889.514,-102.078 912.809,-92.5322"/>
<polygon fill="midnightblue" stroke="midnightblue" points="646.408,-120.424 636.187,-123.213 645.916,-127.407 646.408,-120.424"/>
</g>
<!-- Node8 -->
<g id="node8" class="node"><title>Node8</title>
<g id="a_node8"><a xlink:href="classscram_1_1core_1_1Preprocessor.xhtml#a2b6705e815fa3d02119c405b483766d5" target="_top" xlink:title="Container of unique gates by semantics. ">
<polygon fill="white" stroke="black" points="672,-90 672,-109 828,-109 828,-90 672,-90"/>
<text text-anchor="middle" x="750" y="-97" font-family="Helvetica,sans-Serif" font-size="10.00">scram::core::Preprocessor::Run</text>
</a>
</g>
</g>
<!-- Node7&#45;&gt;Node8 -->
<g id="edge8" class="edge"><title>Node7&#45;&gt;Node8</title>
<path fill="none" stroke="midnightblue" d="M646.221,-109.316C654.672,-108.509 663.292,-107.686 671.768,-106.876"/>
<polygon fill="midnightblue" stroke="midnightblue" points="645.64,-105.855 636.018,-110.29 646.305,-112.824 645.64,-105.855"/>
</g>
<!-- Node8&#45;&gt;Node3 -->
<g id="edge9" class="edge"><title>Node8&#45;&gt;Node3</title>
<path fill="none" stroke="midnightblue" d="M792.719,-112.09C823.155,-121.276 864.533,-133.763 896.702,-143.471"/>
<polygon fill="midnightblue" stroke="midnightblue" points="793.43,-108.649 782.846,-109.111 791.408,-115.351 793.43,-108.649"/>
</g>
<!-- Node8&#45;&gt;Node5 -->
<g id="edge10" class="edge"><title>Node8&#45;&gt;Node5</title>
<path fill="none" stroke="midnightblue" d="M838.255,-89.6811C852.777,-88.0469 867.611,-86.3775 881.457,-84.8195"/>
<polygon fill="midnightblue" stroke="midnightblue" points="837.813,-86.2086 828.267,-90.805 838.595,-93.1647 837.813,-86.2086"/>
</g>
<!-- Node8&#45;&gt;Node9 -->
<g id="edge11" class="edge"><title>Node8&#45;&gt;Node9</title>
<path fill="none" stroke="midnightblue" d="M782.781,-85.8447C818.096,-70.6711 874.95,-46.2428 911.51,-30.5342"/>
<polygon fill="midnightblue" stroke="midnightblue" points="781.232,-82.7006 773.426,-89.8641 783.996,-89.1321 781.232,-82.7006"/>
</g>
<!-- Node10&#45;&gt;Node5 -->
<g id="edge13" class="edge"><title>Node10&#45;&gt;Node5</title>
<path fill="none" stroke="midnightblue" d="M646.74,-69.517C715.516,-71.3486 815.901,-74.022 881.214,-75.7613"/>
<polygon fill="midnightblue" stroke="midnightblue" points="646.497,-66.0094 636.407,-69.2419 646.31,-73.0069 646.497,-66.0094"/>
</g>
<!-- Node10&#45;&gt;Node8 -->
<g id="edge14" class="edge"><title>Node10&#45;&gt;Node8</title>
<path fill="none" stroke="midnightblue" d="M645.864,-80.9586C662.755,-83.9953 680.344,-87.1573 696.111,-89.9919"/>
<polygon fill="midnightblue" stroke="midnightblue" points="646.479,-77.5133 636.018,-79.1886 645.241,-84.4028 646.479,-77.5133"/>
</g>
</g>
</svg>
