<?xml version="1.0" encoding="UTF-8" standalone="no"?>
<!DOCTYPE svg PUBLIC "-//W3C//DTD SVG 1.1//EN"
 "http://www.w3.org/Graphics/SVG/1.1/DTD/svg11.dtd">
<!-- Generated by graphviz version 2.38.0 (20140413.2041)
 -->
<!-- Title: scram::mef::Expression Pages: 1 -->
<!--zoomable 590 -->
<svg id="main" version="1.1" xmlns="http://www.w3.org/2000/svg" xmlns:xlink="http://www.w3.org/1999/xlink" xml:space="preserve" onload="init(evt)">
<style type="text/css"><![CDATA[
.edge:hover path { stroke: red; }
.edge:hover polygon { stroke: red; fill: red; }
]]></style>
<script type="text/javascript"><![CDATA[
var edges = document.getElementsByTagName('g');
if (edges && edges.length) {
  for (var i=0;i<edges.length;i++) {
    if (edges[i].id.substr(0,4)=='edge') {
      edges[i].setAttribute('class','edge');
    }
  }
}
]]></script>
        <defs>
                <circle id="rim" cx="0" cy="0" r="7"/>
                <circle id="rim2" cx="0" cy="0" r="3.5"/>
                <g id="zoomPlus">
                        <use xlink:href="#rim" fill="#404040">
                                <set attributeName="fill" to="#808080" begin="zoomplus.mouseover" end="zoomplus.mouseout"/>
                        </use>
                        <path d="M-4,0h8M0,-4v8" fill="none" stroke="white" stroke-width="1.5" pointer-events="none"/>
                </g>
                <g id="zoomMin">
                        <use xlink:href="#rim" fill="#404040">
                                <set attributeName="fill" to="#808080" begin="zoomminus.mouseover" end="zoomminus.mouseout"/>
                        </use>
                        <path d="M-4,0h8" fill="none" stroke="white" stroke-width="1.5" pointer-events="none"/>
                </g>
                <g id="dirArrow">
                        <path fill="none" stroke="white" stroke-width="1.5" d="M0,-3.0v7 M-2.5,-0.5L0,-3.0L2.5,-0.5"/>
                </g>
               <g id="resetDef">
                       <use xlink:href="#rim2" fill="#404040">
                               <set attributeName="fill" to="#808080" begin="reset.mouseover" end="reset.mouseout"/>
                       </use>
               </g>
        </defs>

<script type="text/javascript">
var viewWidth = 1904;
var viewHeight = 590;
var sectionId = 'dynsection-0';
</script>
<script xlink:href="svgpan.js"/>
<svg id="graph" class="graph">
<g id="viewport">
<title>scram::mef::Expression</title>
<polygon fill="white" stroke="none" points="-4,4 -4,-586 1899.5,-586 1899.5,4 -4,4"/>
<!-- Node1 -->
<g id="node1" class="node"><title>Node1</title>
<polygon fill="#bfbfbf" stroke="black" points="890,-320.5 890,-487.5 1011,-487.5 1011,-320.5 890,-320.5"/>
<text text-anchor="middle" x="950.5" y="-475.5" font-family="Helvetica,sans-Serif" font-size="10.00">scram::mef::Expression</text>
<polyline fill="none" stroke="black" points="890,-468.5 1011,-468.5 "/>
<text text-anchor="middle" x="950.5" y="-456.5" font-family="Helvetica,sans-Serif" font-size="10.00"> </text>
<polyline fill="none" stroke="black" points="890,-449.5 1011,-449.5 "/>
<text text-anchor="start" x="898" y="-437.5" font-family="Helvetica,sans-Serif" font-size="10.00">+ Expression()</text>
<text text-anchor="start" x="898" y="-426.5" font-family="Helvetica,sans-Serif" font-size="10.00">+ ~Expression()</text>
<text text-anchor="start" x="898" y="-415.5" font-family="Helvetica,sans-Serif" font-size="10.00">+ args()</text>
<text text-anchor="start" x="898" y="-404.5" font-family="Helvetica,sans-Serif" font-size="10.00">+ Validate()</text>
<text text-anchor="start" x="898" y="-393.5" font-family="Helvetica,sans-Serif" font-size="10.00">+ Mean()</text>
<text text-anchor="start" x="898" y="-382.5" font-family="Helvetica,sans-Serif" font-size="10.00">+ Sample()</text>
<text text-anchor="start" x="898" y="-371.5" font-family="Helvetica,sans-Serif" font-size="10.00">+ Reset()</text>
<text text-anchor="start" x="898" y="-360.5" font-family="Helvetica,sans-Serif" font-size="10.00">+ IsDeviate()</text>
<text text-anchor="start" x="898" y="-349.5" font-family="Helvetica,sans-Serif" font-size="10.00">+ Max()</text>
<text text-anchor="start" x="898" y="-338.5" font-family="Helvetica,sans-Serif" font-size="10.00">+ Min()</text>
<text text-anchor="start" x="898" y="-327.5" font-family="Helvetica,sans-Serif" font-size="10.00"># AddArg()</text>
</g>
<!-- Node3 -->
<g id="node3" class="node"><title>Node3</title>
<g id="a_node3"><a xlink:href="classscram_1_1mef_1_1BinaryExpression.xhtml" target="_top" xlink:title="Base class for expressions that require 2 or more arguments. ">
<polygon fill="white" stroke="black" points="129,-188 129,-245 278,-245 278,-188 129,-188"/>
<text text-anchor="middle" x="203.5" y="-233" font-family="Helvetica,sans-Serif" font-size="10.00">scram::mef::BinaryExpression</text>
<polyline fill="none" stroke="black" points="129,-226 278,-226 "/>
<text text-anchor="middle" x="203.5" y="-214" font-family="Helvetica,sans-Serif" font-size="10.00"> </text>
<polyline fill="none" stroke="black" points="129,-207 278,-207 "/>
<text text-anchor="start" x="137" y="-195" font-family="Helvetica,sans-Serif" font-size="10.00">+ BinaryExpression()</text>
</a>
</g>
</g>
<!-- Node1&#45;&gt;Node3 -->
<g id="edge2" class="edge"><title>Node1&#45;&gt;Node3</title>
<path fill="none" stroke="midnightblue" d="M879.634,-401.64C754.417,-396.823 488.22,-375.637 286.5,-284 265.822,-274.607 245.854,-258.888 230.687,-245.091"/>
<polygon fill="none" stroke="midnightblue" points="879.736,-405.145 889.856,-402.008 879.989,-398.15 879.736,-405.145"/>
</g>
<!-- Node8 -->
<g id="node8" class="node"><title>Node8</title>
<g id="a_node8"><a xlink:href="classscram_1_1mef_1_1ConstantExpression.xhtml" target="_top" xlink:title="Indicates a constant value. ">
<polygon fill="white" stroke="black" points="296,-166 296,-267 457,-267 457,-166 296,-166"/>
<text text-anchor="middle" x="376.5" y="-255" font-family="Helvetica,sans-Serif" font-size="10.00">scram::mef::ConstantExpression</text>
<polyline fill="none" stroke="black" points="296,-248 457,-248 "/>
<text text-anchor="start" x="304" y="-236" font-family="Helvetica,sans-Serif" font-size="10.00">+ kOne</text>
<text text-anchor="start" x="304" y="-225" font-family="Helvetica,sans-Serif" font-size="10.00">+ kZero</text>
<text text-anchor="start" x="304" y="-214" font-family="Helvetica,sans-Serif" font-size="10.00">+ kPi</text>
<polyline fill="none" stroke="black" points="296,-207 457,-207 "/>
<text text-anchor="start" x="304" y="-195" font-family="Helvetica,sans-Serif" font-size="10.00">+ ConstantExpression()</text>
<text text-anchor="start" x="304" y="-184" font-family="Helvetica,sans-Serif" font-size="10.00">+ Mean()</text>
<text text-anchor="start" x="304" y="-173" font-family="Helvetica,sans-Serif" font-size="10.00">+ IsDeviate()</text>
</a>
</g>
</g>
<!-- Node1&#45;&gt;Node8 -->
<g id="edge7" class="edge"><title>Node1&#45;&gt;Node8</title>
<path fill="none" stroke="midnightblue" d="M879.866,-394.525C782.935,-380.948 604.954,-348.965 466.5,-284 456.475,-279.296 446.452,-273.39 436.928,-267.051"/>
<polygon fill="none" stroke="midnightblue" points="879.464,-398.003 889.847,-395.898 880.418,-391.068 879.464,-398.003"/>
</g>
<!-- Node9 -->
<g id="node9" class="node"><title>Node9</title>
<g id="a_node9"><a xlink:href="classscram_1_1mef_1_1ExponentialExpression.xhtml" target="_top" xlink:title="Negative exponential distribution with hourly failure rate and time. ">
<polygon fill="white" stroke="black" points="475.5,-166 475.5,-267 647.5,-267 647.5,-166 475.5,-166"/>
<text text-anchor="middle" x="561.5" y="-255" font-family="Helvetica,sans-Serif" font-size="10.00">scram::mef::ExponentialExpression</text>
<polyline fill="none" stroke="black" points="475.5,-248 647.5,-248 "/>
<text text-anchor="middle" x="561.5" y="-236" font-family="Helvetica,sans-Serif" font-size="10.00"> </text>
<polyline fill="none" stroke="black" points="475.5,-229 647.5,-229 "/>
<text text-anchor="start" x="483.5" y="-217" font-family="Helvetica,sans-Serif" font-size="10.00">+ ExponentialExpression()</text>
<text text-anchor="start" x="483.5" y="-206" font-family="Helvetica,sans-Serif" font-size="10.00">+ Validate()</text>
<text text-anchor="start" x="483.5" y="-195" font-family="Helvetica,sans-Serif" font-size="10.00">+ Mean()</text>
<text text-anchor="start" x="483.5" y="-184" font-family="Helvetica,sans-Serif" font-size="10.00">+ Max()</text>
<text text-anchor="start" x="483.5" y="-173" font-family="Helvetica,sans-Serif" font-size="10.00">+ Min()</text>
</a>
</g>
</g>
<!-- Node1&#45;&gt;Node9 -->
<g id="edge8" class="edge"><title>Node1&#45;&gt;Node9</title>
<path fill="none" stroke="midnightblue" d="M880.337,-379.668C819.474,-358.251 729.87,-323.86 656.5,-284 647.124,-278.906 637.559,-273.071 628.284,-267.021"/>
<polygon fill="none" stroke="midnightblue" points="879.257,-382.997 889.851,-382.992 881.566,-376.389 879.257,-382.997"/>
</g>
<!-- Node10 -->
<g id="node10" class="node"><title>Node10</title>
<g id="a_node10"><a xlink:href="classscram_1_1mef_1_1GlmExpression.xhtml" target="_top" xlink:title="Exponential with probability of failure on demand, hourly failure rate, hourly repairing rate...">
<polygon fill="white" stroke="black" points="666,-166 666,-267 805,-267 805,-166 666,-166"/>
<text text-anchor="middle" x="735.5" y="-255" font-family="Helvetica,sans-Serif" font-size="10.00">scram::mef::GlmExpression</text>
<polyline fill="none" stroke="black" points="666,-248 805,-248 "/>
<text text-anchor="middle" x="735.5" y="-236" font-family="Helvetica,sans-Serif" font-size="10.00"> </text>
<polyline fill="none" stroke="black" points="666,-229 805,-229 "/>
<text text-anchor="start" x="674" y="-217" font-family="Helvetica,sans-Serif" font-size="10.00">+ GlmExpression()</text>
<text text-anchor="start" x="674" y="-206" font-family="Helvetica,sans-Serif" font-size="10.00">+ Validate()</text>
<text text-anchor="start" x="674" y="-195" font-family="Helvetica,sans-Serif" font-size="10.00">+ Mean()</text>
<text text-anchor="start" x="674" y="-184" font-family="Helvetica,sans-Serif" font-size="10.00">+ Max()</text>
<text text-anchor="start" x="674" y="-173" font-family="Helvetica,sans-Serif" font-size="10.00">+ Min()</text>
</a>
</g>
</g>
<!-- Node1&#45;&gt;Node10 -->
<g id="edge9" class="edge"><title>Node1&#45;&gt;Node10</title>
<path fill="none" stroke="midnightblue" d="M882.178,-344.053C853.517,-319.324 820.551,-290.881 793.14,-267.232"/>
<polygon fill="none" stroke="midnightblue" points="879.894,-346.704 889.752,-350.587 884.467,-341.404 879.894,-346.704"/>
</g>
<!-- Node11 -->
<g id="node11" class="node"><title>Node11</title>
<g id="a_node11"><a xlink:href="classscram_1_1mef_1_1MissionTime.xhtml" target="_top" xlink:title="The special parameter for system mission time. ">
<polygon fill="white" stroke="black" points="823.5,-160.5 823.5,-272.5 951.5,-272.5 951.5,-160.5 823.5,-160.5"/>
<text text-anchor="middle" x="887.5" y="-260.5" font-family="Helvetica,sans-Serif" font-size="10.00">scram::mef::MissionTime</text>
<polyline fill="none" stroke="black" points="823.5,-253.5 951.5,-253.5 "/>
<text text-anchor="middle" x="887.5" y="-241.5" font-family="Helvetica,sans-Serif" font-size="10.00"> </text>
<polyline fill="none" stroke="black" points="823.5,-234.5 951.5,-234.5 "/>
<text text-anchor="start" x="831.5" y="-222.5" font-family="Helvetica,sans-Serif" font-size="10.00">+ MissionTime()</text>
<text text-anchor="start" x="831.5" y="-211.5" font-family="Helvetica,sans-Serif" font-size="10.00">+ unit()</text>
<text text-anchor="start" x="831.5" y="-200.5" font-family="Helvetica,sans-Serif" font-size="10.00">+ value()</text>
<text text-anchor="start" x="831.5" y="-189.5" font-family="Helvetica,sans-Serif" font-size="10.00">+ Min()</text>
<text text-anchor="start" x="831.5" y="-178.5" font-family="Helvetica,sans-Serif" font-size="10.00">+ Mean()</text>
<text text-anchor="start" x="831.5" y="-167.5" font-family="Helvetica,sans-Serif" font-size="10.00">+ IsDeviate()</text>
</a>
</g>
</g>
<!-- Node1&#45;&gt;Node11 -->
<g id="edge10" class="edge"><title>Node1&#45;&gt;Node11</title>
<path fill="none" stroke="midnightblue" d="M919.187,-310.8C914.754,-297.749 910.317,-284.683 906.226,-272.637"/>
<polygon fill="none" stroke="midnightblue" points="915.879,-311.943 922.409,-320.286 922.507,-309.692 915.879,-311.943"/>
</g>
<!-- Node12 -->
<g id="node12" class="node"><title>Node12</title>
<g id="a_node12"><a xlink:href="classscram_1_1mef_1_1Neg.xhtml" target="_top" xlink:title="This class for negation of numerical value or another expression. ">
<polygon fill="white" stroke="black" points="969.5,-171.5 969.5,-261.5 1059.5,-261.5 1059.5,-171.5 969.5,-171.5"/>
<text text-anchor="middle" x="1014.5" y="-249.5" font-family="Helvetica,sans-Serif" font-size="10.00">scram::mef::Neg</text>
<polyline fill="none" stroke="black" points="969.5,-242.5 1059.5,-242.5 "/>
<text text-anchor="middle" x="1014.5" y="-230.5" font-family="Helvetica,sans-Serif" font-size="10.00"> </text>
<polyline fill="none" stroke="black" points="969.5,-223.5 1059.5,-223.5 "/>
<text text-anchor="start" x="977.5" y="-211.5" font-family="Helvetica,sans-Serif" font-size="10.00">+ Neg()</text>
<text text-anchor="start" x="977.5" y="-200.5" font-family="Helvetica,sans-Serif" font-size="10.00">+ Mean()</text>
<text text-anchor="start" x="977.5" y="-189.5" font-family="Helvetica,sans-Serif" font-size="10.00">+ Max()</text>
<text text-anchor="start" x="977.5" y="-178.5" font-family="Helvetica,sans-Serif" font-size="10.00">+ Min()</text>
</a>
</g>
</g>
<!-- Node1&#45;&gt;Node12 -->
<g id="edge11" class="edge"><title>Node1&#45;&gt;Node12</title>
<path fill="none" stroke="midnightblue" d="M982.314,-310.789C988.223,-293.663 994.14,-276.511 999.26,-261.672"/>
<polygon fill="none" stroke="midnightblue" points="978.99,-309.692 979.037,-320.286 985.607,-311.975 978.99,-309.692"/>
</g>
<!-- Node13 -->
<g id="node13" class="node"><title>Node13</title>
<g id="a_node13"><a xlink:href="classscram_1_1mef_1_1Parameter.xhtml" target="_top" xlink:title="This class provides a representation of a variable in basic event description. ">
<polygon fill="white" stroke="black" points="1078,-149.5 1078,-283.5 1195,-283.5 1195,-149.5 1078,-149.5"/>
<text text-anchor="middle" x="1136.5" y="-271.5" font-family="Helvetica,sans-Serif" font-size="10.00">scram::mef::Parameter</text>
<polyline fill="none" stroke="black" points="1078,-264.5 1195,-264.5 "/>
<text text-anchor="middle" x="1136.5" y="-252.5" font-family="Helvetica,sans-Serif" font-size="10.00"> </text>
<polyline fill="none" stroke="black" points="1078,-245.5 1195,-245.5 "/>
<text text-anchor="start" x="1086" y="-233.5" font-family="Helvetica,sans-Serif" font-size="10.00">+ expression()</text>
<text text-anchor="start" x="1086" y="-222.5" font-family="Helvetica,sans-Serif" font-size="10.00">+ unit()</text>
<text text-anchor="start" x="1086" y="-211.5" font-family="Helvetica,sans-Serif" font-size="10.00">+ unit()</text>
<text text-anchor="start" x="1086" y="-200.5" font-family="Helvetica,sans-Serif" font-size="10.00">+ unused()</text>
<text text-anchor="start" x="1086" y="-189.5" font-family="Helvetica,sans-Serif" font-size="10.00">+ unused()</text>
<text text-anchor="start" x="1086" y="-178.5" font-family="Helvetica,sans-Serif" font-size="10.00">+ Mean()</text>
<text text-anchor="start" x="1086" y="-167.5" font-family="Helvetica,sans-Serif" font-size="10.00">+ Max()</text>
<text text-anchor="start" x="1086" y="-156.5" font-family="Helvetica,sans-Serif" font-size="10.00">+ Min()</text>
</a>
</g>
</g>
<!-- Node1&#45;&gt;Node13 -->
<g id="edge12" class="edge"><title>Node1&#45;&gt;Node13</title>
<path fill="none" stroke="midnightblue" d="M1018.26,-335.423C1037.78,-315.951 1058.91,-294.878 1077.84,-276.005"/>
<polygon fill="none" stroke="midnightblue" points="1015.76,-332.977 1011.15,-342.517 1020.7,-337.934 1015.76,-332.977"/>
</g>
<!-- Node14 -->
<g id="node14" class="node"><title>Node14</title>
<g id="a_node14"><a xlink:href="classscram_1_1mef_1_1PeriodicTest.xhtml" target="_top" xlink:title="Periodic test with 3 phases: deploy, test, functioning. ">
<polygon fill="white" stroke="black" points="1213,-155 1213,-278 1340,-278 1340,-155 1213,-155"/>
<text text-anchor="middle" x="1276.5" y="-266" font-family="Helvetica,sans-Serif" font-size="10.00">scram::mef::PeriodicTest</text>
<polyline fill="none" stroke="black" points="1213,-259 1340,-259 "/>
<text text-anchor="middle" x="1276.5" y="-247" font-family="Helvetica,sans-Serif" font-size="10.00"> </text>
<polyline fill="none" stroke="black" points="1213,-240 1340,-240 "/>
<text text-anchor="start" x="1221" y="-228" font-family="Helvetica,sans-Serif" font-size="10.00">+ PeriodicTest()</text>
<text text-anchor="start" x="1221" y="-217" font-family="Helvetica,sans-Serif" font-size="10.00">+ PeriodicTest()</text>
<text text-anchor="start" x="1221" y="-206" font-family="Helvetica,sans-Serif" font-size="10.00">+ PeriodicTest()</text>
<text text-anchor="start" x="1221" y="-195" font-family="Helvetica,sans-Serif" font-size="10.00">+ Validate()</text>
<text text-anchor="start" x="1221" y="-184" font-family="Helvetica,sans-Serif" font-size="10.00">+ Mean()</text>
<text text-anchor="start" x="1221" y="-173" font-family="Helvetica,sans-Serif" font-size="10.00">+ Max()</text>
<text text-anchor="start" x="1221" y="-162" font-family="Helvetica,sans-Serif" font-size="10.00">+ Min()</text>
</a>
</g>
</g>
<!-- Node1&#45;&gt;Node14 -->
<g id="edge13" class="edge"><title>Node1&#45;&gt;Node14</title>
<path fill="none" stroke="midnightblue" d="M1020.77,-376.605C1073.28,-355.335 1145.66,-322.663 1203.5,-284 1206.64,-281.904 1209.77,-279.677 1212.88,-277.357"/>
<polygon fill="none" stroke="midnightblue" points="1019.19,-373.471 1011.21,-380.443 1021.79,-379.968 1019.19,-373.471"/>
</g>
<!-- Node15 -->
<g id="node15" class="node"><title>Node15</title>
<g id="a_node15"><a xlink:href="classscram_1_1mef_1_1RandomDeviate.xhtml" target="_top" xlink:title="Abstract base class for all deviate expressions. ">
<polygon fill="white" stroke="black" points="1358,-188 1358,-245 1501,-245 1501,-188 1358,-188"/>
<text text-anchor="middle" x="1429.5" y="-233" font-family="Helvetica,sans-Serif" font-size="10.00">scram::mef::RandomDeviate</text>
<polyline fill="none" stroke="black" points="1358,-226 1501,-226 "/>
<text text-anchor="middle" x="1429.5" y="-214" font-family="Helvetica,sans-Serif" font-size="10.00"> </text>
<polyline fill="none" stroke="black" points="1358,-207 1501,-207 "/>
<text text-anchor="start" x="1366" y="-195" font-family="Helvetica,sans-Serif" font-size="10.00">+ IsDeviate()</text>
</a>
</g>
</g>
<!-- Node1&#45;&gt;Node15 -->
<g id="edge14" class="edge"><title>Node1&#45;&gt;Node15</title>
<path fill="none" stroke="midnightblue" d="M1021,-390.725C1103.18,-374.469 1241.39,-340.991 1348.5,-284 1367.78,-273.744 1386.78,-258.492 1401.53,-245.18"/>
<polygon fill="none" stroke="midnightblue" points="1020.16,-387.322 1011.01,-392.67 1021.5,-394.193 1020.16,-387.322"/>
</g>
<!-- Node22 -->
<g id="node22" class="node"><title>Node22</title>
<g id="a_node22"><a xlink:href="classscram_1_1mef_1_1WeibullExpression.xhtml" target="_top" xlink:title="Weibull distribution with scale, shape, time shift, and time. ">
<polygon fill="white" stroke="black" points="1519,-166 1519,-267 1672,-267 1672,-166 1519,-166"/>
<text text-anchor="middle" x="1595.5" y="-255" font-family="Helvetica,sans-Serif" font-size="10.00">scram::mef::WeibullExpression</text>
<polyline fill="none" stroke="black" points="1519,-248 1672,-248 "/>
<text text-anchor="middle" x="1595.5" y="-236" font-family="Helvetica,sans-Serif" font-size="10.00"> </text>
<polyline fill="none" stroke="black" points="1519,-229 1672,-229 "/>
<text text-anchor="start" x="1527" y="-217" font-family="Helvetica,sans-Serif" font-size="10.00">+ WeibullExpression()</text>
<text text-anchor="start" x="1527" y="-206" font-family="Helvetica,sans-Serif" font-size="10.00">+ Validate()</text>
<text text-anchor="start" x="1527" y="-195" font-family="Helvetica,sans-Serif" font-size="10.00">+ Mean()</text>
<text text-anchor="start" x="1527" y="-184" font-family="Helvetica,sans-Serif" font-size="10.00">+ Max()</text>
<text text-anchor="start" x="1527" y="-173" font-family="Helvetica,sans-Serif" font-size="10.00">+ Min()</text>
</a>
</g>
</g>
<!-- Node1&#45;&gt;Node22 -->
<g id="edge21" class="edge"><title>Node1&#45;&gt;Node22</title>
<path fill="none" stroke="midnightblue" d="M1021.45,-398.052C1130.81,-388.234 1345.11,-360.189 1509.5,-284 1519.43,-279.397 1529.28,-273.466 1538.57,-267.046"/>
<polygon fill="none" stroke="midnightblue" points="1020.86,-394.59 1011.2,-398.946 1021.47,-401.564 1020.86,-394.59"/>
</g>
<!-- Node2 -->
<g id="node2" class="node"><title>Node2</title>
<polygon fill="white" stroke="#bfbfbf" points="915,-524.5 915,-581.5 986,-581.5 986,-524.5 915,-524.5"/>
<text text-anchor="middle" x="950.5" y="-569.5" font-family="Helvetica,sans-Serif" font-size="10.00">noncopyable</text>
<polyline fill="none" stroke="#bfbfbf" points="915,-562.5 986,-562.5 "/>
<text text-anchor="middle" x="950.5" y="-550.5" font-family="Helvetica,sans-Serif" font-size="10.00"> </text>
<polyline fill="none" stroke="#bfbfbf" points="915,-543.5 986,-543.5 "/>
<text text-anchor="middle" x="950.5" y="-531.5" font-family="Helvetica,sans-Serif" font-size="10.00"> </text>
</g>
<!-- Node2&#45;&gt;Node1 -->
<g id="edge1" class="edge"><title>Node2&#45;&gt;Node1</title>
<path fill="none" stroke="#8b1a1a" d="M950.5,-514.35C950.5,-506.08 950.5,-497.008 950.5,-487.738"/>
<polygon fill="none" stroke="#8b1a1a" points="947,-514.35 950.5,-524.35 954,-514.35 947,-514.35"/>
</g>
<!-- Node4 -->
<g id="node4" class="node"><title>Node4</title>
<g id="a_node4"><a xlink:href="classscram_1_1mef_1_1Add.xhtml" target="_top" xlink:title="This expression adds all the given expressions&#39; values. ">
<polygon fill="white" stroke="black" points="0,-17 0,-96 89,-96 89,-17 0,-17"/>
<text text-anchor="middle" x="44.5" y="-84" font-family="Helvetica,sans-Serif" font-size="10.00">scram::mef::Add</text>
<polyline fill="none" stroke="black" points="0,-77 89,-77 "/>
<text text-anchor="middle" x="44.5" y="-65" font-family="Helvetica,sans-Serif" font-size="10.00"> </text>
<polyline fill="none" stroke="black" points="0,-58 89,-58 "/>
<text text-anchor="start" x="8" y="-46" font-family="Helvetica,sans-Serif" font-size="10.00">+ Mean()</text>
<text text-anchor="start" x="8" y="-35" font-family="Helvetica,sans-Serif" font-size="10.00">+ Max()</text>
<text text-anchor="start" x="8" y="-24" font-family="Helvetica,sans-Serif" font-size="10.00">+ Min()</text>
</a>
</g>
</g>
<!-- Node3&#45;&gt;Node4 -->
<g id="edge3" class="edge"><title>Node3&#45;&gt;Node4</title>
<path fill="none" stroke="midnightblue" d="M167.077,-180.968C146.464,-161.254 120.321,-135.964 97.5,-113 92.1469,-107.613 86.5501,-101.874 81.0835,-96.206"/>
<polygon fill="none" stroke="midnightblue" points="164.755,-183.59 174.404,-187.964 169.588,-178.527 164.755,-183.59"/>
</g>
<!-- Node5 -->
<g id="node5" class="node"><title>Node5</title>
<g id="a_node5"><a xlink:href="classscram_1_1mef_1_1Div.xhtml" target="_top" xlink:title="This expression performs division operation. ">
<polygon fill="white" stroke="black" points="107,-11.5 107,-101.5 194,-101.5 194,-11.5 107,-11.5"/>
<text text-anchor="middle" x="150.5" y="-89.5" font-family="Helvetica,sans-Serif" font-size="10.00">scram::mef::Div</text>
<polyline fill="none" stroke="black" points="107,-82.5 194,-82.5 "/>
<text text-anchor="middle" x="150.5" y="-70.5" font-family="Helvetica,sans-Serif" font-size="10.00"> </text>
<polyline fill="none" stroke="black" points="107,-63.5 194,-63.5 "/>
<text text-anchor="start" x="115" y="-51.5" font-family="Helvetica,sans-Serif" font-size="10.00">+ Validate()</text>
<text text-anchor="start" x="115" y="-40.5" font-family="Helvetica,sans-Serif" font-size="10.00">+ Mean()</text>
<text text-anchor="start" x="115" y="-29.5" font-family="Helvetica,sans-Serif" font-size="10.00">+ Max()</text>
<text text-anchor="start" x="115" y="-18.5" font-family="Helvetica,sans-Serif" font-size="10.00">+ Min()</text>
</a>
</g>
</g>
<!-- Node3&#45;&gt;Node5 -->
<g id="edge4" class="edge"><title>Node3&#45;&gt;Node5</title>
<path fill="none" stroke="midnightblue" d="M191.012,-178.27C183.32,-155.339 173.417,-125.818 165.327,-101.702"/>
<polygon fill="none" stroke="midnightblue" points="187.769,-179.611 194.268,-187.979 194.406,-177.385 187.769,-179.611"/>
</g>
<!-- Node6 -->
<g id="node6" class="node"><title>Node6</title>
<g id="a_node6"><a xlink:href="classscram_1_1mef_1_1Mul.xhtml" target="_top" xlink:title="This expression performs multiplication operation. ">
<polygon fill="white" stroke="black" points="212.5,-17 212.5,-96 300.5,-96 300.5,-17 212.5,-17"/>
<text text-anchor="middle" x="256.5" y="-84" font-family="Helvetica,sans-Serif" font-size="10.00">scram::mef::Mul</text>
<polyline fill="none" stroke="black" points="212.5,-77 300.5,-77 "/>
<text text-anchor="middle" x="256.5" y="-65" font-family="Helvetica,sans-Serif" font-size="10.00"> </text>
<polyline fill="none" stroke="black" points="212.5,-58 300.5,-58 "/>
<text text-anchor="start" x="220.5" y="-46" font-family="Helvetica,sans-Serif" font-size="10.00">+ Mean()</text>
<text text-anchor="start" x="220.5" y="-35" font-family="Helvetica,sans-Serif" font-size="10.00">+ Max()</text>
<text text-anchor="start" x="220.5" y="-24" font-family="Helvetica,sans-Serif" font-size="10.00">+ Min()</text>
</a>
</g>
</g>
<!-- Node3&#45;&gt;Node6 -->
<g id="edge5" class="edge"><title>Node3&#45;&gt;Node6</title>
<path fill="none" stroke="midnightblue" d="M215.996,-178.247C224.278,-153.558 235.12,-121.235 243.503,-96.246"/>
<polygon fill="none" stroke="midnightblue" points="212.594,-177.385 212.732,-187.979 219.231,-179.611 212.594,-177.385"/>
</g>
<!-- Node7 -->
<g id="node7" class="node"><title>Node7</title>
<g id="a_node7"><a xlink:href="classscram_1_1mef_1_1Sub.xhtml" target="_top" xlink:title="This expression performs subtraction operation. ">
<polygon fill="white" stroke="black" points="318,-17 318,-96 407,-96 407,-17 318,-17"/>
<text text-anchor="middle" x="362.5" y="-84" font-family="Helvetica,sans-Serif" font-size="10.00">scram::mef::Sub</text>
<polyline fill="none" stroke="black" points="318,-77 407,-77 "/>
<text text-anchor="middle" x="362.5" y="-65" font-family="Helvetica,sans-Serif" font-size="10.00"> </text>
<polyline fill="none" stroke="black" points="318,-58 407,-58 "/>
<text text-anchor="start" x="326" y="-46" font-family="Helvetica,sans-Serif" font-size="10.00">+ Mean()</text>
<text text-anchor="start" x="326" y="-35" font-family="Helvetica,sans-Serif" font-size="10.00">+ Max()</text>
<text text-anchor="start" x="326" y="-24" font-family="Helvetica,sans-Serif" font-size="10.00">+ Min()</text>
</a>
</g>
</g>
<!-- Node3&#45;&gt;Node7 -->
<g id="edge6" class="edge"><title>Node3&#45;&gt;Node7</title>
<path fill="none" stroke="midnightblue" d="M239.923,-180.968C260.536,-161.254 286.679,-135.964 309.5,-113 314.853,-107.613 320.45,-101.874 325.917,-96.206"/>
<polygon fill="none" stroke="midnightblue" points="237.412,-178.527 232.596,-187.964 242.245,-183.59 237.412,-178.527"/>
</g>
<!-- Node16 -->
<g id="node16" class="node"><title>Node16</title>
<g id="a_node16"><a xlink:href="classscram_1_1mef_1_1BetaDeviate.xhtml" target="_top" xlink:title="Beta distribution. ">
<polygon fill="white" stroke="black" points="991.5,-6 991.5,-107 1117.5,-107 1117.5,-6 991.5,-6"/>
<text text-anchor="middle" x="1054.5" y="-95" font-family="Helvetica,sans-Serif" font-size="10.00">scram::mef::BetaDeviate</text>
<polyline fill="none" stroke="black" points="991.5,-88 1117.5,-88 "/>
<text text-anchor="middle" x="1054.5" y="-76" font-family="Helvetica,sans-Serif" font-size="10.00"> </text>
<polyline fill="none" stroke="black" points="991.5,-69 1117.5,-69 "/>
<text text-anchor="start" x="999.5" y="-57" font-family="Helvetica,sans-Serif" font-size="10.00">+ BetaDeviate()</text>
<text text-anchor="start" x="999.5" y="-46" font-family="Helvetica,sans-Serif" font-size="10.00">+ Validate()</text>
<text text-anchor="start" x="999.5" y="-35" font-family="Helvetica,sans-Serif" font-size="10.00">+ Mean()</text>
<text text-anchor="start" x="999.5" y="-24" font-family="Helvetica,sans-Serif" font-size="10.00">+ Max()</text>
<text text-anchor="start" x="999.5" y="-13" font-family="Helvetica,sans-Serif" font-size="10.00">+ Min()</text>
</a>
</g>
</g>
<!-- Node15&#45;&gt;Node16 -->
<g id="edge15" class="edge"><title>Node15&#45;&gt;Node16</title>
<path fill="none" stroke="midnightblue" d="M1395.52,-180.834C1381.97,-168.94 1365.55,-156.698 1348.5,-149 1257.4,-107.87 1218.22,-152.727 1126.5,-113 1122.59,-111.306 1118.7,-109.353 1114.88,-107.212"/>
<polygon fill="none" stroke="midnightblue" points="1393.39,-183.628 1403.14,-187.759 1398.09,-178.446 1393.39,-183.628"/>
</g>
<!-- Node17 -->
<g id="node17" class="node"><title>Node17</title>
<g id="a_node17"><a xlink:href="classscram_1_1mef_1_1GammaDeviate.xhtml" target="_top" xlink:title="Gamma distribution. ">
<polygon fill="white" stroke="black" points="1135.5,-6 1135.5,-107 1275.5,-107 1275.5,-6 1135.5,-6"/>
<text text-anchor="middle" x="1205.5" y="-95" font-family="Helvetica,sans-Serif" font-size="10.00">scram::mef::GammaDeviate</text>
<polyline fill="none" stroke="black" points="1135.5,-88 1275.5,-88 "/>
<text text-anchor="middle" x="1205.5" y="-76" font-family="Helvetica,sans-Serif" font-size="10.00"> </text>
<polyline fill="none" stroke="black" points="1135.5,-69 1275.5,-69 "/>
<text text-anchor="start" x="1143.5" y="-57" font-family="Helvetica,sans-Serif" font-size="10.00">+ GammaDeviate()</text>
<text text-anchor="start" x="1143.5" y="-46" font-family="Helvetica,sans-Serif" font-size="10.00">+ Validate()</text>
<text text-anchor="start" x="1143.5" y="-35" font-family="Helvetica,sans-Serif" font-size="10.00">+ Mean()</text>
<text text-anchor="start" x="1143.5" y="-24" font-family="Helvetica,sans-Serif" font-size="10.00">+ Max()</text>
<text text-anchor="start" x="1143.5" y="-13" font-family="Helvetica,sans-Serif" font-size="10.00">+ Min()</text>
</a>
</g>
</g>
<!-- Node15&#45;&gt;Node17 -->
<g id="edge16" class="edge"><title>Node15&#45;&gt;Node17</title>
<path fill="none" stroke="midnightblue" d="M1390.71,-181.336C1377.67,-170.49 1362.8,-158.782 1348.5,-149 1321.56,-130.575 1312.11,-130.402 1284.5,-113 1281.52,-111.123 1278.5,-109.181 1275.46,-107.196"/>
<polygon fill="none" stroke="midnightblue" points="1388.66,-184.189 1398.57,-187.953 1393.17,-178.834 1388.66,-184.189"/>
</g>
<!-- Node18 -->
<g id="node18" class="node"><title>Node18</title>
<g id="a_node18"><a xlink:href="classscram_1_1mef_1_1Histogram.xhtml" target="_top" xlink:title="Histogram distribution. ">
<polygon fill="white" stroke="black" points="1294,-6 1294,-107 1411,-107 1411,-6 1294,-6"/>
<text text-anchor="middle" x="1352.5" y="-95" font-family="Helvetica,sans-Serif" font-size="10.00">scram::mef::Histogram</text>
<polyline fill="none" stroke="black" points="1294,-88 1411,-88 "/>
<text text-anchor="middle" x="1352.5" y="-76" font-family="Helvetica,sans-Serif" font-size="10.00"> </text>
<polyline fill="none" stroke="black" points="1294,-69 1411,-69 "/>
<text text-anchor="start" x="1302" y="-57" font-family="Helvetica,sans-Serif" font-size="10.00">+ Histogram()</text>
<text text-anchor="start" x="1302" y="-46" font-family="Helvetica,sans-Serif" font-size="10.00">+ Validate()</text>
<text text-anchor="start" x="1302" y="-35" font-family="Helvetica,sans-Serif" font-size="10.00">+ Mean()</text>
<text text-anchor="start" x="1302" y="-24" font-family="Helvetica,sans-Serif" font-size="10.00">+ Max()</text>
<text text-anchor="start" x="1302" y="-13" font-family="Helvetica,sans-Serif" font-size="10.00">+ Min()</text>
</a>
</g>
</g>
<!-- Node15&#45;&gt;Node18 -->
<g id="edge17" class="edge"><title>Node15&#45;&gt;Node18</title>
<path fill="none" stroke="midnightblue" d="M1411.67,-178.912C1401.26,-157.547 1387.98,-130.299 1376.64,-107.032"/>
<polygon fill="none" stroke="midnightblue" points="1408.56,-180.522 1416.09,-187.979 1414.85,-177.456 1408.56,-180.522"/>
</g>
<!-- Node19 -->
<g id="node19" class="node"><title>Node19</title>
<g id="a_node19"><a xlink:href="classscram_1_1mef_1_1LogNormalDeviate.xhtml" target="_top" xlink:title="Log&#45;normal distribution. ">
<polygon fill="white" stroke="black" points="1429,-0.5 1429,-112.5 1582,-112.5 1582,-0.5 1429,-0.5"/>
<text text-anchor="middle" x="1505.5" y="-100.5" font-family="Helvetica,sans-Serif" font-size="10.00">scram::mef::LogNormalDeviate</text>
<polyline fill="none" stroke="black" points="1429,-93.5 1582,-93.5 "/>
<text text-anchor="middle" x="1505.5" y="-81.5" font-family="Helvetica,sans-Serif" font-size="10.00"> </text>
<polyline fill="none" stroke="black" points="1429,-74.5 1582,-74.5 "/>
<text text-anchor="start" x="1437" y="-62.5" font-family="Helvetica,sans-Serif" font-size="10.00">+ LogNormalDeviate()</text>
<text text-anchor="start" x="1437" y="-51.5" font-family="Helvetica,sans-Serif" font-size="10.00">+ LogNormalDeviate()</text>
<text text-anchor="start" x="1437" y="-40.5" font-family="Helvetica,sans-Serif" font-size="10.00">+ Validate()</text>
<text text-anchor="start" x="1437" y="-29.5" font-family="Helvetica,sans-Serif" font-size="10.00">+ Mean()</text>
<text text-anchor="start" x="1437" y="-18.5" font-family="Helvetica,sans-Serif" font-size="10.00">+ Max()</text>
<text text-anchor="start" x="1437" y="-7.5" font-family="Helvetica,sans-Serif" font-size="10.00">+ Min()</text>
</a>
</g>
</g>
<!-- Node15&#45;&gt;Node19 -->
<g id="edge18" class="edge"><title>Node15&#45;&gt;Node19</title>
<path fill="none" stroke="midnightblue" d="M1447.18,-178.748C1456.65,-159.064 1468.5,-134.423 1479.04,-112.504"/>
<polygon fill="none" stroke="midnightblue" points="1443.92,-177.45 1442.74,-187.979 1450.23,-180.484 1443.92,-177.45"/>
</g>
<!-- Node20 -->
<g id="node20" class="node"><title>Node20</title>
<g id="a_node20"><a xlink:href="classscram_1_1mef_1_1NormalDeviate.xhtml" target="_top" xlink:title="Normal distribution. ">
<polygon fill="white" stroke="black" points="1600,-6 1600,-107 1737,-107 1737,-6 1600,-6"/>
<text text-anchor="middle" x="1668.5" y="-95" font-family="Helvetica,sans-Serif" font-size="10.00">scram::mef::NormalDeviate</text>
<polyline fill="none" stroke="black" points="1600,-88 1737,-88 "/>
<text text-anchor="middle" x="1668.5" y="-76" font-family="Helvetica,sans-Serif" font-size="10.00"> </text>
<polyline fill="none" stroke="black" points="1600,-69 1737,-69 "/>
<text text-anchor="start" x="1608" y="-57" font-family="Helvetica,sans-Serif" font-size="10.00">+ NormalDeviate()</text>
<text text-anchor="start" x="1608" y="-46" font-family="Helvetica,sans-Serif" font-size="10.00">+ Validate()</text>
<text text-anchor="start" x="1608" y="-35" font-family="Helvetica,sans-Serif" font-size="10.00">+ Mean()</text>
<text text-anchor="start" x="1608" y="-24" font-family="Helvetica,sans-Serif" font-size="10.00">+ Max()</text>
<text text-anchor="start" x="1608" y="-13" font-family="Helvetica,sans-Serif" font-size="10.00">+ Min()</text>
</a>
</g>
</g>
<!-- Node15&#45;&gt;Node20 -->
<g id="edge19" class="edge"><title>Node15&#45;&gt;Node20</title>
<path fill="none" stroke="midnightblue" d="M1466.57,-181.068C1479.56,-170.004 1494.64,-158.234 1509.5,-149 1542.96,-128.212 1556.28,-132.518 1590.5,-113 1593.82,-111.106 1597.17,-109.105 1600.53,-107.03"/>
<polygon fill="none" stroke="midnightblue" points="1464.03,-178.639 1458.77,-187.836 1468.62,-183.927 1464.03,-178.639"/>
</g>
<!-- Node21 -->
<g id="node21" class="node"><title>Node21</title>
<g id="a_node21"><a xlink:href="classscram_1_1mef_1_1UniformDeviate.xhtml" target="_top" xlink:title="Uniform distribution. ">
<polygon fill="white" stroke="black" points="1755.5,-6 1755.5,-107 1895.5,-107 1895.5,-6 1755.5,-6"/>
<text text-anchor="middle" x="1825.5" y="-95" font-family="Helvetica,sans-Serif" font-size="10.00">scram::mef::UniformDeviate</text>
<polyline fill="none" stroke="black" points="1755.5,-88 1895.5,-88 "/>
<text text-anchor="middle" x="1825.5" y="-76" font-family="Helvetica,sans-Serif" font-size="10.00"> </text>
<polyline fill="none" stroke="black" points="1755.5,-69 1895.5,-69 "/>
<text text-anchor="start" x="1763.5" y="-57" font-family="Helvetica,sans-Serif" font-size="10.00">+ UniformDeviate()</text>
<text text-anchor="start" x="1763.5" y="-46" font-family="Helvetica,sans-Serif" font-size="10.00">+ Validate()</text>
<text text-anchor="start" x="1763.5" y="-35" font-family="Helvetica,sans-Serif" font-size="10.00">+ Mean()</text>
<text text-anchor="start" x="1763.5" y="-24" font-family="Helvetica,sans-Serif" font-size="10.00">+ Max()</text>
<text text-anchor="start" x="1763.5" y="-13" font-family="Helvetica,sans-Serif" font-size="10.00">+ Min()</text>
</a>
</g>
</g>
<!-- Node15&#45;&gt;Node21 -->
<g id="edge20" class="edge"><title>Node15&#45;&gt;Node21</title>
<path fill="none" stroke="midnightblue" d="M1462.96,-180.743C1476.33,-168.839 1492.56,-156.614 1509.5,-149 1606.27,-105.499 1646.93,-152.252 1745.5,-113 1749.74,-111.312 1753.98,-109.362 1758.16,-107.225"/>
<polygon fill="none" stroke="midnightblue" points="1460.42,-178.326 1455.44,-187.678 1465.16,-183.473 1460.42,-178.326"/>
</g>
</g>
</svg>
        <g id="navigator" transform="translate(0 0)" fill="#404254">
                <rect fill="#f2f5e9" fill-opacity="0.5" stroke="#606060" stroke-width=".5" x="0" y="0" width="60" height="60"/>
                <use id="zoomplus" xlink:href="#zoomPlus" x="17" y="9" onmousedown="handleZoom(evt,'in')"/>
                <use id="zoomminus" xlink:href="#zoomMin" x="42" y="9" onmousedown="handleZoom(evt,'out')"/>
                <use id="reset" xlink:href="#resetDef" x="30" y="36" onmousedown="handleReset()"/>
                <g id="arrowUp" xlink:href="#dirArrow" transform="translate(30 24)" onmousedown="handlePan(0,-1)">
                  <use xlink:href="#rim" fill="#404040">
                        <set attributeName="fill" to="#808080" begin="arrowUp.mouseover" end="arrowUp.mouseout"/>
                  </use>
                  <path fill="none" stroke="white" stroke-width="1.5" d="M0,-3.0v7 M-2.5,-0.5L0,-3.0L2.5,-0.5"/>
                </g>
                <g id="arrowRight" xlink:href="#dirArrow" transform="rotate(90) translate(36 -43)" onmousedown="handlePan(1,0)">
                  <use xlink:href="#rim" fill="#404040">
                        <set attributeName="fill" to="#808080" begin="arrowRight.mouseover" end="arrowRight.mouseout"/>
                  </use>
                  <path fill="none" stroke="white" stroke-width="1.5" d="M0,-3.0v7 M-2.5,-0.5L0,-3.0L2.5,-0.5"/>
                </g>
                <g id="arrowDown" xlink:href="#dirArrow" transform="rotate(180) translate(-30 -48)" onmousedown="handlePan(0,1)">
                  <use xlink:href="#rim" fill="#404040">
                        <set attributeName="fill" to="#808080" begin="arrowDown.mouseover" end="arrowDown.mouseout"/>
                  </use>
                  <path fill="none" stroke="white" stroke-width="1.5" d="M0,-3.0v7 M-2.5,-0.5L0,-3.0L2.5,-0.5"/>
                </g>
                <g id="arrowLeft" xlink:href="#dirArrow" transform="rotate(270) translate(-36 17)" onmousedown="handlePan(-1,0)">
                  <use xlink:href="#rim" fill="#404040">
                        <set attributeName="fill" to="#808080" begin="arrowLeft.mouseover" end="arrowLeft.mouseout"/>
                  </use>
                  <path fill="none" stroke="white" stroke-width="1.5" d="M0,-3.0v7 M-2.5,-0.5L0,-3.0L2.5,-0.5"/>
                </g>
        </g>
        <svg viewBox="0 0 15 15" width="100%" height="30px" preserveAspectRatio="xMaxYMin meet">
         <g id="arrow_out" transform="scale(0.3 0.3)">
          <a xlink:href="classscram_1_1mef_1_1Expression__inherit__graph_org.svg" target="_base">
           <rect id="button" ry="5" rx="5" y="6" x="6" height="38" width="38"
                fill="#f2f5e9" fill-opacity="0.5" stroke="#606060" stroke-width="1.0"/>
           <path id="arrow"
             d="M 11.500037,31.436501 C 11.940474,20.09759 22.043105,11.32322 32.158766,21.979434 L 37.068811,17.246167 C 37.068811,17.246167 37.088388,32 37.088388,32 L 22.160133,31.978069 C 22.160133,31.978069 26.997745,27.140456 26.997745,27.140456 C 18.528582,18.264221 13.291696,25.230495 11.500037,31.436501 z"
             style="fill:#404040;"/>
          </a>
         </g>
        </svg>
</svg>
