<?xml version="1.0" encoding="UTF-8" standalone="no"?>
<!DOCTYPE svg PUBLIC "-//W3C//DTD SVG 1.1//EN"
 "http://www.w3.org/Graphics/SVG/1.1/DTD/svg11.dtd">
<!-- Generated by graphviz version 2.38.0 (20140413.2041)
 -->
<!-- Title: scram::core::Preprocessor::MergeCommonArgs Pages: 1 -->
<svg width="651pt" height="502pt"
 viewBox="0.00 0.00 651.00 501.80" xmlns="http://www.w3.org/2000/svg" xmlns:xlink="http://www.w3.org/1999/xlink">
<g id="graph0" class="graph" transform="scale(1 1) rotate(0) translate(4 497.796)">
<title>scram::core::Preprocessor::MergeCommonArgs</title>
<polygon fill="white" stroke="none" points="-4,4 -4,-497.796 647,-497.796 647,4 -4,4"/>
<!-- Node1 -->
<g id="node1" class="node"><title>Node1</title>
<polygon fill="#bfbfbf" stroke="black" points="0,-245.5 0,-275.5 132,-275.5 132,-245.5 0,-245.5"/>
<text text-anchor="start" x="8" y="-263.5" font-family="Helvetica,sans-Serif" font-size="10.00">scram::core::Preprocessor</text>
<text text-anchor="middle" x="66" y="-252.5" font-family="Helvetica,sans-Serif" font-size="10.00">::MergeCommonArgs</text>
</g>
<!-- Node2 -->
<g id="node2" class="node"><title>Node2</title>
<g id="a_node2"><a xlink:href="classscram_1_1core_1_1Pdag.xhtml#aa883d0e58b9faab69186bec03574c633" target="_top" xlink:title="Clears marks from graph nodes. ">
<polygon fill="white" stroke="black" points="354,-444.5 354,-474.5 457,-474.5 457,-444.5 354,-444.5"/>
<text text-anchor="start" x="362" y="-462.5" font-family="Helvetica,sans-Serif" font-size="10.00">scram::core::Pdag::</text>
<text text-anchor="middle" x="405.5" y="-451.5" font-family="Helvetica,sans-Serif" font-size="10.00">Clear</text>
</a>
</g>
</g>
<!-- Node1&#45;&gt;Node2 -->
<g id="edge1" class="edge"><title>Node1&#45;&gt;Node2</title>
<path fill="none" stroke="midnightblue" d="M68.8243,-275.514C74.6279,-315.856 96.6989,-426.581 168,-471.5 224.253,-506.939 303.813,-492.814 354.784,-477.604"/>
<polygon fill="midnightblue" stroke="midnightblue" points="356.07,-480.87 364.582,-474.562 353.994,-474.185 356.07,-480.87"/>
</g>
<!-- Node3 -->
<g id="node3" class="node"><title>Node3</title>
<g id="a_node3"><a xlink:href="classscram_1_1core_1_1Preprocessor.xhtml#aba011f495cdec8449a315c17fe67a8c0" target="_top" xlink:title="Filters merge candidates and their shared arguments to detect opportunities for simplifications like ...">
<polygon fill="white" stroke="black" points="168,-431.5 168,-461.5 300,-461.5 300,-431.5 168,-431.5"/>
<text text-anchor="start" x="176" y="-449.5" font-family="Helvetica,sans-Serif" font-size="10.00">scram::core::Preprocessor</text>
<text text-anchor="middle" x="234" y="-438.5" font-family="Helvetica,sans-Serif" font-size="10.00">::FilterMergeCandidates</text>
</a>
</g>
</g>
<!-- Node1&#45;&gt;Node3 -->
<g id="edge2" class="edge"><title>Node1&#45;&gt;Node3</title>
<path fill="none" stroke="midnightblue" d="M72.5543,-275.778C84.8549,-307.561 117.375,-381.267 168,-422.5 169.574,-423.782 171.223,-424.999 172.93,-426.155"/>
<polygon fill="midnightblue" stroke="midnightblue" points="171.482,-429.364 181.873,-431.431 175.039,-423.335 171.482,-429.364"/>
</g>
<!-- Node4 -->
<g id="node4" class="node"><title>Node4</title>
<g id="a_node4"><a xlink:href="classscram_1_1core_1_1Preprocessor.xhtml#aef197badfb47bb3c604fd93d6260e635" target="_top" xlink:title="Gathers common arguments of the gates in the group of a specific operator. ">
<polygon fill="white" stroke="black" points="168,-382.5 168,-412.5 300,-412.5 300,-382.5 168,-382.5"/>
<text text-anchor="start" x="176" y="-400.5" font-family="Helvetica,sans-Serif" font-size="10.00">scram::core::Preprocessor</text>
<text text-anchor="middle" x="234" y="-389.5" font-family="Helvetica,sans-Serif" font-size="10.00">::GatherCommonArgs</text>
</a>
</g>
</g>
<!-- Node1&#45;&gt;Node4 -->
<g id="edge3" class="edge"><title>Node1&#45;&gt;Node4</title>
<path fill="none" stroke="midnightblue" d="M76.9757,-275.824C93.3093,-299.802 127.975,-346.261 168,-373.5 170.253,-375.033 172.617,-376.483 175.053,-377.853"/>
<polygon fill="midnightblue" stroke="midnightblue" points="173.628,-381.055 184.129,-382.463 176.798,-374.813 173.628,-381.055"/>
</g>
<!-- Node5 -->
<g id="node5" class="node"><title>Node5</title>
<g id="a_node5"><a xlink:href="classscram_1_1core_1_1Preprocessor.xhtml#af4dae5abf76e5da8b8c9f4371550b7dc" target="_top" xlink:title="Gathers all modules in the PDAG. ">
<polygon fill="white" stroke="black" points="168,-333.5 168,-363.5 300,-363.5 300,-333.5 168,-333.5"/>
<text text-anchor="start" x="176" y="-351.5" font-family="Helvetica,sans-Serif" font-size="10.00">scram::core::Preprocessor</text>
<text text-anchor="middle" x="234" y="-340.5" font-family="Helvetica,sans-Serif" font-size="10.00">::GatherModules</text>
</a>
</g>
</g>
<!-- Node1&#45;&gt;Node5 -->
<g id="edge4" class="edge"><title>Node1&#45;&gt;Node5</title>
<path fill="none" stroke="midnightblue" d="M91.9759,-275.671C112.209,-287.758 141.592,-304.857 168,-318.5 174.988,-322.11 182.492,-325.768 189.832,-329.23"/>
<polygon fill="midnightblue" stroke="midnightblue" points="188.445,-332.446 198.988,-333.493 191.4,-326.099 188.445,-332.446"/>
</g>
<!-- Node8 -->
<g id="node8" class="node"><title>Node8</title>
<g id="a_node8"><a xlink:href="classscram_1_1core_1_1Pdag.xhtml#ae9407efbb00e5f28aecb40db2ab7925b" target="_top" xlink:title="scram::core::Pdag::root">
<polygon fill="white" stroke="black" points="346,-296 346,-315 465,-315 465,-296 346,-296"/>
<text text-anchor="middle" x="405.5" y="-303" font-family="Helvetica,sans-Serif" font-size="10.00">scram::core::Pdag::root</text>
</a>
</g>
</g>
<!-- Node1&#45;&gt;Node8 -->
<g id="edge18" class="edge"><title>Node1&#45;&gt;Node8</title>
<path fill="none" stroke="midnightblue" d="M123.863,-275.533C138.187,-278.899 153.59,-282.161 168,-284.5 224.102,-293.607 288.378,-298.996 335.748,-302.03"/>
<polygon fill="midnightblue" stroke="midnightblue" points="335.694,-305.533 345.892,-302.66 336.128,-298.547 335.694,-305.533"/>
</g>
<!-- Node9 -->
<g id="node9" class="node"><title>Node9</title>
<g id="a_node9"><a xlink:href="classscram_1_1core_1_1Preprocessor.xhtml#adabd895d60a8ee0950f75da9a98fa155" target="_top" xlink:title="Groups candidates with common arguments. ">
<polygon fill="white" stroke="black" points="168,-245.5 168,-275.5 300,-275.5 300,-245.5 168,-245.5"/>
<text text-anchor="start" x="176" y="-263.5" font-family="Helvetica,sans-Serif" font-size="10.00">scram::core::Preprocessor</text>
<text text-anchor="middle" x="234" y="-252.5" font-family="Helvetica,sans-Serif" font-size="10.00">::GroupCandidatesByArgs</text>
</a>
</g>
</g>
<!-- Node1&#45;&gt;Node9 -->
<g id="edge9" class="edge"><title>Node1&#45;&gt;Node9</title>
<path fill="none" stroke="midnightblue" d="M132.131,-260.5C140.461,-260.5 149.044,-260.5 157.521,-260.5"/>
<polygon fill="midnightblue" stroke="midnightblue" points="157.784,-264 167.784,-260.5 157.784,-257 157.784,-264"/>
</g>
<!-- Node10 -->
<g id="node10" class="node"><title>Node10</title>
<g id="a_node10"><a xlink:href="classscram_1_1core_1_1Preprocessor.xhtml#a4f35278c0542722dc42cc74358522a64" target="_top" xlink:title="Groups common args for merging. ">
<polygon fill="white" stroke="black" points="168,-196.5 168,-226.5 300,-226.5 300,-196.5 168,-196.5"/>
<text text-anchor="start" x="176" y="-214.5" font-family="Helvetica,sans-Serif" font-size="10.00">scram::core::Preprocessor</text>
<text text-anchor="middle" x="234" y="-203.5" font-family="Helvetica,sans-Serif" font-size="10.00">::GroupCommonArgs</text>
</a>
</g>
</g>
<!-- Node1&#45;&gt;Node10 -->
<g id="edge10" class="edge"><title>Node1&#45;&gt;Node10</title>
<path fill="none" stroke="midnightblue" d="M118.16,-245.399C135.281,-240.345 154.532,-234.662 172.308,-229.415"/>
<polygon fill="midnightblue" stroke="midnightblue" points="173.409,-232.74 182.009,-226.552 171.427,-226.026 173.409,-232.74"/>
</g>
<!-- Node13 -->
<g id="node13" class="node"><title>Node13</title>
<g id="a_node13"><a xlink:href="classscram_1_1core_1_1Preprocessor.xhtml#af9b5fba2247a02afe6cf480a405b6ca0" target="_top" xlink:title="Finds intersections of common arguments of gates. ">
<polygon fill="white" stroke="black" points="168,-147.5 168,-177.5 300,-177.5 300,-147.5 168,-147.5"/>
<text text-anchor="start" x="176" y="-165.5" font-family="Helvetica,sans-Serif" font-size="10.00">scram::core::Preprocessor</text>
<text text-anchor="middle" x="234" y="-154.5" font-family="Helvetica,sans-Serif" font-size="10.00">::GroupCommonParents</text>
</a>
</g>
</g>
<!-- Node1&#45;&gt;Node13 -->
<g id="edge13" class="edge"><title>Node1&#45;&gt;Node13</title>
<path fill="none" stroke="midnightblue" d="M84.5895,-245.235C103.978,-228.997 136.596,-203.372 168,-186.5 171.209,-184.776 174.568,-183.124 177.997,-181.551"/>
<polygon fill="midnightblue" stroke="midnightblue" points="179.394,-184.761 187.182,-177.578 176.614,-178.336 179.394,-184.761"/>
</g>
<!-- Node14 -->
<g id="node14" class="node"><title>Node14</title>
<g id="a_node14"><a xlink:href="classscram_1_1core_1_1Preprocessor.xhtml#a13778626bd9ce007e01b7bbd8d11e850" target="_top" xlink:title="Marks common arguments of gates with a specific operator. ">
<polygon fill="white" stroke="black" points="168,-98.5 168,-128.5 300,-128.5 300,-98.5 168,-98.5"/>
<text text-anchor="start" x="176" y="-116.5" font-family="Helvetica,sans-Serif" font-size="10.00">scram::core::Preprocessor</text>
<text text-anchor="middle" x="234" y="-105.5" font-family="Helvetica,sans-Serif" font-size="10.00">::MarkCommonArgs</text>
</a>
</g>
</g>
<!-- Node1&#45;&gt;Node14 -->
<g id="edge14" class="edge"><title>Node1&#45;&gt;Node14</title>
<path fill="none" stroke="midnightblue" d="M75.6343,-245.45C91.0459,-219.835 125.677,-167.619 168,-137.5 170.058,-136.035 172.216,-134.649 174.444,-133.339"/>
<polygon fill="midnightblue" stroke="midnightblue" points="176.107,-136.419 183.316,-128.655 172.838,-130.229 176.107,-136.419"/>
</g>
<!-- Node15 -->
<g id="node15" class="node"><title>Node15</title>
<g id="a_node15"><a xlink:href="classscram_1_1core_1_1Pdag.xhtml#a1ec495a3595a7d088f1889f46eeb725d" target="_top" xlink:title="Removes gates of Null logic with a single argument (maybe constant). ">
<polygon fill="white" stroke="black" points="182.5,-49.5 182.5,-79.5 285.5,-79.5 285.5,-49.5 182.5,-49.5"/>
<text text-anchor="start" x="190.5" y="-67.5" font-family="Helvetica,sans-Serif" font-size="10.00">scram::core::Pdag::</text>
<text text-anchor="middle" x="234" y="-56.5" font-family="Helvetica,sans-Serif" font-size="10.00">RemoveNullGates</text>
</a>
</g>
</g>
<!-- Node1&#45;&gt;Node15 -->
<g id="edge15" class="edge"><title>Node1&#45;&gt;Node15</title>
<path fill="none" stroke="midnightblue" d="M71.9316,-245.293C83.4349,-212.126 115.151,-132.723 168,-88.5 169.762,-87.026 171.622,-85.6384 173.556,-84.3324"/>
<polygon fill="midnightblue" stroke="midnightblue" points="175.589,-87.1979 182.438,-79.1152 172.043,-81.1622 175.589,-87.1979"/>
</g>
<!-- Node17 -->
<g id="node17" class="node"><title>Node17</title>
<g id="a_node17"><a xlink:href="classscram_1_1core_1_1Preprocessor.xhtml#acf534fb9d9510d712a78cb5d27572ec1" target="_top" xlink:title="Transforms common arguments of gates into new gates. ">
<polygon fill="white" stroke="black" points="168,-0.5 168,-30.5 300,-30.5 300,-0.5 168,-0.5"/>
<text text-anchor="start" x="176" y="-18.5" font-family="Helvetica,sans-Serif" font-size="10.00">scram::core::Preprocessor</text>
<text text-anchor="middle" x="234" y="-7.5" font-family="Helvetica,sans-Serif" font-size="10.00">::TransformCommonArgs</text>
</a>
</g>
</g>
<!-- Node1&#45;&gt;Node17 -->
<g id="edge19" class="edge"><title>Node1&#45;&gt;Node17</title>
<path fill="none" stroke="midnightblue" d="M69.7627,-245.265C77.7144,-205.689 104.292,-98.6024 168,-39.5 169.273,-38.3188 170.61,-37.1945 171.998,-36.1245"/>
<polygon fill="midnightblue" stroke="midnightblue" points="174.009,-38.9909 180.439,-30.5705 170.162,-33.143 174.009,-38.9909"/>
</g>
<!-- Node5&#45;&gt;Node2 -->
<g id="edge6" class="edge"><title>Node5&#45;&gt;Node2</title>
<path fill="none" stroke="midnightblue" d="M279.961,-363.564C286.851,-366.502 293.744,-369.827 300,-373.5 317.96,-384.046 319.937,-390.242 336,-403.5 349.799,-414.89 365.223,-427.509 377.936,-437.88"/>
<polygon fill="midnightblue" stroke="midnightblue" points="375.892,-440.73 385.854,-444.336 380.315,-435.304 375.892,-440.73"/>
</g>
<!-- Node6 -->
<g id="node6" class="node"><title>Node6</title>
<g id="a_node6"><a xlink:href="classscram_1_1core_1_1Gate.xhtml#aa793eeaa12244c5b39a0d80e5b1518ae" target="_top" xlink:title="scram::core::Gate::args">
<polygon fill="white" stroke="black" points="345.5,-375 345.5,-394 465.5,-394 465.5,-375 345.5,-375"/>
<text text-anchor="middle" x="405.5" y="-382" font-family="Helvetica,sans-Serif" font-size="10.00">scram::core::Gate::args</text>
</a>
</g>
</g>
<!-- Node5&#45;&gt;Node6 -->
<g id="edge5" class="edge"><title>Node5&#45;&gt;Node6</title>
<path fill="none" stroke="midnightblue" d="M300.048,-362.316C316.361,-365.78 333.704,-369.464 349.475,-372.813"/>
<polygon fill="midnightblue" stroke="midnightblue" points="349.076,-376.306 359.585,-374.96 350.53,-369.459 349.076,-376.306"/>
</g>
<!-- Node7 -->
<g id="node7" class="node"><title>Node7</title>
<g id="a_node7"><a xlink:href="classscram_1_1core_1_1Gate.xhtml#ab0e18a9481c5e712cbb0b0ff27ba72a5" target="_top" xlink:title="Marks are used for linear traversal of graphs. ">
<polygon fill="white" stroke="black" points="344,-337 344,-356 467,-356 467,-337 344,-337"/>
<text text-anchor="middle" x="405.5" y="-344" font-family="Helvetica,sans-Serif" font-size="10.00">scram::core::Gate::mark</text>
</a>
</g>
</g>
<!-- Node5&#45;&gt;Node7 -->
<g id="edge7" class="edge"><title>Node5&#45;&gt;Node7</title>
<path fill="none" stroke="midnightblue" d="M300.048,-347.732C311.056,-347.603 322.533,-347.467 333.68,-347.336"/>
<polygon fill="midnightblue" stroke="midnightblue" points="333.842,-350.834 343.8,-347.216 333.76,-343.835 333.842,-350.834"/>
</g>
<!-- Node5&#45;&gt;Node8 -->
<g id="edge8" class="edge"><title>Node5&#45;&gt;Node8</title>
<path fill="none" stroke="midnightblue" d="M294.283,-333.461C314.851,-328.243 337.625,-322.465 357.106,-317.523"/>
<polygon fill="midnightblue" stroke="midnightblue" points="358.132,-320.874 366.965,-315.022 356.411,-314.089 358.132,-320.874"/>
</g>
<!-- Node11 -->
<g id="node11" class="node"><title>Node11</title>
<g id="a_node11"><a xlink:href="classscram_1_1core_1_1Preprocessor.xhtml#a3c51e098f0ff45be068f68296323f45f" target="_top" xlink:title="Finds an optimal way of grouping options. ">
<polygon fill="white" stroke="black" points="339.5,-196.5 339.5,-226.5 471.5,-226.5 471.5,-196.5 339.5,-196.5"/>
<text text-anchor="start" x="347.5" y="-214.5" font-family="Helvetica,sans-Serif" font-size="10.00">scram::core::Preprocessor</text>
<text text-anchor="middle" x="405.5" y="-203.5" font-family="Helvetica,sans-Serif" font-size="10.00">::FindOptionGroup</text>
</a>
</g>
</g>
<!-- Node10&#45;&gt;Node11 -->
<g id="edge11" class="edge"><title>Node10&#45;&gt;Node11</title>
<path fill="none" stroke="midnightblue" d="M300.048,-211.5C309.61,-211.5 319.527,-211.5 329.273,-211.5"/>
<polygon fill="midnightblue" stroke="midnightblue" points="329.346,-215 339.346,-211.5 329.346,-208 329.346,-215"/>
</g>
<!-- Node12 -->
<g id="node12" class="node"><title>Node12</title>
<g id="a_node12"><a xlink:href="classscram_1_1core_1_1Preprocessor.xhtml#adbaee2a993e0538280dc437d0a3b849f" target="_top" xlink:title="Finds the starting option for group formation. ">
<polygon fill="white" stroke="black" points="511,-196.5 511,-226.5 643,-226.5 643,-196.5 511,-196.5"/>
<text text-anchor="start" x="519" y="-214.5" font-family="Helvetica,sans-Serif" font-size="10.00">scram::core::Preprocessor</text>
<text text-anchor="middle" x="577" y="-203.5" font-family="Helvetica,sans-Serif" font-size="10.00">::FindBaseOption</text>
</a>
</g>
</g>
<!-- Node11&#45;&gt;Node12 -->
<g id="edge12" class="edge"><title>Node11&#45;&gt;Node12</title>
<path fill="none" stroke="midnightblue" d="M471.548,-211.5C481.11,-211.5 491.027,-211.5 500.773,-211.5"/>
<polygon fill="midnightblue" stroke="midnightblue" points="500.846,-215 510.846,-211.5 500.846,-208 500.846,-215"/>
</g>
<!-- Node16 -->
<g id="node16" class="node"><title>Node16</title>
<g id="a_node16"><a xlink:href="pdag_8h.xhtml#aa00922ee92d35a300d86442f8b9ad331" target="_top" xlink:title="Traverses and visits gates and nodes in the graph. ">
<polygon fill="white" stroke="black" points="336,-55 336,-74 475,-74 475,-55 336,-55"/>
<text text-anchor="middle" x="405.5" y="-62" font-family="Helvetica,sans-Serif" font-size="10.00">scram::core::TraverseGates</text>
</a>
</g>
</g>
<!-- Node15&#45;&gt;Node16 -->
<g id="edge16" class="edge"><title>Node15&#45;&gt;Node16</title>
<path fill="none" stroke="midnightblue" d="M285.856,-64.5C298.366,-64.5 312.057,-64.5 325.551,-64.5"/>
<polygon fill="midnightblue" stroke="midnightblue" points="325.808,-68.0001 335.808,-64.5 325.808,-61.0001 325.808,-68.0001"/>
</g>
<!-- Node16&#45;&gt;Node16 -->
<g id="edge17" class="edge"><title>Node16&#45;&gt;Node16</title>
<path fill="none" stroke="midnightblue" d="M379.298,-74.2571C366.551,-83.0653 375.285,-92.5 405.5,-92.5 425.801,-92.5 436.404,-88.241 437.311,-82.7746"/>
<polygon fill="midnightblue" stroke="midnightblue" points="440.125,-80.6836 431.702,-74.2571 434.279,-84.5337 440.125,-80.6836"/>
</g>
</g>
</svg>
