<?xml version="1.0" encoding="UTF-8" standalone="no"?>
<!DOCTYPE svg PUBLIC "-//W3C//DTD SVG 1.1//EN"
 "http://www.w3.org/Graphics/SVG/1.1/DTD/svg11.dtd">
<!-- Generated by graphviz version 2.38.0 (20140413.2041)
 -->
<!-- Title: scram::core::zbdd::CutSetContainer::Minimize Pages: 1 -->
<svg width="624pt" height="439pt"
 viewBox="0.00 0.00 624.00 439.00" xmlns="http://www.w3.org/2000/svg" xmlns:xlink="http://www.w3.org/1999/xlink">
<g id="graph0" class="graph" transform="scale(1 1) rotate(0) translate(4 435)">
<title>scram::core::zbdd::CutSetContainer::Minimize</title>
<polygon fill="white" stroke="none" points="-4,4 -4,-435 620,-435 620,4 -4,4"/>
<!-- Node1 -->
<g id="node1" class="node"><title>Node1</title>
<polygon fill="#bfbfbf" stroke="black" points="0,-198.5 0,-228.5 134,-228.5 134,-198.5 0,-198.5"/>
<text text-anchor="start" x="8" y="-216.5" font-family="Helvetica,sans-Serif" font-size="10.00">scram::core::zbdd::</text>
<text text-anchor="middle" x="67" y="-205.5" font-family="Helvetica,sans-Serif" font-size="10.00">CutSetContainer::Minimize</text>
</g>
<!-- Node2 -->
<g id="node2" class="node"><title>Node2</title>
<g id="a_node2"><a xlink:href="classscram_1_1core_1_1Zbdd.xhtml#a3dbb8ef5da2882daf6c39e9724eae459" target="_top" xlink:title="Removes subsets in ZBDD. ">
<polygon fill="white" stroke="black" points="178.5,-220.5 178.5,-250.5 280.5,-250.5 280.5,-220.5 178.5,-220.5"/>
<text text-anchor="start" x="186.5" y="-238.5" font-family="Helvetica,sans-Serif" font-size="10.00">scram::core::Zbdd::</text>
<text text-anchor="middle" x="229.5" y="-227.5" font-family="Helvetica,sans-Serif" font-size="10.00">Minimize</text>
</a>
</g>
</g>
<!-- Node1&#45;&gt;Node2 -->
<g id="edge1" class="edge"><title>Node1&#45;&gt;Node2</title>
<path fill="none" stroke="midnightblue" d="M134.208,-222.575C145.447,-224.116 157.066,-225.708 168.144,-227.227"/>
<polygon fill="midnightblue" stroke="midnightblue" points="167.757,-230.707 178.14,-228.597 168.708,-223.771 167.757,-230.707"/>
</g>
<!-- Node14 -->
<g id="node14" class="node"><title>Node14</title>
<g id="a_node14"><a xlink:href="classscram_1_1core_1_1Zbdd.xhtml#aa599878612e128fa09e17d0520280dbe" target="_top" xlink:title="scram::core::Zbdd::root">
<polygon fill="white" stroke="black" points="170,-182 170,-201 289,-201 289,-182 170,-182"/>
<text text-anchor="middle" x="229.5" y="-189" font-family="Helvetica,sans-Serif" font-size="10.00">scram::core::Zbdd::root</text>
</a>
</g>
</g>
<!-- Node1&#45;&gt;Node14 -->
<g id="edge15" class="edge"><title>Node1&#45;&gt;Node14</title>
<path fill="none" stroke="midnightblue" d="M134.208,-204.425C142.711,-203.259 151.431,-202.064 159.97,-200.894"/>
<polygon fill="midnightblue" stroke="midnightblue" points="160.455,-204.36 169.887,-199.534 159.504,-197.425 160.455,-204.36"/>
</g>
<!-- Node3 -->
<g id="node3" class="node"><title>Node3</title>
<g id="a_node3"><a xlink:href="classscram_1_1core_1_1NonTerminal.xhtml#adcdd0c5114aa6a1d32a03928adc07c49" target="_top" xlink:title="scram::core::NonTerminal\l::coherent">
<polygon fill="white" stroke="black" points="325,-400.5 325,-430.5 455,-430.5 455,-400.5 325,-400.5"/>
<text text-anchor="start" x="333" y="-418.5" font-family="Helvetica,sans-Serif" font-size="10.00">scram::core::NonTerminal</text>
<text text-anchor="middle" x="390" y="-407.5" font-family="Helvetica,sans-Serif" font-size="10.00">::coherent</text>
</a>
</g>
</g>
<!-- Node2&#45;&gt;Node3 -->
<g id="edge2" class="edge"><title>Node2&#45;&gt;Node3</title>
<path fill="none" stroke="midnightblue" d="M235.768,-250.661C247.214,-281.482 277.231,-351.877 325,-391.5 326.541,-392.778 328.157,-393.993 329.832,-395.146"/>
<polygon fill="midnightblue" stroke="midnightblue" points="328.238,-398.27 338.614,-400.412 331.838,-392.267 328.238,-398.27"/>
</g>
<!-- Node4 -->
<g id="node4" class="node"><title>Node4</title>
<g id="a_node4"><a xlink:href="classscram_1_1core_1_1Zbdd.xhtml#a42af18229ba2e80201bc0fdac07b7091" target="_top" xlink:title="Finds or adds a unique SetNode in the ZBDD. ">
<polygon fill="white" stroke="black" points="339,-351.5 339,-381.5 441,-381.5 441,-351.5 339,-351.5"/>
<text text-anchor="start" x="347" y="-369.5" font-family="Helvetica,sans-Serif" font-size="10.00">scram::core::Zbdd::</text>
<text text-anchor="middle" x="390" y="-358.5" font-family="Helvetica,sans-Serif" font-size="10.00">FindOrAddVertex</text>
</a>
</g>
</g>
<!-- Node2&#45;&gt;Node4 -->
<g id="edge3" class="edge"><title>Node2&#45;&gt;Node4</title>
<path fill="none" stroke="midnightblue" d="M241.568,-250.557C257.882,-271.918 290.23,-311.229 325,-336.5 330.146,-340.24 335.833,-343.696 341.63,-346.829"/>
<polygon fill="midnightblue" stroke="midnightblue" points="340.269,-350.064 350.769,-351.481 343.445,-343.825 340.269,-350.064"/>
</g>
<!-- Node6 -->
<g id="node6" class="node"><title>Node6</title>
<g id="a_node6"><a xlink:href="structscram_1_1core_1_1IntrusivePtrCast.xhtml#af153c12dc6133b7d9f9b7a57bba29f1d" target="_top" xlink:title="scram::core::IntrusivePtr\lCast\&lt; SetNode \&gt;::Ref">
<polygon fill="white" stroke="black" points="491,-298.5 491,-328.5 616,-328.5 616,-298.5 491,-298.5"/>
<text text-anchor="start" x="499" y="-316.5" font-family="Helvetica,sans-Serif" font-size="10.00">scram::core::IntrusivePtr</text>
<text text-anchor="middle" x="553.5" y="-305.5" font-family="Helvetica,sans-Serif" font-size="10.00">Cast&lt; SetNode &gt;::Ref</text>
</a>
</g>
</g>
<!-- Node2&#45;&gt;Node6 -->
<g id="edge11" class="edge"><title>Node2&#45;&gt;Node6</title>
<path fill="none" stroke="midnightblue" d="M266.839,-250.523C283.867,-259.546 304.814,-270.155 325,-276.5 375.647,-292.42 435.291,-299.352 480.799,-303.613"/>
<polygon fill="midnightblue" stroke="midnightblue" points="480.594,-307.109 490.872,-304.537 481.234,-300.138 480.594,-307.109"/>
</g>
<!-- Node2&#45;&gt;Node6 -->
<g id="edge12" class="edge"><title>Node2&#45;&gt;Node6</title>
<path fill="none" stroke="midnightblue" d="M243.589,-250.549C261.231,-264.971 294.013,-284.76 325,-294.5 375.647,-310.42 435.291,-317.352 480.799,-319.065"/>
<polygon fill="midnightblue" stroke="midnightblue" points="480.772,-322.566 490.872,-319.366 480.981,-315.569 480.772,-322.566"/>
</g>
<!-- Node7 -->
<g id="node7" class="node"><title>Node7</title>
<g id="a_node7"><a xlink:href="classscram_1_1core_1_1NonTerminal.xhtml#aeeaafd82ae5890a7ec3462c68ffc8628" target="_top" xlink:title="scram::core::NonTerminal\l::index">
<polygon fill="white" stroke="black" points="325,-245.5 325,-275.5 455,-275.5 455,-245.5 325,-245.5"/>
<text text-anchor="start" x="333" y="-263.5" font-family="Helvetica,sans-Serif" font-size="10.00">scram::core::NonTerminal</text>
<text text-anchor="middle" x="390" y="-252.5" font-family="Helvetica,sans-Serif" font-size="10.00">::index</text>
</a>
</g>
</g>
<!-- Node2&#45;&gt;Node7 -->
<g id="edge6" class="edge"><title>Node2&#45;&gt;Node7</title>
<path fill="none" stroke="midnightblue" d="M280.65,-243.41C291.523,-245.125 303.244,-246.974 314.821,-248.8"/>
<polygon fill="midnightblue" stroke="midnightblue" points="314.509,-252.294 324.932,-250.395 315.599,-245.379 314.509,-252.294"/>
</g>
<!-- Node8 -->
<g id="node8" class="node"><title>Node8</title>
<g id="a_node8"><a xlink:href="classscram_1_1core_1_1SetNode.xhtml#a88d05af2b9f4f08b7bc66a31c2b9e249" target="_top" xlink:title="scram::core::SetNode\l::minimal">
<polygon fill="white" stroke="black" points="333.5,-196.5 333.5,-226.5 446.5,-226.5 446.5,-196.5 333.5,-196.5"/>
<text text-anchor="start" x="341.5" y="-214.5" font-family="Helvetica,sans-Serif" font-size="10.00">scram::core::SetNode</text>
<text text-anchor="middle" x="390" y="-203.5" font-family="Helvetica,sans-Serif" font-size="10.00">::minimal</text>
</a>
</g>
</g>
<!-- Node2&#45;&gt;Node8 -->
<g id="edge7" class="edge"><title>Node2&#45;&gt;Node8</title>
<path fill="none" stroke="midnightblue" d="M280.65,-227.906C294.152,-225.862 308.962,-223.619 323.178,-221.467"/>
<polygon fill="midnightblue" stroke="midnightblue" points="324.034,-224.877 333.397,-219.919 322.986,-217.956 324.034,-224.877"/>
</g>
<!-- Node9 -->
<g id="node9" class="node"><title>Node9</title>
<g id="a_node9"><a xlink:href="classscram_1_1core_1_1NonTerminal.xhtml#a9230422e92d086c34f67bcb864bfc8a9" target="_top" xlink:title="scram::core::NonTerminal\l::module">
<polygon fill="white" stroke="black" points="325,-147.5 325,-177.5 455,-177.5 455,-147.5 325,-147.5"/>
<text text-anchor="start" x="333" y="-165.5" font-family="Helvetica,sans-Serif" font-size="10.00">scram::core::NonTerminal</text>
<text text-anchor="middle" x="390" y="-154.5" font-family="Helvetica,sans-Serif" font-size="10.00">::module</text>
</a>
</g>
</g>
<!-- Node2&#45;&gt;Node9 -->
<g id="edge8" class="edge"><title>Node2&#45;&gt;Node9</title>
<path fill="none" stroke="midnightblue" d="M268.378,-220.395C275.333,-217.318 282.458,-213.958 289,-210.5 305.786,-201.628 308.076,-196.107 325,-187.5 328.996,-185.468 333.197,-183.494 337.458,-181.605"/>
<polygon fill="midnightblue" stroke="midnightblue" points="338.997,-184.754 346.824,-177.614 336.253,-178.314 338.997,-184.754"/>
</g>
<!-- Node10 -->
<g id="node10" class="node"><title>Node10</title>
<g id="a_node10"><a xlink:href="classscram_1_1core_1_1Settings.xhtml#ae64f362fceb44402e101140dfc1725ba" target="_top" xlink:title="scram::core::Settings\l::prime_implicants">
<polygon fill="white" stroke="black" points="335,-98.5 335,-128.5 445,-128.5 445,-98.5 335,-98.5"/>
<text text-anchor="start" x="343" y="-116.5" font-family="Helvetica,sans-Serif" font-size="10.00">scram::core::Settings</text>
<text text-anchor="middle" x="390" y="-105.5" font-family="Helvetica,sans-Serif" font-size="10.00">::prime_implicants</text>
</a>
</g>
</g>
<!-- Node2&#45;&gt;Node10 -->
<g id="edge9" class="edge"><title>Node2&#45;&gt;Node10</title>
<path fill="none" stroke="midnightblue" d="M275.368,-220.344C280.299,-217.548 284.98,-214.286 289,-210.5 315.043,-185.969 298.574,-162.618 325,-138.5 326.718,-136.932 328.546,-135.458 330.456,-134.072"/>
<polygon fill="midnightblue" stroke="midnightblue" points="332.662,-136.821 339.282,-128.549 328.948,-130.887 332.662,-136.821"/>
</g>
<!-- Node11 -->
<g id="node11" class="node"><title>Node11</title>
<g id="a_node11"><a xlink:href="structscram_1_1core_1_1IntrusivePtrCast.xhtml#adc53e5b89cace18e05bac95316da7d91" target="_top" xlink:title="scram::core::IntrusivePtr\lCast\&lt; SetNode \&gt;::Ptr">
<polygon fill="white" stroke="black" points="327.5,-49.5 327.5,-79.5 452.5,-79.5 452.5,-49.5 327.5,-49.5"/>
<text text-anchor="start" x="335.5" y="-67.5" font-family="Helvetica,sans-Serif" font-size="10.00">scram::core::IntrusivePtr</text>
<text text-anchor="middle" x="390" y="-56.5" font-family="Helvetica,sans-Serif" font-size="10.00">Cast&lt; SetNode &gt;::Ptr</text>
</a>
</g>
</g>
<!-- Node2&#45;&gt;Node11 -->
<g id="edge10" class="edge"><title>Node2&#45;&gt;Node11</title>
<path fill="none" stroke="midnightblue" d="M276.91,-220.475C281.395,-217.676 285.55,-214.379 289,-210.5 326.571,-168.257 286.486,-129.885 325,-88.5 325.909,-87.5227 326.863,-86.585 327.854,-85.6852"/>
<polygon fill="midnightblue" stroke="midnightblue" points="330.2,-88.3006 336.106,-79.5041 326.004,-82.6981 330.2,-88.3006"/>
</g>
<!-- Node12 -->
<g id="node12" class="node"><title>Node12</title>
<g id="a_node12"><a xlink:href="classscram_1_1core_1_1Terminal.xhtml#a7a25b0b40498f4876571a5dac4e724c3" target="_top" xlink:title="scram::core::Terminal\l::value">
<polygon fill="white" stroke="black" points="334,-0.5 334,-30.5 446,-30.5 446,-0.5 334,-0.5"/>
<text text-anchor="start" x="342" y="-18.5" font-family="Helvetica,sans-Serif" font-size="10.00">scram::core::Terminal</text>
<text text-anchor="middle" x="390" y="-7.5" font-family="Helvetica,sans-Serif" font-size="10.00">::value</text>
</a>
</g>
</g>
<!-- Node2&#45;&gt;Node12 -->
<g id="edge13" class="edge"><title>Node2&#45;&gt;Node12</title>
<path fill="none" stroke="midnightblue" d="M277.787,-220.376C281.995,-217.606 285.847,-214.342 289,-210.5 338.27,-150.463 274.389,-98.411 325,-39.5 325.735,-38.6449 326.503,-37.8202 327.301,-37.0249"/>
<polygon fill="midnightblue" stroke="midnightblue" points="329.632,-39.6408 335.205,-30.6295 325.229,-34.1992 329.632,-39.6408"/>
</g>
<!-- Node5 -->
<g id="node5" class="node"><title>Node5</title>
<g id="a_node5"><a xlink:href="classscram_1_1core_1_1SetNode.xhtml#a2d7f99792b82961df2e5ecfcd735bb5f" target="_top" xlink:title="scram::core::SetNode\l::max_set_order">
<polygon fill="white" stroke="black" points="497,-351.5 497,-381.5 610,-381.5 610,-351.5 497,-351.5"/>
<text text-anchor="start" x="505" y="-369.5" font-family="Helvetica,sans-Serif" font-size="10.00">scram::core::SetNode</text>
<text text-anchor="middle" x="553.5" y="-358.5" font-family="Helvetica,sans-Serif" font-size="10.00">::max_set_order</text>
</a>
</g>
</g>
<!-- Node4&#45;&gt;Node5 -->
<g id="edge4" class="edge"><title>Node4&#45;&gt;Node5</title>
<path fill="none" stroke="midnightblue" d="M441.214,-366.5C455.584,-366.5 471.466,-366.5 486.625,-366.5"/>
<polygon fill="midnightblue" stroke="midnightblue" points="486.976,-370 496.976,-366.5 486.976,-363 486.976,-370"/>
</g>
<!-- Node4&#45;&gt;Node6 -->
<g id="edge5" class="edge"><title>Node4&#45;&gt;Node6</title>
<path fill="none" stroke="midnightblue" d="M436.847,-351.454C455.515,-345.328 477.265,-338.19 496.832,-331.769"/>
<polygon fill="midnightblue" stroke="midnightblue" points="498.128,-335.027 506.538,-328.584 495.945,-328.376 498.128,-335.027"/>
</g>
<!-- Node13 -->
<g id="node13" class="node"><title>Node13</title>
<g id="a_node13"><a xlink:href="classscram_1_1core_1_1Vertex.xhtml#a8a4a6e9871c7b80b9951fea57617d438" target="_top" xlink:title="scram::core::Vertex::id">
<polygon fill="white" stroke="black" points="495.5,-6 495.5,-25 611.5,-25 611.5,-6 495.5,-6"/>
<text text-anchor="middle" x="553.5" y="-13" font-family="Helvetica,sans-Serif" font-size="10.00">scram::core::Vertex::id</text>
</a>
</g>
</g>
<!-- Node12&#45;&gt;Node13 -->
<g id="edge14" class="edge"><title>Node12&#45;&gt;Node13</title>
<path fill="none" stroke="midnightblue" d="M446.127,-15.5C458.673,-15.5 472.14,-15.5 485.131,-15.5"/>
<polygon fill="midnightblue" stroke="midnightblue" points="485.421,-19.0001 495.421,-15.5 485.421,-12.0001 485.421,-19.0001"/>
</g>
</g>
</svg>
