<?xml version="1.0" encoding="UTF-8" standalone="no"?>
<!DOCTYPE svg PUBLIC "-//W3C//DTD SVG 1.1//EN"
 "http://www.w3.org/Graphics/SVG/1.1/DTD/svg11.dtd">
<!-- Generated by graphviz version 2.38.0 (20140413.2041)
 -->
<!-- Title: scram::mef::Element::name Pages: 1 -->
<svg width="642pt" height="635pt"
 viewBox="0.00 0.00 642.00 634.50" xmlns="http://www.w3.org/2000/svg" xmlns:xlink="http://www.w3.org/1999/xlink">
<g id="graph0" class="graph" transform="scale(1 1) rotate(0) translate(4 630.5)">
<title>scram::mef::Element::name</title>
<polygon fill="white" stroke="none" points="-4,4 -4,-630.5 638,-630.5 638,4 -4,4"/>
<!-- Node1 -->
<g id="node1" class="node"><title>Node1</title>
<polygon fill="#bfbfbf" stroke="black" points="0,-298.5 0,-328.5 108,-328.5 108,-298.5 0,-298.5"/>
<text text-anchor="start" x="8" y="-316.5" font-family="Helvetica,sans-Serif" font-size="10.00">scram::mef::Element</text>
<text text-anchor="middle" x="54" y="-305.5" font-family="Helvetica,sans-Serif" font-size="10.00">::name</text>
</g>
<!-- Node2 -->
<g id="node2" class="node"><title>Node2</title>
<g id="a_node2"><a xlink:href="classscram_1_1mef_1_1EventTree.xhtml#ab8378a7b06cb831839fb28a33ca6f80a" target="_top" xlink:title="scram::mef::EventTree::Add">
<polygon fill="white" stroke="black" points="155,-607 155,-626 295,-626 295,-607 155,-607"/>
<text text-anchor="middle" x="225" y="-614" font-family="Helvetica,sans-Serif" font-size="10.00">scram::mef::EventTree::Add</text>
</a>
</g>
</g>
<!-- Node1&#45;&gt;Node2 -->
<g id="edge1" class="edge"><title>Node1&#45;&gt;Node2</title>
<path fill="none" stroke="midnightblue" d="M55.0786,-338.86C56.6958,-394.381 68.6929,-527.324 144,-597.5 148.073,-601.296 152.762,-604.376 157.784,-606.87"/>
<polygon fill="midnightblue" stroke="midnightblue" points="58.5774,-338.757 54.8779,-328.83 51.5788,-338.898 58.5774,-338.757"/>
</g>
<!-- Node3 -->
<g id="node3" class="node"><title>Node3</title>
<g id="a_node3"><a xlink:href="classscram_1_1mef_1_1Component.xhtml#a017dbff899e2f3ac4067ccd6dba9c08e" target="_top" xlink:title="Adds MEF constructs into this component container. ">
<polygon fill="white" stroke="black" points="152,-569 152,-588 298,-588 298,-569 152,-569"/>
<text text-anchor="middle" x="225" y="-576" font-family="Helvetica,sans-Serif" font-size="10.00">scram::mef::Component::Add</text>
</a>
</g>
</g>
<!-- Node1&#45;&gt;Node3 -->
<g id="edge2" class="edge"><title>Node1&#45;&gt;Node3</title>
<path fill="none" stroke="midnightblue" d="M56.5099,-338.881C60.9057,-388.935 77.9891,-500.613 144,-559.5 148.261,-563.301 153.144,-566.378 158.349,-568.865"/>
<polygon fill="midnightblue" stroke="midnightblue" points="59.9778,-338.33 55.7146,-328.631 52.9988,-338.872 59.9778,-338.33"/>
</g>
<!-- Node4 -->
<g id="node4" class="node"><title>Node4</title>
<g id="a_node4"><a xlink:href="classscram_1_1mef_1_1CcfGroup.xhtml#a723878c7c836a52cf9edb5c8d1a37868" target="_top" xlink:title="Adds the distribution that describes the probability of basic events in this CCF group. ">
<polygon fill="white" stroke="black" points="168,-519.5 168,-549.5 282,-549.5 282,-519.5 168,-519.5"/>
<text text-anchor="start" x="176" y="-537.5" font-family="Helvetica,sans-Serif" font-size="10.00">scram::mef::CcfGroup</text>
<text text-anchor="middle" x="225" y="-526.5" font-family="Helvetica,sans-Serif" font-size="10.00">::AddDistribution</text>
</a>
</g>
</g>
<!-- Node1&#45;&gt;Node4 -->
<g id="edge3" class="edge"><title>Node1&#45;&gt;Node4</title>
<path fill="none" stroke="midnightblue" d="M59.3737,-338.509C67.9925,-380.285 91.1322,-464.228 144,-510.5 150.874,-516.517 159.21,-521.025 167.872,-524.404"/>
<polygon fill="midnightblue" stroke="midnightblue" points="62.7928,-337.756 57.4429,-328.611 55.9222,-339.096 62.7928,-337.756"/>
</g>
<!-- Node6 -->
<g id="node6" class="node"><title>Node6</title>
<g id="a_node6"><a xlink:href="classscram_1_1mef_1_1CcfGroup.xhtml#abfe90a5a022a07a5c111f0bba585d269" target="_top" xlink:title="Adds a CCF factor for the specified model. ">
<polygon fill="white" stroke="black" points="168,-470.5 168,-500.5 282,-500.5 282,-470.5 168,-470.5"/>
<text text-anchor="start" x="176" y="-488.5" font-family="Helvetica,sans-Serif" font-size="10.00">scram::mef::CcfGroup</text>
<text text-anchor="middle" x="225" y="-477.5" font-family="Helvetica,sans-Serif" font-size="10.00">::AddFactor</text>
</a>
</g>
</g>
<!-- Node1&#45;&gt;Node6 -->
<g id="edge5" class="edge"><title>Node1&#45;&gt;Node6</title>
<path fill="none" stroke="midnightblue" d="M63.4421,-338.367C75.9005,-371.343 102.337,-429.137 144,-461.5 150.985,-466.926 159.184,-471.129 167.621,-474.384"/>
<polygon fill="midnightblue" stroke="midnightblue" points="66.5952,-336.796 59.8868,-328.596 60.0172,-339.19 66.5952,-336.796"/>
</g>
<!-- Node8 -->
<g id="node8" class="node"><title>Node8</title>
<g id="a_node8"><a xlink:href="classscram_1_1mef_1_1CcfGroup.xhtml#a8321bf4372a0575c88b7162716469d15" target="_top" xlink:title="Adds a basic event into this CCF group. ">
<polygon fill="white" stroke="black" points="168,-421.5 168,-451.5 282,-451.5 282,-421.5 168,-421.5"/>
<text text-anchor="start" x="176" y="-439.5" font-family="Helvetica,sans-Serif" font-size="10.00">scram::mef::CcfGroup</text>
<text text-anchor="middle" x="225" y="-428.5" font-family="Helvetica,sans-Serif" font-size="10.00">::AddMember</text>
</a>
</g>
</g>
<!-- Node1&#45;&gt;Node8 -->
<g id="edge7" class="edge"><title>Node1&#45;&gt;Node8</title>
<path fill="none" stroke="midnightblue" d="M70.3103,-336.935C86.1791,-359.439 112.982,-392.836 144,-412.5 151.226,-417.081 159.37,-420.825 167.626,-423.874"/>
<polygon fill="midnightblue" stroke="midnightblue" points="73.1339,-334.864 64.5845,-328.606 67.3656,-338.829 73.1339,-334.864"/>
</g>
<!-- Node9 -->
<g id="node9" class="node"><title>Node9</title>
<g id="a_node9"><a xlink:href="classscram_1_1mef_1_1CcfGroup.xhtml#ab399c5ed0c1d7d0a316ac3b7244b7eb9" target="_top" xlink:title="Processes the given factors and members to create common cause failure probabilities and new events t...">
<polygon fill="white" stroke="black" points="168,-372.5 168,-402.5 282,-402.5 282,-372.5 168,-372.5"/>
<text text-anchor="start" x="176" y="-390.5" font-family="Helvetica,sans-Serif" font-size="10.00">scram::mef::CcfGroup</text>
<text text-anchor="middle" x="225" y="-379.5" font-family="Helvetica,sans-Serif" font-size="10.00">::ApplyModel</text>
</a>
</g>
</g>
<!-- Node1&#45;&gt;Node9 -->
<g id="edge9" class="edge"><title>Node1&#45;&gt;Node9</title>
<path fill="none" stroke="midnightblue" d="M87.1705,-333.847C103.711,-343.716 124.456,-355.199 144,-363.5 151.607,-366.731 159.793,-369.713 167.923,-372.397"/>
<polygon fill="midnightblue" stroke="midnightblue" points="88.8143,-330.751 78.4481,-328.562 85.1864,-336.738 88.8143,-330.751"/>
</g>
<!-- Node10 -->
<g id="node10" class="node"><title>Node10</title>
<g id="a_node10"><a xlink:href="classscram_1_1mef_1_1Component.xhtml#a63441da08667fe6826f3ae0c0a5a94fe" target="_top" xlink:title="Recursively traverses components to gather gates relevant to the whole component. ...">
<polygon fill="white" stroke="black" points="164,-323.5 164,-353.5 286,-353.5 286,-323.5 164,-323.5"/>
<text text-anchor="start" x="172" y="-341.5" font-family="Helvetica,sans-Serif" font-size="10.00">scram::mef::Component</text>
<text text-anchor="middle" x="225" y="-330.5" font-family="Helvetica,sans-Serif" font-size="10.00">::GatherGates</text>
</a>
</g>
</g>
<!-- Node1&#45;&gt;Node10 -->
<g id="edge10" class="edge"><title>Node1&#45;&gt;Node10</title>
<path fill="none" stroke="midnightblue" d="M118.176,-322.846C133.117,-325.056 149.009,-327.407 163.814,-329.597"/>
<polygon fill="midnightblue" stroke="midnightblue" points="118.414,-319.343 108.009,-321.342 117.389,-326.267 118.414,-319.343"/>
</g>
<!-- Node13 -->
<g id="node13" class="node"><title>Node13</title>
<g id="a_node13"><a xlink:href="classscram_1_1mef_1_1Element.xhtml#a7db1af9365e25a0ce332a1745441630a" target="_top" xlink:title="scram::mef::Element\l::GetAttribute">
<polygon fill="white" stroke="black" points="171,-274.5 171,-304.5 279,-304.5 279,-274.5 171,-274.5"/>
<text text-anchor="start" x="179" y="-292.5" font-family="Helvetica,sans-Serif" font-size="10.00">scram::mef::Element</text>
<text text-anchor="middle" x="225" y="-281.5" font-family="Helvetica,sans-Serif" font-size="10.00">::GetAttribute</text>
</a>
</g>
</g>
<!-- Node1&#45;&gt;Node13 -->
<g id="edge13" class="edge"><title>Node1&#45;&gt;Node13</title>
<path fill="none" stroke="midnightblue" d="M118.07,-304.543C135.452,-302.075 154.131,-299.422 170.889,-297.042"/>
<polygon fill="midnightblue" stroke="midnightblue" points="117.418,-301.101 108.009,-305.972 118.402,-308.031 117.418,-301.101"/>
</g>
<!-- Node14 -->
<g id="node14" class="node"><title>Node14</title>
<g id="a_node14"><a xlink:href="classscram_1_1mef_1_1Gate.xhtml#abeb0d7efda63e877e150f54719da1ba8" target="_top" xlink:title="Checks if a gate is initialized correctly. ">
<polygon fill="white" stroke="black" points="347.5,-236 347.5,-255 481.5,-255 481.5,-236 347.5,-236"/>
<text text-anchor="middle" x="414.5" y="-243" font-family="Helvetica,sans-Serif" font-size="10.00">scram::mef::Gate::Validate</text>
</a>
</g>
</g>
<!-- Node1&#45;&gt;Node14 -->
<g id="edge24" class="edge"><title>Node1&#45;&gt;Node14</title>
<path fill="none" stroke="midnightblue" d="M85.5895,-292.837C102.147,-282.754 123.385,-271.525 144,-265.5 211.324,-245.824 291.926,-242.308 347.337,-242.788"/>
<polygon fill="midnightblue" stroke="midnightblue" points="83.5201,-290.004 76.9064,-298.281 87.2382,-295.935 83.5201,-290.004"/>
</g>
<!-- Node16 -->
<g id="node16" class="node"><title>Node16</title>
<g id="a_node16"><a xlink:href="classscram_1_1mef_1_1Element.xhtml#ae291c86b68c20c0e2b845fbbc8bddb25" target="_top" xlink:title="Checks if the element has a given attribute. ">
<polygon fill="white" stroke="black" points="171,-186.5 171,-216.5 279,-216.5 279,-186.5 171,-186.5"/>
<text text-anchor="start" x="179" y="-204.5" font-family="Helvetica,sans-Serif" font-size="10.00">scram::mef::Element</text>
<text text-anchor="middle" x="225" y="-193.5" font-family="Helvetica,sans-Serif" font-size="10.00">::HasAttribute</text>
</a>
</g>
</g>
<!-- Node1&#45;&gt;Node16 -->
<g id="edge16" class="edge"><title>Node1&#45;&gt;Node16</title>
<path fill="none" stroke="midnightblue" d="M75.2137,-290.52C92.1093,-272.462 117.621,-247.732 144,-231.5 153.475,-225.67 164.264,-220.681 174.785,-216.54"/>
<polygon fill="midnightblue" stroke="midnightblue" points="72.2647,-288.557 68.085,-298.293 77.4236,-293.289 72.2647,-288.557"/>
</g>
<!-- Node18 -->
<g id="node18" class="node"><title>Node18</title>
<g id="a_node18"><a xlink:href="classscram_1_1mef_1_1Id.xhtml#aae8674c47f234e5d98dfcfa1b6cf69c1" target="_top" xlink:title="Constructs an element with an original name. ">
<polygon fill="white" stroke="black" points="177.5,-148 177.5,-167 272.5,-167 272.5,-148 177.5,-148"/>
<text text-anchor="middle" x="225" y="-155" font-family="Helvetica,sans-Serif" font-size="10.00">scram::mef::Id::Id</text>
</a>
</g>
</g>
<!-- Node1&#45;&gt;Node18 -->
<g id="edge19" class="edge"><title>Node1&#45;&gt;Node18</title>
<path fill="none" stroke="midnightblue" d="M64.5683,-288.536C77.7129,-257.652 104.332,-205.709 144,-177.5 153.8,-170.531 165.783,-165.982 177.46,-163.015"/>
<polygon fill="midnightblue" stroke="midnightblue" points="61.1866,-287.557 60.6277,-298.137 67.6625,-290.215 61.1866,-287.557"/>
</g>
<!-- Node19 -->
<g id="node19" class="node"><title>Node19</title>
<g id="a_node19"><a xlink:href="classscram_1_1mef_1_1Sequence.xhtml#ab3563deabed877e9afcd81006db2f425" target="_top" xlink:title="scram::mef::Sequence\l::instructions">
<polygon fill="white" stroke="black" points="167,-98.5 167,-128.5 283,-128.5 283,-98.5 167,-98.5"/>
<text text-anchor="start" x="175" y="-116.5" font-family="Helvetica,sans-Serif" font-size="10.00">scram::mef::Sequence</text>
<text text-anchor="middle" x="225" y="-105.5" font-family="Helvetica,sans-Serif" font-size="10.00">::instructions</text>
</a>
</g>
</g>
<!-- Node1&#45;&gt;Node19 -->
<g id="edge20" class="edge"><title>Node1&#45;&gt;Node19</title>
<path fill="none" stroke="midnightblue" d="M60.9932,-288.63C71.4004,-250.738 96.4053,-178.719 144,-138.5 150.669,-132.865 158.606,-128.498 166.851,-125.114"/>
<polygon fill="midnightblue" stroke="midnightblue" points="57.5935,-287.797 58.4383,-298.358 64.3639,-289.575 57.5935,-287.797"/>
</g>
<!-- Node21 -->
<g id="node21" class="node"><title>Node21</title>
<g id="a_node21"><a xlink:href="reporter_8cc.xhtml#ad6460094a94fb73e56c2a4a5efc598ed" target="_top" xlink:title="Describes all performed analyses deduced from settings. ">
<polygon fill="white" stroke="black" points="144,-49.5 144,-79.5 306,-79.5 306,-49.5 144,-49.5"/>
<text text-anchor="start" x="152" y="-67.5" font-family="Helvetica,sans-Serif" font-size="10.00">scram::ReportCalculatedQuantity</text>
<text text-anchor="middle" x="225" y="-56.5" font-family="Helvetica,sans-Serif" font-size="10.00">&lt; core::RiskAnalysis &gt;</text>
</a>
</g>
</g>
<!-- Node1&#45;&gt;Node21 -->
<g id="edge22" class="edge"><title>Node1&#45;&gt;Node21</title>
<path fill="none" stroke="midnightblue" d="M57.8983,-288.482C64.5603,-242.443 85.2009,-144.03 144,-89.5 148.161,-85.6411 152.911,-82.3777 157.974,-79.618"/>
<polygon fill="midnightblue" stroke="midnightblue" points="54.4158,-288.119 56.553,-298.496 61.3534,-289.051 54.4158,-288.119"/>
</g>
<!-- Node22 -->
<g id="node22" class="node"><title>Node22</title>
<g id="a_node22"><a xlink:href="classscram_1_1mef_1_1CcfGroup.xhtml#a31cbe59ce89f295de7bb810d8b75990e" target="_top" xlink:title="Validates the setup for the CCF model and group. ">
<polygon fill="white" stroke="black" points="168,-0.5 168,-30.5 282,-30.5 282,-0.5 168,-0.5"/>
<text text-anchor="start" x="176" y="-18.5" font-family="Helvetica,sans-Serif" font-size="10.00">scram::mef::CcfGroup</text>
<text text-anchor="middle" x="225" y="-7.5" font-family="Helvetica,sans-Serif" font-size="10.00">::Validate</text>
</a>
</g>
</g>
<!-- Node1&#45;&gt;Node22 -->
<g id="edge23" class="edge"><title>Node1&#45;&gt;Node22</title>
<path fill="none" stroke="midnightblue" d="M55.8477,-288.05C59.0228,-234.552 73.972,-109.675 144,-40.5 150.625,-33.9553 158.938,-29.1205 167.68,-25.5496"/>
<polygon fill="midnightblue" stroke="midnightblue" points="52.3372,-288.175 55.3333,-298.337 59.3285,-288.525 52.3372,-288.175"/>
</g>
<!-- Node5 -->
<g id="node5" class="node"><title>Node5</title>
<g id="a_node5"><a xlink:href="classscram_1_1mef_1_1Initializer.xhtml#a11cfe2ebf9fc06fbac97f38530a326c4" target="_top" xlink:title="Specializations for elements defined after registration. ">
<polygon fill="white" stroke="black" points="359,-519.5 359,-549.5 470,-549.5 470,-519.5 359,-519.5"/>
<text text-anchor="start" x="367" y="-537.5" font-family="Helvetica,sans-Serif" font-size="10.00">scram::mef::Initializer</text>
<text text-anchor="middle" x="414.5" y="-526.5" font-family="Helvetica,sans-Serif" font-size="10.00">::Define</text>
</a>
</g>
</g>
<!-- Node4&#45;&gt;Node5 -->
<g id="edge4" class="edge"><title>Node4&#45;&gt;Node5</title>
<path fill="none" stroke="midnightblue" d="M292.167,-534.5C313.951,-534.5 337.917,-534.5 358.754,-534.5"/>
<polygon fill="midnightblue" stroke="midnightblue" points="292.002,-531 282.002,-534.5 292.002,-538 292.002,-531"/>
</g>
<!-- Node7 -->
<g id="node7" class="node"><title>Node7</title>
<g id="a_node7"><a xlink:href="structscram_1_1mef_1_1Initializer_1_1Extractor_3_01T_00-1_01_4.xhtml#aa3a2ab99081e017bfa97747a8f6bca04" target="_top" xlink:title="Constructs an expression with a variable number of arguments. ">
<polygon fill="white" stroke="black" points="342,-433.5 342,-463.5 487,-463.5 487,-433.5 342,-433.5"/>
<text text-anchor="start" x="350" y="-451.5" font-family="Helvetica,sans-Serif" font-size="10.00">scram::mef::Initializer</text>
<text text-anchor="middle" x="414.5" y="-440.5" font-family="Helvetica,sans-Serif" font-size="10.00">::Extractor&lt; T,&#45;1 &gt;::operator()</text>
</a>
</g>
</g>
<!-- Node6&#45;&gt;Node7 -->
<g id="edge6" class="edge"><title>Node6&#45;&gt;Node7</title>
<path fill="none" stroke="midnightblue" d="M291.879,-472.5C308.025,-469.314 325.385,-465.888 341.79,-462.651"/>
<polygon fill="midnightblue" stroke="midnightblue" points="291.135,-469.079 282.002,-474.449 292.491,-475.947 291.135,-469.079"/>
</g>
<!-- Node8&#45;&gt;Node7 -->
<g id="edge8" class="edge"><title>Node8&#45;&gt;Node7</title>
<path fill="none" stroke="midnightblue" d="M292.337,-440.746C308.353,-441.771 325.54,-442.871 341.79,-443.911"/>
<polygon fill="midnightblue" stroke="midnightblue" points="292.205,-437.23 282.002,-440.084 291.758,-444.216 292.205,-437.23"/>
</g>
<!-- Node11 -->
<g id="node11" class="node"><title>Node11</title>
<g id="a_node11"><a xlink:href="classscram_1_1mef_1_1FaultTree.xhtml#a9535bd49edb4598ead887faf8dadd9f2" target="_top" xlink:title="Collects top event gates in this fault tree with components. ">
<polygon fill="white" stroke="black" points="358,-360.5 358,-390.5 471,-390.5 471,-360.5 358,-360.5"/>
<text text-anchor="start" x="366" y="-378.5" font-family="Helvetica,sans-Serif" font-size="10.00">scram::mef::FaultTree</text>
<text text-anchor="middle" x="414.5" y="-367.5" font-family="Helvetica,sans-Serif" font-size="10.00">::CollectTopEvents</text>
</a>
</g>
</g>
<!-- Node10&#45;&gt;Node11 -->
<g id="edge11" class="edge"><title>Node10&#45;&gt;Node11</title>
<path fill="none" stroke="midnightblue" d="M295.982,-352.31C316.415,-356.342 338.46,-360.692 357.876,-364.523"/>
<polygon fill="midnightblue" stroke="midnightblue" points="296.588,-348.862 286.1,-350.36 295.233,-355.73 296.588,-348.862"/>
</g>
<!-- Node12 -->
<g id="node12" class="node"><title>Node12</title>
<g id="a_node12"><a xlink:href="classscram_1_1mef_1_1Component.xhtml#a483f7a67e2197449902bddc48756e2cd" target="_top" xlink:title="scram::mef::Component\l::components">
<polygon fill="white" stroke="black" points="353.5,-311.5 353.5,-341.5 475.5,-341.5 475.5,-311.5 353.5,-311.5"/>
<text text-anchor="start" x="361.5" y="-329.5" font-family="Helvetica,sans-Serif" font-size="10.00">scram::mef::Component</text>
<text text-anchor="middle" x="414.5" y="-318.5" font-family="Helvetica,sans-Serif" font-size="10.00">::components</text>
</a>
</g>
</g>
<!-- Node10&#45;&gt;Node12 -->
<g id="edge12" class="edge"><title>Node10&#45;&gt;Node12</title>
<path fill="none" stroke="midnightblue" d="M296.111,-334.013C314.958,-332.807 335.17,-331.513 353.419,-330.345"/>
<polygon fill="midnightblue" stroke="midnightblue" points="295.856,-330.522 286.1,-334.654 296.303,-337.508 295.856,-330.522"/>
</g>
<!-- Node13&#45;&gt;Node14 -->
<g id="edge14" class="edge"><title>Node13&#45;&gt;Node14</title>
<path fill="none" stroke="midnightblue" d="M289.22,-274.664C316.883,-268.173 348.529,-260.747 372.963,-255.013"/>
<polygon fill="midnightblue" stroke="midnightblue" points="288.164,-271.317 279.228,-277.009 289.764,-278.132 288.164,-271.317"/>
</g>
<!-- Node15 -->
<g id="node15" class="node"><title>Node15</title>
<g id="a_node15"><a xlink:href="classscram_1_1mef_1_1Initializer.xhtml#a14baeb786ca655ac41c6ad3197ebf612" target="_top" xlink:title="Specializations for elements defined after registration. ">
<polygon fill="white" stroke="black" points="523,-230.5 523,-260.5 634,-260.5 634,-230.5 523,-230.5"/>
<text text-anchor="start" x="531" y="-248.5" font-family="Helvetica,sans-Serif" font-size="10.00">scram::mef::Initializer</text>
<text text-anchor="middle" x="578.5" y="-237.5" font-family="Helvetica,sans-Serif" font-size="10.00">::Define</text>
</a>
</g>
</g>
<!-- Node14&#45;&gt;Node15 -->
<g id="edge15" class="edge"><title>Node14&#45;&gt;Node15</title>
<path fill="none" stroke="midnightblue" d="M492.165,-245.5C502.527,-245.5 512.984,-245.5 522.855,-245.5"/>
<polygon fill="midnightblue" stroke="midnightblue" points="491.859,-242 481.859,-245.5 491.859,-249 491.859,-242"/>
</g>
<!-- Node16&#45;&gt;Node14 -->
<g id="edge18" class="edge"><title>Node16&#45;&gt;Node14</title>
<path fill="none" stroke="midnightblue" d="M289.22,-216.336C316.883,-222.827 348.529,-230.253 372.963,-235.987"/>
<polygon fill="midnightblue" stroke="midnightblue" points="289.764,-212.868 279.228,-213.991 288.164,-219.683 289.764,-212.868"/>
</g>
<!-- Node17 -->
<g id="node17" class="node"><title>Node17</title>
<g id="a_node17"><a xlink:href="classscram_1_1mef_1_1Element.xhtml#ad5906432084ef153b708dbe77307d4f9" target="_top" xlink:title="Adds an attribute to the attribute map. ">
<polygon fill="white" stroke="black" points="360.5,-186.5 360.5,-216.5 468.5,-216.5 468.5,-186.5 360.5,-186.5"/>
<text text-anchor="start" x="368.5" y="-204.5" font-family="Helvetica,sans-Serif" font-size="10.00">scram::mef::Element</text>
<text text-anchor="middle" x="414.5" y="-193.5" font-family="Helvetica,sans-Serif" font-size="10.00">::AddAttribute</text>
</a>
</g>
</g>
<!-- Node16&#45;&gt;Node17 -->
<g id="edge17" class="edge"><title>Node16&#45;&gt;Node17</title>
<path fill="none" stroke="midnightblue" d="M289.292,-201.5C312.42,-201.5 338.322,-201.5 360.463,-201.5"/>
<polygon fill="midnightblue" stroke="midnightblue" points="289.228,-198 279.228,-201.5 289.228,-205 289.228,-198"/>
</g>
<!-- Node20 -->
<g id="node20" class="node"><title>Node20</title>
<g id="a_node20"><a xlink:href="classscram_1_1mef_1_1Initializer.xhtml#afe0f683ccfe366bce6139121bc592681" target="_top" xlink:title="Specializations for elements defined after registration. ">
<polygon fill="white" stroke="black" points="359,-98.5 359,-128.5 470,-128.5 470,-98.5 359,-98.5"/>
<text text-anchor="start" x="367" y="-116.5" font-family="Helvetica,sans-Serif" font-size="10.00">scram::mef::Initializer</text>
<text text-anchor="middle" x="414.5" y="-105.5" font-family="Helvetica,sans-Serif" font-size="10.00">::Define</text>
</a>
</g>
</g>
<!-- Node19&#45;&gt;Node20 -->
<g id="edge21" class="edge"><title>Node19&#45;&gt;Node20</title>
<path fill="none" stroke="midnightblue" d="M293.114,-113.5C314.73,-113.5 338.407,-113.5 359,-113.5"/>
<polygon fill="midnightblue" stroke="midnightblue" points="293.02,-110 283.02,-113.5 293.02,-117 293.02,-110"/>
</g>
</g>
</svg>
