<?xml version="1.0" encoding="UTF-8" standalone="no"?>
<!DOCTYPE svg PUBLIC "-//W3C//DTD SVG 1.1//EN"
 "http://www.w3.org/Graphics/SVG/1.1/DTD/svg11.dtd">
<!-- Generated by graphviz version 2.38.0 (20140413.2041)
 -->
<!-- Title: scram::mef::CollectExpression Pages: 1 -->
<svg width="160pt" height="254pt"
 viewBox="0.00 0.00 160.00 254.00" xmlns="http://www.w3.org/2000/svg" xmlns:xlink="http://www.w3.org/1999/xlink">
<g id="graph0" class="graph" transform="scale(1 1) rotate(0) translate(4 250)">
<title>scram::mef::CollectExpression</title>
<polygon fill="white" stroke="none" points="-4,4 -4,-250 156,-250 156,4 -4,4"/>
<!-- Node1 -->
<g id="node1" class="node"><title>Node1</title>
<polygon fill="#bfbfbf" stroke="black" points="0,-0.5 0,-57.5 152,-57.5 152,-0.5 0,-0.5"/>
<text text-anchor="middle" x="76" y="-45.5" font-family="Helvetica,sans-Serif" font-size="10.00">scram::mef::CollectExpression</text>
<polyline fill="none" stroke="black" points="0,-38.5 152,-38.5 "/>
<text text-anchor="middle" x="76" y="-26.5" font-family="Helvetica,sans-Serif" font-size="10.00"> </text>
<polyline fill="none" stroke="black" points="0,-19.5 152,-19.5 "/>
<text text-anchor="start" x="8" y="-7.5" font-family="Helvetica,sans-Serif" font-size="10.00">+ CollectExpression()</text>
</g>
<!-- Node2 -->
<g id="node2" class="node"><title>Node2</title>
<g id="a_node2"><a xlink:href="classscram_1_1mef_1_1Instruction.xhtml" target="_top" xlink:title="Instructions and rules for event tree paths. ">
<polygon fill="white" stroke="black" points="17,-94.5 17,-151.5 135,-151.5 135,-94.5 17,-94.5"/>
<text text-anchor="middle" x="76" y="-139.5" font-family="Helvetica,sans-Serif" font-size="10.00">scram::mef::Instruction</text>
<polyline fill="none" stroke="black" points="17,-132.5 135,-132.5 "/>
<text text-anchor="middle" x="76" y="-120.5" font-family="Helvetica,sans-Serif" font-size="10.00"> </text>
<polyline fill="none" stroke="black" points="17,-113.5 135,-113.5 "/>
<text text-anchor="start" x="25" y="-101.5" font-family="Helvetica,sans-Serif" font-size="10.00">+ ~Instruction()</text>
</a>
</g>
</g>
<!-- Node2&#45;&gt;Node1 -->
<g id="edge1" class="edge"><title>Node2&#45;&gt;Node1</title>
<path fill="none" stroke="midnightblue" d="M76,-84.2092C76,-75.2929 76,-65.9513 76,-57.5836"/>
<polygon fill="none" stroke="midnightblue" points="72.5001,-84.3969 76,-94.397 79.5001,-84.397 72.5001,-84.3969"/>
</g>
<!-- Node3 -->
<g id="node3" class="node"><title>Node3</title>
<polygon fill="white" stroke="#bfbfbf" points="40.5,-188.5 40.5,-245.5 111.5,-245.5 111.5,-188.5 40.5,-188.5"/>
<text text-anchor="middle" x="76" y="-233.5" font-family="Helvetica,sans-Serif" font-size="10.00">noncopyable</text>
<polyline fill="none" stroke="#bfbfbf" points="40.5,-226.5 111.5,-226.5 "/>
<text text-anchor="middle" x="76" y="-214.5" font-family="Helvetica,sans-Serif" font-size="10.00"> </text>
<polyline fill="none" stroke="#bfbfbf" points="40.5,-207.5 111.5,-207.5 "/>
<text text-anchor="middle" x="76" y="-195.5" font-family="Helvetica,sans-Serif" font-size="10.00"> </text>
</g>
<!-- Node3&#45;&gt;Node2 -->
<g id="edge2" class="edge"><title>Node3&#45;&gt;Node2</title>
<path fill="none" stroke="#8b1a1a" d="M76,-178.209C76,-169.293 76,-159.951 76,-151.584"/>
<polygon fill="none" stroke="#8b1a1a" points="72.5001,-178.397 76,-188.397 79.5001,-178.397 72.5001,-178.397"/>
</g>
</g>
</svg>
