<?xml version="1.0" encoding="UTF-8" standalone="no"?>
<!DOCTYPE svg PUBLIC "-//W3C//DTD SVG 1.1//EN"
 "http://www.w3.org/Graphics/SVG/1.1/DTD/svg11.dtd">
<!-- Generated by graphviz version 2.38.0 (20140413.2041)
 -->
<!-- Title: scram::mef::GammaDeviate::Max Pages: 1 -->
<svg width="379pt" height="78pt"
 viewBox="0.00 0.00 379.00 77.50" xmlns="http://www.w3.org/2000/svg" xmlns:xlink="http://www.w3.org/1999/xlink">
<g id="graph0" class="graph" transform="scale(1 1) rotate(0) translate(4 73.5)">
<title>scram::mef::GammaDeviate::Max</title>
<polygon fill="white" stroke="none" points="-4,4 -4,-73.5 375,-73.5 375,4 -4,4"/>
<!-- Node1 -->
<g id="node1" class="node"><title>Node1</title>
<polygon fill="#bfbfbf" stroke="black" points="0,-28 0,-47 165,-47 165,-28 0,-28"/>
<text text-anchor="middle" x="82.5" y="-35" font-family="Helvetica,sans-Serif" font-size="10.00">scram::mef::GammaDeviate::Max</text>
</g>
<!-- Node2 -->
<g id="node2" class="node"><title>Node2</title>
<g id="a_node2"><a xlink:href="classscram_1_1Random.xhtml#ac70a7248ce1258d1fbee8c316717ac2b" target="_top" xlink:title="RNG from a Gamma distribution. ">
<polygon fill="white" stroke="black" points="201,-50 201,-69 371,-69 371,-50 201,-50"/>
<text text-anchor="middle" x="286" y="-57" font-family="Helvetica,sans-Serif" font-size="10.00">scram::Random::GammaGenerator</text>
</a>
</g>
</g>
<!-- Node1&#45;&gt;Node2 -->
<g id="edge1" class="edge"><title>Node1&#45;&gt;Node2</title>
<path fill="none" stroke="midnightblue" d="M165.167,-46.4165C173.636,-47.3411 182.291,-48.2861 190.881,-49.224"/>
<polygon fill="midnightblue" stroke="midnightblue" points="190.6,-52.714 200.921,-50.3201 191.36,-45.7554 190.6,-52.714"/>
</g>
<!-- Node3 -->
<g id="node3" class="node"><title>Node3</title>
<g id="a_node3"><a xlink:href="classscram_1_1mef_1_1Expression.xhtml#ac7e0dd118eafdfa943944172c1625a4e" target="_top" xlink:title="scram::mef::Expression\l::Mean">
<polygon fill="white" stroke="black" points="225.5,-0.5 225.5,-30.5 346.5,-30.5 346.5,-0.5 225.5,-0.5"/>
<text text-anchor="start" x="233.5" y="-18.5" font-family="Helvetica,sans-Serif" font-size="10.00">scram::mef::Expression</text>
<text text-anchor="middle" x="286" y="-7.5" font-family="Helvetica,sans-Serif" font-size="10.00">::Mean</text>
</a>
</g>
</g>
<!-- Node1&#45;&gt;Node3 -->
<g id="edge2" class="edge"><title>Node1&#45;&gt;Node3</title>
<path fill="none" stroke="midnightblue" d="M165.167,-28.5835C181.723,-26.7759 198.992,-24.8904 215.097,-23.1321"/>
<polygon fill="midnightblue" stroke="midnightblue" points="215.933,-26.5618 225.494,-21.997 215.173,-19.6031 215.933,-26.5618"/>
</g>
</g>
</svg>
