<?xml version="1.0" encoding="UTF-8" standalone="no"?>
<!DOCTYPE svg PUBLIC "-//W3C//DTD SVG 1.1//EN"
 "http://www.w3.org/Graphics/SVG/1.1/DTD/svg11.dtd">
<!-- Generated by graphviz version 2.38.0 (20140413.2041)
 -->
<!-- Title: scram::core::Preprocessor::RunPhaseTwo Pages: 1 -->
<svg width="871pt" height="197pt"
 viewBox="0.00 0.00 871.00 197.19" xmlns="http://www.w3.org/2000/svg" xmlns:xlink="http://www.w3.org/1999/xlink">
<g id="graph0" class="graph" transform="scale(1 1) rotate(0) translate(4 193.192)">
<title>scram::core::Preprocessor::RunPhaseTwo</title>
<polygon fill="white" stroke="none" points="-4,4 -4,-193.192 867,-193.192 867,4 -4,4"/>
<!-- Node1 -->
<g id="node1" class="node"><title>Node1</title>
<polygon fill="#bfbfbf" stroke="black" points="0,-84.5 0,-114.5 132,-114.5 132,-84.5 0,-84.5"/>
<text text-anchor="start" x="8" y="-102.5" font-family="Helvetica,sans-Serif" font-size="10.00">scram::core::Preprocessor</text>
<text text-anchor="middle" x="66" y="-91.5" font-family="Helvetica,sans-Serif" font-size="10.00">::RunPhaseTwo</text>
</g>
<!-- Node2 -->
<g id="node2" class="node"><title>Node2</title>
<g id="a_node2"><a xlink:href="classscram_1_1core_1_1Preprocessor.xhtml#a5ee92284aef510ce01a71c962d50f51c" target="_top" xlink:title="Runs the graph preprocessing. ">
<polygon fill="white" stroke="black" points="545.5,-93.5 545.5,-123.5 677.5,-123.5 677.5,-93.5 545.5,-93.5"/>
<text text-anchor="start" x="553.5" y="-111.5" font-family="Helvetica,sans-Serif" font-size="10.00">scram::core::Preprocessor</text>
<text text-anchor="middle" x="611.5" y="-100.5" font-family="Helvetica,sans-Serif" font-size="10.00">::operator()</text>
</a>
</g>
</g>
<!-- Node1&#45;&gt;Node2 -->
<g id="edge1" class="edge"><title>Node1&#45;&gt;Node2</title>
<path fill="none" stroke="midnightblue" d="M90.5189,-121.343C109.733,-137.603 138.457,-158.482 168,-167.5 305.988,-209.623 352.186,-183.095 492,-147.5 508.798,-143.224 511.653,-138.263 528,-132.5 536.863,-129.375 546.36,-126.335 555.642,-123.527"/>
<polygon fill="midnightblue" stroke="midnightblue" points="92.7328,-118.63 82.8918,-114.705 88.1373,-123.91 92.7328,-118.63"/>
</g>
<!-- Node4 -->
<g id="node4" class="node"><title>Node4</title>
<g id="a_node4"><a xlink:href="classscram_1_1core_1_1Preprocessor.xhtml#a2b6705e815fa3d02119c405b483766d5" target="_top" xlink:title="Container of unique gates by semantics. ">
<polygon fill="white" stroke="black" points="336,-99 336,-118 492,-118 492,-99 336,-99"/>
<text text-anchor="middle" x="414" y="-106" font-family="Helvetica,sans-Serif" font-size="10.00">scram::core::Preprocessor::Run</text>
</a>
</g>
</g>
<!-- Node1&#45;&gt;Node4 -->
<g id="edge3" class="edge"><title>Node1&#45;&gt;Node4</title>
<path fill="none" stroke="midnightblue" d="M142.158,-101.455C199.44,-102.945 278.044,-104.99 335.82,-106.492"/>
<polygon fill="midnightblue" stroke="midnightblue" points="142.168,-97.9541 132.08,-101.193 141.986,-104.952 142.168,-97.9541"/>
</g>
<!-- Node7 -->
<g id="node7" class="node"><title>Node7</title>
<g id="a_node7"><a xlink:href="classscram_1_1core_1_1Preprocessor.xhtml#a3569bbcd5e863c750cdfa69115399600" target="_top" xlink:title="The final phase that cleans up the graph, and puts the structure of the graph ready for analysis...">
<polygon fill="white" stroke="black" points="348,-0.5 348,-30.5 480,-30.5 480,-0.5 348,-0.5"/>
<text text-anchor="start" x="356" y="-18.5" font-family="Helvetica,sans-Serif" font-size="10.00">scram::core::Preprocessor</text>
<text text-anchor="middle" x="414" y="-7.5" font-family="Helvetica,sans-Serif" font-size="10.00">::RunPhaseFive</text>
</a>
</g>
</g>
<!-- Node1&#45;&gt;Node7 -->
<g id="edge7" class="edge"><title>Node1&#45;&gt;Node7</title>
<path fill="none" stroke="midnightblue" d="M134.389,-81.9577C145.605,-79.0941 157.124,-76.1871 168,-73.5 228.894,-58.4559 298.502,-42.0533 347.921,-30.5423"/>
<polygon fill="midnightblue" stroke="midnightblue" points="133.453,-78.5843 124.635,-84.4565 135.191,-85.3654 133.453,-78.5843"/>
</g>
<!-- Node8 -->
<g id="node8" class="node"><title>Node8</title>
<g id="a_node8"><a xlink:href="classscram_1_1core_1_1Preprocessor.xhtml#a5c224938dfba861f061525658bd7b156" target="_top" xlink:title="Propagation of complements. ">
<polygon fill="white" stroke="black" points="348,-49.5 348,-79.5 480,-79.5 480,-49.5 348,-49.5"/>
<text text-anchor="start" x="356" y="-67.5" font-family="Helvetica,sans-Serif" font-size="10.00">scram::core::Preprocessor</text>
<text text-anchor="middle" x="414" y="-56.5" font-family="Helvetica,sans-Serif" font-size="10.00">::RunPhaseFour</text>
</a>
</g>
</g>
<!-- Node1&#45;&gt;Node8 -->
<g id="edge10" class="edge"><title>Node1&#45;&gt;Node8</title>
<path fill="none" stroke="midnightblue" d="M142.097,-91.9035C203.493,-85.6929 289.413,-77.0015 347.918,-71.0834"/>
<polygon fill="midnightblue" stroke="midnightblue" points="141.677,-88.428 132.08,-92.9168 142.381,-95.3925 141.677,-88.428"/>
</g>
<!-- Node9 -->
<g id="node9" class="node"><title>Node9</title>
<g id="a_node9"><a xlink:href="classscram_1_1core_1_1Preprocessor.xhtml#abf2c66723172a85b2ae87ef2a034cd1f" target="_top" xlink:title="Application of gate normalization. ">
<polygon fill="white" stroke="black" points="168,-128.5 168,-158.5 300,-158.5 300,-128.5 168,-128.5"/>
<text text-anchor="start" x="176" y="-146.5" font-family="Helvetica,sans-Serif" font-size="10.00">scram::core::Preprocessor</text>
<text text-anchor="middle" x="234" y="-135.5" font-family="Helvetica,sans-Serif" font-size="10.00">::RunPhaseThree</text>
</a>
</g>
</g>
<!-- Node1&#45;&gt;Node9 -->
<g id="edge13" class="edge"><title>Node1&#45;&gt;Node9</title>
<path fill="none" stroke="midnightblue" d="M133.378,-117.094C147.598,-120.863 162.496,-124.812 176.31,-128.474"/>
<polygon fill="midnightblue" stroke="midnightblue" points="134.226,-113.698 123.663,-114.519 132.433,-120.465 134.226,-113.698"/>
</g>
<!-- Node3 -->
<g id="node3" class="node"><title>Node3</title>
<g id="a_node3"><a xlink:href="classscram_1_1core_1_1Preprocessor_1_1GateSet.xhtml#ae00239084858979e096032c4cf2f05b9" target="_top" xlink:title="Inserts a gate into the set if it is semantically unique. ">
<polygon fill="white" stroke="black" points="731,-93.5 731,-123.5 863,-123.5 863,-93.5 731,-93.5"/>
<text text-anchor="start" x="739" y="-111.5" font-family="Helvetica,sans-Serif" font-size="10.00">scram::core::Preprocessor</text>
<text text-anchor="middle" x="797" y="-100.5" font-family="Helvetica,sans-Serif" font-size="10.00">::GateSet::insert</text>
</a>
</g>
</g>
<!-- Node2&#45;&gt;Node3 -->
<g id="edge2" class="edge"><title>Node2&#45;&gt;Node3</title>
<path fill="none" stroke="midnightblue" d="M687.989,-108.5C702.264,-108.5 717.081,-108.5 730.998,-108.5"/>
<polygon fill="midnightblue" stroke="midnightblue" points="687.712,-105 677.712,-108.5 687.712,-112 687.712,-105"/>
</g>
<!-- Node4&#45;&gt;Node2 -->
<g id="edge5" class="edge"><title>Node4&#45;&gt;Node2</title>
<path fill="none" stroke="midnightblue" d="M502.674,-108.5C517.062,-108.5 531.744,-108.5 545.457,-108.5"/>
<polygon fill="midnightblue" stroke="midnightblue" points="502.267,-105 492.267,-108.5 502.267,-112 502.267,-105"/>
</g>
<!-- Node5 -->
<g id="node5" class="node"><title>Node5</title>
<g id="a_node5"><a xlink:href="classscram_1_1core_1_1Preprocessor.xhtml#a9caf4677a024ed935d831210b57b8ed9" target="_top" xlink:title="Gathers nodes in the sub&#45;graph. ">
<polygon fill="white" stroke="black" points="545.5,-142.5 545.5,-172.5 677.5,-172.5 677.5,-142.5 545.5,-142.5"/>
<text text-anchor="start" x="553.5" y="-160.5" font-family="Helvetica,sans-Serif" font-size="10.00">scram::core::Preprocessor</text>
<text text-anchor="middle" x="611.5" y="-149.5" font-family="Helvetica,sans-Serif" font-size="10.00">::GatherNodes</text>
</a>
</g>
</g>
<!-- Node4&#45;&gt;Node5 -->
<g id="edge4" class="edge"><title>Node4&#45;&gt;Node5</title>
<path fill="none" stroke="midnightblue" d="M462.934,-120.514C489.35,-127.135 522.39,-135.416 550.506,-142.463"/>
<polygon fill="midnightblue" stroke="midnightblue" points="463.709,-117.1 453.158,-118.064 462.007,-123.89 463.709,-117.1"/>
</g>
<!-- Node6 -->
<g id="node6" class="node"><title>Node6</title>
<g id="a_node6"><a xlink:href="classscram_1_1core_1_1CustomPreprocessor_3_01Zbdd_01_4.xhtml#a5185075f852c647c7aa4313d23420ee5" target="_top" xlink:title="Performs preprocessing for analyses with Zero&#45;Suppressed Binary Decision Diagrams. ">
<polygon fill="white" stroke="black" points="528,-44.5 528,-74.5 695,-74.5 695,-44.5 528,-44.5"/>
<text text-anchor="start" x="536" y="-62.5" font-family="Helvetica,sans-Serif" font-size="10.00">scram::core::CustomPreprocessor</text>
<text text-anchor="middle" x="611.5" y="-51.5" font-family="Helvetica,sans-Serif" font-size="10.00">&lt; Zbdd &gt;::Run</text>
</a>
</g>
</g>
<!-- Node4&#45;&gt;Node6 -->
<g id="edge6" class="edge"><title>Node4&#45;&gt;Node6</title>
<path fill="none" stroke="midnightblue" d="M462.934,-96.4858C489.35,-89.865 522.39,-81.5839 550.506,-74.537"/>
<polygon fill="midnightblue" stroke="midnightblue" points="462.007,-93.1097 453.158,-98.936 463.709,-99.8997 462.007,-93.1097"/>
</g>
<!-- Node7&#45;&gt;Node2 -->
<g id="edge9" class="edge"><title>Node7&#45;&gt;Node2</title>
<path fill="none" stroke="midnightblue" d="M484.51,-34.961C487.098,-36.3737 489.606,-37.8846 492,-39.5 512.945,-53.6332 507,-69.4498 528,-83.5 533.722,-87.3282 540.051,-90.5879 546.585,-93.3596"/>
<polygon fill="midnightblue" stroke="midnightblue" points="485.971,-31.7795 475.451,-30.5266 482.894,-38.0667 485.971,-31.7795"/>
</g>
<!-- Node7&#45;&gt;Node6 -->
<g id="edge8" class="edge"><title>Node7&#45;&gt;Node6</title>
<path fill="none" stroke="midnightblue" d="M490.313,-32.4503C507.894,-36.4071 526.499,-40.5943 543.681,-44.4615"/>
<polygon fill="midnightblue" stroke="midnightblue" points="490.623,-28.9326 480.099,-30.1514 489.086,-35.7617 490.623,-28.9326"/>
</g>
<!-- Node8&#45;&gt;Node2 -->
<g id="edge12" class="edge"><title>Node8&#45;&gt;Node2</title>
<path fill="none" stroke="midnightblue" d="M490.088,-81.3997C508.307,-85.4999 527.636,-89.8504 545.353,-93.8376"/>
<polygon fill="midnightblue" stroke="midnightblue" points="490.623,-77.9326 480.099,-79.1514 489.086,-84.7617 490.623,-77.9326"/>
</g>
<!-- Node8&#45;&gt;Node6 -->
<g id="edge11" class="edge"><title>Node8&#45;&gt;Node6</title>
<path fill="none" stroke="midnightblue" d="M490.313,-62.5738C502.636,-62.2587 515.462,-61.9306 527.949,-61.6113"/>
<polygon fill="midnightblue" stroke="midnightblue" points="490.006,-59.0805 480.099,-62.8351 490.185,-66.0782 490.006,-59.0805"/>
</g>
<!-- Node9&#45;&gt;Node2 -->
<g id="edge15" class="edge"><title>Node9&#45;&gt;Node2</title>
<path fill="none" stroke="midnightblue" d="M310.125,-140.741C361.458,-138.386 430.976,-134.276 492,-127.5 509.395,-125.569 528.133,-122.859 545.46,-120.09"/>
<polygon fill="midnightblue" stroke="midnightblue" points="309.942,-137.246 300.109,-141.189 310.255,-144.239 309.942,-137.246"/>
</g>
<!-- Node9&#45;&gt;Node4 -->
<g id="edge14" class="edge"><title>Node9&#45;&gt;Node4</title>
<path fill="none" stroke="midnightblue" d="M309.896,-128.773C328.402,-125.134 347.743,-121.331 364.608,-118.015"/>
<polygon fill="midnightblue" stroke="midnightblue" points="309.154,-125.352 300.018,-130.716 310.505,-132.22 309.154,-125.352"/>
</g>
</g>
</svg>
