<?xml version="1.0" encoding="UTF-8" standalone="no"?>
<!DOCTYPE svg PUBLIC "-//W3C//DTD SVG 1.1//EN"
 "http://www.w3.org/Graphics/SVG/1.1/DTD/svg11.dtd">
<!-- Generated by graphviz version 2.38.0 (20140413.2041)
 -->
<!-- Title: scram::core::zbdd::CutSetContainer::EliminateComplements Pages: 1 -->
<svg width="772pt" height="565pt"
 viewBox="0.00 0.00 772.00 565.00" xmlns="http://www.w3.org/2000/svg" xmlns:xlink="http://www.w3.org/1999/xlink">
<g id="graph0" class="graph" transform="scale(1 1) rotate(0) translate(4 561)">
<title>scram::core::zbdd::CutSetContainer::EliminateComplements</title>
<polygon fill="white" stroke="none" points="-4,4 -4,-561 768,-561 768,4 -4,4"/>
<!-- Node1 -->
<g id="node1" class="node"><title>Node1</title>
<polygon fill="#bfbfbf" stroke="black" points="0,-417 0,-458 136,-458 136,-417 0,-417"/>
<text text-anchor="start" x="8" y="-446" font-family="Helvetica,sans-Serif" font-size="10.00">scram::core::zbdd::</text>
<text text-anchor="start" x="8" y="-435" font-family="Helvetica,sans-Serif" font-size="10.00">CutSetContainer::Eliminate</text>
<text text-anchor="middle" x="68" y="-424" font-family="Helvetica,sans-Serif" font-size="10.00">Complements</text>
</g>
<!-- Node2 -->
<g id="node2" class="node"><title>Node2</title>
<g id="a_node2"><a xlink:href="classscram_1_1core_1_1Zbdd.xhtml#ac3ac27090b550d973b20bd971c3de9f9" target="_top" xlink:title="Removes complements of variables from products. ">
<polygon fill="white" stroke="black" points="172.5,-444.5 172.5,-474.5 290.5,-474.5 290.5,-444.5 172.5,-444.5"/>
<text text-anchor="start" x="180.5" y="-462.5" font-family="Helvetica,sans-Serif" font-size="10.00">scram::core::Zbdd::</text>
<text text-anchor="middle" x="231.5" y="-451.5" font-family="Helvetica,sans-Serif" font-size="10.00">EliminateComplements</text>
</a>
</g>
</g>
<!-- Node1&#45;&gt;Node2 -->
<g id="edge1" class="edge"><title>Node1&#45;&gt;Node2</title>
<path fill="none" stroke="midnightblue" d="M136.088,-446.639C144.746,-447.818 153.62,-449.027 162.296,-450.209"/>
<polygon fill="midnightblue" stroke="midnightblue" points="161.984,-453.699 172.365,-451.581 162.929,-446.763 161.984,-453.699"/>
</g>
<!-- Node16 -->
<g id="node16" class="node"><title>Node16</title>
<g id="a_node16"><a xlink:href="classscram_1_1core_1_1Zbdd.xhtml#aa599878612e128fa09e17d0520280dbe" target="_top" xlink:title="scram::core::Zbdd::root">
<polygon fill="white" stroke="black" points="172,-406 172,-425 291,-425 291,-406 172,-406"/>
<text text-anchor="middle" x="231.5" y="-413" font-family="Helvetica,sans-Serif" font-size="10.00">scram::core::Zbdd::root</text>
</a>
</g>
</g>
<!-- Node1&#45;&gt;Node16 -->
<g id="edge20" class="edge"><title>Node1&#45;&gt;Node16</title>
<path fill="none" stroke="midnightblue" d="M136.088,-428.361C144.621,-427.199 153.365,-426.008 161.921,-424.842"/>
<polygon fill="midnightblue" stroke="midnightblue" points="162.421,-428.306 171.857,-423.489 161.476,-421.37 162.421,-428.306"/>
</g>
<!-- Node3 -->
<g id="node3" class="node"><title>Node3</title>
<g id="a_node3"><a xlink:href="classscram_1_1core_1_1Settings.xhtml#a0e43ec0f017d23a4fa4e376c4060d380" target="_top" xlink:title="scram::core::Settings\l::limit_order">
<polygon fill="white" stroke="black" points="327,-526.5 327,-556.5 437,-556.5 437,-526.5 327,-526.5"/>
<text text-anchor="start" x="335" y="-544.5" font-family="Helvetica,sans-Serif" font-size="10.00">scram::core::Settings</text>
<text text-anchor="middle" x="382" y="-533.5" font-family="Helvetica,sans-Serif" font-size="10.00">::limit_order</text>
</a>
</g>
</g>
<!-- Node2&#45;&gt;Node3 -->
<g id="edge2" class="edge"><title>Node2&#45;&gt;Node3</title>
<path fill="none" stroke="midnightblue" d="M259.737,-474.54C283.631,-487.734 318.558,-507.02 344.798,-521.509"/>
<polygon fill="midnightblue" stroke="midnightblue" points="343.238,-524.647 353.684,-526.417 346.622,-518.519 343.238,-524.647"/>
</g>
<!-- Node4 -->
<g id="node4" class="node"><title>Node4</title>
<g id="a_node4"><a xlink:href="classscram_1_1core_1_1SetNode.xhtml#a2d7f99792b82961df2e5ecfcd735bb5f" target="_top" xlink:title="scram::core::SetNode\l::max_set_order">
<polygon fill="white" stroke="black" points="645,-441.5 645,-471.5 758,-471.5 758,-441.5 645,-441.5"/>
<text text-anchor="start" x="653" y="-459.5" font-family="Helvetica,sans-Serif" font-size="10.00">scram::core::SetNode</text>
<text text-anchor="middle" x="701.5" y="-448.5" font-family="Helvetica,sans-Serif" font-size="10.00">::max_set_order</text>
</a>
</g>
</g>
<!-- Node2&#45;&gt;Node4 -->
<g id="edge3" class="edge"><title>Node2&#45;&gt;Node4</title>
<path fill="none" stroke="midnightblue" d="M290.574,-469.476C302.582,-471.152 315.174,-472.629 327,-473.5 449.335,-482.513 480.79,-484.074 603,-473.5 613.313,-472.608 624.172,-471.194 634.749,-469.553"/>
<polygon fill="midnightblue" stroke="midnightblue" points="635.468,-472.982 644.776,-467.921 634.343,-466.073 635.468,-472.982"/>
</g>
<!-- Node5 -->
<g id="node5" class="node"><title>Node5</title>
<g id="a_node5"><a xlink:href="classscram_1_1core_1_1Zbdd.xhtml#a3dbb8ef5da2882daf6c39e9724eae459" target="_top" xlink:title="Removes subsets in ZBDD. ">
<polygon fill="white" stroke="black" points="331,-245.5 331,-275.5 433,-275.5 433,-245.5 331,-245.5"/>
<text text-anchor="start" x="339" y="-263.5" font-family="Helvetica,sans-Serif" font-size="10.00">scram::core::Zbdd::</text>
<text text-anchor="middle" x="382" y="-252.5" font-family="Helvetica,sans-Serif" font-size="10.00">Minimize</text>
</a>
</g>
</g>
<!-- Node2&#45;&gt;Node5 -->
<g id="edge4" class="edge"><title>Node2&#45;&gt;Node5</title>
<path fill="none" stroke="midnightblue" d="M277.021,-444.457C282.069,-441.633 286.873,-438.334 291,-434.5 336.128,-392.572 362.45,-322.875 373.987,-285.689"/>
<polygon fill="midnightblue" stroke="midnightblue" points="377.467,-286.269 376.976,-275.686 370.76,-284.266 377.467,-286.269"/>
</g>
<!-- Node8 -->
<g id="node8" class="node"><title>Node8</title>
<g id="a_node8"><a xlink:href="structscram_1_1core_1_1IntrusivePtrCast.xhtml#af153c12dc6133b7d9f9b7a57bba29f1d" target="_top" xlink:title="scram::core::IntrusivePtr\lCast\&lt; SetNode \&gt;::Ref">
<polygon fill="white" stroke="black" points="639,-345.5 639,-375.5 764,-375.5 764,-345.5 639,-345.5"/>
<text text-anchor="start" x="647" y="-363.5" font-family="Helvetica,sans-Serif" font-size="10.00">scram::core::IntrusivePtr</text>
<text text-anchor="middle" x="701.5" y="-352.5" font-family="Helvetica,sans-Serif" font-size="10.00">Cast&lt; SetNode &gt;::Ref</text>
</a>
</g>
</g>
<!-- Node2&#45;&gt;Node8 -->
<g id="edge19" class="edge"><title>Node2&#45;&gt;Node8</title>
<path fill="none" stroke="midnightblue" d="M290.664,-467.416C365.649,-475.217 498.782,-480.824 603,-440.5 634.229,-428.417 662.941,-402.221 680.999,-383.086"/>
<polygon fill="midnightblue" stroke="midnightblue" points="683.654,-385.369 687.835,-375.634 678.495,-380.637 683.654,-385.369"/>
</g>
<!-- Node13 -->
<g id="node13" class="node"><title>Node13</title>
<g id="a_node13"><a xlink:href="structscram_1_1core_1_1IntrusivePtrCast.xhtml#adc53e5b89cace18e05bac95316da7d91" target="_top" xlink:title="scram::core::IntrusivePtr\lCast\&lt; SetNode \&gt;::Ptr">
<polygon fill="white" stroke="black" points="475.5,-0.5 475.5,-30.5 600.5,-30.5 600.5,-0.5 475.5,-0.5"/>
<text text-anchor="start" x="483.5" y="-18.5" font-family="Helvetica,sans-Serif" font-size="10.00">scram::core::IntrusivePtr</text>
<text text-anchor="middle" x="538" y="-7.5" font-family="Helvetica,sans-Serif" font-size="10.00">Cast&lt; SetNode &gt;::Ptr</text>
</a>
</g>
</g>
<!-- Node2&#45;&gt;Node13 -->
<g id="edge18" class="edge"><title>Node2&#45;&gt;Node13</title>
<path fill="none" stroke="midnightblue" d="M279.896,-444.464C284.083,-441.677 287.9,-438.385 291,-434.5 346.78,-364.582 291.444,-318.572 327,-236.5 370.323,-136.502 385.973,-105.096 473,-39.5 474.809,-38.1362 476.705,-36.8423 478.664,-35.6155"/>
<polygon fill="midnightblue" stroke="midnightblue" points="480.545,-38.5745 487.585,-30.6576 477.144,-32.4558 480.545,-38.5745"/>
</g>
<!-- Node6 -->
<g id="node6" class="node"><title>Node6</title>
<g id="a_node6"><a xlink:href="classscram_1_1core_1_1NonTerminal.xhtml#adcdd0c5114aa6a1d32a03928adc07c49" target="_top" xlink:title="scram::core::NonTerminal\l::coherent">
<polygon fill="white" stroke="black" points="473,-196.5 473,-226.5 603,-226.5 603,-196.5 473,-196.5"/>
<text text-anchor="start" x="481" y="-214.5" font-family="Helvetica,sans-Serif" font-size="10.00">scram::core::NonTerminal</text>
<text text-anchor="middle" x="538" y="-203.5" font-family="Helvetica,sans-Serif" font-size="10.00">::coherent</text>
</a>
</g>
</g>
<!-- Node5&#45;&gt;Node6 -->
<g id="edge5" class="edge"><title>Node5&#45;&gt;Node6</title>
<path fill="none" stroke="midnightblue" d="M430.462,-245.399C446.05,-240.438 463.543,-234.873 479.778,-229.707"/>
<polygon fill="midnightblue" stroke="midnightblue" points="481.227,-232.919 489.695,-226.552 479.105,-226.248 481.227,-232.919"/>
</g>
<!-- Node7 -->
<g id="node7" class="node"><title>Node7</title>
<g id="a_node7"><a xlink:href="classscram_1_1core_1_1Zbdd.xhtml#a42af18229ba2e80201bc0fdac07b7091" target="_top" xlink:title="Finds or adds a unique SetNode in the ZBDD. ">
<polygon fill="white" stroke="black" points="487,-400.5 487,-430.5 589,-430.5 589,-400.5 487,-400.5"/>
<text text-anchor="start" x="495" y="-418.5" font-family="Helvetica,sans-Serif" font-size="10.00">scram::core::Zbdd::</text>
<text text-anchor="middle" x="538" y="-407.5" font-family="Helvetica,sans-Serif" font-size="10.00">FindOrAddVertex</text>
</a>
</g>
</g>
<!-- Node5&#45;&gt;Node7 -->
<g id="edge6" class="edge"><title>Node5&#45;&gt;Node7</title>
<path fill="none" stroke="midnightblue" d="M389.627,-275.691C402.132,-302.684 431.705,-359.199 473,-391.5 474.612,-392.761 476.298,-393.961 478.04,-395.103"/>
<polygon fill="midnightblue" stroke="midnightblue" points="476.723,-398.383 487.136,-400.336 480.213,-392.316 476.723,-398.383"/>
</g>
<!-- Node5&#45;&gt;Node8 -->
<g id="edge14" class="edge"><title>Node5&#45;&gt;Node8</title>
<path fill="none" stroke="midnightblue" d="M433.309,-271.257C494.963,-288.375 598.42,-321.048 656.861,-341.932"/>
<polygon fill="midnightblue" stroke="midnightblue" points="655.941,-345.321 666.535,-345.433 658.323,-338.739 655.941,-345.321"/>
</g>
<!-- Node5&#45;&gt;Node8 -->
<g id="edge15" class="edge"><title>Node5&#45;&gt;Node8</title>
<path fill="none" stroke="midnightblue" d="M416.978,-275.572C467.268,-294.026 562.686,-324.539 628.857,-343.686"/>
<polygon fill="midnightblue" stroke="midnightblue" points="628.229,-347.147 638.806,-346.541 630.16,-340.418 628.229,-347.147"/>
</g>
<!-- Node9 -->
<g id="node9" class="node"><title>Node9</title>
<g id="a_node9"><a xlink:href="classscram_1_1core_1_1NonTerminal.xhtml#aeeaafd82ae5890a7ec3462c68ffc8628" target="_top" xlink:title="scram::core::NonTerminal\l::index">
<polygon fill="white" stroke="black" points="473,-147.5 473,-177.5 603,-177.5 603,-147.5 473,-147.5"/>
<text text-anchor="start" x="481" y="-165.5" font-family="Helvetica,sans-Serif" font-size="10.00">scram::core::NonTerminal</text>
<text text-anchor="middle" x="538" y="-154.5" font-family="Helvetica,sans-Serif" font-size="10.00">::index</text>
</a>
</g>
</g>
<!-- Node5&#45;&gt;Node9 -->
<g id="edge9" class="edge"><title>Node5&#45;&gt;Node9</title>
<path fill="none" stroke="midnightblue" d="M398.467,-245.421C415.566,-229.385 444.481,-204.093 473,-187.5 476.44,-185.499 480.069,-183.595 483.782,-181.796"/>
<polygon fill="midnightblue" stroke="midnightblue" points="485.465,-184.876 493.117,-177.549 482.566,-178.504 485.465,-184.876"/>
</g>
<!-- Node10 -->
<g id="node10" class="node"><title>Node10</title>
<g id="a_node10"><a xlink:href="classscram_1_1core_1_1SetNode.xhtml#a88d05af2b9f4f08b7bc66a31c2b9e249" target="_top" xlink:title="scram::core::SetNode\l::minimal">
<polygon fill="white" stroke="black" points="481.5,-98.5 481.5,-128.5 594.5,-128.5 594.5,-98.5 481.5,-98.5"/>
<text text-anchor="start" x="489.5" y="-116.5" font-family="Helvetica,sans-Serif" font-size="10.00">scram::core::SetNode</text>
<text text-anchor="middle" x="538" y="-105.5" font-family="Helvetica,sans-Serif" font-size="10.00">::minimal</text>
</a>
</g>
</g>
<!-- Node5&#45;&gt;Node10 -->
<g id="edge10" class="edge"><title>Node5&#45;&gt;Node10</title>
<path fill="none" stroke="midnightblue" d="M390.575,-245.213C403.917,-219.734 433.931,-168.435 473,-138.5 475.308,-136.732 477.757,-135.073 480.298,-133.52"/>
<polygon fill="midnightblue" stroke="midnightblue" points="482.134,-136.506 489.229,-128.637 478.776,-130.364 482.134,-136.506"/>
</g>
<!-- Node11 -->
<g id="node11" class="node"><title>Node11</title>
<g id="a_node11"><a xlink:href="classscram_1_1core_1_1NonTerminal.xhtml#a9230422e92d086c34f67bcb864bfc8a9" target="_top" xlink:title="scram::core::NonTerminal\l::module">
<polygon fill="white" stroke="black" points="473,-49.5 473,-79.5 603,-79.5 603,-49.5 473,-49.5"/>
<text text-anchor="start" x="481" y="-67.5" font-family="Helvetica,sans-Serif" font-size="10.00">scram::core::NonTerminal</text>
<text text-anchor="middle" x="538" y="-56.5" font-family="Helvetica,sans-Serif" font-size="10.00">::module</text>
</a>
</g>
</g>
<!-- Node5&#45;&gt;Node11 -->
<g id="edge11" class="edge"><title>Node5&#45;&gt;Node11</title>
<path fill="none" stroke="midnightblue" d="M386.924,-245.321C396.237,-212.21 422.745,-132.911 473,-88.5 474.345,-87.3115 475.754,-86.1796 477.216,-85.1019"/>
<polygon fill="midnightblue" stroke="midnightblue" points="479.489,-87.8055 486.071,-79.5033 475.749,-81.8887 479.489,-87.8055"/>
</g>
<!-- Node12 -->
<g id="node12" class="node"><title>Node12</title>
<g id="a_node12"><a xlink:href="classscram_1_1core_1_1Settings.xhtml#ae64f362fceb44402e101140dfc1725ba" target="_top" xlink:title="scram::core::Settings\l::prime_implicants">
<polygon fill="white" stroke="black" points="483,-351.5 483,-381.5 593,-381.5 593,-351.5 483,-351.5"/>
<text text-anchor="start" x="491" y="-369.5" font-family="Helvetica,sans-Serif" font-size="10.00">scram::core::Settings</text>
<text text-anchor="middle" x="538" y="-358.5" font-family="Helvetica,sans-Serif" font-size="10.00">::prime_implicants</text>
</a>
</g>
</g>
<!-- Node5&#45;&gt;Node12 -->
<g id="edge12" class="edge"><title>Node5&#45;&gt;Node12</title>
<path fill="none" stroke="midnightblue" d="M398.261,-275.582C415.413,-291.986 444.587,-318.297 473,-336.5 478.762,-340.192 485.051,-343.698 491.363,-346.926"/>
<polygon fill="midnightblue" stroke="midnightblue" points="490.05,-350.18 500.57,-351.443 493.134,-343.896 490.05,-350.18"/>
</g>
<!-- Node5&#45;&gt;Node13 -->
<g id="edge13" class="edge"><title>Node5&#45;&gt;Node13</title>
<path fill="none" stroke="midnightblue" d="M389.402,-245.324C399.599,-221.099 420.103,-172.173 437,-130.5 453.343,-90.1929 441.97,-69.978 473,-39.5 474.085,-38.4346 475.221,-37.4157 476.401,-36.4414"/>
<polygon fill="midnightblue" stroke="midnightblue" points="478.535,-39.221 484.744,-30.6362 474.536,-33.4752 478.535,-39.221"/>
</g>
<!-- Node14 -->
<g id="node14" class="node"><title>Node14</title>
<g id="a_node14"><a xlink:href="classscram_1_1core_1_1Terminal.xhtml#a7a25b0b40498f4876571a5dac4e724c3" target="_top" xlink:title="scram::core::Terminal\l::value">
<polygon fill="white" stroke="black" points="482,-245.5 482,-275.5 594,-275.5 594,-245.5 482,-245.5"/>
<text text-anchor="start" x="490" y="-263.5" font-family="Helvetica,sans-Serif" font-size="10.00">scram::core::Terminal</text>
<text text-anchor="middle" x="538" y="-252.5" font-family="Helvetica,sans-Serif" font-size="10.00">::value</text>
</a>
</g>
</g>
<!-- Node5&#45;&gt;Node14 -->
<g id="edge16" class="edge"><title>Node5&#45;&gt;Node14</title>
<path fill="none" stroke="midnightblue" d="M433.425,-260.5C445.677,-260.5 458.951,-260.5 471.779,-260.5"/>
<polygon fill="midnightblue" stroke="midnightblue" points="471.943,-264 481.943,-260.5 471.943,-257 471.943,-264"/>
</g>
<!-- Node7&#45;&gt;Node4 -->
<g id="edge7" class="edge"><title>Node7&#45;&gt;Node4</title>
<path fill="none" stroke="midnightblue" d="M589.214,-428.248C603.722,-431.931 619.772,-436.006 635.062,-439.887"/>
<polygon fill="midnightblue" stroke="midnightblue" points="634.422,-443.336 644.976,-442.404 636.144,-436.551 634.422,-443.336"/>
</g>
<!-- Node7&#45;&gt;Node8 -->
<g id="edge8" class="edge"><title>Node7&#45;&gt;Node8</title>
<path fill="none" stroke="midnightblue" d="M583.131,-400.471C602.803,-393.771 626.154,-385.819 646.827,-378.779"/>
<polygon fill="midnightblue" stroke="midnightblue" points="648.085,-382.048 656.423,-375.511 645.828,-375.421 648.085,-382.048"/>
</g>
<!-- Node15 -->
<g id="node15" class="node"><title>Node15</title>
<g id="a_node15"><a xlink:href="classscram_1_1core_1_1Vertex.xhtml#a8a4a6e9871c7b80b9951fea57617d438" target="_top" xlink:title="scram::core::Vertex::id">
<polygon fill="white" stroke="black" points="643.5,-251 643.5,-270 759.5,-270 759.5,-251 643.5,-251"/>
<text text-anchor="middle" x="701.5" y="-258" font-family="Helvetica,sans-Serif" font-size="10.00">scram::core::Vertex::id</text>
</a>
</g>
</g>
<!-- Node14&#45;&gt;Node15 -->
<g id="edge17" class="edge"><title>Node14&#45;&gt;Node15</title>
<path fill="none" stroke="midnightblue" d="M594.127,-260.5C606.673,-260.5 620.14,-260.5 633.131,-260.5"/>
<polygon fill="midnightblue" stroke="midnightblue" points="633.421,-264 643.421,-260.5 633.421,-257 633.421,-264"/>
</g>
</g>
</svg>
