<?xml version="1.0" encoding="UTF-8" standalone="no"?>
<!DOCTYPE svg PUBLIC "-//W3C//DTD SVG 1.1//EN"
 "http://www.w3.org/Graphics/SVG/1.1/DTD/svg11.dtd">
<!-- Generated by graphviz version 2.38.0 (20140413.2041)
 -->
<!-- Title: scram::core::Preprocessor::ProcessStateDestinations Pages: 1 -->
<svg width="313pt" height="78pt"
 viewBox="0.00 0.00 313.00 77.50" xmlns="http://www.w3.org/2000/svg" xmlns:xlink="http://www.w3.org/1999/xlink">
<g id="graph0" class="graph" transform="scale(1 1) rotate(0) translate(4 73.5)">
<title>scram::core::Preprocessor::ProcessStateDestinations</title>
<polygon fill="white" stroke="none" points="-4,4 -4,-73.5 309,-73.5 309,4 -4,4"/>
<!-- Node1 -->
<g id="node1" class="node"><title>Node1</title>
<polygon fill="#bfbfbf" stroke="black" points="0,-17 0,-47 137,-47 137,-17 0,-17"/>
<text text-anchor="start" x="8" y="-35" font-family="Helvetica,sans-Serif" font-size="10.00">scram::core::Preprocessor</text>
<text text-anchor="middle" x="68.5" y="-24" font-family="Helvetica,sans-Serif" font-size="10.00">::ProcessStateDestinations</text>
</g>
<!-- Node2 -->
<g id="node2" class="node"><title>Node2</title>
<g id="a_node2"><a xlink:href="classscram_1_1core_1_1Preprocessor.xhtml#a26434bec1bc5a496f80c9cbad1ed3a62" target="_top" xlink:title="Replaces one gate in the graph with another. ">
<polygon fill="white" stroke="black" points="173,-39 173,-69 305,-69 305,-39 173,-39"/>
<text text-anchor="start" x="181" y="-57" font-family="Helvetica,sans-Serif" font-size="10.00">scram::core::Preprocessor</text>
<text text-anchor="middle" x="239" y="-46" font-family="Helvetica,sans-Serif" font-size="10.00">::ReplaceGate</text>
</a>
</g>
</g>
<!-- Node1&#45;&gt;Node2 -->
<g id="edge1" class="edge"><title>Node1&#45;&gt;Node2</title>
<path fill="none" stroke="midnightblue" d="M137.065,-40.8215C145.554,-41.9299 154.278,-43.069 162.875,-44.1914"/>
<polygon fill="midnightblue" stroke="midnightblue" points="162.517,-47.6742 172.886,-45.4984 163.423,-40.7331 162.517,-47.6742"/>
</g>
<!-- Node3 -->
<g id="node3" class="node"><title>Node3</title>
<g id="a_node3"><a xlink:href="classscram_1_1core_1_1Pdag.xhtml#ae9407efbb00e5f28aecb40db2ab7925b" target="_top" xlink:title="scram::core::Pdag::root">
<polygon fill="white" stroke="black" points="179.5,-0.5 179.5,-19.5 298.5,-19.5 298.5,-0.5 179.5,-0.5"/>
<text text-anchor="middle" x="239" y="-7.5" font-family="Helvetica,sans-Serif" font-size="10.00">scram::core::Pdag::root</text>
</a>
</g>
</g>
<!-- Node1&#45;&gt;Node3 -->
<g id="edge2" class="edge"><title>Node1&#45;&gt;Node3</title>
<path fill="none" stroke="midnightblue" d="M137.065,-23.1785C147.68,-21.7925 158.664,-20.3584 169.305,-18.969"/>
<polygon fill="midnightblue" stroke="midnightblue" points="169.916,-22.419 179.379,-17.6538 169.01,-15.478 169.916,-22.419"/>
</g>
</g>
</svg>
