<?xml version="1.0" encoding="UTF-8" standalone="no"?>
<!DOCTYPE svg PUBLIC "-//W3C//DTD SVG 1.1//EN"
 "http://www.w3.org/Graphics/SVG/1.1/DTD/svg11.dtd">
<!-- Generated by graphviz version 2.38.0 (20140413.2041)
 -->
<!-- Title: scram::core::ProbabilityAnalyzer&lt; Bdd &gt;::ProbabilityAnalyzer Pages: 1 -->
<svg width="340pt" height="137pt"
 viewBox="0.00 0.00 340.00 137.00" xmlns="http://www.w3.org/2000/svg" xmlns:xlink="http://www.w3.org/1999/xlink">
<g id="graph0" class="graph" transform="scale(1 1) rotate(0) translate(4 133)">
<title>scram::core::ProbabilityAnalyzer&lt; Bdd &gt;::ProbabilityAnalyzer</title>
<polygon fill="white" stroke="none" points="-4,4 -4,-133 336,-133 336,4 -4,4"/>
<!-- Node1 -->
<g id="node1" class="node"><title>Node1</title>
<polygon fill="#bfbfbf" stroke="black" points="0,-44 0,-85 142,-85 142,-44 0,-44"/>
<text text-anchor="start" x="8" y="-73" font-family="Helvetica,sans-Serif" font-size="10.00">scram::core::Probability</text>
<text text-anchor="start" x="8" y="-62" font-family="Helvetica,sans-Serif" font-size="10.00">Analyzer&lt; Bdd &gt;::Probability</text>
<text text-anchor="middle" x="71" y="-51" font-family="Helvetica,sans-Serif" font-size="10.00">Analyzer</text>
</g>
<!-- Node2 -->
<g id="node2" class="node"><title>Node2</title>
<g id="a_node2"><a xlink:href="classscram_1_1core_1_1FaultTreeAnalyzer.xhtml#a306ce3db289e08e34def4337360b117b" target="_top" xlink:title="scram::core::FaultTreeAnalyzer\l::algorithm">
<polygon fill="white" stroke="black" points="178,-98.5 178,-128.5 332,-128.5 332,-98.5 178,-98.5"/>
<text text-anchor="start" x="186" y="-116.5" font-family="Helvetica,sans-Serif" font-size="10.00">scram::core::FaultTreeAnalyzer</text>
<text text-anchor="middle" x="255" y="-105.5" font-family="Helvetica,sans-Serif" font-size="10.00">::algorithm</text>
</a>
</g>
</g>
<!-- Node1&#45;&gt;Node2 -->
<g id="edge1" class="edge"><title>Node1&#45;&gt;Node2</title>
<path fill="none" stroke="midnightblue" d="M142.106,-83.3746C157.302,-87.466 173.321,-91.7786 188.338,-95.8219"/>
<polygon fill="midnightblue" stroke="midnightblue" points="187.478,-99.2148 198.044,-98.435 189.298,-92.4555 187.478,-99.2148"/>
</g>
<!-- Node3 -->
<g id="node3" class="node"><title>Node3</title>
<g id="a_node3"><a xlink:href="classscram_1_1core_1_1NonTerminal.xhtml#a7b70ab1b978f3197458c95e0891fd79c" target="_top" xlink:title="scram::core::NonTerminal\l::mark">
<polygon fill="white" stroke="black" points="190,-49.5 190,-79.5 320,-79.5 320,-49.5 190,-49.5"/>
<text text-anchor="start" x="198" y="-67.5" font-family="Helvetica,sans-Serif" font-size="10.00">scram::core::NonTerminal</text>
<text text-anchor="middle" x="255" y="-56.5" font-family="Helvetica,sans-Serif" font-size="10.00">::mark</text>
</a>
</g>
</g>
<!-- Node1&#45;&gt;Node3 -->
<g id="edge2" class="edge"><title>Node1&#45;&gt;Node3</title>
<path fill="none" stroke="midnightblue" d="M142.106,-64.5C154.388,-64.5 167.207,-64.5 179.601,-64.5"/>
<polygon fill="midnightblue" stroke="midnightblue" points="179.891,-68.0001 189.891,-64.5 179.891,-61.0001 179.891,-68.0001"/>
</g>
<!-- Node4 -->
<g id="node4" class="node"><title>Node4</title>
<g id="a_node4"><a xlink:href="structscram_1_1core_1_1IntrusivePtrCast.xhtml#af153c12dc6133b7d9f9b7a57bba29f1d" target="_top" xlink:title="scram::core::IntrusivePtr\lCast\&lt; Ite \&gt;::Ref">
<polygon fill="white" stroke="black" points="192.5,-0.5 192.5,-30.5 317.5,-30.5 317.5,-0.5 192.5,-0.5"/>
<text text-anchor="start" x="200.5" y="-18.5" font-family="Helvetica,sans-Serif" font-size="10.00">scram::core::IntrusivePtr</text>
<text text-anchor="middle" x="255" y="-7.5" font-family="Helvetica,sans-Serif" font-size="10.00">Cast&lt; Ite &gt;::Ref</text>
</a>
</g>
</g>
<!-- Node1&#45;&gt;Node4 -->
<g id="edge3" class="edge"><title>Node1&#45;&gt;Node4</title>
<path fill="none" stroke="midnightblue" d="M142.106,-45.6254C157.302,-41.534 173.321,-37.2214 188.338,-33.1781"/>
<polygon fill="midnightblue" stroke="midnightblue" points="189.298,-36.5445 198.044,-30.565 187.478,-29.7852 189.298,-36.5445"/>
</g>
</g>
</svg>
