<?xml version="1.0" encoding="UTF-8" standalone="no"?>
<!DOCTYPE svg PUBLIC "-//W3C//DTD SVG 1.1//EN"
 "http://www.w3.org/Graphics/SVG/1.1/DTD/svg11.dtd">
<!-- Generated by graphviz version 2.38.0 (20140413.2041)
 -->
<!-- Title: scram::core::RareEventCalculator::Calculate Pages: 1 -->
<svg width="360pt" height="39pt"
 viewBox="0.00 0.00 360.00 39.00" xmlns="http://www.w3.org/2000/svg" xmlns:xlink="http://www.w3.org/1999/xlink">
<g id="graph0" class="graph" transform="scale(1 1) rotate(0) translate(4 35)">
<title>scram::core::RareEventCalculator::Calculate</title>
<polygon fill="white" stroke="none" points="-4,4 -4,-35 356,-35 356,4 -4,4"/>
<!-- Node1 -->
<g id="node1" class="node"><title>Node1</title>
<polygon fill="#bfbfbf" stroke="black" points="0,-0.5 0,-30.5 165,-30.5 165,-0.5 0,-0.5"/>
<text text-anchor="start" x="8" y="-18.5" font-family="Helvetica,sans-Serif" font-size="10.00">scram::core::RareEventCalculator</text>
<text text-anchor="middle" x="82.5" y="-7.5" font-family="Helvetica,sans-Serif" font-size="10.00">::Calculate</text>
</g>
<!-- Node2 -->
<g id="node2" class="node"><title>Node2</title>
<g id="a_node2"><a xlink:href="classscram_1_1core_1_1CutSetProbabilityCalculator.xhtml#ac07d9fe45e02f3c6ef0b25a111684b2d" target="_top" xlink:title="Calculates a probability of a cut set, whose members are in AND relationship with each other...">
<polygon fill="white" stroke="black" points="201,-0.5 201,-30.5 352,-30.5 352,-0.5 201,-0.5"/>
<text text-anchor="start" x="209" y="-18.5" font-family="Helvetica,sans-Serif" font-size="10.00">scram::core::CutSetProbability</text>
<text text-anchor="middle" x="276.5" y="-7.5" font-family="Helvetica,sans-Serif" font-size="10.00">Calculator::Calculate</text>
</a>
</g>
</g>
<!-- Node1&#45;&gt;Node2 -->
<g id="edge1" class="edge"><title>Node1&#45;&gt;Node2</title>
<path fill="none" stroke="midnightblue" d="M165.204,-15.5C173.621,-15.5 182.188,-15.5 190.639,-15.5"/>
<polygon fill="midnightblue" stroke="midnightblue" points="190.871,-19.0001 200.871,-15.5 190.871,-12.0001 190.871,-19.0001"/>
</g>
</g>
</svg>
