<?xml version="1.0" encoding="UTF-8" standalone="no"?>
<!DOCTYPE svg PUBLIC "-//W3C//DTD SVG 1.1//EN"
 "http://www.w3.org/Graphics/SVG/1.1/DTD/svg11.dtd">
<!-- Generated by graphviz version 2.38.0 (20140413.2041)
 -->
<!-- Title: scram::core::Zbdd::empty Pages: 1 -->
<svg width="299pt" height="39pt"
 viewBox="0.00 0.00 299.00 39.00" xmlns="http://www.w3.org/2000/svg" xmlns:xlink="http://www.w3.org/1999/xlink">
<g id="graph0" class="graph" transform="scale(1 1) rotate(0) translate(4 35)">
<title>scram::core::Zbdd::empty</title>
<polygon fill="white" stroke="none" points="-4,4 -4,-35 295,-35 295,4 -4,4"/>
<!-- Node1 -->
<g id="node1" class="node"><title>Node1</title>
<polygon fill="#bfbfbf" stroke="black" points="0,-0.5 0,-30.5 102,-30.5 102,-0.5 0,-0.5"/>
<text text-anchor="start" x="8" y="-18.5" font-family="Helvetica,sans-Serif" font-size="10.00">scram::core::Zbdd::</text>
<text text-anchor="middle" x="51" y="-7.5" font-family="Helvetica,sans-Serif" font-size="10.00">empty</text>
</g>
<!-- Node2 -->
<g id="node2" class="node"><title>Node2</title>
<g id="a_node2"><a xlink:href="classscram_1_1core_1_1FaultTreeAnalysis.xhtml#a327afc0524cff5289c3887357487266b" target="_top" xlink:title="Analyzes the fault tree and performs computations. ">
<polygon fill="white" stroke="black" points="138,-0.5 138,-30.5 291,-30.5 291,-0.5 138,-0.5"/>
<text text-anchor="start" x="146" y="-18.5" font-family="Helvetica,sans-Serif" font-size="10.00">scram::core::FaultTreeAnalysis</text>
<text text-anchor="middle" x="214.5" y="-7.5" font-family="Helvetica,sans-Serif" font-size="10.00">::Analyze</text>
</a>
</g>
</g>
<!-- Node1&#45;&gt;Node2 -->
<g id="edge1" class="edge"><title>Node1&#45;&gt;Node2</title>
<path fill="none" stroke="midnightblue" d="M112.219,-15.5C120.57,-15.5 129.234,-15.5 137.822,-15.5"/>
<polygon fill="midnightblue" stroke="midnightblue" points="112.214,-12.0001 102.214,-15.5 112.214,-19.0001 112.214,-12.0001"/>
</g>
</g>
</svg>
