<?xml version="1.0" encoding="UTF-8" standalone="no"?>
<!DOCTYPE svg PUBLIC "-//W3C//DTD SVG 1.1//EN"
 "http://www.w3.org/Graphics/SVG/1.1/DTD/svg11.dtd">
<!-- Generated by graphviz version 2.38.0 (20140413.2041)
 -->
<!-- Title: scram::core::Preprocessor::RunPhaseFive Pages: 1 -->
<svg width="511pt" height="88pt"
 viewBox="0.00 0.00 511.00 88.00" xmlns="http://www.w3.org/2000/svg" xmlns:xlink="http://www.w3.org/1999/xlink">
<g id="graph0" class="graph" transform="scale(1 1) rotate(0) translate(4 84)">
<title>scram::core::Preprocessor::RunPhaseFive</title>
<polygon fill="white" stroke="none" points="-4,4 -4,-84 507,-84 507,4 -4,4"/>
<!-- Node1 -->
<g id="node1" class="node"><title>Node1</title>
<polygon fill="#bfbfbf" stroke="black" points="0,-24.5 0,-54.5 132,-54.5 132,-24.5 0,-24.5"/>
<text text-anchor="start" x="8" y="-42.5" font-family="Helvetica,sans-Serif" font-size="10.00">scram::core::Preprocessor</text>
<text text-anchor="middle" x="66" y="-31.5" font-family="Helvetica,sans-Serif" font-size="10.00">::RunPhaseFive</text>
</g>
<!-- Node2 -->
<g id="node2" class="node"><title>Node2</title>
<g id="a_node2"><a xlink:href="classscram_1_1core_1_1Preprocessor.xhtml#a5ee92284aef510ce01a71c962d50f51c" target="_top" xlink:title="Runs the graph preprocessing. ">
<polygon fill="white" stroke="black" points="185.5,-49.5 185.5,-79.5 317.5,-79.5 317.5,-49.5 185.5,-49.5"/>
<text text-anchor="start" x="193.5" y="-67.5" font-family="Helvetica,sans-Serif" font-size="10.00">scram::core::Preprocessor</text>
<text text-anchor="middle" x="251.5" y="-56.5" font-family="Helvetica,sans-Serif" font-size="10.00">::operator()</text>
</a>
</g>
</g>
<!-- Node1&#45;&gt;Node2 -->
<g id="edge1" class="edge"><title>Node1&#45;&gt;Node2</title>
<path fill="none" stroke="midnightblue" d="M142.489,-49.7847C156.764,-51.7294 171.581,-53.7481 185.498,-55.6442"/>
<polygon fill="midnightblue" stroke="midnightblue" points="142.593,-46.2665 132.212,-48.3845 141.648,-53.2024 142.593,-46.2665"/>
</g>
<!-- Node4 -->
<g id="node4" class="node"><title>Node4</title>
<g id="a_node4"><a xlink:href="classscram_1_1core_1_1CustomPreprocessor_3_01Zbdd_01_4.xhtml#a5185075f852c647c7aa4313d23420ee5" target="_top" xlink:title="Performs preprocessing for analyses with Zero&#45;Suppressed Binary Decision Diagrams. ">
<polygon fill="white" stroke="black" points="168,-0.5 168,-30.5 335,-30.5 335,-0.5 168,-0.5"/>
<text text-anchor="start" x="176" y="-18.5" font-family="Helvetica,sans-Serif" font-size="10.00">scram::core::CustomPreprocessor</text>
<text text-anchor="middle" x="251.5" y="-7.5" font-family="Helvetica,sans-Serif" font-size="10.00">&lt; Zbdd &gt;::Run</text>
</a>
</g>
</g>
<!-- Node1&#45;&gt;Node4 -->
<g id="edge3" class="edge"><title>Node1&#45;&gt;Node4</title>
<path fill="none" stroke="midnightblue" d="M142.351,-29.6448C150.756,-28.5455 159.352,-27.4213 167.842,-26.3108"/>
<polygon fill="midnightblue" stroke="midnightblue" points="141.674,-26.2035 132.212,-30.9709 142.581,-33.1444 141.674,-26.2035"/>
</g>
<!-- Node3 -->
<g id="node3" class="node"><title>Node3</title>
<g id="a_node3"><a xlink:href="classscram_1_1core_1_1Preprocessor_1_1GateSet.xhtml#ae00239084858979e096032c4cf2f05b9" target="_top" xlink:title="Inserts a gate into the set if it is semantically unique. ">
<polygon fill="white" stroke="black" points="371,-49.5 371,-79.5 503,-79.5 503,-49.5 371,-49.5"/>
<text text-anchor="start" x="379" y="-67.5" font-family="Helvetica,sans-Serif" font-size="10.00">scram::core::Preprocessor</text>
<text text-anchor="middle" x="437" y="-56.5" font-family="Helvetica,sans-Serif" font-size="10.00">::GateSet::insert</text>
</a>
</g>
</g>
<!-- Node2&#45;&gt;Node3 -->
<g id="edge2" class="edge"><title>Node2&#45;&gt;Node3</title>
<path fill="none" stroke="midnightblue" d="M327.989,-64.5C342.264,-64.5 357.081,-64.5 370.998,-64.5"/>
<polygon fill="midnightblue" stroke="midnightblue" points="327.712,-61.0001 317.712,-64.5 327.712,-68.0001 327.712,-61.0001"/>
</g>
</g>
</svg>
