<?xml version="1.0" encoding="UTF-8" standalone="no"?>
<!DOCTYPE svg PUBLIC "-//W3C//DTD SVG 1.1//EN"
 "http://www.w3.org/Graphics/SVG/1.1/DTD/svg11.dtd">
<!-- Generated by graphviz version 2.38.0 (20140413.2041)
 -->
<!-- Title: scram::core::Preprocessor::ReplaceGate Pages: 1 -->
<!--zoomable 225 -->
<svg id="main" version="1.1" xmlns="http://www.w3.org/2000/svg" xmlns:xlink="http://www.w3.org/1999/xlink" xml:space="preserve" onload="init(evt)">
<style type="text/css"><![CDATA[
.edge:hover path { stroke: red; }
.edge:hover polygon { stroke: red; fill: red; }
]]></style>
<script type="text/javascript"><![CDATA[
var edges = document.getElementsByTagName('g');
if (edges && edges.length) {
  for (var i=0;i<edges.length;i++) {
    if (edges[i].id.substr(0,4)=='edge') {
      edges[i].setAttribute('class','edge');
    }
  }
}
]]></script>
        <defs>
                <circle id="rim" cx="0" cy="0" r="7"/>
                <circle id="rim2" cx="0" cy="0" r="3.5"/>
                <g id="zoomPlus">
                        <use xlink:href="#rim" fill="#404040">
                                <set attributeName="fill" to="#808080" begin="zoomplus.mouseover" end="zoomplus.mouseout"/>
                        </use>
                        <path d="M-4,0h8M0,-4v8" fill="none" stroke="white" stroke-width="1.5" pointer-events="none"/>
                </g>
                <g id="zoomMin">
                        <use xlink:href="#rim" fill="#404040">
                                <set attributeName="fill" to="#808080" begin="zoomminus.mouseover" end="zoomminus.mouseout"/>
                        </use>
                        <path d="M-4,0h8" fill="none" stroke="white" stroke-width="1.5" pointer-events="none"/>
                </g>
                <g id="dirArrow">
                        <path fill="none" stroke="white" stroke-width="1.5" d="M0,-3.0v7 M-2.5,-0.5L0,-3.0L2.5,-0.5"/>
                </g>
               <g id="resetDef">
                       <use xlink:href="#rim2" fill="#404040">
                               <set attributeName="fill" to="#808080" begin="reset.mouseover" end="reset.mouseout"/>
                       </use>
               </g>
        </defs>

<script type="text/javascript">
var viewWidth = 1555;
var viewHeight = 225;
var sectionId = 'dynsection-87';
</script>
<script xlink:href="svgpan.js"/>
<svg id="graph" class="graph">
<g id="viewport">
<title>scram::core::Preprocessor::ReplaceGate</title>
<polygon fill="white" stroke="none" points="-4,4 -4,-221.444 1551,-221.444 1551,4 -4,4"/>
<!-- Node1 -->
<g id="node1" class="node"><title>Node1</title>
<polygon fill="#bfbfbf" stroke="black" points="0,-140.5 0,-170.5 132,-170.5 132,-140.5 0,-140.5"/>
<text text-anchor="start" x="8" y="-158.5" font-family="Helvetica,sans-Serif" font-size="10.00">scram::core::Preprocessor</text>
<text text-anchor="middle" x="66" y="-147.5" font-family="Helvetica,sans-Serif" font-size="10.00">::ReplaceGate</text>
</g>
<!-- Node2 -->
<g id="node2" class="node"><title>Node2</title>
<g id="a_node2"><a xlink:href="classscram_1_1core_1_1Preprocessor.xhtml#ac0abd7f5b54f98643644110b160569bd" target="_top" xlink:title="Detects and replaces multiple definitions of gates. ">
<polygon fill="white" stroke="black" points="509,-164.5 509,-194.5 648,-194.5 648,-164.5 509,-164.5"/>
<text text-anchor="start" x="517" y="-182.5" font-family="Helvetica,sans-Serif" font-size="10.00">scram::core::Preprocessor</text>
<text text-anchor="middle" x="578.5" y="-171.5" font-family="Helvetica,sans-Serif" font-size="10.00">::ProcessMultipleDefinitions</text>
</a>
</g>
</g>
<!-- Node1&#45;&gt;Node2 -->
<g id="edge1" class="edge"><title>Node1&#45;&gt;Node2</title>
<path fill="none" stroke="midnightblue" d="M142.384,-159.044C241.208,-163.69 413.17,-171.774 508.643,-176.263"/>
<polygon fill="midnightblue" stroke="midnightblue" points="142.327,-155.538 132.174,-158.564 141.998,-162.53 142.327,-155.538"/>
</g>
<!-- Node12 -->
<g id="node12" class="node"><title>Node12</title>
<g id="a_node12"><a xlink:href="classscram_1_1core_1_1Preprocessor.xhtml#aa42b66bb888f665bc68324cca15452ad" target="_top" xlink:title="Transforms failure or success destination according to the logic and the common node. ">
<polygon fill="white" stroke="black" points="168,-118.5 168,-148.5 305,-148.5 305,-118.5 168,-118.5"/>
<text text-anchor="start" x="176" y="-136.5" font-family="Helvetica,sans-Serif" font-size="10.00">scram::core::Preprocessor</text>
<text text-anchor="middle" x="236.5" y="-125.5" font-family="Helvetica,sans-Serif" font-size="10.00">::ProcessStateDestinations</text>
</a>
</g>
</g>
<!-- Node1&#45;&gt;Node12 -->
<g id="edge19" class="edge"><title>Node1&#45;&gt;Node12</title>
<path fill="none" stroke="midnightblue" d="M142.093,-145.696C150.634,-144.58 159.302,-143.449 167.74,-142.347"/>
<polygon fill="midnightblue" stroke="midnightblue" points="141.609,-142.229 132.146,-146.994 142.515,-149.17 141.609,-142.229"/>
</g>
<!-- Node3 -->
<g id="node3" class="node"><title>Node3</title>
<g id="a_node3"><a xlink:href="classscram_1_1core_1_1Preprocessor.xhtml#a5ee92284aef510ce01a71c962d50f51c" target="_top" xlink:title="Runs the graph preprocessing. ">
<polygon fill="white" stroke="black" points="1229.5,-116.5 1229.5,-146.5 1361.5,-146.5 1361.5,-116.5 1229.5,-116.5"/>
<text text-anchor="start" x="1237.5" y="-134.5" font-family="Helvetica,sans-Serif" font-size="10.00">scram::core::Preprocessor</text>
<text text-anchor="middle" x="1295.5" y="-123.5" font-family="Helvetica,sans-Serif" font-size="10.00">::operator()</text>
</a>
</g>
</g>
<!-- Node2&#45;&gt;Node3 -->
<g id="edge2" class="edge"><title>Node2&#45;&gt;Node3</title>
<path fill="none" stroke="midnightblue" d="M658.431,-193.919C773.943,-212.188 994.97,-236.359 1176,-192.5 1212.43,-183.674 1250.21,-161.591 1273.04,-146.563"/>
<polygon fill="midnightblue" stroke="midnightblue" points="658.694,-190.416 648.265,-192.283 657.582,-197.327 658.694,-190.416"/>
</g>
<!-- Node5 -->
<g id="node5" class="node"><title>Node5</title>
<g id="a_node5"><a xlink:href="classscram_1_1core_1_1Preprocessor.xhtml#a9d5f89471499508eb9e6c01ea43e0f15" target="_top" xlink:title="Preprocessing phase of the original structure of the graph. ">
<polygon fill="white" stroke="black" points="684,-115.5 684,-145.5 816,-145.5 816,-115.5 684,-115.5"/>
<text text-anchor="start" x="692" y="-133.5" font-family="Helvetica,sans-Serif" font-size="10.00">scram::core::Preprocessor</text>
<text text-anchor="middle" x="750" y="-122.5" font-family="Helvetica,sans-Serif" font-size="10.00">::RunPhaseTwo</text>
</a>
</g>
</g>
<!-- Node2&#45;&gt;Node5 -->
<g id="edge4" class="edge"><title>Node2&#45;&gt;Node5</title>
<path fill="none" stroke="midnightblue" d="M641.399,-161.606C659.63,-156.336 679.386,-150.624 696.934,-145.552"/>
<polygon fill="midnightblue" stroke="midnightblue" points="640.373,-158.259 631.739,-164.399 642.317,-164.984 640.373,-158.259"/>
</g>
<!-- Node4 -->
<g id="node4" class="node"><title>Node4</title>
<g id="a_node4"><a xlink:href="classscram_1_1core_1_1Preprocessor_1_1GateSet.xhtml#ae00239084858979e096032c4cf2f05b9" target="_top" xlink:title="Inserts a gate into the set if it is semantically unique. ">
<polygon fill="white" stroke="black" points="1415,-116.5 1415,-146.5 1547,-146.5 1547,-116.5 1415,-116.5"/>
<text text-anchor="start" x="1423" y="-134.5" font-family="Helvetica,sans-Serif" font-size="10.00">scram::core::Preprocessor</text>
<text text-anchor="middle" x="1481" y="-123.5" font-family="Helvetica,sans-Serif" font-size="10.00">::GateSet::insert</text>
</a>
</g>
</g>
<!-- Node3&#45;&gt;Node4 -->
<g id="edge3" class="edge"><title>Node3&#45;&gt;Node4</title>
<path fill="none" stroke="midnightblue" d="M1371.99,-131.5C1386.26,-131.5 1401.08,-131.5 1415,-131.5"/>
<polygon fill="midnightblue" stroke="midnightblue" points="1371.71,-128 1361.71,-131.5 1371.71,-135 1371.71,-128"/>
</g>
<!-- Node5&#45;&gt;Node3 -->
<g id="edge5" class="edge"><title>Node5&#45;&gt;Node3</title>
<path fill="none" stroke="midnightblue" d="M815.879,-147.914C899.559,-167.897 1049.4,-195.271 1176,-173.5 1205.9,-168.358 1238.27,-156.418 1261.61,-146.577"/>
<polygon fill="midnightblue" stroke="midnightblue" points="816.551,-144.476 806.008,-145.518 814.9,-151.278 816.551,-144.476"/>
</g>
<!-- Node6 -->
<g id="node6" class="node"><title>Node6</title>
<g id="a_node6"><a xlink:href="classscram_1_1core_1_1Preprocessor.xhtml#a2b6705e815fa3d02119c405b483766d5" target="_top" xlink:title="Container of unique gates by semantics. ">
<polygon fill="white" stroke="black" points="1020,-8 1020,-27 1176,-27 1176,-8 1020,-8"/>
<text text-anchor="middle" x="1098" y="-15" font-family="Helvetica,sans-Serif" font-size="10.00">scram::core::Preprocessor::Run</text>
</a>
</g>
</g>
<!-- Node5&#45;&gt;Node6 -->
<g id="edge6" class="edge"><title>Node5&#45;&gt;Node6</title>
<path fill="none" stroke="midnightblue" d="M769.865,-107.419C788.391,-86.553 818.66,-56.9592 852,-42.5 904.856,-19.5768 969.949,-13.8591 1019.75,-13.5852"/>
<polygon fill="midnightblue" stroke="midnightblue" points="767.021,-105.357 763.129,-115.211 772.317,-109.935 767.021,-105.357"/>
</g>
<!-- Node9 -->
<g id="node9" class="node"><title>Node9</title>
<g id="a_node9"><a xlink:href="classscram_1_1core_1_1Preprocessor.xhtml#a3569bbcd5e863c750cdfa69115399600" target="_top" xlink:title="The final phase that cleans up the graph, and puts the structure of the graph ready for analysis...">
<polygon fill="white" stroke="black" points="1032,-46.5 1032,-76.5 1164,-76.5 1164,-46.5 1032,-46.5"/>
<text text-anchor="start" x="1040" y="-64.5" font-family="Helvetica,sans-Serif" font-size="10.00">scram::core::Preprocessor</text>
<text text-anchor="middle" x="1098" y="-53.5" font-family="Helvetica,sans-Serif" font-size="10.00">::RunPhaseFive</text>
</a>
</g>
</g>
<!-- Node5&#45;&gt;Node9 -->
<g id="edge10" class="edge"><title>Node5&#45;&gt;Node9</title>
<path fill="none" stroke="midnightblue" d="M826.24,-119.736C872.046,-112.73 931.634,-102.808 984,-91.5 1003.84,-87.2157 1025.42,-81.7009 1044.36,-76.5706"/>
<polygon fill="midnightblue" stroke="midnightblue" points="825.454,-116.315 816.092,-121.275 826.504,-123.236 825.454,-116.315"/>
</g>
<!-- Node10 -->
<g id="node10" class="node"><title>Node10</title>
<g id="a_node10"><a xlink:href="classscram_1_1core_1_1Preprocessor.xhtml#a5c224938dfba861f061525658bd7b156" target="_top" xlink:title="Propagation of complements. ">
<polygon fill="white" stroke="black" points="1032,-134.5 1032,-164.5 1164,-164.5 1164,-134.5 1032,-134.5"/>
<text text-anchor="start" x="1040" y="-152.5" font-family="Helvetica,sans-Serif" font-size="10.00">scram::core::Preprocessor</text>
<text text-anchor="middle" x="1098" y="-141.5" font-family="Helvetica,sans-Serif" font-size="10.00">::RunPhaseFour</text>
</a>
</g>
</g>
<!-- Node5&#45;&gt;Node10 -->
<g id="edge13" class="edge"><title>Node5&#45;&gt;Node10</title>
<path fill="none" stroke="midnightblue" d="M826.097,-134.624C887.493,-137.995 973.413,-142.713 1031.92,-145.926"/>
<polygon fill="midnightblue" stroke="midnightblue" points="826.257,-131.127 816.08,-134.074 825.873,-138.117 826.257,-131.127"/>
</g>
<!-- Node11 -->
<g id="node11" class="node"><title>Node11</title>
<g id="a_node11"><a xlink:href="classscram_1_1core_1_1Preprocessor.xhtml#abf2c66723172a85b2ae87ef2a034cd1f" target="_top" xlink:title="Application of gate normalization. ">
<polygon fill="white" stroke="black" points="852,-52.5 852,-82.5 984,-82.5 984,-52.5 852,-52.5"/>
<text text-anchor="start" x="860" y="-70.5" font-family="Helvetica,sans-Serif" font-size="10.00">scram::core::Preprocessor</text>
<text text-anchor="middle" x="918" y="-59.5" font-family="Helvetica,sans-Serif" font-size="10.00">::RunPhaseThree</text>
</a>
</g>
</g>
<!-- Node5&#45;&gt;Node11 -->
<g id="edge16" class="edge"><title>Node5&#45;&gt;Node11</title>
<path fill="none" stroke="midnightblue" d="M800.269,-111.801C824.841,-102.476 854.166,-91.3467 877.276,-82.576"/>
<polygon fill="midnightblue" stroke="midnightblue" points="798.869,-108.589 790.761,-115.41 801.352,-115.134 798.869,-108.589"/>
</g>
<!-- Node6&#45;&gt;Node3 -->
<g id="edge8" class="edge"><title>Node6&#45;&gt;Node3</title>
<path fill="none" stroke="midnightblue" d="M1166.72,-31.0723C1169.96,-32.6834 1173.08,-34.4851 1176,-36.5 1199.14,-52.4547 1190.92,-69.9049 1212,-88.5 1224.96,-99.9328 1241.5,-109.321 1256.36,-116.375"/>
<polygon fill="midnightblue" stroke="midnightblue" points="1167.89,-27.7651 1157.32,-27.0179 1165.12,-34.1926 1167.89,-27.7651"/>
</g>
<!-- Node7 -->
<g id="node7" class="node"><title>Node7</title>
<g id="a_node7"><a xlink:href="classscram_1_1core_1_1Preprocessor.xhtml#a9caf4677a024ed935d831210b57b8ed9" target="_top" xlink:title="Gathers nodes in the sub&#45;graph. ">
<polygon fill="white" stroke="black" points="1229.5,-0.5 1229.5,-30.5 1361.5,-30.5 1361.5,-0.5 1229.5,-0.5"/>
<text text-anchor="start" x="1237.5" y="-18.5" font-family="Helvetica,sans-Serif" font-size="10.00">scram::core::Preprocessor</text>
<text text-anchor="middle" x="1295.5" y="-7.5" font-family="Helvetica,sans-Serif" font-size="10.00">::GatherNodes</text>
</a>
</g>
</g>
<!-- Node6&#45;&gt;Node7 -->
<g id="edge7" class="edge"><title>Node6&#45;&gt;Node7</title>
<path fill="none" stroke="midnightblue" d="M1186.67,-16.6031C1201.06,-16.4559 1215.74,-16.3057 1229.46,-16.1654"/>
<polygon fill="midnightblue" stroke="midnightblue" points="1186.23,-13.1073 1176.27,-16.7095 1186.3,-20.107 1186.23,-13.1073"/>
</g>
<!-- Node8 -->
<g id="node8" class="node"><title>Node8</title>
<g id="a_node8"><a xlink:href="classscram_1_1core_1_1CustomPreprocessor_3_01Zbdd_01_4.xhtml#a5185075f852c647c7aa4313d23420ee5" target="_top" xlink:title="Performs preprocessing for analyses with Zero&#45;Suppressed Binary Decision Diagrams. ">
<polygon fill="white" stroke="black" points="1212,-49.5 1212,-79.5 1379,-79.5 1379,-49.5 1212,-49.5"/>
<text text-anchor="start" x="1220" y="-67.5" font-family="Helvetica,sans-Serif" font-size="10.00">scram::core::CustomPreprocessor</text>
<text text-anchor="middle" x="1295.5" y="-56.5" font-family="Helvetica,sans-Serif" font-size="10.00">&lt; Zbdd &gt;::Run</text>
</a>
</g>
</g>
<!-- Node6&#45;&gt;Node8 -->
<g id="edge9" class="edge"><title>Node6&#45;&gt;Node8</title>
<path fill="none" stroke="midnightblue" d="M1148.33,-29.3595C1173.69,-35.4561 1204.87,-42.9512 1231.9,-49.4512"/>
<polygon fill="midnightblue" stroke="midnightblue" points="1149.1,-25.9457 1138.56,-27.0112 1147.47,-32.7518 1149.1,-25.9457"/>
</g>
<!-- Node9&#45;&gt;Node3 -->
<g id="edge11" class="edge"><title>Node9&#45;&gt;Node3</title>
<path fill="none" stroke="midnightblue" d="M1150.5,-79.9393C1182.24,-91.3049 1222.44,-105.698 1252.29,-116.387"/>
<polygon fill="midnightblue" stroke="midnightblue" points="1151.53,-76.5927 1140.94,-76.5168 1149.17,-83.183 1151.53,-76.5927"/>
</g>
<!-- Node9&#45;&gt;Node8 -->
<g id="edge12" class="edge"><title>Node9&#45;&gt;Node8</title>
<path fill="none" stroke="midnightblue" d="M1174.31,-62.6557C1186.64,-62.8448 1199.46,-63.0416 1211.95,-63.2332"/>
<polygon fill="midnightblue" stroke="midnightblue" points="1174.15,-59.1529 1164.1,-62.499 1174.04,-66.1521 1174.15,-59.1529"/>
</g>
<!-- Node10&#45;&gt;Node3 -->
<g id="edge14" class="edge"><title>Node10&#45;&gt;Node3</title>
<path fill="none" stroke="midnightblue" d="M1174.09,-142.586C1192.31,-140.909 1211.64,-139.129 1229.35,-137.498"/>
<polygon fill="midnightblue" stroke="midnightblue" points="1173.74,-139.104 1164.1,-143.506 1174.38,-146.075 1173.74,-139.104"/>
</g>
<!-- Node10&#45;&gt;Node8 -->
<g id="edge15" class="edge"><title>Node10&#45;&gt;Node8</title>
<path fill="none" stroke="midnightblue" d="M1143.07,-130.341C1178.33,-115.007 1227.12,-93.7967 1259.69,-79.6366"/>
<polygon fill="midnightblue" stroke="midnightblue" points="1141.28,-127.302 1133.5,-134.499 1144.07,-133.722 1141.28,-127.302"/>
</g>
<!-- Node11&#45;&gt;Node3 -->
<g id="edge17" class="edge"><title>Node11&#45;&gt;Node3</title>
<path fill="none" stroke="midnightblue" d="M994.303,-81.0087C1002.97,-82.5365 1011.67,-84.0606 1020,-85.5 1091.54,-97.8689 1173.66,-111.564 1229.3,-120.769"/>
<polygon fill="midnightblue" stroke="midnightblue" points="994.637,-77.5134 984.18,-79.2182 993.418,-84.4064 994.637,-77.5134"/>
</g>
<!-- Node11&#45;&gt;Node6 -->
<g id="edge18" class="edge"><title>Node11&#45;&gt;Node6</title>
<path fill="none" stroke="midnightblue" d="M975.857,-49.4399C990.216,-45.0469 1005.64,-40.4731 1020,-36.5 1031.81,-33.233 1044.72,-29.9411 1056.53,-27.0366"/>
<polygon fill="midnightblue" stroke="midnightblue" points="974.638,-46.1531 966.112,-52.4427 976.699,-52.8428 974.638,-46.1531"/>
</g>
<!-- Node13 -->
<g id="node13" class="node"><title>Node13</title>
<g id="a_node13"><a xlink:href="classscram_1_1core_1_1Preprocessor.xhtml#a4086c57695d49b4770915d5d53bd47de" target="_top" xlink:title="Tries to simplify the graph by removing redundancies generated by a common node. ">
<polygon fill="white" stroke="black" points="341,-116.5 341,-146.5 473,-146.5 473,-116.5 341,-116.5"/>
<text text-anchor="start" x="349" y="-134.5" font-family="Helvetica,sans-Serif" font-size="10.00">scram::core::Preprocessor</text>
<text text-anchor="middle" x="407" y="-123.5" font-family="Helvetica,sans-Serif" font-size="10.00">::ProcessCommonNode</text>
</a>
</g>
</g>
<!-- Node12&#45;&gt;Node13 -->
<g id="edge20" class="edge"><title>Node12&#45;&gt;Node13</title>
<path fill="none" stroke="midnightblue" d="M315.116,-132.579C323.734,-132.476 332.445,-132.373 340.886,-132.273"/>
<polygon fill="midnightblue" stroke="midnightblue" points="315.022,-129.08 305.065,-132.698 315.105,-136.079 315.022,-129.08"/>
</g>
<!-- Node14 -->
<g id="node14" class="node"><title>Node14</title>
<g id="a_node14"><a xlink:href="classscram_1_1core_1_1Preprocessor.xhtml#aebc709ad2e097c24e837889a6a9e4696" target="_top" xlink:title="Propagates failures of common nodes to detect redundancy. ">
<polygon fill="white" stroke="black" points="512.5,-115.5 512.5,-145.5 644.5,-145.5 644.5,-115.5 512.5,-115.5"/>
<text text-anchor="start" x="520.5" y="-133.5" font-family="Helvetica,sans-Serif" font-size="10.00">scram::core::Preprocessor</text>
<text text-anchor="middle" x="578.5" y="-122.5" font-family="Helvetica,sans-Serif" font-size="10.00">::BooleanOptimization</text>
</a>
</g>
</g>
<!-- Node13&#45;&gt;Node14 -->
<g id="edge21" class="edge"><title>Node13&#45;&gt;Node14</title>
<path fill="none" stroke="midnightblue" d="M483.119,-131.057C492.864,-130.999 502.781,-130.941 512.346,-130.884"/>
<polygon fill="midnightblue" stroke="midnightblue" points="483.028,-127.557 473.048,-131.116 483.069,-134.557 483.028,-127.557"/>
</g>
<!-- Node14&#45;&gt;Node5 -->
<g id="edge22" class="edge"><title>Node14&#45;&gt;Node5</title>
<path fill="none" stroke="midnightblue" d="M654.619,-130.5C664.364,-130.5 674.281,-130.5 683.846,-130.5"/>
<polygon fill="midnightblue" stroke="midnightblue" points="654.548,-127 644.548,-130.5 654.548,-134 654.548,-127"/>
</g>
</g>
</svg>
        <g id="navigator" transform="translate(0 0)" fill="#404254">
                <rect fill="#f2f5e9" fill-opacity="0.5" stroke="#606060" stroke-width=".5" x="0" y="0" width="60" height="60"/>
                <use id="zoomplus" xlink:href="#zoomPlus" x="17" y="9" onmousedown="handleZoom(evt,'in')"/>
                <use id="zoomminus" xlink:href="#zoomMin" x="42" y="9" onmousedown="handleZoom(evt,'out')"/>
                <use id="reset" xlink:href="#resetDef" x="30" y="36" onmousedown="handleReset()"/>
                <g id="arrowUp" xlink:href="#dirArrow" transform="translate(30 24)" onmousedown="handlePan(0,-1)">
                  <use xlink:href="#rim" fill="#404040">
                        <set attributeName="fill" to="#808080" begin="arrowUp.mouseover" end="arrowUp.mouseout"/>
                  </use>
                  <path fill="none" stroke="white" stroke-width="1.5" d="M0,-3.0v7 M-2.5,-0.5L0,-3.0L2.5,-0.5"/>
                </g>
                <g id="arrowRight" xlink:href="#dirArrow" transform="rotate(90) translate(36 -43)" onmousedown="handlePan(1,0)">
                  <use xlink:href="#rim" fill="#404040">
                        <set attributeName="fill" to="#808080" begin="arrowRight.mouseover" end="arrowRight.mouseout"/>
                  </use>
                  <path fill="none" stroke="white" stroke-width="1.5" d="M0,-3.0v7 M-2.5,-0.5L0,-3.0L2.5,-0.5"/>
                </g>
                <g id="arrowDown" xlink:href="#dirArrow" transform="rotate(180) translate(-30 -48)" onmousedown="handlePan(0,1)">
                  <use xlink:href="#rim" fill="#404040">
                        <set attributeName="fill" to="#808080" begin="arrowDown.mouseover" end="arrowDown.mouseout"/>
                  </use>
                  <path fill="none" stroke="white" stroke-width="1.5" d="M0,-3.0v7 M-2.5,-0.5L0,-3.0L2.5,-0.5"/>
                </g>
                <g id="arrowLeft" xlink:href="#dirArrow" transform="rotate(270) translate(-36 17)" onmousedown="handlePan(-1,0)">
                  <use xlink:href="#rim" fill="#404040">
                        <set attributeName="fill" to="#808080" begin="arrowLeft.mouseover" end="arrowLeft.mouseout"/>
                  </use>
                  <path fill="none" stroke="white" stroke-width="1.5" d="M0,-3.0v7 M-2.5,-0.5L0,-3.0L2.5,-0.5"/>
                </g>
        </g>
        <svg viewBox="0 0 15 15" width="100%" height="30px" preserveAspectRatio="xMaxYMin meet">
         <g id="arrow_out" transform="scale(0.3 0.3)">
          <a xlink:href="classscram_1_1core_1_1Preprocessor_a26434bec1bc5a496f80c9cbad1ed3a62_icgraph_org.svg" target="_base">
           <rect id="button" ry="5" rx="5" y="6" x="6" height="38" width="38"
                fill="#f2f5e9" fill-opacity="0.5" stroke="#606060" stroke-width="1.0"/>
           <path id="arrow"
             d="M 11.500037,31.436501 C 11.940474,20.09759 22.043105,11.32322 32.158766,21.979434 L 37.068811,17.246167 C 37.068811,17.246167 37.088388,32 37.088388,32 L 22.160133,31.978069 C 22.160133,31.978069 26.997745,27.140456 26.997745,27.140456 C 18.528582,18.264221 13.291696,25.230495 11.500037,31.436501 z"
             style="fill:#404040;"/>
          </a>
         </g>
        </svg>
</svg>
