<?xml version="1.0" encoding="UTF-8" standalone="no"?>
<!DOCTYPE svg PUBLIC "-//W3C//DTD SVG 1.1//EN"
 "http://www.w3.org/Graphics/SVG/1.1/DTD/svg11.dtd">
<!-- Generated by graphviz version 2.38.0 (20140413.2041)
 -->
<!-- Title: scram::core::Pdag::complement Pages: 1 -->
<!--zoomable 246 -->
<svg id="main" version="1.1" xmlns="http://www.w3.org/2000/svg" xmlns:xlink="http://www.w3.org/1999/xlink" xml:space="preserve" onload="init(evt)">
<style type="text/css"><![CDATA[
.edge:hover path { stroke: red; }
.edge:hover polygon { stroke: red; fill: red; }
]]></style>
<script type="text/javascript"><![CDATA[
var edges = document.getElementsByTagName('g');
if (edges && edges.length) {
  for (var i=0;i<edges.length;i++) {
    if (edges[i].id.substr(0,4)=='edge') {
      edges[i].setAttribute('class','edge');
    }
  }
}
]]></script>
        <defs>
                <circle id="rim" cx="0" cy="0" r="7"/>
                <circle id="rim2" cx="0" cy="0" r="3.5"/>
                <g id="zoomPlus">
                        <use xlink:href="#rim" fill="#404040">
                                <set attributeName="fill" to="#808080" begin="zoomplus.mouseover" end="zoomplus.mouseout"/>
                        </use>
                        <path d="M-4,0h8M0,-4v8" fill="none" stroke="white" stroke-width="1.5" pointer-events="none"/>
                </g>
                <g id="zoomMin">
                        <use xlink:href="#rim" fill="#404040">
                                <set attributeName="fill" to="#808080" begin="zoomminus.mouseover" end="zoomminus.mouseout"/>
                        </use>
                        <path d="M-4,0h8" fill="none" stroke="white" stroke-width="1.5" pointer-events="none"/>
                </g>
                <g id="dirArrow">
                        <path fill="none" stroke="white" stroke-width="1.5" d="M0,-3.0v7 M-2.5,-0.5L0,-3.0L2.5,-0.5"/>
                </g>
               <g id="resetDef">
                       <use xlink:href="#rim2" fill="#404040">
                               <set attributeName="fill" to="#808080" begin="reset.mouseover" end="reset.mouseout"/>
                       </use>
               </g>
        </defs>

<script type="text/javascript">
var viewWidth = 1010;
var viewHeight = 246;
var sectionId = 'dynsection-4';
</script>
<script xlink:href="svgpan.js"/>
<svg id="graph" class="graph">
<g id="viewport">
<title>scram::core::Pdag::complement</title>
<polygon fill="white" stroke="none" points="-4,4 -4,-242.428 1006,-242.428 1006,4 -4,4"/>
<!-- Node1 -->
<g id="node1" class="node"><title>Node1</title>
<polygon fill="#bfbfbf" stroke="black" points="0,-137.428 0,-167.428 103,-167.428 103,-137.428 0,-137.428"/>
<text text-anchor="start" x="8" y="-155.428" font-family="Helvetica,sans-Serif" font-size="10.00">scram::core::Pdag::</text>
<text text-anchor="middle" x="51.5" y="-144.428" font-family="Helvetica,sans-Serif" font-size="10.00">complement</text>
</g>
<!-- Node2 -->
<g id="node2" class="node"><title>Node2</title>
<g id="a_node2"><a xlink:href="classscram_1_1core_1_1Bdd.xhtml#ab7af95900c1ab921446e2e67177a315c" target="_top" xlink:title="Constructor with the analysis target. ">
<polygon fill="white" stroke="black" points="147.5,-218.928 147.5,-237.928 262.5,-237.928 262.5,-218.928 147.5,-218.928"/>
<text text-anchor="middle" x="205" y="-225.928" font-family="Helvetica,sans-Serif" font-size="10.00">scram::core::Bdd::Bdd</text>
</a>
</g>
</g>
<!-- Node1&#45;&gt;Node2 -->
<g id="edge1" class="edge"><title>Node1&#45;&gt;Node2</title>
<path fill="none" stroke="midnightblue" d="M83.4858,-172.992C99.6319,-183.204 119.94,-195.28 139,-204.428 150.279,-209.841 163.121,-214.817 174.395,-218.818"/>
<polygon fill="midnightblue" stroke="midnightblue" points="85.2865,-169.989 74.9783,-167.541 81.51,-175.883 85.2865,-169.989"/>
</g>
<!-- Node3 -->
<g id="node3" class="node"><title>Node3</title>
<g id="a_node3"><a xlink:href="classscram_1_1core_1_1Preprocessor.xhtml#a14baf96279cf2950cc71564ad199007d" target="_top" xlink:title="Marks coherence of the whole graph. ">
<polygon fill="white" stroke="black" points="487,-186.428 487,-216.428 619,-216.428 619,-186.428 487,-186.428"/>
<text text-anchor="start" x="495" y="-204.428" font-family="Helvetica,sans-Serif" font-size="10.00">scram::core::Preprocessor</text>
<text text-anchor="middle" x="553" y="-193.428" font-family="Helvetica,sans-Serif" font-size="10.00">::MarkCoherence</text>
</a>
</g>
</g>
<!-- Node1&#45;&gt;Node3 -->
<g id="edge2" class="edge"><title>Node1&#45;&gt;Node3</title>
<path fill="none" stroke="midnightblue" d="M113.219,-162.852C121.858,-164.161 130.644,-165.399 139,-166.428 261.484,-181.508 405.211,-192.091 486.748,-197.434"/>
<polygon fill="midnightblue" stroke="midnightblue" points="113.598,-159.369 103.179,-161.291 112.522,-166.286 113.598,-159.369"/>
</g>
<!-- Node7 -->
<g id="node7" class="node"><title>Node7</title>
<g id="a_node7"><a xlink:href="classscram_1_1core_1_1Mocus.xhtml#aebc1de3cd35c82f14cbcf0500a0cbfce" target="_top" xlink:title="Prepares a PDAG for analysis with the MOCUS algorithm. ">
<polygon fill="white" stroke="black" points="153,-44.428 153,-74.428 257,-74.428 257,-44.428 153,-44.428"/>
<text text-anchor="start" x="161" y="-62.428" font-family="Helvetica,sans-Serif" font-size="10.00">scram::core::Mocus</text>
<text text-anchor="middle" x="205" y="-51.428" font-family="Helvetica,sans-Serif" font-size="10.00">::Mocus</text>
</a>
</g>
</g>
<!-- Node1&#45;&gt;Node7 -->
<g id="edge6" class="edge"><title>Node1&#45;&gt;Node7</title>
<path fill="none" stroke="midnightblue" d="M76.2644,-130.547C92.9042,-116.058 116.163,-97.4035 139,-84.428 145.412,-80.7845 152.46,-77.4579 159.475,-74.5041"/>
<polygon fill="midnightblue" stroke="midnightblue" points="73.8247,-128.032 68.6584,-137.282 78.4654,-133.273 73.8247,-128.032"/>
</g>
<!-- Node8 -->
<g id="node8" class="node"><title>Node8</title>
<g id="a_node8"><a xlink:href="classscram_1_1core_1_1Preprocessor.xhtml#ad13e133278ea7563c1ba037c05c35aa2" target="_top" xlink:title="Normalizes the gates of the whole PDAG into OR, AND gates. ">
<polygon fill="white" stroke="black" points="139,-93.428 139,-123.428 271,-123.428 271,-93.428 139,-93.428"/>
<text text-anchor="start" x="147" y="-111.428" font-family="Helvetica,sans-Serif" font-size="10.00">scram::core::Preprocessor</text>
<text text-anchor="middle" x="205" y="-100.428" font-family="Helvetica,sans-Serif" font-size="10.00">::NormalizeGates</text>
</a>
</g>
</g>
<!-- Node1&#45;&gt;Node8 -->
<g id="edge7" class="edge"><title>Node1&#45;&gt;Node8</title>
<path fill="none" stroke="midnightblue" d="M113.128,-134.82C126.081,-131.058 139.649,-127.117 152.232,-123.463"/>
<polygon fill="midnightblue" stroke="midnightblue" points="111.996,-131.504 103.369,-137.654 113.948,-138.226 111.996,-131.504"/>
</g>
<!-- Node14 -->
<g id="node14" class="node"><title>Node14</title>
<g id="a_node14"><a xlink:href="classscram_1_1core_1_1Preprocessor.xhtml#a5c224938dfba861f061525658bd7b156" target="_top" xlink:title="Propagation of complements. ">
<polygon fill="white" stroke="black" points="487,-137.428 487,-167.428 619,-167.428 619,-137.428 487,-137.428"/>
<text text-anchor="start" x="495" y="-155.428" font-family="Helvetica,sans-Serif" font-size="10.00">scram::core::Preprocessor</text>
<text text-anchor="middle" x="553" y="-144.428" font-family="Helvetica,sans-Serif" font-size="10.00">::RunPhaseFour</text>
</a>
</g>
</g>
<!-- Node1&#45;&gt;Node14 -->
<g id="edge19" class="edge"><title>Node1&#45;&gt;Node14</title>
<path fill="none" stroke="midnightblue" d="M113.408,-152.428C208.016,-152.428 389.487,-152.428 486.704,-152.428"/>
<polygon fill="midnightblue" stroke="midnightblue" points="113.144,-148.928 103.144,-152.428 113.144,-155.928 113.144,-148.928"/>
</g>
<!-- Node4 -->
<g id="node4" class="node"><title>Node4</title>
<g id="a_node4"><a xlink:href="classscram_1_1core_1_1Preprocessor.xhtml#aeb861bbe289f7dc9fff6bd8f9b539f15" target="_top" xlink:title="Marks gates with coherence flags. ">
<polygon fill="white" stroke="black" points="684.5,-191.428 684.5,-221.428 816.5,-221.428 816.5,-191.428 684.5,-191.428"/>
<text text-anchor="start" x="692.5" y="-209.428" font-family="Helvetica,sans-Serif" font-size="10.00">scram::core::Preprocessor</text>
<text text-anchor="middle" x="750.5" y="-198.428" font-family="Helvetica,sans-Serif" font-size="10.00">::MarkCoherence</text>
</a>
</g>
</g>
<!-- Node3&#45;&gt;Node4 -->
<g id="edge3" class="edge"><title>Node3&#45;&gt;Node4</title>
<path fill="none" stroke="midnightblue" d="M629.341,-203.355C647.486,-203.819 666.718,-204.311 684.353,-204.762"/>
<polygon fill="midnightblue" stroke="midnightblue" points="629.185,-199.85 619.099,-203.093 629.006,-206.848 629.185,-199.85"/>
</g>
<!-- Node5 -->
<g id="node5" class="node"><title>Node5</title>
<g id="a_node5"><a xlink:href="classscram_1_1core_1_1Preprocessor.xhtml#a9caf4677a024ed935d831210b57b8ed9" target="_top" xlink:title="Gathers nodes in the sub&#45;graph. ">
<polygon fill="white" stroke="black" points="684.5,-93.428 684.5,-123.428 816.5,-123.428 816.5,-93.428 684.5,-93.428"/>
<text text-anchor="start" x="692.5" y="-111.428" font-family="Helvetica,sans-Serif" font-size="10.00">scram::core::Preprocessor</text>
<text text-anchor="middle" x="750.5" y="-100.428" font-family="Helvetica,sans-Serif" font-size="10.00">::GatherNodes</text>
</a>
</g>
</g>
<!-- Node3&#45;&gt;Node5 -->
<g id="edge4" class="edge"><title>Node3&#45;&gt;Node5</title>
<path fill="none" stroke="midnightblue" d="M623.51,-181.967C626.098,-180.554 628.606,-179.043 631,-177.428 651.945,-163.295 646,-147.478 667,-133.428 672.722,-129.6 679.051,-126.34 685.585,-123.568"/>
<polygon fill="midnightblue" stroke="midnightblue" points="621.894,-178.861 614.451,-186.401 624.971,-185.148 621.894,-178.861"/>
</g>
<!-- Node6 -->
<g id="node6" class="node"><title>Node6</title>
<g id="a_node6"><a xlink:href="classscram_1_1core_1_1CustomPreprocessor_3_01Zbdd_01_4.xhtml#a5185075f852c647c7aa4313d23420ee5" target="_top" xlink:title="Performs preprocessing for analyses with Zero&#45;Suppressed Binary Decision Diagrams. ">
<polygon fill="white" stroke="black" points="667,-142.428 667,-172.428 834,-172.428 834,-142.428 667,-142.428"/>
<text text-anchor="start" x="675" y="-160.428" font-family="Helvetica,sans-Serif" font-size="10.00">scram::core::CustomPreprocessor</text>
<text text-anchor="middle" x="750.5" y="-149.428" font-family="Helvetica,sans-Serif" font-size="10.00">&lt; Zbdd &gt;::Run</text>
</a>
</g>
</g>
<!-- Node3&#45;&gt;Node6 -->
<g id="edge5" class="edge"><title>Node3&#45;&gt;Node6</title>
<path fill="none" stroke="midnightblue" d="M629.313,-184.478C646.894,-180.521 665.499,-176.334 682.681,-172.466"/>
<polygon fill="midnightblue" stroke="midnightblue" points="628.086,-181.166 619.099,-186.777 629.623,-187.995 628.086,-181.166"/>
</g>
<!-- Node9 -->
<g id="node9" class="node"><title>Node9</title>
<g id="a_node9"><a xlink:href="classscram_1_1core_1_1Preprocessor.xhtml#a44f820b6fe2c23594c818432b33e26a6" target="_top" xlink:title="The initial phase of preprocessing. ">
<polygon fill="white" stroke="black" points="307,-93.428 307,-123.428 439,-123.428 439,-93.428 307,-93.428"/>
<text text-anchor="start" x="315" y="-111.428" font-family="Helvetica,sans-Serif" font-size="10.00">scram::core::Preprocessor</text>
<text text-anchor="middle" x="373" y="-100.428" font-family="Helvetica,sans-Serif" font-size="10.00">::RunPhaseOne</text>
</a>
</g>
</g>
<!-- Node8&#45;&gt;Node9 -->
<g id="edge8" class="edge"><title>Node8&#45;&gt;Node9</title>
<path fill="none" stroke="midnightblue" d="M281.393,-108.428C289.869,-108.428 298.452,-108.428 306.784,-108.428"/>
<polygon fill="midnightblue" stroke="midnightblue" points="281.131,-104.928 271.131,-108.428 281.131,-111.928 281.131,-104.928"/>
</g>
<!-- Node11 -->
<g id="node11" class="node"><title>Node11</title>
<g id="a_node11"><a xlink:href="classscram_1_1core_1_1Preprocessor.xhtml#a5ee92284aef510ce01a71c962d50f51c" target="_top" xlink:title="Runs the graph preprocessing. ">
<polygon fill="white" stroke="black" points="684.5,-44.428 684.5,-74.428 816.5,-74.428 816.5,-44.428 684.5,-44.428"/>
<text text-anchor="start" x="692.5" y="-62.428" font-family="Helvetica,sans-Serif" font-size="10.00">scram::core::Preprocessor</text>
<text text-anchor="middle" x="750.5" y="-51.428" font-family="Helvetica,sans-Serif" font-size="10.00">::operator()</text>
</a>
</g>
</g>
<!-- Node8&#45;&gt;Node11 -->
<g id="edge18" class="edge"><title>Node8&#45;&gt;Node11</title>
<path fill="none" stroke="midnightblue" d="M265.272,-88.381C267.255,-87.135 269.172,-85.8185 271,-84.428 292.795,-67.851 282.628,-46.912 307,-34.428 440.886,34.1527 628.346,-16.5928 709.472,-44.4082"/>
<polygon fill="midnightblue" stroke="midnightblue" points="263.276,-85.4862 256.233,-93.4017 266.675,-91.6055 263.276,-85.4862"/>
</g>
<!-- Node13 -->
<g id="node13" class="node"><title>Node13</title>
<g id="a_node13"><a xlink:href="classscram_1_1core_1_1Preprocessor.xhtml#abf2c66723172a85b2ae87ef2a034cd1f" target="_top" xlink:title="Application of gate normalization. ">
<polygon fill="white" stroke="black" points="307,-44.428 307,-74.428 439,-74.428 439,-44.428 307,-44.428"/>
<text text-anchor="start" x="315" y="-62.428" font-family="Helvetica,sans-Serif" font-size="10.00">scram::core::Preprocessor</text>
<text text-anchor="middle" x="373" y="-51.428" font-family="Helvetica,sans-Serif" font-size="10.00">::RunPhaseThree</text>
</a>
</g>
</g>
<!-- Node8&#45;&gt;Node13 -->
<g id="edge15" class="edge"><title>Node8&#45;&gt;Node13</title>
<path fill="none" stroke="midnightblue" d="M266.868,-90.461C284.654,-85.211 303.902,-79.5291 321.009,-74.4796"/>
<polygon fill="midnightblue" stroke="midnightblue" points="265.76,-87.1386 257.16,-93.3266 267.742,-93.8523 265.76,-87.1386"/>
</g>
<!-- Node10 -->
<g id="node10" class="node"><title>Node10</title>
<g id="a_node10"><a xlink:href="classscram_1_1core_1_1Preprocessor.xhtml#a2b6705e815fa3d02119c405b483766d5" target="_top" xlink:title="Container of unique gates by semantics. ">
<polygon fill="white" stroke="black" points="475,-98.928 475,-117.928 631,-117.928 631,-98.928 475,-98.928"/>
<text text-anchor="middle" x="553" y="-105.928" font-family="Helvetica,sans-Serif" font-size="10.00">scram::core::Preprocessor::Run</text>
</a>
</g>
</g>
<!-- Node9&#45;&gt;Node10 -->
<g id="edge9" class="edge"><title>Node9&#45;&gt;Node10</title>
<path fill="none" stroke="midnightblue" d="M449.221,-108.428C457.672,-108.428 466.292,-108.428 474.768,-108.428"/>
<polygon fill="midnightblue" stroke="midnightblue" points="449.018,-104.928 439.018,-108.428 449.018,-111.928 449.018,-104.928"/>
</g>
<!-- Node9&#45;&gt;Node11 -->
<g id="edge14" class="edge"><title>Node9&#45;&gt;Node11</title>
<path fill="none" stroke="midnightblue" d="M448.928,-93.668C457.7,-92.1371 466.537,-90.6846 475,-89.428 546.367,-78.8315 628.694,-70.3257 684.428,-65.1147"/>
<polygon fill="midnightblue" stroke="midnightblue" points="448.304,-90.2239 439.073,-95.4235 449.532,-97.1154 448.304,-90.2239"/>
</g>
<!-- Node10&#45;&gt;Node5 -->
<g id="edge10" class="edge"><title>Node10&#45;&gt;Node5</title>
<path fill="none" stroke="midnightblue" d="M641.674,-108.428C656.062,-108.428 670.744,-108.428 684.457,-108.428"/>
<polygon fill="midnightblue" stroke="midnightblue" points="641.267,-104.928 631.267,-108.428 641.267,-111.928 641.267,-104.928"/>
</g>
<!-- Node10&#45;&gt;Node6 -->
<g id="edge11" class="edge"><title>Node10&#45;&gt;Node6</title>
<path fill="none" stroke="midnightblue" d="M601.934,-120.442C628.35,-127.063 661.39,-135.344 689.506,-142.391"/>
<polygon fill="midnightblue" stroke="midnightblue" points="602.709,-117.028 592.158,-117.992 601.007,-123.818 602.709,-117.028"/>
</g>
<!-- Node10&#45;&gt;Node11 -->
<g id="edge12" class="edge"><title>Node10&#45;&gt;Node11</title>
<path fill="none" stroke="midnightblue" d="M601.934,-96.4138C628.35,-89.793 661.39,-81.5119 689.506,-74.465"/>
<polygon fill="midnightblue" stroke="midnightblue" points="601.007,-93.0377 592.158,-98.864 602.709,-99.8277 601.007,-93.0377"/>
</g>
<!-- Node12 -->
<g id="node12" class="node"><title>Node12</title>
<g id="a_node12"><a xlink:href="classscram_1_1core_1_1Preprocessor_1_1GateSet.xhtml#ae00239084858979e096032c4cf2f05b9" target="_top" xlink:title="Inserts a gate into the set if it is semantically unique. ">
<polygon fill="white" stroke="black" points="870,-44.428 870,-74.428 1002,-74.428 1002,-44.428 870,-44.428"/>
<text text-anchor="start" x="878" y="-62.428" font-family="Helvetica,sans-Serif" font-size="10.00">scram::core::Preprocessor</text>
<text text-anchor="middle" x="936" y="-51.428" font-family="Helvetica,sans-Serif" font-size="10.00">::GateSet::insert</text>
</a>
</g>
</g>
<!-- Node11&#45;&gt;Node12 -->
<g id="edge13" class="edge"><title>Node11&#45;&gt;Node12</title>
<path fill="none" stroke="midnightblue" d="M826.989,-59.428C841.264,-59.428 856.081,-59.428 869.998,-59.428"/>
<polygon fill="midnightblue" stroke="midnightblue" points="826.712,-55.9281 816.712,-59.428 826.712,-62.9281 826.712,-55.9281"/>
</g>
<!-- Node13&#45;&gt;Node10 -->
<g id="edge16" class="edge"><title>Node13&#45;&gt;Node10</title>
<path fill="none" stroke="midnightblue" d="M438.527,-77.1912C465.217,-84.5382 495.089,-92.7616 517.483,-98.9261"/>
<polygon fill="midnightblue" stroke="midnightblue" points="439.429,-73.8091 428.858,-74.5295 437.571,-80.5581 439.429,-73.8091"/>
</g>
<!-- Node13&#45;&gt;Node11 -->
<g id="edge17" class="edge"><title>Node13&#45;&gt;Node11</title>
<path fill="none" stroke="midnightblue" d="M449.313,-56.9449C457.974,-56.7323 466.679,-56.5516 475,-56.428 544.326,-55.3986 561.672,-55.5506 631,-56.428 648.285,-56.6468 666.986,-57.045 684.311,-57.4813"/>
<polygon fill="midnightblue" stroke="midnightblue" points="449.097,-53.4492 439.191,-57.2075 449.278,-60.4469 449.097,-53.4492"/>
</g>
<!-- Node14&#45;&gt;Node6 -->
<g id="edge20" class="edge"><title>Node14&#45;&gt;Node6</title>
<path fill="none" stroke="midnightblue" d="M629.313,-154.354C641.636,-154.669 654.462,-154.997 666.949,-155.317"/>
<polygon fill="midnightblue" stroke="midnightblue" points="629.185,-150.85 619.099,-154.093 629.006,-157.848 629.185,-150.85"/>
</g>
<!-- Node14&#45;&gt;Node11 -->
<g id="edge21" class="edge"><title>Node14&#45;&gt;Node11</title>
<path fill="none" stroke="midnightblue" d="M621.725,-132.953C624.945,-131.253 628.057,-129.415 631,-127.428 651.657,-113.481 646.206,-98.1707 667,-84.428 672.868,-80.5496 679.363,-77.2527 686.055,-74.4544"/>
<polygon fill="midnightblue" stroke="midnightblue" points="619.945,-129.924 612.421,-137.384 622.955,-136.244 619.945,-129.924"/>
</g>
</g>
</svg>
        <g id="navigator" transform="translate(0 0)" fill="#404254">
                <rect fill="#f2f5e9" fill-opacity="0.5" stroke="#606060" stroke-width=".5" x="0" y="0" width="60" height="60"/>
                <use id="zoomplus" xlink:href="#zoomPlus" x="17" y="9" onmousedown="handleZoom(evt,'in')"/>
                <use id="zoomminus" xlink:href="#zoomMin" x="42" y="9" onmousedown="handleZoom(evt,'out')"/>
                <use id="reset" xlink:href="#resetDef" x="30" y="36" onmousedown="handleReset()"/>
                <g id="arrowUp" xlink:href="#dirArrow" transform="translate(30 24)" onmousedown="handlePan(0,-1)">
                  <use xlink:href="#rim" fill="#404040">
                        <set attributeName="fill" to="#808080" begin="arrowUp.mouseover" end="arrowUp.mouseout"/>
                  </use>
                  <path fill="none" stroke="white" stroke-width="1.5" d="M0,-3.0v7 M-2.5,-0.5L0,-3.0L2.5,-0.5"/>
                </g>
                <g id="arrowRight" xlink:href="#dirArrow" transform="rotate(90) translate(36 -43)" onmousedown="handlePan(1,0)">
                  <use xlink:href="#rim" fill="#404040">
                        <set attributeName="fill" to="#808080" begin="arrowRight.mouseover" end="arrowRight.mouseout"/>
                  </use>
                  <path fill="none" stroke="white" stroke-width="1.5" d="M0,-3.0v7 M-2.5,-0.5L0,-3.0L2.5,-0.5"/>
                </g>
                <g id="arrowDown" xlink:href="#dirArrow" transform="rotate(180) translate(-30 -48)" onmousedown="handlePan(0,1)">
                  <use xlink:href="#rim" fill="#404040">
                        <set attributeName="fill" to="#808080" begin="arrowDown.mouseover" end="arrowDown.mouseout"/>
                  </use>
                  <path fill="none" stroke="white" stroke-width="1.5" d="M0,-3.0v7 M-2.5,-0.5L0,-3.0L2.5,-0.5"/>
                </g>
                <g id="arrowLeft" xlink:href="#dirArrow" transform="rotate(270) translate(-36 17)" onmousedown="handlePan(-1,0)">
                  <use xlink:href="#rim" fill="#404040">
                        <set attributeName="fill" to="#808080" begin="arrowLeft.mouseover" end="arrowLeft.mouseout"/>
                  </use>
                  <path fill="none" stroke="white" stroke-width="1.5" d="M0,-3.0v7 M-2.5,-0.5L0,-3.0L2.5,-0.5"/>
                </g>
        </g>
        <svg viewBox="0 0 15 15" width="100%" height="30px" preserveAspectRatio="xMaxYMin meet">
         <g id="arrow_out" transform="scale(0.3 0.3)">
          <a xlink:href="classscram_1_1core_1_1Pdag_af5900b29c6c9f1b1cca22ed83e4dd58b_icgraph_org.svg" target="_base">
           <rect id="button" ry="5" rx="5" y="6" x="6" height="38" width="38"
                fill="#f2f5e9" fill-opacity="0.5" stroke="#606060" stroke-width="1.0"/>
           <path id="arrow"
             d="M 11.500037,31.436501 C 11.940474,20.09759 22.043105,11.32322 32.158766,21.979434 L 37.068811,17.246167 C 37.068811,17.246167 37.088388,32 37.088388,32 L 22.160133,31.978069 C 22.160133,31.978069 26.997745,27.140456 26.997745,27.140456 C 18.528582,18.264221 13.291696,25.230495 11.500037,31.436501 z"
             style="fill:#404040;"/>
          </a>
         </g>
        </svg>
</svg>
