<?xml version="1.0" encoding="UTF-8" standalone="no"?>
<!DOCTYPE svg PUBLIC "-//W3C//DTD SVG 1.1//EN"
 "http://www.w3.org/Graphics/SVG/1.1/DTD/svg11.dtd">
<!-- Generated by graphviz version 2.38.0 (20140413.2041)
 -->
<!-- Title: scram::core::Gate::args Pages: 1 -->
<!--zoomable 375 -->
<svg id="main" version="1.1" xmlns="http://www.w3.org/2000/svg" xmlns:xlink="http://www.w3.org/1999/xlink" xml:space="preserve" onload="init(evt)">
<style type="text/css"><![CDATA[
.edge:hover path { stroke: red; }
.edge:hover polygon { stroke: red; fill: red; }
]]></style>
<script type="text/javascript"><![CDATA[
var edges = document.getElementsByTagName('g');
if (edges && edges.length) {
  for (var i=0;i<edges.length;i++) {
    if (edges[i].id.substr(0,4)=='edge') {
      edges[i].setAttribute('class','edge');
    }
  }
}
]]></script>
        <defs>
                <circle id="rim" cx="0" cy="0" r="7"/>
                <circle id="rim2" cx="0" cy="0" r="3.5"/>
                <g id="zoomPlus">
                        <use xlink:href="#rim" fill="#404040">
                                <set attributeName="fill" to="#808080" begin="zoomplus.mouseover" end="zoomplus.mouseout"/>
                        </use>
                        <path d="M-4,0h8M0,-4v8" fill="none" stroke="white" stroke-width="1.5" pointer-events="none"/>
                </g>
                <g id="zoomMin">
                        <use xlink:href="#rim" fill="#404040">
                                <set attributeName="fill" to="#808080" begin="zoomminus.mouseover" end="zoomminus.mouseout"/>
                        </use>
                        <path d="M-4,0h8" fill="none" stroke="white" stroke-width="1.5" pointer-events="none"/>
                </g>
                <g id="dirArrow">
                        <path fill="none" stroke="white" stroke-width="1.5" d="M0,-3.0v7 M-2.5,-0.5L0,-3.0L2.5,-0.5"/>
                </g>
               <g id="resetDef">
                       <use xlink:href="#rim2" fill="#404040">
                               <set attributeName="fill" to="#808080" begin="reset.mouseover" end="reset.mouseout"/>
                       </use>
               </g>
        </defs>

<script type="text/javascript">
var viewWidth = 1375;
var viewHeight = 375;
var sectionId = 'dynsection-5';
</script>
<script xlink:href="svgpan.js"/>
<svg id="graph" class="graph">
<g id="viewport">
<title>scram::core::Gate::args</title>
<polygon fill="white" stroke="none" points="-4,4 -4,-370.5 1371,-370.5 1371,4 -4,4"/>
<!-- Node1 -->
<g id="node1" class="node"><title>Node1</title>
<polygon fill="#bfbfbf" stroke="black" points="0,-175.5 0,-194.5 120,-194.5 120,-175.5 0,-175.5"/>
<text text-anchor="middle" x="60" y="-182.5" font-family="Helvetica,sans-Serif" font-size="10.00">scram::core::Gate::args</text>
</g>
<!-- Node2 -->
<g id="node2" class="node"><title>Node2</title>
<g id="a_node2"><a xlink:href="classscram_1_1core_1_1Mocus.xhtml#a008348c27bdc85ad9d0d106b18dcc1a2" target="_top" xlink:title="Finds minimal cut sets from the PDAG. ">
<polygon fill="white" stroke="black" points="170.5,-321 170.5,-351 274.5,-351 274.5,-321 170.5,-321"/>
<text text-anchor="start" x="178.5" y="-339" font-family="Helvetica,sans-Serif" font-size="10.00">scram::core::Mocus</text>
<text text-anchor="middle" x="222.5" y="-328" font-family="Helvetica,sans-Serif" font-size="10.00">::Analyze</text>
</a>
</g>
</g>
<!-- Node1&#45;&gt;Node2 -->
<g id="edge1" class="edge"><title>Node1&#45;&gt;Node2</title>
<path fill="none" stroke="midnightblue" d="M70.5285,-203.526C85.3569,-230.667 116.41,-281.234 156,-311 161.059,-314.804 166.765,-318.093 172.647,-320.921"/>
<polygon fill="midnightblue" stroke="midnightblue" points="73.6021,-201.851 65.8138,-194.668 67.423,-205.14 73.6021,-201.851"/>
</g>
<!-- Node3 -->
<g id="node3" class="node"><title>Node3</title>
<g id="a_node3"><a xlink:href="classscram_1_1core_1_1Bdd.xhtml#ab9548d4c5f9afaa96dc24e17e2a01a57" target="_top" xlink:title="Runs the Qualitative analysis with the representation of a PDAG as ROBDD. ">
<polygon fill="white" stroke="black" points="156,-282.5 156,-301.5 289,-301.5 289,-282.5 156,-282.5"/>
<text text-anchor="middle" x="222.5" y="-289.5" font-family="Helvetica,sans-Serif" font-size="10.00">scram::core::Bdd::Analyze</text>
</a>
</g>
</g>
<!-- Node1&#45;&gt;Node3 -->
<g id="edge2" class="edge"><title>Node1&#45;&gt;Node3</title>
<path fill="none" stroke="midnightblue" d="M75.3052,-202.455C92.4852,-222.318 123.125,-254.406 156,-273 162.802,-276.847 170.45,-279.974 178.056,-282.495"/>
<polygon fill="midnightblue" stroke="midnightblue" points="77.9303,-200.139 68.7991,-194.765 72.5865,-204.66 77.9303,-200.139"/>
</g>
<!-- Node4 -->
<g id="node4" class="node"><title>Node4</title>
<g id="a_node4"><a xlink:href="classscram_1_1core_1_1Bdd.xhtml#ab7af95900c1ab921446e2e67177a315c" target="_top" xlink:title="Constructor with the analysis target. ">
<polygon fill="white" stroke="black" points="165,-244.5 165,-263.5 280,-263.5 280,-244.5 165,-244.5"/>
<text text-anchor="middle" x="222.5" y="-251.5" font-family="Helvetica,sans-Serif" font-size="10.00">scram::core::Bdd::Bdd</text>
</a>
</g>
</g>
<!-- Node1&#45;&gt;Node4 -->
<g id="edge3" class="edge"><title>Node1&#45;&gt;Node4</title>
<path fill="none" stroke="midnightblue" d="M85.4581,-199.635C104.268,-210.452 131.159,-224.98 156,-235 164.785,-238.543 174.475,-241.728 183.648,-244.431"/>
<polygon fill="midnightblue" stroke="midnightblue" points="87.0674,-196.522 76.6653,-194.511 83.5425,-202.57 87.0674,-196.522"/>
</g>
<!-- Node5 -->
<g id="node5" class="node"><title>Node5</title>
<g id="a_node5"><a xlink:href="classscram_1_1core_1_1Zbdd.xhtml#ac90d12f0c653c679d22109124fa6344c" target="_top" xlink:title="Find or adds a ZBDD SetNode vertex using information from gates. ">
<polygon fill="white" stroke="black" points="171.5,-195 171.5,-225 273.5,-225 273.5,-195 171.5,-195"/>
<text text-anchor="start" x="179.5" y="-213" font-family="Helvetica,sans-Serif" font-size="10.00">scram::core::Zbdd::</text>
<text text-anchor="middle" x="222.5" y="-202" font-family="Helvetica,sans-Serif" font-size="10.00">FindOrAddVertex</text>
</a>
</g>
</g>
<!-- Node1&#45;&gt;Node5 -->
<g id="edge4" class="edge"><title>Node1&#45;&gt;Node5</title>
<path fill="none" stroke="midnightblue" d="M130.271,-195.79C144.095,-197.943 158.361,-200.165 171.387,-202.194"/>
<polygon fill="midnightblue" stroke="midnightblue" points="130.728,-192.319 120.308,-194.238 129.65,-199.236 130.728,-192.319"/>
</g>
<!-- Node6 -->
<g id="node6" class="node"><title>Node6</title>
<g id="a_node6"><a xlink:href="classscram_1_1core_1_1Preprocessor.xhtml#a394fb1b5b5f9ee31dc81ad8d64353ee3" target="_top" xlink:title="Traverses the graph to find nodes that have more than one parent. ">
<polygon fill="white" stroke="black" points="156.5,-146 156.5,-176 288.5,-176 288.5,-146 156.5,-146"/>
<text text-anchor="start" x="164.5" y="-164" font-family="Helvetica,sans-Serif" font-size="10.00">scram::core::Preprocessor</text>
<text text-anchor="middle" x="222.5" y="-153" font-family="Helvetica,sans-Serif" font-size="10.00">::GatherCommonNodes</text>
</a>
</g>
</g>
<!-- Node1&#45;&gt;Node6 -->
<g id="edge5" class="edge"><title>Node1&#45;&gt;Node6</title>
<path fill="none" stroke="midnightblue" d="M130.383,-174.625C139.053,-173.328 147.896,-172.006 156.497,-170.72"/>
<polygon fill="midnightblue" stroke="midnightblue" points="129.681,-171.191 120.308,-176.131 130.716,-178.114 129.681,-171.191"/>
</g>
<!-- Node13 -->
<g id="node13" class="node"><title>Node13</title>
<g id="a_node13"><a xlink:href="classscram_1_1core_1_1Preprocessor_1_1GateSet.xhtml#ae00239084858979e096032c4cf2f05b9" target="_top" xlink:title="Inserts a gate into the set if it is semantically unique. ">
<polygon fill="white" stroke="black" points="1235,-115 1235,-145 1367,-145 1367,-115 1235,-115"/>
<text text-anchor="start" x="1243" y="-133" font-family="Helvetica,sans-Serif" font-size="10.00">scram::core::Preprocessor</text>
<text text-anchor="middle" x="1301" y="-122" font-family="Helvetica,sans-Serif" font-size="10.00">::GateSet::insert</text>
</a>
</g>
</g>
<!-- Node1&#45;&gt;Node13 -->
<g id="edge28" class="edge"><title>Node1&#45;&gt;Node13</title>
<path fill="none" stroke="midnightblue" d="M72.9834,-166.815C89.0007,-144.121 119.631,-105.989 156,-87 251.6,-37.0857 287.654,-48 395.5,-48 395.5,-48 395.5,-48 919,-48 1044.85,-48 1188.95,-91.2872 1258.35,-114.96"/>
<polygon fill="midnightblue" stroke="midnightblue" points="69.9853,-164.999 67.2183,-175.226 75.7591,-168.957 69.9853,-164.999"/>
</g>
<!-- Node18 -->
<g id="node18" class="node"><title>Node18</title>
<g id="a_node18"><a xlink:href="classscram_1_1core_1_1Preprocessor.xhtml#af4dae5abf76e5da8b8c9f4371550b7dc" target="_top" xlink:title="Gathers all modules in the PDAG. ">
<polygon fill="white" stroke="black" points="156.5,-97 156.5,-127 288.5,-127 288.5,-97 156.5,-97"/>
<text text-anchor="start" x="164.5" y="-115" font-family="Helvetica,sans-Serif" font-size="10.00">scram::core::Preprocessor</text>
<text text-anchor="middle" x="222.5" y="-104" font-family="Helvetica,sans-Serif" font-size="10.00">::GatherModules</text>
</a>
</g>
</g>
<!-- Node1&#45;&gt;Node18 -->
<g id="edge25" class="edge"><title>Node1&#45;&gt;Node18</title>
<path fill="none" stroke="midnightblue" d="M87.4915,-170.688C106.354,-160.728 132.433,-147.418 156,-137 163.681,-133.604 171.98,-130.223 180.006,-127.095"/>
<polygon fill="midnightblue" stroke="midnightblue" points="85.7812,-167.634 78.5961,-175.42 89.0685,-173.814 85.7812,-167.634"/>
</g>
<!-- Node20 -->
<g id="node20" class="node"><title>Node20</title>
<g id="a_node20"><a xlink:href="classscram_1_1core_1_1Zbdd.xhtml#a38b5c81971df473b1b46de59d0752c81" target="_top" xlink:title="Constructor with the analysis target. ">
<polygon fill="white" stroke="black" points="160.5,-0.5 160.5,-19.5 284.5,-19.5 284.5,-0.5 160.5,-0.5"/>
<text text-anchor="middle" x="222.5" y="-7.5" font-family="Helvetica,sans-Serif" font-size="10.00">scram::core::Zbdd::Zbdd</text>
</a>
</g>
</g>
<!-- Node1&#45;&gt;Node20 -->
<g id="edge29" class="edge"><title>Node1&#45;&gt;Node20</title>
<path fill="none" stroke="midnightblue" d="M68.1967,-165.88C81.0771,-134.123 111.003,-70.4039 156,-34 163.721,-27.7538 173.215,-23.0467 182.556,-19.5335"/>
<polygon fill="midnightblue" stroke="midnightblue" points="64.8798,-164.751 64.4848,-175.338 71.3961,-167.308 64.8798,-164.751"/>
</g>
<!-- Node7 -->
<g id="node7" class="node"><title>Node7</title>
<g id="a_node7"><a xlink:href="classscram_1_1core_1_1Preprocessor.xhtml#aebc709ad2e097c24e837889a6a9e4696" target="_top" xlink:title="Propagates failures of common nodes to detect redundancy. ">
<polygon fill="white" stroke="black" points="330.5,-214 330.5,-244 462.5,-244 462.5,-214 330.5,-214"/>
<text text-anchor="start" x="338.5" y="-232" font-family="Helvetica,sans-Serif" font-size="10.00">scram::core::Preprocessor</text>
<text text-anchor="middle" x="396.5" y="-221" font-family="Helvetica,sans-Serif" font-size="10.00">::BooleanOptimization</text>
</a>
</g>
</g>
<!-- Node6&#45;&gt;Node7 -->
<g id="edge6" class="edge"><title>Node6&#45;&gt;Node7</title>
<path fill="none" stroke="midnightblue" d="M274.724,-179.863C279.582,-181.858 284.405,-183.92 289,-186 305.481,-193.462 308.385,-197.84 325,-205 332.243,-208.121 340.037,-211.118 347.709,-213.871"/>
<polygon fill="midnightblue" stroke="midnightblue" points="275.976,-176.594 265.392,-176.122 273.371,-183.092 275.976,-176.594"/>
</g>
<!-- Node17 -->
<g id="node17" class="node"><title>Node17</title>
<g id="a_node17"><a xlink:href="classscram_1_1core_1_1Preprocessor.xhtml#ae12f3096132d7f6e9daa779724255f7e" target="_top" xlink:title="The Shannon decomposition for common nodes in the PDAG. ">
<polygon fill="white" stroke="black" points="325,-165 325,-195 468,-195 468,-165 325,-165"/>
<text text-anchor="start" x="333" y="-183" font-family="Helvetica,sans-Serif" font-size="10.00">scram::core::Preprocessor</text>
<text text-anchor="middle" x="396.5" y="-172" font-family="Helvetica,sans-Serif" font-size="10.00">::DecomposeCommonNodes</text>
</a>
</g>
</g>
<!-- Node6&#45;&gt;Node17 -->
<g id="edge23" class="edge"><title>Node6&#45;&gt;Node17</title>
<path fill="none" stroke="midnightblue" d="M298.672,-169.304C307.394,-170.267 316.266,-171.247 324.923,-172.204"/>
<polygon fill="midnightblue" stroke="midnightblue" points="298.85,-165.802 288.526,-168.183 298.081,-172.76 298.85,-165.802"/>
</g>
<!-- Node8 -->
<g id="node8" class="node"><title>Node8</title>
<g id="a_node8"><a xlink:href="classscram_1_1core_1_1Preprocessor.xhtml#a9d5f89471499508eb9e6c01ea43e0f15" target="_top" xlink:title="Preprocessing phase of the original structure of the graph. ">
<polygon fill="white" stroke="black" points="504,-214 504,-244 636,-244 636,-214 504,-214"/>
<text text-anchor="start" x="512" y="-232" font-family="Helvetica,sans-Serif" font-size="10.00">scram::core::Preprocessor</text>
<text text-anchor="middle" x="570" y="-221" font-family="Helvetica,sans-Serif" font-size="10.00">::RunPhaseTwo</text>
</a>
</g>
</g>
<!-- Node7&#45;&gt;Node8 -->
<g id="edge7" class="edge"><title>Node7&#45;&gt;Node8</title>
<path fill="none" stroke="midnightblue" d="M473.018,-229C483.299,-229 493.779,-229 503.856,-229"/>
<polygon fill="midnightblue" stroke="midnightblue" points="472.826,-225.5 462.826,-229 472.826,-232.5 472.826,-225.5"/>
</g>
<!-- Node9 -->
<g id="node9" class="node"><title>Node9</title>
<g id="a_node9"><a xlink:href="classscram_1_1core_1_1Preprocessor.xhtml#a2b6705e815fa3d02119c405b483766d5" target="_top" xlink:title="Container of unique gates by semantics. ">
<polygon fill="white" stroke="black" points="840,-339.5 840,-358.5 996,-358.5 996,-339.5 840,-339.5"/>
<text text-anchor="middle" x="918" y="-346.5" font-family="Helvetica,sans-Serif" font-size="10.00">scram::core::Preprocessor::Run</text>
</a>
</g>
</g>
<!-- Node8&#45;&gt;Node9 -->
<g id="edge8" class="edge"><title>Node8&#45;&gt;Node9</title>
<path fill="none" stroke="midnightblue" d="M601.812,-249.622C621.266,-261.89 647.307,-276.967 672,-287 743.405,-316.012 765.251,-311.212 840,-330 852.419,-333.121 865.977,-336.482 878.207,-339.497"/>
<polygon fill="midnightblue" stroke="midnightblue" points="603.674,-246.658 593.365,-244.211 599.898,-252.552 603.674,-246.658"/>
</g>
<!-- Node12 -->
<g id="node12" class="node"><title>Node12</title>
<g id="a_node12"><a xlink:href="classscram_1_1core_1_1Preprocessor.xhtml#a5ee92284aef510ce01a71c962d50f51c" target="_top" xlink:title="Runs the graph preprocessing. ">
<polygon fill="white" stroke="black" points="1049.5,-197 1049.5,-227 1181.5,-227 1181.5,-197 1049.5,-197"/>
<text text-anchor="start" x="1057.5" y="-215" font-family="Helvetica,sans-Serif" font-size="10.00">scram::core::Preprocessor</text>
<text text-anchor="middle" x="1115.5" y="-204" font-family="Helvetica,sans-Serif" font-size="10.00">::operator()</text>
</a>
</g>
</g>
<!-- Node8&#45;&gt;Node12 -->
<g id="edge22" class="edge"><title>Node8&#45;&gt;Node12</title>
<path fill="none" stroke="midnightblue" d="M614.676,-210.298C632.158,-203.762 652.699,-197.249 672,-194 804.684,-171.662 962.745,-188.276 1049.48,-201.025"/>
<polygon fill="midnightblue" stroke="midnightblue" points="613.377,-207.047 605.305,-213.91 615.895,-213.579 613.377,-207.047"/>
</g>
<!-- Node14 -->
<g id="node14" class="node"><title>Node14</title>
<g id="a_node14"><a xlink:href="classscram_1_1core_1_1Preprocessor.xhtml#abf2c66723172a85b2ae87ef2a034cd1f" target="_top" xlink:title="Application of gate normalization. ">
<polygon fill="white" stroke="black" points="672,-203 672,-233 804,-233 804,-203 672,-203"/>
<text text-anchor="start" x="680" y="-221" font-family="Helvetica,sans-Serif" font-size="10.00">scram::core::Preprocessor</text>
<text text-anchor="middle" x="738" y="-210" font-family="Helvetica,sans-Serif" font-size="10.00">::RunPhaseThree</text>
</a>
</g>
</g>
<!-- Node8&#45;&gt;Node14 -->
<g id="edge13" class="edge"><title>Node8&#45;&gt;Node14</title>
<path fill="none" stroke="midnightblue" d="M646.114,-224.023C654.681,-223.455 663.361,-222.88 671.784,-222.322"/>
<polygon fill="midnightblue" stroke="midnightblue" points="645.878,-220.53 636.131,-224.684 646.341,-227.515 645.878,-220.53"/>
</g>
<!-- Node15 -->
<g id="node15" class="node"><title>Node15</title>
<g id="a_node15"><a xlink:href="classscram_1_1core_1_1Preprocessor.xhtml#a5c224938dfba861f061525658bd7b156" target="_top" xlink:title="Propagation of complements. ">
<polygon fill="white" stroke="black" points="852,-241 852,-271 984,-271 984,-241 852,-241"/>
<text text-anchor="start" x="860" y="-259" font-family="Helvetica,sans-Serif" font-size="10.00">scram::core::Preprocessor</text>
<text text-anchor="middle" x="918" y="-248" font-family="Helvetica,sans-Serif" font-size="10.00">::RunPhaseFour</text>
</a>
</g>
</g>
<!-- Node8&#45;&gt;Node15 -->
<g id="edge16" class="edge"><title>Node8&#45;&gt;Node15</title>
<path fill="none" stroke="midnightblue" d="M646.236,-240.144C654.911,-241.216 663.641,-242.2 672,-243 732.845,-248.821 802.46,-252.201 851.893,-254.047"/>
<polygon fill="midnightblue" stroke="midnightblue" points="646.465,-236.645 636.102,-238.85 645.578,-243.588 646.465,-236.645"/>
</g>
<!-- Node16 -->
<g id="node16" class="node"><title>Node16</title>
<g id="a_node16"><a xlink:href="classscram_1_1core_1_1Preprocessor.xhtml#a3569bbcd5e863c750cdfa69115399600" target="_top" xlink:title="The final phase that cleans up the graph, and puts the structure of the graph ready for analysis...">
<polygon fill="white" stroke="black" points="852,-290 852,-320 984,-320 984,-290 852,-290"/>
<text text-anchor="start" x="860" y="-308" font-family="Helvetica,sans-Serif" font-size="10.00">scram::core::Preprocessor</text>
<text text-anchor="middle" x="918" y="-297" font-family="Helvetica,sans-Serif" font-size="10.00">::RunPhaseFive</text>
</a>
</g>
</g>
<!-- Node8&#45;&gt;Node16 -->
<g id="edge19" class="edge"><title>Node8&#45;&gt;Node16</title>
<path fill="none" stroke="midnightblue" d="M624.218,-247.277C639.528,-252.148 656.327,-257.127 672,-261 732.308,-275.903 802.138,-287.943 851.78,-295.636"/>
<polygon fill="midnightblue" stroke="midnightblue" points="624.99,-243.848 614.399,-244.104 622.838,-250.509 624.99,-243.848"/>
</g>
<!-- Node10 -->
<g id="node10" class="node"><title>Node10</title>
<g id="a_node10"><a xlink:href="classscram_1_1core_1_1Preprocessor.xhtml#a9caf4677a024ed935d831210b57b8ed9" target="_top" xlink:title="Gathers nodes in the sub&#45;graph. ">
<polygon fill="white" stroke="black" points="1049.5,-336 1049.5,-366 1181.5,-366 1181.5,-336 1049.5,-336"/>
<text text-anchor="start" x="1057.5" y="-354" font-family="Helvetica,sans-Serif" font-size="10.00">scram::core::Preprocessor</text>
<text text-anchor="middle" x="1115.5" y="-343" font-family="Helvetica,sans-Serif" font-size="10.00">::GatherNodes</text>
</a>
</g>
</g>
<!-- Node9&#45;&gt;Node10 -->
<g id="edge9" class="edge"><title>Node9&#45;&gt;Node10</title>
<path fill="none" stroke="midnightblue" d="M1006.67,-349.897C1021.06,-350.044 1035.74,-350.194 1049.46,-350.335"/>
<polygon fill="midnightblue" stroke="midnightblue" points="1006.3,-346.393 996.267,-349.79 1006.23,-353.393 1006.3,-346.393"/>
</g>
<!-- Node11 -->
<g id="node11" class="node"><title>Node11</title>
<g id="a_node11"><a xlink:href="classscram_1_1core_1_1CustomPreprocessor_3_01Zbdd_01_4.xhtml#a5185075f852c647c7aa4313d23420ee5" target="_top" xlink:title="Performs preprocessing for analyses with Zero&#45;Suppressed Binary Decision Diagrams. ">
<polygon fill="white" stroke="black" points="1032,-287 1032,-317 1199,-317 1199,-287 1032,-287"/>
<text text-anchor="start" x="1040" y="-305" font-family="Helvetica,sans-Serif" font-size="10.00">scram::core::CustomPreprocessor</text>
<text text-anchor="middle" x="1115.5" y="-294" font-family="Helvetica,sans-Serif" font-size="10.00">&lt; Zbdd &gt;::Run</text>
</a>
</g>
</g>
<!-- Node9&#45;&gt;Node11 -->
<g id="edge10" class="edge"><title>Node9&#45;&gt;Node11</title>
<path fill="none" stroke="midnightblue" d="M968.33,-337.141C993.69,-331.044 1024.87,-323.549 1051.9,-317.049"/>
<polygon fill="midnightblue" stroke="midnightblue" points="967.467,-333.748 958.562,-339.489 969.103,-340.554 967.467,-333.748"/>
</g>
<!-- Node9&#45;&gt;Node12 -->
<g id="edge11" class="edge"><title>Node9&#45;&gt;Node12</title>
<path fill="none" stroke="midnightblue" d="M986.724,-335.428C989.963,-333.817 993.077,-332.015 996,-330 1019.14,-314.045 1012.82,-298.552 1032,-278 1050.27,-258.42 1074.53,-239.707 1092.01,-227.24"/>
<polygon fill="midnightblue" stroke="midnightblue" points="985.121,-332.307 977.325,-339.482 987.893,-338.735 985.121,-332.307"/>
</g>
<!-- Node12&#45;&gt;Node13 -->
<g id="edge12" class="edge"><title>Node12&#45;&gt;Node13</title>
<path fill="none" stroke="midnightblue" d="M1159.44,-192.811C1192.02,-178.254 1236.18,-158.521 1266.25,-145.083"/>
<polygon fill="midnightblue" stroke="midnightblue" points="1157.86,-189.685 1150.16,-196.96 1160.71,-196.076 1157.86,-189.685"/>
</g>
<!-- Node14&#45;&gt;Node9 -->
<g id="edge14" class="edge"><title>Node14&#45;&gt;Node9</title>
<path fill="none" stroke="midnightblue" d="M754.007,-241.755C771.505,-267.458 802.823,-307.743 840,-330 846.498,-333.89 853.757,-336.986 861.152,-339.448"/>
<polygon fill="midnightblue" stroke="midnightblue" points="756.856,-239.718 748.407,-233.325 751.025,-243.591 756.856,-239.718"/>
</g>
<!-- Node14&#45;&gt;Node12 -->
<g id="edge15" class="edge"><title>Node14&#45;&gt;Node12</title>
<path fill="none" stroke="midnightblue" d="M814.74,-216.79C883.516,-215.691 983.901,-214.087 1049.21,-213.043"/>
<polygon fill="midnightblue" stroke="midnightblue" points="814.35,-213.295 804.407,-216.955 814.462,-220.295 814.35,-213.295"/>
</g>
<!-- Node15&#45;&gt;Node11 -->
<g id="edge17" class="edge"><title>Node15&#45;&gt;Node11</title>
<path fill="none" stroke="midnightblue" d="M992.835,-273.373C1011.87,-277.852 1032.2,-282.635 1050.68,-286.983"/>
<polygon fill="midnightblue" stroke="midnightblue" points="993.55,-269.946 983.014,-271.062 991.947,-276.76 993.55,-269.946"/>
</g>
<!-- Node15&#45;&gt;Node12 -->
<g id="edge18" class="edge"><title>Node15&#45;&gt;Node12</title>
<path fill="none" stroke="midnightblue" d="M994.088,-239.1C1012.31,-235 1031.64,-230.65 1049.35,-226.662"/>
<polygon fill="midnightblue" stroke="midnightblue" points="993.086,-235.738 984.099,-241.349 994.623,-242.567 993.086,-235.738"/>
</g>
<!-- Node16&#45;&gt;Node11 -->
<g id="edge20" class="edge"><title>Node16&#45;&gt;Node11</title>
<path fill="none" stroke="midnightblue" d="M994.313,-303.844C1006.64,-303.655 1019.46,-303.458 1031.95,-303.267"/>
<polygon fill="midnightblue" stroke="midnightblue" points="994.044,-300.348 984.099,-304.001 994.151,-307.347 994.044,-300.348"/>
</g>
<!-- Node16&#45;&gt;Node12 -->
<g id="edge21" class="edge"><title>Node16&#45;&gt;Node12</title>
<path fill="none" stroke="midnightblue" d="M982.52,-286.461C987.127,-284.733 991.663,-282.909 996,-281 1031.08,-265.556 1068.9,-242.247 1092.15,-227.074"/>
<polygon fill="midnightblue" stroke="midnightblue" points="981.24,-283.202 973.006,-289.869 983.6,-289.792 981.24,-283.202"/>
</g>
<!-- Node17&#45;&gt;Node8 -->
<g id="edge24" class="edge"><title>Node17&#45;&gt;Node8</title>
<path fill="none" stroke="midnightblue" d="M460.129,-197.894C478.575,-203.164 498.564,-208.876 516.319,-213.948"/>
<polygon fill="midnightblue" stroke="midnightblue" points="460.932,-194.483 450.355,-195.101 459.009,-201.214 460.932,-194.483"/>
</g>
<!-- Node18&#45;&gt;Node12 -->
<g id="edge27" class="edge"><title>Node18&#45;&gt;Node12</title>
<path fill="none" stroke="midnightblue" d="M298.718,-120.243C368.637,-127.188 475.73,-136 569,-136 569,-136 569,-136 739,-136 860.718,-136 1000.3,-174.836 1070.01,-196.985"/>
<polygon fill="midnightblue" stroke="midnightblue" points="298.978,-116.752 288.678,-119.233 298.277,-123.717 298.978,-116.752"/>
</g>
<!-- Node19 -->
<g id="node19" class="node"><title>Node19</title>
<g id="a_node19"><a xlink:href="classscram_1_1core_1_1Preprocessor.xhtml#a651b32816243e37c58b7835220997ef2" target="_top" xlink:title="Merges common arguments for a specific group of gates. ">
<polygon fill="white" stroke="black" points="330.5,-77 330.5,-107 462.5,-107 462.5,-77 330.5,-77"/>
<text text-anchor="start" x="338.5" y="-95" font-family="Helvetica,sans-Serif" font-size="10.00">scram::core::Preprocessor</text>
<text text-anchor="middle" x="396.5" y="-84" font-family="Helvetica,sans-Serif" font-size="10.00">::MergeCommonArgs</text>
</a>
</g>
</g>
<!-- Node18&#45;&gt;Node19 -->
<g id="edge26" class="edge"><title>Node18&#45;&gt;Node19</title>
<path fill="none" stroke="midnightblue" d="M298.591,-103.269C309.182,-102.037 319.998,-100.779 330.382,-99.5718"/>
<polygon fill="midnightblue" stroke="midnightblue" points="298.055,-99.8072 288.526,-104.439 298.863,-106.76 298.055,-99.8072"/>
</g>
</g>
</svg>
        <g id="navigator" transform="translate(0 0)" fill="#404254">
                <rect fill="#f2f5e9" fill-opacity="0.5" stroke="#606060" stroke-width=".5" x="0" y="0" width="60" height="60"/>
                <use id="zoomplus" xlink:href="#zoomPlus" x="17" y="9" onmousedown="handleZoom(evt,'in')"/>
                <use id="zoomminus" xlink:href="#zoomMin" x="42" y="9" onmousedown="handleZoom(evt,'out')"/>
                <use id="reset" xlink:href="#resetDef" x="30" y="36" onmousedown="handleReset()"/>
                <g id="arrowUp" xlink:href="#dirArrow" transform="translate(30 24)" onmousedown="handlePan(0,-1)">
                  <use xlink:href="#rim" fill="#404040">
                        <set attributeName="fill" to="#808080" begin="arrowUp.mouseover" end="arrowUp.mouseout"/>
                  </use>
                  <path fill="none" stroke="white" stroke-width="1.5" d="M0,-3.0v7 M-2.5,-0.5L0,-3.0L2.5,-0.5"/>
                </g>
                <g id="arrowRight" xlink:href="#dirArrow" transform="rotate(90) translate(36 -43)" onmousedown="handlePan(1,0)">
                  <use xlink:href="#rim" fill="#404040">
                        <set attributeName="fill" to="#808080" begin="arrowRight.mouseover" end="arrowRight.mouseout"/>
                  </use>
                  <path fill="none" stroke="white" stroke-width="1.5" d="M0,-3.0v7 M-2.5,-0.5L0,-3.0L2.5,-0.5"/>
                </g>
                <g id="arrowDown" xlink:href="#dirArrow" transform="rotate(180) translate(-30 -48)" onmousedown="handlePan(0,1)">
                  <use xlink:href="#rim" fill="#404040">
                        <set attributeName="fill" to="#808080" begin="arrowDown.mouseover" end="arrowDown.mouseout"/>
                  </use>
                  <path fill="none" stroke="white" stroke-width="1.5" d="M0,-3.0v7 M-2.5,-0.5L0,-3.0L2.5,-0.5"/>
                </g>
                <g id="arrowLeft" xlink:href="#dirArrow" transform="rotate(270) translate(-36 17)" onmousedown="handlePan(-1,0)">
                  <use xlink:href="#rim" fill="#404040">
                        <set attributeName="fill" to="#808080" begin="arrowLeft.mouseover" end="arrowLeft.mouseout"/>
                  </use>
                  <path fill="none" stroke="white" stroke-width="1.5" d="M0,-3.0v7 M-2.5,-0.5L0,-3.0L2.5,-0.5"/>
                </g>
        </g>
        <svg viewBox="0 0 15 15" width="100%" height="30px" preserveAspectRatio="xMaxYMin meet">
         <g id="arrow_out" transform="scale(0.3 0.3)">
          <a xlink:href="classscram_1_1core_1_1Gate_aa793eeaa12244c5b39a0d80e5b1518ae_icgraph_org.svg" target="_base">
           <rect id="button" ry="5" rx="5" y="6" x="6" height="38" width="38"
                fill="#f2f5e9" fill-opacity="0.5" stroke="#606060" stroke-width="1.0"/>
           <path id="arrow"
             d="M 11.500037,31.436501 C 11.940474,20.09759 22.043105,11.32322 32.158766,21.979434 L 37.068811,17.246167 C 37.068811,17.246167 37.088388,32 37.088388,32 L 22.160133,31.978069 C 22.160133,31.978069 26.997745,27.140456 26.997745,27.140456 C 18.528582,18.264221 13.291696,25.230495 11.500037,31.436501 z"
             style="fill:#404040;"/>
          </a>
         </g>
        </svg>
</svg>
