<?xml version="1.0" encoding="UTF-8" standalone="no"?>
<!DOCTYPE svg PUBLIC "-//W3C//DTD SVG 1.1//EN"
 "http://www.w3.org/Graphics/SVG/1.1/DTD/svg11.dtd">
<!-- Generated by graphviz version 2.38.0 (20140413.2041)
 -->
<!-- Title: scram::core::Terminal::value Pages: 1 -->
<svg width="645pt" height="367pt"
 viewBox="0.00 0.00 645.00 367.00" xmlns="http://www.w3.org/2000/svg" xmlns:xlink="http://www.w3.org/1999/xlink">
<g id="graph0" class="graph" transform="scale(1 1) rotate(0) translate(4 363)">
<title>scram::core::Terminal::value</title>
<polygon fill="white" stroke="none" points="-4,4 -4,-363 641,-363 641,4 -4,4"/>
<!-- Node1 -->
<g id="node1" class="node"><title>Node1</title>
<polygon fill="#bfbfbf" stroke="black" points="0,-257.5 0,-287.5 112,-287.5 112,-257.5 0,-257.5"/>
<text text-anchor="start" x="8" y="-275.5" font-family="Helvetica,sans-Serif" font-size="10.00">scram::core::Terminal</text>
<text text-anchor="middle" x="56" y="-264.5" font-family="Helvetica,sans-Serif" font-size="10.00">::value</text>
</g>
<!-- Node2 -->
<g id="node2" class="node"><title>Node2</title>
<g id="a_node2"><a xlink:href="classscram_1_1core_1_1Zbdd.xhtml#a363960002737004ea45f67758d9ac17d" target="_top" xlink:title="Specialization of Apply for AND operator for any ZBDD vertices. ">
<polygon fill="white" stroke="black" points="148,-328.5 148,-358.5 250,-358.5 250,-328.5 148,-328.5"/>
<text text-anchor="start" x="156" y="-346.5" font-family="Helvetica,sans-Serif" font-size="10.00">scram::core::Zbdd::</text>
<text text-anchor="middle" x="199" y="-335.5" font-family="Helvetica,sans-Serif" font-size="10.00">Apply</text>
</a>
</g>
</g>
<!-- Node1&#45;&gt;Node2 -->
<g id="edge1" class="edge"><title>Node1&#45;&gt;Node2</title>
<path fill="none" stroke="midnightblue" d="M94.7983,-292.336C111.108,-300.813 130.438,-310.752 148,-319.5 153.861,-322.419 160.136,-325.481 166.192,-328.404"/>
<polygon fill="midnightblue" stroke="midnightblue" points="96.066,-289.05 85.5803,-287.533 92.8316,-295.258 96.066,-289.05"/>
</g>
<!-- Node3 -->
<g id="node3" class="node"><title>Node3</title>
<g id="a_node3"><a xlink:href="classscram_1_1core_1_1Zbdd.xhtml#aeb83fd37f2aee74ac41e6ccadba82d39" target="_top" xlink:title="Removes constant modules from products. ">
<polygon fill="white" stroke="black" points="299.5,-235.5 299.5,-265.5 433.5,-265.5 433.5,-235.5 299.5,-235.5"/>
<text text-anchor="start" x="307.5" y="-253.5" font-family="Helvetica,sans-Serif" font-size="10.00">scram::core::Zbdd::</text>
<text text-anchor="middle" x="366.5" y="-242.5" font-family="Helvetica,sans-Serif" font-size="10.00">EliminateConstantModules</text>
</a>
</g>
</g>
<!-- Node1&#45;&gt;Node3 -->
<g id="edge2" class="edge"><title>Node1&#45;&gt;Node3</title>
<path fill="none" stroke="midnightblue" d="M122.282,-267.845C174.354,-264.131 246.98,-258.952 299.294,-255.221"/>
<polygon fill="midnightblue" stroke="midnightblue" points="121.879,-264.364 112.154,-268.567 122.377,-271.347 121.879,-264.364"/>
</g>
<!-- Node6 -->
<g id="node6" class="node"><title>Node6</title>
<g id="a_node6"><a xlink:href="classscram_1_1core_1_1Zbdd.xhtml#a516f0d2f35ad213399f83fb9ab102561" target="_top" xlink:title="Traverses ZBDD to find modules and adjusted cut&#45;offs. ">
<polygon fill="white" stroke="black" points="148,-279.5 148,-309.5 250,-309.5 250,-279.5 148,-279.5"/>
<text text-anchor="start" x="156" y="-297.5" font-family="Helvetica,sans-Serif" font-size="10.00">scram::core::Zbdd::</text>
<text text-anchor="middle" x="199" y="-286.5" font-family="Helvetica,sans-Serif" font-size="10.00">GatherModules</text>
</a>
</g>
</g>
<!-- Node1&#45;&gt;Node6 -->
<g id="edge5" class="edge"><title>Node1&#45;&gt;Node6</title>
<path fill="none" stroke="midnightblue" d="M122.326,-282.693C130.914,-284.033 139.605,-285.389 147.885,-286.681"/>
<polygon fill="midnightblue" stroke="midnightblue" points="122.742,-279.215 112.322,-281.132 121.663,-286.132 122.742,-279.215"/>
</g>
<!-- Node8 -->
<g id="node8" class="node"><title>Node8</title>
<g id="a_node8"><a xlink:href="classscram_1_1core_1_1Zbdd.xhtml#a3dbb8ef5da2882daf6c39e9724eae459" target="_top" xlink:title="Removes subsets in ZBDD. ">
<polygon fill="white" stroke="black" points="148,-147.5 148,-177.5 250,-177.5 250,-147.5 148,-147.5"/>
<text text-anchor="start" x="156" y="-165.5" font-family="Helvetica,sans-Serif" font-size="10.00">scram::core::Zbdd::</text>
<text text-anchor="middle" x="199" y="-154.5" font-family="Helvetica,sans-Serif" font-size="10.00">Minimize</text>
</a>
</g>
</g>
<!-- Node1&#45;&gt;Node8 -->
<g id="edge8" class="edge"><title>Node1&#45;&gt;Node8</title>
<path fill="none" stroke="midnightblue" d="M84.3929,-251.13C112.037,-229.563 154.032,-196.801 178.471,-177.735"/>
<polygon fill="midnightblue" stroke="midnightblue" points="82.0414,-248.525 76.3098,-257.436 86.3472,-254.044 82.0414,-248.525"/>
</g>
<!-- Node4 -->
<g id="node4" class="node"><title>Node4</title>
<g id="a_node4"><a xlink:href="classscram_1_1core_1_1Zbdd.xhtml#af92e04ed908364e0177ce444d7b72712" target="_top" xlink:title="The common constructor to initialize member variables. ">
<polygon fill="white" stroke="black" points="498,-199 498,-218 622,-218 622,-199 498,-199"/>
<text text-anchor="middle" x="560" y="-206" font-family="Helvetica,sans-Serif" font-size="10.00">scram::core::Zbdd::Zbdd</text>
</a>
</g>
</g>
<!-- Node3&#45;&gt;Node4 -->
<g id="edge3" class="edge"><title>Node3&#45;&gt;Node4</title>
<path fill="none" stroke="midnightblue" d="M443.666,-233.795C468.136,-228.428 494.387,-222.671 515.655,-218.007"/>
<polygon fill="midnightblue" stroke="midnightblue" points="442.69,-230.426 433.672,-235.987 444.189,-237.264 442.69,-230.426"/>
</g>
<!-- Node5 -->
<g id="node5" class="node"><title>Node5</title>
<g id="a_node5"><a xlink:href="classscram_1_1core_1_1zbdd_1_1CutSetContainer.xhtml#a1022ad7a4699257a6f0c0809d8f1903d" target="_top" xlink:title="Removes constant modules from cut sets. ">
<polygon fill="white" stroke="black" points="492,-237 492,-278 628,-278 628,-237 492,-237"/>
<text text-anchor="start" x="500" y="-266" font-family="Helvetica,sans-Serif" font-size="10.00">scram::core::zbdd::</text>
<text text-anchor="start" x="500" y="-255" font-family="Helvetica,sans-Serif" font-size="10.00">CutSetContainer::Eliminate</text>
<text text-anchor="middle" x="560" y="-244" font-family="Helvetica,sans-Serif" font-size="10.00">ConstantModules</text>
</a>
</g>
</g>
<!-- Node3&#45;&gt;Node5 -->
<g id="edge4" class="edge"><title>Node3&#45;&gt;Node5</title>
<path fill="none" stroke="midnightblue" d="M443.956,-253.295C459.797,-253.874 476.373,-254.48 491.851,-255.045"/>
<polygon fill="midnightblue" stroke="midnightblue" points="443.793,-249.787 433.672,-252.919 443.537,-256.782 443.793,-249.787"/>
</g>
<!-- Node6&#45;&gt;Node4 -->
<g id="edge6" class="edge"><title>Node6&#45;&gt;Node4</title>
<path fill="none" stroke="midnightblue" d="M260.443,-303.185C313.016,-307.761 389.564,-307.029 447,-275.5 470.376,-262.668 460.784,-242.251 483,-227.5 488.892,-223.588 495.526,-220.481 502.357,-218.014"/>
<polygon fill="midnightblue" stroke="midnightblue" points="260.55,-299.679 250.261,-302.207 259.88,-306.647 260.55,-299.679"/>
</g>
<!-- Node7 -->
<g id="node7" class="node"><title>Node7</title>
<g id="a_node7"><a xlink:href="classscram_1_1core_1_1zbdd_1_1CutSetContainer.xhtml#a478c89f64731781882b50ec55898900b" target="_top" xlink:title="Gathers all module indices in the cut sets. ">
<polygon fill="white" stroke="black" points="286,-323.5 286,-353.5 447,-353.5 447,-323.5 286,-323.5"/>
<text text-anchor="start" x="294" y="-341.5" font-family="Helvetica,sans-Serif" font-size="10.00">scram::core::zbdd::</text>
<text text-anchor="middle" x="366.5" y="-330.5" font-family="Helvetica,sans-Serif" font-size="10.00">CutSetContainer::GatherModules</text>
</a>
</g>
</g>
<!-- Node6&#45;&gt;Node7 -->
<g id="edge7" class="edge"><title>Node6&#45;&gt;Node7</title>
<path fill="none" stroke="midnightblue" d="M259.878,-310.419C275.869,-314.671 293.097,-319.251 308.905,-323.454"/>
<polygon fill="midnightblue" stroke="midnightblue" points="260.668,-307.008 250.105,-307.821 258.87,-313.773 260.668,-307.008"/>
</g>
<!-- Node8&#45;&gt;Node3 -->
<g id="edge16" class="edge"><title>Node8&#45;&gt;Node3</title>
<path fill="none" stroke="midnightblue" d="M227.744,-183.635C244.112,-195.475 265.565,-209.937 286,-220.5 296.746,-226.055 308.764,-231.129 320.138,-235.461"/>
<polygon fill="midnightblue" stroke="midnightblue" points="229.813,-180.812 219.681,-177.717 225.672,-186.455 229.813,-180.812"/>
</g>
<!-- Node8&#45;&gt;Node4 -->
<g id="edge11" class="edge"><title>Node8&#45;&gt;Node4</title>
<path fill="none" stroke="midnightblue" d="M257.54,-180.192C266.98,-182.621 276.712,-184.846 286,-186.5 358.091,-199.342 442.24,-204.694 497.852,-206.921"/>
<polygon fill="midnightblue" stroke="midnightblue" points="258.403,-176.8 247.838,-177.601 256.597,-183.563 258.403,-176.8"/>
</g>
<!-- Node9 -->
<g id="node9" class="node"><title>Node9</title>
<g id="a_node9"><a xlink:href="classscram_1_1core_1_1Zbdd.xhtml#a77945d28bd832d2735969d0b0a451c78" target="_top" xlink:title="Runs the analysis with the representation of a PDAG as ZBDD. ">
<polygon fill="white" stroke="black" points="315.5,-49.5 315.5,-79.5 417.5,-79.5 417.5,-49.5 315.5,-49.5"/>
<text text-anchor="start" x="323.5" y="-67.5" font-family="Helvetica,sans-Serif" font-size="10.00">scram::core::Zbdd::</text>
<text text-anchor="middle" x="366.5" y="-56.5" font-family="Helvetica,sans-Serif" font-size="10.00">Analyze</text>
</a>
</g>
</g>
<!-- Node8&#45;&gt;Node9 -->
<g id="edge9" class="edge"><title>Node8&#45;&gt;Node9</title>
<path fill="none" stroke="midnightblue" d="M221.16,-139.776C237.481,-123.449 261.366,-102.017 286,-88.5 295.1,-83.5064 305.37,-79.4232 315.432,-76.1334"/>
<polygon fill="midnightblue" stroke="midnightblue" points="218.27,-137.726 213.785,-147.325 223.277,-142.618 218.27,-137.726"/>
</g>
<!-- Node11 -->
<g id="node11" class="node"><title>Node11</title>
<g id="a_node11"><a xlink:href="classscram_1_1core_1_1Zbdd.xhtml#a499a8bc4bc3854e7b2928c08515243cf" target="_top" xlink:title="Specialization of Apply for AND operator for non&#45;terminal ZBDD vertices. ">
<polygon fill="white" stroke="black" points="315.5,-98.5 315.5,-128.5 417.5,-128.5 417.5,-98.5 315.5,-98.5"/>
<text text-anchor="start" x="323.5" y="-116.5" font-family="Helvetica,sans-Serif" font-size="10.00">scram::core::Zbdd::</text>
<text text-anchor="middle" x="366.5" y="-105.5" font-family="Helvetica,sans-Serif" font-size="10.00">Apply</text>
</a>
</g>
</g>
<!-- Node8&#45;&gt;Node11 -->
<g id="edge12" class="edge"><title>Node8&#45;&gt;Node11</title>
<path fill="none" stroke="midnightblue" d="M259.742,-144.812C277.949,-139.421 297.77,-133.553 315.28,-128.369"/>
<polygon fill="midnightblue" stroke="midnightblue" points="258.7,-141.47 250.105,-147.665 260.687,-148.182 258.7,-141.47"/>
</g>
<!-- Node12 -->
<g id="node12" class="node"><title>Node12</title>
<g id="a_node12"><a xlink:href="classscram_1_1core_1_1Zbdd.xhtml#ac3ac27090b550d973b20bd971c3de9f9" target="_top" xlink:title="Removes complements of variables from products. ">
<polygon fill="white" stroke="black" points="307.5,-147.5 307.5,-177.5 425.5,-177.5 425.5,-147.5 307.5,-147.5"/>
<text text-anchor="start" x="315.5" y="-165.5" font-family="Helvetica,sans-Serif" font-size="10.00">scram::core::Zbdd::</text>
<text text-anchor="middle" x="366.5" y="-154.5" font-family="Helvetica,sans-Serif" font-size="10.00">EliminateComplements</text>
</a>
</g>
</g>
<!-- Node8&#45;&gt;Node12 -->
<g id="edge13" class="edge"><title>Node8&#45;&gt;Node12</title>
<path fill="none" stroke="midnightblue" d="M260.505,-162.5C275.823,-162.5 292.239,-162.5 307.433,-162.5"/>
<polygon fill="midnightblue" stroke="midnightblue" points="260.105,-159 250.105,-162.5 260.105,-166 260.105,-159"/>
</g>
<!-- Node14 -->
<g id="node14" class="node"><title>Node14</title>
<g id="a_node14"><a xlink:href="classscram_1_1core_1_1zbdd_1_1CutSetContainer.xhtml#a1648d3f24a95302fac2a40e95f743dda" target="_top" xlink:title="Minimizes cut sets in the container. ">
<polygon fill="white" stroke="black" points="299.5,-0.5 299.5,-30.5 433.5,-30.5 433.5,-0.5 299.5,-0.5"/>
<text text-anchor="start" x="307.5" y="-18.5" font-family="Helvetica,sans-Serif" font-size="10.00">scram::core::zbdd::</text>
<text text-anchor="middle" x="366.5" y="-7.5" font-family="Helvetica,sans-Serif" font-size="10.00">CutSetContainer::Minimize</text>
</a>
</g>
</g>
<!-- Node8&#45;&gt;Node14 -->
<g id="edge17" class="edge"><title>Node8&#45;&gt;Node14</title>
<path fill="none" stroke="midnightblue" d="M210.891,-138.078C224.538,-110.218 250.513,-65.206 286,-39.5 290.787,-36.0323 296.08,-33.0598 301.594,-30.5127"/>
<polygon fill="midnightblue" stroke="midnightblue" points="207.708,-136.623 206.583,-147.158 214.032,-139.624 207.708,-136.623"/>
</g>
<!-- Node10 -->
<g id="node10" class="node"><title>Node10</title>
<g id="a_node10"><a xlink:href="classscram_1_1core_1_1FaultTreeAnalyzer.xhtml#aedae0c884539dab245018194771f5021" target="_top" xlink:title="scram::core::FaultTreeAnalyzer\l::algorithm">
<polygon fill="white" stroke="black" points="483,-49.5 483,-79.5 637,-79.5 637,-49.5 483,-49.5"/>
<text text-anchor="start" x="491" y="-67.5" font-family="Helvetica,sans-Serif" font-size="10.00">scram::core::FaultTreeAnalyzer</text>
<text text-anchor="middle" x="560" y="-56.5" font-family="Helvetica,sans-Serif" font-size="10.00">::algorithm</text>
</a>
</g>
</g>
<!-- Node9&#45;&gt;Node10 -->
<g id="edge10" class="edge"><title>Node9&#45;&gt;Node10</title>
<path fill="none" stroke="midnightblue" d="M427.83,-64.5C445.233,-64.5 464.453,-64.5 482.691,-64.5"/>
<polygon fill="midnightblue" stroke="midnightblue" points="427.814,-61.0001 417.814,-64.5 427.814,-68.0001 427.814,-61.0001"/>
</g>
<!-- Node12&#45;&gt;Node4 -->
<g id="edge14" class="edge"><title>Node12&#45;&gt;Node4</title>
<path fill="none" stroke="midnightblue" d="M435.491,-178.832C463.531,-185.567 495.047,-193.138 519.224,-198.946"/>
<polygon fill="midnightblue" stroke="midnightblue" points="436.277,-175.421 425.736,-176.489 434.642,-182.228 436.277,-175.421"/>
</g>
<!-- Node13 -->
<g id="node13" class="node"><title>Node13</title>
<g id="a_node13"><a xlink:href="classscram_1_1core_1_1zbdd_1_1CutSetContainer.xhtml#a49532388bd9b917f4351f94f728518aa" target="_top" xlink:title="Eliminates all complements from cut sets. ">
<polygon fill="white" stroke="black" points="492,-139 492,-180 628,-180 628,-139 492,-139"/>
<text text-anchor="start" x="500" y="-168" font-family="Helvetica,sans-Serif" font-size="10.00">scram::core::zbdd::</text>
<text text-anchor="start" x="500" y="-157" font-family="Helvetica,sans-Serif" font-size="10.00">CutSetContainer::Eliminate</text>
<text text-anchor="middle" x="560" y="-146" font-family="Helvetica,sans-Serif" font-size="10.00">Complements</text>
</a>
</g>
</g>
<!-- Node12&#45;&gt;Node13 -->
<g id="edge15" class="edge"><title>Node12&#45;&gt;Node13</title>
<path fill="none" stroke="midnightblue" d="M435.979,-161.427C454.194,-161.142 473.844,-160.834 491.98,-160.55"/>
<polygon fill="midnightblue" stroke="midnightblue" points="435.68,-157.931 425.736,-161.588 435.79,-164.931 435.68,-157.931"/>
</g>
</g>
</svg>
