<?xml version="1.0" encoding="UTF-8" standalone="no"?>
<!DOCTYPE svg PUBLIC "-//W3C//DTD SVG 1.1//EN"
 "http://www.w3.org/Graphics/SVG/1.1/DTD/svg11.dtd">
<!-- Generated by graphviz version 2.38.0 (20140413.2041)
 -->
<!-- Title: scram::core::Pdag::Clear Pages: 1 -->
<svg width="1357pt" height="692pt"
 viewBox="0.00 0.00 1357.00 691.60" xmlns="http://www.w3.org/2000/svg" xmlns:xlink="http://www.w3.org/1999/xlink">
<g id="graph0" class="graph" transform="scale(1 1) rotate(0) translate(4 687.602)">
<title>scram::core::Pdag::Clear</title>
<polygon fill="white" stroke="none" points="-4,4 -4,-687.602 1353,-687.602 1353,4 -4,4"/>
<!-- Node1 -->
<g id="node1" class="node"><title>Node1</title>
<polygon fill="#bfbfbf" stroke="black" points="0,-325.5 0,-355.5 103,-355.5 103,-325.5 0,-325.5"/>
<text text-anchor="start" x="8" y="-343.5" font-family="Helvetica,sans-Serif" font-size="10.00">scram::core::Pdag::</text>
<text text-anchor="middle" x="51.5" y="-332.5" font-family="Helvetica,sans-Serif" font-size="10.00">Clear</text>
</g>
<!-- Node2 -->
<g id="node2" class="node"><title>Node2</title>
<g id="a_node2"><a xlink:href="classscram_1_1core_1_1Preprocessor.xhtml#afb4e28af2f1ec12db694af6e93ffbd1d" target="_top" xlink:title="Assigns order for PDAG variables. ">
<polygon fill="white" stroke="black" points="312.5,-129.5 312.5,-159.5 444.5,-159.5 444.5,-129.5 312.5,-129.5"/>
<text text-anchor="start" x="320.5" y="-147.5" font-family="Helvetica,sans-Serif" font-size="10.00">scram::core::Preprocessor</text>
<text text-anchor="middle" x="378.5" y="-136.5" font-family="Helvetica,sans-Serif" font-size="10.00">::AssignOrder</text>
</a>
</g>
</g>
<!-- Node1&#45;&gt;Node2 -->
<g id="edge1" class="edge"><title>Node1&#45;&gt;Node2</title>
<path fill="none" stroke="midnightblue" d="M57.8288,-315.393C67.2021,-277.952 90.4381,-208.28 139,-174.5 189.446,-139.409 260.767,-134.761 312.259,-137.144"/>
<polygon fill="midnightblue" stroke="midnightblue" points="54.3404,-314.936 55.4472,-325.473 61.1528,-316.546 54.3404,-314.936"/>
</g>
<!-- Node3 -->
<g id="node3" class="node"><title>Node3</title>
<g id="a_node3"><a xlink:href="classscram_1_1core_1_1Preprocessor.xhtml#ad13e133278ea7563c1ba037c05c35aa2" target="_top" xlink:title="Normalizes the gates of the whole PDAG into OR, AND gates. ">
<polygon fill="white" stroke="black" points="486,-211.5 486,-241.5 618,-241.5 618,-211.5 486,-211.5"/>
<text text-anchor="start" x="494" y="-229.5" font-family="Helvetica,sans-Serif" font-size="10.00">scram::core::Preprocessor</text>
<text text-anchor="middle" x="552" y="-218.5" font-family="Helvetica,sans-Serif" font-size="10.00">::NormalizeGates</text>
</a>
</g>
</g>
<!-- Node1&#45;&gt;Node3 -->
<g id="edge54" class="edge"><title>Node1&#45;&gt;Node3</title>
<path fill="none" stroke="midnightblue" d="M67.275,-316.779C82.3382,-294.966 107.876,-263.897 139,-249.5 251.972,-197.243 401.381,-205.326 485.726,-215.914"/>
<polygon fill="midnightblue" stroke="midnightblue" points="64.2954,-314.939 61.6581,-325.2 70.1189,-318.823 64.2954,-314.939"/>
</g>
<!-- Node11 -->
<g id="node11" class="node"><title>Node11</title>
<g id="a_node11"><a xlink:href="classscram_1_1core_1_1Preprocessor.xhtml#aebc709ad2e097c24e837889a6a9e4696" target="_top" xlink:title="Propagates failures of common nodes to detect redundancy. ">
<polygon fill="white" stroke="black" points="312.5,-391.5 312.5,-421.5 444.5,-421.5 444.5,-391.5 312.5,-391.5"/>
<text text-anchor="start" x="320.5" y="-409.5" font-family="Helvetica,sans-Serif" font-size="10.00">scram::core::Preprocessor</text>
<text text-anchor="middle" x="378.5" y="-398.5" font-family="Helvetica,sans-Serif" font-size="10.00">::BooleanOptimization</text>
</a>
</g>
</g>
<!-- Node1&#45;&gt;Node11 -->
<g id="edge16" class="edge"><title>Node1&#45;&gt;Node11</title>
<path fill="none" stroke="midnightblue" d="M83.7404,-361.083C99.6268,-370.496 119.631,-380.8 139,-386.5 196.002,-403.275 263.74,-407.55 312.434,-408.055"/>
<polygon fill="midnightblue" stroke="midnightblue" points="85.2575,-357.908 74.8985,-355.685 81.6101,-363.883 85.2575,-357.908"/>
</g>
<!-- Node13 -->
<g id="node13" class="node"><title>Node13</title>
<g id="a_node13"><a xlink:href="classscram_1_1core_1_1Preprocessor.xhtml#a5c224938dfba861f061525658bd7b156" target="_top" xlink:title="Propagation of complements. ">
<polygon fill="white" stroke="black" points="834,-214.5 834,-244.5 966,-244.5 966,-214.5 834,-214.5"/>
<text text-anchor="start" x="842" y="-232.5" font-family="Helvetica,sans-Serif" font-size="10.00">scram::core::Preprocessor</text>
<text text-anchor="middle" x="900" y="-221.5" font-family="Helvetica,sans-Serif" font-size="10.00">::RunPhaseFour</text>
</a>
</g>
</g>
<!-- Node1&#45;&gt;Node13 -->
<g id="edge58" class="edge"><title>Node1&#45;&gt;Node13</title>
<path fill="none" stroke="midnightblue" d="M60.8896,-315.794C72.8361,-284.943 97.9681,-233.435 139,-210.5 264.515,-140.343 643.267,-184.08 786,-201.5 807.066,-204.071 829.861,-209.243 849.423,-214.451"/>
<polygon fill="midnightblue" stroke="midnightblue" points="57.5255,-314.801 57.3398,-325.394 64.091,-317.228 57.5255,-314.801"/>
</g>
<!-- Node15 -->
<g id="node15" class="node"><title>Node15</title>
<g id="a_node15"><a xlink:href="classscram_1_1core_1_1Preprocessor.xhtml#a00288bef180767d7c79e3c79a33ef2d8" target="_top" xlink:title="Runs gate coalescence on the whole PDAG. ">
<polygon fill="white" stroke="black" points="312.5,-489.5 312.5,-519.5 444.5,-519.5 444.5,-489.5 312.5,-489.5"/>
<text text-anchor="start" x="320.5" y="-507.5" font-family="Helvetica,sans-Serif" font-size="10.00">scram::core::Preprocessor</text>
<text text-anchor="middle" x="378.5" y="-496.5" font-family="Helvetica,sans-Serif" font-size="10.00">::CoalesceGates</text>
</a>
</g>
</g>
<!-- Node1&#45;&gt;Node15 -->
<g id="edge27" class="edge"><title>Node1&#45;&gt;Node15</title>
<path fill="none" stroke="midnightblue" d="M66.3377,-364.402C81.2719,-388.053 107.238,-423.528 139,-443.5 191.824,-476.716 261.969,-491.885 312.497,-498.789"/>
<polygon fill="midnightblue" stroke="midnightblue" points="69.1965,-362.369 60.9859,-355.673 63.2288,-366.027 69.1965,-362.369"/>
</g>
<!-- Node17 -->
<g id="node17" class="node"><title>Node17</title>
<g id="a_node17"><a xlink:href="classscram_1_1core_1_1Preprocessor.xhtml#ae12f3096132d7f6e9daa779724255f7e" target="_top" xlink:title="The Shannon decomposition for common nodes in the PDAG. ">
<polygon fill="white" stroke="black" points="307,-342.5 307,-372.5 450,-372.5 450,-342.5 307,-342.5"/>
<text text-anchor="start" x="315" y="-360.5" font-family="Helvetica,sans-Serif" font-size="10.00">scram::core::Preprocessor</text>
<text text-anchor="middle" x="378.5" y="-349.5" font-family="Helvetica,sans-Serif" font-size="10.00">::DecomposeCommonNodes</text>
</a>
</g>
</g>
<!-- Node1&#45;&gt;Node17 -->
<g id="edge32" class="edge"><title>Node1&#45;&gt;Node17</title>
<path fill="none" stroke="midnightblue" d="M113.295,-338.126C121.923,-337.866 130.685,-337.644 139,-337.5 197.658,-336.483 212.586,-332.063 271,-337.5 282.895,-338.607 295.441,-340.396 307.584,-342.459"/>
<polygon fill="midnightblue" stroke="midnightblue" points="113.146,-334.629 103.263,-338.445 113.369,-341.625 113.146,-334.629"/>
</g>
<!-- Node18 -->
<g id="node18" class="node"><title>Node18</title>
<g id="a_node18"><a xlink:href="classscram_1_1core_1_1Preprocessor.xhtml#a4737f354474154b3cea9773c25616d27" target="_top" xlink:title="Detects and manipulates AND and OR gate distributivity for the whole graph. ">
<polygon fill="white" stroke="black" points="139,-259.5 139,-289.5 271,-289.5 271,-259.5 139,-259.5"/>
<text text-anchor="start" x="147" y="-277.5" font-family="Helvetica,sans-Serif" font-size="10.00">scram::core::Preprocessor</text>
<text text-anchor="middle" x="205" y="-266.5" font-family="Helvetica,sans-Serif" font-size="10.00">::DetectDistributivity</text>
</a>
</g>
</g>
<!-- Node1&#45;&gt;Node18 -->
<g id="edge34" class="edge"><title>Node1&#45;&gt;Node18</title>
<path fill="none" stroke="midnightblue" d="M96.5414,-321.314C119.742,-311.207 147.784,-298.99 169.405,-289.571"/>
<polygon fill="midnightblue" stroke="midnightblue" points="95.0271,-318.156 87.2572,-325.358 97.8229,-324.573 95.0271,-318.156"/>
</g>
<!-- Node20 -->
<g id="node20" class="node"><title>Node20</title>
<g id="a_node20"><a xlink:href="classscram_1_1core_1_1Preprocessor.xhtml#aa9856913eee7b854abfbe8d8330566d3" target="_top" xlink:title="Traverses the PDAG to detect modules. ">
<polygon fill="white" stroke="black" points="312.5,-630.5 312.5,-660.5 444.5,-660.5 444.5,-630.5 312.5,-630.5"/>
<text text-anchor="start" x="320.5" y="-648.5" font-family="Helvetica,sans-Serif" font-size="10.00">scram::core::Preprocessor</text>
<text text-anchor="middle" x="378.5" y="-637.5" font-family="Helvetica,sans-Serif" font-size="10.00">::DetectModules</text>
</a>
</g>
</g>
<!-- Node1&#45;&gt;Node20 -->
<g id="edge37" class="edge"><title>Node1&#45;&gt;Node20</title>
<path fill="none" stroke="midnightblue" d="M53.6464,-365.739C57.3444,-415.987 72.9707,-528.824 139,-588.5 186.14,-631.104 259.38,-643.405 312.264,-646.256"/>
<polygon fill="midnightblue" stroke="midnightblue" points="57.1379,-365.492 53.0099,-355.734 50.152,-365.937 57.1379,-365.492"/>
</g>
<!-- Node21 -->
<g id="node21" class="node"><title>Node21</title>
<g id="a_node21"><a xlink:href="classscram_1_1core_1_1Preprocessor.xhtml#a394fb1b5b5f9ee31dc81ad8d64353ee3" target="_top" xlink:title="Traverses the graph to find nodes that have more than one parent. ">
<polygon fill="white" stroke="black" points="139,-347.5 139,-377.5 271,-377.5 271,-347.5 139,-347.5"/>
<text text-anchor="start" x="147" y="-365.5" font-family="Helvetica,sans-Serif" font-size="10.00">scram::core::Preprocessor</text>
<text text-anchor="middle" x="205" y="-354.5" font-family="Helvetica,sans-Serif" font-size="10.00">::GatherCommonNodes</text>
</a>
</g>
</g>
<!-- Node1&#45;&gt;Node21 -->
<g id="edge40" class="edge"><title>Node1&#45;&gt;Node21</title>
<path fill="none" stroke="midnightblue" d="M113.39,-349.342C121.731,-350.553 130.322,-351.801 138.737,-353.023"/>
<polygon fill="midnightblue" stroke="midnightblue" points="113.768,-345.86 103.369,-347.887 112.762,-352.788 113.768,-345.86"/>
</g>
<!-- Node22 -->
<g id="node22" class="node"><title>Node22</title>
<g id="a_node22"><a xlink:href="classscram_1_1core_1_1Preprocessor.xhtml#af4dae5abf76e5da8b8c9f4371550b7dc" target="_top" xlink:title="Gathers all modules in the PDAG. ">
<polygon fill="white" stroke="black" points="139,-549.5 139,-579.5 271,-579.5 271,-549.5 139,-549.5"/>
<text text-anchor="start" x="147" y="-567.5" font-family="Helvetica,sans-Serif" font-size="10.00">scram::core::Preprocessor</text>
<text text-anchor="middle" x="205" y="-556.5" font-family="Helvetica,sans-Serif" font-size="10.00">::GatherModules</text>
</a>
</g>
</g>
<!-- Node1&#45;&gt;Node22 -->
<g id="edge43" class="edge"><title>Node1&#45;&gt;Node22</title>
<path fill="none" stroke="midnightblue" d="M57.6444,-365.505C67.1324,-405.885 90.9626,-485.835 139,-534.5 144.937,-540.515 152.306,-545.451 159.928,-549.457"/>
<polygon fill="midnightblue" stroke="midnightblue" points="61.0438,-364.668 55.4374,-355.678 54.2139,-366.202 61.0438,-364.668"/>
</g>
<!-- Node23 -->
<g id="node23" class="node"><title>Node23</title>
<g id="a_node23"><a xlink:href="classscram_1_1core_1_1Preprocessor.xhtml#a651b32816243e37c58b7835220997ef2" target="_top" xlink:title="Merges common arguments for a specific group of gates. ">
<polygon fill="white" stroke="black" points="312.5,-542.5 312.5,-572.5 444.5,-572.5 444.5,-542.5 312.5,-542.5"/>
<text text-anchor="start" x="320.5" y="-560.5" font-family="Helvetica,sans-Serif" font-size="10.00">scram::core::Preprocessor</text>
<text text-anchor="middle" x="378.5" y="-549.5" font-family="Helvetica,sans-Serif" font-size="10.00">::MergeCommonArgs</text>
</a>
</g>
</g>
<!-- Node1&#45;&gt;Node23 -->
<g id="edge53" class="edge"><title>Node1&#45;&gt;Node23</title>
<path fill="none" stroke="midnightblue" d="M61.2983,-365.065C73.7933,-396.526 99.628,-450.658 139,-481.5 166.369,-502.939 252.691,-527.267 313.583,-542.498"/>
<polygon fill="midnightblue" stroke="midnightblue" points="64.5578,-363.789 57.71,-355.705 58.0217,-366.295 64.5578,-363.789"/>
</g>
<!-- Node24 -->
<g id="node24" class="node"><title>Node24</title>
<g id="a_node24"><a xlink:href="classscram_1_1core_1_1Preprocessor.xhtml#a3fa7788f0a789a43a8bd1bb7ee8a5e22" target="_top" xlink:title="Gathers all nodes in the PDAG. ">
<polygon fill="white" stroke="black" points="834,-88.5 834,-118.5 966,-118.5 966,-88.5 834,-88.5"/>
<text text-anchor="start" x="842" y="-106.5" font-family="Helvetica,sans-Serif" font-size="10.00">scram::core::Preprocessor</text>
<text text-anchor="middle" x="900" y="-95.5" font-family="Helvetica,sans-Serif" font-size="10.00">::GatherNodes</text>
</a>
</g>
</g>
<!-- Node1&#45;&gt;Node24 -->
<g id="edge46" class="edge"><title>Node1&#45;&gt;Node24</title>
<path fill="none" stroke="midnightblue" d="M55.0631,-315.538C61.0574,-271.105 80.2724,-178.725 139,-133.5 223.783,-68.2093 270.49,-100.5 377.5,-100.5 377.5,-100.5 377.5,-100.5 553,-100.5 650.917,-100.5 764.415,-101.716 833.956,-102.6"/>
<polygon fill="midnightblue" stroke="midnightblue" points="51.5852,-315.145 53.8352,-325.498 58.5326,-316.001 51.5852,-315.145"/>
</g>
<!-- Node25 -->
<g id="node25" class="node"><title>Node25</title>
<g id="a_node25"><a xlink:href="classscram_1_1core_1_1Preprocessor.xhtml#a14baf96279cf2950cc71564ad199007d" target="_top" xlink:title="Marks coherence of the whole graph. ">
<polygon fill="white" stroke="black" points="834,-0.5 834,-30.5 966,-30.5 966,-0.5 834,-0.5"/>
<text text-anchor="start" x="842" y="-18.5" font-family="Helvetica,sans-Serif" font-size="10.00">scram::core::Preprocessor</text>
<text text-anchor="middle" x="900" y="-7.5" font-family="Helvetica,sans-Serif" font-size="10.00">::MarkCoherence</text>
</a>
</g>
</g>
<!-- Node1&#45;&gt;Node25 -->
<g id="edge49" class="edge"><title>Node1&#45;&gt;Node25</title>
<path fill="none" stroke="midnightblue" d="M53.8292,-315.269C57.8572,-264.978 74.0498,-151.745 139,-89.5 218.849,-12.9767 266.903,-18.5 377.5,-18.5 377.5,-18.5 377.5,-18.5 553,-18.5 650.917,-18.5 764.415,-17.2838 833.956,-16.4001"/>
<polygon fill="midnightblue" stroke="midnightblue" points="50.3355,-315.056 53.1245,-325.278 57.3183,-315.548 50.3355,-315.056"/>
</g>
<!-- Node27 -->
<g id="node27" class="node"><title>Node27</title>
<g id="a_node27"><a xlink:href="classscram_1_1core_1_1Preprocessor.xhtml#ac0abd7f5b54f98643644110b160569bd" target="_top" xlink:title="Detects and replaces multiple definitions of gates. ">
<polygon fill="white" stroke="black" points="309,-440.5 309,-470.5 448,-470.5 448,-440.5 309,-440.5"/>
<text text-anchor="start" x="317" y="-458.5" font-family="Helvetica,sans-Serif" font-size="10.00">scram::core::Preprocessor</text>
<text text-anchor="middle" x="378.5" y="-447.5" font-family="Helvetica,sans-Serif" font-size="10.00">::ProcessMultipleDefinitions</text>
</a>
</g>
</g>
<!-- Node1&#45;&gt;Node27 -->
<g id="edge55" class="edge"><title>Node1&#45;&gt;Node27</title>
<path fill="none" stroke="midnightblue" d="M73.5721,-363.063C89.8813,-379.113 113.864,-399.824 139,-411.5 192.842,-436.511 259.725,-447.319 308.95,-451.982"/>
<polygon fill="midnightblue" stroke="midnightblue" points="75.7306,-360.268 66.2107,-355.618 70.753,-365.19 75.7306,-360.268"/>
</g>
<!-- Node2&#45;&gt;Node3 -->
<g id="edge2" class="edge"><title>Node2&#45;&gt;Node3</title>
<path fill="none" stroke="midnightblue" d="M420.025,-163.877C450.433,-178.416 491.47,-198.037 519.454,-211.417"/>
<polygon fill="midnightblue" stroke="midnightblue" points="421.487,-160.696 410.956,-159.54 418.468,-167.011 421.487,-160.696"/>
</g>
<!-- Node6 -->
<g id="node6" class="node"><title>Node6</title>
<g id="a_node6"><a xlink:href="classscram_1_1core_1_1Preprocessor.xhtml#a9caf4677a024ed935d831210b57b8ed9" target="_top" xlink:title="Gathers nodes in the sub&#45;graph. ">
<polygon fill="white" stroke="black" points="1031.5,-69.5 1031.5,-99.5 1163.5,-99.5 1163.5,-69.5 1031.5,-69.5"/>
<text text-anchor="start" x="1039.5" y="-87.5" font-family="Helvetica,sans-Serif" font-size="10.00">scram::core::Preprocessor</text>
<text text-anchor="middle" x="1097.5" y="-76.5" font-family="Helvetica,sans-Serif" font-size="10.00">::GatherNodes</text>
</a>
</g>
</g>
<!-- Node2&#45;&gt;Node6 -->
<g id="edge14" class="edge"><title>Node2&#45;&gt;Node6</title>
<path fill="none" stroke="midnightblue" d="M454.623,-129.823C542.351,-113.494 692.035,-88.139 822,-78.5 891.143,-73.3719 908.689,-76.7464 978,-78.5 995.298,-78.9376 1014,-79.7341 1031.33,-80.6067"/>
<polygon fill="midnightblue" stroke="midnightblue" points="453.946,-126.389 444.761,-131.67 455.234,-133.27 453.946,-126.389"/>
</g>
<!-- Node7 -->
<g id="node7" class="node"><title>Node7</title>
<g id="a_node7"><a xlink:href="classscram_1_1core_1_1CustomPreprocessor_3_01Zbdd_01_4.xhtml#a5185075f852c647c7aa4313d23420ee5" target="_top" xlink:title="Performs preprocessing for analyses with Zero&#45;Suppressed Binary Decision Diagrams. ">
<polygon fill="white" stroke="black" points="1014,-154.5 1014,-184.5 1181,-184.5 1181,-154.5 1014,-154.5"/>
<text text-anchor="start" x="1022" y="-172.5" font-family="Helvetica,sans-Serif" font-size="10.00">scram::core::CustomPreprocessor</text>
<text text-anchor="middle" x="1097.5" y="-161.5" font-family="Helvetica,sans-Serif" font-size="10.00">&lt; Zbdd &gt;::Run</text>
</a>
</g>
</g>
<!-- Node2&#45;&gt;Node7 -->
<g id="edge15" class="edge"><title>Node2&#45;&gt;Node7</title>
<path fill="none" stroke="midnightblue" d="M454.988,-147.132C590.394,-151.853 873.488,-161.724 1013.89,-166.62"/>
<polygon fill="midnightblue" stroke="midnightblue" points="454.827,-143.624 444.711,-146.774 454.583,-150.62 454.827,-143.624"/>
</g>
<!-- Node4 -->
<g id="node4" class="node"><title>Node4</title>
<g id="a_node4"><a xlink:href="classscram_1_1core_1_1Preprocessor.xhtml#a44f820b6fe2c23594c818432b33e26a6" target="_top" xlink:title="The initial phase of preprocessing. ">
<polygon fill="white" stroke="black" points="654,-211.5 654,-241.5 786,-241.5 786,-211.5 654,-211.5"/>
<text text-anchor="start" x="662" y="-229.5" font-family="Helvetica,sans-Serif" font-size="10.00">scram::core::Preprocessor</text>
<text text-anchor="middle" x="720" y="-218.5" font-family="Helvetica,sans-Serif" font-size="10.00">::RunPhaseOne</text>
</a>
</g>
</g>
<!-- Node3&#45;&gt;Node4 -->
<g id="edge3" class="edge"><title>Node3&#45;&gt;Node4</title>
<path fill="none" stroke="midnightblue" d="M628.393,-226.5C636.869,-226.5 645.452,-226.5 653.784,-226.5"/>
<polygon fill="midnightblue" stroke="midnightblue" points="628.131,-223 618.131,-226.5 628.131,-230 628.131,-223"/>
</g>
<!-- Node8 -->
<g id="node8" class="node"><title>Node8</title>
<g id="a_node8"><a xlink:href="classscram_1_1core_1_1Preprocessor.xhtml#a5ee92284aef510ce01a71c962d50f51c" target="_top" xlink:title="Runs the graph preprocessing. ">
<polygon fill="white" stroke="black" points="1031.5,-419.5 1031.5,-449.5 1163.5,-449.5 1163.5,-419.5 1031.5,-419.5"/>
<text text-anchor="start" x="1039.5" y="-437.5" font-family="Helvetica,sans-Serif" font-size="10.00">scram::core::Preprocessor</text>
<text text-anchor="middle" x="1097.5" y="-426.5" font-family="Helvetica,sans-Serif" font-size="10.00">::operator()</text>
</a>
</g>
</g>
<!-- Node3&#45;&gt;Node8 -->
<g id="edge13" class="edge"><title>Node3&#45;&gt;Node8</title>
<path fill="none" stroke="midnightblue" d="M613.746,-244.514C697.162,-269.924 851.252,-319.284 978,-373.5 1010.34,-387.332 1046.05,-406.243 1069.73,-419.326"/>
<polygon fill="midnightblue" stroke="midnightblue" points="614.515,-241.09 603.93,-241.535 612.483,-247.789 614.515,-241.09"/>
</g>
<!-- Node10 -->
<g id="node10" class="node"><title>Node10</title>
<g id="a_node10"><a xlink:href="classscram_1_1core_1_1Preprocessor.xhtml#abf2c66723172a85b2ae87ef2a034cd1f" target="_top" xlink:title="Application of gate normalization. ">
<polygon fill="white" stroke="black" points="654,-337.5 654,-367.5 786,-367.5 786,-337.5 654,-337.5"/>
<text text-anchor="start" x="662" y="-355.5" font-family="Helvetica,sans-Serif" font-size="10.00">scram::core::Preprocessor</text>
<text text-anchor="middle" x="720" y="-344.5" font-family="Helvetica,sans-Serif" font-size="10.00">::RunPhaseThree</text>
</a>
</g>
</g>
<!-- Node3&#45;&gt;Node10 -->
<g id="edge10" class="edge"><title>Node3&#45;&gt;Node10</title>
<path fill="none" stroke="midnightblue" d="M581.047,-247.789C614.561,-273.227 669.781,-315.141 699.164,-337.444"/>
<polygon fill="midnightblue" stroke="midnightblue" points="583.105,-244.957 573.023,-241.699 578.873,-250.532 583.105,-244.957"/>
</g>
<!-- Node5 -->
<g id="node5" class="node"><title>Node5</title>
<g id="a_node5"><a xlink:href="classscram_1_1core_1_1Preprocessor.xhtml#a2b6705e815fa3d02119c405b483766d5" target="_top" xlink:title="Container of unique gates by semantics. ">
<polygon fill="white" stroke="black" points="822,-176 822,-195 978,-195 978,-176 822,-176"/>
<text text-anchor="middle" x="900" y="-183" font-family="Helvetica,sans-Serif" font-size="10.00">scram::core::Preprocessor::Run</text>
</a>
</g>
</g>
<!-- Node4&#45;&gt;Node5 -->
<g id="edge4" class="edge"><title>Node4&#45;&gt;Node5</title>
<path fill="none" stroke="midnightblue" d="M795.955,-209.235C817.084,-204.368 839.296,-199.252 857.665,-195.021"/>
<polygon fill="midnightblue" stroke="midnightblue" points="794.977,-205.869 786.018,-211.524 796.548,-212.69 794.977,-205.869"/>
</g>
<!-- Node4&#45;&gt;Node8 -->
<g id="edge9" class="edge"><title>Node4&#45;&gt;Node8</title>
<path fill="none" stroke="midnightblue" d="M777.228,-244.917C830.898,-263.728 912.985,-295.768 978,-335.5 1018.72,-360.383 1060.1,-398.525 1081.54,-419.459"/>
<polygon fill="midnightblue" stroke="midnightblue" points="778.142,-241.529 767.547,-241.559 775.848,-248.143 778.142,-241.529"/>
</g>
<!-- Node5&#45;&gt;Node6 -->
<g id="edge5" class="edge"><title>Node5&#45;&gt;Node6</title>
<path fill="none" stroke="midnightblue" d="M928.515,-171.285C965.186,-152.34 1029.8,-118.957 1067.31,-99.5823"/>
<polygon fill="midnightblue" stroke="midnightblue" points="926.67,-168.299 919.392,-175.998 929.883,-174.518 926.67,-168.299"/>
</g>
<!-- Node5&#45;&gt;Node7 -->
<g id="edge6" class="edge"><title>Node5&#45;&gt;Node7</title>
<path fill="none" stroke="midnightblue" d="M988.44,-178.344C996.836,-177.657 1005.33,-176.961 1013.68,-176.278"/>
<polygon fill="midnightblue" stroke="midnightblue" points="987.948,-174.872 978.267,-179.176 988.519,-181.849 987.948,-174.872"/>
</g>
<!-- Node5&#45;&gt;Node8 -->
<g id="edge7" class="edge"><title>Node5&#45;&gt;Node8</title>
<path fill="none" stroke="midnightblue" d="M970.76,-199.587C973.294,-201.067 975.721,-202.7 978,-204.5 1051.32,-262.408 1083.72,-378.052 1093.3,-419.382"/>
<polygon fill="midnightblue" stroke="midnightblue" points="972.301,-196.444 961.789,-195.119 969.18,-202.71 972.301,-196.444"/>
</g>
<!-- Node9 -->
<g id="node9" class="node"><title>Node9</title>
<g id="a_node9"><a xlink:href="classscram_1_1core_1_1Preprocessor_1_1GateSet.xhtml#ae00239084858979e096032c4cf2f05b9" target="_top" xlink:title="Inserts a gate into the set if it is semantically unique. ">
<polygon fill="white" stroke="black" points="1217,-419.5 1217,-449.5 1349,-449.5 1349,-419.5 1217,-419.5"/>
<text text-anchor="start" x="1225" y="-437.5" font-family="Helvetica,sans-Serif" font-size="10.00">scram::core::Preprocessor</text>
<text text-anchor="middle" x="1283" y="-426.5" font-family="Helvetica,sans-Serif" font-size="10.00">::GateSet::insert</text>
</a>
</g>
</g>
<!-- Node8&#45;&gt;Node9 -->
<g id="edge8" class="edge"><title>Node8&#45;&gt;Node9</title>
<path fill="none" stroke="midnightblue" d="M1173.99,-434.5C1188.26,-434.5 1203.08,-434.5 1217,-434.5"/>
<polygon fill="midnightblue" stroke="midnightblue" points="1173.71,-431 1163.71,-434.5 1173.71,-438 1173.71,-431"/>
</g>
<!-- Node10&#45;&gt;Node5 -->
<g id="edge11" class="edge"><title>Node10&#45;&gt;Node5</title>
<path fill="none" stroke="midnightblue" d="M775.192,-332.161C779.167,-329.322 782.847,-326.115 786,-322.5 822.041,-281.179 782.193,-242.207 822,-204.5 825.999,-200.712 830.627,-197.645 835.592,-195.164"/>
<polygon fill="midnightblue" stroke="midnightblue" points="773.306,-329.213 766.689,-337.487 777.021,-335.145 773.306,-329.213"/>
</g>
<!-- Node10&#45;&gt;Node8 -->
<g id="edge12" class="edge"><title>Node10&#45;&gt;Node8</title>
<path fill="none" stroke="midnightblue" d="M796.317,-368.947C865.104,-383.969 965.767,-405.951 1031.21,-420.243"/>
<polygon fill="midnightblue" stroke="midnightblue" points="796.924,-365.497 786.407,-366.783 795.43,-372.336 796.924,-365.497"/>
</g>
<!-- Node12 -->
<g id="node12" class="node"><title>Node12</title>
<g id="a_node12"><a xlink:href="classscram_1_1core_1_1Preprocessor.xhtml#a9d5f89471499508eb9e6c01ea43e0f15" target="_top" xlink:title="Preprocessing phase of the original structure of the graph. ">
<polygon fill="white" stroke="black" points="486,-378.5 486,-408.5 618,-408.5 618,-378.5 486,-378.5"/>
<text text-anchor="start" x="494" y="-396.5" font-family="Helvetica,sans-Serif" font-size="10.00">scram::core::Preprocessor</text>
<text text-anchor="middle" x="552" y="-385.5" font-family="Helvetica,sans-Serif" font-size="10.00">::RunPhaseTwo</text>
</a>
</g>
</g>
<!-- Node11&#45;&gt;Node12 -->
<g id="edge17" class="edge"><title>Node11&#45;&gt;Node12</title>
<path fill="none" stroke="midnightblue" d="M455.018,-400.776C465.299,-399.996 475.779,-399.202 485.856,-398.438"/>
<polygon fill="midnightblue" stroke="midnightblue" points="454.533,-397.302 444.826,-401.548 455.062,-404.282 454.533,-397.302"/>
</g>
<!-- Node12&#45;&gt;Node5 -->
<g id="edge18" class="edge"><title>Node12&#45;&gt;Node5</title>
<path fill="none" stroke="midnightblue" d="M583.617,-372.914C603.509,-359.683 630.095,-342.27 654,-327.5 711.78,-291.801 734.823,-295.152 786,-250.5 805.562,-233.432 800.204,-218.604 822,-204.5 828.011,-200.61 834.757,-197.517 841.692,-195.056"/>
<polygon fill="midnightblue" stroke="midnightblue" points="581.632,-370.031 575.255,-378.491 585.517,-375.854 581.632,-370.031"/>
</g>
<!-- Node12&#45;&gt;Node8 -->
<g id="edge26" class="edge"><title>Node12&#45;&gt;Node8</title>
<path fill="none" stroke="midnightblue" d="M628.258,-403.732C636.929,-404.749 645.652,-405.699 654,-406.5 787.711,-419.322 944.737,-427.674 1031.17,-431.692"/>
<polygon fill="midnightblue" stroke="midnightblue" points="628.474,-400.233 618.128,-402.513 627.638,-407.183 628.474,-400.233"/>
</g>
<!-- Node12&#45;&gt;Node10 -->
<g id="edge19" class="edge"><title>Node12&#45;&gt;Node10</title>
<path fill="none" stroke="midnightblue" d="M623.807,-376.012C635.233,-373.19 646.973,-370.29 658.138,-367.532"/>
<polygon fill="midnightblue" stroke="midnightblue" points="622.739,-372.67 613.87,-378.466 624.417,-379.466 622.739,-372.67"/>
</g>
<!-- Node12&#45;&gt;Node13 -->
<g id="edge20" class="edge"><title>Node12&#45;&gt;Node13</title>
<path fill="none" stroke="midnightblue" d="M628.419,-406.538C677.515,-410.851 740.624,-408.081 786,-376.5 817.67,-354.459 799.035,-328.507 822,-297.5 837.604,-276.432 860.677,-257.138 877.496,-244.527"/>
<polygon fill="midnightblue" stroke="midnightblue" points="628.464,-403.025 618.167,-405.518 627.771,-409.991 628.464,-403.025"/>
</g>
<!-- Node14 -->
<g id="node14" class="node"><title>Node14</title>
<g id="a_node14"><a xlink:href="classscram_1_1core_1_1Preprocessor.xhtml#a3569bbcd5e863c750cdfa69115399600" target="_top" xlink:title="The final phase that cleans up the graph, and puts the structure of the graph ready for analysis...">
<polygon fill="white" stroke="black" points="654,-463.5 654,-493.5 786,-493.5 786,-463.5 654,-463.5"/>
<text text-anchor="start" x="662" y="-481.5" font-family="Helvetica,sans-Serif" font-size="10.00">scram::core::Preprocessor</text>
<text text-anchor="middle" x="720" y="-470.5" font-family="Helvetica,sans-Serif" font-size="10.00">::RunPhaseFive</text>
</a>
</g>
</g>
<!-- Node12&#45;&gt;Node14 -->
<g id="edge23" class="edge"><title>Node12&#45;&gt;Node14</title>
<path fill="none" stroke="midnightblue" d="M597.883,-412.963C604.723,-416.287 611.622,-419.851 618,-423.5 634.908,-433.174 637.092,-438.826 654,-448.5 663.277,-453.808 673.657,-458.936 683.351,-463.405"/>
<polygon fill="midnightblue" stroke="midnightblue" points="599.185,-409.707 588.649,-408.595 596.192,-416.035 599.185,-409.707"/>
</g>
<!-- Node13&#45;&gt;Node7 -->
<g id="edge21" class="edge"><title>Node13&#45;&gt;Node7</title>
<path fill="none" stroke="midnightblue" d="M959.743,-211.471C987.716,-202.886 1020.79,-192.737 1047.4,-184.569"/>
<polygon fill="midnightblue" stroke="midnightblue" points="958.614,-208.157 950.081,-214.437 960.667,-214.849 958.614,-208.157"/>
</g>
<!-- Node13&#45;&gt;Node8 -->
<g id="edge22" class="edge"><title>Node13&#45;&gt;Node8</title>
<path fill="none" stroke="midnightblue" d="M961.819,-249.051C967.561,-252.097 973.069,-255.565 978,-259.5 1035.21,-305.16 1075.22,-385.933 1090.09,-419.362"/>
<polygon fill="midnightblue" stroke="midnightblue" points="963.178,-245.82 952.653,-244.607 960.124,-252.119 963.178,-245.82"/>
</g>
<!-- Node14&#45;&gt;Node7 -->
<g id="edge24" class="edge"><title>Node14&#45;&gt;Node7</title>
<path fill="none" stroke="midnightblue" d="M747.495,-456.697C819.408,-397.52 1016.96,-234.957 1078.17,-184.584"/>
<polygon fill="midnightblue" stroke="midnightblue" points="744.863,-454.33 739.365,-463.387 749.311,-459.735 744.863,-454.33"/>
</g>
<!-- Node14&#45;&gt;Node8 -->
<g id="edge25" class="edge"><title>Node14&#45;&gt;Node8</title>
<path fill="none" stroke="midnightblue" d="M796.225,-469.747C847.462,-463.778 916.829,-455.684 978,-448.5 995.283,-446.47 1013.98,-444.265 1031.31,-442.219"/>
<polygon fill="midnightblue" stroke="midnightblue" points="795.755,-466.278 786.228,-470.911 796.565,-473.231 795.755,-466.278"/>
</g>
<!-- Node15&#45;&gt;Node8 -->
<g id="edge31" class="edge"><title>Node15&#45;&gt;Node8</title>
<path fill="none" stroke="midnightblue" d="M425.699,-523.23C448.647,-532.163 473.987,-541.37 486,-543.5 621.672,-567.56 963.569,-507.237 978,-502.5 1015.18,-490.294 1053.66,-465.573 1076.32,-449.541"/>
<polygon fill="midnightblue" stroke="midnightblue" points="426.978,-519.972 416.391,-519.572 424.418,-526.487 426.978,-519.972"/>
</g>
<!-- Node15&#45;&gt;Node12 -->
<g id="edge28" class="edge"><title>Node15&#45;&gt;Node12</title>
<path fill="none" stroke="midnightblue" d="M442.746,-484.575C445.278,-483.004 447.71,-481.315 450,-479.5 473.19,-461.123 463.676,-442.919 486,-423.5 492.752,-417.627 500.847,-412.684 508.996,-408.613"/>
<polygon fill="midnightblue" stroke="midnightblue" points="440.901,-481.595 433.818,-489.474 444.269,-487.732 440.901,-481.595"/>
</g>
<!-- Node15&#45;&gt;Node14 -->
<g id="edge29" class="edge"><title>Node15&#45;&gt;Node14</title>
<path fill="none" stroke="midnightblue" d="M454.571,-497.213C465.121,-496.259 475.83,-495.326 486,-494.5 542.579,-489.902 606.958,-485.548 653.685,-482.546"/>
<polygon fill="midnightblue" stroke="midnightblue" points="454.167,-493.736 444.528,-498.133 454.805,-500.707 454.167,-493.736"/>
</g>
<!-- Node16 -->
<g id="node16" class="node"><title>Node16</title>
<g id="a_node16"><a xlink:href="classscram_1_1core_1_1Preprocessor.xhtml#a3a0500bd52152df42fca486c97043140" target="_top" xlink:title="Coalesces positive argument gates with the same OR or AND logic as parents. ">
<polygon fill="white" stroke="black" points="486,-504.5 486,-534.5 618,-534.5 618,-504.5 486,-504.5"/>
<text text-anchor="start" x="494" y="-522.5" font-family="Helvetica,sans-Serif" font-size="10.00">scram::core::Preprocessor</text>
<text text-anchor="middle" x="552" y="-511.5" font-family="Helvetica,sans-Serif" font-size="10.00">::CoalesceGates</text>
</a>
</g>
</g>
<!-- Node15&#45;&gt;Node16 -->
<g id="edge30" class="edge"><title>Node15&#45;&gt;Node16</title>
<path fill="none" stroke="midnightblue" d="M455.018,-511.105C465.299,-512.004 475.779,-512.921 485.856,-513.802"/>
<polygon fill="midnightblue" stroke="midnightblue" points="455.093,-507.598 444.826,-510.214 454.483,-514.572 455.093,-507.598"/>
</g>
<!-- Node17&#45;&gt;Node12 -->
<g id="edge33" class="edge"><title>Node17&#45;&gt;Node12</title>
<path fill="none" stroke="midnightblue" d="M460.283,-374.457C468.877,-376.261 477.538,-378.079 485.919,-379.839"/>
<polygon fill="midnightblue" stroke="midnightblue" points="460.752,-370.98 450.246,-372.35 459.313,-377.83 460.752,-370.98"/>
</g>
<!-- Node18&#45;&gt;Node12 -->
<g id="edge35" class="edge"><title>Node18&#45;&gt;Node12</title>
<path fill="none" stroke="midnightblue" d="M281.167,-262.732C331.27,-258.297 397.34,-259.193 450,-283.5 494.019,-303.819 527.621,-353.147 542.537,-378.262"/>
<polygon fill="midnightblue" stroke="midnightblue" points="280.662,-259.264 271.049,-263.718 281.341,-266.231 280.662,-259.264"/>
</g>
<!-- Node19 -->
<g id="node19" class="node"><title>Node19</title>
<g id="a_node19"><a xlink:href="classscram_1_1core_1_1Preprocessor.xhtml#a79fe8e90f0e8fbc20a76610aaf09fe6e" target="_top" xlink:title="Detects and manipulates AND and OR gate distributivity. ">
<polygon fill="white" stroke="black" points="312.5,-293.5 312.5,-323.5 444.5,-323.5 444.5,-293.5 312.5,-293.5"/>
<text text-anchor="start" x="320.5" y="-311.5" font-family="Helvetica,sans-Serif" font-size="10.00">scram::core::Preprocessor</text>
<text text-anchor="middle" x="378.5" y="-300.5" font-family="Helvetica,sans-Serif" font-size="10.00">::DetectDistributivity</text>
</a>
</g>
</g>
<!-- Node18&#45;&gt;Node19 -->
<g id="edge36" class="edge"><title>Node18&#45;&gt;Node19</title>
<path fill="none" stroke="midnightblue" d="M281.197,-289.408C291.581,-291.466 302.174,-293.567 312.356,-295.585"/>
<polygon fill="midnightblue" stroke="midnightblue" points="281.816,-285.962 271.326,-287.451 280.454,-292.829 281.816,-285.962"/>
</g>
<!-- Node20&#45;&gt;Node8 -->
<g id="edge39" class="edge"><title>Node20&#45;&gt;Node8</title>
<path fill="none" stroke="midnightblue" d="M454.754,-662.175C574.434,-684.45 811.594,-710.912 978,-615.5 1044.14,-577.575 1079.9,-485.984 1091.87,-449.685"/>
<polygon fill="midnightblue" stroke="midnightblue" points="455.072,-658.672 444.594,-660.241 453.763,-665.549 455.072,-658.672"/>
</g>
<!-- Node20&#45;&gt;Node12 -->
<g id="edge38" class="edge"><title>Node20&#45;&gt;Node12</title>
<path fill="none" stroke="midnightblue" d="M408.549,-624.109C422.508,-612.686 438.631,-597.663 450,-581.5 474.076,-547.273 466.599,-531.577 486,-494.5 502.628,-462.722 526.254,-428.053 539.969,-408.722"/>
<polygon fill="midnightblue" stroke="midnightblue" points="406.283,-621.439 400.632,-630.401 410.639,-626.919 406.283,-621.439"/>
</g>
<!-- Node21&#45;&gt;Node11 -->
<g id="edge41" class="edge"><title>Node21&#45;&gt;Node11</title>
<path fill="none" stroke="midnightblue" d="M274.577,-380.094C289.268,-383.863 304.66,-387.812 318.932,-391.474"/>
<polygon fill="midnightblue" stroke="midnightblue" points="275.097,-376.614 264.541,-377.519 273.357,-383.395 275.097,-376.614"/>
</g>
<!-- Node21&#45;&gt;Node17 -->
<g id="edge42" class="edge"><title>Node21&#45;&gt;Node17</title>
<path fill="none" stroke="midnightblue" d="M281.534,-360.298C289.976,-360.052 298.551,-359.802 306.927,-359.558"/>
<polygon fill="midnightblue" stroke="midnightblue" points="281.22,-356.805 271.326,-360.595 281.424,-363.802 281.22,-356.805"/>
</g>
<!-- Node22&#45;&gt;Node8 -->
<g id="edge45" class="edge"><title>Node22&#45;&gt;Node8</title>
<path fill="none" stroke="midnightblue" d="M281.215,-577.883C289.894,-579.213 298.63,-580.454 307,-581.5 414.969,-594.987 442.192,-601.5 551,-601.5 551,-601.5 551,-601.5 721,-601.5 839.62,-601.5 872.483,-583.693 978,-529.5 1019.75,-508.057 1060.73,-470.505 1081.83,-449.612"/>
<polygon fill="midnightblue" stroke="midnightblue" points="281.5,-574.385 271.078,-576.289 280.413,-581.3 281.5,-574.385"/>
</g>
<!-- Node22&#45;&gt;Node23 -->
<g id="edge44" class="edge"><title>Node22&#45;&gt;Node23</title>
<path fill="none" stroke="midnightblue" d="M281.518,-561.418C291.799,-560.998 302.279,-560.57 312.356,-560.159"/>
<polygon fill="midnightblue" stroke="midnightblue" points="281.175,-557.929 271.326,-561.834 281.46,-564.923 281.175,-557.929"/>
</g>
<!-- Node24&#45;&gt;Node6 -->
<g id="edge47" class="edge"><title>Node24&#45;&gt;Node6</title>
<path fill="none" stroke="midnightblue" d="M976.088,-96.2024C994.307,-94.4318 1013.64,-92.5532 1031.35,-90.8315"/>
<polygon fill="midnightblue" stroke="midnightblue" points="975.713,-92.7223 966.099,-97.1733 976.39,-99.6895 975.713,-92.7223"/>
</g>
<!-- Node24&#45;&gt;Node7 -->
<g id="edge48" class="edge"><title>Node24&#45;&gt;Node7</title>
<path fill="none" stroke="midnightblue" d="M955.451,-121.882C985.835,-132.14 1023.21,-144.759 1051.86,-154.429"/>
<polygon fill="midnightblue" stroke="midnightblue" points="956.446,-118.524 945.852,-118.642 954.207,-125.157 956.446,-118.524"/>
</g>
<!-- Node25&#45;&gt;Node6 -->
<g id="edge51" class="edge"><title>Node25&#45;&gt;Node6</title>
<path fill="none" stroke="midnightblue" d="M953.368,-33.9829C984.761,-45.0626 1024.18,-58.975 1053.7,-69.393"/>
<polygon fill="midnightblue" stroke="midnightblue" points="954.498,-30.6701 943.903,-30.6423 952.168,-37.2711 954.498,-30.6701"/>
</g>
<!-- Node25&#45;&gt;Node7 -->
<g id="edge52" class="edge"><title>Node25&#45;&gt;Node7</title>
<path fill="none" stroke="midnightblue" d="M927.519,-37.0996C942.388,-49.2339 961.256,-64.674 978,-78.5 994.06,-91.7611 997.62,-95.6367 1014,-108.5 1034.45,-124.562 1058.41,-142.144 1075.22,-154.288"/>
<polygon fill="midnightblue" stroke="midnightblue" points="929.671,-34.3381 919.71,-30.7296 925.247,-39.7625 929.671,-34.3381"/>
</g>
<!-- Node26 -->
<g id="node26" class="node"><title>Node26</title>
<g id="a_node26"><a xlink:href="classscram_1_1core_1_1Preprocessor.xhtml#aeb861bbe289f7dc9fff6bd8f9b539f15" target="_top" xlink:title="Marks gates with coherence flags. ">
<polygon fill="white" stroke="black" points="1031.5,-0.5 1031.5,-30.5 1163.5,-30.5 1163.5,-0.5 1031.5,-0.5"/>
<text text-anchor="start" x="1039.5" y="-18.5" font-family="Helvetica,sans-Serif" font-size="10.00">scram::core::Preprocessor</text>
<text text-anchor="middle" x="1097.5" y="-7.5" font-family="Helvetica,sans-Serif" font-size="10.00">::MarkCoherence</text>
</a>
</g>
</g>
<!-- Node25&#45;&gt;Node26 -->
<g id="edge50" class="edge"><title>Node25&#45;&gt;Node26</title>
<path fill="none" stroke="midnightblue" d="M976.341,-15.5C994.486,-15.5 1013.72,-15.5 1031.35,-15.5"/>
<polygon fill="midnightblue" stroke="midnightblue" points="976.099,-12.0001 966.099,-15.5 976.099,-19.0001 976.099,-12.0001"/>
</g>
<!-- Node27&#45;&gt;Node8 -->
<g id="edge57" class="edge"><title>Node27&#45;&gt;Node8</title>
<path fill="none" stroke="midnightblue" d="M458.079,-467.204C504.679,-474.43 564.841,-484.256 618,-494.5 634.094,-497.602 637.708,-500.712 654,-502.5 797.794,-518.285 837.197,-504.67 978,-471.5 1003.38,-465.52 1031.25,-456.927 1053.57,-449.527"/>
<polygon fill="midnightblue" stroke="midnightblue" points="458.465,-463.722 448.048,-465.656 457.397,-470.641 458.465,-463.722"/>
</g>
<!-- Node27&#45;&gt;Node12 -->
<g id="edge56" class="edge"><title>Node27&#45;&gt;Node12</title>
<path fill="none" stroke="midnightblue" d="M431.916,-436.981C438.016,-434.805 444.147,-432.61 450,-430.5 469.852,-423.344 491.857,-415.297 510.246,-408.539"/>
<polygon fill="midnightblue" stroke="midnightblue" points="430.647,-433.717 422.4,-440.367 432.994,-440.312 430.647,-433.717"/>
</g>
</g>
</svg>
