<?xml version="1.0" encoding="UTF-8" standalone="no"?>
<!DOCTYPE svg PUBLIC "-//W3C//DTD SVG 1.1//EN"
 "http://www.w3.org/Graphics/SVG/1.1/DTD/svg11.dtd">
<!-- Generated by graphviz version 2.38.0 (20140413.2041)
 -->
<!-- Title: scram::core::SetNode::minimal Pages: 1 -->
<!--zoomable 428 -->
<svg id="main" version="1.1" xmlns="http://www.w3.org/2000/svg" xmlns:xlink="http://www.w3.org/1999/xlink" xml:space="preserve" onload="init(evt)">
<style type="text/css"><![CDATA[
.edge:hover path { stroke: red; }
.edge:hover polygon { stroke: red; fill: red; }
]]></style>
<script type="text/javascript"><![CDATA[
var edges = document.getElementsByTagName('g');
if (edges && edges.length) {
  for (var i=0;i<edges.length;i++) {
    if (edges[i].id.substr(0,4)=='edge') {
      edges[i].setAttribute('class','edge');
    }
  }
}
]]></script>
        <defs>
                <circle id="rim" cx="0" cy="0" r="7"/>
                <circle id="rim2" cx="0" cy="0" r="3.5"/>
                <g id="zoomPlus">
                        <use xlink:href="#rim" fill="#404040">
                                <set attributeName="fill" to="#808080" begin="zoomplus.mouseover" end="zoomplus.mouseout"/>
                        </use>
                        <path d="M-4,0h8M0,-4v8" fill="none" stroke="white" stroke-width="1.5" pointer-events="none"/>
                </g>
                <g id="zoomMin">
                        <use xlink:href="#rim" fill="#404040">
                                <set attributeName="fill" to="#808080" begin="zoomminus.mouseover" end="zoomminus.mouseout"/>
                        </use>
                        <path d="M-4,0h8" fill="none" stroke="white" stroke-width="1.5" pointer-events="none"/>
                </g>
                <g id="dirArrow">
                        <path fill="none" stroke="white" stroke-width="1.5" d="M0,-3.0v7 M-2.5,-0.5L0,-3.0L2.5,-0.5"/>
                </g>
               <g id="resetDef">
                       <use xlink:href="#rim2" fill="#404040">
                               <set attributeName="fill" to="#808080" begin="reset.mouseover" end="reset.mouseout"/>
                       </use>
               </g>
        </defs>

<script type="text/javascript">
var viewWidth = 646;
var viewHeight = 428;
var sectionId = 'dynsection-1';
</script>
<script xlink:href="svgpan.js"/>
<svg id="graph" class="graph">
<g id="viewport">
<title>scram::core::SetNode::minimal</title>
<polygon fill="white" stroke="none" points="-4,4 -4,-423.507 642,-423.507 642,4 -4,4"/>
<!-- Node1 -->
<g id="node1" class="node"><title>Node1</title>
<polygon fill="#bfbfbf" stroke="black" points="0,-109.007 0,-139.007 113,-139.007 113,-109.007 0,-109.007"/>
<text text-anchor="start" x="8" y="-127.007" font-family="Helvetica,sans-Serif" font-size="10.00">scram::core::SetNode</text>
<text text-anchor="middle" x="56.5" y="-116.007" font-family="Helvetica,sans-Serif" font-size="10.00">::minimal</text>
</g>
<!-- Node2 -->
<g id="node2" class="node"><title>Node2</title>
<g id="a_node2"><a xlink:href="classscram_1_1core_1_1Zbdd.xhtml#a77945d28bd832d2735969d0b0a451c78" target="_top" xlink:title="Runs the analysis with the representation of a PDAG as ZBDD. ">
<polygon fill="white" stroke="black" points="316.5,-387.007 316.5,-417.007 418.5,-417.007 418.5,-387.007 316.5,-387.007"/>
<text text-anchor="start" x="324.5" y="-405.007" font-family="Helvetica,sans-Serif" font-size="10.00">scram::core::Zbdd::</text>
<text text-anchor="middle" x="367.5" y="-394.007" font-family="Helvetica,sans-Serif" font-size="10.00">Analyze</text>
</a>
</g>
</g>
<!-- Node1&#45;&gt;Node2 -->
<g id="edge1" class="edge"><title>Node1&#45;&gt;Node2</title>
<path fill="none" stroke="midnightblue" d="M68.1227,-148.673C82.9167,-181.103 112.111,-238.678 149,-279.007 199.947,-334.704 219.287,-344.649 287,-378.007 296.182,-382.531 306.387,-386.391 316.339,-389.608"/>
<polygon fill="midnightblue" stroke="midnightblue" points="71.2806,-147.161 64.0012,-139.463 64.8912,-150.02 71.2806,-147.161"/>
</g>
<!-- Node4 -->
<g id="node4" class="node"><title>Node4</title>
<g id="a_node4"><a xlink:href="classscram_1_1core_1_1Zbdd.xhtml#a516f0d2f35ad213399f83fb9ab102561" target="_top" xlink:title="Traverses ZBDD to find modules and adjusted cut&#45;offs. ">
<polygon fill="white" stroke="black" points="149,-16.007 149,-46.007 251,-46.007 251,-16.007 149,-16.007"/>
<text text-anchor="start" x="157" y="-34.007" font-family="Helvetica,sans-Serif" font-size="10.00">scram::core::Zbdd::</text>
<text text-anchor="middle" x="200" y="-23.007" font-family="Helvetica,sans-Serif" font-size="10.00">GatherModules</text>
</a>
</g>
</g>
<!-- Node1&#45;&gt;Node4 -->
<g id="edge3" class="edge"><title>Node1&#45;&gt;Node4</title>
<path fill="none" stroke="midnightblue" d="M83.4802,-102.214C101.278,-87.8462 125.778,-69.1429 149,-55.007 154.099,-51.9028 159.661,-48.8945 165.163,-46.1177"/>
<polygon fill="midnightblue" stroke="midnightblue" points="80.8486,-99.8441 75.3164,-108.88 85.2759,-105.266 80.8486,-99.8441"/>
</g>
<!-- Node5 -->
<g id="node5" class="node"><title>Node5</title>
<g id="a_node5"><a xlink:href="classscram_1_1core_1_1Zbdd.xhtml#af92e04ed908364e0177ce444d7b72712" target="_top" xlink:title="The common constructor to initialize member variables. ">
<polygon fill="white" stroke="black" points="499,-130.507 499,-149.507 623,-149.507 623,-130.507 499,-130.507"/>
<text text-anchor="middle" x="561" y="-137.507" font-family="Helvetica,sans-Serif" font-size="10.00">scram::core::Zbdd::Zbdd</text>
</a>
</g>
</g>
<!-- Node1&#45;&gt;Node5 -->
<g id="edge20" class="edge"><title>Node1&#45;&gt;Node5</title>
<path fill="none" stroke="midnightblue" d="M123.264,-126.101C221.169,-129.218 403.892,-135.036 498.974,-138.064"/>
<polygon fill="midnightblue" stroke="midnightblue" points="123.303,-122.6 113.196,-125.78 123.08,-129.597 123.303,-122.6"/>
</g>
<!-- Node7 -->
<g id="node7" class="node"><title>Node7</title>
<g id="a_node7"><a xlink:href="classscram_1_1core_1_1Zbdd.xhtml#a4ecbf60e6ac51e5260e8d8139c1b8599" target="_top" xlink:title="Joins a ZBDD representing a module gate. ">
<polygon fill="white" stroke="black" points="149,-65.007 149,-95.007 251,-95.007 251,-65.007 149,-65.007"/>
<text text-anchor="start" x="157" y="-83.007" font-family="Helvetica,sans-Serif" font-size="10.00">scram::core::Zbdd::</text>
<text text-anchor="middle" x="200" y="-72.007" font-family="Helvetica,sans-Serif" font-size="10.00">JoinModule</text>
</a>
</g>
</g>
<!-- Node1&#45;&gt;Node7 -->
<g id="edge6" class="edge"><title>Node1&#45;&gt;Node7</title>
<path fill="none" stroke="midnightblue" d="M115.428,-105.994C127.057,-102.378 139.165,-98.6129 150.437,-95.1079"/>
<polygon fill="midnightblue" stroke="midnightblue" points="114.31,-102.676 105.801,-108.988 116.389,-109.361 114.31,-102.676"/>
</g>
<!-- Node8 -->
<g id="node8" class="node"><title>Node8</title>
<g id="a_node8"><a xlink:href="classscram_1_1core_1_1Zbdd.xhtml#a3dbb8ef5da2882daf6c39e9724eae459" target="_top" xlink:title="Removes subsets in ZBDD. ">
<polygon fill="white" stroke="black" points="149,-240.007 149,-270.007 251,-270.007 251,-240.007 149,-240.007"/>
<text text-anchor="start" x="157" y="-258.007" font-family="Helvetica,sans-Serif" font-size="10.00">scram::core::Zbdd::</text>
<text text-anchor="middle" x="200" y="-247.007" font-family="Helvetica,sans-Serif" font-size="10.00">Minimize</text>
</a>
</g>
</g>
<!-- Node1&#45;&gt;Node8 -->
<g id="edge9" class="edge"><title>Node1&#45;&gt;Node8</title>
<path fill="none" stroke="midnightblue" d="M81.2991,-146.04C110.019,-172.629 157.556,-216.638 182.522,-239.751"/>
<polygon fill="midnightblue" stroke="midnightblue" points="83.4477,-143.26 73.7318,-139.034 78.6922,-148.396 83.4477,-143.26"/>
</g>
<!-- Node3 -->
<g id="node3" class="node"><title>Node3</title>
<g id="a_node3"><a xlink:href="classscram_1_1core_1_1FaultTreeAnalyzer.xhtml#aedae0c884539dab245018194771f5021" target="_top" xlink:title="scram::core::FaultTreeAnalyzer\l::algorithm">
<polygon fill="white" stroke="black" points="484,-389.007 484,-419.007 638,-419.007 638,-389.007 484,-389.007"/>
<text text-anchor="start" x="492" y="-407.007" font-family="Helvetica,sans-Serif" font-size="10.00">scram::core::FaultTreeAnalyzer</text>
<text text-anchor="middle" x="561" y="-396.007" font-family="Helvetica,sans-Serif" font-size="10.00">::algorithm</text>
</a>
</g>
</g>
<!-- Node2&#45;&gt;Node3 -->
<g id="edge2" class="edge"><title>Node2&#45;&gt;Node3</title>
<path fill="none" stroke="midnightblue" d="M428.83,-402.637C446.233,-402.819 465.453,-403.02 483.691,-403.21"/>
<polygon fill="midnightblue" stroke="midnightblue" points="428.85,-399.137 418.814,-402.532 428.777,-406.137 428.85,-399.137"/>
</g>
<!-- Node4&#45;&gt;Node5 -->
<g id="edge4" class="edge"><title>Node4&#45;&gt;Node5</title>
<path fill="none" stroke="midnightblue" d="M258.03,-13.5107C309.864,-0.843346 387.287,9.82119 448,-17.007 502.154,-40.9367 541.397,-105.415 554.884,-130.156"/>
<polygon fill="midnightblue" stroke="midnightblue" points="257.168,-10.1186 248.339,-15.9754 258.893,-16.9027 257.168,-10.1186"/>
</g>
<!-- Node6 -->
<g id="node6" class="node"><title>Node6</title>
<g id="a_node6"><a xlink:href="classscram_1_1core_1_1zbdd_1_1CutSetContainer.xhtml#a478c89f64731781882b50ec55898900b" target="_top" xlink:title="Gathers all module indices in the cut sets. ">
<polygon fill="white" stroke="black" points="287,-27.007 287,-57.007 448,-57.007 448,-27.007 287,-27.007"/>
<text text-anchor="start" x="295" y="-45.007" font-family="Helvetica,sans-Serif" font-size="10.00">scram::core::zbdd::</text>
<text text-anchor="middle" x="367.5" y="-34.007" font-family="Helvetica,sans-Serif" font-size="10.00">CutSetContainer::GatherModules</text>
</a>
</g>
</g>
<!-- Node4&#45;&gt;Node6 -->
<g id="edge5" class="edge"><title>Node4&#45;&gt;Node6</title>
<path fill="none" stroke="midnightblue" d="M261.14,-35.0042C269.525,-35.5615 278.245,-36.1411 286.919,-36.7176"/>
<polygon fill="midnightblue" stroke="midnightblue" points="261.315,-31.5082 251.105,-34.3372 260.85,-38.4928 261.315,-31.5082"/>
</g>
<!-- Node7&#45;&gt;Node5 -->
<g id="edge7" class="edge"><title>Node7&#45;&gt;Node5</title>
<path fill="none" stroke="midnightblue" d="M261.514,-84.9587C311.748,-89.6418 384.916,-97.7902 448,-110.007 475.668,-115.365 506.57,-123.835 528.894,-130.411"/>
<polygon fill="midnightblue" stroke="midnightblue" points="261.746,-81.4654 251.469,-84.0399 261.109,-88.4363 261.746,-81.4654"/>
</g>
<!-- Node7&#45;&gt;Node6 -->
<g id="edge8" class="edge"><title>Node7&#45;&gt;Node6</title>
<path fill="none" stroke="midnightblue" d="M260.878,-66.2586C273.898,-63.269 287.738,-60.0912 300.965,-57.0543"/>
<polygon fill="midnightblue" stroke="midnightblue" points="260.068,-62.8534 251.105,-68.5026 261.634,-69.6759 260.068,-62.8534"/>
</g>
<!-- Node8&#45;&gt;Node2 -->
<g id="edge10" class="edge"><title>Node8&#45;&gt;Node2</title>
<path fill="none" stroke="midnightblue" d="M215.024,-278.794C234.178,-310.567 268.274,-364.443 287,-378.007 295.64,-384.266 305.928,-388.911 316.189,-392.354"/>
<polygon fill="midnightblue" stroke="midnightblue" points="217.955,-276.876 209.817,-270.091 211.947,-280.47 217.955,-276.876"/>
</g>
<!-- Node8&#45;&gt;Node5 -->
<g id="edge11" class="edge"><title>Node8&#45;&gt;Node5</title>
<path fill="none" stroke="midnightblue" d="M220.327,-232.591C236.378,-215.544 260.759,-193.036 287,-181.007 355.075,-149.802 441.751,-141.416 498.962,-139.618"/>
<polygon fill="midnightblue" stroke="midnightblue" points="217.732,-230.243 213.562,-239.982 222.895,-234.969 217.732,-230.243"/>
</g>
<!-- Node9 -->
<g id="node9" class="node"><title>Node9</title>
<g id="a_node9"><a xlink:href="classscram_1_1core_1_1Zbdd.xhtml#a499a8bc4bc3854e7b2928c08515243cf" target="_top" xlink:title="Specialization of Apply for AND operator for non&#45;terminal ZBDD vertices. ">
<polygon fill="white" stroke="black" points="316.5,-289.007 316.5,-319.007 418.5,-319.007 418.5,-289.007 316.5,-289.007"/>
<text text-anchor="start" x="324.5" y="-307.007" font-family="Helvetica,sans-Serif" font-size="10.00">scram::core::Zbdd::</text>
<text text-anchor="middle" x="367.5" y="-296.007" font-family="Helvetica,sans-Serif" font-size="10.00">Apply</text>
</a>
</g>
</g>
<!-- Node8&#45;&gt;Node9 -->
<g id="edge12" class="edge"><title>Node8&#45;&gt;Node9</title>
<path fill="none" stroke="midnightblue" d="M260.742,-272.695C278.949,-278.086 298.77,-283.954 316.28,-289.138"/>
<polygon fill="midnightblue" stroke="midnightblue" points="261.687,-269.325 251.105,-269.842 259.7,-276.037 261.687,-269.325"/>
</g>
<!-- Node10 -->
<g id="node10" class="node"><title>Node10</title>
<g id="a_node10"><a xlink:href="classscram_1_1core_1_1Zbdd.xhtml#ac3ac27090b550d973b20bd971c3de9f9" target="_top" xlink:title="Removes complements of variables from products. ">
<polygon fill="white" stroke="black" points="308.5,-338.007 308.5,-368.007 426.5,-368.007 426.5,-338.007 308.5,-338.007"/>
<text text-anchor="start" x="316.5" y="-356.007" font-family="Helvetica,sans-Serif" font-size="10.00">scram::core::Zbdd::</text>
<text text-anchor="middle" x="367.5" y="-345.007" font-family="Helvetica,sans-Serif" font-size="10.00">EliminateComplements</text>
</a>
</g>
</g>
<!-- Node8&#45;&gt;Node10 -->
<g id="edge13" class="edge"><title>Node8&#45;&gt;Node10</title>
<path fill="none" stroke="midnightblue" d="M222.559,-277.618C238.922,-293.64 262.686,-314.59 287,-328.007 293.841,-331.782 301.333,-335.076 308.897,-337.926"/>
<polygon fill="midnightblue" stroke="midnightblue" points="224.694,-274.803 215.15,-270.203 219.742,-279.751 224.694,-274.803"/>
</g>
<!-- Node12 -->
<g id="node12" class="node"><title>Node12</title>
<g id="a_node12"><a xlink:href="classscram_1_1core_1_1Zbdd.xhtml#aeb83fd37f2aee74ac41e6ccadba82d39" target="_top" xlink:title="Removes constant modules from products. ">
<polygon fill="white" stroke="black" points="300.5,-191.007 300.5,-221.007 434.5,-221.007 434.5,-191.007 300.5,-191.007"/>
<text text-anchor="start" x="308.5" y="-209.007" font-family="Helvetica,sans-Serif" font-size="10.00">scram::core::Zbdd::</text>
<text text-anchor="middle" x="367.5" y="-198.007" font-family="Helvetica,sans-Serif" font-size="10.00">EliminateConstantModules</text>
</a>
</g>
</g>
<!-- Node8&#45;&gt;Node12 -->
<g id="edge16" class="edge"><title>Node8&#45;&gt;Node12</title>
<path fill="none" stroke="midnightblue" d="M260.901,-237.272C278.866,-231.953 298.391,-226.172 315.708,-221.045"/>
<polygon fill="midnightblue" stroke="midnightblue" points="259.7,-233.977 251.105,-240.172 261.687,-240.689 259.7,-233.977"/>
</g>
<!-- Node14 -->
<g id="node14" class="node"><title>Node14</title>
<g id="a_node14"><a xlink:href="classscram_1_1core_1_1zbdd_1_1CutSetContainer.xhtml#a1648d3f24a95302fac2a40e95f743dda" target="_top" xlink:title="Minimizes cut sets in the container. ">
<polygon fill="white" stroke="black" points="300.5,-240.007 300.5,-270.007 434.5,-270.007 434.5,-240.007 300.5,-240.007"/>
<text text-anchor="start" x="308.5" y="-258.007" font-family="Helvetica,sans-Serif" font-size="10.00">scram::core::zbdd::</text>
<text text-anchor="middle" x="367.5" y="-247.007" font-family="Helvetica,sans-Serif" font-size="10.00">CutSetContainer::Minimize</text>
</a>
</g>
</g>
<!-- Node8&#45;&gt;Node14 -->
<g id="edge19" class="edge"><title>Node8&#45;&gt;Node14</title>
<path fill="none" stroke="midnightblue" d="M261.136,-255.007C273.882,-255.007 287.405,-255.007 300.361,-255.007"/>
<polygon fill="midnightblue" stroke="midnightblue" points="261.105,-251.507 251.105,-255.007 261.105,-258.507 261.105,-251.507"/>
</g>
<!-- Node10&#45;&gt;Node5 -->
<g id="edge14" class="edge"><title>Node10&#45;&gt;Node5</title>
<path fill="none" stroke="midnightblue" d="M435.656,-337.928C440.201,-335.157 444.397,-331.88 448,-328.007 495.289,-277.179 440.32,-229.968 484,-176.007 494.104,-163.524 509.557,-155.122 523.897,-149.599"/>
<polygon fill="midnightblue" stroke="midnightblue" points="433.808,-334.944 426.547,-342.66 437.035,-341.156 433.808,-334.944"/>
</g>
<!-- Node11 -->
<g id="node11" class="node"><title>Node11</title>
<g id="a_node11"><a xlink:href="classscram_1_1core_1_1zbdd_1_1CutSetContainer.xhtml#a49532388bd9b917f4351f94f728518aa" target="_top" xlink:title="Eliminates all complements from cut sets. ">
<polygon fill="white" stroke="black" points="493,-329.507 493,-370.507 629,-370.507 629,-329.507 493,-329.507"/>
<text text-anchor="start" x="501" y="-358.507" font-family="Helvetica,sans-Serif" font-size="10.00">scram::core::zbdd::</text>
<text text-anchor="start" x="501" y="-347.507" font-family="Helvetica,sans-Serif" font-size="10.00">CutSetContainer::Eliminate</text>
<text text-anchor="middle" x="561" y="-336.507" font-family="Helvetica,sans-Serif" font-size="10.00">Complements</text>
</a>
</g>
</g>
<!-- Node10&#45;&gt;Node11 -->
<g id="edge15" class="edge"><title>Node10&#45;&gt;Node11</title>
<path fill="none" stroke="midnightblue" d="M436.979,-351.934C455.194,-351.649 474.844,-351.341 492.98,-351.057"/>
<polygon fill="midnightblue" stroke="midnightblue" points="436.68,-348.438 426.736,-352.095 436.79,-355.437 436.68,-348.438"/>
</g>
<!-- Node12&#45;&gt;Node5 -->
<g id="edge17" class="edge"><title>Node12&#45;&gt;Node5</title>
<path fill="none" stroke="midnightblue" d="M422.246,-187.484C458.029,-175.151 503.573,-159.454 532.268,-149.565"/>
<polygon fill="midnightblue" stroke="midnightblue" points="420.748,-184.298 412.434,-190.865 423.029,-190.916 420.748,-184.298"/>
</g>
<!-- Node13 -->
<g id="node13" class="node"><title>Node13</title>
<g id="a_node13"><a xlink:href="classscram_1_1core_1_1zbdd_1_1CutSetContainer.xhtml#a1022ad7a4699257a6f0c0809d8f1903d" target="_top" xlink:title="Removes constant modules from cut sets. ">
<polygon fill="white" stroke="black" points="493,-185.507 493,-226.507 629,-226.507 629,-185.507 493,-185.507"/>
<text text-anchor="start" x="501" y="-214.507" font-family="Helvetica,sans-Serif" font-size="10.00">scram::core::zbdd::</text>
<text text-anchor="start" x="501" y="-203.507" font-family="Helvetica,sans-Serif" font-size="10.00">CutSetContainer::Eliminate</text>
<text text-anchor="middle" x="561" y="-192.507" font-family="Helvetica,sans-Serif" font-size="10.00">ConstantModules</text>
</a>
</g>
</g>
<!-- Node12&#45;&gt;Node13 -->
<g id="edge18" class="edge"><title>Node12&#45;&gt;Node13</title>
<path fill="none" stroke="midnightblue" d="M444.956,-206.007C460.797,-206.007 477.373,-206.007 492.851,-206.007"/>
<polygon fill="midnightblue" stroke="midnightblue" points="444.672,-202.507 434.672,-206.007 444.672,-209.507 444.672,-202.507"/>
</g>
</g>
</svg>
        <g id="navigator" transform="translate(0 0)" fill="#404254">
                <rect fill="#f2f5e9" fill-opacity="0.5" stroke="#606060" stroke-width=".5" x="0" y="0" width="60" height="60"/>
                <use id="zoomplus" xlink:href="#zoomPlus" x="17" y="9" onmousedown="handleZoom(evt,'in')"/>
                <use id="zoomminus" xlink:href="#zoomMin" x="42" y="9" onmousedown="handleZoom(evt,'out')"/>
                <use id="reset" xlink:href="#resetDef" x="30" y="36" onmousedown="handleReset()"/>
                <g id="arrowUp" xlink:href="#dirArrow" transform="translate(30 24)" onmousedown="handlePan(0,-1)">
                  <use xlink:href="#rim" fill="#404040">
                        <set attributeName="fill" to="#808080" begin="arrowUp.mouseover" end="arrowUp.mouseout"/>
                  </use>
                  <path fill="none" stroke="white" stroke-width="1.5" d="M0,-3.0v7 M-2.5,-0.5L0,-3.0L2.5,-0.5"/>
                </g>
                <g id="arrowRight" xlink:href="#dirArrow" transform="rotate(90) translate(36 -43)" onmousedown="handlePan(1,0)">
                  <use xlink:href="#rim" fill="#404040">
                        <set attributeName="fill" to="#808080" begin="arrowRight.mouseover" end="arrowRight.mouseout"/>
                  </use>
                  <path fill="none" stroke="white" stroke-width="1.5" d="M0,-3.0v7 M-2.5,-0.5L0,-3.0L2.5,-0.5"/>
                </g>
                <g id="arrowDown" xlink:href="#dirArrow" transform="rotate(180) translate(-30 -48)" onmousedown="handlePan(0,1)">
                  <use xlink:href="#rim" fill="#404040">
                        <set attributeName="fill" to="#808080" begin="arrowDown.mouseover" end="arrowDown.mouseout"/>
                  </use>
                  <path fill="none" stroke="white" stroke-width="1.5" d="M0,-3.0v7 M-2.5,-0.5L0,-3.0L2.5,-0.5"/>
                </g>
                <g id="arrowLeft" xlink:href="#dirArrow" transform="rotate(270) translate(-36 17)" onmousedown="handlePan(-1,0)">
                  <use xlink:href="#rim" fill="#404040">
                        <set attributeName="fill" to="#808080" begin="arrowLeft.mouseover" end="arrowLeft.mouseout"/>
                  </use>
                  <path fill="none" stroke="white" stroke-width="1.5" d="M0,-3.0v7 M-2.5,-0.5L0,-3.0L2.5,-0.5"/>
                </g>
        </g>
        <svg viewBox="0 0 15 15" width="100%" height="30px" preserveAspectRatio="xMaxYMin meet">
         <g id="arrow_out" transform="scale(0.3 0.3)">
          <a xlink:href="classscram_1_1core_1_1SetNode_a88d05af2b9f4f08b7bc66a31c2b9e249_icgraph_org.svg" target="_base">
           <rect id="button" ry="5" rx="5" y="6" x="6" height="38" width="38"
                fill="#f2f5e9" fill-opacity="0.5" stroke="#606060" stroke-width="1.0"/>
           <path id="arrow"
             d="M 11.500037,31.436501 C 11.940474,20.09759 22.043105,11.32322 32.158766,21.979434 L 37.068811,17.246167 C 37.068811,17.246167 37.088388,32 37.088388,32 L 22.160133,31.978069 C 22.160133,31.978069 26.997745,27.140456 26.997745,27.140456 C 18.528582,18.264221 13.291696,25.230495 11.500037,31.436501 z"
             style="fill:#404040;"/>
          </a>
         </g>
        </svg>
</svg>
