<?xml version="1.0" encoding="UTF-8" standalone="no"?>
<!DOCTYPE svg PUBLIC "-//W3C//DTD SVG 1.1//EN"
 "http://www.w3.org/Graphics/SVG/1.1/DTD/svg11.dtd">
<!-- Generated by graphviz version 2.38.0 (20140413.2041)
 -->
<!-- Title: scram::mef::PeriodicTest::Min Pages: 1 -->
<svg width="522pt" height="132pt"
 viewBox="0.00 0.00 522.00 132.00" xmlns="http://www.w3.org/2000/svg" xmlns:xlink="http://www.w3.org/1999/xlink">
<g id="graph0" class="graph" transform="scale(1 1) rotate(0) translate(4 128)">
<title>scram::mef::PeriodicTest::Min</title>
<polygon fill="white" stroke="none" points="-4,4 -4,-128 518,-128 518,4 -4,4"/>
<!-- Node1 -->
<g id="node1" class="node"><title>Node1</title>
<polygon fill="#bfbfbf" stroke="black" points="0,-50 0,-69 149,-69 149,-50 0,-50"/>
<text text-anchor="middle" x="74.5" y="-57" font-family="Helvetica,sans-Serif" font-size="10.00">scram::mef::PeriodicTest::Min</text>
</g>
<!-- Node2 -->
<g id="node2" class="node"><title>Node2</title>
<g id="a_node2"><a xlink:href="classscram_1_1mef_1_1ExponentialExpression.xhtml#a6340b19d90ee77040e2d06cbfa39ac79" target="_top" xlink:title="scram::mef::ExponentialExpression\l::Mean">
<polygon fill="white" stroke="black" points="185,-88.5 185,-118.5 357,-118.5 357,-88.5 185,-88.5"/>
<text text-anchor="start" x="193" y="-106.5" font-family="Helvetica,sans-Serif" font-size="10.00">scram::mef::ExponentialExpression</text>
<text text-anchor="middle" x="271" y="-95.5" font-family="Helvetica,sans-Serif" font-size="10.00">::Mean</text>
</a>
</g>
</g>
<!-- Node1&#45;&gt;Node2 -->
<g id="edge1" class="edge"><title>Node1&#45;&gt;Node2</title>
<path fill="none" stroke="midnightblue" d="M117.704,-69.0473C139.895,-74.0676 167.789,-80.3777 193.621,-86.2215"/>
<polygon fill="midnightblue" stroke="midnightblue" points="192.878,-89.6418 203.404,-88.4346 194.423,-82.8144 192.878,-89.6418"/>
</g>
<!-- Node4 -->
<g id="node4" class="node"><title>Node4</title>
<g id="a_node4"><a xlink:href="classscram_1_1mef_1_1Expression.xhtml#a5cf00d8b2ff843ad029a501a89ee572a" target="_top" xlink:title="scram::mef::Expression\l::Sample">
<polygon fill="white" stroke="black" points="393,-44.5 393,-74.5 514,-74.5 514,-44.5 393,-44.5"/>
<text text-anchor="start" x="401" y="-62.5" font-family="Helvetica,sans-Serif" font-size="10.00">scram::mef::Expression</text>
<text text-anchor="middle" x="453.5" y="-51.5" font-family="Helvetica,sans-Serif" font-size="10.00">::Sample</text>
</a>
</g>
</g>
<!-- Node1&#45;&gt;Node4 -->
<g id="edge4" class="edge"><title>Node1&#45;&gt;Node4</title>
<path fill="none" stroke="midnightblue" d="M149.084,-59.5C216.614,-59.5 315.963,-59.5 382.377,-59.5"/>
<polygon fill="midnightblue" stroke="midnightblue" points="382.744,-63.0001 392.744,-59.5 382.744,-56.0001 382.744,-63.0001"/>
</g>
<!-- Node5 -->
<g id="node5" class="node"><title>Node5</title>
<g id="a_node5"><a xlink:href="classscram_1_1mef_1_1ExponentialExpression.xhtml#a9780ad4bfee039cdb147a4f3cc4a4823" target="_top" xlink:title="scram::mef::ExponentialExpression\l::Validate">
<polygon fill="white" stroke="black" points="185,-0.5 185,-30.5 357,-30.5 357,-0.5 185,-0.5"/>
<text text-anchor="start" x="193" y="-18.5" font-family="Helvetica,sans-Serif" font-size="10.00">scram::mef::ExponentialExpression</text>
<text text-anchor="middle" x="271" y="-7.5" font-family="Helvetica,sans-Serif" font-size="10.00">::Validate</text>
</a>
</g>
</g>
<!-- Node1&#45;&gt;Node5 -->
<g id="edge5" class="edge"><title>Node1&#45;&gt;Node5</title>
<path fill="none" stroke="midnightblue" d="M117.704,-49.9527C139.895,-44.9324 167.789,-38.6223 193.621,-32.7785"/>
<polygon fill="midnightblue" stroke="midnightblue" points="194.423,-36.1856 203.404,-30.5654 192.878,-29.3582 194.423,-36.1856"/>
</g>
<!-- Node3 -->
<g id="node3" class="node"><title>Node3</title>
<g id="a_node3"><a xlink:href="classscram_1_1mef_1_1Expression.xhtml#ac7e0dd118eafdfa943944172c1625a4e" target="_top" xlink:title="scram::mef::Expression\l::Mean">
<polygon fill="white" stroke="black" points="393,-93.5 393,-123.5 514,-123.5 514,-93.5 393,-93.5"/>
<text text-anchor="start" x="401" y="-111.5" font-family="Helvetica,sans-Serif" font-size="10.00">scram::mef::Expression</text>
<text text-anchor="middle" x="453.5" y="-100.5" font-family="Helvetica,sans-Serif" font-size="10.00">::Mean</text>
</a>
</g>
</g>
<!-- Node2&#45;&gt;Node3 -->
<g id="edge2" class="edge"><title>Node2&#45;&gt;Node3</title>
<path fill="none" stroke="midnightblue" d="M357.229,-105.861C365.795,-106.098 374.421,-106.337 382.798,-106.569"/>
<polygon fill="midnightblue" stroke="midnightblue" points="382.779,-110.07 392.872,-106.848 382.973,-103.073 382.779,-110.07"/>
</g>
<!-- Node2&#45;&gt;Node4 -->
<g id="edge3" class="edge"><title>Node2&#45;&gt;Node4</title>
<path fill="none" stroke="midnightblue" d="M333.613,-88.4808C349.513,-84.6049 366.736,-80.4064 383.007,-76.4401"/>
<polygon fill="midnightblue" stroke="midnightblue" points="384.109,-79.7742 392.995,-74.0054 382.451,-72.9733 384.109,-79.7742"/>
</g>
</g>
</svg>
