<?xml version="1.0" encoding="UTF-8" standalone="no"?>
<!DOCTYPE svg PUBLIC "-//W3C//DTD SVG 1.1//EN"
 "http://www.w3.org/Graphics/SVG/1.1/DTD/svg11.dtd">
<!-- Generated by graphviz version 2.38.0 (20140413.2041)
 -->
<!-- Title: scram::core::Analysis::AddAnalysisTime Pages: 1 -->
<svg width="317pt" height="246pt"
 viewBox="0.00 0.00 317.00 245.50" xmlns="http://www.w3.org/2000/svg" xmlns:xlink="http://www.w3.org/1999/xlink">
<g id="graph0" class="graph" transform="scale(1 1) rotate(0) translate(4 241.5)">
<title>scram::core::Analysis::AddAnalysisTime</title>
<polygon fill="white" stroke="none" points="-4,4 -4,-241.5 313,-241.5 313,4 -4,4"/>
<!-- Node1 -->
<g id="node1" class="node"><title>Node1</title>
<polygon fill="#bfbfbf" stroke="black" points="0,-109 0,-139 112,-139 112,-109 0,-109"/>
<text text-anchor="start" x="8" y="-127" font-family="Helvetica,sans-Serif" font-size="10.00">scram::core::Analysis</text>
<text text-anchor="middle" x="56" y="-116" font-family="Helvetica,sans-Serif" font-size="10.00">::AddAnalysisTime</text>
</g>
<!-- Node2 -->
<g id="node2" class="node"><title>Node2</title>
<g id="a_node2"><a xlink:href="classscram_1_1core_1_1UncertaintyAnalysis.xhtml#a38f984572d8b7fbeb819e933f9bc3a3b" target="_top" xlink:title="Performs quantitative analysis on the total probability. ">
<polygon fill="white" stroke="black" points="166,-207 166,-237 291,-237 291,-207 166,-207"/>
<text text-anchor="start" x="174" y="-225" font-family="Helvetica,sans-Serif" font-size="10.00">scram::core::Uncertainty</text>
<text text-anchor="middle" x="228.5" y="-214" font-family="Helvetica,sans-Serif" font-size="10.00">Analysis::Analyze</text>
</a>
</g>
</g>
<!-- Node1&#45;&gt;Node2 -->
<g id="edge1" class="edge"><title>Node1&#45;&gt;Node2</title>
<path fill="none" stroke="midnightblue" d="M79.1577,-146.221C96.5608,-162.571 122.108,-184.257 148,-198 154.367,-201.38 161.28,-204.355 168.282,-206.954"/>
<polygon fill="midnightblue" stroke="midnightblue" points="81.4036,-143.525 71.7628,-139.131 76.5593,-148.578 81.4036,-143.525"/>
</g>
<!-- Node3 -->
<g id="node3" class="node"><title>Node3</title>
<g id="a_node3"><a xlink:href="classscram_1_1core_1_1ImportanceAnalysis.xhtml#acf487235f07ddcc1c920943ebfe2ce60" target="_top" xlink:title="Performs quantitative analysis of importance factors of basic events in products. ...">
<polygon fill="white" stroke="black" points="148,-158 148,-188 309,-188 309,-158 148,-158"/>
<text text-anchor="start" x="156" y="-176" font-family="Helvetica,sans-Serif" font-size="10.00">scram::core::ImportanceAnalysis</text>
<text text-anchor="middle" x="228.5" y="-165" font-family="Helvetica,sans-Serif" font-size="10.00">::Analyze</text>
</a>
</g>
</g>
<!-- Node1&#45;&gt;Node3 -->
<g id="edge2" class="edge"><title>Node1&#45;&gt;Node3</title>
<path fill="none" stroke="midnightblue" d="M119.264,-141.894C137.603,-147.164 157.475,-152.876 175.127,-157.948"/>
<polygon fill="midnightblue" stroke="midnightblue" points="120.125,-138.5 109.547,-139.101 118.191,-145.227 120.125,-138.5"/>
</g>
<!-- Node4 -->
<g id="node4" class="node"><title>Node4</title>
<g id="a_node4"><a xlink:href="classscram_1_1core_1_1ProbabilityAnalysis.xhtml#ab68a356b0bdeb793d30d3b6e84847d12" target="_top" xlink:title="Performs quantitative analysis on the supplied fault tree. ">
<polygon fill="white" stroke="black" points="168.5,-109 168.5,-139 288.5,-139 288.5,-109 168.5,-109"/>
<text text-anchor="start" x="176.5" y="-127" font-family="Helvetica,sans-Serif" font-size="10.00">scram::core::Probability</text>
<text text-anchor="middle" x="228.5" y="-116" font-family="Helvetica,sans-Serif" font-size="10.00">Analysis::Analyze</text>
</a>
</g>
</g>
<!-- Node1&#45;&gt;Node4 -->
<g id="edge3" class="edge"><title>Node1&#45;&gt;Node4</title>
<path fill="none" stroke="midnightblue" d="M122.608,-124C137.65,-124 153.555,-124 168.309,-124"/>
<polygon fill="midnightblue" stroke="midnightblue" points="122.356,-120.5 112.356,-124 122.356,-127.5 122.356,-120.5"/>
</g>
<!-- Node5 -->
<g id="node5" class="node"><title>Node5</title>
<g id="a_node5"><a xlink:href="classscram_1_1core_1_1FaultTreeAnalysis.xhtml#a327afc0524cff5289c3887357487266b" target="_top" xlink:title="Analyzes the fault tree and performs computations. ">
<polygon fill="white" stroke="black" points="152,-60 152,-90 305,-90 305,-60 152,-60"/>
<text text-anchor="start" x="160" y="-78" font-family="Helvetica,sans-Serif" font-size="10.00">scram::core::FaultTreeAnalysis</text>
<text text-anchor="middle" x="228.5" y="-67" font-family="Helvetica,sans-Serif" font-size="10.00">::Analyze</text>
</a>
</g>
</g>
<!-- Node1&#45;&gt;Node5 -->
<g id="edge4" class="edge"><title>Node1&#45;&gt;Node5</title>
<path fill="none" stroke="midnightblue" d="M119.264,-106.106C137.603,-100.836 157.475,-95.1245 175.127,-90.0516"/>
<polygon fill="midnightblue" stroke="midnightblue" points="118.191,-102.773 109.547,-108.899 120.125,-109.5 118.191,-102.773"/>
</g>
<!-- Node6 -->
<g id="node6" class="node"><title>Node6</title>
<g id="a_node6"><a xlink:href="classscram_1_1core_1_1ProbabilityAnalyzer_3_01Bdd_01_4.xhtml#a45b66605634ae60f1c00e3ac469a7c7a" target="_top" xlink:title="Calculates the total probability with a different set of probability values than the one given upon c...">
<polygon fill="white" stroke="black" points="149,-0.5 149,-41.5 308,-41.5 308,-0.5 149,-0.5"/>
<text text-anchor="start" x="157" y="-29.5" font-family="Helvetica,sans-Serif" font-size="10.00">scram::core::Probability</text>
<text text-anchor="start" x="157" y="-18.5" font-family="Helvetica,sans-Serif" font-size="10.00">Analyzer&lt; Bdd &gt;::CalculateTotal</text>
<text text-anchor="middle" x="228.5" y="-7.5" font-family="Helvetica,sans-Serif" font-size="10.00">Probability</text>
</a>
</g>
</g>
<!-- Node1&#45;&gt;Node6 -->
<g id="edge5" class="edge"><title>Node1&#45;&gt;Node6</title>
<path fill="none" stroke="midnightblue" d="M80.1225,-102.016C97.6749,-86.2181 122.981,-65.2739 148,-51 153.894,-47.6373 160.237,-44.5144 166.677,-41.6538"/>
<polygon fill="midnightblue" stroke="midnightblue" points="77.6471,-99.5369 72.6324,-108.87 82.3727,-104.701 77.6471,-99.5369"/>
</g>
</g>
</svg>
