<?xml version="1.0" encoding="UTF-8" standalone="no"?>
<!DOCTYPE svg PUBLIC "-//W3C//DTD SVG 1.1//EN"
 "http://www.w3.org/Graphics/SVG/1.1/DTD/svg11.dtd">
<!-- Generated by graphviz version 2.38.0 (20140413.2041)
 -->
<!-- Title: scram::core::Node Pages: 1 -->
<svg width="364pt" height="623pt"
 viewBox="0.00 0.00 364.00 623.00" xmlns="http://www.w3.org/2000/svg" xmlns:xlink="http://www.w3.org/1999/xlink">
<g id="graph0" class="graph" transform="scale(1 1) rotate(0) translate(4 619)">
<title>scram::core::Node</title>
<polygon fill="white" stroke="none" points="-4,4 -4,-619 360,-619 360,4 -4,4"/>
<!-- Node1 -->
<g id="node1" class="node"><title>Node1</title>
<polygon fill="#bfbfbf" stroke="black" points="131,-248.5 131,-415.5 229,-415.5 229,-248.5 131,-248.5"/>
<text text-anchor="middle" x="180" y="-403.5" font-family="Helvetica,sans-Serif" font-size="10.00">scram::core::Node</text>
<polyline fill="none" stroke="black" points="131,-396.5 229,-396.5 "/>
<text text-anchor="middle" x="180" y="-384.5" font-family="Helvetica,sans-Serif" font-size="10.00"> </text>
<polyline fill="none" stroke="black" points="131,-377.5 229,-377.5 "/>
<text text-anchor="start" x="139" y="-365.5" font-family="Helvetica,sans-Serif" font-size="10.00">+ Node()</text>
<text text-anchor="start" x="139" y="-354.5" font-family="Helvetica,sans-Serif" font-size="10.00">+ ~Node()</text>
<text text-anchor="start" x="139" y="-343.5" font-family="Helvetica,sans-Serif" font-size="10.00">+ graph()</text>
<text text-anchor="start" x="139" y="-332.5" font-family="Helvetica,sans-Serif" font-size="10.00">+ index()</text>
<text text-anchor="start" x="139" y="-321.5" font-family="Helvetica,sans-Serif" font-size="10.00">+ order()</text>
<text text-anchor="start" x="139" y="-310.5" font-family="Helvetica,sans-Serif" font-size="10.00">+ order()</text>
<text text-anchor="start" x="139" y="-299.5" font-family="Helvetica,sans-Serif" font-size="10.00">+ opti_value()</text>
<text text-anchor="start" x="139" y="-288.5" font-family="Helvetica,sans-Serif" font-size="10.00">+ opti_value()</text>
<text text-anchor="start" x="139" y="-277.5" font-family="Helvetica,sans-Serif" font-size="10.00">+ Visit()</text>
<text text-anchor="start" x="139" y="-266.5" font-family="Helvetica,sans-Serif" font-size="10.00">+ EnterTime()</text>
<text text-anchor="start" x="139" y="-255.5" font-family="Helvetica,sans-Serif" font-size="10.00">and 11 more...</text>
</g>
<!-- Node4 -->
<g id="node4" class="node"><title>Node4</title>
<g id="a_node4"><a xlink:href="classscram_1_1core_1_1Constant.xhtml" target="_top" xlink:title="Representation of a node that is a Boolean constant TRUE. ">
<polygon fill="white" stroke="black" points="0,-77.5 0,-134.5 114,-134.5 114,-77.5 0,-77.5"/>
<text text-anchor="middle" x="57" y="-122.5" font-family="Helvetica,sans-Serif" font-size="10.00">scram::core::Constant</text>
<polyline fill="none" stroke="black" points="0,-115.5 114,-115.5 "/>
<text text-anchor="middle" x="57" y="-103.5" font-family="Helvetica,sans-Serif" font-size="10.00"> </text>
<polyline fill="none" stroke="black" points="0,-96.5 114,-96.5 "/>
<text text-anchor="start" x="8" y="-84.5" font-family="Helvetica,sans-Serif" font-size="10.00">+ value()</text>
</a>
</g>
</g>
<!-- Node1&#45;&gt;Node4 -->
<g id="edge3" class="edge"><title>Node1&#45;&gt;Node4</title>
<path fill="none" stroke="midnightblue" d="M129.614,-239.24C108.936,-201.583 86.5249,-160.769 72.153,-134.596"/>
<polygon fill="none" stroke="midnightblue" points="126.668,-241.146 134.549,-248.227 132.803,-237.777 126.668,-241.146"/>
</g>
<!-- Node5 -->
<g id="node5" class="node"><title>Node5</title>
<g id="a_node5"><a xlink:href="classscram_1_1core_1_1Gate.xhtml" target="_top" xlink:title="An indexed gate for use in a PDAG. ">
<polygon fill="white" stroke="black" points="132.5,-0.5 132.5,-211.5 227.5,-211.5 227.5,-0.5 132.5,-0.5"/>
<text text-anchor="middle" x="180" y="-199.5" font-family="Helvetica,sans-Serif" font-size="10.00">scram::core::Gate</text>
<polyline fill="none" stroke="black" points="132.5,-192.5 227.5,-192.5 "/>
<text text-anchor="middle" x="180" y="-180.5" font-family="Helvetica,sans-Serif" font-size="10.00"> </text>
<polyline fill="none" stroke="black" points="132.5,-173.5 227.5,-173.5 "/>
<text text-anchor="start" x="140.5" y="-161.5" font-family="Helvetica,sans-Serif" font-size="10.00">+ Gate()</text>
<text text-anchor="start" x="140.5" y="-150.5" font-family="Helvetica,sans-Serif" font-size="10.00">+ ~Gate()</text>
<text text-anchor="start" x="140.5" y="-139.5" font-family="Helvetica,sans-Serif" font-size="10.00">+ Clone()</text>
<text text-anchor="start" x="140.5" y="-128.5" font-family="Helvetica,sans-Serif" font-size="10.00">+ type()</text>
<text text-anchor="start" x="140.5" y="-117.5" font-family="Helvetica,sans-Serif" font-size="10.00">+ type()</text>
<text text-anchor="start" x="140.5" y="-106.5" font-family="Helvetica,sans-Serif" font-size="10.00">+ vote_number()</text>
<text text-anchor="start" x="140.5" y="-95.5" font-family="Helvetica,sans-Serif" font-size="10.00">+ vote_number()</text>
<text text-anchor="start" x="140.5" y="-84.5" font-family="Helvetica,sans-Serif" font-size="10.00">+ constant()</text>
<text text-anchor="start" x="140.5" y="-73.5" font-family="Helvetica,sans-Serif" font-size="10.00">+ args()</text>
<text text-anchor="start" x="140.5" y="-62.5" font-family="Helvetica,sans-Serif" font-size="10.00">+ args()</text>
<text text-anchor="start" x="140.5" y="-51.5" font-family="Helvetica,sans-Serif" font-size="10.00">and 35 more...</text>
<text text-anchor="start" x="140.5" y="-40.5" font-family="Helvetica,sans-Serif" font-size="10.00">* Arg</text>
<text text-anchor="start" x="140.5" y="-29.5" font-family="Helvetica,sans-Serif" font-size="10.00">* ConstArg</text>
<text text-anchor="start" x="140.5" y="-18.5" font-family="Helvetica,sans-Serif" font-size="10.00">* gate_args_</text>
<text text-anchor="start" x="140.5" y="-7.5" font-family="Helvetica,sans-Serif" font-size="10.00">* variable_args_</text>
</a>
</g>
</g>
<!-- Node1&#45;&gt;Node5 -->
<g id="edge4" class="edge"><title>Node1&#45;&gt;Node5</title>
<path fill="none" stroke="midnightblue" d="M180,-238.139C180,-229.473 180,-220.649 180,-211.884"/>
<polygon fill="none" stroke="midnightblue" points="176.5,-238.227 180,-248.227 183.5,-238.227 176.5,-238.227"/>
</g>
<!-- Node6 -->
<g id="node6" class="node"><title>Node6</title>
<g id="a_node6"><a xlink:href="classscram_1_1core_1_1Variable.xhtml" target="_top" xlink:title="Boolean variables in a Boolean formula or graph. ">
<polygon fill="white" stroke="black" points="246,-77.5 246,-134.5 356,-134.5 356,-77.5 246,-77.5"/>
<text text-anchor="middle" x="301" y="-122.5" font-family="Helvetica,sans-Serif" font-size="10.00">scram::core::Variable</text>
<polyline fill="none" stroke="black" points="246,-115.5 356,-115.5 "/>
<text text-anchor="middle" x="301" y="-103.5" font-family="Helvetica,sans-Serif" font-size="10.00"> </text>
<polyline fill="none" stroke="black" points="246,-96.5 356,-96.5 "/>
<text text-anchor="middle" x="301" y="-84.5" font-family="Helvetica,sans-Serif" font-size="10.00"> </text>
</a>
</g>
</g>
<!-- Node1&#45;&gt;Node6 -->
<g id="edge5" class="edge"><title>Node1&#45;&gt;Node6</title>
<path fill="none" stroke="midnightblue" d="M229.567,-239.24C249.908,-201.583 271.955,-160.769 286.093,-134.596"/>
<polygon fill="none" stroke="midnightblue" points="226.385,-237.765 224.712,-248.227 232.544,-241.092 226.385,-237.765"/>
</g>
<!-- Node2 -->
<g id="node2" class="node"><title>Node2</title>
<g id="a_node2"><a xlink:href="classscram_1_1core_1_1NodeParentManager.xhtml" target="_top" xlink:title="A manager of information about parents. ">
<polygon fill="white" stroke="black" points="98,-452.5 98,-520.5 262,-520.5 262,-452.5 98,-452.5"/>
<text text-anchor="middle" x="180" y="-508.5" font-family="Helvetica,sans-Serif" font-size="10.00">scram::core::NodeParentManager</text>
<polyline fill="none" stroke="black" points="98,-501.5 262,-501.5 "/>
<text text-anchor="middle" x="180" y="-489.5" font-family="Helvetica,sans-Serif" font-size="10.00"> </text>
<polyline fill="none" stroke="black" points="98,-482.5 262,-482.5 "/>
<text text-anchor="start" x="106" y="-470.5" font-family="Helvetica,sans-Serif" font-size="10.00">+ parents()</text>
<text text-anchor="start" x="106" y="-459.5" font-family="Helvetica,sans-Serif" font-size="10.00"># ~NodeParentManager()</text>
</a>
</g>
</g>
<!-- Node2&#45;&gt;Node1 -->
<g id="edge1" class="edge"><title>Node2&#45;&gt;Node1</title>
<path fill="none" stroke="midnightblue" d="M180,-442.229C180,-433.884 180,-424.887 180,-415.765"/>
<polygon fill="none" stroke="midnightblue" points="176.5,-442.41 180,-452.41 183.5,-442.41 176.5,-442.41"/>
</g>
<!-- Node3 -->
<g id="node3" class="node"><title>Node3</title>
<polygon fill="white" stroke="#bfbfbf" points="144.5,-557.5 144.5,-614.5 215.5,-614.5 215.5,-557.5 144.5,-557.5"/>
<text text-anchor="middle" x="180" y="-602.5" font-family="Helvetica,sans-Serif" font-size="10.00">noncopyable</text>
<polyline fill="none" stroke="#bfbfbf" points="144.5,-595.5 215.5,-595.5 "/>
<text text-anchor="middle" x="180" y="-583.5" font-family="Helvetica,sans-Serif" font-size="10.00"> </text>
<polyline fill="none" stroke="#bfbfbf" points="144.5,-576.5 215.5,-576.5 "/>
<text text-anchor="middle" x="180" y="-564.5" font-family="Helvetica,sans-Serif" font-size="10.00"> </text>
</g>
<!-- Node3&#45;&gt;Node2 -->
<g id="edge2" class="edge"><title>Node3&#45;&gt;Node2</title>
<path fill="none" stroke="#8b1a1a" d="M180,-547.063C180,-538.393 180,-529.243 180,-520.786"/>
<polygon fill="none" stroke="#8b1a1a" points="176.5,-547.321 180,-557.321 183.5,-547.321 176.5,-547.321"/>
</g>
</g>
</svg>
