<?xml version="1.0" encoding="UTF-8" standalone="no"?>
<!DOCTYPE svg PUBLIC "-//W3C//DTD SVG 1.1//EN"
 "http://www.w3.org/Graphics/SVG/1.1/DTD/svg11.dtd">
<!-- Generated by graphviz version 2.38.0 (20140413.2041)
 -->
<!-- Title: combination_iterator.h Pages: 1 -->
<svg width="583pt" height="95pt"
 viewBox="0.00 0.00 582.50 95.00" xmlns="http://www.w3.org/2000/svg" xmlns:xlink="http://www.w3.org/1999/xlink">
<g id="graph0" class="graph" transform="scale(1 1) rotate(0) translate(4 91)">
<title>combination_iterator.h</title>
<polygon fill="white" stroke="none" points="-4,4 -4,-91 578.5,-91 578.5,4 -4,4"/>
<!-- Node1 -->
<g id="node1" class="node"><title>Node1</title>
<polygon fill="#bfbfbf" stroke="black" points="151.5,-67.5 151.5,-86.5 264.5,-86.5 264.5,-67.5 151.5,-67.5"/>
<text text-anchor="middle" x="208" y="-74.5" font-family="Helvetica,sans-Serif" font-size="10.00">combination_iterator.h</text>
</g>
<!-- Node2 -->
<g id="node2" class="node"><title>Node2</title>
<polygon fill="white" stroke="#bfbfbf" points="0,-6 0,-25 56,-25 56,-6 0,-6"/>
<text text-anchor="middle" x="28" y="-13" font-family="Helvetica,sans-Serif" font-size="10.00">algorithm</text>
</g>
<!-- Node1&#45;&gt;Node2 -->
<g id="edge1" class="edge"><title>Node1&#45;&gt;Node2</title>
<path fill="none" stroke="midnightblue" d="M178.775,-67.4443C149.737,-58.7932 104.025,-44.7687 65,-31 62.8855,-30.254 60.7115,-29.4636 58.5273,-28.6523"/>
<polygon fill="midnightblue" stroke="midnightblue" points="59.6288,-25.3265 49.038,-25.033 57.1341,-31.867 59.6288,-25.3265"/>
</g>
<!-- Node3 -->
<g id="node3" class="node"><title>Node3</title>
<polygon fill="white" stroke="#bfbfbf" points="74.5,-6 74.5,-25 121.5,-25 121.5,-6 74.5,-6"/>
<text text-anchor="middle" x="98" y="-13" font-family="Helvetica,sans-Serif" font-size="10.00">iterator</text>
</g>
<!-- Node1&#45;&gt;Node3 -->
<g id="edge2" class="edge"><title>Node1&#45;&gt;Node3</title>
<path fill="none" stroke="midnightblue" d="M192.24,-67.4751C174.024,-57.6222 143.827,-41.2883 122.532,-29.7697"/>
<polygon fill="midnightblue" stroke="midnightblue" points="124.192,-26.6883 113.731,-25.0091 120.862,-32.8453 124.192,-26.6883"/>
</g>
<!-- Node4 -->
<g id="node4" class="node"><title>Node4</title>
<polygon fill="white" stroke="#bfbfbf" points="140,-6 140,-25 184,-25 184,-6 140,-6"/>
<text text-anchor="middle" x="162" y="-13" font-family="Helvetica,sans-Serif" font-size="10.00">vector</text>
</g>
<!-- Node1&#45;&gt;Node4 -->
<g id="edge3" class="edge"><title>Node1&#45;&gt;Node4</title>
<path fill="none" stroke="midnightblue" d="M201.409,-67.4751C194.509,-58.5501 183.498,-44.3071 174.866,-33.1425"/>
<polygon fill="midnightblue" stroke="midnightblue" points="177.464,-30.7798 168.578,-25.0091 171.926,-35.0612 177.464,-30.7798"/>
</g>
<!-- Node5 -->
<g id="node5" class="node"><title>Node5</title>
<polygon fill="white" stroke="#bfbfbf" points="201.5,-0.5 201.5,-30.5 308.5,-30.5 308.5,-0.5 201.5,-0.5"/>
<text text-anchor="start" x="209.5" y="-18.5" font-family="Helvetica,sans-Serif" font-size="10.00">boost/iterator/iterator</text>
<text text-anchor="middle" x="255" y="-7.5" font-family="Helvetica,sans-Serif" font-size="10.00">_facade.hpp</text>
</g>
<!-- Node1&#45;&gt;Node5 -->
<g id="edge4" class="edge"><title>Node1&#45;&gt;Node5</title>
<path fill="none" stroke="midnightblue" d="M214.734,-67.4751C220.683,-59.9438 229.623,-48.6259 237.569,-38.5663"/>
<polygon fill="midnightblue" stroke="midnightblue" points="240.471,-40.5396 243.923,-30.523 234.978,-36.2006 240.471,-40.5396"/>
</g>
<!-- Node6 -->
<g id="node6" class="node"><title>Node6</title>
<polygon fill="white" stroke="#bfbfbf" points="326.5,-6 326.5,-25 455.5,-25 455.5,-6 326.5,-6"/>
<text text-anchor="middle" x="391" y="-13" font-family="Helvetica,sans-Serif" font-size="10.00">boost/range/algorithm.hpp</text>
</g>
<!-- Node1&#45;&gt;Node6 -->
<g id="edge5" class="edge"><title>Node1&#45;&gt;Node6</title>
<path fill="none" stroke="midnightblue" d="M234.219,-67.4751C266.018,-57.1362 319.765,-39.6611 355.317,-28.1017"/>
<polygon fill="midnightblue" stroke="midnightblue" points="356.401,-31.4297 364.829,-25.0091 354.237,-24.7727 356.401,-31.4297"/>
</g>
<!-- Node7 -->
<g id="node7" class="node"><title>Node7</title>
<polygon fill="white" stroke="#bfbfbf" points="473.5,-0.5 473.5,-30.5 574.5,-30.5 574.5,-0.5 473.5,-0.5"/>
<text text-anchor="start" x="481.5" y="-18.5" font-family="Helvetica,sans-Serif" font-size="10.00">boost/range/iterator</text>
<text text-anchor="middle" x="524" y="-7.5" font-family="Helvetica,sans-Serif" font-size="10.00">_range.hpp</text>
</g>
<!-- Node1&#45;&gt;Node7 -->
<g id="edge6" class="edge"><title>Node1&#45;&gt;Node7</title>
<path fill="none" stroke="midnightblue" d="M262.852,-67.4985C312.784,-59.5105 388.752,-46.7375 463.187,-31.3096"/>
<polygon fill="midnightblue" stroke="midnightblue" points="464.129,-34.6884 473.201,-29.2157 462.696,-27.8366 464.129,-34.6884"/>
</g>
</g>
</svg>
