<?xml version="1.0" encoding="UTF-8" standalone="no"?>
<!DOCTYPE svg PUBLIC "-//W3C//DTD SVG 1.1//EN"
 "http://www.w3.org/Graphics/SVG/1.1/DTD/svg11.dtd">
<!-- Generated by graphviz version 2.38.0 (20140413.2041)
 -->
<!-- Title: cycle.h Pages: 1 -->
<svg width="908pt" height="274pt"
 viewBox="0.00 0.00 908.00 274.00" xmlns="http://www.w3.org/2000/svg" xmlns:xlink="http://www.w3.org/1999/xlink">
<g id="graph0" class="graph" transform="scale(1 1) rotate(0) translate(4 270)">
<title>cycle.h</title>
<polygon fill="white" stroke="none" points="-4,4 -4,-270 904,-270 904,4 -4,4"/>
<!-- Node1 -->
<g id="node1" class="node"><title>Node1</title>
<polygon fill="#bfbfbf" stroke="black" points="478.5,-246.5 478.5,-265.5 526.5,-265.5 526.5,-246.5 478.5,-246.5"/>
<text text-anchor="middle" x="502.5" y="-253.5" font-family="Helvetica,sans-Serif" font-size="10.00">cycle.h</text>
</g>
<!-- Node2 -->
<g id="node2" class="node"><title>Node2</title>
<polygon fill="white" stroke="#bfbfbf" points="0,-6 0,-25 41,-25 41,-6 0,-6"/>
<text text-anchor="middle" x="20.5" y="-13" font-family="Helvetica,sans-Serif" font-size="10.00">string</text>
</g>
<!-- Node1&#45;&gt;Node2 -->
<g id="edge1" class="edge"><title>Node1&#45;&gt;Node2</title>
<path fill="none" stroke="midnightblue" d="M478.396,-255.085C400.903,-254.943 159.485,-251.134 95.5,-210 35.2385,-171.26 23.3426,-75.9632 21.0346,-35.3386"/>
<polygon fill="midnightblue" stroke="midnightblue" points="24.5259,-35.0578 20.5998,-25.2173 17.5323,-35.3583 24.5259,-35.0578"/>
</g>
<!-- Node3 -->
<g id="node3" class="node"><title>Node3</title>
<polygon fill="white" stroke="#bfbfbf" points="584.5,-6 584.5,-25 628.5,-25 628.5,-6 584.5,-6"/>
<text text-anchor="middle" x="606.5" y="-13" font-family="Helvetica,sans-Serif" font-size="10.00">vector</text>
</g>
<!-- Node1&#45;&gt;Node3 -->
<g id="edge2" class="edge"><title>Node1&#45;&gt;Node3</title>
<path fill="none" stroke="midnightblue" d="M508.475,-246.358C524.812,-222.304 570.531,-152.059 593.5,-87 599.45,-70.146 602.816,-50.0155 604.624,-35.5884"/>
<polygon fill="midnightblue" stroke="midnightblue" points="608.129,-35.7391 605.76,-25.4125 601.172,-34.9625 608.129,-35.7391"/>
</g>
<!-- Node4 -->
<g id="node4" class="node"><title>Node4</title>
<polygon fill="white" stroke="#bfbfbf" points="676,-179.5 676,-209.5 779,-209.5 779,-179.5 676,-179.5"/>
<text text-anchor="start" x="684" y="-197.5" font-family="Helvetica,sans-Serif" font-size="10.00">boost/range/adaptor</text>
<text text-anchor="middle" x="727.5" y="-186.5" font-family="Helvetica,sans-Serif" font-size="10.00">/filtered.hpp</text>
</g>
<!-- Node1&#45;&gt;Node4 -->
<g id="edge3" class="edge"><title>Node1&#45;&gt;Node4</title>
<path fill="none" stroke="midnightblue" d="M526.579,-248.632C559.532,-239.918 619.826,-223.974 665.797,-211.817"/>
<polygon fill="midnightblue" stroke="midnightblue" points="666.896,-215.147 675.669,-209.207 665.106,-208.379 666.896,-215.147"/>
</g>
<!-- Node5 -->
<g id="node5" class="node"><title>Node5</title>
<polygon fill="white" stroke="#bfbfbf" points="797,-179.5 797,-209.5 900,-209.5 900,-179.5 797,-179.5"/>
<text text-anchor="start" x="805" y="-197.5" font-family="Helvetica,sans-Serif" font-size="10.00">boost/range/adaptor</text>
<text text-anchor="middle" x="848.5" y="-186.5" font-family="Helvetica,sans-Serif" font-size="10.00">/transformed.hpp</text>
</g>
<!-- Node1&#45;&gt;Node5 -->
<g id="edge4" class="edge"><title>Node1&#45;&gt;Node5</title>
<path fill="none" stroke="midnightblue" d="M526.723,-251.864C574.61,-245.521 684.944,-230.192 787,-210.212"/>
<polygon fill="midnightblue" stroke="midnightblue" points="787.717,-213.638 796.848,-208.264 786.359,-206.771 787.717,-213.638"/>
</g>
<!-- Node6 -->
<g id="node6" class="node"><title>Node6</title>
<g id="a_node6"><a xlink:href="event_8h.xhtml" target="_top" xlink:title="Contains event classes for fault trees. ">
<polygon fill="white" stroke="black" points="334,-185 334,-204 383,-204 383,-185 334,-185"/>
<text text-anchor="middle" x="358.5" y="-192" font-family="Helvetica,sans-Serif" font-size="10.00">event.h</text>
</a>
</g>
</g>
<!-- Node1&#45;&gt;Node6 -->
<g id="edge5" class="edge"><title>Node1&#45;&gt;Node6</title>
<path fill="none" stroke="midnightblue" d="M481.868,-246.475C457.381,-236.357 416.353,-219.405 388.391,-207.851"/>
<polygon fill="midnightblue" stroke="midnightblue" points="389.672,-204.593 379.093,-204.009 386.999,-211.063 389.672,-204.593"/>
</g>
<!-- Node17 -->
<g id="node17" class="node"><title>Node17</title>
<g id="a_node17"><a xlink:href="parameter_8h.xhtml" target="_top" xlink:title="Parameter expressions that act like a shareable variable. ">
<polygon fill="white" stroke="black" points="104.5,-185 104.5,-204 172.5,-204 172.5,-185 104.5,-185"/>
<text text-anchor="middle" x="138.5" y="-192" font-family="Helvetica,sans-Serif" font-size="10.00">parameter.h</text>
</a>
</g>
</g>
<!-- Node1&#45;&gt;Node17 -->
<g id="edge27" class="edge"><title>Node1&#45;&gt;Node17</title>
<path fill="none" stroke="midnightblue" d="M478.335,-251.05C418.006,-241.188 260.076,-215.373 182.621,-202.712"/>
<polygon fill="midnightblue" stroke="midnightblue" points="183.125,-199.248 172.691,-201.089 181.996,-206.156 183.125,-199.248"/>
</g>
<!-- Node6&#45;&gt;Node2 -->
<g id="edge8" class="edge"><title>Node6&#45;&gt;Node2</title>
<path fill="none" stroke="midnightblue" d="M333.59,-185.966C306.138,-177.243 261.032,-161.658 224.5,-143 169.94,-115.135 161.728,-99.0244 109.5,-67 88.2874,-53.9931 63.6453,-40.1022 45.6761,-30.1881"/>
<polygon fill="midnightblue" stroke="midnightblue" points="46.8942,-26.8641 36.4438,-25.1203 43.5258,-33.0004 46.8942,-26.8641"/>
</g>
<!-- Node6&#45;&gt;Node3 -->
<g id="edge9" class="edge"><title>Node6&#45;&gt;Node3</title>
<path fill="none" stroke="midnightblue" d="M383.01,-190.332C416.624,-185.053 477.826,-172.021 521.5,-143 561.95,-116.121 588.092,-62.755 599.649,-34.7019"/>
<polygon fill="midnightblue" stroke="midnightblue" points="602.945,-35.8843 603.364,-25.2977 596.435,-33.3126 602.945,-35.8843"/>
</g>
<!-- Node7 -->
<g id="node7" class="node"><title>Node7</title>
<polygon fill="white" stroke="#bfbfbf" points="517.5,-6 517.5,-25 563.5,-25 563.5,-6 517.5,-6"/>
<text text-anchor="middle" x="540.5" y="-13" font-family="Helvetica,sans-Serif" font-size="10.00">cstdint</text>
</g>
<!-- Node6&#45;&gt;Node7 -->
<g id="edge6" class="edge"><title>Node6&#45;&gt;Node7</title>
<path fill="none" stroke="midnightblue" d="M383.341,-188.317C426.593,-177.802 514.633,-149.451 551.5,-87 560.915,-71.052 555.582,-49.6876 549.515,-34.6719"/>
<polygon fill="midnightblue" stroke="midnightblue" points="552.658,-33.1258 545.371,-25.4352 546.271,-35.9917 552.658,-33.1258"/>
</g>
<!-- Node8 -->
<g id="node8" class="node"><title>Node8</title>
<polygon fill="white" stroke="#bfbfbf" points="48.5,-67.5 48.5,-86.5 100.5,-86.5 100.5,-67.5 48.5,-67.5"/>
<text text-anchor="middle" x="74.5" y="-74.5" font-family="Helvetica,sans-Serif" font-size="10.00">memory</text>
</g>
<!-- Node6&#45;&gt;Node8 -->
<g id="edge7" class="edge"><title>Node6&#45;&gt;Node8</title>
<path fill="none" stroke="midnightblue" d="M333.941,-190.264C295.771,-184.565 220.565,-170.633 162.5,-143 135.335,-130.072 108.098,-108.259 91.2767,-93.5047"/>
<polygon fill="midnightblue" stroke="midnightblue" points="93.2667,-90.588 83.4853,-86.5168 88.5929,-95.7992 93.2667,-90.588"/>
</g>
<!-- Node9 -->
<g id="node9" class="node"><title>Node9</title>
<polygon fill="white" stroke="#bfbfbf" points="349,-67.5 349,-86.5 466,-86.5 466,-67.5 349,-67.5"/>
<text text-anchor="middle" x="407.5" y="-74.5" font-family="Helvetica,sans-Serif" font-size="10.00">boost/noncopyable.hpp</text>
</g>
<!-- Node6&#45;&gt;Node9 -->
<g id="edge10" class="edge"><title>Node6&#45;&gt;Node9</title>
<path fill="none" stroke="midnightblue" d="M364.774,-184.97C371.675,-175.244 382.687,-158.659 389.5,-143 396.069,-127.901 400.853,-109.776 403.83,-96.5065"/>
<polygon fill="midnightblue" stroke="midnightblue" points="407.264,-97.182 405.906,-86.6746 400.415,-95.7359 407.264,-97.182"/>
</g>
<!-- Node10 -->
<g id="node10" class="node"><title>Node10</title>
<g id="a_node10"><a xlink:href="element_8h.xhtml" target="_top" xlink:title="Helper classes, structs, and properties common to all other classes. ">
<polygon fill="white" stroke="black" points="195,-67.5 195,-86.5 254,-86.5 254,-67.5 195,-67.5"/>
<text text-anchor="middle" x="224.5" y="-74.5" font-family="Helvetica,sans-Serif" font-size="10.00">element.h</text>
</a>
</g>
</g>
<!-- Node6&#45;&gt;Node10 -->
<g id="edge11" class="edge"><title>Node6&#45;&gt;Node10</title>
<path fill="none" stroke="midnightblue" d="M333.78,-190.141C306.008,-185.011 261.664,-172.493 237.5,-143 226.911,-130.076 224.151,-110.904 223.746,-96.7284"/>
<polygon fill="midnightblue" stroke="midnightblue" points="227.247,-96.6717 223.822,-86.6457 220.247,-96.6192 227.247,-96.6717"/>
</g>
<!-- Node14 -->
<g id="node14" class="node"><title>Node14</title>
<g id="a_node14"><a xlink:href="error_8h.xhtml" target="_top" xlink:title="Exceptions for SCRAM. ">
<polygon fill="white" stroke="black" points="336.5,-123.5 336.5,-142.5 380.5,-142.5 380.5,-123.5 336.5,-123.5"/>
<text text-anchor="middle" x="358.5" y="-130.5" font-family="Helvetica,sans-Serif" font-size="10.00">error.h</text>
</a>
</g>
</g>
<!-- Node6&#45;&gt;Node14 -->
<g id="edge18" class="edge"><title>Node6&#45;&gt;Node14</title>
<path fill="none" stroke="midnightblue" d="M358.5,-184.975C358.5,-176.58 358.5,-163.481 358.5,-152.663"/>
<polygon fill="midnightblue" stroke="midnightblue" points="362,-152.509 358.5,-142.509 355,-152.509 362,-152.509"/>
</g>
<!-- Node16 -->
<g id="node16" class="node"><title>Node16</title>
<g id="a_node16"><a xlink:href="expression_8h.xhtml" target="_top" xlink:title="Provides the base class for all expressions and units for expression values. ">
<polygon fill="white" stroke="black" points="246.5,-123.5 246.5,-142.5 318.5,-142.5 318.5,-123.5 246.5,-123.5"/>
<text text-anchor="middle" x="282.5" y="-130.5" font-family="Helvetica,sans-Serif" font-size="10.00">expression.h</text>
</a>
</g>
</g>
<!-- Node6&#45;&gt;Node16 -->
<g id="edge21" class="edge"><title>Node6&#45;&gt;Node16</title>
<path fill="none" stroke="midnightblue" d="M347.611,-184.975C335.534,-175.52 315.833,-160.096 301.26,-148.687"/>
<polygon fill="midnightblue" stroke="midnightblue" points="303.4,-145.918 293.369,-142.509 299.085,-151.429 303.4,-145.918"/>
</g>
<!-- Node10&#45;&gt;Node2 -->
<g id="edge13" class="edge"><title>Node10&#45;&gt;Node2</title>
<path fill="none" stroke="midnightblue" d="M194.922,-69.0975C152.595,-59.0924 76.9368,-40.6997 50.5,-31 49.0744,-30.477 47.6258,-29.9087 46.1738,-29.3101"/>
<polygon fill="midnightblue" stroke="midnightblue" points="47.3077,-25.9824 36.7518,-25.0744 44.4374,-32.367 47.3077,-25.9824"/>
</g>
<!-- Node10&#45;&gt;Node3 -->
<g id="edge14" class="edge"><title>Node10&#45;&gt;Node3</title>
<path fill="none" stroke="midnightblue" d="M254.24,-72.6281C332.82,-63.6516 542.045,-39.293 572.5,-31 574.799,-30.3741 577.146,-29.6247 579.479,-28.801"/>
<polygon fill="midnightblue" stroke="midnightblue" points="580.807,-32.0397 588.83,-25.1209 578.243,-25.5259 580.807,-32.0397"/>
</g>
<!-- Node10&#45;&gt;Node7 -->
<g id="edge12" class="edge"><title>Node10&#45;&gt;Node7</title>
<path fill="none" stroke="midnightblue" d="M254.282,-69.6889C259.03,-68.7461 263.894,-67.8174 268.5,-67 374.268,-48.2303 404.315,-60.867 507.5,-31 509.649,-30.378 511.841,-29.6469 514.023,-28.8494"/>
<polygon fill="midnightblue" stroke="midnightblue" points="515.404,-32.066 523.352,-25.0596 512.77,-25.5808 515.404,-32.066"/>
</g>
<!-- Node11 -->
<g id="node11" class="node"><title>Node11</title>
<polygon fill="white" stroke="#bfbfbf" points="342,-6 342,-25 499,-25 499,-6 342,-6"/>
<text text-anchor="middle" x="420.5" y="-13" font-family="Helvetica,sans-Serif" font-size="10.00">boost/multi_index_container.hpp</text>
</g>
<!-- Node10&#45;&gt;Node11 -->
<g id="edge15" class="edge"><title>Node10&#45;&gt;Node11</title>
<path fill="none" stroke="midnightblue" d="M252.582,-67.4751C286.785,-57.092 344.697,-39.5116 382.77,-27.9538"/>
<polygon fill="midnightblue" stroke="midnightblue" points="383.918,-31.2631 392.47,-25.0091 381.885,-24.5649 383.918,-31.2631"/>
</g>
<!-- Node12 -->
<g id="node12" class="node"><title>Node12</title>
<polygon fill="white" stroke="#bfbfbf" points="59.5,-0.5 59.5,-30.5 187.5,-30.5 187.5,-0.5 59.5,-0.5"/>
<text text-anchor="start" x="67.5" y="-18.5" font-family="Helvetica,sans-Serif" font-size="10.00">boost/multi_index/hashed</text>
<text text-anchor="middle" x="123.5" y="-7.5" font-family="Helvetica,sans-Serif" font-size="10.00">_index.hpp</text>
</g>
<!-- Node10&#45;&gt;Node12 -->
<g id="edge16" class="edge"><title>Node10&#45;&gt;Node12</title>
<path fill="none" stroke="midnightblue" d="M210.029,-67.4751C196.094,-59.266 174.523,-46.5581 156.405,-35.8845"/>
<polygon fill="midnightblue" stroke="midnightblue" points="157.696,-32.5832 147.304,-30.523 154.143,-38.6144 157.696,-32.5832"/>
</g>
<!-- Node13 -->
<g id="node13" class="node"><title>Node13</title>
<polygon fill="white" stroke="#bfbfbf" points="205.5,-0.5 205.5,-30.5 323.5,-30.5 323.5,-0.5 205.5,-0.5"/>
<text text-anchor="start" x="213.5" y="-18.5" font-family="Helvetica,sans-Serif" font-size="10.00">boost/multi_index/mem</text>
<text text-anchor="middle" x="264.5" y="-7.5" font-family="Helvetica,sans-Serif" font-size="10.00">_fun.hpp</text>
</g>
<!-- Node10&#45;&gt;Node13 -->
<g id="edge17" class="edge"><title>Node10&#45;&gt;Node13</title>
<path fill="none" stroke="midnightblue" d="M230.231,-67.4751C235.243,-60.0192 242.751,-48.8519 249.462,-38.8685"/>
<polygon fill="midnightblue" stroke="midnightblue" points="252.398,-40.7747 255.073,-30.523 246.589,-36.8693 252.398,-40.7747"/>
</g>
<!-- Node14&#45;&gt;Node2 -->
<g id="edge20" class="edge"><title>Node14&#45;&gt;Node2</title>
<path fill="none" stroke="midnightblue" d="M336.175,-125.419C333.261,-124.59 330.312,-123.764 327.5,-123 264.672,-105.921 246.841,-108.824 185.5,-87 165.642,-79.9349 161.879,-75.2887 142.5,-67 102.13,-49.733 90.7407,-48.5668 50.5,-31 49.3071,-30.4793 48.0922,-29.938 46.8683,-29.384"/>
<polygon fill="midnightblue" stroke="midnightblue" points="48.0686,-26.0814 37.5279,-25.0116 45.1008,-32.4212 48.0686,-26.0814"/>
</g>
<!-- Node15 -->
<g id="node15" class="node"><title>Node15</title>
<polygon fill="white" stroke="#bfbfbf" points="484,-67.5 484,-86.5 543,-86.5 543,-67.5 484,-67.5"/>
<text text-anchor="middle" x="513.5" y="-74.5" font-family="Helvetica,sans-Serif" font-size="10.00">exception</text>
</g>
<!-- Node14&#45;&gt;Node15 -->
<g id="edge19" class="edge"><title>Node14&#45;&gt;Node15</title>
<path fill="none" stroke="midnightblue" d="M380.708,-124.263C406.504,-115.276 449.353,-100.348 479.383,-89.886"/>
<polygon fill="midnightblue" stroke="midnightblue" points="480.74,-93.1195 489.032,-86.5243 478.437,-86.5092 480.74,-93.1195"/>
</g>
<!-- Node16&#45;&gt;Node3 -->
<g id="edge24" class="edge"><title>Node16&#45;&gt;Node3</title>
<path fill="none" stroke="midnightblue" d="M287.466,-123.092C296.027,-108.66 315.029,-80.4352 339.5,-67 431.352,-16.572 471.745,-59.7769 572.5,-31 574.791,-30.3457 577.132,-29.5763 579.461,-28.7388"/>
<polygon fill="midnightblue" stroke="midnightblue" points="580.8,-31.9732 588.806,-25.0341 578.22,-25.4659 580.8,-31.9732"/>
</g>
<!-- Node16&#45;&gt;Node7 -->
<g id="edge22" class="edge"><title>Node16&#45;&gt;Node7</title>
<path fill="none" stroke="midnightblue" d="M283.054,-123.3C284.449,-109.169 289.346,-81.3655 306.5,-67 376.079,-8.73153 420.682,-57.4392 507.5,-31 509.431,-30.4121 511.399,-29.7421 513.364,-29.0202"/>
<polygon fill="midnightblue" stroke="midnightblue" points="515.032,-32.1204 522.981,-25.1161 512.399,-25.6344 515.032,-32.1204"/>
</g>
<!-- Node16&#45;&gt;Node8 -->
<g id="edge23" class="edge"><title>Node16&#45;&gt;Node8</title>
<path fill="none" stroke="midnightblue" d="M249.542,-123.444C211.686,-113.616 149.775,-97.5427 110.633,-87.3807"/>
<polygon fill="midnightblue" stroke="midnightblue" points="111.277,-83.9319 100.718,-84.8067 109.518,-90.7073 111.277,-83.9319"/>
</g>
<!-- Node16&#45;&gt;Node9 -->
<g id="edge25" class="edge"><title>Node16&#45;&gt;Node9</title>
<path fill="none" stroke="midnightblue" d="M302.307,-123.444C322.787,-114.596 354.983,-100.687 378.365,-90.5865"/>
<polygon fill="midnightblue" stroke="midnightblue" points="379.994,-93.6953 387.786,-86.5164 377.218,-87.2692 379.994,-93.6953"/>
</g>
<!-- Node16&#45;&gt;Node10 -->
<g id="edge26" class="edge"><title>Node16&#45;&gt;Node10</title>
<path fill="none" stroke="midnightblue" d="M273.181,-123.324C264.607,-115.341 251.688,-103.313 241.312,-93.6529"/>
<polygon fill="midnightblue" stroke="midnightblue" points="243.692,-91.0865 233.988,-86.8339 238.922,-96.2098 243.692,-91.0865"/>
</g>
<!-- Node17&#45;&gt;Node2 -->
<g id="edge29" class="edge"><title>Node17&#45;&gt;Node2</title>
<path fill="none" stroke="midnightblue" d="M125.403,-184.899C111.889,-175.614 90.698,-159.873 75.5,-143 55.6978,-121.015 51.4917,-114.049 39.5,-87 32.0409,-70.1749 26.9312,-49.7581 23.9053,-35.2353"/>
<polygon fill="midnightblue" stroke="midnightblue" points="27.2657,-34.1805 21.9201,-25.0331 20.3946,-35.5175 27.2657,-34.1805"/>
</g>
<!-- Node17&#45;&gt;Node8 -->
<g id="edge28" class="edge"><title>Node17&#45;&gt;Node8</title>
<path fill="none" stroke="midnightblue" d="M125.597,-184.672C113.49,-175.659 95.8803,-160.532 86.5,-143 78.8023,-128.613 75.9536,-110.156 74.9422,-96.588"/>
<polygon fill="midnightblue" stroke="midnightblue" points="78.4352,-96.3578 74.4585,-86.5376 71.4433,-96.6943 78.4352,-96.3578"/>
</g>
<!-- Node17&#45;&gt;Node10 -->
<g id="edge30" class="edge"><title>Node17&#45;&gt;Node10</title>
<path fill="none" stroke="midnightblue" d="M144.964,-184.819C159.159,-165.755 193.267,-119.947 211.873,-94.9582"/>
<polygon fill="midnightblue" stroke="midnightblue" points="214.796,-96.8931 217.961,-86.782 209.182,-92.7125 214.796,-96.8931"/>
</g>
<!-- Node17&#45;&gt;Node16 -->
<g id="edge31" class="edge"><title>Node17&#45;&gt;Node16</title>
<path fill="none" stroke="midnightblue" d="M159.132,-184.975C183.619,-174.857 224.647,-157.905 252.609,-146.351"/>
<polygon fill="midnightblue" stroke="midnightblue" points="254.001,-149.563 261.907,-142.509 251.328,-143.093 254.001,-149.563"/>
</g>
</g>
</svg>
