<?xml version="1.0" encoding="UTF-8" standalone="no"?>
<!DOCTYPE svg PUBLIC "-//W3C//DTD SVG 1.1//EN"
 "http://www.w3.org/Graphics/SVG/1.1/DTD/svg11.dtd">
<!-- Generated by graphviz version 2.38.0 (20140413.2041)
 -->
<!-- Title: element.h Pages: 1 -->
<svg width="1792pt" height="476pt"
 viewBox="0.00 0.00 1792.00 476.00" xmlns="http://www.w3.org/2000/svg" xmlns:xlink="http://www.w3.org/1999/xlink">
<g id="graph0" class="graph" transform="scale(1 1) rotate(0) translate(4 472)">
<title>element.h</title>
<polygon fill="white" stroke="none" points="-4,4 -4,-472 1788,-472 1788,4 -4,4"/>
<!-- Node1 -->
<g id="node1" class="node"><title>Node1</title>
<polygon fill="#bfbfbf" stroke="black" points="724.5,-448.5 724.5,-467.5 783.5,-467.5 783.5,-448.5 724.5,-448.5"/>
<text text-anchor="middle" x="754" y="-455.5" font-family="Helvetica,sans-Serif" font-size="10.00">element.h</text>
</g>
<!-- Node2 -->
<g id="node2" class="node"><title>Node2</title>
<g id="a_node2"><a xlink:href="ccf__group_8h.xhtml" target="_top" xlink:title="Functional containers for basic events grouped by common cause failure. ">
<polygon fill="white" stroke="black" points="911,-280.5 911,-299.5 979,-299.5 979,-280.5 911,-280.5"/>
<text text-anchor="middle" x="945" y="-287.5" font-family="Helvetica,sans-Serif" font-size="10.00">ccf_group.h</text>
</a>
</g>
</g>
<!-- Node1&#45;&gt;Node2 -->
<g id="edge1" class="edge"><title>Node1&#45;&gt;Node2</title>
<path fill="none" stroke="midnightblue" d="M771.983,-441.371C811.446,-407.073 904.549,-326.157 935.099,-299.605"/>
<polygon fill="midnightblue" stroke="midnightblue" points="769.252,-439.107 764,-448.309 773.844,-444.391 769.252,-439.107"/>
</g>
<!-- Node4 -->
<g id="node4" class="node"><title>Node4</title>
<g id="a_node4"><a xlink:href="fault__tree_8h.xhtml" target="_top" xlink:title="Fault Tree and Component containers. ">
<polygon fill="white" stroke="black" points="620.5,-224.5 620.5,-243.5 685.5,-243.5 685.5,-224.5 620.5,-224.5"/>
<text text-anchor="middle" x="653" y="-231.5" font-family="Helvetica,sans-Serif" font-size="10.00">fault_tree.h</text>
</a>
</g>
</g>
<!-- Node1&#45;&gt;Node4 -->
<g id="edge73" class="edge"><title>Node1&#45;&gt;Node4</title>
<path fill="none" stroke="midnightblue" d="M714.136,-454.113C634.217,-445.925 455.525,-414.999 379,-300 374.076,-292.6 373.246,-286.776 379,-280 409.657,-243.897 554.685,-236.705 620.444,-235.312"/>
<polygon fill="midnightblue" stroke="midnightblue" points="713.997,-457.616 724.285,-455.084 714.664,-450.647 713.997,-457.616"/>
</g>
<!-- Node6 -->
<g id="node6" class="node"><title>Node6</title>
<g id="a_node6"><a xlink:href="initializer_8h.xhtml" target="_top" xlink:title="A facility that processes input files into analysis constructs. ">
<polygon fill="white" stroke="black" points="703.5,-112.5 703.5,-131.5 766.5,-131.5 766.5,-112.5 703.5,-112.5"/>
<text text-anchor="middle" x="735" y="-119.5" font-family="Helvetica,sans-Serif" font-size="10.00">initializer.h</text>
</a>
</g>
</g>
<!-- Node1&#45;&gt;Node6 -->
<g id="edge74" class="edge"><title>Node1&#45;&gt;Node6</title>
<path fill="none" stroke="midnightblue" d="M714.45,-457.605C624.815,-456.496 410.876,-439.041 371,-300 329.834,-156.464 607.817,-129.262 703.476,-124.162"/>
<polygon fill="midnightblue" stroke="midnightblue" points="714.473,-461.105 724.494,-457.666 714.516,-454.105 714.473,-461.105"/>
</g>
<!-- Node9 -->
<g id="node9" class="node"><title>Node9</title>
<g id="a_node9"><a xlink:href="model_8h.xhtml" target="_top" xlink:title="Representation for a model container for risk analysis. ">
<polygon fill="white" stroke="black" points="240.5,-168.5 240.5,-187.5 291.5,-187.5 291.5,-168.5 240.5,-168.5"/>
<text text-anchor="middle" x="266" y="-175.5" font-family="Helvetica,sans-Serif" font-size="10.00">model.h</text>
</a>
</g>
</g>
<!-- Node1&#45;&gt;Node9 -->
<g id="edge75" class="edge"><title>Node1&#45;&gt;Node9</title>
<path fill="none" stroke="midnightblue" d="M714.155,-456.173C594.533,-453.368 239.956,-442.625 129,-412 67.1138,-394.918 0,-411.2 0,-347 0,-347 0,-347 0,-289 0,-185.555 173.917,-177.479 240.495,-178.178"/>
<polygon fill="midnightblue" stroke="midnightblue" points="714.253,-459.676 724.331,-456.405 714.413,-452.678 714.253,-459.676"/>
</g>
<!-- Node15 -->
<g id="node15" class="node"><title>Node15</title>
<g id="a_node15"><a xlink:href="event_8h.xhtml" target="_top" xlink:title="Contains event classes for fault trees. ">
<polygon fill="white" stroke="black" points="729.5,-336.5 729.5,-355.5 778.5,-355.5 778.5,-336.5 729.5,-336.5"/>
<text text-anchor="middle" x="754" y="-343.5" font-family="Helvetica,sans-Serif" font-size="10.00">event.h</text>
</a>
</g>
</g>
<!-- Node1&#45;&gt;Node15 -->
<g id="edge22" class="edge"><title>Node1&#45;&gt;Node15</title>
<path fill="none" stroke="midnightblue" d="M754,-438.348C754,-414.254 754,-373.308 754,-355.591"/>
<polygon fill="midnightblue" stroke="midnightblue" points="750.5,-438.368 754,-448.368 757.5,-438.369 750.5,-438.368"/>
</g>
<!-- Node24 -->
<g id="node24" class="node"><title>Node24</title>
<g id="a_node24"><a xlink:href="expression_8h.xhtml" target="_top" xlink:title="Provides the base class for all expressions and units for expression values. ">
<polygon fill="white" stroke="black" points="1098,-392.5 1098,-411.5 1170,-411.5 1170,-392.5 1098,-392.5"/>
<text text-anchor="middle" x="1134" y="-399.5" font-family="Helvetica,sans-Serif" font-size="10.00">expression.h</text>
</a>
</g>
</g>
<!-- Node1&#45;&gt;Node24 -->
<g id="edge38" class="edge"><title>Node1&#45;&gt;Node24</title>
<path fill="none" stroke="midnightblue" d="M793.828,-451.34C868.102,-440.785 1026.67,-418.252 1097.96,-408.121"/>
<polygon fill="midnightblue" stroke="midnightblue" points="792.91,-447.935 783.502,-452.808 793.895,-454.866 792.91,-447.935"/>
</g>
<!-- Node29 -->
<g id="node29" class="node"><title>Node29</title>
<g id="a_node29"><a xlink:href="parameter_8h.xhtml" target="_top" xlink:title="Parameter expressions that act like a shareable variable. ">
<polygon fill="white" stroke="black" points="1173,-280.5 1173,-299.5 1241,-299.5 1241,-280.5 1173,-280.5"/>
<text text-anchor="middle" x="1207" y="-287.5" font-family="Helvetica,sans-Serif" font-size="10.00">parameter.h</text>
</a>
</g>
</g>
<!-- Node1&#45;&gt;Node29 -->
<g id="edge70" class="edge"><title>Node1&#45;&gt;Node29</title>
<path fill="none" stroke="midnightblue" d="M787.045,-444.891C874.232,-412.942 1108.91,-326.944 1183.74,-299.524"/>
<polygon fill="midnightblue" stroke="midnightblue" points="785.587,-441.698 777.401,-448.425 787.995,-448.27 785.587,-441.698"/>
</g>
<!-- Node31 -->
<g id="node31" class="node"><title>Node31</title>
<g id="a_node31"><a xlink:href="event__tree_8h.xhtml" target="_top" xlink:title="Event Tree facilities. ">
<polygon fill="white" stroke="black" points="70.5,-336.5 70.5,-355.5 141.5,-355.5 141.5,-336.5 70.5,-336.5"/>
<text text-anchor="middle" x="106" y="-343.5" font-family="Helvetica,sans-Serif" font-size="10.00">event_tree.h</text>
</a>
</g>
</g>
<!-- Node1&#45;&gt;Node31 -->
<g id="edge72" class="edge"><title>Node1&#45;&gt;Node31</title>
<path fill="none" stroke="midnightblue" d="M714.118,-455.876C588.258,-452.069 204.903,-438.406 156,-412 132.448,-399.283 116.523,-370.189 109.724,-355.63"/>
<polygon fill="midnightblue" stroke="midnightblue" points="714.352,-459.384 724.452,-456.183 714.56,-452.387 714.352,-459.384"/>
</g>
<!-- Node38 -->
<g id="node38" class="node"><title>Node38</title>
<g id="a_node38"><a xlink:href="element_8cc.xhtml" target="_top" xlink:title="Implementation of helper features for all elements of the analysis. ">
<polygon fill="white" stroke="black" points="1188.5,-392.5 1188.5,-411.5 1253.5,-411.5 1253.5,-392.5 1188.5,-392.5"/>
<text text-anchor="middle" x="1221" y="-399.5" font-family="Helvetica,sans-Serif" font-size="10.00">element.cc</text>
</a>
</g>
</g>
<!-- Node1&#45;&gt;Node38 -->
<g id="edge71" class="edge"><title>Node1&#45;&gt;Node38</title>
<path fill="none" stroke="midnightblue" d="M793.501,-454.219C868.811,-448.606 1037.99,-434.508 1179,-412 1181.95,-411.53 1185,-410.987 1188.05,-410.405"/>
<polygon fill="midnightblue" stroke="midnightblue" points="793.227,-450.729 783.511,-454.954 793.741,-457.71 793.227,-450.729"/>
</g>
<!-- Node3 -->
<g id="node3" class="node"><title>Node3</title>
<g id="a_node3"><a xlink:href="ccf__group_8cc.xhtml" target="_top" xlink:title="Implementation of various common cause failure models. ">
<polygon fill="white" stroke="black" points="1407.5,-224.5 1407.5,-243.5 1480.5,-243.5 1480.5,-224.5 1407.5,-224.5"/>
<text text-anchor="middle" x="1444" y="-231.5" font-family="Helvetica,sans-Serif" font-size="10.00">ccf_group.cc</text>
</a>
</g>
</g>
<!-- Node2&#45;&gt;Node3 -->
<g id="edge2" class="edge"><title>Node2&#45;&gt;Node3</title>
<path fill="none" stroke="midnightblue" d="M989.422,-283.949C1001.3,-282.63 1014.14,-281.233 1026,-280 1191.22,-262.828 1233.63,-267.975 1398,-244 1401.06,-243.554 1404.22,-243.042 1407.4,-242.493"/>
<polygon fill="midnightblue" stroke="midnightblue" points="988.827,-280.494 979.277,-285.083 989.604,-287.451 988.827,-280.494"/>
</g>
<!-- Node2&#45;&gt;Node4 -->
<g id="edge3" class="edge"><title>Node2&#45;&gt;Node4</title>
<path fill="none" stroke="midnightblue" d="M900.774,-280.821C841.595,-269.877 738.025,-250.724 685.511,-241.012"/>
<polygon fill="midnightblue" stroke="midnightblue" points="900.463,-284.323 910.932,-282.7 901.736,-277.44 900.463,-284.323"/>
</g>
<!-- Node2&#45;&gt;Node6 -->
<g id="edge19" class="edge"><title>Node2&#45;&gt;Node6</title>
<path fill="none" stroke="midnightblue" d="M900.75,-280.205C861.666,-271.696 808.407,-258.054 792,-244 773.483,-228.138 746.989,-156.877 738.066,-131.78"/>
<polygon fill="midnightblue" stroke="midnightblue" points="900.342,-283.697 910.852,-282.36 901.803,-276.851 900.342,-283.697"/>
</g>
<!-- Node2&#45;&gt;Node9 -->
<g id="edge20" class="edge"><title>Node2&#45;&gt;Node9</title>
<path fill="none" stroke="midnightblue" d="M900.625,-283.771C836.538,-276.049 714.413,-260.697 611,-244 491.261,-224.668 349.208,-196.114 291.886,-184.357"/>
<polygon fill="midnightblue" stroke="midnightblue" points="900.429,-287.272 910.775,-284.988 901.263,-280.322 900.429,-287.272"/>
</g>
<!-- Node12 -->
<g id="node12" class="node"><title>Node12</title>
<g id="a_node12"><a xlink:href="reporter_8cc.xhtml" target="_top" xlink:title="Implements Reporter class. ">
<polygon fill="white" stroke="black" points="913.5,-0.5 913.5,-19.5 976.5,-19.5 976.5,-0.5 913.5,-0.5"/>
<text text-anchor="middle" x="945" y="-7.5" font-family="Helvetica,sans-Serif" font-size="10.00">reporter.cc</text>
</a>
</g>
</g>
<!-- Node2&#45;&gt;Node12 -->
<g id="edge21" class="edge"><title>Node2&#45;&gt;Node12</title>
<path fill="none" stroke="midnightblue" d="M945,-270.251C945,-248.357 945,-211.052 945,-179 945,-179 945,-179 945,-121 945,-83.1875 945,-38.0636 945,-19.5578"/>
<polygon fill="midnightblue" stroke="midnightblue" points="941.5,-270.442 945,-280.442 948.5,-270.442 941.5,-270.442"/>
</g>
<!-- Node5 -->
<g id="node5" class="node"><title>Node5</title>
<g id="a_node5"><a xlink:href="fault__tree_8cc.xhtml" target="_top" xlink:title="Implementation of fault tree and component containers. ">
<polygon fill="white" stroke="black" points="597.5,-168.5 597.5,-187.5 668.5,-187.5 668.5,-168.5 597.5,-168.5"/>
<text text-anchor="middle" x="633" y="-175.5" font-family="Helvetica,sans-Serif" font-size="10.00">fault_tree.cc</text>
</a>
</g>
</g>
<!-- Node4&#45;&gt;Node5 -->
<g id="edge4" class="edge"><title>Node4&#45;&gt;Node5</title>
<path fill="none" stroke="midnightblue" d="M646.218,-214.69C642.848,-205.589 638.931,-195.014 636.241,-187.751"/>
<polygon fill="midnightblue" stroke="midnightblue" points="642.942,-215.921 649.697,-224.083 649.506,-213.49 642.942,-215.921"/>
</g>
<!-- Node4&#45;&gt;Node6 -->
<g id="edge5" class="edge"><title>Node4&#45;&gt;Node6</title>
<path fill="none" stroke="midnightblue" d="M665.47,-216.272C683.195,-192.494 715.03,-149.789 728.595,-131.591"/>
<polygon fill="midnightblue" stroke="midnightblue" points="662.605,-214.259 659.434,-224.368 668.217,-218.443 662.605,-214.259"/>
</g>
<!-- Node4&#45;&gt;Node9 -->
<g id="edge8" class="edge"><title>Node4&#45;&gt;Node9</title>
<path fill="none" stroke="midnightblue" d="M610.024,-227.003C529.204,-215.726 356.857,-191.678 291.684,-182.584"/>
<polygon fill="midnightblue" stroke="midnightblue" points="609.95,-230.527 620.338,-228.443 610.918,-223.594 609.95,-230.527"/>
</g>
<!-- Node14 -->
<g id="node14" class="node"><title>Node14</title>
<g id="a_node14"><a xlink:href="risk__analysis_8cc.xhtml" target="_top" xlink:title="Implementation of risk analysis handler. ">
<polygon fill="white" stroke="black" points="431.5,-56.5 431.5,-75.5 518.5,-75.5 518.5,-56.5 431.5,-56.5"/>
<text text-anchor="middle" x="475" y="-63.5" font-family="Helvetica,sans-Serif" font-size="10.00">risk_analysis.cc</text>
</a>
</g>
</g>
<!-- Node4&#45;&gt;Node14 -->
<g id="edge18" class="edge"><title>Node4&#45;&gt;Node14</title>
<path fill="none" stroke="midnightblue" d="M630.209,-218.945C617.326,-210.585 601.204,-199.408 588,-188 543.848,-149.854 498.664,-96.1202 481.847,-75.5063"/>
<polygon fill="midnightblue" stroke="midnightblue" points="628.616,-222.08 638.931,-224.498 632.375,-216.175 628.616,-222.08"/>
</g>
<!-- Node7 -->
<g id="node7" class="node"><title>Node7</title>
<g id="a_node7"><a xlink:href="initializer_8cc.xhtml" target="_top" xlink:title="Implementation of input file processing into analysis constructs. ">
<polygon fill="white" stroke="black" points="1566,-56.5 1566,-75.5 1634,-75.5 1634,-56.5 1566,-56.5"/>
<text text-anchor="middle" x="1600" y="-63.5" font-family="Helvetica,sans-Serif" font-size="10.00">initializer.cc</text>
</a>
</g>
</g>
<!-- Node6&#45;&gt;Node7 -->
<g id="edge6" class="edge"><title>Node6&#45;&gt;Node7</title>
<path fill="none" stroke="midnightblue" d="M776.64,-118.4C925.383,-109.115 1428.87,-77.6832 1565.53,-69.1519"/>
<polygon fill="midnightblue" stroke="midnightblue" points="776.316,-114.914 766.554,-119.03 776.752,-121.9 776.316,-114.914"/>
</g>
<!-- Node8 -->
<g id="node8" class="node"><title>Node8</title>
<g id="a_node8"><a xlink:href="scram_8cc.xhtml" target="_top" xlink:title="Main entrance. ">
<polygon fill="white" stroke="black" points="324.5,-0.5 324.5,-19.5 381.5,-19.5 381.5,-0.5 324.5,-0.5"/>
<text text-anchor="middle" x="353" y="-7.5" font-family="Helvetica,sans-Serif" font-size="10.00">scram.cc</text>
</a>
</g>
</g>
<!-- Node6&#45;&gt;Node8 -->
<g id="edge7" class="edge"><title>Node6&#45;&gt;Node8</title>
<path fill="none" stroke="midnightblue" d="M699.59,-109.343C658.325,-95.8971 588.002,-73.408 527,-56 476.143,-41.4869 416.352,-26.4648 381.753,-17.9701"/>
<polygon fill="midnightblue" stroke="midnightblue" points="698.59,-112.699 709.183,-112.477 700.764,-106.045 698.59,-112.699"/>
</g>
<!-- Node9&#45;&gt;Node6 -->
<g id="edge9" class="edge"><title>Node9&#45;&gt;Node6</title>
<path fill="none" stroke="midnightblue" d="M301.589,-168.77C303.076,-168.496 304.551,-168.238 306,-168 453.608,-143.738 632.053,-129.941 703.345,-125.049"/>
<polygon fill="midnightblue" stroke="midnightblue" points="300.851,-165.348 291.734,-170.745 302.227,-172.211 300.851,-165.348"/>
</g>
<!-- Node10 -->
<g id="node10" class="node"><title>Node10</title>
<g id="a_node10"><a xlink:href="model_8cc.xhtml" target="_top" xlink:title="Implementation of functions in Model class. ">
<polygon fill="white" stroke="black" points="238,-112.5 238,-131.5 294,-131.5 294,-112.5 238,-112.5"/>
<text text-anchor="middle" x="266" y="-119.5" font-family="Helvetica,sans-Serif" font-size="10.00">model.cc</text>
</a>
</g>
</g>
<!-- Node9&#45;&gt;Node10 -->
<g id="edge10" class="edge"><title>Node9&#45;&gt;Node10</title>
<path fill="none" stroke="midnightblue" d="M266,-157.805C266,-148.91 266,-138.78 266,-131.751"/>
<polygon fill="midnightblue" stroke="midnightblue" points="262.5,-158.083 266,-168.083 269.5,-158.083 262.5,-158.083"/>
</g>
<!-- Node11 -->
<g id="node11" class="node"><title>Node11</title>
<g id="a_node11"><a xlink:href="reporter_8h.xhtml" target="_top" xlink:title="Reporter of results. ">
<polygon fill="white" stroke="black" points="324,-56.5 324,-75.5 382,-75.5 382,-56.5 324,-56.5"/>
<text text-anchor="middle" x="353" y="-63.5" font-family="Helvetica,sans-Serif" font-size="10.00">reporter.h</text>
</a>
</g>
</g>
<!-- Node9&#45;&gt;Node11 -->
<g id="edge11" class="edge"><title>Node9&#45;&gt;Node11</title>
<path fill="none" stroke="midnightblue" d="M279.573,-160.752C286.627,-152.242 295.35,-141.618 303,-132 318.775,-112.167 336.786,-88.4891 346.297,-75.9019"/>
<polygon fill="midnightblue" stroke="midnightblue" points="276.882,-158.515 273.177,-168.441 282.263,-162.992 276.882,-158.515"/>
</g>
<!-- Node13 -->
<g id="node13" class="node"><title>Node13</title>
<g id="a_node13"><a xlink:href="risk__analysis_8h.xhtml" target="_top" xlink:title="Contains the main system for performing analysis. ">
<polygon fill="white" stroke="black" points="138,-112.5 138,-131.5 220,-131.5 220,-112.5 138,-112.5"/>
<text text-anchor="middle" x="179" y="-119.5" font-family="Helvetica,sans-Serif" font-size="10.00">risk_analysis.h</text>
</a>
</g>
</g>
<!-- Node9&#45;&gt;Node13 -->
<g id="edge14" class="edge"><title>Node9&#45;&gt;Node13</title>
<path fill="none" stroke="midnightblue" d="M243.284,-162.901C227.331,-152.999 206.503,-140.071 192.943,-131.655"/>
<polygon fill="midnightblue" stroke="midnightblue" points="241.68,-166.024 252.022,-168.324 245.371,-160.077 241.68,-166.024"/>
</g>
<!-- Node11&#45;&gt;Node8 -->
<g id="edge13" class="edge"><title>Node11&#45;&gt;Node8</title>
<path fill="none" stroke="midnightblue" d="M353,-45.8045C353,-36.9102 353,-26.7798 353,-19.7511"/>
<polygon fill="midnightblue" stroke="midnightblue" points="349.5,-46.083 353,-56.083 356.5,-46.083 349.5,-46.083"/>
</g>
<!-- Node11&#45;&gt;Node12 -->
<g id="edge12" class="edge"><title>Node11&#45;&gt;Node12</title>
<path fill="none" stroke="midnightblue" d="M392.355,-59.5636C402.038,-58.3097 412.386,-57.0401 422,-56 607.968,-35.881 831.926,-19.0964 913.413,-13.2323"/>
<polygon fill="midnightblue" stroke="midnightblue" points="391.632,-56.1286 382.175,-60.9064 392.547,-63.0685 391.632,-56.1286"/>
</g>
<!-- Node13&#45;&gt;Node8 -->
<g id="edge17" class="edge"><title>Node13&#45;&gt;Node8</title>
<path fill="none" stroke="midnightblue" d="M201.132,-107.009C237.655,-83.919 309.484,-38.5104 339.41,-19.5914"/>
<polygon fill="midnightblue" stroke="midnightblue" points="199.236,-104.066 192.653,-112.368 202.976,-109.983 199.236,-104.066"/>
</g>
<!-- Node13&#45;&gt;Node11 -->
<g id="edge15" class="edge"><title>Node13&#45;&gt;Node11</title>
<path fill="none" stroke="midnightblue" d="M216.261,-109.436C249.067,-99.2551 296.083,-84.664 325.558,-75.5164"/>
<polygon fill="midnightblue" stroke="midnightblue" points="215.084,-106.137 206.571,-112.444 217.159,-112.822 215.084,-106.137"/>
</g>
<!-- Node13&#45;&gt;Node14 -->
<g id="edge16" class="edge"><title>Node13&#45;&gt;Node14</title>
<path fill="none" stroke="midnightblue" d="M230.004,-111.695C286.8,-101.334 377.65,-84.7597 431.304,-74.9715"/>
<polygon fill="midnightblue" stroke="midnightblue" points="229.367,-108.254 220.158,-113.492 230.623,-115.14 229.367,-108.254"/>
</g>
<!-- Node15&#45;&gt;Node2 -->
<g id="edge23" class="edge"><title>Node15&#45;&gt;Node2</title>
<path fill="none" stroke="midnightblue" d="M788.635,-335.208C824.684,-325.016 880.57,-309.216 914.856,-299.522"/>
<polygon fill="midnightblue" stroke="midnightblue" points="787.249,-331.962 778.579,-338.051 789.154,-338.698 787.249,-331.962"/>
</g>
<!-- Node15&#45;&gt;Node4 -->
<g id="edge28" class="edge"><title>Node15&#45;&gt;Node4</title>
<path fill="none" stroke="midnightblue" d="M745.637,-326.881C738.695,-313.062 727.893,-294.073 715,-280 701.163,-264.898 681.538,-251.681 668.095,-243.546"/>
<polygon fill="midnightblue" stroke="midnightblue" points="742.669,-328.784 750.164,-336.273 748.975,-325.745 742.669,-328.784"/>
</g>
<!-- Node15&#45;&gt;Node6 -->
<g id="edge31" class="edge"><title>Node15&#45;&gt;Node6</title>
<path fill="none" stroke="midnightblue" d="M788.629,-338.82C828.324,-330.108 885.332,-311.64 864,-280 840.147,-244.621 805.921,-273.403 775,-244 742.132,-212.745 736.254,-153.955 735.217,-131.772"/>
<polygon fill="midnightblue" stroke="midnightblue" points="787.8,-335.417 778.72,-340.875 789.222,-342.271 787.8,-335.417"/>
</g>
<!-- Node15&#45;&gt;Node9 -->
<g id="edge32" class="edge"><title>Node15&#45;&gt;Node9</title>
<path fill="none" stroke="midnightblue" d="M719.235,-344.886C632.363,-344.022 408.325,-338.06 346,-300 301.511,-272.831 276.663,-210.487 268.781,-187.616"/>
<polygon fill="midnightblue" stroke="midnightblue" points="719.338,-348.387 729.367,-344.969 719.396,-341.387 719.338,-348.387"/>
</g>
<!-- Node15&#45;&gt;Node11 -->
<g id="edge35" class="edge"><title>Node15&#45;&gt;Node11</title>
<path fill="none" stroke="midnightblue" d="M719.085,-345.544C636.024,-346.114 429.803,-343.045 379,-300 356.037,-280.543 360,-265.098 360,-235 360,-235 360,-235 360,-177 360,-139.111 355.813,-94.0289 353.915,-75.546"/>
<polygon fill="midnightblue" stroke="midnightblue" points="719.306,-349.042 729.274,-345.451 719.243,-342.042 719.306,-349.042"/>
</g>
<!-- Node15&#45;&gt;Node13 -->
<g id="edge36" class="edge"><title>Node15&#45;&gt;Node13</title>
<path fill="none" stroke="midnightblue" d="M719.298,-344.838C628.777,-343.88 387.731,-337.756 319,-300 244.827,-259.254 196.153,-161.258 182.753,-131.629"/>
<polygon fill="midnightblue" stroke="midnightblue" points="719.291,-348.338 729.322,-344.929 719.355,-341.338 719.291,-348.338"/>
</g>
<!-- Node16 -->
<g id="node16" class="node"><title>Node16</title>
<g id="a_node16"><a xlink:href="cycle_8h.xhtml" target="_top" xlink:title="Validation facilities to detect and print cycles in graphs. ">
<polygon fill="white" stroke="black" points="1049,-224.5 1049,-243.5 1097,-243.5 1097,-224.5 1049,-224.5"/>
<text text-anchor="middle" x="1073" y="-231.5" font-family="Helvetica,sans-Serif" font-size="10.00">cycle.h</text>
</a>
</g>
</g>
<!-- Node15&#45;&gt;Node16 -->
<g id="edge24" class="edge"><title>Node15&#45;&gt;Node16</title>
<path fill="none" stroke="midnightblue" d="M788.667,-343.299C835.702,-339.904 921.494,-329.813 988,-300 1019.53,-285.866 1050.11,-257.957 1064.48,-243.752"/>
<polygon fill="midnightblue" stroke="midnightblue" points="788.432,-339.807 778.685,-343.96 788.894,-346.791 788.432,-339.807"/>
</g>
<!-- Node18 -->
<g id="node18" class="node"><title>Node18</title>
<g id="a_node18"><a xlink:href="event_8cc.xhtml" target="_top" xlink:title="Implementation of Event Class and its derived classes. ">
<polygon fill="white" stroke="black" points="801,-280.5 801,-299.5 855,-299.5 855,-280.5 801,-280.5"/>
<text text-anchor="middle" x="828" y="-287.5" font-family="Helvetica,sans-Serif" font-size="10.00">event.cc</text>
</a>
</g>
</g>
<!-- Node15&#45;&gt;Node18 -->
<g id="edge27" class="edge"><title>Node15&#45;&gt;Node18</title>
<path fill="none" stroke="midnightblue" d="M774.034,-330.38C787.409,-320.62 804.559,-308.106 815.894,-299.834"/>
<polygon fill="midnightblue" stroke="midnightblue" points="771.904,-327.602 765.889,-336.324 776.03,-333.257 771.904,-327.602"/>
</g>
<!-- Node19 -->
<g id="node19" class="node"><title>Node19</title>
<g id="a_node19"><a xlink:href="fault__tree__analysis_8cc.xhtml" target="_top" xlink:title="Implementation of fault tree analysis. ">
<polygon fill="white" stroke="black" points="388,-280.5 388,-299.5 500,-299.5 500,-280.5 388,-280.5"/>
<text text-anchor="middle" x="444" y="-287.5" font-family="Helvetica,sans-Serif" font-size="10.00">fault_tree_analysis.cc</text>
</a>
</g>
</g>
<!-- Node15&#45;&gt;Node19 -->
<g id="edge29" class="edge"><title>Node15&#45;&gt;Node19</title>
<path fill="none" stroke="midnightblue" d="M719.429,-338.978C664.221,-329.361 555.963,-310.503 492.862,-299.511"/>
<polygon fill="midnightblue" stroke="midnightblue" points="718.963,-342.449 729.416,-340.718 720.165,-335.553 718.963,-342.449"/>
</g>
<!-- Node20 -->
<g id="node20" class="node"><title>Node20</title>
<g id="a_node20"><a xlink:href="importance__analysis_8cc.xhtml" target="_top" xlink:title="Implementations of functions to provide quantitative importance informations. ">
<polygon fill="white" stroke="black" points="518.5,-280.5 518.5,-299.5 637.5,-299.5 637.5,-280.5 518.5,-280.5"/>
<text text-anchor="middle" x="578" y="-287.5" font-family="Helvetica,sans-Serif" font-size="10.00">importance_analysis.cc</text>
</a>
</g>
</g>
<!-- Node15&#45;&gt;Node20 -->
<g id="edge30" class="edge"><title>Node15&#45;&gt;Node20</title>
<path fill="none" stroke="midnightblue" d="M719.414,-334.388C686.208,-324.2 636.68,-309.004 605.911,-299.564"/>
<polygon fill="midnightblue" stroke="midnightblue" points="718.57,-337.79 729.157,-337.378 720.623,-331.098 718.57,-337.79"/>
</g>
<!-- Node21 -->
<g id="node21" class="node"><title>Node21</title>
<g id="a_node21"><a xlink:href="pdag_8cc.xhtml" target="_top" xlink:title="Implementation of a Propositional Directed Acyclic Graph with indexed nodes, variables, and gates. ">
<polygon fill="white" stroke="black" points="655.5,-280.5 655.5,-299.5 706.5,-299.5 706.5,-280.5 655.5,-280.5"/>
<text text-anchor="middle" x="681" y="-287.5" font-family="Helvetica,sans-Serif" font-size="10.00">pdag.cc</text>
</a>
</g>
</g>
<!-- Node15&#45;&gt;Node21 -->
<g id="edge33" class="edge"><title>Node15&#45;&gt;Node21</title>
<path fill="none" stroke="midnightblue" d="M733.858,-330.101C720.721,-320.382 704.018,-308.027 692.942,-299.834"/>
<polygon fill="midnightblue" stroke="midnightblue" points="732.15,-333.191 742.271,-336.324 736.313,-327.563 732.15,-333.191"/>
</g>
<!-- Node22 -->
<g id="node22" class="node"><title>Node22</title>
<g id="a_node22"><a xlink:href="probability__analysis_8cc.xhtml" target="_top" xlink:title="Implementations of functions to provide probability analysis. ">
<polygon fill="white" stroke="black" points="801,-224.5 801,-243.5 917,-243.5 917,-224.5 801,-224.5"/>
<text text-anchor="middle" x="859" y="-231.5" font-family="Helvetica,sans-Serif" font-size="10.00">probability_analysis.cc</text>
</a>
</g>
</g>
<!-- Node15&#45;&gt;Node22 -->
<g id="edge34" class="edge"><title>Node15&#45;&gt;Node22</title>
<path fill="none" stroke="midnightblue" d="M761.913,-326.737C768.55,-312.841 779.019,-293.817 792,-280 806.583,-264.477 827.469,-251.524 842.032,-243.56"/>
<polygon fill="midnightblue" stroke="midnightblue" points="758.566,-325.641 757.607,-336.193 764.937,-328.543 758.566,-325.641"/>
</g>
<!-- Node23 -->
<g id="node23" class="node"><title>Node23</title>
<g id="a_node23"><a xlink:href="uncertainty__analysis_8cc.xhtml" target="_top" xlink:title="Implements the functionality to run Monte Carlo simulations. ">
<polygon fill="white" stroke="black" points="1035.5,-280.5 1035.5,-299.5 1154.5,-299.5 1154.5,-280.5 1035.5,-280.5"/>
<text text-anchor="middle" x="1095" y="-287.5" font-family="Helvetica,sans-Serif" font-size="10.00">uncertainty_analysis.cc</text>
</a>
</g>
</g>
<!-- Node15&#45;&gt;Node23 -->
<g id="edge37" class="edge"><title>Node15&#45;&gt;Node23</title>
<path fill="none" stroke="midnightblue" d="M788.542,-339.53C848.069,-330.103 970.389,-310.733 1041.17,-299.525"/>
<polygon fill="midnightblue" stroke="midnightblue" points="787.853,-336.095 778.524,-341.116 788.948,-343.009 787.853,-336.095"/>
</g>
<!-- Node16&#45;&gt;Node7 -->
<g id="edge26" class="edge"><title>Node16&#45;&gt;Node7</title>
<path fill="none" stroke="midnightblue" d="M1106.63,-222.406C1203.87,-191.777 1484.04,-103.527 1572.73,-75.5889"/>
<polygon fill="midnightblue" stroke="midnightblue" points="1105.5,-219.093 1097.01,-225.436 1107.6,-225.77 1105.5,-219.093"/>
</g>
<!-- Node17 -->
<g id="node17" class="node"><title>Node17</title>
<g id="a_node17"><a xlink:href="cycle_8cc.xhtml" target="_top" xlink:title="Implementation of helper facilities to work with cycles. ">
<polygon fill="white" stroke="black" points="1046.5,-168.5 1046.5,-187.5 1099.5,-187.5 1099.5,-168.5 1046.5,-168.5"/>
<text text-anchor="middle" x="1073" y="-175.5" font-family="Helvetica,sans-Serif" font-size="10.00">cycle.cc</text>
</a>
</g>
</g>
<!-- Node16&#45;&gt;Node17 -->
<g id="edge25" class="edge"><title>Node16&#45;&gt;Node17</title>
<path fill="none" stroke="midnightblue" d="M1073,-213.805C1073,-204.91 1073,-194.78 1073,-187.751"/>
<polygon fill="midnightblue" stroke="midnightblue" points="1069.5,-214.083 1073,-224.083 1076.5,-214.083 1069.5,-214.083"/>
</g>
<!-- Node24&#45;&gt;Node2 -->
<g id="edge40" class="edge"><title>Node24&#45;&gt;Node2</title>
<path fill="none" stroke="midnightblue" d="M1110.46,-387.301C1070.95,-364.304 992.406,-318.591 959.762,-299.591"/>
<polygon fill="midnightblue" stroke="midnightblue" points="1108.77,-390.363 1119.17,-392.368 1112.29,-384.313 1108.77,-390.363"/>
</g>
<!-- Node24&#45;&gt;Node6 -->
<g id="edge68" class="edge"><title>Node24&#45;&gt;Node6</title>
<path fill="none" stroke="midnightblue" d="M1176.36,-389.558C1205.05,-380.874 1239.27,-368.357 1248,-356 1284.21,-304.77 1246.4,-263.909 1198,-224 1161.65,-194.03 1152.44,-183.637 1108,-168 987.404,-125.567 832.825,-121.731 766.99,-122.264"/>
<polygon fill="midnightblue" stroke="midnightblue" points="1175.1,-386.281 1166.49,-392.464 1177.07,-392.996 1175.1,-386.281"/>
</g>
<!-- Node24&#45;&gt;Node15 -->
<g id="edge39" class="edge"><title>Node24&#45;&gt;Node15</title>
<path fill="none" stroke="midnightblue" d="M1087.98,-394.46C1006.84,-382.929 841.02,-359.366 778.545,-350.488"/>
<polygon fill="midnightblue" stroke="midnightblue" points="1087.51,-397.929 1097.91,-395.871 1088.5,-390.999 1087.51,-397.929"/>
</g>
<!-- Node24&#45;&gt;Node23 -->
<g id="edge69" class="edge"><title>Node24&#45;&gt;Node23</title>
<path fill="none" stroke="midnightblue" d="M1127.5,-382.674C1118.98,-358.625 1104.36,-317.388 1098.05,-299.591"/>
<polygon fill="midnightblue" stroke="midnightblue" points="1124.3,-384.113 1130.94,-392.368 1130.9,-381.774 1124.3,-384.113"/>
</g>
<!-- Node25 -->
<g id="node25" class="node"><title>Node25</title>
<g id="a_node25"><a xlink:href="arithmetic_8h.xhtml" target="_top" xlink:title="A collection of arithmetic expressions. ">
<polygon fill="white" stroke="black" points="1413,-280.5 1413,-299.5 1481,-299.5 1481,-280.5 1413,-280.5"/>
<text text-anchor="middle" x="1447" y="-287.5" font-family="Helvetica,sans-Serif" font-size="10.00">arithmetic.h</text>
</a>
</g>
</g>
<!-- Node24&#45;&gt;Node25 -->
<g id="edge41" class="edge"><title>Node24&#45;&gt;Node25</title>
<path fill="none" stroke="midnightblue" d="M1180.25,-391.609C1215.95,-383.763 1266.29,-371.393 1309,-356 1354.84,-339.477 1406.08,-313.127 1431.27,-299.612"/>
<polygon fill="midnightblue" stroke="midnightblue" points="1179.16,-388.263 1170.12,-393.799 1180.64,-395.105 1179.16,-388.263"/>
</g>
<!-- Node27 -->
<g id="node27" class="node"><title>Node27</title>
<g id="a_node27"><a xlink:href="constant_8h.xhtml" target="_top" xlink:title="Constant expressions that cannot have uncertainties. ">
<polygon fill="white" stroke="black" points="1311,-280.5 1311,-299.5 1373,-299.5 1373,-280.5 1311,-280.5"/>
<text text-anchor="middle" x="1342" y="-287.5" font-family="Helvetica,sans-Serif" font-size="10.00">constant.h</text>
</a>
</g>
</g>
<!-- Node24&#45;&gt;Node27 -->
<g id="edge45" class="edge"><title>Node24&#45;&gt;Node27</title>
<path fill="none" stroke="midnightblue" d="M1180.06,-389.966C1217.13,-380.563 1265.77,-366.885 1283,-356 1306.96,-340.858 1327.25,-313.406 1336.55,-299.526"/>
<polygon fill="midnightblue" stroke="midnightblue" points="1178.8,-386.673 1169.95,-392.498 1180.5,-393.464 1178.8,-386.673"/>
</g>
<!-- Node24&#45;&gt;Node29 -->
<g id="edge49" class="edge"><title>Node24&#45;&gt;Node29</title>
<path fill="none" stroke="midnightblue" d="M1136.49,-382.171C1138.99,-368.483 1143.84,-349.981 1153,-336 1163.17,-320.486 1180.3,-307.531 1192.54,-299.565"/>
<polygon fill="midnightblue" stroke="midnightblue" points="1132.99,-381.912 1134.9,-392.332 1139.91,-382.993 1132.99,-381.912"/>
</g>
<!-- Node24&#45;&gt;Node31 -->
<g id="edge57" class="edge"><title>Node24&#45;&gt;Node31</title>
<path fill="none" stroke="midnightblue" d="M1087.57,-398.561C912.809,-389.381 296.761,-357.021 141.655,-348.873"/>
<polygon fill="midnightblue" stroke="midnightblue" points="1087.55,-402.064 1097.71,-399.094 1087.91,-395.074 1087.55,-402.064"/>
</g>
<!-- Node33 -->
<g id="node33" class="node"><title>Node33</title>
<g id="a_node33"><a xlink:href="exponential_8h.xhtml" target="_top" xlink:title="Expressions and distributions that are described with exponential formulas. ">
<polygon fill="white" stroke="black" points="1639,-336.5 1639,-355.5 1713,-355.5 1713,-336.5 1639,-336.5"/>
<text text-anchor="middle" x="1676" y="-343.5" font-family="Helvetica,sans-Serif" font-size="10.00">exponential.h</text>
</a>
</g>
</g>
<!-- Node24&#45;&gt;Node33 -->
<g id="edge61" class="edge"><title>Node24&#45;&gt;Node33</title>
<path fill="none" stroke="midnightblue" d="M1180.34,-391.961C1370.62,-365.539 1421.61,-376.418 1609,-356 1618.68,-354.945 1629.13,-353.628 1638.83,-352.33"/>
<polygon fill="midnightblue" stroke="midnightblue" points="1179.7,-388.516 1170.29,-393.374 1180.68,-395.448 1179.7,-388.516"/>
</g>
<!-- Node35 -->
<g id="node35" class="node"><title>Node35</title>
<g id="a_node35"><a xlink:href="random__deviate_8h.xhtml" target="_top" xlink:title="A collection of deviate expressions with random distributions sampled at run&#45;time. ">
<polygon fill="white" stroke="black" points="1506,-336.5 1506,-355.5 1600,-355.5 1600,-336.5 1506,-336.5"/>
<text text-anchor="middle" x="1553" y="-343.5" font-family="Helvetica,sans-Serif" font-size="10.00">random_deviate.h</text>
</a>
</g>
</g>
<!-- Node24&#45;&gt;Node35 -->
<g id="edge64" class="edge"><title>Node24&#45;&gt;Node35</title>
<path fill="none" stroke="midnightblue" d="M1180.28,-391.9C1303.32,-372.509 1436.71,-358.327 1505.9,-351.482"/>
<polygon fill="midnightblue" stroke="midnightblue" points="1179.63,-388.459 1170.31,-393.487 1180.73,-395.372 1179.63,-388.459"/>
</g>
<!-- Node37 -->
<g id="node37" class="node"><title>Node37</title>
<g id="a_node37"><a xlink:href="expression_8cc.xhtml" target="_top" xlink:title="Implementation of the expression base class. ">
<polygon fill="white" stroke="black" points="1162.5,-336.5 1162.5,-355.5 1239.5,-355.5 1239.5,-336.5 1162.5,-336.5"/>
<text text-anchor="middle" x="1201" y="-343.5" font-family="Helvetica,sans-Serif" font-size="10.00">expression.cc</text>
</a>
</g>
</g>
<!-- Node24&#45;&gt;Node37 -->
<g id="edge67" class="edge"><title>Node24&#45;&gt;Node37</title>
<path fill="none" stroke="midnightblue" d="M1152.83,-385.82C1164.84,-376.145 1179.97,-363.948 1190.04,-355.834"/>
<polygon fill="midnightblue" stroke="midnightblue" points="1150.35,-383.324 1144.76,-392.324 1154.75,-388.774 1150.35,-383.324"/>
</g>
<!-- Node25&#45;&gt;Node3 -->
<g id="edge42" class="edge"><title>Node25&#45;&gt;Node3</title>
<path fill="none" stroke="midnightblue" d="M1445.93,-269.805C1445.44,-260.91 1444.88,-250.78 1444.49,-243.751"/>
<polygon fill="midnightblue" stroke="midnightblue" points="1442.46,-270.293 1446.5,-280.083 1449.44,-269.904 1442.46,-270.293"/>
</g>
<!-- Node25&#45;&gt;Node7 -->
<g id="edge44" class="edge"><title>Node25&#45;&gt;Node7</title>
<path fill="none" stroke="midnightblue" d="M1490.81,-279.518C1525,-271.187 1568.55,-258.206 1580,-244 1621.54,-192.48 1607.61,-103.409 1601.92,-75.5692"/>
<polygon fill="midnightblue" stroke="midnightblue" points="1489.93,-276.131 1481,-281.845 1491.54,-282.942 1489.93,-276.131"/>
</g>
<!-- Node26 -->
<g id="node26" class="node"><title>Node26</title>
<g id="a_node26"><a xlink:href="arithmetic_8cc.xhtml" target="_top" xlink:title="Implementation of various arithmetic expressions. ">
<polygon fill="white" stroke="black" points="1498.5,-224.5 1498.5,-243.5 1571.5,-243.5 1571.5,-224.5 1498.5,-224.5"/>
<text text-anchor="middle" x="1535" y="-231.5" font-family="Helvetica,sans-Serif" font-size="10.00">arithmetic.cc</text>
</a>
</g>
</g>
<!-- Node25&#45;&gt;Node26 -->
<g id="edge43" class="edge"><title>Node25&#45;&gt;Node26</title>
<path fill="none" stroke="midnightblue" d="M1469.98,-274.901C1486.11,-264.999 1507.18,-252.071 1520.9,-243.655"/>
<polygon fill="midnightblue" stroke="midnightblue" points="1467.83,-272.111 1461.14,-280.324 1471.49,-278.077 1467.83,-272.111"/>
</g>
<!-- Node27&#45;&gt;Node3 -->
<g id="edge46" class="edge"><title>Node27&#45;&gt;Node3</title>
<path fill="none" stroke="midnightblue" d="M1367.33,-275.59C1386.19,-265.605 1411.38,-252.267 1427.65,-243.655"/>
<polygon fill="midnightblue" stroke="midnightblue" points="1365.59,-272.552 1358.39,-280.324 1368.86,-278.738 1365.59,-272.552"/>
</g>
<!-- Node27&#45;&gt;Node6 -->
<g id="edge48" class="edge"><title>Node27&#45;&gt;Node6</title>
<path fill="none" stroke="midnightblue" d="M1330.26,-272.033C1324.6,-263.684 1317.79,-253.413 1312,-244 1291.67,-210.943 1301.67,-188.943 1269,-168 1226.65,-140.858 874.807,-127.461 766.563,-123.955"/>
<polygon fill="midnightblue" stroke="midnightblue" points="1327.52,-274.222 1336.06,-280.495 1333.3,-270.266 1327.52,-274.222"/>
</g>
<!-- Node28 -->
<g id="node28" class="node"><title>Node28</title>
<g id="a_node28"><a xlink:href="constant_8cc.xhtml" target="_top" xlink:title="Implementation of various constant expressions. ">
<polygon fill="white" stroke="black" points="1321,-224.5 1321,-243.5 1389,-243.5 1389,-224.5 1321,-224.5"/>
<text text-anchor="middle" x="1355" y="-231.5" font-family="Helvetica,sans-Serif" font-size="10.00">constant.cc</text>
</a>
</g>
</g>
<!-- Node27&#45;&gt;Node28 -->
<g id="edge47" class="edge"><title>Node27&#45;&gt;Node28</title>
<path fill="none" stroke="midnightblue" d="M1346.55,-270.101C1348.71,-261.136 1351.18,-250.858 1352.89,-243.751"/>
<polygon fill="midnightblue" stroke="midnightblue" points="1343.08,-269.542 1344.15,-280.083 1349.89,-271.18 1343.08,-269.542"/>
</g>
<!-- Node29&#45;&gt;Node4 -->
<g id="edge51" class="edge"><title>Node29&#45;&gt;Node4</title>
<path fill="none" stroke="midnightblue" d="M1163.3,-280.045C1163.2,-280.03 1163.1,-280.015 1163,-280 1070.1,-266.445 783.238,-244.618 685.787,-237.402"/>
<polygon fill="midnightblue" stroke="midnightblue" points="1162.52,-283.463 1172.96,-281.638 1163.66,-276.556 1162.52,-283.463"/>
</g>
<!-- Node29&#45;&gt;Node6 -->
<g id="edge53" class="edge"><title>Node29&#45;&gt;Node6</title>
<path fill="none" stroke="midnightblue" d="M1162.71,-278.534C1128.81,-270.172 1081.06,-257.629 1040,-244 929.975,-207.485 802.143,-152.563 754.339,-131.572"/>
<polygon fill="midnightblue" stroke="midnightblue" points="1162.21,-282.016 1172.76,-280.991 1163.87,-275.217 1162.21,-282.016"/>
</g>
<!-- Node29&#45;&gt;Node9 -->
<g id="edge52" class="edge"><title>Node29&#45;&gt;Node9</title>
<path fill="none" stroke="midnightblue" d="M1163.14,-279.407C1122.58,-270.47 1060.65,-256.657 1007,-244 970.91,-235.485 962.636,-229.727 926,-224 681.186,-185.728 380.241,-180.003 291.66,-179.149"/>
<polygon fill="midnightblue" stroke="midnightblue" points="1162.46,-282.84 1172.98,-281.571 1163.96,-276.004 1162.46,-282.84"/>
</g>
<!-- Node29&#45;&gt;Node12 -->
<g id="edge56" class="edge"><title>Node29&#45;&gt;Node12</title>
<path fill="none" stroke="midnightblue" d="M1207.89,-270.291C1207.74,-256.662 1205.83,-238.182 1198,-224 1140.29,-119.44 1009.34,-44.1766 962.262,-19.6289"/>
<polygon fill="midnightblue" stroke="midnightblue" points="1204.38,-270.331 1207.69,-280.397 1211.38,-270.467 1204.38,-270.331"/>
</g>
<!-- Node29&#45;&gt;Node16 -->
<g id="edge50" class="edge"><title>Node29&#45;&gt;Node16</title>
<path fill="none" stroke="midnightblue" d="M1176.32,-276.638C1151.18,-266.504 1116.25,-252.427 1094.13,-243.516"/>
<polygon fill="midnightblue" stroke="midnightblue" points="1175.18,-279.952 1185.77,-280.444 1177.8,-273.459 1175.18,-279.952"/>
</g>
<!-- Node29&#45;&gt;Node22 -->
<g id="edge55" class="edge"><title>Node29&#45;&gt;Node22</title>
<path fill="none" stroke="midnightblue" d="M1163.3,-280.053C1163.2,-280.036 1163.1,-280.018 1163,-280 1077.75,-264.983 978.446,-250.925 917.148,-242.643"/>
<polygon fill="midnightblue" stroke="midnightblue" points="1162.45,-283.456 1172.93,-281.838 1163.73,-276.573 1162.45,-283.456"/>
</g>
<!-- Node30 -->
<g id="node30" class="node"><title>Node30</title>
<g id="a_node30"><a xlink:href="parameter_8cc.xhtml" target="_top" xlink:title="Implementation of expression parameters. ">
<polygon fill="white" stroke="black" points="1115,-224.5 1115,-243.5 1189,-243.5 1189,-224.5 1115,-224.5"/>
<text text-anchor="middle" x="1152" y="-231.5" font-family="Helvetica,sans-Serif" font-size="10.00">parameter.cc</text>
</a>
</g>
</g>
<!-- Node29&#45;&gt;Node30 -->
<g id="edge54" class="edge"><title>Node29&#45;&gt;Node30</title>
<path fill="none" stroke="midnightblue" d="M1190.71,-273.002C1180.96,-263.433 1168.95,-251.639 1160.91,-243.751"/>
<polygon fill="midnightblue" stroke="midnightblue" points="1188.33,-275.575 1197.92,-280.083 1193.23,-270.58 1188.33,-275.575"/>
</g>
<!-- Node31&#45;&gt;Node6 -->
<g id="edge59" class="edge"><title>Node31&#45;&gt;Node6</title>
<path fill="none" stroke="midnightblue" d="M137.493,-332.753C214.117,-303.104 416.574,-225.666 588,-168 628.349,-154.427 675.483,-140.299 705.284,-131.576"/>
<polygon fill="midnightblue" stroke="midnightblue" points="136.007,-329.575 127.947,-336.451 138.536,-336.102 136.007,-329.575"/>
</g>
<!-- Node31&#45;&gt;Node9 -->
<g id="edge60" class="edge"><title>Node31&#45;&gt;Node9</title>
<path fill="none" stroke="midnightblue" d="M82.6957,-330.57C65.0269,-317.727 45.5758,-298.209 57,-280 97.9072,-214.798 194.114,-190.667 240.332,-182.617"/>
<polygon fill="midnightblue" stroke="midnightblue" points="80.8526,-333.55 91.0833,-336.304 84.8029,-327.771 80.8526,-333.55"/>
</g>
<!-- Node32 -->
<g id="node32" class="node"><title>Node32</title>
<g id="a_node32"><a xlink:href="event__tree_8cc.xhtml" target="_top" xlink:title="Implementation of event tree facilities. ">
<polygon fill="white" stroke="black" points="66,-280.5 66,-299.5 142,-299.5 142,-280.5 66,-280.5"/>
<text text-anchor="middle" x="104" y="-287.5" font-family="Helvetica,sans-Serif" font-size="10.00">event_tree.cc</text>
</a>
</g>
</g>
<!-- Node31&#45;&gt;Node32 -->
<g id="edge58" class="edge"><title>Node31&#45;&gt;Node32</title>
<path fill="none" stroke="midnightblue" d="M105.289,-325.805C104.96,-316.91 104.584,-306.78 104.324,-299.751"/>
<polygon fill="midnightblue" stroke="midnightblue" points="101.802,-326.219 105.67,-336.083 108.797,-325.96 101.802,-326.219"/>
</g>
<!-- Node33&#45;&gt;Node7 -->
<g id="edge63" class="edge"><title>Node33&#45;&gt;Node7</title>
<path fill="none" stroke="midnightblue" d="M1676,-326.251C1676,-304.357 1676,-267.052 1676,-235 1676,-235 1676,-235 1676,-177 1676,-132.201 1632.8,-92.4292 1611.54,-75.5672"/>
<polygon fill="midnightblue" stroke="midnightblue" points="1672.5,-326.442 1676,-336.442 1679.5,-326.442 1672.5,-326.442"/>
</g>
<!-- Node34 -->
<g id="node34" class="node"><title>Node34</title>
<g id="a_node34"><a xlink:href="exponential_8cc.xhtml" target="_top" xlink:title="Implementation of various exponential expressions. ">
<polygon fill="white" stroke="black" points="1704,-280.5 1704,-299.5 1784,-299.5 1784,-280.5 1704,-280.5"/>
<text text-anchor="middle" x="1744" y="-287.5" font-family="Helvetica,sans-Serif" font-size="10.00">exponential.cc</text>
</a>
</g>
</g>
<!-- Node33&#45;&gt;Node34 -->
<g id="edge62" class="edge"><title>Node33&#45;&gt;Node34</title>
<path fill="none" stroke="midnightblue" d="M1694.76,-330.101C1707,-320.382 1722.56,-308.027 1732.88,-299.834"/>
<polygon fill="midnightblue" stroke="midnightblue" points="1692.58,-327.364 1686.93,-336.324 1696.93,-332.846 1692.58,-327.364"/>
</g>
<!-- Node35&#45;&gt;Node7 -->
<g id="edge66" class="edge"><title>Node35&#45;&gt;Node7</title>
<path fill="none" stroke="midnightblue" d="M1576.53,-330.904C1588.14,-323 1601.63,-312.267 1611,-300 1629.99,-275.141 1638,-266.282 1638,-235 1638,-235 1638,-235 1638,-177 1638,-137.399 1615.73,-93.957 1605.28,-75.769"/>
<polygon fill="midnightblue" stroke="midnightblue" points="1574.59,-327.99 1568.12,-336.376 1578.41,-333.858 1574.59,-327.99"/>
</g>
<!-- Node36 -->
<g id="node36" class="node"><title>Node36</title>
<g id="a_node36"><a xlink:href="random__deviate_8cc.xhtml" target="_top" xlink:title="Implementations of random deviate expressions. ">
<polygon fill="white" stroke="black" points="1503.5,-280.5 1503.5,-299.5 1602.5,-299.5 1602.5,-280.5 1503.5,-280.5"/>
<text text-anchor="middle" x="1553" y="-287.5" font-family="Helvetica,sans-Serif" font-size="10.00">random_deviate.cc</text>
</a>
</g>
</g>
<!-- Node35&#45;&gt;Node36 -->
<g id="edge65" class="edge"><title>Node35&#45;&gt;Node36</title>
<path fill="none" stroke="midnightblue" d="M1553,-325.805C1553,-316.91 1553,-306.78 1553,-299.751"/>
<polygon fill="midnightblue" stroke="midnightblue" points="1549.5,-326.083 1553,-336.083 1556.5,-326.083 1549.5,-326.083"/>
</g>
</g>
</svg>
