<?xml version="1.0" encoding="UTF-8" standalone="no"?>
<!DOCTYPE svg PUBLIC "-//W3C//DTD SVG 1.1//EN"
 "http://www.w3.org/Graphics/SVG/1.1/DTD/svg11.dtd">
<!-- Generated by graphviz version 2.38.0 (20140413.2041)
 -->
<!-- Title: element.cc Pages: 1 -->
<!--zoomable 151 -->
<svg id="main" version="1.1" xmlns="http://www.w3.org/2000/svg" xmlns:xlink="http://www.w3.org/1999/xlink" xml:space="preserve" onload="init(evt)">
<style type="text/css"><![CDATA[
.edge:hover path { stroke: red; }
.edge:hover polygon { stroke: red; fill: red; }
]]></style>
<script type="text/javascript"><![CDATA[
var edges = document.getElementsByTagName('g');
if (edges && edges.length) {
  for (var i=0;i<edges.length;i++) {
    if (edges[i].id.substr(0,4)=='edge') {
      edges[i].setAttribute('class','edge');
    }
  }
}
]]></script>
        <defs>
                <circle id="rim" cx="0" cy="0" r="7"/>
                <circle id="rim2" cx="0" cy="0" r="3.5"/>
                <g id="zoomPlus">
                        <use xlink:href="#rim" fill="#404040">
                                <set attributeName="fill" to="#808080" begin="zoomplus.mouseover" end="zoomplus.mouseout"/>
                        </use>
                        <path d="M-4,0h8M0,-4v8" fill="none" stroke="white" stroke-width="1.5" pointer-events="none"/>
                </g>
                <g id="zoomMin">
                        <use xlink:href="#rim" fill="#404040">
                                <set attributeName="fill" to="#808080" begin="zoomminus.mouseover" end="zoomminus.mouseout"/>
                        </use>
                        <path d="M-4,0h8" fill="none" stroke="white" stroke-width="1.5" pointer-events="none"/>
                </g>
                <g id="dirArrow">
                        <path fill="none" stroke="white" stroke-width="1.5" d="M0,-3.0v7 M-2.5,-0.5L0,-3.0L2.5,-0.5"/>
                </g>
               <g id="resetDef">
                       <use xlink:href="#rim2" fill="#404040">
                               <set attributeName="fill" to="#808080" begin="reset.mouseover" end="reset.mouseout"/>
                       </use>
               </g>
        </defs>

<script type="text/javascript">
var viewWidth = 932;
var viewHeight = 151;
var sectionId = 'dynsection-0';
</script>
<script xlink:href="svgpan.js"/>
<svg id="graph" class="graph">
<g id="viewport">
<title>element.cc</title>
<polygon fill="white" stroke="none" points="-4,4 -4,-147 928,-147 928,4 -4,4"/>
<!-- Node1 -->
<g id="node1" class="node"><title>Node1</title>
<polygon fill="#bfbfbf" stroke="black" points="661.5,-123.5 661.5,-142.5 726.5,-142.5 726.5,-123.5 661.5,-123.5"/>
<text text-anchor="middle" x="694" y="-130.5" font-family="Helvetica,sans-Serif" font-size="10.00">element.cc</text>
</g>
<!-- Node2 -->
<g id="node2" class="node"><title>Node2</title>
<g id="a_node2"><a xlink:href="element_8h.xhtml" target="_top" xlink:title="Helper classes, structs, and properties common to all other classes. ">
<polygon fill="white" stroke="black" points="311.5,-67.5 311.5,-86.5 370.5,-86.5 370.5,-67.5 311.5,-67.5"/>
<text text-anchor="middle" x="341" y="-74.5" font-family="Helvetica,sans-Serif" font-size="10.00">element.h</text>
</a>
</g>
</g>
<!-- Node1&#45;&gt;Node2 -->
<g id="edge1" class="edge"><title>Node1&#45;&gt;Node2</title>
<path fill="none" stroke="midnightblue" d="M661.423,-127.017C596.647,-117.108 451.846,-94.9566 381.247,-84.1568"/>
<polygon fill="midnightblue" stroke="midnightblue" points="381.397,-80.639 370.982,-82.5865 380.338,-87.5585 381.397,-80.639"/>
</g>
<!-- Node9 -->
<g id="node9" class="node"><title>Node9</title>
<polygon fill="white" stroke="#bfbfbf" points="720.5,-6 720.5,-25 849.5,-25 849.5,-6 720.5,-6"/>
<text text-anchor="middle" x="785" y="-13" font-family="Helvetica,sans-Serif" font-size="10.00">boost/range/algorithm.hpp</text>
</g>
<!-- Node1&#45;&gt;Node9 -->
<g id="edge8" class="edge"><title>Node1&#45;&gt;Node9</title>
<path fill="none" stroke="midnightblue" d="M699.292,-123.289C707.177,-110.53 722.724,-86.1912 738,-67 747.673,-54.8473 759.608,-42.0475 769.03,-32.3749"/>
<polygon fill="midnightblue" stroke="midnightblue" points="771.71,-34.642 776.249,-25.0684 766.73,-29.7222 771.71,-34.642"/>
</g>
<!-- Node10 -->
<g id="node10" class="node"><title>Node10</title>
<g id="a_node10"><a xlink:href="error_8h.xhtml" target="_top" xlink:title="Exceptions for SCRAM. ">
<polygon fill="white" stroke="black" points="647,-67.5 647,-86.5 691,-86.5 691,-67.5 647,-67.5"/>
<text text-anchor="middle" x="669" y="-74.5" font-family="Helvetica,sans-Serif" font-size="10.00">error.h</text>
</a>
</g>
</g>
<!-- Node1&#45;&gt;Node10 -->
<g id="edge9" class="edge"><title>Node1&#45;&gt;Node10</title>
<path fill="none" stroke="midnightblue" d="M689.872,-123.083C686.486,-115.77 681.584,-105.181 677.381,-96.1034"/>
<polygon fill="midnightblue" stroke="midnightblue" points="680.429,-94.3553 673.051,-86.7511 674.077,-97.2962 680.429,-94.3553"/>
</g>
<!-- Node12 -->
<g id="node12" class="node"><title>Node12</title>
<g id="a_node12"><a xlink:href="algorithm_8h.xhtml" target="_top" xlink:title="Helpful algorithm facilities as an extension to the STL or Boost. ">
<polygon fill="white" stroke="black" points="747.5,-67.5 747.5,-86.5 828.5,-86.5 828.5,-67.5 747.5,-67.5"/>
<text text-anchor="middle" x="788" y="-74.5" font-family="Helvetica,sans-Serif" font-size="10.00">ext/algorithm.h</text>
</a>
</g>
</g>
<!-- Node1&#45;&gt;Node12 -->
<g id="edge12" class="edge"><title>Node1&#45;&gt;Node12</title>
<path fill="none" stroke="midnightblue" d="M709.103,-123.324C723.903,-114.822 746.694,-101.729 763.982,-91.7975"/>
<polygon fill="midnightblue" stroke="midnightblue" points="766.007,-94.6707 772.935,-86.6545 762.52,-88.6009 766.007,-94.6707"/>
</g>
<!-- Node3 -->
<g id="node3" class="node"><title>Node3</title>
<polygon fill="white" stroke="#bfbfbf" points="136,-6 136,-25 182,-25 182,-6 136,-6"/>
<text text-anchor="middle" x="159" y="-13" font-family="Helvetica,sans-Serif" font-size="10.00">cstdint</text>
</g>
<!-- Node2&#45;&gt;Node3 -->
<g id="edge2" class="edge"><title>Node2&#45;&gt;Node3</title>
<path fill="none" stroke="midnightblue" d="M311.296,-68.3528C280.751,-60.1961 231.991,-46.3568 191,-31 189.39,-30.3968 187.747,-29.7507 186.097,-29.0784"/>
<polygon fill="midnightblue" stroke="midnightblue" points="187.332,-25.7995 176.763,-25.0582 184.562,-32.2285 187.332,-25.7995"/>
</g>
<!-- Node4 -->
<g id="node4" class="node"><title>Node4</title>
<polygon fill="white" stroke="#bfbfbf" points="584.5,-6 584.5,-25 625.5,-25 625.5,-6 584.5,-6"/>
<text text-anchor="middle" x="605" y="-13" font-family="Helvetica,sans-Serif" font-size="10.00">string</text>
</g>
<!-- Node2&#45;&gt;Node4 -->
<g id="edge3" class="edge"><title>Node2&#45;&gt;Node4</title>
<path fill="none" stroke="midnightblue" d="M370.81,-72.7879C415.896,-67.3713 503.729,-54.627 575,-31 576.623,-30.4619 578.272,-29.8547 579.918,-29.2015"/>
<polygon fill="midnightblue" stroke="midnightblue" points="581.405,-32.3708 589.129,-25.1193 578.569,-25.9711 581.405,-32.3708"/>
</g>
<!-- Node5 -->
<g id="node5" class="node"><title>Node5</title>
<polygon fill="white" stroke="#bfbfbf" points="200,-6 200,-25 244,-25 244,-6 200,-6"/>
<text text-anchor="middle" x="222" y="-13" font-family="Helvetica,sans-Serif" font-size="10.00">vector</text>
</g>
<!-- Node2&#45;&gt;Node5 -->
<g id="edge4" class="edge"><title>Node2&#45;&gt;Node5</title>
<path fill="none" stroke="midnightblue" d="M323.95,-67.4751C304.156,-57.578 271.283,-41.1416 248.23,-29.6151"/>
<polygon fill="midnightblue" stroke="midnightblue" points="249.528,-26.3508 239.018,-25.0091 246.397,-32.6118 249.528,-26.3508"/>
</g>
<!-- Node6 -->
<g id="node6" class="node"><title>Node6</title>
<polygon fill="white" stroke="#bfbfbf" points="262.5,-6 262.5,-25 419.5,-25 419.5,-6 262.5,-6"/>
<text text-anchor="middle" x="341" y="-13" font-family="Helvetica,sans-Serif" font-size="10.00">boost/multi_index_container.hpp</text>
</g>
<!-- Node2&#45;&gt;Node6 -->
<g id="edge5" class="edge"><title>Node2&#45;&gt;Node6</title>
<path fill="none" stroke="midnightblue" d="M341,-67.4751C341,-59.0803 341,-45.9806 341,-35.1631"/>
<polygon fill="midnightblue" stroke="midnightblue" points="344.5,-35.0091 341,-25.0091 337.5,-35.0091 344.5,-35.0091"/>
</g>
<!-- Node7 -->
<g id="node7" class="node"><title>Node7</title>
<polygon fill="white" stroke="#bfbfbf" points="438,-0.5 438,-30.5 566,-30.5 566,-0.5 438,-0.5"/>
<text text-anchor="start" x="446" y="-18.5" font-family="Helvetica,sans-Serif" font-size="10.00">boost/multi_index/hashed</text>
<text text-anchor="middle" x="502" y="-7.5" font-family="Helvetica,sans-Serif" font-size="10.00">_index.hpp</text>
</g>
<!-- Node2&#45;&gt;Node7 -->
<g id="edge6" class="edge"><title>Node2&#45;&gt;Node7</title>
<path fill="none" stroke="midnightblue" d="M364.067,-67.4751C387.605,-58.7765 424.811,-45.0264 454.652,-33.9981"/>
<polygon fill="midnightblue" stroke="midnightblue" points="455.889,-37.2725 464.055,-30.523 453.462,-30.7066 455.889,-37.2725"/>
</g>
<!-- Node8 -->
<g id="node8" class="node"><title>Node8</title>
<polygon fill="white" stroke="#bfbfbf" points="0,-0.5 0,-30.5 118,-30.5 118,-0.5 0,-0.5"/>
<text text-anchor="start" x="8" y="-18.5" font-family="Helvetica,sans-Serif" font-size="10.00">boost/multi_index/mem</text>
<text text-anchor="middle" x="59" y="-7.5" font-family="Helvetica,sans-Serif" font-size="10.00">_fun.hpp</text>
</g>
<!-- Node2&#45;&gt;Node8 -->
<g id="edge7" class="edge"><title>Node2&#45;&gt;Node8</title>
<path fill="none" stroke="midnightblue" d="M311.222,-69.7659C271.733,-61.493 199.599,-46.3598 128.376,-31.2884"/>
<polygon fill="midnightblue" stroke="midnightblue" points="128.844,-27.8099 118.336,-29.1629 127.394,-34.6581 128.844,-27.8099"/>
</g>
<!-- Node10&#45;&gt;Node4 -->
<g id="edge11" class="edge"><title>Node10&#45;&gt;Node4</title>
<path fill="none" stroke="midnightblue" d="M659.83,-67.4751C649.85,-58.1966 633.688,-43.1706 621.491,-31.831"/>
<polygon fill="midnightblue" stroke="midnightblue" points="623.86,-29.2547 614.153,-25.0091 619.093,-34.3814 623.86,-29.2547"/>
</g>
<!-- Node11 -->
<g id="node11" class="node"><title>Node11</title>
<polygon fill="white" stroke="#bfbfbf" points="643.5,-6 643.5,-25 702.5,-25 702.5,-6 643.5,-6"/>
<text text-anchor="middle" x="673" y="-13" font-family="Helvetica,sans-Serif" font-size="10.00">exception</text>
</g>
<!-- Node10&#45;&gt;Node11 -->
<g id="edge10" class="edge"><title>Node10&#45;&gt;Node11</title>
<path fill="none" stroke="midnightblue" d="M669.573,-67.4751C670.137,-59.0803 671.018,-45.9806 671.745,-35.1631"/>
<polygon fill="midnightblue" stroke="midnightblue" points="675.249,-35.2214 672.428,-25.0091 668.265,-34.7518 675.249,-35.2214"/>
</g>
<!-- Node12&#45;&gt;Node9 -->
<g id="edge14" class="edge"><title>Node12&#45;&gt;Node9</title>
<path fill="none" stroke="midnightblue" d="M787.57,-67.4751C787.147,-59.0803 786.486,-45.9806 785.941,-35.1631"/>
<polygon fill="midnightblue" stroke="midnightblue" points="789.428,-34.8201 785.429,-25.0091 782.437,-35.1727 789.428,-34.8201"/>
</g>
<!-- Node13 -->
<g id="node13" class="node"><title>Node13</title>
<polygon fill="white" stroke="#bfbfbf" points="868,-6 868,-25 924,-25 924,-6 868,-6"/>
<text text-anchor="middle" x="896" y="-13" font-family="Helvetica,sans-Serif" font-size="10.00">algorithm</text>
</g>
<!-- Node12&#45;&gt;Node13 -->
<g id="edge13" class="edge"><title>Node12&#45;&gt;Node13</title>
<path fill="none" stroke="midnightblue" d="M803.474,-67.4751C821.278,-57.6664 850.741,-41.4346 871.632,-29.925"/>
<polygon fill="midnightblue" stroke="midnightblue" points="873.485,-32.9001 880.555,-25.0091 870.107,-26.769 873.485,-32.9001"/>
</g>
</g>
</svg>
        <g id="navigator" transform="translate(0 0)" fill="#404254">
                <rect fill="#f2f5e9" fill-opacity="0.5" stroke="#606060" stroke-width=".5" x="0" y="0" width="60" height="60"/>
                <use id="zoomplus" xlink:href="#zoomPlus" x="17" y="9" onmousedown="handleZoom(evt,'in')"/>
                <use id="zoomminus" xlink:href="#zoomMin" x="42" y="9" onmousedown="handleZoom(evt,'out')"/>
                <use id="reset" xlink:href="#resetDef" x="30" y="36" onmousedown="handleReset()"/>
                <g id="arrowUp" xlink:href="#dirArrow" transform="translate(30 24)" onmousedown="handlePan(0,-1)">
                  <use xlink:href="#rim" fill="#404040">
                        <set attributeName="fill" to="#808080" begin="arrowUp.mouseover" end="arrowUp.mouseout"/>
                  </use>
                  <path fill="none" stroke="white" stroke-width="1.5" d="M0,-3.0v7 M-2.5,-0.5L0,-3.0L2.5,-0.5"/>
                </g>
                <g id="arrowRight" xlink:href="#dirArrow" transform="rotate(90) translate(36 -43)" onmousedown="handlePan(1,0)">
                  <use xlink:href="#rim" fill="#404040">
                        <set attributeName="fill" to="#808080" begin="arrowRight.mouseover" end="arrowRight.mouseout"/>
                  </use>
                  <path fill="none" stroke="white" stroke-width="1.5" d="M0,-3.0v7 M-2.5,-0.5L0,-3.0L2.5,-0.5"/>
                </g>
                <g id="arrowDown" xlink:href="#dirArrow" transform="rotate(180) translate(-30 -48)" onmousedown="handlePan(0,1)">
                  <use xlink:href="#rim" fill="#404040">
                        <set attributeName="fill" to="#808080" begin="arrowDown.mouseover" end="arrowDown.mouseout"/>
                  </use>
                  <path fill="none" stroke="white" stroke-width="1.5" d="M0,-3.0v7 M-2.5,-0.5L0,-3.0L2.5,-0.5"/>
                </g>
                <g id="arrowLeft" xlink:href="#dirArrow" transform="rotate(270) translate(-36 17)" onmousedown="handlePan(-1,0)">
                  <use xlink:href="#rim" fill="#404040">
                        <set attributeName="fill" to="#808080" begin="arrowLeft.mouseover" end="arrowLeft.mouseout"/>
                  </use>
                  <path fill="none" stroke="white" stroke-width="1.5" d="M0,-3.0v7 M-2.5,-0.5L0,-3.0L2.5,-0.5"/>
                </g>
        </g>
        <svg viewBox="0 0 15 15" width="100%" height="30px" preserveAspectRatio="xMaxYMin meet">
         <g id="arrow_out" transform="scale(0.3 0.3)">
          <a xlink:href="element_8cc__incl_org.svg" target="_base">
           <rect id="button" ry="5" rx="5" y="6" x="6" height="38" width="38"
                fill="#f2f5e9" fill-opacity="0.5" stroke="#606060" stroke-width="1.0"/>
           <path id="arrow"
             d="M 11.500037,31.436501 C 11.940474,20.09759 22.043105,11.32322 32.158766,21.979434 L 37.068811,17.246167 C 37.068811,17.246167 37.088388,32 37.088388,32 L 22.160133,31.978069 C 22.160133,31.978069 26.997745,27.140456 26.997745,27.140456 C 18.528582,18.264221 13.291696,25.230495 11.500037,31.436501 z"
             style="fill:#404040;"/>
          </a>
         </g>
        </svg>
</svg>
