<?xml version="1.0" encoding="UTF-8" standalone="no"?>
<!DOCTYPE svg PUBLIC "-//W3C//DTD SVG 1.1//EN"
 "http://www.w3.org/Graphics/SVG/1.1/DTD/svg11.dtd">
<!-- Generated by graphviz version 2.38.0 (20140413.2041)
 -->
<!-- Title: env.cc Pages: 1 -->
<svg width="146pt" height="140pt"
 viewBox="0.00 0.00 146.00 140.00" xmlns="http://www.w3.org/2000/svg" xmlns:xlink="http://www.w3.org/1999/xlink">
<g id="graph0" class="graph" transform="scale(1 1) rotate(0) translate(4 136)">
<title>env.cc</title>
<polygon fill="white" stroke="none" points="-4,4 -4,-136 142,-136 142,4 -4,4"/>
<!-- Node1 -->
<g id="node1" class="node"><title>Node1</title>
<polygon fill="#bfbfbf" stroke="black" points="36.5,-112.5 36.5,-131.5 82.5,-131.5 82.5,-112.5 36.5,-112.5"/>
<text text-anchor="middle" x="59.5" y="-119.5" font-family="Helvetica,sans-Serif" font-size="10.00">env.cc</text>
</g>
<!-- Node2 -->
<g id="node2" class="node"><title>Node2</title>
<g id="a_node2"><a xlink:href="env_8h.xhtml" target="_top" xlink:title="Environmental Variables. ">
<polygon fill="white" stroke="black" points="0,-56.5 0,-75.5 41,-75.5 41,-56.5 0,-56.5"/>
<text text-anchor="middle" x="20.5" y="-63.5" font-family="Helvetica,sans-Serif" font-size="10.00">env.h</text>
</a>
</g>
</g>
<!-- Node1&#45;&gt;Node2 -->
<g id="edge1" class="edge"><title>Node1&#45;&gt;Node2</title>
<path fill="none" stroke="midnightblue" d="M53.0599,-112.083C47.5511,-104.455 39.4688,-93.2645 32.735,-83.9408"/>
<polygon fill="midnightblue" stroke="midnightblue" points="35.5126,-81.8087 26.8202,-75.7511 29.8378,-85.9071 35.5126,-81.8087"/>
</g>
<!-- Node4 -->
<g id="node4" class="node"><title>Node4</title>
<polygon fill="white" stroke="#bfbfbf" points="59,-56.5 59,-75.5 138,-75.5 138,-56.5 59,-56.5"/>
<text text-anchor="middle" x="98.5" y="-63.5" font-family="Helvetica,sans-Serif" font-size="10.00">boost/predef.h</text>
</g>
<!-- Node1&#45;&gt;Node4 -->
<g id="edge3" class="edge"><title>Node1&#45;&gt;Node4</title>
<path fill="none" stroke="midnightblue" d="M65.9401,-112.083C71.4489,-104.455 79.5312,-93.2645 86.265,-83.9408"/>
<polygon fill="midnightblue" stroke="midnightblue" points="89.1622,-85.9071 92.1798,-75.7511 83.4874,-81.8087 89.1622,-85.9071"/>
</g>
<!-- Node3 -->
<g id="node3" class="node"><title>Node3</title>
<polygon fill="white" stroke="#bfbfbf" points="0,-0.5 0,-19.5 41,-19.5 41,-0.5 0,-0.5"/>
<text text-anchor="middle" x="20.5" y="-7.5" font-family="Helvetica,sans-Serif" font-size="10.00">string</text>
</g>
<!-- Node2&#45;&gt;Node3 -->
<g id="edge2" class="edge"><title>Node2&#45;&gt;Node3</title>
<path fill="none" stroke="midnightblue" d="M20.5,-56.083C20.5,-49.0059 20.5,-38.8611 20.5,-29.9865"/>
<polygon fill="midnightblue" stroke="midnightblue" points="24.0001,-29.751 20.5,-19.7511 17.0001,-29.7511 24.0001,-29.751"/>
</g>
</g>
</svg>
