<?xml version="1.0" encoding="UTF-8" standalone="no"?>
<!DOCTYPE svg PUBLIC "-//W3C//DTD SVG 1.1//EN"
 "http://www.w3.org/Graphics/SVG/1.1/DTD/svg11.dtd">
<!-- Generated by graphviz version 2.38.0 (20140413.2041)
 -->
<!-- Title: error.h Pages: 1 -->
<svg width="2246pt" height="420pt"
 viewBox="0.00 0.00 2245.50 420.00" xmlns="http://www.w3.org/2000/svg" xmlns:xlink="http://www.w3.org/1999/xlink">
<g id="graph0" class="graph" transform="scale(1 1) rotate(0) translate(4 416)">
<title>error.h</title>
<polygon fill="white" stroke="none" points="-4,4 -4,-416 2241.5,-416 2241.5,4 -4,4"/>
<!-- Node1 -->
<g id="node1" class="node"><title>Node1</title>
<polygon fill="#bfbfbf" stroke="black" points="1432,-392.5 1432,-411.5 1476,-411.5 1476,-392.5 1432,-392.5"/>
<text text-anchor="middle" x="1454" y="-399.5" font-family="Helvetica,sans-Serif" font-size="10.00">error.h</text>
</g>
<!-- Node2 -->
<g id="node2" class="node"><title>Node2</title>
<g id="a_node2"><a xlink:href="event_8h.xhtml" target="_top" xlink:title="Contains event classes for fault trees. ">
<polygon fill="white" stroke="black" points="616.5,-336.5 616.5,-355.5 665.5,-355.5 665.5,-336.5 616.5,-336.5"/>
<text text-anchor="middle" x="641" y="-343.5" font-family="Helvetica,sans-Serif" font-size="10.00">event.h</text>
</a>
</g>
</g>
<!-- Node1&#45;&gt;Node2 -->
<g id="edge1" class="edge"><title>Node1&#45;&gt;Node2</title>
<path fill="none" stroke="midnightblue" d="M1421.47,-398.84C1288.03,-389.976 784.04,-356.501 665.893,-348.653"/>
<polygon fill="midnightblue" stroke="midnightblue" points="1421.62,-402.357 1431.83,-399.528 1422.09,-395.372 1421.62,-402.357"/>
</g>
<!-- Node6 -->
<g id="node6" class="node"><title>Node6</title>
<g id="a_node6"><a xlink:href="fault__tree_8cc.xhtml" target="_top" xlink:title="Implementation of fault tree and component containers. ">
<polygon fill="white" stroke="black" points="309.5,-168.5 309.5,-187.5 380.5,-187.5 380.5,-168.5 309.5,-168.5"/>
<text text-anchor="middle" x="345" y="-175.5" font-family="Helvetica,sans-Serif" font-size="10.00">fault_tree.cc</text>
</a>
</g>
</g>
<!-- Node1&#45;&gt;Node6 -->
<g id="edge47" class="edge"><title>Node1&#45;&gt;Node6</title>
<path fill="none" stroke="midnightblue" d="M1421.82,-400.861C1238.26,-399.738 329.011,-389.656 248,-300 225.337,-274.918 226.645,-252.387 245,-224 259.162,-202.098 286.805,-190.75 309.445,-184.933"/>
<polygon fill="midnightblue" stroke="midnightblue" points="1421.89,-404.361 1431.91,-400.918 1421.93,-397.361 1421.89,-404.361"/>
</g>
<!-- Node8 -->
<g id="node8" class="node"><title>Node8</title>
<g id="a_node8"><a xlink:href="initializer_8cc.xhtml" target="_top" xlink:title="Implementation of input file processing into analysis constructs. ">
<polygon fill="white" stroke="black" points="135,-56.5 135,-75.5 203,-75.5 203,-56.5 135,-56.5"/>
<text text-anchor="middle" x="169" y="-63.5" font-family="Helvetica,sans-Serif" font-size="10.00">initializer.cc</text>
</a>
</g>
</g>
<!-- Node1&#45;&gt;Node8 -->
<g id="edge48" class="edge"><title>Node1&#45;&gt;Node8</title>
<path fill="none" stroke="midnightblue" d="M1421.6,-400.516C1249.65,-397.835 447.813,-383.918 341,-356 287.923,-342.127 266.114,-342.15 231,-300 172.324,-229.567 168.666,-109.125 168.834,-75.7808"/>
<polygon fill="midnightblue" stroke="midnightblue" points="1421.72,-404.018 1431.78,-400.673 1421.83,-397.019 1421.72,-404.018"/>
</g>
<!-- Node9 -->
<g id="node9" class="node"><title>Node9</title>
<g id="a_node9"><a xlink:href="scram_8cc.xhtml" target="_top" xlink:title="Main entrance. ">
<polygon fill="white" stroke="black" points="480.5,-0.5 480.5,-19.5 537.5,-19.5 537.5,-0.5 480.5,-0.5"/>
<text text-anchor="middle" x="509" y="-7.5" font-family="Helvetica,sans-Serif" font-size="10.00">scram.cc</text>
</a>
</g>
</g>
<!-- Node1&#45;&gt;Node9 -->
<g id="edge56" class="edge"><title>Node1&#45;&gt;Node9</title>
<path fill="none" stroke="midnightblue" d="M1421.73,-400.686C1218.35,-398.62 120.683,-386.101 57,-356 22.2617,-339.581 0,-329.423 0,-291 0,-291 0,-291 0,-121 0,-22.0032 372.5,-11.8828 480.176,-11.0253"/>
<polygon fill="midnightblue" stroke="midnightblue" points="1421.74,-404.187 1431.77,-400.787 1421.81,-397.187 1421.74,-404.187"/>
</g>
<!-- Node11 -->
<g id="node11" class="node"><title>Node11</title>
<g id="a_node11"><a xlink:href="model_8cc.xhtml" target="_top" xlink:title="Implementation of functions in Model class. ">
<polygon fill="white" stroke="black" points="1015,-112.5 1015,-131.5 1071,-131.5 1071,-112.5 1015,-112.5"/>
<text text-anchor="middle" x="1043" y="-119.5" font-family="Helvetica,sans-Serif" font-size="10.00">model.cc</text>
</a>
</g>
</g>
<!-- Node1&#45;&gt;Node11 -->
<g id="edge50" class="edge"><title>Node1&#45;&gt;Node11</title>
<path fill="none" stroke="midnightblue" d="M1421.54,-399.363C1389.21,-395.991 1340.29,-385.898 1311,-356 1289.94,-334.501 1292,-321.098 1292,-291 1292,-291 1292,-291 1292,-233 1292,-137.299 1136.2,-124.173 1071.08,-122.866"/>
<polygon fill="midnightblue" stroke="midnightblue" points="1421.55,-402.877 1431.82,-400.268 1422.17,-395.904 1421.55,-402.877"/>
</g>
<!-- Node13 -->
<g id="node13" class="node"><title>Node13</title>
<g id="a_node13"><a xlink:href="reporter_8cc.xhtml" target="_top" xlink:title="Implements Reporter class. ">
<polygon fill="white" stroke="black" points="706.5,-0.5 706.5,-19.5 769.5,-19.5 769.5,-0.5 706.5,-0.5"/>
<text text-anchor="middle" x="738" y="-7.5" font-family="Helvetica,sans-Serif" font-size="10.00">reporter.cc</text>
</a>
</g>
</g>
<!-- Node1&#45;&gt;Node13 -->
<g id="edge55" class="edge"><title>Node1&#45;&gt;Node13</title>
<path fill="none" stroke="midnightblue" d="M1448.96,-382.625C1446.99,-374.528 1444.97,-364.86 1444,-356 1438.02,-301.502 1468,-289.825 1468,-235 1468,-235 1468,-235 1468,-121 1468,-49.3067 910.341,-18.9058 769.837,-12.384"/>
<polygon fill="midnightblue" stroke="midnightblue" points="1445.62,-383.667 1451.52,-392.467 1452.39,-381.908 1445.62,-383.667"/>
</g>
<!-- Node24 -->
<g id="node24" class="node"><title>Node24</title>
<g id="a_node24"><a xlink:href="config_8cc.xhtml" target="_top" xlink:title="Implementation of configuration facilities. ">
<polygon fill="white" stroke="black" points="28,-280.5 28,-299.5 84,-299.5 84,-280.5 28,-280.5"/>
<text text-anchor="middle" x="56" y="-287.5" font-family="Helvetica,sans-Serif" font-size="10.00">config.cc</text>
</a>
</g>
</g>
<!-- Node1&#45;&gt;Node24 -->
<g id="edge37" class="edge"><title>Node1&#45;&gt;Node24</title>
<path fill="none" stroke="midnightblue" d="M1421.6,-401.021C1218.6,-401.019 128.658,-399.003 74,-356 56.8831,-342.533 55.1371,-314.322 55.4621,-299.901"/>
<polygon fill="midnightblue" stroke="midnightblue" points="1421.9,-404.521 1431.89,-401.019 1421.89,-397.521 1421.9,-404.521"/>
</g>
<!-- Node25 -->
<g id="node25" class="node"><title>Node25</title>
<g id="a_node25"><a xlink:href="xml_8h.xhtml" target="_top" xlink:title="XML helper facilities to work with libxml++. ">
<polygon fill="white" stroke="black" points="83.5,-336.5 83.5,-355.5 124.5,-355.5 124.5,-336.5 83.5,-336.5"/>
<text text-anchor="middle" x="104" y="-343.5" font-family="Helvetica,sans-Serif" font-size="10.00">xml.h</text>
</a>
</g>
</g>
<!-- Node1&#45;&gt;Node25 -->
<g id="edge38" class="edge"><title>Node1&#45;&gt;Node25</title>
<path fill="none" stroke="midnightblue" d="M1421.74,-400.847C1245.53,-399.866 397.838,-393.255 139,-356 134.28,-355.321 129.278,-354.252 124.577,-353.084"/>
<polygon fill="midnightblue" stroke="midnightblue" points="1421.9,-404.348 1431.91,-400.901 1421.93,-397.348 1421.9,-404.348"/>
</g>
<!-- Node26 -->
<g id="node26" class="node"><title>Node26</title>
<g id="a_node26"><a xlink:href="element_8cc.xhtml" target="_top" xlink:title="Implementation of helper features for all elements of the analysis. ">
<polygon fill="white" stroke="black" points="1452.5,-336.5 1452.5,-355.5 1517.5,-355.5 1517.5,-336.5 1452.5,-336.5"/>
<text text-anchor="middle" x="1485" y="-343.5" font-family="Helvetica,sans-Serif" font-size="10.00">element.cc</text>
</a>
</g>
</g>
<!-- Node1&#45;&gt;Node26 -->
<g id="edge41" class="edge"><title>Node1&#45;&gt;Node26</title>
<path fill="none" stroke="midnightblue" d="M1464.18,-383.275C1469.47,-374.045 1475.72,-363.17 1479.98,-355.751"/>
<polygon fill="midnightblue" stroke="midnightblue" points="1461.06,-381.668 1459.12,-392.083 1467.13,-385.153 1461.06,-381.668"/>
</g>
<!-- Node27 -->
<g id="node27" class="node"><title>Node27</title>
<g id="a_node27"><a xlink:href="error_8cc.xhtml" target="_top" xlink:title="Implementation of the exceptions for use in SCRAM. ">
<polygon fill="white" stroke="black" points="1536,-336.5 1536,-355.5 1586,-355.5 1586,-336.5 1536,-336.5"/>
<text text-anchor="middle" x="1561" y="-343.5" font-family="Helvetica,sans-Serif" font-size="10.00">error.cc</text>
</a>
</g>
</g>
<!-- Node1&#45;&gt;Node27 -->
<g id="edge42" class="edge"><title>Node1&#45;&gt;Node27</title>
<path fill="none" stroke="midnightblue" d="M1480.3,-387.726C1500.11,-377.727 1526.71,-364.307 1543.85,-355.655"/>
<polygon fill="midnightblue" stroke="midnightblue" points="1478.54,-384.694 1471.19,-392.324 1481.7,-390.943 1478.54,-384.694"/>
</g>
<!-- Node28 -->
<g id="node28" class="node"><title>Node28</title>
<g id="a_node28"><a xlink:href="event__tree_8cc.xhtml" target="_top" xlink:title="Implementation of event tree facilities. ">
<polygon fill="white" stroke="black" points="1604,-336.5 1604,-355.5 1680,-355.5 1680,-336.5 1604,-336.5"/>
<text text-anchor="middle" x="1642" y="-343.5" font-family="Helvetica,sans-Serif" font-size="10.00">event_tree.cc</text>
</a>
</g>
</g>
<!-- Node1&#45;&gt;Node28 -->
<g id="edge43" class="edge"><title>Node1&#45;&gt;Node28</title>
<path fill="none" stroke="midnightblue" d="M1486.13,-391.772C1521.51,-381.61 1577.93,-365.403 1612.31,-355.529"/>
<polygon fill="midnightblue" stroke="midnightblue" points="1484.95,-388.469 1476.3,-394.593 1486.88,-395.197 1484.95,-388.469"/>
</g>
<!-- Node29 -->
<g id="node29" class="node"><title>Node29</title>
<g id="a_node29"><a xlink:href="arithmetic_8cc.xhtml" target="_top" xlink:title="Implementation of various arithmetic expressions. ">
<polygon fill="white" stroke="black" points="1698.5,-336.5 1698.5,-355.5 1771.5,-355.5 1771.5,-336.5 1698.5,-336.5"/>
<text text-anchor="middle" x="1735" y="-343.5" font-family="Helvetica,sans-Serif" font-size="10.00">arithmetic.cc</text>
</a>
</g>
</g>
<!-- Node1&#45;&gt;Node29 -->
<g id="edge44" class="edge"><title>Node1&#45;&gt;Node29</title>
<path fill="none" stroke="midnightblue" d="M1486.13,-394.89C1531.39,-386.273 1616.51,-370.032 1689,-356 1692.04,-355.412 1695.18,-354.801 1698.34,-354.186"/>
<polygon fill="midnightblue" stroke="midnightblue" points="1485.21,-391.503 1476.04,-396.811 1486.52,-398.379 1485.21,-391.503"/>
</g>
<!-- Node30 -->
<g id="node30" class="node"><title>Node30</title>
<g id="a_node30"><a xlink:href="exponential_8cc.xhtml" target="_top" xlink:title="Implementation of various exponential expressions. ">
<polygon fill="white" stroke="black" points="1790,-336.5 1790,-355.5 1870,-355.5 1870,-336.5 1790,-336.5"/>
<text text-anchor="middle" x="1830" y="-343.5" font-family="Helvetica,sans-Serif" font-size="10.00">exponential.cc</text>
</a>
</g>
</g>
<!-- Node1&#45;&gt;Node30 -->
<g id="edge45" class="edge"><title>Node1&#45;&gt;Node30</title>
<path fill="none" stroke="midnightblue" d="M1486.41,-397.03C1545.22,-389.716 1673.4,-373.276 1781,-356 1783.9,-355.534 1786.9,-355.033 1789.91,-354.514"/>
<polygon fill="midnightblue" stroke="midnightblue" points="1485.75,-393.585 1476.25,-398.288 1486.61,-400.532 1485.75,-393.585"/>
</g>
<!-- Node31 -->
<g id="node31" class="node"><title>Node31</title>
<g id="a_node31"><a xlink:href="random__deviate_8cc.xhtml" target="_top" xlink:title="Implementations of random deviate expressions. ">
<polygon fill="white" stroke="black" points="1888.5,-336.5 1888.5,-355.5 1987.5,-355.5 1987.5,-336.5 1888.5,-336.5"/>
<text text-anchor="middle" x="1938" y="-343.5" font-family="Helvetica,sans-Serif" font-size="10.00">random_deviate.cc</text>
</a>
</g>
</g>
<!-- Node1&#45;&gt;Node31 -->
<g id="edge46" class="edge"><title>Node1&#45;&gt;Node31</title>
<path fill="none" stroke="midnightblue" d="M1486.27,-398.093C1557.34,-391.579 1732.71,-374.892 1879,-356 1882.08,-355.602 1885.25,-355.173 1888.45,-354.727"/>
<polygon fill="midnightblue" stroke="midnightblue" points="1485.8,-394.621 1476.16,-399.015 1486.44,-401.592 1485.8,-394.621"/>
</g>
<!-- Node32 -->
<g id="node32" class="node"><title>Node32</title>
<g id="a_node32"><a xlink:href="logger_8cc.xhtml" target="_top" xlink:title="Initializing static members of Logger class. ">
<polygon fill="white" stroke="black" points="2006,-336.5 2006,-355.5 2062,-355.5 2062,-336.5 2006,-336.5"/>
<text text-anchor="middle" x="2034" y="-343.5" font-family="Helvetica,sans-Serif" font-size="10.00">logger.cc</text>
</a>
</g>
</g>
<!-- Node1&#45;&gt;Node32 -->
<g id="edge49" class="edge"><title>Node1&#45;&gt;Node32</title>
<path fill="none" stroke="midnightblue" d="M1486.37,-400.077C1570.87,-397.288 1804.9,-387.129 1997,-356 1999.87,-355.535 2002.85,-354.964 2005.81,-354.337"/>
<polygon fill="midnightblue" stroke="midnightblue" points="1486.02,-396.586 1476.13,-400.402 1486.24,-403.583 1486.02,-396.586"/>
</g>
<!-- Node33 -->
<g id="node33" class="node"><title>Node33</title>
<g id="a_node33"><a xlink:href="parameter_8cc.xhtml" target="_top" xlink:title="Implementation of expression parameters. ">
<polygon fill="white" stroke="black" points="2080,-336.5 2080,-355.5 2154,-355.5 2154,-336.5 2080,-336.5"/>
<text text-anchor="middle" x="2117" y="-343.5" font-family="Helvetica,sans-Serif" font-size="10.00">parameter.cc</text>
</a>
</g>
</g>
<!-- Node1&#45;&gt;Node33 -->
<g id="edge51" class="edge"><title>Node1&#45;&gt;Node33</title>
<path fill="none" stroke="midnightblue" d="M1486.29,-400.016C1578.13,-396.921 1848.54,-385.765 2071,-356 2073.9,-355.611 2076.9,-355.154 2079.91,-354.655"/>
<polygon fill="midnightblue" stroke="midnightblue" points="1486.11,-396.519 1476.23,-400.346 1486.34,-403.516 1486.11,-396.519"/>
</g>
<!-- Node34 -->
<g id="node34" class="node"><title>Node34</title>
<g id="a_node34"><a xlink:href="xml__stream_8h.xhtml" target="_top" xlink:title="Facilities to stream data in XML format. ">
<polygon fill="white" stroke="black" points="1320,-336.5 1320,-355.5 1396,-355.5 1396,-336.5 1320,-336.5"/>
<text text-anchor="middle" x="1358" y="-343.5" font-family="Helvetica,sans-Serif" font-size="10.00">xml_stream.h</text>
</a>
</g>
</g>
<!-- Node1&#45;&gt;Node34 -->
<g id="edge52" class="edge"><title>Node1&#45;&gt;Node34</title>
<path fill="none" stroke="midnightblue" d="M1429.43,-387.177C1411.76,-377.241 1388.49,-364.149 1373.39,-355.655"/>
<polygon fill="midnightblue" stroke="midnightblue" points="1428.14,-390.472 1438.58,-392.324 1431.58,-384.371 1428.14,-390.472"/>
</g>
<!-- Node36 -->
<g id="node36" class="node"><title>Node36</title>
<g id="a_node36"><a xlink:href="settings_8cc.xhtml" target="_top" xlink:title="Implementation of Settings Builder. ">
<polygon fill="white" stroke="black" points="2172.5,-336.5 2172.5,-355.5 2237.5,-355.5 2237.5,-336.5 2172.5,-336.5"/>
<text text-anchor="middle" x="2205" y="-343.5" font-family="Helvetica,sans-Serif" font-size="10.00">settings.cc</text>
</a>
</g>
</g>
<!-- Node1&#45;&gt;Node36 -->
<g id="edge57" class="edge"><title>Node1&#45;&gt;Node36</title>
<path fill="none" stroke="midnightblue" d="M1486.3,-400.645C1586.94,-399.176 1903.66,-391.817 2163,-356 2165.95,-355.592 2169.01,-355.092 2172.07,-354.538"/>
<polygon fill="midnightblue" stroke="midnightblue" points="1486.12,-397.147 1476.17,-400.783 1486.22,-404.146 1486.12,-397.147"/>
</g>
<!-- Node3 -->
<g id="node3" class="node"><title>Node3</title>
<g id="a_node3"><a xlink:href="ccf__group_8h.xhtml" target="_top" xlink:title="Functional containers for basic events grouped by common cause failure. ">
<polygon fill="white" stroke="black" points="402,-280.5 402,-299.5 470,-299.5 470,-280.5 402,-280.5"/>
<text text-anchor="middle" x="436" y="-287.5" font-family="Helvetica,sans-Serif" font-size="10.00">ccf_group.h</text>
</a>
</g>
</g>
<!-- Node2&#45;&gt;Node3 -->
<g id="edge2" class="edge"><title>Node2&#45;&gt;Node3</title>
<path fill="none" stroke="midnightblue" d="M606.552,-335.926C568.082,-325.792 506.283,-309.514 468.586,-299.584"/>
<polygon fill="midnightblue" stroke="midnightblue" points="605.711,-339.324 616.272,-338.486 607.494,-332.554 605.711,-339.324"/>
</g>
<!-- Node5 -->
<g id="node5" class="node"><title>Node5</title>
<g id="a_node5"><a xlink:href="fault__tree_8h.xhtml" target="_top" xlink:title="Fault Tree and Component containers. ">
<polygon fill="white" stroke="black" points="402.5,-224.5 402.5,-243.5 467.5,-243.5 467.5,-224.5 402.5,-224.5"/>
<text text-anchor="middle" x="435" y="-231.5" font-family="Helvetica,sans-Serif" font-size="10.00">fault_tree.h</text>
</a>
</g>
</g>
<!-- Node2&#45;&gt;Node5 -->
<g id="edge27" class="edge"><title>Node2&#45;&gt;Node5</title>
<path fill="none" stroke="midnightblue" d="M606.289,-343.972C544.59,-341.335 419.776,-332.071 393,-300 377.415,-281.332 404.864,-256.569 422.285,-243.661"/>
<polygon fill="midnightblue" stroke="midnightblue" points="606.202,-347.472 616.332,-344.367 606.477,-340.477 606.202,-347.472"/>
</g>
<!-- Node7 -->
<g id="node7" class="node"><title>Node7</title>
<g id="a_node7"><a xlink:href="initializer_8h.xhtml" target="_top" xlink:title="A facility that processes input files into analysis constructs. ">
<polygon fill="white" stroke="black" points="395.5,-112.5 395.5,-131.5 458.5,-131.5 458.5,-112.5 395.5,-112.5"/>
<text text-anchor="middle" x="427" y="-119.5" font-family="Helvetica,sans-Serif" font-size="10.00">initializer.h</text>
</a>
</g>
</g>
<!-- Node2&#45;&gt;Node7 -->
<g id="edge30" class="edge"><title>Node2&#45;&gt;Node7</title>
<path fill="none" stroke="midnightblue" d="M606.108,-342.029C544.998,-336.313 421.613,-322.337 385,-300 358.327,-283.727 309.965,-217.613 300,-188 285.9,-146.097 353.207,-131.027 395.253,-125.743"/>
<polygon fill="midnightblue" stroke="midnightblue" points="606.133,-345.546 616.41,-342.969 606.769,-338.575 606.133,-345.546"/>
</g>
<!-- Node10 -->
<g id="node10" class="node"><title>Node10</title>
<g id="a_node10"><a xlink:href="model_8h.xhtml" target="_top" xlink:title="Representation for a model container for risk analysis. ">
<polygon fill="white" stroke="black" points="563.5,-168.5 563.5,-187.5 614.5,-187.5 614.5,-168.5 563.5,-168.5"/>
<text text-anchor="middle" x="589" y="-175.5" font-family="Helvetica,sans-Serif" font-size="10.00">model.h</text>
</a>
</g>
</g>
<!-- Node2&#45;&gt;Node10 -->
<g id="edge31" class="edge"><title>Node2&#45;&gt;Node10</title>
<path fill="none" stroke="midnightblue" d="M606.295,-342.251C578.38,-338.001 540.816,-327.231 522,-300 493.518,-258.78 576.742,-262.637 588,-244 598.621,-226.418 594.646,-200.982 591.46,-187.746"/>
<polygon fill="midnightblue" stroke="midnightblue" points="606.093,-345.754 616.462,-343.581 607.001,-338.814 606.093,-345.754"/>
</g>
<!-- Node12 -->
<g id="node12" class="node"><title>Node12</title>
<g id="a_node12"><a xlink:href="reporter_8h.xhtml" target="_top" xlink:title="Reporter of results. ">
<polygon fill="white" stroke="black" points="642,-56.5 642,-75.5 700,-75.5 700,-56.5 642,-56.5"/>
<text text-anchor="middle" x="671" y="-63.5" font-family="Helvetica,sans-Serif" font-size="10.00">reporter.h</text>
</a>
</g>
</g>
<!-- Node2&#45;&gt;Node12 -->
<g id="edge34" class="edge"><title>Node2&#45;&gt;Node12</title>
<path fill="none" stroke="midnightblue" d="M675.828,-341.823C702.951,-337.31 738.929,-326.394 757,-300 810.104,-222.439 710.402,-108.012 679.632,-75.7506"/>
<polygon fill="midnightblue" stroke="midnightblue" points="675.318,-338.36 665.923,-343.258 676.321,-345.288 675.318,-338.36"/>
</g>
<!-- Node14 -->
<g id="node14" class="node"><title>Node14</title>
<g id="a_node14"><a xlink:href="risk__analysis_8h.xhtml" target="_top" xlink:title="Contains the main system for performing analysis. ">
<polygon fill="white" stroke="black" points="548,-112.5 548,-131.5 630,-131.5 630,-112.5 548,-112.5"/>
<text text-anchor="middle" x="589" y="-119.5" font-family="Helvetica,sans-Serif" font-size="10.00">risk_analysis.h</text>
</a>
</g>
</g>
<!-- Node2&#45;&gt;Node14 -->
<g id="edge35" class="edge"><title>Node2&#45;&gt;Node14</title>
<path fill="none" stroke="midnightblue" d="M606.376,-336.338C587.669,-329.701 566.17,-318.451 555,-300 537.567,-271.202 586.292,-271.291 606,-244 621.228,-222.913 619.181,-213.729 623,-188 624.305,-179.207 625.826,-176.428 623,-168 618.144,-153.517 606.581,-139.975 598.288,-131.605"/>
<polygon fill="midnightblue" stroke="midnightblue" points="605.524,-339.741 616.115,-339.485 607.676,-333.08 605.524,-339.741"/>
</g>
<!-- Node16 -->
<g id="node16" class="node"><title>Node16</title>
<g id="a_node16"><a xlink:href="cycle_8h.xhtml" target="_top" xlink:title="Validation facilities to detect and print cycles in graphs. ">
<polygon fill="white" stroke="black" points="257,-280.5 257,-299.5 305,-299.5 305,-280.5 257,-280.5"/>
<text text-anchor="middle" x="281" y="-287.5" font-family="Helvetica,sans-Serif" font-size="10.00">cycle.h</text>
</a>
</g>
</g>
<!-- Node2&#45;&gt;Node16 -->
<g id="edge23" class="edge"><title>Node2&#45;&gt;Node16</title>
<path fill="none" stroke="midnightblue" d="M606.28,-340.979C547.53,-333.979 424.863,-318.517 322,-300 316.549,-299.019 310.721,-297.827 305.22,-296.636"/>
<polygon fill="midnightblue" stroke="midnightblue" points="606.145,-344.487 616.486,-342.186 606.967,-337.536 606.145,-344.487"/>
</g>
<!-- Node18 -->
<g id="node18" class="node"><title>Node18</title>
<g id="a_node18"><a xlink:href="event_8cc.xhtml" target="_top" xlink:title="Implementation of Event Class and its derived classes. ">
<polygon fill="white" stroke="black" points="564,-280.5 564,-299.5 618,-299.5 618,-280.5 564,-280.5"/>
<text text-anchor="middle" x="591" y="-287.5" font-family="Helvetica,sans-Serif" font-size="10.00">event.cc</text>
</a>
</g>
</g>
<!-- Node2&#45;&gt;Node18 -->
<g id="edge26" class="edge"><title>Node2&#45;&gt;Node18</title>
<path fill="none" stroke="midnightblue" d="M625.924,-328.718C617.111,-319.2 606.334,-307.561 599.103,-299.751"/>
<polygon fill="midnightblue" stroke="midnightblue" points="623.381,-331.123 632.744,-336.083 628.518,-326.367 623.381,-331.123"/>
</g>
<!-- Node19 -->
<g id="node19" class="node"><title>Node19</title>
<g id="a_node19"><a xlink:href="fault__tree__analysis_8cc.xhtml" target="_top" xlink:title="Implementation of fault tree analysis. ">
<polygon fill="white" stroke="black" points="636,-280.5 636,-299.5 748,-299.5 748,-280.5 636,-280.5"/>
<text text-anchor="middle" x="692" y="-287.5" font-family="Helvetica,sans-Serif" font-size="10.00">fault_tree_analysis.cc</text>
</a>
</g>
</g>
<!-- Node2&#45;&gt;Node19 -->
<g id="edge28" class="edge"><title>Node2&#45;&gt;Node19</title>
<path fill="none" stroke="midnightblue" d="M656.378,-328.718C665.367,-319.2 676.359,-307.561 683.735,-299.751"/>
<polygon fill="midnightblue" stroke="midnightblue" points="653.743,-326.41 649.422,-336.083 658.832,-331.216 653.743,-326.41"/>
</g>
<!-- Node20 -->
<g id="node20" class="node"><title>Node20</title>
<g id="a_node20"><a xlink:href="importance__analysis_8cc.xhtml" target="_top" xlink:title="Implementations of functions to provide quantitative importance informations. ">
<polygon fill="white" stroke="black" points="804.5,-280.5 804.5,-299.5 923.5,-299.5 923.5,-280.5 804.5,-280.5"/>
<text text-anchor="middle" x="864" y="-287.5" font-family="Helvetica,sans-Serif" font-size="10.00">importance_analysis.cc</text>
</a>
</g>
</g>
<!-- Node2&#45;&gt;Node20 -->
<g id="edge29" class="edge"><title>Node2&#45;&gt;Node20</title>
<path fill="none" stroke="midnightblue" d="M675.658,-336.607C717.245,-326.537 786.599,-309.743 828.54,-299.587"/>
<polygon fill="midnightblue" stroke="midnightblue" points="674.612,-333.259 665.717,-339.015 676.26,-340.063 674.612,-333.259"/>
</g>
<!-- Node21 -->
<g id="node21" class="node"><title>Node21</title>
<g id="a_node21"><a xlink:href="pdag_8cc.xhtml" target="_top" xlink:title="Implementation of a Propositional Directed Acyclic Graph with indexed nodes, variables, and gates. ">
<polygon fill="white" stroke="black" points="941.5,-280.5 941.5,-299.5 992.5,-299.5 992.5,-280.5 941.5,-280.5"/>
<text text-anchor="middle" x="967" y="-287.5" font-family="Helvetica,sans-Serif" font-size="10.00">pdag.cc</text>
</a>
</g>
</g>
<!-- Node2&#45;&gt;Node21 -->
<g id="edge32" class="edge"><title>Node2&#45;&gt;Node21</title>
<path fill="none" stroke="midnightblue" d="M676.022,-340.821C731.047,-333.982 840.974,-319.215 933,-300 935.75,-299.426 938.609,-298.768 941.449,-298.074"/>
<polygon fill="midnightblue" stroke="midnightblue" points="675.268,-337.387 665.77,-342.082 676.123,-344.335 675.268,-337.387"/>
</g>
<!-- Node22 -->
<g id="node22" class="node"><title>Node22</title>
<g id="a_node22"><a xlink:href="probability__analysis_8cc.xhtml" target="_top" xlink:title="Implementations of functions to provide probability analysis. ">
<polygon fill="white" stroke="black" points="1010,-280.5 1010,-299.5 1126,-299.5 1126,-280.5 1010,-280.5"/>
<text text-anchor="middle" x="1068" y="-287.5" font-family="Helvetica,sans-Serif" font-size="10.00">probability_analysis.cc</text>
</a>
</g>
</g>
<!-- Node2&#45;&gt;Node22 -->
<g id="edge33" class="edge"><title>Node2&#45;&gt;Node22</title>
<path fill="none" stroke="midnightblue" d="M675.515,-340.832C739.786,-333.04 882.164,-315.639 1002,-300 1004.52,-299.671 1007.1,-299.332 1009.7,-298.987"/>
<polygon fill="midnightblue" stroke="midnightblue" points="675.031,-337.365 665.525,-342.042 675.873,-344.314 675.031,-337.365"/>
</g>
<!-- Node23 -->
<g id="node23" class="node"><title>Node23</title>
<g id="a_node23"><a xlink:href="uncertainty__analysis_8cc.xhtml" target="_top" xlink:title="Implements the functionality to run Monte Carlo simulations. ">
<polygon fill="white" stroke="black" points="1144.5,-280.5 1144.5,-299.5 1263.5,-299.5 1263.5,-280.5 1144.5,-280.5"/>
<text text-anchor="middle" x="1204" y="-287.5" font-family="Helvetica,sans-Serif" font-size="10.00">uncertainty_analysis.cc</text>
</a>
</g>
</g>
<!-- Node2&#45;&gt;Node23 -->
<g id="edge36" class="edge"><title>Node2&#45;&gt;Node23</title>
<path fill="none" stroke="midnightblue" d="M675.812,-342.297C756.585,-335.923 962.972,-319.047 1135,-300 1138,-299.668 1141.08,-299.314 1144.18,-298.947"/>
<polygon fill="midnightblue" stroke="midnightblue" points="675.402,-338.818 665.707,-343.091 675.95,-345.797 675.402,-338.818"/>
</g>
<!-- Node4 -->
<g id="node4" class="node"><title>Node4</title>
<g id="a_node4"><a xlink:href="ccf__group_8cc.xhtml" target="_top" xlink:title="Implementation of various common cause failure models. ">
<polygon fill="white" stroke="black" points="485.5,-224.5 485.5,-243.5 558.5,-243.5 558.5,-224.5 485.5,-224.5"/>
<text text-anchor="middle" x="522" y="-231.5" font-family="Helvetica,sans-Serif" font-size="10.00">ccf_group.cc</text>
</a>
</g>
</g>
<!-- Node3&#45;&gt;Node4 -->
<g id="edge3" class="edge"><title>Node3&#45;&gt;Node4</title>
<path fill="none" stroke="midnightblue" d="M458.455,-274.901C474.224,-264.999 494.814,-252.071 508.217,-243.655"/>
<polygon fill="midnightblue" stroke="midnightblue" points="456.425,-272.042 449.817,-280.324 460.148,-277.97 456.425,-272.042"/>
</g>
<!-- Node3&#45;&gt;Node5 -->
<g id="edge4" class="edge"><title>Node3&#45;&gt;Node5</title>
<path fill="none" stroke="midnightblue" d="M435.645,-269.805C435.48,-260.91 435.292,-250.78 435.162,-243.751"/>
<polygon fill="midnightblue" stroke="midnightblue" points="432.15,-270.15 435.835,-280.083 439.149,-270.02 432.15,-270.15"/>
</g>
<!-- Node3&#45;&gt;Node7 -->
<g id="edge20" class="edge"><title>Node3&#45;&gt;Node7</title>
<path fill="none" stroke="midnightblue" d="M415.756,-273.859C406.991,-266.031 397.68,-255.672 393,-244 376.677,-203.291 406.946,-151.915 420.706,-131.718"/>
<polygon fill="midnightblue" stroke="midnightblue" points="413.576,-276.599 423.503,-280.302 418.052,-271.217 413.576,-276.599"/>
</g>
<!-- Node3&#45;&gt;Node10 -->
<g id="edge21" class="edge"><title>Node3&#45;&gt;Node10</title>
<path fill="none" stroke="midnightblue" d="M480.063,-278.333C513.037,-269.552 554.508,-256.549 567,-244 582.465,-228.465 587.065,-201.682 588.428,-187.846"/>
<polygon fill="midnightblue" stroke="midnightblue" points="478.938,-275.009 470.143,-280.918 480.703,-281.783 478.938,-275.009"/>
</g>
<!-- Node3&#45;&gt;Node13 -->
<g id="edge22" class="edge"><title>Node3&#45;&gt;Node13</title>
<path fill="none" stroke="midnightblue" d="M480.234,-283.7C512.502,-278.081 556.003,-266.709 588,-244 674.311,-182.743 723.054,-54.6949 735.056,-19.8929"/>
<polygon fill="midnightblue" stroke="midnightblue" points="479.492,-280.275 470.181,-285.33 480.612,-287.185 479.492,-280.275"/>
</g>
<!-- Node5&#45;&gt;Node6 -->
<g id="edge5" class="edge"><title>Node5&#45;&gt;Node6</title>
<path fill="none" stroke="midnightblue" d="M411.962,-219.177C395.401,-209.241 373.582,-196.149 359.424,-187.655"/>
<polygon fill="midnightblue" stroke="midnightblue" points="410.164,-222.18 420.54,-224.324 413.766,-216.178 410.164,-222.18"/>
</g>
<!-- Node5&#45;&gt;Node7 -->
<g id="edge6" class="edge"><title>Node5&#45;&gt;Node7</title>
<path fill="none" stroke="midnightblue" d="M433.643,-214.348C431.891,-190.254 428.913,-149.308 427.625,-131.591"/>
<polygon fill="midnightblue" stroke="midnightblue" points="430.156,-214.649 434.372,-224.368 437.138,-214.141 430.156,-214.649"/>
</g>
<!-- Node5&#45;&gt;Node10 -->
<g id="edge9" class="edge"><title>Node5&#45;&gt;Node10</title>
<path fill="none" stroke="midnightblue" d="M469.111,-221.039C498.087,-210.879 538.962,-196.546 564.712,-187.516"/>
<polygon fill="midnightblue" stroke="midnightblue" points="467.68,-217.832 459.402,-224.444 469.997,-224.437 467.68,-217.832"/>
</g>
<!-- Node15 -->
<g id="node15" class="node"><title>Node15</title>
<g id="a_node15"><a xlink:href="risk__analysis_8cc.xhtml" target="_top" xlink:title="Implementation of risk analysis handler. ">
<polygon fill="white" stroke="black" points="467.5,-56.5 467.5,-75.5 554.5,-75.5 554.5,-56.5 467.5,-56.5"/>
<text text-anchor="middle" x="511" y="-63.5" font-family="Helvetica,sans-Serif" font-size="10.00">risk_analysis.cc</text>
</a>
</g>
</g>
<!-- Node5&#45;&gt;Node15 -->
<g id="edge19" class="edge"><title>Node5&#45;&gt;Node15</title>
<path fill="none" stroke="midnightblue" d="M443.307,-214.856C459.607,-179.252 495.226,-101.453 507.077,-75.5681"/>
<polygon fill="midnightblue" stroke="midnightblue" points="440.067,-213.526 439.086,-224.075 446.431,-216.44 440.067,-213.526"/>
</g>
<!-- Node7&#45;&gt;Node8 -->
<g id="edge7" class="edge"><title>Node7&#45;&gt;Node8</title>
<path fill="none" stroke="midnightblue" d="M385.417,-112.297C334.845,-101.712 250.423,-84.042 203.36,-74.1917"/>
<polygon fill="midnightblue" stroke="midnightblue" points="384.859,-115.756 395.364,-114.379 386.293,-108.904 384.859,-115.756"/>
</g>
<!-- Node7&#45;&gt;Node9 -->
<g id="edge8" class="edge"><title>Node7&#45;&gt;Node9</title>
<path fill="none" stroke="midnightblue" d="M433.425,-102.703C438.749,-89.0394 447.185,-70.3322 458,-56 469.095,-41.2958 485.606,-27.8021 496.813,-19.5039"/>
<polygon fill="midnightblue" stroke="midnightblue" points="430.025,-101.806 429.838,-112.399 436.59,-104.235 430.025,-101.806"/>
</g>
<!-- Node10&#45;&gt;Node7 -->
<g id="edge10" class="edge"><title>Node10&#45;&gt;Node7</title>
<path fill="none" stroke="midnightblue" d="M553.516,-165.172C523.012,-155.004 479.755,-140.585 452.549,-131.516"/>
<polygon fill="midnightblue" stroke="midnightblue" points="552.737,-168.602 563.331,-168.444 554.951,-161.961 552.737,-168.602"/>
</g>
<!-- Node10&#45;&gt;Node11 -->
<g id="edge11" class="edge"><title>Node10&#45;&gt;Node11</title>
<path fill="none" stroke="midnightblue" d="M624.689,-172.755C712.219,-162.344 936.131,-135.711 1015,-126.331"/>
<polygon fill="midnightblue" stroke="midnightblue" points="624.226,-169.285 614.71,-173.942 625.053,-176.236 624.226,-169.285"/>
</g>
<!-- Node10&#45;&gt;Node12 -->
<g id="edge12" class="edge"><title>Node10&#45;&gt;Node12</title>
<path fill="none" stroke="midnightblue" d="M609.02,-161.988C618.903,-153.878 630.498,-143.237 639,-132 652.813,-113.744 663.159,-88.5929 667.987,-75.5776"/>
<polygon fill="midnightblue" stroke="midnightblue" points="606.567,-159.466 600.896,-168.416 610.91,-164.956 606.567,-159.466"/>
</g>
<!-- Node10&#45;&gt;Node14 -->
<g id="edge15" class="edge"><title>Node10&#45;&gt;Node14</title>
<path fill="none" stroke="midnightblue" d="M589,-157.805C589,-148.91 589,-138.78 589,-131.751"/>
<polygon fill="midnightblue" stroke="midnightblue" points="585.5,-158.083 589,-168.083 592.5,-158.083 585.5,-158.083"/>
</g>
<!-- Node12&#45;&gt;Node9 -->
<g id="edge14" class="edge"><title>Node12&#45;&gt;Node9</title>
<path fill="none" stroke="midnightblue" d="M635.516,-53.172C605.012,-43.0039 561.755,-28.5852 534.549,-19.5164"/>
<polygon fill="midnightblue" stroke="midnightblue" points="634.737,-56.6016 645.331,-56.4435 636.951,-49.9608 634.737,-56.6016"/>
</g>
<!-- Node12&#45;&gt;Node13 -->
<g id="edge13" class="edge"><title>Node12&#45;&gt;Node13</title>
<path fill="none" stroke="midnightblue" d="M689.835,-49.8197C701.838,-40.1452 716.972,-27.9481 727.039,-19.8339"/>
<polygon fill="midnightblue" stroke="midnightblue" points="687.354,-47.3236 681.765,-56.324 691.747,-52.7738 687.354,-47.3236"/>
</g>
<!-- Node14&#45;&gt;Node9 -->
<g id="edge18" class="edge"><title>Node14&#45;&gt;Node9</title>
<path fill="none" stroke="midnightblue" d="M584.298,-102.581C580.19,-88.8541 573.259,-70.1212 563,-56 552.098,-40.9929 535.105,-27.9424 523.097,-19.8157"/>
<polygon fill="midnightblue" stroke="midnightblue" points="580.957,-103.629 586.998,-112.332 587.703,-101.761 580.957,-103.629"/>
</g>
<!-- Node14&#45;&gt;Node12 -->
<g id="edge16" class="edge"><title>Node14&#45;&gt;Node12</title>
<path fill="none" stroke="midnightblue" d="M610.833,-106.622C625.813,-96.7574 645.197,-83.9919 657.858,-75.6545"/>
<polygon fill="midnightblue" stroke="midnightblue" points="608.601,-103.901 602.175,-112.324 612.451,-109.747 608.601,-103.901"/>
</g>
<!-- Node14&#45;&gt;Node15 -->
<g id="edge17" class="edge"><title>Node14&#45;&gt;Node15</title>
<path fill="none" stroke="midnightblue" d="M568.232,-106.622C553.983,-96.7574 535.544,-83.9919 523.501,-75.6545"/>
<polygon fill="midnightblue" stroke="midnightblue" points="566.254,-109.51 576.468,-112.324 570.238,-103.754 566.254,-109.51"/>
</g>
<!-- Node16&#45;&gt;Node8 -->
<g id="edge25" class="edge"><title>Node16&#45;&gt;Node8</title>
<path fill="none" stroke="midnightblue" d="M266.057,-272.542C259.093,-264.348 251.034,-254.062 245,-244 208.54,-183.197 180.347,-101.714 171.732,-75.5003"/>
<polygon fill="midnightblue" stroke="midnightblue" points="263.565,-275.008 272.786,-280.226 268.831,-270.397 263.565,-275.008"/>
</g>
<!-- Node17 -->
<g id="node17" class="node"><title>Node17</title>
<g id="a_node17"><a xlink:href="cycle_8cc.xhtml" target="_top" xlink:title="Implementation of helper facilities to work with cycles. ">
<polygon fill="white" stroke="black" points="254.5,-224.5 254.5,-243.5 307.5,-243.5 307.5,-224.5 254.5,-224.5"/>
<text text-anchor="middle" x="281" y="-231.5" font-family="Helvetica,sans-Serif" font-size="10.00">cycle.cc</text>
</a>
</g>
</g>
<!-- Node16&#45;&gt;Node17 -->
<g id="edge24" class="edge"><title>Node16&#45;&gt;Node17</title>
<path fill="none" stroke="midnightblue" d="M281,-269.805C281,-260.91 281,-250.78 281,-243.751"/>
<polygon fill="midnightblue" stroke="midnightblue" points="277.5,-270.083 281,-280.083 284.5,-270.083 277.5,-270.083"/>
</g>
<!-- Node25&#45;&gt;Node8 -->
<g id="edge40" class="edge"><title>Node25&#45;&gt;Node8</title>
<path fill="none" stroke="midnightblue" d="M106.193,-326.281C108.561,-304.416 112,-267.137 112,-235 112,-235 112,-235 112,-177 112,-135.058 145.072,-93.1882 160.833,-75.6161"/>
<polygon fill="midnightblue" stroke="midnightblue" points="102.688,-326.128 105.046,-336.458 109.644,-326.913 102.688,-326.128"/>
</g>
<!-- Node25&#45;&gt;Node24 -->
<g id="edge39" class="edge"><title>Node25&#45;&gt;Node24</title>
<path fill="none" stroke="midnightblue" d="M89.2723,-328.431C80.8599,-318.967 70.6513,-307.483 63.7787,-299.751"/>
<polygon fill="midnightblue" stroke="midnightblue" points="86.8142,-330.934 96.0738,-336.083 92.046,-326.284 86.8142,-330.934"/>
</g>
<!-- Node34&#45;&gt;Node12 -->
<g id="edge53" class="edge"><title>Node34&#45;&gt;Node12</title>
<path fill="none" stroke="midnightblue" d="M1380.64,-330.434C1391.23,-322.576 1403.2,-312.024 1411,-300 1427.38,-274.752 1430,-265.098 1430,-235 1430,-235 1430,-235 1430,-177 1430,-101.855 839.775,-73.7013 700.289,-68.097"/>
<polygon fill="midnightblue" stroke="midnightblue" points="1378.36,-327.76 1372.19,-336.374 1382.38,-333.486 1378.36,-327.76"/>
</g>
<!-- Node35 -->
<g id="node35" class="node"><title>Node35</title>
<g id="a_node35"><a xlink:href="xml__stream_8cc.xhtml" target="_top" xlink:title="Implementation of facilities to stream for XML data. ">
<polygon fill="white" stroke="black" points="1320.5,-280.5 1320.5,-299.5 1401.5,-299.5 1401.5,-280.5 1320.5,-280.5"/>
<text text-anchor="middle" x="1361" y="-287.5" font-family="Helvetica,sans-Serif" font-size="10.00">xml_stream.cc</text>
</a>
</g>
</g>
<!-- Node34&#45;&gt;Node35 -->
<g id="edge54" class="edge"><title>Node34&#45;&gt;Node35</title>
<path fill="none" stroke="midnightblue" d="M1359.07,-325.805C1359.56,-316.91 1360.12,-306.78 1360.51,-299.751"/>
<polygon fill="midnightblue" stroke="midnightblue" points="1355.56,-325.904 1358.5,-336.083 1362.54,-326.293 1355.56,-325.904"/>
</g>
</g>
</svg>
