<?xml version="1.0" encoding="UTF-8" standalone="no"?>
<!DOCTYPE svg PUBLIC "-//W3C//DTD SVG 1.1//EN"
 "http://www.w3.org/Graphics/SVG/1.1/DTD/svg11.dtd">
<!-- Generated by graphviz version 2.38.0 (20140413.2041)
 -->
<!-- Title: event_tree.cc Pages: 1 -->
<!--zoomable 263 -->
<svg id="main" version="1.1" xmlns="http://www.w3.org/2000/svg" xmlns:xlink="http://www.w3.org/1999/xlink" xml:space="preserve" onload="init(evt)">
<style type="text/css"><![CDATA[
.edge:hover path { stroke: red; }
.edge:hover polygon { stroke: red; fill: red; }
]]></style>
<script type="text/javascript"><![CDATA[
var edges = document.getElementsByTagName('g');
if (edges && edges.length) {
  for (var i=0;i<edges.length;i++) {
    if (edges[i].id.substr(0,4)=='edge') {
      edges[i].setAttribute('class','edge');
    }
  }
}
]]></script>
        <defs>
                <circle id="rim" cx="0" cy="0" r="7"/>
                <circle id="rim2" cx="0" cy="0" r="3.5"/>
                <g id="zoomPlus">
                        <use xlink:href="#rim" fill="#404040">
                                <set attributeName="fill" to="#808080" begin="zoomplus.mouseover" end="zoomplus.mouseout"/>
                        </use>
                        <path d="M-4,0h8M0,-4v8" fill="none" stroke="white" stroke-width="1.5" pointer-events="none"/>
                </g>
                <g id="zoomMin">
                        <use xlink:href="#rim" fill="#404040">
                                <set attributeName="fill" to="#808080" begin="zoomminus.mouseover" end="zoomminus.mouseout"/>
                        </use>
                        <path d="M-4,0h8" fill="none" stroke="white" stroke-width="1.5" pointer-events="none"/>
                </g>
                <g id="dirArrow">
                        <path fill="none" stroke="white" stroke-width="1.5" d="M0,-3.0v7 M-2.5,-0.5L0,-3.0L2.5,-0.5"/>
                </g>
               <g id="resetDef">
                       <use xlink:href="#rim2" fill="#404040">
                               <set attributeName="fill" to="#808080" begin="reset.mouseover" end="reset.mouseout"/>
                       </use>
               </g>
        </defs>

<script type="text/javascript">
var viewWidth = 664;
var viewHeight = 263;
var sectionId = 'dynsection-0';
</script>
<script xlink:href="svgpan.js"/>
<svg id="graph" class="graph">
<g id="viewport">
<title>event_tree.cc</title>
<polygon fill="white" stroke="none" points="-4,4 -4,-259 659.5,-259 659.5,4 -4,4"/>
<!-- Node1 -->
<g id="node1" class="node"><title>Node1</title>
<polygon fill="#bfbfbf" stroke="black" points="376,-235.5 376,-254.5 452,-254.5 452,-235.5 376,-235.5"/>
<text text-anchor="middle" x="414" y="-242.5" font-family="Helvetica,sans-Serif" font-size="10.00">event_tree.cc</text>
</g>
<!-- Node2 -->
<g id="node2" class="node"><title>Node2</title>
<g id="a_node2"><a xlink:href="event__tree_8h.xhtml" target="_top" xlink:title="Event Tree facilities. ">
<polygon fill="white" stroke="black" points="262.5,-179.5 262.5,-198.5 333.5,-198.5 333.5,-179.5 262.5,-179.5"/>
<text text-anchor="middle" x="298" y="-186.5" font-family="Helvetica,sans-Serif" font-size="10.00">event_tree.h</text>
</a>
</g>
</g>
<!-- Node1&#45;&gt;Node2 -->
<g id="edge1" class="edge"><title>Node1&#45;&gt;Node2</title>
<path fill="none" stroke="midnightblue" d="M395.619,-235.444C376.784,-226.675 347.269,-212.935 325.621,-202.858"/>
<polygon fill="midnightblue" stroke="midnightblue" points="326.838,-199.564 316.295,-198.516 323.883,-205.91 326.838,-199.564"/>
</g>
<!-- Node13 -->
<g id="node13" class="node"><title>Node13</title>
<g id="a_node13"><a xlink:href="error_8h.xhtml" target="_top" xlink:title="Exceptions for SCRAM. ">
<polygon fill="white" stroke="black" points="546,-179.5 546,-198.5 590,-198.5 590,-179.5 546,-179.5"/>
<text text-anchor="middle" x="568" y="-186.5" font-family="Helvetica,sans-Serif" font-size="10.00">error.h</text>
</a>
</g>
</g>
<!-- Node1&#45;&gt;Node13 -->
<g id="edge19" class="edge"><title>Node1&#45;&gt;Node13</title>
<path fill="none" stroke="midnightblue" d="M438.402,-235.444C464.804,-226.186 507.009,-211.387 536.04,-201.207"/>
<polygon fill="midnightblue" stroke="midnightblue" points="537.434,-204.427 545.712,-197.815 535.118,-197.821 537.434,-204.427"/>
</g>
<!-- Node3 -->
<g id="node3" class="node"><title>Node3</title>
<polygon fill="white" stroke="#bfbfbf" points="340,-67.5 340,-86.5 392,-86.5 392,-67.5 340,-67.5"/>
<text text-anchor="middle" x="366" y="-74.5" font-family="Helvetica,sans-Serif" font-size="10.00">memory</text>
</g>
<!-- Node2&#45;&gt;Node3 -->
<g id="edge2" class="edge"><title>Node2&#45;&gt;Node3</title>
<path fill="none" stroke="midnightblue" d="M303.336,-179.368C314.508,-161.296 340.545,-119.176 355.301,-95.3074"/>
<polygon fill="midnightblue" stroke="midnightblue" points="358.408,-96.9378 360.689,-86.5914 352.454,-93.257 358.408,-96.9378"/>
</g>
<!-- Node4 -->
<g id="node4" class="node"><title>Node4</title>
<polygon fill="white" stroke="#bfbfbf" points="584.5,-6 584.5,-25 625.5,-25 625.5,-6 584.5,-6"/>
<text text-anchor="middle" x="605" y="-13" font-family="Helvetica,sans-Serif" font-size="10.00">string</text>
</g>
<!-- Node2&#45;&gt;Node4 -->
<g id="edge3" class="edge"><title>Node2&#45;&gt;Node4</title>
<path fill="none" stroke="midnightblue" d="M313.224,-179.495C362.837,-151.78 520.138,-63.9065 580.808,-30.0145"/>
<polygon fill="midnightblue" stroke="midnightblue" points="582.661,-32.9886 589.684,-25.056 579.247,-26.8775 582.661,-32.9886"/>
</g>
<!-- Node5 -->
<g id="node5" class="node"><title>Node5</title>
<polygon fill="white" stroke="#bfbfbf" points="0,-6 0,-25 44,-25 44,-6 0,-6"/>
<text text-anchor="middle" x="22" y="-13" font-family="Helvetica,sans-Serif" font-size="10.00">vector</text>
</g>
<!-- Node2&#45;&gt;Node5 -->
<g id="edge4" class="edge"><title>Node2&#45;&gt;Node5</title>
<path fill="none" stroke="midnightblue" d="M262.292,-184.678C206.084,-177.445 97.5613,-155.001 41,-87 28.9851,-72.5551 24.5138,-51.204 22.8786,-35.786"/>
<polygon fill="midnightblue" stroke="midnightblue" points="26.3356,-35.0774 22.1029,-25.3648 19.3549,-35.5971 26.3356,-35.0774"/>
</g>
<!-- Node6 -->
<g id="node6" class="node"><title>Node6</title>
<polygon fill="white" stroke="#bfbfbf" points="50.5,-67.5 50.5,-86.5 167.5,-86.5 167.5,-67.5 50.5,-67.5"/>
<text text-anchor="middle" x="109" y="-74.5" font-family="Helvetica,sans-Serif" font-size="10.00">boost/noncopyable.hpp</text>
</g>
<!-- Node2&#45;&gt;Node6 -->
<g id="edge5" class="edge"><title>Node2&#45;&gt;Node6</title>
<path fill="none" stroke="midnightblue" d="M271.438,-179.479C248.714,-171.627 215.564,-158.812 189,-143 165.127,-128.789 140.787,-107.909 125.327,-93.6753"/>
<polygon fill="midnightblue" stroke="midnightblue" points="127.4,-90.8214 117.71,-86.5359 122.613,-95.9285 127.4,-90.8214"/>
</g>
<!-- Node7 -->
<g id="node7" class="node"><title>Node7</title>
<g id="a_node7"><a xlink:href="element_8h.xhtml" target="_top" xlink:title="Helper classes, structs, and properties common to all other classes. ">
<polygon fill="white" stroke="black" points="262.5,-67.5 262.5,-86.5 321.5,-86.5 321.5,-67.5 262.5,-67.5"/>
<text text-anchor="middle" x="292" y="-74.5" font-family="Helvetica,sans-Serif" font-size="10.00">element.h</text>
</a>
</g>
</g>
<!-- Node2&#45;&gt;Node7 -->
<g id="edge6" class="edge"><title>Node2&#45;&gt;Node7</title>
<path fill="none" stroke="midnightblue" d="M297.529,-179.368C296.561,-161.617 294.327,-120.666 293.014,-96.5974"/>
<polygon fill="midnightblue" stroke="midnightblue" points="296.508,-96.3859 292.469,-86.5914 289.519,-96.7672 296.508,-96.3859"/>
</g>
<!-- Node12 -->
<g id="node12" class="node"><title>Node12</title>
<g id="a_node12"><a xlink:href="expression_8h.xhtml" target="_top" xlink:title="Provides the base class for all expressions and units for expression values. ">
<polygon fill="white" stroke="black" points="198,-123.5 198,-142.5 270,-142.5 270,-123.5 198,-123.5"/>
<text text-anchor="middle" x="234" y="-130.5" font-family="Helvetica,sans-Serif" font-size="10.00">expression.h</text>
</a>
</g>
</g>
<!-- Node2&#45;&gt;Node12 -->
<g id="edge13" class="edge"><title>Node2&#45;&gt;Node12</title>
<path fill="none" stroke="midnightblue" d="M287.717,-179.324C278.164,-171.263 263.72,-159.077 252.216,-149.369"/>
<polygon fill="midnightblue" stroke="midnightblue" points="254.37,-146.608 244.47,-142.834 249.856,-151.958 254.37,-146.608"/>
</g>
<!-- Node7&#45;&gt;Node4 -->
<g id="edge8" class="edge"><title>Node7&#45;&gt;Node4</title>
<path fill="none" stroke="midnightblue" d="M321.759,-68.8735C324.872,-68.2055 327.996,-67.5673 331,-67 438.715,-46.6592 470.224,-63.2221 575,-31 576.673,-30.4856 578.369,-29.8903 580.06,-29.2405"/>
<polygon fill="midnightblue" stroke="midnightblue" points="581.734,-32.3281 589.484,-25.1045 578.921,-25.9182 581.734,-32.3281"/>
</g>
<!-- Node7&#45;&gt;Node5 -->
<g id="edge9" class="edge"><title>Node7&#45;&gt;Node5</title>
<path fill="none" stroke="midnightblue" d="M262.346,-72.8476C216.576,-67.4436 126.34,-54.639 53,-31 51.3282,-30.4611 49.6291,-29.8534 47.9314,-29.1998"/>
<polygon fill="midnightblue" stroke="midnightblue" points="48.9909,-25.8458 38.4212,-25.1165 46.2291,-32.278 48.9909,-25.8458"/>
</g>
<!-- Node8 -->
<g id="node8" class="node"><title>Node8</title>
<polygon fill="white" stroke="#bfbfbf" points="62,-6 62,-25 108,-25 108,-6 62,-6"/>
<text text-anchor="middle" x="85" y="-13" font-family="Helvetica,sans-Serif" font-size="10.00">cstdint</text>
</g>
<!-- Node7&#45;&gt;Node8 -->
<g id="edge7" class="edge"><title>Node7&#45;&gt;Node8</title>
<path fill="none" stroke="midnightblue" d="M262.429,-70.0419C227.255,-62.5796 167.006,-48.6086 117,-31 115.339,-30.415 113.645,-29.7776 111.948,-29.1069"/>
<polygon fill="midnightblue" stroke="midnightblue" points="112.953,-25.7309 102.381,-25.0365 110.212,-32.1721 112.953,-25.7309"/>
</g>
<!-- Node9 -->
<g id="node9" class="node"><title>Node9</title>
<polygon fill="white" stroke="#bfbfbf" points="262.5,-6 262.5,-25 419.5,-25 419.5,-6 262.5,-6"/>
<text text-anchor="middle" x="341" y="-13" font-family="Helvetica,sans-Serif" font-size="10.00">boost/multi_index_container.hpp</text>
</g>
<!-- Node7&#45;&gt;Node9 -->
<g id="edge10" class="edge"><title>Node7&#45;&gt;Node9</title>
<path fill="none" stroke="midnightblue" d="M299.021,-67.4751C306.443,-58.4617 318.333,-44.0246 327.567,-32.8118"/>
<polygon fill="midnightblue" stroke="midnightblue" points="330.337,-34.9534 333.993,-25.0091 324.934,-30.5034 330.337,-34.9534"/>
</g>
<!-- Node10 -->
<g id="node10" class="node"><title>Node10</title>
<polygon fill="white" stroke="#bfbfbf" points="438,-0.5 438,-30.5 566,-30.5 566,-0.5 438,-0.5"/>
<text text-anchor="start" x="446" y="-18.5" font-family="Helvetica,sans-Serif" font-size="10.00">boost/multi_index/hashed</text>
<text text-anchor="middle" x="502" y="-7.5" font-family="Helvetica,sans-Serif" font-size="10.00">_index.hpp</text>
</g>
<!-- Node7&#45;&gt;Node10 -->
<g id="edge11" class="edge"><title>Node7&#45;&gt;Node10</title>
<path fill="none" stroke="midnightblue" d="M321.642,-67.6013C352.911,-58.742 403.023,-44.5436 442.498,-33.3589"/>
<polygon fill="midnightblue" stroke="midnightblue" points="443.62,-36.6789 452.287,-30.5854 441.712,-29.944 443.62,-36.6789"/>
</g>
<!-- Node11 -->
<g id="node11" class="node"><title>Node11</title>
<polygon fill="white" stroke="#bfbfbf" points="126,-0.5 126,-30.5 244,-30.5 244,-0.5 126,-0.5"/>
<text text-anchor="start" x="134" y="-18.5" font-family="Helvetica,sans-Serif" font-size="10.00">boost/multi_index/mem</text>
<text text-anchor="middle" x="185" y="-7.5" font-family="Helvetica,sans-Serif" font-size="10.00">_fun.hpp</text>
</g>
<!-- Node7&#45;&gt;Node11 -->
<g id="edge12" class="edge"><title>Node7&#45;&gt;Node11</title>
<path fill="none" stroke="midnightblue" d="M276.67,-67.4751C261.704,-59.1531 238.423,-46.2074 219.069,-35.445"/>
<polygon fill="midnightblue" stroke="midnightblue" points="220.658,-32.324 210.218,-30.523 217.256,-38.4418 220.658,-32.324"/>
</g>
<!-- Node12&#45;&gt;Node3 -->
<g id="edge15" class="edge"><title>Node12&#45;&gt;Node3</title>
<path fill="none" stroke="midnightblue" d="M254.916,-123.444C276.736,-114.517 311.15,-100.439 335.892,-90.3168"/>
<polygon fill="midnightblue" stroke="midnightblue" points="337.252,-93.5422 345.182,-86.5164 334.601,-87.0634 337.252,-93.5422"/>
</g>
<!-- Node12&#45;&gt;Node5 -->
<g id="edge16" class="edge"><title>Node12&#45;&gt;Node5</title>
<path fill="none" stroke="midnightblue" d="M228.696,-123.448C219.623,-109.53 199.782,-82.0258 176,-67 127.846,-36.5754 106.286,-51.1252 53,-31 51.5757,-30.4621 50.1259,-29.8865 48.67,-29.2863"/>
<polygon fill="midnightblue" stroke="midnightblue" points="49.7412,-25.9337 39.1789,-25.1042 46.9186,-32.3394 49.7412,-25.9337"/>
</g>
<!-- Node12&#45;&gt;Node6 -->
<g id="edge17" class="edge"><title>Node12&#45;&gt;Node6</title>
<path fill="none" stroke="midnightblue" d="M214.193,-123.444C193.713,-114.596 161.517,-100.687 138.135,-90.5865"/>
<polygon fill="midnightblue" stroke="midnightblue" points="139.282,-87.2692 128.714,-86.5164 136.506,-93.6953 139.282,-87.2692"/>
</g>
<!-- Node12&#45;&gt;Node7 -->
<g id="edge18" class="edge"><title>Node12&#45;&gt;Node7</title>
<path fill="none" stroke="midnightblue" d="M243.319,-123.324C251.893,-115.341 264.812,-103.313 275.188,-93.6529"/>
<polygon fill="midnightblue" stroke="midnightblue" points="277.578,-96.2098 282.512,-86.8339 272.808,-91.0865 277.578,-96.2098"/>
</g>
<!-- Node12&#45;&gt;Node8 -->
<g id="edge14" class="edge"><title>Node12&#45;&gt;Node8</title>
<path fill="none" stroke="midnightblue" d="M233.058,-123.21C231.133,-109.451 225.528,-82.773 210,-67 178.905,-35.4156 157.868,-48.1533 117,-31 115.629,-30.4246 114.229,-29.8274 112.818,-29.2176"/>
<polygon fill="midnightblue" stroke="midnightblue" points="114.097,-25.9561 103.536,-25.1115 111.265,-32.3578 114.097,-25.9561"/>
</g>
<!-- Node13&#45;&gt;Node4 -->
<g id="edge21" class="edge"><title>Node13&#45;&gt;Node4</title>
<path fill="none" stroke="midnightblue" d="M569.886,-179.26C575.651,-152.536 593.13,-71.5174 601.039,-34.8618"/>
<polygon fill="midnightblue" stroke="midnightblue" points="604.474,-35.5326 603.162,-25.0194 597.632,-34.0563 604.474,-35.5326"/>
</g>
<!-- Node14 -->
<g id="node14" class="node"><title>Node14</title>
<polygon fill="white" stroke="#bfbfbf" points="596.5,-123.5 596.5,-142.5 655.5,-142.5 655.5,-123.5 596.5,-123.5"/>
<text text-anchor="middle" x="626" y="-130.5" font-family="Helvetica,sans-Serif" font-size="10.00">exception</text>
</g>
<!-- Node13&#45;&gt;Node14 -->
<g id="edge20" class="edge"><title>Node13&#45;&gt;Node14</title>
<path fill="none" stroke="midnightblue" d="M577.319,-179.324C585.893,-171.341 598.812,-159.313 609.188,-149.653"/>
<polygon fill="midnightblue" stroke="midnightblue" points="611.578,-152.21 616.512,-142.834 606.808,-147.086 611.578,-152.21"/>
</g>
</g>
</svg>
        <g id="navigator" transform="translate(0 0)" fill="#404254">
                <rect fill="#f2f5e9" fill-opacity="0.5" stroke="#606060" stroke-width=".5" x="0" y="0" width="60" height="60"/>
                <use id="zoomplus" xlink:href="#zoomPlus" x="17" y="9" onmousedown="handleZoom(evt,'in')"/>
                <use id="zoomminus" xlink:href="#zoomMin" x="42" y="9" onmousedown="handleZoom(evt,'out')"/>
                <use id="reset" xlink:href="#resetDef" x="30" y="36" onmousedown="handleReset()"/>
                <g id="arrowUp" xlink:href="#dirArrow" transform="translate(30 24)" onmousedown="handlePan(0,-1)">
                  <use xlink:href="#rim" fill="#404040">
                        <set attributeName="fill" to="#808080" begin="arrowUp.mouseover" end="arrowUp.mouseout"/>
                  </use>
                  <path fill="none" stroke="white" stroke-width="1.5" d="M0,-3.0v7 M-2.5,-0.5L0,-3.0L2.5,-0.5"/>
                </g>
                <g id="arrowRight" xlink:href="#dirArrow" transform="rotate(90) translate(36 -43)" onmousedown="handlePan(1,0)">
                  <use xlink:href="#rim" fill="#404040">
                        <set attributeName="fill" to="#808080" begin="arrowRight.mouseover" end="arrowRight.mouseout"/>
                  </use>
                  <path fill="none" stroke="white" stroke-width="1.5" d="M0,-3.0v7 M-2.5,-0.5L0,-3.0L2.5,-0.5"/>
                </g>
                <g id="arrowDown" xlink:href="#dirArrow" transform="rotate(180) translate(-30 -48)" onmousedown="handlePan(0,1)">
                  <use xlink:href="#rim" fill="#404040">
                        <set attributeName="fill" to="#808080" begin="arrowDown.mouseover" end="arrowDown.mouseout"/>
                  </use>
                  <path fill="none" stroke="white" stroke-width="1.5" d="M0,-3.0v7 M-2.5,-0.5L0,-3.0L2.5,-0.5"/>
                </g>
                <g id="arrowLeft" xlink:href="#dirArrow" transform="rotate(270) translate(-36 17)" onmousedown="handlePan(-1,0)">
                  <use xlink:href="#rim" fill="#404040">
                        <set attributeName="fill" to="#808080" begin="arrowLeft.mouseover" end="arrowLeft.mouseout"/>
                  </use>
                  <path fill="none" stroke="white" stroke-width="1.5" d="M0,-3.0v7 M-2.5,-0.5L0,-3.0L2.5,-0.5"/>
                </g>
        </g>
        <svg viewBox="0 0 15 15" width="100%" height="30px" preserveAspectRatio="xMaxYMin meet">
         <g id="arrow_out" transform="scale(0.3 0.3)">
          <a xlink:href="event__tree_8cc__incl_org.svg" target="_base">
           <rect id="button" ry="5" rx="5" y="6" x="6" height="38" width="38"
                fill="#f2f5e9" fill-opacity="0.5" stroke="#606060" stroke-width="1.0"/>
           <path id="arrow"
             d="M 11.500037,31.436501 C 11.940474,20.09759 22.043105,11.32322 32.158766,21.979434 L 37.068811,17.246167 C 37.068811,17.246167 37.088388,32 37.088388,32 L 22.160133,31.978069 C 22.160133,31.978069 26.997745,27.140456 26.997745,27.140456 C 18.528582,18.264221 13.291696,25.230495 11.500037,31.436501 z"
             style="fill:#404040;"/>
          </a>
         </g>
        </svg>
</svg>
