<?xml version="1.0" encoding="UTF-8" standalone="no"?>
<!DOCTYPE svg PUBLIC "-//W3C//DTD SVG 1.1//EN"
 "http://www.w3.org/Graphics/SVG/1.1/DTD/svg11.dtd">
<!-- Generated by graphviz version 2.38.0 (20140413.2041)
 -->
<!-- Title: event_tree.h Pages: 1 -->
<svg width="348pt" height="252pt"
 viewBox="0.00 0.00 348.00 252.00" xmlns="http://www.w3.org/2000/svg" xmlns:xlink="http://www.w3.org/1999/xlink">
<g id="graph0" class="graph" transform="scale(1 1) rotate(0) translate(4 248)">
<title>event_tree.h</title>
<polygon fill="white" stroke="none" points="-4,4 -4,-248 344,-248 344,4 -4,4"/>
<!-- Node1 -->
<g id="node1" class="node"><title>Node1</title>
<polygon fill="#bfbfbf" stroke="black" points="68.5,-224.5 68.5,-243.5 139.5,-243.5 139.5,-224.5 68.5,-224.5"/>
<text text-anchor="middle" x="104" y="-231.5" font-family="Helvetica,sans-Serif" font-size="10.00">event_tree.h</text>
</g>
<!-- Node2 -->
<g id="node2" class="node"><title>Node2</title>
<g id="a_node2"><a xlink:href="event__tree_8cc.xhtml" target="_top" xlink:title="Implementation of event tree facilities. ">
<polygon fill="white" stroke="black" points="0,-168.5 0,-187.5 76,-187.5 76,-168.5 0,-168.5"/>
<text text-anchor="middle" x="38" y="-175.5" font-family="Helvetica,sans-Serif" font-size="10.00">event_tree.cc</text>
</a>
</g>
</g>
<!-- Node1&#45;&gt;Node2 -->
<g id="edge1" class="edge"><title>Node1&#45;&gt;Node2</title>
<path fill="none" stroke="midnightblue" d="M85.4463,-217.82C73.6219,-208.145 58.7144,-195.948 48.797,-187.834"/>
<polygon fill="midnightblue" stroke="midnightblue" points="83.44,-220.7 93.396,-224.324 87.8727,-215.283 83.44,-220.7"/>
</g>
<!-- Node3 -->
<g id="node3" class="node"><title>Node3</title>
<g id="a_node3"><a xlink:href="initializer_8h.xhtml" target="_top" xlink:title="A facility that processes input files into analysis constructs. ">
<polygon fill="white" stroke="black" points="43.5,-112.5 43.5,-131.5 106.5,-131.5 106.5,-112.5 43.5,-112.5"/>
<text text-anchor="middle" x="75" y="-119.5" font-family="Helvetica,sans-Serif" font-size="10.00">initializer.h</text>
</a>
</g>
</g>
<!-- Node1&#45;&gt;Node3 -->
<g id="edge2" class="edge"><title>Node1&#45;&gt;Node3</title>
<path fill="none" stroke="midnightblue" d="M99.1686,-214.674C92.8284,-190.625 81.9569,-149.388 77.265,-131.591"/>
<polygon fill="midnightblue" stroke="midnightblue" points="95.7907,-215.591 101.724,-224.368 102.559,-213.807 95.7907,-215.591"/>
</g>
<!-- Node6 -->
<g id="node6" class="node"><title>Node6</title>
<g id="a_node6"><a xlink:href="model_8h.xhtml" target="_top" xlink:title="Representation for a model container for risk analysis. ">
<polygon fill="white" stroke="black" points="161.5,-168.5 161.5,-187.5 212.5,-187.5 212.5,-168.5 161.5,-168.5"/>
<text text-anchor="middle" x="187" y="-175.5" font-family="Helvetica,sans-Serif" font-size="10.00">model.h</text>
</a>
</g>
</g>
<!-- Node1&#45;&gt;Node6 -->
<g id="edge5" class="edge"><title>Node1&#45;&gt;Node6</title>
<path fill="none" stroke="midnightblue" d="M126.099,-218.622C141.262,-208.757 160.883,-195.992 173.698,-187.655"/>
<polygon fill="midnightblue" stroke="midnightblue" points="123.809,-215.937 117.335,-224.324 127.626,-221.804 123.809,-215.937"/>
</g>
<!-- Node4 -->
<g id="node4" class="node"><title>Node4</title>
<g id="a_node4"><a xlink:href="initializer_8cc.xhtml" target="_top" xlink:title="Implementation of input file processing into analysis constructs. ">
<polygon fill="white" stroke="black" points="30,-56.5 30,-75.5 98,-75.5 98,-56.5 30,-56.5"/>
<text text-anchor="middle" x="64" y="-63.5" font-family="Helvetica,sans-Serif" font-size="10.00">initializer.cc</text>
</a>
</g>
</g>
<!-- Node3&#45;&gt;Node4 -->
<g id="edge3" class="edge"><title>Node3&#45;&gt;Node4</title>
<path fill="none" stroke="midnightblue" d="M71.1501,-102.101C69.3239,-93.1357 67.2303,-82.8579 65.7826,-75.7511"/>
<polygon fill="midnightblue" stroke="midnightblue" points="67.7579,-102.983 73.1836,-112.083 74.617,-101.586 67.7579,-102.983"/>
</g>
<!-- Node5 -->
<g id="node5" class="node"><title>Node5</title>
<g id="a_node5"><a xlink:href="scram_8cc.xhtml" target="_top" xlink:title="Main entrance. ">
<polygon fill="white" stroke="black" points="97.5,-0.5 97.5,-19.5 154.5,-19.5 154.5,-0.5 97.5,-0.5"/>
<text text-anchor="middle" x="126" y="-7.5" font-family="Helvetica,sans-Serif" font-size="10.00">scram.cc</text>
</a>
</g>
</g>
<!-- Node3&#45;&gt;Node5 -->
<g id="edge4" class="edge"><title>Node3&#45;&gt;Node5</title>
<path fill="none" stroke="midnightblue" d="M49.9965,-107.123C30.4852,-94.4226 8.60366,-74.7995 21,-56 37.8133,-30.5019 72.3953,-19.3967 97.2836,-14.5952"/>
<polygon fill="midnightblue" stroke="midnightblue" points="48.3093,-110.195 58.6627,-112.444 51.9718,-104.229 48.3093,-110.195"/>
</g>
<!-- Node6&#45;&gt;Node3 -->
<g id="edge6" class="edge"><title>Node6&#45;&gt;Node3</title>
<path fill="none" stroke="midnightblue" d="M159.751,-163.862C138.984,-153.849 110.977,-140.346 92.9501,-131.655"/>
<polygon fill="midnightblue" stroke="midnightblue" points="158.477,-167.134 169.005,-168.324 161.518,-160.828 158.477,-167.134"/>
</g>
<!-- Node7 -->
<g id="node7" class="node"><title>Node7</title>
<g id="a_node7"><a xlink:href="model_8cc.xhtml" target="_top" xlink:title="Implementation of functions in Model class. ">
<polygon fill="white" stroke="black" points="284,-112.5 284,-131.5 340,-131.5 340,-112.5 284,-112.5"/>
<text text-anchor="middle" x="312" y="-119.5" font-family="Helvetica,sans-Serif" font-size="10.00">model.cc</text>
</a>
</g>
</g>
<!-- Node6&#45;&gt;Node7 -->
<g id="edge7" class="edge"><title>Node6&#45;&gt;Node7</title>
<path fill="none" stroke="midnightblue" d="M216.241,-164.368C239.65,-154.255 271.841,-140.349 292.286,-131.516"/>
<polygon fill="midnightblue" stroke="midnightblue" points="214.599,-161.265 206.807,-168.444 217.375,-167.691 214.599,-161.265"/>
</g>
<!-- Node8 -->
<g id="node8" class="node"><title>Node8</title>
<g id="a_node8"><a xlink:href="reporter_8h.xhtml" target="_top" xlink:title="Reporter of results. ">
<polygon fill="white" stroke="black" points="260,-56.5 260,-75.5 318,-75.5 318,-56.5 260,-56.5"/>
<text text-anchor="middle" x="289" y="-63.5" font-family="Helvetica,sans-Serif" font-size="10.00">reporter.h</text>
</a>
</g>
</g>
<!-- Node6&#45;&gt;Node8 -->
<g id="edge8" class="edge"><title>Node6&#45;&gt;Node8</title>
<path fill="none" stroke="midnightblue" d="M205.304,-161.796C215.069,-153.376 227.082,-142.512 237,-132 254.852,-113.08 273.308,-88.6312 282.692,-75.7823"/>
<polygon fill="midnightblue" stroke="midnightblue" points="202.77,-159.356 197.41,-168.495 207.299,-164.693 202.77,-159.356"/>
</g>
<!-- Node10 -->
<g id="node10" class="node"><title>Node10</title>
<g id="a_node10"><a xlink:href="risk__analysis_8h.xhtml" target="_top" xlink:title="Contains the main system for performing analysis. ">
<polygon fill="white" stroke="black" points="146,-112.5 146,-131.5 228,-131.5 228,-112.5 146,-112.5"/>
<text text-anchor="middle" x="187" y="-119.5" font-family="Helvetica,sans-Serif" font-size="10.00">risk_analysis.h</text>
</a>
</g>
</g>
<!-- Node6&#45;&gt;Node10 -->
<g id="edge11" class="edge"><title>Node6&#45;&gt;Node10</title>
<path fill="none" stroke="midnightblue" d="M187,-157.805C187,-148.91 187,-138.78 187,-131.751"/>
<polygon fill="midnightblue" stroke="midnightblue" points="183.5,-158.083 187,-168.083 190.5,-158.083 183.5,-158.083"/>
</g>
<!-- Node8&#45;&gt;Node5 -->
<g id="edge10" class="edge"><title>Node8&#45;&gt;Node5</title>
<path fill="none" stroke="midnightblue" d="M253.297,-53.172C222.604,-43.0039 179.081,-28.5852 151.707,-19.5164"/>
<polygon fill="midnightblue" stroke="midnightblue" points="252.579,-56.6211 263.172,-56.4435 254.78,-49.9762 252.579,-56.6211"/>
</g>
<!-- Node9 -->
<g id="node9" class="node"><title>Node9</title>
<g id="a_node9"><a xlink:href="reporter_8cc.xhtml" target="_top" xlink:title="Implements Reporter class. ">
<polygon fill="white" stroke="black" points="257.5,-0.5 257.5,-19.5 320.5,-19.5 320.5,-0.5 257.5,-0.5"/>
<text text-anchor="middle" x="289" y="-7.5" font-family="Helvetica,sans-Serif" font-size="10.00">reporter.cc</text>
</a>
</g>
</g>
<!-- Node8&#45;&gt;Node9 -->
<g id="edge9" class="edge"><title>Node8&#45;&gt;Node9</title>
<path fill="none" stroke="midnightblue" d="M289,-45.8045C289,-36.9102 289,-26.7798 289,-19.7511"/>
<polygon fill="midnightblue" stroke="midnightblue" points="285.5,-46.083 289,-56.083 292.5,-46.083 285.5,-46.083"/>
</g>
<!-- Node10&#45;&gt;Node5 -->
<g id="edge14" class="edge"><title>Node10&#45;&gt;Node5</title>
<path fill="none" stroke="midnightblue" d="M169.03,-105.466C160.686,-97.4136 151.252,-86.9783 145,-76 134.528,-57.6102 129.389,-32.946 127.261,-19.9225"/>
<polygon fill="midnightblue" stroke="midnightblue" points="166.83,-108.198 176.557,-112.397 171.571,-103.048 166.83,-108.198"/>
</g>
<!-- Node10&#45;&gt;Node8 -->
<g id="edge12" class="edge"><title>Node10&#45;&gt;Node8</title>
<path fill="none" stroke="midnightblue" d="M212.331,-107.59C231.19,-97.6052 256.384,-84.2672 272.653,-75.6545"/>
<polygon fill="midnightblue" stroke="midnightblue" points="210.588,-104.552 203.388,-112.324 213.864,-110.738 210.588,-104.552"/>
</g>
<!-- Node11 -->
<g id="node11" class="node"><title>Node11</title>
<g id="a_node11"><a xlink:href="risk__analysis_8cc.xhtml" target="_top" xlink:title="Implementation of risk analysis handler. ">
<polygon fill="white" stroke="black" points="154.5,-56.5 154.5,-75.5 241.5,-75.5 241.5,-56.5 154.5,-56.5"/>
<text text-anchor="middle" x="198" y="-63.5" font-family="Helvetica,sans-Serif" font-size="10.00">risk_analysis.cc</text>
</a>
</g>
</g>
<!-- Node10&#45;&gt;Node11 -->
<g id="edge13" class="edge"><title>Node10&#45;&gt;Node11</title>
<path fill="none" stroke="midnightblue" d="M190.85,-102.101C192.676,-93.1357 194.77,-82.8579 196.217,-75.7511"/>
<polygon fill="midnightblue" stroke="midnightblue" points="187.383,-101.586 188.816,-112.083 194.242,-102.983 187.383,-101.586"/>
</g>
</g>
</svg>
