<?xml version="1.0" encoding="UTF-8" standalone="no"?>
<!DOCTYPE svg PUBLIC "-//W3C//DTD SVG 1.1//EN"
 "http://www.w3.org/Graphics/SVG/1.1/DTD/svg11.dtd">
<!-- Generated by graphviz version 2.38.0 (20140413.2041)
 -->
<!-- Title: event_tree.h Pages: 1 -->
<svg width="639pt" height="207pt"
 viewBox="0.00 0.00 639.17 207.00" xmlns="http://www.w3.org/2000/svg" xmlns:xlink="http://www.w3.org/1999/xlink">
<g id="graph0" class="graph" transform="scale(1 1) rotate(0) translate(4 203)">
<title>event_tree.h</title>
<polygon fill="white" stroke="none" points="-4,4 -4,-203 635.171,-203 635.171,4 -4,4"/>
<!-- Node1 -->
<g id="node1" class="node"><title>Node1</title>
<polygon fill="#bfbfbf" stroke="black" points="370,-179.5 370,-198.5 441,-198.5 441,-179.5 370,-179.5"/>
<text text-anchor="middle" x="405.5" y="-186.5" font-family="Helvetica,sans-Serif" font-size="10.00">event_tree.h</text>
</g>
<!-- Node2 -->
<g id="node2" class="node"><title>Node2</title>
<polygon fill="white" stroke="#bfbfbf" points="276.5,-67.5 276.5,-86.5 328.5,-86.5 328.5,-67.5 276.5,-67.5"/>
<text text-anchor="middle" x="302.5" y="-74.5" font-family="Helvetica,sans-Serif" font-size="10.00">memory</text>
</g>
<!-- Node1&#45;&gt;Node2 -->
<g id="edge1" class="edge"><title>Node1&#45;&gt;Node2</title>
<path fill="none" stroke="midnightblue" d="M397.418,-179.368C380.194,-160.974 339.647,-117.671 317.53,-94.0519"/>
<polygon fill="midnightblue" stroke="midnightblue" points="319.935,-91.4987 310.545,-86.5914 314.825,-96.2832 319.935,-91.4987"/>
</g>
<!-- Node3 -->
<g id="node3" class="node"><title>Node3</title>
<polygon fill="white" stroke="#bfbfbf" points="0,-6 0,-25 41,-25 41,-6 0,-6"/>
<text text-anchor="middle" x="20.5" y="-13" font-family="Helvetica,sans-Serif" font-size="10.00">string</text>
</g>
<!-- Node1&#45;&gt;Node3 -->
<g id="edge2" class="edge"><title>Node1&#45;&gt;Node3</title>
<path fill="none" stroke="midnightblue" d="M385.376,-179.384C331.074,-156.072 177.105,-89.5718 50.5,-31 49.3482,-30.4672 48.1736,-29.9192 46.9884,-29.3625"/>
<polygon fill="midnightblue" stroke="midnightblue" points="48.4358,-26.1752 37.9025,-25.0342 45.4252,-32.4948 48.4358,-26.1752"/>
</g>
<!-- Node4 -->
<g id="node4" class="node"><title>Node4</title>
<polygon fill="white" stroke="#bfbfbf" points="581.5,-6 581.5,-25 625.5,-25 625.5,-6 581.5,-6"/>
<text text-anchor="middle" x="603.5" y="-13" font-family="Helvetica,sans-Serif" font-size="10.00">vector</text>
</g>
<!-- Node1&#45;&gt;Node4 -->
<g id="edge3" class="edge"><title>Node1&#45;&gt;Node4</title>
<path fill="none" stroke="midnightblue" d="M441.238,-183.638C492.693,-175.211 585.912,-151.424 626.5,-87 636.957,-70.4019 626.817,-48.5859 616.895,-33.6439"/>
<polygon fill="midnightblue" stroke="midnightblue" points="619.606,-31.419 610.931,-25.3368 613.92,-35.5014 619.606,-31.419"/>
</g>
<!-- Node5 -->
<g id="node5" class="node"><title>Node5</title>
<polygon fill="white" stroke="#bfbfbf" points="501,-67.5 501,-86.5 618,-86.5 618,-67.5 501,-67.5"/>
<text text-anchor="middle" x="559.5" y="-74.5" font-family="Helvetica,sans-Serif" font-size="10.00">boost/noncopyable.hpp</text>
</g>
<!-- Node1&#45;&gt;Node5 -->
<g id="edge4" class="edge"><title>Node1&#45;&gt;Node5</title>
<path fill="none" stroke="midnightblue" d="M421.928,-179.471C437.871,-170.948 462.518,-157.114 482.5,-143 504.443,-127.501 527.767,-107.207 542.92,-93.4485"/>
<polygon fill="midnightblue" stroke="midnightblue" points="545.436,-95.8895 550.437,-86.5489 540.703,-90.7325 545.436,-95.8895"/>
</g>
<!-- Node6 -->
<g id="node6" class="node"><title>Node6</title>
<g id="a_node6"><a xlink:href="element_8h.xhtml" target="_top" xlink:title="Helper classes, structs, and properties common to all other classes. ">
<polygon fill="white" stroke="black" points="347,-67.5 347,-86.5 406,-86.5 406,-67.5 347,-67.5"/>
<text text-anchor="middle" x="376.5" y="-74.5" font-family="Helvetica,sans-Serif" font-size="10.00">element.h</text>
</a>
</g>
</g>
<!-- Node1&#45;&gt;Node6 -->
<g id="edge5" class="edge"><title>Node1&#45;&gt;Node6</title>
<path fill="none" stroke="midnightblue" d="M402.905,-179.402C400.205,-170.366 395.903,-155.727 392.5,-143 388.367,-127.543 384.052,-109.913 380.946,-96.9167"/>
<polygon fill="midnightblue" stroke="midnightblue" points="384.274,-95.7833 378.563,-86.8599 377.463,-97.3975 384.274,-95.7833"/>
</g>
<!-- Node11 -->
<g id="node11" class="node"><title>Node11</title>
<g id="a_node11"><a xlink:href="expression_8h.xhtml" target="_top" xlink:title="Provides the base class for all expressions and units for expression values. ">
<polygon fill="white" stroke="black" points="401.5,-123.5 401.5,-142.5 473.5,-142.5 473.5,-123.5 401.5,-123.5"/>
<text text-anchor="middle" x="437.5" y="-130.5" font-family="Helvetica,sans-Serif" font-size="10.00">expression.h</text>
</a>
</g>
</g>
<!-- Node1&#45;&gt;Node11 -->
<g id="edge12" class="edge"><title>Node1&#45;&gt;Node11</title>
<path fill="none" stroke="midnightblue" d="M410.784,-179.083C415.211,-171.613 421.663,-160.724 427.118,-151.52"/>
<polygon fill="midnightblue" stroke="midnightblue" points="430.227,-153.138 432.314,-142.751 424.205,-149.57 430.227,-153.138"/>
</g>
<!-- Node6&#45;&gt;Node3 -->
<g id="edge7" class="edge"><title>Node6&#45;&gt;Node3</title>
<path fill="none" stroke="midnightblue" d="M346.754,-68.8063C343.638,-68.1515 340.51,-67.5347 337.5,-67 210.926,-44.5173 173.779,-67.4531 50.5,-31 48.6278,-30.4464 46.7278,-29.7867 44.8399,-29.0586"/>
<polygon fill="midnightblue" stroke="midnightblue" points="46.2478,-25.8543 35.6857,-25.0214 43.4231,-32.2591 46.2478,-25.8543"/>
</g>
<!-- Node6&#45;&gt;Node4 -->
<g id="edge8" class="edge"><title>Node6&#45;&gt;Node4</title>
<path fill="none" stroke="midnightblue" d="M406.266,-71.1941C445.156,-64.4584 515.061,-50.7769 572.5,-31 574.122,-30.4415 575.773,-29.8245 577.425,-29.1693"/>
<polygon fill="midnightblue" stroke="midnightblue" points="578.932,-32.3308 586.713,-25.1406 576.146,-25.9088 578.932,-32.3308"/>
</g>
<!-- Node7 -->
<g id="node7" class="node"><title>Node7</title>
<polygon fill="white" stroke="#bfbfbf" points="517.5,-6 517.5,-25 563.5,-25 563.5,-6 517.5,-6"/>
<text text-anchor="middle" x="540.5" y="-13" font-family="Helvetica,sans-Serif" font-size="10.00">cstdint</text>
</g>
<!-- Node6&#45;&gt;Node7 -->
<g id="edge6" class="edge"><title>Node6&#45;&gt;Node7</title>
<path fill="none" stroke="midnightblue" d="M403.583,-67.4254C430.24,-58.8149 471.998,-44.8698 507.5,-31 509.103,-30.3738 510.742,-29.7148 512.392,-29.0373"/>
<polygon fill="midnightblue" stroke="midnightblue" points="513.931,-32.186 521.766,-25.0538 511.193,-25.7436 513.931,-32.186"/>
</g>
<!-- Node8 -->
<g id="node8" class="node"><title>Node8</title>
<polygon fill="white" stroke="#bfbfbf" points="342,-6 342,-25 499,-25 499,-6 342,-6"/>
<text text-anchor="middle" x="420.5" y="-13" font-family="Helvetica,sans-Serif" font-size="10.00">boost/multi_index_container.hpp</text>
</g>
<!-- Node6&#45;&gt;Node8 -->
<g id="edge9" class="edge"><title>Node6&#45;&gt;Node8</title>
<path fill="none" stroke="midnightblue" d="M382.804,-67.4751C389.404,-58.5501 399.937,-44.3071 408.193,-33.1425"/>
<polygon fill="midnightblue" stroke="midnightblue" points="411.076,-35.1305 414.208,-25.0091 405.448,-30.9684 411.076,-35.1305"/>
</g>
<!-- Node9 -->
<g id="node9" class="node"><title>Node9</title>
<polygon fill="white" stroke="#bfbfbf" points="59.5,-0.5 59.5,-30.5 187.5,-30.5 187.5,-0.5 59.5,-0.5"/>
<text text-anchor="start" x="67.5" y="-18.5" font-family="Helvetica,sans-Serif" font-size="10.00">boost/multi_index/hashed</text>
<text text-anchor="middle" x="123.5" y="-7.5" font-family="Helvetica,sans-Serif" font-size="10.00">_index.hpp</text>
</g>
<!-- Node6&#45;&gt;Node9 -->
<g id="edge10" class="edge"><title>Node6&#45;&gt;Node9</title>
<path fill="none" stroke="midnightblue" d="M346.983,-69.0581C309.467,-60.2352 243.509,-44.7235 192.941,-32.831"/>
<polygon fill="midnightblue" stroke="midnightblue" points="193.582,-29.3862 183.046,-30.5039 191.979,-36.2003 193.582,-29.3862"/>
</g>
<!-- Node10 -->
<g id="node10" class="node"><title>Node10</title>
<polygon fill="white" stroke="#bfbfbf" points="205.5,-0.5 205.5,-30.5 323.5,-30.5 323.5,-0.5 205.5,-0.5"/>
<text text-anchor="start" x="213.5" y="-18.5" font-family="Helvetica,sans-Serif" font-size="10.00">boost/multi_index/mem</text>
<text text-anchor="middle" x="264.5" y="-7.5" font-family="Helvetica,sans-Serif" font-size="10.00">_fun.hpp</text>
</g>
<!-- Node6&#45;&gt;Node10 -->
<g id="edge11" class="edge"><title>Node6&#45;&gt;Node10</title>
<path fill="none" stroke="midnightblue" d="M360.453,-67.4751C344.717,-59.1154 320.199,-46.0902 299.886,-35.2991"/>
<polygon fill="midnightblue" stroke="midnightblue" points="301.369,-32.1237 290.896,-30.523 298.085,-38.3055 301.369,-32.1237"/>
</g>
<!-- Node11&#45;&gt;Node2 -->
<g id="edge14" class="edge"><title>Node11&#45;&gt;Node2</title>
<path fill="none" stroke="midnightblue" d="M416.109,-123.444C393.793,-114.517 358.597,-100.439 333.292,-90.3168"/>
<polygon fill="midnightblue" stroke="midnightblue" points="334.376,-86.9807 323.791,-86.5164 331.776,-93.4801 334.376,-86.9807"/>
</g>
<!-- Node11&#45;&gt;Node4 -->
<g id="edge15" class="edge"><title>Node11&#45;&gt;Node4</title>
<path fill="none" stroke="midnightblue" d="M442.804,-123.333C451.496,-109.743 469.976,-83.2915 491.5,-67 522.912,-43.2244 536.656,-47.3464 572.5,-31 573.656,-30.473 574.834,-29.933 576.024,-29.3857"/>
<polygon fill="midnightblue" stroke="midnightblue" points="577.568,-32.5278 585.168,-25.146 574.623,-26.1773 577.568,-32.5278"/>
</g>
<!-- Node11&#45;&gt;Node5 -->
<g id="edge16" class="edge"><title>Node11&#45;&gt;Node5</title>
<path fill="none" stroke="midnightblue" d="M456.831,-123.444C476.82,-114.596 508.243,-100.687 531.064,-90.5865"/>
<polygon fill="midnightblue" stroke="midnightblue" points="532.532,-93.7645 540.259,-86.5164 529.698,-87.3635 532.532,-93.7645"/>
</g>
<!-- Node11&#45;&gt;Node6 -->
<g id="edge17" class="edge"><title>Node11&#45;&gt;Node6</title>
<path fill="none" stroke="midnightblue" d="M427.699,-123.324C418.682,-115.341 405.094,-103.313 394.182,-93.6529"/>
<polygon fill="midnightblue" stroke="midnightblue" points="396.287,-90.8416 386.479,-86.8339 391.647,-96.083 396.287,-90.8416"/>
</g>
<!-- Node11&#45;&gt;Node7 -->
<g id="edge13" class="edge"><title>Node11&#45;&gt;Node7</title>
<path fill="none" stroke="midnightblue" d="M438.408,-123.102C440.18,-109.667 445.171,-83.9758 458.5,-67 466.335,-57.0219 493.697,-41.1274 514.681,-29.8375"/>
<polygon fill="midnightblue" stroke="midnightblue" points="516.586,-32.7892 523.781,-25.012 513.306,-26.6049 516.586,-32.7892"/>
</g>
</g>
</svg>
