<?xml version="1.0" encoding="UTF-8" standalone="no"?>
<!DOCTYPE svg PUBLIC "-//W3C//DTD SVG 1.1//EN"
 "http://www.w3.org/Graphics/SVG/1.1/DTD/svg11.dtd">
<!-- Generated by graphviz version 2.38.0 (20140413.2041)
 -->
<!-- Title: event.h Pages: 1 -->
<svg width="1241pt" height="364pt"
 viewBox="0.00 0.00 1241.00 364.00" xmlns="http://www.w3.org/2000/svg" xmlns:xlink="http://www.w3.org/1999/xlink">
<g id="graph0" class="graph" transform="scale(1 1) rotate(0) translate(4 360)">
<title>event.h</title>
<polygon fill="white" stroke="none" points="-4,4 -4,-360 1237,-360 1237,4 -4,4"/>
<!-- Node1 -->
<g id="node1" class="node"><title>Node1</title>
<polygon fill="#bfbfbf" stroke="black" points="505,-336.5 505,-355.5 554,-355.5 554,-336.5 505,-336.5"/>
<text text-anchor="middle" x="529.5" y="-343.5" font-family="Helvetica,sans-Serif" font-size="10.00">event.h</text>
</g>
<!-- Node2 -->
<g id="node2" class="node"><title>Node2</title>
<g id="a_node2"><a xlink:href="ccf__group_8h.xhtml" target="_top" xlink:title="Functional containers for basic events grouped by common cause failure. ">
<polygon fill="white" stroke="black" points="298.5,-280.5 298.5,-299.5 366.5,-299.5 366.5,-280.5 298.5,-280.5"/>
<text text-anchor="middle" x="332.5" y="-287.5" font-family="Helvetica,sans-Serif" font-size="10.00">ccf_group.h</text>
</a>
</g>
</g>
<!-- Node1&#45;&gt;Node2 -->
<g id="edge1" class="edge"><title>Node1&#45;&gt;Node2</title>
<path fill="none" stroke="midnightblue" d="M495.078,-335.564C457.932,-325.382 399.307,-309.313 363.534,-299.507"/>
<polygon fill="midnightblue" stroke="midnightblue" points="494.379,-339.002 504.948,-338.27 496.229,-332.251 494.379,-339.002"/>
</g>
<!-- Node4 -->
<g id="node4" class="node"><title>Node4</title>
<g id="a_node4"><a xlink:href="fault__tree_8h.xhtml" target="_top" xlink:title="Fault Tree and Component containers. ">
<polygon fill="white" stroke="black" points="346,-224.5 346,-243.5 411,-243.5 411,-224.5 346,-224.5"/>
<text text-anchor="middle" x="378.5" y="-231.5" font-family="Helvetica,sans-Serif" font-size="10.00">fault_tree.h</text>
</a>
</g>
</g>
<!-- Node1&#45;&gt;Node4 -->
<g id="edge26" class="edge"><title>Node1&#45;&gt;Node4</title>
<path fill="none" stroke="midnightblue" d="M507.518,-330.448C494.583,-321.777 477.973,-310.456 463.5,-300 436.395,-280.418 405.383,-256.238 389.36,-243.607"/>
<polygon fill="midnightblue" stroke="midnightblue" points="505.944,-333.605 516.205,-336.244 509.829,-327.782 505.944,-333.605"/>
</g>
<!-- Node6 -->
<g id="node6" class="node"><title>Node6</title>
<g id="a_node6"><a xlink:href="initializer_8h.xhtml" target="_top" xlink:title="A facility that processes input files into analysis constructs. ">
<polygon fill="white" stroke="black" points="379,-112.5 379,-131.5 442,-131.5 442,-112.5 379,-112.5"/>
<text text-anchor="middle" x="410.5" y="-119.5" font-family="Helvetica,sans-Serif" font-size="10.00">initializer.h</text>
</a>
</g>
</g>
<!-- Node1&#45;&gt;Node6 -->
<g id="edge29" class="edge"><title>Node1&#45;&gt;Node6</title>
<path fill="none" stroke="midnightblue" d="M515.859,-328.459C509.471,-320.227 502.062,-309.932 496.5,-300 465.527,-244.697 473.068,-223.528 442.5,-168 435.103,-154.563 424.452,-140.344 417.504,-131.57"/>
<polygon fill="midnightblue" stroke="midnightblue" points="513.279,-330.837 522.254,-336.467 518.749,-326.469 513.279,-330.837"/>
</g>
<!-- Node9 -->
<g id="node9" class="node"><title>Node9</title>
<g id="a_node9"><a xlink:href="model_8h.xhtml" target="_top" xlink:title="Representation for a model container for risk analysis. ">
<polygon fill="white" stroke="black" points="194,-168.5 194,-187.5 245,-187.5 245,-168.5 194,-168.5"/>
<text text-anchor="middle" x="219.5" y="-175.5" font-family="Helvetica,sans-Serif" font-size="10.00">model.h</text>
</a>
</g>
</g>
<!-- Node1&#45;&gt;Node9 -->
<g id="edge30" class="edge"><title>Node1&#45;&gt;Node9</title>
<path fill="none" stroke="midnightblue" d="M494.58,-342.904C446.715,-339.052 358.776,-328.431 289.5,-300 248.332,-283.104 227.389,-283.293 206.5,-244 196.668,-225.506 207.387,-200.455 214.405,-187.518"/>
<polygon fill="midnightblue" stroke="midnightblue" points="494.493,-346.408 504.727,-343.667 495.018,-339.427 494.493,-346.408"/>
</g>
<!-- Node11 -->
<g id="node11" class="node"><title>Node11</title>
<g id="a_node11"><a xlink:href="reporter_8h.xhtml" target="_top" xlink:title="Reporter of results. ">
<polygon fill="white" stroke="black" points="44.5,-56.5 44.5,-75.5 102.5,-75.5 102.5,-56.5 44.5,-56.5"/>
<text text-anchor="middle" x="73.5" y="-63.5" font-family="Helvetica,sans-Serif" font-size="10.00">reporter.h</text>
</a>
</g>
</g>
<!-- Node1&#45;&gt;Node11 -->
<g id="edge33" class="edge"><title>Node1&#45;&gt;Node11</title>
<path fill="none" stroke="midnightblue" d="M494.504,-344.69C381.788,-342.759 35.5,-329.162 35.5,-235 35.5,-235 35.5,-235 35.5,-177 35.5,-137.399 57.7749,-93.957 68.2163,-75.769"/>
<polygon fill="midnightblue" stroke="midnightblue" points="494.612,-348.192 504.664,-344.843 494.718,-341.193 494.612,-348.192"/>
</g>
<!-- Node13 -->
<g id="node13" class="node"><title>Node13</title>
<g id="a_node13"><a xlink:href="risk__analysis_8h.xhtml" target="_top" xlink:title="Contains the main system for performing analysis. ">
<polygon fill="white" stroke="black" points="101.5,-112.5 101.5,-131.5 183.5,-131.5 183.5,-112.5 101.5,-112.5"/>
<text text-anchor="middle" x="142.5" y="-119.5" font-family="Helvetica,sans-Serif" font-size="10.00">risk_analysis.h</text>
</a>
</g>
</g>
<!-- Node1&#45;&gt;Node13 -->
<g id="edge34" class="edge"><title>Node1&#45;&gt;Node13</title>
<path fill="none" stroke="midnightblue" d="M494.785,-343.166C426.738,-339.015 278.768,-327.072 236.5,-300 173.214,-259.466 149.803,-161.324 144.032,-131.645"/>
<polygon fill="midnightblue" stroke="midnightblue" points="494.803,-346.674 504.992,-343.767 495.214,-339.686 494.803,-346.674"/>
</g>
<!-- Node15 -->
<g id="node15" class="node"><title>Node15</title>
<g id="a_node15"><a xlink:href="cycle_8h.xhtml" target="_top" xlink:title="Validation facilities to detect and print cycles in graphs. ">
<polygon fill="white" stroke="black" points="505.5,-280.5 505.5,-299.5 553.5,-299.5 553.5,-280.5 505.5,-280.5"/>
<text text-anchor="middle" x="529.5" y="-287.5" font-family="Helvetica,sans-Serif" font-size="10.00">cycle.h</text>
</a>
</g>
</g>
<!-- Node1&#45;&gt;Node15 -->
<g id="edge22" class="edge"><title>Node1&#45;&gt;Node15</title>
<path fill="none" stroke="midnightblue" d="M529.5,-325.805C529.5,-316.91 529.5,-306.78 529.5,-299.751"/>
<polygon fill="midnightblue" stroke="midnightblue" points="526,-326.083 529.5,-336.083 533,-326.083 526,-326.083"/>
</g>
<!-- Node17 -->
<g id="node17" class="node"><title>Node17</title>
<g id="a_node17"><a xlink:href="event_8cc.xhtml" target="_top" xlink:title="Implementation of Event Class and its derived classes. ">
<polygon fill="white" stroke="black" points="571.5,-280.5 571.5,-299.5 625.5,-299.5 625.5,-280.5 571.5,-280.5"/>
<text text-anchor="middle" x="598.5" y="-287.5" font-family="Helvetica,sans-Serif" font-size="10.00">event.cc</text>
</a>
</g>
</g>
<!-- Node1&#45;&gt;Node17 -->
<g id="edge25" class="edge"><title>Node1&#45;&gt;Node17</title>
<path fill="none" stroke="midnightblue" d="M548.538,-330.101C560.956,-320.382 576.743,-308.027 587.212,-299.834"/>
<polygon fill="midnightblue" stroke="midnightblue" points="546.304,-327.405 540.586,-336.324 550.618,-332.917 546.304,-327.405"/>
</g>
<!-- Node18 -->
<g id="node18" class="node"><title>Node18</title>
<g id="a_node18"><a xlink:href="fault__tree__analysis_8cc.xhtml" target="_top" xlink:title="Implementation of fault tree analysis. ">
<polygon fill="white" stroke="black" points="643.5,-280.5 643.5,-299.5 755.5,-299.5 755.5,-280.5 643.5,-280.5"/>
<text text-anchor="middle" x="699.5" y="-287.5" font-family="Helvetica,sans-Serif" font-size="10.00">fault_tree_analysis.cc</text>
</a>
</g>
</g>
<!-- Node1&#45;&gt;Node18 -->
<g id="edge27" class="edge"><title>Node1&#45;&gt;Node18</title>
<path fill="none" stroke="midnightblue" d="M564.056,-334.023C596.101,-323.844 643.134,-308.905 672.503,-299.576"/>
<polygon fill="midnightblue" stroke="midnightblue" points="562.691,-330.785 554.219,-337.148 564.81,-337.456 562.691,-330.785"/>
</g>
<!-- Node19 -->
<g id="node19" class="node"><title>Node19</title>
<g id="a_node19"><a xlink:href="importance__analysis_8cc.xhtml" target="_top" xlink:title="Implementations of functions to provide quantitative importance informations. ">
<polygon fill="white" stroke="black" points="774,-280.5 774,-299.5 893,-299.5 893,-280.5 774,-280.5"/>
<text text-anchor="middle" x="833.5" y="-287.5" font-family="Helvetica,sans-Serif" font-size="10.00">importance_analysis.cc</text>
</a>
</g>
</g>
<!-- Node1&#45;&gt;Node19 -->
<g id="edge28" class="edge"><title>Node1&#45;&gt;Node19</title>
<path fill="none" stroke="midnightblue" d="M564.29,-338.82C618.673,-329.16 723.957,-310.458 785.511,-299.524"/>
<polygon fill="midnightblue" stroke="midnightblue" points="563.354,-335.432 554.12,-340.627 564.578,-342.324 563.354,-335.432"/>
</g>
<!-- Node20 -->
<g id="node20" class="node"><title>Node20</title>
<g id="a_node20"><a xlink:href="pdag_8cc.xhtml" target="_top" xlink:title="Implementation of a Propositional Directed Acyclic Graph with indexed nodes, variables, and gates. ">
<polygon fill="white" stroke="black" points="911,-280.5 911,-299.5 962,-299.5 962,-280.5 911,-280.5"/>
<text text-anchor="middle" x="936.5" y="-287.5" font-family="Helvetica,sans-Serif" font-size="10.00">pdag.cc</text>
</a>
</g>
</g>
<!-- Node1&#45;&gt;Node20 -->
<g id="edge31" class="edge"><title>Node1&#45;&gt;Node20</title>
<path fill="none" stroke="midnightblue" d="M564.414,-342.414C630.734,-337.144 779.316,-323.616 902.5,-300 905.259,-299.471 908.124,-298.842 910.968,-298.165"/>
<polygon fill="midnightblue" stroke="midnightblue" points="563.818,-338.95 554.121,-343.218 564.363,-345.929 563.818,-338.95"/>
</g>
<!-- Node21 -->
<g id="node21" class="node"><title>Node21</title>
<g id="a_node21"><a xlink:href="probability__analysis_8cc.xhtml" target="_top" xlink:title="Implementations of functions to provide probability analysis. ">
<polygon fill="white" stroke="black" points="979.5,-280.5 979.5,-299.5 1095.5,-299.5 1095.5,-280.5 979.5,-280.5"/>
<text text-anchor="middle" x="1037.5" y="-287.5" font-family="Helvetica,sans-Serif" font-size="10.00">probability_analysis.cc</text>
</a>
</g>
</g>
<!-- Node1&#45;&gt;Node21 -->
<g id="edge32" class="edge"><title>Node1&#45;&gt;Node21</title>
<path fill="none" stroke="midnightblue" d="M564.728,-341.824C639.664,-334.979 820.387,-317.99 971.5,-300 974.026,-299.699 976.606,-299.384 979.211,-299.058"/>
<polygon fill="midnightblue" stroke="midnightblue" points="564.097,-338.367 554.455,-342.76 564.731,-345.339 564.097,-338.367"/>
</g>
<!-- Node22 -->
<g id="node22" class="node"><title>Node22</title>
<g id="a_node22"><a xlink:href="uncertainty__analysis_8cc.xhtml" target="_top" xlink:title="Implements the functionality to run Monte Carlo simulations. ">
<polygon fill="white" stroke="black" points="1114,-280.5 1114,-299.5 1233,-299.5 1233,-280.5 1114,-280.5"/>
<text text-anchor="middle" x="1173.5" y="-287.5" font-family="Helvetica,sans-Serif" font-size="10.00">uncertainty_analysis.cc</text>
</a>
</g>
</g>
<!-- Node1&#45;&gt;Node22 -->
<g id="edge35" class="edge"><title>Node1&#45;&gt;Node22</title>
<path fill="none" stroke="midnightblue" d="M564.351,-342.902C654.051,-337.364 900.178,-321.306 1104.5,-300 1107.5,-299.687 1110.58,-299.349 1113.68,-298.994"/>
<polygon fill="midnightblue" stroke="midnightblue" points="563.967,-339.418 554.2,-343.524 564.396,-346.405 563.967,-339.418"/>
</g>
<!-- Node3 -->
<g id="node3" class="node"><title>Node3</title>
<g id="a_node3"><a xlink:href="ccf__group_8cc.xhtml" target="_top" xlink:title="Implementation of various common cause failure models. ">
<polygon fill="white" stroke="black" points="216,-224.5 216,-243.5 289,-243.5 289,-224.5 216,-224.5"/>
<text text-anchor="middle" x="252.5" y="-231.5" font-family="Helvetica,sans-Serif" font-size="10.00">ccf_group.cc</text>
</a>
</g>
</g>
<!-- Node2&#45;&gt;Node3 -->
<g id="edge2" class="edge"><title>Node2&#45;&gt;Node3</title>
<path fill="none" stroke="midnightblue" d="M311.199,-274.622C296.585,-264.757 277.673,-251.992 265.321,-243.655"/>
<polygon fill="midnightblue" stroke="midnightblue" points="309.4,-277.63 319.647,-280.324 313.316,-271.828 309.4,-277.63"/>
</g>
<!-- Node2&#45;&gt;Node4 -->
<g id="edge3" class="edge"><title>Node2&#45;&gt;Node4</title>
<path fill="none" stroke="midnightblue" d="M346.614,-272.431C354.676,-262.967 364.459,-251.483 371.045,-243.751"/>
<polygon fill="midnightblue" stroke="midnightblue" points="343.916,-270.201 340.096,-280.083 349.245,-274.74 343.916,-270.201"/>
</g>
<!-- Node2&#45;&gt;Node6 -->
<g id="edge19" class="edge"><title>Node2&#45;&gt;Node6</title>
<path fill="none" stroke="midnightblue" d="M376.232,-277.127C392.764,-270.279 409.893,-259.786 419.5,-244 441.732,-207.471 423.046,-152.79 414.356,-131.714"/>
<polygon fill="midnightblue" stroke="midnightblue" points="374.749,-273.946 366.628,-280.751 377.22,-280.495 374.749,-273.946"/>
</g>
<!-- Node2&#45;&gt;Node9 -->
<g id="edge20" class="edge"><title>Node2&#45;&gt;Node9</title>
<path fill="none" stroke="midnightblue" d="M325.962,-270.926C320.169,-256.843 310.592,-237.482 297.5,-224 281.49,-207.513 258.148,-195.123 241.173,-187.56"/>
<polygon fill="midnightblue" stroke="midnightblue" points="322.784,-272.413 329.65,-280.482 329.315,-269.893 322.784,-272.413"/>
</g>
<!-- Node12 -->
<g id="node12" class="node"><title>Node12</title>
<g id="a_node12"><a xlink:href="reporter_8cc.xhtml" target="_top" xlink:title="Implements Reporter class. ">
<polygon fill="white" stroke="black" points="0,-0.5 0,-19.5 63,-19.5 63,-0.5 0,-0.5"/>
<text text-anchor="middle" x="31.5" y="-7.5" font-family="Helvetica,sans-Serif" font-size="10.00">reporter.cc</text>
</a>
</g>
</g>
<!-- Node2&#45;&gt;Node12 -->
<g id="edge21" class="edge"><title>Node2&#45;&gt;Node12</title>
<path fill="none" stroke="midnightblue" d="M288.756,-277.755C263.672,-270.256 232.17,-259.006 206.5,-244 140.951,-205.682 129.236,-187.573 77.5,-132 56.3012,-109.229 46.2404,-105.198 35.5,-76 28.4743,-56.9003 29.351,-32.5245 30.4907,-19.7348"/>
<polygon fill="midnightblue" stroke="midnightblue" points="287.798,-281.121 298.377,-280.543 289.746,-274.398 287.798,-281.121"/>
</g>
<!-- Node5 -->
<g id="node5" class="node"><title>Node5</title>
<g id="a_node5"><a xlink:href="fault__tree_8cc.xhtml" target="_top" xlink:title="Implementation of fault tree and component containers. ">
<polygon fill="white" stroke="black" points="302,-168.5 302,-187.5 373,-187.5 373,-168.5 302,-168.5"/>
<text text-anchor="middle" x="337.5" y="-175.5" font-family="Helvetica,sans-Serif" font-size="10.00">fault_tree.cc</text>
</a>
</g>
</g>
<!-- Node4&#45;&gt;Node5 -->
<g id="edge4" class="edge"><title>Node4&#45;&gt;Node5</title>
<path fill="none" stroke="midnightblue" d="M365.483,-215.855C358.383,-206.505 349.896,-195.327 344.144,-187.751"/>
<polygon fill="midnightblue" stroke="midnightblue" points="362.895,-218.235 371.73,-224.083 368.47,-214.002 362.895,-218.235"/>
</g>
<!-- Node4&#45;&gt;Node6 -->
<g id="edge5" class="edge"><title>Node4&#45;&gt;Node6</title>
<path fill="none" stroke="midnightblue" d="M383.831,-214.674C390.827,-190.625 402.823,-149.388 408.001,-131.591"/>
<polygon fill="midnightblue" stroke="midnightblue" points="380.444,-213.789 381.011,-224.368 387.165,-215.744 380.444,-213.789"/>
</g>
<!-- Node4&#45;&gt;Node9 -->
<g id="edge8" class="edge"><title>Node4&#45;&gt;Node9</title>
<path fill="none" stroke="midnightblue" d="M343.673,-221.172C313.734,-211.004 271.279,-196.585 244.576,-187.516"/>
<polygon fill="midnightblue" stroke="midnightblue" points="342.712,-224.542 353.306,-224.444 344.963,-217.914 342.712,-224.542"/>
</g>
<!-- Node14 -->
<g id="node14" class="node"><title>Node14</title>
<g id="a_node14"><a xlink:href="risk__analysis_8cc.xhtml" target="_top" xlink:title="Implementation of risk analysis handler. ">
<polygon fill="white" stroke="black" points="214,-56.5 214,-75.5 301,-75.5 301,-56.5 214,-56.5"/>
<text text-anchor="middle" x="257.5" y="-63.5" font-family="Helvetica,sans-Serif" font-size="10.00">risk_analysis.cc</text>
</a>
</g>
</g>
<!-- Node4&#45;&gt;Node14 -->
<g id="edge18" class="edge"><title>Node4&#45;&gt;Node14</title>
<path fill="none" stroke="midnightblue" d="M339.923,-220.651C323.208,-213.522 304.712,-202.943 292.5,-188 277.97,-170.22 263.726,-100.188 259.077,-75.5942"/>
<polygon fill="midnightblue" stroke="midnightblue" points="338.912,-224.016 349.497,-224.457 341.497,-217.511 338.912,-224.016"/>
</g>
<!-- Node7 -->
<g id="node7" class="node"><title>Node7</title>
<g id="a_node7"><a xlink:href="initializer_8cc.xhtml" target="_top" xlink:title="Implementation of input file processing into analysis constructs. ">
<polygon fill="white" stroke="black" points="403.5,-56.5 403.5,-75.5 471.5,-75.5 471.5,-56.5 403.5,-56.5"/>
<text text-anchor="middle" x="437.5" y="-63.5" font-family="Helvetica,sans-Serif" font-size="10.00">initializer.cc</text>
</a>
</g>
</g>
<!-- Node6&#45;&gt;Node7 -->
<g id="edge6" class="edge"><title>Node6&#45;&gt;Node7</title>
<path fill="none" stroke="midnightblue" d="M419.509,-102.983C424.092,-93.8168 429.454,-83.0922 433.124,-75.7511"/>
<polygon fill="midnightblue" stroke="midnightblue" points="416.3,-101.573 414.959,-112.083 422.561,-104.704 416.3,-101.573"/>
</g>
<!-- Node8 -->
<g id="node8" class="node"><title>Node8</title>
<g id="a_node8"><a xlink:href="scram_8cc.xhtml" target="_top" xlink:title="Main entrance. ">
<polygon fill="white" stroke="black" points="114,-0.5 114,-19.5 171,-19.5 171,-0.5 114,-0.5"/>
<text text-anchor="middle" x="142.5" y="-7.5" font-family="Helvetica,sans-Serif" font-size="10.00">scram.cc</text>
</a>
</g>
</g>
<!-- Node6&#45;&gt;Node8 -->
<g id="edge7" class="edge"><title>Node6&#45;&gt;Node8</title>
<path fill="none" stroke="midnightblue" d="M391.567,-106.259C371.997,-91.6555 340.079,-69.5651 309.5,-56 263.113,-35.4226 205.192,-22.4025 171.181,-15.9295"/>
<polygon fill="midnightblue" stroke="midnightblue" points="389.558,-109.128 399.64,-112.384 393.789,-103.551 389.558,-109.128"/>
</g>
<!-- Node9&#45;&gt;Node6 -->
<g id="edge9" class="edge"><title>Node9&#45;&gt;Node6</title>
<path fill="none" stroke="midnightblue" d="M255.328,-166.87C291.323,-156.694 346.188,-141.182 380.117,-131.59"/>
<polygon fill="midnightblue" stroke="midnightblue" points="253.93,-163.629 245.259,-169.717 255.834,-170.365 253.93,-163.629"/>
</g>
<!-- Node10 -->
<g id="node10" class="node"><title>Node10</title>
<g id="a_node10"><a xlink:href="model_8cc.xhtml" target="_top" xlink:title="Implementation of functions in Model class. ">
<polygon fill="white" stroke="black" points="201.5,-112.5 201.5,-131.5 257.5,-131.5 257.5,-112.5 201.5,-112.5"/>
<text text-anchor="middle" x="229.5" y="-119.5" font-family="Helvetica,sans-Serif" font-size="10.00">model.cc</text>
</a>
</g>
</g>
<!-- Node9&#45;&gt;Node10 -->
<g id="edge10" class="edge"><title>Node9&#45;&gt;Node10</title>
<path fill="none" stroke="midnightblue" d="M223,-158.101C224.66,-149.136 226.563,-138.858 227.879,-131.751"/>
<polygon fill="midnightblue" stroke="midnightblue" points="219.531,-157.613 221.151,-168.083 226.414,-158.888 219.531,-157.613"/>
</g>
<!-- Node9&#45;&gt;Node11 -->
<g id="edge11" class="edge"><title>Node9&#45;&gt;Node11</title>
<path fill="none" stroke="midnightblue" d="M183.883,-173.235C155.399,-168.377 116.401,-157.282 92.5,-132 77.6387,-116.28 74.3251,-89.5784 73.6367,-75.8022"/>
<polygon fill="midnightblue" stroke="midnightblue" points="183.44,-176.708 193.854,-174.758 184.497,-169.788 183.44,-176.708"/>
</g>
<!-- Node9&#45;&gt;Node13 -->
<g id="edge14" class="edge"><title>Node9&#45;&gt;Node13</title>
<path fill="none" stroke="midnightblue" d="M198.599,-162.342C184.589,-152.517 166.617,-139.913 154.841,-131.655"/>
<polygon fill="midnightblue" stroke="midnightblue" points="196.932,-165.448 207.129,-168.324 200.951,-159.717 196.932,-165.448"/>
</g>
<!-- Node11&#45;&gt;Node8 -->
<g id="edge13" class="edge"><title>Node11&#45;&gt;Node8</title>
<path fill="none" stroke="midnightblue" d="M92.5379,-50.1008C104.956,-40.3824 120.743,-28.0269 131.212,-19.8339"/>
<polygon fill="midnightblue" stroke="midnightblue" points="90.304,-47.4046 84.586,-56.324 94.6182,-52.9171 90.304,-47.4046"/>
</g>
<!-- Node11&#45;&gt;Node12 -->
<g id="edge12" class="edge"><title>Node11&#45;&gt;Node12</title>
<path fill="none" stroke="midnightblue" d="M60.3898,-48.144C53.0722,-38.7357 44.2591,-27.4046 38.3064,-19.7511"/>
<polygon fill="midnightblue" stroke="midnightblue" points="57.6624,-50.3383 66.5646,-56.083 63.1878,-46.0406 57.6624,-50.3383"/>
</g>
<!-- Node13&#45;&gt;Node8 -->
<g id="edge17" class="edge"><title>Node13&#45;&gt;Node8</title>
<path fill="none" stroke="midnightblue" d="M142.5,-102.348C142.5,-78.2538 142.5,-37.3079 142.5,-19.5914"/>
<polygon fill="midnightblue" stroke="midnightblue" points="139,-102.368 142.5,-112.368 146,-102.369 139,-102.368"/>
</g>
<!-- Node13&#45;&gt;Node11 -->
<g id="edge15" class="edge"><title>Node13&#45;&gt;Node11</title>
<path fill="none" stroke="midnightblue" d="M123.462,-106.101C111.044,-96.3824 95.2566,-84.0269 84.7878,-75.8339"/>
<polygon fill="midnightblue" stroke="midnightblue" points="121.382,-108.917 131.414,-112.324 125.696,-103.405 121.382,-108.917"/>
</g>
<!-- Node13&#45;&gt;Node14 -->
<g id="edge16" class="edge"><title>Node13&#45;&gt;Node14</title>
<path fill="none" stroke="midnightblue" d="M169.981,-108.096C191.466,-98.0073 220.722,-84.2697 239.363,-75.5164"/>
<polygon fill="midnightblue" stroke="midnightblue" points="168.286,-105.025 160.722,-112.444 171.262,-111.361 168.286,-105.025"/>
</g>
<!-- Node15&#45;&gt;Node7 -->
<g id="edge24" class="edge"><title>Node15&#45;&gt;Node7</title>
<path fill="none" stroke="midnightblue" d="M548.166,-273.19C560.745,-260.508 573.958,-241.924 567.5,-224 543.151,-156.415 475.674,-97.2939 448.778,-75.7111"/>
<polygon fill="midnightblue" stroke="midnightblue" points="545.513,-270.88 540.598,-280.265 550.293,-275.993 545.513,-270.88"/>
</g>
<!-- Node16 -->
<g id="node16" class="node"><title>Node16</title>
<g id="a_node16"><a xlink:href="cycle_8cc.xhtml" target="_top" xlink:title="Implementation of helper facilities to work with cycles. ">
<polygon fill="white" stroke="black" points="506,-224.5 506,-243.5 559,-243.5 559,-224.5 506,-224.5"/>
<text text-anchor="middle" x="532.5" y="-231.5" font-family="Helvetica,sans-Serif" font-size="10.00">cycle.cc</text>
</a>
</g>
</g>
<!-- Node15&#45;&gt;Node16 -->
<g id="edge23" class="edge"><title>Node15&#45;&gt;Node16</title>
<path fill="none" stroke="midnightblue" d="M530.566,-269.805C531.061,-260.91 531.623,-250.78 532.014,-243.751"/>
<polygon fill="midnightblue" stroke="midnightblue" points="527.056,-269.904 529.995,-280.083 534.045,-270.293 527.056,-269.904"/>
</g>
</g>
</svg>
