<?xml version="1.0" encoding="UTF-8" standalone="no"?>
<!DOCTYPE svg PUBLIC "-//W3C//DTD SVG 1.1//EN"
 "http://www.w3.org/Graphics/SVG/1.1/DTD/svg11.dtd">
<!-- Generated by graphviz version 2.38.0 (20140413.2041)
 -->
<!-- Title: exponential.cc Pages: 1 -->
<!--zoomable 263 -->
<svg id="main" version="1.1" xmlns="http://www.w3.org/2000/svg" xmlns:xlink="http://www.w3.org/1999/xlink" xml:space="preserve" onload="init(evt)">
<style type="text/css"><![CDATA[
.edge:hover path { stroke: red; }
.edge:hover polygon { stroke: red; fill: red; }
]]></style>
<script type="text/javascript"><![CDATA[
var edges = document.getElementsByTagName('g');
if (edges && edges.length) {
  for (var i=0;i<edges.length;i++) {
    if (edges[i].id.substr(0,4)=='edge') {
      edges[i].setAttribute('class','edge');
    }
  }
}
]]></script>
        <defs>
                <circle id="rim" cx="0" cy="0" r="7"/>
                <circle id="rim2" cx="0" cy="0" r="3.5"/>
                <g id="zoomPlus">
                        <use xlink:href="#rim" fill="#404040">
                                <set attributeName="fill" to="#808080" begin="zoomplus.mouseover" end="zoomplus.mouseout"/>
                        </use>
                        <path d="M-4,0h8M0,-4v8" fill="none" stroke="white" stroke-width="1.5" pointer-events="none"/>
                </g>
                <g id="zoomMin">
                        <use xlink:href="#rim" fill="#404040">
                                <set attributeName="fill" to="#808080" begin="zoomminus.mouseover" end="zoomminus.mouseout"/>
                        </use>
                        <path d="M-4,0h8" fill="none" stroke="white" stroke-width="1.5" pointer-events="none"/>
                </g>
                <g id="dirArrow">
                        <path fill="none" stroke="white" stroke-width="1.5" d="M0,-3.0v7 M-2.5,-0.5L0,-3.0L2.5,-0.5"/>
                </g>
               <g id="resetDef">
                       <use xlink:href="#rim2" fill="#404040">
                               <set attributeName="fill" to="#808080" begin="reset.mouseover" end="reset.mouseout"/>
                       </use>
               </g>
        </defs>

<script type="text/javascript">
var viewWidth = 633;
var viewHeight = 263;
var sectionId = 'dynsection-0';
</script>
<script xlink:href="svgpan.js"/>
<svg id="graph" class="graph">
<g id="viewport">
<title>exponential.cc</title>
<polygon fill="white" stroke="none" points="-4,4 -4,-259 628.5,-259 628.5,4 -4,4"/>
<!-- Node1 -->
<g id="node1" class="node"><title>Node1</title>
<polygon fill="#bfbfbf" stroke="black" points="453,-235.5 453,-254.5 533,-254.5 533,-235.5 453,-235.5"/>
<text text-anchor="middle" x="493" y="-242.5" font-family="Helvetica,sans-Serif" font-size="10.00">exponential.cc</text>
</g>
<!-- Node2 -->
<g id="node2" class="node"><title>Node2</title>
<g id="a_node2"><a xlink:href="exponential_8h.xhtml" target="_top" xlink:title="Expressions and distributions that are described with exponential formulas. ">
<polygon fill="white" stroke="black" points="95,-179.5 95,-198.5 169,-198.5 169,-179.5 95,-179.5"/>
<text text-anchor="middle" x="132" y="-186.5" font-family="Helvetica,sans-Serif" font-size="10.00">exponential.h</text>
</a>
</g>
</g>
<!-- Node1&#45;&gt;Node2 -->
<g id="edge1" class="edge"><title>Node1&#45;&gt;Node2</title>
<path fill="none" stroke="midnightblue" d="M452.987,-238.015C385.886,-227.977 250.996,-207.8 179.307,-197.076"/>
<polygon fill="midnightblue" stroke="midnightblue" points="179.612,-193.583 169.204,-195.565 178.576,-200.506 179.612,-193.583"/>
</g>
<!-- Node13 -->
<g id="node13" class="node"><title>Node13</title>
<polygon fill="white" stroke="#bfbfbf" points="542,-179.5 542,-198.5 586,-198.5 586,-179.5 542,-179.5"/>
<text text-anchor="middle" x="564" y="-186.5" font-family="Helvetica,sans-Serif" font-size="10.00">cmath</text>
</g>
<!-- Node1&#45;&gt;Node13 -->
<g id="edge15" class="edge"><title>Node1&#45;&gt;Node13</title>
<path fill="none" stroke="midnightblue" d="M504.407,-235.324C515.109,-227.185 531.341,-214.839 544.163,-205.087"/>
<polygon fill="midnightblue" stroke="midnightblue" points="546.544,-207.673 552.385,-198.834 542.307,-202.102 546.544,-207.673"/>
</g>
<!-- Node14 -->
<g id="node14" class="node"><title>Node14</title>
<g id="a_node14"><a xlink:href="error_8h.xhtml" target="_top" xlink:title="Exceptions for SCRAM. ">
<polygon fill="white" stroke="black" points="462.5,-179.5 462.5,-198.5 523.5,-198.5 523.5,-179.5 462.5,-179.5"/>
<text text-anchor="middle" x="493" y="-186.5" font-family="Helvetica,sans-Serif" font-size="10.00">src/error.h</text>
</a>
</g>
</g>
<!-- Node1&#45;&gt;Node14 -->
<g id="edge16" class="edge"><title>Node1&#45;&gt;Node14</title>
<path fill="none" stroke="midnightblue" d="M493,-235.083C493,-228.006 493,-217.861 493,-208.986"/>
<polygon fill="midnightblue" stroke="midnightblue" points="496.5,-208.751 493,-198.751 489.5,-208.751 496.5,-208.751"/>
</g>
<!-- Node3 -->
<g id="node3" class="node"><title>Node3</title>
<polygon fill="white" stroke="#bfbfbf" points="14,-67.5 14,-86.5 66,-86.5 66,-67.5 14,-67.5"/>
<text text-anchor="middle" x="40" y="-74.5" font-family="Helvetica,sans-Serif" font-size="10.00">memory</text>
</g>
<!-- Node2&#45;&gt;Node3 -->
<g id="edge2" class="edge"><title>Node2&#45;&gt;Node3</title>
<path fill="none" stroke="midnightblue" d="M119.349,-179.416C107.663,-171.061 90.3013,-157.529 78,-143 65.7501,-128.531 55.1837,-109.594 48.3251,-95.8958"/>
<polygon fill="midnightblue" stroke="midnightblue" points="51.3373,-94.0848 43.8364,-86.6023 45.034,-97.1293 51.3373,-94.0848"/>
</g>
<!-- Node4 -->
<g id="node4" class="node"><title>Node4</title>
<g id="a_node4"><a xlink:href="expression_8h.xhtml" target="_top" xlink:title="Provides the base class for all expressions and units for expression values. ">
<polygon fill="white" stroke="black" points="87.5,-123.5 87.5,-142.5 176.5,-142.5 176.5,-123.5 87.5,-123.5"/>
<text text-anchor="middle" x="132" y="-130.5" font-family="Helvetica,sans-Serif" font-size="10.00">src/expression.h</text>
</a>
</g>
</g>
<!-- Node2&#45;&gt;Node4 -->
<g id="edge3" class="edge"><title>Node2&#45;&gt;Node4</title>
<path fill="none" stroke="midnightblue" d="M132,-179.083C132,-172.006 132,-161.861 132,-152.986"/>
<polygon fill="midnightblue" stroke="midnightblue" points="135.5,-152.751 132,-142.751 128.5,-152.751 135.5,-152.751"/>
</g>
<!-- Node4&#45;&gt;Node3 -->
<g id="edge5" class="edge"><title>Node4&#45;&gt;Node3</title>
<path fill="none" stroke="midnightblue" d="M117.219,-123.324C102.733,-114.822 80.4269,-101.729 63.5068,-91.7975"/>
<polygon fill="midnightblue" stroke="midnightblue" points="65.1406,-88.6981 54.7447,-86.6545 61.5972,-94.735 65.1406,-88.6981"/>
</g>
<!-- Node5 -->
<g id="node5" class="node"><title>Node5</title>
<polygon fill="white" stroke="#bfbfbf" points="0,-6 0,-25 46,-25 46,-6 0,-6"/>
<text text-anchor="middle" x="23" y="-13" font-family="Helvetica,sans-Serif" font-size="10.00">cstdint</text>
</g>
<!-- Node4&#45;&gt;Node5 -->
<g id="edge4" class="edge"><title>Node4&#45;&gt;Node5</title>
<path fill="none" stroke="midnightblue" d="M124.833,-123.393C114.231,-110.762 93.6116,-86.5829 75,-67 63.6444,-55.0518 50.2959,-42.1098 39.9667,-32.3189"/>
<polygon fill="midnightblue" stroke="midnightblue" points="42.1067,-29.5267 32.4259,-25.2216 37.3091,-34.624 42.1067,-29.5267"/>
</g>
<!-- Node6 -->
<g id="node6" class="node"><title>Node6</title>
<polygon fill="white" stroke="#bfbfbf" points="64,-6 64,-25 108,-25 108,-6 64,-6"/>
<text text-anchor="middle" x="86" y="-13" font-family="Helvetica,sans-Serif" font-size="10.00">vector</text>
</g>
<!-- Node4&#45;&gt;Node6 -->
<g id="edge6" class="edge"><title>Node4&#45;&gt;Node6</title>
<path fill="none" stroke="midnightblue" d="M128.898,-123.107C124.47,-110.531 115.988,-86.8667 108,-67 103.599,-56.0531 98.33,-43.9284 94.0521,-34.3037"/>
<polygon fill="midnightblue" stroke="midnightblue" points="97.1723,-32.7077 89.887,-25.0151 90.785,-35.5718 97.1723,-32.7077"/>
</g>
<!-- Node7 -->
<g id="node7" class="node"><title>Node7</title>
<polygon fill="white" stroke="#bfbfbf" points="237.5,-67.5 237.5,-86.5 354.5,-86.5 354.5,-67.5 237.5,-67.5"/>
<text text-anchor="middle" x="296" y="-74.5" font-family="Helvetica,sans-Serif" font-size="10.00">boost/noncopyable.hpp</text>
</g>
<!-- Node4&#45;&gt;Node7 -->
<g id="edge7" class="edge"><title>Node4&#45;&gt;Node7</title>
<path fill="none" stroke="midnightblue" d="M157.986,-123.444C185.696,-114.32 229.752,-99.8133 260.616,-89.6509"/>
<polygon fill="midnightblue" stroke="midnightblue" points="261.732,-92.9684 270.135,-86.5164 259.542,-86.3196 261.732,-92.9684"/>
</g>
<!-- Node8 -->
<g id="node8" class="node"><title>Node8</title>
<g id="a_node8"><a xlink:href="element_8h.xhtml" target="_top" xlink:title="Helper classes, structs, and properties common to all other classes. ">
<polygon fill="white" stroke="black" points="160.5,-67.5 160.5,-86.5 219.5,-86.5 219.5,-67.5 160.5,-67.5"/>
<text text-anchor="middle" x="190" y="-74.5" font-family="Helvetica,sans-Serif" font-size="10.00">element.h</text>
</a>
</g>
</g>
<!-- Node4&#45;&gt;Node8 -->
<g id="edge8" class="edge"><title>Node4&#45;&gt;Node8</title>
<path fill="none" stroke="midnightblue" d="M141.319,-123.324C149.893,-115.341 162.812,-103.313 173.188,-93.6529"/>
<polygon fill="midnightblue" stroke="midnightblue" points="175.578,-96.2098 180.512,-86.8339 170.808,-91.0865 175.578,-96.2098"/>
</g>
<!-- Node8&#45;&gt;Node5 -->
<g id="edge9" class="edge"><title>Node8&#45;&gt;Node5</title>
<path fill="none" stroke="midnightblue" d="M161.511,-67.4479C133.977,-58.9614 91.2267,-45.2013 55,-31 53.5804,-30.4435 52.1328,-29.8574 50.6764,-29.2528"/>
<polygon fill="midnightblue" stroke="midnightblue" points="51.7032,-25.8831 41.1365,-25.1118 48.916,-32.3042 51.7032,-25.8831"/>
</g>
<!-- Node8&#45;&gt;Node6 -->
<g id="edge11" class="edge"><title>Node8&#45;&gt;Node6</title>
<path fill="none" stroke="midnightblue" d="M175.099,-67.4751C158.032,-57.7106 129.839,-41.5807 109.738,-30.0808"/>
<polygon fill="midnightblue" stroke="midnightblue" points="111.291,-26.9371 100.873,-25.0091 107.815,-33.013 111.291,-26.9371"/>
</g>
<!-- Node9 -->
<g id="node9" class="node"><title>Node9</title>
<polygon fill="white" stroke="#bfbfbf" points="583.5,-6 583.5,-25 624.5,-25 624.5,-6 583.5,-6"/>
<text text-anchor="middle" x="604" y="-13" font-family="Helvetica,sans-Serif" font-size="10.00">string</text>
</g>
<!-- Node8&#45;&gt;Node9 -->
<g id="edge10" class="edge"><title>Node8&#45;&gt;Node9</title>
<path fill="none" stroke="midnightblue" d="M219.796,-68.5596C222.56,-67.9855 225.326,-67.4538 228,-67 380.428,-41.1303 425.284,-73.2733 574,-31 575.878,-30.4662 577.782,-29.8211 579.673,-29.1034"/>
<polygon fill="midnightblue" stroke="midnightblue" points="581.08,-32.3082 588.834,-25.088 578.27,-25.8971 581.08,-32.3082"/>
</g>
<!-- Node10 -->
<g id="node10" class="node"><title>Node10</title>
<polygon fill="white" stroke="#bfbfbf" points="408.5,-6 408.5,-25 565.5,-25 565.5,-6 408.5,-6"/>
<text text-anchor="middle" x="487" y="-13" font-family="Helvetica,sans-Serif" font-size="10.00">boost/multi_index_container.hpp</text>
</g>
<!-- Node8&#45;&gt;Node10 -->
<g id="edge12" class="edge"><title>Node8&#45;&gt;Node10</title>
<path fill="none" stroke="midnightblue" d="M219.845,-68.8124C222.599,-68.1852 225.349,-67.5721 228,-67 297.271,-52.0499 377.393,-36.7286 429.961,-26.9432"/>
<polygon fill="midnightblue" stroke="midnightblue" points="430.903,-30.3283 440.096,-25.0617 429.625,-23.4459 430.903,-30.3283"/>
</g>
<!-- Node11 -->
<g id="node11" class="node"><title>Node11</title>
<polygon fill="white" stroke="#bfbfbf" points="126,-0.5 126,-30.5 254,-30.5 254,-0.5 126,-0.5"/>
<text text-anchor="start" x="134" y="-18.5" font-family="Helvetica,sans-Serif" font-size="10.00">boost/multi_index/hashed</text>
<text text-anchor="middle" x="190" y="-7.5" font-family="Helvetica,sans-Serif" font-size="10.00">_index.hpp</text>
</g>
<!-- Node8&#45;&gt;Node11 -->
<g id="edge13" class="edge"><title>Node8&#45;&gt;Node11</title>
<path fill="none" stroke="midnightblue" d="M190,-67.4751C190,-60.471 190,-50.1919 190,-40.6956"/>
<polygon fill="midnightblue" stroke="midnightblue" points="193.5,-40.5229 190,-30.523 186.5,-40.523 193.5,-40.5229"/>
</g>
<!-- Node12 -->
<g id="node12" class="node"><title>Node12</title>
<polygon fill="white" stroke="#bfbfbf" points="272,-0.5 272,-30.5 390,-30.5 390,-0.5 272,-0.5"/>
<text text-anchor="start" x="280" y="-18.5" font-family="Helvetica,sans-Serif" font-size="10.00">boost/multi_index/mem</text>
<text text-anchor="middle" x="331" y="-7.5" font-family="Helvetica,sans-Serif" font-size="10.00">_fun.hpp</text>
</g>
<!-- Node8&#45;&gt;Node12 -->
<g id="edge14" class="edge"><title>Node8&#45;&gt;Node12</title>
<path fill="none" stroke="midnightblue" d="M210.202,-67.4751C230.548,-58.8895 262.555,-45.3827 288.512,-34.4291"/>
<polygon fill="midnightblue" stroke="midnightblue" points="289.917,-37.6356 297.769,-30.523 287.195,-31.1863 289.917,-37.6356"/>
</g>
<!-- Node14&#45;&gt;Node9 -->
<g id="edge18" class="edge"><title>Node14&#45;&gt;Node9</title>
<path fill="none" stroke="midnightblue" d="M494.355,-179.13C496.6,-166.171 501.883,-141.588 512,-123 531.901,-86.4352 566.065,-51.3663 586.69,-31.9992"/>
<polygon fill="midnightblue" stroke="midnightblue" points="589.141,-34.5002 594.123,-25.1499 584.397,-29.3525 589.141,-34.5002"/>
</g>
<!-- Node15 -->
<g id="node15" class="node"><title>Node15</title>
<polygon fill="white" stroke="#bfbfbf" points="521.5,-123.5 521.5,-142.5 580.5,-142.5 580.5,-123.5 521.5,-123.5"/>
<text text-anchor="middle" x="551" y="-130.5" font-family="Helvetica,sans-Serif" font-size="10.00">exception</text>
</g>
<!-- Node14&#45;&gt;Node15 -->
<g id="edge17" class="edge"><title>Node14&#45;&gt;Node15</title>
<path fill="none" stroke="midnightblue" d="M502.319,-179.324C510.893,-171.341 523.812,-159.313 534.188,-149.653"/>
<polygon fill="midnightblue" stroke="midnightblue" points="536.578,-152.21 541.512,-142.834 531.808,-147.086 536.578,-152.21"/>
</g>
</g>
</svg>
        <g id="navigator" transform="translate(0 0)" fill="#404254">
                <rect fill="#f2f5e9" fill-opacity="0.5" stroke="#606060" stroke-width=".5" x="0" y="0" width="60" height="60"/>
                <use id="zoomplus" xlink:href="#zoomPlus" x="17" y="9" onmousedown="handleZoom(evt,'in')"/>
                <use id="zoomminus" xlink:href="#zoomMin" x="42" y="9" onmousedown="handleZoom(evt,'out')"/>
                <use id="reset" xlink:href="#resetDef" x="30" y="36" onmousedown="handleReset()"/>
                <g id="arrowUp" xlink:href="#dirArrow" transform="translate(30 24)" onmousedown="handlePan(0,-1)">
                  <use xlink:href="#rim" fill="#404040">
                        <set attributeName="fill" to="#808080" begin="arrowUp.mouseover" end="arrowUp.mouseout"/>
                  </use>
                  <path fill="none" stroke="white" stroke-width="1.5" d="M0,-3.0v7 M-2.5,-0.5L0,-3.0L2.5,-0.5"/>
                </g>
                <g id="arrowRight" xlink:href="#dirArrow" transform="rotate(90) translate(36 -43)" onmousedown="handlePan(1,0)">
                  <use xlink:href="#rim" fill="#404040">
                        <set attributeName="fill" to="#808080" begin="arrowRight.mouseover" end="arrowRight.mouseout"/>
                  </use>
                  <path fill="none" stroke="white" stroke-width="1.5" d="M0,-3.0v7 M-2.5,-0.5L0,-3.0L2.5,-0.5"/>
                </g>
                <g id="arrowDown" xlink:href="#dirArrow" transform="rotate(180) translate(-30 -48)" onmousedown="handlePan(0,1)">
                  <use xlink:href="#rim" fill="#404040">
                        <set attributeName="fill" to="#808080" begin="arrowDown.mouseover" end="arrowDown.mouseout"/>
                  </use>
                  <path fill="none" stroke="white" stroke-width="1.5" d="M0,-3.0v7 M-2.5,-0.5L0,-3.0L2.5,-0.5"/>
                </g>
                <g id="arrowLeft" xlink:href="#dirArrow" transform="rotate(270) translate(-36 17)" onmousedown="handlePan(-1,0)">
                  <use xlink:href="#rim" fill="#404040">
                        <set attributeName="fill" to="#808080" begin="arrowLeft.mouseover" end="arrowLeft.mouseout"/>
                  </use>
                  <path fill="none" stroke="white" stroke-width="1.5" d="M0,-3.0v7 M-2.5,-0.5L0,-3.0L2.5,-0.5"/>
                </g>
        </g>
        <svg viewBox="0 0 15 15" width="100%" height="30px" preserveAspectRatio="xMaxYMin meet">
         <g id="arrow_out" transform="scale(0.3 0.3)">
          <a xlink:href="exponential_8cc__incl_org.svg" target="_base">
           <rect id="button" ry="5" rx="5" y="6" x="6" height="38" width="38"
                fill="#f2f5e9" fill-opacity="0.5" stroke="#606060" stroke-width="1.0"/>
           <path id="arrow"
             d="M 11.500037,31.436501 C 11.940474,20.09759 22.043105,11.32322 32.158766,21.979434 L 37.068811,17.246167 C 37.068811,17.246167 37.088388,32 37.088388,32 L 22.160133,31.978069 C 22.160133,31.978069 26.997745,27.140456 26.997745,27.140456 C 18.528582,18.264221 13.291696,25.230495 11.500037,31.436501 z"
             style="fill:#404040;"/>
          </a>
         </g>
        </svg>
</svg>
