<?xml version="1.0" encoding="UTF-8" standalone="no"?>
<!DOCTYPE svg PUBLIC "-//W3C//DTD SVG 1.1//EN"
 "http://www.w3.org/Graphics/SVG/1.1/DTD/svg11.dtd">
<!-- Generated by graphviz version 2.38.0 (20140413.2041)
 -->
<!-- Title: exponential.h Pages: 1 -->
<svg width="634pt" height="207pt"
 viewBox="0.00 0.00 634.00 207.00" xmlns="http://www.w3.org/2000/svg" xmlns:xlink="http://www.w3.org/1999/xlink">
<g id="graph0" class="graph" transform="scale(1 1) rotate(0) translate(4 203)">
<title>exponential.h</title>
<polygon fill="white" stroke="none" points="-4,4 -4,-203 630,-203 630,4 -4,4"/>
<!-- Node1 -->
<g id="node1" class="node"><title>Node1</title>
<polygon fill="#bfbfbf" stroke="black" points="158,-179.5 158,-198.5 232,-198.5 232,-179.5 158,-179.5"/>
<text text-anchor="middle" x="195" y="-186.5" font-family="Helvetica,sans-Serif" font-size="10.00">exponential.h</text>
</g>
<!-- Node2 -->
<g id="node2" class="node"><title>Node2</title>
<polygon fill="white" stroke="#bfbfbf" points="90,-67.5 90,-86.5 142,-86.5 142,-67.5 90,-67.5"/>
<text text-anchor="middle" x="116" y="-74.5" font-family="Helvetica,sans-Serif" font-size="10.00">memory</text>
</g>
<!-- Node1&#45;&gt;Node2 -->
<g id="edge1" class="edge"><title>Node1&#45;&gt;Node2</title>
<path fill="none" stroke="midnightblue" d="M188.801,-179.368C175.764,-161.215 145.303,-118.802 128.202,-94.9902"/>
<polygon fill="midnightblue" stroke="midnightblue" points="130.846,-92.6721 122.17,-86.5914 125.161,-96.7555 130.846,-92.6721"/>
</g>
<!-- Node3 -->
<g id="node3" class="node"><title>Node3</title>
<g id="a_node3"><a xlink:href="expression_8h.xhtml" target="_top" xlink:title="Provides the base class for all expressions and units for expression values. ">
<polygon fill="white" stroke="black" points="195.5,-123.5 195.5,-142.5 284.5,-142.5 284.5,-123.5 195.5,-123.5"/>
<text text-anchor="middle" x="240" y="-130.5" font-family="Helvetica,sans-Serif" font-size="10.00">src/expression.h</text>
</a>
</g>
</g>
<!-- Node1&#45;&gt;Node3 -->
<g id="edge2" class="edge"><title>Node1&#45;&gt;Node3</title>
<path fill="none" stroke="midnightblue" d="M202.431,-179.083C208.853,-171.377 218.306,-160.033 226.122,-150.653"/>
<polygon fill="midnightblue" stroke="midnightblue" points="228.994,-152.674 232.707,-142.751 223.617,-148.193 228.994,-152.674"/>
</g>
<!-- Node3&#45;&gt;Node2 -->
<g id="edge4" class="edge"><title>Node3&#45;&gt;Node2</title>
<path fill="none" stroke="midnightblue" d="M220.352,-123.444C200.035,-114.596 168.097,-100.687 144.902,-90.5865"/>
<polygon fill="midnightblue" stroke="midnightblue" points="146.122,-87.3002 135.556,-86.5164 143.327,-93.7181 146.122,-87.3002"/>
</g>
<!-- Node4 -->
<g id="node4" class="node"><title>Node4</title>
<polygon fill="white" stroke="#bfbfbf" points="580,-6 580,-25 626,-25 626,-6 580,-6"/>
<text text-anchor="middle" x="603" y="-13" font-family="Helvetica,sans-Serif" font-size="10.00">cstdint</text>
</g>
<!-- Node3&#45;&gt;Node4 -->
<g id="edge3" class="edge"><title>Node3&#45;&gt;Node4</title>
<path fill="none" stroke="midnightblue" d="M273.936,-123.488C334.54,-107.882 464.963,-72.4589 571,-31 572.42,-30.4447 573.868,-29.8597 575.325,-29.2559"/>
<polygon fill="midnightblue" stroke="midnightblue" points="577.084,-32.3078 584.866,-25.1175 574.299,-25.8859 577.084,-32.3078"/>
</g>
<!-- Node5 -->
<g id="node5" class="node"><title>Node5</title>
<polygon fill="white" stroke="#bfbfbf" points="0,-6 0,-25 44,-25 44,-6 0,-6"/>
<text text-anchor="middle" x="22" y="-13" font-family="Helvetica,sans-Serif" font-size="10.00">vector</text>
</g>
<!-- Node3&#45;&gt;Node5 -->
<g id="edge5" class="edge"><title>Node3&#45;&gt;Node5</title>
<path fill="none" stroke="midnightblue" d="M230.206,-123.41C214.437,-109.924 182.039,-83.6128 151,-67 110.09,-45.1042 95.8323,-48.8461 53,-31 51.6289,-30.4287 50.2299,-29.8307 48.8216,-29.2167"/>
<polygon fill="midnightblue" stroke="midnightblue" points="50.1426,-25.9729 39.5885,-25.0447 47.2602,-32.352 50.1426,-25.9729"/>
</g>
<!-- Node6 -->
<g id="node6" class="node"><title>Node6</title>
<polygon fill="white" stroke="#bfbfbf" points="198.5,-67.5 198.5,-86.5 315.5,-86.5 315.5,-67.5 198.5,-67.5"/>
<text text-anchor="middle" x="257" y="-74.5" font-family="Helvetica,sans-Serif" font-size="10.00">boost/noncopyable.hpp</text>
</g>
<!-- Node3&#45;&gt;Node6 -->
<g id="edge6" class="edge"><title>Node3&#45;&gt;Node6</title>
<path fill="none" stroke="midnightblue" d="M242.807,-123.083C245.085,-115.849 248.371,-105.409 251.208,-96.3968"/>
<polygon fill="midnightblue" stroke="midnightblue" points="254.581,-97.3406 254.245,-86.7511 247.904,-95.2385 254.581,-97.3406"/>
</g>
<!-- Node7 -->
<g id="node7" class="node"><title>Node7</title>
<g id="a_node7"><a xlink:href="element_8h.xhtml" target="_top" xlink:title="Helper classes, structs, and properties common to all other classes. ">
<polygon fill="white" stroke="black" points="333.5,-67.5 333.5,-86.5 392.5,-86.5 392.5,-67.5 333.5,-67.5"/>
<text text-anchor="middle" x="363" y="-74.5" font-family="Helvetica,sans-Serif" font-size="10.00">element.h</text>
</a>
</g>
</g>
<!-- Node3&#45;&gt;Node7 -->
<g id="edge7" class="edge"><title>Node3&#45;&gt;Node7</title>
<path fill="none" stroke="midnightblue" d="M259.49,-123.444C279.642,-114.596 311.323,-100.687 334.331,-90.5865"/>
<polygon fill="midnightblue" stroke="midnightblue" points="335.852,-93.7411 343.601,-86.5164 333.038,-87.3316 335.852,-93.7411"/>
</g>
<!-- Node7&#45;&gt;Node4 -->
<g id="edge8" class="edge"><title>Node7&#45;&gt;Node4</title>
<path fill="none" stroke="midnightblue" d="M392.806,-71.5976C433.673,-65.1025 509.084,-51.467 571,-31 572.868,-30.3826 574.773,-29.6907 576.676,-28.9528"/>
<polygon fill="midnightblue" stroke="midnightblue" points="578.149,-32.1301 585.996,-25.0123 575.423,-25.6826 578.149,-32.1301"/>
</g>
<!-- Node7&#45;&gt;Node5 -->
<g id="edge10" class="edge"><title>Node7&#45;&gt;Node5</title>
<path fill="none" stroke="midnightblue" d="M333.189,-68.6392C330.428,-68.0484 327.667,-67.491 325,-67 205.073,-44.92 170.04,-65.2324 53,-31 51.1181,-30.4496 49.2063,-29.8001 47.3035,-29.0863"/>
<polygon fill="midnightblue" stroke="midnightblue" points="48.6171,-25.8416 38.0455,-25.1414 45.8731,-32.2814 48.6171,-25.8416"/>
</g>
<!-- Node8 -->
<g id="node8" class="node"><title>Node8</title>
<polygon fill="white" stroke="#bfbfbf" points="520.5,-6 520.5,-25 561.5,-25 561.5,-6 520.5,-6"/>
<text text-anchor="middle" x="541" y="-13" font-family="Helvetica,sans-Serif" font-size="10.00">string</text>
</g>
<!-- Node7&#45;&gt;Node8 -->
<g id="edge9" class="edge"><title>Node7&#45;&gt;Node8</title>
<path fill="none" stroke="midnightblue" d="M392.662,-68.4379C422.874,-60.3984 470.855,-46.6954 511,-31 512.381,-30.4602 513.785,-29.8832 515.196,-29.2819"/>
<polygon fill="midnightblue" stroke="midnightblue" points="516.735,-32.4266 524.385,-25.0961 513.834,-26.0563 516.735,-32.4266"/>
</g>
<!-- Node9 -->
<g id="node9" class="node"><title>Node9</title>
<polygon fill="white" stroke="#bfbfbf" points="62.5,-6 62.5,-25 219.5,-25 219.5,-6 62.5,-6"/>
<text text-anchor="middle" x="141" y="-13" font-family="Helvetica,sans-Serif" font-size="10.00">boost/multi_index_container.hpp</text>
</g>
<!-- Node7&#45;&gt;Node9 -->
<g id="edge11" class="edge"><title>Node7&#45;&gt;Node9</title>
<path fill="none" stroke="midnightblue" d="M333.06,-67.9756C294.301,-57.5874 226.548,-39.4284 182.749,-27.6895"/>
<polygon fill="midnightblue" stroke="midnightblue" points="183.54,-24.2781 172.975,-25.0699 181.728,-31.0395 183.54,-24.2781"/>
</g>
<!-- Node10 -->
<g id="node10" class="node"><title>Node10</title>
<polygon fill="white" stroke="#bfbfbf" points="238,-0.5 238,-30.5 366,-30.5 366,-0.5 238,-0.5"/>
<text text-anchor="start" x="246" y="-18.5" font-family="Helvetica,sans-Serif" font-size="10.00">boost/multi_index/hashed</text>
<text text-anchor="middle" x="302" y="-7.5" font-family="Helvetica,sans-Serif" font-size="10.00">_index.hpp</text>
</g>
<!-- Node7&#45;&gt;Node10 -->
<g id="edge12" class="edge"><title>Node7&#45;&gt;Node10</title>
<path fill="none" stroke="midnightblue" d="M354.26,-67.4751C346.307,-59.7179 334.236,-47.9435 323.698,-37.6645"/>
<polygon fill="midnightblue" stroke="midnightblue" points="325.979,-35 316.376,-30.523 321.091,-40.011 325.979,-35"/>
</g>
<!-- Node11 -->
<g id="node11" class="node"><title>Node11</title>
<polygon fill="white" stroke="#bfbfbf" points="384,-0.5 384,-30.5 502,-30.5 502,-0.5 384,-0.5"/>
<text text-anchor="start" x="392" y="-18.5" font-family="Helvetica,sans-Serif" font-size="10.00">boost/multi_index/mem</text>
<text text-anchor="middle" x="443" y="-7.5" font-family="Helvetica,sans-Serif" font-size="10.00">_fun.hpp</text>
</g>
<!-- Node7&#45;&gt;Node11 -->
<g id="edge13" class="edge"><title>Node7&#45;&gt;Node11</title>
<path fill="none" stroke="midnightblue" d="M374.462,-67.4751C385.196,-59.492 401.65,-47.2542 415.746,-36.7703"/>
<polygon fill="midnightblue" stroke="midnightblue" points="418.21,-39.2993 424.146,-30.523 414.033,-33.6825 418.21,-39.2993"/>
</g>
</g>
</svg>
