<?xml version="1.0" encoding="UTF-8" standalone="no"?>
<!DOCTYPE svg PUBLIC "-//W3C//DTD SVG 1.1//EN"
 "http://www.w3.org/Graphics/SVG/1.1/DTD/svg11.dtd">
<!-- Generated by graphviz version 2.38.0 (20140413.2041)
 -->
<!-- Title: expression.cc Pages: 1 -->
<svg width="740pt" height="207pt"
 viewBox="0.00 0.00 740.00 207.00" xmlns="http://www.w3.org/2000/svg" xmlns:xlink="http://www.w3.org/1999/xlink">
<g id="graph0" class="graph" transform="scale(1 1) rotate(0) translate(4 203)">
<title>expression.cc</title>
<polygon fill="white" stroke="none" points="-4,4 -4,-203 736,-203 736,4 -4,4"/>
<!-- Node1 -->
<g id="node1" class="node"><title>Node1</title>
<polygon fill="#bfbfbf" stroke="black" points="472.5,-179.5 472.5,-198.5 549.5,-198.5 549.5,-179.5 472.5,-179.5"/>
<text text-anchor="middle" x="511" y="-186.5" font-family="Helvetica,sans-Serif" font-size="10.00">expression.cc</text>
</g>
<!-- Node2 -->
<g id="node2" class="node"><title>Node2</title>
<g id="a_node2"><a xlink:href="expression_8h.xhtml" target="_top" xlink:title="Provides the base class for all expressions and units for expression values. ">
<polygon fill="white" stroke="black" points="365,-123.5 365,-142.5 437,-142.5 437,-123.5 365,-123.5"/>
<text text-anchor="middle" x="401" y="-130.5" font-family="Helvetica,sans-Serif" font-size="10.00">expression.h</text>
</a>
</g>
</g>
<!-- Node1&#45;&gt;Node2 -->
<g id="edge1" class="edge"><title>Node1&#45;&gt;Node2</title>
<path fill="none" stroke="midnightblue" d="M493.327,-179.324C475.606,-170.625 448.097,-157.12 427.712,-147.113"/>
<polygon fill="midnightblue" stroke="midnightblue" points="429.149,-143.919 418.63,-142.655 426.064,-150.203 429.149,-143.919"/>
</g>
<!-- Node12 -->
<g id="node12" class="node"><title>Node12</title>
<g id="a_node12"><a xlink:href="algorithm_8h.xhtml" target="_top" xlink:title="Helpful algorithm facilities as an extension to the STL or Boost. ">
<polygon fill="white" stroke="black" points="552.5,-123.5 552.5,-142.5 633.5,-142.5 633.5,-123.5 552.5,-123.5"/>
<text text-anchor="middle" x="593" y="-130.5" font-family="Helvetica,sans-Serif" font-size="10.00">ext/algorithm.h</text>
</a>
</g>
</g>
<!-- Node1&#45;&gt;Node12 -->
<g id="edge13" class="edge"><title>Node1&#45;&gt;Node12</title>
<path fill="none" stroke="midnightblue" d="M524.175,-179.324C536.847,-170.979 556.233,-158.212 571.206,-148.352"/>
<polygon fill="midnightblue" stroke="midnightblue" points="573.431,-151.078 579.858,-142.655 569.581,-145.231 573.431,-151.078"/>
</g>
<!-- Node3 -->
<g id="node3" class="node"><title>Node3</title>
<polygon fill="white" stroke="#bfbfbf" points="580,-6 580,-25 626,-25 626,-6 580,-6"/>
<text text-anchor="middle" x="603" y="-13" font-family="Helvetica,sans-Serif" font-size="10.00">cstdint</text>
</g>
<!-- Node2&#45;&gt;Node3 -->
<g id="edge2" class="edge"><title>Node2&#45;&gt;Node3</title>
<path fill="none" stroke="midnightblue" d="M405.013,-123.44C411.981,-109.51 427.643,-81.9892 449,-67 494.926,-34.7682 517.325,-50.3229 570,-31 571.656,-30.3925 573.347,-29.743 575.046,-29.0681"/>
<polygon fill="midnightblue" stroke="midnightblue" points="576.793,-32.1314 584.665,-25.0407 574.089,-25.6745 576.793,-32.1314"/>
</g>
<!-- Node4 -->
<g id="node4" class="node"><title>Node4</title>
<polygon fill="white" stroke="#bfbfbf" points="458,-67.5 458,-86.5 510,-86.5 510,-67.5 458,-67.5"/>
<text text-anchor="middle" x="484" y="-74.5" font-family="Helvetica,sans-Serif" font-size="10.00">memory</text>
</g>
<!-- Node2&#45;&gt;Node4 -->
<g id="edge3" class="edge"><title>Node2&#45;&gt;Node4</title>
<path fill="none" stroke="midnightblue" d="M414.335,-123.324C427.162,-114.979 446.785,-102.212 461.94,-92.3524"/>
<polygon fill="midnightblue" stroke="midnightblue" points="464.224,-95.0417 470.698,-86.6545 460.407,-89.1742 464.224,-95.0417"/>
</g>
<!-- Node5 -->
<g id="node5" class="node"><title>Node5</title>
<polygon fill="white" stroke="#bfbfbf" points="0,-6 0,-25 44,-25 44,-6 0,-6"/>
<text text-anchor="middle" x="22" y="-13" font-family="Helvetica,sans-Serif" font-size="10.00">vector</text>
</g>
<!-- Node2&#45;&gt;Node5 -->
<g id="edge4" class="edge"><title>Node2&#45;&gt;Node5</title>
<path fill="none" stroke="midnightblue" d="M364.641,-125.65C323.689,-118.105 255.364,-104.328 198,-87 131.868,-67.0235 116.548,-58.0954 53,-31 51.801,-30.4888 50.5799,-29.9587 49.3492,-29.4167"/>
<polygon fill="midnightblue" stroke="midnightblue" points="50.4896,-26.0908 39.937,-25.1457 47.597,-32.4652 50.4896,-26.0908"/>
</g>
<!-- Node6 -->
<g id="node6" class="node"><title>Node6</title>
<polygon fill="white" stroke="#bfbfbf" points="207.5,-67.5 207.5,-86.5 324.5,-86.5 324.5,-67.5 207.5,-67.5"/>
<text text-anchor="middle" x="266" y="-74.5" font-family="Helvetica,sans-Serif" font-size="10.00">boost/noncopyable.hpp</text>
</g>
<!-- Node2&#45;&gt;Node6 -->
<g id="edge5" class="edge"><title>Node2&#45;&gt;Node6</title>
<path fill="none" stroke="midnightblue" d="M379.609,-123.444C357.293,-114.517 322.097,-100.439 296.792,-90.3168"/>
<polygon fill="midnightblue" stroke="midnightblue" points="297.876,-86.9807 287.291,-86.5164 295.276,-93.4801 297.876,-86.9807"/>
</g>
<!-- Node7 -->
<g id="node7" class="node"><title>Node7</title>
<g id="a_node7"><a xlink:href="element_8h.xhtml" target="_top" xlink:title="Helper classes, structs, and properties common to all other classes. ">
<polygon fill="white" stroke="black" points="342.5,-67.5 342.5,-86.5 401.5,-86.5 401.5,-67.5 342.5,-67.5"/>
<text text-anchor="middle" x="372" y="-74.5" font-family="Helvetica,sans-Serif" font-size="10.00">element.h</text>
</a>
</g>
</g>
<!-- Node2&#45;&gt;Node7 -->
<g id="edge6" class="edge"><title>Node2&#45;&gt;Node7</title>
<path fill="none" stroke="midnightblue" d="M396.211,-123.083C392.242,-115.691 386.475,-104.953 381.565,-95.8111"/>
<polygon fill="midnightblue" stroke="midnightblue" points="384.514,-93.9051 376.7,-86.7511 378.347,-97.217 384.514,-93.9051"/>
</g>
<!-- Node7&#45;&gt;Node3 -->
<g id="edge7" class="edge"><title>Node7&#45;&gt;Node3</title>
<path fill="none" stroke="midnightblue" d="M401.525,-69.6155C452.734,-58.4935 554.099,-36.2472 570,-31 571.872,-30.3823 573.783,-29.697 575.695,-28.9703"/>
<polygon fill="midnightblue" stroke="midnightblue" points="577.168,-32.1487 585.087,-25.1103 574.508,-25.6741 577.168,-32.1487"/>
</g>
<!-- Node7&#45;&gt;Node5 -->
<g id="edge9" class="edge"><title>Node7&#45;&gt;Node5</title>
<path fill="none" stroke="midnightblue" d="M342.252,-68.8159C339.137,-68.1592 336.01,-67.5394 333,-67 209.499,-44.8665 173.489,-65.9982 53,-31 51.0743,-30.4406 49.1176,-29.7768 47.1714,-29.0456"/>
<polygon fill="midnightblue" stroke="midnightblue" points="48.2926,-25.7184 37.722,-25.0021 45.5387,-32.154 48.2926,-25.7184"/>
</g>
<!-- Node8 -->
<g id="node8" class="node"><title>Node8</title>
<polygon fill="white" stroke="#bfbfbf" points="520.5,-6 520.5,-25 561.5,-25 561.5,-6 520.5,-6"/>
<text text-anchor="middle" x="541" y="-13" font-family="Helvetica,sans-Serif" font-size="10.00">string</text>
</g>
<!-- Node7&#45;&gt;Node8 -->
<g id="edge8" class="edge"><title>Node7&#45;&gt;Node8</title>
<path fill="none" stroke="midnightblue" d="M401.704,-67.6703C430.136,-59.3972 474.042,-45.8326 511,-31 512.376,-30.4479 513.777,-29.861 515.184,-29.2519"/>
<polygon fill="midnightblue" stroke="midnightblue" points="516.733,-32.3919 524.363,-25.0413 513.815,-26.0293 516.733,-32.3919"/>
</g>
<!-- Node9 -->
<g id="node9" class="node"><title>Node9</title>
<polygon fill="white" stroke="#bfbfbf" points="62.5,-6 62.5,-25 219.5,-25 219.5,-6 62.5,-6"/>
<text text-anchor="middle" x="141" y="-13" font-family="Helvetica,sans-Serif" font-size="10.00">boost/multi_index_container.hpp</text>
</g>
<!-- Node7&#45;&gt;Node9 -->
<g id="edge10" class="edge"><title>Node7&#45;&gt;Node9</title>
<path fill="none" stroke="midnightblue" d="M342.274,-68.3432C302.086,-57.9919 230.159,-39.4653 184.057,-27.5904"/>
<polygon fill="midnightblue" stroke="midnightblue" points="184.905,-24.1948 174.348,-25.0898 183.159,-30.9735 184.905,-24.1948"/>
</g>
<!-- Node10 -->
<g id="node10" class="node"><title>Node10</title>
<polygon fill="white" stroke="#bfbfbf" points="238,-0.5 238,-30.5 366,-30.5 366,-0.5 238,-0.5"/>
<text text-anchor="start" x="246" y="-18.5" font-family="Helvetica,sans-Serif" font-size="10.00">boost/multi_index/hashed</text>
<text text-anchor="middle" x="302" y="-7.5" font-family="Helvetica,sans-Serif" font-size="10.00">_index.hpp</text>
</g>
<!-- Node7&#45;&gt;Node10 -->
<g id="edge11" class="edge"><title>Node7&#45;&gt;Node10</title>
<path fill="none" stroke="midnightblue" d="M361.971,-67.4751C352.667,-59.5673 338.453,-47.4847 326.197,-37.0675"/>
<polygon fill="midnightblue" stroke="midnightblue" points="328.384,-34.3327 318.498,-30.523 323.85,-39.6663 328.384,-34.3327"/>
</g>
<!-- Node11 -->
<g id="node11" class="node"><title>Node11</title>
<polygon fill="white" stroke="#bfbfbf" points="384,-0.5 384,-30.5 502,-30.5 502,-0.5 384,-0.5"/>
<text text-anchor="start" x="392" y="-18.5" font-family="Helvetica,sans-Serif" font-size="10.00">boost/multi_index/mem</text>
<text text-anchor="middle" x="443" y="-7.5" font-family="Helvetica,sans-Serif" font-size="10.00">_fun.hpp</text>
</g>
<!-- Node7&#45;&gt;Node11 -->
<g id="edge12" class="edge"><title>Node7&#45;&gt;Node11</title>
<path fill="none" stroke="midnightblue" d="M382.173,-67.4751C391.609,-59.5673 406.027,-47.4847 418.457,-37.0675"/>
<polygon fill="midnightblue" stroke="midnightblue" points="420.85,-39.6286 426.267,-30.523 416.354,-34.2635 420.85,-39.6286"/>
</g>
<!-- Node13 -->
<g id="node13" class="node"><title>Node13</title>
<polygon fill="white" stroke="#bfbfbf" points="676,-67.5 676,-86.5 732,-86.5 732,-67.5 676,-67.5"/>
<text text-anchor="middle" x="704" y="-74.5" font-family="Helvetica,sans-Serif" font-size="10.00">algorithm</text>
</g>
<!-- Node12&#45;&gt;Node13 -->
<g id="edge14" class="edge"><title>Node12&#45;&gt;Node13</title>
<path fill="none" stroke="midnightblue" d="M610.834,-123.324C628.716,-114.625 656.475,-101.12 677.046,-91.113"/>
<polygon fill="midnightblue" stroke="midnightblue" points="678.749,-94.1765 686.21,-86.6545 675.687,-87.8819 678.749,-94.1765"/>
</g>
<!-- Node14 -->
<g id="node14" class="node"><title>Node14</title>
<polygon fill="white" stroke="#bfbfbf" points="528.5,-67.5 528.5,-86.5 657.5,-86.5 657.5,-67.5 528.5,-67.5"/>
<text text-anchor="middle" x="593" y="-74.5" font-family="Helvetica,sans-Serif" font-size="10.00">boost/range/algorithm.hpp</text>
</g>
<!-- Node12&#45;&gt;Node14 -->
<g id="edge15" class="edge"><title>Node12&#45;&gt;Node14</title>
<path fill="none" stroke="midnightblue" d="M593,-123.083C593,-116.006 593,-105.861 593,-96.9865"/>
<polygon fill="midnightblue" stroke="midnightblue" points="596.5,-96.751 593,-86.7511 589.5,-96.7511 596.5,-96.751"/>
</g>
</g>
</svg>
