<?xml version="1.0" encoding="UTF-8" standalone="no"?>
<!DOCTYPE svg PUBLIC "-//W3C//DTD SVG 1.1//EN"
 "http://www.w3.org/Graphics/SVG/1.1/DTD/svg11.dtd">
<!-- Generated by graphviz version 2.38.0 (20140413.2041)
 -->
<!-- Title: expression.h Pages: 1 -->
<svg width="1769pt" height="420pt"
 viewBox="0.00 0.00 1769.18 420.00" xmlns="http://www.w3.org/2000/svg" xmlns:xlink="http://www.w3.org/1999/xlink">
<g id="graph0" class="graph" transform="scale(1 1) rotate(0) translate(4 416)">
<title>expression.h</title>
<polygon fill="white" stroke="none" points="-4,4 -4,-416 1765.18,-416 1765.18,4 -4,4"/>
<!-- Node1 -->
<g id="node1" class="node"><title>Node1</title>
<polygon fill="#bfbfbf" stroke="black" points="1239.68,-392.5 1239.68,-411.5 1311.68,-411.5 1311.68,-392.5 1239.68,-392.5"/>
<text text-anchor="middle" x="1275.68" y="-399.5" font-family="Helvetica,sans-Serif" font-size="10.00">expression.h</text>
</g>
<!-- Node2 -->
<g id="node2" class="node"><title>Node2</title>
<g id="a_node2"><a xlink:href="event_8h.xhtml" target="_top" xlink:title="Contains event classes for fault trees. ">
<polygon fill="white" stroke="black" points="658.181,-336.5 658.181,-355.5 707.181,-355.5 707.181,-336.5 658.181,-336.5"/>
<text text-anchor="middle" x="682.681" y="-343.5" font-family="Helvetica,sans-Serif" font-size="10.00">event.h</text>
</a>
</g>
</g>
<!-- Node1&#45;&gt;Node2 -->
<g id="edge1" class="edge"><title>Node1&#45;&gt;Node2</title>
<path fill="none" stroke="midnightblue" d="M1229.25,-396.772C1110.25,-385.936 797.442,-357.45 707.31,-349.243"/>
<polygon fill="midnightblue" stroke="midnightblue" points="1229.2,-400.282 1239.48,-397.703 1229.84,-393.311 1229.2,-400.282"/>
</g>
<!-- Node3 -->
<g id="node3" class="node"><title>Node3</title>
<g id="a_node3"><a xlink:href="ccf__group_8h.xhtml" target="_top" xlink:title="Functional containers for basic events grouped by common cause failure. ">
<polygon fill="white" stroke="black" points="404.681,-280.5 404.681,-299.5 472.681,-299.5 472.681,-280.5 404.681,-280.5"/>
<text text-anchor="middle" x="438.681" y="-287.5" font-family="Helvetica,sans-Serif" font-size="10.00">ccf_group.h</text>
</a>
</g>
</g>
<!-- Node1&#45;&gt;Node3 -->
<g id="edge37" class="edge"><title>Node1&#45;&gt;Node3</title>
<path fill="none" stroke="midnightblue" d="M1229.41,-401.274C1124.92,-401.111 863.065,-396.322 648.681,-356 578.168,-342.738 497.966,-313.899 460.335,-299.515"/>
<polygon fill="midnightblue" stroke="midnightblue" points="1229.61,-404.773 1239.61,-401.275 1229.61,-397.773 1229.61,-404.773"/>
</g>
<!-- Node7 -->
<g id="node7" class="node"><title>Node7</title>
<g id="a_node7"><a xlink:href="initializer_8h.xhtml" target="_top" xlink:title="A facility that processes input files into analysis constructs. ">
<polygon fill="white" stroke="black" points="775.181,-112.5 775.181,-131.5 838.181,-131.5 838.181,-112.5 775.181,-112.5"/>
<text text-anchor="middle" x="806.681" y="-119.5" font-family="Helvetica,sans-Serif" font-size="10.00">initializer.h</text>
</a>
</g>
</g>
<!-- Node1&#45;&gt;Node7 -->
<g id="edge65" class="edge"><title>Node1&#45;&gt;Node7</title>
<path fill="none" stroke="midnightblue" d="M1275.11,-382.358C1273.31,-356.218 1266.32,-308.669 1239.68,-280 1214.51,-252.916 1191.04,-269.933 1164.68,-244 1137.76,-217.513 1157.34,-190.048 1126.68,-168 1080.91,-135.083 909.741,-126.115 838.307,-123.781"/>
<polygon fill="midnightblue" stroke="midnightblue" points="1271.61,-382.611 1275.61,-392.425 1278.61,-382.264 1271.61,-382.611"/>
</g>
<!-- Node23 -->
<g id="node23" class="node"><title>Node23</title>
<g id="a_node23"><a xlink:href="uncertainty__analysis_8cc.xhtml" target="_top" xlink:title="Implements the functionality to run Monte Carlo simulations. ">
<polygon fill="white" stroke="black" points="1090.18,-280.5 1090.18,-299.5 1209.18,-299.5 1209.18,-280.5 1090.18,-280.5"/>
<text text-anchor="middle" x="1149.68" y="-287.5" font-family="Helvetica,sans-Serif" font-size="10.00">uncertainty_analysis.cc</text>
</a>
</g>
</g>
<!-- Node1&#45;&gt;Node23 -->
<g id="edge66" class="edge"><title>Node1&#45;&gt;Node23</title>
<path fill="none" stroke="midnightblue" d="M1257.98,-385.737C1247.91,-377.04 1235.07,-365.93 1223.68,-356 1200.74,-335.998 1173.92,-312.386 1159.71,-299.855"/>
<polygon fill="midnightblue" stroke="midnightblue" points="1255.84,-388.511 1265.69,-392.395 1260.41,-383.212 1255.84,-388.511"/>
</g>
<!-- Node24 -->
<g id="node24" class="node"><title>Node24</title>
<g id="a_node24"><a xlink:href="arithmetic_8h.xhtml" target="_top" xlink:title="A collection of arithmetic expressions. ">
<polygon fill="white" stroke="black" points="1387.68,-280.5 1387.68,-299.5 1455.68,-299.5 1455.68,-280.5 1387.68,-280.5"/>
<text text-anchor="middle" x="1421.68" y="-287.5" font-family="Helvetica,sans-Serif" font-size="10.00">arithmetic.h</text>
</a>
</g>
</g>
<!-- Node1&#45;&gt;Node24 -->
<g id="edge38" class="edge"><title>Node1&#45;&gt;Node24</title>
<path fill="none" stroke="midnightblue" d="M1295.43,-386.118C1326.42,-362.769 1385.49,-318.27 1410.28,-299.591"/>
<polygon fill="midnightblue" stroke="midnightblue" points="1293.02,-383.556 1287.14,-392.368 1297.23,-389.146 1293.02,-383.556"/>
</g>
<!-- Node26 -->
<g id="node26" class="node"><title>Node26</title>
<g id="a_node26"><a xlink:href="constant_8h.xhtml" target="_top" xlink:title="Constant expressions that cannot have uncertainties. ">
<polygon fill="white" stroke="black" points="1303.68,-280.5 1303.68,-299.5 1365.68,-299.5 1365.68,-280.5 1303.68,-280.5"/>
<text text-anchor="middle" x="1334.68" y="-287.5" font-family="Helvetica,sans-Serif" font-size="10.00">constant.h</text>
</a>
</g>
</g>
<!-- Node1&#45;&gt;Node26 -->
<g id="edge42" class="edge"><title>Node1&#45;&gt;Node26</title>
<path fill="none" stroke="midnightblue" d="M1285.16,-383.32C1298.01,-359.37 1320.44,-317.548 1330.07,-299.591"/>
<polygon fill="midnightblue" stroke="midnightblue" points="1281.95,-381.902 1280.31,-392.368 1288.12,-385.21 1281.95,-381.902"/>
</g>
<!-- Node28 -->
<g id="node28" class="node"><title>Node28</title>
<g id="a_node28"><a xlink:href="parameter_8h.xhtml" target="_top" xlink:title="Parameter expressions that act like a shareable variable. ">
<polygon fill="white" stroke="black" points="167.681,-280.5 167.681,-299.5 235.681,-299.5 235.681,-280.5 167.681,-280.5"/>
<text text-anchor="middle" x="201.681" y="-287.5" font-family="Helvetica,sans-Serif" font-size="10.00">parameter.h</text>
</a>
</g>
</g>
<!-- Node1&#45;&gt;Node28 -->
<g id="edge46" class="edge"><title>Node1&#45;&gt;Node28</title>
<path fill="none" stroke="midnightblue" d="M1229.46,-399.845C1116.35,-396.63 816.768,-385.77 568.681,-356 445.329,-341.198 300.567,-312.036 235.896,-298.381"/>
<polygon fill="midnightblue" stroke="midnightblue" points="1229.41,-403.345 1239.5,-400.124 1229.6,-396.347 1229.41,-403.345"/>
</g>
<!-- Node30 -->
<g id="node30" class="node"><title>Node30</title>
<g id="a_node30"><a xlink:href="event__tree_8h.xhtml" target="_top" xlink:title="Event Tree facilities. ">
<polygon fill="white" stroke="black" points="1005.18,-224.5 1005.18,-243.5 1076.18,-243.5 1076.18,-224.5 1005.18,-224.5"/>
<text text-anchor="middle" x="1040.68" y="-231.5" font-family="Helvetica,sans-Serif" font-size="10.00">event_tree.h</text>
</a>
</g>
</g>
<!-- Node1&#45;&gt;Node30 -->
<g id="edge54" class="edge"><title>Node1&#45;&gt;Node30</title>
<path fill="none" stroke="midnightblue" d="M1269.14,-382.789C1257.92,-352.536 1234.61,-293.867 1217.68,-280 1196.22,-262.418 1121.39,-247.845 1076.18,-240.384"/>
<polygon fill="midnightblue" stroke="midnightblue" points="1265.85,-383.993 1272.57,-392.185 1272.43,-381.591 1265.85,-383.993"/>
</g>
<!-- Node32 -->
<g id="node32" class="node"><title>Node32</title>
<g id="a_node32"><a xlink:href="exponential_8h.xhtml" target="_top" xlink:title="Expressions and distributions that are described with exponential formulas. ">
<polygon fill="white" stroke="black" points="1460.68,-336.5 1460.68,-355.5 1534.68,-355.5 1534.68,-336.5 1460.68,-336.5"/>
<text text-anchor="middle" x="1497.68" y="-343.5" font-family="Helvetica,sans-Serif" font-size="10.00">exponential.h</text>
</a>
</g>
</g>
<!-- Node1&#45;&gt;Node32 -->
<g id="edge58" class="edge"><title>Node1&#45;&gt;Node32</title>
<path fill="none" stroke="midnightblue" d="M1320.81,-390.024C1362.74,-379.823 1424.33,-364.841 1462.67,-355.516"/>
<polygon fill="midnightblue" stroke="midnightblue" points="1319.75,-386.679 1310.86,-392.444 1321.4,-393.481 1319.75,-386.679"/>
</g>
<!-- Node34 -->
<g id="node34" class="node"><title>Node34</title>
<g id="a_node34"><a xlink:href="random__deviate_8h.xhtml" target="_top" xlink:title="A collection of deviate expressions with random distributions sampled at run&#45;time. ">
<polygon fill="white" stroke="black" points="1569.68,-336.5 1569.68,-355.5 1663.68,-355.5 1663.68,-336.5 1569.68,-336.5"/>
<text text-anchor="middle" x="1616.68" y="-343.5" font-family="Helvetica,sans-Serif" font-size="10.00">random_deviate.h</text>
</a>
</g>
</g>
<!-- Node1&#45;&gt;Node34 -->
<g id="edge61" class="edge"><title>Node1&#45;&gt;Node34</title>
<path fill="none" stroke="midnightblue" d="M1321.79,-393.699C1386.62,-383.432 1504.09,-364.83 1569.5,-354.472"/>
<polygon fill="midnightblue" stroke="midnightblue" points="1321.18,-390.251 1311.85,-395.272 1322.28,-397.165 1321.18,-390.251"/>
</g>
<!-- Node36 -->
<g id="node36" class="node"><title>Node36</title>
<g id="a_node36"><a xlink:href="expression_8cc.xhtml" target="_top" xlink:title="Implementation of the expression base class. ">
<polygon fill="white" stroke="black" points="1682.18,-336.5 1682.18,-355.5 1759.18,-355.5 1759.18,-336.5 1682.18,-336.5"/>
<text text-anchor="middle" x="1720.68" y="-343.5" font-family="Helvetica,sans-Serif" font-size="10.00">expression.cc</text>
</a>
</g>
</g>
<!-- Node1&#45;&gt;Node36 -->
<g id="edge64" class="edge"><title>Node1&#45;&gt;Node36</title>
<path fill="none" stroke="midnightblue" d="M1322.33,-396.818C1396.67,-389.905 1546.5,-374.956 1672.68,-356 1675.7,-355.547 1678.82,-355.043 1681.95,-354.512"/>
<polygon fill="midnightblue" stroke="midnightblue" points="1321.56,-393.374 1311.92,-397.779 1322.2,-400.344 1321.56,-393.374"/>
</g>
<!-- Node2&#45;&gt;Node3 -->
<g id="edge2" class="edge"><title>Node2&#45;&gt;Node3</title>
<path fill="none" stroke="midnightblue" d="M648.016,-337.328C601.43,-327.018 519.134,-308.805 472.819,-298.555"/>
<polygon fill="midnightblue" stroke="midnightblue" points="647.422,-340.781 657.942,-339.525 648.935,-333.947 647.422,-340.781"/>
</g>
<!-- Node5 -->
<g id="node5" class="node"><title>Node5</title>
<g id="a_node5"><a xlink:href="fault__tree_8h.xhtml" target="_top" xlink:title="Fault Tree and Component containers. ">
<polygon fill="white" stroke="black" points="369.181,-224.5 369.181,-243.5 434.181,-243.5 434.181,-224.5 369.181,-224.5"/>
<text text-anchor="middle" x="401.681" y="-231.5" font-family="Helvetica,sans-Serif" font-size="10.00">fault_tree.h</text>
</a>
</g>
</g>
<!-- Node2&#45;&gt;Node5 -->
<g id="edge27" class="edge"><title>Node2&#45;&gt;Node5</title>
<path fill="none" stroke="midnightblue" d="M647.581,-344.926C578.265,-343.954 427.735,-337.471 395.681,-300 382.126,-284.154 391.156,-257.508 397.308,-243.772"/>
<polygon fill="midnightblue" stroke="midnightblue" points="647.94,-348.43 657.978,-345.038 648.016,-341.43 647.94,-348.43"/>
</g>
<!-- Node2&#45;&gt;Node7 -->
<g id="edge30" class="edge"><title>Node2&#45;&gt;Node7</title>
<path fill="none" stroke="midnightblue" d="M717.481,-342.926C799.758,-337.669 1000.88,-322.613 1020.68,-300 1026.54,-293.313 1023.91,-288.282 1020.68,-280 1014.54,-264.248 931.575,-177.633 917.681,-168 893.073,-150.94 861.028,-138.834 837.698,-131.507"/>
<polygon fill="midnightblue" stroke="midnightblue" points="717.133,-339.441 707.372,-343.561 717.571,-346.427 717.133,-339.441"/>
</g>
<!-- Node10 -->
<g id="node10" class="node"><title>Node10</title>
<g id="a_node10"><a xlink:href="model_8h.xhtml" target="_top" xlink:title="Representation for a model container for risk analysis. ">
<polygon fill="white" stroke="black" points="459.181,-168.5 459.181,-187.5 510.181,-187.5 510.181,-168.5 459.181,-168.5"/>
<text text-anchor="middle" x="484.681" y="-175.5" font-family="Helvetica,sans-Serif" font-size="10.00">model.h</text>
</a>
</g>
</g>
<!-- Node2&#45;&gt;Node10 -->
<g id="edge31" class="edge"><title>Node2&#45;&gt;Node10</title>
<path fill="none" stroke="midnightblue" d="M648.149,-339.057C607.22,-331.366 542.329,-316.925 524.681,-300 491.946,-268.606 485.988,-209.9 484.914,-187.755"/>
<polygon fill="midnightblue" stroke="midnightblue" points="647.528,-342.501 657.996,-340.864 648.792,-335.617 647.528,-342.501"/>
</g>
<!-- Node12 -->
<g id="node12" class="node"><title>Node12</title>
<g id="a_node12"><a xlink:href="reporter_8h.xhtml" target="_top" xlink:title="Reporter of results. ">
<polygon fill="white" stroke="black" points="483.681,-56.5 483.681,-75.5 541.681,-75.5 541.681,-56.5 483.681,-56.5"/>
<text text-anchor="middle" x="512.681" y="-63.5" font-family="Helvetica,sans-Serif" font-size="10.00">reporter.h</text>
</a>
</g>
</g>
<!-- Node2&#45;&gt;Node12 -->
<g id="edge34" class="edge"><title>Node2&#45;&gt;Node12</title>
<path fill="none" stroke="midnightblue" d="M648.451,-336.576C629.434,-329.974 607.324,-318.68 595.681,-300 551.474,-229.074 634.445,-183.805 591.681,-112 580.859,-93.8277 559.721,-82.3501 542.032,-75.5377"/>
<polygon fill="midnightblue" stroke="midnightblue" points="647.451,-339.931 658.041,-339.615 649.566,-333.258 647.451,-339.931"/>
</g>
<!-- Node14 -->
<g id="node14" class="node"><title>Node14</title>
<g id="a_node14"><a xlink:href="risk__analysis_8h.xhtml" target="_top" xlink:title="Contains the main system for performing analysis. ">
<polygon fill="white" stroke="black" points="500.681,-112.5 500.681,-131.5 582.681,-131.5 582.681,-112.5 500.681,-112.5"/>
<text text-anchor="middle" x="541.681" y="-119.5" font-family="Helvetica,sans-Serif" font-size="10.00">risk_analysis.h</text>
</a>
</g>
</g>
<!-- Node2&#45;&gt;Node14 -->
<g id="edge35" class="edge"><title>Node2&#45;&gt;Node14</title>
<path fill="none" stroke="midnightblue" d="M648.373,-336.405C616.894,-327.795 573.553,-313.863 562.681,-300 521.815,-247.891 534.597,-159.216 539.892,-131.522"/>
<polygon fill="midnightblue" stroke="midnightblue" points="647.556,-339.81 658.121,-339.007 649.361,-333.046 647.556,-339.81"/>
</g>
<!-- Node16 -->
<g id="node16" class="node"><title>Node16</title>
<g id="a_node16"><a xlink:href="cycle_8h.xhtml" target="_top" xlink:title="Validation facilities to detect and print cycles in graphs. ">
<polygon fill="white" stroke="black" points="879.681,-224.5 879.681,-243.5 927.681,-243.5 927.681,-224.5 879.681,-224.5"/>
<text text-anchor="middle" x="903.681" y="-231.5" font-family="Helvetica,sans-Serif" font-size="10.00">cycle.h</text>
</a>
</g>
</g>
<!-- Node2&#45;&gt;Node16 -->
<g id="edge23" class="edge"><title>Node2&#45;&gt;Node16</title>
<path fill="none" stroke="midnightblue" d="M717.641,-345.583C792.996,-346.015 966.902,-342.295 1003.68,-300 1028.95,-270.938 964.713,-249.793 927.691,-240.403"/>
<polygon fill="midnightblue" stroke="midnightblue" points="717.296,-342.08 707.266,-345.494 717.235,-349.08 717.296,-342.08"/>
</g>
<!-- Node18 -->
<g id="node18" class="node"><title>Node18</title>
<g id="a_node18"><a xlink:href="event_8cc.xhtml" target="_top" xlink:title="Implementation of Event Class and its derived classes. ">
<polygon fill="white" stroke="black" points="604.681,-280.5 604.681,-299.5 658.681,-299.5 658.681,-280.5 604.681,-280.5"/>
<text text-anchor="middle" x="631.681" y="-287.5" font-family="Helvetica,sans-Serif" font-size="10.00">event.cc</text>
</a>
</g>
</g>
<!-- Node2&#45;&gt;Node18 -->
<g id="edge26" class="edge"><title>Node2&#45;&gt;Node18</title>
<path fill="none" stroke="midnightblue" d="M667.303,-328.718C658.314,-319.2 647.322,-307.561 639.946,-299.751"/>
<polygon fill="midnightblue" stroke="midnightblue" points="664.849,-331.216 674.26,-336.083 669.938,-326.41 664.849,-331.216"/>
</g>
<!-- Node19 -->
<g id="node19" class="node"><title>Node19</title>
<g id="a_node19"><a xlink:href="fault__tree__analysis_8cc.xhtml" target="_top" xlink:title="Implementation of fault tree analysis. ">
<polygon fill="white" stroke="black" points="676.681,-280.5 676.681,-299.5 788.681,-299.5 788.681,-280.5 676.681,-280.5"/>
<text text-anchor="middle" x="732.681" y="-287.5" font-family="Helvetica,sans-Serif" font-size="10.00">fault_tree_analysis.cc</text>
</a>
</g>
</g>
<!-- Node2&#45;&gt;Node19 -->
<g id="edge28" class="edge"><title>Node2&#45;&gt;Node19</title>
<path fill="none" stroke="midnightblue" d="M697.757,-328.718C706.57,-319.2 717.347,-307.561 724.578,-299.751"/>
<polygon fill="midnightblue" stroke="midnightblue" points="695.164,-326.367 690.938,-336.083 700.3,-331.123 695.164,-326.367"/>
</g>
<!-- Node20 -->
<g id="node20" class="node"><title>Node20</title>
<g id="a_node20"><a xlink:href="importance__analysis_8cc.xhtml" target="_top" xlink:title="Implementations of functions to provide quantitative importance informations. ">
<polygon fill="white" stroke="black" points="807.181,-280.5 807.181,-299.5 926.181,-299.5 926.181,-280.5 807.181,-280.5"/>
<text text-anchor="middle" x="866.681" y="-287.5" font-family="Helvetica,sans-Serif" font-size="10.00">importance_analysis.cc</text>
</a>
</g>
</g>
<!-- Node2&#45;&gt;Node20 -->
<g id="edge29" class="edge"><title>Node2&#45;&gt;Node20</title>
<path fill="none" stroke="midnightblue" d="M717.197,-334.87C751.872,-324.694 804.726,-309.182 837.411,-299.59"/>
<polygon fill="midnightblue" stroke="midnightblue" points="716.106,-331.543 707.496,-337.717 718.077,-338.26 716.106,-331.543"/>
</g>
<!-- Node21 -->
<g id="node21" class="node"><title>Node21</title>
<g id="a_node21"><a xlink:href="pdag_8cc.xhtml" target="_top" xlink:title="Implementation of a Propositional Directed Acyclic Graph with indexed nodes, variables, and gates. ">
<polygon fill="white" stroke="black" points="944.181,-280.5 944.181,-299.5 995.181,-299.5 995.181,-280.5 944.181,-280.5"/>
<text text-anchor="middle" x="969.681" y="-287.5" font-family="Helvetica,sans-Serif" font-size="10.00">pdag.cc</text>
</a>
</g>
</g>
<!-- Node2&#45;&gt;Node21 -->
<g id="edge32" class="edge"><title>Node2&#45;&gt;Node21</title>
<path fill="none" stroke="midnightblue" d="M717.51,-339.628C766.283,-331.913 857.609,-316.766 934.681,-300 937.746,-299.333 940.95,-298.584 944.12,-297.809"/>
<polygon fill="midnightblue" stroke="midnightblue" points="716.818,-336.194 707.483,-341.204 717.905,-343.109 716.818,-336.194"/>
</g>
<!-- Node22 -->
<g id="node22" class="node"><title>Node22</title>
<g id="a_node22"><a xlink:href="probability__analysis_8cc.xhtml" target="_top" xlink:title="Implementations of functions to provide probability analysis. ">
<polygon fill="white" stroke="black" points="196.681,-224.5 196.681,-243.5 312.681,-243.5 312.681,-224.5 196.681,-224.5"/>
<text text-anchor="middle" x="254.681" y="-231.5" font-family="Helvetica,sans-Serif" font-size="10.00">probability_analysis.cc</text>
</a>
</g>
</g>
<!-- Node2&#45;&gt;Node22 -->
<g id="edge33" class="edge"><title>Node2&#45;&gt;Node22</title>
<path fill="none" stroke="midnightblue" d="M647.687,-343.208C591.332,-339.55 477.496,-328.954 385.681,-300 340.402,-285.721 291.373,-257.62 268.233,-243.509"/>
<polygon fill="midnightblue" stroke="midnightblue" points="647.65,-346.712 657.846,-343.832 648.079,-339.725 647.65,-346.712"/>
</g>
<!-- Node2&#45;&gt;Node23 -->
<g id="edge36" class="edge"><title>Node2&#45;&gt;Node23</title>
<path fill="none" stroke="midnightblue" d="M717.769,-341.066C786.485,-333.343 943.616,-315.592 1075.68,-300 1080.31,-299.454 1085.1,-298.883 1089.91,-298.306"/>
<polygon fill="midnightblue" stroke="midnightblue" points="717.064,-337.623 707.518,-342.217 717.846,-344.579 717.064,-337.623"/>
</g>
<!-- Node4 -->
<g id="node4" class="node"><title>Node4</title>
<g id="a_node4"><a xlink:href="ccf__group_8cc.xhtml" target="_top" xlink:title="Implementation of various common cause failure models. ">
<polygon fill="white" stroke="black" points="1298.18,-224.5 1298.18,-243.5 1371.18,-243.5 1371.18,-224.5 1298.18,-224.5"/>
<text text-anchor="middle" x="1334.68" y="-231.5" font-family="Helvetica,sans-Serif" font-size="10.00">ccf_group.cc</text>
</a>
</g>
</g>
<!-- Node3&#45;&gt;Node4 -->
<g id="edge3" class="edge"><title>Node3&#45;&gt;Node4</title>
<path fill="none" stroke="midnightblue" d="M483.169,-286.422C514.602,-284.607 557.721,-282.131 595.681,-280 886.773,-263.657 960.082,-267.538 1250.68,-244 1266.18,-242.745 1283.24,-240.986 1297.92,-239.356"/>
<polygon fill="midnightblue" stroke="midnightblue" points="482.763,-282.939 472.982,-287.01 483.167,-289.928 482.763,-282.939"/>
</g>
<!-- Node3&#45;&gt;Node5 -->
<g id="edge4" class="edge"><title>Node3&#45;&gt;Node5</title>
<path fill="none" stroke="midnightblue" d="M426.735,-271.566C420.369,-262.275 412.814,-251.248 407.677,-243.751"/>
<polygon fill="midnightblue" stroke="midnightblue" points="424.032,-273.812 432.571,-280.083 429.806,-269.855 424.032,-273.812"/>
</g>
<!-- Node3&#45;&gt;Node7 -->
<g id="edge20" class="edge"><title>Node3&#45;&gt;Node7</title>
<path fill="none" stroke="midnightblue" d="M467.042,-276.207C538.948,-243.771 726.969,-158.957 787.564,-131.624"/>
<polygon fill="midnightblue" stroke="midnightblue" points="465.368,-273.122 457.691,-280.425 468.246,-279.503 465.368,-273.122"/>
</g>
<!-- Node3&#45;&gt;Node10 -->
<g id="edge21" class="edge"><title>Node3&#45;&gt;Node10</title>
<path fill="none" stroke="midnightblue" d="M446.209,-270.998C456.246,-246.997 473.613,-205.468 481.088,-187.591"/>
<polygon fill="midnightblue" stroke="midnightblue" points="442.92,-269.792 442.291,-280.368 449.378,-272.493 442.92,-269.792"/>
</g>
<!-- Node13 -->
<g id="node13" class="node"><title>Node13</title>
<g id="a_node13"><a xlink:href="reporter_8cc.xhtml" target="_top" xlink:title="Implements Reporter class. ">
<polygon fill="white" stroke="black" points="234.181,-0.5 234.181,-19.5 297.181,-19.5 297.181,-0.5 234.181,-0.5"/>
<text text-anchor="middle" x="265.681" y="-7.5" font-family="Helvetica,sans-Serif" font-size="10.00">reporter.cc</text>
</a>
</g>
</g>
<!-- Node3&#45;&gt;Node13 -->
<g id="edge22" class="edge"><title>Node3&#45;&gt;Node13</title>
<path fill="none" stroke="midnightblue" d="M405.413,-276.174C389.807,-268.757 371.982,-258.074 359.681,-244 296.819,-172.072 272.718,-52.6927 267.065,-19.6871"/>
<polygon fill="midnightblue" stroke="midnightblue" points="404.218,-279.474 414.775,-280.371 407.082,-273.086 404.218,-279.474"/>
</g>
<!-- Node6 -->
<g id="node6" class="node"><title>Node6</title>
<g id="a_node6"><a xlink:href="fault__tree_8cc.xhtml" target="_top" xlink:title="Implementation of fault tree and component containers. ">
<polygon fill="white" stroke="black" points="370.181,-168.5 370.181,-187.5 441.181,-187.5 441.181,-168.5 370.181,-168.5"/>
<text text-anchor="middle" x="405.681" y="-175.5" font-family="Helvetica,sans-Serif" font-size="10.00">fault_tree.cc</text>
</a>
</g>
</g>
<!-- Node5&#45;&gt;Node6 -->
<g id="edge5" class="edge"><title>Node5&#45;&gt;Node6</title>
<path fill="none" stroke="midnightblue" d="M403.081,-214.101C403.745,-205.136 404.506,-194.858 405.033,-187.751"/>
<polygon fill="midnightblue" stroke="midnightblue" points="399.59,-213.852 402.342,-224.083 406.571,-214.369 399.59,-213.852"/>
</g>
<!-- Node5&#45;&gt;Node7 -->
<g id="edge6" class="edge"><title>Node5&#45;&gt;Node7</title>
<path fill="none" stroke="midnightblue" d="M442.569,-221.706C489.789,-208.682 569.817,-186.666 638.681,-168 686.185,-155.124 741.304,-140.401 775.083,-131.404"/>
<polygon fill="midnightblue" stroke="midnightblue" points="441.431,-218.39 432.722,-224.423 443.292,-225.138 441.431,-218.39"/>
</g>
<!-- Node5&#45;&gt;Node10 -->
<g id="edge9" class="edge"><title>Node5&#45;&gt;Node10</title>
<path fill="none" stroke="midnightblue" d="M423.78,-218.622C438.943,-208.757 458.564,-195.992 471.379,-187.655"/>
<polygon fill="midnightblue" stroke="midnightblue" points="421.49,-215.937 415.017,-224.324 425.307,-221.804 421.49,-215.937"/>
</g>
<!-- Node15 -->
<g id="node15" class="node"><title>Node15</title>
<g id="a_node15"><a xlink:href="risk__analysis_8cc.xhtml" target="_top" xlink:title="Implementation of risk analysis handler. ">
<polygon fill="white" stroke="black" points="336.181,-56.5 336.181,-75.5 423.181,-75.5 423.181,-56.5 336.181,-56.5"/>
<text text-anchor="middle" x="379.681" y="-63.5" font-family="Helvetica,sans-Serif" font-size="10.00">risk_analysis.cc</text>
</a>
</g>
</g>
<!-- Node5&#45;&gt;Node15 -->
<g id="edge19" class="edge"><title>Node5&#45;&gt;Node15</title>
<path fill="none" stroke="midnightblue" d="M382.43,-217.745C374.049,-209.869 365.135,-199.502 360.681,-188 345.17,-147.944 365.967,-95.7646 375.431,-75.5335"/>
<polygon fill="midnightblue" stroke="midnightblue" points="380.309,-220.54 390.141,-224.49 384.918,-215.271 380.309,-220.54"/>
</g>
<!-- Node8 -->
<g id="node8" class="node"><title>Node8</title>
<g id="a_node8"><a xlink:href="initializer_8cc.xhtml" target="_top" xlink:title="Implementation of input file processing into analysis constructs. ">
<polygon fill="white" stroke="black" points="1456.68,-56.5 1456.68,-75.5 1524.68,-75.5 1524.68,-56.5 1456.68,-56.5"/>
<text text-anchor="middle" x="1490.68" y="-63.5" font-family="Helvetica,sans-Serif" font-size="10.00">initializer.cc</text>
</a>
</g>
</g>
<!-- Node7&#45;&gt;Node8 -->
<g id="edge7" class="edge"><title>Node7&#45;&gt;Node8</title>
<path fill="none" stroke="midnightblue" d="M848.6,-117.691C973.648,-107.818 1342.43,-78.7039 1456.6,-69.6907"/>
<polygon fill="midnightblue" stroke="midnightblue" points="847.994,-114.228 838.3,-118.504 848.545,-121.206 847.994,-114.228"/>
</g>
<!-- Node9 -->
<g id="node9" class="node"><title>Node9</title>
<g id="a_node9"><a xlink:href="scram_8cc.xhtml" target="_top" xlink:title="Main entrance. ">
<polygon fill="white" stroke="black" points="541.181,-0.5 541.181,-19.5 598.181,-19.5 598.181,-0.5 541.181,-0.5"/>
<text text-anchor="middle" x="569.681" y="-7.5" font-family="Helvetica,sans-Serif" font-size="10.00">scram.cc</text>
</a>
</g>
</g>
<!-- Node7&#45;&gt;Node9 -->
<g id="edge8" class="edge"><title>Node7&#45;&gt;Node9</title>
<path fill="none" stroke="midnightblue" d="M778.718,-108.021C729.703,-85.2717 629.558,-38.791 588.192,-19.5914"/>
<polygon fill="midnightblue" stroke="midnightblue" points="777.54,-111.333 788.084,-112.368 780.487,-104.984 777.54,-111.333"/>
</g>
<!-- Node10&#45;&gt;Node7 -->
<g id="edge10" class="edge"><title>Node10&#45;&gt;Node7</title>
<path fill="none" stroke="midnightblue" d="M520.123,-171.056C583.369,-160.45 714.693,-138.427 775.068,-128.302"/>
<polygon fill="midnightblue" stroke="midnightblue" points="519.5,-167.612 510.217,-172.718 520.658,-174.515 519.5,-167.612"/>
</g>
<!-- Node11 -->
<g id="node11" class="node"><title>Node11</title>
<g id="a_node11"><a xlink:href="model_8cc.xhtml" target="_top" xlink:title="Implementation of functions in Model class. ">
<polygon fill="white" stroke="black" points="388.681,-112.5 388.681,-131.5 444.681,-131.5 444.681,-112.5 388.681,-112.5"/>
<text text-anchor="middle" x="416.681" y="-119.5" font-family="Helvetica,sans-Serif" font-size="10.00">model.cc</text>
</a>
</g>
</g>
<!-- Node10&#45;&gt;Node11 -->
<g id="edge11" class="edge"><title>Node10&#45;&gt;Node11</title>
<path fill="none" stroke="midnightblue" d="M465.919,-162.101C453.681,-152.382 438.122,-140.027 427.805,-131.834"/>
<polygon fill="midnightblue" stroke="midnightblue" points="463.748,-164.846 473.756,-168.324 468.101,-159.364 463.748,-164.846"/>
</g>
<!-- Node10&#45;&gt;Node12 -->
<g id="edge12" class="edge"><title>Node10&#45;&gt;Node12</title>
<path fill="none" stroke="midnightblue" d="M485.072,-158.264C485.738,-145.11 487.437,-127.221 491.681,-112 495.386,-98.7128 502.663,-84.4565 507.6,-75.6328"/>
<polygon fill="midnightblue" stroke="midnightblue" points="481.569,-158.301 484.715,-168.418 488.565,-158.548 481.569,-158.301"/>
</g>
<!-- Node10&#45;&gt;Node14 -->
<g id="edge15" class="edge"><title>Node10&#45;&gt;Node14</title>
<path fill="none" stroke="midnightblue" d="M501.303,-161.253C511.415,-151.673 523.958,-139.791 532.356,-131.834"/>
<polygon fill="midnightblue" stroke="midnightblue" points="498.692,-158.906 493.839,-168.324 503.506,-163.987 498.692,-158.906"/>
</g>
<!-- Node12&#45;&gt;Node9 -->
<g id="edge14" class="edge"><title>Node12&#45;&gt;Node9</title>
<path fill="none" stroke="midnightblue" d="M529.303,-49.2533C539.415,-39.6731 551.958,-27.7906 560.356,-19.8339"/>
<polygon fill="midnightblue" stroke="midnightblue" points="526.692,-46.9056 521.839,-56.324 531.506,-51.9873 526.692,-46.9056"/>
</g>
<!-- Node12&#45;&gt;Node13 -->
<g id="edge13" class="edge"><title>Node12&#45;&gt;Node13</title>
<path fill="none" stroke="midnightblue" d="M473.498,-56.4336C424.691,-45.7632 342.261,-27.7421 297.281,-17.9086"/>
<polygon fill="midnightblue" stroke="midnightblue" points="472.86,-59.8768 483.377,-58.5934 474.355,-53.0383 472.86,-59.8768"/>
</g>
<!-- Node14&#45;&gt;Node9 -->
<g id="edge18" class="edge"><title>Node14&#45;&gt;Node9</title>
<path fill="none" stroke="midnightblue" d="M546.346,-102.674C552.468,-78.6248 562.964,-37.3881 567.494,-19.5914"/>
<polygon fill="midnightblue" stroke="midnightblue" points="542.953,-101.814 543.878,-112.368 549.737,-103.541 542.953,-101.814"/>
</g>
<!-- Node14&#45;&gt;Node12 -->
<g id="edge16" class="edge"><title>Node14&#45;&gt;Node12</title>
<path fill="none" stroke="midnightblue" d="M532.005,-102.983C527.083,-93.8168 521.323,-83.0922 517.381,-75.7511"/>
<polygon fill="midnightblue" stroke="midnightblue" points="529.078,-104.929 536.892,-112.083 535.245,-101.617 529.078,-104.929"/>
</g>
<!-- Node14&#45;&gt;Node15 -->
<g id="edge17" class="edge"><title>Node14&#45;&gt;Node15</title>
<path fill="none" stroke="midnightblue" d="M506.197,-109.172C475.693,-99.0039 432.437,-84.5852 405.23,-75.5164"/>
<polygon fill="midnightblue" stroke="midnightblue" points="505.418,-112.602 516.012,-112.444 507.632,-105.961 505.418,-112.602"/>
</g>
<!-- Node16&#45;&gt;Node8 -->
<g id="edge25" class="edge"><title>Node16&#45;&gt;Node8</title>
<path fill="none" stroke="midnightblue" d="M926.655,-219.204C951.867,-204.599 993.923,-181.793 1032.68,-168 1186.1,-113.401 1379.34,-82.4674 1456.55,-71.5466"/>
<polygon fill="midnightblue" stroke="midnightblue" points="924.713,-216.285 917.859,-224.363 928.255,-222.323 924.713,-216.285"/>
</g>
<!-- Node17 -->
<g id="node17" class="node"><title>Node17</title>
<g id="a_node17"><a xlink:href="cycle_8cc.xhtml" target="_top" xlink:title="Implementation of helper facilities to work with cycles. ">
<polygon fill="white" stroke="black" points="856.181,-168.5 856.181,-187.5 909.181,-187.5 909.181,-168.5 856.181,-168.5"/>
<text text-anchor="middle" x="882.681" y="-175.5" font-family="Helvetica,sans-Serif" font-size="10.00">cycle.cc</text>
</a>
</g>
</g>
<!-- Node16&#45;&gt;Node17 -->
<g id="edge24" class="edge"><title>Node16&#45;&gt;Node17</title>
<path fill="none" stroke="midnightblue" d="M896.56,-214.69C893.021,-205.589 888.909,-195.014 886.084,-187.751"/>
<polygon fill="midnightblue" stroke="midnightblue" points="893.327,-216.032 900.213,-224.083 899.851,-213.494 893.327,-216.032"/>
</g>
<!-- Node24&#45;&gt;Node4 -->
<g id="edge39" class="edge"><title>Node24&#45;&gt;Node4</title>
<path fill="none" stroke="midnightblue" d="M1398.97,-274.901C1383.01,-264.999 1362.18,-252.071 1348.62,-243.655"/>
<polygon fill="midnightblue" stroke="midnightblue" points="1397.36,-278.024 1407.7,-280.324 1401.05,-272.077 1397.36,-278.024"/>
</g>
<!-- Node24&#45;&gt;Node8 -->
<g id="edge41" class="edge"><title>Node24&#45;&gt;Node8</title>
<path fill="none" stroke="midnightblue" d="M1444.17,-274.065C1453.98,-266.306 1464.61,-255.946 1470.68,-244 1500.39,-185.555 1494.61,-102.525 1491.74,-75.7093"/>
<polygon fill="midnightblue" stroke="midnightblue" points="1441.85,-271.426 1435.89,-280.188 1446.01,-277.054 1441.85,-271.426"/>
</g>
<!-- Node25 -->
<g id="node25" class="node"><title>Node25</title>
<g id="a_node25"><a xlink:href="arithmetic_8cc.xhtml" target="_top" xlink:title="Implementation of various arithmetic expressions. ">
<polygon fill="white" stroke="black" points="1389.18,-224.5 1389.18,-243.5 1462.18,-243.5 1462.18,-224.5 1389.18,-224.5"/>
<text text-anchor="middle" x="1425.68" y="-231.5" font-family="Helvetica,sans-Serif" font-size="10.00">arithmetic.cc</text>
</a>
</g>
</g>
<!-- Node24&#45;&gt;Node25 -->
<g id="edge40" class="edge"><title>Node24&#45;&gt;Node25</title>
<path fill="none" stroke="midnightblue" d="M1423.08,-270.101C1423.75,-261.136 1424.51,-250.858 1425.03,-243.751"/>
<polygon fill="midnightblue" stroke="midnightblue" points="1419.59,-269.852 1422.34,-280.083 1426.57,-270.369 1419.59,-269.852"/>
</g>
<!-- Node26&#45;&gt;Node4 -->
<g id="edge43" class="edge"><title>Node26&#45;&gt;Node4</title>
<path fill="none" stroke="midnightblue" d="M1334.68,-269.805C1334.68,-260.91 1334.68,-250.78 1334.68,-243.751"/>
<polygon fill="midnightblue" stroke="midnightblue" points="1331.18,-270.083 1334.68,-280.083 1338.18,-270.083 1331.18,-270.083"/>
</g>
<!-- Node26&#45;&gt;Node7 -->
<g id="edge45" class="edge"><title>Node26&#45;&gt;Node7</title>
<path fill="none" stroke="midnightblue" d="M1318.25,-272.989C1289.12,-245.765 1225.31,-191.157 1159.68,-168 1046.37,-128.015 901.469,-122.812 838.391,-122.62"/>
<polygon fill="midnightblue" stroke="midnightblue" points="1316.17,-275.841 1325.83,-280.194 1320.99,-270.768 1316.17,-275.841"/>
</g>
<!-- Node27 -->
<g id="node27" class="node"><title>Node27</title>
<g id="a_node27"><a xlink:href="constant_8cc.xhtml" target="_top" xlink:title="Implementation of various constant expressions. ">
<polygon fill="white" stroke="black" points="1173.68,-224.5 1173.68,-243.5 1241.68,-243.5 1241.68,-224.5 1173.68,-224.5"/>
<text text-anchor="middle" x="1207.68" y="-231.5" font-family="Helvetica,sans-Serif" font-size="10.00">constant.cc</text>
</a>
</g>
</g>
<!-- Node26&#45;&gt;Node27 -->
<g id="edge44" class="edge"><title>Node26&#45;&gt;Node27</title>
<path fill="none" stroke="midnightblue" d="M1305.29,-276.503C1281.48,-266.38 1248.58,-252.388 1227.71,-243.516"/>
<polygon fill="midnightblue" stroke="midnightblue" points="1303.99,-279.751 1314.56,-280.444 1306.72,-273.31 1303.99,-279.751"/>
</g>
<!-- Node28&#45;&gt;Node5 -->
<g id="edge48" class="edge"><title>Node28&#45;&gt;Node5</title>
<path fill="none" stroke="midnightblue" d="M243.055,-277.829C280.817,-267.633 335.821,-252.782 370.139,-243.516"/>
<polygon fill="midnightblue" stroke="midnightblue" points="242.114,-274.458 233.372,-280.444 243.938,-281.216 242.114,-274.458"/>
</g>
<!-- Node28&#45;&gt;Node7 -->
<g id="edge50" class="edge"><title>Node28&#45;&gt;Node7</title>
<path fill="none" stroke="midnightblue" d="M187.082,-272.061C176.94,-258.143 167,-238.438 177.681,-224 228.266,-155.62 277.299,-184.795 360.681,-168 514.027,-137.113 701.518,-126.987 775.002,-124.062"/>
<polygon fill="midnightblue" stroke="midnightblue" points="184.614,-274.583 193.56,-280.258 190.105,-270.243 184.614,-274.583"/>
</g>
<!-- Node28&#45;&gt;Node10 -->
<g id="edge49" class="edge"><title>Node28&#45;&gt;Node10</title>
<path fill="none" stroke="midnightblue" d="M190.539,-271.365C183.019,-256.99 176.339,-237.007 187.681,-224 226.305,-179.706 392.016,-199.337 449.681,-188 452.759,-187.395 455.97,-186.683 459.144,-185.929"/>
<polygon fill="midnightblue" stroke="midnightblue" points="187.644,-273.35 195.669,-280.266 193.709,-269.854 187.644,-273.35"/>
</g>
<!-- Node28&#45;&gt;Node13 -->
<g id="edge53" class="edge"><title>Node28&#45;&gt;Node13</title>
<path fill="none" stroke="midnightblue" d="M157.499,-283.196C110.172,-276.116 39.2158,-262.731 19.6811,-244 -2.04336,-223.169 0.68112,-209.098 0.68112,-179 0.68112,-179 0.68112,-179 0.68112,-121 0.68112,-21.0002 163.64,-10.1929 233.979,-10.1858"/>
<polygon fill="midnightblue" stroke="midnightblue" points="157.106,-286.676 167.505,-284.652 158.114,-279.749 157.106,-286.676"/>
</g>
<!-- Node28&#45;&gt;Node16 -->
<g id="edge47" class="edge"><title>Node28&#45;&gt;Node16</title>
<path fill="none" stroke="midnightblue" d="M246.326,-285.566C380.483,-275.246 777.066,-244.74 879.378,-236.869"/>
<polygon fill="midnightblue" stroke="midnightblue" points="245.717,-282.102 236.015,-286.359 246.254,-289.082 245.717,-282.102"/>
</g>
<!-- Node28&#45;&gt;Node22 -->
<g id="edge52" class="edge"><title>Node28&#45;&gt;Node22</title>
<path fill="none" stroke="midnightblue" d="M217.662,-272.718C227.004,-263.2 238.427,-251.561 246.092,-243.751"/>
<polygon fill="midnightblue" stroke="midnightblue" points="214.94,-270.494 210.433,-280.083 219.936,-275.398 214.94,-270.494"/>
</g>
<!-- Node29 -->
<g id="node29" class="node"><title>Node29</title>
<g id="a_node29"><a xlink:href="parameter_8cc.xhtml" target="_top" xlink:title="Implementation of expression parameters. ">
<polygon fill="white" stroke="black" points="28.6811,-224.5 28.6811,-243.5 102.681,-243.5 102.681,-224.5 28.6811,-224.5"/>
<text text-anchor="middle" x="65.6811" y="-231.5" font-family="Helvetica,sans-Serif" font-size="10.00">parameter.cc</text>
</a>
</g>
</g>
<!-- Node28&#45;&gt;Node29 -->
<g id="edge51" class="edge"><title>Node28&#45;&gt;Node29</title>
<path fill="none" stroke="midnightblue" d="M170.546,-276.638C145.025,-266.504 109.572,-252.427 87.1299,-243.516"/>
<polygon fill="midnightblue" stroke="midnightblue" points="169.546,-280.006 180.132,-280.444 172.129,-273.5 169.546,-280.006"/>
</g>
<!-- Node30&#45;&gt;Node7 -->
<g id="edge56" class="edge"><title>Node30&#45;&gt;Node7</title>
<path fill="none" stroke="midnightblue" d="M1022.98,-217.323C1005.8,-202.799 978.466,-181.467 951.681,-168 914.709,-149.412 868.549,-136.698 838.376,-129.645"/>
<polygon fill="midnightblue" stroke="midnightblue" points="1021.13,-220.342 1030.99,-224.22 1025.7,-215.04 1021.13,-220.342"/>
</g>
<!-- Node30&#45;&gt;Node10 -->
<g id="edge57" class="edge"><title>Node30&#45;&gt;Node10</title>
<path fill="none" stroke="midnightblue" d="M995.088,-228.572C883.124,-217.698 597.436,-189.951 510.3,-181.488"/>
<polygon fill="midnightblue" stroke="midnightblue" points="994.763,-232.057 1005.06,-229.54 995.44,-225.09 994.763,-232.057"/>
</g>
<!-- Node31 -->
<g id="node31" class="node"><title>Node31</title>
<g id="a_node31"><a xlink:href="event__tree_8cc.xhtml" target="_top" xlink:title="Implementation of event tree facilities. ">
<polygon fill="white" stroke="black" points="1041.68,-168.5 1041.68,-187.5 1117.68,-187.5 1117.68,-168.5 1041.68,-168.5"/>
<text text-anchor="middle" x="1079.68" y="-175.5" font-family="Helvetica,sans-Serif" font-size="10.00">event_tree.cc</text>
</a>
</g>
</g>
<!-- Node30&#45;&gt;Node31 -->
<g id="edge55" class="edge"><title>Node30&#45;&gt;Node31</title>
<path fill="none" stroke="midnightblue" d="M1053.06,-215.855C1059.82,-206.505 1067.89,-195.327 1073.36,-187.751"/>
<polygon fill="midnightblue" stroke="midnightblue" points="1050.14,-213.927 1047.12,-224.083 1055.81,-218.025 1050.14,-213.927"/>
</g>
<!-- Node32&#45;&gt;Node8 -->
<g id="edge60" class="edge"><title>Node32&#45;&gt;Node8</title>
<path fill="none" stroke="midnightblue" d="M1498.98,-326.21C1501.47,-289.109 1506.83,-203.813 1508.68,-132 1508.91,-123.114 1510.36,-120.729 1508.68,-112 1506.14,-98.78 1499.74,-84.5069 1495.3,-75.6611"/>
<polygon fill="midnightblue" stroke="midnightblue" points="1495.47,-326.269 1498.28,-336.484 1502.45,-326.744 1495.47,-326.269"/>
</g>
<!-- Node33 -->
<g id="node33" class="node"><title>Node33</title>
<g id="a_node33"><a xlink:href="exponential_8cc.xhtml" target="_top" xlink:title="Implementation of various exponential expressions. ">
<polygon fill="white" stroke="black" points="1525.68,-280.5 1525.68,-299.5 1605.68,-299.5 1605.68,-280.5 1525.68,-280.5"/>
<text text-anchor="middle" x="1565.68" y="-287.5" font-family="Helvetica,sans-Serif" font-size="10.00">exponential.cc</text>
</a>
</g>
</g>
<!-- Node32&#45;&gt;Node33 -->
<g id="edge59" class="edge"><title>Node32&#45;&gt;Node33</title>
<path fill="none" stroke="midnightblue" d="M1516.44,-330.101C1528.68,-320.382 1544.24,-308.027 1554.56,-299.834"/>
<polygon fill="midnightblue" stroke="midnightblue" points="1514.26,-327.364 1508.61,-336.324 1518.61,-332.846 1514.26,-327.364"/>
</g>
<!-- Node34&#45;&gt;Node8 -->
<g id="edge63" class="edge"><title>Node34&#45;&gt;Node8</title>
<path fill="none" stroke="midnightblue" d="M1621.35,-326.356C1626.38,-304.585 1633.68,-267.417 1633.68,-235 1633.68,-235 1633.68,-235 1633.68,-177 1633.68,-120.777 1563.38,-89.3176 1521.36,-75.536"/>
<polygon fill="midnightblue" stroke="midnightblue" points="1617.91,-325.69 1618.97,-336.231 1624.71,-327.326 1617.91,-325.69"/>
</g>
<!-- Node35 -->
<g id="node35" class="node"><title>Node35</title>
<g id="a_node35"><a xlink:href="random__deviate_8cc.xhtml" target="_top" xlink:title="Implementations of random deviate expressions. ">
<polygon fill="white" stroke="black" points="1662.18,-280.5 1662.18,-299.5 1761.18,-299.5 1761.18,-280.5 1662.18,-280.5"/>
<text text-anchor="middle" x="1711.68" y="-287.5" font-family="Helvetica,sans-Serif" font-size="10.00">random_deviate.cc</text>
</a>
</g>
</g>
<!-- Node34&#45;&gt;Node35 -->
<g id="edge62" class="edge"><title>Node34&#45;&gt;Node35</title>
<path fill="none" stroke="midnightblue" d="M1641,-331.177C1658.48,-321.241 1681.51,-308.149 1696.46,-299.655"/>
<polygon fill="midnightblue" stroke="midnightblue" points="1638.91,-328.339 1631.94,-336.324 1642.37,-334.425 1638.91,-328.339"/>
</g>
</g>
</svg>
