<?xml version="1.0" encoding="UTF-8" standalone="no"?>
<!DOCTYPE svg PUBLIC "-//W3C//DTD SVG 1.1//EN"
 "http://www.w3.org/Graphics/SVG/1.1/DTD/svg11.dtd">
<!-- Generated by graphviz version 2.38.0 (20140413.2041)
 -->
<!-- Title: fault_tree.cc Pages: 1 -->
<svg width="891pt" height="375pt"
 viewBox="0.00 0.00 891.00 375.00" xmlns="http://www.w3.org/2000/svg" xmlns:xlink="http://www.w3.org/1999/xlink">
<g id="graph0" class="graph" transform="scale(1 1) rotate(0) translate(4 371)">
<title>fault_tree.cc</title>
<polygon fill="white" stroke="none" points="-4,4 -4,-371 887,-371 887,4 -4,4"/>
<!-- Node1 -->
<g id="node1" class="node"><title>Node1</title>
<polygon fill="#bfbfbf" stroke="black" points="584.5,-347.5 584.5,-366.5 655.5,-366.5 655.5,-347.5 584.5,-347.5"/>
<text text-anchor="middle" x="620" y="-354.5" font-family="Helvetica,sans-Serif" font-size="10.00">fault_tree.cc</text>
</g>
<!-- Node2 -->
<g id="node2" class="node"><title>Node2</title>
<g id="a_node2"><a xlink:href="fault__tree_8h.xhtml" target="_top" xlink:title="Fault Tree and Component containers. ">
<polygon fill="white" stroke="black" points="421.5,-291.5 421.5,-310.5 486.5,-310.5 486.5,-291.5 421.5,-291.5"/>
<text text-anchor="middle" x="454" y="-298.5" font-family="Helvetica,sans-Serif" font-size="10.00">fault_tree.h</text>
</a>
</g>
</g>
<!-- Node1&#45;&gt;Node2 -->
<g id="edge1" class="edge"><title>Node1&#45;&gt;Node2</title>
<path fill="none" stroke="midnightblue" d="M593.697,-347.444C565.649,-338.32 521.056,-323.813 489.816,-313.651"/>
<polygon fill="midnightblue" stroke="midnightblue" points="490.772,-310.282 480.18,-310.516 488.607,-316.938 490.772,-310.282"/>
</g>
<!-- Node17 -->
<g id="node17" class="node"><title>Node17</title>
<g id="a_node17"><a xlink:href="error_8h.xhtml" target="_top" xlink:title="Exceptions for SCRAM. ">
<polygon fill="white" stroke="black" points="726,-123.5 726,-142.5 770,-142.5 770,-123.5 726,-123.5"/>
<text text-anchor="middle" x="748" y="-130.5" font-family="Helvetica,sans-Serif" font-size="10.00">error.h</text>
</a>
</g>
</g>
<!-- Node1&#45;&gt;Node17 -->
<g id="edge45" class="edge"><title>Node1&#45;&gt;Node17</title>
<path fill="none" stroke="midnightblue" d="M630.474,-347.402C649.477,-331.255 689.727,-294.449 712,-255 730.791,-221.719 740.686,-177.634 745.086,-152.906"/>
<polygon fill="midnightblue" stroke="midnightblue" points="748.589,-153.173 746.776,-142.734 741.684,-152.025 748.589,-153.173"/>
</g>
<!-- Node3 -->
<g id="node3" class="node"><title>Node3</title>
<polygon fill="white" stroke="#bfbfbf" points="240,-67.5 240,-86.5 292,-86.5 292,-67.5 240,-67.5"/>
<text text-anchor="middle" x="266" y="-74.5" font-family="Helvetica,sans-Serif" font-size="10.00">memory</text>
</g>
<!-- Node2&#45;&gt;Node3 -->
<g id="edge2" class="edge"><title>Node2&#45;&gt;Node3</title>
<path fill="none" stroke="midnightblue" d="M421.376,-299.927C369.682,-298.641 266.835,-291.255 189,-255 154.128,-238.757 139.162,-233.91 123,-199 98.2139,-145.463 180.362,-107.042 230.339,-89.1967"/>
<polygon fill="midnightblue" stroke="midnightblue" points="231.556,-92.479 239.864,-85.9036 229.269,-85.8633 231.556,-92.479"/>
</g>
<!-- Node4 -->
<g id="node4" class="node"><title>Node4</title>
<polygon fill="white" stroke="#bfbfbf" points="55.5,-6 55.5,-25 96.5,-25 96.5,-6 55.5,-6"/>
<text text-anchor="middle" x="76" y="-13" font-family="Helvetica,sans-Serif" font-size="10.00">string</text>
</g>
<!-- Node2&#45;&gt;Node4 -->
<g id="edge3" class="edge"><title>Node2&#45;&gt;Node4</title>
<path fill="none" stroke="midnightblue" d="M421.349,-299.096C317.251,-295.341 0,-276.777 0,-190 0,-190 0,-190 0,-132 0,-90.3123 34.9778,-52.0299 57.4751,-31.7185"/>
<polygon fill="midnightblue" stroke="midnightblue" points="59.8638,-34.2796 65.1111,-25.0755 55.2693,-28.9985 59.8638,-34.2796"/>
</g>
<!-- Node5 -->
<g id="node5" class="node"><title>Node5</title>
<polygon fill="white" stroke="#bfbfbf" points="461,-235.5 461,-254.5 539,-254.5 539,-235.5 461,-235.5"/>
<text text-anchor="middle" x="500" y="-242.5" font-family="Helvetica,sans-Serif" font-size="10.00">unordered_set</text>
</g>
<!-- Node2&#45;&gt;Node5 -->
<g id="edge4" class="edge"><title>Node2&#45;&gt;Node5</title>
<path fill="none" stroke="midnightblue" d="M461.596,-291.083C468.227,-283.298 478.021,-271.801 486.058,-262.367"/>
<polygon fill="midnightblue" stroke="midnightblue" points="488.725,-264.633 492.545,-254.751 483.396,-260.094 488.725,-264.633"/>
</g>
<!-- Node6 -->
<g id="node6" class="node"><title>Node6</title>
<polygon fill="white" stroke="#bfbfbf" points="707,-6 707,-25 751,-25 751,-6 707,-6"/>
<text text-anchor="middle" x="729" y="-13" font-family="Helvetica,sans-Serif" font-size="10.00">vector</text>
</g>
<!-- Node2&#45;&gt;Node6 -->
<g id="edge5" class="edge"><title>Node2&#45;&gt;Node6</title>
<path fill="none" stroke="midnightblue" d="M486.597,-298.645C586.71,-293.608 883,-271.79 883,-190 883,-190 883,-190 883,-132 883,-71.4129 805.77,-38.7144 760.693,-24.7891"/>
<polygon fill="midnightblue" stroke="midnightblue" points="761.646,-21.4212 751.064,-21.9478 759.665,-28.135 761.646,-21.4212"/>
</g>
<!-- Node7 -->
<g id="node7" class="node"><title>Node7</title>
<polygon fill="white" stroke="#bfbfbf" points="545.5,-67.5 545.5,-86.5 662.5,-86.5 662.5,-67.5 545.5,-67.5"/>
<text text-anchor="middle" x="604" y="-74.5" font-family="Helvetica,sans-Serif" font-size="10.00">boost/noncopyable.hpp</text>
</g>
<!-- Node2&#45;&gt;Node7 -->
<g id="edge6" class="edge"><title>Node2&#45;&gt;Node7</title>
<path fill="none" stroke="midnightblue" d="M486.339,-291.467C510.247,-284.19 542.873,-272.16 568,-255 596.048,-235.845 604.844,-229.395 620,-199 635.202,-168.511 638.823,-155.907 630,-123 627.346,-113.103 621.931,-103.131 616.726,-95.099"/>
<polygon fill="midnightblue" stroke="midnightblue" points="619.464,-92.9055 610.89,-86.6811 613.711,-96.8935 619.464,-92.9055"/>
</g>
<!-- Node8 -->
<g id="node8" class="node"><title>Node8</title>
<g id="a_node8"><a xlink:href="ccf__group_8h.xhtml" target="_top" xlink:title="Functional containers for basic events grouped by common cause failure. ">
<polygon fill="white" stroke="black" points="375,-235.5 375,-254.5 443,-254.5 443,-235.5 375,-235.5"/>
<text text-anchor="middle" x="409" y="-242.5" font-family="Helvetica,sans-Serif" font-size="10.00">ccf_group.h</text>
</a>
</g>
</g>
<!-- Node2&#45;&gt;Node8 -->
<g id="edge7" class="edge"><title>Node2&#45;&gt;Node8</title>
<path fill="none" stroke="midnightblue" d="M446.569,-291.083C440.147,-283.377 430.694,-272.033 422.878,-262.653"/>
<polygon fill="midnightblue" stroke="midnightblue" points="425.383,-260.193 416.293,-254.751 420.006,-264.674 425.383,-260.193"/>
</g>
<!-- Node11 -->
<g id="node11" class="node"><title>Node11</title>
<g id="a_node11"><a xlink:href="element_8h.xhtml" target="_top" xlink:title="Helper classes, structs, and properties common to all other classes. ">
<polygon fill="white" stroke="black" points="353.5,-67.5 353.5,-86.5 412.5,-86.5 412.5,-67.5 353.5,-67.5"/>
<text text-anchor="middle" x="383" y="-74.5" font-family="Helvetica,sans-Serif" font-size="10.00">element.h</text>
</a>
</g>
</g>
<!-- Node2&#45;&gt;Node11 -->
<g id="edge38" class="edge"><title>Node2&#45;&gt;Node11</title>
<path fill="none" stroke="midnightblue" d="M421.238,-291.656C380.376,-279.243 312.54,-251.521 285,-199 262.183,-155.485 321.166,-112.766 357.297,-91.6481"/>
<polygon fill="midnightblue" stroke="midnightblue" points="359.381,-94.4901 366.361,-86.519 355.934,-88.3979 359.381,-94.4901"/>
</g>
<!-- Node16 -->
<g id="node16" class="node"><title>Node16</title>
<g id="a_node16"><a xlink:href="event_8h.xhtml" target="_top" xlink:title="Contains event classes for fault trees. ">
<polygon fill="white" stroke="black" points="542.5,-179.5 542.5,-198.5 591.5,-198.5 591.5,-179.5 542.5,-179.5"/>
<text text-anchor="middle" x="567" y="-186.5" font-family="Helvetica,sans-Serif" font-size="10.00">event.h</text>
</a>
</g>
</g>
<!-- Node2&#45;&gt;Node16 -->
<g id="edge39" class="edge"><title>Node2&#45;&gt;Node16</title>
<path fill="none" stroke="midnightblue" d="M486.548,-291.819C506.908,-285.109 532.183,-273.613 548,-255 559.053,-241.992 563.68,-222.832 565.615,-208.682"/>
<polygon fill="midnightblue" stroke="midnightblue" points="569.108,-208.929 566.661,-198.621 562.146,-208.205 569.108,-208.929"/>
</g>
<!-- Node20 -->
<g id="node20" class="node"><title>Node20</title>
<g id="a_node20"><a xlink:href="parameter_8h.xhtml" target="_top" xlink:title="Parameter expressions that act like a shareable variable. ">
<polygon fill="white" stroke="black" points="132,-179.5 132,-198.5 200,-198.5 200,-179.5 132,-179.5"/>
<text text-anchor="middle" x="166" y="-186.5" font-family="Helvetica,sans-Serif" font-size="10.00">parameter.h</text>
</a>
</g>
</g>
<!-- Node2&#45;&gt;Node20 -->
<g id="edge40" class="edge"><title>Node2&#45;&gt;Node20</title>
<path fill="none" stroke="midnightblue" d="M421.173,-296.835C363.796,-290.819 248.121,-276.394 214,-255 196.039,-243.738 182.556,-223.121 174.524,-208.118"/>
<polygon fill="midnightblue" stroke="midnightblue" points="177.464,-206.175 169.845,-198.813 171.21,-209.32 177.464,-206.175"/>
</g>
<!-- Node8&#45;&gt;Node3 -->
<g id="edge8" class="edge"><title>Node8&#45;&gt;Node3</title>
<path fill="none" stroke="midnightblue" d="M374.912,-241.012C346.441,-236.62 307.064,-225.776 285,-199 260.97,-169.838 261.146,-122.858 263.501,-96.8486"/>
<polygon fill="midnightblue" stroke="midnightblue" points="266.991,-97.131 264.619,-86.8053 260.034,-96.3568 266.991,-97.131"/>
</g>
<!-- Node8&#45;&gt;Node4 -->
<g id="edge9" class="edge"><title>Node8&#45;&gt;Node4</title>
<path fill="none" stroke="midnightblue" d="M374.983,-243.192C307.361,-240.881 159.415,-232.077 123,-199 75.812,-156.137 73.2279,-72.8013 74.6863,-35.4308"/>
<polygon fill="midnightblue" stroke="midnightblue" points="78.1834,-35.5775 75.2237,-25.4045 71.1934,-35.2028 78.1834,-35.5775"/>
</g>
<!-- Node8&#45;&gt;Node6 -->
<g id="edge11" class="edge"><title>Node8&#45;&gt;Node6</title>
<path fill="none" stroke="midnightblue" d="M443.043,-236.859C500.534,-224.783 611.482,-201.398 620,-199 692.119,-178.7 717.402,-185.649 779,-143 811.652,-120.392 846.602,-100.953 826,-67 811.993,-43.9159 783.612,-30.8945 761.151,-23.8797"/>
<polygon fill="midnightblue" stroke="midnightblue" points="761.897,-20.4529 751.32,-21.0648 759.97,-27.1824 761.897,-20.4529"/>
</g>
<!-- Node8&#45;&gt;Node7 -->
<g id="edge12" class="edge"><title>Node8&#45;&gt;Node7</title>
<path fill="none" stroke="midnightblue" d="M443.032,-236.53C497.263,-224.551 597.484,-202.072 600,-199 623.889,-169.832 616.264,-122.133 609.56,-96.1924"/>
<polygon fill="midnightblue" stroke="midnightblue" points="612.917,-95.2014 606.838,-86.5244 606.179,-97.0988 612.917,-95.2014"/>
</g>
<!-- Node9 -->
<g id="node9" class="node"><title>Node9</title>
<polygon fill="white" stroke="#bfbfbf" points="294,-179.5 294,-198.5 334,-198.5 334,-179.5 294,-179.5"/>
<text text-anchor="middle" x="314" y="-186.5" font-family="Helvetica,sans-Serif" font-size="10.00">utility</text>
</g>
<!-- Node8&#45;&gt;Node9 -->
<g id="edge10" class="edge"><title>Node8&#45;&gt;Node9</title>
<path fill="none" stroke="midnightblue" d="M393.737,-235.324C378.779,-226.822 355.745,-213.729 338.273,-203.797"/>
<polygon fill="midnightblue" stroke="midnightblue" points="339.649,-200.553 329.226,-198.655 336.19,-206.639 339.649,-200.553"/>
</g>
<!-- Node10 -->
<g id="node10" class="node"><title>Node10</title>
<polygon fill="white" stroke="#bfbfbf" points="352,-179.5 352,-198.5 448,-198.5 448,-179.5 352,-179.5"/>
<text text-anchor="middle" x="400" y="-186.5" font-family="Helvetica,sans-Serif" font-size="10.00">boost/optional.hpp</text>
</g>
<!-- Node8&#45;&gt;Node10 -->
<g id="edge13" class="edge"><title>Node8&#45;&gt;Node10</title>
<path fill="none" stroke="midnightblue" d="M407.514,-235.083C406.321,-227.927 404.606,-217.635 403.115,-208.691"/>
<polygon fill="midnightblue" stroke="midnightblue" points="406.555,-208.04 401.459,-198.751 399.65,-209.19 406.555,-208.04"/>
</g>
<!-- Node8&#45;&gt;Node11 -->
<g id="edge14" class="edge"><title>Node8&#45;&gt;Node11</title>
<path fill="none" stroke="midnightblue" d="M423.34,-235.45C441.504,-223.465 469.07,-200.699 457,-179 442.251,-152.487 416.833,-167.545 399,-143 389.287,-129.632 385.428,-111.061 383.916,-97.1918"/>
<polygon fill="midnightblue" stroke="midnightblue" points="387.378,-96.5663 383.121,-86.8643 380.399,-97.1034 387.378,-96.5663"/>
</g>
<!-- Node8&#45;&gt;Node16 -->
<g id="edge21" class="edge"><title>Node8&#45;&gt;Node16</title>
<path fill="none" stroke="midnightblue" d="M434.036,-235.444C460.694,-226.332 503.057,-211.854 532.785,-201.694"/>
<polygon fill="midnightblue" stroke="midnightblue" points="534.011,-204.974 542.342,-198.428 531.747,-198.35 534.011,-204.974"/>
</g>
<!-- Node19 -->
<g id="node19" class="node"><title>Node19</title>
<g id="a_node19"><a xlink:href="expression_8h.xhtml" target="_top" xlink:title="Provides the base class for all expressions and units for expression values. ">
<polygon fill="white" stroke="black" points="408,-123.5 408,-142.5 480,-142.5 480,-123.5 408,-123.5"/>
<text text-anchor="middle" x="444" y="-130.5" font-family="Helvetica,sans-Serif" font-size="10.00">expression.h</text>
</a>
</g>
</g>
<!-- Node8&#45;&gt;Node19 -->
<g id="edge37" class="edge"><title>Node8&#45;&gt;Node19</title>
<path fill="none" stroke="midnightblue" d="M440.023,-235.436C458.032,-228.694 479.231,-217.302 490,-199 500.627,-180.939 482.543,-161.478 466.021,-148.607"/>
<polygon fill="midnightblue" stroke="midnightblue" points="467.824,-145.59 457.684,-142.519 463.696,-151.243 467.824,-145.59"/>
</g>
<!-- Node11&#45;&gt;Node4 -->
<g id="edge16" class="edge"><title>Node11&#45;&gt;Node4</title>
<path fill="none" stroke="midnightblue" d="M353.216,-69.7043C348.468,-68.7594 343.605,-67.8262 339,-67 235.863,-48.4954 206.05,-62.142 106,-31 104.329,-30.4799 102.634,-29.8803 100.944,-29.2272"/>
<polygon fill="midnightblue" stroke="midnightblue" points="102.085,-25.9055 91.5225,-25.0831 99.2671,-32.3131 102.085,-25.9055"/>
</g>
<!-- Node11&#45;&gt;Node6 -->
<g id="edge17" class="edge"><title>Node11&#45;&gt;Node6</title>
<path fill="none" stroke="midnightblue" d="M412.799,-70.8756C477.372,-59.7714 629.758,-33.5661 696.609,-22.0701"/>
<polygon fill="midnightblue" stroke="midnightblue" points="697.315,-25.5001 706.578,-20.3559 696.129,-18.6014 697.315,-25.5001"/>
</g>
<!-- Node12 -->
<g id="node12" class="node"><title>Node12</title>
<polygon fill="white" stroke="#bfbfbf" points="573,-6 573,-25 619,-25 619,-6 573,-6"/>
<text text-anchor="middle" x="596" y="-13" font-family="Helvetica,sans-Serif" font-size="10.00">cstdint</text>
</g>
<!-- Node11&#45;&gt;Node12 -->
<g id="edge15" class="edge"><title>Node11&#45;&gt;Node12</title>
<path fill="none" stroke="midnightblue" d="M412.651,-69.3189C456.426,-59.338 536.168,-40.6754 564,-31 565.664,-30.4217 567.359,-29.7894 569.058,-29.1226"/>
<polygon fill="midnightblue" stroke="midnightblue" points="570.789,-32.19 578.629,-25.0628 568.056,-25.7458 570.789,-32.19"/>
</g>
<!-- Node13 -->
<g id="node13" class="node"><title>Node13</title>
<polygon fill="white" stroke="#bfbfbf" points="251.5,-6 251.5,-25 408.5,-25 408.5,-6 251.5,-6"/>
<text text-anchor="middle" x="330" y="-13" font-family="Helvetica,sans-Serif" font-size="10.00">boost/multi_index_container.hpp</text>
</g>
<!-- Node11&#45;&gt;Node13 -->
<g id="edge18" class="edge"><title>Node11&#45;&gt;Node13</title>
<path fill="none" stroke="midnightblue" d="M375.406,-67.4751C367.299,-58.3733 354.265,-43.741 344.237,-32.483"/>
<polygon fill="midnightblue" stroke="midnightblue" points="346.844,-30.1483 337.58,-25.0091 341.617,-34.8043 346.844,-30.1483"/>
</g>
<!-- Node14 -->
<g id="node14" class="node"><title>Node14</title>
<polygon fill="white" stroke="#bfbfbf" points="427,-0.5 427,-30.5 555,-30.5 555,-0.5 427,-0.5"/>
<text text-anchor="start" x="435" y="-18.5" font-family="Helvetica,sans-Serif" font-size="10.00">boost/multi_index/hashed</text>
<text text-anchor="middle" x="491" y="-7.5" font-family="Helvetica,sans-Serif" font-size="10.00">_index.hpp</text>
</g>
<!-- Node11&#45;&gt;Node14 -->
<g id="edge19" class="edge"><title>Node11&#45;&gt;Node14</title>
<path fill="none" stroke="midnightblue" d="M398.474,-67.4751C413.579,-59.1531 437.077,-46.2074 456.612,-35.445"/>
<polygon fill="midnightblue" stroke="midnightblue" points="458.477,-38.414 465.547,-30.523 455.099,-32.2829 458.477,-38.414"/>
</g>
<!-- Node15 -->
<g id="node15" class="node"><title>Node15</title>
<polygon fill="white" stroke="#bfbfbf" points="115,-0.5 115,-30.5 233,-30.5 233,-0.5 115,-0.5"/>
<text text-anchor="start" x="123" y="-18.5" font-family="Helvetica,sans-Serif" font-size="10.00">boost/multi_index/mem</text>
<text text-anchor="middle" x="174" y="-7.5" font-family="Helvetica,sans-Serif" font-size="10.00">_fun.hpp</text>
</g>
<!-- Node11&#45;&gt;Node15 -->
<g id="edge20" class="edge"><title>Node11&#45;&gt;Node15</title>
<path fill="none" stroke="midnightblue" d="M353.499,-67.6013C322.379,-58.742 272.506,-44.5436 233.219,-33.3589"/>
<polygon fill="midnightblue" stroke="midnightblue" points="234.052,-29.9573 223.476,-30.5854 232.136,-36.6898 234.052,-29.9573"/>
</g>
<!-- Node16&#45;&gt;Node3 -->
<g id="edge23" class="edge"><title>Node16&#45;&gt;Node3</title>
<path fill="none" stroke="midnightblue" d="M542.221,-185.283C488.859,-179.121 364.917,-163.051 328,-143 306.891,-131.535 288.739,-110.335 277.627,-95.2655"/>
<polygon fill="midnightblue" stroke="midnightblue" points="280.285,-92.9621 271.654,-86.8166 274.569,-97.0028 280.285,-92.9621"/>
</g>
<!-- Node16&#45;&gt;Node4 -->
<g id="edge24" class="edge"><title>Node16&#45;&gt;Node4</title>
<path fill="none" stroke="midnightblue" d="M542.269,-184.531C508.508,-179.105 446.738,-166.692 399,-143 349.628,-118.497 351.303,-89.5301 301,-67 220.568,-30.9755 189.757,-58.4212 106,-31 104.375,-30.4679 102.725,-29.8653 101.078,-29.2157"/>
<polygon fill="midnightblue" stroke="midnightblue" points="102.424,-25.9844 91.863,-25.1425 99.5942,-32.3868 102.424,-25.9844"/>
</g>
<!-- Node16&#45;&gt;Node6 -->
<g id="edge25" class="edge"><title>Node16&#45;&gt;Node6</title>
<path fill="none" stroke="midnightblue" d="M576.525,-179.417C595.254,-162.4 637.924,-122.918 671,-87 687.36,-69.2347 704.793,-47.641 716.225,-33.0702"/>
<polygon fill="midnightblue" stroke="midnightblue" points="719.125,-35.0434 722.505,-25.0023 713.601,-30.7438 719.125,-35.0434"/>
</g>
<!-- Node16&#45;&gt;Node7 -->
<g id="edge26" class="edge"><title>Node16&#45;&gt;Node7</title>
<path fill="none" stroke="midnightblue" d="M569.903,-179.368C575.901,-161.537 589.773,-120.295 597.854,-96.2717"/>
<polygon fill="midnightblue" stroke="midnightblue" points="601.239,-97.1855 601.11,-86.5914 594.605,-94.9537 601.239,-97.1855"/>
</g>
<!-- Node16&#45;&gt;Node11 -->
<g id="edge27" class="edge"><title>Node16&#45;&gt;Node11</title>
<path fill="none" stroke="midnightblue" d="M558.53,-179.478C544.867,-166.086 516.683,-139.901 489,-123 466.756,-109.42 439.681,-98.0023 418.463,-90.0656"/>
<polygon fill="midnightblue" stroke="midnightblue" points="419.459,-86.7032 408.865,-86.5619 417.058,-93.2788 419.459,-86.7032"/>
</g>
<!-- Node16&#45;&gt;Node12 -->
<g id="edge22" class="edge"><title>Node16&#45;&gt;Node12</title>
<path fill="none" stroke="midnightblue" d="M560.977,-179.421C547.504,-159.091 517.517,-106.714 536,-67 543.188,-51.5547 557.683,-39.1436 570.625,-30.4904"/>
<polygon fill="midnightblue" stroke="midnightblue" points="572.606,-33.3796 579.228,-25.109 568.894,-27.445 572.606,-33.3796"/>
</g>
<!-- Node16&#45;&gt;Node17 -->
<g id="edge28" class="edge"><title>Node16&#45;&gt;Node17</title>
<path fill="none" stroke="midnightblue" d="M591.788,-180.605C624.04,-170.983 680.45,-154.153 715.93,-143.568"/>
<polygon fill="midnightblue" stroke="midnightblue" points="717.2,-146.842 725.782,-140.629 715.199,-140.134 717.2,-146.842"/>
</g>
<!-- Node16&#45;&gt;Node19 -->
<g id="edge31" class="edge"><title>Node16&#45;&gt;Node19</title>
<path fill="none" stroke="midnightblue" d="M547.51,-179.444C527.358,-170.596 495.677,-156.687 472.669,-146.586"/>
<polygon fill="midnightblue" stroke="midnightblue" points="473.962,-143.332 463.399,-142.516 471.148,-149.741 473.962,-143.332"/>
</g>
<!-- Node17&#45;&gt;Node4 -->
<g id="edge30" class="edge"><title>Node17&#45;&gt;Node4</title>
<path fill="none" stroke="midnightblue" d="M741.047,-123.275C728.737,-108.574 701.514,-79.2714 671,-67 554.275,-20.0587 227.68,-62.9697 106,-31 104.07,-30.4929 102.115,-29.8591 100.177,-29.142"/>
<polygon fill="midnightblue" stroke="midnightblue" points="101.389,-25.8523 90.8239,-25.0629 98.591,-32.2686 101.389,-25.8523"/>
</g>
<!-- Node18 -->
<g id="node18" class="node"><title>Node18</title>
<polygon fill="white" stroke="#bfbfbf" points="757.5,-67.5 757.5,-86.5 816.5,-86.5 816.5,-67.5 757.5,-67.5"/>
<text text-anchor="middle" x="787" y="-74.5" font-family="Helvetica,sans-Serif" font-size="10.00">exception</text>
</g>
<!-- Node17&#45;&gt;Node18 -->
<g id="edge29" class="edge"><title>Node17&#45;&gt;Node18</title>
<path fill="none" stroke="midnightblue" d="M754.44,-123.083C759.949,-115.455 768.031,-104.264 774.765,-94.9408"/>
<polygon fill="midnightblue" stroke="midnightblue" points="777.662,-96.9071 780.68,-86.7511 771.987,-92.8087 777.662,-96.9071"/>
</g>
<!-- Node19&#45;&gt;Node3 -->
<g id="edge33" class="edge"><title>Node19&#45;&gt;Node3</title>
<path fill="none" stroke="midnightblue" d="M415.795,-123.444C384.968,-114.091 335.5,-99.0844 301.919,-88.8969"/>
<polygon fill="midnightblue" stroke="midnightblue" points="302.631,-85.4554 292.046,-85.9015 300.599,-92.1539 302.631,-85.4554"/>
</g>
<!-- Node19&#45;&gt;Node6 -->
<g id="edge34" class="edge"><title>Node19&#45;&gt;Node6</title>
<path fill="none" stroke="midnightblue" d="M453.735,-123.296C469.76,-109.411 503.198,-82.263 536,-67 589.646,-42.0383 657.642,-27.9028 696.945,-21.2604"/>
<polygon fill="midnightblue" stroke="midnightblue" points="697.693,-24.6848 706.999,-19.6198 696.565,-17.7762 697.693,-24.6848"/>
</g>
<!-- Node19&#45;&gt;Node7 -->
<g id="edge35" class="edge"><title>Node19&#45;&gt;Node7</title>
<path fill="none" stroke="midnightblue" d="M469.352,-123.444C496.269,-114.359 538.996,-99.9388 569.087,-89.7831"/>
<polygon fill="midnightblue" stroke="midnightblue" points="570.41,-93.0305 578.766,-86.5164 568.172,-86.3981 570.41,-93.0305"/>
</g>
<!-- Node19&#45;&gt;Node11 -->
<g id="edge36" class="edge"><title>Node19&#45;&gt;Node11</title>
<path fill="none" stroke="midnightblue" d="M434.199,-123.324C425.182,-115.341 411.594,-103.313 400.682,-93.6529"/>
<polygon fill="midnightblue" stroke="midnightblue" points="402.787,-90.8416 392.979,-86.8339 398.147,-96.083 402.787,-90.8416"/>
</g>
<!-- Node19&#45;&gt;Node12 -->
<g id="edge32" class="edge"><title>Node19&#45;&gt;Node12</title>
<path fill="none" stroke="midnightblue" d="M444.455,-123.195C445.631,-109.414 449.853,-82.7069 465,-67 497.5,-33.2991 520.646,-48.6748 564,-31 565.412,-30.4244 566.853,-29.8229 568.305,-29.2061"/>
<polygon fill="midnightblue" stroke="midnightblue" points="570.079,-32.2496 577.829,-25.025 567.265,-25.8401 570.079,-32.2496"/>
</g>
<!-- Node20&#45;&gt;Node3 -->
<g id="edge41" class="edge"><title>Node20&#45;&gt;Node3</title>
<path fill="none" stroke="midnightblue" d="M164.991,-179.496C163.873,-166.128 163.625,-139.976 176,-123 188.969,-105.209 210.982,-94.0283 229.99,-87.2618"/>
<polygon fill="midnightblue" stroke="midnightblue" points="231.181,-90.555 239.593,-84.1141 229,-83.9032 231.181,-90.555"/>
</g>
<!-- Node20&#45;&gt;Node4 -->
<g id="edge42" class="edge"><title>Node20&#45;&gt;Node4</title>
<path fill="none" stroke="midnightblue" d="M161.413,-179.26C147.268,-152.306 104.137,-70.1165 85.1436,-33.9237"/>
<polygon fill="midnightblue" stroke="midnightblue" points="88.2169,-32.2477 80.4708,-25.0194 82.0185,-35.5006 88.2169,-32.2477"/>
</g>
<!-- Node20&#45;&gt;Node11 -->
<g id="edge43" class="edge"><title>Node20&#45;&gt;Node11</title>
<path fill="none" stroke="midnightblue" d="M169.965,-179.37C176.864,-165.34 192.428,-137.678 214,-123 252.954,-96.4938 306.782,-85.5872 343.137,-81.1077"/>
<polygon fill="midnightblue" stroke="midnightblue" points="343.814,-84.5538 353.361,-79.9602 343.033,-77.5975 343.814,-84.5538"/>
</g>
<!-- Node20&#45;&gt;Node19 -->
<g id="edge44" class="edge"><title>Node20&#45;&gt;Node19</title>
<path fill="none" stroke="midnightblue" d="M200.088,-181.379C249.772,-171.728 342.208,-153.773 397.915,-142.952"/>
<polygon fill="midnightblue" stroke="midnightblue" points="398.721,-146.361 407.87,-141.018 397.386,-139.489 398.721,-146.361"/>
</g>
</g>
</svg>
