<?xml version="1.0" encoding="UTF-8" standalone="no"?>
<!DOCTYPE svg PUBLIC "-//W3C//DTD SVG 1.1//EN"
 "http://www.w3.org/Graphics/SVG/1.1/DTD/svg11.dtd">
<!-- Generated by graphviz version 2.38.0 (20140413.2041)
 -->
<!-- Title: scram::core::Print Pages: 1 -->
<svg width="289pt" height="137pt"
 viewBox="0.00 0.00 289.00 137.00" xmlns="http://www.w3.org/2000/svg" xmlns:xlink="http://www.w3.org/1999/xlink">
<g id="graph0" class="graph" transform="scale(1 1) rotate(0) translate(4 133)">
<title>scram::core::Print</title>
<polygon fill="white" stroke="none" points="-4,4 -4,-133 285,-133 285,4 -4,4"/>
<!-- Node1 -->
<g id="node1" class="node"><title>Node1</title>
<polygon fill="#bfbfbf" stroke="black" points="0,-30 0,-49 95,-49 95,-30 0,-30"/>
<text text-anchor="middle" x="47.5" y="-37" font-family="Helvetica,sans-Serif" font-size="10.00">scram::core::Print</text>
</g>
<!-- Node1&#45;&gt;Node1 -->
<g id="edge3" class="edge"><title>Node1&#45;&gt;Node1</title>
<path fill="none" stroke="midnightblue" d="M23.1476,-49.2571C11.3005,-58.0653 19.418,-67.5 47.5,-67.5 65.9288,-67.5 75.7596,-63.4368 76.9924,-58.1539"/>
<polygon fill="midnightblue" stroke="midnightblue" points="79.8855,-56.165 71.8524,-49.2571 73.8243,-59.6668 79.8855,-56.165"/>
</g>
<!-- Node2 -->
<g id="node2" class="node"><title>Node2</title>
<g id="a_node2"><a xlink:href="classscram_1_1core_1_1ProductContainer.xhtml#ae3c4f3a13d162014a7e7bd35c12f4bcf" target="_top" xlink:title="Begin and end iterators over products in the container. ">
<polygon fill="white" stroke="black" points="131,-98.5 131,-128.5 281,-128.5 281,-98.5 131,-98.5"/>
<text text-anchor="start" x="139" y="-116.5" font-family="Helvetica,sans-Serif" font-size="10.00">scram::core::ProductContainer</text>
<text text-anchor="middle" x="206" y="-105.5" font-family="Helvetica,sans-Serif" font-size="10.00">::begin</text>
</a>
</g>
</g>
<!-- Node1&#45;&gt;Node2 -->
<g id="edge1" class="edge"><title>Node1&#45;&gt;Node2</title>
<path fill="none" stroke="midnightblue" d="M61.9741,-49.0116C77.8811,-59.9162 105.416,-77.79 131,-89.5 135.118,-91.3848 139.427,-93.1876 143.806,-94.8975"/>
<polygon fill="midnightblue" stroke="midnightblue" points="142.864,-98.2816 153.457,-98.4883 145.305,-91.7209 142.864,-98.2816"/>
</g>
<!-- Node3 -->
<g id="node3" class="node"><title>Node3</title>
<g id="a_node3"><a xlink:href="classscram_1_1core_1_1ProductContainer.xhtml#ac48d179d37d1109d36bf2d36e02aebe7" target="_top" xlink:title="scram::core::ProductContainer\l::empty">
<polygon fill="white" stroke="black" points="131,-49.5 131,-79.5 281,-79.5 281,-49.5 131,-49.5"/>
<text text-anchor="start" x="139" y="-67.5" font-family="Helvetica,sans-Serif" font-size="10.00">scram::core::ProductContainer</text>
<text text-anchor="middle" x="206" y="-56.5" font-family="Helvetica,sans-Serif" font-size="10.00">::empty</text>
</a>
</g>
</g>
<!-- Node1&#45;&gt;Node3 -->
<g id="edge2" class="edge"><title>Node1&#45;&gt;Node3</title>
<path fill="none" stroke="midnightblue" d="M95.0314,-46.9331C103.214,-48.2403 111.955,-49.6365 120.797,-51.049"/>
<polygon fill="midnightblue" stroke="midnightblue" points="120.372,-54.5254 130.799,-52.6468 121.476,-47.6131 120.372,-54.5254"/>
</g>
<!-- Node4 -->
<g id="node4" class="node"><title>Node4</title>
<g id="a_node4"><a xlink:href="classscram_1_1core_1_1ProductContainer.xhtml#ac02fbe13144218abf07fdd6ba9c8b532" target="_top" xlink:title="scram::core::ProductContainer\l::size">
<polygon fill="white" stroke="black" points="131,-0.5 131,-30.5 281,-30.5 281,-0.5 131,-0.5"/>
<text text-anchor="start" x="139" y="-18.5" font-family="Helvetica,sans-Serif" font-size="10.00">scram::core::ProductContainer</text>
<text text-anchor="middle" x="206" y="-7.5" font-family="Helvetica,sans-Serif" font-size="10.00">::size</text>
</a>
</g>
</g>
<!-- Node1&#45;&gt;Node4 -->
<g id="edge4" class="edge"><title>Node1&#45;&gt;Node4</title>
<path fill="none" stroke="midnightblue" d="M76.1188,-29.9731C88.8357,-27.1556 104.679,-24.2454 120.861,-21.6702"/>
<polygon fill="midnightblue" stroke="midnightblue" points="121.605,-25.0969 130.954,-20.1139 120.538,-18.1787 121.605,-25.0969"/>
</g>
<!-- Node4&#45;&gt;Node1 -->
<g id="edge5" class="edge"><title>Node4&#45;&gt;Node1</title>
<path fill="none" stroke="midnightblue" d="M149.255,-30.5443C134.97,-33.0665 119.591,-35.4326 105.255,-37.3147"/>
<polygon fill="midnightblue" stroke="midnightblue" points="104.519,-33.8795 95.0314,-38.595 105.389,-40.8252 104.519,-33.8795"/>
</g>
</g>
</svg>
