<?xml version="1.0" encoding="UTF-8" standalone="no"?>
<!DOCTYPE svg PUBLIC "-//W3C//DTD SVG 1.1//EN"
 "http://www.w3.org/Graphics/SVG/1.1/DTD/svg11.dtd">
<!-- Generated by graphviz version 2.38.0 (20140413.2041)
 -->
<!-- Title: fault_tree.h Pages: 1 -->
<!--zoomable 319 -->
<svg id="main" version="1.1" xmlns="http://www.w3.org/2000/svg" xmlns:xlink="http://www.w3.org/1999/xlink" xml:space="preserve" onload="init(evt)">
<style type="text/css"><![CDATA[
.edge:hover path { stroke: red; }
.edge:hover polygon { stroke: red; fill: red; }
]]></style>
<script type="text/javascript"><![CDATA[
var edges = document.getElementsByTagName('g');
if (edges && edges.length) {
  for (var i=0;i<edges.length;i++) {
    if (edges[i].id.substr(0,4)=='edge') {
      edges[i].setAttribute('class','edge');
    }
  }
}
]]></script>
        <defs>
                <circle id="rim" cx="0" cy="0" r="7"/>
                <circle id="rim2" cx="0" cy="0" r="3.5"/>
                <g id="zoomPlus">
                        <use xlink:href="#rim" fill="#404040">
                                <set attributeName="fill" to="#808080" begin="zoomplus.mouseover" end="zoomplus.mouseout"/>
                        </use>
                        <path d="M-4,0h8M0,-4v8" fill="none" stroke="white" stroke-width="1.5" pointer-events="none"/>
                </g>
                <g id="zoomMin">
                        <use xlink:href="#rim" fill="#404040">
                                <set attributeName="fill" to="#808080" begin="zoomminus.mouseover" end="zoomminus.mouseout"/>
                        </use>
                        <path d="M-4,0h8" fill="none" stroke="white" stroke-width="1.5" pointer-events="none"/>
                </g>
                <g id="dirArrow">
                        <path fill="none" stroke="white" stroke-width="1.5" d="M0,-3.0v7 M-2.5,-0.5L0,-3.0L2.5,-0.5"/>
                </g>
               <g id="resetDef">
                       <use xlink:href="#rim2" fill="#404040">
                               <set attributeName="fill" to="#808080" begin="reset.mouseover" end="reset.mouseout"/>
                       </use>
               </g>
        </defs>

<script type="text/javascript">
var viewWidth = 964;
var viewHeight = 319;
var sectionId = 'dynsection-0';
</script>
<script xlink:href="svgpan.js"/>
<svg id="graph" class="graph">
<g id="viewport">
<title>fault_tree.h</title>
<polygon fill="white" stroke="none" points="-4,4 -4,-315 960,-315 960,4 -4,4"/>
<!-- Node1 -->
<g id="node1" class="node"><title>Node1</title>
<polygon fill="#bfbfbf" stroke="black" points="513.5,-291.5 513.5,-310.5 578.5,-310.5 578.5,-291.5 513.5,-291.5"/>
<text text-anchor="middle" x="546" y="-298.5" font-family="Helvetica,sans-Serif" font-size="10.00">fault_tree.h</text>
</g>
<!-- Node2 -->
<g id="node2" class="node"><title>Node2</title>
<polygon fill="white" stroke="#bfbfbf" points="226,-67.5 226,-86.5 278,-86.5 278,-67.5 226,-67.5"/>
<text text-anchor="middle" x="252" y="-74.5" font-family="Helvetica,sans-Serif" font-size="10.00">memory</text>
</g>
<!-- Node1&#45;&gt;Node2 -->
<g id="edge1" class="edge"><title>Node1&#45;&gt;Node2</title>
<path fill="none" stroke="midnightblue" d="M513.251,-294.693C438.596,-281.855 259.578,-246.633 225,-199 205.155,-171.663 214.72,-155.481 224,-123 226.902,-112.844 232.832,-102.747 238.49,-94.6991"/>
<polygon fill="midnightblue" stroke="midnightblue" points="241.376,-96.6853 244.588,-86.5891 235.781,-92.4786 241.376,-96.6853"/>
</g>
<!-- Node3 -->
<g id="node3" class="node"><title>Node3</title>
<polygon fill="white" stroke="#bfbfbf" points="74.5,-6 74.5,-25 115.5,-25 115.5,-6 74.5,-6"/>
<text text-anchor="middle" x="95" y="-13" font-family="Helvetica,sans-Serif" font-size="10.00">string</text>
</g>
<!-- Node1&#45;&gt;Node3 -->
<g id="edge2" class="edge"><title>Node1&#45;&gt;Node3</title>
<path fill="none" stroke="midnightblue" d="M513.48,-300.415C395.937,-301.058 0,-295.399 0,-190 0,-190 0,-190 0,-132 0,-87.0181 43.5101,-50.0208 71.6387,-30.8025"/>
<polygon fill="midnightblue" stroke="midnightblue" points="73.725,-33.6196 80.1562,-25.2 69.8782,-27.7713 73.725,-33.6196"/>
</g>
<!-- Node4 -->
<g id="node4" class="node"><title>Node4</title>
<polygon fill="white" stroke="#bfbfbf" points="878,-235.5 878,-254.5 956,-254.5 956,-235.5 878,-235.5"/>
<text text-anchor="middle" x="917" y="-242.5" font-family="Helvetica,sans-Serif" font-size="10.00">unordered_set</text>
</g>
<!-- Node1&#45;&gt;Node4 -->
<g id="edge3" class="edge"><title>Node1&#45;&gt;Node4</title>
<path fill="none" stroke="midnightblue" d="M578.547,-295.696C636.166,-288.01 759.87,-271.206 864,-255 865.271,-254.802 866.559,-254.6 867.858,-254.393"/>
<polygon fill="midnightblue" stroke="midnightblue" points="868.635,-257.813 877.945,-252.758 867.514,-250.903 868.635,-257.813"/>
</g>
<!-- Node5 -->
<g id="node5" class="node"><title>Node5</title>
<polygon fill="white" stroke="#bfbfbf" points="790,-6 790,-25 834,-25 834,-6 790,-6"/>
<text text-anchor="middle" x="812" y="-13" font-family="Helvetica,sans-Serif" font-size="10.00">vector</text>
</g>
<!-- Node1&#45;&gt;Node5 -->
<g id="edge4" class="edge"><title>Node1&#45;&gt;Node5</title>
<path fill="none" stroke="midnightblue" d="M578.533,-295.314C656.957,-283.109 850,-247.249 850,-190 850,-190 850,-190 850,-132 850,-95.7544 832.905,-56.171 821.647,-34.0327"/>
<polygon fill="midnightblue" stroke="midnightblue" points="824.73,-32.3745 816.968,-25.1633 818.539,-35.641 824.73,-32.3745"/>
</g>
<!-- Node6 -->
<g id="node6" class="node"><title>Node6</title>
<polygon fill="white" stroke="#bfbfbf" points="645.5,-67.5 645.5,-86.5 762.5,-86.5 762.5,-67.5 645.5,-67.5"/>
<text text-anchor="middle" x="704" y="-74.5" font-family="Helvetica,sans-Serif" font-size="10.00">boost/noncopyable.hpp</text>
</g>
<!-- Node1&#45;&gt;Node6 -->
<g id="edge5" class="edge"><title>Node1&#45;&gt;Node6</title>
<path fill="none" stroke="midnightblue" d="M569.953,-291.359C588.093,-283.894 612.751,-271.672 630,-255 671.383,-215.002 676.257,-197.416 695,-143 700.165,-128.004 702.374,-110.095 703.315,-96.8765"/>
<polygon fill="midnightblue" stroke="midnightblue" points="706.822,-96.83 703.857,-86.6585 699.832,-96.4588 706.822,-96.83"/>
</g>
<!-- Node7 -->
<g id="node7" class="node"><title>Node7</title>
<g id="a_node7"><a xlink:href="ccf__group_8h.xhtml" target="_top" xlink:title="Functional containers for basic events grouped by common cause failure. ">
<polygon fill="white" stroke="black" points="512,-235.5 512,-254.5 580,-254.5 580,-235.5 512,-235.5"/>
<text text-anchor="middle" x="546" y="-242.5" font-family="Helvetica,sans-Serif" font-size="10.00">ccf_group.h</text>
</a>
</g>
</g>
<!-- Node1&#45;&gt;Node7 -->
<g id="edge6" class="edge"><title>Node1&#45;&gt;Node7</title>
<path fill="none" stroke="midnightblue" d="M546,-291.083C546,-284.006 546,-273.861 546,-264.986"/>
<polygon fill="midnightblue" stroke="midnightblue" points="549.5,-264.751 546,-254.751 542.5,-264.751 549.5,-264.751"/>
</g>
<!-- Node10 -->
<g id="node10" class="node"><title>Node10</title>
<g id="a_node10"><a xlink:href="element_8h.xhtml" target="_top" xlink:title="Helper classes, structs, and properties common to all other classes. ">
<polygon fill="white" stroke="black" points="470.5,-67.5 470.5,-86.5 529.5,-86.5 529.5,-67.5 470.5,-67.5"/>
<text text-anchor="middle" x="500" y="-74.5" font-family="Helvetica,sans-Serif" font-size="10.00">element.h</text>
</a>
</g>
</g>
<!-- Node1&#45;&gt;Node10 -->
<g id="edge37" class="edge"><title>Node1&#45;&gt;Node10</title>
<path fill="none" stroke="midnightblue" d="M560.799,-291.242C589.725,-272.873 649.71,-227.949 635,-179 626.415,-150.431 620.648,-142.415 598,-123 580.734,-108.198 557.787,-97.3112 538.439,-89.9567"/>
<polygon fill="midnightblue" stroke="midnightblue" points="539.58,-86.6474 528.986,-86.5298 537.194,-93.2283 539.58,-86.6474"/>
</g>
<!-- Node15 -->
<g id="node15" class="node"><title>Node15</title>
<g id="a_node15"><a xlink:href="event_8h.xhtml" target="_top" xlink:title="Contains event classes for fault trees. ">
<polygon fill="white" stroke="black" points="372.5,-179.5 372.5,-198.5 421.5,-198.5 421.5,-179.5 372.5,-179.5"/>
<text text-anchor="middle" x="397" y="-186.5" font-family="Helvetica,sans-Serif" font-size="10.00">event.h</text>
</a>
</g>
</g>
<!-- Node1&#45;&gt;Node15 -->
<g id="edge38" class="edge"><title>Node1&#45;&gt;Node15</title>
<path fill="none" stroke="midnightblue" d="M534.308,-291.368C508.849,-272.573 448.159,-227.768 416.686,-204.533"/>
<polygon fill="midnightblue" stroke="midnightblue" points="418.761,-201.715 408.637,-198.591 414.604,-207.347 418.761,-201.715"/>
</g>
<!-- Node19 -->
<g id="node19" class="node"><title>Node19</title>
<g id="a_node19"><a xlink:href="parameter_8h.xhtml" target="_top" xlink:title="Parameter expressions that act like a shareable variable. ">
<polygon fill="white" stroke="black" points="248,-179.5 248,-198.5 316,-198.5 316,-179.5 248,-179.5"/>
<text text-anchor="middle" x="282" y="-186.5" font-family="Helvetica,sans-Serif" font-size="10.00">parameter.h</text>
</a>
</g>
</g>
<!-- Node1&#45;&gt;Node19 -->
<g id="edge39" class="edge"><title>Node1&#45;&gt;Node19</title>
<path fill="none" stroke="midnightblue" d="M525.284,-291.368C478.825,-272.01 366.155,-225.065 312.018,-202.507"/>
<polygon fill="midnightblue" stroke="midnightblue" points="313.196,-199.207 302.619,-198.591 310.504,-205.668 313.196,-199.207"/>
</g>
<!-- Node7&#45;&gt;Node2 -->
<g id="edge7" class="edge"><title>Node7&#45;&gt;Node2</title>
<path fill="none" stroke="midnightblue" d="M511.784,-244.332C439.281,-244.228 273.956,-239.453 239,-199 214,-170.069 230.844,-121.571 242.864,-95.6308"/>
<polygon fill="midnightblue" stroke="midnightblue" points="246.035,-97.1122 247.286,-86.5914 239.747,-94.0359 246.035,-97.1122"/>
</g>
<!-- Node7&#45;&gt;Node3 -->
<g id="edge8" class="edge"><title>Node7&#45;&gt;Node3</title>
<path fill="none" stroke="midnightblue" d="M511.92,-243.434C472.401,-241.145 407.061,-232.132 363,-199 308.894,-158.315 340.777,-108.119 287,-67 238.994,-30.2932 166.683,-20.1784 125.878,-17.4486"/>
<polygon fill="midnightblue" stroke="midnightblue" points="125.914,-13.9452 115.734,-16.88 125.522,-20.9342 125.914,-13.9452"/>
</g>
<!-- Node7&#45;&gt;Node5 -->
<g id="edge10" class="edge"><title>Node7&#45;&gt;Node5</title>
<path fill="none" stroke="midnightblue" d="M576.589,-235.369C600.05,-227.91 632.609,-215.69 658,-199 717.089,-160.16 727.741,-142.935 771,-87 783.95,-70.2557 795.757,-49.0251 803.34,-34.2584"/>
<polygon fill="midnightblue" stroke="midnightblue" points="806.527,-35.7111 807.877,-25.2027 800.268,-32.5756 806.527,-35.7111"/>
</g>
<!-- Node7&#45;&gt;Node6 -->
<g id="edge11" class="edge"><title>Node7&#45;&gt;Node6</title>
<path fill="none" stroke="midnightblue" d="M572.227,-235.411C591.391,-228.105 617.059,-216.063 635,-199 666.278,-169.252 687.484,-122.161 697.457,-96.3748"/>
<polygon fill="midnightblue" stroke="midnightblue" points="700.835,-97.3337 701.04,-86.7409 694.274,-94.8935 700.835,-97.3337"/>
</g>
<!-- Node8 -->
<g id="node8" class="node"><title>Node8</title>
<polygon fill="white" stroke="#bfbfbf" points="440,-179.5 440,-198.5 480,-198.5 480,-179.5 440,-179.5"/>
<text text-anchor="middle" x="460" y="-186.5" font-family="Helvetica,sans-Serif" font-size="10.00">utility</text>
</g>
<!-- Node7&#45;&gt;Node8 -->
<g id="edge9" class="edge"><title>Node7&#45;&gt;Node8</title>
<path fill="none" stroke="midnightblue" d="M532.183,-235.324C518.767,-226.9 498.176,-213.971 482.414,-204.074"/>
<polygon fill="midnightblue" stroke="midnightblue" points="484.113,-201.008 473.783,-198.655 480.391,-206.936 484.113,-201.008"/>
</g>
<!-- Node9 -->
<g id="node9" class="node"><title>Node9</title>
<polygon fill="white" stroke="#bfbfbf" points="498,-179.5 498,-198.5 594,-198.5 594,-179.5 498,-179.5"/>
<text text-anchor="middle" x="546" y="-186.5" font-family="Helvetica,sans-Serif" font-size="10.00">boost/optional.hpp</text>
</g>
<!-- Node7&#45;&gt;Node9 -->
<g id="edge12" class="edge"><title>Node7&#45;&gt;Node9</title>
<path fill="none" stroke="midnightblue" d="M546,-235.083C546,-228.006 546,-217.861 546,-208.986"/>
<polygon fill="midnightblue" stroke="midnightblue" points="549.5,-208.751 546,-198.751 542.5,-208.751 549.5,-208.751"/>
</g>
<!-- Node7&#45;&gt;Node10 -->
<g id="edge13" class="edge"><title>Node7&#45;&gt;Node10</title>
<path fill="none" stroke="midnightblue" d="M570.193,-235.41C595.795,-224.78 630.976,-204.872 619,-179 600.101,-138.171 555.661,-107.819 526.76,-91.5271"/>
<polygon fill="midnightblue" stroke="midnightblue" points="528.429,-88.4511 517.974,-86.7363 525.078,-94.5967 528.429,-88.4511"/>
</g>
<!-- Node7&#45;&gt;Node15 -->
<g id="edge20" class="edge"><title>Node7&#45;&gt;Node15</title>
<path fill="none" stroke="midnightblue" d="M522.391,-235.444C497.542,-226.438 458.226,-212.189 430.246,-202.049"/>
<polygon fill="midnightblue" stroke="midnightblue" points="431.093,-198.633 420.499,-198.516 428.708,-205.214 431.093,-198.633"/>
</g>
<!-- Node18 -->
<g id="node18" class="node"><title>Node18</title>
<g id="a_node18"><a xlink:href="expression_8h.xhtml" target="_top" xlink:title="Provides the base class for all expressions and units for expression values. ">
<polygon fill="white" stroke="black" points="470,-123.5 470,-142.5 542,-142.5 542,-123.5 470,-123.5"/>
<text text-anchor="middle" x="506" y="-130.5" font-family="Helvetica,sans-Serif" font-size="10.00">expression.h</text>
</a>
</g>
</g>
<!-- Node7&#45;&gt;Node18 -->
<g id="edge36" class="edge"><title>Node7&#45;&gt;Node18</title>
<path fill="none" stroke="midnightblue" d="M563.385,-235.447C584.943,-223.638 617.215,-201.265 603,-179 591.634,-161.197 571.21,-150.33 552.026,-143.75"/>
<polygon fill="midnightblue" stroke="midnightblue" points="553.046,-140.403 542.458,-140.77 550.964,-147.086 553.046,-140.403"/>
</g>
<!-- Node10&#45;&gt;Node3 -->
<g id="edge15" class="edge"><title>Node10&#45;&gt;Node3</title>
<path fill="none" stroke="midnightblue" d="M470.219,-71.6248C395.699,-60.6768 201.732,-32.1804 125.964,-21.0491"/>
<polygon fill="midnightblue" stroke="midnightblue" points="126.074,-17.5277 115.671,-19.5369 125.056,-24.4534 126.074,-17.5277"/>
</g>
<!-- Node10&#45;&gt;Node5 -->
<g id="edge16" class="edge"><title>Node10&#45;&gt;Node5</title>
<path fill="none" stroke="midnightblue" d="M529.783,-69.6939C534.53,-68.7505 539.394,-67.8203 544,-67 648.891,-48.3187 679.034,-61.887 781,-31 782.877,-30.4316 784.784,-29.7688 786.684,-29.0453"/>
<polygon fill="midnightblue" stroke="midnightblue" points="788.124,-32.2363 795.936,-25.0794 785.366,-25.8025 788.124,-32.2363"/>
</g>
<!-- Node11 -->
<g id="node11" class="node"><title>Node11</title>
<polygon fill="white" stroke="#bfbfbf" points="268,-6 268,-25 314,-25 314,-6 268,-6"/>
<text text-anchor="middle" x="291" y="-13" font-family="Helvetica,sans-Serif" font-size="10.00">cstdint</text>
</g>
<!-- Node10&#45;&gt;Node11 -->
<g id="edge14" class="edge"><title>Node10&#45;&gt;Node11</title>
<path fill="none" stroke="midnightblue" d="M470.298,-69.1205C427.347,-59.0579 350.079,-40.4937 323,-31 321.338,-30.4173 319.644,-29.7816 317.946,-29.1122"/>
<polygon fill="midnightblue" stroke="midnightblue" points="318.95,-25.7359 308.377,-25.0455 316.212,-32.1782 318.95,-25.7359"/>
</g>
<!-- Node12 -->
<g id="node12" class="node"><title>Node12</title>
<polygon fill="white" stroke="#bfbfbf" points="332.5,-6 332.5,-25 489.5,-25 489.5,-6 332.5,-6"/>
<text text-anchor="middle" x="411" y="-13" font-family="Helvetica,sans-Serif" font-size="10.00">boost/multi_index_container.hpp</text>
</g>
<!-- Node10&#45;&gt;Node12 -->
<g id="edge17" class="edge"><title>Node10&#45;&gt;Node12</title>
<path fill="none" stroke="midnightblue" d="M487.248,-67.4751C472.973,-57.9315 449.603,-42.3073 432.492,-30.8683"/>
<polygon fill="midnightblue" stroke="midnightblue" points="433.986,-27.6572 423.728,-25.0091 430.096,-33.4766 433.986,-27.6572"/>
</g>
<!-- Node13 -->
<g id="node13" class="node"><title>Node13</title>
<polygon fill="white" stroke="#bfbfbf" points="508,-0.5 508,-30.5 636,-30.5 636,-0.5 508,-0.5"/>
<text text-anchor="start" x="516" y="-18.5" font-family="Helvetica,sans-Serif" font-size="10.00">boost/multi_index/hashed</text>
<text text-anchor="middle" x="572" y="-7.5" font-family="Helvetica,sans-Serif" font-size="10.00">_index.hpp</text>
</g>
<!-- Node10&#45;&gt;Node13 -->
<g id="edge18" class="edge"><title>Node10&#45;&gt;Node13</title>
<path fill="none" stroke="midnightblue" d="M510.316,-67.4751C519.885,-59.5673 534.506,-47.4847 547.112,-37.0675"/>
<polygon fill="midnightblue" stroke="midnightblue" points="549.552,-39.5912 555.031,-30.523 545.093,-34.1952 549.552,-39.5912"/>
</g>
<!-- Node14 -->
<g id="node14" class="node"><title>Node14</title>
<polygon fill="white" stroke="#bfbfbf" points="654,-0.5 654,-30.5 772,-30.5 772,-0.5 654,-0.5"/>
<text text-anchor="start" x="662" y="-18.5" font-family="Helvetica,sans-Serif" font-size="10.00">boost/multi_index/mem</text>
<text text-anchor="middle" x="713" y="-7.5" font-family="Helvetica,sans-Serif" font-size="10.00">_fun.hpp</text>
</g>
<!-- Node10&#45;&gt;Node14 -->
<g id="edge19" class="edge"><title>Node10&#45;&gt;Node14</title>
<path fill="none" stroke="midnightblue" d="M529.617,-67.7268C561.403,-58.8475 612.755,-44.5028 653.044,-33.2484"/>
<polygon fill="midnightblue" stroke="midnightblue" points="654.077,-36.5938 662.766,-30.5324 652.193,-29.8519 654.077,-36.5938"/>
</g>
<!-- Node15&#45;&gt;Node2 -->
<g id="edge22" class="edge"><title>Node15&#45;&gt;Node2</title>
<path fill="none" stroke="midnightblue" d="M385.622,-179.368C360.952,-160.653 302.29,-116.151 271.552,-92.8324"/>
<polygon fill="midnightblue" stroke="midnightblue" points="273.407,-89.8469 263.325,-86.5914 269.177,-95.4237 273.407,-89.8469"/>
</g>
<!-- Node15&#45;&gt;Node3 -->
<g id="edge23" class="edge"><title>Node15&#45;&gt;Node3</title>
<path fill="none" stroke="midnightblue" d="M372.456,-184.775C301.285,-175.367 99.5589,-148.289 95,-143 69.0378,-112.883 79.7989,-62.0913 88.3247,-34.9336"/>
<polygon fill="midnightblue" stroke="midnightblue" points="91.7382,-35.7644 91.6195,-25.1703 85.1057,-33.5261 91.7382,-35.7644"/>
</g>
<!-- Node15&#45;&gt;Node5 -->
<g id="edge24" class="edge"><title>Node15&#45;&gt;Node5</title>
<path fill="none" stroke="midnightblue" d="M421.726,-181.42C462.279,-170.532 539.585,-149.339 551,-143 595.303,-118.397 591.202,-90.691 636,-67 694.698,-35.9579 718.41,-53.1709 781,-31 782.617,-30.4272 784.264,-29.7991 785.913,-29.1355"/>
<polygon fill="midnightblue" stroke="midnightblue" points="787.429,-32.2927 795.194,-25.0843 784.629,-25.8773 787.429,-32.2927"/>
</g>
<!-- Node15&#45;&gt;Node6 -->
<g id="edge25" class="edge"><title>Node15&#45;&gt;Node6</title>
<path fill="none" stroke="midnightblue" d="M421.849,-181.28C424.925,-180.49 428.031,-179.712 431,-179 504.831,-161.281 527.523,-171.247 598,-143 630.466,-129.988 664.296,-107.41 684.759,-92.5864"/>
<polygon fill="midnightblue" stroke="midnightblue" points="686.946,-95.3228 692.918,-86.5714 682.792,-89.6885 686.946,-95.3228"/>
</g>
<!-- Node15&#45;&gt;Node10 -->
<g id="edge26" class="edge"><title>Node15&#45;&gt;Node10</title>
<path fill="none" stroke="midnightblue" d="M405.082,-179.368C422.306,-160.974 462.853,-117.671 484.97,-94.0519"/>
<polygon fill="midnightblue" stroke="midnightblue" points="487.675,-96.2832 491.955,-86.5914 482.565,-91.4987 487.675,-96.2832"/>
</g>
<!-- Node15&#45;&gt;Node11 -->
<g id="edge21" class="edge"><title>Node15&#45;&gt;Node11</title>
<path fill="none" stroke="midnightblue" d="M398.193,-179.48C400.68,-158.374 404.332,-102.786 380,-67 375.97,-61.0727 341.652,-42.5496 316.834,-29.667"/>
<polygon fill="midnightblue" stroke="midnightblue" points="318.363,-26.5173 307.871,-25.0438 315.154,-32.7385 318.363,-26.5173"/>
</g>
<!-- Node16 -->
<g id="node16" class="node"><title>Node16</title>
<g id="a_node16"><a xlink:href="error_8h.xhtml" target="_top" xlink:title="Exceptions for SCRAM. ">
<polygon fill="white" stroke="black" points="104,-123.5 104,-142.5 148,-142.5 148,-123.5 104,-123.5"/>
<text text-anchor="middle" x="126" y="-130.5" font-family="Helvetica,sans-Serif" font-size="10.00">error.h</text>
</a>
</g>
</g>
<!-- Node15&#45;&gt;Node16 -->
<g id="edge27" class="edge"><title>Node15&#45;&gt;Node16</title>
<path fill="none" stroke="midnightblue" d="M372.473,-183.113C323.389,-173.332 213.101,-151.356 158.247,-140.426"/>
<polygon fill="midnightblue" stroke="midnightblue" points="158.855,-136.978 148.363,-138.456 157.487,-143.843 158.855,-136.978"/>
</g>
<!-- Node15&#45;&gt;Node18 -->
<g id="edge30" class="edge"><title>Node15&#45;&gt;Node18</title>
<path fill="none" stroke="midnightblue" d="M414.513,-179.324C432.072,-170.625 459.331,-157.12 479.531,-147.113"/>
<polygon fill="midnightblue" stroke="midnightblue" points="481.124,-150.23 488.531,-142.655 478.016,-143.958 481.124,-150.23"/>
</g>
<!-- Node16&#45;&gt;Node3 -->
<g id="edge29" class="edge"><title>Node16&#45;&gt;Node3</title>
<path fill="none" stroke="midnightblue" d="M123.67,-123.319C118.666,-104.673 106.794,-60.443 100.001,-35.1317"/>
<polygon fill="midnightblue" stroke="midnightblue" points="103.33,-34.0329 97.3571,-25.282 96.569,-35.8475 103.33,-34.0329"/>
</g>
<!-- Node17 -->
<g id="node17" class="node"><title>Node17</title>
<polygon fill="white" stroke="#bfbfbf" points="142.5,-67.5 142.5,-86.5 201.5,-86.5 201.5,-67.5 142.5,-67.5"/>
<text text-anchor="middle" x="172" y="-74.5" font-family="Helvetica,sans-Serif" font-size="10.00">exception</text>
</g>
<!-- Node16&#45;&gt;Node17 -->
<g id="edge28" class="edge"><title>Node16&#45;&gt;Node17</title>
<path fill="none" stroke="midnightblue" d="M133.596,-123.083C140.227,-115.298 150.021,-103.801 158.058,-94.3665"/>
<polygon fill="midnightblue" stroke="midnightblue" points="160.725,-96.6332 164.545,-86.7511 155.396,-92.0939 160.725,-96.6332"/>
</g>
<!-- Node18&#45;&gt;Node2 -->
<g id="edge32" class="edge"><title>Node18&#45;&gt;Node2</title>
<path fill="none" stroke="midnightblue" d="M469.878,-124.32C421.645,-114.066 336.687,-96.0044 288.343,-85.7264"/>
<polygon fill="midnightblue" stroke="midnightblue" points="288.831,-82.252 278.321,-83.5959 287.375,-89.099 288.831,-82.252"/>
</g>
<!-- Node18&#45;&gt;Node5 -->
<g id="edge33" class="edge"><title>Node18&#45;&gt;Node5</title>
<path fill="none" stroke="midnightblue" d="M513.396,-123.185C525.926,-108.887 552.828,-80.85 582,-67 663.194,-28.452 695.356,-58.2679 781,-31 782.674,-30.4671 784.374,-29.8639 786.073,-29.2138"/>
<polygon fill="midnightblue" stroke="midnightblue" points="787.772,-32.2939 795.586,-25.1395 785.016,-25.8592 787.772,-32.2939"/>
</g>
<!-- Node18&#45;&gt;Node6 -->
<g id="edge34" class="edge"><title>Node18&#45;&gt;Node6</title>
<path fill="none" stroke="midnightblue" d="M537.374,-123.444C571.263,-114.201 625.403,-99.4356 662.724,-89.2572"/>
<polygon fill="midnightblue" stroke="midnightblue" points="664.046,-92.5243 672.773,-86.5164 662.205,-85.771 664.046,-92.5243"/>
</g>
<!-- Node18&#45;&gt;Node10 -->
<g id="edge35" class="edge"><title>Node18&#45;&gt;Node10</title>
<path fill="none" stroke="midnightblue" d="M505.009,-123.083C504.214,-115.927 503.071,-105.635 502.077,-96.6911"/>
<polygon fill="midnightblue" stroke="midnightblue" points="505.555,-96.3034 500.972,-86.7511 498.598,-97.0765 505.555,-96.3034"/>
</g>
<!-- Node18&#45;&gt;Node11 -->
<g id="edge31" class="edge"><title>Node18&#45;&gt;Node11</title>
<path fill="none" stroke="midnightblue" d="M496.314,-123.438C480.72,-109.99 448.683,-83.7307 418,-67 378.358,-45.3843 364.695,-48.3265 323,-31 321.627,-30.4295 320.226,-29.8362 318.813,-29.2296"/>
<polygon fill="midnightblue" stroke="midnightblue" points="320.088,-25.9667 309.526,-25.1342 317.264,-32.3716 320.088,-25.9667"/>
</g>
<!-- Node19&#45;&gt;Node2 -->
<g id="edge40" class="edge"><title>Node19&#45;&gt;Node2</title>
<path fill="none" stroke="midnightblue" d="M279.646,-179.368C274.783,-161.537 263.535,-120.295 256.983,-96.2717"/>
<polygon fill="midnightblue" stroke="midnightblue" points="260.351,-95.3181 254.343,-86.5914 253.598,-97.16 260.351,-95.3181"/>
</g>
<!-- Node19&#45;&gt;Node3 -->
<g id="edge41" class="edge"><title>Node19&#45;&gt;Node3</title>
<path fill="none" stroke="midnightblue" d="M247.692,-186.109C191.813,-182.234 85.0481,-171.24 62,-143 40.6423,-116.832 52.3605,-99.3731 62,-67 65.7146,-54.5249 73.6001,-42.2604 80.7313,-32.9422"/>
<polygon fill="midnightblue" stroke="midnightblue" points="83.5927,-34.9706 87.1766,-25.0003 78.1574,-30.5596 83.5927,-34.9706"/>
</g>
<!-- Node19&#45;&gt;Node10 -->
<g id="edge42" class="edge"><title>Node19&#45;&gt;Node10</title>
<path fill="none" stroke="midnightblue" d="M299.106,-179.368C337.072,-160.211 428.584,-114.036 473.806,-91.2172"/>
<polygon fill="midnightblue" stroke="midnightblue" points="475.622,-94.2211 482.973,-86.5914 472.469,-87.9716 475.622,-94.2211"/>
</g>
<!-- Node19&#45;&gt;Node18 -->
<g id="edge43" class="edge"><title>Node19&#45;&gt;Node18</title>
<path fill="none" stroke="midnightblue" d="M316.021,-179.799C354.658,-170.484 417.875,-155.244 460.671,-144.927"/>
<polygon fill="midnightblue" stroke="midnightblue" points="461.646,-148.293 470.547,-142.547 460.005,-141.488 461.646,-148.293"/>
</g>
</g>
</svg>
        <g id="navigator" transform="translate(0 0)" fill="#404254">
                <rect fill="#f2f5e9" fill-opacity="0.5" stroke="#606060" stroke-width=".5" x="0" y="0" width="60" height="60"/>
                <use id="zoomplus" xlink:href="#zoomPlus" x="17" y="9" onmousedown="handleZoom(evt,'in')"/>
                <use id="zoomminus" xlink:href="#zoomMin" x="42" y="9" onmousedown="handleZoom(evt,'out')"/>
                <use id="reset" xlink:href="#resetDef" x="30" y="36" onmousedown="handleReset()"/>
                <g id="arrowUp" xlink:href="#dirArrow" transform="translate(30 24)" onmousedown="handlePan(0,-1)">
                  <use xlink:href="#rim" fill="#404040">
                        <set attributeName="fill" to="#808080" begin="arrowUp.mouseover" end="arrowUp.mouseout"/>
                  </use>
                  <path fill="none" stroke="white" stroke-width="1.5" d="M0,-3.0v7 M-2.5,-0.5L0,-3.0L2.5,-0.5"/>
                </g>
                <g id="arrowRight" xlink:href="#dirArrow" transform="rotate(90) translate(36 -43)" onmousedown="handlePan(1,0)">
                  <use xlink:href="#rim" fill="#404040">
                        <set attributeName="fill" to="#808080" begin="arrowRight.mouseover" end="arrowRight.mouseout"/>
                  </use>
                  <path fill="none" stroke="white" stroke-width="1.5" d="M0,-3.0v7 M-2.5,-0.5L0,-3.0L2.5,-0.5"/>
                </g>
                <g id="arrowDown" xlink:href="#dirArrow" transform="rotate(180) translate(-30 -48)" onmousedown="handlePan(0,1)">
                  <use xlink:href="#rim" fill="#404040">
                        <set attributeName="fill" to="#808080" begin="arrowDown.mouseover" end="arrowDown.mouseout"/>
                  </use>
                  <path fill="none" stroke="white" stroke-width="1.5" d="M0,-3.0v7 M-2.5,-0.5L0,-3.0L2.5,-0.5"/>
                </g>
                <g id="arrowLeft" xlink:href="#dirArrow" transform="rotate(270) translate(-36 17)" onmousedown="handlePan(-1,0)">
                  <use xlink:href="#rim" fill="#404040">
                        <set attributeName="fill" to="#808080" begin="arrowLeft.mouseover" end="arrowLeft.mouseout"/>
                  </use>
                  <path fill="none" stroke="white" stroke-width="1.5" d="M0,-3.0v7 M-2.5,-0.5L0,-3.0L2.5,-0.5"/>
                </g>
        </g>
        <svg viewBox="0 0 15 15" width="100%" height="30px" preserveAspectRatio="xMaxYMin meet">
         <g id="arrow_out" transform="scale(0.3 0.3)">
          <a xlink:href="fault__tree_8h__incl_org.svg" target="_base">
           <rect id="button" ry="5" rx="5" y="6" x="6" height="38" width="38"
                fill="#f2f5e9" fill-opacity="0.5" stroke="#606060" stroke-width="1.0"/>
           <path id="arrow"
             d="M 11.500037,31.436501 C 11.940474,20.09759 22.043105,11.32322 32.158766,21.979434 L 37.068811,17.246167 C 37.068811,17.246167 37.088388,32 37.088388,32 L 22.160133,31.978069 C 22.160133,31.978069 26.997745,27.140456 26.997745,27.140456 C 18.528582,18.264221 13.291696,25.230495 11.500037,31.436501 z"
             style="fill:#404040;"/>
          </a>
         </g>
        </svg>
</svg>
