<?xml version="1.0" encoding="UTF-8" standalone="no"?>
<!DOCTYPE svg PUBLIC "-//W3C//DTD SVG 1.1//EN"
 "http://www.w3.org/Graphics/SVG/1.1/DTD/svg11.dtd">
<!-- Generated by graphviz version 2.38.0 (20140413.2041)
 -->
<!-- Title: fault_tree_analysis.h Pages: 1 -->
<!--zoomable 352 -->
<svg id="main" version="1.1" xmlns="http://www.w3.org/2000/svg" xmlns:xlink="http://www.w3.org/1999/xlink" xml:space="preserve" onload="init(evt)">
<style type="text/css"><![CDATA[
.edge:hover path { stroke: red; }
.edge:hover polygon { stroke: red; fill: red; }
]]></style>
<script type="text/javascript"><![CDATA[
var edges = document.getElementsByTagName('g');
if (edges && edges.length) {
  for (var i=0;i<edges.length;i++) {
    if (edges[i].id.substr(0,4)=='edge') {
      edges[i].setAttribute('class','edge');
    }
  }
}
]]></script>
        <defs>
                <circle id="rim" cx="0" cy="0" r="7"/>
                <circle id="rim2" cx="0" cy="0" r="3.5"/>
                <g id="zoomPlus">
                        <use xlink:href="#rim" fill="#404040">
                                <set attributeName="fill" to="#808080" begin="zoomplus.mouseover" end="zoomplus.mouseout"/>
                        </use>
                        <path d="M-4,0h8M0,-4v8" fill="none" stroke="white" stroke-width="1.5" pointer-events="none"/>
                </g>
                <g id="zoomMin">
                        <use xlink:href="#rim" fill="#404040">
                                <set attributeName="fill" to="#808080" begin="zoomminus.mouseover" end="zoomminus.mouseout"/>
                        </use>
                        <path d="M-4,0h8" fill="none" stroke="white" stroke-width="1.5" pointer-events="none"/>
                </g>
                <g id="dirArrow">
                        <path fill="none" stroke="white" stroke-width="1.5" d="M0,-3.0v7 M-2.5,-0.5L0,-3.0L2.5,-0.5"/>
                </g>
               <g id="resetDef">
                       <use xlink:href="#rim2" fill="#404040">
                               <set attributeName="fill" to="#808080" begin="reset.mouseover" end="reset.mouseout"/>
                       </use>
               </g>
        </defs>

<script type="text/javascript">
var viewWidth = 2016;
var viewHeight = 352;
var sectionId = 'dynsection-0';
</script>
<script xlink:href="svgpan.js"/>
<svg id="graph" class="graph">
<g id="viewport">
<title>fault_tree_analysis.h</title>
<polygon fill="white" stroke="none" points="-4,4 -4,-348 2011.99,-348 2011.99,4 -4,4"/>
<!-- Node1 -->
<g id="node1" class="node"><title>Node1</title>
<polygon fill="#bfbfbf" stroke="black" points="566.493,-324.5 566.493,-343.5 673.493,-343.5 673.493,-324.5 566.493,-324.5"/>
<text text-anchor="middle" x="619.993" y="-331.5" font-family="Helvetica,sans-Serif" font-size="10.00">fault_tree_analysis.h</text>
</g>
<!-- Node2 -->
<g id="node2" class="node"><title>Node2</title>
<polygon fill="white" stroke="#bfbfbf" points="72.4932,-62 72.4932,-81 117.493,-81 117.493,-62 72.4932,-62"/>
<text text-anchor="middle" x="94.9932" y="-69" font-family="Helvetica,sans-Serif" font-size="10.00">cstdlib</text>
</g>
<!-- Node1&#45;&gt;Node2 -->
<g id="edge1" class="edge"><title>Node1&#45;&gt;Node2</title>
<path fill="none" stroke="midnightblue" d="M566.273,-331.394C515.765,-327.98 439.27,-317.796 379.993,-288 322.668,-259.185 324.54,-229.517 273.993,-190 221.258,-148.772 154.147,-107.408 118.975,-86.4976"/>
<polygon fill="midnightblue" stroke="midnightblue" points="120.331,-83.2331 109.941,-81.1593 116.77,-89.2597 120.331,-83.2331"/>
</g>
<!-- Node3 -->
<g id="node3" class="node"><title>Node3</title>
<polygon fill="white" stroke="#bfbfbf" points="1629.99,-62 1629.99,-81 1681.99,-81 1681.99,-62 1629.99,-62"/>
<text text-anchor="middle" x="1655.99" y="-69" font-family="Helvetica,sans-Serif" font-size="10.00">memory</text>
</g>
<!-- Node1&#45;&gt;Node3 -->
<g id="edge2" class="edge"><title>Node1&#45;&gt;Node3</title>
<path fill="none" stroke="midnightblue" d="M673.861,-332.467C905.632,-329.624 1809.97,-312.685 1892.99,-221 1922.23,-188.712 1921.41,-156.846 1893.99,-123 1869.04,-92.1924 1752.7,-79.4117 1692.42,-74.786"/>
<polygon fill="midnightblue" stroke="midnightblue" points="1692.43,-71.2774 1682.2,-74.0388 1691.92,-78.2588 1692.43,-71.2774"/>
</g>
<!-- Node4 -->
<g id="node4" class="node"><title>Node4</title>
<polygon fill="white" stroke="#bfbfbf" points="388.993,-263 388.993,-282 466.993,-282 466.993,-263 388.993,-263"/>
<text text-anchor="middle" x="427.993" y="-270" font-family="Helvetica,sans-Serif" font-size="10.00">unordered_set</text>
</g>
<!-- Node1&#45;&gt;Node4 -->
<g id="edge3" class="edge"><title>Node1&#45;&gt;Node4</title>
<path fill="none" stroke="midnightblue" d="M592.484,-324.475C559.122,-314.136 502.731,-296.661 465.431,-285.102"/>
<polygon fill="midnightblue" stroke="midnightblue" points="466.039,-281.626 455.451,-282.009 463.967,-288.312 466.039,-281.626"/>
</g>
<!-- Node5 -->
<g id="node5" class="node"><title>Node5</title>
<polygon fill="white" stroke="#bfbfbf" points="1104.99,-0.5 1104.99,-19.5 1148.99,-19.5 1148.99,-0.5 1104.99,-0.5"/>
<text text-anchor="middle" x="1126.99" y="-7.5" font-family="Helvetica,sans-Serif" font-size="10.00">vector</text>
</g>
<!-- Node1&#45;&gt;Node5 -->
<g id="edge4" class="edge"><title>Node1&#45;&gt;Node5</title>
<path fill="none" stroke="midnightblue" d="M673.6,-332.481C865.211,-330.365 1515.68,-320.873 1720.99,-288 1851.92,-267.036 2007.99,-339.099 2007.99,-206.5 2007.99,-206.5 2007.99,-206.5 2007.99,-137.5 2007.99,-38.2124 1896.89,-77.6775 1799.99,-56 1675.6,-28.1702 1276.07,-15.1301 1159.32,-11.8514"/>
<polygon fill="midnightblue" stroke="midnightblue" points="1159.32,-8.35026 1149.23,-11.5728 1159.13,-15.3476 1159.32,-8.35026"/>
</g>
<!-- Node6 -->
<g id="node6" class="node"><title>Node6</title>
<polygon fill="white" stroke="#bfbfbf" points="561.493,-190.5 561.493,-220.5 668.493,-220.5 668.493,-190.5 561.493,-190.5"/>
<text text-anchor="start" x="569.493" y="-208.5" font-family="Helvetica,sans-Serif" font-size="10.00">boost/iterator/iterator</text>
<text text-anchor="middle" x="614.993" y="-197.5" font-family="Helvetica,sans-Serif" font-size="10.00">_facade.hpp</text>
</g>
<!-- Node1&#45;&gt;Node6 -->
<g id="edge5" class="edge"><title>Node1&#45;&gt;Node6</title>
<path fill="none" stroke="midnightblue" d="M643.447,-324.408C659.154,-317.28 678.612,-305.458 687.993,-288 694.515,-275.864 694.39,-269.203 687.993,-257 681.2,-244.04 669.403,-233.746 657.249,-225.924"/>
<polygon fill="midnightblue" stroke="midnightblue" points="658.786,-222.766 648.402,-220.662 655.208,-228.782 658.786,-222.766"/>
</g>
<!-- Node7 -->
<g id="node7" class="node"><title>Node7</title>
<polygon fill="white" stroke="#bfbfbf" points="560.993,-257.5 560.993,-287.5 678.993,-287.5 678.993,-257.5 560.993,-257.5"/>
<text text-anchor="start" x="568.993" y="-275.5" font-family="Helvetica,sans-Serif" font-size="10.00">boost/iterator/transform</text>
<text text-anchor="middle" x="619.993" y="-264.5" font-family="Helvetica,sans-Serif" font-size="10.00">_iterator.hpp</text>
</g>
<!-- Node1&#45;&gt;Node7 -->
<g id="edge6" class="edge"><title>Node1&#45;&gt;Node7</title>
<path fill="none" stroke="midnightblue" d="M619.993,-324.475C619.993,-317.471 619.993,-307.192 619.993,-297.696"/>
<polygon fill="midnightblue" stroke="midnightblue" points="623.493,-297.523 619.993,-287.523 616.493,-297.523 623.493,-297.523"/>
</g>
<!-- Node8 -->
<g id="node8" class="node"><title>Node8</title>
<g id="a_node8"><a xlink:href="analysis_8h.xhtml" target="_top" xlink:title="Common facilities for all analysis classes. ">
<polygon fill="white" stroke="black" points="204.493,-196 204.493,-215 265.493,-215 265.493,-196 204.493,-196"/>
<text text-anchor="middle" x="234.993" y="-203" font-family="Helvetica,sans-Serif" font-size="10.00">analysis.h</text>
</a>
</g>
</g>
<!-- Node1&#45;&gt;Node8 -->
<g id="edge7" class="edge"><title>Node1&#45;&gt;Node8</title>
<path fill="none" stroke="midnightblue" d="M566.199,-331.689C482.36,-328.698 325.421,-319.009 279.993,-288 258.131,-273.077 245.824,-243.894 239.794,-224.802"/>
<polygon fill="midnightblue" stroke="midnightblue" points="243.144,-223.786 237.007,-215.15 236.419,-225.729 243.144,-223.786"/>
</g>
<!-- Node12 -->
<g id="node12" class="node"><title>Node12</title>
<g id="a_node12"><a xlink:href="settings_8h.xhtml" target="_top" xlink:title="Builder for settings. ">
<polygon fill="white" stroke="black" points="322.493,-129 322.493,-148 381.493,-148 381.493,-129 322.493,-129"/>
<text text-anchor="middle" x="351.993" y="-136" font-family="Helvetica,sans-Serif" font-size="10.00">settings.h</text>
</a>
</g>
</g>
<!-- Node1&#45;&gt;Node12 -->
<g id="edge46" class="edge"><title>Node1&#45;&gt;Node12</title>
<path fill="none" stroke="midnightblue" d="M601.162,-324.342C583.531,-315.936 556.72,-302.368 534.993,-288 469.831,-244.906 400.07,-183.486 368.819,-155.05"/>
<polygon fill="midnightblue" stroke="midnightblue" points="371.134,-152.424 361.395,-148.253 366.408,-157.587 371.134,-152.424"/>
</g>
<!-- Node14 -->
<g id="node14" class="node"><title>Node14</title>
<g id="a_node14"><a xlink:href="pdag_8h.xhtml" target="_top" xlink:title="Classes and facilities to represent fault trees as PDAGs with event and gate indices instead of ID na...">
<polygon fill="white" stroke="black" points="616.993,-129 616.993,-148 662.993,-148 662.993,-129 616.993,-129"/>
<text text-anchor="middle" x="639.993" y="-136" font-family="Helvetica,sans-Serif" font-size="10.00">pdag.h</text>
</a>
</g>
</g>
<!-- Node1&#45;&gt;Node14 -->
<g id="edge14" class="edge"><title>Node1&#45;&gt;Node14</title>
<path fill="none" stroke="midnightblue" d="M596.539,-324.408C580.832,-317.28 561.375,-305.458 551.993,-288 531.376,-249.633 530.166,-227.692 551.993,-190 563.849,-169.527 587.487,-156.636 607.28,-149.006"/>
<polygon fill="midnightblue" stroke="midnightblue" points="608.661,-152.23 616.908,-145.579 606.314,-145.635 608.661,-152.23"/>
</g>
<!-- Node26 -->
<g id="node26" class="node"><title>Node26</title>
<g id="a_node26"><a xlink:href="preprocessor_8h.xhtml" target="_top" xlink:title="A collection of PDAG transformation/preprocessing algorithms that simplify fault trees for analysis...">
<polygon fill="white" stroke="black" points="884.493,-196 884.493,-215 965.493,-215 965.493,-196 884.493,-196"/>
<text text-anchor="middle" x="924.993" y="-203" font-family="Helvetica,sans-Serif" font-size="10.00">preprocessor.h</text>
</a>
</g>
</g>
<!-- Node1&#45;&gt;Node26 -->
<g id="edge37" class="edge"><title>Node1&#45;&gt;Node26</title>
<path fill="none" stroke="midnightblue" d="M640.957,-324.305C693.865,-302.361 832.973,-244.666 894.721,-219.056"/>
<polygon fill="midnightblue" stroke="midnightblue" points="896.39,-222.153 904.286,-215.088 893.708,-215.687 896.39,-222.153"/>
</g>
<!-- Node29 -->
<g id="node29" class="node"><title>Node29</title>
<g id="a_node29"><a xlink:href="zbdd_8h.xhtml" target="_top" xlink:title="Zero&#45;Suppressed Binary Decision Diagram facilities. ">
<polygon fill="white" stroke="black" points="1252.99,-263 1252.99,-282 1298.99,-282 1298.99,-263 1252.99,-263"/>
<text text-anchor="middle" x="1275.99" y="-270" font-family="Helvetica,sans-Serif" font-size="10.00">zbdd.h</text>
</a>
</g>
</g>
<!-- Node1&#45;&gt;Node29 -->
<g id="edge47" class="edge"><title>Node1&#45;&gt;Node29</title>
<path fill="none" stroke="midnightblue" d="M673.676,-328.131C804.438,-316.271 1136.49,-286.153 1242.75,-276.515"/>
<polygon fill="midnightblue" stroke="midnightblue" points="1243.24,-279.985 1252.88,-275.596 1242.61,-273.014 1243.24,-279.985"/>
</g>
<!-- Node9 -->
<g id="node9" class="node"><title>Node9</title>
<polygon fill="white" stroke="#bfbfbf" points="9.49322,-0.5 9.49322,-19.5 58.4932,-19.5 58.4932,-0.5 9.49322,-0.5"/>
<text text-anchor="middle" x="33.9932" y="-7.5" font-family="Helvetica,sans-Serif" font-size="10.00">cassert</text>
</g>
<!-- Node8&#45;&gt;Node9 -->
<g id="edge8" class="edge"><title>Node8&#45;&gt;Node9</title>
<path fill="none" stroke="midnightblue" d="M204.335,-199.82C151.625,-189.896 45.4945,-161.225 3.99322,-87 -6.87117,-67.5692 6.85942,-43.4001 19.1127,-27.6046"/>
<polygon fill="midnightblue" stroke="midnightblue" points="21.9162,-29.7069 25.6025,-19.774 16.5266,-25.2401 21.9162,-29.7069"/>
</g>
<!-- Node10 -->
<g id="node10" class="node"><title>Node10</title>
<polygon fill="white" stroke="#bfbfbf" points="13.4932,-62 13.4932,-81 54.4932,-81 54.4932,-62 13.4932,-62"/>
<text text-anchor="middle" x="33.9932" y="-69" font-family="Helvetica,sans-Serif" font-size="10.00">string</text>
</g>
<!-- Node8&#45;&gt;Node10 -->
<g id="edge9" class="edge"><title>Node8&#45;&gt;Node10</title>
<path fill="none" stroke="midnightblue" d="M221.805,-195.839C187.865,-173.55 97.2504,-114.042 55.546,-86.6541"/>
<polygon fill="midnightblue" stroke="midnightblue" points="57.2486,-83.585 46.9686,-81.0212 53.4061,-89.4361 57.2486,-83.585"/>
</g>
<!-- Node11 -->
<g id="node11" class="node"><title>Node11</title>
<polygon fill="white" stroke="#bfbfbf" points="981.493,-62 981.493,-81 1098.49,-81 1098.49,-62 981.493,-62"/>
<text text-anchor="middle" x="1039.99" y="-69" font-family="Helvetica,sans-Serif" font-size="10.00">boost/noncopyable.hpp</text>
</g>
<!-- Node8&#45;&gt;Node11 -->
<g id="edge10" class="edge"><title>Node8&#45;&gt;Node11</title>
<path fill="none" stroke="midnightblue" d="M265.715,-203.188C352.557,-199.129 598.298,-185.13 671.993,-154 692.071,-145.519 690.007,-131.696 709.993,-123 817.77,-76.1025 856.216,-107.27 971.993,-87 978.624,-85.8391 985.592,-84.496 992.437,-83.105"/>
<polygon fill="midnightblue" stroke="midnightblue" points="993.245,-86.5119 1002.32,-81.0486 991.82,-79.6586 993.245,-86.5119"/>
</g>
<!-- Node8&#45;&gt;Node12 -->
<g id="edge11" class="edge"><title>Node8&#45;&gt;Node12</title>
<path fill="none" stroke="midnightblue" d="M250.772,-195.734C270.508,-184.769 304.508,-165.881 327.604,-153.049"/>
<polygon fill="midnightblue" stroke="midnightblue" points="329.422,-156.043 336.464,-148.127 326.023,-149.924 329.422,-156.043"/>
</g>
<!-- Node12&#45;&gt;Node10 -->
<g id="edge13" class="edge"><title>Node12&#45;&gt;Node10</title>
<path fill="none" stroke="midnightblue" d="M322.178,-135.163C268.976,-130.365 154.664,-117.208 62.9932,-87 61.376,-86.4671 59.736,-85.8576 58.1013,-85.1972"/>
<polygon fill="midnightblue" stroke="midnightblue" points="59.5406,-82.0069 48.9905,-81.0348 56.6317,-88.3739 59.5406,-82.0069"/>
</g>
<!-- Node13 -->
<g id="node13" class="node"><title>Node13</title>
<polygon fill="white" stroke="#bfbfbf" points="135.993,-62 135.993,-81 181.993,-81 181.993,-62 135.993,-62"/>
<text text-anchor="middle" x="158.993" y="-69" font-family="Helvetica,sans-Serif" font-size="10.00">cstdint</text>
</g>
<!-- Node12&#45;&gt;Node13 -->
<g id="edge12" class="edge"><title>Node12&#45;&gt;Node13</title>
<path fill="none" stroke="midnightblue" d="M326.428,-128.98C320.39,-126.994 313.971,-124.904 307.993,-123 256.154,-106.485 241.874,-106.266 190.993,-87 189.385,-86.3912 187.744,-85.7406 186.095,-85.0649"/>
<polygon fill="midnightblue" stroke="midnightblue" points="187.333,-81.787 176.764,-81.0353 184.557,-88.2133 187.333,-81.787"/>
</g>
<!-- Node14&#45;&gt;Node2 -->
<g id="edge16" class="edge"><title>Node14&#45;&gt;Node2</title>
<path fill="none" stroke="midnightblue" d="M616.874,-136.23C529.782,-131.288 221.649,-112.362 126.993,-87 124.839,-86.4228 122.648,-85.7148 120.473,-84.925"/>
<polygon fill="midnightblue" stroke="midnightblue" points="121.799,-81.6856 111.22,-81.0916 119.119,-88.1526 121.799,-81.6856"/>
</g>
<!-- Node14&#45;&gt;Node3 -->
<g id="edge19" class="edge"><title>Node14&#45;&gt;Node3</title>
<path fill="none" stroke="midnightblue" d="M663.178,-131.78C676.739,-128.665 694.239,-125.04 709.993,-123 890.981,-99.5603 1469.09,-78.8092 1619.79,-73.7002"/>
<polygon fill="midnightblue" stroke="midnightblue" points="1620.02,-77.1947 1629.89,-73.3595 1619.78,-70.1987 1620.02,-77.1947"/>
</g>
<!-- Node14&#45;&gt;Node5 -->
<g id="edge22" class="edge"><title>Node14&#45;&gt;Node5</title>
<path fill="none" stroke="midnightblue" d="M661.471,-128.952C666.549,-126.968 671.953,-124.885 676.993,-123 687.378,-119.116 854.267,-58.81 864.993,-56 946.517,-34.6424 1045.04,-20.858 1094.84,-14.7093"/>
<polygon fill="midnightblue" stroke="midnightblue" points="1095.48,-18.1572 1104.98,-13.4792 1094.64,-11.2081 1095.48,-18.1572"/>
</g>
<!-- Node14&#45;&gt;Node11 -->
<g id="edge24" class="edge"><title>Node14&#45;&gt;Node11</title>
<path fill="none" stroke="midnightblue" d="M659.278,-128.884C664.895,-126.665 671.107,-124.487 676.993,-123 805.053,-90.6464 841.72,-108.794 971.993,-87 978.712,-85.8759 985.774,-84.5427 992.7,-83.1473"/>
<polygon fill="midnightblue" stroke="midnightblue" points="993.614,-86.5322 1002.7,-81.0753 992.194,-79.678 993.614,-86.5322"/>
</g>
<!-- Node14&#45;&gt;Node13 -->
<g id="edge15" class="edge"><title>Node14&#45;&gt;Node13</title>
<path fill="none" stroke="midnightblue" d="M621.123,-128.904C615.406,-126.631 609.039,-124.418 602.993,-123 424.038,-81.0372 368.798,-133.597 190.993,-87 188.836,-86.4347 186.642,-85.735 184.466,-84.951"/>
<polygon fill="midnightblue" stroke="midnightblue" points="185.79,-81.7108 175.211,-81.1283 183.117,-88.1807 185.79,-81.7108"/>
</g>
<!-- Node15 -->
<g id="node15" class="node"><title>Node15</title>
<polygon fill="white" stroke="#bfbfbf" points="292.993,-0.5 292.993,-19.5 348.993,-19.5 348.993,-0.5 292.993,-0.5"/>
<text text-anchor="middle" x="320.993" y="-7.5" font-family="Helvetica,sans-Serif" font-size="10.00">algorithm</text>
</g>
<!-- Node14&#45;&gt;Node15 -->
<g id="edge17" class="edge"><title>Node14&#45;&gt;Node15</title>
<path fill="none" stroke="midnightblue" d="M620.696,-128.933C615.078,-126.716 608.87,-124.526 602.993,-123 545.257,-108.011 380.683,-127.612 336.993,-87 321.439,-72.5411 318.967,-47.1064 319.368,-29.6742"/>
<polygon fill="midnightblue" stroke="midnightblue" points="322.869,-29.7513 319.938,-19.5701 315.881,-29.3572 322.869,-29.7513"/>
</g>
<!-- Node16 -->
<g id="node16" class="node"><title>Node16</title>
<polygon fill="white" stroke="#bfbfbf" points="346.493,-62 346.493,-81 391.493,-81 391.493,-62 346.493,-62"/>
<text text-anchor="middle" x="368.993" y="-69" font-family="Helvetica,sans-Serif" font-size="10.00">iosfwd</text>
</g>
<!-- Node14&#45;&gt;Node16 -->
<g id="edge18" class="edge"><title>Node14&#45;&gt;Node16</title>
<path fill="none" stroke="midnightblue" d="M620.269,-128.941C614.753,-126.776 608.704,-124.611 602.993,-123 515.226,-98.243 488.088,-114.028 400.993,-87 399.115,-86.417 397.201,-85.7508 395.292,-85.0315"/>
<polygon fill="midnightblue" stroke="midnightblue" points="396.535,-81.7574 385.958,-81.1336 393.837,-88.2168 396.535,-81.7574"/>
</g>
<!-- Node17 -->
<g id="node17" class="node"><title>Node17</title>
<polygon fill="white" stroke="#bfbfbf" points="1155.49,-62 1155.49,-81 1238.49,-81 1238.49,-62 1155.49,-62"/>
<text text-anchor="middle" x="1196.99" y="-69" font-family="Helvetica,sans-Serif" font-size="10.00">unordered_map</text>
</g>
<!-- Node14&#45;&gt;Node17 -->
<g id="edge20" class="edge"><title>Node14&#45;&gt;Node17</title>
<path fill="none" stroke="midnightblue" d="M663.208,-131.999C676.78,-128.957 694.28,-125.332 709.993,-123 885.242,-96.9897 931.209,-109.103 1106.99,-87 1119.51,-85.4264 1132.95,-83.4273 1145.54,-81.4202"/>
<polygon fill="midnightblue" stroke="midnightblue" points="1146.1,-84.8747 1155.41,-79.8167 1144.98,-77.9652 1146.1,-84.8747"/>
</g>
<!-- Node18 -->
<g id="node18" class="node"><title>Node18</title>
<polygon fill="white" stroke="#bfbfbf" points="768.993,-0.5 768.993,-19.5 808.993,-19.5 808.993,-0.5 768.993,-0.5"/>
<text text-anchor="middle" x="788.993" y="-7.5" font-family="Helvetica,sans-Serif" font-size="10.00">utility</text>
</g>
<!-- Node14&#45;&gt;Node18 -->
<g id="edge21" class="edge"><title>Node14&#45;&gt;Node18</title>
<path fill="none" stroke="midnightblue" d="M660.717,-128.956C690.881,-116.389 744.058,-93.6855 750.993,-87 767.547,-71.043 778.029,-46.3452 783.697,-29.4647"/>
<polygon fill="midnightblue" stroke="midnightblue" points="787.115,-30.2593 786.742,-19.671 780.431,-28.181 787.115,-30.2593"/>
</g>
<!-- Node19 -->
<g id="node19" class="node"><title>Node19</title>
<polygon fill="white" stroke="#bfbfbf" points="409.993,-56.5 409.993,-86.5 509.993,-86.5 509.993,-56.5 409.993,-56.5"/>
<text text-anchor="start" x="417.993" y="-74.5" font-family="Helvetica,sans-Serif" font-size="10.00">boost/container/flat</text>
<text text-anchor="middle" x="459.993" y="-63.5" font-family="Helvetica,sans-Serif" font-size="10.00">_set.hpp</text>
</g>
<!-- Node14&#45;&gt;Node19 -->
<g id="edge23" class="edge"><title>Node14&#45;&gt;Node19</title>
<path fill="none" stroke="midnightblue" d="M618.519,-128.942C613.441,-126.958 608.036,-124.878 602.993,-123 572.558,-111.666 538.252,-99.5297 510.872,-89.9957"/>
<polygon fill="midnightblue" stroke="midnightblue" points="511.713,-86.5827 501.118,-86.6073 509.415,-93.195 511.713,-86.5827"/>
</g>
<!-- Node20 -->
<g id="node20" class="node"><title>Node20</title>
<polygon fill="white" stroke="#bfbfbf" points="528.493,-56.5 528.493,-86.5 631.493,-86.5 631.493,-56.5 528.493,-56.5"/>
<text text-anchor="start" x="536.493" y="-74.5" font-family="Helvetica,sans-Serif" font-size="10.00">boost/range/adaptor</text>
<text text-anchor="middle" x="579.993" y="-63.5" font-family="Helvetica,sans-Serif" font-size="10.00">/transformed.hpp</text>
</g>
<!-- Node14&#45;&gt;Node20 -->
<g id="edge25" class="edge"><title>Node14&#45;&gt;Node20</title>
<path fill="none" stroke="midnightblue" d="M631.901,-128.734C623.715,-119.865 610.742,-105.811 599.814,-93.9722"/>
<polygon fill="midnightblue" stroke="midnightblue" points="602.353,-91.5631 592.998,-86.589 597.209,-96.3111 602.353,-91.5631"/>
</g>
<!-- Node21 -->
<g id="node21" class="node"><title>Node21</title>
<g id="a_node21"><a xlink:href="find__iterator_8h.xhtml" target="_top" xlink:title="Convenience iterator adaptor to wrap find calls and results. ">
<polygon fill="white" stroke="black" points="649.993,-62 649.993,-81 741.993,-81 741.993,-62 649.993,-62"/>
<text text-anchor="middle" x="695.993" y="-69" font-family="Helvetica,sans-Serif" font-size="10.00">ext/find_iterator.h</text>
</a>
</g>
</g>
<!-- Node14&#45;&gt;Node21 -->
<g id="edge26" class="edge"><title>Node14&#45;&gt;Node21</title>
<path fill="none" stroke="midnightblue" d="M647.546,-128.734C656.278,-118.598 670.845,-101.69 681.73,-89.0556"/>
<polygon fill="midnightblue" stroke="midnightblue" points="684.685,-90.9879 688.56,-81.1273 679.382,-86.4189 684.685,-90.9879"/>
</g>
<!-- Node22 -->
<g id="node22" class="node"><title>Node22</title>
<g id="a_node22"><a xlink:href="index__map_8h.xhtml" target="_top" xlink:title="Non&#45;zero based Index&#45;&gt;Value map adapter on sequential containers. ">
<polygon fill="white" stroke="black" points="874.493,-62 874.493,-81 963.493,-81 963.493,-62 874.493,-62"/>
<text text-anchor="middle" x="918.993" y="-69" font-family="Helvetica,sans-Serif" font-size="10.00">ext/index_map.h</text>
</a>
</g>
</g>
<!-- Node14&#45;&gt;Node22 -->
<g id="edge28" class="edge"><title>Node14&#45;&gt;Node22</title>
<path fill="none" stroke="midnightblue" d="M660.122,-128.857C665.534,-126.742 671.43,-124.623 676.993,-123 756.568,-99.7842 779.056,-104.896 859.993,-87 865.014,-85.8898 870.262,-84.6766 875.469,-83.44"/>
<polygon fill="midnightblue" stroke="midnightblue" points="876.46,-86.8013 885.36,-81.0537 874.818,-79.9966 876.46,-86.8013"/>
</g>
<!-- Node23 -->
<g id="node23" class="node"><title>Node23</title>
<g id="a_node23"><a xlink:href="linear__map_8h.xhtml" target="_top" xlink:title="Implementation of a vector&#45;based map for a small number of entries. ">
<polygon fill="white" stroke="black" points="200.493,-62 200.493,-81 289.493,-81 289.493,-62 200.493,-62"/>
<text text-anchor="middle" x="244.993" y="-69" font-family="Helvetica,sans-Serif" font-size="10.00">ext/linear_map.h</text>
</a>
</g>
</g>
<!-- Node14&#45;&gt;Node23 -->
<g id="edge30" class="edge"><title>Node14&#45;&gt;Node23</title>
<path fill="none" stroke="midnightblue" d="M620.71,-128.877C615.093,-126.659 608.881,-124.482 602.993,-123 473.196,-90.3185 435.67,-111.016 303.993,-87 298.416,-85.9827 292.579,-84.7534 286.839,-83.446"/>
<polygon fill="midnightblue" stroke="midnightblue" points="287.224,-79.9402 276.686,-81.0371 285.608,-86.7511 287.224,-79.9402"/>
</g>
<!-- Node21&#45;&gt;Node18 -->
<g id="edge27" class="edge"><title>Node21&#45;&gt;Node18</title>
<path fill="none" stroke="midnightblue" d="M709.318,-61.9751C724.373,-52.3431 749.109,-36.5175 767.03,-25.0517"/>
<polygon fill="midnightblue" stroke="midnightblue" points="769.156,-27.8466 775.693,-19.5091 765.383,-21.9501 769.156,-27.8466"/>
</g>
<!-- Node22&#45;&gt;Node5 -->
<g id="edge29" class="edge"><title>Node22&#45;&gt;Node5</title>
<path fill="none" stroke="midnightblue" d="M948.795,-61.9751C987.649,-50.8605 1055.33,-31.4986 1095.16,-20.1053"/>
<polygon fill="midnightblue" stroke="midnightblue" points="1096.24,-23.4371 1104.89,-17.3218 1094.32,-16.7071 1096.24,-23.4371"/>
</g>
<!-- Node23&#45;&gt;Node5 -->
<g id="edge35" class="edge"><title>Node23&#45;&gt;Node5</title>
<path fill="none" stroke="midnightblue" d="M289.797,-62.5235C304.763,-60.1038 321.559,-57.6518 336.993,-56 630.166,-24.6254 987.045,-14.2287 1094.74,-11.6877"/>
<polygon fill="midnightblue" stroke="midnightblue" points="1095.02,-15.1822 1104.94,-11.4532 1094.86,-8.18403 1095.02,-15.1822"/>
</g>
<!-- Node23&#45;&gt;Node9 -->
<g id="edge31" class="edge"><title>Node23&#45;&gt;Node9</title>
<path fill="none" stroke="midnightblue" d="M214.762,-61.9751C175.999,-51.0442 108.948,-32.1366 68.3094,-20.6768"/>
<polygon fill="midnightblue" stroke="midnightblue" points="69.1544,-17.2787 58.5798,-17.9332 67.2545,-24.0159 69.1544,-17.2787"/>
</g>
<!-- Node23&#45;&gt;Node15 -->
<g id="edge32" class="edge"><title>Node23&#45;&gt;Node15</title>
<path fill="none" stroke="midnightblue" d="M255.882,-61.9751C267.959,-52.5199 287.66,-37.0961 302.233,-25.6871"/>
<polygon fill="midnightblue" stroke="midnightblue" points="304.408,-28.4295 310.124,-19.5091 300.093,-22.9177 304.408,-28.4295"/>
</g>
<!-- Node23&#45;&gt;Node18 -->
<g id="edge36" class="edge"><title>Node23&#45;&gt;Node18</title>
<path fill="none" stroke="midnightblue" d="M289.842,-62.9059C304.811,-60.5116 321.597,-57.978 336.993,-56 495.089,-35.6884 685.306,-19.3984 758.368,-13.4415"/>
<polygon fill="midnightblue" stroke="midnightblue" points="758.989,-16.9028 768.673,-12.6066 758.423,-9.92562 758.989,-16.9028"/>
</g>
<!-- Node24 -->
<g id="node24" class="node"><title>Node24</title>
<polygon fill="white" stroke="#bfbfbf" points="124.493,-0.5 124.493,-19.5 197.493,-19.5 197.493,-0.5 124.493,-0.5"/>
<text text-anchor="middle" x="160.993" y="-7.5" font-family="Helvetica,sans-Serif" font-size="10.00">initializer_list</text>
</g>
<!-- Node23&#45;&gt;Node24 -->
<g id="edge33" class="edge"><title>Node23&#45;&gt;Node24</title>
<path fill="none" stroke="midnightblue" d="M232.958,-61.9751C219.485,-52.4315 197.427,-36.8073 181.278,-25.3683"/>
<polygon fill="midnightblue" stroke="midnightblue" points="183.189,-22.4332 173.006,-19.5091 179.143,-28.1454 183.189,-22.4332"/>
</g>
<!-- Node25 -->
<g id="node25" class="node"><title>Node25</title>
<polygon fill="white" stroke="#bfbfbf" points="215.493,-0.5 215.493,-19.5 274.493,-19.5 274.493,-0.5 215.493,-0.5"/>
<text text-anchor="middle" x="244.993" y="-7.5" font-family="Helvetica,sans-Serif" font-size="10.00">stdexcept</text>
</g>
<!-- Node23&#45;&gt;Node25 -->
<g id="edge34" class="edge"><title>Node23&#45;&gt;Node25</title>
<path fill="none" stroke="midnightblue" d="M244.993,-61.9751C244.993,-53.5803 244.993,-40.4806 244.993,-29.6631"/>
<polygon fill="midnightblue" stroke="midnightblue" points="248.493,-29.5091 244.993,-19.5091 241.493,-29.5091 248.493,-29.5091"/>
</g>
<!-- Node26&#45;&gt;Node3 -->
<g id="edge38" class="edge"><title>Node26&#45;&gt;Node3</title>
<path fill="none" stroke="midnightblue" d="M965.625,-196.722C1042.8,-181.992 1215.95,-149.161 1361.99,-123 1454.66,-106.401 1563.97,-87.9117 1619.56,-78.5867"/>
<polygon fill="midnightblue" stroke="midnightblue" points="1620.33,-82.0056 1629.62,-76.9009 1619.18,-75.1018 1620.33,-82.0056"/>
</g>
<!-- Node26&#45;&gt;Node5 -->
<g id="edge42" class="edge"><title>Node26&#45;&gt;Node5</title>
<path fill="none" stroke="midnightblue" d="M934.946,-195.938C953.447,-180.269 994.735,-146.436 1032.99,-123 1064.18,-103.895 1083.78,-115.262 1106.99,-87 1120.36,-70.7245 1124.88,-46.4414 1126.36,-29.7267"/>
<polygon fill="midnightblue" stroke="midnightblue" points="1129.87,-29.7475 1126.97,-19.5556 1122.88,-29.3277 1129.87,-29.7475"/>
</g>
<!-- Node26&#45;&gt;Node11 -->
<g id="edge43" class="edge"><title>Node26&#45;&gt;Node11</title>
<path fill="none" stroke="midnightblue" d="M931.075,-195.576C941.716,-180.185 964.706,-147.907 986.993,-123 998.204,-110.471 1011.98,-97.4066 1022.68,-87.7052"/>
<polygon fill="midnightblue" stroke="midnightblue" points="1025.05,-90.283 1030.16,-81.0065 1020.38,-85.0663 1025.05,-90.283"/>
</g>
<!-- Node26&#45;&gt;Node14 -->
<g id="edge45" class="edge"><title>Node26&#45;&gt;Node14</title>
<path fill="none" stroke="midnightblue" d="M887.441,-195.936C831.326,-183.137 726.489,-159.227 673.09,-147.048"/>
<polygon fill="midnightblue" stroke="midnightblue" points="673.653,-143.587 663.125,-144.776 672.097,-150.412 673.653,-143.587"/>
</g>
<!-- Node26&#45;&gt;Node17 -->
<g id="edge40" class="edge"><title>Node26&#45;&gt;Node17</title>
<path fill="none" stroke="midnightblue" d="M942.84,-195.839C989.445,-173.222 1115.01,-112.284 1170.27,-85.4668"/>
<polygon fill="midnightblue" stroke="midnightblue" points="1171.97,-88.536 1179.43,-81.0212 1168.91,-82.2384 1171.97,-88.536"/>
</g>
<!-- Node26&#45;&gt;Node18 -->
<g id="edge41" class="edge"><title>Node26&#45;&gt;Node18</title>
<path fill="none" stroke="midnightblue" d="M924.525,-195.778C923.34,-180.141 919.209,-146.752 904.993,-123 892.71,-102.477 882.344,-103.462 864.993,-87 843.552,-66.6579 819.55,-42.3944 804.363,-26.849"/>
<polygon fill="midnightblue" stroke="midnightblue" points="806.77,-24.3035 797.285,-19.5814 801.755,-29.1873 806.77,-24.3035"/>
</g>
<!-- Node27 -->
<g id="node27" class="node"><title>Node27</title>
<polygon fill="white" stroke="#bfbfbf" points="718.993,-129 718.993,-148 748.993,-148 748.993,-129 718.993,-129"/>
<text text-anchor="middle" x="733.993" y="-136" font-family="Helvetica,sans-Serif" font-size="10.00">set</text>
</g>
<!-- Node26&#45;&gt;Node27 -->
<g id="edge39" class="edge"><title>Node26&#45;&gt;Node27</title>
<path fill="none" stroke="midnightblue" d="M887.218,-195.95C852.725,-187.477 800.751,-173.021 757.993,-154 757.293,-153.688 756.588,-153.36 755.881,-153.019"/>
<polygon fill="midnightblue" stroke="midnightblue" points="757.33,-149.822 746.877,-148.09 753.969,-155.962 757.33,-149.822"/>
</g>
<!-- Node28 -->
<g id="node28" class="node"><title>Node28</title>
<polygon fill="white" stroke="#bfbfbf" points="767.493,-129 767.493,-148 896.493,-148 896.493,-129 767.493,-129"/>
<text text-anchor="middle" x="831.993" y="-136" font-family="Helvetica,sans-Serif" font-size="10.00">boost/unordered_map.hpp</text>
</g>
<!-- Node26&#45;&gt;Node28 -->
<g id="edge44" class="edge"><title>Node26&#45;&gt;Node28</title>
<path fill="none" stroke="midnightblue" d="M912.451,-195.734C897.112,-185.013 870.934,-166.716 852.616,-153.914"/>
<polygon fill="midnightblue" stroke="midnightblue" points="854.538,-150.987 844.337,-148.127 850.528,-156.725 854.538,-150.987"/>
</g>
<!-- Node29&#45;&gt;Node3 -->
<g id="edge51" class="edge"><title>Node29&#45;&gt;Node3</title>
<path fill="none" stroke="midnightblue" d="M1299.2,-270.708C1400.22,-266.731 1799.83,-245.343 1874.99,-154 1926.04,-91.9716 1767.09,-77.1395 1692.47,-73.6028"/>
<polygon fill="midnightblue" stroke="midnightblue" points="1692.25,-70.0901 1682.11,-73.1587 1691.95,-77.0837 1692.25,-70.0901"/>
</g>
<!-- Node29&#45;&gt;Node5 -->
<g id="edge54" class="edge"><title>Node29&#45;&gt;Node5</title>
<path fill="none" stroke="midnightblue" d="M1299.13,-271.4C1406.37,-270.703 1851.69,-265.151 1892.99,-221 1922.75,-189.189 1918.88,-158.749 1893.99,-123 1844.98,-52.6 1796.79,-74.3496 1712.99,-56 1505.63,-10.59 1248.29,-9.2672 1159.15,-10.3652"/>
<polygon fill="midnightblue" stroke="midnightblue" points="1159.08,-6.86576 1149.13,-10.5083 1159.18,-13.865 1159.08,-6.86576"/>
</g>
<!-- Node29&#45;&gt;Node6 -->
<g id="edge56" class="edge"><title>Node29&#45;&gt;Node6</title>
<path fill="none" stroke="midnightblue" d="M1252.98,-270.577C1173.52,-267.172 903.494,-253.767 682.993,-221 681.538,-220.784 680.067,-220.555 678.586,-220.316"/>
<polygon fill="midnightblue" stroke="midnightblue" points="679.153,-216.862 668.702,-218.601 677.957,-223.759 679.153,-216.862"/>
</g>
<!-- Node29&#45;&gt;Node11 -->
<g id="edge57" class="edge"><title>Node29&#45;&gt;Node11</title>
<path fill="none" stroke="midnightblue" d="M1261.51,-262.851C1245.85,-253.282 1220.4,-237.079 1199.99,-221 1143.64,-176.598 1083.13,-116.658 1055.44,-88.4419"/>
<polygon fill="midnightblue" stroke="midnightblue" points="1057.72,-85.7694 1048.23,-81.0591 1052.71,-90.6595 1057.72,-85.7694"/>
</g>
<!-- Node29&#45;&gt;Node13 -->
<g id="edge48" class="edge"><title>Node29&#45;&gt;Node13</title>
<path fill="none" stroke="midnightblue" d="M1252.85,-269.192C1191.21,-262.915 1017.99,-244.417 874.993,-221 657.972,-185.459 605.982,-164.354 389.993,-123 301.717,-106.098 276.8,-113.751 190.993,-87 189.115,-86.4146 187.203,-85.7465 185.294,-85.0259"/>
<polygon fill="midnightblue" stroke="midnightblue" points="186.537,-81.7521 175.961,-81.1249 183.838,-88.2107 186.537,-81.7521"/>
</g>
<!-- Node29&#45;&gt;Node17 -->
<g id="edge52" class="edge"><title>Node29&#45;&gt;Node17</title>
<path fill="none" stroke="midnightblue" d="M1259.77,-262.854C1245.42,-254.27 1225.21,-239.702 1214.99,-221 1192.13,-179.149 1192.81,-120.934 1195.01,-91.3615"/>
<polygon fill="midnightblue" stroke="midnightblue" points="1198.52,-91.4767 1195.92,-81.2045 1191.55,-90.8527 1198.52,-91.4767"/>
</g>
<!-- Node29&#45;&gt;Node18 -->
<g id="edge53" class="edge"><title>Node29&#45;&gt;Node18</title>
<path fill="none" stroke="midnightblue" d="M1278.08,-262.894C1285.41,-230.302 1306.49,-113.402 1246.99,-56 1216.2,-26.2907 916.239,-14.7924 819.148,-11.8306"/>
<polygon fill="midnightblue" stroke="midnightblue" points="819.209,-8.33096 809.11,-11.533 819.001,-15.3279 819.209,-8.33096"/>
</g>
<!-- Node30 -->
<g id="node30" class="node"><title>Node30</title>
<polygon fill="white" stroke="#bfbfbf" points="1400.99,-196 1400.99,-215 1438.99,-215 1438.99,-196 1400.99,-196"/>
<text text-anchor="middle" x="1419.99" y="-203" font-family="Helvetica,sans-Serif" font-size="10.00">array</text>
</g>
<!-- Node29&#45;&gt;Node30 -->
<g id="edge49" class="edge"><title>Node29&#45;&gt;Node30</title>
<path fill="none" stroke="midnightblue" d="M1295.12,-262.869C1319.75,-251.748 1362.8,-232.317 1391.35,-219.429"/>
<polygon fill="midnightblue" stroke="midnightblue" points="1393.12,-222.471 1400.79,-215.167 1390.24,-216.091 1393.12,-222.471"/>
</g>
<!-- Node31 -->
<g id="node31" class="node"><title>Node31</title>
<polygon fill="white" stroke="#bfbfbf" points="1849.49,-196 1849.49,-215 1884.49,-215 1884.49,-196 1849.49,-196"/>
<text text-anchor="middle" x="1866.99" y="-203" font-family="Helvetica,sans-Serif" font-size="10.00">map</text>
</g>
<!-- Node29&#45;&gt;Node31 -->
<g id="edge50" class="edge"><title>Node29&#45;&gt;Node31</title>
<path fill="none" stroke="midnightblue" d="M1299.27,-270.436C1391.47,-266.061 1731.11,-248.387 1834.99,-221 1837.15,-220.431 1839.34,-219.73 1841.52,-218.944"/>
<polygon fill="midnightblue" stroke="midnightblue" points="1842.87,-222.173 1850.77,-215.118 1840.19,-215.704 1842.87,-222.173"/>
</g>
<!-- Node32 -->
<g id="node32" class="node"><title>Node32</title>
<polygon fill="white" stroke="#bfbfbf" points="1737.99,-129 1737.99,-148 1865.99,-148 1865.99,-129 1737.99,-129"/>
<text text-anchor="middle" x="1801.99" y="-136" font-family="Helvetica,sans-Serif" font-size="10.00">boost/functional/hash.hpp</text>
</g>
<!-- Node29&#45;&gt;Node32 -->
<g id="edge55" class="edge"><title>Node29&#45;&gt;Node32</title>
<path fill="none" stroke="midnightblue" d="M1289.88,-262.929C1305.5,-253.167 1331.49,-236.55 1352.99,-221 1370.94,-208.026 1371.51,-198.414 1391.99,-190 1529.28,-133.598 1577.15,-175.579 1723.99,-154 1732.13,-152.804 1740.72,-151.377 1749.1,-149.892"/>
<polygon fill="midnightblue" stroke="midnightblue" points="1749.96,-153.292 1759.18,-148.063 1748.71,-146.405 1749.96,-153.292"/>
</g>
<!-- Node33 -->
<g id="node33" class="node"><title>Node33</title>
<g id="a_node33"><a xlink:href="bdd_8h.xhtml" target="_top" xlink:title="Fault tree analysis with the Binary Decision Diagram algorithms. ">
<polygon fill="white" stroke="black" points="1303.49,-196 1303.49,-215 1344.49,-215 1344.49,-196 1303.49,-196"/>
<text text-anchor="middle" x="1323.99" y="-203" font-family="Helvetica,sans-Serif" font-size="10.00">bdd.h</text>
</a>
</g>
</g>
<!-- Node29&#45;&gt;Node33 -->
<g id="edge58" class="edge"><title>Node29&#45;&gt;Node33</title>
<path fill="none" stroke="midnightblue" d="M1282.47,-262.734C1289.88,-252.695 1302.2,-236.014 1311.5,-223.421"/>
<polygon fill="midnightblue" stroke="midnightblue" points="1314.5,-225.251 1317.62,-215.127 1308.87,-221.092 1314.5,-225.251"/>
</g>
<!-- Node33&#45;&gt;Node3 -->
<g id="edge62" class="edge"><title>Node33&#45;&gt;Node3</title>
<path fill="none" stroke="midnightblue" d="M1342.2,-195.867C1347.51,-193.648 1353.4,-191.474 1358.99,-190 1422.43,-173.293 1607.34,-202.053 1651.99,-154 1667.48,-137.336 1665.11,-109.51 1661.19,-91.0819"/>
<polygon fill="midnightblue" stroke="midnightblue" points="1664.56,-90.1104 1658.77,-81.2393 1657.76,-91.7865 1664.56,-90.1104"/>
</g>
<!-- Node33&#45;&gt;Node5 -->
<g id="edge65" class="edge"><title>Node33&#45;&gt;Node5</title>
<path fill="none" stroke="midnightblue" d="M1336.49,-195.899C1340.34,-193.625 1344.7,-191.413 1348.99,-190 1417.59,-167.399 1616.88,-200.678 1671.99,-154 1705.85,-125.326 1721.09,-88.5956 1690.99,-56 1654.8,-16.8058 1273.88,-11.7265 1159.37,-11.0869"/>
<polygon fill="midnightblue" stroke="midnightblue" points="1159.16,-7.58594 1149.14,-11.0379 1159.13,-14.5859 1159.16,-7.58594"/>
</g>
<!-- Node33&#45;&gt;Node11 -->
<g id="edge67" class="edge"><title>Node33&#45;&gt;Node11</title>
<path fill="none" stroke="midnightblue" d="M1305.36,-195.839C1256.6,-173.175 1125.05,-112.031 1067.53,-85.3007"/>
<polygon fill="midnightblue" stroke="midnightblue" points="1068.87,-82.0622 1058.33,-81.0212 1065.92,-88.41 1068.87,-82.0622"/>
</g>
<!-- Node33&#45;&gt;Node12 -->
<g id="edge70" class="edge"><title>Node33&#45;&gt;Node12</title>
<path fill="none" stroke="midnightblue" d="M1303.24,-203.112C1181.15,-194.948 556.126,-153.151 391.68,-142.154"/>
<polygon fill="midnightblue" stroke="midnightblue" points="391.735,-138.65 381.524,-141.475 391.268,-145.634 391.735,-138.65"/>
</g>
<!-- Node33&#45;&gt;Node14 -->
<g id="edge69" class="edge"><title>Node33&#45;&gt;Node14</title>
<path fill="none" stroke="midnightblue" d="M1303.49,-203.724C1225.7,-200.587 941.569,-187.38 709.993,-154 697.955,-152.265 684.875,-149.733 673.316,-147.269"/>
<polygon fill="midnightblue" stroke="midnightblue" points="673.718,-143.774 663.201,-145.05 672.218,-150.612 673.718,-143.774"/>
</g>
<!-- Node33&#45;&gt;Node15 -->
<g id="edge60" class="edge"><title>Node33&#45;&gt;Node15</title>
<path fill="none" stroke="midnightblue" d="M1322.54,-195.794C1317.61,-169.269 1298.81,-89.2494 1246.99,-56 1209.09,-31.6816 529.672,-15.4891 359.428,-11.8019"/>
<polygon fill="midnightblue" stroke="midnightblue" points="359.488,-8.30246 349.415,-11.5868 359.337,-15.3008 359.488,-8.30246"/>
</g>
<!-- Node33&#45;&gt;Node17 -->
<g id="edge63" class="edge"><title>Node33&#45;&gt;Node17</title>
<path fill="none" stroke="midnightblue" d="M1315.66,-195.839C1294.67,-174.018 1239.35,-116.526 1212.31,-88.4221"/>
<polygon fill="midnightblue" stroke="midnightblue" points="1214.65,-85.8008 1205.19,-81.0212 1209.6,-90.6541 1214.65,-85.8008"/>
</g>
<!-- Node33&#45;&gt;Node18 -->
<g id="edge64" class="edge"><title>Node33&#45;&gt;Node18</title>
<path fill="none" stroke="midnightblue" d="M1327.18,-195.643C1335.77,-170.04 1356.31,-95.27 1318.99,-56 1284.44,-19.6354 926.716,-12.5826 819.317,-11.2812"/>
<polygon fill="midnightblue" stroke="midnightblue" points="819.199,-7.77973 809.16,-11.1665 819.12,-14.7793 819.199,-7.77973"/>
</g>
<!-- Node33&#45;&gt;Node32 -->
<g id="edge66" class="edge"><title>Node33&#45;&gt;Node32</title>
<path fill="none" stroke="midnightblue" d="M1341.81,-195.931C1347.22,-193.658 1353.25,-191.439 1358.99,-190 1517.11,-150.376 1562.6,-176.917 1723.99,-154 1732.32,-152.817 1741.12,-151.373 1749.69,-149.859"/>
<polygon fill="midnightblue" stroke="midnightblue" points="1750.38,-153.291 1759.6,-148.063 1749.13,-146.403 1750.38,-153.291"/>
</g>
<!-- Node34 -->
<g id="node34" class="node"><title>Node34</title>
<polygon fill="white" stroke="#bfbfbf" points="1513.99,-129 1513.99,-148 1557.99,-148 1557.99,-129 1513.99,-129"/>
<text text-anchor="middle" x="1535.99" y="-136" font-family="Helvetica,sans-Serif" font-size="10.00">cmath</text>
</g>
<!-- Node33&#45;&gt;Node34 -->
<g id="edge59" class="edge"><title>Node33&#45;&gt;Node34</title>
<path fill="none" stroke="midnightblue" d="M1343.05,-195.993C1348.17,-193.877 1353.74,-191.724 1358.99,-190 1422.49,-169.151 1441.98,-176.265 1504.99,-154 1506.61,-153.428 1508.26,-152.801 1509.91,-152.139"/>
<polygon fill="midnightblue" stroke="midnightblue" points="1511.42,-155.296 1519.19,-148.089 1508.62,-148.88 1511.42,-155.296"/>
</g>
<!-- Node35 -->
<g id="node35" class="node"><title>Node35</title>
<polygon fill="white" stroke="#bfbfbf" points="1576.49,-129 1576.49,-148 1643.49,-148 1643.49,-129 1576.49,-129"/>
<text text-anchor="middle" x="1609.99" y="-136" font-family="Helvetica,sans-Serif" font-size="10.00">forward_list</text>
</g>
<!-- Node33&#45;&gt;Node35 -->
<g id="edge61" class="edge"><title>Node33&#45;&gt;Node35</title>
<path fill="none" stroke="midnightblue" d="M1342.61,-195.893C1347.83,-193.727 1353.56,-191.574 1358.99,-190 1449.1,-163.886 1476.05,-177.057 1566.99,-154 1570.2,-153.187 1573.51,-152.25 1576.81,-151.252"/>
<polygon fill="midnightblue" stroke="midnightblue" points="1578.08,-154.522 1586.53,-148.138 1575.94,-147.856 1578.08,-154.522"/>
</g>
<!-- Node36 -->
<g id="node36" class="node"><title>Node36</title>
<polygon fill="white" stroke="#bfbfbf" points="1371.49,-123.5 1371.49,-153.5 1496.49,-153.5 1496.49,-123.5 1371.49,-123.5"/>
<text text-anchor="start" x="1379.49" y="-141.5" font-family="Helvetica,sans-Serif" font-size="10.00">boost/smart_ptr/intrusive</text>
<text text-anchor="middle" x="1433.99" y="-130.5" font-family="Helvetica,sans-Serif" font-size="10.00">_ptr.hpp</text>
</g>
<!-- Node33&#45;&gt;Node36 -->
<g id="edge68" class="edge"><title>Node33&#45;&gt;Node36</title>
<path fill="none" stroke="midnightblue" d="M1338.83,-195.734C1354.77,-186.316 1380.6,-171.051 1401.33,-158.801"/>
<polygon fill="midnightblue" stroke="midnightblue" points="1403.32,-161.69 1410.15,-153.589 1399.76,-155.663 1403.32,-161.69"/>
</g>
</g>
</svg>
        <g id="navigator" transform="translate(0 0)" fill="#404254">
                <rect fill="#f2f5e9" fill-opacity="0.5" stroke="#606060" stroke-width=".5" x="0" y="0" width="60" height="60"/>
                <use id="zoomplus" xlink:href="#zoomPlus" x="17" y="9" onmousedown="handleZoom(evt,'in')"/>
                <use id="zoomminus" xlink:href="#zoomMin" x="42" y="9" onmousedown="handleZoom(evt,'out')"/>
                <use id="reset" xlink:href="#resetDef" x="30" y="36" onmousedown="handleReset()"/>
                <g id="arrowUp" xlink:href="#dirArrow" transform="translate(30 24)" onmousedown="handlePan(0,-1)">
                  <use xlink:href="#rim" fill="#404040">
                        <set attributeName="fill" to="#808080" begin="arrowUp.mouseover" end="arrowUp.mouseout"/>
                  </use>
                  <path fill="none" stroke="white" stroke-width="1.5" d="M0,-3.0v7 M-2.5,-0.5L0,-3.0L2.5,-0.5"/>
                </g>
                <g id="arrowRight" xlink:href="#dirArrow" transform="rotate(90) translate(36 -43)" onmousedown="handlePan(1,0)">
                  <use xlink:href="#rim" fill="#404040">
                        <set attributeName="fill" to="#808080" begin="arrowRight.mouseover" end="arrowRight.mouseout"/>
                  </use>
                  <path fill="none" stroke="white" stroke-width="1.5" d="M0,-3.0v7 M-2.5,-0.5L0,-3.0L2.5,-0.5"/>
                </g>
                <g id="arrowDown" xlink:href="#dirArrow" transform="rotate(180) translate(-30 -48)" onmousedown="handlePan(0,1)">
                  <use xlink:href="#rim" fill="#404040">
                        <set attributeName="fill" to="#808080" begin="arrowDown.mouseover" end="arrowDown.mouseout"/>
                  </use>
                  <path fill="none" stroke="white" stroke-width="1.5" d="M0,-3.0v7 M-2.5,-0.5L0,-3.0L2.5,-0.5"/>
                </g>
                <g id="arrowLeft" xlink:href="#dirArrow" transform="rotate(270) translate(-36 17)" onmousedown="handlePan(-1,0)">
                  <use xlink:href="#rim" fill="#404040">
                        <set attributeName="fill" to="#808080" begin="arrowLeft.mouseover" end="arrowLeft.mouseout"/>
                  </use>
                  <path fill="none" stroke="white" stroke-width="1.5" d="M0,-3.0v7 M-2.5,-0.5L0,-3.0L2.5,-0.5"/>
                </g>
        </g>
        <svg viewBox="0 0 15 15" width="100%" height="30px" preserveAspectRatio="xMaxYMin meet">
         <g id="arrow_out" transform="scale(0.3 0.3)">
          <a xlink:href="fault__tree__analysis_8h__incl_org.svg" target="_base">
           <rect id="button" ry="5" rx="5" y="6" x="6" height="38" width="38"
                fill="#f2f5e9" fill-opacity="0.5" stroke="#606060" stroke-width="1.0"/>
           <path id="arrow"
             d="M 11.500037,31.436501 C 11.940474,20.09759 22.043105,11.32322 32.158766,21.979434 L 37.068811,17.246167 C 37.068811,17.246167 37.088388,32 37.088388,32 L 22.160133,31.978069 C 22.160133,31.978069 26.997745,27.140456 26.997745,27.140456 C 18.528582,18.264221 13.291696,25.230495 11.500037,31.436501 z"
             style="fill:#404040;"/>
          </a>
         </g>
        </svg>
</svg>
