<?xml version="1.0" encoding="UTF-8" standalone="no"?>
<!DOCTYPE svg PUBLIC "-//W3C//DTD SVG 1.1//EN"
 "http://www.w3.org/Graphics/SVG/1.1/DTD/svg11.dtd">
<!-- Generated by graphviz version 2.38.0 (20140413.2041)
 -->
<!-- Title: find_iterator.h Pages: 1 -->
<!--zoomable 532 -->
<svg id="main" version="1.1" xmlns="http://www.w3.org/2000/svg" xmlns:xlink="http://www.w3.org/1999/xlink" xml:space="preserve" onload="init(evt)">
<style type="text/css"><![CDATA[
.edge:hover path { stroke: red; }
.edge:hover polygon { stroke: red; fill: red; }
]]></style>
<script type="text/javascript"><![CDATA[
var edges = document.getElementsByTagName('g');
if (edges && edges.length) {
  for (var i=0;i<edges.length;i++) {
    if (edges[i].id.substr(0,4)=='edge') {
      edges[i].setAttribute('class','edge');
    }
  }
}
]]></script>
        <defs>
                <circle id="rim" cx="0" cy="0" r="7"/>
                <circle id="rim2" cx="0" cy="0" r="3.5"/>
                <g id="zoomPlus">
                        <use xlink:href="#rim" fill="#404040">
                                <set attributeName="fill" to="#808080" begin="zoomplus.mouseover" end="zoomplus.mouseout"/>
                        </use>
                        <path d="M-4,0h8M0,-4v8" fill="none" stroke="white" stroke-width="1.5" pointer-events="none"/>
                </g>
                <g id="zoomMin">
                        <use xlink:href="#rim" fill="#404040">
                                <set attributeName="fill" to="#808080" begin="zoomminus.mouseover" end="zoomminus.mouseout"/>
                        </use>
                        <path d="M-4,0h8" fill="none" stroke="white" stroke-width="1.5" pointer-events="none"/>
                </g>
                <g id="dirArrow">
                        <path fill="none" stroke="white" stroke-width="1.5" d="M0,-3.0v7 M-2.5,-0.5L0,-3.0L2.5,-0.5"/>
                </g>
               <g id="resetDef">
                       <use xlink:href="#rim2" fill="#404040">
                               <set attributeName="fill" to="#808080" begin="reset.mouseover" end="reset.mouseout"/>
                       </use>
               </g>
        </defs>

<script type="text/javascript">
var viewWidth = 788;
var viewHeight = 532;
var sectionId = 'dynsection-1';
</script>
<script xlink:href="svgpan.js"/>
<svg id="graph" class="graph">
<g id="viewport">
<title>find_iterator.h</title>
<polygon fill="white" stroke="none" points="-4,4 -4,-528 784.003,-528 784.003,4 -4,4"/>
<!-- Node1 -->
<g id="node1" class="node"><title>Node1</title>
<polygon fill="#bfbfbf" stroke="black" points="619.003,-504.5 619.003,-523.5 695.003,-523.5 695.003,-504.5 619.003,-504.5"/>
<text text-anchor="middle" x="657.003" y="-511.5" font-family="Helvetica,sans-Serif" font-size="10.00">find_iterator.h</text>
</g>
<!-- Node2 -->
<g id="node2" class="node"><title>Node2</title>
<g id="a_node2"><a xlink:href="pdag_8h.xhtml" target="_top" xlink:title="Classes and facilities to represent fault trees as PDAGs with event and gate indices instead of ID na...">
<polygon fill="white" stroke="black" points="356.003,-448.5 356.003,-467.5 402.003,-467.5 402.003,-448.5 356.003,-448.5"/>
<text text-anchor="middle" x="379.003" y="-455.5" font-family="Helvetica,sans-Serif" font-size="10.00">pdag.h</text>
</a>
</g>
</g>
<!-- Node1&#45;&gt;Node2 -->
<g id="edge1" class="edge"><title>Node1&#45;&gt;Node2</title>
<path fill="none" stroke="midnightblue" d="M608.87,-504.402C560.727,-495.684 484.605,-481.578 419.003,-468 413.566,-466.875 407.729,-465.6 402.24,-464.371"/>
<polygon fill="midnightblue" stroke="midnightblue" points="608.538,-507.898 619.001,-506.232 609.782,-501.01 608.538,-507.898"/>
</g>
<!-- Node4 -->
<g id="node4" class="node"><title>Node4</title>
<g id="a_node4"><a xlink:href="bdd_8cc.xhtml" target="_top" xlink:title="Implementation of BDD fault tree analysis algorithms. ">
<polygon fill="white" stroke="black" points="636.003,-280.5 636.003,-299.5 682.003,-299.5 682.003,-280.5 636.003,-280.5"/>
<text text-anchor="middle" x="659.003" y="-287.5" font-family="Helvetica,sans-Serif" font-size="10.00">bdd.cc</text>
</a>
</g>
</g>
<!-- Node1&#45;&gt;Node4 -->
<g id="edge44" class="edge"><title>Node1&#45;&gt;Node4</title>
<path fill="none" stroke="midnightblue" d="M657.171,-494.295C657.583,-448.644 658.626,-332.854 658.923,-299.884"/>
<polygon fill="midnightblue" stroke="midnightblue" points="653.672,-494.266 657.081,-504.297 660.671,-494.329 653.672,-494.266"/>
</g>
<!-- Node21 -->
<g id="node21" class="node"><title>Node21</title>
<g id="a_node21"><a xlink:href="zbdd_8cc.xhtml" target="_top" xlink:title="Implementation of Zero&#45;Suppressed BDD algorithms. ">
<polygon fill="white" stroke="black" points="700.503,-280.5 700.503,-299.5 751.503,-299.5 751.503,-280.5 700.503,-280.5"/>
<text text-anchor="middle" x="726.003" y="-287.5" font-family="Helvetica,sans-Serif" font-size="10.00">zbdd.cc</text>
</a>
</g>
</g>
<!-- Node1&#45;&gt;Node21 -->
<g id="edge47" class="edge"><title>Node1&#45;&gt;Node21</title>
<path fill="none" stroke="midnightblue" d="M663.193,-494.783C665.94,-486.609 669.182,-476.837 672.003,-468 692.516,-403.726 715.712,-325.796 723.386,-299.865"/>
<polygon fill="midnightblue" stroke="midnightblue" points="659.831,-493.8 659.944,-504.395 666.462,-496.042 659.831,-493.8"/>
</g>
<!-- Node23 -->
<g id="node23" class="node"><title>Node23</title>
<g id="a_node23"><a xlink:href="preprocessor_8cc.xhtml" target="_top" xlink:title="Implementation of preprocessing algorithms. ">
<polygon fill="white" stroke="black" points="254.003,-336.5 254.003,-355.5 340.003,-355.5 340.003,-336.5 254.003,-336.5"/>
<text text-anchor="middle" x="297.003" y="-343.5" font-family="Helvetica,sans-Serif" font-size="10.00">preprocessor.cc</text>
</a>
</g>
</g>
<!-- Node1&#45;&gt;Node23 -->
<g id="edge46" class="edge"><title>Node1&#45;&gt;Node23</title>
<path fill="none" stroke="midnightblue" d="M631.902,-499.61C588.066,-476.441 494.456,-427.908 413.003,-392 381.575,-378.145 344.439,-364.142 320.808,-355.519"/>
<polygon fill="midnightblue" stroke="midnightblue" points="630.492,-502.824 640.967,-504.416 633.771,-496.64 630.492,-502.824"/>
</g>
<!-- Node25 -->
<g id="node25" class="node"><title>Node25</title>
<g id="a_node25"><a xlink:href="model_8cc.xhtml" target="_top" xlink:title="Implementation of functions in Model class. ">
<polygon fill="white" stroke="black" points="723.003,-448.5 723.003,-467.5 779.003,-467.5 779.003,-448.5 723.003,-448.5"/>
<text text-anchor="middle" x="751.003" y="-455.5" font-family="Helvetica,sans-Serif" font-size="10.00">model.cc</text>
</a>
</g>
</g>
<!-- Node1&#45;&gt;Node25 -->
<g id="edge45" class="edge"><title>Node1&#45;&gt;Node25</title>
<path fill="none" stroke="midnightblue" d="M681.064,-499.177C698.362,-489.241 721.15,-476.149 735.938,-467.655"/>
<polygon fill="midnightblue" stroke="midnightblue" points="679.033,-496.308 672.106,-504.324 682.52,-502.378 679.033,-496.308"/>
</g>
<!-- Node3 -->
<g id="node3" class="node"><title>Node3</title>
<g id="a_node3"><a xlink:href="bdd_8h.xhtml" target="_top" xlink:title="Fault tree analysis with the Binary Decision Diagram algorithms. ">
<polygon fill="white" stroke="black" points="513.503,-392.5 513.503,-411.5 554.503,-411.5 554.503,-392.5 513.503,-392.5"/>
<text text-anchor="middle" x="534.003" y="-399.5" font-family="Helvetica,sans-Serif" font-size="10.00">bdd.h</text>
</a>
</g>
</g>
<!-- Node2&#45;&gt;Node3 -->
<g id="edge2" class="edge"><title>Node2&#45;&gt;Node3</title>
<path fill="none" stroke="midnightblue" d="M411.999,-445.504C442.592,-434.846 487.179,-419.313 513.126,-410.273"/>
<polygon fill="midnightblue" stroke="midnightblue" points="410.5,-442.32 402.208,-448.916 412.803,-448.931 410.5,-442.32"/>
</g>
<!-- Node6 -->
<g id="node6" class="node"><title>Node6</title>
<g id="a_node6"><a xlink:href="fault__tree__analysis_8h.xhtml" target="_top" xlink:title="Fault Tree Analysis. ">
<polygon fill="white" stroke="black" points="91.5028,-280.5 91.5028,-299.5 198.503,-299.5 198.503,-280.5 91.5028,-280.5"/>
<text text-anchor="middle" x="145.003" y="-287.5" font-family="Helvetica,sans-Serif" font-size="10.00">fault_tree_analysis.h</text>
</a>
</g>
</g>
<!-- Node2&#45;&gt;Node6 -->
<g id="edge37" class="edge"><title>Node2&#45;&gt;Node6</title>
<path fill="none" stroke="midnightblue" d="M345.916,-455.598C309.571,-452.483 251.17,-442.659 212.003,-412 173.052,-381.51 153.404,-321.74 147.214,-299.555"/>
<polygon fill="midnightblue" stroke="midnightblue" points="345.766,-459.096 355.995,-456.338 346.278,-452.115 345.766,-459.096"/>
</g>
<!-- Node8 -->
<g id="node8" class="node"><title>Node8</title>
<g id="a_node8"><a xlink:href="probability__analysis_8h.xhtml" target="_top" xlink:title="Contains functionality to do numerical analysis of probabilities. ">
<polygon fill="white" stroke="black" points="240.003,-224.5 240.003,-243.5 350.003,-243.5 350.003,-224.5 240.003,-224.5"/>
<text text-anchor="middle" x="295.003" y="-231.5" font-family="Helvetica,sans-Serif" font-size="10.00">probability_analysis.h</text>
</a>
</g>
</g>
<!-- Node2&#45;&gt;Node8 -->
<g id="edge41" class="edge"><title>Node2&#45;&gt;Node8</title>
<path fill="none" stroke="midnightblue" d="M345.692,-456.16C313.971,-453.369 267.786,-443.685 245.003,-412 205.296,-356.779 266.277,-270.916 287.884,-243.63"/>
<polygon fill="midnightblue" stroke="midnightblue" points="345.623,-459.664 355.841,-456.864 346.107,-452.68 345.623,-459.664"/>
</g>
<!-- Node19 -->
<g id="node19" class="node"><title>Node19</title>
<g id="a_node19"><a xlink:href="mocus_8h.xhtml" target="_top" xlink:title="Fault tree analysis with the MOCUS algorithm. ">
<polygon fill="white" stroke="black" points="450.003,-280.5 450.003,-299.5 504.003,-299.5 504.003,-280.5 450.003,-280.5"/>
<text text-anchor="middle" x="477.003" y="-287.5" font-family="Helvetica,sans-Serif" font-size="10.00">mocus.h</text>
</a>
</g>
</g>
<!-- Node2&#45;&gt;Node19 -->
<g id="edge42" class="edge"><title>Node2&#45;&gt;Node19</title>
<path fill="none" stroke="midnightblue" d="M392.459,-440.524C398.993,-432.201 406.76,-421.809 413.003,-412 438.65,-371.703 463.477,-320.092 472.961,-299.775"/>
<polygon fill="midnightblue" stroke="midnightblue" points="389.723,-438.341 386.212,-448.338 395.19,-442.713 389.723,-438.341"/>
</g>
<!-- Node22 -->
<g id="node22" class="node"><title>Node22</title>
<g id="a_node22"><a xlink:href="preprocessor_8h.xhtml" target="_top" xlink:title="A collection of PDAG transformation/preprocessing algorithms that simplify fault trees for analysis...">
<polygon fill="white" stroke="black" points="254.503,-392.5 254.503,-411.5 335.503,-411.5 335.503,-392.5 254.503,-392.5"/>
<text text-anchor="middle" x="295.003" y="-399.5" font-family="Helvetica,sans-Serif" font-size="10.00">preprocessor.h</text>
</a>
</g>
</g>
<!-- Node2&#45;&gt;Node22 -->
<g id="edge38" class="edge"><title>Node2&#45;&gt;Node22</title>
<path fill="none" stroke="midnightblue" d="M357.07,-442.901C341.667,-432.999 321.557,-420.071 308.465,-411.655"/>
<polygon fill="midnightblue" stroke="midnightblue" points="355.202,-445.86 365.507,-448.324 358.988,-439.972 355.202,-445.86"/>
</g>
<!-- Node24 -->
<g id="node24" class="node"><title>Node24</title>
<g id="a_node24"><a xlink:href="pdag_8cc.xhtml" target="_top" xlink:title="Implementation of a Propositional Directed Acyclic Graph with indexed nodes, variables, and gates. ">
<polygon fill="white" stroke="black" points="353.503,-392.5 353.503,-411.5 404.503,-411.5 404.503,-392.5 353.503,-392.5"/>
<text text-anchor="middle" x="379.003" y="-399.5" font-family="Helvetica,sans-Serif" font-size="10.00">pdag.cc</text>
</a>
</g>
</g>
<!-- Node2&#45;&gt;Node24 -->
<g id="edge43" class="edge"><title>Node2&#45;&gt;Node24</title>
<path fill="none" stroke="midnightblue" d="M379.003,-437.805C379.003,-428.91 379.003,-418.78 379.003,-411.751"/>
<polygon fill="midnightblue" stroke="midnightblue" points="375.503,-438.083 379.003,-448.083 382.503,-438.083 375.503,-438.083"/>
</g>
<!-- Node3&#45;&gt;Node4 -->
<g id="edge3" class="edge"><title>Node3&#45;&gt;Node4</title>
<path fill="none" stroke="midnightblue" d="M553.424,-386.006C564.344,-377.424 578.126,-366.338 590.003,-356 612.347,-336.551 637.382,-312.317 650.278,-299.642"/>
<polygon fill="midnightblue" stroke="midnightblue" points="551.102,-383.378 545.371,-392.289 555.408,-388.897 551.102,-383.378"/>
</g>
<!-- Node5 -->
<g id="node5" class="node"><title>Node5</title>
<g id="a_node5"><a xlink:href="zbdd_8h.xhtml" target="_top" xlink:title="Zero&#45;Suppressed Binary Decision Diagram facilities. ">
<polygon fill="white" stroke="black" points="535.003,-336.5 535.003,-355.5 581.003,-355.5 581.003,-336.5 535.003,-336.5"/>
<text text-anchor="middle" x="558.003" y="-343.5" font-family="Helvetica,sans-Serif" font-size="10.00">zbdd.h</text>
</a>
</g>
</g>
<!-- Node3&#45;&gt;Node5 -->
<g id="edge4" class="edge"><title>Node3&#45;&gt;Node5</title>
<path fill="none" stroke="midnightblue" d="M542.141,-382.69C546.185,-373.589 550.885,-363.014 554.113,-355.751"/>
<polygon fill="midnightblue" stroke="midnightblue" points="538.829,-381.523 537.966,-392.083 545.226,-384.366 538.829,-381.523"/>
</g>
<!-- Node3&#45;&gt;Node8 -->
<g id="edge35" class="edge"><title>Node3&#45;&gt;Node8</title>
<path fill="none" stroke="midnightblue" d="M503.909,-390.924C482.422,-383.042 453.316,-370.929 430.003,-356 375.932,-321.375 322.31,-265.098 302.757,-243.663"/>
<polygon fill="midnightblue" stroke="midnightblue" points="502.897,-394.279 513.491,-394.345 505.25,-387.687 502.897,-394.279"/>
</g>
<!-- Node9 -->
<g id="node9" class="node"><title>Node9</title>
<g id="a_node9"><a xlink:href="importance__analysis_8h.xhtml" target="_top" xlink:title="Contains functionality to do numerical analysis of importance factors. ">
<polygon fill="white" stroke="black" points="256.003,-168.5 256.003,-187.5 370.003,-187.5 370.003,-168.5 256.003,-168.5"/>
<text text-anchor="middle" x="313.003" y="-175.5" font-family="Helvetica,sans-Serif" font-size="10.00">importance_analysis.h</text>
</a>
</g>
</g>
<!-- Node3&#45;&gt;Node9 -->
<g id="edge34" class="edge"><title>Node3&#45;&gt;Node9</title>
<path fill="none" stroke="midnightblue" d="M518.494,-385.138C488.069,-354.058 418.344,-283.027 359.003,-224 346.171,-211.236 331.159,-196.606 321.864,-187.583"/>
<polygon fill="midnightblue" stroke="midnightblue" points="516.179,-387.776 525.674,-392.476 521.182,-382.88 516.179,-387.776"/>
</g>
<!-- Node15 -->
<g id="node15" class="node"><title>Node15</title>
<g id="a_node15"><a xlink:href="risk__analysis_8cc.xhtml" target="_top" xlink:title="Implementation of risk analysis handler. ">
<polygon fill="white" stroke="black" points="545.503,-56.5 545.503,-75.5 632.503,-75.5 632.503,-56.5 545.503,-56.5"/>
<text text-anchor="middle" x="589.003" y="-63.5" font-family="Helvetica,sans-Serif" font-size="10.00">risk_analysis.cc</text>
</a>
</g>
</g>
<!-- Node3&#45;&gt;Node15 -->
<g id="edge36" class="edge"><title>Node3&#45;&gt;Node15</title>
<path fill="none" stroke="midnightblue" d="M564.761,-400.927C630.757,-398.986 780.003,-384.286 780.003,-291 780.003,-291 780.003,-291 780.003,-177 780.003,-109.461 689.212,-82.7639 632.822,-72.6959"/>
<polygon fill="midnightblue" stroke="midnightblue" points="564.477,-397.432 554.553,-401.143 564.626,-404.43 564.477,-397.432"/>
</g>
<!-- Node5&#45;&gt;Node4 -->
<g id="edge5" class="edge"><title>Node5&#45;&gt;Node4</title>
<path fill="none" stroke="midnightblue" d="M583.085,-331.59C601.76,-321.605 626.707,-308.267 642.816,-299.655"/>
<polygon fill="midnightblue" stroke="midnightblue" points="581.399,-328.522 574.23,-336.324 584.699,-334.696 581.399,-328.522"/>
</g>
<!-- Node5&#45;&gt;Node6 -->
<g id="edge6" class="edge"><title>Node5&#45;&gt;Node6</title>
<path fill="none" stroke="midnightblue" d="M524.719,-340.648C453.397,-331.323 285.293,-309.343 198.674,-298.017"/>
<polygon fill="midnightblue" stroke="midnightblue" points="524.544,-344.155 534.913,-341.981 525.451,-337.214 524.544,-344.155"/>
</g>
<!-- Node10 -->
<g id="node10" class="node"><title>Node10</title>
<g id="a_node10"><a xlink:href="importance__analysis_8cc.xhtml" target="_top" xlink:title="Implementations of functions to provide quantitative importance informations. ">
<polygon fill="white" stroke="black" points="382.503,-112.5 382.503,-131.5 501.503,-131.5 501.503,-112.5 382.503,-112.5"/>
<text text-anchor="middle" x="442.003" y="-119.5" font-family="Helvetica,sans-Serif" font-size="10.00">importance_analysis.cc</text>
</a>
</g>
</g>
<!-- Node5&#45;&gt;Node10 -->
<g id="edge27" class="edge"><title>Node5&#45;&gt;Node10</title>
<path fill="none" stroke="midnightblue" d="M557.658,-326.243C556.135,-291.71 548.624,-217.12 513.003,-168 500.666,-150.988 479.743,-138.876 463.797,-131.534"/>
<polygon fill="midnightblue" stroke="midnightblue" points="554.162,-326.439 557.976,-336.324 561.158,-326.218 554.162,-326.439"/>
</g>
<!-- Node5&#45;&gt;Node15 -->
<g id="edge32" class="edge"><title>Node5&#45;&gt;Node15</title>
<path fill="none" stroke="midnightblue" d="M570.948,-328.44C585.763,-307.786 608.003,-270.816 608.003,-235 608.003,-235 608.003,-235 608.003,-177 608.003,-138.821 596.751,-94.2624 591.565,-75.7514"/>
<polygon fill="midnightblue" stroke="midnightblue" points="568.125,-326.371 564.955,-336.481 573.737,-330.554 568.125,-326.371"/>
</g>
<!-- Node16 -->
<g id="node16" class="node"><title>Node16</title>
<g id="a_node16"><a xlink:href="probability__analysis_8cc.xhtml" target="_top" xlink:title="Implementations of functions to provide probability analysis. ">
<polygon fill="white" stroke="black" points="388.003,-168.5 388.003,-187.5 504.003,-187.5 504.003,-168.5 388.003,-168.5"/>
<text text-anchor="middle" x="446.003" y="-175.5" font-family="Helvetica,sans-Serif" font-size="10.00">probability_analysis.cc</text>
</a>
</g>
</g>
<!-- Node5&#45;&gt;Node16 -->
<g id="edge31" class="edge"><title>Node5&#45;&gt;Node16</title>
<path fill="none" stroke="midnightblue" d="M546.373,-327.763C522.643,-292.592 469.398,-213.676 451.784,-187.568"/>
<polygon fill="midnightblue" stroke="midnightblue" points="543.487,-329.743 551.981,-336.075 549.29,-325.828 543.487,-329.743"/>
</g>
<!-- Node5&#45;&gt;Node19 -->
<g id="edge28" class="edge"><title>Node5&#45;&gt;Node19</title>
<path fill="none" stroke="midnightblue" d="M536.436,-330.622C521.639,-320.757 502.491,-307.992 489.985,-299.655"/>
<polygon fill="midnightblue" stroke="midnightblue" points="534.727,-333.689 544.989,-336.324 538.61,-327.865 534.727,-333.689"/>
</g>
<!-- Node5&#45;&gt;Node21 -->
<g id="edge33" class="edge"><title>Node5&#45;&gt;Node21</title>
<path fill="none" stroke="midnightblue" d="M590.798,-334.459C622.817,-324.167 670.885,-308.716 700.249,-299.278"/>
<polygon fill="midnightblue" stroke="midnightblue" points="589.459,-331.212 581.01,-337.605 591.602,-337.877 589.459,-331.212"/>
</g>
<!-- Node7 -->
<g id="node7" class="node"><title>Node7</title>
<g id="a_node7"><a xlink:href="fault__tree__analysis_8cc.xhtml" target="_top" xlink:title="Implementation of fault tree analysis. ">
<polygon fill="white" stroke="black" points="110.003,-224.5 110.003,-243.5 222.003,-243.5 222.003,-224.5 110.003,-224.5"/>
<text text-anchor="middle" x="166.003" y="-231.5" font-family="Helvetica,sans-Serif" font-size="10.00">fault_tree_analysis.cc</text>
</a>
</g>
</g>
<!-- Node6&#45;&gt;Node7 -->
<g id="edge7" class="edge"><title>Node6&#45;&gt;Node7</title>
<path fill="none" stroke="midnightblue" d="M152.123,-270.69C155.663,-261.589 159.775,-251.014 162.6,-243.751"/>
<polygon fill="midnightblue" stroke="midnightblue" points="148.833,-269.494 148.471,-280.083 155.357,-272.032 148.833,-269.494"/>
</g>
<!-- Node6&#45;&gt;Node8 -->
<g id="edge8" class="edge"><title>Node6&#45;&gt;Node8</title>
<path fill="none" stroke="midnightblue" d="M178.227,-277.039C206.451,-266.879 246.265,-252.546 271.346,-243.516"/>
<polygon fill="midnightblue" stroke="midnightblue" points="176.994,-273.763 168.771,-280.444 179.365,-280.349 176.994,-273.763"/>
</g>
<!-- Node11 -->
<g id="node11" class="node"><title>Node11</title>
<g id="a_node11"><a xlink:href="reporter_8h.xhtml" target="_top" xlink:title="Reporter of results. ">
<polygon fill="white" stroke="black" points="24.0028,-56.5 24.0028,-75.5 82.0028,-75.5 82.0028,-56.5 24.0028,-56.5"/>
<text text-anchor="middle" x="53.0028" y="-63.5" font-family="Helvetica,sans-Serif" font-size="10.00">reporter.h</text>
</a>
</g>
</g>
<!-- Node6&#45;&gt;Node11 -->
<g id="edge25" class="edge"><title>Node6&#45;&gt;Node11</title>
<path fill="none" stroke="midnightblue" d="M112.605,-276.276C78.7268,-261.001 27.4292,-231.832 5.00278,-188 -1.36154,-175.561 -2.89607,-138.45 9.00278,-112 15.8164,-96.8538 30.0506,-83.8294 40.4913,-75.7469"/>
<polygon fill="midnightblue" stroke="midnightblue" points="111.517,-279.619 122.084,-280.394 114.306,-273.199 111.517,-279.619"/>
</g>
<!-- Node14 -->
<g id="node14" class="node"><title>Node14</title>
<g id="a_node14"><a xlink:href="risk__analysis_8h.xhtml" target="_top" xlink:title="Contains the main system for performing analysis. ">
<polygon fill="white" stroke="black" points="203.003,-112.5 203.003,-131.5 285.003,-131.5 285.003,-112.5 203.003,-112.5"/>
<text text-anchor="middle" x="244.003" y="-119.5" font-family="Helvetica,sans-Serif" font-size="10.00">risk_analysis.h</text>
</a>
</g>
</g>
<!-- Node6&#45;&gt;Node14 -->
<g id="edge26" class="edge"><title>Node6&#45;&gt;Node14</title>
<path fill="none" stroke="midnightblue" d="M123.58,-273.964C108.178,-261.179 91.6424,-242.071 101.003,-224 102.829,-220.475 196.986,-155.387 231.497,-131.607"/>
<polygon fill="midnightblue" stroke="midnightblue" points="121.8,-277.012 131.849,-280.369 126.087,-271.478 121.8,-277.012"/>
</g>
<!-- Node8&#45;&gt;Node9 -->
<g id="edge9" class="edge"><title>Node8&#45;&gt;Node9</title>
<path fill="none" stroke="midnightblue" d="M301.204,-214.396C304.215,-205.362 307.691,-194.936 310.086,-187.751"/>
<polygon fill="midnightblue" stroke="midnightblue" points="297.817,-213.489 297.975,-224.083 304.458,-215.703 297.817,-213.489"/>
</g>
<!-- Node8&#45;&gt;Node11 -->
<g id="edge19" class="edge"><title>Node8&#45;&gt;Node11</title>
<path fill="none" stroke="midnightblue" d="M229.75,-223.459C148.95,-211.493 21.4464,-192.048 18.0028,-188 -10.9023,-154.02 28.4854,-97.3595 45.6793,-75.7431"/>
<polygon fill="midnightblue" stroke="midnightblue" points="229.444,-226.952 239.848,-224.952 230.467,-220.027 229.444,-226.952"/>
</g>
<!-- Node8&#45;&gt;Node14 -->
<g id="edge20" class="edge"><title>Node8&#45;&gt;Node14</title>
<path fill="none" stroke="midnightblue" d="M272.618,-218.145C262.927,-210.404 252.55,-200.035 247.003,-188 238.491,-169.533 240.466,-144.9 242.389,-131.902"/>
<polygon fill="midnightblue" stroke="midnightblue" points="270.706,-221.085 280.818,-224.247 274.885,-215.47 270.706,-221.085"/>
</g>
<!-- Node8&#45;&gt;Node16 -->
<g id="edge18" class="edge"><title>Node8&#45;&gt;Node16</title>
<path fill="none" stroke="midnightblue" d="M328.449,-221.039C356.861,-210.879 396.94,-196.546 422.188,-187.516"/>
<polygon fill="midnightblue" stroke="midnightblue" points="327.167,-217.781 318.929,-224.444 329.524,-224.372 327.167,-217.781"/>
</g>
<!-- Node17 -->
<g id="node17" class="node"><title>Node17</title>
<g id="a_node17"><a xlink:href="uncertainty__analysis_8h.xhtml" target="_top" xlink:title="Provides functionality for uncertainty analysis with Monte Carlo method. ">
<polygon fill="white" stroke="black" points="27.0028,-168.5 27.0028,-187.5 141.003,-187.5 141.003,-168.5 27.0028,-168.5"/>
<text text-anchor="middle" x="84.0028" y="-175.5" font-family="Helvetica,sans-Serif" font-size="10.00">uncertainty_analysis.h</text>
</a>
</g>
</g>
<!-- Node8&#45;&gt;Node17 -->
<g id="edge21" class="edge"><title>Node8&#45;&gt;Node17</title>
<path fill="none" stroke="midnightblue" d="M251.861,-221.959C212.009,-211.76 153.64,-196.822 117.28,-187.516"/>
<polygon fill="midnightblue" stroke="midnightblue" points="251.014,-225.355 261.569,-224.444 252.749,-218.573 251.014,-225.355"/>
</g>
<!-- Node9&#45;&gt;Node10 -->
<g id="edge10" class="edge"><title>Node9&#45;&gt;Node10</title>
<path fill="none" stroke="midnightblue" d="M342.857,-164.503C367.041,-154.38 400.465,-140.388 421.658,-131.516"/>
<polygon fill="midnightblue" stroke="midnightblue" points="341.316,-161.354 333.443,-168.444 344.019,-167.811 341.316,-161.354"/>
</g>
<!-- Node9&#45;&gt;Node11 -->
<g id="edge11" class="edge"><title>Node9&#45;&gt;Node11</title>
<path fill="none" stroke="midnightblue" d="M312.606,-158.354C311.252,-143.634 306.924,-123.692 294.003,-112 263.231,-84.1556 139.506,-72.6207 82.2908,-68.7046"/>
<polygon fill="midnightblue" stroke="midnightblue" points="309.113,-158.576 313.155,-168.369 316.102,-158.193 309.113,-158.576"/>
</g>
<!-- Node9&#45;&gt;Node14 -->
<g id="edge14" class="edge"><title>Node9&#45;&gt;Node14</title>
<path fill="none" stroke="midnightblue" d="M293.965,-162.101C281.547,-152.382 265.759,-140.027 255.291,-131.834"/>
<polygon fill="midnightblue" stroke="midnightblue" points="291.885,-164.917 301.917,-168.324 296.199,-159.405 291.885,-164.917"/>
</g>
<!-- Node12 -->
<g id="node12" class="node"><title>Node12</title>
<g id="a_node12"><a xlink:href="reporter_8cc.xhtml" target="_top" xlink:title="Implements Reporter class. ">
<polygon fill="white" stroke="black" points="21.5028,-0.5 21.5028,-19.5 84.5028,-19.5 84.5028,-0.5 21.5028,-0.5"/>
<text text-anchor="middle" x="53.0028" y="-7.5" font-family="Helvetica,sans-Serif" font-size="10.00">reporter.cc</text>
</a>
</g>
</g>
<!-- Node11&#45;&gt;Node12 -->
<g id="edge12" class="edge"><title>Node11&#45;&gt;Node12</title>
<path fill="none" stroke="midnightblue" d="M53.0028,-45.8045C53.0028,-36.9102 53.0028,-26.7798 53.0028,-19.7511"/>
<polygon fill="midnightblue" stroke="midnightblue" points="49.5029,-46.083 53.0028,-56.083 56.5029,-46.083 49.5029,-46.083"/>
</g>
<!-- Node13 -->
<g id="node13" class="node"><title>Node13</title>
<g id="a_node13"><a xlink:href="scram_8cc.xhtml" target="_top" xlink:title="Main entrance. ">
<polygon fill="white" stroke="black" points="134.503,-0.5 134.503,-19.5 191.503,-19.5 191.503,-0.5 134.503,-0.5"/>
<text text-anchor="middle" x="163.003" y="-7.5" font-family="Helvetica,sans-Serif" font-size="10.00">scram.cc</text>
</a>
</g>
</g>
<!-- Node11&#45;&gt;Node13 -->
<g id="edge13" class="edge"><title>Node11&#45;&gt;Node13</title>
<path fill="none" stroke="midnightblue" d="M79.7649,-51.8622C100.162,-41.8492 127.669,-28.3458 145.373,-19.6545"/>
<polygon fill="midnightblue" stroke="midnightblue" points="78.1105,-48.7753 70.6762,-56.324 81.1952,-55.059 78.1105,-48.7753"/>
</g>
<!-- Node14&#45;&gt;Node11 -->
<g id="edge15" class="edge"><title>Node14&#45;&gt;Node11</title>
<path fill="none" stroke="midnightblue" d="M203.94,-109.673C167.547,-99.3841 114.724,-84.4498 82.1861,-75.2508"/>
<polygon fill="midnightblue" stroke="midnightblue" points="203.163,-113.091 213.738,-112.444 205.068,-106.355 203.163,-113.091"/>
</g>
<!-- Node14&#45;&gt;Node13 -->
<g id="edge17" class="edge"><title>Node14&#45;&gt;Node13</title>
<path fill="none" stroke="midnightblue" d="M231.685,-104.272C214.176,-80.4942 182.729,-37.7889 169.329,-19.5914"/>
<polygon fill="midnightblue" stroke="midnightblue" points="228.899,-106.391 237.647,-112.368 234.536,-102.241 228.899,-106.391"/>
</g>
<!-- Node14&#45;&gt;Node15 -->
<g id="edge16" class="edge"><title>Node14&#45;&gt;Node15</title>
<path fill="none" stroke="midnightblue" d="M295.305,-112.97C363.117,-102.356 481.436,-83.8365 545.24,-73.8499"/>
<polygon fill="midnightblue" stroke="midnightblue" points="294.614,-109.536 285.275,-114.54 295.696,-116.451 294.614,-109.536"/>
</g>
<!-- Node17&#45;&gt;Node11 -->
<g id="edge23" class="edge"><title>Node17&#45;&gt;Node11</title>
<path fill="none" stroke="midnightblue" d="M70.7059,-160.237C65.0918,-152.176 59.1381,-142.087 56.0028,-132 49.9672,-112.582 50.936,-88.3357 52.0432,-75.6507"/>
<polygon fill="midnightblue" stroke="midnightblue" points="67.9657,-162.418 76.7317,-168.369 73.5898,-158.251 67.9657,-162.418"/>
</g>
<!-- Node17&#45;&gt;Node14 -->
<g id="edge22" class="edge"><title>Node17&#45;&gt;Node14</title>
<path fill="none" stroke="midnightblue" d="M119.049,-165.172C149.176,-155.004 191.899,-140.585 218.769,-131.516"/>
<polygon fill="midnightblue" stroke="midnightblue" points="117.711,-161.929 109.355,-168.444 119.949,-168.562 117.711,-161.929"/>
</g>
<!-- Node18 -->
<g id="node18" class="node"><title>Node18</title>
<g id="a_node18"><a xlink:href="uncertainty__analysis_8cc.xhtml" target="_top" xlink:title="Implements the functionality to run Monte Carlo simulations. ">
<polygon fill="white" stroke="black" points="65.5028,-112.5 65.5028,-131.5 184.503,-131.5 184.503,-112.5 65.5028,-112.5"/>
<text text-anchor="middle" x="125.003" y="-119.5" font-family="Helvetica,sans-Serif" font-size="10.00">uncertainty_analysis.cc</text>
</a>
</g>
</g>
<!-- Node17&#45;&gt;Node18 -->
<g id="edge24" class="edge"><title>Node17&#45;&gt;Node18</title>
<path fill="none" stroke="midnightblue" d="M97.02,-159.855C104.119,-150.505 112.607,-139.327 118.358,-131.751"/>
<polygon fill="midnightblue" stroke="midnightblue" points="94.0327,-158.002 90.7731,-168.083 99.6078,-162.235 94.0327,-158.002"/>
</g>
<!-- Node19&#45;&gt;Node15 -->
<g id="edge30" class="edge"><title>Node19&#45;&gt;Node15</title>
<path fill="none" stroke="midnightblue" d="M486.005,-271.157C508.726,-226.119 567.782,-109.063 584.521,-75.8837"/>
<polygon fill="midnightblue" stroke="midnightblue" points="482.773,-269.793 481.393,-280.297 489.022,-272.946 482.773,-269.793"/>
</g>
<!-- Node20 -->
<g id="node20" class="node"><title>Node20</title>
<g id="a_node20"><a xlink:href="mocus_8cc.xhtml" target="_top" xlink:title="Implementation of the MOCUS algorithm. ">
<polygon fill="white" stroke="black" points="406.503,-224.5 406.503,-243.5 465.503,-243.5 465.503,-224.5 406.503,-224.5"/>
<text text-anchor="middle" x="436.003" y="-231.5" font-family="Helvetica,sans-Serif" font-size="10.00">mocus.cc</text>
</a>
</g>
</g>
<!-- Node19&#45;&gt;Node20 -->
<g id="edge29" class="edge"><title>Node19&#45;&gt;Node20</title>
<path fill="none" stroke="midnightblue" d="M463.986,-271.855C456.886,-262.505 448.399,-251.327 442.647,-243.751"/>
<polygon fill="midnightblue" stroke="midnightblue" points="461.398,-274.235 470.232,-280.083 466.973,-270.002 461.398,-274.235"/>
</g>
<!-- Node22&#45;&gt;Node6 -->
<g id="edge39" class="edge"><title>Node22&#45;&gt;Node6</title>
<path fill="none" stroke="midnightblue" d="M275.117,-386.417C243.391,-363.151 182.298,-318.35 156.718,-299.591"/>
<polygon fill="midnightblue" stroke="midnightblue" points="273.099,-389.277 283.233,-392.368 277.238,-383.632 273.099,-389.277"/>
</g>
<!-- Node22&#45;&gt;Node23 -->
<g id="edge40" class="edge"><title>Node22&#45;&gt;Node23</title>
<path fill="none" stroke="midnightblue" d="M295.714,-381.805C296.043,-372.91 296.418,-362.78 296.679,-355.751"/>
<polygon fill="midnightblue" stroke="midnightblue" points="292.206,-381.96 295.333,-392.083 299.201,-382.219 292.206,-381.96"/>
</g>
</g>
</svg>
        <g id="navigator" transform="translate(0 0)" fill="#404254">
                <rect fill="#f2f5e9" fill-opacity="0.5" stroke="#606060" stroke-width=".5" x="0" y="0" width="60" height="60"/>
                <use id="zoomplus" xlink:href="#zoomPlus" x="17" y="9" onmousedown="handleZoom(evt,'in')"/>
                <use id="zoomminus" xlink:href="#zoomMin" x="42" y="9" onmousedown="handleZoom(evt,'out')"/>
                <use id="reset" xlink:href="#resetDef" x="30" y="36" onmousedown="handleReset()"/>
                <g id="arrowUp" xlink:href="#dirArrow" transform="translate(30 24)" onmousedown="handlePan(0,-1)">
                  <use xlink:href="#rim" fill="#404040">
                        <set attributeName="fill" to="#808080" begin="arrowUp.mouseover" end="arrowUp.mouseout"/>
                  </use>
                  <path fill="none" stroke="white" stroke-width="1.5" d="M0,-3.0v7 M-2.5,-0.5L0,-3.0L2.5,-0.5"/>
                </g>
                <g id="arrowRight" xlink:href="#dirArrow" transform="rotate(90) translate(36 -43)" onmousedown="handlePan(1,0)">
                  <use xlink:href="#rim" fill="#404040">
                        <set attributeName="fill" to="#808080" begin="arrowRight.mouseover" end="arrowRight.mouseout"/>
                  </use>
                  <path fill="none" stroke="white" stroke-width="1.5" d="M0,-3.0v7 M-2.5,-0.5L0,-3.0L2.5,-0.5"/>
                </g>
                <g id="arrowDown" xlink:href="#dirArrow" transform="rotate(180) translate(-30 -48)" onmousedown="handlePan(0,1)">
                  <use xlink:href="#rim" fill="#404040">
                        <set attributeName="fill" to="#808080" begin="arrowDown.mouseover" end="arrowDown.mouseout"/>
                  </use>
                  <path fill="none" stroke="white" stroke-width="1.5" d="M0,-3.0v7 M-2.5,-0.5L0,-3.0L2.5,-0.5"/>
                </g>
                <g id="arrowLeft" xlink:href="#dirArrow" transform="rotate(270) translate(-36 17)" onmousedown="handlePan(-1,0)">
                  <use xlink:href="#rim" fill="#404040">
                        <set attributeName="fill" to="#808080" begin="arrowLeft.mouseover" end="arrowLeft.mouseout"/>
                  </use>
                  <path fill="none" stroke="white" stroke-width="1.5" d="M0,-3.0v7 M-2.5,-0.5L0,-3.0L2.5,-0.5"/>
                </g>
        </g>
        <svg viewBox="0 0 15 15" width="100%" height="30px" preserveAspectRatio="xMaxYMin meet">
         <g id="arrow_out" transform="scale(0.3 0.3)">
          <a xlink:href="find__iterator_8h__dep__incl_org.svg" target="_base">
           <rect id="button" ry="5" rx="5" y="6" x="6" height="38" width="38"
                fill="#f2f5e9" fill-opacity="0.5" stroke="#606060" stroke-width="1.0"/>
           <path id="arrow"
             d="M 11.500037,31.436501 C 11.940474,20.09759 22.043105,11.32322 32.158766,21.979434 L 37.068811,17.246167 C 37.068811,17.246167 37.088388,32 37.088388,32 L 22.160133,31.978069 C 22.160133,31.978069 26.997745,27.140456 26.997745,27.140456 C 18.528582,18.264221 13.291696,25.230495 11.500037,31.436501 z"
             style="fill:#404040;"/>
          </a>
         </g>
        </svg>
</svg>
