<?xml version="1.0" encoding="UTF-8" standalone="no"?>
<!DOCTYPE svg PUBLIC "-//W3C//DTD SVG 1.1//EN"
 "http://www.w3.org/Graphics/SVG/1.1/DTD/svg11.dtd">
<!-- Generated by graphviz version 2.38.0 (20140413.2041)
 -->
<!-- Title: index_map.h Pages: 1 -->
<svg width="794pt" height="532pt"
 viewBox="0.00 0.00 793.55 532.00" xmlns="http://www.w3.org/2000/svg" xmlns:xlink="http://www.w3.org/1999/xlink">
<g id="graph0" class="graph" transform="scale(1 1) rotate(0) translate(4 528)">
<title>index_map.h</title>
<polygon fill="white" stroke="none" points="-4,4 -4,-528 789.546,-528 789.546,4 -4,4"/>
<!-- Node1 -->
<g id="node1" class="node"><title>Node1</title>
<polygon fill="#bfbfbf" stroke="black" points="354.046,-504.5 354.046,-523.5 426.046,-523.5 426.046,-504.5 354.046,-504.5"/>
<text text-anchor="middle" x="390.046" y="-511.5" font-family="Helvetica,sans-Serif" font-size="10.00">index_map.h</text>
</g>
<!-- Node2 -->
<g id="node2" class="node"><title>Node2</title>
<g id="a_node2"><a xlink:href="pdag_8h.xhtml" target="_top" xlink:title="Classes and facilities to represent fault trees as PDAGs with event and gate indices instead of ID na...">
<polygon fill="white" stroke="black" points="367.046,-448.5 367.046,-467.5 413.046,-467.5 413.046,-448.5 367.046,-448.5"/>
<text text-anchor="middle" x="390.046" y="-455.5" font-family="Helvetica,sans-Serif" font-size="10.00">pdag.h</text>
</a>
</g>
</g>
<!-- Node1&#45;&gt;Node2 -->
<g id="edge1" class="edge"><title>Node1&#45;&gt;Node2</title>
<path fill="none" stroke="midnightblue" d="M390.046,-493.805C390.046,-484.91 390.046,-474.78 390.046,-467.751"/>
<polygon fill="midnightblue" stroke="midnightblue" points="386.546,-494.083 390.046,-504.083 393.546,-494.083 386.546,-494.083"/>
</g>
<!-- Node3 -->
<g id="node3" class="node"><title>Node3</title>
<g id="a_node3"><a xlink:href="bdd_8h.xhtml" target="_top" xlink:title="Fault tree analysis with the Binary Decision Diagram algorithms. ">
<polygon fill="white" stroke="black" points="444.546,-392.5 444.546,-411.5 485.546,-411.5 485.546,-392.5 444.546,-392.5"/>
<text text-anchor="middle" x="465.046" y="-399.5" font-family="Helvetica,sans-Serif" font-size="10.00">bdd.h</text>
</a>
</g>
</g>
<!-- Node2&#45;&gt;Node3 -->
<g id="edge2" class="edge"><title>Node2&#45;&gt;Node3</title>
<path fill="none" stroke="midnightblue" d="M410.351,-442.38C423.907,-432.62 441.288,-420.106 452.777,-411.834"/>
<polygon fill="midnightblue" stroke="midnightblue" points="408.167,-439.641 402.096,-448.324 412.257,-445.321 408.167,-439.641"/>
</g>
<!-- Node6 -->
<g id="node6" class="node"><title>Node6</title>
<g id="a_node6"><a xlink:href="fault__tree__analysis_8h.xhtml" target="_top" xlink:title="Fault Tree Analysis. ">
<polygon fill="white" stroke="black" points="142.546,-280.5 142.546,-299.5 249.546,-299.5 249.546,-280.5 142.546,-280.5"/>
<text text-anchor="middle" x="196.046" y="-287.5" font-family="Helvetica,sans-Serif" font-size="10.00">fault_tree_analysis.h</text>
</a>
</g>
</g>
<!-- Node2&#45;&gt;Node6 -->
<g id="edge37" class="edge"><title>Node2&#45;&gt;Node6</title>
<path fill="none" stroke="midnightblue" d="M356.783,-456.055C316.042,-453.451 246.375,-444.191 197.046,-412 164.727,-390.909 141.11,-371.988 155.046,-336 160.924,-320.822 174.567,-307.621 184.506,-299.51"/>
<polygon fill="midnightblue" stroke="midnightblue" points="356.803,-459.561 366.977,-456.605 357.18,-452.571 356.803,-459.561"/>
</g>
<!-- Node8 -->
<g id="node8" class="node"><title>Node8</title>
<g id="a_node8"><a xlink:href="probability__analysis_8h.xhtml" target="_top" xlink:title="Contains functionality to do numerical analysis of probabilities. ">
<polygon fill="white" stroke="black" points="239.046,-224.5 239.046,-243.5 349.046,-243.5 349.046,-224.5 239.046,-224.5"/>
<text text-anchor="middle" x="294.046" y="-231.5" font-family="Helvetica,sans-Serif" font-size="10.00">probability_analysis.h</text>
</a>
</g>
</g>
<!-- Node2&#45;&gt;Node8 -->
<g id="edge41" class="edge"><title>Node2&#45;&gt;Node8</title>
<path fill="none" stroke="midnightblue" d="M382.207,-438.872C362.642,-393.627 312.206,-276.993 297.888,-243.884"/>
<polygon fill="midnightblue" stroke="midnightblue" points="379.101,-440.508 386.283,-448.297 385.526,-437.73 379.101,-440.508"/>
</g>
<!-- Node19 -->
<g id="node19" class="node"><title>Node19</title>
<g id="a_node19"><a xlink:href="mocus_8h.xhtml" target="_top" xlink:title="Fault tree analysis with the MOCUS algorithm. ">
<polygon fill="white" stroke="black" points="668.046,-280.5 668.046,-299.5 722.046,-299.5 722.046,-280.5 668.046,-280.5"/>
<text text-anchor="middle" x="695.046" y="-287.5" font-family="Helvetica,sans-Serif" font-size="10.00">mocus.h</text>
</a>
</g>
</g>
<!-- Node2&#45;&gt;Node19 -->
<g id="edge42" class="edge"><title>Node2&#45;&gt;Node19</title>
<path fill="none" stroke="midnightblue" d="M421.709,-444.587C442.58,-436.093 470.335,-424.198 494.046,-412 567.572,-374.176 650.879,-320.254 682.222,-299.548"/>
<polygon fill="midnightblue" stroke="midnightblue" points="420.322,-441.372 412.354,-448.355 422.938,-447.866 420.322,-441.372"/>
</g>
<!-- Node22 -->
<g id="node22" class="node"><title>Node22</title>
<g id="a_node22"><a xlink:href="preprocessor_8h.xhtml" target="_top" xlink:title="A collection of PDAG transformation/preprocessing algorithms that simplify fault trees for analysis...">
<polygon fill="white" stroke="black" points="206.546,-392.5 206.546,-411.5 287.546,-411.5 287.546,-392.5 206.546,-392.5"/>
<text text-anchor="middle" x="247.046" y="-399.5" font-family="Helvetica,sans-Serif" font-size="10.00">preprocessor.h</text>
</a>
</g>
</g>
<!-- Node2&#45;&gt;Node22 -->
<g id="edge38" class="edge"><title>Node2&#45;&gt;Node22</title>
<path fill="none" stroke="midnightblue" d="M358.019,-444.906C331.134,-434.754 293.405,-420.506 269.599,-411.516"/>
<polygon fill="midnightblue" stroke="midnightblue" points="356.796,-448.185 367.387,-448.444 359.269,-441.636 356.796,-448.185"/>
</g>
<!-- Node24 -->
<g id="node24" class="node"><title>Node24</title>
<g id="a_node24"><a xlink:href="pdag_8cc.xhtml" target="_top" xlink:title="Implementation of a Propositional Directed Acyclic Graph with indexed nodes, variables, and gates. ">
<polygon fill="white" stroke="black" points="734.546,-392.5 734.546,-411.5 785.546,-411.5 785.546,-392.5 734.546,-392.5"/>
<text text-anchor="middle" x="760.046" y="-399.5" font-family="Helvetica,sans-Serif" font-size="10.00">pdag.cc</text>
</a>
</g>
</g>
<!-- Node2&#45;&gt;Node24 -->
<g id="edge43" class="edge"><title>Node2&#45;&gt;Node24</title>
<path fill="none" stroke="midnightblue" d="M423.343,-453.417C483.044,-446.779 612.148,-431.458 720.046,-412 724.67,-411.166 729.568,-410.164 734.292,-409.136"/>
<polygon fill="midnightblue" stroke="midnightblue" points="422.915,-449.943 413.359,-454.517 423.683,-456.9 422.915,-449.943"/>
</g>
<!-- Node4 -->
<g id="node4" class="node"><title>Node4</title>
<g id="a_node4"><a xlink:href="bdd_8cc.xhtml" target="_top" xlink:title="Implementation of BDD fault tree analysis algorithms. ">
<polygon fill="white" stroke="black" points="604.046,-280.5 604.046,-299.5 650.046,-299.5 650.046,-280.5 604.046,-280.5"/>
<text text-anchor="middle" x="627.046" y="-287.5" font-family="Helvetica,sans-Serif" font-size="10.00">bdd.cc</text>
</a>
</g>
</g>
<!-- Node3&#45;&gt;Node4 -->
<g id="edge3" class="edge"><title>Node3&#45;&gt;Node4</title>
<path fill="none" stroke="midnightblue" d="M490.273,-387.583C505.807,-379.044 525.952,-367.469 543.046,-356 570.762,-337.406 601.277,-312.612 616.778,-299.68"/>
<polygon fill="midnightblue" stroke="midnightblue" points="488.379,-384.628 481.264,-392.479 491.722,-390.779 488.379,-384.628"/>
</g>
<!-- Node5 -->
<g id="node5" class="node"><title>Node5</title>
<g id="a_node5"><a xlink:href="zbdd_8h.xhtml" target="_top" xlink:title="Zero&#45;Suppressed Binary Decision Diagram facilities. ">
<polygon fill="white" stroke="black" points="488.046,-336.5 488.046,-355.5 534.046,-355.5 534.046,-336.5 488.046,-336.5"/>
<text text-anchor="middle" x="511.046" y="-343.5" font-family="Helvetica,sans-Serif" font-size="10.00">zbdd.h</text>
</a>
</g>
</g>
<!-- Node3&#45;&gt;Node5 -->
<g id="edge4" class="edge"><title>Node3&#45;&gt;Node5</title>
<path fill="none" stroke="midnightblue" d="M479.16,-384.431C487.222,-374.967 497.005,-363.483 503.592,-355.751"/>
<polygon fill="midnightblue" stroke="midnightblue" points="476.463,-382.201 472.642,-392.083 481.791,-386.74 476.463,-382.201"/>
</g>
<!-- Node3&#45;&gt;Node8 -->
<g id="edge35" class="edge"><title>Node3&#45;&gt;Node8</title>
<path fill="none" stroke="midnightblue" d="M435.072,-390.171C417.071,-382.6 394.539,-371.132 378.046,-356 348.609,-328.991 353.227,-312.537 330.046,-280 320.758,-266.963 309.017,-252.644 301.518,-243.738"/>
<polygon fill="midnightblue" stroke="midnightblue" points="433.956,-393.494 444.54,-393.975 436.566,-386.999 433.956,-393.494"/>
</g>
<!-- Node9 -->
<g id="node9" class="node"><title>Node9</title>
<g id="a_node9"><a xlink:href="importance__analysis_8h.xhtml" target="_top" xlink:title="Contains functionality to do numerical analysis of importance factors. ">
<polygon fill="white" stroke="black" points="262.046,-168.5 262.046,-187.5 376.046,-187.5 376.046,-168.5 262.046,-168.5"/>
<text text-anchor="middle" x="319.046" y="-175.5" font-family="Helvetica,sans-Serif" font-size="10.00">importance_analysis.h</text>
</a>
</g>
</g>
<!-- Node3&#45;&gt;Node9 -->
<g id="edge34" class="edge"><title>Node3&#45;&gt;Node9</title>
<path fill="none" stroke="midnightblue" d="M455.49,-382.977C437.845,-350.241 398.264,-279.286 358.046,-224 348.316,-210.624 335.514,-196.39 327.281,-187.595"/>
<polygon fill="midnightblue" stroke="midnightblue" points="452.618,-385.028 460.421,-392.195 458.79,-381.726 452.618,-385.028"/>
</g>
<!-- Node15 -->
<g id="node15" class="node"><title>Node15</title>
<g id="a_node15"><a xlink:href="risk__analysis_8cc.xhtml" target="_top" xlink:title="Implementation of risk analysis handler. ">
<polygon fill="white" stroke="black" points="556.546,-56.5 556.546,-75.5 643.546,-75.5 643.546,-56.5 556.546,-56.5"/>
<text text-anchor="middle" x="600.046" y="-63.5" font-family="Helvetica,sans-Serif" font-size="10.00">risk_analysis.cc</text>
</a>
</g>
</g>
<!-- Node3&#45;&gt;Node15 -->
<g id="edge36" class="edge"><title>Node3&#45;&gt;Node15</title>
<path fill="none" stroke="midnightblue" d="M495.994,-398.098C551.291,-391.244 667.231,-369.032 731.046,-300 751.477,-277.899 750.046,-265.098 750.046,-235 750.046,-235 750.046,-235 750.046,-177 750.046,-119.679 677.934,-88.9639 633.709,-75.5167"/>
<polygon fill="midnightblue" stroke="midnightblue" points="495.311,-394.654 485.776,-399.274 496.111,-401.608 495.311,-394.654"/>
</g>
<!-- Node5&#45;&gt;Node4 -->
<g id="edge5" class="edge"><title>Node5&#45;&gt;Node4</title>
<path fill="none" stroke="midnightblue" d="M538.766,-332.096C560.438,-322.007 589.948,-308.27 608.752,-299.516"/>
<polygon fill="midnightblue" stroke="midnightblue" points="537.015,-329.05 529.427,-336.444 539.97,-335.396 537.015,-329.05"/>
</g>
<!-- Node5&#45;&gt;Node6 -->
<g id="edge6" class="edge"><title>Node5&#45;&gt;Node6</title>
<path fill="none" stroke="midnightblue" d="M477.9,-339.318C422.493,-329.819 310.762,-310.666 245.855,-299.539"/>
<polygon fill="midnightblue" stroke="midnightblue" points="477.436,-342.789 487.883,-341.029 478.619,-335.89 477.436,-342.789"/>
</g>
<!-- Node10 -->
<g id="node10" class="node"><title>Node10</title>
<g id="a_node10"><a xlink:href="importance__analysis_8cc.xhtml" target="_top" xlink:title="Implementations of functions to provide quantitative importance informations. ">
<polygon fill="white" stroke="black" points="392.546,-112.5 392.546,-131.5 511.546,-131.5 511.546,-112.5 392.546,-112.5"/>
<text text-anchor="middle" x="452.046" y="-119.5" font-family="Helvetica,sans-Serif" font-size="10.00">importance_analysis.cc</text>
</a>
</g>
</g>
<!-- Node5&#45;&gt;Node10 -->
<g id="edge27" class="edge"><title>Node5&#45;&gt;Node10</title>
<path fill="none" stroke="midnightblue" d="M517.625,-326.747C528.57,-293.084 546.723,-219.929 519.046,-168 509.754,-150.565 490.372,-138.684 474.835,-131.529"/>
<polygon fill="midnightblue" stroke="midnightblue" points="514.313,-325.617 514.392,-336.211 520.937,-327.879 514.313,-325.617"/>
</g>
<!-- Node5&#45;&gt;Node15 -->
<g id="edge32" class="edge"><title>Node5&#45;&gt;Node15</title>
<path fill="none" stroke="midnightblue" d="M527.952,-329.045C547.211,-309.06 576.046,-272.822 576.046,-235 576.046,-235 576.046,-235 576.046,-177 576.046,-138.493 590.258,-94.1113 596.809,-75.6992"/>
<polygon fill="midnightblue" stroke="midnightblue" points="525.245,-326.801 520.637,-336.341 530.189,-331.757 525.245,-326.801"/>
</g>
<!-- Node16 -->
<g id="node16" class="node"><title>Node16</title>
<g id="a_node16"><a xlink:href="probability__analysis_8cc.xhtml" target="_top" xlink:title="Implementations of functions to provide probability analysis. ">
<polygon fill="white" stroke="black" points="394.046,-168.5 394.046,-187.5 510.046,-187.5 510.046,-168.5 394.046,-168.5"/>
<text text-anchor="middle" x="452.046" y="-175.5" font-family="Helvetica,sans-Serif" font-size="10.00">probability_analysis.cc</text>
</a>
</g>
</g>
<!-- Node5&#45;&gt;Node16 -->
<g id="edge31" class="edge"><title>Node5&#45;&gt;Node16</title>
<path fill="none" stroke="midnightblue" d="M481.946,-331.654C469.412,-324.25 456.046,-313.73 449.046,-300 429.671,-261.997 442.91,-208.18 449.222,-187.525"/>
<polygon fill="midnightblue" stroke="midnightblue" points="480.368,-334.78 490.824,-336.495 483.72,-328.634 480.368,-334.78"/>
</g>
<!-- Node5&#45;&gt;Node19 -->
<g id="edge28" class="edge"><title>Node5&#45;&gt;Node19</title>
<path fill="none" stroke="midnightblue" d="M544.19,-335.273C579.526,-324.903 634.828,-308.673 667.748,-299.011"/>
<polygon fill="midnightblue" stroke="midnightblue" points="542.96,-331.986 534.35,-338.161 544.931,-338.703 542.96,-331.986"/>
</g>
<!-- Node21 -->
<g id="node21" class="node"><title>Node21</title>
<g id="a_node21"><a xlink:href="zbdd_8cc.xhtml" target="_top" xlink:title="Implementation of Zero&#45;Suppressed BDD algorithms. ">
<polygon fill="white" stroke="black" points="458.546,-280.5 458.546,-299.5 509.546,-299.5 509.546,-280.5 458.546,-280.5"/>
<text text-anchor="middle" x="484.046" y="-287.5" font-family="Helvetica,sans-Serif" font-size="10.00">zbdd.cc</text>
</a>
</g>
</g>
<!-- Node5&#45;&gt;Node21 -->
<g id="edge33" class="edge"><title>Node5&#45;&gt;Node21</title>
<path fill="none" stroke="midnightblue" d="M502.038,-326.983C497.455,-317.817 492.092,-307.092 488.422,-299.751"/>
<polygon fill="midnightblue" stroke="midnightblue" points="498.985,-328.704 506.588,-336.083 505.246,-325.573 498.985,-328.704"/>
</g>
<!-- Node7 -->
<g id="node7" class="node"><title>Node7</title>
<g id="a_node7"><a xlink:href="fault__tree__analysis_8cc.xhtml" target="_top" xlink:title="Implementation of fault tree analysis. ">
<polygon fill="white" stroke="black" points="56.0462,-224.5 56.0462,-243.5 168.046,-243.5 168.046,-224.5 56.0462,-224.5"/>
<text text-anchor="middle" x="112.046" y="-231.5" font-family="Helvetica,sans-Serif" font-size="10.00">fault_tree_analysis.cc</text>
</a>
</g>
</g>
<!-- Node6&#45;&gt;Node7 -->
<g id="edge7" class="edge"><title>Node6&#45;&gt;Node7</title>
<path fill="none" stroke="midnightblue" d="M174.114,-274.901C158.711,-264.999 138.6,-252.071 125.509,-243.655"/>
<polygon fill="midnightblue" stroke="midnightblue" points="172.246,-277.86 182.55,-280.324 176.031,-271.972 172.246,-277.86"/>
</g>
<!-- Node6&#45;&gt;Node8 -->
<g id="edge8" class="edge"><title>Node6&#45;&gt;Node8</title>
<path fill="none" stroke="midnightblue" d="M220.632,-275.453C238.724,-265.483 262.781,-252.228 278.34,-243.655"/>
<polygon fill="midnightblue" stroke="midnightblue" points="218.861,-272.432 211.792,-280.324 222.239,-278.563 218.861,-272.432"/>
</g>
<!-- Node11 -->
<g id="node11" class="node"><title>Node11</title>
<g id="a_node11"><a xlink:href="reporter_8h.xhtml" target="_top" xlink:title="Reporter of results. ">
<polygon fill="white" stroke="black" points="161.046,-56.5 161.046,-75.5 219.046,-75.5 219.046,-56.5 161.046,-56.5"/>
<text text-anchor="middle" x="190.046" y="-63.5" font-family="Helvetica,sans-Serif" font-size="10.00">reporter.h</text>
</a>
</g>
</g>
<!-- Node6&#45;&gt;Node11 -->
<g id="edge25" class="edge"><title>Node6&#45;&gt;Node11</title>
<path fill="none" stroke="midnightblue" d="M132.327,-282.522C103.26,-276.622 70.2367,-265.384 47.0462,-244 2.95674,-203.346 -17.5688,-159.497 19.0462,-112 36.2423,-89.6931 116.646,-76.2443 160.807,-70.416"/>
<polygon fill="midnightblue" stroke="midnightblue" points="131.949,-286.012 142.42,-284.394 133.226,-279.129 131.949,-286.012"/>
</g>
<!-- Node14 -->
<g id="node14" class="node"><title>Node14</title>
<g id="a_node14"><a xlink:href="risk__analysis_8h.xhtml" target="_top" xlink:title="Contains the main system for performing analysis. ">
<polygon fill="white" stroke="black" points="218.046,-112.5 218.046,-131.5 300.046,-131.5 300.046,-112.5 218.046,-112.5"/>
<text text-anchor="middle" x="259.046" y="-119.5" font-family="Helvetica,sans-Serif" font-size="10.00">risk_analysis.h</text>
</a>
</g>
</g>
<!-- Node6&#45;&gt;Node14 -->
<g id="edge26" class="edge"><title>Node6&#45;&gt;Node14</title>
<path fill="none" stroke="midnightblue" d="M203.107,-270.395C216.698,-234.585 246.013,-157.342 255.794,-131.568"/>
<polygon fill="midnightblue" stroke="midnightblue" points="199.709,-269.484 199.433,-280.075 206.254,-271.968 199.709,-269.484"/>
</g>
<!-- Node8&#45;&gt;Node9 -->
<g id="edge9" class="edge"><title>Node8&#45;&gt;Node9</title>
<path fill="none" stroke="midnightblue" d="M302.388,-214.983C306.631,-205.817 311.596,-195.092 314.995,-187.751"/>
<polygon fill="midnightblue" stroke="midnightblue" points="299.2,-213.538 298.174,-224.083 305.552,-216.479 299.2,-213.538"/>
</g>
<!-- Node8&#45;&gt;Node11 -->
<g id="edge19" class="edge"><title>Node8&#45;&gt;Node11</title>
<path fill="none" stroke="midnightblue" d="M228.913,-225.019C159.632,-215.94 58.1878,-200.724 45.0462,-188 20.4785,-164.213 12.4649,-139.309 33.0462,-112 48.4051,-91.6205 119.784,-77.6523 160.811,-71.1549"/>
<polygon fill="midnightblue" stroke="midnightblue" points="228.52,-228.497 238.888,-226.313 229.421,-221.555 228.52,-228.497"/>
</g>
<!-- Node8&#45;&gt;Node14 -->
<g id="edge20" class="edge"><title>Node8&#45;&gt;Node14</title>
<path fill="none" stroke="midnightblue" d="M274.796,-217.745C266.414,-209.869 257.5,-199.502 253.046,-188 245.68,-168.978 251.639,-144.57 255.826,-131.755"/>
<polygon fill="midnightblue" stroke="midnightblue" points="272.674,-220.54 282.506,-224.49 277.283,-215.271 272.674,-220.54"/>
</g>
<!-- Node8&#45;&gt;Node16 -->
<g id="edge18" class="edge"><title>Node8&#45;&gt;Node16</title>
<path fill="none" stroke="midnightblue" d="M328.654,-221.172C358.405,-211.004 400.593,-196.585 427.128,-187.516"/>
<polygon fill="midnightblue" stroke="midnightblue" points="327.412,-217.898 319.082,-224.444 329.676,-224.521 327.412,-217.898"/>
</g>
<!-- Node17 -->
<g id="node17" class="node"><title>Node17</title>
<g id="a_node17"><a xlink:href="uncertainty__analysis_8h.xhtml" target="_top" xlink:title="Provides functionality for uncertainty analysis with Monte Carlo method. ">
<polygon fill="white" stroke="black" points="54.0462,-168.5 54.0462,-187.5 168.046,-187.5 168.046,-168.5 54.0462,-168.5"/>
<text text-anchor="middle" x="111.046" y="-175.5" font-family="Helvetica,sans-Serif" font-size="10.00">uncertainty_analysis.h</text>
</a>
</g>
</g>
<!-- Node8&#45;&gt;Node17 -->
<g id="edge21" class="edge"><title>Node8&#45;&gt;Node17</title>
<path fill="none" stroke="midnightblue" d="M255.304,-221.568C220.782,-211.381 171.041,-196.703 139.907,-187.516"/>
<polygon fill="midnightblue" stroke="midnightblue" points="254.468,-224.97 265.049,-224.444 256.449,-218.256 254.468,-224.97"/>
</g>
<!-- Node9&#45;&gt;Node10 -->
<g id="edge10" class="edge"><title>Node9&#45;&gt;Node10</title>
<path fill="none" stroke="midnightblue" d="M349.494,-164.638C374.453,-154.504 409.123,-140.427 431.071,-131.516"/>
<polygon fill="midnightblue" stroke="midnightblue" points="348.069,-161.439 340.12,-168.444 350.703,-167.924 348.069,-161.439"/>
</g>
<!-- Node9&#45;&gt;Node11 -->
<g id="edge11" class="edge"><title>Node9&#45;&gt;Node11</title>
<path fill="none" stroke="midnightblue" d="M320.913,-158.246C321.297,-144.057 319.482,-124.88 309.046,-112 287.007,-84.7992 246.642,-74.0306 219.091,-69.7735"/>
<polygon fill="midnightblue" stroke="midnightblue" points="317.413,-158.135 320.257,-168.341 324.398,-158.589 317.413,-158.135"/>
</g>
<!-- Node9&#45;&gt;Node14 -->
<g id="edge14" class="edge"><title>Node9&#45;&gt;Node14</title>
<path fill="none" stroke="midnightblue" d="M301.865,-161.537C291.167,-151.909 277.79,-139.869 268.862,-131.834"/>
<polygon fill="midnightblue" stroke="midnightblue" points="299.632,-164.236 309.406,-168.324 304.315,-159.033 299.632,-164.236"/>
</g>
<!-- Node12 -->
<g id="node12" class="node"><title>Node12</title>
<g id="a_node12"><a xlink:href="reporter_8cc.xhtml" target="_top" xlink:title="Implements Reporter class. ">
<polygon fill="white" stroke="black" points="149.546,-0.5 149.546,-19.5 212.546,-19.5 212.546,-0.5 149.546,-0.5"/>
<text text-anchor="middle" x="181.046" y="-7.5" font-family="Helvetica,sans-Serif" font-size="10.00">reporter.cc</text>
</a>
</g>
</g>
<!-- Node11&#45;&gt;Node12 -->
<g id="edge12" class="edge"><title>Node11&#45;&gt;Node12</title>
<path fill="none" stroke="midnightblue" d="M186.896,-46.1005C185.402,-37.1357 183.689,-26.8579 182.505,-19.7511"/>
<polygon fill="midnightblue" stroke="midnightblue" points="183.464,-46.7945 188.56,-56.083 190.368,-45.6436 183.464,-46.7945"/>
</g>
<!-- Node13 -->
<g id="node13" class="node"><title>Node13</title>
<g id="a_node13"><a xlink:href="scram_8cc.xhtml" target="_top" xlink:title="Main entrance. ">
<polygon fill="white" stroke="black" points="230.546,-0.5 230.546,-19.5 287.546,-19.5 287.546,-0.5 230.546,-0.5"/>
<text text-anchor="middle" x="259.046" y="-7.5" font-family="Helvetica,sans-Serif" font-size="10.00">scram.cc</text>
</a>
</g>
</g>
<!-- Node11&#45;&gt;Node13 -->
<g id="edge13" class="edge"><title>Node11&#45;&gt;Node13</title>
<path fill="none" stroke="midnightblue" d="M209.084,-50.1008C221.502,-40.3824 237.29,-28.0269 247.758,-19.8339"/>
<polygon fill="midnightblue" stroke="midnightblue" points="206.85,-47.4046 201.132,-56.324 211.164,-52.9171 206.85,-47.4046"/>
</g>
<!-- Node14&#45;&gt;Node11 -->
<g id="edge15" class="edge"><title>Node14&#45;&gt;Node11</title>
<path fill="none" stroke="midnightblue" d="M240.008,-106.101C227.59,-96.3824 211.803,-84.0269 201.334,-75.8339"/>
<polygon fill="midnightblue" stroke="midnightblue" points="237.928,-108.917 247.96,-112.324 242.242,-103.405 237.928,-108.917"/>
</g>
<!-- Node14&#45;&gt;Node13 -->
<g id="edge17" class="edge"><title>Node14&#45;&gt;Node13</title>
<path fill="none" stroke="midnightblue" d="M259.046,-102.348C259.046,-78.2538 259.046,-37.3079 259.046,-19.5914"/>
<polygon fill="midnightblue" stroke="midnightblue" points="255.546,-102.368 259.046,-112.368 262.546,-102.369 255.546,-102.368"/>
</g>
<!-- Node14&#45;&gt;Node15 -->
<g id="edge16" class="edge"><title>Node14&#45;&gt;Node15</title>
<path fill="none" stroke="midnightblue" d="M310.081,-112.918C377.002,-102.321 493.282,-83.907 556.346,-73.9203"/>
<polygon fill="midnightblue" stroke="midnightblue" points="309.508,-109.465 300.179,-114.486 310.603,-116.379 309.508,-109.465"/>
</g>
<!-- Node17&#45;&gt;Node11 -->
<g id="edge23" class="edge"><title>Node17&#45;&gt;Node11</title>
<path fill="none" stroke="midnightblue" d="M135.962,-163.039C147.794,-155.278 161.239,-144.631 170.046,-132 182.336,-114.373 187.26,-88.9563 189.08,-75.7351"/>
<polygon fill="midnightblue" stroke="midnightblue" points="133.981,-160.149 127.331,-168.397 137.673,-166.096 133.981,-160.149"/>
</g>
<!-- Node17&#45;&gt;Node14 -->
<g id="edge22" class="edge"><title>Node17&#45;&gt;Node14</title>
<path fill="none" stroke="midnightblue" d="M144.193,-164.906C172.018,-154.754 211.066,-140.506 235.705,-131.516"/>
<polygon fill="midnightblue" stroke="midnightblue" points="142.692,-161.728 134.497,-168.444 145.091,-168.304 142.692,-161.728"/>
</g>
<!-- Node18 -->
<g id="node18" class="node"><title>Node18</title>
<g id="a_node18"><a xlink:href="uncertainty__analysis_8cc.xhtml" target="_top" xlink:title="Implements the functionality to run Monte Carlo simulations. ">
<polygon fill="white" stroke="black" points="42.5462,-112.5 42.5462,-131.5 161.546,-131.5 161.546,-112.5 42.5462,-112.5"/>
<text text-anchor="middle" x="102.046" y="-119.5" font-family="Helvetica,sans-Serif" font-size="10.00">uncertainty_analysis.cc</text>
</a>
</g>
</g>
<!-- Node17&#45;&gt;Node18 -->
<g id="edge24" class="edge"><title>Node17&#45;&gt;Node18</title>
<path fill="none" stroke="midnightblue" d="M107.896,-158.101C106.402,-149.136 104.689,-138.858 103.505,-131.751"/>
<polygon fill="midnightblue" stroke="midnightblue" points="104.464,-158.794 109.56,-168.083 111.368,-157.644 104.464,-158.794"/>
</g>
<!-- Node19&#45;&gt;Node15 -->
<g id="edge30" class="edge"><title>Node19&#45;&gt;Node15</title>
<path fill="none" stroke="midnightblue" d="M677.108,-273.448C668.771,-265.391 659.334,-254.958 653.046,-244 619.201,-185.017 605.065,-102.339 601.206,-75.6616"/>
<polygon fill="midnightblue" stroke="midnightblue" points="674.902,-276.175 684.625,-280.384 679.649,-271.031 674.902,-276.175"/>
</g>
<!-- Node20 -->
<g id="node20" class="node"><title>Node20</title>
<g id="a_node20"><a xlink:href="mocus_8cc.xhtml" target="_top" xlink:title="Implementation of the MOCUS algorithm. ">
<polygon fill="white" stroke="black" points="662.546,-224.5 662.546,-243.5 721.546,-243.5 721.546,-224.5 662.546,-224.5"/>
<text text-anchor="middle" x="692.046" y="-231.5" font-family="Helvetica,sans-Serif" font-size="10.00">mocus.cc</text>
</a>
</g>
</g>
<!-- Node19&#45;&gt;Node20 -->
<g id="edge29" class="edge"><title>Node19&#45;&gt;Node20</title>
<path fill="none" stroke="midnightblue" d="M693.98,-269.805C693.486,-260.91 692.923,-250.78 692.532,-243.751"/>
<polygon fill="midnightblue" stroke="midnightblue" points="690.501,-270.293 694.551,-280.083 697.491,-269.904 690.501,-270.293"/>
</g>
<!-- Node22&#45;&gt;Node6 -->
<g id="edge39" class="edge"><title>Node22&#45;&gt;Node6</title>
<path fill="none" stroke="midnightblue" d="M256.334,-382.84C261.902,-369.277 266.578,-350.636 259.046,-336 250.251,-318.909 231.624,-306.871 216.894,-299.573"/>
<polygon fill="midnightblue" stroke="midnightblue" points="253.087,-381.524 252.09,-392.071 259.447,-384.448 253.087,-381.524"/>
</g>
<!-- Node23 -->
<g id="node23" class="node"><title>Node23</title>
<g id="a_node23"><a xlink:href="preprocessor_8cc.xhtml" target="_top" xlink:title="Implementation of preprocessing algorithms. ">
<polygon fill="white" stroke="black" points="164.046,-336.5 164.046,-355.5 250.046,-355.5 250.046,-336.5 164.046,-336.5"/>
<text text-anchor="middle" x="207.046" y="-343.5" font-family="Helvetica,sans-Serif" font-size="10.00">preprocessor.cc</text>
</a>
</g>
</g>
<!-- Node22&#45;&gt;Node23 -->
<g id="edge40" class="edge"><title>Node22&#45;&gt;Node23</title>
<path fill="none" stroke="midnightblue" d="M234.346,-383.855C227.42,-374.505 219.14,-363.327 213.528,-355.751"/>
<polygon fill="midnightblue" stroke="midnightblue" points="231.676,-386.131 240.441,-392.083 237.301,-381.964 231.676,-386.131"/>
</g>
</g>
</svg>
