<?xml version="1.0" encoding="UTF-8" standalone="no"?>
<!DOCTYPE svg PUBLIC "-//W3C//DTD SVG 1.1//EN"
 "http://www.w3.org/Graphics/SVG/1.1/DTD/svg11.dtd">
<!-- Generated by graphviz version 2.38.0 (20140413.2041)
 -->
<!-- Title: Graphical Class Hierarchy Pages: 1 -->
<svg width="218pt" height="78pt"
 viewBox="0.00 0.00 218.00 77.50" xmlns="http://www.w3.org/2000/svg" xmlns:xlink="http://www.w3.org/1999/xlink">
<g id="graph0" class="graph" transform="scale(1 1) rotate(0) translate(4 73.5)">
<title>Graphical Class Hierarchy</title>
<polygon fill="white" stroke="none" points="-4,4 -4,-73.5 214,-73.5 214,4 -4,4"/>
<!-- Node1 -->
<g id="node1" class="node"><title>Node1</title>
<polygon fill="white" stroke="#bfbfbf" points="0,-22.5 0,-41.5 44,-41.5 44,-22.5 0,-22.5"/>
<text text-anchor="middle" x="22" y="-29.5" font-family="Helvetica,sans-Serif" font-size="10.00">vector</text>
</g>
<!-- Node2 -->
<g id="node2" class="node"><title>Node2</title>
<g id="a_node2"><a xlink:href="classext_1_1index__map.xhtml" target="_top" xlink:title="ext::index_map\&lt; const\l mef::BasicEvent * \&gt;">
<polygon fill="white" stroke="black" points="87,-39 87,-69 203,-69 203,-39 87,-39"/>
<text text-anchor="start" x="95" y="-57" font-family="Helvetica,sans-Serif" font-size="10.00">ext::index_map&lt; const</text>
<text text-anchor="middle" x="145" y="-46" font-family="Helvetica,sans-Serif" font-size="10.00"> mef::BasicEvent * &gt;</text>
</a>
</g>
</g>
<!-- Node1&#45;&gt;Node2 -->
<g id="edge1" class="edge"><title>Node1&#45;&gt;Node2</title>
<path fill="none" stroke="midnightblue" d="M53.9476,-37.6268C63.9833,-39.4515 75.4572,-41.5377 86.7776,-43.5959"/>
<polygon fill="midnightblue" stroke="midnightblue" points="54.5414,-34.1775 44.0766,-35.8321 53.2892,-41.0646 54.5414,-34.1775"/>
</g>
<!-- Node3 -->
<g id="node3" class="node"><title>Node3</title>
<g id="a_node3"><a xlink:href="classext_1_1index__map.xhtml" target="_top" xlink:title="ext::index_map\&lt; double \&gt;">
<polygon fill="white" stroke="black" points="80,-0.5 80,-19.5 210,-19.5 210,-0.5 80,-0.5"/>
<text text-anchor="middle" x="145" y="-7.5" font-family="Helvetica,sans-Serif" font-size="10.00">ext::index_map&lt; double &gt;</text>
</a>
</g>
</g>
<!-- Node1&#45;&gt;Node3 -->
<g id="edge2" class="edge"><title>Node1&#45;&gt;Node3</title>
<path fill="none" stroke="midnightblue" d="M54.0232,-26.3594C65.5018,-24.2724 78.8537,-21.8448 91.7028,-19.5086"/>
<polygon fill="midnightblue" stroke="midnightblue" points="53.2892,-22.9354 44.0766,-28.1679 54.5414,-29.8225 53.2892,-22.9354"/>
</g>
</g>
</svg>
