<?xml version="1.0" encoding="UTF-8" standalone="no"?>
<!DOCTYPE svg PUBLIC "-//W3C//DTD SVG 1.1//EN"
 "http://www.w3.org/Graphics/SVG/1.1/DTD/svg11.dtd">
<!-- Generated by graphviz version 2.38.0 (20140413.2041)
 -->
<!-- Title: Graphical Class Hierarchy Pages: 1 -->
<svg width="249pt" height="88pt"
 viewBox="0.00 0.00 249.00 88.00" xmlns="http://www.w3.org/2000/svg" xmlns:xlink="http://www.w3.org/1999/xlink">
<g id="graph0" class="graph" transform="scale(1 1) rotate(0) translate(4 84)">
<title>Graphical Class Hierarchy</title>
<polygon fill="white" stroke="none" points="-4,4 -4,-84 245,-84 245,4 -4,4"/>
<!-- Node1 -->
<g id="node1" class="node"><title>Node1</title>
<polygon fill="white" stroke="#bfbfbf" points="0,-30 0,-49 81,-49 81,-30 0,-30"/>
<text text-anchor="middle" x="40.5" y="-37" font-family="Helvetica,sans-Serif" font-size="10.00">iterator_facade</text>
</g>
<!-- Node2 -->
<g id="node2" class="node"><title>Node2</title>
<g id="a_node2"><a xlink:href="classext_1_1combination__iterator.xhtml" target="_top" xlink:title="Read forward&#45;iterator for combination generation. ">
<polygon fill="white" stroke="black" points="117,-49.5 117,-79.5 241,-79.5 241,-49.5 117,-49.5"/>
<text text-anchor="start" x="125" y="-67.5" font-family="Helvetica,sans-Serif" font-size="10.00">ext::combination_iterator</text>
<text text-anchor="middle" x="179" y="-56.5" font-family="Helvetica,sans-Serif" font-size="10.00">&lt; Iterator, value_type &gt;</text>
</a>
</g>
</g>
<!-- Node1&#45;&gt;Node2 -->
<g id="edge1" class="edge"><title>Node1&#45;&gt;Node2</title>
<path fill="none" stroke="midnightblue" d="M91.2392,-48.6097C99.5385,-50.1298 108.233,-51.7221 116.779,-53.2873"/>
<polygon fill="midnightblue" stroke="midnightblue" points="91.8153,-45.1571 81.3484,-46.7982 90.5542,-52.0426 91.8153,-45.1571"/>
</g>
<!-- Node3 -->
<g id="node3" class="node"><title>Node3</title>
<g id="a_node3"><a xlink:href="classscram_1_1core_1_1Zbdd_1_1const__iterator.xhtml" target="_top" xlink:title="Iterator over products in a ZBDD container. ">
<polygon fill="white" stroke="black" points="128,-0.5 128,-30.5 230,-30.5 230,-0.5 128,-0.5"/>
<text text-anchor="start" x="136" y="-18.5" font-family="Helvetica,sans-Serif" font-size="10.00">scram::core::Zbdd::</text>
<text text-anchor="middle" x="179" y="-7.5" font-family="Helvetica,sans-Serif" font-size="10.00">const_iterator</text>
</a>
</g>
</g>
<!-- Node1&#45;&gt;Node3 -->
<g id="edge2" class="edge"><title>Node1&#45;&gt;Node3</title>
<path fill="none" stroke="midnightblue" d="M91.4702,-30.714C103.263,-28.6406 115.842,-26.4289 127.651,-24.3526"/>
<polygon fill="midnightblue" stroke="midnightblue" points="90.5912,-27.3148 81.3484,-32.4937 91.8034,-34.2091 90.5912,-27.3148"/>
</g>
</g>
</svg>
