<?xml version="1.0" encoding="UTF-8" standalone="no"?>
<!DOCTYPE svg PUBLIC "-//W3C//DTD SVG 1.1//EN"
 "http://www.w3.org/Graphics/SVG/1.1/DTD/svg11.dtd">
<!-- Generated by graphviz version 2.38.0 (20140413.2041)
 -->
<!-- Title: initializer.h Pages: 1 -->
<!--zoomable 442 -->
<svg id="main" version="1.1" xmlns="http://www.w3.org/2000/svg" xmlns:xlink="http://www.w3.org/1999/xlink" xml:space="preserve" onload="init(evt)">
<style type="text/css"><![CDATA[
.edge:hover path { stroke: red; }
.edge:hover polygon { stroke: red; fill: red; }
]]></style>
<script type="text/javascript"><![CDATA[
var edges = document.getElementsByTagName('g');
if (edges && edges.length) {
  for (var i=0;i<edges.length;i++) {
    if (edges[i].id.substr(0,4)=='edge') {
      edges[i].setAttribute('class','edge');
    }
  }
}
]]></script>
        <defs>
                <circle id="rim" cx="0" cy="0" r="7"/>
                <circle id="rim2" cx="0" cy="0" r="3.5"/>
                <g id="zoomPlus">
                        <use xlink:href="#rim" fill="#404040">
                                <set attributeName="fill" to="#808080" begin="zoomplus.mouseover" end="zoomplus.mouseout"/>
                        </use>
                        <path d="M-4,0h8M0,-4v8" fill="none" stroke="white" stroke-width="1.5" pointer-events="none"/>
                </g>
                <g id="zoomMin">
                        <use xlink:href="#rim" fill="#404040">
                                <set attributeName="fill" to="#808080" begin="zoomminus.mouseover" end="zoomminus.mouseout"/>
                        </use>
                        <path d="M-4,0h8" fill="none" stroke="white" stroke-width="1.5" pointer-events="none"/>
                </g>
                <g id="dirArrow">
                        <path fill="none" stroke="white" stroke-width="1.5" d="M0,-3.0v7 M-2.5,-0.5L0,-3.0L2.5,-0.5"/>
                </g>
               <g id="resetDef">
                       <use xlink:href="#rim2" fill="#404040">
                               <set attributeName="fill" to="#808080" begin="reset.mouseover" end="reset.mouseout"/>
                       </use>
               </g>
        </defs>

<script type="text/javascript">
var viewWidth = 1733;
var viewHeight = 442;
var sectionId = 'dynsection-0';
</script>
<script xlink:href="svgpan.js"/>
<svg id="graph" class="graph">
<g id="viewport">
<title>initializer.h</title>
<polygon fill="white" stroke="none" points="-4,4 -4,-438 1728.63,-438 1728.63,4 -4,4"/>
<!-- Node1 -->
<g id="node1" class="node"><title>Node1</title>
<polygon fill="#bfbfbf" stroke="black" points="511.628,-414.5 511.628,-433.5 574.628,-433.5 574.628,-414.5 511.628,-414.5"/>
<text text-anchor="middle" x="543.128" y="-421.5" font-family="Helvetica,sans-Serif" font-size="10.00">initializer.h</text>
</g>
<!-- Node2 -->
<g id="node2" class="node"><title>Node2</title>
<polygon fill="white" stroke="#bfbfbf" points="739.128,-67.5 739.128,-86.5 791.128,-86.5 791.128,-67.5 739.128,-67.5"/>
<text text-anchor="middle" x="765.128" y="-74.5" font-family="Helvetica,sans-Serif" font-size="10.00">memory</text>
</g>
<!-- Node1&#45;&gt;Node2 -->
<g id="edge1" class="edge"><title>Node1&#45;&gt;Node2</title>
<path fill="none" stroke="midnightblue" d="M574.859,-416.576C621.973,-405.432 710.314,-378.12 761.128,-322 821.163,-255.698 817.357,-208.512 791.128,-123 788.124,-113.204 782.668,-103.244 777.528,-95.1927"/>
<polygon fill="midnightblue" stroke="midnightblue" points="780.31,-93.059 771.804,-86.7428 774.515,-96.985 780.31,-93.059"/>
</g>
<!-- Node3 -->
<g id="node3" class="node"><title>Node3</title>
<polygon fill="white" stroke="#bfbfbf" points="1064.63,-6 1064.63,-25 1105.63,-25 1105.63,-6 1064.63,-6"/>
<text text-anchor="middle" x="1085.13" y="-13" font-family="Helvetica,sans-Serif" font-size="10.00">string</text>
</g>
<!-- Node1&#45;&gt;Node3 -->
<g id="edge2" class="edge"><title>Node1&#45;&gt;Node3</title>
<path fill="none" stroke="midnightblue" d="M574.893,-422.993C716.082,-422.724 1287.4,-419.069 1461.13,-378 1534.38,-360.682 1615.13,-382.776 1615.13,-307.5 1615.13,-307.5 1615.13,-307.5 1615.13,-132 1615.13,-80.5688 1229.19,-32.8091 1115.99,-19.9058"/>
<polygon fill="midnightblue" stroke="midnightblue" points="1116.23,-16.4116 1105.91,-18.767 1115.45,-23.3674 1116.23,-16.4116"/>
</g>
<!-- Node4 -->
<g id="node4" class="node"><title>Node4</title>
<polygon fill="white" stroke="#bfbfbf" points="66.6284,-358.5 66.6284,-377.5 149.628,-377.5 149.628,-358.5 66.6284,-358.5"/>
<text text-anchor="middle" x="108.128" y="-365.5" font-family="Helvetica,sans-Serif" font-size="10.00">unordered_map</text>
</g>
<!-- Node1&#45;&gt;Node4 -->
<g id="edge3" class="edge"><title>Node1&#45;&gt;Node4</title>
<path fill="none" stroke="midnightblue" d="M511.626,-419.703C446.583,-412.799 292.751,-395.964 164.128,-378 162.666,-377.796 161.182,-377.584 159.685,-377.368"/>
<polygon fill="midnightblue" stroke="midnightblue" points="160.097,-373.891 149.69,-375.875 159.063,-380.814 160.097,-373.891"/>
</g>
<!-- Node5 -->
<g id="node5" class="node"><title>Node5</title>
<polygon fill="white" stroke="#bfbfbf" points="341.128,-179.5 341.128,-198.5 381.128,-198.5 381.128,-179.5 341.128,-179.5"/>
<text text-anchor="middle" x="361.128" y="-186.5" font-family="Helvetica,sans-Serif" font-size="10.00">utility</text>
</g>
<!-- Node1&#45;&gt;Node5 -->
<g id="edge4" class="edge"><title>Node1&#45;&gt;Node5</title>
<path fill="none" stroke="midnightblue" d="M511.536,-422.622C446.963,-421.111 303.384,-413.716 273.128,-378 226.785,-323.293 305.624,-240.07 343.063,-205.696"/>
<polygon fill="midnightblue" stroke="midnightblue" points="345.674,-208.055 350.774,-198.769 340.996,-202.848 345.674,-208.055"/>
</g>
<!-- Node6 -->
<g id="node6" class="node"><title>Node6</title>
<polygon fill="white" stroke="#bfbfbf" points="549.128,-6 549.128,-25 593.128,-25 593.128,-6 549.128,-6"/>
<text text-anchor="middle" x="571.128" y="-13" font-family="Helvetica,sans-Serif" font-size="10.00">vector</text>
</g>
<!-- Node1&#45;&gt;Node6 -->
<g id="edge5" class="edge"><title>Node1&#45;&gt;Node6</title>
<path fill="none" stroke="midnightblue" d="M511.367,-422.483C408.255,-420.48 87.7421,-411.579 57.1284,-378 -52.4694,-257.785 107.681,-145.562 250.128,-67 299.465,-39.79 467.237,-24.2971 538.587,-18.8021"/>
<polygon fill="midnightblue" stroke="midnightblue" points="539.075,-22.2754 548.784,-18.0347 538.55,-15.2951 539.075,-22.2754"/>
</g>
<!-- Node7 -->
<g id="node7" class="node"><title>Node7</title>
<polygon fill="white" stroke="#bfbfbf" points="266.628,-67.5 266.628,-86.5 383.628,-86.5 383.628,-67.5 266.628,-67.5"/>
<text text-anchor="middle" x="325.128" y="-74.5" font-family="Helvetica,sans-Serif" font-size="10.00">boost/noncopyable.hpp</text>
</g>
<!-- Node1&#45;&gt;Node7 -->
<g id="edge6" class="edge"><title>Node1&#45;&gt;Node7</title>
<path fill="none" stroke="midnightblue" d="M511.397,-421.978C440.141,-419.144 270.001,-409.21 223.128,-378 170.216,-342.768 166.95,-316.303 150.128,-255 128.176,-175 237.558,-115.448 293.645,-90.6644"/>
<polygon fill="midnightblue" stroke="midnightblue" points="295.331,-93.7492 303.131,-86.5793 292.562,-87.32 295.331,-93.7492"/>
</g>
<!-- Node8 -->
<g id="node8" class="node"><title>Node8</title>
<polygon fill="white" stroke="#bfbfbf" points="282.128,-358.5 282.128,-377.5 374.128,-377.5 374.128,-358.5 282.128,-358.5"/>
<text text-anchor="middle" x="328.128" y="-365.5" font-family="Helvetica,sans-Serif" font-size="10.00">boost/variant.hpp</text>
</g>
<!-- Node1&#45;&gt;Node8 -->
<g id="edge7" class="edge"><title>Node1&#45;&gt;Node8</title>
<path fill="none" stroke="midnightblue" d="M511.404,-415.032C474.499,-405.763 413.35,-390.405 371.932,-380.002"/>
<polygon fill="midnightblue" stroke="midnightblue" points="372.666,-376.577 362.114,-377.536 370.96,-383.367 372.666,-376.577"/>
</g>
<!-- Node9 -->
<g id="node9" class="node"><title>Node9</title>
<polygon fill="white" stroke="#bfbfbf" points="392.628,-358.5 392.628,-377.5 495.628,-377.5 495.628,-358.5 392.628,-358.5"/>
<text text-anchor="middle" x="444.128" y="-365.5" font-family="Helvetica,sans-Serif" font-size="10.00">libxml++/libxml++.h</text>
</g>
<!-- Node1&#45;&gt;Node9 -->
<g id="edge8" class="edge"><title>Node1&#45;&gt;Node9</title>
<path fill="none" stroke="midnightblue" d="M527.222,-414.324C511.49,-405.743 487.186,-392.486 468.92,-382.522"/>
<polygon fill="midnightblue" stroke="midnightblue" points="470.45,-379.37 459.995,-377.655 467.098,-385.516 470.45,-379.37"/>
</g>
<!-- Node10 -->
<g id="node10" class="node"><title>Node10</title>
<g id="a_node10"><a xlink:href="ccf__group_8h.xhtml" target="_top" xlink:title="Functional containers for basic events grouped by common cause failure. ">
<polygon fill="white" stroke="black" points="595.128,-235.5 595.128,-254.5 663.128,-254.5 663.128,-235.5 595.128,-235.5"/>
<text text-anchor="middle" x="629.128" y="-242.5" font-family="Helvetica,sans-Serif" font-size="10.00">ccf_group.h</text>
</a>
</g>
</g>
<!-- Node1&#45;&gt;Node10 -->
<g id="edge9" class="edge"><title>Node1&#45;&gt;Node10</title>
<path fill="none" stroke="midnightblue" d="M550.393,-414.478C557.59,-405.74 568.598,-391.549 576.128,-378 597.543,-339.471 614.862,-290.496 623.385,-264.375"/>
<polygon fill="midnightblue" stroke="midnightblue" points="626.774,-265.267 626.486,-254.676 620.107,-263.135 626.774,-265.267"/>
</g>
<!-- Node12 -->
<g id="node12" class="node"><title>Node12</title>
<g id="a_node12"><a xlink:href="element_8h.xhtml" target="_top" xlink:title="Helper classes, structs, and properties common to all other classes. ">
<polygon fill="white" stroke="black" points="1293.63,-67.5 1293.63,-86.5 1352.63,-86.5 1352.63,-67.5 1293.63,-67.5"/>
<text text-anchor="middle" x="1323.13" y="-74.5" font-family="Helvetica,sans-Serif" font-size="10.00">element.h</text>
</a>
</g>
</g>
<!-- Node1&#45;&gt;Node12 -->
<g id="edge40" class="edge"><title>Node1&#45;&gt;Node12</title>
<path fill="none" stroke="midnightblue" d="M574.639,-422.871C747.928,-421.758 1577.13,-411.024 1577.13,-307.5 1577.13,-307.5 1577.13,-307.5 1577.13,-188 1577.13,-95.8975 1434.76,-80.0481 1363.19,-77.899"/>
<polygon fill="midnightblue" stroke="midnightblue" points="1362.84,-74.3903 1352.76,-77.6679 1362.68,-81.3886 1362.84,-74.3903"/>
</g>
<!-- Node17 -->
<g id="node17" class="node"><title>Node17</title>
<g id="a_node17"><a xlink:href="event_8h.xhtml" target="_top" xlink:title="Contains event classes for fault trees. ">
<polygon fill="white" stroke="black" points="475.628,-179.5 475.628,-198.5 524.628,-198.5 524.628,-179.5 475.628,-179.5"/>
<text text-anchor="middle" x="500.128" y="-186.5" font-family="Helvetica,sans-Serif" font-size="10.00">event.h</text>
</a>
</g>
</g>
<!-- Node1&#45;&gt;Node17 -->
<g id="edge41" class="edge"><title>Node1&#45;&gt;Node17</title>
<path fill="none" stroke="midnightblue" d="M542.855,-414.122C542.376,-401.564 541.131,-377.921 538.128,-358 529.832,-302.959 513.51,-239.14 505.22,-208.408"/>
<polygon fill="midnightblue" stroke="midnightblue" points="508.569,-207.385 502.559,-198.66 501.816,-209.228 508.569,-207.385"/>
</g>
<!-- Node20 -->
<g id="node20" class="node"><title>Node20</title>
<g id="a_node20"><a xlink:href="expression_8h.xhtml" target="_top" xlink:title="Provides the base class for all expressions and units for expression values. ">
<polygon fill="white" stroke="black" points="467.128,-123.5 467.128,-142.5 539.128,-142.5 539.128,-123.5 467.128,-123.5"/>
<text text-anchor="middle" x="503.128" y="-130.5" font-family="Helvetica,sans-Serif" font-size="10.00">expression.h</text>
</a>
</g>
</g>
<!-- Node1&#45;&gt;Node20 -->
<g id="edge49" class="edge"><title>Node1&#45;&gt;Node20</title>
<path fill="none" stroke="midnightblue" d="M538.808,-414.075C532.281,-401.049 519.07,-376.381 504.128,-358 438.464,-277.218 373.847,-294.379 332.128,-199 309.736,-147.806 398.888,-136.278 456.842,-134.074"/>
<polygon fill="midnightblue" stroke="midnightblue" points="457.023,-137.571 466.913,-133.772 456.812,-130.574 457.023,-137.571"/>
</g>
<!-- Node21 -->
<g id="node21" class="node"><title>Node21</title>
<g id="a_node21"><a xlink:href="event__tree_8h.xhtml" target="_top" xlink:title="Event Tree facilities. ">
<polygon fill="white" stroke="black" points="961.628,-179.5 961.628,-198.5 1032.63,-198.5 1032.63,-179.5 961.628,-179.5"/>
<text text-anchor="middle" x="997.128" y="-186.5" font-family="Helvetica,sans-Serif" font-size="10.00">event_tree.h</text>
</a>
</g>
</g>
<!-- Node1&#45;&gt;Node21 -->
<g id="edge42" class="edge"><title>Node1&#45;&gt;Node21</title>
<path fill="none" stroke="midnightblue" d="M574.794,-422.083C648.162,-419.436 827.322,-409.805 877.128,-378 941.583,-336.84 978.01,-247.29 991.291,-208.515"/>
<polygon fill="midnightblue" stroke="midnightblue" points="994.749,-209.205 994.553,-198.612 988.1,-207.015 994.749,-209.205"/>
</g>
<!-- Node22 -->
<g id="node22" class="node"><title>Node22</title>
<g id="a_node22"><a xlink:href="constant_8h.xhtml" target="_top" xlink:title="Constant expressions that cannot have uncertainties. ">
<polygon fill="white" stroke="black" points="159.628,-235.5 159.628,-254.5 272.628,-254.5 272.628,-235.5 159.628,-235.5"/>
<text text-anchor="middle" x="216.128" y="-242.5" font-family="Helvetica,sans-Serif" font-size="10.00">expression/constant.h</text>
</a>
</g>
</g>
<!-- Node1&#45;&gt;Node22 -->
<g id="edge50" class="edge"><title>Node1&#45;&gt;Node22</title>
<path fill="none" stroke="midnightblue" d="M511.46,-422.792C441.782,-421.649 278.338,-414.99 240.128,-378 209.399,-348.251 210.405,-293.265 213.43,-264.552"/>
<polygon fill="midnightblue" stroke="midnightblue" points="216.903,-264.985 214.672,-254.628 209.957,-264.116 216.903,-264.985"/>
</g>
<!-- Node23 -->
<g id="node23" class="node"><title>Node23</title>
<g id="a_node23"><a xlink:href="fault__tree_8h.xhtml" target="_top" xlink:title="Fault Tree and Component containers. ">
<polygon fill="white" stroke="black" points="687.628,-297 687.628,-316 752.628,-316 752.628,-297 687.628,-297"/>
<text text-anchor="middle" x="720.128" y="-304" font-family="Helvetica,sans-Serif" font-size="10.00">fault_tree.h</text>
</a>
</g>
</g>
<!-- Node1&#45;&gt;Node23 -->
<g id="edge52" class="edge"><title>Node1&#45;&gt;Node23</title>
<path fill="none" stroke="midnightblue" d="M556.796,-414.462C571.135,-405.476 594.3,-390.875 614.128,-378 643.81,-358.727 677.831,-335.982 699.151,-321.649"/>
<polygon fill="midnightblue" stroke="midnightblue" points="701.12,-324.543 707.461,-316.055 697.211,-318.736 701.12,-324.543"/>
</g>
<!-- Node25 -->
<g id="node25" class="node"><title>Node25</title>
<g id="a_node25"><a xlink:href="parameter_8h.xhtml" target="_top" xlink:title="Parameter expressions that act like a shareable variable. ">
<polygon fill="white" stroke="black" points="1241.13,-179.5 1241.13,-198.5 1309.13,-198.5 1309.13,-179.5 1241.13,-179.5"/>
<text text-anchor="middle" x="1275.13" y="-186.5" font-family="Helvetica,sans-Serif" font-size="10.00">parameter.h</text>
</a>
</g>
</g>
<!-- Node1&#45;&gt;Node25 -->
<g id="edge81" class="edge"><title>Node1&#45;&gt;Node25</title>
<path fill="none" stroke="midnightblue" d="M575.039,-421.603C718.797,-414.971 1301.38,-384.368 1350.13,-322 1363.05,-305.47 1340.64,-240.294 1337.13,-235 1328.37,-221.799 1314.35,-211.141 1301.85,-203.518"/>
<polygon fill="midnightblue" stroke="midnightblue" points="1303.53,-200.448 1293.11,-198.51 1300.05,-206.52 1303.53,-200.448"/>
</g>
<!-- Node26 -->
<g id="node26" class="node"><title>Node26</title>
<g id="a_node26"><a xlink:href="model_8h.xhtml" target="_top" xlink:title="Representation for a model container for risk analysis. ">
<polygon fill="white" stroke="black" points="1065.63,-358.5 1065.63,-377.5 1116.63,-377.5 1116.63,-358.5 1065.63,-358.5"/>
<text text-anchor="middle" x="1091.13" y="-365.5" font-family="Helvetica,sans-Serif" font-size="10.00">model.h</text>
</a>
</g>
</g>
<!-- Node1&#45;&gt;Node26 -->
<g id="edge66" class="edge"><title>Node1&#45;&gt;Node26</title>
<path fill="none" stroke="midnightblue" d="M574.96,-419.863C670.6,-410.439 954.984,-382.416 1055.47,-372.514"/>
<polygon fill="midnightblue" stroke="midnightblue" points="1055.82,-375.996 1065.43,-371.532 1055.14,-369.03 1055.82,-375.996"/>
</g>
<!-- Node29 -->
<g id="node29" class="node"><title>Node29</title>
<g id="a_node29"><a xlink:href="settings_8h.xhtml" target="_top" xlink:title="Builder for settings. ">
<polygon fill="white" stroke="black" points="99.6284,-67.5 99.6284,-86.5 158.628,-86.5 158.628,-67.5 99.6284,-67.5"/>
<text text-anchor="middle" x="129.128" y="-74.5" font-family="Helvetica,sans-Serif" font-size="10.00">settings.h</text>
</a>
</g>
</g>
<!-- Node1&#45;&gt;Node29 -->
<g id="edge82" class="edge"><title>Node1&#45;&gt;Node29</title>
<path fill="none" stroke="midnightblue" d="M511.521,-422.244C404.832,-419.423 62.5286,-408.086 24.1284,-378 -1.92639,-357.587 0.128426,-340.599 0.128426,-307.5 0.128426,-307.5 0.128426,-307.5 0.128426,-188 0.128426,-138.346 56.1501,-106.365 94.3573,-90.3281"/>
<polygon fill="midnightblue" stroke="midnightblue" points="95.6708,-93.5724 103.642,-86.5933 93.0584,-87.0781 95.6708,-93.5724"/>
</g>
<!-- Node10&#45;&gt;Node2 -->
<g id="edge10" class="edge"><title>Node10&#45;&gt;Node2</title>
<path fill="none" stroke="midnightblue" d="M658.984,-235.376C678.429,-228.39 703.075,-216.751 719.128,-199 745.916,-169.38 757.679,-122.578 762.369,-96.7201"/>
<polygon fill="midnightblue" stroke="midnightblue" points="765.841,-97.176 764.012,-86.7402 758.934,-96.0387 765.841,-97.176"/>
</g>
<!-- Node10&#45;&gt;Node3 -->
<g id="edge11" class="edge"><title>Node10&#45;&gt;Node3</title>
<path fill="none" stroke="midnightblue" d="M652.38,-235.364C675.044,-226.761 710.345,-212.871 740.128,-199 863.808,-141.398 1006.36,-61.5076 1061.58,-30.024"/>
<polygon fill="midnightblue" stroke="midnightblue" points="1063.33,-33.0601 1070.27,-25.0597 1059.85,-26.9825 1063.33,-33.0601"/>
</g>
<!-- Node10&#45;&gt;Node5 -->
<g id="edge12" class="edge"><title>Node10&#45;&gt;Node5</title>
<path fill="none" stroke="midnightblue" d="M594.914,-237.106C542.085,-226.461 441.521,-206.198 391.273,-196.074"/>
<polygon fill="midnightblue" stroke="midnightblue" points="391.844,-192.619 381.35,-194.074 390.461,-199.481 391.844,-192.619"/>
</g>
<!-- Node10&#45;&gt;Node6 -->
<g id="edge13" class="edge"><title>Node10&#45;&gt;Node6</title>
<path fill="none" stroke="midnightblue" d="M647.21,-235.39C660.69,-227.872 678.101,-215.565 686.128,-199 690.005,-191.001 688.765,-187.489 686.128,-179 667.001,-117.416 614.667,-59.2809 587.691,-32.2809"/>
<polygon fill="midnightblue" stroke="midnightblue" points="590.088,-29.7296 580.5,-25.222 585.185,-34.725 590.088,-29.7296"/>
</g>
<!-- Node10&#45;&gt;Node7 -->
<g id="edge14" class="edge"><title>Node10&#45;&gt;Node7</title>
<path fill="none" stroke="midnightblue" d="M595.014,-236.894C561.532,-229.386 509.346,-216.245 466.128,-199 453.848,-194.1 370.552,-152.275 361.128,-143 347.648,-129.732 337.8,-110.339 331.846,-96.1906"/>
<polygon fill="midnightblue" stroke="midnightblue" points="334.981,-94.5997 328.055,-86.5814 328.469,-97.1682 334.981,-94.5997"/>
</g>
<!-- Node11 -->
<g id="node11" class="node"><title>Node11</title>
<polygon fill="white" stroke="#bfbfbf" points="581.128,-179.5 581.128,-198.5 677.128,-198.5 677.128,-179.5 581.128,-179.5"/>
<text text-anchor="middle" x="629.128" y="-186.5" font-family="Helvetica,sans-Serif" font-size="10.00">boost/optional.hpp</text>
</g>
<!-- Node10&#45;&gt;Node11 -->
<g id="edge15" class="edge"><title>Node10&#45;&gt;Node11</title>
<path fill="none" stroke="midnightblue" d="M629.128,-235.083C629.128,-228.006 629.128,-217.861 629.128,-208.986"/>
<polygon fill="midnightblue" stroke="midnightblue" points="632.629,-208.751 629.128,-198.751 625.629,-208.751 632.629,-208.751"/>
</g>
<!-- Node10&#45;&gt;Node12 -->
<g id="edge16" class="edge"><title>Node10&#45;&gt;Node12</title>
<path fill="none" stroke="midnightblue" d="M663.335,-236.489C666.302,-235.945 669.263,-235.438 672.128,-235 835.012,-210.084 881.525,-239.972 1041.13,-199 1141.06,-173.346 1251.18,-117.262 1298.88,-91.4682"/>
<polygon fill="midnightblue" stroke="midnightblue" points="1300.73,-94.4491 1307.83,-86.5882 1297.37,-88.3038 1300.73,-94.4491"/>
</g>
<!-- Node10&#45;&gt;Node17 -->
<g id="edge23" class="edge"><title>Node10&#45;&gt;Node17</title>
<path fill="none" stroke="midnightblue" d="M608.688,-235.444C587.458,-226.557 554.029,-212.563 529.873,-202.451"/>
<polygon fill="midnightblue" stroke="midnightblue" points="531.049,-199.149 520.473,-198.516 528.346,-205.606 531.049,-199.149"/>
</g>
<!-- Node10&#45;&gt;Node20 -->
<g id="edge39" class="edge"><title>Node10&#45;&gt;Node20</title>
<path fill="none" stroke="midnightblue" d="M617.537,-235.322C605.849,-226.462 587.401,-212.179 572.128,-199 553.38,-182.822 532.834,-163.207 519.08,-149.783"/>
<polygon fill="midnightblue" stroke="midnightblue" points="521.42,-147.176 511.831,-142.668 516.516,-152.171 521.42,-147.176"/>
</g>
<!-- Node12&#45;&gt;Node3 -->
<g id="edge18" class="edge"><title>Node12&#45;&gt;Node3</title>
<path fill="none" stroke="midnightblue" d="M1293.47,-68.5846C1248.03,-57.2264 1161.66,-35.6327 1115.69,-24.1408"/>
<polygon fill="midnightblue" stroke="midnightblue" points="1116.27,-20.6788 1105.72,-21.6489 1114.58,-27.4698 1116.27,-20.6788"/>
</g>
<!-- Node12&#45;&gt;Node6 -->
<g id="edge19" class="edge"><title>Node12&#45;&gt;Node6</title>
<path fill="none" stroke="midnightblue" d="M1293.19,-73.6308C1173.21,-64.138 727.749,-28.8922 603.495,-19.0609"/>
<polygon fill="midnightblue" stroke="midnightblue" points="603.71,-15.5671 593.465,-18.2673 603.158,-22.5453 603.71,-15.5671"/>
</g>
<!-- Node13 -->
<g id="node13" class="node"><title>Node13</title>
<polygon fill="white" stroke="#bfbfbf" points="279.128,-6 279.128,-25 325.128,-25 325.128,-6 279.128,-6"/>
<text text-anchor="middle" x="302.128" y="-13" font-family="Helvetica,sans-Serif" font-size="10.00">cstdint</text>
</g>
<!-- Node12&#45;&gt;Node13 -->
<g id="edge17" class="edge"><title>Node12&#45;&gt;Node13</title>
<path fill="none" stroke="midnightblue" d="M1293.62,-74.3407C1190.13,-68.5139 834.064,-48.4003 540.128,-31 467.096,-26.6766 381.47,-21.4119 335.446,-18.5661"/>
<polygon fill="midnightblue" stroke="midnightblue" points="335.634,-15.0711 325.437,-17.9467 335.201,-22.0578 335.634,-15.0711"/>
</g>
<!-- Node14 -->
<g id="node14" class="node"><title>Node14</title>
<polygon fill="white" stroke="#bfbfbf" points="1567.63,-6 1567.63,-25 1724.63,-25 1724.63,-6 1567.63,-6"/>
<text text-anchor="middle" x="1646.13" y="-13" font-family="Helvetica,sans-Serif" font-size="10.00">boost/multi_index_container.hpp</text>
</g>
<!-- Node12&#45;&gt;Node14 -->
<g id="edge20" class="edge"><title>Node12&#45;&gt;Node14</title>
<path fill="none" stroke="midnightblue" d="M1352.65,-70.562C1406.38,-60.6638 1520.97,-39.5552 1590,-26.8403"/>
<polygon fill="midnightblue" stroke="midnightblue" points="1590.64,-30.2814 1599.84,-25.0276 1589.37,-23.3972 1590.64,-30.2814"/>
</g>
<!-- Node15 -->
<g id="node15" class="node"><title>Node15</title>
<polygon fill="white" stroke="#bfbfbf" points="1414.13,-0.5 1414.13,-30.5 1542.13,-30.5 1542.13,-0.5 1414.13,-0.5"/>
<text text-anchor="start" x="1422.13" y="-18.5" font-family="Helvetica,sans-Serif" font-size="10.00">boost/multi_index/hashed</text>
<text text-anchor="middle" x="1478.13" y="-7.5" font-family="Helvetica,sans-Serif" font-size="10.00">_index.hpp</text>
</g>
<!-- Node12&#45;&gt;Node15 -->
<g id="edge21" class="edge"><title>Node12&#45;&gt;Node15</title>
<path fill="none" stroke="midnightblue" d="M1345.34,-67.4751C1367.9,-58.8142 1403.51,-45.1454 1432.17,-34.1415"/>
<polygon fill="midnightblue" stroke="midnightblue" points="1433.52,-37.3743 1441.6,-30.523 1431.01,-30.8392 1433.52,-37.3743"/>
</g>
<!-- Node16 -->
<g id="node16" class="node"><title>Node16</title>
<polygon fill="white" stroke="#bfbfbf" points="1264.13,-0.5 1264.13,-30.5 1382.13,-30.5 1382.13,-0.5 1264.13,-0.5"/>
<text text-anchor="start" x="1272.13" y="-18.5" font-family="Helvetica,sans-Serif" font-size="10.00">boost/multi_index/mem</text>
<text text-anchor="middle" x="1323.13" y="-7.5" font-family="Helvetica,sans-Serif" font-size="10.00">_fun.hpp</text>
</g>
<!-- Node12&#45;&gt;Node16 -->
<g id="edge22" class="edge"><title>Node12&#45;&gt;Node16</title>
<path fill="none" stroke="midnightblue" d="M1323.13,-67.4751C1323.13,-60.471 1323.13,-50.1919 1323.13,-40.6956"/>
<polygon fill="midnightblue" stroke="midnightblue" points="1326.63,-40.5229 1323.13,-30.523 1319.63,-40.523 1326.63,-40.5229"/>
</g>
<!-- Node17&#45;&gt;Node2 -->
<g id="edge25" class="edge"><title>Node17&#45;&gt;Node2</title>
<path fill="none" stroke="midnightblue" d="M524.645,-185.175C560.5,-180.335 628.675,-168.411 681.128,-143 707.413,-130.267 733.328,-108.407 749.269,-93.5894"/>
<polygon fill="midnightblue" stroke="midnightblue" points="751.815,-95.9979 756.645,-86.568 746.989,-90.9278 751.815,-95.9979"/>
</g>
<!-- Node17&#45;&gt;Node3 -->
<g id="edge26" class="edge"><title>Node17&#45;&gt;Node3</title>
<path fill="none" stroke="midnightblue" d="M524.713,-179.363C547.378,-171.07 581.708,-157.668 610.128,-143 666.228,-114.047 670.89,-88.8212 730.128,-67 844.435,-24.8938 991.411,-17.6519 1054.33,-16.5768"/>
<polygon fill="midnightblue" stroke="midnightblue" points="1054.43,-20.0759 1064.38,-16.4466 1054.34,-13.0765 1054.43,-20.0759"/>
</g>
<!-- Node17&#45;&gt;Node6 -->
<g id="edge27" class="edge"><title>Node17&#45;&gt;Node6</title>
<path fill="none" stroke="midnightblue" d="M487.905,-179.488C472.389,-167.548 448.704,-144.834 458.128,-123 476.174,-81.1949 519.599,-48.1931 547.057,-30.5766"/>
<polygon fill="midnightblue" stroke="midnightblue" points="549.055,-33.4558 555.697,-25.2017 545.357,-27.5121 549.055,-33.4558"/>
</g>
<!-- Node17&#45;&gt;Node7 -->
<g id="edge28" class="edge"><title>Node17&#45;&gt;Node7</title>
<path fill="none" stroke="midnightblue" d="M475.284,-181.475C451.341,-174.438 414.777,-161.673 387.128,-143 367.436,-129.7 349.22,-109.205 337.701,-94.7913"/>
<polygon fill="midnightblue" stroke="midnightblue" points="340.335,-92.477 331.44,-86.7216 334.804,-96.768 340.335,-92.477"/>
</g>
<!-- Node17&#45;&gt;Node12 -->
<g id="edge29" class="edge"><title>Node17&#45;&gt;Node12</title>
<path fill="none" stroke="midnightblue" d="M524.759,-184.708C641.393,-169.119 1138.52,-102.674 1283.37,-83.3137"/>
<polygon fill="midnightblue" stroke="midnightblue" points="1284.13,-86.7442 1293.57,-81.9502 1283.2,-79.8059 1284.13,-86.7442"/>
</g>
<!-- Node17&#45;&gt;Node13 -->
<g id="edge24" class="edge"><title>Node17&#45;&gt;Node13</title>
<path fill="none" stroke="midnightblue" d="M475.405,-185.804C394.29,-178.041 138.677,-148.96 90.1284,-87 42.4573,-26.1603 197.453,-17.3194 268.488,-16.3888"/>
<polygon fill="midnightblue" stroke="midnightblue" points="268.755,-19.8868 278.725,-16.302 268.696,-12.887 268.755,-19.8868"/>
</g>
<!-- Node18 -->
<g id="node18" class="node"><title>Node18</title>
<g id="a_node18"><a xlink:href="error_8h.xhtml" target="_top" xlink:title="Exceptions for SCRAM. ">
<polygon fill="white" stroke="black" points="557.128,-123.5 557.128,-142.5 601.128,-142.5 601.128,-123.5 557.128,-123.5"/>
<text text-anchor="middle" x="579.128" y="-130.5" font-family="Helvetica,sans-Serif" font-size="10.00">error.h</text>
</a>
</g>
</g>
<!-- Node17&#45;&gt;Node18 -->
<g id="edge30" class="edge"><title>Node17&#45;&gt;Node18</title>
<path fill="none" stroke="midnightblue" d="M512.821,-179.324C525.03,-170.979 543.707,-158.212 558.131,-148.352"/>
<polygon fill="midnightblue" stroke="midnightblue" points="560.187,-151.187 566.467,-142.655 556.236,-145.408 560.187,-151.187"/>
</g>
<!-- Node17&#45;&gt;Node20 -->
<g id="edge33" class="edge"><title>Node17&#45;&gt;Node20</title>
<path fill="none" stroke="midnightblue" d="M500.624,-179.083C501.017,-172.006 501.581,-161.861 502.074,-152.986"/>
<polygon fill="midnightblue" stroke="midnightblue" points="505.582,-152.93 502.642,-142.751 498.593,-152.542 505.582,-152.93"/>
</g>
<!-- Node18&#45;&gt;Node3 -->
<g id="edge32" class="edge"><title>Node18&#45;&gt;Node3</title>
<path fill="none" stroke="midnightblue" d="M590.474,-123.319C609.903,-108.955 651.311,-80.4903 691.128,-67 820.748,-23.0845 986.175,-16.9084 1054,-16.3509"/>
<polygon fill="midnightblue" stroke="midnightblue" points="1054.41,-19.8492 1064.4,-16.3045 1054.38,-12.8492 1054.41,-19.8492"/>
</g>
<!-- Node19 -->
<g id="node19" class="node"><title>Node19</title>
<polygon fill="white" stroke="#bfbfbf" points="541.628,-67.5 541.628,-86.5 600.628,-86.5 600.628,-67.5 541.628,-67.5"/>
<text text-anchor="middle" x="571.128" y="-74.5" font-family="Helvetica,sans-Serif" font-size="10.00">exception</text>
</g>
<!-- Node18&#45;&gt;Node19 -->
<g id="edge31" class="edge"><title>Node18&#45;&gt;Node19</title>
<path fill="none" stroke="midnightblue" d="M577.807,-123.083C576.747,-115.927 575.223,-105.635 573.897,-96.6911"/>
<polygon fill="midnightblue" stroke="midnightblue" points="577.353,-96.1302 572.425,-86.7511 570.428,-97.1561 577.353,-96.1302"/>
</g>
<!-- Node20&#45;&gt;Node2 -->
<g id="edge35" class="edge"><title>Node20&#45;&gt;Node2</title>
<path fill="none" stroke="midnightblue" d="M539.283,-124.548C589.216,-114.257 678.772,-95.7986 728.797,-85.4881"/>
<polygon fill="midnightblue" stroke="midnightblue" points="729.756,-88.8641 738.844,-83.4175 728.343,-82.0082 729.756,-88.8641"/>
</g>
<!-- Node20&#45;&gt;Node6 -->
<g id="edge36" class="edge"><title>Node20&#45;&gt;Node6</title>
<path fill="none" stroke="midnightblue" d="M506.262,-123.263C511.017,-110.472 520.719,-86.0932 532.128,-67 539.263,-55.0602 548.781,-42.6841 556.628,-33.172"/>
<polygon fill="midnightblue" stroke="midnightblue" points="559.468,-35.2338 563.249,-25.3363 554.121,-30.7161 559.468,-35.2338"/>
</g>
<!-- Node20&#45;&gt;Node7 -->
<g id="edge37" class="edge"><title>Node20&#45;&gt;Node7</title>
<path fill="none" stroke="midnightblue" d="M474.924,-123.444C444.718,-114.28 396.617,-99.6876 363.099,-89.5192"/>
<polygon fill="midnightblue" stroke="midnightblue" points="363.787,-86.0703 353.201,-86.5164 361.754,-92.7688 363.787,-86.0703"/>
</g>
<!-- Node20&#45;&gt;Node12 -->
<g id="edge38" class="edge"><title>Node20&#45;&gt;Node12</title>
<path fill="none" stroke="midnightblue" d="M539.406,-124.293C542.349,-123.806 545.284,-123.365 548.128,-123 828.131,-87.0487 1168.77,-79.8028 1283.36,-78.3564"/>
<polygon fill="midnightblue" stroke="midnightblue" points="1283.47,-81.8555 1293.43,-78.2372 1283.39,-74.856 1283.47,-81.8555"/>
</g>
<!-- Node20&#45;&gt;Node13 -->
<g id="edge34" class="edge"><title>Node20&#45;&gt;Node13</title>
<path fill="none" stroke="midnightblue" d="M488.455,-123.292C467.259,-110.739 426.808,-86.8811 392.128,-67 370.024,-54.3277 344.704,-40.1507 326.563,-30.0513"/>
<polygon fill="midnightblue" stroke="midnightblue" points="328.227,-26.9717 317.786,-25.1712 324.825,-33.0896 328.227,-26.9717"/>
</g>
<!-- Node21&#45;&gt;Node2 -->
<g id="edge43" class="edge"><title>Node21&#45;&gt;Node2</title>
<path fill="none" stroke="midnightblue" d="M992.93,-179.327C985.647,-165.234 969.297,-137.485 947.128,-123 902.546,-93.8707 840.607,-83.5943 801.709,-79.9708"/>
<polygon fill="midnightblue" stroke="midnightblue" points="801.637,-76.453 791.382,-79.1151 801.059,-83.4291 801.637,-76.453"/>
</g>
<!-- Node21&#45;&gt;Node3 -->
<g id="edge44" class="edge"><title>Node21&#45;&gt;Node3</title>
<path fill="none" stroke="midnightblue" d="M1002.29,-179.471C1007.67,-170.492 1016.25,-155.898 1023.13,-143 1043.47,-104.854 1065.28,-59.0804 1076.83,-34.396"/>
<polygon fill="midnightblue" stroke="midnightblue" points="1080.07,-35.7343 1081.12,-25.1918 1073.72,-32.7773 1080.07,-35.7343"/>
</g>
<!-- Node21&#45;&gt;Node6 -->
<g id="edge45" class="edge"><title>Node21&#45;&gt;Node6</title>
<path fill="none" stroke="midnightblue" d="M996.138,-179.101C994.121,-165.193 988.266,-138.313 972.128,-123 918.012,-71.648 688.932,-33.6714 603.46,-21.0457"/>
<polygon fill="midnightblue" stroke="midnightblue" points="603.706,-17.5447 593.306,-19.5658 602.697,-24.4715 603.706,-17.5447"/>
</g>
<!-- Node21&#45;&gt;Node7 -->
<g id="edge46" class="edge"><title>Node21&#45;&gt;Node7</title>
<path fill="none" stroke="midnightblue" d="M961.502,-186.743C857.146,-182.792 553.521,-169.292 458.128,-143 416.643,-131.566 372.53,-107.283 346.973,-91.8499"/>
<polygon fill="midnightblue" stroke="midnightblue" points="348.788,-88.8576 338.436,-86.6047 345.124,-94.8218 348.788,-88.8576"/>
</g>
<!-- Node21&#45;&gt;Node12 -->
<g id="edge47" class="edge"><title>Node21&#45;&gt;Node12</title>
<path fill="none" stroke="midnightblue" d="M1021.42,-179.448C1057.2,-166.887 1126.2,-142.793 1185.13,-123 1219.49,-111.459 1258.8,-98.6809 1286.66,-89.6993"/>
<polygon fill="midnightblue" stroke="midnightblue" points="1287.92,-92.9682 1296.37,-86.5713 1285.78,-86.3052 1287.92,-92.9682"/>
</g>
<!-- Node21&#45;&gt;Node20 -->
<g id="edge48" class="edge"><title>Node21&#45;&gt;Node20</title>
<path fill="none" stroke="midnightblue" d="M961.476,-185.614C886.865,-180.366 708.655,-166.499 549.401,-143.06"/>
<polygon fill="midnightblue" stroke="midnightblue" points="549.831,-139.585 539.424,-141.575 548.8,-146.509 549.831,-139.585"/>
</g>
<!-- Node22&#45;&gt;Node20 -->
<g id="edge51" class="edge"><title>Node22&#45;&gt;Node20</title>
<path fill="none" stroke="midnightblue" d="M224.446,-235.336C238.475,-221.255 268.339,-193.523 299.128,-179 350.038,-154.986 414.2,-143.55 456.833,-138.267"/>
<polygon fill="midnightblue" stroke="midnightblue" points="457.396,-141.725 466.92,-137.082 456.58,-134.773 457.396,-141.725"/>
</g>
<!-- Node23&#45;&gt;Node2 -->
<g id="edge53" class="edge"><title>Node23&#45;&gt;Node2</title>
<path fill="none" stroke="midnightblue" d="M732.729,-296.767C744.417,-287.825 761.039,-272.748 768.128,-255 789.748,-200.875 777.69,-129.809 769.987,-96.6032"/>
<polygon fill="midnightblue" stroke="midnightblue" points="773.295,-95.3998 767.506,-86.5266 766.498,-97.0734 773.295,-95.3998"/>
</g>
<!-- Node23&#45;&gt;Node3 -->
<g id="edge54" class="edge"><title>Node23&#45;&gt;Node3</title>
<path fill="none" stroke="midnightblue" d="M733.116,-296.909C756.247,-282.007 806.535,-251.393 853.128,-235 933.38,-206.765 978.831,-256.936 1041.13,-199 1087.63,-155.754 1088.83,-72.6179 1086.76,-35.3651"/>
<polygon fill="midnightblue" stroke="midnightblue" points="1090.25,-35.1012 1086.05,-25.3719 1083.26,-35.5931 1090.25,-35.1012"/>
</g>
<!-- Node23&#45;&gt;Node6 -->
<g id="edge56" class="edge"><title>Node23&#45;&gt;Node6</title>
<path fill="none" stroke="midnightblue" d="M687.397,-304.589C615.712,-301.011 442.455,-283.563 332.128,-199 284.581,-162.556 274.548,-144.319 257.128,-87 254.544,-78.4952 251.364,-73.766 257.128,-67 293.062,-24.8254 465.643,-17.7403 538.53,-16.6474"/>
<polygon fill="midnightblue" stroke="midnightblue" points="538.977,-20.1423 548.934,-16.5225 538.893,-13.1428 538.977,-20.1423"/>
</g>
<!-- Node23&#45;&gt;Node7 -->
<g id="edge57" class="edge"><title>Node23&#45;&gt;Node7</title>
<path fill="none" stroke="midnightblue" d="M687.463,-297.511C631.16,-282.944 513.214,-248.897 423.128,-199 413.557,-193.699 348.404,-151.963 342.128,-143 332.616,-129.414 328.426,-110.868 326.58,-97.0629"/>
<polygon fill="midnightblue" stroke="midnightblue" points="330.029,-96.3805 325.516,-86.7946 323.066,-97.1021 330.029,-96.3805"/>
</g>
<!-- Node23&#45;&gt;Node10 -->
<g id="edge58" class="edge"><title>Node23&#45;&gt;Node10</title>
<path fill="none" stroke="midnightblue" d="M707.09,-296.975C692.359,-287.343 668.155,-271.517 650.619,-260.052"/>
<polygon fill="midnightblue" stroke="midnightblue" points="652.427,-257.052 642.142,-254.509 648.597,-262.911 652.427,-257.052"/>
</g>
<!-- Node23&#45;&gt;Node12 -->
<g id="edge59" class="edge"><title>Node23&#45;&gt;Node12</title>
<path fill="none" stroke="midnightblue" d="M752.688,-304.827C866.389,-301.741 1242.95,-285.076 1318.13,-199 1342.94,-170.595 1335.43,-122.59 1328.72,-96.3975"/>
<polygon fill="midnightblue" stroke="midnightblue" points="1332.05,-95.3158 1325.99,-86.6283 1325.31,-97.2015 1332.05,-95.3158"/>
</g>
<!-- Node23&#45;&gt;Node17 -->
<g id="edge60" class="edge"><title>Node23&#45;&gt;Node17</title>
<path fill="none" stroke="midnightblue" d="M690.31,-296.974C662.422,-288.38 620.093,-273.723 586.128,-255 560.447,-240.843 533.986,-219.666 517.32,-205.365"/>
<polygon fill="midnightblue" stroke="midnightblue" points="519.389,-202.526 509.554,-198.588 514.787,-207.8 519.389,-202.526"/>
</g>
<!-- Node24 -->
<g id="node24" class="node"><title>Node24</title>
<polygon fill="white" stroke="#bfbfbf" points="681.128,-235.5 681.128,-254.5 759.128,-254.5 759.128,-235.5 681.128,-235.5"/>
<text text-anchor="middle" x="720.128" y="-242.5" font-family="Helvetica,sans-Serif" font-size="10.00">unordered_set</text>
</g>
<!-- Node23&#45;&gt;Node24 -->
<g id="edge55" class="edge"><title>Node23&#45;&gt;Node24</title>
<path fill="none" stroke="midnightblue" d="M720.128,-296.975C720.128,-288.58 720.128,-275.481 720.128,-264.663"/>
<polygon fill="midnightblue" stroke="midnightblue" points="723.629,-264.509 720.128,-254.509 716.629,-264.509 723.629,-264.509"/>
</g>
<!-- Node23&#45;&gt;Node25 -->
<g id="edge61" class="edge"><title>Node23&#45;&gt;Node25</title>
<path fill="none" stroke="midnightblue" d="M740.382,-296.985C776.718,-282.061 855.679,-251.228 925.128,-235 1033.29,-209.727 1163.79,-197.681 1230.75,-192.803"/>
<polygon fill="midnightblue" stroke="midnightblue" points="1231.21,-196.279 1240.93,-192.081 1230.71,-189.297 1231.21,-196.279"/>
</g>
<!-- Node25&#45;&gt;Node2 -->
<g id="edge62" class="edge"><title>Node25&#45;&gt;Node2</title>
<path fill="none" stroke="midnightblue" d="M1240.87,-180.612C1148.63,-160.716 895.63,-106.147 801.254,-85.7917"/>
<polygon fill="midnightblue" stroke="midnightblue" points="801.839,-82.3375 791.325,-83.6503 800.363,-89.1801 801.839,-82.3375"/>
</g>
<!-- Node25&#45;&gt;Node3 -->
<g id="edge63" class="edge"><title>Node25&#45;&gt;Node3</title>
<path fill="none" stroke="midnightblue" d="M1273.71,-179.124C1271.19,-165.718 1264.84,-140.064 1251.13,-123 1214.21,-77.0644 1151.89,-44.7551 1115.02,-28.5138"/>
<polygon fill="midnightblue" stroke="midnightblue" points="1116.35,-25.2764 1105.78,-24.5465 1113.59,-31.7084 1116.35,-25.2764"/>
</g>
<!-- Node25&#45;&gt;Node12 -->
<g id="edge64" class="edge"><title>Node25&#45;&gt;Node12</title>
<path fill="none" stroke="midnightblue" d="M1278.89,-179.368C1286.71,-161.456 1304.83,-119.923 1315.3,-95.9482"/>
<polygon fill="midnightblue" stroke="midnightblue" points="1318.59,-97.1566 1319.38,-86.5914 1312.17,-94.357 1318.59,-97.1566"/>
</g>
<!-- Node25&#45;&gt;Node20 -->
<g id="edge65" class="edge"><title>Node25&#45;&gt;Node20</title>
<path fill="none" stroke="midnightblue" d="M1240.86,-186.497C1118.7,-181.046 704.021,-161.711 549.631,-142.984"/>
<polygon fill="midnightblue" stroke="midnightblue" points="549.767,-139.474 539.408,-141.695 548.891,-146.419 549.767,-139.474"/>
</g>
<!-- Node26&#45;&gt;Node2 -->
<g id="edge67" class="edge"><title>Node26&#45;&gt;Node2</title>
<path fill="none" stroke="midnightblue" d="M1083.01,-358.336C1060.64,-334.225 996.786,-263.851 952.128,-199 930.117,-167.036 939.32,-147.385 909.128,-123 878.007,-97.8641 832.763,-86.7034 801.327,-81.7893"/>
<polygon fill="midnightblue" stroke="midnightblue" points="801.629,-78.2971 791.235,-80.3512 800.641,-85.2271 801.629,-78.2971"/>
</g>
<!-- Node26&#45;&gt;Node3 -->
<g id="edge68" class="edge"><title>Node26&#45;&gt;Node3</title>
<path fill="none" stroke="midnightblue" d="M1116.66,-365.064C1178.95,-360.028 1337.07,-345.268 1384.13,-322 1427.8,-300.405 1463.13,-294.721 1463.13,-246 1463.13,-246 1463.13,-246 1463.13,-132 1463.13,-59.5488 1205.93,-28.0359 1115.85,-19.2203"/>
<polygon fill="midnightblue" stroke="midnightblue" points="1116.01,-15.7195 1105.72,-18.2565 1115.34,-22.6881 1116.01,-15.7195"/>
</g>
<!-- Node26&#45;&gt;Node6 -->
<g id="edge70" class="edge"><title>Node26&#45;&gt;Node6</title>
<path fill="none" stroke="midnightblue" d="M1089.93,-358.489C1087.85,-344.354 1083.22,-315.2 1077.13,-291 1056.75,-210.045 1058.65,-174.734 993.128,-123 873.584,-28.6044 680.639,-16.8341 604.018,-16.0951"/>
<polygon fill="midnightblue" stroke="midnightblue" points="603.592,-12.5937 593.58,-16.0577 603.567,-19.5936 603.592,-12.5937"/>
</g>
<!-- Node26&#45;&gt;Node7 -->
<g id="edge74" class="edge"><title>Node26&#45;&gt;Node7</title>
<path fill="none" stroke="midnightblue" d="M1065.54,-365.899C976.588,-361.888 681.307,-346.962 590.128,-322 467.606,-288.457 402.999,-304.424 332.128,-199 311.267,-167.968 315.995,-121.714 320.838,-96.3239"/>
<polygon fill="midnightblue" stroke="midnightblue" points="324.262,-97.0482 322.913,-86.5396 317.415,-95.5957 324.262,-97.0482"/>
</g>
<!-- Node26&#45;&gt;Node10 -->
<g id="edge75" class="edge"><title>Node26&#45;&gt;Node10</title>
<path fill="none" stroke="midnightblue" d="M1065.62,-367.034C985.992,-366.713 743.48,-362.368 678.128,-322 656.691,-308.758 642.874,-282.247 635.548,-264.31"/>
<polygon fill="midnightblue" stroke="midnightblue" points="638.799,-263.011 631.976,-254.905 632.255,-265.496 638.799,-263.011"/>
</g>
<!-- Node26&#45;&gt;Node12 -->
<g id="edge76" class="edge"><title>Node26&#45;&gt;Node12</title>
<path fill="none" stroke="midnightblue" d="M1116.8,-361.723C1123.11,-360.465 1129.86,-359.154 1136.13,-358 1183.56,-349.27 1318.99,-358.819 1350.13,-322 1365.14,-304.249 1429.08,-417.687 1349.13,-123 1346.45,-113.111 1341.03,-103.14 1335.83,-95.1064"/>
<polygon fill="midnightblue" stroke="midnightblue" points="1338.57,-92.918 1330,-86.6859 1332.81,-96.9009 1338.57,-92.918"/>
</g>
<!-- Node26&#45;&gt;Node14 -->
<g id="edge71" class="edge"><title>Node26&#45;&gt;Node14</title>
<path fill="none" stroke="midnightblue" d="M1116.63,-365.64C1190.78,-361.425 1405.15,-347.319 1470.13,-322 1563.57,-285.592 1653.13,-290.284 1653.13,-190 1653.13,-190 1653.13,-190 1653.13,-132 1653.13,-97.801 1650.03,-58.0103 1647.96,-35.1881"/>
<polygon fill="midnightblue" stroke="midnightblue" points="1651.44,-34.8095 1647.01,-25.1825 1644.47,-35.467 1651.44,-34.8095"/>
</g>
<!-- Node26&#45;&gt;Node15 -->
<g id="edge73" class="edge"><title>Node26&#45;&gt;Node15</title>
<path fill="none" stroke="midnightblue" d="M1116.7,-365.761C1185.58,-362.085 1373.44,-349.721 1428.13,-322 1469.9,-300.825 1501.13,-292.836 1501.13,-246 1501.13,-246 1501.13,-246 1501.13,-132 1501.13,-99.7308 1492.39,-63.3499 1485.68,-40.1925"/>
<polygon fill="midnightblue" stroke="midnightblue" points="1489.01,-39.1152 1482.78,-30.5453 1482.31,-41.1295 1489.01,-39.1152"/>
</g>
<!-- Node26&#45;&gt;Node17 -->
<g id="edge77" class="edge"><title>Node26&#45;&gt;Node17</title>
<path fill="none" stroke="midnightblue" d="M1065.4,-366.143C982.581,-363.114 723.814,-351.467 646.128,-322 585.324,-298.936 534.237,-237.214 512.023,-207.057"/>
<polygon fill="midnightblue" stroke="midnightblue" points="514.757,-204.864 506.077,-198.789 509.074,-208.951 514.757,-204.864"/>
</g>
<!-- Node26&#45;&gt;Node21 -->
<g id="edge78" class="edge"><title>Node26&#45;&gt;Node21</title>
<path fill="none" stroke="midnightblue" d="M1087.72,-358.394C1079.08,-336.94 1055.18,-279.6 1029.13,-235 1023.45,-225.274 1016.24,-214.996 1010.1,-206.722"/>
<polygon fill="midnightblue" stroke="midnightblue" points="1012.82,-204.508 1003.99,-198.651 1007.24,-208.735 1012.82,-204.508"/>
</g>
<!-- Node26&#45;&gt;Node23 -->
<g id="edge79" class="edge"><title>Node26&#45;&gt;Node23</title>
<path fill="none" stroke="midnightblue" d="M1065.63,-362.91C1002.88,-352.847 840.453,-326.797 762.756,-314.336"/>
<polygon fill="midnightblue" stroke="midnightblue" points="763.248,-310.871 752.82,-312.743 762.139,-317.782 763.248,-310.871"/>
</g>
<!-- Node26&#45;&gt;Node25 -->
<g id="edge80" class="edge"><title>Node26&#45;&gt;Node25</title>
<path fill="none" stroke="midnightblue" d="M1116.99,-366.129C1173.12,-363.639 1303.24,-354.419 1330.13,-322 1359.71,-286.324 1316.9,-232.483 1291.55,-205.944"/>
<polygon fill="midnightblue" stroke="midnightblue" points="1293.85,-203.297 1284.34,-198.634 1288.87,-208.212 1293.85,-203.297"/>
</g>
<!-- Node27 -->
<g id="node27" class="node"><title>Node27</title>
<polygon fill="white" stroke="#bfbfbf" points="1119.13,-297 1119.13,-316 1181.13,-316 1181.13,-297 1119.13,-297"/>
<text text-anchor="middle" x="1150.13" y="-304" font-family="Helvetica,sans-Serif" font-size="10.00">type_traits</text>
</g>
<!-- Node26&#45;&gt;Node27 -->
<g id="edge69" class="edge"><title>Node26&#45;&gt;Node27</title>
<path fill="none" stroke="midnightblue" d="M1099.58,-358.475C1108.69,-349.285 1123.4,-334.456 1134.6,-323.156"/>
<polygon fill="midnightblue" stroke="midnightblue" points="1137.13,-325.574 1141.69,-316.009 1132.16,-320.646 1137.13,-325.574"/>
</g>
<!-- Node28 -->
<g id="node28" class="node"><title>Node28</title>
<polygon fill="white" stroke="#bfbfbf" points="1199.13,-291.5 1199.13,-321.5 1321.13,-321.5 1321.13,-291.5 1199.13,-291.5"/>
<text text-anchor="start" x="1207.13" y="-309.5" font-family="Helvetica,sans-Serif" font-size="10.00">boost/multi_index/global</text>
<text text-anchor="middle" x="1260.13" y="-298.5" font-family="Helvetica,sans-Serif" font-size="10.00">_fun.hpp</text>
</g>
<!-- Node26&#45;&gt;Node28 -->
<g id="edge72" class="edge"><title>Node26&#45;&gt;Node28</title>
<path fill="none" stroke="midnightblue" d="M1115.34,-358.475C1140.16,-349.739 1179.44,-335.907 1210.83,-324.855"/>
<polygon fill="midnightblue" stroke="midnightblue" points="1212.03,-328.145 1220.3,-321.523 1209.7,-321.543 1212.03,-328.145"/>
</g>
<!-- Node29&#45;&gt;Node3 -->
<g id="edge84" class="edge"><title>Node29&#45;&gt;Node3</title>
<path fill="none" stroke="midnightblue" d="M158.867,-73.8305C184.805,-71.957 223.451,-69.2109 257.128,-67 567.998,-46.5914 944.713,-24.6149 1054.02,-18.2927"/>
<polygon fill="midnightblue" stroke="midnightblue" points="1054.55,-21.7685 1064.33,-17.6974 1054.14,-14.7801 1054.55,-21.7685"/>
</g>
<!-- Node29&#45;&gt;Node13 -->
<g id="edge83" class="edge"><title>Node29&#45;&gt;Node13</title>
<path fill="none" stroke="midnightblue" d="M153.915,-67.4751C184.227,-57.0498 235.636,-39.3686 269.234,-27.8133"/>
<polygon fill="midnightblue" stroke="midnightblue" points="270.728,-31.0007 279.046,-24.4386 268.452,-24.3813 270.728,-31.0007"/>
</g>
</g>
</svg>
        <g id="navigator" transform="translate(0 0)" fill="#404254">
                <rect fill="#f2f5e9" fill-opacity="0.5" stroke="#606060" stroke-width=".5" x="0" y="0" width="60" height="60"/>
                <use id="zoomplus" xlink:href="#zoomPlus" x="17" y="9" onmousedown="handleZoom(evt,'in')"/>
                <use id="zoomminus" xlink:href="#zoomMin" x="42" y="9" onmousedown="handleZoom(evt,'out')"/>
                <use id="reset" xlink:href="#resetDef" x="30" y="36" onmousedown="handleReset()"/>
                <g id="arrowUp" xlink:href="#dirArrow" transform="translate(30 24)" onmousedown="handlePan(0,-1)">
                  <use xlink:href="#rim" fill="#404040">
                        <set attributeName="fill" to="#808080" begin="arrowUp.mouseover" end="arrowUp.mouseout"/>
                  </use>
                  <path fill="none" stroke="white" stroke-width="1.5" d="M0,-3.0v7 M-2.5,-0.5L0,-3.0L2.5,-0.5"/>
                </g>
                <g id="arrowRight" xlink:href="#dirArrow" transform="rotate(90) translate(36 -43)" onmousedown="handlePan(1,0)">
                  <use xlink:href="#rim" fill="#404040">
                        <set attributeName="fill" to="#808080" begin="arrowRight.mouseover" end="arrowRight.mouseout"/>
                  </use>
                  <path fill="none" stroke="white" stroke-width="1.5" d="M0,-3.0v7 M-2.5,-0.5L0,-3.0L2.5,-0.5"/>
                </g>
                <g id="arrowDown" xlink:href="#dirArrow" transform="rotate(180) translate(-30 -48)" onmousedown="handlePan(0,1)">
                  <use xlink:href="#rim" fill="#404040">
                        <set attributeName="fill" to="#808080" begin="arrowDown.mouseover" end="arrowDown.mouseout"/>
                  </use>
                  <path fill="none" stroke="white" stroke-width="1.5" d="M0,-3.0v7 M-2.5,-0.5L0,-3.0L2.5,-0.5"/>
                </g>
                <g id="arrowLeft" xlink:href="#dirArrow" transform="rotate(270) translate(-36 17)" onmousedown="handlePan(-1,0)">
                  <use xlink:href="#rim" fill="#404040">
                        <set attributeName="fill" to="#808080" begin="arrowLeft.mouseover" end="arrowLeft.mouseout"/>
                  </use>
                  <path fill="none" stroke="white" stroke-width="1.5" d="M0,-3.0v7 M-2.5,-0.5L0,-3.0L2.5,-0.5"/>
                </g>
        </g>
        <svg viewBox="0 0 15 15" width="100%" height="30px" preserveAspectRatio="xMaxYMin meet">
         <g id="arrow_out" transform="scale(0.3 0.3)">
          <a xlink:href="initializer_8h__incl_org.svg" target="_base">
           <rect id="button" ry="5" rx="5" y="6" x="6" height="38" width="38"
                fill="#f2f5e9" fill-opacity="0.5" stroke="#606060" stroke-width="1.0"/>
           <path id="arrow"
             d="M 11.500037,31.436501 C 11.940474,20.09759 22.043105,11.32322 32.158766,21.979434 L 37.068811,17.246167 C 37.068811,17.246167 37.088388,32 37.088388,32 L 22.160133,31.978069 C 22.160133,31.978069 26.997745,27.140456 26.997745,27.140456 C 18.528582,18.264221 13.291696,25.230495 11.500037,31.436501 z"
             style="fill:#404040;"/>
          </a>
         </g>
        </svg>
</svg>
