<?xml version="1.0" encoding="UTF-8" standalone="no"?>
<!DOCTYPE svg PUBLIC "-//W3C//DTD SVG 1.1//EN"
 "http://www.w3.org/Graphics/SVG/1.1/DTD/svg11.dtd">
<!-- Generated by graphviz version 2.38.0 (20140413.2041)
 -->
<!-- Title: model.cc Pages: 1 -->
<svg width="1439pt" height="442pt"
 viewBox="0.00 0.00 1438.75 442.00" xmlns="http://www.w3.org/2000/svg" xmlns:xlink="http://www.w3.org/1999/xlink">
<g id="graph0" class="graph" transform="scale(1 1) rotate(0) translate(4 438)">
<title>model.cc</title>
<polygon fill="white" stroke="none" points="-4,4 -4,-438 1434.75,-438 1434.75,4 -4,4"/>
<!-- Node1 -->
<g id="node1" class="node"><title>Node1</title>
<polygon fill="#bfbfbf" stroke="black" points="724.749,-414.5 724.749,-433.5 780.749,-433.5 780.749,-414.5 724.749,-414.5"/>
<text text-anchor="middle" x="752.749" y="-421.5" font-family="Helvetica,sans-Serif" font-size="10.00">model.cc</text>
</g>
<!-- Node2 -->
<g id="node2" class="node"><title>Node2</title>
<g id="a_node2"><a xlink:href="model_8h.xhtml" target="_top" xlink:title="Representation for a model container for risk analysis. ">
<polygon fill="white" stroke="black" points="727.249,-358.5 727.249,-377.5 778.249,-377.5 778.249,-358.5 727.249,-358.5"/>
<text text-anchor="middle" x="752.749" y="-365.5" font-family="Helvetica,sans-Serif" font-size="10.00">model.h</text>
</a>
</g>
</g>
<!-- Node1&#45;&gt;Node2 -->
<g id="edge1" class="edge"><title>Node1&#45;&gt;Node2</title>
<path fill="none" stroke="midnightblue" d="M752.749,-414.083C752.749,-407.006 752.749,-396.861 752.749,-387.986"/>
<polygon fill="midnightblue" stroke="midnightblue" points="756.249,-387.751 752.749,-377.751 749.249,-387.751 756.249,-387.751"/>
</g>
<!-- Node18 -->
<g id="node18" class="node"><title>Node18</title>
<g id="a_node18"><a xlink:href="error_8h.xhtml" target="_top" xlink:title="Exceptions for SCRAM. ">
<polygon fill="white" stroke="black" points="82.749,-123.5 82.749,-142.5 126.749,-142.5 126.749,-123.5 82.749,-123.5"/>
<text text-anchor="middle" x="104.749" y="-130.5" font-family="Helvetica,sans-Serif" font-size="10.00">error.h</text>
</a>
</g>
</g>
<!-- Node1&#45;&gt;Node18 -->
<g id="edge65" class="edge"><title>Node1&#45;&gt;Node18</title>
<path fill="none" stroke="midnightblue" d="M724.645,-420.915C601.753,-411.432 117.749,-370.109 117.749,-307.5 117.749,-307.5 117.749,-307.5 117.749,-244 117.749,-211.576 112.11,-174.146 108.26,-152.369"/>
<polygon fill="midnightblue" stroke="midnightblue" points="111.699,-151.72 106.449,-142.517 104.814,-152.985 111.699,-151.72"/>
</g>
<!-- Node25 -->
<g id="node25" class="node"><title>Node25</title>
<g id="a_node25"><a xlink:href="find__iterator_8h.xhtml" target="_top" xlink:title="Convenience iterator adaptor to wrap find calls and results. ">
<polygon fill="white" stroke="black" points="1075.75,-358.5 1075.75,-377.5 1167.75,-377.5 1167.75,-358.5 1075.75,-358.5"/>
<text text-anchor="middle" x="1121.75" y="-365.5" font-family="Helvetica,sans-Serif" font-size="10.00">ext/find_iterator.h</text>
</a>
</g>
</g>
<!-- Node1&#45;&gt;Node25 -->
<g id="edge66" class="edge"><title>Node1&#45;&gt;Node25</title>
<path fill="none" stroke="midnightblue" d="M780.787,-418.897C841.431,-410.022 985.766,-388.9 1065.83,-377.183"/>
<polygon fill="midnightblue" stroke="midnightblue" points="1066.36,-380.644 1075.74,-375.733 1065.34,-373.717 1066.36,-380.644"/>
</g>
<!-- Node3 -->
<g id="node3" class="node"><title>Node3</title>
<polygon fill="white" stroke="#bfbfbf" points="356.749,-67.5 356.749,-86.5 408.749,-86.5 408.749,-67.5 356.749,-67.5"/>
<text text-anchor="middle" x="382.749" y="-74.5" font-family="Helvetica,sans-Serif" font-size="10.00">memory</text>
</g>
<!-- Node2&#45;&gt;Node3 -->
<g id="edge2" class="edge"><title>Node2&#45;&gt;Node3</title>
<path fill="none" stroke="midnightblue" d="M727.219,-366.621C622.417,-364.388 230.749,-349.145 230.749,-246 230.749,-246 230.749,-246 230.749,-188 230.749,-130.915 301.979,-100.438 346.917,-86.8905"/>
<polygon fill="midnightblue" stroke="midnightblue" points="347.974,-90.2283 356.619,-84.1031 346.042,-83.5004 347.974,-90.2283"/>
</g>
<!-- Node4 -->
<g id="node4" class="node"><title>Node4</title>
<polygon fill="white" stroke="#bfbfbf" points="229.249,-6 229.249,-25 270.249,-25 270.249,-6 229.249,-6"/>
<text text-anchor="middle" x="249.749" y="-13" font-family="Helvetica,sans-Serif" font-size="10.00">string</text>
</g>
<!-- Node2&#45;&gt;Node4 -->
<g id="edge3" class="edge"><title>Node2&#45;&gt;Node4</title>
<path fill="none" stroke="midnightblue" d="M726.863,-365.631C594.632,-358.304 0.749017,-321.209 0.749017,-246 0.749017,-246 0.749017,-246 0.749017,-132 0.749017,-101.902 -2.24705,-87.5438 19.749,-67 48.3786,-40.2606 163.044,-25.2545 218.883,-19.3999"/>
<polygon fill="midnightblue" stroke="midnightblue" points="219.312,-22.8744 228.907,-18.3813 218.604,-15.9102 219.312,-22.8744"/>
</g>
<!-- Node5 -->
<g id="node5" class="node"><title>Node5</title>
<polygon fill="white" stroke="#bfbfbf" points="567.749,-297 567.749,-316 629.749,-316 629.749,-297 567.749,-297"/>
<text text-anchor="middle" x="598.749" y="-304" font-family="Helvetica,sans-Serif" font-size="10.00">type_traits</text>
</g>
<!-- Node2&#45;&gt;Node5 -->
<g id="edge4" class="edge"><title>Node2&#45;&gt;Node5</title>
<path fill="none" stroke="midnightblue" d="M730.685,-358.475C704.382,-348.313 660.236,-331.256 630.324,-319.7"/>
<polygon fill="midnightblue" stroke="midnightblue" points="631.362,-316.348 620.773,-316.009 628.839,-322.878 631.362,-316.348"/>
</g>
<!-- Node6 -->
<g id="node6" class="node"><title>Node6</title>
<polygon fill="white" stroke="#bfbfbf" points="982.749,-6 982.749,-25 1026.75,-25 1026.75,-6 982.749,-6"/>
<text text-anchor="middle" x="1004.75" y="-13" font-family="Helvetica,sans-Serif" font-size="10.00">vector</text>
</g>
<!-- Node2&#45;&gt;Node6 -->
<g id="edge5" class="edge"><title>Node2&#45;&gt;Node6</title>
<path fill="none" stroke="midnightblue" d="M778.261,-366.274C859.754,-363.657 1112.83,-353.158 1187.75,-322 1237.04,-301.503 1280.75,-299.38 1280.75,-246 1280.75,-246 1280.75,-246 1280.75,-132 1280.75,-79.6449 1109.61,-38.1253 1036.86,-22.8403"/>
<polygon fill="midnightblue" stroke="midnightblue" points="1037.37,-19.3725 1026.87,-20.7773 1035.95,-26.2278 1037.37,-19.3725"/>
</g>
<!-- Node7 -->
<g id="node7" class="node"><title>Node7</title>
<polygon fill="white" stroke="#bfbfbf" points="1100.25,-6 1100.25,-25 1257.25,-25 1257.25,-6 1100.25,-6"/>
<text text-anchor="middle" x="1178.75" y="-13" font-family="Helvetica,sans-Serif" font-size="10.00">boost/multi_index_container.hpp</text>
</g>
<!-- Node2&#45;&gt;Node7 -->
<g id="edge6" class="edge"><title>Node2&#45;&gt;Node7</title>
<path fill="none" stroke="midnightblue" d="M778.533,-366.817C866.717,-365.855 1155.42,-359.821 1238.75,-322 1283.41,-301.732 1318.75,-295.042 1318.75,-246 1318.75,-246 1318.75,-246 1318.75,-132 1318.75,-78.3256 1256.76,-44.9424 1215.28,-28.6118"/>
<polygon fill="midnightblue" stroke="midnightblue" points="1216.33,-25.2683 1205.74,-25.0113 1213.86,-31.8173 1216.33,-25.2683"/>
</g>
<!-- Node8 -->
<g id="node8" class="node"><title>Node8</title>
<polygon fill="white" stroke="#bfbfbf" points="647.749,-291.5 647.749,-321.5 769.749,-321.5 769.749,-291.5 647.749,-291.5"/>
<text text-anchor="start" x="655.749" y="-309.5" font-family="Helvetica,sans-Serif" font-size="10.00">boost/multi_index/global</text>
<text text-anchor="middle" x="708.749" y="-298.5" font-family="Helvetica,sans-Serif" font-size="10.00">_fun.hpp</text>
</g>
<!-- Node2&#45;&gt;Node8 -->
<g id="edge7" class="edge"><title>Node2&#45;&gt;Node8</title>
<path fill="none" stroke="midnightblue" d="M746.445,-358.475C740.876,-350.944 732.506,-339.626 725.067,-329.566"/>
<polygon fill="midnightblue" stroke="midnightblue" points="727.879,-327.482 719.119,-321.523 722.251,-331.644 727.879,-327.482"/>
</g>
<!-- Node9 -->
<g id="node9" class="node"><title>Node9</title>
<polygon fill="white" stroke="#bfbfbf" points="1302.75,-0.5 1302.75,-30.5 1430.75,-30.5 1430.75,-0.5 1302.75,-0.5"/>
<text text-anchor="start" x="1310.75" y="-18.5" font-family="Helvetica,sans-Serif" font-size="10.00">boost/multi_index/hashed</text>
<text text-anchor="middle" x="1366.75" y="-7.5" font-family="Helvetica,sans-Serif" font-size="10.00">_index.hpp</text>
</g>
<!-- Node2&#45;&gt;Node9 -->
<g id="edge8" class="edge"><title>Node2&#45;&gt;Node9</title>
<path fill="none" stroke="midnightblue" d="M778.415,-366.552C871.22,-364.665 1188.87,-355.825 1283.75,-322 1340.07,-301.923 1394.75,-305.789 1394.75,-246 1394.75,-246 1394.75,-246 1394.75,-132 1394.75,-99.6144 1384.22,-63.5223 1376.08,-40.4435"/>
<polygon fill="midnightblue" stroke="midnightblue" points="1379.28,-39.0007 1372.55,-30.8155 1372.71,-41.4092 1379.28,-39.0007"/>
</g>
<!-- Node10 -->
<g id="node10" class="node"><title>Node10</title>
<polygon fill="white" stroke="#bfbfbf" points="859.249,-67.5 859.249,-86.5 976.249,-86.5 976.249,-67.5 859.249,-67.5"/>
<text text-anchor="middle" x="917.749" y="-74.5" font-family="Helvetica,sans-Serif" font-size="10.00">boost/noncopyable.hpp</text>
</g>
<!-- Node2&#45;&gt;Node10 -->
<g id="edge9" class="edge"><title>Node2&#45;&gt;Node10</title>
<path fill="none" stroke="midnightblue" d="M778.404,-366.238C879.225,-362.561 1242.75,-342.606 1242.75,-246 1242.75,-246 1242.75,-246 1242.75,-188 1242.75,-134.406 1082.18,-101.807 986.763,-87.167"/>
<polygon fill="midnightblue" stroke="midnightblue" points="987.014,-83.6653 976.604,-85.6381 985.972,-90.5874 987.014,-83.6653"/>
</g>
<!-- Node11 -->
<g id="node11" class="node"><title>Node11</title>
<g id="a_node11"><a xlink:href="ccf__group_8h.xhtml" target="_top" xlink:title="Functional containers for basic events grouped by common cause failure. ">
<polygon fill="white" stroke="black" points="832.749,-235.5 832.749,-254.5 900.749,-254.5 900.749,-235.5 832.749,-235.5"/>
<text text-anchor="middle" x="866.749" y="-242.5" font-family="Helvetica,sans-Serif" font-size="10.00">ccf_group.h</text>
</a>
</g>
</g>
<!-- Node2&#45;&gt;Node11 -->
<g id="edge10" class="edge"><title>Node2&#45;&gt;Node11</title>
<path fill="none" stroke="midnightblue" d="M766.301,-358.351C778.879,-349.951 797.718,-336.388 811.749,-322 829.452,-303.846 845.965,-279.664 856.187,-263.5"/>
<polygon fill="midnightblue" stroke="midnightblue" points="859.41,-264.944 861.694,-254.598 853.457,-261.261 859.41,-264.944"/>
</g>
<!-- Node14 -->
<g id="node14" class="node"><title>Node14</title>
<g id="a_node14"><a xlink:href="element_8h.xhtml" target="_top" xlink:title="Helper classes, structs, and properties common to all other classes. ">
<polygon fill="white" stroke="black" points="782.249,-67.5 782.249,-86.5 841.249,-86.5 841.249,-67.5 782.249,-67.5"/>
<text text-anchor="middle" x="811.749" y="-74.5" font-family="Helvetica,sans-Serif" font-size="10.00">element.h</text>
</a>
</g>
</g>
<!-- Node2&#45;&gt;Node14 -->
<g id="edge41" class="edge"><title>Node2&#45;&gt;Node14</title>
<path fill="none" stroke="midnightblue" d="M778.629,-364.05C847.25,-354.673 1033.77,-318.72 1109.75,-199 1114.51,-191.495 1114.83,-186.297 1109.75,-179 1094.5,-157.086 928.795,-109.751 851.29,-88.593"/>
<polygon fill="midnightblue" stroke="midnightblue" points="851.973,-85.1518 841.405,-85.9061 850.137,-91.9067 851.973,-85.1518"/>
</g>
<!-- Node17 -->
<g id="node17" class="node"><title>Node17</title>
<g id="a_node17"><a xlink:href="event_8h.xhtml" target="_top" xlink:title="Contains event classes for fault trees. ">
<polygon fill="white" stroke="black" points="530.249,-179.5 530.249,-198.5 579.249,-198.5 579.249,-179.5 530.249,-179.5"/>
<text text-anchor="middle" x="554.749" y="-186.5" font-family="Helvetica,sans-Serif" font-size="10.00">event.h</text>
</a>
</g>
</g>
<!-- Node2&#45;&gt;Node17 -->
<g id="edge42" class="edge"><title>Node2&#45;&gt;Node17</title>
<path fill="none" stroke="midnightblue" d="M727.14,-367.641C676.334,-367.912 560.314,-363.493 474.749,-322 435.124,-302.785 419.469,-295.316 401.749,-255 380.401,-206.429 468.611,-194.098 520.04,-191.005"/>
<polygon fill="midnightblue" stroke="midnightblue" points="520.29,-194.496 530.098,-190.488 519.931,-187.506 520.29,-194.496"/>
</g>
<!-- Node21 -->
<g id="node21" class="node"><title>Node21</title>
<g id="a_node21"><a xlink:href="event__tree_8h.xhtml" target="_top" xlink:title="Event Tree facilities. ">
<polygon fill="white" stroke="black" points="667.249,-179.5 667.249,-198.5 738.249,-198.5 738.249,-179.5 667.249,-179.5"/>
<text text-anchor="middle" x="702.749" y="-186.5" font-family="Helvetica,sans-Serif" font-size="10.00">event_tree.h</text>
</a>
</g>
</g>
<!-- Node2&#45;&gt;Node21 -->
<g id="edge43" class="edge"><title>Node2&#45;&gt;Node21</title>
<path fill="none" stroke="midnightblue" d="M759.639,-358.319C766.018,-349.684 775.057,-335.77 778.749,-322 782.317,-308.692 783.116,-304.067 778.749,-291 767.124,-256.217 738.287,-223.803 719.665,-205.49"/>
<polygon fill="midnightblue" stroke="midnightblue" points="722.038,-202.917 712.39,-198.539 717.203,-207.978 722.038,-202.917"/>
</g>
<!-- Node22 -->
<g id="node22" class="node"><title>Node22</title>
<g id="a_node22"><a xlink:href="fault__tree_8h.xhtml" target="_top" xlink:title="Fault Tree and Component containers. ">
<polygon fill="white" stroke="black" points="484.249,-297 484.249,-316 549.249,-316 549.249,-297 484.249,-297"/>
<text text-anchor="middle" x="516.749" y="-304" font-family="Helvetica,sans-Serif" font-size="10.00">fault_tree.h</text>
</a>
</g>
</g>
<!-- Node2&#45;&gt;Node22 -->
<g id="edge50" class="edge"><title>Node2&#45;&gt;Node22</title>
<path fill="none" stroke="midnightblue" d="M727.109,-361.944C689.773,-354.381 618.391,-339.162 558.749,-322 555.805,-321.153 552.763,-320.219 549.725,-319.247"/>
<polygon fill="midnightblue" stroke="midnightblue" points="550.751,-315.9 540.157,-316.066 548.542,-322.542 550.751,-315.9"/>
</g>
<!-- Node24 -->
<g id="node24" class="node"><title>Node24</title>
<g id="a_node24"><a xlink:href="parameter_8h.xhtml" target="_top" xlink:title="Parameter expressions that act like a shareable variable. ">
<polygon fill="white" stroke="black" points="334.749,-179.5 334.749,-198.5 402.749,-198.5 402.749,-179.5 334.749,-179.5"/>
<text text-anchor="middle" x="368.749" y="-186.5" font-family="Helvetica,sans-Serif" font-size="10.00">parameter.h</text>
</a>
</g>
</g>
<!-- Node2&#45;&gt;Node24 -->
<g id="edge64" class="edge"><title>Node2&#45;&gt;Node24</title>
<path fill="none" stroke="midnightblue" d="M727.13,-366.785C657.77,-365.707 468.347,-359.333 420.749,-322 384.991,-293.953 373.765,-237.766 370.284,-208.572"/>
<polygon fill="midnightblue" stroke="midnightblue" points="373.754,-208.1 369.268,-198.502 366.789,-208.802 373.754,-208.1"/>
</g>
<!-- Node11&#45;&gt;Node3 -->
<g id="edge11" class="edge"><title>Node11&#45;&gt;Node3</title>
<path fill="none" stroke="midnightblue" d="M832.429,-243.718C769.201,-242.292 630.73,-234.924 520.749,-199 471.589,-182.943 455.386,-179.501 418.749,-143 405.35,-129.65 395.49,-110.27 389.51,-96.146"/>
<polygon fill="midnightblue" stroke="midnightblue" points="392.646,-94.5578 385.7,-86.5572 386.14,-97.1429 392.646,-94.5578"/>
</g>
<!-- Node11&#45;&gt;Node4 -->
<g id="edge12" class="edge"><title>Node11&#45;&gt;Node4</title>
<path fill="none" stroke="midnightblue" d="M832.715,-243.202C720.452,-240.295 366.694,-228.828 325.749,-199 271.446,-159.441 255.752,-73.6739 251.373,-35.4944"/>
<polygon fill="midnightblue" stroke="midnightblue" points="254.829,-34.8774 250.347,-25.2772 247.864,-35.5769 254.829,-34.8774"/>
</g>
<!-- Node11&#45;&gt;Node6 -->
<g id="edge14" class="edge"><title>Node11&#45;&gt;Node6</title>
<path fill="none" stroke="midnightblue" d="M900.941,-242.065C931,-238.389 973.348,-228.003 995.749,-199 1033.19,-150.52 1019.27,-71.3398 1010.17,-35.3576"/>
<polygon fill="midnightblue" stroke="midnightblue" points="1013.43,-34.031 1007.45,-25.2866 1006.68,-35.8529 1013.43,-34.031"/>
</g>
<!-- Node11&#45;&gt;Node10 -->
<g id="edge15" class="edge"><title>Node11&#45;&gt;Node10</title>
<path fill="none" stroke="midnightblue" d="M900.794,-239.389C925.752,-234.097 958.221,-222.831 975.749,-199 995.806,-171.731 996.239,-153.099 980.749,-123 973.672,-109.247 960.228,-98.7663 947.571,-91.3942"/>
<polygon fill="midnightblue" stroke="midnightblue" points="949.062,-88.2221 938.596,-86.5733 945.75,-94.3888 949.062,-88.2221"/>
</g>
<!-- Node12 -->
<g id="node12" class="node"><title>Node12</title>
<polygon fill="white" stroke="#bfbfbf" points="1060.75,-179.5 1060.75,-198.5 1100.75,-198.5 1100.75,-179.5 1060.75,-179.5"/>
<text text-anchor="middle" x="1080.75" y="-186.5" font-family="Helvetica,sans-Serif" font-size="10.00">utility</text>
</g>
<!-- Node11&#45;&gt;Node12 -->
<g id="edge13" class="edge"><title>Node11&#45;&gt;Node12</title>
<path fill="none" stroke="midnightblue" d="M900.957,-235.597C937.193,-226.661 996.057,-212.045 1046.75,-199 1048.01,-198.675 1049.3,-198.341 1050.61,-198.003"/>
<polygon fill="midnightblue" stroke="midnightblue" points="1051.84,-201.297 1060.63,-195.376 1050.06,-194.526 1051.84,-201.297"/>
</g>
<!-- Node13 -->
<g id="node13" class="node"><title>Node13</title>
<polygon fill="white" stroke="#bfbfbf" points="870.749,-179.5 870.749,-198.5 966.749,-198.5 966.749,-179.5 870.749,-179.5"/>
<text text-anchor="middle" x="918.749" y="-186.5" font-family="Helvetica,sans-Serif" font-size="10.00">boost/optional.hpp</text>
</g>
<!-- Node11&#45;&gt;Node13 -->
<g id="edge16" class="edge"><title>Node11&#45;&gt;Node13</title>
<path fill="none" stroke="midnightblue" d="M875.336,-235.083C882.908,-227.22 894.127,-215.569 903.263,-206.081"/>
<polygon fill="midnightblue" stroke="midnightblue" points="905.907,-208.382 910.322,-198.751 900.864,-203.527 905.907,-208.382"/>
</g>
<!-- Node11&#45;&gt;Node14 -->
<g id="edge17" class="edge"><title>Node11&#45;&gt;Node14</title>
<path fill="none" stroke="midnightblue" d="M862.924,-235.176C857.787,-221.838 850.524,-196.272 861.749,-179 883.216,-145.967 921.282,-176.033 942.749,-143 947.593,-135.547 947.913,-130.235 942.749,-123 937.178,-115.195 887.694,-99.647 851.181,-89.0343"/>
<polygon fill="midnightblue" stroke="midnightblue" points="851.852,-85.5853 841.274,-86.1824 849.915,-92.3122 851.852,-85.5853"/>
</g>
<!-- Node11&#45;&gt;Node17 -->
<g id="edge24" class="edge"><title>Node11&#45;&gt;Node17</title>
<path fill="none" stroke="midnightblue" d="M832.467,-238.067C772.585,-227.702 649.587,-206.414 589.427,-196.002"/>
<polygon fill="midnightblue" stroke="midnightblue" points="589.748,-192.506 579.298,-194.249 588.554,-199.403 589.748,-192.506"/>
</g>
<!-- Node20 -->
<g id="node20" class="node"><title>Node20</title>
<g id="a_node20"><a xlink:href="expression_8h.xhtml" target="_top" xlink:title="Provides the base class for all expressions and units for expression values. ">
<polygon fill="white" stroke="black" points="676.749,-123.5 676.749,-142.5 748.749,-142.5 748.749,-123.5 676.749,-123.5"/>
<text text-anchor="middle" x="712.749" y="-130.5" font-family="Helvetica,sans-Serif" font-size="10.00">expression.h</text>
</a>
</g>
</g>
<!-- Node11&#45;&gt;Node20 -->
<g id="edge40" class="edge"><title>Node11&#45;&gt;Node20</title>
<path fill="none" stroke="midnightblue" d="M854.665,-235.368C828.351,-216.573 765.625,-171.768 733.096,-148.533"/>
<polygon fill="midnightblue" stroke="midnightblue" points="734.949,-145.556 724.777,-142.591 730.88,-151.252 734.949,-145.556"/>
</g>
<!-- Node14&#45;&gt;Node4 -->
<g id="edge19" class="edge"><title>Node14&#45;&gt;Node4</title>
<path fill="none" stroke="midnightblue" d="M781.93,-72.843C684.925,-62.5729 378.929,-30.1766 280.541,-19.76"/>
<polygon fill="midnightblue" stroke="midnightblue" points="280.686,-16.2559 270.373,-18.6835 279.949,-23.217 280.686,-16.2559"/>
</g>
<!-- Node14&#45;&gt;Node6 -->
<g id="edge20" class="edge"><title>Node14&#45;&gt;Node6</title>
<path fill="none" stroke="midnightblue" d="M839.401,-67.4751C874.652,-56.6075 935.479,-37.8552 972.713,-26.3765"/>
<polygon fill="midnightblue" stroke="midnightblue" points="974.023,-29.6353 982.548,-23.3445 971.96,-22.9459 974.023,-29.6353"/>
</g>
<!-- Node14&#45;&gt;Node7 -->
<g id="edge21" class="edge"><title>Node14&#45;&gt;Node7</title>
<path fill="none" stroke="midnightblue" d="M841.571,-68.6982C844.329,-68.0949 847.087,-67.5186 849.749,-67 936.07,-50.1809 1036.03,-35.512 1102.91,-26.3807"/>
<polygon fill="midnightblue" stroke="midnightblue" points="1103.5,-29.8324 1112.94,-25.0187 1102.56,-22.896 1103.5,-29.8324"/>
</g>
<!-- Node14&#45;&gt;Node9 -->
<g id="edge22" class="edge"><title>Node14&#45;&gt;Node9</title>
<path fill="none" stroke="midnightblue" d="M841.537,-68.5101C844.303,-67.9463 847.072,-67.4306 849.749,-67 1032.98,-37.5363 1081.38,-52.1945 1265.75,-31 1274.44,-30.0005 1283.54,-28.8466 1292.57,-27.6353"/>
<polygon fill="midnightblue" stroke="midnightblue" points="1293.27,-31.0722 1302.7,-26.2485 1292.32,-24.1369 1293.27,-31.0722"/>
</g>
<!-- Node15 -->
<g id="node15" class="node"><title>Node15</title>
<polygon fill="white" stroke="#bfbfbf" points="688.749,-6 688.749,-25 734.749,-25 734.749,-6 688.749,-6"/>
<text text-anchor="middle" x="711.749" y="-13" font-family="Helvetica,sans-Serif" font-size="10.00">cstdint</text>
</g>
<!-- Node14&#45;&gt;Node15 -->
<g id="edge18" class="edge"><title>Node14&#45;&gt;Node15</title>
<path fill="none" stroke="midnightblue" d="M797.421,-67.4751C781.085,-57.7548 754.147,-41.7266 734.837,-30.2372"/>
<polygon fill="midnightblue" stroke="midnightblue" points="736.434,-27.1146 726.05,-25.0091 732.854,-33.1303 736.434,-27.1146"/>
</g>
<!-- Node16 -->
<g id="node16" class="node"><title>Node16</title>
<polygon fill="white" stroke="#bfbfbf" points="752.749,-0.5 752.749,-30.5 870.749,-30.5 870.749,-0.5 752.749,-0.5"/>
<text text-anchor="start" x="760.749" y="-18.5" font-family="Helvetica,sans-Serif" font-size="10.00">boost/multi_index/mem</text>
<text text-anchor="middle" x="811.749" y="-7.5" font-family="Helvetica,sans-Serif" font-size="10.00">_fun.hpp</text>
</g>
<!-- Node14&#45;&gt;Node16 -->
<g id="edge23" class="edge"><title>Node14&#45;&gt;Node16</title>
<path fill="none" stroke="midnightblue" d="M811.749,-67.4751C811.749,-60.471 811.749,-50.1919 811.749,-40.6956"/>
<polygon fill="midnightblue" stroke="midnightblue" points="815.249,-40.5229 811.749,-30.523 808.249,-40.523 815.249,-40.5229"/>
</g>
<!-- Node17&#45;&gt;Node3 -->
<g id="edge26" class="edge"><title>Node17&#45;&gt;Node3</title>
<path fill="none" stroke="midnightblue" d="M530.127,-181.206C506.819,-174.045 471.51,-161.256 444.749,-143 425.119,-129.609 406.891,-109.13 395.352,-94.7462"/>
<polygon fill="midnightblue" stroke="midnightblue" points="397.985,-92.4318 389.078,-86.6952 392.464,-96.7345 397.985,-92.4318"/>
</g>
<!-- Node17&#45;&gt;Node4 -->
<g id="edge27" class="edge"><title>Node17&#45;&gt;Node4</title>
<path fill="none" stroke="midnightblue" d="M547.372,-179.272C528.25,-157.193 474.596,-98.6287 417.749,-67 373.25,-42.2413 315.212,-28.2816 280.303,-21.5761"/>
<polygon fill="midnightblue" stroke="midnightblue" points="280.722,-18.0943 270.253,-19.7241 279.453,-24.9784 280.722,-18.0943"/>
</g>
<!-- Node17&#45;&gt;Node6 -->
<g id="edge28" class="edge"><title>Node17&#45;&gt;Node6</title>
<path fill="none" stroke="midnightblue" d="M565.098,-179.371C592.489,-157.007 669.919,-96.841 744.749,-67 822.94,-35.8189 922.259,-23.4088 972.504,-18.8686"/>
<polygon fill="midnightblue" stroke="midnightblue" points="973.079,-22.3323 982.744,-17.9919 972.482,-15.3578 973.079,-22.3323"/>
</g>
<!-- Node17&#45;&gt;Node10 -->
<g id="edge29" class="edge"><title>Node17&#45;&gt;Node10</title>
<path fill="none" stroke="midnightblue" d="M579.347,-185.277C621.872,-180.107 711.512,-167.166 783.749,-143 794.704,-139.335 855.658,-109.115 891.471,-91.1981"/>
<polygon fill="midnightblue" stroke="midnightblue" points="893.469,-94.1116 900.842,-86.5033 890.334,-87.853 893.469,-94.1116"/>
</g>
<!-- Node17&#45;&gt;Node14 -->
<g id="edge30" class="edge"><title>Node17&#45;&gt;Node14</title>
<path fill="none" stroke="midnightblue" d="M579.45,-187.577C619.678,-185.838 700.587,-177.878 757.749,-143 776.857,-131.341 792.37,-110.49 801.786,-95.5455"/>
<polygon fill="midnightblue" stroke="midnightblue" points="804.929,-97.1102 807.07,-86.7339 798.925,-93.5105 804.929,-97.1102"/>
</g>
<!-- Node17&#45;&gt;Node15 -->
<g id="edge25" class="edge"><title>Node17&#45;&gt;Node15</title>
<path fill="none" stroke="midnightblue" d="M551.997,-179.3C545.771,-157.782 533.056,-101.327 558.749,-67 586.59,-29.8026 642.715,-19.6154 678.699,-17.0476"/>
<polygon fill="midnightblue" stroke="midnightblue" points="678.929,-20.5403 688.719,-16.4913 678.541,-13.5511 678.929,-20.5403"/>
</g>
<!-- Node17&#45;&gt;Node18 -->
<g id="edge31" class="edge"><title>Node17&#45;&gt;Node18</title>
<path fill="none" stroke="midnightblue" d="M530.235,-185.058C454.253,-175.94 222.661,-148.149 137.026,-137.873"/>
<polygon fill="midnightblue" stroke="midnightblue" points="137.209,-134.37 126.863,-136.654 136.375,-141.32 137.209,-134.37"/>
</g>
<!-- Node17&#45;&gt;Node20 -->
<g id="edge34" class="edge"><title>Node17&#45;&gt;Node20</title>
<path fill="none" stroke="midnightblue" d="M579.437,-179.562C605.949,-170.501 648.279,-156.034 678.115,-145.837"/>
<polygon fill="midnightblue" stroke="midnightblue" points="679.383,-149.102 687.713,-142.556 677.119,-142.479 679.383,-149.102"/>
</g>
<!-- Node18&#45;&gt;Node4 -->
<g id="edge33" class="edge"><title>Node18&#45;&gt;Node4</title>
<path fill="none" stroke="midnightblue" d="M107.567,-123.304C112.377,-109.674 123.373,-83.1694 140.749,-67 163.193,-46.1149 195.802,-32.5638 219.501,-24.8105"/>
<polygon fill="midnightblue" stroke="midnightblue" points="220.548,-28.1504 229.057,-21.8381 218.469,-21.4663 220.548,-28.1504"/>
</g>
<!-- Node19 -->
<g id="node19" class="node"><title>Node19</title>
<polygon fill="white" stroke="#bfbfbf" points="29.249,-67.5 29.249,-86.5 88.249,-86.5 88.249,-67.5 29.249,-67.5"/>
<text text-anchor="middle" x="58.749" y="-74.5" font-family="Helvetica,sans-Serif" font-size="10.00">exception</text>
</g>
<!-- Node18&#45;&gt;Node19 -->
<g id="edge32" class="edge"><title>Node18&#45;&gt;Node19</title>
<path fill="none" stroke="midnightblue" d="M97.1531,-123.083C90.5215,-115.298 80.728,-103.801 72.6909,-94.3665"/>
<polygon fill="midnightblue" stroke="midnightblue" points="75.3527,-92.0939 66.2036,-86.7511 70.024,-96.6332 75.3527,-92.0939"/>
</g>
<!-- Node20&#45;&gt;Node3 -->
<g id="edge36" class="edge"><title>Node20&#45;&gt;Node3</title>
<path fill="none" stroke="midnightblue" d="M676.489,-126.067C613.048,-115.685 482.632,-94.3445 419.116,-83.9509"/>
<polygon fill="midnightblue" stroke="midnightblue" points="419.587,-80.4816 409.153,-82.3207 418.457,-87.3897 419.587,-80.4816"/>
</g>
<!-- Node20&#45;&gt;Node6 -->
<g id="edge37" class="edge"><title>Node20&#45;&gt;Node6</title>
<path fill="none" stroke="midnightblue" d="M718.193,-123.261C727.518,-109.073 747.958,-81.1897 772.749,-67 806.61,-47.6189 917.249,-29.2877 972.604,-21.0511"/>
<polygon fill="midnightblue" stroke="midnightblue" points="973.197,-24.5017 982.582,-19.5868 972.18,-17.5759 973.197,-24.5017"/>
</g>
<!-- Node20&#45;&gt;Node10 -->
<g id="edge38" class="edge"><title>Node20&#45;&gt;Node10</title>
<path fill="none" stroke="midnightblue" d="M745.232,-123.444C780.469,-114.162 836.853,-99.3093 875.508,-89.127"/>
<polygon fill="midnightblue" stroke="midnightblue" points="876.64,-92.4483 885.418,-86.5164 874.856,-85.6792 876.64,-92.4483"/>
</g>
<!-- Node20&#45;&gt;Node14 -->
<g id="edge39" class="edge"><title>Node20&#45;&gt;Node14</title>
<path fill="none" stroke="midnightblue" d="M728.655,-123.324C744.387,-114.743 768.691,-101.486 786.958,-91.5224"/>
<polygon fill="midnightblue" stroke="midnightblue" points="788.779,-94.5157 795.882,-86.6545 785.427,-88.3704 788.779,-94.5157"/>
</g>
<!-- Node20&#45;&gt;Node15 -->
<g id="edge35" class="edge"><title>Node20&#45;&gt;Node15</title>
<path fill="none" stroke="midnightblue" d="M712.674,-123.319C712.513,-104.757 712.133,-60.8391 711.913,-35.4734"/>
<polygon fill="midnightblue" stroke="midnightblue" points="715.412,-35.2513 711.825,-25.282 708.412,-35.312 715.412,-35.2513"/>
</g>
<!-- Node21&#45;&gt;Node3 -->
<g id="edge44" class="edge"><title>Node21&#45;&gt;Node3</title>
<path fill="none" stroke="midnightblue" d="M677.905,-179.46C621.313,-160.006 482.692,-112.355 417.591,-89.9768"/>
<polygon fill="midnightblue" stroke="midnightblue" points="418.392,-86.5513 407.797,-86.6104 416.116,-93.1712 418.392,-86.5513"/>
</g>
<!-- Node21&#45;&gt;Node4 -->
<g id="edge45" class="edge"><title>Node21&#45;&gt;Node4</title>
<path fill="none" stroke="midnightblue" d="M687.317,-179.422C648.157,-157.94 541.313,-101.116 446.749,-67 389.25,-46.2561 319.424,-30.4732 280.24,-22.4286"/>
<polygon fill="midnightblue" stroke="midnightblue" points="280.764,-18.9637 270.269,-20.4131 279.377,-25.825 280.764,-18.9637"/>
</g>
<!-- Node21&#45;&gt;Node6 -->
<g id="edge46" class="edge"><title>Node21&#45;&gt;Node6</title>
<path fill="none" stroke="midnightblue" d="M738.478,-185.718C798.496,-179.905 919.392,-159.361 984.749,-87 997.65,-72.7167 1002.29,-50.6951 1003.92,-35.0689"/>
<polygon fill="midnightblue" stroke="midnightblue" points="1007.42,-35.2519 1004.66,-25.023 1000.44,-34.7407 1007.42,-35.2519"/>
</g>
<!-- Node21&#45;&gt;Node10 -->
<g id="edge47" class="edge"><title>Node21&#45;&gt;Node10</title>
<path fill="none" stroke="midnightblue" d="M725.957,-179.5C748.142,-171.103 782.321,-157.453 810.749,-143 841.466,-127.383 875.175,-106.18 896.389,-92.2993"/>
<polygon fill="midnightblue" stroke="midnightblue" points="898.516,-95.0887 904.935,-86.6598 894.661,-89.2459 898.516,-95.0887"/>
</g>
<!-- Node21&#45;&gt;Node14 -->
<g id="edge48" class="edge"><title>Node21&#45;&gt;Node14</title>
<path fill="none" stroke="midnightblue" d="M732.237,-179.472C751.379,-172.529 775.509,-160.9 790.749,-143 801.911,-129.89 807.166,-110.743 809.625,-96.6241"/>
<polygon fill="midnightblue" stroke="midnightblue" points="813.109,-96.984 811.057,-86.5899 806.179,-95.9953 813.109,-96.984"/>
</g>
<!-- Node21&#45;&gt;Node20 -->
<g id="edge49" class="edge"><title>Node21&#45;&gt;Node20</title>
<path fill="none" stroke="midnightblue" d="M704.4,-179.083C705.725,-171.927 707.631,-161.635 709.288,-152.691"/>
<polygon fill="midnightblue" stroke="midnightblue" points="712.749,-153.221 711.128,-142.751 705.866,-151.947 712.749,-153.221"/>
</g>
<!-- Node22&#45;&gt;Node3 -->
<g id="edge51" class="edge"><title>Node22&#45;&gt;Node3</title>
<path fill="none" stroke="midnightblue" d="M493.103,-296.891C469.321,-287.828 431.95,-272.469 401.749,-255 365.43,-233.992 344.672,-236.448 325.749,-199 306.837,-161.573 342.97,-116.738 365.9,-93.571"/>
<polygon fill="midnightblue" stroke="midnightblue" points="368.349,-96.0712 373.072,-86.5869 363.466,-91.0564 368.349,-96.0712"/>
</g>
<!-- Node22&#45;&gt;Node4 -->
<g id="edge52" class="edge"><title>Node22&#45;&gt;Node4</title>
<path fill="none" stroke="midnightblue" d="M484.042,-300.754C450.265,-294.613 397.21,-281.404 358.749,-255 285.964,-205.032 266.851,-174.153 252.749,-87 249.939,-69.6328 249.338,-49.5649 249.351,-35.2917"/>
<polygon fill="midnightblue" stroke="midnightblue" points="252.851,-35.288 249.463,-25.2495 245.852,-35.2097 252.851,-35.288"/>
</g>
<!-- Node22&#45;&gt;Node6 -->
<g id="edge54" class="edge"><title>Node22&#45;&gt;Node6</title>
<path fill="none" stroke="midnightblue" d="M538.249,-296.887C544.74,-294.612 551.95,-292.404 558.749,-291 768.698,-247.661 836.133,-322.062 1039.75,-255 1084.14,-240.38 1106.16,-239.91 1128.75,-199 1165.22,-132.965 1072.2,-60.5286 1027.33,-30.6173"/>
<polygon fill="midnightblue" stroke="midnightblue" points="1029.09,-27.5861 1018.8,-25.0568 1025.27,-33.45 1029.09,-27.5861"/>
</g>
<!-- Node22&#45;&gt;Node10 -->
<g id="edge55" class="edge"><title>Node22&#45;&gt;Node10</title>
<path fill="none" stroke="midnightblue" d="M538.708,-296.853C545.086,-294.634 552.12,-292.464 558.749,-291 679.969,-264.234 1034.73,-297.908 1109.75,-199 1152.47,-142.674 1040.99,-105.864 970.475,-88.8829"/>
<polygon fill="midnightblue" stroke="midnightblue" points="970.926,-85.3939 960.392,-86.5213 969.33,-92.2095 970.926,-85.3939"/>
</g>
<!-- Node22&#45;&gt;Node11 -->
<g id="edge56" class="edge"><title>Node22&#45;&gt;Node11</title>
<path fill="none" stroke="midnightblue" d="M539.179,-296.853C545.441,-294.688 552.297,-292.545 558.749,-291 672.2,-263.836 703.608,-273.755 818.749,-255 820.02,-254.793 821.309,-254.579 822.61,-254.359"/>
<polygon fill="midnightblue" stroke="midnightblue" points="823.45,-257.765 832.696,-252.593 822.242,-250.87 823.45,-257.765"/>
</g>
<!-- Node22&#45;&gt;Node14 -->
<g id="edge57" class="edge"><title>Node22&#45;&gt;Node14</title>
<path fill="none" stroke="midnightblue" d="M540.75,-296.997C583.907,-281.154 676.643,-244.555 746.749,-199 778.442,-178.406 794.867,-177.297 810.749,-143 817.418,-128.598 817.062,-110.405 815.387,-96.9315"/>
<polygon fill="midnightblue" stroke="midnightblue" points="818.82,-96.2374 813.794,-86.9107 811.907,-97.3361 818.82,-96.2374"/>
</g>
<!-- Node22&#45;&gt;Node17 -->
<g id="edge58" class="edge"><title>Node22&#45;&gt;Node17</title>
<path fill="none" stroke="midnightblue" d="M519.605,-296.819C525.767,-278.09 540.422,-233.546 548.731,-208.292"/>
<polygon fill="midnightblue" stroke="midnightblue" points="552.059,-209.375 551.86,-198.782 545.41,-207.187 552.059,-209.375"/>
</g>
<!-- Node23 -->
<g id="node23" class="node"><title>Node23</title>
<polygon fill="white" stroke="#bfbfbf" points="410.749,-235.5 410.749,-254.5 488.749,-254.5 488.749,-235.5 410.749,-235.5"/>
<text text-anchor="middle" x="449.749" y="-242.5" font-family="Helvetica,sans-Serif" font-size="10.00">unordered_set</text>
</g>
<!-- Node22&#45;&gt;Node23 -->
<g id="edge53" class="edge"><title>Node22&#45;&gt;Node23</title>
<path fill="none" stroke="midnightblue" d="M507.15,-296.975C496.701,-287.697 479.781,-272.671 467.013,-261.331"/>
<polygon fill="midnightblue" stroke="midnightblue" points="469.132,-258.532 459.331,-254.509 464.484,-263.766 469.132,-258.532"/>
</g>
<!-- Node22&#45;&gt;Node24 -->
<g id="edge59" class="edge"><title>Node22&#45;&gt;Node24</title>
<path fill="none" stroke="midnightblue" d="M516.875,-296.914C516.618,-282.291 513.98,-252.45 497.749,-235 485.891,-222.251 445.207,-209.325 412.66,-200.618"/>
<polygon fill="midnightblue" stroke="midnightblue" points="413.422,-197.199 402.862,-198.056 411.651,-203.971 413.422,-197.199"/>
</g>
<!-- Node24&#45;&gt;Node3 -->
<g id="edge60" class="edge"><title>Node24&#45;&gt;Node3</title>
<path fill="none" stroke="midnightblue" d="M367.909,-179.105C366.91,-166.526 365.731,-142.859 368.749,-123 370.117,-114.001 372.939,-104.325 375.694,-96.2601"/>
<polygon fill="midnightblue" stroke="midnightblue" points="379.014,-97.3722 379.149,-86.7782 372.437,-94.9759 379.014,-97.3722"/>
</g>
<!-- Node24&#45;&gt;Node4 -->
<g id="edge61" class="edge"><title>Node24&#45;&gt;Node4</title>
<path fill="none" stroke="midnightblue" d="M362.684,-179.26C343.902,-152.191 286.464,-69.413 261.519,-33.4622"/>
<polygon fill="midnightblue" stroke="midnightblue" points="264.237,-31.24 255.66,-25.0194 258.486,-35.2306 264.237,-31.24"/>
</g>
<!-- Node24&#45;&gt;Node14 -->
<g id="edge62" class="edge"><title>Node24&#45;&gt;Node14</title>
<path fill="none" stroke="midnightblue" d="M402.775,-179.551C483.474,-159.513 686.126,-109.193 772.145,-87.8339"/>
<polygon fill="midnightblue" stroke="midnightblue" points="773.179,-91.1835 782.041,-85.3767 771.492,-84.3898 773.179,-91.1835"/>
</g>
<!-- Node24&#45;&gt;Node20 -->
<g id="edge63" class="edge"><title>Node24&#45;&gt;Node20</title>
<path fill="none" stroke="midnightblue" d="M402.991,-182.625C465.062,-172.881 596.212,-152.294 666.293,-141.293"/>
<polygon fill="midnightblue" stroke="midnightblue" points="667.249,-144.685 676.585,-139.677 666.163,-137.77 667.249,-144.685"/>
</g>
<!-- Node25&#45;&gt;Node12 -->
<g id="edge67" class="edge"><title>Node25&#45;&gt;Node12</title>
<path fill="none" stroke="midnightblue" d="M1119.77,-358.463C1113.48,-331.311 1093.84,-246.512 1085.06,-208.618"/>
<polygon fill="midnightblue" stroke="midnightblue" points="1088.47,-207.821 1082.8,-198.868 1081.65,-209.4 1088.47,-207.821"/>
</g>
</g>
</svg>
