<?xml version="1.0" encoding="UTF-8" standalone="no"?>
<!DOCTYPE svg PUBLIC "-//W3C//DTD SVG 1.1//EN"
 "http://www.w3.org/Graphics/SVG/1.1/DTD/svg11.dtd">
<!-- Generated by graphviz version 2.38.0 (20140413.2041)
 -->
<!-- Title: model.h Pages: 1 -->
<svg width="1530pt" height="386pt"
 viewBox="0.00 0.00 1530.00 386.00" xmlns="http://www.w3.org/2000/svg" xmlns:xlink="http://www.w3.org/1999/xlink">
<g id="graph0" class="graph" transform="scale(1 1) rotate(0) translate(4 382)">
<title>model.h</title>
<polygon fill="white" stroke="none" points="-4,4 -4,-382 1526,-382 1526,4 -4,4"/>
<!-- Node1 -->
<g id="node1" class="node"><title>Node1</title>
<polygon fill="#bfbfbf" stroke="black" points="843.5,-358.5 843.5,-377.5 894.5,-377.5 894.5,-358.5 843.5,-358.5"/>
<text text-anchor="middle" x="869" y="-365.5" font-family="Helvetica,sans-Serif" font-size="10.00">model.h</text>
</g>
<!-- Node2 -->
<g id="node2" class="node"><title>Node2</title>
<polygon fill="white" stroke="#bfbfbf" points="302,-67.5 302,-86.5 354,-86.5 354,-67.5 302,-67.5"/>
<text text-anchor="middle" x="328" y="-74.5" font-family="Helvetica,sans-Serif" font-size="10.00">memory</text>
</g>
<!-- Node1&#45;&gt;Node2 -->
<g id="edge1" class="edge"><title>Node1&#45;&gt;Node2</title>
<path fill="none" stroke="midnightblue" d="M843.46,-367.35C751.908,-368.214 441.056,-367.653 355,-322 292.762,-288.983 278.583,-265.39 255,-199 247.742,-178.568 261.67,-129.779 266,-123 274.469,-109.742 288.349,-99.1279 300.831,-91.5457"/>
<polygon fill="midnightblue" stroke="midnightblue" points="302.618,-94.556 309.576,-86.5659 299.154,-88.4731 302.618,-94.556"/>
</g>
<!-- Node3 -->
<g id="node3" class="node"><title>Node3</title>
<polygon fill="white" stroke="#bfbfbf" points="151.5,-6 151.5,-25 192.5,-25 192.5,-6 151.5,-6"/>
<text text-anchor="middle" x="172" y="-13" font-family="Helvetica,sans-Serif" font-size="10.00">string</text>
</g>
<!-- Node1&#45;&gt;Node3 -->
<g id="edge2" class="edge"><title>Node1&#45;&gt;Node3</title>
<path fill="none" stroke="midnightblue" d="M843.463,-366.204C699.924,-361.4 0,-333.491 0,-246 0,-246 0,-246 0,-132 0,-64.6712 91.9588,-34.0518 141.397,-22.4554"/>
<polygon fill="midnightblue" stroke="midnightblue" points="142.251,-25.851 151.253,-20.2632 140.731,-19.0179 142.251,-25.851"/>
</g>
<!-- Node4 -->
<g id="node4" class="node"><title>Node4</title>
<polygon fill="white" stroke="#bfbfbf" points="1320,-297 1320,-316 1382,-316 1382,-297 1320,-297"/>
<text text-anchor="middle" x="1351" y="-304" font-family="Helvetica,sans-Serif" font-size="10.00">type_traits</text>
</g>
<!-- Node1&#45;&gt;Node4 -->
<g id="edge3" class="edge"><title>Node1&#45;&gt;Node4</title>
<path fill="none" stroke="midnightblue" d="M894.903,-366.219C962.972,-363.762 1152.24,-354.316 1306,-322 1309.87,-321.188 1313.87,-320.168 1317.82,-319.048"/>
<polygon fill="midnightblue" stroke="midnightblue" points="1318.88,-322.383 1327.43,-316.118 1316.84,-315.687 1318.88,-322.383"/>
</g>
<!-- Node5 -->
<g id="node5" class="node"><title>Node5</title>
<polygon fill="white" stroke="#bfbfbf" points="928,-6 928,-25 972,-25 972,-6 928,-6"/>
<text text-anchor="middle" x="950" y="-13" font-family="Helvetica,sans-Serif" font-size="10.00">vector</text>
</g>
<!-- Node1&#45;&gt;Node5 -->
<g id="edge4" class="edge"><title>Node1&#45;&gt;Node5</title>
<path fill="none" stroke="midnightblue" d="M894.516,-363.734C974.651,-352.773 1216,-314.107 1216,-246 1216,-246 1216,-246 1216,-132 1216,-91.1449 1186.54,-87.15 1151,-67 1143.58,-62.7905 1036.71,-37.0718 981.908,-24.046"/>
<polygon fill="midnightblue" stroke="midnightblue" points="982.54,-20.5989 972.002,-21.6949 980.924,-27.4097 982.54,-20.5989"/>
</g>
<!-- Node6 -->
<g id="node6" class="node"><title>Node6</title>
<polygon fill="white" stroke="#bfbfbf" points="1021.5,-6 1021.5,-25 1178.5,-25 1178.5,-6 1021.5,-6"/>
<text text-anchor="middle" x="1100" y="-13" font-family="Helvetica,sans-Serif" font-size="10.00">boost/multi_index_container.hpp</text>
</g>
<!-- Node1&#45;&gt;Node6 -->
<g id="edge5" class="edge"><title>Node1&#45;&gt;Node6</title>
<path fill="none" stroke="midnightblue" d="M894.819,-367.02C946.114,-366.191 1063.61,-359.91 1153,-322 1204.72,-300.066 1254,-302.178 1254,-246 1254,-246 1254,-246 1254,-132 1254,-75.956 1187.92,-43.7749 1142.33,-28.2421"/>
<polygon fill="midnightblue" stroke="midnightblue" points="1143.25,-24.8616 1132.66,-25.089 1141.08,-31.5167 1143.25,-24.8616"/>
</g>
<!-- Node7 -->
<g id="node7" class="node"><title>Node7</title>
<polygon fill="white" stroke="#bfbfbf" points="1400,-291.5 1400,-321.5 1522,-321.5 1522,-291.5 1400,-291.5"/>
<text text-anchor="start" x="1408" y="-309.5" font-family="Helvetica,sans-Serif" font-size="10.00">boost/multi_index/global</text>
<text text-anchor="middle" x="1461" y="-298.5" font-family="Helvetica,sans-Serif" font-size="10.00">_fun.hpp</text>
</g>
<!-- Node1&#45;&gt;Node7 -->
<g id="edge6" class="edge"><title>Node1&#45;&gt;Node7</title>
<path fill="none" stroke="midnightblue" d="M894.653,-365.865C969.455,-362.328 1193.92,-350.105 1390.08,-322.016"/>
<polygon fill="midnightblue" stroke="midnightblue" points="1390.6,-325.478 1399.99,-320.58 1389.59,-318.551 1390.6,-325.478"/>
</g>
<!-- Node8 -->
<g id="node8" class="node"><title>Node8</title>
<polygon fill="white" stroke="#bfbfbf" points="1212,-0.5 1212,-30.5 1340,-30.5 1340,-0.5 1212,-0.5"/>
<text text-anchor="start" x="1220" y="-18.5" font-family="Helvetica,sans-Serif" font-size="10.00">boost/multi_index/hashed</text>
<text text-anchor="middle" x="1276" y="-7.5" font-family="Helvetica,sans-Serif" font-size="10.00">_index.hpp</text>
</g>
<!-- Node1&#45;&gt;Node8 -->
<g id="edge7" class="edge"><title>Node1&#45;&gt;Node8</title>
<path fill="none" stroke="midnightblue" d="M894.541,-365.544C963.343,-361.319 1151.13,-347.688 1207,-322 1253.04,-300.83 1292,-296.676 1292,-246 1292,-246 1292,-246 1292,-132 1292,-100.194 1285.97,-63.923 1281.32,-40.6484"/>
<polygon fill="midnightblue" stroke="midnightblue" points="1284.7,-39.7167 1279.24,-30.6376 1277.84,-41.1405 1284.7,-39.7167"/>
</g>
<!-- Node9 -->
<g id="node9" class="node"><title>Node9</title>
<polygon fill="white" stroke="#bfbfbf" points="978.5,-67.5 978.5,-86.5 1095.5,-86.5 1095.5,-67.5 978.5,-67.5"/>
<text text-anchor="middle" x="1037" y="-74.5" font-family="Helvetica,sans-Serif" font-size="10.00">boost/noncopyable.hpp</text>
</g>
<!-- Node1&#45;&gt;Node9 -->
<g id="edge8" class="edge"><title>Node1&#45;&gt;Node9</title>
<path fill="none" stroke="midnightblue" d="M894.825,-365.486C955.49,-360.398 1102,-338.529 1102,-246 1102,-246 1102,-246 1102,-188 1102,-150.178 1073.16,-113.94 1053.91,-93.9551"/>
<polygon fill="midnightblue" stroke="midnightblue" points="1056.14,-91.2429 1046.59,-86.6585 1051.2,-96.1988 1056.14,-91.2429"/>
</g>
<!-- Node10 -->
<g id="node10" class="node"><title>Node10</title>
<g id="a_node10"><a xlink:href="ccf__group_8h.xhtml" target="_top" xlink:title="Functional containers for basic events grouped by common cause failure. ">
<polygon fill="white" stroke="black" points="564,-235.5 564,-254.5 632,-254.5 632,-235.5 564,-235.5"/>
<text text-anchor="middle" x="598" y="-242.5" font-family="Helvetica,sans-Serif" font-size="10.00">ccf_group.h</text>
</a>
</g>
</g>
<!-- Node1&#45;&gt;Node10 -->
<g id="edge9" class="edge"><title>Node1&#45;&gt;Node10</title>
<path fill="none" stroke="midnightblue" d="M849.944,-358.492C803.118,-337.584 682.202,-283.596 626.664,-258.798"/>
<polygon fill="midnightblue" stroke="midnightblue" points="627.956,-255.542 617.398,-254.661 625.102,-261.934 627.956,-255.542"/>
</g>
<!-- Node13 -->
<g id="node13" class="node"><title>Node13</title>
<g id="a_node13"><a xlink:href="element_8h.xhtml" target="_top" xlink:title="Helper classes, structs, and properties common to all other classes. ">
<polygon fill="white" stroke="black" points="730.5,-67.5 730.5,-86.5 789.5,-86.5 789.5,-67.5 730.5,-67.5"/>
<text text-anchor="middle" x="760" y="-74.5" font-family="Helvetica,sans-Serif" font-size="10.00">element.h</text>
</a>
</g>
</g>
<!-- Node1&#45;&gt;Node13 -->
<g id="edge40" class="edge"><title>Node1&#45;&gt;Node13</title>
<path fill="none" stroke="midnightblue" d="M871.282,-358.261C878.047,-330.548 895.846,-242.702 868,-179 850.892,-139.863 810.402,-108.935 784.149,-92.0776"/>
<polygon fill="midnightblue" stroke="midnightblue" points="785.859,-89.0195 775.519,-86.7113 782.163,-94.964 785.859,-89.0195"/>
</g>
<!-- Node16 -->
<g id="node16" class="node"><title>Node16</title>
<g id="a_node16"><a xlink:href="event_8h.xhtml" target="_top" xlink:title="Contains event classes for fault trees. ">
<polygon fill="white" stroke="black" points="472.5,-179.5 472.5,-198.5 521.5,-198.5 521.5,-179.5 472.5,-179.5"/>
<text text-anchor="middle" x="497" y="-186.5" font-family="Helvetica,sans-Serif" font-size="10.00">event.h</text>
</a>
</g>
</g>
<!-- Node1&#45;&gt;Node16 -->
<g id="edge41" class="edge"><title>Node1&#45;&gt;Node16</title>
<path fill="none" stroke="midnightblue" d="M843.398,-363.121C786.568,-353.464 647.601,-323.975 555,-255 536.693,-241.364 519.811,-221.211 509.038,-206.967"/>
<polygon fill="midnightblue" stroke="midnightblue" points="511.626,-204.578 502.887,-198.588 505.983,-208.72 511.626,-204.578"/>
</g>
<!-- Node20 -->
<g id="node20" class="node"><title>Node20</title>
<g id="a_node20"><a xlink:href="event__tree_8h.xhtml" target="_top" xlink:title="Event Tree facilities. ">
<polygon fill="white" stroke="black" points="788.5,-179.5 788.5,-198.5 859.5,-198.5 859.5,-179.5 788.5,-179.5"/>
<text text-anchor="middle" x="824" y="-186.5" font-family="Helvetica,sans-Serif" font-size="10.00">event_tree.h</text>
</a>
</g>
</g>
<!-- Node1&#45;&gt;Node20 -->
<g id="edge42" class="edge"><title>Node1&#45;&gt;Node20</title>
<path fill="none" stroke="midnightblue" d="M866.83,-358.463C859.927,-331.311 838.368,-246.512 828.734,-208.618"/>
<polygon fill="midnightblue" stroke="midnightblue" points="832.111,-207.698 826.255,-198.868 825.327,-209.422 832.111,-207.698"/>
</g>
<!-- Node21 -->
<g id="node21" class="node"><title>Node21</title>
<g id="a_node21"><a xlink:href="fault__tree_8h.xhtml" target="_top" xlink:title="Fault Tree and Component containers. ">
<polygon fill="white" stroke="black" points="405.5,-297 405.5,-316 470.5,-316 470.5,-297 405.5,-297"/>
<text text-anchor="middle" x="438" y="-304" font-family="Helvetica,sans-Serif" font-size="10.00">fault_tree.h</text>
</a>
</g>
</g>
<!-- Node1&#45;&gt;Node21 -->
<g id="edge49" class="edge"><title>Node1&#45;&gt;Node21</title>
<path fill="none" stroke="midnightblue" d="M843.374,-364.376C784.606,-358.226 635.663,-341.886 512,-322 501.821,-320.363 490.902,-318.361 480.662,-316.374"/>
<polygon fill="midnightblue" stroke="midnightblue" points="481.189,-312.91 470.7,-314.405 479.832,-319.778 481.189,-312.91"/>
</g>
<!-- Node23 -->
<g id="node23" class="node"><title>Node23</title>
<g id="a_node23"><a xlink:href="parameter_8h.xhtml" target="_top" xlink:title="Parameter expressions that act like a shareable variable. ">
<polygon fill="white" stroke="black" points="272,-179.5 272,-198.5 340,-198.5 340,-179.5 272,-179.5"/>
<text text-anchor="middle" x="306" y="-186.5" font-family="Helvetica,sans-Serif" font-size="10.00">parameter.h</text>
</a>
</g>
</g>
<!-- Node1&#45;&gt;Node23 -->
<g id="edge63" class="edge"><title>Node1&#45;&gt;Node23</title>
<path fill="none" stroke="midnightblue" d="M843.224,-366.913C756.434,-366.26 475.819,-361.1 396,-322 349.413,-299.179 322.86,-239.247 311.933,-208.611"/>
<polygon fill="midnightblue" stroke="midnightblue" points="315.125,-207.124 308.607,-198.772 308.494,-209.367 315.125,-207.124"/>
</g>
<!-- Node10&#45;&gt;Node2 -->
<g id="edge10" class="edge"><title>Node10&#45;&gt;Node2</title>
<path fill="none" stroke="midnightblue" d="M563.877,-236.266C535.711,-229.044 495.273,-216.705 463,-199 428.373,-180.004 423.437,-169.332 394,-143 376.133,-127.018 356.696,-107.61 343.575,-94.184"/>
<polygon fill="midnightblue" stroke="midnightblue" points="345.769,-91.4192 336.292,-86.6819 340.746,-96.295 345.769,-91.4192"/>
</g>
<!-- Node10&#45;&gt;Node3 -->
<g id="edge11" class="edge"><title>Node10&#45;&gt;Node3</title>
<path fill="none" stroke="midnightblue" d="M563.947,-238.539C529.112,-232.124 474.011,-219.649 430,-199 330.718,-152.42 229.187,-67.3199 189.445,-32.249"/>
<polygon fill="midnightblue" stroke="midnightblue" points="191.312,-29.2248 181.516,-25.1885 186.657,-34.4526 191.312,-29.2248"/>
</g>
<!-- Node10&#45;&gt;Node5 -->
<g id="edge13" class="edge"><title>Node10&#45;&gt;Node5</title>
<path fill="none" stroke="midnightblue" d="M632.147,-244.194C693.656,-243.505 826.311,-237.24 930,-199 1016.29,-167.177 1059.95,-167.735 1104,-87 1108.26,-79.1969 1109.21,-74.1983 1104,-67 1096.65,-56.8483 1024.9,-36.3575 981.978,-24.8424"/>
<polygon fill="midnightblue" stroke="midnightblue" points="982.822,-21.4454 972.259,-22.2559 981.022,-28.21 982.822,-21.4454"/>
</g>
<!-- Node10&#45;&gt;Node9 -->
<g id="edge14" class="edge"><title>Node10&#45;&gt;Node9</title>
<path fill="none" stroke="midnightblue" d="M632.124,-244.586C706.295,-244.062 884.182,-232.846 992,-143 1007.76,-129.864 1020.46,-109.903 1028.3,-95.5683"/>
<polygon fill="midnightblue" stroke="midnightblue" points="1031.41,-97.1812 1032.93,-86.6961 1025.2,-93.9441 1031.41,-97.1812"/>
</g>
<!-- Node11 -->
<g id="node11" class="node"><title>Node11</title>
<polygon fill="white" stroke="#bfbfbf" points="578,-179.5 578,-198.5 618,-198.5 618,-179.5 578,-179.5"/>
<text text-anchor="middle" x="598" y="-186.5" font-family="Helvetica,sans-Serif" font-size="10.00">utility</text>
</g>
<!-- Node10&#45;&gt;Node11 -->
<g id="edge12" class="edge"><title>Node10&#45;&gt;Node11</title>
<path fill="none" stroke="midnightblue" d="M598,-235.083C598,-228.006 598,-217.861 598,-208.986"/>
<polygon fill="midnightblue" stroke="midnightblue" points="601.5,-208.751 598,-198.751 594.5,-208.751 601.5,-208.751"/>
</g>
<!-- Node12 -->
<g id="node12" class="node"><title>Node12</title>
<polygon fill="white" stroke="#bfbfbf" points="636,-179.5 636,-198.5 732,-198.5 732,-179.5 636,-179.5"/>
<text text-anchor="middle" x="684" y="-186.5" font-family="Helvetica,sans-Serif" font-size="10.00">boost/optional.hpp</text>
</g>
<!-- Node10&#45;&gt;Node12 -->
<g id="edge15" class="edge"><title>Node10&#45;&gt;Node12</title>
<path fill="none" stroke="midnightblue" d="M611.817,-235.324C625.233,-226.9 645.824,-213.971 661.586,-204.074"/>
<polygon fill="midnightblue" stroke="midnightblue" points="663.609,-206.936 670.217,-198.655 659.887,-201.008 663.609,-206.936"/>
</g>
<!-- Node10&#45;&gt;Node13 -->
<g id="edge16" class="edge"><title>Node10&#45;&gt;Node13</title>
<path fill="none" stroke="midnightblue" d="M632.093,-243.048C665.069,-240.185 713.914,-230.459 741,-199 765.776,-170.224 765.232,-122.717 762.636,-96.6128"/>
<polygon fill="midnightblue" stroke="midnightblue" points="766.096,-96.0694 761.425,-86.5601 759.147,-96.9071 766.096,-96.0694"/>
</g>
<!-- Node10&#45;&gt;Node16 -->
<g id="edge23" class="edge"><title>Node10&#45;&gt;Node16</title>
<path fill="none" stroke="midnightblue" d="M581.773,-235.324C565.649,-226.703 540.7,-213.364 522.036,-203.386"/>
<polygon fill="midnightblue" stroke="midnightblue" points="523.656,-200.283 513.187,-198.655 520.356,-206.456 523.656,-200.283"/>
</g>
<!-- Node19 -->
<g id="node19" class="node"><title>Node19</title>
<g id="a_node19"><a xlink:href="expression_8h.xhtml" target="_top" xlink:title="Provides the base class for all expressions and units for expression values. ">
<polygon fill="white" stroke="black" points="660,-123.5 660,-142.5 732,-142.5 732,-123.5 660,-123.5"/>
<text text-anchor="middle" x="696" y="-130.5" font-family="Helvetica,sans-Serif" font-size="10.00">expression.h</text>
</a>
</g>
</g>
<!-- Node10&#45;&gt;Node19 -->
<g id="edge39" class="edge"><title>Node10&#45;&gt;Node19</title>
<path fill="none" stroke="midnightblue" d="M588.878,-235.45C576.155,-222.472 556.022,-197.367 569,-179 587.154,-153.308 621.282,-142.191 649.592,-137.426"/>
<polygon fill="midnightblue" stroke="midnightblue" points="650.331,-140.855 659.718,-135.942 649.316,-133.929 650.331,-140.855"/>
</g>
<!-- Node13&#45;&gt;Node3 -->
<g id="edge18" class="edge"><title>Node13&#45;&gt;Node3</title>
<path fill="none" stroke="midnightblue" d="M730.438,-73.0086C630.336,-62.8792 304.72,-29.93 202.793,-19.616"/>
<polygon fill="midnightblue" stroke="midnightblue" points="202.866,-16.1055 192.564,-18.5809 202.161,-23.07 202.866,-16.1055"/>
</g>
<!-- Node13&#45;&gt;Node5 -->
<g id="edge19" class="edge"><title>Node13&#45;&gt;Node5</title>
<path fill="none" stroke="midnightblue" d="M787.222,-67.4751C821.832,-56.6369 881.484,-37.9565 918.164,-26.4698"/>
<polygon fill="midnightblue" stroke="midnightblue" points="919.363,-29.7618 927.86,-23.4332 917.271,-23.0817 919.363,-29.7618"/>
</g>
<!-- Node13&#45;&gt;Node6 -->
<g id="edge20" class="edge"><title>Node13&#45;&gt;Node6</title>
<path fill="none" stroke="midnightblue" d="M789.578,-70.8239C845.591,-61.0216 968.079,-39.5861 1041.33,-26.7664"/>
<polygon fill="midnightblue" stroke="midnightblue" points="1042.09,-30.1882 1051.33,-25.0167 1040.88,-23.293 1042.09,-30.1882"/>
</g>
<!-- Node13&#45;&gt;Node8 -->
<g id="edge21" class="edge"><title>Node13&#45;&gt;Node8</title>
<path fill="none" stroke="midnightblue" d="M789.576,-73.4631C859.069,-67.376 1038.13,-50.9555 1187,-31 1191.79,-30.3578 1196.72,-29.6597 1201.69,-28.9283"/>
<polygon fill="midnightblue" stroke="midnightblue" points="1202.53,-32.3407 1211.9,-27.3879 1201.48,-25.4191 1202.53,-32.3407"/>
</g>
<!-- Node14 -->
<g id="node14" class="node"><title>Node14</title>
<polygon fill="white" stroke="#bfbfbf" points="648,-6 648,-25 694,-25 694,-6 648,-6"/>
<text text-anchor="middle" x="671" y="-13" font-family="Helvetica,sans-Serif" font-size="10.00">cstdint</text>
</g>
<!-- Node13&#45;&gt;Node14 -->
<g id="edge17" class="edge"><title>Node13&#45;&gt;Node14</title>
<path fill="none" stroke="midnightblue" d="M747.248,-67.4751C732.973,-57.9315 709.603,-42.3073 692.492,-30.8683"/>
<polygon fill="midnightblue" stroke="midnightblue" points="693.986,-27.6572 683.728,-25.0091 690.096,-33.4766 693.986,-27.6572"/>
</g>
<!-- Node15 -->
<g id="node15" class="node"><title>Node15</title>
<polygon fill="white" stroke="#bfbfbf" points="712,-0.5 712,-30.5 830,-30.5 830,-0.5 712,-0.5"/>
<text text-anchor="start" x="720" y="-18.5" font-family="Helvetica,sans-Serif" font-size="10.00">boost/multi_index/mem</text>
<text text-anchor="middle" x="771" y="-7.5" font-family="Helvetica,sans-Serif" font-size="10.00">_fun.hpp</text>
</g>
<!-- Node13&#45;&gt;Node15 -->
<g id="edge22" class="edge"><title>Node13&#45;&gt;Node15</title>
<path fill="none" stroke="midnightblue" d="M761.576,-67.4751C762.885,-60.3957 764.812,-49.9705 766.583,-40.3896"/>
<polygon fill="midnightblue" stroke="midnightblue" points="770.031,-40.9926 768.408,-30.523 763.148,-39.72 770.031,-40.9926"/>
</g>
<!-- Node16&#45;&gt;Node2 -->
<g id="edge25" class="edge"><title>Node16&#45;&gt;Node2</title>
<path fill="none" stroke="midnightblue" d="M483.739,-179.368C454.738,-160.492 385.437,-115.385 349.873,-92.2367"/>
<polygon fill="midnightblue" stroke="midnightblue" points="351.49,-89.1132 341.2,-86.5914 347.671,-94.9799 351.49,-89.1132"/>
</g>
<!-- Node16&#45;&gt;Node3 -->
<g id="edge26" class="edge"><title>Node16&#45;&gt;Node3</title>
<path fill="none" stroke="midnightblue" d="M490.186,-179.425C472.039,-157.191 420.013,-97.3119 363,-67 310.569,-39.1241 241.7,-25.8557 202.605,-20.1864"/>
<polygon fill="midnightblue" stroke="midnightblue" points="203.023,-16.7109 192.639,-18.8132 202.067,-23.6454 203.023,-16.7109"/>
</g>
<!-- Node16&#45;&gt;Node5 -->
<g id="edge27" class="edge"><title>Node16&#45;&gt;Node5</title>
<path fill="none" stroke="midnightblue" d="M521.54,-184.623C575.09,-177.069 700.837,-158.27 741,-143 816.653,-114.236 895.651,-58.0644 930.97,-31.3285"/>
<polygon fill="midnightblue" stroke="midnightblue" points="933.165,-34.0564 938.98,-25.2 928.911,-28.497 933.165,-34.0564"/>
</g>
<!-- Node16&#45;&gt;Node9 -->
<g id="edge28" class="edge"><title>Node16&#45;&gt;Node9</title>
<path fill="none" stroke="midnightblue" d="M521.65,-184.845C535.55,-183.084 553.238,-180.874 569,-179 710.679,-162.151 750.186,-179.937 888,-143 933.799,-130.725 983.659,-106.566 1012.52,-91.4082"/>
<polygon fill="midnightblue" stroke="midnightblue" points="1014.29,-94.4328 1021.47,-86.643 1011,-88.2543 1014.29,-94.4328"/>
</g>
<!-- Node16&#45;&gt;Node13 -->
<g id="edge29" class="edge"><title>Node16&#45;&gt;Node13</title>
<path fill="none" stroke="midnightblue" d="M517.405,-179.327C546.871,-166.817 603.063,-143.011 651,-123 677.541,-111.92 707.778,-99.4493 729.66,-90.4508"/>
<polygon fill="midnightblue" stroke="midnightblue" points="731.165,-93.6166 739.084,-86.5781 728.504,-87.1421 731.165,-93.6166"/>
</g>
<!-- Node16&#45;&gt;Node14 -->
<g id="edge24" class="edge"><title>Node16&#45;&gt;Node14</title>
<path fill="none" stroke="midnightblue" d="M505.868,-179.26C533.682,-151.845 619.469,-67.2905 655.164,-32.1085"/>
<polygon fill="midnightblue" stroke="midnightblue" points="657.691,-34.5318 662.356,-25.0194 652.777,-29.5464 657.691,-34.5318"/>
</g>
<!-- Node17 -->
<g id="node17" class="node"><title>Node17</title>
<g id="a_node17"><a xlink:href="error_8h.xhtml" target="_top" xlink:title="Exceptions for SCRAM. ">
<polygon fill="white" stroke="black" points="104,-123.5 104,-142.5 148,-142.5 148,-123.5 104,-123.5"/>
<text text-anchor="middle" x="126" y="-130.5" font-family="Helvetica,sans-Serif" font-size="10.00">error.h</text>
</a>
</g>
</g>
<!-- Node16&#45;&gt;Node17 -->
<g id="edge30" class="edge"><title>Node16&#45;&gt;Node17</title>
<path fill="none" stroke="midnightblue" d="M472.37,-184.415C407.276,-174.94 230.696,-149.239 157.966,-138.653"/>
<polygon fill="midnightblue" stroke="midnightblue" points="158.414,-135.181 148.014,-137.204 157.406,-142.108 158.414,-135.181"/>
</g>
<!-- Node16&#45;&gt;Node19 -->
<g id="edge33" class="edge"><title>Node16&#45;&gt;Node19</title>
<path fill="none" stroke="midnightblue" d="M521.801,-181.27C555.131,-172.226 614.812,-156.031 654.907,-145.151"/>
<polygon fill="midnightblue" stroke="midnightblue" points="655.916,-148.504 664.651,-142.507 654.083,-141.748 655.916,-148.504"/>
</g>
<!-- Node17&#45;&gt;Node3 -->
<g id="edge32" class="edge"><title>Node17&#45;&gt;Node3</title>
<path fill="none" stroke="midnightblue" d="M125.469,-123.227C125.012,-110.389 125.376,-85.954 133,-67 138.18,-54.123 147.632,-41.7536 155.933,-32.4798"/>
<polygon fill="midnightblue" stroke="midnightblue" points="158.488,-34.8716 162.796,-25.1918 153.392,-30.0728 158.488,-34.8716"/>
</g>
<!-- Node18 -->
<g id="node18" class="node"><title>Node18</title>
<polygon fill="white" stroke="#bfbfbf" points="142.5,-67.5 142.5,-86.5 201.5,-86.5 201.5,-67.5 142.5,-67.5"/>
<text text-anchor="middle" x="172" y="-74.5" font-family="Helvetica,sans-Serif" font-size="10.00">exception</text>
</g>
<!-- Node17&#45;&gt;Node18 -->
<g id="edge31" class="edge"><title>Node17&#45;&gt;Node18</title>
<path fill="none" stroke="midnightblue" d="M133.596,-123.083C140.227,-115.298 150.021,-103.801 158.058,-94.3665"/>
<polygon fill="midnightblue" stroke="midnightblue" points="160.725,-96.6332 164.545,-86.7511 155.396,-92.0939 160.725,-96.6332"/>
</g>
<!-- Node19&#45;&gt;Node2 -->
<g id="edge35" class="edge"><title>Node19&#45;&gt;Node2</title>
<path fill="none" stroke="midnightblue" d="M659.708,-126.674C589.338,-116.348 435.074,-93.7119 364.522,-83.3592"/>
<polygon fill="midnightblue" stroke="midnightblue" points="364.743,-79.8543 354.341,-81.8653 363.727,-86.7801 364.743,-79.8543"/>
</g>
<!-- Node19&#45;&gt;Node5 -->
<g id="edge36" class="edge"><title>Node19&#45;&gt;Node5</title>
<path fill="none" stroke="midnightblue" d="M715.603,-123.482C736.175,-114.512 769.433,-99.9252 798,-87 841.764,-67.1992 892.312,-43.6099 922.683,-29.358"/>
<polygon fill="midnightblue" stroke="midnightblue" points="924.238,-32.4949 931.801,-25.0755 921.262,-26.1589 924.238,-32.4949"/>
</g>
<!-- Node19&#45;&gt;Node9 -->
<g id="edge37" class="edge"><title>Node19&#45;&gt;Node9</title>
<path fill="none" stroke="midnightblue" d="M732.17,-126.272C789.432,-117.204 901.745,-99.4187 972.891,-88.1521"/>
<polygon fill="midnightblue" stroke="midnightblue" points="973.749,-91.56 983.078,-86.5389 972.654,-84.6462 973.749,-91.56"/>
</g>
<!-- Node19&#45;&gt;Node13 -->
<g id="edge38" class="edge"><title>Node19&#45;&gt;Node13</title>
<path fill="none" stroke="midnightblue" d="M706.283,-123.324C715.836,-115.263 730.28,-103.077 741.784,-93.3695"/>
<polygon fill="midnightblue" stroke="midnightblue" points="744.144,-95.9577 749.53,-86.8339 739.63,-90.6076 744.144,-95.9577"/>
</g>
<!-- Node19&#45;&gt;Node14 -->
<g id="edge34" class="edge"><title>Node19&#45;&gt;Node14</title>
<path fill="none" stroke="midnightblue" d="M694.121,-123.319C690.085,-104.673 680.511,-60.443 675.033,-35.1317"/>
<polygon fill="midnightblue" stroke="midnightblue" points="678.437,-34.3152 672.901,-25.282 671.596,-35.7961 678.437,-34.3152"/>
</g>
<!-- Node20&#45;&gt;Node2 -->
<g id="edge43" class="edge"><title>Node20&#45;&gt;Node2</title>
<path fill="none" stroke="midnightblue" d="M788.261,-180.254C747.167,-171.334 677.69,-156.209 618,-143 526.658,-122.787 419.231,-98.6 364.323,-86.2078"/>
<polygon fill="midnightblue" stroke="midnightblue" points="364.905,-82.7511 354.38,-83.963 363.363,-89.5793 364.905,-82.7511"/>
</g>
<!-- Node20&#45;&gt;Node3 -->
<g id="edge44" class="edge"><title>Node20&#45;&gt;Node3</title>
<path fill="none" stroke="midnightblue" d="M788.716,-179.454C753.64,-170.81 698.378,-156.791 651,-143 623.2,-134.908 616.707,-131.404 589,-123 501.894,-96.5791 480.165,-89.6342 392,-67 324.816,-49.7523 245.366,-32.2138 202.728,-23.0317"/>
<polygon fill="midnightblue" stroke="midnightblue" points="203.222,-19.5583 192.711,-20.8826 201.754,-26.4025 203.222,-19.5583"/>
</g>
<!-- Node20&#45;&gt;Node5 -->
<g id="edge45" class="edge"><title>Node20&#45;&gt;Node5</title>
<path fill="none" stroke="midnightblue" d="M840.745,-179.37C854.807,-171.45 874.68,-158.596 888,-143 916.492,-109.64 935.495,-60.9233 944.319,-34.7488"/>
<polygon fill="midnightblue" stroke="midnightblue" points="947.718,-35.6139 947.475,-25.0218 941.06,-33.4533 947.718,-35.6139"/>
</g>
<!-- Node20&#45;&gt;Node9 -->
<g id="edge46" class="edge"><title>Node20&#45;&gt;Node9</title>
<path fill="none" stroke="midnightblue" d="M859.619,-180.88C888.966,-174.024 930.974,-161.876 964,-143 986.661,-130.048 1008.44,-109.195 1022.22,-94.6111"/>
<polygon fill="midnightblue" stroke="midnightblue" points="1025.16,-96.585 1029.36,-86.8558 1020.01,-91.8457 1025.16,-96.585"/>
</g>
<!-- Node20&#45;&gt;Node13 -->
<g id="edge47" class="edge"><title>Node20&#45;&gt;Node13</title>
<path fill="none" stroke="midnightblue" d="M818.978,-179.368C808.463,-161.296 783.957,-119.176 770.07,-95.3074"/>
<polygon fill="midnightblue" stroke="midnightblue" points="773.053,-93.4748 764.999,-86.5914 767.002,-96.9951 773.053,-93.4748"/>
</g>
<!-- Node20&#45;&gt;Node19 -->
<g id="edge48" class="edge"><title>Node20&#45;&gt;Node19</title>
<path fill="none" stroke="midnightblue" d="M803.718,-179.444C782.653,-170.557 749.483,-156.563 725.514,-146.451"/>
<polygon fill="midnightblue" stroke="midnightblue" points="726.761,-143.179 716.187,-142.516 724.04,-149.628 726.761,-143.179"/>
</g>
<!-- Node21&#45;&gt;Node2 -->
<g id="edge50" class="edge"><title>Node21&#45;&gt;Node2</title>
<path fill="none" stroke="midnightblue" d="M405.356,-297.328C362.662,-284.599 290.116,-255.418 263,-199 244.358,-160.213 284.302,-115.98 309.496,-93.2546"/>
<polygon fill="midnightblue" stroke="midnightblue" points="311.819,-95.872 317.064,-86.6663 307.223,-90.5922 311.819,-95.872"/>
</g>
<!-- Node21&#45;&gt;Node3 -->
<g id="edge51" class="edge"><title>Node21&#45;&gt;Node3</title>
<path fill="none" stroke="midnightblue" d="M405.474,-302.467C331.609,-293.588 152.264,-260.321 83,-143 73.1333,-126.288 82.2254,-84.3934 94,-67 105.642,-49.8025 125.3,-37.1309 141.967,-28.7822"/>
<polygon fill="midnightblue" stroke="midnightblue" points="143.795,-31.7902 151.352,-24.3645 140.814,-25.4568 143.795,-31.7902"/>
</g>
<!-- Node21&#45;&gt;Node5 -->
<g id="edge53" class="edge"><title>Node21&#45;&gt;Node5</title>
<path fill="none" stroke="midnightblue" d="M470.752,-303.901C613.964,-296.482 1178,-262.653 1178,-190 1178,-190 1178,-190 1178,-132 1178,-93.2823 1152.69,-87.7465 1120,-67 1097.01,-52.4067 1024.6,-33.8658 982.066,-23.8028"/>
<polygon fill="midnightblue" stroke="midnightblue" points="982.731,-20.3641 972.197,-21.4936 981.136,-27.18 982.731,-20.3641"/>
</g>
<!-- Node21&#45;&gt;Node9 -->
<g id="edge54" class="edge"><title>Node21&#45;&gt;Node9</title>
<path fill="none" stroke="midnightblue" d="M470.605,-302.624C551.33,-294.626 765.842,-267.992 930,-199 971.706,-181.472 987.359,-178.814 1015,-143 1025.45,-129.456 1031.1,-110.652 1034.05,-96.7528"/>
<polygon fill="midnightblue" stroke="midnightblue" points="1037.5,-97.3193 1035.87,-86.851 1030.62,-96.0523 1037.5,-97.3193"/>
</g>
<!-- Node21&#45;&gt;Node10 -->
<g id="edge55" class="edge"><title>Node21&#45;&gt;Node10</title>
<path fill="none" stroke="midnightblue" d="M460.924,-296.975C488.37,-286.769 534.516,-269.608 565.599,-258.049"/>
<polygon fill="midnightblue" stroke="midnightblue" points="566.965,-261.275 575.118,-254.509 564.526,-254.714 566.965,-261.275"/>
</g>
<!-- Node21&#45;&gt;Node13 -->
<g id="edge56" class="edge"><title>Node21&#45;&gt;Node13</title>
<path fill="none" stroke="midnightblue" d="M442.667,-296.863C447.715,-287.041 455.509,-270.371 459,-255 466.492,-222.016 443.376,-206.55 463,-179 522.236,-95.8394 653.988,-80.3134 720.281,-77.9602"/>
<polygon fill="midnightblue" stroke="midnightblue" points="720.436,-81.4574 730.337,-77.6873 720.246,-74.4599 720.436,-81.4574"/>
</g>
<!-- Node21&#45;&gt;Node16 -->
<g id="edge57" class="edge"><title>Node21&#45;&gt;Node16</title>
<path fill="none" stroke="midnightblue" d="M415.706,-296.839C387.456,-284.552 344.534,-260.681 363,-235 385.397,-203.852 430.409,-193.965 462.064,-190.988"/>
<polygon fill="midnightblue" stroke="midnightblue" points="462.526,-194.463 472.235,-190.222 462.001,-187.483 462.526,-194.463"/>
</g>
<!-- Node22 -->
<g id="node22" class="node"><title>Node22</title>
<polygon fill="white" stroke="#bfbfbf" points="372,-235.5 372,-254.5 450,-254.5 450,-235.5 372,-235.5"/>
<text text-anchor="middle" x="411" y="-242.5" font-family="Helvetica,sans-Serif" font-size="10.00">unordered_set</text>
</g>
<!-- Node21&#45;&gt;Node22 -->
<g id="edge52" class="edge"><title>Node21&#45;&gt;Node22</title>
<path fill="none" stroke="midnightblue" d="M434.132,-296.975C430.202,-288.315 424,-274.649 419.007,-263.645"/>
<polygon fill="midnightblue" stroke="midnightblue" points="422.181,-262.169 414.861,-254.509 415.806,-265.062 422.181,-262.169"/>
</g>
<!-- Node21&#45;&gt;Node23 -->
<g id="edge58" class="edge"><title>Node21&#45;&gt;Node23</title>
<path fill="none" stroke="midnightblue" d="M419.845,-296.996C402.085,-288.12 374.882,-272.999 355,-255 339.508,-240.975 325.564,-221.465 316.548,-207.486"/>
<polygon fill="midnightblue" stroke="midnightblue" points="319.404,-205.451 311.136,-198.827 313.469,-209.162 319.404,-205.451"/>
</g>
<!-- Node23&#45;&gt;Node2 -->
<g id="edge59" class="edge"><title>Node23&#45;&gt;Node2</title>
<path fill="none" stroke="midnightblue" d="M306.589,-179.085C307.537,-166.481 309.741,-142.785 314,-123 315.94,-113.99 318.883,-104.197 321.571,-96.0542"/>
<polygon fill="midnightblue" stroke="midnightblue" points="324.912,-97.0995 324.852,-86.5048 318.292,-94.8249 324.912,-97.0995"/>
</g>
<!-- Node23&#45;&gt;Node3 -->
<g id="edge60" class="edge"><title>Node23&#45;&gt;Node3</title>
<path fill="none" stroke="midnightblue" d="M271.779,-185.786C217.824,-181.502 116.854,-170.006 95,-143 64.9897,-105.915 118.937,-56.1308 150.9,-31.5403"/>
<polygon fill="midnightblue" stroke="midnightblue" points="153.329,-34.0942 159.244,-25.304 149.138,-28.4871 153.329,-34.0942"/>
</g>
<!-- Node23&#45;&gt;Node13 -->
<g id="edge61" class="edge"><title>Node23&#45;&gt;Node13</title>
<path fill="none" stroke="midnightblue" d="M318.503,-179.383C339.879,-165.112 385.29,-136.781 428,-123 529.778,-90.1588 656.616,-81.2792 720.016,-78.8826"/>
<polygon fill="midnightblue" stroke="midnightblue" points="720.491,-82.3685 730.365,-78.5284 720.252,-75.3726 720.491,-82.3685"/>
</g>
<!-- Node23&#45;&gt;Node19 -->
<g id="edge62" class="edge"><title>Node23&#45;&gt;Node19</title>
<path fill="none" stroke="midnightblue" d="M340.268,-183.255C410.444,-173.538 570.557,-151.369 649.809,-140.396"/>
<polygon fill="midnightblue" stroke="midnightblue" points="650.554,-143.826 659.979,-138.987 649.594,-136.892 650.554,-143.826"/>
</g>
</g>
</svg>
