<?xml version="1.0" encoding="UTF-8" standalone="no"?>
<!DOCTYPE svg PUBLIC "-//W3C//DTD SVG 1.1//EN"
 "http://www.w3.org/Graphics/SVG/1.1/DTD/svg11.dtd">
<!-- Generated by graphviz version 2.38.0 (20140413.2041)
 -->
<!-- Title: parameter.h Pages: 1 -->
<svg width="753pt" height="308pt"
 viewBox="0.00 0.00 752.50 308.00" xmlns="http://www.w3.org/2000/svg" xmlns:xlink="http://www.w3.org/1999/xlink">
<g id="graph0" class="graph" transform="scale(1 1) rotate(0) translate(4 304)">
<title>parameter.h</title>
<polygon fill="white" stroke="none" points="-4,4 -4,-304 748.5,-304 748.5,4 -4,4"/>
<!-- Node1 -->
<g id="node1" class="node"><title>Node1</title>
<polygon fill="#bfbfbf" stroke="black" points="310.5,-280.5 310.5,-299.5 378.5,-299.5 378.5,-280.5 310.5,-280.5"/>
<text text-anchor="middle" x="344.5" y="-287.5" font-family="Helvetica,sans-Serif" font-size="10.00">parameter.h</text>
</g>
<!-- Node2 -->
<g id="node2" class="node"><title>Node2</title>
<g id="a_node2"><a xlink:href="cycle_8h.xhtml" target="_top" xlink:title="Validation facilities to detect and print cycles in graphs. ">
<polygon fill="white" stroke="black" points="43.5,-224.5 43.5,-243.5 91.5,-243.5 91.5,-224.5 43.5,-224.5"/>
<text text-anchor="middle" x="67.5" y="-231.5" font-family="Helvetica,sans-Serif" font-size="10.00">cycle.h</text>
</a>
</g>
</g>
<!-- Node1&#45;&gt;Node2 -->
<g id="edge1" class="edge"><title>Node1&#45;&gt;Node2</title>
<path fill="none" stroke="midnightblue" d="M300.3,-281.312C252.238,-272.805 173.22,-258.387 105.5,-244 100.99,-243.042 96.1954,-241.958 91.5848,-240.882"/>
<polygon fill="midnightblue" stroke="midnightblue" points="299.907,-284.797 310.363,-283.087 301.123,-277.903 299.907,-284.797"/>
</g>
<!-- Node5 -->
<g id="node5" class="node"><title>Node5</title>
<g id="a_node5"><a xlink:href="fault__tree_8h.xhtml" target="_top" xlink:title="Fault Tree and Component containers. ">
<polygon fill="white" stroke="black" points="251,-224.5 251,-243.5 316,-243.5 316,-224.5 251,-224.5"/>
<text text-anchor="middle" x="283.5" y="-231.5" font-family="Helvetica,sans-Serif" font-size="10.00">fault_tree.h</text>
</a>
</g>
</g>
<!-- Node1&#45;&gt;Node5 -->
<g id="edge4" class="edge"><title>Node1&#45;&gt;Node5</title>
<path fill="none" stroke="midnightblue" d="M327.033,-273.537C316.156,-263.909 302.556,-251.869 293.479,-243.834"/>
<polygon fill="midnightblue" stroke="midnightblue" points="324.892,-276.316 334.699,-280.324 329.532,-271.075 324.892,-276.316"/>
</g>
<!-- Node7 -->
<g id="node7" class="node"><title>Node7</title>
<g id="a_node7"><a xlink:href="initializer_8h.xhtml" target="_top" xlink:title="A facility that processes input files into analysis constructs. ">
<polygon fill="white" stroke="black" points="159,-112.5 159,-131.5 222,-131.5 222,-112.5 159,-112.5"/>
<text text-anchor="middle" x="190.5" y="-119.5" font-family="Helvetica,sans-Serif" font-size="10.00">initializer.h</text>
</a>
</g>
</g>
<!-- Node1&#45;&gt;Node7 -->
<g id="edge21" class="edge"><title>Node1&#45;&gt;Node7</title>
<path fill="none" stroke="midnightblue" d="M300.271,-281.778C250.663,-271.02 172.683,-245.494 138.5,-188 125.502,-166.138 154.954,-143.613 174.631,-131.671"/>
<polygon fill="midnightblue" stroke="midnightblue" points="299.596,-285.212 310.096,-283.797 301.005,-278.355 299.596,-285.212"/>
</g>
<!-- Node9 -->
<g id="node9" class="node"><title>Node9</title>
<g id="a_node9"><a xlink:href="model_8h.xhtml" target="_top" xlink:title="Representation for a model container for risk analysis. ">
<polygon fill="white" stroke="black" points="316,-168.5 316,-187.5 367,-187.5 367,-168.5 316,-168.5"/>
<text text-anchor="middle" x="341.5" y="-175.5" font-family="Helvetica,sans-Serif" font-size="10.00">model.h</text>
</a>
</g>
</g>
<!-- Node1&#45;&gt;Node9 -->
<g id="edge20" class="edge"><title>Node1&#45;&gt;Node9</title>
<path fill="none" stroke="midnightblue" d="M343.991,-270.348C343.334,-246.254 342.217,-205.308 341.734,-187.591"/>
<polygon fill="midnightblue" stroke="midnightblue" points="340.493,-270.468 344.265,-280.368 347.491,-270.277 340.493,-270.468"/>
</g>
<!-- Node12 -->
<g id="node12" class="node"><title>Node12</title>
<g id="a_node12"><a xlink:href="reporter_8cc.xhtml" target="_top" xlink:title="Implements Reporter class. ">
<polygon fill="white" stroke="black" points="429,-0.5 429,-19.5 492,-19.5 492,-0.5 429,-0.5"/>
<text text-anchor="middle" x="460.5" y="-7.5" font-family="Helvetica,sans-Serif" font-size="10.00">reporter.cc</text>
</a>
</g>
</g>
<!-- Node1&#45;&gt;Node12 -->
<g id="edge24" class="edge"><title>Node1&#45;&gt;Node12</title>
<path fill="none" stroke="midnightblue" d="M388.564,-279.565C437.141,-266.273 508.5,-236.894 508.5,-179 508.5,-179 508.5,-179 508.5,-121 508.5,-80.161 480.363,-37.3767 467.174,-19.565"/>
<polygon fill="midnightblue" stroke="midnightblue" points="387.675,-276.18 378.88,-282.088 389.439,-282.954 387.675,-276.18"/>
</g>
<!-- Node15 -->
<g id="node15" class="node"><title>Node15</title>
<g id="a_node15"><a xlink:href="parameter_8cc.xhtml" target="_top" xlink:title="Implementation of expression parameters. ">
<polygon fill="white" stroke="black" points="536.5,-224.5 536.5,-243.5 610.5,-243.5 610.5,-224.5 536.5,-224.5"/>
<text text-anchor="middle" x="573.5" y="-231.5" font-family="Helvetica,sans-Serif" font-size="10.00">parameter.cc</text>
</a>
</g>
</g>
<!-- Node1&#45;&gt;Node15 -->
<g id="edge22" class="edge"><title>Node1&#45;&gt;Node15</title>
<path fill="none" stroke="midnightblue" d="M388.724,-278.572C431.896,-268.391 496.805,-253.085 537.087,-243.587"/>
<polygon fill="midnightblue" stroke="midnightblue" points="387.713,-275.214 378.784,-280.916 389.32,-282.027 387.713,-275.214"/>
</g>
<!-- Node16 -->
<g id="node16" class="node"><title>Node16</title>
<g id="a_node16"><a xlink:href="probability__analysis_8cc.xhtml" target="_top" xlink:title="Implementations of functions to provide probability analysis. ">
<polygon fill="white" stroke="black" points="628.5,-224.5 628.5,-243.5 744.5,-243.5 744.5,-224.5 628.5,-224.5"/>
<text text-anchor="middle" x="686.5" y="-231.5" font-family="Helvetica,sans-Serif" font-size="10.00">probability_analysis.cc</text>
</a>
</g>
</g>
<!-- Node1&#45;&gt;Node16 -->
<g id="edge23" class="edge"><title>Node1&#45;&gt;Node16</title>
<path fill="none" stroke="midnightblue" d="M388.466,-282.058C450.87,-272.205 565.027,-254.18 632.498,-243.527"/>
<polygon fill="midnightblue" stroke="midnightblue" points="387.874,-278.608 378.543,-283.625 388.966,-285.522 387.874,-278.608"/>
</g>
<!-- Node3 -->
<g id="node3" class="node"><title>Node3</title>
<g id="a_node3"><a xlink:href="cycle_8cc.xhtml" target="_top" xlink:title="Implementation of helper facilities to work with cycles. ">
<polygon fill="white" stroke="black" points="0,-168.5 0,-187.5 53,-187.5 53,-168.5 0,-168.5"/>
<text text-anchor="middle" x="26.5" y="-175.5" font-family="Helvetica,sans-Serif" font-size="10.00">cycle.cc</text>
</a>
</g>
</g>
<!-- Node2&#45;&gt;Node3 -->
<g id="edge2" class="edge"><title>Node2&#45;&gt;Node3</title>
<path fill="none" stroke="midnightblue" d="M54.4828,-215.855C47.3833,-206.505 38.896,-195.327 33.1443,-187.751"/>
<polygon fill="midnightblue" stroke="midnightblue" points="51.895,-218.235 60.7297,-224.083 57.4701,-214.002 51.895,-218.235"/>
</g>
<!-- Node4 -->
<g id="node4" class="node"><title>Node4</title>
<g id="a_node4"><a xlink:href="initializer_8cc.xhtml" target="_top" xlink:title="Implementation of input file processing into analysis constructs. ">
<polygon fill="white" stroke="black" points="78.5,-56.5 78.5,-75.5 146.5,-75.5 146.5,-56.5 78.5,-56.5"/>
<text text-anchor="middle" x="112.5" y="-63.5" font-family="Helvetica,sans-Serif" font-size="10.00">initializer.cc</text>
</a>
</g>
</g>
<!-- Node2&#45;&gt;Node4 -->
<g id="edge3" class="edge"><title>Node2&#45;&gt;Node4</title>
<path fill="none" stroke="midnightblue" d="M72.5436,-214.395C82.251,-178.585 103.19,-101.342 110.177,-75.5681"/>
<polygon fill="midnightblue" stroke="midnightblue" points="69.1578,-213.508 69.9194,-224.075 75.914,-215.339 69.1578,-213.508"/>
</g>
<!-- Node6 -->
<g id="node6" class="node"><title>Node6</title>
<g id="a_node6"><a xlink:href="fault__tree_8cc.xhtml" target="_top" xlink:title="Implementation of fault tree and component containers. ">
<polygon fill="white" stroke="black" points="148,-168.5 148,-187.5 219,-187.5 219,-168.5 148,-168.5"/>
<text text-anchor="middle" x="183.5" y="-175.5" font-family="Helvetica,sans-Serif" font-size="10.00">fault_tree.cc</text>
</a>
</g>
</g>
<!-- Node5&#45;&gt;Node6 -->
<g id="edge5" class="edge"><title>Node5&#45;&gt;Node6</title>
<path fill="none" stroke="midnightblue" d="M258.412,-219.453C239.951,-209.483 215.403,-196.228 199.527,-187.655"/>
<polygon fill="midnightblue" stroke="midnightblue" points="256.971,-222.652 267.433,-224.324 260.297,-216.493 256.971,-222.652"/>
</g>
<!-- Node5&#45;&gt;Node7 -->
<g id="edge6" class="edge"><title>Node5&#45;&gt;Node7</title>
<path fill="none" stroke="midnightblue" d="M269.622,-216.586C249.573,-192.871 213.217,-149.869 197.764,-131.591"/>
<polygon fill="midnightblue" stroke="midnightblue" points="267.073,-218.992 276.202,-224.368 272.419,-214.472 267.073,-218.992"/>
</g>
<!-- Node5&#45;&gt;Node9 -->
<g id="edge9" class="edge"><title>Node5&#45;&gt;Node9</title>
<path fill="none" stroke="midnightblue" d="M300.413,-217.253C310.703,-207.673 323.466,-195.791 332.012,-187.834"/>
<polygon fill="midnightblue" stroke="midnightblue" points="297.753,-214.948 292.819,-224.324 302.523,-220.071 297.753,-214.948"/>
</g>
<!-- Node14 -->
<g id="node14" class="node"><title>Node14</title>
<g id="a_node14"><a xlink:href="risk__analysis_8cc.xhtml" target="_top" xlink:title="Implementation of risk analysis handler. ">
<polygon fill="white" stroke="black" points="219,-56.5 219,-75.5 306,-75.5 306,-56.5 219,-56.5"/>
<text text-anchor="middle" x="262.5" y="-63.5" font-family="Helvetica,sans-Serif" font-size="10.00">risk_analysis.cc</text>
</a>
</g>
</g>
<!-- Node5&#45;&gt;Node14 -->
<g id="edge19" class="edge"><title>Node5&#45;&gt;Node14</title>
<path fill="none" stroke="midnightblue" d="M281.087,-213.93C276.532,-177.92 266.83,-101.231 263.584,-75.5681"/>
<polygon fill="midnightblue" stroke="midnightblue" points="277.643,-214.593 282.371,-224.075 284.588,-213.715 277.643,-214.593"/>
</g>
<!-- Node7&#45;&gt;Node4 -->
<g id="edge7" class="edge"><title>Node7&#45;&gt;Node4</title>
<path fill="none" stroke="midnightblue" d="M169.732,-106.622C155.483,-96.7574 137.044,-83.9919 125.001,-75.6545"/>
<polygon fill="midnightblue" stroke="midnightblue" points="167.754,-109.51 177.968,-112.324 171.738,-103.754 167.754,-109.51"/>
</g>
<!-- Node8 -->
<g id="node8" class="node"><title>Node8</title>
<g id="a_node8"><a xlink:href="scram_8cc.xhtml" target="_top" xlink:title="Main entrance. ">
<polygon fill="white" stroke="black" points="306,-0.5 306,-19.5 363,-19.5 363,-0.5 306,-0.5"/>
<text text-anchor="middle" x="334.5" y="-7.5" font-family="Helvetica,sans-Serif" font-size="10.00">scram.cc</text>
</a>
</g>
</g>
<!-- Node7&#45;&gt;Node8 -->
<g id="edge8" class="edge"><title>Node7&#45;&gt;Node8</title>
<path fill="none" stroke="midnightblue" d="M191.524,-101.996C193.264,-87.671 197.805,-68.4335 209.5,-56 234.864,-29.0354 277.557,-18.1937 305.881,-13.8573"/>
<polygon fill="midnightblue" stroke="midnightblue" points="188.016,-101.944 190.646,-112.207 194.99,-102.543 188.016,-101.944"/>
</g>
<!-- Node9&#45;&gt;Node7 -->
<g id="edge10" class="edge"><title>Node9&#45;&gt;Node7</title>
<path fill="none" stroke="midnightblue" d="M308.054,-165.039C279.642,-154.879 239.563,-140.546 214.314,-131.516"/>
<polygon fill="midnightblue" stroke="midnightblue" points="306.979,-168.372 317.574,-168.444 309.336,-161.781 306.979,-168.372"/>
</g>
<!-- Node10 -->
<g id="node10" class="node"><title>Node10</title>
<g id="a_node10"><a xlink:href="model_8cc.xhtml" target="_top" xlink:title="Implementation of functions in Model class. ">
<polygon fill="white" stroke="black" points="424.5,-112.5 424.5,-131.5 480.5,-131.5 480.5,-112.5 424.5,-112.5"/>
<text text-anchor="middle" x="452.5" y="-119.5" font-family="Helvetica,sans-Serif" font-size="10.00">model.cc</text>
</a>
</g>
</g>
<!-- Node9&#45;&gt;Node10 -->
<g id="edge11" class="edge"><title>Node9&#45;&gt;Node10</title>
<path fill="none" stroke="midnightblue" d="M368.505,-163.862C389.088,-153.849 416.845,-140.346 434.71,-131.655"/>
<polygon fill="midnightblue" stroke="midnightblue" points="366.795,-160.802 359.334,-168.324 369.858,-167.097 366.795,-160.802"/>
</g>
<!-- Node11 -->
<g id="node11" class="node"><title>Node11</title>
<g id="a_node11"><a xlink:href="reporter_8h.xhtml" target="_top" xlink:title="Reporter of results. ">
<polygon fill="white" stroke="black" points="365.5,-56.5 365.5,-75.5 423.5,-75.5 423.5,-56.5 365.5,-56.5"/>
<text text-anchor="middle" x="394.5" y="-63.5" font-family="Helvetica,sans-Serif" font-size="10.00">reporter.h</text>
</a>
</g>
</g>
<!-- Node9&#45;&gt;Node11 -->
<g id="edge12" class="edge"><title>Node9&#45;&gt;Node11</title>
<path fill="none" stroke="midnightblue" d="M357.121,-160.914C364.241,-152.807 372.236,-142.485 377.5,-132 386.92,-113.236 391.498,-88.724 393.385,-75.8236"/>
<polygon fill="midnightblue" stroke="midnightblue" points="354.361,-158.746 350.17,-168.476 359.514,-163.483 354.361,-158.746"/>
</g>
<!-- Node13 -->
<g id="node13" class="node"><title>Node13</title>
<g id="a_node13"><a xlink:href="risk__analysis_8h.xhtml" target="_top" xlink:title="Contains the main system for performing analysis. ">
<polygon fill="white" stroke="black" points="286.5,-112.5 286.5,-131.5 368.5,-131.5 368.5,-112.5 286.5,-112.5"/>
<text text-anchor="middle" x="327.5" y="-119.5" font-family="Helvetica,sans-Serif" font-size="10.00">risk_analysis.h</text>
</a>
</g>
</g>
<!-- Node9&#45;&gt;Node13 -->
<g id="edge15" class="edge"><title>Node9&#45;&gt;Node13</title>
<path fill="none" stroke="midnightblue" d="M336.677,-158.396C334.335,-149.362 331.632,-138.936 329.769,-131.751"/>
<polygon fill="midnightblue" stroke="midnightblue" points="333.29,-159.281 339.188,-168.083 340.066,-157.525 333.29,-159.281"/>
</g>
<!-- Node11&#45;&gt;Node8 -->
<g id="edge14" class="edge"><title>Node11&#45;&gt;Node8</title>
<path fill="none" stroke="midnightblue" d="M377.319,-49.5372C366.621,-39.9087 353.244,-27.8694 344.315,-19.8339"/>
<polygon fill="midnightblue" stroke="midnightblue" points="375.086,-52.2358 384.86,-56.324 379.768,-47.0327 375.086,-52.2358"/>
</g>
<!-- Node11&#45;&gt;Node12 -->
<g id="edge13" class="edge"><title>Node11&#45;&gt;Node12</title>
<path fill="none" stroke="midnightblue" d="M413.054,-49.8197C424.878,-40.1452 439.786,-27.9481 449.703,-19.8339"/>
<polygon fill="midnightblue" stroke="midnightblue" points="410.627,-47.2827 405.104,-56.324 415.06,-52.7004 410.627,-47.2827"/>
</g>
<!-- Node13&#45;&gt;Node8 -->
<g id="edge18" class="edge"><title>Node13&#45;&gt;Node8</title>
<path fill="none" stroke="midnightblue" d="M328.687,-102.348C330.22,-78.2538 332.826,-37.3079 333.953,-19.5914"/>
<polygon fill="midnightblue" stroke="midnightblue" points="325.192,-102.166 328.049,-112.368 332.177,-102.611 325.192,-102.166"/>
</g>
<!-- Node13&#45;&gt;Node11 -->
<g id="edge16" class="edge"><title>Node13&#45;&gt;Node11</title>
<path fill="none" stroke="midnightblue" d="M346.335,-105.82C358.338,-96.1452 373.472,-83.9481 383.539,-75.8339"/>
<polygon fill="midnightblue" stroke="midnightblue" points="343.854,-103.324 338.265,-112.324 348.247,-108.774 343.854,-103.324"/>
</g>
<!-- Node13&#45;&gt;Node14 -->
<g id="edge17" class="edge"><title>Node13&#45;&gt;Node14</title>
<path fill="none" stroke="midnightblue" d="M309.227,-105.82C297.582,-96.1452 282.901,-83.9481 273.133,-75.8339"/>
<polygon fill="midnightblue" stroke="midnightblue" points="307.128,-108.626 317.057,-112.324 311.601,-103.242 307.128,-108.626"/>
</g>
</g>
</svg>
