<?xml version="1.0" encoding="UTF-8" standalone="no"?>
<!DOCTYPE svg PUBLIC "-//W3C//DTD SVG 1.1//EN"
 "http://www.w3.org/Graphics/SVG/1.1/DTD/svg11.dtd">
<!-- Generated by graphviz version 2.38.0 (20140413.2041)
 -->
<!-- Title: scram::core::TraverseGates Pages: 1 -->
<svg width="1546pt" height="444pt"
 viewBox="0.00 0.00 1546.00 444.42" xmlns="http://www.w3.org/2000/svg" xmlns:xlink="http://www.w3.org/1999/xlink">
<g id="graph0" class="graph" transform="scale(1 1) rotate(0) translate(4 440.424)">
<title>scram::core::TraverseGates</title>
<polygon fill="white" stroke="none" points="-4,4 -4,-440.424 1542,-440.424 1542,4 -4,4"/>
<!-- Node1 -->
<g id="node1" class="node"><title>Node1</title>
<polygon fill="#bfbfbf" stroke="black" points="0,-275.739 0,-294.739 139,-294.739 139,-275.739 0,-275.739"/>
<text text-anchor="middle" x="69.5" y="-282.739" font-family="Helvetica,sans-Serif" font-size="10.00">scram::core::TraverseGates</text>
</g>
<!-- Node1&#45;&gt;Node1 -->
<g id="edge41" class="edge"><title>Node1&#45;&gt;Node1</title>
<path fill="none" stroke="midnightblue" d="M38.4371,-303.514C39.3228,-308.98 49.6771,-313.239 69.5,-313.239 99.0039,-313.239 107.532,-303.804 95.0854,-294.996"/>
<polygon fill="midnightblue" stroke="midnightblue" points="41.4495,-305.3 43.9146,-294.996 35.5618,-301.514 41.4495,-305.3"/>
</g>
<!-- Node2 -->
<g id="node2" class="node"><title>Node2</title>
<g id="a_node2"><a xlink:href="pdag_8h.xhtml#ae1d3a2de9cccb9e87bdeee839a7d381f" target="_top" xlink:title="Specializations for various node mark clearance operations. ">
<polygon fill="white" stroke="black" points="182,-319.239 182,-349.239 289,-349.239 289,-319.239 182,-319.239"/>
<text text-anchor="start" x="190" y="-337.239" font-family="Helvetica,sans-Serif" font-size="10.00">scram::core::Clear</text>
<text text-anchor="middle" x="235.5" y="-326.239" font-family="Helvetica,sans-Serif" font-size="10.00">&lt; Pdag::kAncestor &gt;</text>
</a>
</g>
</g>
<!-- Node1&#45;&gt;Node2 -->
<g id="edge1" class="edge"><title>Node1&#45;&gt;Node2</title>
<path fill="none" stroke="midnightblue" d="M112.183,-297.693C134.089,-304.238 161.106,-312.311 184.172,-319.202"/>
<polygon fill="midnightblue" stroke="midnightblue" points="113.094,-294.313 102.51,-294.803 111.09,-301.02 113.094,-294.313"/>
</g>
<!-- Node3 -->
<g id="node3" class="node"><title>Node3</title>
<g id="a_node3"><a xlink:href="pdag_8h.xhtml#a250b1e0c16cc87d907716f70bc275286" target="_top" xlink:title="Specializations for various node mark clearance operations. ">
<polygon fill="white" stroke="black" points="175,-270.239 175,-300.239 296,-300.239 296,-270.239 175,-270.239"/>
<text text-anchor="start" x="183" y="-288.239" font-family="Helvetica,sans-Serif" font-size="10.00">scram::core::Clear</text>
<text text-anchor="middle" x="235.5" y="-277.239" font-family="Helvetica,sans-Serif" font-size="10.00">&lt; Pdag::kDescendant &gt;</text>
</a>
</g>
</g>
<!-- Node1&#45;&gt;Node3 -->
<g id="edge2" class="edge"><title>Node1&#45;&gt;Node3</title>
<path fill="none" stroke="midnightblue" d="M149.167,-285.239C157.78,-285.239 166.443,-285.239 174.774,-285.239"/>
<polygon fill="midnightblue" stroke="midnightblue" points="149.101,-281.739 139.101,-285.239 149.1,-288.739 149.101,-281.739"/>
</g>
<!-- Node4 -->
<g id="node4" class="node"><title>Node4</title>
<g id="a_node4"><a xlink:href="classscram_1_1core_1_1Pdag.xhtml#a1ec495a3595a7d088f1889f46eeb725d" target="_top" xlink:title="Removes gates of Null logic with a single argument (maybe constant). ">
<polygon fill="white" stroke="black" points="184,-221.239 184,-251.239 287,-251.239 287,-221.239 184,-221.239"/>
<text text-anchor="start" x="192" y="-239.239" font-family="Helvetica,sans-Serif" font-size="10.00">scram::core::Pdag::</text>
<text text-anchor="middle" x="235.5" y="-228.239" font-family="Helvetica,sans-Serif" font-size="10.00">RemoveNullGates</text>
</a>
</g>
</g>
<!-- Node1&#45;&gt;Node4 -->
<g id="edge3" class="edge"><title>Node1&#45;&gt;Node4</title>
<path fill="none" stroke="midnightblue" d="M112.183,-272.785C134.089,-266.24 161.106,-258.168 184.172,-251.276"/>
<polygon fill="midnightblue" stroke="midnightblue" points="111.09,-269.459 102.51,-275.675 113.094,-276.166 111.09,-269.459"/>
</g>
<!-- Node5 -->
<g id="node5" class="node"><title>Node5</title>
<g id="a_node5"><a xlink:href="classscram_1_1core_1_1Preprocessor.xhtml#a44f820b6fe2c23594c818432b33e26a6" target="_top" xlink:title="The initial phase of preprocessing. ">
<polygon fill="white" stroke="black" points="843,-353.239 843,-383.239 975,-383.239 975,-353.239 843,-353.239"/>
<text text-anchor="start" x="851" y="-371.239" font-family="Helvetica,sans-Serif" font-size="10.00">scram::core::Preprocessor</text>
<text text-anchor="middle" x="909" y="-360.239" font-family="Helvetica,sans-Serif" font-size="10.00">::RunPhaseOne</text>
</a>
</g>
</g>
<!-- Node4&#45;&gt;Node5 -->
<g id="edge4" class="edge"><title>Node4&#45;&gt;Node5</title>
<path fill="none" stroke="midnightblue" d="M290.476,-256.89C292.406,-258.258 294.257,-259.706 296,-261.239 319.929,-282.28 305.686,-305.27 332,-323.239 488.763,-430.288 728.535,-403.656 842.914,-382.49"/>
<polygon fill="midnightblue" stroke="midnightblue" points="291.947,-253.684 281.601,-251.399 288.264,-259.637 291.947,-253.684"/>
</g>
<!-- Node11 -->
<g id="node11" class="node"><title>Node11</title>
<g id="a_node11"><a xlink:href="classscram_1_1core_1_1Preprocessor.xhtml#ad13e133278ea7563c1ba037c05c35aa2" target="_top" xlink:title="Normalizes the gates of the whole PDAG into OR, AND gates. ">
<polygon fill="white" stroke="black" points="675,-287.239 675,-317.239 807,-317.239 807,-287.239 675,-287.239"/>
<text text-anchor="start" x="683" y="-305.239" font-family="Helvetica,sans-Serif" font-size="10.00">scram::core::Preprocessor</text>
<text text-anchor="middle" x="741" y="-294.239" font-family="Helvetica,sans-Serif" font-size="10.00">::NormalizeGates</text>
</a>
</g>
</g>
<!-- Node4&#45;&gt;Node11 -->
<g id="edge11" class="edge"><title>Node4&#45;&gt;Node11</title>
<path fill="none" stroke="midnightblue" d="M297.172,-253.635C308.669,-256.5 320.65,-259.196 332,-261.239 451.985,-282.837 594.018,-293.886 674.91,-298.835"/>
<polygon fill="midnightblue" stroke="midnightblue" points="297.778,-250.177 287.222,-251.086 296.04,-256.958 297.778,-250.177"/>
</g>
<!-- Node13 -->
<g id="node13" class="node"><title>Node13</title>
<g id="a_node13"><a xlink:href="classscram_1_1core_1_1Preprocessor.xhtml#a00288bef180767d7c79e3c79a33ef2d8" target="_top" xlink:title="Runs gate coalescence on the whole PDAG. ">
<polygon fill="white" stroke="black" points="503.5,-69.2392 503.5,-99.2392 635.5,-99.2392 635.5,-69.2392 503.5,-69.2392"/>
<text text-anchor="start" x="511.5" y="-87.2392" font-family="Helvetica,sans-Serif" font-size="10.00">scram::core::Preprocessor</text>
<text text-anchor="middle" x="569.5" y="-76.2392" font-family="Helvetica,sans-Serif" font-size="10.00">::CoalesceGates</text>
</a>
</g>
</g>
<!-- Node4&#45;&gt;Node13 -->
<g id="edge17" class="edge"><title>Node4&#45;&gt;Node13</title>
<path fill="none" stroke="midnightblue" d="M260.337,-214.108C278.722,-198.055 305.424,-176.854 332,-163.239 386.558,-135.289 405.922,-142.855 464,-123.239 486.016,-115.803 510.353,-106.769 529.998,-99.2693"/>
<polygon fill="midnightblue" stroke="midnightblue" points="257.65,-211.814 252.505,-221.076 262.303,-217.044 257.65,-211.814"/>
</g>
<!-- Node18 -->
<g id="node18" class="node"><title>Node18</title>
<g id="a_node18"><a xlink:href="classscram_1_1core_1_1Preprocessor.xhtml#ac0abd7f5b54f98643644110b160569bd" target="_top" xlink:title="Detects and replaces multiple definitions of gates. ">
<polygon fill="white" stroke="black" points="500,-309.239 500,-339.239 639,-339.239 639,-309.239 500,-309.239"/>
<text text-anchor="start" x="508" y="-327.239" font-family="Helvetica,sans-Serif" font-size="10.00">scram::core::Preprocessor</text>
<text text-anchor="middle" x="569.5" y="-316.239" font-family="Helvetica,sans-Serif" font-size="10.00">::ProcessMultipleDefinitions</text>
</a>
</g>
</g>
<!-- Node4&#45;&gt;Node18 -->
<g id="edge31" class="edge"><title>Node4&#45;&gt;Node18</title>
<path fill="none" stroke="midnightblue" d="M286.836,-255.896C289.999,-257.586 293.081,-259.369 296,-261.239 314.275,-272.949 312.308,-285.111 332,-294.239 384.852,-318.738 451.077,-325.367 499.995,-326.369"/>
<polygon fill="midnightblue" stroke="midnightblue" points="288.285,-252.707 277.773,-251.385 285.165,-258.974 288.285,-252.707"/>
</g>
<!-- Node19 -->
<g id="node19" class="node"><title>Node19</title>
<g id="a_node19"><a xlink:href="classscram_1_1core_1_1Preprocessor.xhtml#a651b32816243e37c58b7835220997ef2" target="_top" xlink:title="Merges common arguments for a specific group of gates. ">
<polygon fill="white" stroke="black" points="332,-84.2392 332,-114.239 464,-114.239 464,-84.2392 332,-84.2392"/>
<text text-anchor="start" x="340" y="-102.239" font-family="Helvetica,sans-Serif" font-size="10.00">scram::core::Preprocessor</text>
<text text-anchor="middle" x="398" y="-91.2392" font-family="Helvetica,sans-Serif" font-size="10.00">::MergeCommonArgs</text>
</a>
</g>
</g>
<!-- Node4&#45;&gt;Node19 -->
<g id="edge34" class="edge"><title>Node4&#45;&gt;Node19</title>
<path fill="none" stroke="midnightblue" d="M253.046,-212.603C270.499,-189.037 299.881,-153.017 332,-129.239 339.692,-123.545 348.637,-118.562 357.386,-114.378"/>
<polygon fill="midnightblue" stroke="midnightblue" points="250.01,-210.827 246.961,-220.973 255.672,-214.943 250.01,-210.827"/>
</g>
<!-- Node20 -->
<g id="node20" class="node"><title>Node20</title>
<g id="a_node20"><a xlink:href="classscram_1_1core_1_1Preprocessor.xhtml#a4737f354474154b3cea9773c25616d27" target="_top" xlink:title="Detects and manipulates AND and OR gate distributivity for the whole graph. ">
<polygon fill="white" stroke="black" points="332,-221.239 332,-251.239 464,-251.239 464,-221.239 332,-221.239"/>
<text text-anchor="start" x="340" y="-239.239" font-family="Helvetica,sans-Serif" font-size="10.00">scram::core::Preprocessor</text>
<text text-anchor="middle" x="398" y="-228.239" font-family="Helvetica,sans-Serif" font-size="10.00">::DetectDistributivity</text>
</a>
</g>
</g>
<!-- Node4&#45;&gt;Node20 -->
<g id="edge35" class="edge"><title>Node4&#45;&gt;Node20</title>
<path fill="none" stroke="midnightblue" d="M297.434,-236.239C308.681,-236.239 320.467,-236.239 331.834,-236.239"/>
<polygon fill="midnightblue" stroke="midnightblue" points="297.283,-232.739 287.283,-236.239 297.283,-239.739 297.283,-232.739"/>
</g>
<!-- Node22 -->
<g id="node22" class="node"><title>Node22</title>
<g id="a_node22"><a xlink:href="classscram_1_1core_1_1Preprocessor.xhtml#a4086c57695d49b4770915d5d53bd47de" target="_top" xlink:title="Tries to simplify the graph by removing redundancies generated by a common node. ">
<polygon fill="white" stroke="black" points="332,-172.239 332,-202.239 464,-202.239 464,-172.239 332,-172.239"/>
<text text-anchor="start" x="340" y="-190.239" font-family="Helvetica,sans-Serif" font-size="10.00">scram::core::Preprocessor</text>
<text text-anchor="middle" x="398" y="-179.239" font-family="Helvetica,sans-Serif" font-size="10.00">::ProcessCommonNode</text>
</a>
</g>
</g>
<!-- Node4&#45;&gt;Node22 -->
<g id="edge38" class="edge"><title>Node4&#45;&gt;Node22</title>
<path fill="none" stroke="midnightblue" d="M295.829,-218.126C312.892,-212.917 331.312,-207.294 347.698,-202.291"/>
<polygon fill="midnightblue" stroke="midnightblue" points="294.507,-214.87 285.965,-221.138 296.551,-221.565 294.507,-214.87"/>
</g>
<!-- Node6 -->
<g id="node6" class="node"><title>Node6</title>
<g id="a_node6"><a xlink:href="classscram_1_1core_1_1Preprocessor.xhtml#a2b6705e815fa3d02119c405b483766d5" target="_top" xlink:title="Container of unique gates by semantics. ">
<polygon fill="white" stroke="black" points="1011,-271.739 1011,-290.739 1167,-290.739 1167,-271.739 1011,-271.739"/>
<text text-anchor="middle" x="1089" y="-278.739" font-family="Helvetica,sans-Serif" font-size="10.00">scram::core::Preprocessor::Run</text>
</a>
</g>
</g>
<!-- Node5&#45;&gt;Node6 -->
<g id="edge5" class="edge"><title>Node5&#45;&gt;Node6</title>
<path fill="none" stroke="midnightblue" d="M949.997,-348.69C986.842,-330.682 1039.97,-304.716 1068.36,-290.84"/>
<polygon fill="midnightblue" stroke="midnightblue" points="948.453,-345.549 941.005,-353.085 951.526,-351.838 948.453,-345.549"/>
</g>
<!-- Node9 -->
<g id="node9" class="node"><title>Node9</title>
<g id="a_node9"><a xlink:href="classscram_1_1core_1_1Preprocessor.xhtml#a5ee92284aef510ce01a71c962d50f51c" target="_top" xlink:title="Runs the graph preprocessing. ">
<polygon fill="white" stroke="black" points="1220.5,-220.239 1220.5,-250.239 1352.5,-250.239 1352.5,-220.239 1220.5,-220.239"/>
<text text-anchor="start" x="1228.5" y="-238.239" font-family="Helvetica,sans-Serif" font-size="10.00">scram::core::Preprocessor</text>
<text text-anchor="middle" x="1286.5" y="-227.239" font-family="Helvetica,sans-Serif" font-size="10.00">::operator()</text>
</a>
</g>
</g>
<!-- Node5&#45;&gt;Node9 -->
<g id="edge10" class="edge"><title>Node5&#45;&gt;Node9</title>
<path fill="none" stroke="midnightblue" d="M985.235,-377.882C1040.56,-380.909 1114.87,-376.03 1167,-338.239 1197.91,-315.829 1174.2,-285.309 1203,-260.239 1208.08,-255.817 1213.92,-252.177 1220.1,-249.181"/>
<polygon fill="midnightblue" stroke="midnightblue" points="985.341,-374.382 975.136,-377.231 984.89,-381.367 985.341,-374.382"/>
</g>
<!-- Node7 -->
<g id="node7" class="node"><title>Node7</title>
<g id="a_node7"><a xlink:href="classscram_1_1core_1_1Preprocessor.xhtml#a9caf4677a024ed935d831210b57b8ed9" target="_top" xlink:title="Gathers nodes in the sub&#45;graph. ">
<polygon fill="white" stroke="black" points="1220.5,-269.239 1220.5,-299.239 1352.5,-299.239 1352.5,-269.239 1220.5,-269.239"/>
<text text-anchor="start" x="1228.5" y="-287.239" font-family="Helvetica,sans-Serif" font-size="10.00">scram::core::Preprocessor</text>
<text text-anchor="middle" x="1286.5" y="-276.239" font-family="Helvetica,sans-Serif" font-size="10.00">::GatherNodes</text>
</a>
</g>
</g>
<!-- Node6&#45;&gt;Node7 -->
<g id="edge6" class="edge"><title>Node6&#45;&gt;Node7</title>
<path fill="none" stroke="midnightblue" d="M1177.67,-282.585C1192.06,-282.805 1206.74,-283.031 1220.46,-283.241"/>
<polygon fill="midnightblue" stroke="midnightblue" points="1177.32,-279.079 1167.27,-282.425 1177.21,-286.078 1177.32,-279.079"/>
</g>
<!-- Node8 -->
<g id="node8" class="node"><title>Node8</title>
<g id="a_node8"><a xlink:href="classscram_1_1core_1_1CustomPreprocessor_3_01Zbdd_01_4.xhtml#a5185075f852c647c7aa4313d23420ee5" target="_top" xlink:title="Performs preprocessing for analyses with Zero&#45;Suppressed Binary Decision Diagrams. ">
<polygon fill="white" stroke="black" points="1203,-101.239 1203,-131.239 1370,-131.239 1370,-101.239 1203,-101.239"/>
<text text-anchor="start" x="1211" y="-119.239" font-family="Helvetica,sans-Serif" font-size="10.00">scram::core::CustomPreprocessor</text>
<text text-anchor="middle" x="1286.5" y="-108.239" font-family="Helvetica,sans-Serif" font-size="10.00">&lt; Zbdd &gt;::Run</text>
</a>
</g>
</g>
<!-- Node6&#45;&gt;Node8 -->
<g id="edge7" class="edge"><title>Node6&#45;&gt;Node8</title>
<path fill="none" stroke="midnightblue" d="M1109.1,-265.116C1146.91,-233.207 1230.79,-162.411 1267.6,-131.347"/>
<polygon fill="midnightblue" stroke="midnightblue" points="1106.74,-262.53 1101.36,-271.655 1111.26,-267.88 1106.74,-262.53"/>
</g>
<!-- Node6&#45;&gt;Node9 -->
<g id="edge8" class="edge"><title>Node6&#45;&gt;Node9</title>
<path fill="none" stroke="midnightblue" d="M1140.41,-269.379C1165.15,-263.557 1195.23,-256.48 1221.57,-250.282"/>
<polygon fill="midnightblue" stroke="midnightblue" points="1139.44,-266.011 1130.51,-271.708 1141.04,-272.824 1139.44,-266.011"/>
</g>
<!-- Node10 -->
<g id="node10" class="node"><title>Node10</title>
<g id="a_node10"><a xlink:href="classscram_1_1core_1_1Preprocessor_1_1GateSet.xhtml#ae00239084858979e096032c4cf2f05b9" target="_top" xlink:title="Inserts a gate into the set if it is semantically unique. ">
<polygon fill="white" stroke="black" points="1406,-220.239 1406,-250.239 1538,-250.239 1538,-220.239 1406,-220.239"/>
<text text-anchor="start" x="1414" y="-238.239" font-family="Helvetica,sans-Serif" font-size="10.00">scram::core::Preprocessor</text>
<text text-anchor="middle" x="1472" y="-227.239" font-family="Helvetica,sans-Serif" font-size="10.00">::GateSet::insert</text>
</a>
</g>
</g>
<!-- Node9&#45;&gt;Node10 -->
<g id="edge9" class="edge"><title>Node9&#45;&gt;Node10</title>
<path fill="none" stroke="midnightblue" d="M1362.99,-235.239C1377.26,-235.239 1392.08,-235.239 1406,-235.239"/>
<polygon fill="midnightblue" stroke="midnightblue" points="1362.71,-231.739 1352.71,-235.239 1362.71,-238.739 1362.71,-231.739"/>
</g>
<!-- Node11&#45;&gt;Node5 -->
<g id="edge12" class="edge"><title>Node11&#45;&gt;Node5</title>
<path fill="none" stroke="midnightblue" d="M789.58,-321.157C815.131,-331.315 846.193,-343.666 870.093,-353.168"/>
<polygon fill="midnightblue" stroke="midnightblue" points="790.669,-317.823 780.084,-317.381 788.083,-324.328 790.669,-317.823"/>
</g>
<!-- Node11&#45;&gt;Node9 -->
<g id="edge16" class="edge"><title>Node11&#45;&gt;Node9</title>
<path fill="none" stroke="midnightblue" d="M815.361,-319.167C903.19,-335.644 1052.73,-351.453 1167,-300.239 1188.83,-290.457 1182.81,-273.067 1203,-260.239 1209.06,-256.386 1215.75,-253.099 1222.62,-250.301"/>
<polygon fill="midnightblue" stroke="midnightblue" points="815.969,-315.72 805.487,-317.263 814.643,-322.593 815.969,-315.72"/>
</g>
<!-- Node12 -->
<g id="node12" class="node"><title>Node12</title>
<g id="a_node12"><a xlink:href="classscram_1_1core_1_1Preprocessor.xhtml#abf2c66723172a85b2ae87ef2a034cd1f" target="_top" xlink:title="Application of gate normalization. ">
<polygon fill="white" stroke="black" points="843,-227.239 843,-257.239 975,-257.239 975,-227.239 843,-227.239"/>
<text text-anchor="start" x="851" y="-245.239" font-family="Helvetica,sans-Serif" font-size="10.00">scram::core::Preprocessor</text>
<text text-anchor="middle" x="909" y="-234.239" font-family="Helvetica,sans-Serif" font-size="10.00">::RunPhaseThree</text>
</a>
</g>
</g>
<!-- Node11&#45;&gt;Node12 -->
<g id="edge13" class="edge"><title>Node11&#45;&gt;Node12</title>
<path fill="none" stroke="midnightblue" d="M793.34,-283.683C816.813,-275.199 844.259,-265.278 866.412,-257.271"/>
<polygon fill="midnightblue" stroke="midnightblue" points="792.104,-280.408 783.889,-287.099 794.483,-286.991 792.104,-280.408"/>
</g>
<!-- Node12&#45;&gt;Node6 -->
<g id="edge14" class="edge"><title>Node12&#45;&gt;Node6</title>
<path fill="none" stroke="midnightblue" d="M984.899,-258.65C1005.23,-263.105 1026.57,-267.781 1044.53,-271.715"/>
<polygon fill="midnightblue" stroke="midnightblue" points="985.535,-255.206 975.018,-256.485 984.037,-262.044 985.535,-255.206"/>
</g>
<!-- Node12&#45;&gt;Node9 -->
<g id="edge15" class="edge"><title>Node12&#45;&gt;Node9</title>
<path fill="none" stroke="midnightblue" d="M985.74,-240.827C1054.52,-239.545 1154.9,-237.674 1220.21,-236.456"/>
<polygon fill="midnightblue" stroke="midnightblue" points="985.34,-237.334 975.407,-241.02 985.471,-244.333 985.34,-237.334"/>
</g>
<!-- Node13&#45;&gt;Node9 -->
<g id="edge30" class="edge"><title>Node13&#45;&gt;Node9</title>
<path fill="none" stroke="midnightblue" d="M645.378,-100.053C786.083,-129.768 1087.72,-193.47 1220.49,-221.51"/>
<polygon fill="midnightblue" stroke="midnightblue" points="646.037,-96.6146 635.529,-97.9727 644.59,-103.464 646.037,-96.6146"/>
</g>
<!-- Node14 -->
<g id="node14" class="node"><title>Node14</title>
<g id="a_node14"><a xlink:href="classscram_1_1core_1_1Preprocessor.xhtml#a9d5f89471499508eb9e6c01ea43e0f15" target="_top" xlink:title="Preprocessing phase of the original structure of the graph. ">
<polygon fill="white" stroke="black" points="675,-183.239 675,-213.239 807,-213.239 807,-183.239 675,-183.239"/>
<text text-anchor="start" x="683" y="-201.239" font-family="Helvetica,sans-Serif" font-size="10.00">scram::core::Preprocessor</text>
<text text-anchor="middle" x="741" y="-190.239" font-family="Helvetica,sans-Serif" font-size="10.00">::RunPhaseTwo</text>
</a>
</g>
</g>
<!-- Node13&#45;&gt;Node14 -->
<g id="edge18" class="edge"><title>Node13&#45;&gt;Node14</title>
<path fill="none" stroke="midnightblue" d="M605.643,-104.483C616.463,-110.926 628.331,-118.209 639,-125.239 667.906,-144.285 700.133,-168.039 720.238,-183.176"/>
<polygon fill="midnightblue" stroke="midnightblue" points="607.241,-101.362 596.85,-99.2924 603.682,-107.39 607.241,-101.362"/>
</g>
<!-- Node16 -->
<g id="node16" class="node"><title>Node16</title>
<g id="a_node16"><a xlink:href="classscram_1_1core_1_1Preprocessor.xhtml#a3569bbcd5e863c750cdfa69115399600" target="_top" xlink:title="The final phase that cleans up the graph, and puts the structure of the graph ready for analysis...">
<polygon fill="white" stroke="black" points="1023,-52.2392 1023,-82.2392 1155,-82.2392 1155,-52.2392 1023,-52.2392"/>
<text text-anchor="start" x="1031" y="-70.2392" font-family="Helvetica,sans-Serif" font-size="10.00">scram::core::Preprocessor</text>
<text text-anchor="middle" x="1089" y="-59.2392" font-family="Helvetica,sans-Serif" font-size="10.00">::RunPhaseFive</text>
</a>
</g>
</g>
<!-- Node13&#45;&gt;Node16 -->
<g id="edge28" class="edge"><title>Node13&#45;&gt;Node16</title>
<path fill="none" stroke="midnightblue" d="M594.289,-62.5857C614.212,-46.0102 644.256,-24.4735 675,-15.2392 808.754,24.935 975.918,-25.1765 1049.83,-52.1567"/>
<polygon fill="midnightblue" stroke="midnightblue" points="591.984,-59.9518 586.655,-69.1092 596.531,-65.2735 591.984,-59.9518"/>
</g>
<!-- Node17 -->
<g id="node17" class="node"><title>Node17</title>
<g id="a_node17"><a xlink:href="classscram_1_1core_1_1Preprocessor.xhtml#a3a0500bd52152df42fca486c97043140" target="_top" xlink:title="Coalesces positive argument gates with the same OR or AND logic as parents. ">
<polygon fill="white" stroke="black" points="675,-25.2392 675,-55.2392 807,-55.2392 807,-25.2392 675,-25.2392"/>
<text text-anchor="start" x="683" y="-43.2392" font-family="Helvetica,sans-Serif" font-size="10.00">scram::core::Preprocessor</text>
<text text-anchor="middle" x="741" y="-32.2392" font-family="Helvetica,sans-Serif" font-size="10.00">::CoalesceGates</text>
</a>
</g>
</g>
<!-- Node13&#45;&gt;Node17 -->
<g id="edge29" class="edge"><title>Node13&#45;&gt;Node17</title>
<path fill="none" stroke="midnightblue" d="M638.277,-66.6451C652.797,-62.876 668.01,-58.927 682.115,-55.2654"/>
<polygon fill="midnightblue" stroke="midnightblue" points="637.158,-63.3196 628.358,-69.22 638.917,-70.095 637.158,-63.3196"/>
</g>
<!-- Node14&#45;&gt;Node6 -->
<g id="edge19" class="edge"><title>Node14&#45;&gt;Node6</title>
<path fill="none" stroke="midnightblue" d="M765.612,-219.932C784.878,-236.172 813.625,-257.236 843,-267.239 897.042,-285.642 961.636,-288.615 1010.93,-287.27"/>
<polygon fill="midnightblue" stroke="midnightblue" points="767.814,-217.21 757.961,-213.314 763.235,-222.504 767.814,-217.21"/>
</g>
<!-- Node14&#45;&gt;Node9 -->
<g id="edge27" class="edge"><title>Node14&#45;&gt;Node9</title>
<path fill="none" stroke="midnightblue" d="M817.105,-203.352C924.222,-210.644 1119.09,-223.911 1220.41,-230.808"/>
<polygon fill="midnightblue" stroke="midnightblue" points="817.234,-199.853 807.019,-202.666 816.758,-206.837 817.234,-199.853"/>
</g>
<!-- Node14&#45;&gt;Node12 -->
<g id="edge20" class="edge"><title>Node14&#45;&gt;Node12</title>
<path fill="none" stroke="midnightblue" d="M808.378,-215.833C822.598,-219.602 837.496,-223.551 851.31,-227.213"/>
<polygon fill="midnightblue" stroke="midnightblue" points="809.226,-212.437 798.663,-213.258 807.433,-219.204 809.226,-212.437"/>
</g>
<!-- Node15 -->
<g id="node15" class="node"><title>Node15</title>
<g id="a_node15"><a xlink:href="classscram_1_1core_1_1Preprocessor.xhtml#a5c224938dfba861f061525658bd7b156" target="_top" xlink:title="Propagation of complements. ">
<polygon fill="white" stroke="black" points="1023,-101.239 1023,-131.239 1155,-131.239 1155,-101.239 1023,-101.239"/>
<text text-anchor="start" x="1031" y="-119.239" font-family="Helvetica,sans-Serif" font-size="10.00">scram::core::Preprocessor</text>
<text text-anchor="middle" x="1089" y="-108.239" font-family="Helvetica,sans-Serif" font-size="10.00">::RunPhaseFour</text>
</a>
</g>
</g>
<!-- Node14&#45;&gt;Node15 -->
<g id="edge21" class="edge"><title>Node14&#45;&gt;Node15</title>
<path fill="none" stroke="midnightblue" d="M815.199,-180.892C877.314,-166.171 965.518,-145.267 1024.65,-131.253"/>
<polygon fill="midnightblue" stroke="midnightblue" points="814.385,-177.487 805.462,-183.199 815.999,-184.299 814.385,-177.487"/>
</g>
<!-- Node14&#45;&gt;Node16 -->
<g id="edge24" class="edge"><title>Node14&#45;&gt;Node16</title>
<path fill="none" stroke="midnightblue" d="M773.339,-177.716C792.803,-165.617 818.669,-150.682 843,-140.239 902.036,-114.901 972.64,-94.8774 1022.86,-82.2598"/>
<polygon fill="midnightblue" stroke="midnightblue" points="771.47,-174.757 764.875,-183.049 775.201,-180.679 771.47,-174.757"/>
</g>
<!-- Node15&#45;&gt;Node8 -->
<g id="edge22" class="edge"><title>Node15&#45;&gt;Node8</title>
<path fill="none" stroke="midnightblue" d="M1165.31,-116.239C1177.64,-116.239 1190.46,-116.239 1202.95,-116.239"/>
<polygon fill="midnightblue" stroke="midnightblue" points="1165.1,-112.739 1155.1,-116.239 1165.1,-119.739 1165.1,-112.739"/>
</g>
<!-- Node15&#45;&gt;Node9 -->
<g id="edge23" class="edge"><title>Node15&#45;&gt;Node9</title>
<path fill="none" stroke="midnightblue" d="M1144.35,-135.253C1152.11,-138.585 1159.87,-142.271 1167,-146.239 1205.89,-167.885 1246.34,-200.92 1268.47,-220.065"/>
<polygon fill="midnightblue" stroke="midnightblue" points="1145.5,-131.943 1134.92,-131.367 1142.83,-138.414 1145.5,-131.943"/>
</g>
<!-- Node16&#45;&gt;Node8 -->
<g id="edge25" class="edge"><title>Node16&#45;&gt;Node8</title>
<path fill="none" stroke="midnightblue" d="M1159.73,-84.716C1181.28,-90.1167 1204.81,-96.0147 1225.63,-101.233"/>
<polygon fill="midnightblue" stroke="midnightblue" points="1160.54,-81.3101 1149.99,-82.2738 1158.83,-88.1001 1160.54,-81.3101"/>
</g>
<!-- Node16&#45;&gt;Node9 -->
<g id="edge26" class="edge"><title>Node16&#45;&gt;Node9</title>
<path fill="none" stroke="midnightblue" d="M1160.47,-86.9978C1162.73,-88.3229 1164.91,-89.7349 1167,-91.2392 1189.22,-107.249 1185.95,-119.813 1203,-141.239 1225.85,-169.952 1254.48,-201.721 1271.31,-219.997"/>
<polygon fill="midnightblue" stroke="midnightblue" points="1161.95,-83.8197 1151.46,-82.3051 1158.71,-90.0283 1161.95,-83.8197"/>
</g>
<!-- Node18&#45;&gt;Node9 -->
<g id="edge33" class="edge"><title>Node18&#45;&gt;Node9</title>
<path fill="none" stroke="midnightblue" d="M609.325,-343.759C713.104,-392.861 1000.34,-508.221 1167,-372.239 1207.51,-339.185 1165.72,-296.9 1203,-260.239 1208.02,-255.307 1213.97,-251.344 1220.35,-248.159"/>
<polygon fill="midnightblue" stroke="midnightblue" points="610.682,-340.528 600.152,-339.363 607.658,-346.841 610.682,-340.528"/>
</g>
<!-- Node18&#45;&gt;Node14 -->
<g id="edge32" class="edge"><title>Node18&#45;&gt;Node14</title>
<path fill="none" stroke="midnightblue" d="M599.139,-302.95C633.359,-277.513 689.743,-235.599 719.746,-213.296"/>
<polygon fill="midnightblue" stroke="midnightblue" points="596.883,-300.266 590.946,-309.041 601.059,-305.884 596.883,-300.266"/>
</g>
<!-- Node20&#45;&gt;Node14 -->
<g id="edge36" class="edge"><title>Node20&#45;&gt;Node14</title>
<path fill="none" stroke="midnightblue" d="M474.218,-235.796C521.704,-234.621 584.211,-231.429 639,-223.239 654.9,-220.862 671.952,-217.117 687.433,-213.241"/>
<polygon fill="midnightblue" stroke="midnightblue" points="473.937,-232.301 464.017,-236.023 474.092,-239.299 473.937,-232.301"/>
</g>
<!-- Node21 -->
<g id="node21" class="node"><title>Node21</title>
<g id="a_node21"><a xlink:href="classscram_1_1core_1_1Preprocessor.xhtml#a79fe8e90f0e8fbc20a76610aaf09fe6e" target="_top" xlink:title="Detects and manipulates AND and OR gate distributivity. ">
<polygon fill="white" stroke="black" points="503.5,-183.239 503.5,-213.239 635.5,-213.239 635.5,-183.239 503.5,-183.239"/>
<text text-anchor="start" x="511.5" y="-201.239" font-family="Helvetica,sans-Serif" font-size="10.00">scram::core::Preprocessor</text>
<text text-anchor="middle" x="569.5" y="-190.239" font-family="Helvetica,sans-Serif" font-size="10.00">::DetectDistributivity</text>
</a>
</g>
</g>
<!-- Node20&#45;&gt;Node21 -->
<g id="edge37" class="edge"><title>Node20&#45;&gt;Node21</title>
<path fill="none" stroke="midnightblue" d="M473.812,-219.467C483.655,-217.26 493.68,-215.013 503.346,-212.846"/>
<polygon fill="midnightblue" stroke="midnightblue" points="473.04,-216.053 464.048,-221.656 474.572,-222.884 473.04,-216.053"/>
</g>
<!-- Node23 -->
<g id="node23" class="node"><title>Node23</title>
<g id="a_node23"><a xlink:href="classscram_1_1core_1_1Preprocessor.xhtml#aebc709ad2e097c24e837889a6a9e4696" target="_top" xlink:title="Propagates failures of common nodes to detect redundancy. ">
<polygon fill="white" stroke="black" points="503.5,-134.239 503.5,-164.239 635.5,-164.239 635.5,-134.239 503.5,-134.239"/>
<text text-anchor="start" x="511.5" y="-152.239" font-family="Helvetica,sans-Serif" font-size="10.00">scram::core::Preprocessor</text>
<text text-anchor="middle" x="569.5" y="-141.239" font-family="Helvetica,sans-Serif" font-size="10.00">::BooleanOptimization</text>
</a>
</g>
</g>
<!-- Node22&#45;&gt;Node23 -->
<g id="edge39" class="edge"><title>Node22&#45;&gt;Node23</title>
<path fill="none" stroke="midnightblue" d="M473.812,-170.467C483.655,-168.26 493.68,-166.013 503.346,-163.846"/>
<polygon fill="midnightblue" stroke="midnightblue" points="473.04,-167.053 464.048,-172.656 474.572,-173.884 473.04,-167.053"/>
</g>
<!-- Node23&#45;&gt;Node14 -->
<g id="edge40" class="edge"><title>Node23&#45;&gt;Node14</title>
<path fill="none" stroke="midnightblue" d="M632.399,-167.133C650.63,-172.404 670.386,-178.115 687.934,-183.188"/>
<polygon fill="midnightblue" stroke="midnightblue" points="633.317,-163.756 622.739,-164.341 631.373,-170.48 633.317,-163.756"/>
</g>
</g>
</svg>
