<?xml version="1.0" encoding="UTF-8" standalone="no"?>
<!DOCTYPE svg PUBLIC "-//W3C//DTD SVG 1.1//EN"
 "http://www.w3.org/Graphics/SVG/1.1/DTD/svg11.dtd">
<!-- Generated by graphviz version 2.38.0 (20140413.2041)
 -->
<!-- Title: scram::core::operator&lt;&lt; Pages: 1 -->
<svg width="438pt" height="134pt"
 viewBox="0.00 0.00 438.00 133.50" xmlns="http://www.w3.org/2000/svg" xmlns:xlink="http://www.w3.org/1999/xlink">
<g id="graph0" class="graph" transform="scale(1 1) rotate(0) translate(4 129.5)">
<title>scram::core::operator&lt;&lt;</title>
<polygon fill="white" stroke="none" points="-4,4 -4,-129.5 434,-129.5 434,4 -4,4"/>
<!-- Node1 -->
<g id="node1" class="node"><title>Node1</title>
<polygon fill="#bfbfbf" stroke="black" points="0,-38.5 0,-57.5 122,-57.5 122,-38.5 0,-38.5"/>
<text text-anchor="middle" x="61" y="-45.5" font-family="Helvetica,sans-Serif" font-size="10.00">scram::core::operator&lt;&lt;</text>
</g>
<!-- Node2 -->
<g id="node2" class="node"><title>Node2</title>
<g id="a_node2"><a xlink:href="classscram_1_1core_1_1Pdag.xhtml#a82135e4d5967e95a18ceee1af63792c0" target="_top" xlink:title="scram::core::Pdag::\lconstant">
<polygon fill="white" stroke="black" points="167.5,-95 167.5,-125 270.5,-125 270.5,-95 167.5,-95"/>
<text text-anchor="start" x="175.5" y="-113" font-family="Helvetica,sans-Serif" font-size="10.00">scram::core::Pdag::</text>
<text text-anchor="middle" x="219" y="-102" font-family="Helvetica,sans-Serif" font-size="10.00">constant</text>
</a>
</g>
</g>
<!-- Node1&#45;&gt;Node2 -->
<g id="edge1" class="edge"><title>Node1&#45;&gt;Node2</title>
<path fill="none" stroke="midnightblue" d="M86.0331,-57.5516C108.434,-66.4545 142.482,-79.9866 170.383,-91.0754"/>
<polygon fill="midnightblue" stroke="midnightblue" points="169.381,-94.4433 179.967,-94.8842 171.966,-87.9383 169.381,-94.4433"/>
</g>
<!-- Node3 -->
<g id="node3" class="node"><title>Node3</title>
<g id="a_node3"><a xlink:href="pdag_8cc.xhtml#a3655e18b0516364663797b84c544bd8b" target="_top" xlink:title="Prints PDAG nodes in the Aralia format. ">
<polygon fill="white" stroke="black" points="158,-38.5 158,-57.5 280,-57.5 280,-38.5 158,-38.5"/>
<text text-anchor="middle" x="219" y="-45.5" font-family="Helvetica,sans-Serif" font-size="10.00">scram::core::operator&lt;&lt;</text>
</a>
</g>
</g>
<!-- Node1&#45;&gt;Node3 -->
<g id="edge2" class="edge"><title>Node1&#45;&gt;Node3</title>
<path fill="none" stroke="midnightblue" d="M122.314,-48C130.604,-48 139.175,-48 147.626,-48"/>
<polygon fill="midnightblue" stroke="midnightblue" points="147.847,-51.5001 157.847,-48 147.847,-44.5001 147.847,-51.5001"/>
</g>
<!-- Node6 -->
<g id="node6" class="node"><title>Node6</title>
<g id="a_node6"><a xlink:href="classscram_1_1core_1_1Pdag.xhtml#ae9407efbb00e5f28aecb40db2ab7925b" target="_top" xlink:title="scram::core::Pdag::root">
<polygon fill="white" stroke="black" points="159.5,-0.5 159.5,-19.5 278.5,-19.5 278.5,-0.5 159.5,-0.5"/>
<text text-anchor="middle" x="219" y="-7.5" font-family="Helvetica,sans-Serif" font-size="10.00">scram::core::Pdag::root</text>
</a>
</g>
</g>
<!-- Node1&#45;&gt;Node6 -->
<g id="edge6" class="edge"><title>Node1&#45;&gt;Node6</title>
<path fill="none" stroke="midnightblue" d="M101.365,-38.411C121.951,-33.3965 147.34,-27.2119 169.169,-21.8947"/>
<polygon fill="midnightblue" stroke="midnightblue" points="170.03,-25.2874 178.918,-19.5201 168.373,-18.4863 170.03,-25.2874"/>
</g>
<!-- Node3&#45;&gt;Node3 -->
<g id="edge3" class="edge"><title>Node3&#45;&gt;Node3</title>
<path fill="none" stroke="midnightblue" d="M195.264,-57.7571C183.717,-66.5653 191.629,-76 219,-76 236.962,-76 246.544,-71.9368 247.746,-66.6539"/>
<polygon fill="midnightblue" stroke="midnightblue" points="250.692,-64.7532 242.736,-57.7571 244.593,-68.1879 250.692,-64.7532"/>
</g>
<!-- Node4 -->
<g id="node4" class="node"><title>Node4</title>
<g id="a_node4"><a xlink:href="classscram_1_1core_1_1Node.xhtml#a62121e217b0da73112af7e07275f2c15" target="_top" xlink:title="scram::core::Node::\lindex">
<polygon fill="white" stroke="black" points="321,-58 321,-88 425,-88 425,-58 321,-58"/>
<text text-anchor="start" x="329" y="-76" font-family="Helvetica,sans-Serif" font-size="10.00">scram::core::Node::</text>
<text text-anchor="middle" x="373" y="-65" font-family="Helvetica,sans-Serif" font-size="10.00">index</text>
</a>
</g>
</g>
<!-- Node3&#45;&gt;Node4 -->
<g id="edge4" class="edge"><title>Node3&#45;&gt;Node4</title>
<path fill="none" stroke="midnightblue" d="M277.898,-57.5227C288.579,-59.2795 299.767,-61.1196 310.549,-62.8929"/>
<polygon fill="midnightblue" stroke="midnightblue" points="310.296,-66.3983 320.732,-64.5677 311.432,-59.4911 310.296,-66.3983"/>
</g>
<!-- Node5 -->
<g id="node5" class="node"><title>Node5</title>
<g id="a_node5"><a xlink:href="classscram_1_1core_1_1Constant.xhtml#a514c31278abe2f912cf7b74beb0888e3" target="_top" xlink:title="scram::core::Constant\l::value">
<polygon fill="white" stroke="black" points="316,-9 316,-39 430,-39 430,-9 316,-9"/>
<text text-anchor="start" x="324" y="-27" font-family="Helvetica,sans-Serif" font-size="10.00">scram::core::Constant</text>
<text text-anchor="middle" x="373" y="-16" font-family="Helvetica,sans-Serif" font-size="10.00">::value</text>
</a>
</g>
</g>
<!-- Node3&#45;&gt;Node5 -->
<g id="edge5" class="edge"><title>Node3&#45;&gt;Node5</title>
<path fill="none" stroke="midnightblue" d="M280.074,-38.5146C288.544,-37.1773 297.289,-35.7964 305.864,-34.4425"/>
<polygon fill="midnightblue" stroke="midnightblue" points="306.494,-37.8865 315.826,-32.8696 305.402,-30.9721 306.494,-37.8865"/>
</g>
</g>
</svg>
