<?xml version="1.0" encoding="UTF-8" standalone="no"?>
<!DOCTYPE svg PUBLIC "-//W3C//DTD SVG 1.1//EN"
 "http://www.w3.org/Graphics/SVG/1.1/DTD/svg11.dtd">
<!-- Generated by graphviz version 2.38.0 (20140413.2041)
 -->
<!-- Title: scram::core::Clear&lt; Pdag::kCount &gt; Pages: 1 -->
<svg width="283pt" height="52pt"
 viewBox="0.00 0.00 283.00 51.50" xmlns="http://www.w3.org/2000/svg" xmlns:xlink="http://www.w3.org/1999/xlink">
<g id="graph0" class="graph" transform="scale(1 1) rotate(0) translate(4 47.5)">
<title>scram::core::Clear&lt; Pdag::kCount &gt;</title>
<polygon fill="white" stroke="none" points="-4,4 -4,-47.5 279,-47.5 279,4 -4,4"/>
<!-- Node1 -->
<g id="node1" class="node"><title>Node1</title>
<polygon fill="#bfbfbf" stroke="black" points="0,-0.5 0,-30.5 98,-30.5 98,-0.5 0,-0.5"/>
<text text-anchor="start" x="8" y="-18.5" font-family="Helvetica,sans-Serif" font-size="10.00">scram::core::Clear</text>
<text text-anchor="middle" x="49" y="-7.5" font-family="Helvetica,sans-Serif" font-size="10.00">&lt; Pdag::kCount &gt;</text>
</g>
<!-- Node2 -->
<g id="node2" class="node"><title>Node2</title>
<g id="a_node2"><a xlink:href="pdag_8h.xhtml#a48743e35654aca714f994998f2979d58" target="_top" xlink:title="Traverses and visits gates and nodes in the graph. ">
<polygon fill="white" stroke="black" points="134,-6 134,-25 275,-25 275,-6 134,-6"/>
<text text-anchor="middle" x="204.5" y="-13" font-family="Helvetica,sans-Serif" font-size="10.00">scram::core::TraverseNodes</text>
</a>
</g>
</g>
<!-- Node1&#45;&gt;Node2 -->
<g id="edge1" class="edge"><title>Node1&#45;&gt;Node2</title>
<path fill="none" stroke="midnightblue" d="M98.1472,-15.5C106.299,-15.5 114.954,-15.5 123.661,-15.5"/>
<polygon fill="midnightblue" stroke="midnightblue" points="123.881,-19.0001 133.881,-15.5 123.881,-12.0001 123.881,-19.0001"/>
</g>
<!-- Node2&#45;&gt;Node2 -->
<g id="edge2" class="edge"><title>Node2&#45;&gt;Node2</title>
<path fill="none" stroke="midnightblue" d="M180.764,-25.2571C169.217,-34.0653 177.129,-43.5 204.5,-43.5 222.462,-43.5 232.044,-39.4368 233.246,-34.1539"/>
<polygon fill="midnightblue" stroke="midnightblue" points="236.192,-32.2532 228.236,-25.2571 230.093,-35.6879 236.192,-32.2532"/>
</g>
</g>
</svg>
