<?xml version="1.0" encoding="UTF-8" standalone="no"?>
<!DOCTYPE svg PUBLIC "-//W3C//DTD SVG 1.1//EN"
 "http://www.w3.org/Graphics/SVG/1.1/DTD/svg11.dtd">
<!-- Generated by graphviz version 2.38.0 (20140413.2041)
 -->
<!-- Title: pdag.cc Pages: 1 -->
<!--zoomable 285 -->
<svg id="main" version="1.1" xmlns="http://www.w3.org/2000/svg" xmlns:xlink="http://www.w3.org/1999/xlink" xml:space="preserve" onload="init(evt)">
<style type="text/css"><![CDATA[
.edge:hover path { stroke: red; }
.edge:hover polygon { stroke: red; fill: red; }
]]></style>
<script type="text/javascript"><![CDATA[
var edges = document.getElementsByTagName('g');
if (edges && edges.length) {
  for (var i=0;i<edges.length;i++) {
    if (edges[i].id.substr(0,4)=='edge') {
      edges[i].setAttribute('class','edge');
    }
  }
}
]]></script>
        <defs>
                <circle id="rim" cx="0" cy="0" r="7"/>
                <circle id="rim2" cx="0" cy="0" r="3.5"/>
                <g id="zoomPlus">
                        <use xlink:href="#rim" fill="#404040">
                                <set attributeName="fill" to="#808080" begin="zoomplus.mouseover" end="zoomplus.mouseout"/>
                        </use>
                        <path d="M-4,0h8M0,-4v8" fill="none" stroke="white" stroke-width="1.5" pointer-events="none"/>
                </g>
                <g id="zoomMin">
                        <use xlink:href="#rim" fill="#404040">
                                <set attributeName="fill" to="#808080" begin="zoomminus.mouseover" end="zoomminus.mouseout"/>
                        </use>
                        <path d="M-4,0h8" fill="none" stroke="white" stroke-width="1.5" pointer-events="none"/>
                </g>
                <g id="dirArrow">
                        <path fill="none" stroke="white" stroke-width="1.5" d="M0,-3.0v7 M-2.5,-0.5L0,-3.0L2.5,-0.5"/>
                </g>
               <g id="resetDef">
                       <use xlink:href="#rim2" fill="#404040">
                               <set attributeName="fill" to="#808080" begin="reset.mouseover" end="reset.mouseout"/>
                       </use>
               </g>
        </defs>

<script type="text/javascript">
var viewWidth = 1735;
var viewHeight = 285;
var sectionId = 'dynsection-0';
</script>
<script xlink:href="svgpan.js"/>
<svg id="graph" class="graph">
<g id="viewport">
<title>pdag.cc</title>
<polygon fill="white" stroke="none" points="-4,4 -4,-281 1731,-281 1731,4 -4,4"/>
<!-- Node1 -->
<g id="node1" class="node"><title>Node1</title>
<polygon fill="#bfbfbf" stroke="black" points="1045.5,-257.5 1045.5,-276.5 1096.5,-276.5 1096.5,-257.5 1045.5,-257.5"/>
<text text-anchor="middle" x="1071" y="-264.5" font-family="Helvetica,sans-Serif" font-size="10.00">pdag.cc</text>
</g>
<!-- Node2 -->
<g id="node2" class="node"><title>Node2</title>
<g id="a_node2"><a xlink:href="pdag_8h.xhtml" target="_top" xlink:title="Classes and facilities to represent fault trees as PDAGs with event and gate indices instead of ID na...">
<polygon fill="white" stroke="black" points="640,-134.5 640,-153.5 686,-153.5 686,-134.5 640,-134.5"/>
<text text-anchor="middle" x="663" y="-141.5" font-family="Helvetica,sans-Serif" font-size="10.00">pdag.h</text>
</a>
</g>
</g>
<!-- Node1&#45;&gt;Node2 -->
<g id="edge1" class="edge"><title>Node1&#45;&gt;Node2</title>
<path fill="none" stroke="midnightblue" d="M1045.21,-261.905C1004.97,-255.206 924.989,-240.658 859,-221 797.995,-202.826 729.137,-174.139 691.444,-157.7"/>
<polygon fill="midnightblue" stroke="midnightblue" points="692.677,-154.418 682.114,-153.602 689.863,-160.828 692.677,-154.418"/>
</g>
<!-- Node20 -->
<g id="node20" class="node"><title>Node20</title>
<polygon fill="white" stroke="#bfbfbf" points="868,-196 868,-215 922,-215 922,-196 868,-196"/>
<text text-anchor="middle" x="895" y="-203" font-family="Helvetica,sans-Serif" font-size="10.00">iostream</text>
</g>
<!-- Node1&#45;&gt;Node20 -->
<g id="edge24" class="edge"><title>Node1&#45;&gt;Node20</title>
<path fill="none" stroke="midnightblue" d="M1045.32,-257.595C1018.13,-248.658 973.969,-234.041 936,-221 933.563,-220.163 931.048,-219.292 928.517,-218.41"/>
<polygon fill="midnightblue" stroke="midnightblue" points="929.417,-215.016 918.823,-215.007 927.099,-221.621 929.417,-215.016"/>
</g>
<!-- Node21 -->
<g id="node21" class="node"><title>Node21</title>
<polygon fill="white" stroke="#bfbfbf" points="1007.5,-6 1007.5,-25 1048.5,-25 1048.5,-6 1007.5,-6"/>
<text text-anchor="middle" x="1028" y="-13" font-family="Helvetica,sans-Serif" font-size="10.00">string</text>
</g>
<!-- Node1&#45;&gt;Node21 -->
<g id="edge25" class="edge"><title>Node1&#45;&gt;Node21</title>
<path fill="none" stroke="midnightblue" d="M1045.4,-262.618C1021.08,-257.897 985.805,-246.781 969,-221 954.132,-198.19 922.186,-180.052 974,-67 980.648,-52.4945 993.573,-40.1685 1005.11,-31.3258"/>
<polygon fill="midnightblue" stroke="midnightblue" points="1007.46,-33.9453 1013.54,-25.2643 1003.38,-28.2629 1007.46,-33.9453"/>
</g>
<!-- Node22 -->
<g id="node22" class="node"><title>Node22</title>
<polygon fill="white" stroke="#bfbfbf" points="978,-196 978,-215 1056,-215 1056,-196 978,-196"/>
<text text-anchor="middle" x="1017" y="-203" font-family="Helvetica,sans-Serif" font-size="10.00">unordered_set</text>
</g>
<!-- Node1&#45;&gt;Node22 -->
<g id="edge26" class="edge"><title>Node1&#45;&gt;Node22</title>
<path fill="none" stroke="midnightblue" d="M1063.26,-257.475C1055,-248.373 1041.72,-233.741 1031.51,-222.483"/>
<polygon fill="midnightblue" stroke="midnightblue" points="1034.03,-220.062 1024.72,-215.009 1028.85,-224.766 1034.03,-220.062"/>
</g>
<!-- Node23 -->
<g id="node23" class="node"><title>Node23</title>
<polygon fill="white" stroke="#bfbfbf" points="1074.5,-190.5 1074.5,-220.5 1175.5,-220.5 1175.5,-190.5 1074.5,-190.5"/>
<text text-anchor="start" x="1082.5" y="-208.5" font-family="Helvetica,sans-Serif" font-size="10.00">boost/math/special</text>
<text text-anchor="middle" x="1125" y="-197.5" font-family="Helvetica,sans-Serif" font-size="10.00">_functions/sign.hpp</text>
</g>
<!-- Node1&#45;&gt;Node23 -->
<g id="edge27" class="edge"><title>Node1&#45;&gt;Node23</title>
<path fill="none" stroke="midnightblue" d="M1078.74,-257.475C1085.71,-249.793 1096.26,-238.172 1105.52,-227.964"/>
<polygon fill="midnightblue" stroke="midnightblue" points="1108.14,-230.28 1112.27,-220.523 1102.96,-225.576 1108.14,-230.28"/>
</g>
<!-- Node24 -->
<g id="node24" class="node"><title>Node24</title>
<polygon fill="white" stroke="#bfbfbf" points="1193.5,-196 1193.5,-215 1322.5,-215 1322.5,-196 1193.5,-196"/>
<text text-anchor="middle" x="1258" y="-203" font-family="Helvetica,sans-Serif" font-size="10.00">boost/range/algorithm.hpp</text>
</g>
<!-- Node1&#45;&gt;Node24 -->
<g id="edge28" class="edge"><title>Node1&#45;&gt;Node24</title>
<path fill="none" stroke="midnightblue" d="M1096.61,-257.852C1128.89,-247.582 1184.58,-229.862 1221.35,-218.16"/>
<polygon fill="midnightblue" stroke="midnightblue" points="1222.72,-221.398 1231.19,-215.031 1220.6,-214.727 1222.72,-221.398"/>
</g>
<!-- Node25 -->
<g id="node25" class="node"><title>Node25</title>
<g id="a_node25"><a xlink:href="event_8h.xhtml" target="_top" xlink:title="Contains event classes for fault trees. ">
<polygon fill="white" stroke="black" points="1340.5,-196 1340.5,-215 1389.5,-215 1389.5,-196 1340.5,-196"/>
<text text-anchor="middle" x="1365" y="-203" font-family="Helvetica,sans-Serif" font-size="10.00">event.h</text>
</a>
</g>
</g>
<!-- Node1&#45;&gt;Node25 -->
<g id="edge29" class="edge"><title>Node1&#45;&gt;Node25</title>
<path fill="none" stroke="midnightblue" d="M1096.54,-263.564C1143.66,-258.638 1247.09,-245.789 1331,-221 1333.15,-220.365 1335.35,-219.633 1337.54,-218.843"/>
<polygon fill="midnightblue" stroke="midnightblue" points="1338.93,-222.057 1346.93,-215.122 1336.35,-215.549 1338.93,-222.057"/>
</g>
<!-- Node33 -->
<g id="node33" class="node"><title>Node33</title>
<g id="a_node33"><a xlink:href="logger_8h.xhtml" target="_top" xlink:title="Logging capability for various purposes, such as warnings and debugging. ">
<polygon fill="white" stroke="black" points="1573.5,-134.5 1573.5,-153.5 1624.5,-153.5 1624.5,-134.5 1573.5,-134.5"/>
<text text-anchor="middle" x="1599" y="-141.5" font-family="Helvetica,sans-Serif" font-size="10.00">logger.h</text>
</a>
</g>
</g>
<!-- Node1&#45;&gt;Node33 -->
<g id="edge51" class="edge"><title>Node1&#45;&gt;Node33</title>
<path fill="none" stroke="midnightblue" d="M1096.82,-264.425C1152.56,-260.596 1288.04,-248.976 1398,-221 1461.72,-204.788 1532.98,-174.875 1571.19,-157.811"/>
<polygon fill="midnightblue" stroke="midnightblue" points="1572.93,-160.864 1580.61,-153.564 1570.05,-154.483 1572.93,-160.864"/>
</g>
<!-- Node3 -->
<g id="node3" class="node"><title>Node3</title>
<polygon fill="white" stroke="#bfbfbf" points="1525,-6 1525,-25 1571,-25 1571,-6 1525,-6"/>
<text text-anchor="middle" x="1548" y="-13" font-family="Helvetica,sans-Serif" font-size="10.00">cstdint</text>
</g>
<!-- Node2&#45;&gt;Node3 -->
<g id="edge2" class="edge"><title>Node2&#45;&gt;Node3</title>
<path fill="none" stroke="midnightblue" d="M686.26,-142.782C787.761,-141.62 1192.19,-134.727 1313,-98 1339.48,-89.9508 1341.3,-77.2615 1367,-67 1429.87,-41.8982 1450.88,-52.6995 1515,-31 1516.87,-30.3681 1518.77,-29.6722 1520.68,-28.9376"/>
<polygon fill="midnightblue" stroke="midnightblue" points="1522.16,-32.1128 1530.07,-25.0592 1519.49,-25.6433 1522.16,-32.1128"/>
</g>
<!-- Node4 -->
<g id="node4" class="node"><title>Node4</title>
<polygon fill="white" stroke="#bfbfbf" points="640.5,-73 640.5,-92 685.5,-92 685.5,-73 640.5,-73"/>
<text text-anchor="middle" x="663" y="-80" font-family="Helvetica,sans-Serif" font-size="10.00">cstdlib</text>
</g>
<!-- Node2&#45;&gt;Node4 -->
<g id="edge3" class="edge"><title>Node2&#45;&gt;Node4</title>
<path fill="none" stroke="midnightblue" d="M663,-134.475C663,-126.08 663,-112.981 663,-102.163"/>
<polygon fill="midnightblue" stroke="midnightblue" points="666.5,-102.009 663,-92.0091 659.5,-102.009 666.5,-102.009"/>
</g>
<!-- Node5 -->
<g id="node5" class="node"><title>Node5</title>
<polygon fill="white" stroke="#bfbfbf" points="480,-6 480,-25 536,-25 536,-6 480,-6"/>
<text text-anchor="middle" x="508" y="-13" font-family="Helvetica,sans-Serif" font-size="10.00">algorithm</text>
</g>
<!-- Node2&#45;&gt;Node5 -->
<g id="edge4" class="edge"><title>Node2&#45;&gt;Node5</title>
<path fill="none" stroke="midnightblue" d="M639.972,-142.383C608.839,-140.238 553.798,-131.582 524,-98 508.783,-80.8511 506.296,-53.5651 506.596,-35.3495"/>
<polygon fill="midnightblue" stroke="midnightblue" points="510.093,-35.5014 507.055,-25.3516 503.1,-35.1809 510.093,-35.5014"/>
</g>
<!-- Node6 -->
<g id="node6" class="node"><title>Node6</title>
<polygon fill="white" stroke="#bfbfbf" points="742.5,-73 742.5,-92 787.5,-92 787.5,-73 742.5,-73"/>
<text text-anchor="middle" x="765" y="-80" font-family="Helvetica,sans-Serif" font-size="10.00">iosfwd</text>
</g>
<!-- Node2&#45;&gt;Node6 -->
<g id="edge5" class="edge"><title>Node2&#45;&gt;Node6</title>
<path fill="none" stroke="midnightblue" d="M677.614,-134.475C694.353,-124.711 722.004,-108.581 741.719,-97.0808"/>
<polygon fill="midnightblue" stroke="midnightblue" points="743.539,-100.071 750.413,-92.0091 740.012,-94.0246 743.539,-100.071"/>
</g>
<!-- Node7 -->
<g id="node7" class="node"><title>Node7</title>
<polygon fill="white" stroke="#bfbfbf" points="983,-73 983,-92 1035,-92 1035,-73 983,-73"/>
<text text-anchor="middle" x="1009" y="-80" font-family="Helvetica,sans-Serif" font-size="10.00">memory</text>
</g>
<!-- Node2&#45;&gt;Node7 -->
<g id="edge6" class="edge"><title>Node2&#45;&gt;Node7</title>
<path fill="none" stroke="midnightblue" d="M686.239,-139.004C745.305,-128.846 901.533,-101.981 972.728,-89.7376"/>
<polygon fill="midnightblue" stroke="midnightblue" points="973.331,-93.1853 982.593,-88.0411 972.144,-86.2866 973.331,-93.1853"/>
</g>
<!-- Node8 -->
<g id="node8" class="node"><title>Node8</title>
<polygon fill="white" stroke="#bfbfbf" points="805.5,-73 805.5,-92 888.5,-92 888.5,-73 805.5,-73"/>
<text text-anchor="middle" x="847" y="-80" font-family="Helvetica,sans-Serif" font-size="10.00">unordered_map</text>
</g>
<!-- Node2&#45;&gt;Node8 -->
<g id="edge7" class="edge"><title>Node2&#45;&gt;Node8</title>
<path fill="none" stroke="midnightblue" d="M686.304,-135.464C717.683,-125.317 773.834,-107.16 810.754,-95.2209"/>
<polygon fill="midnightblue" stroke="midnightblue" points="812.182,-98.4374 820.62,-92.0303 810.029,-91.777 812.182,-98.4374"/>
</g>
<!-- Node9 -->
<g id="node9" class="node"><title>Node9</title>
<polygon fill="white" stroke="#bfbfbf" points="100,-6 100,-25 140,-25 140,-6 100,-6"/>
<text text-anchor="middle" x="120" y="-13" font-family="Helvetica,sans-Serif" font-size="10.00">utility</text>
</g>
<!-- Node2&#45;&gt;Node9 -->
<g id="edge8" class="edge"><title>Node2&#45;&gt;Node9</title>
<path fill="none" stroke="midnightblue" d="M639.754,-142.585C543.231,-140.653 177.307,-131.174 139,-98 121.181,-82.5685 118.317,-53.9611 118.609,-35.0773"/>
<polygon fill="midnightblue" stroke="midnightblue" points="122.108,-35.169 119.074,-25.0178 115.116,-34.8452 122.108,-35.169"/>
</g>
<!-- Node10 -->
<g id="node10" class="node"><title>Node10</title>
<polygon fill="white" stroke="#bfbfbf" points="793,-6 793,-25 837,-25 837,-6 793,-6"/>
<text text-anchor="middle" x="815" y="-13" font-family="Helvetica,sans-Serif" font-size="10.00">vector</text>
</g>
<!-- Node2&#45;&gt;Node10 -->
<g id="edge9" class="edge"><title>Node2&#45;&gt;Node10</title>
<path fill="none" stroke="midnightblue" d="M669.684,-134.301C681.422,-119.381 706.974,-88.4467 733,-67 750.365,-52.6901 772.136,-39.4688 788.88,-30.1465"/>
<polygon fill="midnightblue" stroke="midnightblue" points="790.98,-32.9879 798.086,-25.1295 787.631,-26.8413 790.98,-32.9879"/>
</g>
<!-- Node11 -->
<g id="node11" class="node"><title>Node11</title>
<polygon fill="white" stroke="#bfbfbf" points="148,-67.5 148,-97.5 248,-97.5 248,-67.5 148,-67.5"/>
<text text-anchor="start" x="156" y="-85.5" font-family="Helvetica,sans-Serif" font-size="10.00">boost/container/flat</text>
<text text-anchor="middle" x="198" y="-74.5" font-family="Helvetica,sans-Serif" font-size="10.00">_set.hpp</text>
</g>
<!-- Node2&#45;&gt;Node11 -->
<g id="edge10" class="edge"><title>Node2&#45;&gt;Node11</title>
<path fill="none" stroke="midnightblue" d="M639.957,-141.505C579.12,-137.336 409.06,-124.238 258.036,-98.0342"/>
<polygon fill="midnightblue" stroke="midnightblue" points="258.572,-94.5748 248.117,-96.2892 257.359,-101.469 258.572,-94.5748"/>
</g>
<!-- Node12 -->
<g id="node12" class="node"><title>Node12</title>
<polygon fill="white" stroke="#bfbfbf" points="1399.5,-73 1399.5,-92 1516.5,-92 1516.5,-73 1399.5,-73"/>
<text text-anchor="middle" x="1458" y="-80" font-family="Helvetica,sans-Serif" font-size="10.00">boost/noncopyable.hpp</text>
</g>
<!-- Node2&#45;&gt;Node12 -->
<g id="edge11" class="edge"><title>Node2&#45;&gt;Node12</title>
<path fill="none" stroke="midnightblue" d="M686.072,-142.02C772.897,-138.22 1088.21,-123.389 1347,-98 1360.7,-96.6563 1375.31,-94.9465 1389.28,-93.176"/>
<polygon fill="midnightblue" stroke="midnightblue" points="1389.85,-96.6315 1399.32,-91.8804 1388.96,-89.6891 1389.85,-96.6315"/>
</g>
<!-- Node13 -->
<g id="node13" class="node"><title>Node13</title>
<polygon fill="white" stroke="#bfbfbf" points="266.5,-67.5 266.5,-97.5 369.5,-97.5 369.5,-67.5 266.5,-67.5"/>
<text text-anchor="start" x="274.5" y="-85.5" font-family="Helvetica,sans-Serif" font-size="10.00">boost/range/adaptor</text>
<text text-anchor="middle" x="318" y="-74.5" font-family="Helvetica,sans-Serif" font-size="10.00">/transformed.hpp</text>
</g>
<!-- Node2&#45;&gt;Node13 -->
<g id="edge12" class="edge"><title>Node2&#45;&gt;Node13</title>
<path fill="none" stroke="midnightblue" d="M639.985,-140.007C592.897,-133.747 481.997,-118.307 379.539,-98.2202"/>
<polygon fill="midnightblue" stroke="midnightblue" points="380.142,-94.7717 369.652,-96.262 378.781,-101.638 380.142,-94.7717"/>
</g>
<!-- Node14 -->
<g id="node14" class="node"><title>Node14</title>
<g id="a_node14"><a xlink:href="find__iterator_8h.xhtml" target="_top" xlink:title="Convenience iterator adaptor to wrap find calls and results. ">
<polygon fill="white" stroke="black" points="0,-73 0,-92 92,-92 92,-73 0,-73"/>
<text text-anchor="middle" x="46" y="-80" font-family="Helvetica,sans-Serif" font-size="10.00">ext/find_iterator.h</text>
</a>
</g>
</g>
<!-- Node2&#45;&gt;Node14 -->
<g id="edge13" class="edge"><title>Node2&#45;&gt;Node14</title>
<path fill="none" stroke="midnightblue" d="M639.765,-142.424C563.08,-140.245 311.24,-130.883 106,-98 99.8197,-97.0098 93.3363,-95.7167 87.0099,-94.3104"/>
<polygon fill="midnightblue" stroke="midnightblue" points="87.7975,-90.9002 77.2636,-92.0346 86.2058,-97.7169 87.7975,-90.9002"/>
</g>
<!-- Node15 -->
<g id="node15" class="node"><title>Node15</title>
<g id="a_node15"><a xlink:href="index__map_8h.xhtml" target="_top" xlink:title="Non&#45;zero based Index&#45;&gt;Value map adapter on sequential containers. ">
<polygon fill="white" stroke="black" points="533.5,-73 533.5,-92 622.5,-92 622.5,-73 533.5,-73"/>
<text text-anchor="middle" x="578" y="-80" font-family="Helvetica,sans-Serif" font-size="10.00">ext/index_map.h</text>
</a>
</g>
</g>
<!-- Node2&#45;&gt;Node15 -->
<g id="edge15" class="edge"><title>Node2&#45;&gt;Node15</title>
<path fill="none" stroke="midnightblue" d="M650.822,-134.475C637.188,-124.931 614.868,-109.307 598.526,-97.8683"/>
<polygon fill="midnightblue" stroke="midnightblue" points="600.355,-94.8764 590.156,-92.0091 596.341,-100.611 600.355,-94.8764"/>
</g>
<!-- Node16 -->
<g id="node16" class="node"><title>Node16</title>
<g id="a_node16"><a xlink:href="linear__map_8h.xhtml" target="_top" xlink:title="Implementation of a vector&#45;based map for a small number of entries. ">
<polygon fill="white" stroke="black" points="387.5,-73 387.5,-92 476.5,-92 476.5,-73 387.5,-73"/>
<text text-anchor="middle" x="432" y="-80" font-family="Helvetica,sans-Serif" font-size="10.00">ext/linear_map.h</text>
</a>
</g>
</g>
<!-- Node2&#45;&gt;Node16 -->
<g id="edge17" class="edge"><title>Node2&#45;&gt;Node16</title>
<path fill="none" stroke="midnightblue" d="M639.579,-136.967C601.029,-127.038 523.643,-107.105 475.019,-94.5807"/>
<polygon fill="midnightblue" stroke="midnightblue" points="475.661,-91.1319 465.104,-92.0269 473.915,-97.9107 475.661,-91.1319"/>
</g>
<!-- Node14&#45;&gt;Node9 -->
<g id="edge14" class="edge"><title>Node14&#45;&gt;Node9</title>
<path fill="none" stroke="midnightblue" d="M55.98,-72.7338C67.8522,-62.3055 87.8853,-44.7088 102.384,-31.9732"/>
<polygon fill="midnightblue" stroke="midnightblue" points="104.975,-34.3564 110.178,-25.1273 100.355,-29.0971 104.975,-34.3564"/>
</g>
<!-- Node15&#45;&gt;Node10 -->
<g id="edge16" class="edge"><title>Node15&#45;&gt;Node10</title>
<path fill="none" stroke="midnightblue" d="M609.472,-72.8685C654.68,-60.4697 737.55,-37.7417 783.031,-25.2677"/>
<polygon fill="midnightblue" stroke="midnightblue" points="784.226,-28.5695 792.944,-22.5492 782.374,-21.8188 784.226,-28.5695"/>
</g>
<!-- Node16&#45;&gt;Node5 -->
<g id="edge19" class="edge"><title>Node16&#45;&gt;Node5</title>
<path fill="none" stroke="midnightblue" d="M442.25,-72.7338C454.443,-62.3055 475.017,-44.7088 489.908,-31.9732"/>
<polygon fill="midnightblue" stroke="midnightblue" points="492.588,-34.2869 497.913,-25.1273 488.038,-28.9671 492.588,-34.2869"/>
</g>
<!-- Node16&#45;&gt;Node9 -->
<g id="edge23" class="edge"><title>Node16&#45;&gt;Node9</title>
<path fill="none" stroke="midnightblue" d="M401.535,-72.9258C393.878,-70.8795 385.66,-68.7758 378,-67 296.154,-48.0252 198.615,-30.2277 150.269,-21.7252"/>
<polygon fill="midnightblue" stroke="midnightblue" points="150.626,-18.2345 140.172,-19.959 149.42,-25.1298 150.626,-18.2345"/>
</g>
<!-- Node16&#45;&gt;Node10 -->
<g id="edge22" class="edge"><title>Node16&#45;&gt;Node10</title>
<path fill="none" stroke="midnightblue" d="M476.685,-73.9165C554.791,-60.6608 714.333,-33.5845 782.713,-21.9795"/>
<polygon fill="midnightblue" stroke="midnightblue" points="783.605,-25.3782 792.879,-20.2543 782.434,-18.4769 783.605,-25.3782"/>
</g>
<!-- Node17 -->
<g id="node17" class="node"><title>Node17</title>
<polygon fill="white" stroke="#bfbfbf" points="244.5,-6 244.5,-25 293.5,-25 293.5,-6 244.5,-6"/>
<text text-anchor="middle" x="269" y="-13" font-family="Helvetica,sans-Serif" font-size="10.00">cassert</text>
</g>
<!-- Node16&#45;&gt;Node17 -->
<g id="edge18" class="edge"><title>Node16&#45;&gt;Node17</title>
<path fill="none" stroke="midnightblue" d="M408.866,-72.8609C382.775,-63.0372 339.14,-46.3648 302,-31 300.591,-30.4169 299.15,-29.8134 297.698,-29.1986"/>
<polygon fill="midnightblue" stroke="midnightblue" points="298.703,-25.8206 288.134,-25.0757 295.932,-32.2487 298.703,-25.8206"/>
</g>
<!-- Node18 -->
<g id="node18" class="node"><title>Node18</title>
<polygon fill="white" stroke="#bfbfbf" points="311.5,-6 311.5,-25 384.5,-25 384.5,-6 311.5,-6"/>
<text text-anchor="middle" x="348" y="-13" font-family="Helvetica,sans-Serif" font-size="10.00">initializer_list</text>
</g>
<!-- Node16&#45;&gt;Node18 -->
<g id="edge20" class="edge"><title>Node16&#45;&gt;Node18</title>
<path fill="none" stroke="midnightblue" d="M420.671,-72.7338C406.943,-62.1106 383.601,-44.0485 367.08,-31.2642"/>
<polygon fill="midnightblue" stroke="midnightblue" points="369.2,-28.4791 359.149,-25.1273 364.916,-34.0152 369.2,-28.4791"/>
</g>
<!-- Node19 -->
<g id="node19" class="node"><title>Node19</title>
<polygon fill="white" stroke="#bfbfbf" points="402.5,-6 402.5,-25 461.5,-25 461.5,-6 402.5,-6"/>
<text text-anchor="middle" x="432" y="-13" font-family="Helvetica,sans-Serif" font-size="10.00">stdexcept</text>
</g>
<!-- Node16&#45;&gt;Node19 -->
<g id="edge21" class="edge"><title>Node16&#45;&gt;Node19</title>
<path fill="none" stroke="midnightblue" d="M432,-72.7338C432,-63.1826 432,-47.6183 432,-35.2829"/>
<polygon fill="midnightblue" stroke="midnightblue" points="435.5,-35.1273 432,-25.1273 428.5,-35.1273 435.5,-35.1273"/>
</g>
<!-- Node25&#45;&gt;Node3 -->
<g id="edge30" class="edge"><title>Node25&#45;&gt;Node3</title>
<path fill="none" stroke="midnightblue" d="M1380.71,-195.92C1417.01,-175.804 1505.16,-125.247 1525,-98 1538.56,-79.3774 1544.14,-53.0217 1546.42,-35.3743"/>
<polygon fill="midnightblue" stroke="midnightblue" points="1549.93,-35.5171 1547.5,-25.2037 1542.97,-34.7788 1549.93,-35.5171"/>
</g>
<!-- Node25&#45;&gt;Node7 -->
<g id="edge31" class="edge"><title>Node25&#45;&gt;Node7</title>
<path fill="none" stroke="midnightblue" d="M1347.3,-195.995C1342.14,-193.778 1336.42,-191.573 1331,-190 1235.42,-162.278 1202.22,-191.415 1110,-154 1077.35,-140.754 1044.89,-115.354 1025.9,-98.933"/>
<polygon fill="midnightblue" stroke="midnightblue" points="1027.98,-96.0996 1018.17,-92.0957 1023.34,-101.343 1027.98,-96.0996"/>
</g>
<!-- Node25&#45;&gt;Node10 -->
<g id="edge33" class="edge"><title>Node25&#45;&gt;Node10</title>
<path fill="none" stroke="midnightblue" d="M1347.32,-195.911C1342.16,-193.693 1336.44,-191.508 1331,-190 1218.58,-158.844 1181.91,-190.169 1071,-154 1022.59,-138.211 891.33,-61.8167 837.996,-30.221"/>
<polygon fill="midnightblue" stroke="midnightblue" points="839.652,-27.1339 829.267,-25.0372 836.078,-33.1526 839.652,-27.1339"/>
</g>
<!-- Node25&#45;&gt;Node12 -->
<g id="edge34" class="edge"><title>Node25&#45;&gt;Node12</title>
<path fill="none" stroke="midnightblue" d="M1371.86,-195.974C1379.88,-185.975 1393.52,-168.875 1405,-154 1418.97,-135.902 1434.67,-114.935 1445.33,-100.601"/>
<polygon fill="midnightblue" stroke="midnightblue" points="1448.39,-102.352 1451.54,-92.2362 1442.77,-98.1788 1448.39,-102.352"/>
</g>
<!-- Node25&#45;&gt;Node21 -->
<g id="edge32" class="edge"><title>Node25&#45;&gt;Node21</title>
<path fill="none" stroke="midnightblue" d="M1352.39,-195.726C1319.15,-172.802 1225.94,-109.926 1143,-67 1106.56,-48.1429 1095.37,-47.9319 1058,-31 1056.84,-30.4763 1055.67,-29.9358 1054.48,-29.3853"/>
<polygon fill="midnightblue" stroke="midnightblue" points="1055.92,-26.1944 1045.38,-25.0811 1052.92,-32.5218 1055.92,-26.1944"/>
</g>
<!-- Node26 -->
<g id="node26" class="node"><title>Node26</title>
<g id="a_node26"><a xlink:href="element_8h.xhtml" target="_top" xlink:title="Helper classes, structs, and properties common to all other classes. ">
<polygon fill="white" stroke="black" points="1245.5,-73 1245.5,-92 1304.5,-92 1304.5,-73 1245.5,-73"/>
<text text-anchor="middle" x="1275" y="-80" font-family="Helvetica,sans-Serif" font-size="10.00">element.h</text>
</a>
</g>
</g>
<!-- Node25&#45;&gt;Node26 -->
<g id="edge35" class="edge"><title>Node25&#45;&gt;Node26</title>
<path fill="none" stroke="midnightblue" d="M1355,-195.871C1344.3,-186.318 1327.22,-170.129 1315,-154 1302.3,-137.23 1290.79,-116.003 1283.41,-101.245"/>
<polygon fill="midnightblue" stroke="midnightblue" points="1286.53,-99.6509 1279,-92.195 1280.24,-102.718 1286.53,-99.6509"/>
</g>
<!-- Node30 -->
<g id="node30" class="node"><title>Node30</title>
<g id="a_node30"><a xlink:href="error_8h.xhtml" target="_top" xlink:title="Exceptions for SCRAM. ">
<polygon fill="white" stroke="black" points="1119,-134.5 1119,-153.5 1163,-153.5 1163,-134.5 1119,-134.5"/>
<text text-anchor="middle" x="1141" y="-141.5" font-family="Helvetica,sans-Serif" font-size="10.00">error.h</text>
</a>
</g>
</g>
<!-- Node25&#45;&gt;Node30 -->
<g id="edge42" class="edge"><title>Node25&#45;&gt;Node30</title>
<path fill="none" stroke="midnightblue" d="M1346.51,-195.94C1341.54,-193.825 1336.12,-191.685 1331,-190 1276.7,-172.134 1211.48,-158.278 1173.3,-150.903"/>
<polygon fill="midnightblue" stroke="midnightblue" points="1173.76,-147.427 1163.28,-148.996 1172.45,-154.303 1173.76,-147.427"/>
</g>
<!-- Node32 -->
<g id="node32" class="node"><title>Node32</title>
<g id="a_node32"><a xlink:href="expression_8h.xhtml" target="_top" xlink:title="Provides the base class for all expressions and units for expression values. ">
<polygon fill="white" stroke="black" points="1324,-134.5 1324,-153.5 1396,-153.5 1396,-134.5 1324,-134.5"/>
<text text-anchor="middle" x="1360" y="-141.5" font-family="Helvetica,sans-Serif" font-size="10.00">expression.h</text>
</a>
</g>
</g>
<!-- Node25&#45;&gt;Node32 -->
<g id="edge45" class="edge"><title>Node25&#45;&gt;Node32</title>
<path fill="none" stroke="midnightblue" d="M1364.28,-195.975C1363.58,-187.58 1362.48,-174.481 1361.57,-163.663"/>
<polygon fill="midnightblue" stroke="midnightblue" points="1365.04,-163.181 1360.72,-153.509 1358.06,-163.767 1365.04,-163.181"/>
</g>
<!-- Node26&#45;&gt;Node3 -->
<g id="edge36" class="edge"><title>Node26&#45;&gt;Node3</title>
<path fill="none" stroke="midnightblue" d="M1299.03,-72.9225C1305.47,-70.8072 1312.45,-68.6714 1319,-67 1404.82,-45.0884 1430.33,-56.9895 1515,-31 1516.93,-30.4078 1518.9,-29.7347 1520.86,-29.0104"/>
<polygon fill="midnightblue" stroke="midnightblue" points="1522.53,-32.1096 1530.48,-25.1011 1519.89,-25.625 1522.53,-32.1096"/>
</g>
<!-- Node26&#45;&gt;Node10 -->
<g id="edge38" class="edge"><title>Node26&#45;&gt;Node10</title>
<path fill="none" stroke="midnightblue" d="M1245.45,-75.9632C1229.87,-73.1239 1210.43,-69.704 1193,-67 1065.33,-47.1931 912.665,-28.2399 847.29,-20.3474"/>
<polygon fill="midnightblue" stroke="midnightblue" points="847.549,-16.8534 837.202,-19.1338 846.712,-23.8033 847.549,-16.8534"/>
</g>
<!-- Node26&#45;&gt;Node21 -->
<g id="edge37" class="edge"><title>Node26&#45;&gt;Node21</title>
<path fill="none" stroke="midnightblue" d="M1250.48,-72.8754C1244.17,-70.8077 1237.37,-68.7067 1231,-67 1155.14,-46.6771 1132.36,-56.2777 1058,-31 1056.38,-30.4496 1054.74,-29.8329 1053.09,-29.1727"/>
<polygon fill="midnightblue" stroke="midnightblue" points="1054.45,-25.9441 1043.89,-25.072 1051.6,-32.3383 1054.45,-25.9441"/>
</g>
<!-- Node27 -->
<g id="node27" class="node"><title>Node27</title>
<polygon fill="white" stroke="#bfbfbf" points="1349.5,-6 1349.5,-25 1506.5,-25 1506.5,-6 1349.5,-6"/>
<text text-anchor="middle" x="1428" y="-13" font-family="Helvetica,sans-Serif" font-size="10.00">boost/multi_index_container.hpp</text>
</g>
<!-- Node26&#45;&gt;Node27 -->
<g id="edge39" class="edge"><title>Node26&#45;&gt;Node27</title>
<path fill="none" stroke="midnightblue" d="M1295.32,-72.8685C1321.72,-61.6504 1368.03,-41.9766 1398.36,-29.0925"/>
<polygon fill="midnightblue" stroke="midnightblue" points="1399.76,-32.2987 1407.6,-25.1672 1397.03,-25.856 1399.76,-32.2987"/>
</g>
<!-- Node28 -->
<g id="node28" class="node"><title>Node28</title>
<polygon fill="white" stroke="#bfbfbf" points="1067,-0.5 1067,-30.5 1195,-30.5 1195,-0.5 1067,-0.5"/>
<text text-anchor="start" x="1075" y="-18.5" font-family="Helvetica,sans-Serif" font-size="10.00">boost/multi_index/hashed</text>
<text text-anchor="middle" x="1131" y="-7.5" font-family="Helvetica,sans-Serif" font-size="10.00">_index.hpp</text>
</g>
<!-- Node26&#45;&gt;Node28 -->
<g id="edge40" class="edge"><title>Node26&#45;&gt;Node28</title>
<path fill="none" stroke="midnightblue" d="M1255.88,-72.8685C1234.46,-63.1995 1199.12,-47.2486 1171.49,-34.778"/>
<polygon fill="midnightblue" stroke="midnightblue" points="1172.63,-31.4522 1162.08,-30.5281 1169.75,-37.8324 1172.63,-31.4522"/>
</g>
<!-- Node29 -->
<g id="node29" class="node"><title>Node29</title>
<polygon fill="white" stroke="#bfbfbf" points="1213,-0.5 1213,-30.5 1331,-30.5 1331,-0.5 1213,-0.5"/>
<text text-anchor="start" x="1221" y="-18.5" font-family="Helvetica,sans-Serif" font-size="10.00">boost/multi_index/mem</text>
<text text-anchor="middle" x="1272" y="-7.5" font-family="Helvetica,sans-Serif" font-size="10.00">_fun.hpp</text>
</g>
<!-- Node26&#45;&gt;Node29 -->
<g id="edge41" class="edge"><title>Node26&#45;&gt;Node29</title>
<path fill="none" stroke="midnightblue" d="M1274.6,-72.7338C1274.22,-64.5406 1273.63,-51.9225 1273.12,-40.7136"/>
<polygon fill="midnightblue" stroke="midnightblue" points="1276.61,-40.417 1272.65,-30.589 1269.62,-40.7398 1276.61,-40.417"/>
</g>
<!-- Node30&#45;&gt;Node21 -->
<g id="edge44" class="edge"><title>Node30&#45;&gt;Node21</title>
<path fill="none" stroke="midnightblue" d="M1140.87,-134.033C1140.2,-118.708 1136.83,-87.1793 1121,-67 1116.4,-61.1427 1080.34,-42.4566 1054.51,-29.5359"/>
<polygon fill="midnightblue" stroke="midnightblue" points="1056.04,-26.3895 1045.53,-25.0709 1052.92,-32.6573 1056.04,-26.3895"/>
</g>
<!-- Node31 -->
<g id="node31" class="node"><title>Node31</title>
<polygon fill="white" stroke="#bfbfbf" points="1053.5,-73 1053.5,-92 1112.5,-92 1112.5,-73 1053.5,-73"/>
<text text-anchor="middle" x="1083" y="-80" font-family="Helvetica,sans-Serif" font-size="10.00">exception</text>
</g>
<!-- Node30&#45;&gt;Node31 -->
<g id="edge43" class="edge"><title>Node30&#45;&gt;Node31</title>
<path fill="none" stroke="midnightblue" d="M1132.69,-134.475C1123.82,-125.373 1109.55,-110.741 1098.58,-99.483"/>
<polygon fill="midnightblue" stroke="midnightblue" points="1100.78,-96.7268 1091.29,-92.0091 1095.77,-101.613 1100.78,-96.7268"/>
</g>
<!-- Node32&#45;&gt;Node3 -->
<g id="edge46" class="edge"><title>Node32&#45;&gt;Node3</title>
<path fill="none" stroke="midnightblue" d="M1360.94,-134.313C1363.12,-118.559 1369.95,-85.2214 1390,-67 1432.79,-28.1185 1460.64,-50.6723 1515,-31 1516.66,-30.3998 1518.35,-29.756 1520.05,-29.0854"/>
<polygon fill="midnightblue" stroke="midnightblue" points="1521.79,-32.151 1529.68,-25.07 1519.1,-25.6908 1521.79,-32.151"/>
</g>
<!-- Node32&#45;&gt;Node7 -->
<g id="edge47" class="edge"><title>Node32&#45;&gt;Node7</title>
<path fill="none" stroke="midnightblue" d="M1323.86,-140.814C1264.53,-136.571 1143.15,-125.132 1044,-98 1041.56,-97.3316 1039.06,-96.5364 1036.57,-95.6674"/>
<polygon fill="midnightblue" stroke="midnightblue" points="1037.81,-92.394 1027.22,-92.0641 1035.3,-98.9258 1037.81,-92.394"/>
</g>
<!-- Node32&#45;&gt;Node10 -->
<g id="edge48" class="edge"><title>Node32&#45;&gt;Node10</title>
<path fill="none" stroke="midnightblue" d="M1336.91,-134.424C1294.62,-118.997 1201.65,-86.3711 1121,-67 1022.38,-43.3141 903.227,-27.1441 847.145,-20.2528"/>
<polygon fill="midnightblue" stroke="midnightblue" points="847.458,-16.7652 837.11,-19.0365 846.616,-23.7144 847.458,-16.7652"/>
</g>
<!-- Node32&#45;&gt;Node12 -->
<g id="edge49" class="edge"><title>Node32&#45;&gt;Node12</title>
<path fill="none" stroke="midnightblue" d="M1374.04,-134.475C1390.05,-124.755 1416.45,-108.727 1435.37,-97.2372"/>
<polygon fill="midnightblue" stroke="midnightblue" points="1437.25,-100.191 1443.99,-92.0091 1433.62,-94.2072 1437.25,-100.191"/>
</g>
<!-- Node32&#45;&gt;Node26 -->
<g id="edge50" class="edge"><title>Node32&#45;&gt;Node26</title>
<path fill="none" stroke="midnightblue" d="M1347.82,-134.475C1334.19,-124.931 1311.87,-109.307 1295.53,-97.8683"/>
<polygon fill="midnightblue" stroke="midnightblue" points="1297.36,-94.8764 1287.16,-92.0091 1293.34,-100.611 1297.36,-94.8764"/>
</g>
<!-- Node33&#45;&gt;Node3 -->
<g id="edge52" class="edge"><title>Node33&#45;&gt;Node3</title>
<path fill="none" stroke="midnightblue" d="M1595.49,-134.305C1587.23,-113.813 1566.4,-62.1451 1555.27,-34.5416"/>
<polygon fill="midnightblue" stroke="midnightblue" points="1558.52,-33.2216 1551.53,-25.2557 1552.02,-35.8391 1558.52,-33.2216"/>
</g>
<!-- Node33&#45;&gt;Node12 -->
<g id="edge55" class="edge"><title>Node33&#45;&gt;Node12</title>
<path fill="none" stroke="midnightblue" d="M1578.8,-134.475C1554.93,-124.401 1515,-107.553 1487.63,-96.0023"/>
<polygon fill="midnightblue" stroke="midnightblue" points="1488.74,-92.6724 1478.16,-92.0091 1486.02,-99.1217 1488.74,-92.6724"/>
</g>
<!-- Node34 -->
<g id="node34" class="node"><title>Node34</title>
<polygon fill="white" stroke="#bfbfbf" points="1611,-73 1611,-92 1657,-92 1657,-73 1611,-73"/>
<text text-anchor="middle" x="1634" y="-80" font-family="Helvetica,sans-Serif" font-size="10.00">chrono</text>
</g>
<!-- Node33&#45;&gt;Node34 -->
<g id="edge53" class="edge"><title>Node33&#45;&gt;Node34</title>
<path fill="none" stroke="midnightblue" d="M1604.01,-134.475C1609.16,-125.727 1617.31,-111.869 1623.82,-100.809"/>
<polygon fill="midnightblue" stroke="midnightblue" points="1626.94,-102.403 1628.99,-92.0091 1620.91,-98.8539 1626.94,-102.403"/>
</g>
<!-- Node35 -->
<g id="node35" class="node"><title>Node35</title>
<polygon fill="white" stroke="#bfbfbf" points="1675,-73 1675,-92 1727,-92 1727,-73 1675,-73"/>
<text text-anchor="middle" x="1701" y="-80" font-family="Helvetica,sans-Serif" font-size="10.00">sstream</text>
</g>
<!-- Node33&#45;&gt;Node35 -->
<g id="edge54" class="edge"><title>Node33&#45;&gt;Node35</title>
<path fill="none" stroke="midnightblue" d="M1613.61,-134.475C1630.35,-124.711 1658,-108.581 1677.72,-97.0808"/>
<polygon fill="midnightblue" stroke="midnightblue" points="1679.54,-100.071 1686.41,-92.0091 1676.01,-94.0246 1679.54,-100.071"/>
</g>
</g>
</svg>
        <g id="navigator" transform="translate(0 0)" fill="#404254">
                <rect fill="#f2f5e9" fill-opacity="0.5" stroke="#606060" stroke-width=".5" x="0" y="0" width="60" height="60"/>
                <use id="zoomplus" xlink:href="#zoomPlus" x="17" y="9" onmousedown="handleZoom(evt,'in')"/>
                <use id="zoomminus" xlink:href="#zoomMin" x="42" y="9" onmousedown="handleZoom(evt,'out')"/>
                <use id="reset" xlink:href="#resetDef" x="30" y="36" onmousedown="handleReset()"/>
                <g id="arrowUp" xlink:href="#dirArrow" transform="translate(30 24)" onmousedown="handlePan(0,-1)">
                  <use xlink:href="#rim" fill="#404040">
                        <set attributeName="fill" to="#808080" begin="arrowUp.mouseover" end="arrowUp.mouseout"/>
                  </use>
                  <path fill="none" stroke="white" stroke-width="1.5" d="M0,-3.0v7 M-2.5,-0.5L0,-3.0L2.5,-0.5"/>
                </g>
                <g id="arrowRight" xlink:href="#dirArrow" transform="rotate(90) translate(36 -43)" onmousedown="handlePan(1,0)">
                  <use xlink:href="#rim" fill="#404040">
                        <set attributeName="fill" to="#808080" begin="arrowRight.mouseover" end="arrowRight.mouseout"/>
                  </use>
                  <path fill="none" stroke="white" stroke-width="1.5" d="M0,-3.0v7 M-2.5,-0.5L0,-3.0L2.5,-0.5"/>
                </g>
                <g id="arrowDown" xlink:href="#dirArrow" transform="rotate(180) translate(-30 -48)" onmousedown="handlePan(0,1)">
                  <use xlink:href="#rim" fill="#404040">
                        <set attributeName="fill" to="#808080" begin="arrowDown.mouseover" end="arrowDown.mouseout"/>
                  </use>
                  <path fill="none" stroke="white" stroke-width="1.5" d="M0,-3.0v7 M-2.5,-0.5L0,-3.0L2.5,-0.5"/>
                </g>
                <g id="arrowLeft" xlink:href="#dirArrow" transform="rotate(270) translate(-36 17)" onmousedown="handlePan(-1,0)">
                  <use xlink:href="#rim" fill="#404040">
                        <set attributeName="fill" to="#808080" begin="arrowLeft.mouseover" end="arrowLeft.mouseout"/>
                  </use>
                  <path fill="none" stroke="white" stroke-width="1.5" d="M0,-3.0v7 M-2.5,-0.5L0,-3.0L2.5,-0.5"/>
                </g>
        </g>
        <svg viewBox="0 0 15 15" width="100%" height="30px" preserveAspectRatio="xMaxYMin meet">
         <g id="arrow_out" transform="scale(0.3 0.3)">
          <a xlink:href="pdag_8cc__incl_org.svg" target="_base">
           <rect id="button" ry="5" rx="5" y="6" x="6" height="38" width="38"
                fill="#f2f5e9" fill-opacity="0.5" stroke="#606060" stroke-width="1.0"/>
           <path id="arrow"
             d="M 11.500037,31.436501 C 11.940474,20.09759 22.043105,11.32322 32.158766,21.979434 L 37.068811,17.246167 C 37.068811,17.246167 37.088388,32 37.088388,32 L 22.160133,31.978069 C 22.160133,31.978069 26.997745,27.140456 26.997745,27.140456 C 18.528582,18.264221 13.291696,25.230495 11.500037,31.436501 z"
             style="fill:#404040;"/>
          </a>
         </g>
        </svg>
</svg>
