<?xml version="1.0" encoding="UTF-8" standalone="no"?>
<!DOCTYPE svg PUBLIC "-//W3C//DTD SVG 1.1//EN"
 "http://www.w3.org/Graphics/SVG/1.1/DTD/svg11.dtd">
<!-- Generated by graphviz version 2.38.0 (20140413.2041)
 -->
<!-- Title: scram::core::Clear&lt; Pdag::kDescendant &gt; Pages: 1 -->
<svg width="304pt" height="52pt"
 viewBox="0.00 0.00 304.00 51.50" xmlns="http://www.w3.org/2000/svg" xmlns:xlink="http://www.w3.org/1999/xlink">
<g id="graph0" class="graph" transform="scale(1 1) rotate(0) translate(4 47.5)">
<title>scram::core::Clear&lt; Pdag::kDescendant &gt;</title>
<polygon fill="white" stroke="none" points="-4,4 -4,-47.5 300,-47.5 300,4 -4,4"/>
<!-- Node1 -->
<g id="node1" class="node"><title>Node1</title>
<polygon fill="#bfbfbf" stroke="black" points="0,-0.5 0,-30.5 121,-30.5 121,-0.5 0,-0.5"/>
<text text-anchor="start" x="8" y="-18.5" font-family="Helvetica,sans-Serif" font-size="10.00">scram::core::Clear</text>
<text text-anchor="middle" x="60.5" y="-7.5" font-family="Helvetica,sans-Serif" font-size="10.00">&lt; Pdag::kDescendant &gt;</text>
</g>
<!-- Node2 -->
<g id="node2" class="node"><title>Node2</title>
<g id="a_node2"><a xlink:href="pdag_8h.xhtml#aa00922ee92d35a300d86442f8b9ad331" target="_top" xlink:title="Traverses and visits gates and nodes in the graph. ">
<polygon fill="white" stroke="black" points="157,-6 157,-25 296,-25 296,-6 157,-6"/>
<text text-anchor="middle" x="226.5" y="-13" font-family="Helvetica,sans-Serif" font-size="10.00">scram::core::TraverseGates</text>
</a>
</g>
</g>
<!-- Node1&#45;&gt;Node2 -->
<g id="edge1" class="edge"><title>Node1&#45;&gt;Node2</title>
<path fill="none" stroke="midnightblue" d="M121.172,-15.5C129.532,-15.5 138.227,-15.5 146.872,-15.5"/>
<polygon fill="midnightblue" stroke="midnightblue" points="146.975,-19.0001 156.975,-15.5 146.975,-12.0001 146.975,-19.0001"/>
</g>
<!-- Node2&#45;&gt;Node2 -->
<g id="edge2" class="edge"><title>Node2&#45;&gt;Node2</title>
<path fill="none" stroke="midnightblue" d="M200.915,-25.2571C188.468,-34.0653 196.996,-43.5 226.5,-43.5 246.323,-43.5 256.677,-39.241 257.563,-33.7746"/>
<polygon fill="midnightblue" stroke="midnightblue" points="260.438,-31.7749 252.085,-25.2571 254.551,-35.5611 260.438,-31.7749"/>
</g>
</g>
</svg>
