<?xml version="1.0" encoding="UTF-8" standalone="no"?>
<!DOCTYPE svg PUBLIC "-//W3C//DTD SVG 1.1//EN"
 "http://www.w3.org/Graphics/SVG/1.1/DTD/svg11.dtd">
<!-- Generated by graphviz version 2.38.0 (20140413.2041)
 -->
<!-- Title: pdag.h Pages: 1 -->
<!--zoomable 151 -->
<svg id="main" version="1.1" xmlns="http://www.w3.org/2000/svg" xmlns:xlink="http://www.w3.org/1999/xlink" xml:space="preserve" onload="init(evt)">
<style type="text/css"><![CDATA[
.edge:hover path { stroke: red; }
.edge:hover polygon { stroke: red; fill: red; }
]]></style>
<script type="text/javascript"><![CDATA[
var edges = document.getElementsByTagName('g');
if (edges && edges.length) {
  for (var i=0;i<edges.length;i++) {
    if (edges[i].id.substr(0,4)=='edge') {
      edges[i].setAttribute('class','edge');
    }
  }
}
]]></script>
        <defs>
                <circle id="rim" cx="0" cy="0" r="7"/>
                <circle id="rim2" cx="0" cy="0" r="3.5"/>
                <g id="zoomPlus">
                        <use xlink:href="#rim" fill="#404040">
                                <set attributeName="fill" to="#808080" begin="zoomplus.mouseover" end="zoomplus.mouseout"/>
                        </use>
                        <path d="M-4,0h8M0,-4v8" fill="none" stroke="white" stroke-width="1.5" pointer-events="none"/>
                </g>
                <g id="zoomMin">
                        <use xlink:href="#rim" fill="#404040">
                                <set attributeName="fill" to="#808080" begin="zoomminus.mouseover" end="zoomminus.mouseout"/>
                        </use>
                        <path d="M-4,0h8" fill="none" stroke="white" stroke-width="1.5" pointer-events="none"/>
                </g>
                <g id="dirArrow">
                        <path fill="none" stroke="white" stroke-width="1.5" d="M0,-3.0v7 M-2.5,-0.5L0,-3.0L2.5,-0.5"/>
                </g>
               <g id="resetDef">
                       <use xlink:href="#rim2" fill="#404040">
                               <set attributeName="fill" to="#808080" begin="reset.mouseover" end="reset.mouseout"/>
                       </use>
               </g>
        </defs>

<script type="text/javascript">
var viewWidth = 1167;
var viewHeight = 151;
var sectionId = 'dynsection-0';
</script>
<script xlink:href="svgpan.js"/>
<svg id="graph" class="graph">
<g id="viewport">
<title>pdag.h</title>
<polygon fill="white" stroke="none" points="-4,4 -4,-147 1162.5,-147 1162.5,4 -4,4"/>
<!-- Node1 -->
<g id="node1" class="node"><title>Node1</title>
<polygon fill="#bfbfbf" stroke="black" points="427,-123.5 427,-142.5 473,-142.5 473,-123.5 427,-123.5"/>
<text text-anchor="middle" x="450" y="-130.5" font-family="Helvetica,sans-Serif" font-size="10.00">pdag.h</text>
</g>
<!-- Node2 -->
<g id="node2" class="node"><title>Node2</title>
<polygon fill="white" stroke="#bfbfbf" points="0,-62 0,-81 46,-81 46,-62 0,-62"/>
<text text-anchor="middle" x="23" y="-69" font-family="Helvetica,sans-Serif" font-size="10.00">cstdint</text>
</g>
<!-- Node1&#45;&gt;Node2 -->
<g id="edge1" class="edge"><title>Node1&#45;&gt;Node2</title>
<path fill="none" stroke="midnightblue" d="M426.816,-131.859C365.143,-130.952 192.384,-124.94 55,-87 52.8504,-86.4064 50.6621,-85.6865 48.49,-84.8887"/>
<polygon fill="midnightblue" stroke="midnightblue" points="49.8184,-81.6506 39.2412,-81.0404 47.1293,-88.1135 49.8184,-81.6506"/>
</g>
<!-- Node3 -->
<g id="node3" class="node"><title>Node3</title>
<polygon fill="white" stroke="#bfbfbf" points="64.5,-62 64.5,-81 109.5,-81 109.5,-62 64.5,-62"/>
<text text-anchor="middle" x="87" y="-69" font-family="Helvetica,sans-Serif" font-size="10.00">cstdlib</text>
</g>
<!-- Node1&#45;&gt;Node3 -->
<g id="edge2" class="edge"><title>Node1&#45;&gt;Node3</title>
<path fill="none" stroke="midnightblue" d="M426.71,-130.678C372.714,-127.204 235.116,-116.005 124,-87 121.338,-86.3052 118.608,-85.475 115.895,-84.5685"/>
<polygon fill="midnightblue" stroke="midnightblue" points="116.894,-81.207 106.3,-81.0566 114.488,-87.7805 116.894,-81.207"/>
</g>
<!-- Node4 -->
<g id="node4" class="node"><title>Node4</title>
<polygon fill="white" stroke="#bfbfbf" points="270,-0.5 270,-19.5 326,-19.5 326,-0.5 270,-0.5"/>
<text text-anchor="middle" x="298" y="-7.5" font-family="Helvetica,sans-Serif" font-size="10.00">algorithm</text>
</g>
<!-- Node1&#45;&gt;Node4 -->
<g id="edge3" class="edge"><title>Node1&#45;&gt;Node4</title>
<path fill="none" stroke="midnightblue" d="M426.591,-128.079C401.254,-122.751 360.995,-110.993 335,-87 318.192,-71.4871 308.136,-46.6927 302.84,-29.6686"/>
<polygon fill="midnightblue" stroke="midnightblue" points="306.129,-28.4383 300.024,-19.779 299.396,-30.3552 306.129,-28.4383"/>
</g>
<!-- Node5 -->
<g id="node5" class="node"><title>Node5</title>
<polygon fill="white" stroke="#bfbfbf" points="566.5,-62 566.5,-81 611.5,-81 611.5,-62 566.5,-62"/>
<text text-anchor="middle" x="589" y="-69" font-family="Helvetica,sans-Serif" font-size="10.00">iosfwd</text>
</g>
<!-- Node1&#45;&gt;Node5 -->
<g id="edge4" class="edge"><title>Node1&#45;&gt;Node5</title>
<path fill="none" stroke="midnightblue" d="M471.222,-123.47C493.083,-114.61 528.088,-100.22 558,-87 559.192,-86.4731 560.408,-85.93 561.634,-85.3774"/>
<polygon fill="midnightblue" stroke="midnightblue" points="563.4,-88.4178 571.028,-81.0648 560.48,-82.0561 563.4,-88.4178"/>
</g>
<!-- Node6 -->
<g id="node6" class="node"><title>Node6</title>
<polygon fill="white" stroke="#bfbfbf" points="630,-62 630,-81 682,-81 682,-62 630,-62"/>
<text text-anchor="middle" x="656" y="-69" font-family="Helvetica,sans-Serif" font-size="10.00">memory</text>
</g>
<!-- Node1&#45;&gt;Node6 -->
<g id="edge5" class="edge"><title>Node1&#45;&gt;Node6</title>
<path fill="none" stroke="midnightblue" d="M473.25,-126.936C506.423,-119.473 569.073,-104.499 621,-87 622.917,-86.3541 624.878,-85.6542 626.845,-84.9225"/>
<polygon fill="midnightblue" stroke="midnightblue" points="628.531,-88.0205 636.556,-81.1029 625.969,-81.5063 628.531,-88.0205"/>
</g>
<!-- Node7 -->
<g id="node7" class="node"><title>Node7</title>
<polygon fill="white" stroke="#bfbfbf" points="700.5,-62 700.5,-81 783.5,-81 783.5,-62 700.5,-62"/>
<text text-anchor="middle" x="742" y="-69" font-family="Helvetica,sans-Serif" font-size="10.00">unordered_map</text>
</g>
<!-- Node1&#45;&gt;Node7 -->
<g id="edge6" class="edge"><title>Node1&#45;&gt;Node7</title>
<path fill="none" stroke="midnightblue" d="M473.076,-128.421C516.159,-121.577 611.652,-105.646 691,-87 695.184,-86.0169 699.538,-84.9101 703.861,-83.7574"/>
<polygon fill="midnightblue" stroke="midnightblue" points="705.085,-87.0507 713.797,-81.0212 703.226,-80.3019 705.085,-87.0507"/>
</g>
<!-- Node8 -->
<g id="node8" class="node"><title>Node8</title>
<polygon fill="white" stroke="#bfbfbf" points="192,-0.5 192,-19.5 232,-19.5 232,-0.5 192,-0.5"/>
<text text-anchor="middle" x="212" y="-7.5" font-family="Helvetica,sans-Serif" font-size="10.00">utility</text>
</g>
<!-- Node1&#45;&gt;Node8 -->
<g id="edge7" class="edge"><title>Node1&#45;&gt;Node8</title>
<path fill="none" stroke="midnightblue" d="M426.637,-132.131C363.497,-131.939 191.856,-127.618 157,-87 148.028,-76.5443 151.1,-68.4506 157,-56 163.128,-43.0681 174.994,-32.6167 186.141,-25.0528"/>
<polygon fill="midnightblue" stroke="midnightblue" points="188.195,-27.8958 194.802,-19.6136 184.472,-21.9678 188.195,-27.8958"/>
</g>
<!-- Node9 -->
<g id="node9" class="node"><title>Node9</title>
<polygon fill="white" stroke="#bfbfbf" points="356,-0.5 356,-19.5 400,-19.5 400,-0.5 356,-0.5"/>
<text text-anchor="middle" x="378" y="-7.5" font-family="Helvetica,sans-Serif" font-size="10.00">vector</text>
</g>
<!-- Node1&#45;&gt;Node9 -->
<g id="edge8" class="edge"><title>Node1&#45;&gt;Node9</title>
<path fill="none" stroke="midnightblue" d="M426.7,-129.487C401.449,-125.38 362.317,-114.675 344,-87 331.364,-67.9081 347.38,-43.3477 361.43,-27.3943"/>
<polygon fill="midnightblue" stroke="midnightblue" points="364.156,-29.6029 368.436,-19.9107 359.046,-24.8189 364.156,-29.6029"/>
</g>
<!-- Node10 -->
<g id="node10" class="node"><title>Node10</title>
<polygon fill="white" stroke="#bfbfbf" points="802,-56.5 802,-86.5 902,-86.5 902,-56.5 802,-56.5"/>
<text text-anchor="start" x="810" y="-74.5" font-family="Helvetica,sans-Serif" font-size="10.00">boost/container/flat</text>
<text text-anchor="middle" x="852" y="-63.5" font-family="Helvetica,sans-Serif" font-size="10.00">_set.hpp</text>
</g>
<!-- Node1&#45;&gt;Node10 -->
<g id="edge9" class="edge"><title>Node1&#45;&gt;Node10</title>
<path fill="none" stroke="midnightblue" d="M473.019,-129.868C526.963,-124.684 665.885,-110.246 791.681,-87.1179"/>
<polygon fill="midnightblue" stroke="midnightblue" points="792.68,-90.4921 801.87,-85.2198 791.398,-83.6104 792.68,-90.4921"/>
</g>
<!-- Node11 -->
<g id="node11" class="node"><title>Node11</title>
<polygon fill="white" stroke="#bfbfbf" points="920.5,-62 920.5,-81 1037.5,-81 1037.5,-62 920.5,-62"/>
<text text-anchor="middle" x="979" y="-69" font-family="Helvetica,sans-Serif" font-size="10.00">boost/noncopyable.hpp</text>
</g>
<!-- Node1&#45;&gt;Node11 -->
<g id="edge10" class="edge"><title>Node1&#45;&gt;Node11</title>
<path fill="none" stroke="midnightblue" d="M473.14,-130.668C540.814,-126.572 744.119,-112.853 911,-87 918.135,-85.8947 925.648,-84.5143 932.972,-83.0478"/>
<polygon fill="midnightblue" stroke="midnightblue" points="933.71,-86.4694 942.791,-81.0123 932.289,-79.6152 933.71,-86.4694"/>
</g>
<!-- Node12 -->
<g id="node12" class="node"><title>Node12</title>
<polygon fill="white" stroke="#bfbfbf" points="1055.5,-56.5 1055.5,-86.5 1158.5,-86.5 1158.5,-56.5 1055.5,-56.5"/>
<text text-anchor="start" x="1063.5" y="-74.5" font-family="Helvetica,sans-Serif" font-size="10.00">boost/range/adaptor</text>
<text text-anchor="middle" x="1107" y="-63.5" font-family="Helvetica,sans-Serif" font-size="10.00">/transformed.hpp</text>
</g>
<!-- Node1&#45;&gt;Node12 -->
<g id="edge11" class="edge"><title>Node1&#45;&gt;Node12</title>
<path fill="none" stroke="midnightblue" d="M473.205,-131.599C552.139,-129.955 817.547,-122.115 1045.27,-87.1114"/>
<polygon fill="midnightblue" stroke="midnightblue" points="1046.05,-90.5308 1055.4,-85.5322 1044.98,-83.6143 1046.05,-90.5308"/>
</g>
<!-- Node13 -->
<g id="node13" class="node"><title>Node13</title>
<g id="a_node13"><a xlink:href="find__iterator_8h.xhtml" target="_top" xlink:title="Convenience iterator adaptor to wrap find calls and results. ">
<polygon fill="white" stroke="black" points="166,-62 166,-81 258,-81 258,-62 166,-62"/>
<text text-anchor="middle" x="212" y="-69" font-family="Helvetica,sans-Serif" font-size="10.00">ext/find_iterator.h</text>
</a>
</g>
</g>
<!-- Node1&#45;&gt;Node13 -->
<g id="edge12" class="edge"><title>Node1&#45;&gt;Node13</title>
<path fill="none" stroke="midnightblue" d="M426.746,-126.187C387.352,-116.338 306.863,-96.2157 256.39,-83.5974"/>
<polygon fill="midnightblue" stroke="midnightblue" points="256.959,-80.1321 246.409,-81.1022 255.261,-86.9231 256.959,-80.1321"/>
</g>
<!-- Node14 -->
<g id="node14" class="node"><title>Node14</title>
<g id="a_node14"><a xlink:href="index__map_8h.xhtml" target="_top" xlink:title="Non&#45;zero based Index&#45;&gt;Value map adapter on sequential containers. ">
<polygon fill="white" stroke="black" points="352.5,-62 352.5,-81 441.5,-81 441.5,-62 352.5,-62"/>
<text text-anchor="middle" x="397" y="-69" font-family="Helvetica,sans-Serif" font-size="10.00">ext/index_map.h</text>
</a>
</g>
</g>
<!-- Node1&#45;&gt;Node14 -->
<g id="edge14" class="edge"><title>Node1&#45;&gt;Node14</title>
<path fill="none" stroke="midnightblue" d="M442.406,-123.475C434.299,-114.373 421.265,-99.741 411.237,-88.483"/>
<polygon fill="midnightblue" stroke="midnightblue" points="413.844,-86.1483 404.58,-81.0091 408.617,-90.8043 413.844,-86.1483"/>
</g>
<!-- Node15 -->
<g id="node15" class="node"><title>Node15</title>
<g id="a_node15"><a xlink:href="linear__map_8h.xhtml" target="_top" xlink:title="Implementation of a vector&#45;based map for a small number of entries. ">
<polygon fill="white" stroke="black" points="459.5,-62 459.5,-81 548.5,-81 548.5,-62 459.5,-62"/>
<text text-anchor="middle" x="504" y="-69" font-family="Helvetica,sans-Serif" font-size="10.00">ext/linear_map.h</text>
</a>
</g>
</g>
<!-- Node1&#45;&gt;Node15 -->
<g id="edge16" class="edge"><title>Node1&#45;&gt;Node15</title>
<path fill="none" stroke="midnightblue" d="M457.737,-123.475C465.997,-114.373 479.277,-99.741 489.494,-88.483"/>
<polygon fill="midnightblue" stroke="midnightblue" points="492.149,-90.7663 496.277,-81.0091 486.965,-86.0619 492.149,-90.7663"/>
</g>
<!-- Node13&#45;&gt;Node8 -->
<g id="edge13" class="edge"><title>Node13&#45;&gt;Node8</title>
<path fill="none" stroke="midnightblue" d="M212,-61.9751C212,-53.5803 212,-40.4806 212,-29.6631"/>
<polygon fill="midnightblue" stroke="midnightblue" points="215.5,-29.5091 212,-19.5091 208.5,-29.5091 215.5,-29.5091"/>
</g>
<!-- Node14&#45;&gt;Node9 -->
<g id="edge15" class="edge"><title>Node14&#45;&gt;Node9</title>
<path fill="none" stroke="midnightblue" d="M394.278,-61.9751C391.569,-53.4919 387.326,-40.2043 383.851,-29.3222"/>
<polygon fill="midnightblue" stroke="midnightblue" points="387.093,-27.9705 380.717,-19.5091 380.425,-30.0999 387.093,-27.9705"/>
</g>
<!-- Node15&#45;&gt;Node4 -->
<g id="edge18" class="edge"><title>Node15&#45;&gt;Node4</title>
<path fill="none" stroke="midnightblue" d="M474.485,-61.9751C437.974,-51.4293 375.757,-33.4589 335.79,-21.9151"/>
<polygon fill="midnightblue" stroke="midnightblue" points="336.716,-18.5395 326.138,-19.1271 334.774,-25.2646 336.716,-18.5395"/>
</g>
<!-- Node15&#45;&gt;Node8 -->
<g id="edge22" class="edge"><title>Node15&#45;&gt;Node8</title>
<path fill="none" stroke="midnightblue" d="M474.394,-61.9455C466.8,-59.8765 458.622,-57.7573 451,-56 430.866,-51.3584 301.786,-27.5049 242.141,-16.5336"/>
<polygon fill="midnightblue" stroke="midnightblue" points="242.654,-13.0695 232.186,-14.7037 241.389,-19.9541 242.654,-13.0695"/>
</g>
<!-- Node15&#45;&gt;Node9 -->
<g id="edge21" class="edge"><title>Node15&#45;&gt;Node9</title>
<path fill="none" stroke="midnightblue" d="M485.947,-61.9751C464.802,-51.9897 429.56,-35.3476 405.122,-23.8075"/>
<polygon fill="midnightblue" stroke="midnightblue" points="406.556,-20.6143 396.019,-19.5091 403.567,-26.9441 406.556,-20.6143"/>
</g>
<!-- Node16 -->
<g id="node16" class="node"><title>Node16</title>
<polygon fill="white" stroke="#bfbfbf" points="418.5,-0.5 418.5,-19.5 467.5,-19.5 467.5,-0.5 418.5,-0.5"/>
<text text-anchor="middle" x="443" y="-7.5" font-family="Helvetica,sans-Serif" font-size="10.00">cassert</text>
</g>
<!-- Node15&#45;&gt;Node16 -->
<g id="edge17" class="edge"><title>Node15&#45;&gt;Node16</title>
<path fill="none" stroke="midnightblue" d="M495.26,-61.9751C485.838,-52.785 470.636,-37.9563 459.051,-26.656"/>
<polygon fill="midnightblue" stroke="midnightblue" points="461.326,-23.9861 451.724,-19.5091 456.438,-28.9971 461.326,-23.9861"/>
</g>
<!-- Node17 -->
<g id="node17" class="node"><title>Node17</title>
<polygon fill="white" stroke="#bfbfbf" points="485.5,-0.5 485.5,-19.5 558.5,-19.5 558.5,-0.5 485.5,-0.5"/>
<text text-anchor="middle" x="522" y="-7.5" font-family="Helvetica,sans-Serif" font-size="10.00">initializer_list</text>
</g>
<!-- Node15&#45;&gt;Node17 -->
<g id="edge19" class="edge"><title>Node15&#45;&gt;Node17</title>
<path fill="none" stroke="midnightblue" d="M506.579,-61.9751C509.145,-53.4919 513.165,-40.2043 516.457,-29.3222"/>
<polygon fill="midnightblue" stroke="midnightblue" points="519.88,-30.0942 519.426,-19.5091 513.18,-28.0672 519.88,-30.0942"/>
</g>
<!-- Node18 -->
<g id="node18" class="node"><title>Node18</title>
<polygon fill="white" stroke="#bfbfbf" points="576.5,-0.5 576.5,-19.5 635.5,-19.5 635.5,-0.5 576.5,-0.5"/>
<text text-anchor="middle" x="606" y="-7.5" font-family="Helvetica,sans-Serif" font-size="10.00">stdexcept</text>
</g>
<!-- Node15&#45;&gt;Node18 -->
<g id="edge20" class="edge"><title>Node15&#45;&gt;Node18</title>
<path fill="none" stroke="midnightblue" d="M518.614,-61.9751C535.353,-52.2106 563.004,-36.0807 582.719,-24.5808"/>
<polygon fill="midnightblue" stroke="midnightblue" points="584.539,-27.5711 591.413,-19.5091 581.012,-21.5246 584.539,-27.5711"/>
</g>
</g>
</svg>
        <g id="navigator" transform="translate(0 0)" fill="#404254">
                <rect fill="#f2f5e9" fill-opacity="0.5" stroke="#606060" stroke-width=".5" x="0" y="0" width="60" height="60"/>
                <use id="zoomplus" xlink:href="#zoomPlus" x="17" y="9" onmousedown="handleZoom(evt,'in')"/>
                <use id="zoomminus" xlink:href="#zoomMin" x="42" y="9" onmousedown="handleZoom(evt,'out')"/>
                <use id="reset" xlink:href="#resetDef" x="30" y="36" onmousedown="handleReset()"/>
                <g id="arrowUp" xlink:href="#dirArrow" transform="translate(30 24)" onmousedown="handlePan(0,-1)">
                  <use xlink:href="#rim" fill="#404040">
                        <set attributeName="fill" to="#808080" begin="arrowUp.mouseover" end="arrowUp.mouseout"/>
                  </use>
                  <path fill="none" stroke="white" stroke-width="1.5" d="M0,-3.0v7 M-2.5,-0.5L0,-3.0L2.5,-0.5"/>
                </g>
                <g id="arrowRight" xlink:href="#dirArrow" transform="rotate(90) translate(36 -43)" onmousedown="handlePan(1,0)">
                  <use xlink:href="#rim" fill="#404040">
                        <set attributeName="fill" to="#808080" begin="arrowRight.mouseover" end="arrowRight.mouseout"/>
                  </use>
                  <path fill="none" stroke="white" stroke-width="1.5" d="M0,-3.0v7 M-2.5,-0.5L0,-3.0L2.5,-0.5"/>
                </g>
                <g id="arrowDown" xlink:href="#dirArrow" transform="rotate(180) translate(-30 -48)" onmousedown="handlePan(0,1)">
                  <use xlink:href="#rim" fill="#404040">
                        <set attributeName="fill" to="#808080" begin="arrowDown.mouseover" end="arrowDown.mouseout"/>
                  </use>
                  <path fill="none" stroke="white" stroke-width="1.5" d="M0,-3.0v7 M-2.5,-0.5L0,-3.0L2.5,-0.5"/>
                </g>
                <g id="arrowLeft" xlink:href="#dirArrow" transform="rotate(270) translate(-36 17)" onmousedown="handlePan(-1,0)">
                  <use xlink:href="#rim" fill="#404040">
                        <set attributeName="fill" to="#808080" begin="arrowLeft.mouseover" end="arrowLeft.mouseout"/>
                  </use>
                  <path fill="none" stroke="white" stroke-width="1.5" d="M0,-3.0v7 M-2.5,-0.5L0,-3.0L2.5,-0.5"/>
                </g>
        </g>
        <svg viewBox="0 0 15 15" width="100%" height="30px" preserveAspectRatio="xMaxYMin meet">
         <g id="arrow_out" transform="scale(0.3 0.3)">
          <a xlink:href="pdag_8h__incl_org.svg" target="_base">
           <rect id="button" ry="5" rx="5" y="6" x="6" height="38" width="38"
                fill="#f2f5e9" fill-opacity="0.5" stroke="#606060" stroke-width="1.0"/>
           <path id="arrow"
             d="M 11.500037,31.436501 C 11.940474,20.09759 22.043105,11.32322 32.158766,21.979434 L 37.068811,17.246167 C 37.068811,17.246167 37.088388,32 37.088388,32 L 22.160133,31.978069 C 22.160133,31.978069 26.997745,27.140456 26.997745,27.140456 C 18.528582,18.264221 13.291696,25.230495 11.500037,31.436501 z"
             style="fill:#404040;"/>
          </a>
         </g>
        </svg>
</svg>
