<?xml version="1.0" encoding="UTF-8" standalone="no"?>
<!DOCTYPE svg PUBLIC "-//W3C//DTD SVG 1.1//EN"
 "http://www.w3.org/Graphics/SVG/1.1/DTD/svg11.dtd">
<!-- Generated by graphviz version 2.38.0 (20140413.2041)
 -->
<!-- Title: scram::core::TraverseNodes Pages: 1 -->
<svg width="296pt" height="186pt"
 viewBox="0.00 0.00 296.00 186.00" xmlns="http://www.w3.org/2000/svg" xmlns:xlink="http://www.w3.org/1999/xlink">
<g id="graph0" class="graph" transform="scale(1 1) rotate(0) translate(4 182)">
<title>scram::core::TraverseNodes</title>
<polygon fill="white" stroke="none" points="-4,4 -4,-182 292,-182 292,4 -4,4"/>
<!-- Node1 -->
<g id="node1" class="node"><title>Node1</title>
<polygon fill="#bfbfbf" stroke="black" points="0,-79 0,-98 141,-98 141,-79 0,-79"/>
<text text-anchor="middle" x="70.5" y="-86" font-family="Helvetica,sans-Serif" font-size="10.00">scram::core::TraverseNodes</text>
</g>
<!-- Node1&#45;&gt;Node1 -->
<g id="edge5" class="edge"><title>Node1&#45;&gt;Node1</title>
<path fill="none" stroke="midnightblue" d="M40.1856,-106.775C41.0499,-112.241 51.1547,-116.5 70.5,-116.5 99.293,-116.5 107.616,-107.065 95.4689,-98.2571"/>
<polygon fill="midnightblue" stroke="midnightblue" points="43.1799,-108.588 45.5311,-98.2571 37.2508,-104.867 43.1799,-108.588"/>
</g>
<!-- Node2 -->
<g id="node2" class="node"><title>Node2</title>
<g id="a_node2"><a xlink:href="pdag_8h.xhtml#abd1b7b418220453348e51fc3b08f92b6" target="_top" xlink:title="Specializations for various node mark clearance operations. ">
<polygon fill="white" stroke="black" points="183.5,-147.5 183.5,-177.5 281.5,-177.5 281.5,-147.5 183.5,-147.5"/>
<text text-anchor="start" x="191.5" y="-165.5" font-family="Helvetica,sans-Serif" font-size="10.00">scram::core::Clear</text>
<text text-anchor="middle" x="232.5" y="-154.5" font-family="Helvetica,sans-Serif" font-size="10.00">&lt; Pdag::kCount &gt;</text>
</a>
</g>
</g>
<!-- Node1&#45;&gt;Node2 -->
<g id="edge1" class="edge"><title>Node1&#45;&gt;Node2</title>
<path fill="none" stroke="midnightblue" d="M100.348,-102.437C121.496,-112.589 150.942,-126.59 177,-138.5 183.394,-141.422 190.237,-144.486 196.838,-147.409"/>
<polygon fill="midnightblue" stroke="midnightblue" points="101.786,-99.2445 91.2567,-98.0643 98.7515,-105.553 101.786,-99.2445"/>
</g>
<!-- Node3 -->
<g id="node3" class="node"><title>Node3</title>
<g id="a_node3"><a xlink:href="pdag_8h.xhtml#a520b16682fef8cd1cd1759244f349b8f" target="_top" xlink:title="Specializations for various node mark clearance operations. ">
<polygon fill="white" stroke="black" points="177,-98.5 177,-128.5 288,-128.5 288,-98.5 177,-98.5"/>
<text text-anchor="start" x="185" y="-116.5" font-family="Helvetica,sans-Serif" font-size="10.00">scram::core::Clear</text>
<text text-anchor="middle" x="232.5" y="-105.5" font-family="Helvetica,sans-Serif" font-size="10.00">&lt; Pdag::kOptiValue &gt;</text>
</a>
</g>
</g>
<!-- Node1&#45;&gt;Node3 -->
<g id="edge2" class="edge"><title>Node1&#45;&gt;Node3</title>
<path fill="none" stroke="midnightblue" d="M142.463,-99.588C153.964,-101.385 165.718,-103.222 176.756,-104.946"/>
<polygon fill="midnightblue" stroke="midnightblue" points="142.866,-96.1086 132.446,-98.0227 141.785,-103.025 142.866,-96.1086"/>
</g>
<!-- Node4 -->
<g id="node4" class="node"><title>Node4</title>
<g id="a_node4"><a xlink:href="pdag_8h.xhtml#a8c4d620ac963cc0b6ff8cd51fd5ef290" target="_top" xlink:title="Specializations for various node mark clearance operations. ">
<polygon fill="white" stroke="black" points="183.5,-49.5 183.5,-79.5 281.5,-79.5 281.5,-49.5 183.5,-49.5"/>
<text text-anchor="start" x="191.5" y="-67.5" font-family="Helvetica,sans-Serif" font-size="10.00">scram::core::Clear</text>
<text text-anchor="middle" x="232.5" y="-56.5" font-family="Helvetica,sans-Serif" font-size="10.00">&lt; Pdag::kOrder &gt;</text>
</a>
</g>
</g>
<!-- Node1&#45;&gt;Node4 -->
<g id="edge3" class="edge"><title>Node1&#45;&gt;Node4</title>
<path fill="none" stroke="midnightblue" d="M145.439,-77.4091C158.3,-75.48 171.371,-73.5194 183.312,-71.7282"/>
<polygon fill="midnightblue" stroke="midnightblue" points="144.566,-74.0008 135.196,-78.9456 145.605,-80.9234 144.566,-74.0008"/>
</g>
<!-- Node5 -->
<g id="node5" class="node"><title>Node5</title>
<g id="a_node5"><a xlink:href="pdag_8h.xhtml#ad8df4939c58194b97fdd1d694cca2bba" target="_top" xlink:title="Specializations for various node mark clearance operations. ">
<polygon fill="white" stroke="black" points="183.5,-0.5 183.5,-30.5 281.5,-30.5 281.5,-0.5 183.5,-0.5"/>
<text text-anchor="start" x="191.5" y="-18.5" font-family="Helvetica,sans-Serif" font-size="10.00">scram::core::Clear</text>
<text text-anchor="middle" x="232.5" y="-7.5" font-family="Helvetica,sans-Serif" font-size="10.00">&lt; Pdag::kVisit &gt;</text>
</a>
</g>
</g>
<!-- Node1&#45;&gt;Node5 -->
<g id="edge4" class="edge"><title>Node1&#45;&gt;Node5</title>
<path fill="none" stroke="midnightblue" d="M101.572,-74.7795C129.125,-62.2085 169.841,-43.6318 198.33,-30.634"/>
<polygon fill="midnightblue" stroke="midnightblue" points="100.062,-71.6214 92.4172,-78.9565 102.968,-77.9898 100.062,-71.6214"/>
</g>
</g>
</svg>
