<?xml version="1.0" encoding="UTF-8" standalone="no"?>
<!DOCTYPE svg PUBLIC "-//W3C//DTD SVG 1.1//EN"
 "http://www.w3.org/Graphics/SVG/1.1/DTD/svg11.dtd">
<!-- Generated by graphviz version 2.38.0 (20140413.2041)
 -->
<!-- Title: preprocessor.cc Pages: 1 -->
<!--zoomable 274 -->
<svg id="main" version="1.1" xmlns="http://www.w3.org/2000/svg" xmlns:xlink="http://www.w3.org/1999/xlink" xml:space="preserve" onload="init(evt)">
<style type="text/css"><![CDATA[
.edge:hover path { stroke: red; }
.edge:hover polygon { stroke: red; fill: red; }
]]></style>
<script type="text/javascript"><![CDATA[
var edges = document.getElementsByTagName('g');
if (edges && edges.length) {
  for (var i=0;i<edges.length;i++) {
    if (edges[i].id.substr(0,4)=='edge') {
      edges[i].setAttribute('class','edge');
    }
  }
}
]]></script>
        <defs>
                <circle id="rim" cx="0" cy="0" r="7"/>
                <circle id="rim2" cx="0" cy="0" r="3.5"/>
                <g id="zoomPlus">
                        <use xlink:href="#rim" fill="#404040">
                                <set attributeName="fill" to="#808080" begin="zoomplus.mouseover" end="zoomplus.mouseout"/>
                        </use>
                        <path d="M-4,0h8M0,-4v8" fill="none" stroke="white" stroke-width="1.5" pointer-events="none"/>
                </g>
                <g id="zoomMin">
                        <use xlink:href="#rim" fill="#404040">
                                <set attributeName="fill" to="#808080" begin="zoomminus.mouseover" end="zoomminus.mouseout"/>
                        </use>
                        <path d="M-4,0h8" fill="none" stroke="white" stroke-width="1.5" pointer-events="none"/>
                </g>
                <g id="dirArrow">
                        <path fill="none" stroke="white" stroke-width="1.5" d="M0,-3.0v7 M-2.5,-0.5L0,-3.0L2.5,-0.5"/>
                </g>
               <g id="resetDef">
                       <use xlink:href="#rim2" fill="#404040">
                               <set attributeName="fill" to="#808080" begin="reset.mouseover" end="reset.mouseout"/>
                       </use>
               </g>
        </defs>

<script type="text/javascript">
var viewWidth = 2075;
var viewHeight = 274;
var sectionId = 'dynsection-0';
</script>
<script xlink:href="svgpan.js"/>
<svg id="graph" class="graph">
<g id="viewport">
<title>preprocessor.cc</title>
<polygon fill="white" stroke="none" points="-4,4 -4,-270 2070.67,-270 2070.67,4 -4,4"/>
<!-- Node1 -->
<g id="node1" class="node"><title>Node1</title>
<polygon fill="#bfbfbf" stroke="black" points="1381.67,-246.5 1381.67,-265.5 1467.67,-265.5 1467.67,-246.5 1381.67,-246.5"/>
<text text-anchor="middle" x="1424.67" y="-253.5" font-family="Helvetica,sans-Serif" font-size="10.00">preprocessor.cc</text>
</g>
<!-- Node2 -->
<g id="node2" class="node"><title>Node2</title>
<g id="a_node2"><a xlink:href="preprocessor_8h.xhtml" target="_top" xlink:title="A collection of PDAG transformation/preprocessing algorithms that simplify fault trees for analysis...">
<polygon fill="white" stroke="black" points="587.167,-185 587.167,-204 668.167,-204 668.167,-185 587.167,-185"/>
<text text-anchor="middle" x="627.667" y="-192" font-family="Helvetica,sans-Serif" font-size="10.00">preprocessor.h</text>
</a>
</g>
</g>
<!-- Node1&#45;&gt;Node2 -->
<g id="edge1" class="edge"><title>Node1&#45;&gt;Node2</title>
<path fill="none" stroke="midnightblue" d="M1381.53,-251.78C1245.29,-241.608 824.51,-210.195 678.328,-199.282"/>
<polygon fill="midnightblue" stroke="midnightblue" points="678.518,-195.787 668.285,-198.532 677.997,-202.767 678.518,-195.787"/>
</g>
<!-- Node12 -->
<g id="node12" class="node"><title>Node12</title>
<polygon fill="white" stroke="#bfbfbf" points="971.167,-62 971.167,-81 1016.17,-81 1016.17,-62 971.167,-62"/>
<text text-anchor="middle" x="993.667" y="-69" font-family="Helvetica,sans-Serif" font-size="10.00">cstdlib</text>
</g>
<!-- Node1&#45;&gt;Node12 -->
<g id="edge32" class="edge"><title>Node1&#45;&gt;Node12</title>
<path fill="none" stroke="midnightblue" d="M1381.31,-249.462C1339.57,-243.184 1275.22,-230.988 1222.67,-210 1139.34,-176.721 1051.16,-115.2 1013.06,-87.1392"/>
<polygon fill="midnightblue" stroke="midnightblue" points="1015,-84.2238 1004.89,-81.0673 1010.83,-89.8419 1015,-84.2238"/>
</g>
<!-- Node13 -->
<g id="node13" class="node"><title>Node13</title>
<polygon fill="white" stroke="#bfbfbf" points="1175.67,-0.5 1175.67,-19.5 1231.67,-19.5 1231.67,-0.5 1175.67,-0.5"/>
<text text-anchor="middle" x="1203.67" y="-7.5" font-family="Helvetica,sans-Serif" font-size="10.00">algorithm</text>
</g>
<!-- Node1&#45;&gt;Node13 -->
<g id="edge33" class="edge"><title>Node1&#45;&gt;Node13</title>
<path fill="none" stroke="midnightblue" d="M1423.67,-246.388C1422.68,-237.342 1421.23,-222.694 1420.67,-210 1420.06,-196.236 1417.81,-192.478 1420.67,-179 1426.04,-153.679 1445.91,-147.178 1436.67,-123 1422.39,-85.6628 1410.8,-76.807 1376.67,-56 1334.94,-30.5642 1279.1,-19.394 1242.29,-14.5634"/>
<polygon fill="midnightblue" stroke="midnightblue" points="1242.32,-11.0421 1231.97,-13.3105 1241.48,-17.991 1242.32,-11.0421"/>
</g>
<!-- Node17 -->
<g id="node17" class="node"><title>Node17</title>
<g id="a_node17"><a xlink:href="find__iterator_8h.xhtml" target="_top" xlink:title="Convenience iterator adaptor to wrap find calls and results. ">
<polygon fill="white" stroke="black" points="17.6672,-62 17.6672,-81 109.667,-81 109.667,-62 17.6672,-62"/>
<text text-anchor="middle" x="63.6672" y="-69" font-family="Helvetica,sans-Serif" font-size="10.00">ext/find_iterator.h</text>
</a>
</g>
</g>
<!-- Node1&#45;&gt;Node17 -->
<g id="edge45" class="edge"><title>Node1&#45;&gt;Node17</title>
<path fill="none" stroke="midnightblue" d="M1381.64,-253.899C1232.04,-249.887 735.105,-234.961 577.667,-210 393.089,-180.737 179.233,-111.851 97.6512,-84.2449"/>
<polygon fill="midnightblue" stroke="midnightblue" points="98.7396,-80.9182 88.1452,-81.0119 96.4857,-87.5454 98.7396,-80.9182"/>
</g>
<!-- Node23 -->
<g id="node23" class="node"><title>Node23</title>
<polygon fill="white" stroke="#bfbfbf" points="1429.67,-185 1429.67,-204 1467.67,-204 1467.67,-185 1429.67,-185"/>
<text text-anchor="middle" x="1448.67" y="-192" font-family="Helvetica,sans-Serif" font-size="10.00">array</text>
</g>
<!-- Node1&#45;&gt;Node23 -->
<g id="edge34" class="edge"><title>Node1&#45;&gt;Node23</title>
<path fill="none" stroke="midnightblue" d="M1428.11,-246.475C1431.56,-237.904 1437,-224.427 1441.41,-213.483"/>
<polygon fill="midnightblue" stroke="midnightblue" points="1444.74,-214.592 1445.23,-204.009 1438.25,-211.974 1444.74,-214.592"/>
</g>
<!-- Node24 -->
<g id="node24" class="node"><title>Node24</title>
<polygon fill="white" stroke="#bfbfbf" points="1486.17,-185 1486.17,-204 1515.17,-204 1515.17,-185 1486.17,-185"/>
<text text-anchor="middle" x="1500.67" y="-192" font-family="Helvetica,sans-Serif" font-size="10.00">list</text>
</g>
<!-- Node1&#45;&gt;Node24 -->
<g id="edge35" class="edge"><title>Node1&#45;&gt;Node24</title>
<path fill="none" stroke="midnightblue" d="M1435.56,-246.475C1447.63,-237.02 1467.33,-221.596 1481.91,-210.187"/>
<polygon fill="midnightblue" stroke="midnightblue" points="1484.08,-212.929 1489.8,-204.009 1479.77,-207.418 1484.08,-212.929"/>
</g>
<!-- Node25 -->
<g id="node25" class="node"><title>Node25</title>
<polygon fill="white" stroke="#bfbfbf" points="1533.17,-185 1533.17,-204 1576.17,-204 1576.17,-185 1533.17,-185"/>
<text text-anchor="middle" x="1554.67" y="-192" font-family="Helvetica,sans-Serif" font-size="10.00">queue</text>
</g>
<!-- Node1&#45;&gt;Node25 -->
<g id="edge36" class="edge"><title>Node1&#45;&gt;Node25</title>
<path fill="none" stroke="midnightblue" d="M1443.67,-246.434C1463.63,-237.426 1495.89,-222.808 1523.67,-210 1524.82,-209.468 1526,-208.924 1527.19,-208.373"/>
<polygon fill="midnightblue" stroke="midnightblue" points="1528.73,-211.513 1536.32,-204.12 1525.78,-205.167 1528.73,-211.513"/>
</g>
<!-- Node26 -->
<g id="node26" class="node"><title>Node26</title>
<polygon fill="white" stroke="#bfbfbf" points="1594.67,-185 1594.67,-204 1672.67,-204 1672.67,-185 1594.67,-185"/>
<text text-anchor="middle" x="1633.67" y="-192" font-family="Helvetica,sans-Serif" font-size="10.00">unordered_set</text>
</g>
<!-- Node1&#45;&gt;Node26 -->
<g id="edge37" class="edge"><title>Node1&#45;&gt;Node26</title>
<path fill="none" stroke="midnightblue" d="M1455.38,-246.496C1487.61,-237.538 1539.75,-222.961 1584.67,-210 1588.05,-209.023 1591.56,-208.001 1595.09,-206.97"/>
<polygon fill="midnightblue" stroke="midnightblue" points="1596.32,-210.255 1604.93,-204.076 1594.34,-203.54 1596.32,-210.255"/>
</g>
<!-- Node27 -->
<g id="node27" class="node"><title>Node27</title>
<polygon fill="white" stroke="#bfbfbf" points="1690.67,-185 1690.67,-204 1818.67,-204 1818.67,-185 1690.67,-185"/>
<text text-anchor="middle" x="1754.67" y="-192" font-family="Helvetica,sans-Serif" font-size="10.00">boost/functional/hash.hpp</text>
</g>
<!-- Node1&#45;&gt;Node27 -->
<g id="edge38" class="edge"><title>Node1&#45;&gt;Node27</title>
<path fill="none" stroke="midnightblue" d="M1467.92,-247.735C1519.04,-239.078 1606.64,-224.018 1681.67,-210 1688.41,-208.74 1695.49,-207.38 1702.49,-206.014"/>
<polygon fill="midnightblue" stroke="midnightblue" points="1703.49,-209.385 1712.62,-204.021 1702.13,-202.517 1703.49,-209.385"/>
</g>
<!-- Node28 -->
<g id="node28" class="node"><title>Node28</title>
<polygon fill="white" stroke="#bfbfbf" points="1837.17,-179.5 1837.17,-209.5 1938.17,-209.5 1938.17,-179.5 1837.17,-179.5"/>
<text text-anchor="start" x="1845.17" y="-197.5" font-family="Helvetica,sans-Serif" font-size="10.00">boost/math/special</text>
<text text-anchor="middle" x="1887.67" y="-186.5" font-family="Helvetica,sans-Serif" font-size="10.00">_functions/sign.hpp</text>
</g>
<!-- Node1&#45;&gt;Node28 -->
<g id="edge39" class="edge"><title>Node1&#45;&gt;Node28</title>
<path fill="none" stroke="midnightblue" d="M1467.86,-251.972C1540.1,-246.517 1690.11,-233.528 1826.79,-210"/>
<polygon fill="midnightblue" stroke="midnightblue" points="1827.77,-213.381 1837.02,-208.214 1826.57,-206.485 1827.77,-213.381"/>
</g>
<!-- Node29 -->
<g id="node29" class="node"><title>Node29</title>
<polygon fill="white" stroke="#bfbfbf" points="1299.17,-123.5 1299.17,-142.5 1428.17,-142.5 1428.17,-123.5 1299.17,-123.5"/>
<text text-anchor="middle" x="1363.67" y="-130.5" font-family="Helvetica,sans-Serif" font-size="10.00">boost/range/algorithm.hpp</text>
</g>
<!-- Node1&#45;&gt;Node29 -->
<g id="edge40" class="edge"><title>Node1&#45;&gt;Node29</title>
<path fill="none" stroke="midnightblue" d="M1415.9,-246.441C1407.59,-237.896 1395.29,-224.047 1387.67,-210 1377.79,-191.796 1371.26,-168.9 1367.54,-153.02"/>
<polygon fill="midnightblue" stroke="midnightblue" points="1370.87,-151.886 1365.32,-142.865 1364.03,-153.382 1370.87,-151.886"/>
</g>
<!-- Node30 -->
<g id="node30" class="node"><title>Node30</title>
<polygon fill="white" stroke="#bfbfbf" points="1956.67,-179.5 1956.67,-209.5 2066.67,-209.5 2066.67,-179.5 1956.67,-179.5"/>
<text text-anchor="start" x="1964.67" y="-197.5" font-family="Helvetica,sans-Serif" font-size="10.00">boost/range/algorithm</text>
<text text-anchor="middle" x="2011.67" y="-186.5" font-family="Helvetica,sans-Serif" font-size="10.00">_ext.hpp</text>
</g>
<!-- Node1&#45;&gt;Node30 -->
<g id="edge41" class="edge"><title>Node1&#45;&gt;Node30</title>
<path fill="none" stroke="midnightblue" d="M1467.96,-253.283C1556.19,-249.35 1763.28,-237.913 1946.51,-210.035"/>
<polygon fill="midnightblue" stroke="midnightblue" points="1947.25,-213.462 1956.6,-208.479 1946.18,-206.544 1947.25,-213.462"/>
</g>
<!-- Node31 -->
<g id="node31" class="node"><title>Node31</title>
<g id="a_node31"><a xlink:href="algorithm_8h.xhtml" target="_top" xlink:title="Helpful algorithm facilities as an extension to the STL or Boost. ">
<polygon fill="white" stroke="black" points="1254.17,-185 1254.17,-204 1335.17,-204 1335.17,-185 1254.17,-185"/>
<text text-anchor="middle" x="1294.67" y="-192" font-family="Helvetica,sans-Serif" font-size="10.00">ext/algorithm.h</text>
</a>
</g>
</g>
<!-- Node1&#45;&gt;Node31 -->
<g id="edge42" class="edge"><title>Node1&#45;&gt;Node31</title>
<path fill="none" stroke="midnightblue" d="M1406.04,-246.475C1384.22,-236.49 1347.86,-219.848 1322.65,-208.307"/>
<polygon fill="midnightblue" stroke="midnightblue" points="1323.81,-204.988 1313.26,-204.009 1320.89,-211.353 1323.81,-204.988"/>
</g>
<!-- Node32 -->
<g id="node32" class="node"><title>Node32</title>
<g id="a_node32"><a xlink:href="logger_8h.xhtml" target="_top" xlink:title="Logging capability for various purposes, such as warnings and debugging. ">
<polygon fill="white" stroke="black" points="1191.17,-123.5 1191.17,-142.5 1242.17,-142.5 1242.17,-123.5 1191.17,-123.5"/>
<text text-anchor="middle" x="1216.67" y="-130.5" font-family="Helvetica,sans-Serif" font-size="10.00">logger.h</text>
</a>
</g>
</g>
<!-- Node1&#45;&gt;Node32 -->
<g id="edge46" class="edge"><title>Node1&#45;&gt;Node32</title>
<path fill="none" stroke="midnightblue" d="M1381.62,-255.17C1341.48,-253.05 1282.31,-243.778 1244.67,-210 1228.27,-195.285 1221.46,-170.114 1218.64,-152.798"/>
<polygon fill="midnightblue" stroke="midnightblue" points="1222.09,-152.193 1217.3,-142.741 1215.15,-153.115 1222.09,-152.193"/>
</g>
<!-- Node3 -->
<g id="node3" class="node"><title>Node3</title>
<polygon fill="white" stroke="#bfbfbf" points="127.667,-62 127.667,-81 179.667,-81 179.667,-62 127.667,-62"/>
<text text-anchor="middle" x="153.667" y="-69" font-family="Helvetica,sans-Serif" font-size="10.00">memory</text>
</g>
<!-- Node2&#45;&gt;Node3 -->
<g id="edge2" class="edge"><title>Node2&#45;&gt;Node3</title>
<path fill="none" stroke="midnightblue" d="M615.036,-184.858C588.635,-166.866 529.179,-126.735 518.667,-123 379.645,-73.6054 331.591,-123.603 188.667,-87 186.158,-86.3575 183.593,-85.5696 181.049,-84.6963"/>
<polygon fill="midnightblue" stroke="midnightblue" points="182.088,-81.3462 171.498,-81.0312 179.58,-87.8816 182.088,-81.3462"/>
</g>
<!-- Node4 -->
<g id="node4" class="node"><title>Node4</title>
<polygon fill="white" stroke="#bfbfbf" points="824.667,-123.5 824.667,-142.5 854.667,-142.5 854.667,-123.5 824.667,-123.5"/>
<text text-anchor="middle" x="839.667" y="-130.5" font-family="Helvetica,sans-Serif" font-size="10.00">set</text>
</g>
<!-- Node2&#45;&gt;Node4 -->
<g id="edge3" class="edge"><title>Node2&#45;&gt;Node4</title>
<path fill="none" stroke="midnightblue" d="M659.82,-184.958C696.435,-175.153 758.006,-158.433 810.667,-143 812.09,-142.583 813.55,-142.149 815.022,-141.707"/>
<polygon fill="midnightblue" stroke="midnightblue" points="816.105,-145.036 824.643,-138.762 814.056,-138.342 816.105,-145.036"/>
</g>
<!-- Node5 -->
<g id="node5" class="node"><title>Node5</title>
<polygon fill="white" stroke="#bfbfbf" points="198.167,-62 198.167,-81 281.167,-81 281.167,-62 198.167,-62"/>
<text text-anchor="middle" x="239.667" y="-69" font-family="Helvetica,sans-Serif" font-size="10.00">unordered_map</text>
</g>
<!-- Node2&#45;&gt;Node5 -->
<g id="edge4" class="edge"><title>Node2&#45;&gt;Node5</title>
<path fill="none" stroke="midnightblue" d="M621.388,-184.784C609.769,-169.399 583.287,-137.672 552.667,-123 448.653,-73.1621 408.79,-109.492 295.667,-87 290.565,-85.9856 285.235,-84.7881 279.978,-83.5231"/>
<polygon fill="midnightblue" stroke="midnightblue" points="280.589,-80.0681 270.039,-81.0376 278.891,-86.859 280.589,-80.0681"/>
</g>
<!-- Node6 -->
<g id="node6" class="node"><title>Node6</title>
<polygon fill="white" stroke="#bfbfbf" points="166.667,-0.5 166.667,-19.5 206.667,-19.5 206.667,-0.5 166.667,-0.5"/>
<text text-anchor="middle" x="186.667" y="-7.5" font-family="Helvetica,sans-Serif" font-size="10.00">utility</text>
</g>
<!-- Node2&#45;&gt;Node6 -->
<g id="edge5" class="edge"><title>Node2&#45;&gt;Node6</title>
<path fill="none" stroke="midnightblue" d="M587.034,-193.003C461.436,-190.526 83.4121,-175.703 8.66719,-87 -34.0226,-36.3381 94.6252,-18.6326 156.016,-13.17"/>
<polygon fill="midnightblue" stroke="midnightblue" points="156.62,-16.6319 166.295,-12.314 156.039,-9.65605 156.62,-16.6319"/>
</g>
<!-- Node7 -->
<g id="node7" class="node"><title>Node7</title>
<polygon fill="white" stroke="#bfbfbf" points="628.667,-0.5 628.667,-19.5 672.667,-19.5 672.667,-0.5 628.667,-0.5"/>
<text text-anchor="middle" x="650.667" y="-7.5" font-family="Helvetica,sans-Serif" font-size="10.00">vector</text>
</g>
<!-- Node2&#45;&gt;Node7 -->
<g id="edge6" class="edge"><title>Node2&#45;&gt;Node7</title>
<path fill="none" stroke="midnightblue" d="M651.336,-184.895C686.433,-170.687 750.996,-138.647 777.667,-87 783.989,-74.7582 785.618,-67.2523 777.667,-56 756.415,-25.9232 713.27,-15.8207 683.197,-12.4999"/>
<polygon fill="midnightblue" stroke="midnightblue" points="683.439,-9.00751 673.163,-11.5865 682.804,-15.9787 683.439,-9.00751"/>
</g>
<!-- Node8 -->
<g id="node8" class="node"><title>Node8</title>
<polygon fill="white" stroke="#bfbfbf" points="1099.17,-62 1099.17,-81 1216.17,-81 1216.17,-62 1099.17,-62"/>
<text text-anchor="middle" x="1157.67" y="-69" font-family="Helvetica,sans-Serif" font-size="10.00">boost/noncopyable.hpp</text>
</g>
<!-- Node2&#45;&gt;Node8 -->
<g id="edge7" class="edge"><title>Node2&#45;&gt;Node8</title>
<path fill="none" stroke="midnightblue" d="M668.241,-185.134C715.313,-175.354 795.224,-158.527 863.667,-143 952.518,-122.844 1056.04,-97.6095 1113.49,-83.45"/>
<polygon fill="midnightblue" stroke="midnightblue" points="1114.46,-86.8165 1123.33,-81.0228 1112.78,-80.0203 1114.46,-86.8165"/>
</g>
<!-- Node9 -->
<g id="node9" class="node"><title>Node9</title>
<polygon fill="white" stroke="#bfbfbf" points="381.167,-123.5 381.167,-142.5 510.167,-142.5 510.167,-123.5 381.167,-123.5"/>
<text text-anchor="middle" x="445.667" y="-130.5" font-family="Helvetica,sans-Serif" font-size="10.00">boost/unordered_map.hpp</text>
</g>
<!-- Node2&#45;&gt;Node9 -->
<g id="edge8" class="edge"><title>Node2&#45;&gt;Node9</title>
<path fill="none" stroke="midnightblue" d="M601.591,-184.975C570.101,-174.68 516.969,-157.31 481.609,-145.75"/>
<polygon fill="midnightblue" stroke="midnightblue" points="482.288,-142.29 471.695,-142.509 480.112,-148.943 482.288,-142.29"/>
</g>
<!-- Node10 -->
<g id="node10" class="node"><title>Node10</title>
<g id="a_node10"><a xlink:href="pdag_8h.xhtml" target="_top" xlink:title="Classes and facilities to represent fault trees as PDAGs with event and gate indices instead of ID na...">
<polygon fill="white" stroke="black" points="604.667,-123.5 604.667,-142.5 650.667,-142.5 650.667,-123.5 604.667,-123.5"/>
<text text-anchor="middle" x="627.667" y="-130.5" font-family="Helvetica,sans-Serif" font-size="10.00">pdag.h</text>
</a>
</g>
</g>
<!-- Node2&#45;&gt;Node10 -->
<g id="edge9" class="edge"><title>Node2&#45;&gt;Node10</title>
<path fill="none" stroke="midnightblue" d="M627.667,-184.975C627.667,-176.58 627.667,-163.481 627.667,-152.663"/>
<polygon fill="midnightblue" stroke="midnightblue" points="631.167,-152.509 627.667,-142.509 624.167,-152.509 631.167,-152.509"/>
</g>
<!-- Node10&#45;&gt;Node3 -->
<g id="edge14" class="edge"><title>Node10&#45;&gt;Node3</title>
<path fill="none" stroke="midnightblue" d="M604.371,-129.078C589.572,-127.253 570.006,-124.897 552.667,-123 391.065,-105.314 346.353,-126.537 188.667,-87 186.155,-86.3701 183.588,-85.591 181.042,-84.7234"/>
<polygon fill="midnightblue" stroke="midnightblue" points="182.079,-81.3729 171.488,-81.0677 179.577,-87.9105 182.079,-81.3729"/>
</g>
<!-- Node10&#45;&gt;Node5 -->
<g id="edge15" class="edge"><title>Node10&#45;&gt;Node5</title>
<path fill="none" stroke="midnightblue" d="M604.664,-125.963C600.049,-124.877 595.22,-123.829 590.667,-123 460.718,-99.3503 425.438,-111.608 295.667,-87 290.496,-86.0195 285.096,-84.8327 279.776,-83.5653"/>
<polygon fill="midnightblue" stroke="midnightblue" points="280.277,-80.0833 269.728,-81.0616 278.585,-86.8756 280.277,-80.0833"/>
</g>
<!-- Node10&#45;&gt;Node6 -->
<g id="edge16" class="edge"><title>Node10&#45;&gt;Node6</title>
<path fill="none" stroke="midnightblue" d="M604.309,-127.186C597.066,-125.759 589.049,-124.246 581.667,-123 469.675,-104.09 432.99,-131.905 328.667,-87 308.329,-78.2456 308.639,-67.4173 289.667,-56 266.14,-41.841 237.357,-29.6514 216.205,-21.5441"/>
<polygon fill="midnightblue" stroke="midnightblue" points="217.373,-18.2441 206.78,-18.0078 214.913,-24.7979 217.373,-18.2441"/>
</g>
<!-- Node10&#45;&gt;Node7 -->
<g id="edge17" class="edge"><title>Node10&#45;&gt;Node7</title>
<path fill="none" stroke="midnightblue" d="M619.24,-123.458C606.324,-109.279 584.264,-80.0633 595.667,-56 601.795,-43.0681 613.661,-32.6167 624.808,-25.0528"/>
<polygon fill="midnightblue" stroke="midnightblue" points="626.862,-27.8958 633.469,-19.6136 623.139,-21.9678 626.862,-27.8958"/>
</g>
<!-- Node10&#45;&gt;Node8 -->
<g id="edge19" class="edge"><title>Node10&#45;&gt;Node8</title>
<path fill="none" stroke="midnightblue" d="M650.857,-130.671C718.679,-126.586 922.425,-112.891 1089.67,-87 1096.8,-85.8954 1104.32,-84.5155 1111.64,-83.0491"/>
<polygon fill="midnightblue" stroke="midnightblue" points="1112.38,-86.4708 1121.46,-81.0137 1110.96,-79.6165 1112.38,-86.4708"/>
</g>
<!-- Node11 -->
<g id="node11" class="node"><title>Node11</title>
<polygon fill="white" stroke="#bfbfbf" points="1034.67,-62 1034.67,-81 1080.67,-81 1080.67,-62 1034.67,-62"/>
<text text-anchor="middle" x="1057.67" y="-69" font-family="Helvetica,sans-Serif" font-size="10.00">cstdint</text>
</g>
<!-- Node10&#45;&gt;Node11 -->
<g id="edge10" class="edge"><title>Node10&#45;&gt;Node11</title>
<path fill="none" stroke="midnightblue" d="M650.944,-131.787C712.869,-130.704 886.37,-124.299 1024.67,-87 1026.96,-86.3813 1029.3,-85.6271 1031.62,-84.7914"/>
<polygon fill="midnightblue" stroke="midnightblue" points="1032.94,-88.0332 1040.89,-81.0337 1030.31,-81.5456 1032.94,-88.0332"/>
</g>
<!-- Node10&#45;&gt;Node12 -->
<g id="edge11" class="edge"><title>Node10&#45;&gt;Node12</title>
<path fill="none" stroke="midnightblue" d="M650.767,-130.73C704.973,-127.342 844.251,-116.27 956.667,-87 959.33,-86.3068 962.06,-85.4778 964.773,-84.572"/>
<polygon fill="midnightblue" stroke="midnightblue" points="966.18,-87.7843 974.369,-81.0613 963.775,-81.2104 966.18,-87.7843"/>
</g>
<!-- Node10&#45;&gt;Node13 -->
<g id="edge12" class="edge"><title>Node10&#45;&gt;Node13</title>
<path fill="none" stroke="midnightblue" d="M650.976,-132.434C702.331,-132.555 828.176,-128.236 922.667,-87 942.961,-78.1437 941.52,-65.1846 961.667,-56 1029.05,-25.2829 1116.09,-15.5319 1165.3,-12.4375"/>
<polygon fill="midnightblue" stroke="midnightblue" points="1165.72,-15.9197 1175.5,-11.8582 1165.32,-8.93096 1165.72,-15.9197"/>
</g>
<!-- Node14 -->
<g id="node14" class="node"><title>Node14</title>
<polygon fill="white" stroke="#bfbfbf" points="605.167,-62 605.167,-81 650.167,-81 650.167,-62 605.167,-62"/>
<text text-anchor="middle" x="627.667" y="-69" font-family="Helvetica,sans-Serif" font-size="10.00">iosfwd</text>
</g>
<!-- Node10&#45;&gt;Node14 -->
<g id="edge13" class="edge"><title>Node10&#45;&gt;Node14</title>
<path fill="none" stroke="midnightblue" d="M627.667,-123.475C627.667,-115.08 627.667,-101.981 627.667,-91.1631"/>
<polygon fill="midnightblue" stroke="midnightblue" points="631.167,-91.0091 627.667,-81.0091 624.167,-91.0091 631.167,-91.0091"/>
</g>
<!-- Node15 -->
<g id="node15" class="node"><title>Node15</title>
<polygon fill="white" stroke="#bfbfbf" points="668.667,-56.5 668.667,-86.5 768.667,-86.5 768.667,-56.5 668.667,-56.5"/>
<text text-anchor="start" x="676.667" y="-74.5" font-family="Helvetica,sans-Serif" font-size="10.00">boost/container/flat</text>
<text text-anchor="middle" x="718.667" y="-63.5" font-family="Helvetica,sans-Serif" font-size="10.00">_set.hpp</text>
</g>
<!-- Node10&#45;&gt;Node15 -->
<g id="edge18" class="edge"><title>Node10&#45;&gt;Node15</title>
<path fill="none" stroke="midnightblue" d="M640.705,-123.475C653.145,-115.341 672.34,-102.791 688.57,-92.1788"/>
<polygon fill="midnightblue" stroke="midnightblue" points="690.766,-94.9249 697.22,-86.523 686.935,-89.0661 690.766,-94.9249"/>
</g>
<!-- Node16 -->
<g id="node16" class="node"><title>Node16</title>
<polygon fill="white" stroke="#bfbfbf" points="338.167,-56.5 338.167,-86.5 441.167,-86.5 441.167,-56.5 338.167,-56.5"/>
<text text-anchor="start" x="346.167" y="-74.5" font-family="Helvetica,sans-Serif" font-size="10.00">boost/range/adaptor</text>
<text text-anchor="middle" x="389.667" y="-63.5" font-family="Helvetica,sans-Serif" font-size="10.00">/transformed.hpp</text>
</g>
<!-- Node10&#45;&gt;Node16 -->
<g id="edge20" class="edge"><title>Node10&#45;&gt;Node16</title>
<path fill="none" stroke="midnightblue" d="M604.413,-126.187C569.214,-117.387 501.204,-100.384 451.114,-87.8616"/>
<polygon fill="midnightblue" stroke="midnightblue" points="451.9,-84.4506 441.35,-85.4206 450.202,-91.2416 451.9,-84.4506"/>
</g>
<!-- Node10&#45;&gt;Node17 -->
<g id="edge21" class="edge"><title>Node10&#45;&gt;Node17</title>
<path fill="none" stroke="midnightblue" d="M604.4,-130.054C507.884,-121.966 142.918,-91.2371 118.667,-87 113.256,-86.0546 107.6,-84.8354 102.061,-83.5062"/>
<polygon fill="midnightblue" stroke="midnightblue" points="102.847,-80.095 92.294,-81.0298 101.127,-86.8803 102.847,-80.095"/>
</g>
<!-- Node18 -->
<g id="node18" class="node"><title>Node18</title>
<g id="a_node18"><a xlink:href="index__map_8h.xhtml" target="_top" xlink:title="Non&#45;zero based Index&#45;&gt;Value map adapter on sequential containers. ">
<polygon fill="white" stroke="black" points="459.167,-62 459.167,-81 548.167,-81 548.167,-62 459.167,-62"/>
<text text-anchor="middle" x="503.667" y="-69" font-family="Helvetica,sans-Serif" font-size="10.00">ext/index_map.h</text>
</a>
</g>
</g>
<!-- Node10&#45;&gt;Node18 -->
<g id="edge23" class="edge"><title>Node10&#45;&gt;Node18</title>
<path fill="none" stroke="midnightblue" d="M609.901,-123.475C589.183,-113.534 554.715,-96.9947 530.678,-85.461"/>
<polygon fill="midnightblue" stroke="midnightblue" points="531.93,-82.1797 521.4,-81.0091 528.902,-88.4908 531.93,-82.1797"/>
</g>
<!-- Node19 -->
<g id="node19" class="node"><title>Node19</title>
<g id="a_node19"><a xlink:href="linear__map_8h.xhtml" target="_top" xlink:title="Implementation of a vector&#45;based map for a small number of entries. ">
<polygon fill="white" stroke="black" points="825.167,-62 825.167,-81 914.167,-81 914.167,-62 825.167,-62"/>
<text text-anchor="middle" x="869.667" y="-69" font-family="Helvetica,sans-Serif" font-size="10.00">ext/linear_map.h</text>
</a>
</g>
</g>
<!-- Node10&#45;&gt;Node19 -->
<g id="edge25" class="edge"><title>Node10&#45;&gt;Node19</title>
<path fill="none" stroke="midnightblue" d="M650.871,-126.295C690.909,-116.451 773.616,-96.116 825.088,-83.4606"/>
<polygon fill="midnightblue" stroke="midnightblue" points="826.069,-86.8237 834.944,-81.0373 824.398,-80.0261 826.069,-86.8237"/>
</g>
<!-- Node17&#45;&gt;Node6 -->
<g id="edge22" class="edge"><title>Node17&#45;&gt;Node6</title>
<path fill="none" stroke="midnightblue" d="M81.2901,-61.9751C101.841,-52.0338 136.031,-35.4947 159.874,-23.961"/>
<polygon fill="midnightblue" stroke="midnightblue" points="161.599,-27.0145 169.077,-19.5091 158.551,-20.7131 161.599,-27.0145"/>
</g>
<!-- Node18&#45;&gt;Node7 -->
<g id="edge24" class="edge"><title>Node18&#45;&gt;Node7</title>
<path fill="none" stroke="midnightblue" d="M524.729,-61.9751C549.726,-51.8571 591.609,-34.9046 620.154,-23.3507"/>
<polygon fill="midnightblue" stroke="midnightblue" points="621.688,-26.5054 629.645,-19.5091 619.062,-20.0168 621.688,-26.5054"/>
</g>
<!-- Node19&#45;&gt;Node6 -->
<g id="edge31" class="edge"><title>Node19&#45;&gt;Node6</title>
<path fill="none" stroke="midnightblue" d="M824.845,-62.6961C809.877,-60.2879 793.085,-57.799 777.667,-56 563.53,-31.0136 304.051,-16.7848 216.872,-12.441"/>
<polygon fill="midnightblue" stroke="midnightblue" points="217.039,-8.94506 206.879,-11.949 216.695,-15.9366 217.039,-8.94506"/>
</g>
<!-- Node19&#45;&gt;Node7 -->
<g id="edge30" class="edge"><title>Node19&#45;&gt;Node7</title>
<path fill="none" stroke="midnightblue" d="M838.29,-61.9751C796.858,-50.7184 724.289,-31.0022 682.587,-19.6722"/>
<polygon fill="midnightblue" stroke="midnightblue" points="683.255,-16.227 672.687,-16.9827 681.42,-22.9822 683.255,-16.227"/>
</g>
<!-- Node19&#45;&gt;Node13 -->
<g id="edge27" class="edge"><title>Node19&#45;&gt;Node13</title>
<path fill="none" stroke="midnightblue" d="M902.331,-61.9859C910.872,-59.8934 920.09,-57.753 928.667,-56 1012.65,-38.8363 1112.12,-23.8744 1165.4,-16.2888"/>
<polygon fill="midnightblue" stroke="midnightblue" points="1166.01,-19.7372 1175.43,-14.8715 1165.03,-12.8062 1166.01,-19.7372"/>
</g>
<!-- Node20 -->
<g id="node20" class="node"><title>Node20</title>
<polygon fill="white" stroke="#bfbfbf" points="766.167,-0.5 766.167,-19.5 815.167,-19.5 815.167,-0.5 766.167,-0.5"/>
<text text-anchor="middle" x="790.667" y="-7.5" font-family="Helvetica,sans-Serif" font-size="10.00">cassert</text>
</g>
<!-- Node19&#45;&gt;Node20 -->
<g id="edge26" class="edge"><title>Node19&#45;&gt;Node20</title>
<path fill="none" stroke="midnightblue" d="M858.348,-61.9751C845.794,-52.5199 825.316,-37.0961 810.168,-25.6871"/>
<polygon fill="midnightblue" stroke="midnightblue" points="812.059,-22.7295 801.965,-19.5091 807.847,-28.321 812.059,-22.7295"/>
</g>
<!-- Node21 -->
<g id="node21" class="node"><title>Node21</title>
<polygon fill="white" stroke="#bfbfbf" points="833.167,-0.5 833.167,-19.5 906.167,-19.5 906.167,-0.5 833.167,-0.5"/>
<text text-anchor="middle" x="869.667" y="-7.5" font-family="Helvetica,sans-Serif" font-size="10.00">initializer_list</text>
</g>
<!-- Node19&#45;&gt;Node21 -->
<g id="edge28" class="edge"><title>Node19&#45;&gt;Node21</title>
<path fill="none" stroke="midnightblue" d="M869.667,-61.9751C869.667,-53.5803 869.667,-40.4806 869.667,-29.6631"/>
<polygon fill="midnightblue" stroke="midnightblue" points="873.167,-29.5091 869.667,-19.5091 866.167,-29.5091 873.167,-29.5091"/>
</g>
<!-- Node22 -->
<g id="node22" class="node"><title>Node22</title>
<polygon fill="white" stroke="#bfbfbf" points="924.167,-0.5 924.167,-19.5 983.167,-19.5 983.167,-0.5 924.167,-0.5"/>
<text text-anchor="middle" x="953.667" y="-7.5" font-family="Helvetica,sans-Serif" font-size="10.00">stdexcept</text>
</g>
<!-- Node19&#45;&gt;Node22 -->
<g id="edge29" class="edge"><title>Node19&#45;&gt;Node22</title>
<path fill="none" stroke="midnightblue" d="M881.702,-61.9751C895.176,-52.4315 917.233,-36.8073 933.383,-25.3683"/>
<polygon fill="midnightblue" stroke="midnightblue" points="935.517,-28.1454 941.654,-19.5091 931.471,-22.4332 935.517,-28.1454"/>
</g>
<!-- Node31&#45;&gt;Node13 -->
<g id="edge43" class="edge"><title>Node31&#45;&gt;Node13</title>
<path fill="none" stroke="midnightblue" d="M1291.08,-184.939C1285.81,-170.871 1277.78,-142.482 1289.67,-123 1307.89,-93.1366 1341.44,-116.863 1359.67,-87 1366.84,-75.239 1367.95,-67.01 1359.67,-56 1345.49,-37.1555 1283.2,-23.7209 1241.75,-16.6746"/>
<polygon fill="midnightblue" stroke="midnightblue" points="1242.14,-13.1915 1231.71,-15.0214 1241,-20.0986 1242.14,-13.1915"/>
</g>
<!-- Node31&#45;&gt;Node29 -->
<g id="edge44" class="edge"><title>Node31&#45;&gt;Node29</title>
<path fill="none" stroke="midnightblue" d="M1304.55,-184.975C1315.31,-175.697 1332.74,-160.671 1345.89,-149.331"/>
<polygon fill="midnightblue" stroke="midnightblue" points="1348.51,-151.69 1353.8,-142.509 1343.94,-146.389 1348.51,-151.69"/>
</g>
<!-- Node32&#45;&gt;Node8 -->
<g id="edge50" class="edge"><title>Node32&#45;&gt;Node8</title>
<path fill="none" stroke="midnightblue" d="M1208.21,-123.475C1199.1,-114.285 1184.4,-99.4563 1173.19,-88.156"/>
<polygon fill="midnightblue" stroke="midnightblue" points="1175.63,-85.6455 1166.1,-81.0091 1170.66,-90.5744 1175.63,-85.6455"/>
</g>
<!-- Node32&#45;&gt;Node11 -->
<g id="edge47" class="edge"><title>Node32&#45;&gt;Node11</title>
<path fill="none" stroke="midnightblue" d="M1191.13,-123.662C1165.31,-115.068 1124.38,-100.986 1089.67,-87 1088.25,-86.4302 1086.81,-85.8334 1085.36,-85.2203"/>
<polygon fill="midnightblue" stroke="midnightblue" points="1086.39,-81.8531 1075.83,-81.0514 1083.59,-88.2662 1086.39,-81.8531"/>
</g>
<!-- Node33 -->
<g id="node33" class="node"><title>Node33</title>
<polygon fill="white" stroke="#bfbfbf" points="1234.67,-62 1234.67,-81 1280.67,-81 1280.67,-62 1234.67,-62"/>
<text text-anchor="middle" x="1257.67" y="-69" font-family="Helvetica,sans-Serif" font-size="10.00">chrono</text>
</g>
<!-- Node32&#45;&gt;Node33 -->
<g id="edge48" class="edge"><title>Node32&#45;&gt;Node33</title>
<path fill="none" stroke="midnightblue" d="M1222.54,-123.475C1228.63,-114.638 1238.31,-100.589 1245.97,-89.475"/>
<polygon fill="midnightblue" stroke="midnightblue" points="1249.01,-91.2294 1251.8,-81.0091 1243.25,-87.2575 1249.01,-91.2294"/>
</g>
<!-- Node34 -->
<g id="node34" class="node"><title>Node34</title>
<polygon fill="white" stroke="#bfbfbf" points="1298.67,-62 1298.67,-81 1350.67,-81 1350.67,-62 1298.67,-62"/>
<text text-anchor="middle" x="1324.67" y="-69" font-family="Helvetica,sans-Serif" font-size="10.00">sstream</text>
</g>
<!-- Node32&#45;&gt;Node34 -->
<g id="edge49" class="edge"><title>Node32&#45;&gt;Node34</title>
<path fill="none" stroke="midnightblue" d="M1232.14,-123.475C1249.94,-113.666 1279.41,-97.4346 1300.3,-85.925"/>
<polygon fill="midnightblue" stroke="midnightblue" points="1302.15,-88.9001 1309.22,-81.0091 1298.77,-82.769 1302.15,-88.9001"/>
</g>
</g>
</svg>
        <g id="navigator" transform="translate(0 0)" fill="#404254">
                <rect fill="#f2f5e9" fill-opacity="0.5" stroke="#606060" stroke-width=".5" x="0" y="0" width="60" height="60"/>
                <use id="zoomplus" xlink:href="#zoomPlus" x="17" y="9" onmousedown="handleZoom(evt,'in')"/>
                <use id="zoomminus" xlink:href="#zoomMin" x="42" y="9" onmousedown="handleZoom(evt,'out')"/>
                <use id="reset" xlink:href="#resetDef" x="30" y="36" onmousedown="handleReset()"/>
                <g id="arrowUp" xlink:href="#dirArrow" transform="translate(30 24)" onmousedown="handlePan(0,-1)">
                  <use xlink:href="#rim" fill="#404040">
                        <set attributeName="fill" to="#808080" begin="arrowUp.mouseover" end="arrowUp.mouseout"/>
                  </use>
                  <path fill="none" stroke="white" stroke-width="1.5" d="M0,-3.0v7 M-2.5,-0.5L0,-3.0L2.5,-0.5"/>
                </g>
                <g id="arrowRight" xlink:href="#dirArrow" transform="rotate(90) translate(36 -43)" onmousedown="handlePan(1,0)">
                  <use xlink:href="#rim" fill="#404040">
                        <set attributeName="fill" to="#808080" begin="arrowRight.mouseover" end="arrowRight.mouseout"/>
                  </use>
                  <path fill="none" stroke="white" stroke-width="1.5" d="M0,-3.0v7 M-2.5,-0.5L0,-3.0L2.5,-0.5"/>
                </g>
                <g id="arrowDown" xlink:href="#dirArrow" transform="rotate(180) translate(-30 -48)" onmousedown="handlePan(0,1)">
                  <use xlink:href="#rim" fill="#404040">
                        <set attributeName="fill" to="#808080" begin="arrowDown.mouseover" end="arrowDown.mouseout"/>
                  </use>
                  <path fill="none" stroke="white" stroke-width="1.5" d="M0,-3.0v7 M-2.5,-0.5L0,-3.0L2.5,-0.5"/>
                </g>
                <g id="arrowLeft" xlink:href="#dirArrow" transform="rotate(270) translate(-36 17)" onmousedown="handlePan(-1,0)">
                  <use xlink:href="#rim" fill="#404040">
                        <set attributeName="fill" to="#808080" begin="arrowLeft.mouseover" end="arrowLeft.mouseout"/>
                  </use>
                  <path fill="none" stroke="white" stroke-width="1.5" d="M0,-3.0v7 M-2.5,-0.5L0,-3.0L2.5,-0.5"/>
                </g>
        </g>
        <svg viewBox="0 0 15 15" width="100%" height="30px" preserveAspectRatio="xMaxYMin meet">
         <g id="arrow_out" transform="scale(0.3 0.3)">
          <a xlink:href="preprocessor_8cc__incl_org.svg" target="_base">
           <rect id="button" ry="5" rx="5" y="6" x="6" height="38" width="38"
                fill="#f2f5e9" fill-opacity="0.5" stroke="#606060" stroke-width="1.0"/>
           <path id="arrow"
             d="M 11.500037,31.436501 C 11.940474,20.09759 22.043105,11.32322 32.158766,21.979434 L 37.068811,17.246167 C 37.068811,17.246167 37.088388,32 37.088388,32 L 22.160133,31.978069 C 22.160133,31.978069 26.997745,27.140456 26.997745,27.140456 C 18.528582,18.264221 13.291696,25.230495 11.500037,31.436501 z"
             style="fill:#404040;"/>
          </a>
         </g>
        </svg>
</svg>
