<?xml version="1.0" encoding="UTF-8" standalone="no"?>
<!DOCTYPE svg PUBLIC "-//W3C//DTD SVG 1.1//EN"
 "http://www.w3.org/Graphics/SVG/1.1/DTD/svg11.dtd">
<!-- Generated by graphviz version 2.38.0 (20140413.2041)
 -->
<!-- Title: preprocessor.h Pages: 1 -->
<!--zoomable 207 -->
<svg id="main" version="1.1" xmlns="http://www.w3.org/2000/svg" xmlns:xlink="http://www.w3.org/1999/xlink" xml:space="preserve" onload="init(evt)">
<style type="text/css"><![CDATA[
.edge:hover path { stroke: red; }
.edge:hover polygon { stroke: red; fill: red; }
]]></style>
<script type="text/javascript"><![CDATA[
var edges = document.getElementsByTagName('g');
if (edges && edges.length) {
  for (var i=0;i<edges.length;i++) {
    if (edges[i].id.substr(0,4)=='edge') {
      edges[i].setAttribute('class','edge');
    }
  }
}
]]></script>
        <defs>
                <circle id="rim" cx="0" cy="0" r="7"/>
                <circle id="rim2" cx="0" cy="0" r="3.5"/>
                <g id="zoomPlus">
                        <use xlink:href="#rim" fill="#404040">
                                <set attributeName="fill" to="#808080" begin="zoomplus.mouseover" end="zoomplus.mouseout"/>
                        </use>
                        <path d="M-4,0h8M0,-4v8" fill="none" stroke="white" stroke-width="1.5" pointer-events="none"/>
                </g>
                <g id="zoomMin">
                        <use xlink:href="#rim" fill="#404040">
                                <set attributeName="fill" to="#808080" begin="zoomminus.mouseover" end="zoomminus.mouseout"/>
                        </use>
                        <path d="M-4,0h8" fill="none" stroke="white" stroke-width="1.5" pointer-events="none"/>
                </g>
                <g id="dirArrow">
                        <path fill="none" stroke="white" stroke-width="1.5" d="M0,-3.0v7 M-2.5,-0.5L0,-3.0L2.5,-0.5"/>
                </g>
               <g id="resetDef">
                       <use xlink:href="#rim2" fill="#404040">
                               <set attributeName="fill" to="#808080" begin="reset.mouseover" end="reset.mouseout"/>
                       </use>
               </g>
        </defs>

<script type="text/javascript">
var viewWidth = 1185;
var viewHeight = 207;
var sectionId = 'dynsection-0';
</script>
<script xlink:href="svgpan.js"/>
<svg id="graph" class="graph">
<g id="viewport">
<title>preprocessor.h</title>
<polygon fill="white" stroke="none" points="-4,4 -4,-203 1181.16,-203 1181.16,4 -4,4"/>
<!-- Node1 -->
<g id="node1" class="node"><title>Node1</title>
<polygon fill="#bfbfbf" stroke="black" points="192.396,-179.5 192.396,-198.5 273.396,-198.5 273.396,-179.5 192.396,-179.5"/>
<text text-anchor="middle" x="232.896" y="-186.5" font-family="Helvetica,sans-Serif" font-size="10.00">preprocessor.h</text>
</g>
<!-- Node2 -->
<g id="node2" class="node"><title>Node2</title>
<polygon fill="white" stroke="#bfbfbf" points="21.8957,-62 21.8957,-81 73.8957,-81 73.8957,-62 21.8957,-62"/>
<text text-anchor="middle" x="47.8957" y="-69" font-family="Helvetica,sans-Serif" font-size="10.00">memory</text>
</g>
<!-- Node1&#45;&gt;Node2 -->
<g id="edge1" class="edge"><title>Node1&#45;&gt;Node2</title>
<path fill="none" stroke="midnightblue" d="M224.182,-179.125C210.681,-165.722 183.487,-140.07 156.896,-123 143.062,-114.119 104.934,-97.0268 77.677,-85.2033"/>
<polygon fill="midnightblue" stroke="midnightblue" points="78.7604,-81.8588 68.192,-81.1106 75.9871,-88.2861 78.7604,-81.8588"/>
</g>
<!-- Node3 -->
<g id="node3" class="node"><title>Node3</title>
<polygon fill="white" stroke="#bfbfbf" points="117.896,-123.5 117.896,-142.5 147.896,-142.5 147.896,-123.5 117.896,-123.5"/>
<text text-anchor="middle" x="132.896" y="-130.5" font-family="Helvetica,sans-Serif" font-size="10.00">set</text>
</g>
<!-- Node1&#45;&gt;Node3 -->
<g id="edge2" class="edge"><title>Node1&#45;&gt;Node3</title>
<path fill="none" stroke="midnightblue" d="M216.829,-179.324C200.656,-170.59 175.514,-157.014 156.96,-146.995"/>
<polygon fill="midnightblue" stroke="midnightblue" points="158.403,-143.796 147.941,-142.125 155.077,-149.956 158.403,-143.796"/>
</g>
<!-- Node4 -->
<g id="node4" class="node"><title>Node4</title>
<polygon fill="white" stroke="#bfbfbf" points="92.3957,-62 92.3957,-81 175.396,-81 175.396,-62 92.3957,-62"/>
<text text-anchor="middle" x="133.896" y="-69" font-family="Helvetica,sans-Serif" font-size="10.00">unordered_map</text>
</g>
<!-- Node1&#45;&gt;Node4 -->
<g id="edge3" class="edge"><title>Node1&#45;&gt;Node4</title>
<path fill="none" stroke="midnightblue" d="M227.978,-179.096C220.588,-166.095 205.784,-141.458 189.896,-123 178.734,-110.033 164.374,-97.1448 152.991,-87.6339"/>
<polygon fill="midnightblue" stroke="midnightblue" points="154.925,-84.6943 144.968,-81.0739 150.494,-90.1134 154.925,-84.6943"/>
</g>
<!-- Node5 -->
<g id="node5" class="node"><title>Node5</title>
<polygon fill="white" stroke="#bfbfbf" points="465.896,-0.5 465.896,-19.5 505.896,-19.5 505.896,-0.5 465.896,-0.5"/>
<text text-anchor="middle" x="485.896" y="-7.5" font-family="Helvetica,sans-Serif" font-size="10.00">utility</text>
</g>
<!-- Node1&#45;&gt;Node5 -->
<g id="edge4" class="edge"><title>Node1&#45;&gt;Node5</title>
<path fill="none" stroke="midnightblue" d="M192.326,-180.226C113.915,-163.542 -45.7655,-120.507 12.8957,-56 42.7176,-23.2062 355.907,-13.7578 455.6,-11.5706"/>
<polygon fill="midnightblue" stroke="midnightblue" points="455.961,-15.0639 465.885,-11.3544 455.814,-8.06545 455.961,-15.0639"/>
</g>
<!-- Node6 -->
<g id="node6" class="node"><title>Node6</title>
<polygon fill="white" stroke="#bfbfbf" points="1049.9,-0.5 1049.9,-19.5 1093.9,-19.5 1093.9,-0.5 1049.9,-0.5"/>
<text text-anchor="middle" x="1071.9" y="-7.5" font-family="Helvetica,sans-Serif" font-size="10.00">vector</text>
</g>
<!-- Node1&#45;&gt;Node6 -->
<g id="edge5" class="edge"><title>Node1&#45;&gt;Node6</title>
<path fill="none" stroke="midnightblue" d="M273.531,-186.817C446.002,-181.378 1111.35,-156.021 1170.9,-87 1179.9,-76.5682 1178.35,-67.584 1170.9,-56 1156.27,-33.2871 1127.07,-21.9059 1104.15,-16.2847"/>
<polygon fill="midnightblue" stroke="midnightblue" points="1104.66,-12.8125 1094.14,-14.0874 1103.15,-19.6498 1104.66,-12.8125"/>
</g>
<!-- Node7 -->
<g id="node7" class="node"><title>Node7</title>
<polygon fill="white" stroke="#bfbfbf" points="193.396,-62 193.396,-81 310.396,-81 310.396,-62 193.396,-62"/>
<text text-anchor="middle" x="251.896" y="-69" font-family="Helvetica,sans-Serif" font-size="10.00">boost/noncopyable.hpp</text>
</g>
<!-- Node1&#45;&gt;Node7 -->
<g id="edge6" class="edge"><title>Node1&#45;&gt;Node7</title>
<path fill="none" stroke="midnightblue" d="M234.324,-179.319C237.377,-160.757 244.602,-116.839 248.775,-91.4734"/>
<polygon fill="midnightblue" stroke="midnightblue" points="252.281,-91.7175 250.451,-81.282 245.374,-90.5812 252.281,-91.7175"/>
</g>
<!-- Node8 -->
<g id="node8" class="node"><title>Node8</title>
<polygon fill="white" stroke="#bfbfbf" points="654.396,-123.5 654.396,-142.5 783.396,-142.5 783.396,-123.5 654.396,-123.5"/>
<text text-anchor="middle" x="718.896" y="-130.5" font-family="Helvetica,sans-Serif" font-size="10.00">boost/unordered_map.hpp</text>
</g>
<!-- Node1&#45;&gt;Node8 -->
<g id="edge7" class="edge"><title>Node1&#45;&gt;Node8</title>
<path fill="none" stroke="midnightblue" d="M273.556,-183.726C345.765,-176.099 501.39,-159.498 644.077,-143.082"/>
<polygon fill="midnightblue" stroke="midnightblue" points="644.794,-146.522 654.327,-141.9 643.992,-139.568 644.794,-146.522"/>
</g>
<!-- Node9 -->
<g id="node9" class="node"><title>Node9</title>
<g id="a_node9"><a xlink:href="pdag_8h.xhtml" target="_top" xlink:title="Classes and facilities to represent fault trees as PDAGs with event and gate indices instead of ID na...">
<polygon fill="white" stroke="black" points="589.896,-123.5 589.896,-142.5 635.896,-142.5 635.896,-123.5 589.896,-123.5"/>
<text text-anchor="middle" x="612.896" y="-130.5" font-family="Helvetica,sans-Serif" font-size="10.00">pdag.h</text>
</a>
</g>
</g>
<!-- Node1&#45;&gt;Node9 -->
<g id="edge8" class="edge"><title>Node1&#45;&gt;Node9</title>
<path fill="none" stroke="midnightblue" d="M273.562,-182.221C349.14,-171.481 509.879,-148.639 579.543,-138.74"/>
<polygon fill="midnightblue" stroke="midnightblue" points="580.12,-142.193 589.528,-137.321 579.135,-135.263 580.12,-142.193"/>
</g>
<!-- Node9&#45;&gt;Node2 -->
<g id="edge13" class="edge"><title>Node9&#45;&gt;Node2</title>
<path fill="none" stroke="midnightblue" d="M589.763,-132.546C515.132,-133.779 274.461,-133.622 82.8957,-87 80.3793,-86.3876 77.8091,-85.6205 75.261,-84.7609"/>
<polygon fill="midnightblue" stroke="midnightblue" points="76.2954,-81.4096 65.7045,-81.118 73.8019,-87.9505 76.2954,-81.4096"/>
</g>
<!-- Node9&#45;&gt;Node4 -->
<g id="edge14" class="edge"><title>Node9&#45;&gt;Node4</title>
<path fill="none" stroke="midnightblue" d="M589.894,-131.026C525.329,-127.986 337.126,-117.008 183.896,-87 179.383,-86.1163 174.69,-85.0112 170.065,-83.8076"/>
<polygon fill="midnightblue" stroke="midnightblue" points="170.72,-80.3573 160.148,-81.0629 168.853,-87.1036 170.72,-80.3573"/>
</g>
<!-- Node9&#45;&gt;Node5 -->
<g id="edge15" class="edge"><title>Node9&#45;&gt;Node5</title>
<path fill="none" stroke="midnightblue" d="M635.923,-124.993C669.374,-114.586 728.076,-95.3739 733.896,-87 741.759,-75.6864 742.726,-66.5763 733.896,-56 706.505,-23.1916 576.517,-14.251 516.455,-11.8562"/>
<polygon fill="midnightblue" stroke="midnightblue" points="516.214,-8.34525 506.094,-11.4809 515.961,-15.3407 516.214,-8.34525"/>
</g>
<!-- Node9&#45;&gt;Node6 -->
<g id="edge16" class="edge"><title>Node9&#45;&gt;Node6</title>
<path fill="none" stroke="midnightblue" d="M636.205,-125.037C639.438,-124.249 642.734,-123.538 645.896,-123 701.68,-113.51 1115.32,-128.402 1153.9,-87 1163.29,-76.9192 1160.91,-67.8565 1153.9,-56 1143.08,-37.7241 1121.91,-26.377 1103.8,-19.649"/>
<polygon fill="midnightblue" stroke="midnightblue" points="1104.72,-16.2679 1094.13,-16.3718 1102.48,-22.8973 1104.72,-16.2679"/>
</g>
<!-- Node9&#45;&gt;Node7 -->
<g id="edge18" class="edge"><title>Node9&#45;&gt;Node7</title>
<path fill="none" stroke="midnightblue" d="M589.65,-128.894C539.979,-122.157 419.873,-105.321 319.896,-87 313.506,-85.8292 306.799,-84.5098 300.188,-83.1562"/>
<polygon fill="midnightblue" stroke="midnightblue" points="300.446,-79.6345 289.941,-81.0173 299.015,-86.4868 300.446,-79.6345"/>
</g>
<!-- Node10 -->
<g id="node10" class="node"><title>Node10</title>
<polygon fill="white" stroke="#bfbfbf" points="1034.9,-62 1034.9,-81 1080.9,-81 1080.9,-62 1034.9,-62"/>
<text text-anchor="middle" x="1057.9" y="-69" font-family="Helvetica,sans-Serif" font-size="10.00">cstdint</text>
</g>
<!-- Node9&#45;&gt;Node10 -->
<g id="edge9" class="edge"><title>Node9&#45;&gt;Node10</title>
<path fill="none" stroke="midnightblue" d="M636.218,-125.107C639.449,-124.308 642.741,-123.575 645.896,-123 812.789,-92.5695 861.95,-130.605 1025.9,-87 1028.05,-86.4268 1030.24,-85.7216 1032.42,-84.9337"/>
<polygon fill="midnightblue" stroke="midnightblue" points="1033.77,-88.162 1041.67,-81.1039 1031.09,-81.694 1033.77,-88.162"/>
</g>
<!-- Node11 -->
<g id="node11" class="node"><title>Node11</title>
<polygon fill="white" stroke="#bfbfbf" points="1099.4,-62 1099.4,-81 1144.4,-81 1144.4,-62 1099.4,-62"/>
<text text-anchor="middle" x="1121.9" y="-69" font-family="Helvetica,sans-Serif" font-size="10.00">cstdlib</text>
</g>
<!-- Node9&#45;&gt;Node11 -->
<g id="edge10" class="edge"><title>Node9&#45;&gt;Node11</title>
<path fill="none" stroke="midnightblue" d="M636.21,-125.067C639.443,-124.274 642.737,-123.554 645.896,-123 840.902,-88.8072 898.226,-136.59 1089.9,-87 1092.05,-86.4414 1094.25,-85.7466 1096.43,-84.9659"/>
<polygon fill="midnightblue" stroke="midnightblue" points="1097.77,-88.1967 1105.68,-81.1493 1095.1,-81.7252 1097.77,-88.1967"/>
</g>
<!-- Node12 -->
<g id="node12" class="node"><title>Node12</title>
<polygon fill="white" stroke="#bfbfbf" points="870.896,-0.5 870.896,-19.5 926.896,-19.5 926.896,-0.5 870.896,-0.5"/>
<text text-anchor="middle" x="898.896" y="-7.5" font-family="Helvetica,sans-Serif" font-size="10.00">algorithm</text>
</g>
<!-- Node9&#45;&gt;Node12 -->
<g id="edge11" class="edge"><title>Node9&#45;&gt;Node12</title>
<path fill="none" stroke="midnightblue" d="M636.251,-125.278C639.477,-124.453 642.759,-123.667 645.896,-123 697.358,-112.061 841.016,-122.446 879.896,-87 895.725,-72.5683 899.269,-47.1274 899.652,-29.6863"/>
<polygon fill="midnightblue" stroke="midnightblue" points="903.151,-29.5387 899.545,-19.5763 896.151,-29.6129 903.151,-29.5387"/>
</g>
<!-- Node13 -->
<g id="node13" class="node"><title>Node13</title>
<polygon fill="white" stroke="#bfbfbf" points="439.396,-62 439.396,-81 484.396,-81 484.396,-62 439.396,-62"/>
<text text-anchor="middle" x="461.896" y="-69" font-family="Helvetica,sans-Serif" font-size="10.00">iosfwd</text>
</g>
<!-- Node9&#45;&gt;Node13 -->
<g id="edge12" class="edge"><title>Node9&#45;&gt;Node13</title>
<path fill="none" stroke="midnightblue" d="M589.464,-123.641C565.339,-114.918 526.739,-100.635 493.896,-87 492.523,-86.43 491.121,-85.837 489.708,-85.2307"/>
<polygon fill="midnightblue" stroke="midnightblue" points="490.983,-81.9678 480.421,-81.1364 488.159,-88.373 490.983,-81.9678"/>
</g>
<!-- Node14 -->
<g id="node14" class="node"><title>Node14</title>
<polygon fill="white" stroke="#bfbfbf" points="502.896,-56.5 502.896,-86.5 602.896,-86.5 602.896,-56.5 502.896,-56.5"/>
<text text-anchor="start" x="510.896" y="-74.5" font-family="Helvetica,sans-Serif" font-size="10.00">boost/container/flat</text>
<text text-anchor="middle" x="552.896" y="-63.5" font-family="Helvetica,sans-Serif" font-size="10.00">_set.hpp</text>
</g>
<!-- Node9&#45;&gt;Node14 -->
<g id="edge17" class="edge"><title>Node9&#45;&gt;Node14</title>
<path fill="none" stroke="midnightblue" d="M604.299,-123.475C596.477,-115.718 584.603,-103.943 574.238,-93.6645"/>
<polygon fill="midnightblue" stroke="midnightblue" points="576.602,-91.0792 567.036,-86.523 571.673,-96.0496 576.602,-91.0792"/>
</g>
<!-- Node15 -->
<g id="node15" class="node"><title>Node15</title>
<polygon fill="white" stroke="#bfbfbf" points="621.396,-56.5 621.396,-86.5 724.396,-86.5 724.396,-56.5 621.396,-56.5"/>
<text text-anchor="start" x="629.396" y="-74.5" font-family="Helvetica,sans-Serif" font-size="10.00">boost/range/adaptor</text>
<text text-anchor="middle" x="672.896" y="-63.5" font-family="Helvetica,sans-Serif" font-size="10.00">/transformed.hpp</text>
</g>
<!-- Node9&#45;&gt;Node15 -->
<g id="edge19" class="edge"><title>Node9&#45;&gt;Node15</title>
<path fill="none" stroke="midnightblue" d="M621.492,-123.475C629.315,-115.718 641.188,-103.943 651.553,-93.6645"/>
<polygon fill="midnightblue" stroke="midnightblue" points="654.119,-96.0496 658.755,-86.523 649.19,-91.0792 654.119,-96.0496"/>
</g>
<!-- Node16 -->
<g id="node16" class="node"><title>Node16</title>
<g id="a_node16"><a xlink:href="find__iterator_8h.xhtml" target="_top" xlink:title="Convenience iterator adaptor to wrap find calls and results. ">
<polygon fill="white" stroke="black" points="328.896,-62 328.896,-81 420.896,-81 420.896,-62 328.896,-62"/>
<text text-anchor="middle" x="374.896" y="-69" font-family="Helvetica,sans-Serif" font-size="10.00">ext/find_iterator.h</text>
</a>
</g>
</g>
<!-- Node9&#45;&gt;Node16 -->
<g id="edge20" class="edge"><title>Node9&#45;&gt;Node16</title>
<path fill="none" stroke="midnightblue" d="M589.754,-126.44C555,-118.061 487.281,-101.619 429.896,-87 425.581,-85.9007 421.079,-84.7388 416.591,-83.5704"/>
<polygon fill="midnightblue" stroke="midnightblue" points="417.424,-80.1707 406.864,-81.0241 415.651,-86.9425 417.424,-80.1707"/>
</g>
<!-- Node17 -->
<g id="node17" class="node"><title>Node17</title>
<g id="a_node17"><a xlink:href="index__map_8h.xhtml" target="_top" xlink:title="Non&#45;zero based Index&#45;&gt;Value map adapter on sequential containers. ">
<polygon fill="white" stroke="black" points="927.396,-62 927.396,-81 1016.4,-81 1016.4,-62 927.396,-62"/>
<text text-anchor="middle" x="971.896" y="-69" font-family="Helvetica,sans-Serif" font-size="10.00">ext/index_map.h</text>
</a>
</g>
</g>
<!-- Node9&#45;&gt;Node17 -->
<g id="edge22" class="edge"><title>Node9&#45;&gt;Node17</title>
<path fill="none" stroke="midnightblue" d="M636.24,-125.223C639.468,-124.407 642.753,-123.638 645.896,-123 763.246,-99.1951 795.254,-109.321 912.896,-87 918.401,-85.9555 924.162,-84.72 929.836,-83.4179"/>
<polygon fill="midnightblue" stroke="midnightblue" points="930.962,-86.7479 939.88,-81.0288 929.342,-79.9378 930.962,-86.7479"/>
</g>
<!-- Node18 -->
<g id="node18" class="node"><title>Node18</title>
<g id="a_node18"><a xlink:href="linear__map_8h.xhtml" target="_top" xlink:title="Implementation of a vector&#45;based map for a small number of entries. ">
<polygon fill="white" stroke="black" points="781.396,-62 781.396,-81 870.396,-81 870.396,-62 781.396,-62"/>
<text text-anchor="middle" x="825.896" y="-69" font-family="Helvetica,sans-Serif" font-size="10.00">ext/linear_map.h</text>
</a>
</g>
</g>
<!-- Node9&#45;&gt;Node18 -->
<g id="edge24" class="edge"><title>Node9&#45;&gt;Node18</title>
<path fill="none" stroke="midnightblue" d="M636.096,-125.519C671.907,-115.516 741.125,-96.1802 785.339,-83.8292"/>
<polygon fill="midnightblue" stroke="midnightblue" points="786.499,-87.1393 795.188,-81.0779 784.615,-80.3974 786.499,-87.1393"/>
</g>
<!-- Node16&#45;&gt;Node5 -->
<g id="edge21" class="edge"><title>Node16&#45;&gt;Node5</title>
<path fill="none" stroke="midnightblue" d="M390.799,-61.9751C409.18,-52.1222 439.652,-35.7883 461.14,-24.2697"/>
<polygon fill="midnightblue" stroke="midnightblue" points="462.862,-27.3183 470.022,-19.5091 459.554,-21.1488 462.862,-27.3183"/>
</g>
<!-- Node17&#45;&gt;Node6 -->
<g id="edge23" class="edge"><title>Node17&#45;&gt;Node6</title>
<path fill="none" stroke="midnightblue" d="M986.223,-61.9751C1002.56,-52.2548 1029.5,-36.2266 1048.81,-24.7372"/>
<polygon fill="midnightblue" stroke="midnightblue" points="1050.79,-27.6303 1057.59,-19.5091 1047.21,-21.6146 1050.79,-27.6303"/>
</g>
<!-- Node18&#45;&gt;Node5 -->
<g id="edge30" class="edge"><title>Node18&#45;&gt;Node5</title>
<path fill="none" stroke="midnightblue" d="M793.235,-61.9659C784.695,-59.8737 775.476,-57.7384 766.896,-56 676.256,-37.6367 567.931,-22.0687 516.244,-15.026"/>
<polygon fill="midnightblue" stroke="midnightblue" points="516.48,-11.5261 506.101,-13.6546 515.542,-18.463 516.48,-11.5261"/>
</g>
<!-- Node18&#45;&gt;Node6 -->
<g id="edge29" class="edge"><title>Node18&#45;&gt;Node6</title>
<path fill="none" stroke="midnightblue" d="M861.141,-61.9751C909.064,-50.384 994.071,-29.8234 1040.12,-18.6852"/>
<polygon fill="midnightblue" stroke="midnightblue" points="1040.97,-22.0806 1049.87,-16.3277 1039.33,-15.2768 1040.97,-22.0806"/>
</g>
<!-- Node18&#45;&gt;Node12 -->
<g id="edge26" class="edge"><title>Node18&#45;&gt;Node12</title>
<path fill="none" stroke="midnightblue" d="M836.355,-61.9751C847.847,-52.6082 866.525,-37.3839 880.482,-26.0081"/>
<polygon fill="midnightblue" stroke="midnightblue" points="882.916,-28.54 888.456,-19.5091 878.493,-23.114 882.916,-28.54"/>
</g>
<!-- Node19 -->
<g id="node19" class="node"><title>Node19</title>
<polygon fill="white" stroke="#bfbfbf" points="803.396,-0.5 803.396,-19.5 852.396,-19.5 852.396,-0.5 803.396,-0.5"/>
<text text-anchor="middle" x="827.896" y="-7.5" font-family="Helvetica,sans-Serif" font-size="10.00">cassert</text>
</g>
<!-- Node18&#45;&gt;Node19 -->
<g id="edge25" class="edge"><title>Node18&#45;&gt;Node19</title>
<path fill="none" stroke="midnightblue" d="M826.182,-61.9751C826.464,-53.5803 826.905,-40.4806 827.268,-29.6631"/>
<polygon fill="midnightblue" stroke="midnightblue" points="830.772,-29.6211 827.61,-19.5091 823.776,-29.3858 830.772,-29.6211"/>
</g>
<!-- Node20 -->
<g id="node20" class="node"><title>Node20</title>
<polygon fill="white" stroke="#bfbfbf" points="635.396,-0.5 635.396,-19.5 708.396,-19.5 708.396,-0.5 635.396,-0.5"/>
<text text-anchor="middle" x="671.896" y="-7.5" font-family="Helvetica,sans-Serif" font-size="10.00">initializer_list</text>
</g>
<!-- Node18&#45;&gt;Node20 -->
<g id="edge27" class="edge"><title>Node18&#45;&gt;Node20</title>
<path fill="none" stroke="midnightblue" d="M803.831,-61.9751C777.529,-51.8129 733.383,-34.7564 703.471,-23.1996"/>
<polygon fill="midnightblue" stroke="midnightblue" points="704.509,-19.8483 693.919,-19.5091 701.986,-26.3779 704.509,-19.8483"/>
</g>
<!-- Node21 -->
<g id="node21" class="node"><title>Node21</title>
<polygon fill="white" stroke="#bfbfbf" points="726.396,-0.5 726.396,-19.5 785.396,-19.5 785.396,-0.5 726.396,-0.5"/>
<text text-anchor="middle" x="755.896" y="-7.5" font-family="Helvetica,sans-Serif" font-size="10.00">stdexcept</text>
</g>
<!-- Node18&#45;&gt;Node21 -->
<g id="edge28" class="edge"><title>Node18&#45;&gt;Node21</title>
<path fill="none" stroke="midnightblue" d="M815.866,-61.9751C804.847,-52.6082 786.936,-37.3839 773.552,-26.0081"/>
<polygon fill="midnightblue" stroke="midnightblue" points="775.793,-23.3188 765.906,-19.5091 771.259,-28.6524 775.793,-23.3188"/>
</g>
</g>
</svg>
        <g id="navigator" transform="translate(0 0)" fill="#404254">
                <rect fill="#f2f5e9" fill-opacity="0.5" stroke="#606060" stroke-width=".5" x="0" y="0" width="60" height="60"/>
                <use id="zoomplus" xlink:href="#zoomPlus" x="17" y="9" onmousedown="handleZoom(evt,'in')"/>
                <use id="zoomminus" xlink:href="#zoomMin" x="42" y="9" onmousedown="handleZoom(evt,'out')"/>
                <use id="reset" xlink:href="#resetDef" x="30" y="36" onmousedown="handleReset()"/>
                <g id="arrowUp" xlink:href="#dirArrow" transform="translate(30 24)" onmousedown="handlePan(0,-1)">
                  <use xlink:href="#rim" fill="#404040">
                        <set attributeName="fill" to="#808080" begin="arrowUp.mouseover" end="arrowUp.mouseout"/>
                  </use>
                  <path fill="none" stroke="white" stroke-width="1.5" d="M0,-3.0v7 M-2.5,-0.5L0,-3.0L2.5,-0.5"/>
                </g>
                <g id="arrowRight" xlink:href="#dirArrow" transform="rotate(90) translate(36 -43)" onmousedown="handlePan(1,0)">
                  <use xlink:href="#rim" fill="#404040">
                        <set attributeName="fill" to="#808080" begin="arrowRight.mouseover" end="arrowRight.mouseout"/>
                  </use>
                  <path fill="none" stroke="white" stroke-width="1.5" d="M0,-3.0v7 M-2.5,-0.5L0,-3.0L2.5,-0.5"/>
                </g>
                <g id="arrowDown" xlink:href="#dirArrow" transform="rotate(180) translate(-30 -48)" onmousedown="handlePan(0,1)">
                  <use xlink:href="#rim" fill="#404040">
                        <set attributeName="fill" to="#808080" begin="arrowDown.mouseover" end="arrowDown.mouseout"/>
                  </use>
                  <path fill="none" stroke="white" stroke-width="1.5" d="M0,-3.0v7 M-2.5,-0.5L0,-3.0L2.5,-0.5"/>
                </g>
                <g id="arrowLeft" xlink:href="#dirArrow" transform="rotate(270) translate(-36 17)" onmousedown="handlePan(-1,0)">
                  <use xlink:href="#rim" fill="#404040">
                        <set attributeName="fill" to="#808080" begin="arrowLeft.mouseover" end="arrowLeft.mouseout"/>
                  </use>
                  <path fill="none" stroke="white" stroke-width="1.5" d="M0,-3.0v7 M-2.5,-0.5L0,-3.0L2.5,-0.5"/>
                </g>
        </g>
        <svg viewBox="0 0 15 15" width="100%" height="30px" preserveAspectRatio="xMaxYMin meet">
         <g id="arrow_out" transform="scale(0.3 0.3)">
          <a xlink:href="preprocessor_8h__incl_org.svg" target="_base">
           <rect id="button" ry="5" rx="5" y="6" x="6" height="38" width="38"
                fill="#f2f5e9" fill-opacity="0.5" stroke="#606060" stroke-width="1.0"/>
           <path id="arrow"
             d="M 11.500037,31.436501 C 11.940474,20.09759 22.043105,11.32322 32.158766,21.979434 L 37.068811,17.246167 C 37.068811,17.246167 37.088388,32 37.088388,32 L 22.160133,31.978069 C 22.160133,31.978069 26.997745,27.140456 26.997745,27.140456 C 18.528582,18.264221 13.291696,25.230495 11.500037,31.436501 z"
             style="fill:#404040;"/>
          </a>
         </g>
        </svg>
</svg>
