<?xml version="1.0" encoding="UTF-8" standalone="no"?>
<!DOCTYPE svg PUBLIC "-//W3C//DTD SVG 1.1//EN"
 "http://www.w3.org/Graphics/SVG/1.1/DTD/svg11.dtd">
<!-- Generated by graphviz version 2.38.0 (20140413.2041)
 -->
<!-- Title: random_deviate.h Pages: 1 -->
<svg width="633pt" height="218pt"
 viewBox="0.00 0.00 633.00 218.00" xmlns="http://www.w3.org/2000/svg" xmlns:xlink="http://www.w3.org/1999/xlink">
<g id="graph0" class="graph" transform="scale(1 1) rotate(0) translate(4 214)">
<title>random_deviate.h</title>
<polygon fill="white" stroke="none" points="-4,4 -4,-214 629,-214 629,4 -4,4"/>
<!-- Node1 -->
<g id="node1" class="node"><title>Node1</title>
<polygon fill="#bfbfbf" stroke="black" points="66,-190.5 66,-209.5 160,-209.5 160,-190.5 66,-190.5"/>
<text text-anchor="middle" x="113" y="-197.5" font-family="Helvetica,sans-Serif" font-size="10.00">random_deviate.h</text>
</g>
<!-- Node2 -->
<g id="node2" class="node"><title>Node2</title>
<polygon fill="white" stroke="#bfbfbf" points="50,-67.5 50,-86.5 102,-86.5 102,-67.5 50,-67.5"/>
<text text-anchor="middle" x="76" y="-74.5" font-family="Helvetica,sans-Serif" font-size="10.00">memory</text>
</g>
<!-- Node1&#45;&gt;Node2 -->
<g id="edge1" class="edge"><title>Node1&#45;&gt;Node2</title>
<path fill="none" stroke="midnightblue" d="M108.482,-190.241C104.031,-181.319 97.2918,-166.988 93,-154 86.6508,-134.785 81.9148,-112.06 79.076,-96.4973"/>
<polygon fill="midnightblue" stroke="midnightblue" points="82.5132,-95.8341 77.3482,-86.5836 75.6172,-97.036 82.5132,-95.8341"/>
</g>
<!-- Node3 -->
<g id="node3" class="node"><title>Node3</title>
<polygon fill="white" stroke="#bfbfbf" points="0,-6 0,-25 44,-25 44,-6 0,-6"/>
<text text-anchor="middle" x="22" y="-13" font-family="Helvetica,sans-Serif" font-size="10.00">vector</text>
</g>
<!-- Node1&#45;&gt;Node3 -->
<g id="edge2" class="edge"><title>Node1&#45;&gt;Node3</title>
<path fill="none" stroke="midnightblue" d="M106.411,-190.181C99.7868,-181.212 89.3824,-166.845 81,-154 62.0468,-124.956 54.5289,-118.933 41,-87 33.8986,-70.2379 28.7854,-50.0962 25.6646,-35.6416"/>
<polygon fill="midnightblue" stroke="midnightblue" points="29.0128,-34.5429 23.5889,-25.4417 22.1534,-35.9388 29.0128,-34.5429"/>
</g>
<!-- Node4 -->
<g id="node4" class="node"><title>Node4</title>
<polygon fill="white" stroke="#bfbfbf" points="102.5,-123.5 102.5,-153.5 203.5,-153.5 203.5,-123.5 102.5,-123.5"/>
<text text-anchor="start" x="110.5" y="-141.5" font-family="Helvetica,sans-Serif" font-size="10.00">boost/range/iterator</text>
<text text-anchor="middle" x="153" y="-130.5" font-family="Helvetica,sans-Serif" font-size="10.00">_range.hpp</text>
</g>
<!-- Node1&#45;&gt;Node4 -->
<g id="edge3" class="edge"><title>Node1&#45;&gt;Node4</title>
<path fill="none" stroke="midnightblue" d="M118.731,-190.475C123.743,-183.019 131.251,-171.852 137.962,-161.869"/>
<polygon fill="midnightblue" stroke="midnightblue" points="140.898,-163.775 143.573,-153.523 135.089,-159.869 140.898,-163.775"/>
</g>
<!-- Node5 -->
<g id="node5" class="node"><title>Node5</title>
<g id="a_node5"><a xlink:href="expression_8h.xhtml" target="_top" xlink:title="Provides the base class for all expressions and units for expression values. ">
<polygon fill="white" stroke="black" points="221.5,-129 221.5,-148 310.5,-148 310.5,-129 221.5,-129"/>
<text text-anchor="middle" x="266" y="-136" font-family="Helvetica,sans-Serif" font-size="10.00">src/expression.h</text>
</a>
</g>
</g>
<!-- Node1&#45;&gt;Node5 -->
<g id="edge4" class="edge"><title>Node1&#45;&gt;Node5</title>
<path fill="none" stroke="midnightblue" d="M134.921,-190.475C161.052,-180.313 204.912,-163.256 234.63,-151.7"/>
<polygon fill="midnightblue" stroke="midnightblue" points="236.068,-154.896 244.119,-148.009 233.531,-148.372 236.068,-154.896"/>
</g>
<!-- Node5&#45;&gt;Node2 -->
<g id="edge6" class="edge"><title>Node5&#45;&gt;Node2</title>
<path fill="none" stroke="midnightblue" d="M238.778,-128.975C205.481,-118.548 149.007,-100.863 112.108,-89.3074"/>
<polygon fill="midnightblue" stroke="midnightblue" points="112.844,-85.8704 102.255,-86.222 110.752,-92.5506 112.844,-85.8704"/>
</g>
<!-- Node5&#45;&gt;Node3 -->
<g id="edge7" class="edge"><title>Node5&#45;&gt;Node3</title>
<path fill="none" stroke="midnightblue" d="M266.257,-128.631C266.175,-113.583 263.673,-83.1171 246,-67 181.527,-8.2028 136.072,-57.6983 53,-31 51.3278,-30.4626 49.6283,-29.8559 47.9303,-29.2031"/>
<polygon fill="midnightblue" stroke="midnightblue" points="48.9893,-25.849 38.4194,-25.122 46.2289,-32.2817 48.9893,-25.849"/>
</g>
<!-- Node6 -->
<g id="node6" class="node"><title>Node6</title>
<polygon fill="white" stroke="#bfbfbf" points="579,-6 579,-25 625,-25 625,-6 579,-6"/>
<text text-anchor="middle" x="602" y="-13" font-family="Helvetica,sans-Serif" font-size="10.00">cstdint</text>
</g>
<!-- Node5&#45;&gt;Node6 -->
<g id="edge5" class="edge"><title>Node5&#45;&gt;Node6</title>
<path fill="none" stroke="midnightblue" d="M293.136,-128.888C346.641,-111.712 469.298,-71.363 570,-31 571.415,-30.4327 572.859,-29.8379 574.313,-29.2264"/>
<polygon fill="midnightblue" stroke="midnightblue" points="576.081,-32.2734 583.844,-25.0628 573.279,-25.8588 576.081,-32.2734"/>
</g>
<!-- Node7 -->
<g id="node7" class="node"><title>Node7</title>
<polygon fill="white" stroke="#bfbfbf" points="120.5,-67.5 120.5,-86.5 237.5,-86.5 237.5,-67.5 120.5,-67.5"/>
<text text-anchor="middle" x="179" y="-74.5" font-family="Helvetica,sans-Serif" font-size="10.00">boost/noncopyable.hpp</text>
</g>
<!-- Node5&#45;&gt;Node7 -->
<g id="edge8" class="edge"><title>Node5&#45;&gt;Node7</title>
<path fill="none" stroke="midnightblue" d="M253.535,-128.975C239.581,-119.431 216.735,-103.807 200.009,-92.3683"/>
<polygon fill="midnightblue" stroke="midnightblue" points="201.672,-89.2653 191.442,-86.5091 197.72,-95.0433 201.672,-89.2653"/>
</g>
<!-- Node8 -->
<g id="node8" class="node"><title>Node8</title>
<g id="a_node8"><a xlink:href="element_8h.xhtml" target="_top" xlink:title="Helper classes, structs, and properties common to all other classes. ">
<polygon fill="white" stroke="black" points="294.5,-67.5 294.5,-86.5 353.5,-86.5 353.5,-67.5 294.5,-67.5"/>
<text text-anchor="middle" x="324" y="-74.5" font-family="Helvetica,sans-Serif" font-size="10.00">element.h</text>
</a>
</g>
</g>
<!-- Node5&#45;&gt;Node8 -->
<g id="edge9" class="edge"><title>Node5&#45;&gt;Node8</title>
<path fill="none" stroke="midnightblue" d="M274.31,-128.975C283.182,-119.873 297.446,-105.241 308.42,-93.983"/>
<polygon fill="midnightblue" stroke="midnightblue" points="311.231,-96.113 315.705,-86.5091 306.219,-91.2268 311.231,-96.113"/>
</g>
<!-- Node8&#45;&gt;Node3 -->
<g id="edge12" class="edge"><title>Node8&#45;&gt;Node3</title>
<path fill="none" stroke="midnightblue" d="M294.213,-69.7204C289.465,-68.7735 284.603,-67.8353 280,-67 179.492,-48.7603 150.666,-60.933 53,-31 51.1253,-30.4254 49.2189,-29.7581 47.32,-29.0314"/>
<polygon fill="midnightblue" stroke="midnightblue" points="48.64,-25.7892 38.0703,-25.0583 45.8772,-32.2209 48.64,-25.7892"/>
</g>
<!-- Node8&#45;&gt;Node6 -->
<g id="edge10" class="edge"><title>Node8&#45;&gt;Node6</title>
<path fill="none" stroke="midnightblue" d="M353.72,-72.9401C400.538,-67.5938 493.964,-54.7867 570,-31 571.877,-30.4127 573.789,-29.7433 575.698,-29.0217"/>
<polygon fill="midnightblue" stroke="midnightblue" points="577.155,-32.206 585.03,-25.1185 574.454,-25.7481 577.155,-32.206"/>
</g>
<!-- Node9 -->
<g id="node9" class="node"><title>Node9</title>
<polygon fill="white" stroke="#bfbfbf" points="62.5,-6 62.5,-25 103.5,-25 103.5,-6 62.5,-6"/>
<text text-anchor="middle" x="83" y="-13" font-family="Helvetica,sans-Serif" font-size="10.00">string</text>
</g>
<!-- Node8&#45;&gt;Node9 -->
<g id="edge11" class="edge"><title>Node8&#45;&gt;Node9</title>
<path fill="none" stroke="midnightblue" d="M294.234,-69.8901C237.919,-58.3015 120.613,-34.0118 112,-31 110.572,-30.5006 109.124,-29.9463 107.677,-29.3541"/>
<polygon fill="midnightblue" stroke="midnightblue" points="108.885,-26.0578 98.3353,-25.0763 105.97,-32.4222 108.885,-26.0578"/>
</g>
<!-- Node10 -->
<g id="node10" class="node"><title>Node10</title>
<polygon fill="white" stroke="#bfbfbf" points="121.5,-6 121.5,-25 278.5,-25 278.5,-6 121.5,-6"/>
<text text-anchor="middle" x="200" y="-13" font-family="Helvetica,sans-Serif" font-size="10.00">boost/multi_index_container.hpp</text>
</g>
<!-- Node8&#45;&gt;Node10 -->
<g id="edge13" class="edge"><title>Node8&#45;&gt;Node10</title>
<path fill="none" stroke="midnightblue" d="M306.234,-67.4751C285.516,-57.5338 251.048,-40.9947 227.011,-29.461"/>
<polygon fill="midnightblue" stroke="midnightblue" points="228.263,-26.1797 217.733,-25.0091 225.235,-32.4908 228.263,-26.1797"/>
</g>
<!-- Node11 -->
<g id="node11" class="node"><title>Node11</title>
<polygon fill="white" stroke="#bfbfbf" points="297,-0.5 297,-30.5 425,-30.5 425,-0.5 297,-0.5"/>
<text text-anchor="start" x="305" y="-18.5" font-family="Helvetica,sans-Serif" font-size="10.00">boost/multi_index/hashed</text>
<text text-anchor="middle" x="361" y="-7.5" font-family="Helvetica,sans-Serif" font-size="10.00">_index.hpp</text>
</g>
<!-- Node8&#45;&gt;Node11 -->
<g id="edge14" class="edge"><title>Node8&#45;&gt;Node11</title>
<path fill="none" stroke="midnightblue" d="M329.301,-67.4751C333.891,-60.0945 340.742,-49.0772 346.902,-39.1714"/>
<polygon fill="midnightblue" stroke="midnightblue" points="349.971,-40.8632 352.28,-30.523 344.027,-37.1667 349.971,-40.8632"/>
</g>
<!-- Node12 -->
<g id="node12" class="node"><title>Node12</title>
<polygon fill="white" stroke="#bfbfbf" points="443,-0.5 443,-30.5 561,-30.5 561,-0.5 443,-0.5"/>
<text text-anchor="start" x="451" y="-18.5" font-family="Helvetica,sans-Serif" font-size="10.00">boost/multi_index/mem</text>
<text text-anchor="middle" x="502" y="-7.5" font-family="Helvetica,sans-Serif" font-size="10.00">_fun.hpp</text>
</g>
<!-- Node8&#45;&gt;Node12 -->
<g id="edge15" class="edge"><title>Node8&#45;&gt;Node12</title>
<path fill="none" stroke="midnightblue" d="M349.503,-67.4751C375.751,-58.7012 417.374,-44.788 450.508,-33.7123"/>
<polygon fill="midnightblue" stroke="midnightblue" points="451.674,-37.0128 460.049,-30.523 449.455,-30.3738 451.674,-37.0128"/>
</g>
</g>
</svg>
