<?xml version="1.0" encoding="UTF-8" standalone="no"?>
<!DOCTYPE svg PUBLIC "-//W3C//DTD SVG 1.1//EN"
 "http://www.w3.org/Graphics/SVG/1.1/DTD/svg11.dtd">
<!-- Generated by graphviz version 2.38.0 (20140413.2041)
 -->
<!-- Title: random_deviate.cc Pages: 1 -->
<svg width="1707pt" height="285pt"
 viewBox="0.00 0.00 1706.92 285.00" xmlns="http://www.w3.org/2000/svg" xmlns:xlink="http://www.w3.org/1999/xlink">
<g id="graph0" class="graph" transform="scale(1 1) rotate(0) translate(4 281)">
<title>random_deviate.cc</title>
<polygon fill="white" stroke="none" points="-4,4 -4,-281 1702.92,-281 1702.92,4 -4,4"/>
<!-- Node1 -->
<g id="node1" class="node"><title>Node1</title>
<polygon fill="#bfbfbf" stroke="black" points="903.919,-257.5 903.919,-276.5 1002.92,-276.5 1002.92,-257.5 903.919,-257.5"/>
<text text-anchor="middle" x="953.419" y="-264.5" font-family="Helvetica,sans-Serif" font-size="10.00">random_deviate.cc</text>
</g>
<!-- Node2 -->
<g id="node2" class="node"><title>Node2</title>
<g id="a_node2"><a xlink:href="random__deviate_8h.xhtml" target="_top" xlink:title="A collection of deviate expressions with random distributions sampled at run&#45;time. ">
<polygon fill="white" stroke="black" points="103.419,-196 103.419,-215 197.419,-215 197.419,-196 103.419,-196"/>
<text text-anchor="middle" x="150.419" y="-203" font-family="Helvetica,sans-Serif" font-size="10.00">random_deviate.h</text>
</a>
</g>
</g>
<!-- Node1&#45;&gt;Node2 -->
<g id="edge1" class="edge"><title>Node1&#45;&gt;Node2</title>
<path fill="none" stroke="midnightblue" d="M903.794,-262.323C762.461,-251.851 358.339,-221.906 207.827,-210.754"/>
<polygon fill="midnightblue" stroke="midnightblue" points="207.667,-207.232 197.436,-209.984 207.15,-214.213 207.667,-207.232"/>
</g>
<!-- Node14 -->
<g id="node14" class="node"><title>Node14</title>
<polygon fill="white" stroke="#bfbfbf" points="630.419,-129 630.419,-148 674.419,-148 674.419,-129 630.419,-129"/>
<text text-anchor="middle" x="652.419" y="-136" font-family="Helvetica,sans-Serif" font-size="10.00">cmath</text>
</g>
<!-- Node1&#45;&gt;Node14 -->
<g id="edge17" class="edge"><title>Node1&#45;&gt;Node14</title>
<path fill="none" stroke="midnightblue" d="M903.741,-266.638C852.89,-265.108 773.324,-256.486 715.419,-221 690.215,-205.554 671.294,-176.077 661.05,-157.128"/>
<polygon fill="midnightblue" stroke="midnightblue" points="664.075,-155.357 656.381,-148.073 657.853,-158.565 664.075,-155.357"/>
</g>
<!-- Node15 -->
<g id="node15" class="node"><title>Node15</title>
<polygon fill="white" stroke="#bfbfbf" points="816.919,-196 816.919,-215 875.919,-215 875.919,-196 816.919,-196"/>
<text text-anchor="middle" x="846.419" y="-203" font-family="Helvetica,sans-Serif" font-size="10.00">functional</text>
</g>
<!-- Node1&#45;&gt;Node15 -->
<g id="edge18" class="edge"><title>Node1&#45;&gt;Node15</title>
<path fill="none" stroke="midnightblue" d="M938.089,-257.475C920.45,-247.666 891.26,-231.435 870.562,-219.925"/>
<polygon fill="midnightblue" stroke="midnightblue" points="872.162,-216.81 861.721,-215.009 868.76,-222.928 872.162,-216.81"/>
</g>
<!-- Node16 -->
<g id="node16" class="node"><title>Node16</title>
<polygon fill="white" stroke="#bfbfbf" points="894.419,-190.5 894.419,-220.5 1012.42,-220.5 1012.42,-190.5 894.419,-190.5"/>
<text text-anchor="start" x="902.419" y="-208.5" font-family="Helvetica,sans-Serif" font-size="10.00">boost/iterator/transform</text>
<text text-anchor="middle" x="953.419" y="-197.5" font-family="Helvetica,sans-Serif" font-size="10.00">_iterator.hpp</text>
</g>
<!-- Node1&#45;&gt;Node16 -->
<g id="edge19" class="edge"><title>Node1&#45;&gt;Node16</title>
<path fill="none" stroke="midnightblue" d="M953.419,-257.475C953.419,-250.471 953.419,-240.192 953.419,-230.696"/>
<polygon fill="midnightblue" stroke="midnightblue" points="956.92,-230.523 953.419,-220.523 949.92,-230.523 956.92,-230.523"/>
</g>
<!-- Node17 -->
<g id="node17" class="node"><title>Node17</title>
<polygon fill="white" stroke="#bfbfbf" points="1030.42,-190.5 1030.42,-220.5 1132.42,-220.5 1132.42,-190.5 1030.42,-190.5"/>
<text text-anchor="start" x="1038.42" y="-208.5" font-family="Helvetica,sans-Serif" font-size="10.00">boost/math/special</text>
<text text-anchor="middle" x="1081.42" y="-197.5" font-family="Helvetica,sans-Serif" font-size="10.00">_functions/beta.hpp</text>
</g>
<!-- Node1&#45;&gt;Node17 -->
<g id="edge20" class="edge"><title>Node1&#45;&gt;Node17</title>
<path fill="none" stroke="midnightblue" d="M971.759,-257.475C989.986,-249.002 1018.52,-235.737 1041.92,-224.863"/>
<polygon fill="midnightblue" stroke="midnightblue" points="1043.66,-227.912 1051.25,-220.523 1040.71,-221.564 1043.66,-227.912"/>
</g>
<!-- Node18 -->
<g id="node18" class="node"><title>Node18</title>
<polygon fill="white" stroke="#bfbfbf" points="1150.92,-190.5 1150.92,-220.5 1249.92,-220.5 1249.92,-190.5 1150.92,-190.5"/>
<text text-anchor="start" x="1158.92" y="-208.5" font-family="Helvetica,sans-Serif" font-size="10.00">boost/math/special</text>
<text text-anchor="middle" x="1200.42" y="-197.5" font-family="Helvetica,sans-Serif" font-size="10.00">_functions/erf.hpp</text>
</g>
<!-- Node1&#45;&gt;Node18 -->
<g id="edge21" class="edge"><title>Node1&#45;&gt;Node18</title>
<path fill="none" stroke="midnightblue" d="M989.476,-257.438C1025.34,-248.907 1082.19,-235.342 1141.01,-221.091"/>
<polygon fill="midnightblue" stroke="midnightblue" points="1141.96,-224.463 1150.85,-218.705 1140.31,-217.66 1141.96,-224.463"/>
</g>
<!-- Node19 -->
<g id="node19" class="node"><title>Node19</title>
<polygon fill="white" stroke="#bfbfbf" points="1268.42,-190.5 1268.42,-220.5 1384.42,-220.5 1384.42,-190.5 1268.42,-190.5"/>
<text text-anchor="start" x="1276.42" y="-208.5" font-family="Helvetica,sans-Serif" font-size="10.00">boost/math/special</text>
<text text-anchor="middle" x="1326.42" y="-197.5" font-family="Helvetica,sans-Serif" font-size="10.00">_functions/gamma.hpp</text>
</g>
<!-- Node1&#45;&gt;Node19 -->
<g id="edge22" class="edge"><title>Node1&#45;&gt;Node19</title>
<path fill="none" stroke="midnightblue" d="M1002.97,-259.675C1061.44,-251.993 1161.8,-238.121 1258.3,-220.944"/>
<polygon fill="midnightblue" stroke="midnightblue" points="1259,-224.374 1268.23,-219.163 1257.77,-217.484 1259,-224.374"/>
</g>
<!-- Node20 -->
<g id="node20" class="node"><title>Node20</title>
<polygon fill="white" stroke="#bfbfbf" points="1402.42,-190.5 1402.42,-220.5 1512.42,-220.5 1512.42,-190.5 1402.42,-190.5"/>
<text text-anchor="start" x="1410.42" y="-208.5" font-family="Helvetica,sans-Serif" font-size="10.00">boost/range/algorithm</text>
<text text-anchor="middle" x="1457.42" y="-197.5" font-family="Helvetica,sans-Serif" font-size="10.00">_ext/is_sorted.hpp</text>
</g>
<!-- Node1&#45;&gt;Node20 -->
<g id="edge23" class="edge"><title>Node1&#45;&gt;Node20</title>
<path fill="none" stroke="midnightblue" d="M1003.17,-262.88C1083.13,-257.435 1245.35,-244.618 1392.24,-221.063"/>
<polygon fill="midnightblue" stroke="midnightblue" points="1393.04,-224.48 1402.34,-219.422 1391.91,-217.571 1393.04,-224.48"/>
</g>
<!-- Node21 -->
<g id="node21" class="node"><title>Node21</title>
<g id="a_node21"><a xlink:href="error_8h.xhtml" target="_top" xlink:title="Exceptions for SCRAM. ">
<polygon fill="white" stroke="black" points="551.919,-196 551.919,-215 612.919,-215 612.919,-196 551.919,-196"/>
<text text-anchor="middle" x="582.419" y="-203" font-family="Helvetica,sans-Serif" font-size="10.00">src/error.h</text>
</a>
</g>
</g>
<!-- Node1&#45;&gt;Node21 -->
<g id="edge24" class="edge"><title>Node1&#45;&gt;Node21</title>
<path fill="none" stroke="midnightblue" d="M903.656,-259.352C844.035,-251.198 741.193,-236.535 653.419,-221 643.581,-219.259 633.015,-217.203 623.118,-215.194"/>
<polygon fill="midnightblue" stroke="midnightblue" points="623.606,-211.721 613.106,-213.134 622.195,-218.578 623.606,-211.721"/>
</g>
<!-- Node23 -->
<g id="node23" class="node"><title>Node23</title>
<g id="a_node23"><a xlink:href="algorithm_8h.xhtml" target="_top" xlink:title="Helpful algorithm facilities as an extension to the STL or Boost. ">
<polygon fill="white" stroke="black" points="1530.42,-196 1530.42,-215 1628.42,-215 1628.42,-196 1530.42,-196"/>
<text text-anchor="middle" x="1579.42" y="-203" font-family="Helvetica,sans-Serif" font-size="10.00">src/ext/algorithm.h</text>
</a>
</g>
</g>
<!-- Node1&#45;&gt;Node23 -->
<g id="edge27" class="edge"><title>Node1&#45;&gt;Node23</title>
<path fill="none" stroke="midnightblue" d="M1003.14,-264.83C1102.31,-261.888 1331.54,-252.036 1521.42,-221 1527.26,-220.045 1533.38,-218.797 1539.35,-217.432"/>
<polygon fill="midnightblue" stroke="midnightblue" points="1540.31,-220.802 1549.21,-215.059 1538.67,-213.997 1540.31,-220.802"/>
</g>
<!-- Node26 -->
<g id="node26" class="node"><title>Node26</title>
<g id="a_node26"><a xlink:href="random_8h.xhtml" target="_top" xlink:title="Contains helpers for randomness simulations. ">
<polygon fill="white" stroke="black" points="724.419,-196 724.419,-215 798.419,-215 798.419,-196 724.419,-196"/>
<text text-anchor="middle" x="761.419" y="-203" font-family="Helvetica,sans-Serif" font-size="10.00">src/random.h</text>
</a>
</g>
</g>
<!-- Node1&#45;&gt;Node26 -->
<g id="edge30" class="edge"><title>Node1&#45;&gt;Node26</title>
<path fill="none" stroke="midnightblue" d="M925.414,-257.426C896.011,-248.411 848.441,-233.787 807.419,-221 804.477,-220.083 801.429,-219.129 798.367,-218.169"/>
<polygon fill="midnightblue" stroke="midnightblue" points="799.242,-214.776 788.653,-215.116 797.144,-221.454 799.242,-214.776"/>
</g>
<!-- Node3 -->
<g id="node3" class="node"><title>Node3</title>
<polygon fill="white" stroke="#bfbfbf" points="76.4194,-67.5 76.4194,-86.5 128.419,-86.5 128.419,-67.5 76.4194,-67.5"/>
<text text-anchor="middle" x="102.419" y="-74.5" font-family="Helvetica,sans-Serif" font-size="10.00">memory</text>
</g>
<!-- Node2&#45;&gt;Node3 -->
<g id="edge2" class="edge"><title>Node2&#45;&gt;Node3</title>
<path fill="none" stroke="midnightblue" d="M149.186,-195.647C146.853,-180.364 141.051,-148.242 130.419,-123 126.268,-113.142 120.113,-102.958 114.63,-94.7763"/>
<polygon fill="midnightblue" stroke="midnightblue" points="117.459,-92.7145 108.868,-86.5143 111.718,-96.7188 117.459,-92.7145"/>
</g>
<!-- Node4 -->
<g id="node4" class="node"><title>Node4</title>
<polygon fill="white" stroke="#bfbfbf" points="18.4194,-6 18.4194,-25 62.4194,-25 62.4194,-6 18.4194,-6"/>
<text text-anchor="middle" x="40.4194" y="-13" font-family="Helvetica,sans-Serif" font-size="10.00">vector</text>
</g>
<!-- Node2&#45;&gt;Node4 -->
<g id="edge3" class="edge"><title>Node2&#45;&gt;Node4</title>
<path fill="none" stroke="midnightblue" d="M103.369,-200.924C71.6828,-195.782 32.0454,-183.439 11.4194,-154 -14.5026,-117.002 12.2471,-61.5891 29.0342,-33.7571"/>
<polygon fill="midnightblue" stroke="midnightblue" points="32.0935,-35.4669 34.4538,-25.1383 26.1677,-31.7406 32.0935,-35.4669"/>
</g>
<!-- Node5 -->
<g id="node5" class="node"><title>Node5</title>
<polygon fill="white" stroke="#bfbfbf" points="20.9194,-123.5 20.9194,-153.5 121.919,-153.5 121.919,-123.5 20.9194,-123.5"/>
<text text-anchor="start" x="28.9194" y="-141.5" font-family="Helvetica,sans-Serif" font-size="10.00">boost/range/iterator</text>
<text text-anchor="middle" x="71.4194" y="-130.5" font-family="Helvetica,sans-Serif" font-size="10.00">_range.hpp</text>
</g>
<!-- Node2&#45;&gt;Node5 -->
<g id="edge4" class="edge"><title>Node2&#45;&gt;Node5</title>
<path fill="none" stroke="midnightblue" d="M139.765,-195.734C128.678,-186.611 110.924,-172.004 96.29,-159.963"/>
<polygon fill="midnightblue" stroke="midnightblue" points="98.489,-157.24 88.543,-153.589 94.0414,-162.645 98.489,-157.24"/>
</g>
<!-- Node6 -->
<g id="node6" class="node"><title>Node6</title>
<g id="a_node6"><a xlink:href="expression_8h.xhtml" target="_top" xlink:title="Provides the base class for all expressions and units for expression values. ">
<polygon fill="white" stroke="black" points="178.919,-129 178.919,-148 267.919,-148 267.919,-129 178.919,-129"/>
<text text-anchor="middle" x="223.419" y="-136" font-family="Helvetica,sans-Serif" font-size="10.00">src/expression.h</text>
</a>
</g>
</g>
<!-- Node2&#45;&gt;Node6 -->
<g id="edge5" class="edge"><title>Node2&#45;&gt;Node6</title>
<path fill="none" stroke="midnightblue" d="M160.265,-195.734C171.976,-185.305 191.739,-167.709 206.042,-154.973"/>
<polygon fill="midnightblue" stroke="midnightblue" points="208.589,-157.391 213.73,-148.127 203.934,-152.163 208.589,-157.391"/>
</g>
<!-- Node6&#45;&gt;Node3 -->
<g id="edge7" class="edge"><title>Node6&#45;&gt;Node3</title>
<path fill="none" stroke="midnightblue" d="M206.083,-128.975C185.866,-119.034 152.232,-102.495 128.777,-90.961"/>
<polygon fill="midnightblue" stroke="midnightblue" points="130.242,-87.781 119.724,-86.5091 127.153,-94.0627 130.242,-87.781"/>
</g>
<!-- Node6&#45;&gt;Node4 -->
<g id="edge8" class="edge"><title>Node6&#45;&gt;Node4</title>
<path fill="none" stroke="midnightblue" d="M213.874,-128.55C198.525,-114.427 167.068,-86.5669 137.419,-67 124.969,-58.7833 91.2552,-41.6262 67.0732,-29.6003"/>
<polygon fill="midnightblue" stroke="midnightblue" points="68.5336,-26.4179 58.0192,-25.1155 65.4265,-32.6906 68.5336,-26.4179"/>
</g>
<!-- Node7 -->
<g id="node7" class="node"><title>Node7</title>
<polygon fill="white" stroke="#bfbfbf" points="80.4194,-6 80.4194,-25 126.419,-25 126.419,-6 80.4194,-6"/>
<text text-anchor="middle" x="103.419" y="-13" font-family="Helvetica,sans-Serif" font-size="10.00">cstdint</text>
</g>
<!-- Node6&#45;&gt;Node7 -->
<g id="edge6" class="edge"><title>Node6&#45;&gt;Node7</title>
<path fill="none" stroke="midnightblue" d="M217.925,-128.638C208.999,-114.634 190.33,-86.9352 170.419,-67 156.656,-53.2195 138.992,-40.0577 125.257,-30.6276"/>
<polygon fill="midnightblue" stroke="midnightblue" points="127.132,-27.6706 116.879,-25.0006 123.229,-33.4816 127.132,-27.6706"/>
</g>
<!-- Node8 -->
<g id="node8" class="node"><title>Node8</title>
<polygon fill="white" stroke="#bfbfbf" points="299.919,-67.5 299.919,-86.5 416.919,-86.5 416.919,-67.5 299.919,-67.5"/>
<text text-anchor="middle" x="358.419" y="-74.5" font-family="Helvetica,sans-Serif" font-size="10.00">boost/noncopyable.hpp</text>
</g>
<!-- Node6&#45;&gt;Node8 -->
<g id="edge9" class="edge"><title>Node6&#45;&gt;Node8</title>
<path fill="none" stroke="midnightblue" d="M242.762,-128.975C265.518,-118.945 303.511,-102.2 329.707,-90.6546"/>
<polygon fill="midnightblue" stroke="midnightblue" points="331.374,-93.7449 339.113,-86.5091 328.551,-87.3395 331.374,-93.7449"/>
</g>
<!-- Node9 -->
<g id="node9" class="node"><title>Node9</title>
<g id="a_node9"><a xlink:href="element_8h.xhtml" target="_top" xlink:title="Helper classes, structs, and properties common to all other classes. ">
<polygon fill="white" stroke="black" points="222.919,-67.5 222.919,-86.5 281.919,-86.5 281.919,-67.5 222.919,-67.5"/>
<text text-anchor="middle" x="252.419" y="-74.5" font-family="Helvetica,sans-Serif" font-size="10.00">element.h</text>
</a>
</g>
</g>
<!-- Node6&#45;&gt;Node9 -->
<g id="edge10" class="edge"><title>Node6&#45;&gt;Node9</title>
<path fill="none" stroke="midnightblue" d="M227.574,-128.975C231.795,-120.315 238.456,-106.649 243.819,-95.6453"/>
<polygon fill="midnightblue" stroke="midnightblue" points="247.037,-97.0317 248.272,-86.5091 240.745,-93.9648 247.037,-97.0317"/>
</g>
<!-- Node9&#45;&gt;Node4 -->
<g id="edge13" class="edge"><title>Node9&#45;&gt;Node4</title>
<path fill="none" stroke="midnightblue" d="M222.75,-70.4657C186.466,-63.2797 123.456,-49.4422 71.4194,-31 69.8024,-30.4269 68.1557,-29.7986 66.5067,-29.1349"/>
<polygon fill="midnightblue" stroke="midnightblue" points="67.7912,-25.8767 57.2261,-25.0832 64.9904,-32.292 67.7912,-25.8767"/>
</g>
<!-- Node9&#45;&gt;Node7 -->
<g id="edge11" class="edge"><title>Node9&#45;&gt;Node7</title>
<path fill="none" stroke="midnightblue" d="M228.951,-67.4324C205.214,-58.6593 167.541,-44.4415 135.419,-31 134.048,-30.4261 132.648,-29.83 131.236,-29.2212"/>
<polygon fill="midnightblue" stroke="midnightblue" points="132.514,-25.9593 121.952,-25.1184 129.684,-32.362 132.514,-25.9593"/>
</g>
<!-- Node10 -->
<g id="node10" class="node"><title>Node10</title>
<polygon fill="white" stroke="#bfbfbf" points="602.919,-6 602.919,-25 643.919,-25 643.919,-6 602.919,-6"/>
<text text-anchor="middle" x="623.419" y="-13" font-family="Helvetica,sans-Serif" font-size="10.00">string</text>
</g>
<!-- Node9&#45;&gt;Node10 -->
<g id="edge12" class="edge"><title>Node9&#45;&gt;Node10</title>
<path fill="none" stroke="midnightblue" d="M282.223,-68.6013C284.986,-68.0183 287.749,-67.4732 290.419,-67 423.952,-43.3341 463.247,-69.0301 593.419,-31 595.293,-30.4525 597.195,-29.7973 599.084,-29.0724"/>
<polygon fill="midnightblue" stroke="midnightblue" points="600.497,-32.2743 608.24,-25.042 597.677,-25.8675 600.497,-32.2743"/>
</g>
<!-- Node11 -->
<g id="node11" class="node"><title>Node11</title>
<polygon fill="white" stroke="#bfbfbf" points="280.919,-6 280.919,-25 437.919,-25 437.919,-6 280.919,-6"/>
<text text-anchor="middle" x="359.419" y="-13" font-family="Helvetica,sans-Serif" font-size="10.00">boost/multi_index_container.hpp</text>
</g>
<!-- Node9&#45;&gt;Node11 -->
<g id="edge14" class="edge"><title>Node9&#45;&gt;Node11</title>
<path fill="none" stroke="midnightblue" d="M267.75,-67.4751C285.389,-57.6664 314.579,-41.4346 335.277,-29.925"/>
<polygon fill="midnightblue" stroke="midnightblue" points="337.079,-32.9279 344.117,-25.0091 333.677,-26.8102 337.079,-32.9279"/>
</g>
<!-- Node12 -->
<g id="node12" class="node"><title>Node12</title>
<polygon fill="white" stroke="#bfbfbf" points="456.419,-0.5 456.419,-30.5 584.419,-30.5 584.419,-0.5 456.419,-0.5"/>
<text text-anchor="start" x="464.419" y="-18.5" font-family="Helvetica,sans-Serif" font-size="10.00">boost/multi_index/hashed</text>
<text text-anchor="middle" x="520.419" y="-7.5" font-family="Helvetica,sans-Serif" font-size="10.00">_index.hpp</text>
</g>
<!-- Node9&#45;&gt;Node12 -->
<g id="edge15" class="edge"><title>Node9&#45;&gt;Node12</title>
<path fill="none" stroke="midnightblue" d="M282.279,-68.879C285.03,-68.2378 287.776,-67.6033 290.419,-67 342.481,-55.1201 401.294,-42.216 446.415,-32.4258"/>
<polygon fill="midnightblue" stroke="midnightblue" points="447.377,-35.7986 456.409,-30.2597 445.894,-28.9575 447.377,-35.7986"/>
</g>
<!-- Node13 -->
<g id="node13" class="node"><title>Node13</title>
<polygon fill="white" stroke="#bfbfbf" points="144.419,-0.5 144.419,-30.5 262.419,-30.5 262.419,-0.5 144.419,-0.5"/>
<text text-anchor="start" x="152.419" y="-18.5" font-family="Helvetica,sans-Serif" font-size="10.00">boost/multi_index/mem</text>
<text text-anchor="middle" x="203.419" y="-7.5" font-family="Helvetica,sans-Serif" font-size="10.00">_fun.hpp</text>
</g>
<!-- Node9&#45;&gt;Node13 -->
<g id="edge16" class="edge"><title>Node9&#45;&gt;Node13</title>
<path fill="none" stroke="midnightblue" d="M245.399,-67.4751C239.135,-59.8685 229.689,-48.3992 221.344,-38.2649"/>
<polygon fill="midnightblue" stroke="midnightblue" points="224.027,-36.0173 214.968,-30.523 218.623,-40.4673 224.027,-36.0173"/>
</g>
<!-- Node21&#45;&gt;Node10 -->
<g id="edge26" class="edge"><title>Node21&#45;&gt;Node10</title>
<path fill="none" stroke="midnightblue" d="M572.85,-195.944C563.293,-186.696 549.214,-170.984 543.419,-154 538.97,-140.96 539.058,-136.069 543.419,-123 555.774,-85.9837 586.602,-51.4921 606.181,-32.2809"/>
<polygon fill="midnightblue" stroke="midnightblue" points="608.737,-34.6797 613.555,-25.2438 603.904,-29.6155 608.737,-34.6797"/>
</g>
<!-- Node22 -->
<g id="node22" class="node"><title>Node22</title>
<polygon fill="white" stroke="#bfbfbf" points="552.919,-129 552.919,-148 611.919,-148 611.919,-129 552.919,-129"/>
<text text-anchor="middle" x="582.419" y="-136" font-family="Helvetica,sans-Serif" font-size="10.00">exception</text>
</g>
<!-- Node21&#45;&gt;Node22 -->
<g id="edge25" class="edge"><title>Node21&#45;&gt;Node22</title>
<path fill="none" stroke="midnightblue" d="M582.419,-195.734C582.419,-186.183 582.419,-170.618 582.419,-158.283"/>
<polygon fill="midnightblue" stroke="midnightblue" points="585.92,-158.127 582.419,-148.127 578.92,-158.127 585.92,-158.127"/>
</g>
<!-- Node24 -->
<g id="node24" class="node"><title>Node24</title>
<polygon fill="white" stroke="#bfbfbf" points="1495.42,-129 1495.42,-148 1551.42,-148 1551.42,-129 1495.42,-129"/>
<text text-anchor="middle" x="1523.42" y="-136" font-family="Helvetica,sans-Serif" font-size="10.00">algorithm</text>
</g>
<!-- Node23&#45;&gt;Node24 -->
<g id="edge28" class="edge"><title>Node23&#45;&gt;Node24</title>
<path fill="none" stroke="midnightblue" d="M1571.87,-195.734C1563.13,-185.598 1548.57,-168.69 1537.68,-156.056"/>
<polygon fill="midnightblue" stroke="midnightblue" points="1540.03,-153.419 1530.85,-148.127 1534.73,-157.988 1540.03,-153.419"/>
</g>
<!-- Node25 -->
<g id="node25" class="node"><title>Node25</title>
<polygon fill="white" stroke="#bfbfbf" points="1569.92,-129 1569.92,-148 1698.92,-148 1698.92,-129 1569.92,-129"/>
<text text-anchor="middle" x="1634.42" y="-136" font-family="Helvetica,sans-Serif" font-size="10.00">boost/range/algorithm.hpp</text>
</g>
<!-- Node23&#45;&gt;Node25 -->
<g id="edge29" class="edge"><title>Node23&#45;&gt;Node25</title>
<path fill="none" stroke="midnightblue" d="M1586.84,-195.734C1595.41,-185.598 1609.72,-168.69 1620.41,-156.056"/>
<polygon fill="midnightblue" stroke="midnightblue" points="1623.33,-158.022 1627.12,-148.127 1617.99,-153.5 1623.33,-158.022"/>
</g>
<!-- Node26&#45;&gt;Node14 -->
<g id="edge32" class="edge"><title>Node26&#45;&gt;Node14</title>
<path fill="none" stroke="midnightblue" d="M746.719,-195.734C728.496,-184.867 697.22,-166.216 675.717,-153.393"/>
<polygon fill="midnightblue" stroke="midnightblue" points="677.268,-150.243 666.887,-148.127 673.683,-156.255 677.268,-150.243"/>
</g>
<!-- Node27 -->
<g id="node27" class="node"><title>Node27</title>
<polygon fill="white" stroke="#bfbfbf" points="1007.92,-129 1007.92,-148 1056.92,-148 1056.92,-129 1007.92,-129"/>
<text text-anchor="middle" x="1032.42" y="-136" font-family="Helvetica,sans-Serif" font-size="10.00">cassert</text>
</g>
<!-- Node26&#45;&gt;Node27 -->
<g id="edge31" class="edge"><title>Node26&#45;&gt;Node27</title>
<path fill="none" stroke="midnightblue" d="M786.573,-195.977C793.299,-193.861 800.597,-191.712 807.419,-190 891.206,-168.978 915.76,-179.091 998.419,-154 1000.56,-153.349 1002.76,-152.605 1004.95,-151.807"/>
<polygon fill="midnightblue" stroke="midnightblue" points="1006.34,-155.018 1014.34,-148.07 1003.75,-148.514 1006.34,-155.018"/>
</g>
<!-- Node28 -->
<g id="node28" class="node"><title>Node28</title>
<polygon fill="white" stroke="#bfbfbf" points="1074.92,-129 1074.92,-148 1123.92,-148 1123.92,-129 1074.92,-129"/>
<text text-anchor="middle" x="1099.42" y="-136" font-family="Helvetica,sans-Serif" font-size="10.00">random</text>
</g>
<!-- Node26&#45;&gt;Node28 -->
<g id="edge33" class="edge"><title>Node26&#45;&gt;Node28</title>
<path fill="none" stroke="midnightblue" d="M786.041,-195.907C792.899,-193.742 800.395,-191.586 807.419,-190 920.356,-164.508 953.864,-184.979 1065.42,-154 1067.71,-153.363 1070.06,-152.605 1072.39,-151.776"/>
<polygon fill="midnightblue" stroke="midnightblue" points="1073.72,-155.013 1081.74,-148.086 1071.15,-148.501 1073.72,-155.013"/>
</g>
<!-- Node29 -->
<g id="node29" class="node"><title>Node29</title>
<polygon fill="white" stroke="#bfbfbf" points="691.919,-129 691.919,-148 860.919,-148 860.919,-129 691.919,-129"/>
<text text-anchor="middle" x="776.419" y="-136" font-family="Helvetica,sans-Serif" font-size="10.00">boost/random/beta_distribution.hpp</text>
</g>
<!-- Node26&#45;&gt;Node29 -->
<g id="edge34" class="edge"><title>Node26&#45;&gt;Node29</title>
<path fill="none" stroke="midnightblue" d="M763.442,-195.734C765.669,-186.085 769.312,-170.3 772.172,-157.906"/>
<polygon fill="midnightblue" stroke="midnightblue" points="775.59,-158.658 774.429,-148.127 768.769,-157.084 775.59,-158.658"/>
</g>
<!-- Node30 -->
<g id="node30" class="node"><title>Node30</title>
<polygon fill="white" stroke="#bfbfbf" points="879.419,-123.5 879.419,-153.5 989.419,-153.5 989.419,-123.5 879.419,-123.5"/>
<text text-anchor="start" x="887.419" y="-141.5" font-family="Helvetica,sans-Serif" font-size="10.00">boost/random/triangle</text>
<text text-anchor="middle" x="934.419" y="-130.5" font-family="Helvetica,sans-Serif" font-size="10.00">_distribution.hpp</text>
</g>
<!-- Node26&#45;&gt;Node30 -->
<g id="edge35" class="edge"><title>Node26&#45;&gt;Node30</title>
<path fill="none" stroke="midnightblue" d="M784.393,-195.869C810.577,-186.031 854.069,-169.689 887.503,-157.128"/>
<polygon fill="midnightblue" stroke="midnightblue" points="888.953,-160.322 897.083,-153.528 886.491,-153.769 888.953,-160.322"/>
</g>
</g>
</svg>
