<?xml version="1.0" encoding="UTF-8" standalone="no"?>
<!DOCTYPE svg PUBLIC "-//W3C//DTD SVG 1.1//EN"
 "http://www.w3.org/Graphics/SVG/1.1/DTD/svg11.dtd">
<!-- Generated by graphviz version 2.38.0 (20140413.2041)
 -->
<!-- Title: settings.h Pages: 1 -->
<!--zoomable 476 -->
<svg id="main" version="1.1" xmlns="http://www.w3.org/2000/svg" xmlns:xlink="http://www.w3.org/1999/xlink" xml:space="preserve" onload="init(evt)">
<style type="text/css"><![CDATA[
.edge:hover path { stroke: red; }
.edge:hover polygon { stroke: red; fill: red; }
]]></style>
<script type="text/javascript"><![CDATA[
var edges = document.getElementsByTagName('g');
if (edges && edges.length) {
  for (var i=0;i<edges.length;i++) {
    if (edges[i].id.substr(0,4)=='edge') {
      edges[i].setAttribute('class','edge');
    }
  }
}
]]></script>
        <defs>
                <circle id="rim" cx="0" cy="0" r="7"/>
                <circle id="rim2" cx="0" cy="0" r="3.5"/>
                <g id="zoomPlus">
                        <use xlink:href="#rim" fill="#404040">
                                <set attributeName="fill" to="#808080" begin="zoomplus.mouseover" end="zoomplus.mouseout"/>
                        </use>
                        <path d="M-4,0h8M0,-4v8" fill="none" stroke="white" stroke-width="1.5" pointer-events="none"/>
                </g>
                <g id="zoomMin">
                        <use xlink:href="#rim" fill="#404040">
                                <set attributeName="fill" to="#808080" begin="zoomminus.mouseover" end="zoomminus.mouseout"/>
                        </use>
                        <path d="M-4,0h8" fill="none" stroke="white" stroke-width="1.5" pointer-events="none"/>
                </g>
                <g id="dirArrow">
                        <path fill="none" stroke="white" stroke-width="1.5" d="M0,-3.0v7 M-2.5,-0.5L0,-3.0L2.5,-0.5"/>
                </g>
               <g id="resetDef">
                       <use xlink:href="#rim2" fill="#404040">
                               <set attributeName="fill" to="#808080" begin="reset.mouseover" end="reset.mouseout"/>
                       </use>
               </g>
        </defs>

<script type="text/javascript">
var viewWidth = 1376;
var viewHeight = 476;
var sectionId = 'dynsection-1';
</script>
<script xlink:href="svgpan.js"/>
<svg id="graph" class="graph">
<g id="viewport">
<title>settings.h</title>
<polygon fill="white" stroke="none" points="-4,4 -4,-472 1372.31,-472 1372.31,4 -4,4"/>
<!-- Node1 -->
<g id="node1" class="node"><title>Node1</title>
<polygon fill="#bfbfbf" stroke="black" points="677.314,-448.5 677.314,-467.5 736.314,-467.5 736.314,-448.5 677.314,-448.5"/>
<text text-anchor="middle" x="706.814" y="-455.5" font-family="Helvetica,sans-Serif" font-size="10.00">settings.h</text>
</g>
<!-- Node2 -->
<g id="node2" class="node"><title>Node2</title>
<g id="a_node2"><a xlink:href="analysis_8h.xhtml" target="_top" xlink:title="Common facilities for all analysis classes. ">
<polygon fill="white" stroke="black" points="268.314,-336.5 268.314,-355.5 329.314,-355.5 329.314,-336.5 268.314,-336.5"/>
<text text-anchor="middle" x="298.814" y="-343.5" font-family="Helvetica,sans-Serif" font-size="10.00">analysis.h</text>
</a>
</g>
</g>
<!-- Node1&#45;&gt;Node2 -->
<g id="edge1" class="edge"><title>Node1&#45;&gt;Node2</title>
<path fill="none" stroke="midnightblue" d="M667.245,-451.858C619.244,-445.101 536.139,-431.729 466.814,-412 411.167,-396.164 348.212,-369.271 317.572,-355.572"/>
<polygon fill="midnightblue" stroke="midnightblue" points="666.839,-455.335 677.225,-453.239 667.799,-448.401 666.839,-455.335"/>
</g>
<!-- Node4 -->
<g id="node4" class="node"><title>Node4</title>
<g id="a_node4"><a xlink:href="fault__tree__analysis_8h.xhtml" target="_top" xlink:title="Fault Tree Analysis. ">
<polygon fill="white" stroke="black" points="404.314,-280.5 404.314,-299.5 511.314,-299.5 511.314,-280.5 404.314,-280.5"/>
<text text-anchor="middle" x="457.814" y="-287.5" font-family="Helvetica,sans-Serif" font-size="10.00">fault_tree_analysis.h</text>
</a>
</g>
</g>
<!-- Node1&#45;&gt;Node4 -->
<g id="edge45" class="edge"><title>Node1&#45;&gt;Node4</title>
<path fill="none" stroke="midnightblue" d="M666.744,-455.733C627.722,-452.617 568.499,-442.693 527.814,-412 487.903,-381.891 466.897,-321.889 460.214,-299.599"/>
<polygon fill="midnightblue" stroke="midnightblue" points="666.969,-459.256 677.183,-456.442 667.443,-452.272 666.969,-459.256"/>
</g>
<!-- Node7 -->
<g id="node7" class="node"><title>Node7</title>
<g id="a_node7"><a xlink:href="importance__analysis_8h.xhtml" target="_top" xlink:title="Contains functionality to do numerical analysis of importance factors. ">
<polygon fill="white" stroke="black" points="513.814,-168.5 513.814,-187.5 627.814,-187.5 627.814,-168.5 513.814,-168.5"/>
<text text-anchor="middle" x="570.814" y="-175.5" font-family="Helvetica,sans-Serif" font-size="10.00">importance_analysis.h</text>
</a>
</g>
</g>
<!-- Node1&#45;&gt;Node7 -->
<g id="edge46" class="edge"><title>Node1&#45;&gt;Node7</title>
<path fill="none" stroke="midnightblue" d="M679.196,-443.484C666.188,-435.86 651.451,-425.203 641.814,-412 587.214,-337.197 574.071,-219.862 571.413,-187.507"/>
<polygon fill="midnightblue" stroke="midnightblue" points="677.817,-446.721 688.263,-448.491 681.201,-440.593 677.817,-446.721"/>
</g>
<!-- Node9 -->
<g id="node9" class="node"><title>Node9</title>
<g id="a_node9"><a xlink:href="reporter_8h.xhtml" target="_top" xlink:title="Reporter of results. ">
<polygon fill="white" stroke="black" points="223.814,-56.5 223.814,-75.5 281.814,-75.5 281.814,-56.5 223.814,-56.5"/>
<text text-anchor="middle" x="252.814" y="-63.5" font-family="Helvetica,sans-Serif" font-size="10.00">reporter.h</text>
</a>
</g>
</g>
<!-- Node1&#45;&gt;Node9 -->
<g id="edge54" class="edge"><title>Node1&#45;&gt;Node9</title>
<path fill="none" stroke="midnightblue" d="M666.821,-455.026C517.456,-447.131 0.813675,-414.915 0.813675,-347 0.813675,-347 0.813675,-347 0.813675,-177 0.813675,-146.902 -2.44103,-132.263 19.8137,-112 49.3628,-85.0949 167.934,-73.1252 223.633,-68.9056"/>
<polygon fill="midnightblue" stroke="midnightblue" points="666.76,-458.528 676.929,-455.553 667.124,-451.537 666.76,-458.528"/>
</g>
<!-- Node11 -->
<g id="node11" class="node"><title>Node11</title>
<g id="a_node11"><a xlink:href="scram_8cc.xhtml" target="_top" xlink:title="Main entrance. ">
<polygon fill="white" stroke="black" points="1084.31,-0.5 1084.31,-19.5 1141.31,-19.5 1141.31,-0.5 1084.31,-0.5"/>
<text text-anchor="middle" x="1112.81" y="-7.5" font-family="Helvetica,sans-Serif" font-size="10.00">scram.cc</text>
</a>
</g>
</g>
<!-- Node1&#45;&gt;Node11 -->
<g id="edge55" class="edge"><title>Node1&#45;&gt;Node11</title>
<path fill="none" stroke="midnightblue" d="M746.644,-457.128C851.475,-456.893 1132.62,-452.405 1214.81,-412 1250.1,-394.657 1274.81,-386.315 1274.81,-347 1274.81,-347 1274.81,-347 1274.81,-121 1274.81,-57.2577 1187.91,-27.8793 1141.4,-16.7211"/>
<polygon fill="midnightblue" stroke="midnightblue" points="746.479,-453.628 736.482,-457.138 746.486,-460.628 746.479,-453.628"/>
</g>
<!-- Node12 -->
<g id="node12" class="node"><title>Node12</title>
<g id="a_node12"><a xlink:href="risk__analysis_8h.xhtml" target="_top" xlink:title="Contains the main system for performing analysis. ">
<polygon fill="white" stroke="black" points="444.814,-112.5 444.814,-131.5 526.814,-131.5 526.814,-112.5 444.814,-112.5"/>
<text text-anchor="middle" x="485.814" y="-119.5" font-family="Helvetica,sans-Serif" font-size="10.00">risk_analysis.h</text>
</a>
</g>
</g>
<!-- Node1&#45;&gt;Node12 -->
<g id="edge52" class="edge"><title>Node1&#45;&gt;Node12</title>
<path fill="none" stroke="midnightblue" d="M693.378,-440.164C678.267,-419.492 655.814,-382.756 655.814,-347 655.814,-347 655.814,-347 655.814,-233 655.814,-202.902 658.04,-189.338 636.814,-168 607.779,-138.813 560.695,-128.391 526.818,-124.758"/>
<polygon fill="midnightblue" stroke="midnightblue" points="690.67,-442.386 699.507,-448.231 696.244,-438.151 690.67,-442.386"/>
</g>
<!-- Node14 -->
<g id="node14" class="node"><title>Node14</title>
<g id="a_node14"><a xlink:href="probability__analysis_8cc.xhtml" target="_top" xlink:title="Implementations of functions to provide probability analysis. ">
<polygon fill="white" stroke="black" points="759.814,-168.5 759.814,-187.5 875.814,-187.5 875.814,-168.5 759.814,-168.5"/>
<text text-anchor="middle" x="817.814" y="-175.5" font-family="Helvetica,sans-Serif" font-size="10.00">probability_analysis.cc</text>
</a>
</g>
</g>
<!-- Node1&#45;&gt;Node14 -->
<g id="edge51" class="edge"><title>Node1&#45;&gt;Node14</title>
<path fill="none" stroke="midnightblue" d="M732.859,-443.493C774.021,-420.479 852.633,-369.336 883.814,-300 903.442,-256.353 852.118,-207.052 828.724,-187.571"/>
<polygon fill="midnightblue" stroke="midnightblue" points="731.059,-440.488 723.962,-448.355 734.415,-446.631 731.059,-440.488"/>
</g>
<!-- Node15 -->
<g id="node15" class="node"><title>Node15</title>
<g id="a_node15"><a xlink:href="uncertainty__analysis_8h.xhtml" target="_top" xlink:title="Provides functionality for uncertainty analysis with Monte Carlo method. ">
<polygon fill="white" stroke="black" points="72.8137,-168.5 72.8137,-187.5 186.814,-187.5 186.814,-168.5 72.8137,-168.5"/>
<text text-anchor="middle" x="129.814" y="-175.5" font-family="Helvetica,sans-Serif" font-size="10.00">uncertainty_analysis.h</text>
</a>
</g>
</g>
<!-- Node1&#45;&gt;Node15 -->
<g id="edge53" class="edge"><title>Node1&#45;&gt;Node15</title>
<path fill="none" stroke="midnightblue" d="M666.673,-454.018C530.98,-443.407 97.8137,-404.992 97.8137,-347 97.8137,-347 97.8137,-347 97.8137,-289 97.8137,-249.819 116.763,-205.8 125.498,-187.592"/>
<polygon fill="midnightblue" stroke="midnightblue" points="666.788,-457.537 677.028,-454.818 667.328,-450.558 666.788,-457.537"/>
</g>
<!-- Node17 -->
<g id="node17" class="node"><title>Node17</title>
<g id="a_node17"><a xlink:href="bdd_8h.xhtml" target="_top" xlink:title="Fault tree analysis with the Binary Decision Diagram algorithms. ">
<polygon fill="white" stroke="black" points="686.314,-392.5 686.314,-411.5 727.314,-411.5 727.314,-392.5 686.314,-392.5"/>
<text text-anchor="middle" x="706.814" y="-399.5" font-family="Helvetica,sans-Serif" font-size="10.00">bdd.h</text>
</a>
</g>
</g>
<!-- Node1&#45;&gt;Node17 -->
<g id="edge27" class="edge"><title>Node1&#45;&gt;Node17</title>
<path fill="none" stroke="midnightblue" d="M706.814,-437.805C706.814,-428.91 706.814,-418.78 706.814,-411.751"/>
<polygon fill="midnightblue" stroke="midnightblue" points="703.314,-438.083 706.814,-448.083 710.314,-438.083 703.314,-438.083"/>
</g>
<!-- Node20 -->
<g id="node20" class="node"><title>Node20</title>
<g id="a_node20"><a xlink:href="mocus_8h.xhtml" target="_top" xlink:title="Fault tree analysis with the MOCUS algorithm. ">
<polygon fill="white" stroke="black" points="1007.81,-280.5 1007.81,-299.5 1061.81,-299.5 1061.81,-280.5 1007.81,-280.5"/>
<text text-anchor="middle" x="1034.81" y="-287.5" font-family="Helvetica,sans-Serif" font-size="10.00">mocus.h</text>
</a>
</g>
</g>
<!-- Node1&#45;&gt;Node20 -->
<g id="edge50" class="edge"><title>Node1&#45;&gt;Node20</title>
<path fill="none" stroke="midnightblue" d="M746.343,-454.838C812.305,-450.519 941.114,-438.829 976.814,-412 996.461,-397.235 1023.12,-324.609 1031.89,-299.533"/>
<polygon fill="midnightblue" stroke="midnightblue" points="746.08,-451.348 736.32,-455.47 746.52,-458.334 746.08,-451.348"/>
</g>
<!-- Node23 -->
<g id="node23" class="node"><title>Node23</title>
<g id="a_node23"><a xlink:href="config_8h.xhtml" target="_top" xlink:title="Configuration management facilities to make various setups for analysis possible. ...">
<polygon fill="white" stroke="black" points="1031.31,-392.5 1031.31,-411.5 1082.31,-411.5 1082.31,-392.5 1031.31,-392.5"/>
<text text-anchor="middle" x="1056.81" y="-399.5" font-family="Helvetica,sans-Serif" font-size="10.00">config.h</text>
</a>
</g>
</g>
<!-- Node1&#45;&gt;Node23 -->
<g id="edge42" class="edge"><title>Node1&#45;&gt;Node23</title>
<path fill="none" stroke="midnightblue" d="M746.642,-452.035C805.473,-444.509 918.984,-429.249 1014.81,-412 1020.1,-411.049 1025.73,-409.921 1031.1,-408.791"/>
<polygon fill="midnightblue" stroke="midnightblue" points="746.131,-448.572 736.652,-453.306 747.014,-455.516 746.131,-448.572"/>
</g>
<!-- Node25 -->
<g id="node25" class="node"><title>Node25</title>
<g id="a_node25"><a xlink:href="initializer_8h.xhtml" target="_top" xlink:title="A facility that processes input files into analysis constructs. ">
<polygon fill="white" stroke="black" points="1143.31,-392.5 1143.31,-411.5 1206.31,-411.5 1206.31,-392.5 1143.31,-392.5"/>
<text text-anchor="middle" x="1174.81" y="-399.5" font-family="Helvetica,sans-Serif" font-size="10.00">initializer.h</text>
</a>
</g>
</g>
<!-- Node1&#45;&gt;Node25 -->
<g id="edge47" class="edge"><title>Node1&#45;&gt;Node25</title>
<path fill="none" stroke="midnightblue" d="M746.646,-452.404C837.876,-441.877 1060.46,-416.195 1143.17,-406.651"/>
<polygon fill="midnightblue" stroke="midnightblue" points="745.977,-448.958 736.444,-453.581 746.78,-455.912 745.977,-448.958"/>
</g>
<!-- Node27 -->
<g id="node27" class="node"><title>Node27</title>
<g id="a_node27"><a xlink:href="settings_8cc.xhtml" target="_top" xlink:title="Implementation of Settings Builder. ">
<polygon fill="white" stroke="black" points="1303.31,-392.5 1303.31,-411.5 1368.31,-411.5 1368.31,-392.5 1303.31,-392.5"/>
<text text-anchor="middle" x="1335.81" y="-399.5" font-family="Helvetica,sans-Serif" font-size="10.00">settings.cc</text>
</a>
</g>
</g>
<!-- Node1&#45;&gt;Node27 -->
<g id="edge56" class="edge"><title>Node1&#45;&gt;Node27</title>
<path fill="none" stroke="midnightblue" d="M746.878,-455.45C841.516,-451.453 1086.19,-439.147 1288.81,-412 1293.51,-411.371 1298.44,-410.576 1303.27,-409.72"/>
<polygon fill="midnightblue" stroke="midnightblue" points="746.462,-451.964 736.616,-455.876 746.752,-458.958 746.462,-451.964"/>
</g>
<!-- Node3 -->
<g id="node3" class="node"><title>Node3</title>
<g id="a_node3"><a xlink:href="analysis_8cc.xhtml" target="_top" xlink:title="Implementation of common facilities for all analysis classes. ">
<polygon fill="white" stroke="black" points="163.814,-280.5 163.814,-299.5 229.814,-299.5 229.814,-280.5 163.814,-280.5"/>
<text text-anchor="middle" x="196.814" y="-287.5" font-family="Helvetica,sans-Serif" font-size="10.00">analysis.cc</text>
</a>
</g>
</g>
<!-- Node2&#45;&gt;Node3 -->
<g id="edge2" class="edge"><title>Node2&#45;&gt;Node3</title>
<path fill="none" stroke="midnightblue" d="M273.483,-331.59C254.623,-321.605 229.429,-308.267 213.161,-299.655"/>
<polygon fill="midnightblue" stroke="midnightblue" points="271.95,-334.738 282.426,-336.324 275.225,-328.552 271.95,-334.738"/>
</g>
<!-- Node2&#45;&gt;Node4 -->
<g id="edge3" class="edge"><title>Node2&#45;&gt;Node4</title>
<path fill="none" stroke="midnightblue" d="M333.64,-333.172C363.58,-323.004 406.035,-308.585 432.738,-299.516"/>
<polygon fill="midnightblue" stroke="midnightblue" points="332.351,-329.914 324.008,-336.444 334.602,-336.542 332.351,-329.914"/>
</g>
<!-- Node6 -->
<g id="node6" class="node"><title>Node6</title>
<g id="a_node6"><a xlink:href="probability__analysis_8h.xhtml" target="_top" xlink:title="Contains functionality to do numerical analysis of probabilities. ">
<polygon fill="white" stroke="black" points="273.814,-224.5 273.814,-243.5 383.814,-243.5 383.814,-224.5 273.814,-224.5"/>
<text text-anchor="middle" x="328.814" y="-231.5" font-family="Helvetica,sans-Serif" font-size="10.00">probability_analysis.h</text>
</a>
</g>
</g>
<!-- Node2&#45;&gt;Node6 -->
<g id="edge24" class="edge"><title>Node2&#45;&gt;Node6</title>
<path fill="none" stroke="midnightblue" d="M303.812,-326.674C310.371,-302.625 321.617,-261.388 326.471,-243.591"/>
<polygon fill="midnightblue" stroke="midnightblue" points="300.422,-325.8 301.168,-336.368 307.176,-327.642 300.422,-325.8"/>
</g>
<!-- Node2&#45;&gt;Node12 -->
<g id="edge25" class="edge"><title>Node2&#45;&gt;Node12</title>
<path fill="none" stroke="midnightblue" d="M285.991,-328.078C269.018,-303.443 243.583,-257.045 264.814,-224 304.489,-162.245 392.327,-137.779 444.528,-128.441"/>
<polygon fill="midnightblue" stroke="midnightblue" points="283.284,-330.309 291.966,-336.381 288.966,-326.22 283.284,-330.309"/>
</g>
<!-- Node2&#45;&gt;Node15 -->
<g id="edge26" class="edge"><title>Node2&#45;&gt;Node15</title>
<path fill="none" stroke="midnightblue" d="M258.027,-343.141C225.425,-339.411 180.988,-328.907 154.814,-300 125.298,-267.403 127.022,-209.421 128.881,-187.612"/>
<polygon fill="midnightblue" stroke="midnightblue" points="257.866,-346.641 268.159,-344.128 258.546,-339.674 257.866,-346.641"/>
</g>
<!-- Node5 -->
<g id="node5" class="node"><title>Node5</title>
<g id="a_node5"><a xlink:href="fault__tree__analysis_8cc.xhtml" target="_top" xlink:title="Implementation of fault tree analysis. ">
<polygon fill="white" stroke="black" points="401.814,-224.5 401.814,-243.5 513.814,-243.5 513.814,-224.5 401.814,-224.5"/>
<text text-anchor="middle" x="457.814" y="-231.5" font-family="Helvetica,sans-Serif" font-size="10.00">fault_tree_analysis.cc</text>
</a>
</g>
</g>
<!-- Node4&#45;&gt;Node5 -->
<g id="edge4" class="edge"><title>Node4&#45;&gt;Node5</title>
<path fill="none" stroke="midnightblue" d="M457.814,-269.805C457.814,-260.91 457.814,-250.78 457.814,-243.751"/>
<polygon fill="midnightblue" stroke="midnightblue" points="454.314,-270.083 457.814,-280.083 461.314,-270.083 454.314,-270.083"/>
</g>
<!-- Node4&#45;&gt;Node6 -->
<g id="edge5" class="edge"><title>Node4&#45;&gt;Node6</title>
<path fill="none" stroke="midnightblue" d="M427.96,-276.503C403.776,-266.38 370.352,-252.388 349.158,-243.516"/>
<polygon fill="midnightblue" stroke="midnightblue" points="426.797,-279.811 437.373,-280.444 429.5,-273.354 426.797,-279.811"/>
</g>
<!-- Node4&#45;&gt;Node9 -->
<g id="edge22" class="edge"><title>Node4&#45;&gt;Node9</title>
<path fill="none" stroke="midnightblue" d="M394.235,-282.313C344.654,-275.678 281.495,-263.617 264.814,-244 222.115,-193.789 242.418,-103.838 250.229,-75.6749"/>
<polygon fill="midnightblue" stroke="midnightblue" points="393.904,-285.799 404.27,-283.608 394.8,-278.857 393.904,-285.799"/>
</g>
<!-- Node4&#45;&gt;Node12 -->
<g id="edge23" class="edge"><title>Node4&#45;&gt;Node12</title>
<path fill="none" stroke="midnightblue" d="M488.831,-275.667C501.804,-268.348 515.535,-257.892 522.814,-244 526.939,-236.126 524.856,-232.651 522.814,-224 518.704,-206.59 511.349,-204.652 504.814,-188 497.082,-168.301 490.83,-144.168 487.799,-131.576"/>
<polygon fill="midnightblue" stroke="midnightblue" points="486.885,-272.734 479.622,-280.447 490.11,-278.947 486.885,-272.734"/>
</g>
<!-- Node6&#45;&gt;Node7 -->
<g id="edge6" class="edge"><title>Node6&#45;&gt;Node7</title>
<path fill="none" stroke="midnightblue" d="M377.136,-222.217C422.865,-212.013 490.593,-196.901 532.647,-187.516"/>
<polygon fill="midnightblue" stroke="midnightblue" points="376.157,-218.85 367.159,-224.444 377.682,-225.682 376.157,-218.85"/>
</g>
<!-- Node6&#45;&gt;Node9 -->
<g id="edge16" class="edge"><title>Node6&#45;&gt;Node9</title>
<path fill="none" stroke="midnightblue" d="M320.507,-214.856C304.206,-179.252 268.588,-101.453 256.736,-75.5681"/>
<polygon fill="midnightblue" stroke="midnightblue" points="317.382,-216.44 324.728,-224.075 323.747,-213.526 317.382,-216.44"/>
</g>
<!-- Node6&#45;&gt;Node12 -->
<g id="edge17" class="edge"><title>Node6&#45;&gt;Node12</title>
<path fill="none" stroke="midnightblue" d="M349.628,-218.417C382.834,-195.151 446.778,-150.35 473.551,-131.591"/>
<polygon fill="midnightblue" stroke="midnightblue" points="347.315,-215.764 341.133,-224.368 351.331,-221.497 347.315,-215.764"/>
</g>
<!-- Node6&#45;&gt;Node14 -->
<g id="edge15" class="edge"><title>Node6&#45;&gt;Node14</title>
<path fill="none" stroke="midnightblue" d="M394.216,-223.863C531.187,-207.123 679.727,-192.252 759.653,-184.522"/>
<polygon fill="midnightblue" stroke="midnightblue" points="393.455,-220.43 383.956,-225.124 394.308,-227.378 393.455,-220.43"/>
</g>
<!-- Node6&#45;&gt;Node15 -->
<g id="edge18" class="edge"><title>Node6&#45;&gt;Node15</title>
<path fill="none" stroke="midnightblue" d="M287.166,-221.699C249.608,-211.507 195.199,-196.743 161.198,-187.516"/>
<polygon fill="midnightblue" stroke="midnightblue" points="286.714,-225.202 297.282,-224.444 288.547,-218.447 286.714,-225.202"/>
</g>
<!-- Node8 -->
<g id="node8" class="node"><title>Node8</title>
<g id="a_node8"><a xlink:href="importance__analysis_8cc.xhtml" target="_top" xlink:title="Implementations of functions to provide quantitative importance informations. ">
<polygon fill="white" stroke="black" points="636.314,-112.5 636.314,-131.5 755.314,-131.5 755.314,-112.5 636.314,-112.5"/>
<text text-anchor="middle" x="695.814" y="-119.5" font-family="Helvetica,sans-Serif" font-size="10.00">importance_analysis.cc</text>
</a>
</g>
</g>
<!-- Node7&#45;&gt;Node8 -->
<g id="edge7" class="edge"><title>Node7&#45;&gt;Node8</title>
<path fill="none" stroke="midnightblue" d="M600.055,-164.368C623.464,-154.255 655.655,-140.349 676.1,-131.516"/>
<polygon fill="midnightblue" stroke="midnightblue" points="598.412,-161.265 590.62,-168.444 601.188,-167.691 598.412,-161.265"/>
</g>
<!-- Node7&#45;&gt;Node9 -->
<g id="edge8" class="edge"><title>Node7&#45;&gt;Node9</title>
<path fill="none" stroke="midnightblue" d="M565.811,-158.421C560.772,-143.442 551.457,-123.103 535.814,-112 495.347,-83.2765 346.084,-71.9926 282.17,-68.4109"/>
<polygon fill="midnightblue" stroke="midnightblue" points="562.514,-159.611 568.755,-168.173 569.216,-157.588 562.514,-159.611"/>
</g>
<!-- Node7&#45;&gt;Node12 -->
<g id="edge11" class="edge"><title>Node7&#45;&gt;Node12</title>
<path fill="none" stroke="midnightblue" d="M548.62,-162.901C533.034,-152.999 512.684,-140.071 499.437,-131.655"/>
<polygon fill="midnightblue" stroke="midnightblue" points="546.839,-165.916 557.157,-168.324 550.593,-160.007 546.839,-165.916"/>
</g>
<!-- Node10 -->
<g id="node10" class="node"><title>Node10</title>
<g id="a_node10"><a xlink:href="reporter_8cc.xhtml" target="_top" xlink:title="Implements Reporter class. ">
<polygon fill="white" stroke="black" points="221.314,-0.5 221.314,-19.5 284.314,-19.5 284.314,-0.5 221.314,-0.5"/>
<text text-anchor="middle" x="252.814" y="-7.5" font-family="Helvetica,sans-Serif" font-size="10.00">reporter.cc</text>
</a>
</g>
</g>
<!-- Node9&#45;&gt;Node10 -->
<g id="edge9" class="edge"><title>Node9&#45;&gt;Node10</title>
<path fill="none" stroke="midnightblue" d="M252.814,-45.8045C252.814,-36.9102 252.814,-26.7798 252.814,-19.7511"/>
<polygon fill="midnightblue" stroke="midnightblue" points="249.314,-46.083 252.814,-56.083 256.314,-46.083 249.314,-46.083"/>
</g>
<!-- Node9&#45;&gt;Node11 -->
<g id="edge10" class="edge"><title>Node9&#45;&gt;Node11</title>
<path fill="none" stroke="midnightblue" d="M292.287,-62.5215C439.769,-53.261 956.53,-20.8131 1084.15,-12.7996"/>
<polygon fill="midnightblue" stroke="midnightblue" points="291.681,-59.0525 281.92,-63.1724 292.12,-66.0387 291.681,-59.0525"/>
</g>
<!-- Node12&#45;&gt;Node9 -->
<g id="edge12" class="edge"><title>Node12&#45;&gt;Node9</title>
<path fill="none" stroke="midnightblue" d="M438.965,-110.142C392.01,-99.2602 321.203,-82.8499 281.831,-73.7251"/>
<polygon fill="midnightblue" stroke="midnightblue" points="438.362,-113.595 448.894,-112.444 439.943,-106.776 438.362,-113.595"/>
</g>
<!-- Node12&#45;&gt;Node11 -->
<g id="edge14" class="edge"><title>Node12&#45;&gt;Node11</title>
<path fill="none" stroke="midnightblue" d="M537.125,-111.998C663.369,-89.8499 985.911,-33.2636 1084.05,-16.0463"/>
<polygon fill="midnightblue" stroke="midnightblue" points="536.198,-108.607 526.953,-113.783 537.407,-115.502 536.198,-108.607"/>
</g>
<!-- Node13 -->
<g id="node13" class="node"><title>Node13</title>
<g id="a_node13"><a xlink:href="risk__analysis_8cc.xhtml" target="_top" xlink:title="Implementation of risk analysis handler. ">
<polygon fill="white" stroke="black" points="879.314,-56.5 879.314,-75.5 966.314,-75.5 966.314,-56.5 879.314,-56.5"/>
<text text-anchor="middle" x="922.814" y="-63.5" font-family="Helvetica,sans-Serif" font-size="10.00">risk_analysis.cc</text>
</a>
</g>
</g>
<!-- Node12&#45;&gt;Node13 -->
<g id="edge13" class="edge"><title>Node12&#45;&gt;Node13</title>
<path fill="none" stroke="midnightblue" d="M537.057,-114.668C623.787,-103.951 797.987,-82.4249 879.232,-72.3853"/>
<polygon fill="midnightblue" stroke="midnightblue" points="536.421,-111.22 526.926,-115.92 537.279,-118.167 536.421,-111.22"/>
</g>
<!-- Node15&#45;&gt;Node9 -->
<g id="edge20" class="edge"><title>Node15&#45;&gt;Node9</title>
<path fill="none" stroke="midnightblue" d="M146.966,-161.049C161.271,-147.807 182.24,-128.533 200.814,-112 215.26,-99.1406 232.246,-84.5361 242.773,-75.5446"/>
<polygon fill="midnightblue" stroke="midnightblue" points="144.335,-158.716 139.383,-168.083 149.095,-163.849 144.335,-158.716"/>
</g>
<!-- Node15&#45;&gt;Node12 -->
<g id="edge19" class="edge"><title>Node15&#45;&gt;Node12</title>
<path fill="none" stroke="midnightblue" d="M196.217,-166.928C269.084,-155.875 383.771,-138.478 444.651,-129.244"/>
<polygon fill="midnightblue" stroke="midnightblue" points="195.585,-163.483 186.223,-168.444 196.635,-170.404 195.585,-163.483"/>
</g>
<!-- Node16 -->
<g id="node16" class="node"><title>Node16</title>
<g id="a_node16"><a xlink:href="uncertainty__analysis_8cc.xhtml" target="_top" xlink:title="Implements the functionality to run Monte Carlo simulations. ">
<polygon fill="white" stroke="black" points="29.3137,-112.5 29.3137,-131.5 148.314,-131.5 148.314,-112.5 29.3137,-112.5"/>
<text text-anchor="middle" x="88.8137" y="-119.5" font-family="Helvetica,sans-Serif" font-size="10.00">uncertainty_analysis.cc</text>
</a>
</g>
</g>
<!-- Node15&#45;&gt;Node16 -->
<g id="edge21" class="edge"><title>Node15&#45;&gt;Node16</title>
<path fill="none" stroke="midnightblue" d="M116.796,-159.855C109.697,-150.505 101.21,-139.327 95.458,-131.751"/>
<polygon fill="midnightblue" stroke="midnightblue" points="114.209,-162.235 123.043,-168.083 119.784,-158.002 114.209,-162.235"/>
</g>
<!-- Node17&#45;&gt;Node6 -->
<g id="edge40" class="edge"><title>Node17&#45;&gt;Node6</title>
<path fill="none" stroke="midnightblue" d="M676.601,-390.763C655.352,-382.87 626.736,-370.811 603.814,-356 561.527,-328.676 564.391,-303.401 519.814,-280 495.381,-267.174 425.385,-252.561 377.275,-243.558"/>
<polygon fill="midnightblue" stroke="midnightblue" points="675.496,-394.085 686.09,-394.194 677.876,-387.502 675.496,-394.085"/>
</g>
<!-- Node17&#45;&gt;Node7 -->
<g id="edge39" class="edge"><title>Node17&#45;&gt;Node7</title>
<path fill="none" stroke="midnightblue" d="M696.229,-383.722C668.897,-339.107 596.668,-221.203 576.256,-187.884"/>
<polygon fill="midnightblue" stroke="midnightblue" points="693.274,-385.599 701.482,-392.297 699.243,-381.942 693.274,-385.599"/>
</g>
<!-- Node17&#45;&gt;Node13 -->
<g id="edge41" class="edge"><title>Node17&#45;&gt;Node13</title>
<path fill="none" stroke="midnightblue" d="M737.557,-394.524C801.266,-379.108 941.814,-333.892 941.814,-235 941.814,-235 941.814,-235 941.814,-177 941.814,-138.821 930.562,-94.2624 925.376,-75.7514"/>
<polygon fill="midnightblue" stroke="midnightblue" points="736.614,-391.149 727.668,-396.825 738.201,-397.967 736.614,-391.149"/>
</g>
<!-- Node18 -->
<g id="node18" class="node"><title>Node18</title>
<g id="a_node18"><a xlink:href="bdd_8cc.xhtml" target="_top" xlink:title="Implementation of BDD fault tree analysis algorithms. ">
<polygon fill="white" stroke="black" points="683.814,-280.5 683.814,-299.5 729.814,-299.5 729.814,-280.5 683.814,-280.5"/>
<text text-anchor="middle" x="706.814" y="-287.5" font-family="Helvetica,sans-Serif" font-size="10.00">bdd.cc</text>
</a>
</g>
</g>
<!-- Node17&#45;&gt;Node18 -->
<g id="edge28" class="edge"><title>Node17&#45;&gt;Node18</title>
<path fill="none" stroke="midnightblue" d="M706.814,-382.348C706.814,-358.254 706.814,-317.308 706.814,-299.591"/>
<polygon fill="midnightblue" stroke="midnightblue" points="703.314,-382.368 706.814,-392.368 710.314,-382.369 703.314,-382.368"/>
</g>
<!-- Node19 -->
<g id="node19" class="node"><title>Node19</title>
<g id="a_node19"><a xlink:href="zbdd_8h.xhtml" target="_top" xlink:title="Zero&#45;Suppressed Binary Decision Diagram facilities. ">
<polygon fill="white" stroke="black" points="753.814,-336.5 753.814,-355.5 799.814,-355.5 799.814,-336.5 753.814,-336.5"/>
<text text-anchor="middle" x="776.814" y="-343.5" font-family="Helvetica,sans-Serif" font-size="10.00">zbdd.h</text>
</a>
</g>
</g>
<!-- Node17&#45;&gt;Node19 -->
<g id="edge29" class="edge"><title>Node17&#45;&gt;Node19</title>
<path fill="none" stroke="midnightblue" d="M726.128,-386.101C738.725,-376.382 754.742,-364.027 765.362,-355.834"/>
<polygon fill="midnightblue" stroke="midnightblue" points="723.84,-383.445 718.06,-392.324 728.116,-388.987 723.84,-383.445"/>
</g>
<!-- Node19&#45;&gt;Node4 -->
<g id="edge31" class="edge"><title>Node19&#45;&gt;Node4</title>
<path fill="none" stroke="midnightblue" d="M743.519,-339.364C687.45,-329.873 573.877,-310.647 508.067,-299.507"/>
<polygon fill="midnightblue" stroke="midnightblue" points="743.171,-342.855 753.615,-341.073 744.339,-335.953 743.171,-342.855"/>
</g>
<!-- Node19&#45;&gt;Node8 -->
<g id="edge32" class="edge"><title>Node19&#45;&gt;Node8</title>
<path fill="none" stroke="midnightblue" d="M770.199,-326.872C753.691,-281.627 711.136,-164.993 699.055,-131.884"/>
<polygon fill="midnightblue" stroke="midnightblue" points="766.923,-328.103 773.638,-336.297 773.499,-325.703 766.923,-328.103"/>
</g>
<!-- Node19&#45;&gt;Node13 -->
<g id="edge37" class="edge"><title>Node19&#45;&gt;Node13</title>
<path fill="none" stroke="midnightblue" d="M810.154,-338.797C833.795,-332.74 864.613,-321.215 883.814,-300 904.096,-277.59 903.814,-265.225 903.814,-235 903.814,-235 903.814,-235 903.814,-177 903.814,-138.821 915.065,-94.2624 920.251,-75.7514"/>
<polygon fill="midnightblue" stroke="midnightblue" points="809.123,-335.444 800.19,-341.141 810.726,-342.258 809.123,-335.444"/>
</g>
<!-- Node19&#45;&gt;Node14 -->
<g id="edge36" class="edge"><title>Node19&#45;&gt;Node14</title>
<path fill="none" stroke="midnightblue" d="M781.524,-325.93C790.418,-289.92 809.359,-213.231 815.697,-187.568"/>
<polygon fill="midnightblue" stroke="midnightblue" points="778.018,-325.528 779.018,-336.075 784.814,-327.206 778.018,-325.528"/>
</g>
<!-- Node19&#45;&gt;Node18 -->
<g id="edge30" class="edge"><title>Node19&#45;&gt;Node18</title>
<path fill="none" stroke="midnightblue" d="M757.5,-330.101C744.902,-320.382 728.886,-308.027 718.265,-299.834"/>
<polygon fill="midnightblue" stroke="midnightblue" points="755.511,-332.987 765.567,-336.324 759.787,-327.445 755.511,-332.987"/>
</g>
<!-- Node19&#45;&gt;Node20 -->
<g id="edge33" class="edge"><title>Node19&#45;&gt;Node20</title>
<path fill="none" stroke="midnightblue" d="M810.125,-338.028C861.682,-327.237 959.818,-306.697 1007.48,-296.721"/>
<polygon fill="midnightblue" stroke="midnightblue" points="809.235,-334.638 800.164,-340.113 810.669,-341.49 809.235,-334.638"/>
</g>
<!-- Node22 -->
<g id="node22" class="node"><title>Node22</title>
<g id="a_node22"><a xlink:href="zbdd_8cc.xhtml" target="_top" xlink:title="Implementation of Zero&#45;Suppressed BDD algorithms. ">
<polygon fill="white" stroke="black" points="824.314,-280.5 824.314,-299.5 875.314,-299.5 875.314,-280.5 824.314,-280.5"/>
<text text-anchor="middle" x="849.814" y="-287.5" font-family="Helvetica,sans-Serif" font-size="10.00">zbdd.cc</text>
</a>
</g>
</g>
<!-- Node19&#45;&gt;Node22 -->
<g id="edge38" class="edge"><title>Node19&#45;&gt;Node22</title>
<path fill="none" stroke="midnightblue" d="M796.955,-330.101C810.093,-320.382 826.796,-308.027 837.872,-299.834"/>
<polygon fill="midnightblue" stroke="midnightblue" points="794.5,-327.563 788.542,-336.324 798.663,-333.191 794.5,-327.563"/>
</g>
<!-- Node20&#45;&gt;Node13 -->
<g id="edge35" class="edge"><title>Node20&#45;&gt;Node13</title>
<path fill="none" stroke="midnightblue" d="M1039.1,-270.494C1041.36,-257.224 1042.75,-239.1 1037.81,-224 1016.39,-158.487 956.086,-97.6889 932.469,-75.6926"/>
<polygon fill="midnightblue" stroke="midnightblue" points="1035.66,-269.831 1037.12,-280.325 1042.53,-271.213 1035.66,-269.831"/>
</g>
<!-- Node21 -->
<g id="node21" class="node"><title>Node21</title>
<g id="a_node21"><a xlink:href="mocus_8cc.xhtml" target="_top" xlink:title="Implementation of the MOCUS algorithm. ">
<polygon fill="white" stroke="black" points="970.314,-224.5 970.314,-243.5 1029.31,-243.5 1029.31,-224.5 970.314,-224.5"/>
<text text-anchor="middle" x="999.814" y="-231.5" font-family="Helvetica,sans-Serif" font-size="10.00">mocus.cc</text>
</a>
</g>
</g>
<!-- Node20&#45;&gt;Node21 -->
<g id="edge34" class="edge"><title>Node20&#45;&gt;Node21</title>
<path fill="none" stroke="midnightblue" d="M1023.51,-271.566C1017.49,-262.275 1010.35,-251.248 1005.49,-243.751"/>
<polygon fill="midnightblue" stroke="midnightblue" points="1020.66,-273.595 1029.03,-280.083 1026.53,-269.788 1020.66,-273.595"/>
</g>
<!-- Node23&#45;&gt;Node11 -->
<g id="edge44" class="edge"><title>Node23&#45;&gt;Node11</title>
<path fill="none" stroke="midnightblue" d="M1072.52,-385.17C1079.87,-377.025 1088.21,-366.596 1093.81,-356 1107.88,-329.391 1112.81,-321.098 1112.81,-291 1112.81,-291 1112.81,-291 1112.81,-121 1112.81,-83.1875 1112.81,-38.0636 1112.81,-19.5578"/>
<polygon fill="midnightblue" stroke="midnightblue" points="1069.95,-382.796 1065.65,-392.477 1075.05,-387.593 1069.95,-382.796"/>
</g>
<!-- Node24 -->
<g id="node24" class="node"><title>Node24</title>
<g id="a_node24"><a xlink:href="config_8cc.xhtml" target="_top" xlink:title="Implementation of configuration facilities. ">
<polygon fill="white" stroke="black" points="1028.81,-336.5 1028.81,-355.5 1084.81,-355.5 1084.81,-336.5 1028.81,-336.5"/>
<text text-anchor="middle" x="1056.81" y="-343.5" font-family="Helvetica,sans-Serif" font-size="10.00">config.cc</text>
</a>
</g>
</g>
<!-- Node23&#45;&gt;Node24 -->
<g id="edge43" class="edge"><title>Node23&#45;&gt;Node24</title>
<path fill="none" stroke="midnightblue" d="M1056.81,-381.805C1056.81,-372.91 1056.81,-362.78 1056.81,-355.751"/>
<polygon fill="midnightblue" stroke="midnightblue" points="1053.31,-382.083 1056.81,-392.083 1060.31,-382.083 1053.31,-382.083"/>
</g>
<!-- Node25&#45;&gt;Node11 -->
<g id="edge49" class="edge"><title>Node25&#45;&gt;Node11</title>
<path fill="none" stroke="midnightblue" d="M1193.22,-385.54C1201.77,-377.505 1211.43,-367.063 1217.81,-356 1232.86,-329.934 1236.81,-321.098 1236.81,-291 1236.81,-291 1236.81,-291 1236.81,-121 1236.81,-67.9054 1172.41,-34.2062 1136.43,-19.5239"/>
<polygon fill="midnightblue" stroke="midnightblue" points="1190.63,-383.168 1185.51,-392.448 1195.3,-388.382 1190.63,-383.168"/>
</g>
<!-- Node26 -->
<g id="node26" class="node"><title>Node26</title>
<g id="a_node26"><a xlink:href="initializer_8cc.xhtml" target="_top" xlink:title="Implementation of input file processing into analysis constructs. ">
<polygon fill="white" stroke="black" points="1140.81,-336.5 1140.81,-355.5 1208.81,-355.5 1208.81,-336.5 1140.81,-336.5"/>
<text text-anchor="middle" x="1174.81" y="-343.5" font-family="Helvetica,sans-Serif" font-size="10.00">initializer.cc</text>
</a>
</g>
</g>
<!-- Node25&#45;&gt;Node26 -->
<g id="edge48" class="edge"><title>Node25&#45;&gt;Node26</title>
<path fill="none" stroke="midnightblue" d="M1174.81,-381.805C1174.81,-372.91 1174.81,-362.78 1174.81,-355.751"/>
<polygon fill="midnightblue" stroke="midnightblue" points="1171.31,-382.083 1174.81,-392.083 1178.31,-382.083 1171.31,-382.083"/>
</g>
</g>
</svg>
        <g id="navigator" transform="translate(0 0)" fill="#404254">
                <rect fill="#f2f5e9" fill-opacity="0.5" stroke="#606060" stroke-width=".5" x="0" y="0" width="60" height="60"/>
                <use id="zoomplus" xlink:href="#zoomPlus" x="17" y="9" onmousedown="handleZoom(evt,'in')"/>
                <use id="zoomminus" xlink:href="#zoomMin" x="42" y="9" onmousedown="handleZoom(evt,'out')"/>
                <use id="reset" xlink:href="#resetDef" x="30" y="36" onmousedown="handleReset()"/>
                <g id="arrowUp" xlink:href="#dirArrow" transform="translate(30 24)" onmousedown="handlePan(0,-1)">
                  <use xlink:href="#rim" fill="#404040">
                        <set attributeName="fill" to="#808080" begin="arrowUp.mouseover" end="arrowUp.mouseout"/>
                  </use>
                  <path fill="none" stroke="white" stroke-width="1.5" d="M0,-3.0v7 M-2.5,-0.5L0,-3.0L2.5,-0.5"/>
                </g>
                <g id="arrowRight" xlink:href="#dirArrow" transform="rotate(90) translate(36 -43)" onmousedown="handlePan(1,0)">
                  <use xlink:href="#rim" fill="#404040">
                        <set attributeName="fill" to="#808080" begin="arrowRight.mouseover" end="arrowRight.mouseout"/>
                  </use>
                  <path fill="none" stroke="white" stroke-width="1.5" d="M0,-3.0v7 M-2.5,-0.5L0,-3.0L2.5,-0.5"/>
                </g>
                <g id="arrowDown" xlink:href="#dirArrow" transform="rotate(180) translate(-30 -48)" onmousedown="handlePan(0,1)">
                  <use xlink:href="#rim" fill="#404040">
                        <set attributeName="fill" to="#808080" begin="arrowDown.mouseover" end="arrowDown.mouseout"/>
                  </use>
                  <path fill="none" stroke="white" stroke-width="1.5" d="M0,-3.0v7 M-2.5,-0.5L0,-3.0L2.5,-0.5"/>
                </g>
                <g id="arrowLeft" xlink:href="#dirArrow" transform="rotate(270) translate(-36 17)" onmousedown="handlePan(-1,0)">
                  <use xlink:href="#rim" fill="#404040">
                        <set attributeName="fill" to="#808080" begin="arrowLeft.mouseover" end="arrowLeft.mouseout"/>
                  </use>
                  <path fill="none" stroke="white" stroke-width="1.5" d="M0,-3.0v7 M-2.5,-0.5L0,-3.0L2.5,-0.5"/>
                </g>
        </g>
        <svg viewBox="0 0 15 15" width="100%" height="30px" preserveAspectRatio="xMaxYMin meet">
         <g id="arrow_out" transform="scale(0.3 0.3)">
          <a xlink:href="settings_8h__dep__incl_org.svg" target="_base">
           <rect id="button" ry="5" rx="5" y="6" x="6" height="38" width="38"
                fill="#f2f5e9" fill-opacity="0.5" stroke="#606060" stroke-width="1.0"/>
           <path id="arrow"
             d="M 11.500037,31.436501 C 11.940474,20.09759 22.043105,11.32322 32.158766,21.979434 L 37.068811,17.246167 C 37.068811,17.246167 37.088388,32 37.088388,32 L 22.160133,31.978069 C 22.160133,31.978069 26.997745,27.140456 26.997745,27.140456 C 18.528582,18.264221 13.291696,25.230495 11.500037,31.436501 z"
             style="fill:#404040;"/>
          </a>
         </g>
        </svg>
</svg>
