<?xml version="1.0" encoding="UTF-8" standalone="no"?>
<!DOCTYPE svg PUBLIC "-//W3C//DTD SVG 1.1//EN"
 "http://www.w3.org/Graphics/SVG/1.1/DTD/svg11.dtd">
<!-- Generated by graphviz version 2.38.0 (20140413.2041)
 -->
<!-- Title: scram::core::IntrusivePtrCast&lt; T, W &gt; Pages: 1 -->
<svg width="441pt" height="1007pt"
 viewBox="0.00 0.00 440.50 1007.00" xmlns="http://www.w3.org/2000/svg" xmlns:xlink="http://www.w3.org/1999/xlink">
<g id="graph0" class="graph" transform="scale(1 1) rotate(0) translate(4 1003)">
<title>scram::core::IntrusivePtrCast&lt; T, W &gt;</title>
<polygon fill="white" stroke="none" points="-4,4 -4,-1003 436.5,-1003 436.5,4 -4,4"/>
<!-- Node1 -->
<g id="node1" class="node"><title>Node1</title>
<polygon fill="#bfbfbf" stroke="black" points="161,-897.5 161,-998.5 286,-998.5 286,-897.5 161,-897.5"/>
<text text-anchor="start" x="169" y="-986.5" font-family="Helvetica,sans-Serif" font-size="10.00">scram::core::IntrusivePtr</text>
<text text-anchor="middle" x="223.5" y="-975.5" font-family="Helvetica,sans-Serif" font-size="10.00">Cast&lt; T, W &gt;</text>
<polyline fill="none" stroke="black" points="161,-968.5 286,-968.5 "/>
<text text-anchor="middle" x="223.5" y="-956.5" font-family="Helvetica,sans-Serif" font-size="10.00"> </text>
<polyline fill="none" stroke="black" points="161,-949.5 286,-949.5 "/>
<text text-anchor="start" x="169" y="-937.5" font-family="Helvetica,sans-Serif" font-size="10.00">+ Ptr()</text>
<text text-anchor="start" x="169" y="-926.5" font-family="Helvetica,sans-Serif" font-size="10.00">+ Ref()</text>
<text text-anchor="start" x="169" y="-915.5" font-family="Helvetica,sans-Serif" font-size="10.00">* Ptr()</text>
<text text-anchor="start" x="169" y="-904.5" font-family="Helvetica,sans-Serif" font-size="10.00">* Ref()</text>
</g>
<!-- Node2 -->
<g id="node2" class="node"><title>Node2</title>
<g id="a_node2"><a xlink:href="structscram_1_1core_1_1IntrusivePtrCast.xhtml" target="_top" xlink:title="{scram::core::IntrusivePtr\lCast\&lt; Ite \&gt;\n||+ Ptr()\l+ Ref()\l* Ptr()\l* Ref()\l}">
<polygon fill="white" stroke="black" points="0,-628.5 0,-729.5 125,-729.5 125,-628.5 0,-628.5"/>
<text text-anchor="start" x="8" y="-717.5" font-family="Helvetica,sans-Serif" font-size="10.00">scram::core::IntrusivePtr</text>
<text text-anchor="middle" x="62.5" y="-706.5" font-family="Helvetica,sans-Serif" font-size="10.00">Cast&lt; Ite &gt;</text>
<polyline fill="none" stroke="black" points="0,-699.5 125,-699.5 "/>
<text text-anchor="middle" x="62.5" y="-687.5" font-family="Helvetica,sans-Serif" font-size="10.00"> </text>
<polyline fill="none" stroke="black" points="0,-680.5 125,-680.5 "/>
<text text-anchor="start" x="8" y="-668.5" font-family="Helvetica,sans-Serif" font-size="10.00">+ Ptr()</text>
<text text-anchor="start" x="8" y="-657.5" font-family="Helvetica,sans-Serif" font-size="10.00">+ Ref()</text>
<text text-anchor="start" x="8" y="-646.5" font-family="Helvetica,sans-Serif" font-size="10.00">* Ptr()</text>
<text text-anchor="start" x="8" y="-635.5" font-family="Helvetica,sans-Serif" font-size="10.00">* Ref()</text>
</a>
</g>
</g>
<!-- Node1&#45;&gt;Node2 -->
<g id="edge1" class="edge"><title>Node1&#45;&gt;Node2</title>
<path fill="none" stroke="orange" d="M152.395,-907.776C130.684,-892.463 108.795,-873.003 94.5,-850 71.9898,-813.779 64.6062,-765.435 62.4939,-729.562"/>
<polygon fill="orange" stroke="orange" points="150.459,-910.692 160.691,-913.441 154.407,-904.912 150.459,-910.692"/>
<text text-anchor="middle" x="133" y="-871" font-family="Helvetica,sans-Serif" font-size="10.00"> &lt; Ite &gt;</text>
</g>
<!-- Node5 -->
<g id="node5" class="node"><title>Node5</title>
<g id="a_node5"><a xlink:href="structscram_1_1core_1_1IntrusivePtrCast.xhtml" target="_top" xlink:title="{scram::core::IntrusivePtr\lCast\&lt; T \&gt;\n||+ Ptr()\l+ Ref()\l* Ptr()\l* Ref()\l}">
<polygon fill="white" stroke="black" points="104,-748.5 104,-849.5 229,-849.5 229,-748.5 104,-748.5"/>
<text text-anchor="start" x="112" y="-837.5" font-family="Helvetica,sans-Serif" font-size="10.00">scram::core::IntrusivePtr</text>
<text text-anchor="middle" x="166.5" y="-826.5" font-family="Helvetica,sans-Serif" font-size="10.00">Cast&lt; T &gt;</text>
<polyline fill="none" stroke="black" points="104,-819.5 229,-819.5 "/>
<text text-anchor="middle" x="166.5" y="-807.5" font-family="Helvetica,sans-Serif" font-size="10.00"> </text>
<polyline fill="none" stroke="black" points="104,-800.5 229,-800.5 "/>
<text text-anchor="start" x="112" y="-788.5" font-family="Helvetica,sans-Serif" font-size="10.00">+ Ptr()</text>
<text text-anchor="start" x="112" y="-777.5" font-family="Helvetica,sans-Serif" font-size="10.00">+ Ref()</text>
<text text-anchor="start" x="112" y="-766.5" font-family="Helvetica,sans-Serif" font-size="10.00">* Ptr()</text>
<text text-anchor="start" x="112" y="-755.5" font-family="Helvetica,sans-Serif" font-size="10.00">* Ref()</text>
</a>
</g>
</g>
<!-- Node1&#45;&gt;Node5 -->
<g id="edge4" class="edge"><title>Node1&#45;&gt;Node5</title>
<path fill="none" stroke="orange" d="M200.517,-887.728C195.627,-875.118 190.512,-861.926 185.778,-849.716"/>
<polygon fill="orange" stroke="orange" points="197.324,-889.174 204.202,-897.233 203.85,-886.644 197.324,-889.174"/>
<text text-anchor="middle" x="211.5" y="-871" font-family="Helvetica,sans-Serif" font-size="10.00"> &lt; T &gt;</text>
</g>
<!-- Node9 -->
<g id="node9" class="node"><title>Node9</title>
<g id="a_node9"><a xlink:href="structscram_1_1core_1_1IntrusivePtrCast.xhtml" target="_top" xlink:title="{scram::core::IntrusivePtr\lCast\&lt; SetNode \&gt;\n||+ Ptr()\l+ Ref()\l* Ptr()\l* Ref()\l}">
<polygon fill="white" stroke="black" points="199,-628.5 199,-729.5 324,-729.5 324,-628.5 199,-628.5"/>
<text text-anchor="start" x="207" y="-717.5" font-family="Helvetica,sans-Serif" font-size="10.00">scram::core::IntrusivePtr</text>
<text text-anchor="middle" x="261.5" y="-706.5" font-family="Helvetica,sans-Serif" font-size="10.00">Cast&lt; SetNode &gt;</text>
<polyline fill="none" stroke="black" points="199,-699.5 324,-699.5 "/>
<text text-anchor="middle" x="261.5" y="-687.5" font-family="Helvetica,sans-Serif" font-size="10.00"> </text>
<polyline fill="none" stroke="black" points="199,-680.5 324,-680.5 "/>
<text text-anchor="start" x="207" y="-668.5" font-family="Helvetica,sans-Serif" font-size="10.00">+ Ptr()</text>
<text text-anchor="start" x="207" y="-657.5" font-family="Helvetica,sans-Serif" font-size="10.00">+ Ref()</text>
<text text-anchor="start" x="207" y="-646.5" font-family="Helvetica,sans-Serif" font-size="10.00">* Ptr()</text>
<text text-anchor="start" x="207" y="-635.5" font-family="Helvetica,sans-Serif" font-size="10.00">* Ref()</text>
</a>
</g>
</g>
<!-- Node1&#45;&gt;Node9 -->
<g id="edge9" class="edge"><title>Node1&#45;&gt;Node9</title>
<path fill="none" stroke="orange" d="M232.185,-887.03C233.951,-874.78 235.791,-861.975 237.5,-850 243.271,-809.575 249.738,-763.731 254.504,-729.845"/>
<polygon fill="orange" stroke="orange" points="228.688,-886.762 230.724,-897.159 235.616,-887.761 228.688,-886.762"/>
<text text-anchor="middle" x="265.5" y="-871" font-family="Helvetica,sans-Serif" font-size="10.00"> &lt; SetNode &gt;</text>
</g>
<!-- Node10 -->
<g id="node10" class="node"><title>Node10</title>
<g id="a_node10"><a xlink:href="structscram_1_1core_1_1IntrusivePtrCast.xhtml" target="_top" xlink:title="{scram::core::IntrusivePtr\lCast\&lt; T, Terminal\&lt; T \&gt; \&gt;\n||+ Ptr()\l+ Ref()\l* Ptr()\l* Ref()\l}">
<polygon fill="white" stroke="black" points="295,-748.5 295,-849.5 424,-849.5 424,-748.5 295,-748.5"/>
<text text-anchor="start" x="303" y="-837.5" font-family="Helvetica,sans-Serif" font-size="10.00">scram::core::IntrusivePtr</text>
<text text-anchor="middle" x="359.5" y="-826.5" font-family="Helvetica,sans-Serif" font-size="10.00">Cast&lt; T, Terminal&lt; T &gt; &gt;</text>
<polyline fill="none" stroke="black" points="295,-819.5 424,-819.5 "/>
<text text-anchor="middle" x="359.5" y="-807.5" font-family="Helvetica,sans-Serif" font-size="10.00"> </text>
<polyline fill="none" stroke="black" points="295,-800.5 424,-800.5 "/>
<text text-anchor="start" x="303" y="-788.5" font-family="Helvetica,sans-Serif" font-size="10.00">+ Ptr()</text>
<text text-anchor="start" x="303" y="-777.5" font-family="Helvetica,sans-Serif" font-size="10.00">+ Ref()</text>
<text text-anchor="start" x="303" y="-766.5" font-family="Helvetica,sans-Serif" font-size="10.00">* Ptr()</text>
<text text-anchor="start" x="303" y="-755.5" font-family="Helvetica,sans-Serif" font-size="10.00">* Ref()</text>
</a>
</g>
</g>
<!-- Node1&#45;&gt;Node10 -->
<g id="edge11" class="edge"><title>Node1&#45;&gt;Node10</title>
<path fill="none" stroke="orange" d="M294.597,-906.712C305.499,-898.493 315.951,-889.198 324.5,-879 331.728,-870.378 337.724,-860.027 342.591,-849.701"/>
<polygon fill="orange" stroke="orange" points="292.25,-904.089 286.196,-912.784 296.351,-909.762 292.25,-904.089"/>
<text text-anchor="middle" x="379" y="-871" font-family="Helvetica,sans-Serif" font-size="10.00"> &lt; T, Terminal&lt; T &gt; &gt;</text>
</g>
<!-- Node3 -->
<g id="node3" class="node"><title>Node3</title>
<g id="a_node3"><a xlink:href="classscram_1_1core_1_1NonTerminal.xhtml" target="_top" xlink:title="{scram::core::NonTerminal\l\&lt; Ite \&gt;\n||+ NonTerminal()\l+ index()\l+ order()\l+ module()\l+ module()\l+ coherent()\l+ coherent()\l+ high()\l+ low()\l+ mark()\l+ mark()\l# ~NonTerminal()\l* get_high_id\l* get_low_id\l}">
<polygon fill="white" stroke="black" points="21.5,-150.5 21.5,-361.5 151.5,-361.5 151.5,-150.5 21.5,-150.5"/>
<text text-anchor="start" x="29.5" y="-349.5" font-family="Helvetica,sans-Serif" font-size="10.00">scram::core::NonTerminal</text>
<text text-anchor="middle" x="86.5" y="-338.5" font-family="Helvetica,sans-Serif" font-size="10.00">&lt; Ite &gt;</text>
<polyline fill="none" stroke="black" points="21.5,-331.5 151.5,-331.5 "/>
<text text-anchor="middle" x="86.5" y="-319.5" font-family="Helvetica,sans-Serif" font-size="10.00"> </text>
<polyline fill="none" stroke="black" points="21.5,-312.5 151.5,-312.5 "/>
<text text-anchor="start" x="29.5" y="-300.5" font-family="Helvetica,sans-Serif" font-size="10.00">+ NonTerminal()</text>
<text text-anchor="start" x="29.5" y="-289.5" font-family="Helvetica,sans-Serif" font-size="10.00">+ index()</text>
<text text-anchor="start" x="29.5" y="-278.5" font-family="Helvetica,sans-Serif" font-size="10.00">+ order()</text>
<text text-anchor="start" x="29.5" y="-267.5" font-family="Helvetica,sans-Serif" font-size="10.00">+ module()</text>
<text text-anchor="start" x="29.5" y="-256.5" font-family="Helvetica,sans-Serif" font-size="10.00">+ module()</text>
<text text-anchor="start" x="29.5" y="-245.5" font-family="Helvetica,sans-Serif" font-size="10.00">+ coherent()</text>
<text text-anchor="start" x="29.5" y="-234.5" font-family="Helvetica,sans-Serif" font-size="10.00">+ coherent()</text>
<text text-anchor="start" x="29.5" y="-223.5" font-family="Helvetica,sans-Serif" font-size="10.00">+ high()</text>
<text text-anchor="start" x="29.5" y="-212.5" font-family="Helvetica,sans-Serif" font-size="10.00">+ low()</text>
<text text-anchor="start" x="29.5" y="-201.5" font-family="Helvetica,sans-Serif" font-size="10.00">+ mark()</text>
<text text-anchor="start" x="29.5" y="-190.5" font-family="Helvetica,sans-Serif" font-size="10.00">+ mark()</text>
<text text-anchor="start" x="29.5" y="-179.5" font-family="Helvetica,sans-Serif" font-size="10.00"># ~NonTerminal()</text>
<text text-anchor="start" x="29.5" y="-168.5" font-family="Helvetica,sans-Serif" font-size="10.00">* get_high_id</text>
<text text-anchor="start" x="29.5" y="-157.5" font-family="Helvetica,sans-Serif" font-size="10.00">* get_low_id</text>
</a>
</g>
</g>
<!-- Node2&#45;&gt;Node3 -->
<g id="edge2" class="edge"><title>Node2&#45;&gt;Node3</title>
<path fill="none" stroke="midnightblue" d="M65.7733,-618.241C68.7734,-563.726 73.3641,-480.946 77.5,-409 78.3799,-393.693 79.3231,-377.52 80.2558,-361.658"/>
<polygon fill="none" stroke="midnightblue" points="62.2681,-618.241 65.2136,-628.418 69.2575,-618.625 62.2681,-618.241"/>
</g>
<!-- Node4 -->
<g id="node4" class="node"><title>Node4</title>
<g id="a_node4"><a xlink:href="classscram_1_1core_1_1Ite.xhtml" target="_top" xlink:title="Representation of non&#45;terminal if&#45;then&#45;else vertices in BDD graphs. ">
<polygon fill="white" stroke="black" points="31,-0.5 31,-112.5 142,-112.5 142,-0.5 31,-0.5"/>
<text text-anchor="middle" x="86.5" y="-100.5" font-family="Helvetica,sans-Serif" font-size="10.00">scram::core::Ite</text>
<polyline fill="none" stroke="black" points="31,-93.5 142,-93.5 "/>
<text text-anchor="middle" x="86.5" y="-81.5" font-family="Helvetica,sans-Serif" font-size="10.00"> </text>
<polyline fill="none" stroke="black" points="31,-74.5 142,-74.5 "/>
<text text-anchor="start" x="39" y="-62.5" font-family="Helvetica,sans-Serif" font-size="10.00">+ complement_edge()</text>
<text text-anchor="start" x="39" y="-51.5" font-family="Helvetica,sans-Serif" font-size="10.00">+ complement_edge()</text>
<text text-anchor="start" x="39" y="-40.5" font-family="Helvetica,sans-Serif" font-size="10.00">+ p()</text>
<text text-anchor="start" x="39" y="-29.5" font-family="Helvetica,sans-Serif" font-size="10.00">+ p()</text>
<text text-anchor="start" x="39" y="-18.5" font-family="Helvetica,sans-Serif" font-size="10.00">+ factor()</text>
<text text-anchor="start" x="39" y="-7.5" font-family="Helvetica,sans-Serif" font-size="10.00">+ factor()</text>
</a>
</g>
</g>
<!-- Node3&#45;&gt;Node4 -->
<g id="edge3" class="edge"><title>Node3&#45;&gt;Node4</title>
<path fill="none" stroke="midnightblue" d="M86.5,-140.419C86.5,-130.833 86.5,-121.451 86.5,-112.648"/>
<polygon fill="none" stroke="midnightblue" points="83.0001,-140.467 86.5,-150.467 90.0001,-140.467 83.0001,-140.467"/>
</g>
<!-- Node6 -->
<g id="node6" class="node"><title>Node6</title>
<g id="a_node6"><a xlink:href="classscram_1_1core_1_1NonTerminal.xhtml" target="_top" xlink:title="Representation of non&#45;terminal vertices in BDD graphs. ">
<polygon fill="white" stroke="black" points="86.5,-409.5 86.5,-609.5 240.5,-609.5 240.5,-409.5 86.5,-409.5"/>
<text text-anchor="middle" x="163.5" y="-597.5" font-family="Helvetica,sans-Serif" font-size="10.00">scram::core::NonTerminal&lt; T &gt;</text>
<polyline fill="none" stroke="black" points="86.5,-590.5 240.5,-590.5 "/>
<text text-anchor="middle" x="163.5" y="-578.5" font-family="Helvetica,sans-Serif" font-size="10.00"> </text>
<polyline fill="none" stroke="black" points="86.5,-571.5 240.5,-571.5 "/>
<text text-anchor="start" x="94.5" y="-559.5" font-family="Helvetica,sans-Serif" font-size="10.00">+ NonTerminal()</text>
<text text-anchor="start" x="94.5" y="-548.5" font-family="Helvetica,sans-Serif" font-size="10.00">+ index()</text>
<text text-anchor="start" x="94.5" y="-537.5" font-family="Helvetica,sans-Serif" font-size="10.00">+ order()</text>
<text text-anchor="start" x="94.5" y="-526.5" font-family="Helvetica,sans-Serif" font-size="10.00">+ module()</text>
<text text-anchor="start" x="94.5" y="-515.5" font-family="Helvetica,sans-Serif" font-size="10.00">+ module()</text>
<text text-anchor="start" x="94.5" y="-504.5" font-family="Helvetica,sans-Serif" font-size="10.00">+ coherent()</text>
<text text-anchor="start" x="94.5" y="-493.5" font-family="Helvetica,sans-Serif" font-size="10.00">+ coherent()</text>
<text text-anchor="start" x="94.5" y="-482.5" font-family="Helvetica,sans-Serif" font-size="10.00">+ high()</text>
<text text-anchor="start" x="94.5" y="-471.5" font-family="Helvetica,sans-Serif" font-size="10.00">+ low()</text>
<text text-anchor="start" x="94.5" y="-460.5" font-family="Helvetica,sans-Serif" font-size="10.00">+ mark()</text>
<text text-anchor="start" x="94.5" y="-449.5" font-family="Helvetica,sans-Serif" font-size="10.00">+ mark()</text>
<text text-anchor="start" x="94.5" y="-438.5" font-family="Helvetica,sans-Serif" font-size="10.00"># ~NonTerminal()</text>
<text text-anchor="start" x="94.5" y="-427.5" font-family="Helvetica,sans-Serif" font-size="10.00">* get_high_id</text>
<text text-anchor="start" x="94.5" y="-416.5" font-family="Helvetica,sans-Serif" font-size="10.00">* get_low_id</text>
</a>
</g>
</g>
<!-- Node5&#45;&gt;Node6 -->
<g id="edge5" class="edge"><title>Node5&#45;&gt;Node6</title>
<path fill="none" stroke="midnightblue" d="M165.875,-738.097C165.488,-700.97 164.98,-652.372 164.534,-609.62"/>
<polygon fill="none" stroke="midnightblue" points="162.377,-738.287 165.981,-748.25 169.376,-738.214 162.377,-738.287"/>
</g>
<!-- Node6&#45;&gt;Node3 -->
<g id="edge6" class="edge"><title>Node6&#45;&gt;Node3</title>
<path fill="none" stroke="orange" d="M126.146,-399.489C125.246,-396.633 124.362,-393.8 123.5,-391 120.587,-381.543 117.659,-371.678 114.794,-361.779"/>
<polygon fill="orange" stroke="orange" points="122.891,-400.804 129.262,-409.27 129.561,-398.679 122.891,-400.804"/>
<text text-anchor="middle" x="140" y="-383" font-family="Helvetica,sans-Serif" font-size="10.00"> &lt; Ite &gt;</text>
</g>
<!-- Node7 -->
<g id="node7" class="node"><title>Node7</title>
<g id="a_node7"><a xlink:href="classscram_1_1core_1_1NonTerminal.xhtml" target="_top" xlink:title="{scram::core::NonTerminal\l\&lt; SetNode \&gt;\n||+ NonTerminal()\l+ index()\l+ order()\l+ module()\l+ module()\l+ coherent()\l+ coherent()\l+ high()\l+ low()\l+ mark()\l+ mark()\l# ~NonTerminal()\l* get_high_id\l* get_low_id\l}">
<polygon fill="white" stroke="black" points="186.5,-150.5 186.5,-361.5 316.5,-361.5 316.5,-150.5 186.5,-150.5"/>
<text text-anchor="start" x="194.5" y="-349.5" font-family="Helvetica,sans-Serif" font-size="10.00">scram::core::NonTerminal</text>
<text text-anchor="middle" x="251.5" y="-338.5" font-family="Helvetica,sans-Serif" font-size="10.00">&lt; SetNode &gt;</text>
<polyline fill="none" stroke="black" points="186.5,-331.5 316.5,-331.5 "/>
<text text-anchor="middle" x="251.5" y="-319.5" font-family="Helvetica,sans-Serif" font-size="10.00"> </text>
<polyline fill="none" stroke="black" points="186.5,-312.5 316.5,-312.5 "/>
<text text-anchor="start" x="194.5" y="-300.5" font-family="Helvetica,sans-Serif" font-size="10.00">+ NonTerminal()</text>
<text text-anchor="start" x="194.5" y="-289.5" font-family="Helvetica,sans-Serif" font-size="10.00">+ index()</text>
<text text-anchor="start" x="194.5" y="-278.5" font-family="Helvetica,sans-Serif" font-size="10.00">+ order()</text>
<text text-anchor="start" x="194.5" y="-267.5" font-family="Helvetica,sans-Serif" font-size="10.00">+ module()</text>
<text text-anchor="start" x="194.5" y="-256.5" font-family="Helvetica,sans-Serif" font-size="10.00">+ module()</text>
<text text-anchor="start" x="194.5" y="-245.5" font-family="Helvetica,sans-Serif" font-size="10.00">+ coherent()</text>
<text text-anchor="start" x="194.5" y="-234.5" font-family="Helvetica,sans-Serif" font-size="10.00">+ coherent()</text>
<text text-anchor="start" x="194.5" y="-223.5" font-family="Helvetica,sans-Serif" font-size="10.00">+ high()</text>
<text text-anchor="start" x="194.5" y="-212.5" font-family="Helvetica,sans-Serif" font-size="10.00">+ low()</text>
<text text-anchor="start" x="194.5" y="-201.5" font-family="Helvetica,sans-Serif" font-size="10.00">+ mark()</text>
<text text-anchor="start" x="194.5" y="-190.5" font-family="Helvetica,sans-Serif" font-size="10.00">+ mark()</text>
<text text-anchor="start" x="194.5" y="-179.5" font-family="Helvetica,sans-Serif" font-size="10.00"># ~NonTerminal()</text>
<text text-anchor="start" x="194.5" y="-168.5" font-family="Helvetica,sans-Serif" font-size="10.00">* get_high_id</text>
<text text-anchor="start" x="194.5" y="-157.5" font-family="Helvetica,sans-Serif" font-size="10.00">* get_low_id</text>
</a>
</g>
</g>
<!-- Node6&#45;&gt;Node7 -->
<g id="edge7" class="edge"><title>Node6&#45;&gt;Node7</title>
<path fill="none" stroke="orange" d="M188.184,-399.552C190.185,-392.896 192.293,-386.334 194.5,-380 196.591,-373.999 198.875,-367.896 201.289,-361.779"/>
<polygon fill="orange" stroke="orange" points="184.765,-398.776 185.328,-409.356 191.485,-400.734 184.765,-398.776"/>
<text text-anchor="middle" x="224.5" y="-383" font-family="Helvetica,sans-Serif" font-size="10.00"> &lt; SetNode &gt;</text>
</g>
<!-- Node8 -->
<g id="node8" class="node"><title>Node8</title>
<g id="a_node8"><a xlink:href="classscram_1_1core_1_1SetNode.xhtml" target="_top" xlink:title="Representation of non&#45;terminal nodes in ZBDD. ">
<polygon fill="white" stroke="black" points="195,-0.5 195,-112.5 308,-112.5 308,-0.5 195,-0.5"/>
<text text-anchor="middle" x="251.5" y="-100.5" font-family="Helvetica,sans-Serif" font-size="10.00">scram::core::SetNode</text>
<polyline fill="none" stroke="black" points="195,-93.5 308,-93.5 "/>
<text text-anchor="middle" x="251.5" y="-81.5" font-family="Helvetica,sans-Serif" font-size="10.00"> </text>
<polyline fill="none" stroke="black" points="195,-74.5 308,-74.5 "/>
<text text-anchor="start" x="203" y="-62.5" font-family="Helvetica,sans-Serif" font-size="10.00">+ minimal()</text>
<text text-anchor="start" x="203" y="-51.5" font-family="Helvetica,sans-Serif" font-size="10.00">+ minimal()</text>
<text text-anchor="start" x="203" y="-40.5" font-family="Helvetica,sans-Serif" font-size="10.00">+ max_set_order()</text>
<text text-anchor="start" x="203" y="-29.5" font-family="Helvetica,sans-Serif" font-size="10.00">+ max_set_order()</text>
<text text-anchor="start" x="203" y="-18.5" font-family="Helvetica,sans-Serif" font-size="10.00">+ count()</text>
<text text-anchor="start" x="203" y="-7.5" font-family="Helvetica,sans-Serif" font-size="10.00">+ count()</text>
</a>
</g>
</g>
<!-- Node7&#45;&gt;Node8 -->
<g id="edge8" class="edge"><title>Node7&#45;&gt;Node8</title>
<path fill="none" stroke="midnightblue" d="M251.5,-140.419C251.5,-130.833 251.5,-121.451 251.5,-112.648"/>
<polygon fill="none" stroke="midnightblue" points="248,-140.467 251.5,-150.467 255,-140.467 248,-140.467"/>
</g>
<!-- Node9&#45;&gt;Node7 -->
<g id="edge10" class="edge"><title>Node9&#45;&gt;Node7</title>
<path fill="none" stroke="midnightblue" d="M260.115,-618.359C258.714,-558.199 256.479,-462.652 254.5,-380 254.357,-374.021 254.209,-367.878 254.06,-361.679"/>
<polygon fill="none" stroke="midnightblue" points="256.618,-618.52 260.349,-628.435 263.616,-618.357 256.618,-618.52"/>
</g>
<!-- Node11 -->
<g id="node11" class="node"><title>Node11</title>
<g id="a_node11"><a xlink:href="classscram_1_1core_1_1Terminal.xhtml" target="_top" xlink:title="Representation of terminal vertices in BDD graphs. ">
<polygon fill="white" stroke="black" points="296.5,-475.5 296.5,-543.5 432.5,-543.5 432.5,-475.5 296.5,-475.5"/>
<text text-anchor="middle" x="364.5" y="-531.5" font-family="Helvetica,sans-Serif" font-size="10.00">scram::core::Terminal&lt; T &gt;</text>
<polyline fill="none" stroke="black" points="296.5,-524.5 432.5,-524.5 "/>
<text text-anchor="middle" x="364.5" y="-512.5" font-family="Helvetica,sans-Serif" font-size="10.00"> </text>
<polyline fill="none" stroke="black" points="296.5,-505.5 432.5,-505.5 "/>
<text text-anchor="start" x="304.5" y="-493.5" font-family="Helvetica,sans-Serif" font-size="10.00">+ Terminal()</text>
<text text-anchor="start" x="304.5" y="-482.5" font-family="Helvetica,sans-Serif" font-size="10.00">+ value()</text>
</a>
</g>
</g>
<!-- Node10&#45;&gt;Node11 -->
<g id="edge12" class="edge"><title>Node10&#45;&gt;Node11</title>
<path fill="none" stroke="midnightblue" d="M360.545,-737.939C361.572,-678.877 363.102,-590.894 363.925,-543.534"/>
<polygon fill="none" stroke="midnightblue" points="357.04,-738.19 360.365,-748.25 364.039,-738.312 357.04,-738.19"/>
</g>
</g>
</svg>
