<?xml version="1.0" encoding="UTF-8" standalone="no"?>
<!DOCTYPE svg PUBLIC "-//W3C//DTD SVG 1.1//EN"
 "http://www.w3.org/Graphics/SVG/1.1/DTD/svg11.dtd">
<!-- Generated by graphviz version 2.38.0 (20140413.2041)
 -->
<!-- Title: uncertainty_analysis.h Pages: 1 -->
<svg width="1797pt" height="464pt"
 viewBox="0.00 0.00 1797.00 464.00" xmlns="http://www.w3.org/2000/svg" xmlns:xlink="http://www.w3.org/1999/xlink">
<g id="graph0" class="graph" transform="scale(1 1) rotate(0) translate(4 460)">
<title>uncertainty_analysis.h</title>
<polygon fill="white" stroke="none" points="-4,4 -4,-460 1793,-460 1793,4 -4,4"/>
<!-- Node1 -->
<g id="node1" class="node"><title>Node1</title>
<polygon fill="#bfbfbf" stroke="black" points="1652,-436.5 1652,-455.5 1766,-455.5 1766,-436.5 1652,-436.5"/>
<text text-anchor="middle" x="1709" y="-443.5" font-family="Helvetica,sans-Serif" font-size="10.00">uncertainty_analysis.h</text>
</g>
<!-- Node2 -->
<g id="node2" class="node"><title>Node2</title>
<polygon fill="white" stroke="#bfbfbf" points="228,-0.5 228,-19.5 268,-19.5 268,-0.5 228,-0.5"/>
<text text-anchor="middle" x="248" y="-7.5" font-family="Helvetica,sans-Serif" font-size="10.00">utility</text>
</g>
<!-- Node1&#45;&gt;Node2 -->
<g id="edge1" class="edge"><title>Node1&#45;&gt;Node2</title>
<path fill="none" stroke="midnightblue" d="M1651.65,-444.375C1354.11,-440.766 0,-419.688 0,-335 0,-335 0,-335 0,-137.5 0,-96.1231 11.8669,-80.7839 45,-56 96.6974,-17.3298 175.237,-10.7278 217.884,-10.261"/>
<polygon fill="midnightblue" stroke="midnightblue" points="217.915,-13.7611 227.914,-10.2587 217.914,-6.76106 217.915,-13.7611"/>
</g>
<!-- Node3 -->
<g id="node3" class="node"><title>Node3</title>
<polygon fill="white" stroke="#bfbfbf" points="1385,-0.5 1385,-19.5 1429,-19.5 1429,-0.5 1385,-0.5"/>
<text text-anchor="middle" x="1407" y="-7.5" font-family="Helvetica,sans-Serif" font-size="10.00">vector</text>
</g>
<!-- Node1&#45;&gt;Node3 -->
<g id="edge2" class="edge"><title>Node1&#45;&gt;Node3</title>
<path fill="none" stroke="midnightblue" d="M1721.5,-436.313C1744,-419.544 1789,-380.338 1789,-335 1789,-335 1789,-335 1789,-137.5 1789,-82.2059 1745.15,-79.2837 1695,-56 1608.94,-16.044 1494.45,-10.4774 1439.34,-10.3592"/>
<polygon fill="midnightblue" stroke="midnightblue" points="1439.12,-6.85993 1429.14,-10.3996 1439.15,-13.8599 1439.12,-6.85993"/>
</g>
<!-- Node4 -->
<g id="node4" class="node"><title>Node4</title>
<g id="a_node4"><a xlink:href="analysis_8h.xhtml" target="_top" xlink:title="Common facilities for all analysis classes. ">
<polygon fill="white" stroke="black" points="1547.5,-196 1547.5,-215 1608.5,-215 1608.5,-196 1547.5,-196"/>
<text text-anchor="middle" x="1578" y="-203" font-family="Helvetica,sans-Serif" font-size="10.00">analysis.h</text>
</a>
</g>
</g>
<!-- Node1&#45;&gt;Node4 -->
<g id="edge3" class="edge"><title>Node1&#45;&gt;Node4</title>
<path fill="none" stroke="midnightblue" d="M1704.18,-436.229C1684.96,-401.236 1613.55,-271.223 1587.55,-223.883"/>
<polygon fill="midnightblue" stroke="midnightblue" points="1590.61,-222.179 1582.72,-215.099 1584.47,-225.549 1590.61,-222.179"/>
</g>
<!-- Node8 -->
<g id="node8" class="node"><title>Node8</title>
<g id="a_node8"><a xlink:href="settings_8h.xhtml" target="_top" xlink:title="Builder for settings. ">
<polygon fill="white" stroke="black" points="1511.5,-129 1511.5,-148 1570.5,-148 1570.5,-129 1511.5,-129"/>
<text text-anchor="middle" x="1541" y="-136" font-family="Helvetica,sans-Serif" font-size="10.00">settings.h</text>
</a>
</g>
</g>
<!-- Node1&#45;&gt;Node8 -->
<g id="edge81" class="edge"><title>Node1&#45;&gt;Node8</title>
<path fill="none" stroke="midnightblue" d="M1707.93,-436.057C1703.31,-400.923 1682.3,-270.353 1617,-190 1604.14,-174.173 1584.99,-161.494 1569.14,-152.799"/>
<polygon fill="midnightblue" stroke="midnightblue" points="1570.74,-149.685 1560.25,-148.146 1567.49,-155.886 1570.74,-149.685"/>
</g>
<!-- Node10 -->
<g id="node10" class="node"><title>Node10</title>
<g id="a_node10"><a xlink:href="probability__analysis_8h.xhtml" target="_top" xlink:title="Contains functionality to do numerical analysis of probabilities. ">
<polygon fill="white" stroke="black" points="909,-380.5 909,-399.5 1019,-399.5 1019,-380.5 909,-380.5"/>
<text text-anchor="middle" x="964" y="-387.5" font-family="Helvetica,sans-Serif" font-size="10.00">probability_analysis.h</text>
</a>
</g>
</g>
<!-- Node1&#45;&gt;Node10 -->
<g id="edge10" class="edge"><title>Node1&#45;&gt;Node10</title>
<path fill="none" stroke="midnightblue" d="M1651.78,-440.852C1515.6,-430.982 1172.95,-406.145 1029.14,-395.721"/>
<polygon fill="midnightblue" stroke="midnightblue" points="1029.36,-392.228 1019.13,-394.996 1028.85,-399.21 1029.36,-392.228"/>
</g>
<!-- Node5 -->
<g id="node5" class="node"><title>Node5</title>
<polygon fill="white" stroke="#bfbfbf" points="1139.5,-0.5 1139.5,-19.5 1188.5,-19.5 1188.5,-0.5 1139.5,-0.5"/>
<text text-anchor="middle" x="1164" y="-7.5" font-family="Helvetica,sans-Serif" font-size="10.00">cassert</text>
</g>
<!-- Node4&#45;&gt;Node5 -->
<g id="edge4" class="edge"><title>Node4&#45;&gt;Node5</title>
<path fill="none" stroke="midnightblue" d="M1582.86,-195.703C1596.21,-170.262 1630.01,-95.8875 1593,-56 1566.33,-27.2633 1296.26,-15.4298 1198.82,-12.0738"/>
<polygon fill="midnightblue" stroke="midnightblue" points="1198.72,-8.5687 1188.61,-11.7317 1198.49,-15.5648 1198.72,-8.5687"/>
</g>
<!-- Node6 -->
<g id="node6" class="node"><title>Node6</title>
<polygon fill="white" stroke="#bfbfbf" points="1543.5,-62 1543.5,-81 1584.5,-81 1584.5,-62 1543.5,-62"/>
<text text-anchor="middle" x="1564" y="-69" font-family="Helvetica,sans-Serif" font-size="10.00">string</text>
</g>
<!-- Node4&#45;&gt;Node6 -->
<g id="edge5" class="edge"><title>Node4&#45;&gt;Node6</title>
<path fill="none" stroke="midnightblue" d="M1578.98,-195.876C1580.49,-180.939 1582.83,-149.326 1579,-123 1577.41,-112.084 1573.99,-100.244 1570.82,-90.7746"/>
<polygon fill="midnightblue" stroke="midnightblue" points="1574.09,-89.5225 1567.45,-81.2653 1567.49,-91.8601 1574.09,-89.5225"/>
</g>
<!-- Node7 -->
<g id="node7" class="node"><title>Node7</title>
<polygon fill="white" stroke="#bfbfbf" points="1089.5,-62 1089.5,-81 1206.5,-81 1206.5,-62 1089.5,-62"/>
<text text-anchor="middle" x="1148" y="-69" font-family="Helvetica,sans-Serif" font-size="10.00">boost/noncopyable.hpp</text>
</g>
<!-- Node4&#45;&gt;Node7 -->
<g id="edge6" class="edge"><title>Node4&#45;&gt;Node7</title>
<path fill="none" stroke="midnightblue" d="M1556.13,-195.923C1515.65,-180.23 1426.14,-146.359 1349,-123 1297.41,-107.379 1237.37,-92.7473 1196.44,-83.2962"/>
<polygon fill="midnightblue" stroke="midnightblue" points="1196.99,-79.8316 1186.46,-81.0076 1195.42,-86.6545 1196.99,-79.8316"/>
</g>
<!-- Node4&#45;&gt;Node8 -->
<g id="edge7" class="edge"><title>Node4&#45;&gt;Node8</title>
<path fill="none" stroke="midnightblue" d="M1573.01,-195.734C1567.41,-185.89 1558.17,-169.66 1551.05,-157.159"/>
<polygon fill="midnightblue" stroke="midnightblue" points="1553.9,-155.087 1545.91,-148.127 1547.82,-158.549 1553.9,-155.087"/>
</g>
<!-- Node8&#45;&gt;Node6 -->
<g id="edge9" class="edge"><title>Node8&#45;&gt;Node6</title>
<path fill="none" stroke="midnightblue" d="M1544.1,-128.734C1547.52,-119.085 1553.1,-103.3 1557.49,-90.9063"/>
<polygon fill="midnightblue" stroke="midnightblue" points="1560.91,-91.7221 1560.95,-81.1273 1554.31,-89.387 1560.91,-91.7221"/>
</g>
<!-- Node9 -->
<g id="node9" class="node"><title>Node9</title>
<polygon fill="white" stroke="#bfbfbf" points="1435,-62 1435,-81 1481,-81 1481,-62 1435,-62"/>
<text text-anchor="middle" x="1458" y="-69" font-family="Helvetica,sans-Serif" font-size="10.00">cstdint</text>
</g>
<!-- Node8&#45;&gt;Node9 -->
<g id="edge8" class="edge"><title>Node8&#45;&gt;Node9</title>
<path fill="none" stroke="midnightblue" d="M1529.81,-128.734C1516.37,-118.208 1493.6,-100.379 1477.3,-87.6174"/>
<polygon fill="midnightblue" stroke="midnightblue" points="1479.05,-84.5374 1469.02,-81.1273 1474.73,-90.0486 1479.05,-84.5374"/>
</g>
<!-- Node10&#45;&gt;Node2 -->
<g id="edge11" class="edge"><title>Node10&#45;&gt;Node2</title>
<path fill="none" stroke="midnightblue" d="M908.848,-387.957C709.497,-383.468 38,-361.795 38,-273.5 38,-273.5 38,-273.5 38,-137.5 38,-97.3441 46.0529,-81.5885 77,-56 117.589,-22.4388 180.577,-13.6503 217.711,-11.5039"/>
<polygon fill="midnightblue" stroke="midnightblue" points="218.073,-14.9912 227.905,-11.045 217.758,-7.99832 218.073,-14.9912"/>
</g>
<!-- Node10&#45;&gt;Node3 -->
<g id="edge12" class="edge"><title>Node10&#45;&gt;Node3</title>
<path fill="none" stroke="midnightblue" d="M1019.06,-386.854C1132.92,-381.977 1390.66,-368.535 1475,-344 1574.47,-315.062 1613.61,-305.885 1673,-221 1715.07,-160.873 1723.78,-102.484 1667,-56 1632.64,-27.8725 1501.22,-16.5397 1439.45,-12.6952"/>
<polygon fill="midnightblue" stroke="midnightblue" points="1439.3,-9.18035 1429.11,-12.0817 1438.88,-16.1681 1439.3,-9.18035"/>
</g>
<!-- Node10&#45;&gt;Node4 -->
<g id="edge13" class="edge"><title>Node10&#45;&gt;Node4</title>
<path fill="none" stroke="midnightblue" d="M1019.3,-387.358C1152.15,-382.247 1483.94,-362.178 1561,-288 1577.73,-271.896 1580.16,-243.907 1579.64,-225.292"/>
<polygon fill="midnightblue" stroke="midnightblue" points="1583.13,-224.882 1579.05,-215.104 1576.14,-225.291 1583.13,-224.882"/>
</g>
<!-- Node11 -->
<g id="node11" class="node"><title>Node11</title>
<g id="a_node11"><a xlink:href="bdd_8h.xhtml" target="_top" xlink:title="Fault tree analysis with the Binary Decision Diagram algorithms. ">
<polygon fill="white" stroke="black" points="943.5,-196 943.5,-215 984.5,-215 984.5,-196 943.5,-196"/>
<text text-anchor="middle" x="964" y="-203" font-family="Helvetica,sans-Serif" font-size="10.00">bdd.h</text>
</a>
</g>
</g>
<!-- Node10&#45;&gt;Node11 -->
<g id="edge14" class="edge"><title>Node10&#45;&gt;Node11</title>
<path fill="none" stroke="midnightblue" d="M964,-380.198C964,-352.193 964,-264.713 964,-225.66"/>
<polygon fill="midnightblue" stroke="midnightblue" points="967.5,-225.214 964,-215.214 960.5,-225.214 967.5,-225.214"/>
</g>
<!-- Node19 -->
<g id="node19" class="node"><title>Node19</title>
<g id="a_node19"><a xlink:href="pdag_8h.xhtml" target="_top" xlink:title="Classes and facilities to represent fault trees as PDAGs with event and gate indices instead of ID na...">
<polygon fill="white" stroke="black" points="554,-129 554,-148 600,-148 600,-129 554,-129"/>
<text text-anchor="middle" x="577" y="-136" font-family="Helvetica,sans-Serif" font-size="10.00">pdag.h</text>
</a>
</g>
</g>
<!-- Node10&#45;&gt;Node19 -->
<g id="edge80" class="edge"><title>Node10&#45;&gt;Node19</title>
<path fill="none" stroke="midnightblue" d="M908.801,-385.539C787.273,-376.84 501.756,-350.159 431,-288 396.968,-258.103 375.797,-226.221 403,-190 419.911,-167.483 498.286,-151.759 543.873,-144.342"/>
<polygon fill="midnightblue" stroke="midnightblue" points="544.554,-147.778 553.885,-142.76 543.461,-140.863 544.554,-147.778"/>
</g>
<!-- Node29 -->
<g id="node29" class="node"><title>Node29</title>
<g id="a_node29"><a xlink:href="fault__tree__analysis_8h.xhtml" target="_top" xlink:title="Fault Tree Analysis. ">
<polygon fill="white" stroke="black" points="645.5,-324.5 645.5,-343.5 752.5,-343.5 752.5,-324.5 645.5,-324.5"/>
<text text-anchor="middle" x="699" y="-331.5" font-family="Helvetica,sans-Serif" font-size="10.00">fault_tree_analysis.h</text>
</a>
</g>
</g>
<!-- Node10&#45;&gt;Node29 -->
<g id="edge49" class="edge"><title>Node10&#45;&gt;Node29</title>
<path fill="none" stroke="midnightblue" d="M922.01,-380.444C875.588,-370.984 800.772,-355.738 750.76,-345.547"/>
<polygon fill="midnightblue" stroke="midnightblue" points="751.291,-342.084 740.794,-343.516 749.893,-348.943 751.291,-342.084"/>
</g>
<!-- Node11&#45;&gt;Node2 -->
<g id="edge20" class="edge"><title>Node11&#45;&gt;Node2</title>
<path fill="none" stroke="midnightblue" d="M943.457,-203.384C869.774,-199.171 619.222,-182.984 545,-154 523.054,-145.43 523.515,-132.601 502,-123 433.457,-92.4129 404.23,-120.375 337,-87 328.86,-82.9591 288.63,-47.4481 265.138,-26.4266"/>
<polygon fill="midnightblue" stroke="midnightblue" points="267.388,-23.7428 257.607,-19.6706 262.714,-28.9535 267.388,-23.7428"/>
</g>
<!-- Node11&#45;&gt;Node3 -->
<g id="edge21" class="edge"><title>Node11&#45;&gt;Node3</title>
<path fill="none" stroke="midnightblue" d="M984.545,-204.451C1055.82,-203.889 1291.26,-198.624 1349,-154 1388.65,-123.36 1401.32,-61.1624 1405.27,-29.8732"/>
<polygon fill="midnightblue" stroke="midnightblue" points="1408.76,-30.1809 1406.37,-19.8597 1401.8,-29.42 1408.76,-30.1809"/>
</g>
<!-- Node11&#45;&gt;Node7 -->
<g id="edge23" class="edge"><title>Node11&#45;&gt;Node7</title>
<path fill="none" stroke="midnightblue" d="M958.642,-195.847C949.419,-179.727 933.088,-144.767 950,-123 954.684,-116.971 1042.62,-96.2116 1099.71,-83.2611"/>
<polygon fill="midnightblue" stroke="midnightblue" points="1100.65,-86.6363 1109.64,-81.0177 1099.11,-79.8085 1100.65,-86.6363"/>
</g>
<!-- Node11&#45;&gt;Node8 -->
<g id="edge48" class="edge"><title>Node11&#45;&gt;Node8</title>
<path fill="none" stroke="midnightblue" d="M984.506,-202.309C1048.85,-195.419 1252.5,-173.49 1421,-154 1447.75,-150.905 1477.84,-147.269 1501.2,-144.412"/>
<polygon fill="midnightblue" stroke="midnightblue" points="1501.92,-147.85 1511.42,-143.159 1501.07,-140.902 1501.92,-147.85"/>
</g>
<!-- Node12 -->
<g id="node12" class="node"><title>Node12</title>
<polygon fill="white" stroke="#bfbfbf" points="1211,-129 1211,-148 1255,-148 1255,-129 1211,-129"/>
<text text-anchor="middle" x="1233" y="-136" font-family="Helvetica,sans-Serif" font-size="10.00">cmath</text>
</g>
<!-- Node11&#45;&gt;Node12 -->
<g id="edge15" class="edge"><title>Node11&#45;&gt;Node12</title>
<path fill="none" stroke="midnightblue" d="M984.797,-201.722C1026.69,-195.771 1123.9,-180.167 1202,-154 1203.67,-153.442 1205.36,-152.819 1207.05,-152.155"/>
<polygon fill="midnightblue" stroke="midnightblue" points="1208.77,-155.227 1216.55,-148.043 1205.99,-148.803 1208.77,-155.227"/>
</g>
<!-- Node13 -->
<g id="node13" class="node"><title>Node13</title>
<polygon fill="white" stroke="#bfbfbf" points="887,-0.5 887,-19.5 943,-19.5 943,-0.5 887,-0.5"/>
<text text-anchor="middle" x="915" y="-7.5" font-family="Helvetica,sans-Serif" font-size="10.00">algorithm</text>
</g>
<!-- Node11&#45;&gt;Node13 -->
<g id="edge16" class="edge"><title>Node11&#45;&gt;Node13</title>
<path fill="none" stroke="midnightblue" d="M974.258,-196C986.258,-186.026 1006.69,-168.949 1024,-154 1039.73,-140.42 1040.21,-131.871 1059,-123 1154.12,-78.0926 1355.76,-134.733 1286,-56 1264.17,-31.3592 1043.75,-17.5043 953.361,-12.8212"/>
<polygon fill="midnightblue" stroke="midnightblue" points="953.421,-9.31982 943.257,-12.308 953.066,-16.3108 953.421,-9.31982"/>
</g>
<!-- Node14 -->
<g id="node14" class="node"><title>Node14</title>
<polygon fill="white" stroke="#bfbfbf" points="1273.5,-129 1273.5,-148 1340.5,-148 1340.5,-129 1273.5,-129"/>
<text text-anchor="middle" x="1307" y="-136" font-family="Helvetica,sans-Serif" font-size="10.00">forward_list</text>
</g>
<!-- Node11&#45;&gt;Node14 -->
<g id="edge17" class="edge"><title>Node11&#45;&gt;Node14</title>
<path fill="none" stroke="midnightblue" d="M984.601,-202.175C1033.56,-196.403 1160.52,-179.982 1264,-154 1267.39,-153.149 1270.89,-152.158 1274.37,-151.101"/>
<polygon fill="midnightblue" stroke="midnightblue" points="1275.54,-154.401 1283.99,-148.007 1273.4,-147.737 1275.54,-154.401"/>
</g>
<!-- Node15 -->
<g id="node15" class="node"><title>Node15</title>
<polygon fill="white" stroke="#bfbfbf" points="1225,-62 1225,-81 1277,-81 1277,-62 1225,-62"/>
<text text-anchor="middle" x="1251" y="-69" font-family="Helvetica,sans-Serif" font-size="10.00">memory</text>
</g>
<!-- Node11&#45;&gt;Node15 -->
<g id="edge18" class="edge"><title>Node11&#45;&gt;Node15</title>
<path fill="none" stroke="midnightblue" d="M967.862,-195.931C975.98,-178.984 996.524,-141.248 1026,-123 1098.7,-77.9889 1132.95,-111.088 1215,-87 1217.43,-86.2859 1219.93,-85.4684 1222.41,-84.5935"/>
<polygon fill="midnightblue" stroke="midnightblue" points="1223.7,-87.8479 1231.81,-81.0308 1221.22,-81.3022 1223.7,-87.8479"/>
</g>
<!-- Node16 -->
<g id="node16" class="node"><title>Node16</title>
<polygon fill="white" stroke="#bfbfbf" points="206.5,-62 206.5,-81 289.5,-81 289.5,-62 206.5,-62"/>
<text text-anchor="middle" x="248" y="-69" font-family="Helvetica,sans-Serif" font-size="10.00">unordered_map</text>
</g>
<!-- Node11&#45;&gt;Node16 -->
<g id="edge19" class="edge"><title>Node11&#45;&gt;Node16</title>
<path fill="none" stroke="midnightblue" d="M943.242,-203.445C865.705,-199.31 593.351,-182.992 512,-154 488.078,-145.475 487.417,-132.828 464,-123 396.791,-94.7919 374.846,-104.137 304,-87 299.542,-85.9216 294.892,-84.7664 290.261,-83.5963"/>
<polygon fill="midnightblue" stroke="midnightblue" points="290.789,-80.1188 280.234,-81.0345 289.056,-86.901 290.789,-80.1188"/>
</g>
<!-- Node17 -->
<g id="node17" class="node"><title>Node17</title>
<polygon fill="white" stroke="#bfbfbf" points="770,-129 770,-148 898,-148 898,-129 770,-129"/>
<text text-anchor="middle" x="834" y="-136" font-family="Helvetica,sans-Serif" font-size="10.00">boost/functional/hash.hpp</text>
</g>
<!-- Node11&#45;&gt;Node17 -->
<g id="edge22" class="edge"><title>Node11&#45;&gt;Node17</title>
<path fill="none" stroke="midnightblue" d="M946.737,-195.869C924.689,-184.845 886.311,-165.655 860.536,-152.768"/>
<polygon fill="midnightblue" stroke="midnightblue" points="861.844,-149.509 851.334,-148.167 858.713,-155.77 861.844,-149.509"/>
</g>
<!-- Node18 -->
<g id="node18" class="node"><title>Node18</title>
<polygon fill="white" stroke="#bfbfbf" points="1068.5,-123.5 1068.5,-153.5 1193.5,-153.5 1193.5,-123.5 1068.5,-123.5"/>
<text text-anchor="start" x="1076.5" y="-141.5" font-family="Helvetica,sans-Serif" font-size="10.00">boost/smart_ptr/intrusive</text>
<text text-anchor="middle" x="1131" y="-130.5" font-family="Helvetica,sans-Serif" font-size="10.00">_ptr.hpp</text>
</g>
<!-- Node11&#45;&gt;Node18 -->
<g id="edge24" class="edge"><title>Node11&#45;&gt;Node18</title>
<path fill="none" stroke="midnightblue" d="M984.813,-196.399C1009.88,-186.642 1052.71,-169.971 1085.55,-157.189"/>
<polygon fill="midnightblue" stroke="midnightblue" points="1086.91,-160.416 1094.96,-153.527 1084.37,-153.893 1086.91,-160.416"/>
</g>
<!-- Node11&#45;&gt;Node19 -->
<g id="edge25" class="edge"><title>Node11&#45;&gt;Node19</title>
<path fill="none" stroke="midnightblue" d="M943.466,-201.051C880.336,-190.448 688.666,-158.255 610.613,-145.146"/>
<polygon fill="midnightblue" stroke="midnightblue" points="610.82,-141.631 600.378,-143.427 609.66,-148.535 610.82,-141.631"/>
</g>
<!-- Node19&#45;&gt;Node2 -->
<g id="edge32" class="edge"><title>Node19&#45;&gt;Node2</title>
<path fill="none" stroke="midnightblue" d="M559.147,-128.921C540.19,-119.535 509.626,-103.601 485,-87 466.927,-74.8166 466.594,-65.546 447,-56 391.169,-28.8 318.468,-17.7497 278.195,-13.4863"/>
<polygon fill="midnightblue" stroke="midnightblue" points="278.506,-10.0001 268.21,-12.4993 277.817,-16.9662 278.506,-10.0001"/>
</g>
<!-- Node19&#45;&gt;Node3 -->
<g id="edge33" class="edge"><title>Node19&#45;&gt;Node3</title>
<path fill="none" stroke="midnightblue" d="M595.868,-128.893C601.584,-126.619 607.952,-124.408 614,-123 799.488,-79.8033 863.984,-157.263 1041,-87 1061.58,-78.8311 1059.64,-64.7077 1080,-56 1132.75,-33.4386 1303.01,-18.6417 1374.71,-13.2648"/>
<polygon fill="midnightblue" stroke="midnightblue" points="1375.22,-16.7363 1384.94,-12.5114 1374.71,-9.75522 1375.22,-16.7363"/>
</g>
<!-- Node19&#45;&gt;Node7 -->
<g id="edge35" class="edge"><title>Node19&#45;&gt;Node7</title>
<path fill="none" stroke="midnightblue" d="M595.862,-128.869C601.578,-126.594 607.948,-124.39 614,-123 814.3,-77.0056 871.413,-115.068 1075,-87 1083.01,-85.8959 1091.46,-84.4655 1099.67,-82.9342"/>
<polygon fill="midnightblue" stroke="midnightblue" points="1100.35,-86.3672 1109.5,-81.0314 1099.02,-79.4946 1100.35,-86.3672"/>
</g>
<!-- Node19&#45;&gt;Node9 -->
<g id="edge26" class="edge"><title>Node19&#45;&gt;Node9</title>
<path fill="none" stroke="midnightblue" d="M600.231,-135.593C635.128,-132.746 703.158,-127.262 761,-123 994.249,-105.813 1052.8,-104.824 1286,-87 1334.34,-83.3056 1390.26,-78.4904 1424.89,-75.446"/>
<polygon fill="midnightblue" stroke="midnightblue" points="1425.26,-78.9265 1434.92,-74.5613 1424.65,-71.9536 1425.26,-78.9265"/>
</g>
<!-- Node19&#45;&gt;Node13 -->
<g id="edge28" class="edge"><title>Node19&#45;&gt;Node13</title>
<path fill="none" stroke="midnightblue" d="M596.29,-128.906C601.908,-126.688 608.118,-124.505 614,-123 674.991,-107.397 847.689,-128.533 895,-87 911.149,-72.8234 914.997,-47.3237 915.568,-29.7996"/>
<polygon fill="midnightblue" stroke="midnightblue" points="919.068,-29.6339 915.566,-19.6346 912.068,-29.6353 919.068,-29.6339"/>
</g>
<!-- Node19&#45;&gt;Node15 -->
<g id="edge30" class="edge"><title>Node19&#45;&gt;Node15</title>
<path fill="none" stroke="midnightblue" d="M600.187,-132.227C614.945,-129.068 634.505,-125.241 652,-123 900.701,-91.1388 970.496,-142.544 1215,-87 1217.83,-86.3563 1220.73,-85.518 1223.6,-84.5689"/>
<polygon fill="midnightblue" stroke="midnightblue" points="1224.91,-87.8165 1233.05,-81.0373 1222.46,-81.2594 1224.91,-87.8165"/>
</g>
<!-- Node19&#45;&gt;Node16 -->
<g id="edge31" class="edge"><title>Node19&#45;&gt;Node16</title>
<path fill="none" stroke="midnightblue" d="M553.865,-132.929C501.34,-122.552 372.028,-97.004 299.483,-82.6713"/>
<polygon fill="midnightblue" stroke="midnightblue" points="300.126,-79.2308 289.637,-80.7261 298.769,-86.098 300.126,-79.2308"/>
</g>
<!-- Node20 -->
<g id="node20" class="node"><title>Node20</title>
<polygon fill="white" stroke="#bfbfbf" points="104.5,-62 104.5,-81 149.5,-81 149.5,-62 104.5,-62"/>
<text text-anchor="middle" x="127" y="-69" font-family="Helvetica,sans-Serif" font-size="10.00">cstdlib</text>
</g>
<!-- Node19&#45;&gt;Node20 -->
<g id="edge27" class="edge"><title>Node19&#45;&gt;Node20</title>
<path fill="none" stroke="midnightblue" d="M553.78,-135.005C494.268,-128.483 331.507,-109.838 197,-87 184.697,-84.9111 171.261,-82.2263 159.478,-79.7359"/>
<polygon fill="midnightblue" stroke="midnightblue" points="160.132,-76.2966 149.62,-77.6173 158.661,-83.1404 160.132,-76.2966"/>
</g>
<!-- Node21 -->
<g id="node21" class="node"><title>Node21</title>
<polygon fill="white" stroke="#bfbfbf" points="601.5,-62 601.5,-81 646.5,-81 646.5,-62 601.5,-62"/>
<text text-anchor="middle" x="624" y="-69" font-family="Helvetica,sans-Serif" font-size="10.00">iosfwd</text>
</g>
<!-- Node19&#45;&gt;Node21 -->
<g id="edge29" class="edge"><title>Node19&#45;&gt;Node21</title>
<path fill="none" stroke="midnightblue" d="M583.339,-128.734C590.597,-118.695 602.659,-102.014 611.765,-89.4213"/>
<polygon fill="midnightblue" stroke="midnightblue" points="614.739,-91.2816 617.762,-81.1273 609.066,-87.18 614.739,-91.2816"/>
</g>
<!-- Node22 -->
<g id="node22" class="node"><title>Node22</title>
<polygon fill="white" stroke="#bfbfbf" points="665,-56.5 665,-86.5 765,-86.5 765,-56.5 665,-56.5"/>
<text text-anchor="start" x="673" y="-74.5" font-family="Helvetica,sans-Serif" font-size="10.00">boost/container/flat</text>
<text text-anchor="middle" x="715" y="-63.5" font-family="Helvetica,sans-Serif" font-size="10.00">_set.hpp</text>
</g>
<!-- Node19&#45;&gt;Node22 -->
<g id="edge34" class="edge"><title>Node19&#45;&gt;Node22</title>
<path fill="none" stroke="midnightblue" d="M595.325,-128.869C615.764,-119.242 649.423,-103.388 675.847,-90.9415"/>
<polygon fill="midnightblue" stroke="midnightblue" points="677.662,-93.9556 685.217,-86.5281 674.679,-87.6229 677.662,-93.9556"/>
</g>
<!-- Node23 -->
<g id="node23" class="node"><title>Node23</title>
<polygon fill="white" stroke="#bfbfbf" points="783.5,-56.5 783.5,-86.5 886.5,-86.5 886.5,-56.5 783.5,-56.5"/>
<text text-anchor="start" x="791.5" y="-74.5" font-family="Helvetica,sans-Serif" font-size="10.00">boost/range/adaptor</text>
<text text-anchor="middle" x="835" y="-63.5" font-family="Helvetica,sans-Serif" font-size="10.00">/transformed.hpp</text>
</g>
<!-- Node19&#45;&gt;Node23 -->
<g id="edge36" class="edge"><title>Node19&#45;&gt;Node23</title>
<path fill="none" stroke="midnightblue" d="M597.159,-128.959C602.571,-126.843 608.459,-124.698 614,-123 680.695,-102.558 701.235,-103.318 773.386,-87.0966"/>
<polygon fill="midnightblue" stroke="midnightblue" points="774.455,-90.4428 783.426,-84.8056 772.898,-83.6183 774.455,-90.4428"/>
</g>
<!-- Node24 -->
<g id="node24" class="node"><title>Node24</title>
<g id="a_node24"><a xlink:href="find__iterator_8h.xhtml" target="_top" xlink:title="Convenience iterator adaptor to wrap find calls and results. ">
<polygon fill="white" stroke="black" points="346,-62 346,-81 438,-81 438,-62 346,-62"/>
<text text-anchor="middle" x="392" y="-69" font-family="Helvetica,sans-Serif" font-size="10.00">ext/find_iterator.h</text>
</a>
</g>
</g>
<!-- Node19&#45;&gt;Node24 -->
<g id="edge37" class="edge"><title>Node19&#45;&gt;Node24</title>
<path fill="none" stroke="midnightblue" d="M555.54,-128.903C550.462,-126.92 545.053,-124.851 540,-123 501.981,-109.072 458.029,-94.2325 427.96,-84.2709"/>
<polygon fill="midnightblue" stroke="midnightblue" points="428.917,-80.901 418.324,-81.088 426.722,-87.5478 428.917,-80.901"/>
</g>
<!-- Node25 -->
<g id="node25" class="node"><title>Node25</title>
<g id="a_node25"><a xlink:href="index__map_8h.xhtml" target="_top" xlink:title="Non&#45;zero based Index&#45;&gt;Value map adapter on sequential containers. ">
<polygon fill="white" stroke="black" points="943.5,-62 943.5,-81 1032.5,-81 1032.5,-62 943.5,-62"/>
<text text-anchor="middle" x="988" y="-69" font-family="Helvetica,sans-Serif" font-size="10.00">ext/index_map.h</text>
</a>
</g>
</g>
<!-- Node19&#45;&gt;Node25 -->
<g id="edge39" class="edge"><title>Node19&#45;&gt;Node25</title>
<path fill="none" stroke="midnightblue" d="M596.277,-128.855C601.895,-126.636 608.108,-124.465 614,-123 750.75,-89.0064 790.3,-111.865 929,-87 934.581,-85.9996 940.419,-84.78 946.16,-83.4775"/>
<polygon fill="midnightblue" stroke="midnightblue" points="947.39,-86.7832 956.314,-81.0727 945.776,-79.9716 947.39,-86.7832"/>
</g>
<!-- Node26 -->
<g id="node26" class="node"><title>Node26</title>
<g id="a_node26"><a xlink:href="linear__map_8h.xhtml" target="_top" xlink:title="Implementation of a vector&#45;based map for a small number of entries. ">
<polygon fill="white" stroke="black" points="494.5,-62 494.5,-81 583.5,-81 583.5,-62 494.5,-62"/>
<text text-anchor="middle" x="539" y="-69" font-family="Helvetica,sans-Serif" font-size="10.00">ext/linear_map.h</text>
</a>
</g>
</g>
<!-- Node19&#45;&gt;Node26 -->
<g id="edge41" class="edge"><title>Node19&#45;&gt;Node26</title>
<path fill="none" stroke="midnightblue" d="M571.875,-128.734C566.063,-118.793 556.444,-102.338 549.108,-89.7892"/>
<polygon fill="midnightblue" stroke="midnightblue" points="552.112,-87.9938 544.044,-81.1273 546.069,-91.5267 552.112,-87.9938"/>
</g>
<!-- Node24&#45;&gt;Node2 -->
<g id="edge38" class="edge"><title>Node24&#45;&gt;Node2</title>
<path fill="none" stroke="midnightblue" d="M371.368,-61.9751C346.742,-51.7996 305.386,-34.7117 277.415,-23.1542"/>
<polygon fill="midnightblue" stroke="midnightblue" points="278.708,-19.9014 268.129,-19.3173 276.035,-26.3709 278.708,-19.9014"/>
</g>
<!-- Node25&#45;&gt;Node3 -->
<g id="edge40" class="edge"><title>Node25&#45;&gt;Node3</title>
<path fill="none" stroke="midnightblue" d="M1019.7,-61.9897C1028.49,-59.8249 1038.08,-57.6478 1047,-56 1167.03,-33.8269 1311.63,-19.4369 1374.82,-13.7525"/>
<polygon fill="midnightblue" stroke="midnightblue" points="1375.3,-17.224 1384.95,-12.8535 1374.68,-10.2514 1375.3,-17.224"/>
</g>
<!-- Node26&#45;&gt;Node2 -->
<g id="edge47" class="edge"><title>Node26&#45;&gt;Node2</title>
<path fill="none" stroke="midnightblue" d="M505.371,-61.9308C497.094,-59.906 488.242,-57.8109 480,-56 407.996,-40.179 322.774,-24.3979 278.363,-16.3949"/>
<polygon fill="midnightblue" stroke="midnightblue" points="278.701,-12.8998 268.24,-14.5783 277.465,-19.7897 278.701,-12.8998"/>
</g>
<!-- Node26&#45;&gt;Node3 -->
<g id="edge46" class="edge"><title>Node26&#45;&gt;Node3</title>
<path fill="none" stroke="midnightblue" d="M565.992,-61.9294C574.258,-59.6272 583.431,-57.3925 592,-56 670.13,-43.3029 1232.69,-18.4914 1374.57,-12.3833"/>
<polygon fill="midnightblue" stroke="midnightblue" points="1374.95,-15.8705 1384.79,-11.9446 1374.65,-8.87697 1374.95,-15.8705"/>
</g>
<!-- Node26&#45;&gt;Node5 -->
<g id="edge42" class="edge"><title>Node26&#45;&gt;Node5</title>
<path fill="none" stroke="midnightblue" d="M566.285,-61.9782C574.481,-59.7064 583.542,-57.476 592,-56 696.24,-37.8081 1021.42,-18.8182 1129.03,-12.8841"/>
<polygon fill="midnightblue" stroke="midnightblue" points="1129.53,-16.3617 1139.33,-12.3195 1129.15,-9.3722 1129.53,-16.3617"/>
</g>
<!-- Node26&#45;&gt;Node13 -->
<g id="edge43" class="edge"><title>Node26&#45;&gt;Node13</title>
<path fill="none" stroke="midnightblue" d="M567.444,-61.9951C575.346,-59.8303 583.964,-57.6519 592,-56 693.757,-35.0825 815.576,-21.0328 876.425,-14.7515"/>
<polygon fill="midnightblue" stroke="midnightblue" points="877.115,-18.1995 886.709,-13.7043 876.406,-11.2355 877.115,-18.1995"/>
</g>
<!-- Node27 -->
<g id="node27" class="node"><title>Node27</title>
<polygon fill="white" stroke="#bfbfbf" points="460.5,-0.5 460.5,-19.5 533.5,-19.5 533.5,-0.5 460.5,-0.5"/>
<text text-anchor="middle" x="497" y="-7.5" font-family="Helvetica,sans-Serif" font-size="10.00">initializer_list</text>
</g>
<!-- Node26&#45;&gt;Node27 -->
<g id="edge44" class="edge"><title>Node26&#45;&gt;Node27</title>
<path fill="none" stroke="midnightblue" d="M532.982,-61.9751C526.745,-53.1384 516.827,-39.0886 508.982,-27.975"/>
<polygon fill="midnightblue" stroke="midnightblue" points="511.633,-25.6604 503.006,-19.5091 505.914,-29.6972 511.633,-25.6604"/>
</g>
<!-- Node28 -->
<g id="node28" class="node"><title>Node28</title>
<polygon fill="white" stroke="#bfbfbf" points="551.5,-0.5 551.5,-19.5 610.5,-19.5 610.5,-0.5 551.5,-0.5"/>
<text text-anchor="middle" x="581" y="-7.5" font-family="Helvetica,sans-Serif" font-size="10.00">stdexcept</text>
</g>
<!-- Node26&#45;&gt;Node28 -->
<g id="edge45" class="edge"><title>Node26&#45;&gt;Node28</title>
<path fill="none" stroke="midnightblue" d="M545.018,-61.9751C551.255,-53.1384 561.173,-39.0886 569.018,-27.975"/>
<polygon fill="midnightblue" stroke="midnightblue" points="572.086,-29.6972 574.994,-19.5091 566.367,-25.6604 572.086,-29.6972"/>
</g>
<!-- Node29&#45;&gt;Node3 -->
<g id="edge53" class="edge"><title>Node29&#45;&gt;Node3</title>
<path fill="none" stroke="midnightblue" d="M752.775,-332.135C929.579,-329.023 1485.91,-317.006 1561,-288 1662.61,-248.752 1724.06,-125.272 1640,-56 1609.76,-31.0778 1495.79,-18.3457 1439.24,-13.449"/>
<polygon fill="midnightblue" stroke="midnightblue" points="1439.31,-9.94323 1429.06,-12.5988 1438.73,-16.9189 1439.31,-9.94323"/>
</g>
<!-- Node29&#45;&gt;Node4 -->
<g id="edge56" class="edge"><title>Node29&#45;&gt;Node4</title>
<path fill="none" stroke="midnightblue" d="M752.756,-333.092C926.753,-332.982 1467.16,-329.287 1533,-288 1555.54,-273.865 1567.7,-244.211 1573.51,-224.84"/>
<polygon fill="midnightblue" stroke="midnightblue" points="1576.92,-225.627 1576.17,-215.059 1570.17,-223.791 1576.92,-225.627"/>
</g>
<!-- Node29&#45;&gt;Node8 -->
<g id="edge67" class="edge"><title>Node29&#45;&gt;Node8</title>
<path fill="none" stroke="midnightblue" d="M752.719,-333.453C922.031,-334.405 1436.79,-333.497 1495,-288 1515.63,-271.877 1531.41,-194.907 1537.84,-158.573"/>
<polygon fill="midnightblue" stroke="midnightblue" points="1541.36,-158.78 1539.6,-148.332 1534.46,-157.597 1541.36,-158.78"/>
</g>
<!-- Node29&#45;&gt;Node15 -->
<g id="edge51" class="edge"><title>Node29&#45;&gt;Node15</title>
<path fill="none" stroke="midnightblue" d="M752.74,-326.495C894.993,-308.063 1275.5,-250.482 1349,-154 1357.35,-143.04 1356.17,-134.764 1349,-123 1335.52,-100.892 1308.92,-88.0473 1286.83,-80.8495"/>
<polygon fill="midnightblue" stroke="midnightblue" points="1287.65,-77.4401 1277.06,-77.9267 1285.64,-84.1464 1287.65,-77.4401"/>
</g>
<!-- Node29&#45;&gt;Node19 -->
<g id="edge57" class="edge"><title>Node29&#45;&gt;Node19</title>
<path fill="none" stroke="midnightblue" d="M645.196,-333.145C571.391,-329.921 444.104,-311 411,-221 406.244,-208.069 402.797,-201.07 411,-190 441.41,-148.962 504.36,-140.132 543.404,-138.848"/>
<polygon fill="midnightblue" stroke="midnightblue" points="543.799,-142.342 553.735,-138.666 543.675,-135.343 543.799,-142.342"/>
</g>
<!-- Node29&#45;&gt;Node20 -->
<g id="edge50" class="edge"><title>Node29&#45;&gt;Node20</title>
<path fill="none" stroke="midnightblue" d="M645.302,-329.684C557.245,-323.707 386.307,-309.697 330,-288 231.666,-250.108 160.631,-134.682 136.243,-90.2206"/>
<polygon fill="midnightblue" stroke="midnightblue" points="139.212,-88.3516 131.402,-81.1926 133.043,-91.6596 139.212,-88.3516"/>
</g>
<!-- Node30 -->
<g id="node30" class="node"><title>Node30</title>
<polygon fill="white" stroke="#bfbfbf" points="494,-263 494,-282 572,-282 572,-263 494,-263"/>
<text text-anchor="middle" x="533" y="-270" font-family="Helvetica,sans-Serif" font-size="10.00">unordered_set</text>
</g>
<!-- Node29&#45;&gt;Node30 -->
<g id="edge52" class="edge"><title>Node29&#45;&gt;Node30</title>
<path fill="none" stroke="midnightblue" d="M675.216,-324.475C646.618,-314.225 598.449,-296.959 566.198,-285.399"/>
<polygon fill="midnightblue" stroke="midnightblue" points="567.334,-282.089 556.74,-282.009 564.972,-288.678 567.334,-282.089"/>
</g>
<!-- Node31 -->
<g id="node31" class="node"><title>Node31</title>
<polygon fill="white" stroke="#bfbfbf" points="420.5,-190.5 420.5,-220.5 527.5,-220.5 527.5,-190.5 420.5,-190.5"/>
<text text-anchor="start" x="428.5" y="-208.5" font-family="Helvetica,sans-Serif" font-size="10.00">boost/iterator/iterator</text>
<text text-anchor="middle" x="474" y="-197.5" font-family="Helvetica,sans-Serif" font-size="10.00">_facade.hpp</text>
</g>
<!-- Node29&#45;&gt;Node31 -->
<g id="edge54" class="edge"><title>Node29&#45;&gt;Node31</title>
<path fill="none" stroke="midnightblue" d="M645.44,-328.707C589.31,-323.041 506.356,-310.977 485,-288 470.928,-272.86 469.254,-248.779 470.456,-230.712"/>
<polygon fill="midnightblue" stroke="midnightblue" points="473.952,-230.925 471.457,-220.628 466.986,-230.233 473.952,-230.925"/>
</g>
<!-- Node32 -->
<g id="node32" class="node"><title>Node32</title>
<polygon fill="white" stroke="#bfbfbf" points="590,-257.5 590,-287.5 708,-287.5 708,-257.5 590,-257.5"/>
<text text-anchor="start" x="598" y="-275.5" font-family="Helvetica,sans-Serif" font-size="10.00">boost/iterator/transform</text>
<text text-anchor="middle" x="649" y="-264.5" font-family="Helvetica,sans-Serif" font-size="10.00">_iterator.hpp</text>
</g>
<!-- Node29&#45;&gt;Node32 -->
<g id="edge55" class="edge"><title>Node29&#45;&gt;Node32</title>
<path fill="none" stroke="midnightblue" d="M691.836,-324.475C685.444,-316.869 675.806,-305.399 667.29,-295.265"/>
<polygon fill="midnightblue" stroke="midnightblue" points="669.897,-292.927 660.784,-287.523 664.538,-297.43 669.897,-292.927"/>
</g>
<!-- Node33 -->
<g id="node33" class="node"><title>Node33</title>
<g id="a_node33"><a xlink:href="preprocessor_8h.xhtml" target="_top" xlink:title="A collection of PDAG transformation/preprocessing algorithms that simplify fault trees for analysis...">
<polygon fill="white" stroke="black" points="244.5,-196 244.5,-215 325.5,-215 325.5,-196 244.5,-196"/>
<text text-anchor="middle" x="285" y="-203" font-family="Helvetica,sans-Serif" font-size="10.00">preprocessor.h</text>
</a>
</g>
</g>
<!-- Node29&#45;&gt;Node33 -->
<g id="edge58" class="edge"><title>Node29&#45;&gt;Node33</title>
<path fill="none" stroke="midnightblue" d="M645.388,-329.213C566.769,-323.033 424.496,-309.292 378,-288 344.993,-272.885 315.013,-242.177 298.463,-223.072"/>
<polygon fill="midnightblue" stroke="midnightblue" points="300.96,-220.603 291.841,-215.208 295.605,-225.112 300.96,-220.603"/>
</g>
<!-- Node36 -->
<g id="node36" class="node"><title>Node36</title>
<g id="a_node36"><a xlink:href="zbdd_8h.xhtml" target="_top" xlink:title="Zero&#45;Suppressed Binary Decision Diagram facilities. ">
<polygon fill="white" stroke="black" points="726,-263 726,-282 772,-282 772,-263 726,-263"/>
<text text-anchor="middle" x="749" y="-270" font-family="Helvetica,sans-Serif" font-size="10.00">zbdd.h</text>
</a>
</g>
</g>
<!-- Node29&#45;&gt;Node36 -->
<g id="edge68" class="edge"><title>Node29&#45;&gt;Node36</title>
<path fill="none" stroke="midnightblue" d="M706.164,-324.475C713.738,-315.462 725.87,-301.025 735.293,-289.812"/>
<polygon fill="midnightblue" stroke="midnightblue" points="738.096,-291.917 741.85,-282.009 732.737,-287.413 738.096,-291.917"/>
</g>
<!-- Node33&#45;&gt;Node2 -->
<g id="edge62" class="edge"><title>Node33&#45;&gt;Node2</title>
<path fill="none" stroke="midnightblue" d="M254.782,-195.935C234.518,-188.443 209.358,-175.341 197,-154 175.173,-116.308 179.084,-95.7004 197,-56 202.616,-43.5553 213.563,-33.1723 223.879,-25.5273"/>
<polygon fill="midnightblue" stroke="midnightblue" points="226.006,-28.3123 232.266,-19.7643 222.042,-22.5431 226.006,-28.3123"/>
</g>
<!-- Node33&#45;&gt;Node3 -->
<g id="edge63" class="edge"><title>Node33&#45;&gt;Node3</title>
<path fill="none" stroke="midnightblue" d="M325.527,-199.397C350.207,-196.399 382.39,-192.683 411,-190 631.059,-169.361 688.041,-184.146 907,-154 975.302,-144.596 991.158,-135.291 1059,-123 1159.51,-104.789 1190.36,-122.894 1286,-87 1325.37,-72.2249 1365.65,-43.6977 1388.38,-26.1065"/>
<polygon fill="midnightblue" stroke="midnightblue" points="1390.77,-28.6766 1396.45,-19.7369 1386.43,-23.1794 1390.77,-28.6766"/>
</g>
<!-- Node33&#45;&gt;Node7 -->
<g id="edge64" class="edge"><title>Node33&#45;&gt;Node7</title>
<path fill="none" stroke="midnightblue" d="M325.798,-199.224C406.981,-188.569 583.195,-164.596 609,-154 630.794,-145.051 629.907,-131.184 652,-123 828.93,-57.4577 888.179,-113.42 1075,-87 1082.83,-85.8932 1091.08,-84.4874 1099.11,-82.9887"/>
<polygon fill="midnightblue" stroke="midnightblue" points="1099.96,-86.3895 1109.12,-81.0562 1098.63,-79.5165 1099.96,-86.3895"/>
</g>
<!-- Node33&#45;&gt;Node15 -->
<g id="edge59" class="edge"><title>Node33&#45;&gt;Node15</title>
<path fill="none" stroke="midnightblue" d="M325.796,-199.913C406.786,-190.62 585.202,-169.168 645,-154 683.169,-144.318 689.534,-131.425 728,-123 940.009,-76.565 1003.6,-136.129 1215,-87 1217.83,-86.3422 1220.73,-85.4946 1223.59,-84.5398"/>
<polygon fill="midnightblue" stroke="midnightblue" points="1224.9,-87.7859 1233.04,-81.0003 1222.45,-81.2307 1224.9,-87.7859"/>
</g>
<!-- Node33&#45;&gt;Node16 -->
<g id="edge61" class="edge"><title>Node33&#45;&gt;Node16</title>
<path fill="none" stroke="midnightblue" d="M310.709,-195.957C339.311,-185.871 382.735,-168.617 392,-154 399.376,-142.363 399.969,-134.239 392,-123 385.701,-114.115 328.078,-95.8078 287.666,-83.8489"/>
<polygon fill="midnightblue" stroke="midnightblue" points="288.64,-80.4873 278.059,-81.0292 286.669,-87.204 288.64,-80.4873"/>
</g>
<!-- Node33&#45;&gt;Node19 -->
<g id="edge66" class="edge"><title>Node33&#45;&gt;Node19</title>
<path fill="none" stroke="midnightblue" d="M316.347,-195.959C324.062,-193.933 332.315,-191.831 340,-190 412.327,-172.771 497.745,-155.262 543.708,-146.071"/>
<polygon fill="midnightblue" stroke="midnightblue" points="544.582,-149.466 553.705,-144.079 543.214,-142.601 544.582,-149.466"/>
</g>
<!-- Node34 -->
<g id="node34" class="node"><title>Node34</title>
<polygon fill="white" stroke="#bfbfbf" points="206,-129 206,-148 236,-148 236,-129 206,-129"/>
<text text-anchor="middle" x="221" y="-136" font-family="Helvetica,sans-Serif" font-size="10.00">set</text>
</g>
<!-- Node33&#45;&gt;Node34 -->
<g id="edge60" class="edge"><title>Node33&#45;&gt;Node34</title>
<path fill="none" stroke="midnightblue" d="M276.369,-195.734C266.197,-185.403 249.098,-168.037 236.588,-155.332"/>
<polygon fill="midnightblue" stroke="midnightblue" points="239.005,-152.797 229.495,-148.127 234.017,-157.709 239.005,-152.797"/>
</g>
<!-- Node35 -->
<g id="node35" class="node"><title>Node35</title>
<polygon fill="white" stroke="#bfbfbf" points="254.5,-129 254.5,-148 383.5,-148 383.5,-129 254.5,-129"/>
<text text-anchor="middle" x="319" y="-136" font-family="Helvetica,sans-Serif" font-size="10.00">boost/unordered_map.hpp</text>
</g>
<!-- Node33&#45;&gt;Node35 -->
<g id="edge65" class="edge"><title>Node33&#45;&gt;Node35</title>
<path fill="none" stroke="midnightblue" d="M289.585,-195.734C294.734,-185.89 303.224,-169.66 309.763,-157.159"/>
<polygon fill="midnightblue" stroke="midnightblue" points="312.954,-158.611 314.487,-148.127 306.751,-155.366 312.954,-158.611"/>
</g>
<!-- Node36&#45;&gt;Node2 -->
<g id="edge74" class="edge"><title>Node36&#45;&gt;Node2</title>
<path fill="none" stroke="midnightblue" d="M733.122,-262.981C728.099,-260.651 722.437,-258.388 717,-257 612.93,-230.426 333.117,-264.702 235,-221 147.147,-181.87 37.3826,-133.004 95,-56 109.732,-36.3111 177.68,-22.2801 217.903,-15.5344"/>
<polygon fill="midnightblue" stroke="midnightblue" points="218.654,-18.9584 227.964,-13.9017 217.532,-12.0488 218.654,-18.9584"/>
</g>
<!-- Node36&#45;&gt;Node3 -->
<g id="edge75" class="edge"><title>Node36&#45;&gt;Node3</title>
<path fill="none" stroke="midnightblue" d="M772.219,-271.025C907.27,-268.153 1586.68,-252.185 1617,-221 1668.12,-168.414 1662.73,-111.68 1615,-56 1592.5,-29.7574 1491.78,-17.8366 1439.19,-13.3212"/>
<polygon fill="midnightblue" stroke="midnightblue" points="1439.31,-9.81865 1429.05,-12.4911 1438.73,-16.7953 1439.31,-9.81865"/>
</g>
<!-- Node36&#45;&gt;Node7 -->
<g id="edge78" class="edge"><title>Node36&#45;&gt;Node7</title>
<path fill="none" stroke="midnightblue" d="M743.663,-262.773C728.973,-237.522 691.385,-163.61 728,-123 779.913,-65.4226 998.342,-98.5643 1075,-87 1082.55,-85.8609 1090.51,-84.4749 1098.28,-83.0167"/>
<polygon fill="midnightblue" stroke="midnightblue" points="1099.18,-86.4067 1108.34,-81.0729 1097.85,-79.5338 1099.18,-86.4067"/>
</g>
<!-- Node36&#45;&gt;Node9 -->
<g id="edge69" class="edge"><title>Node36&#45;&gt;Node9</title>
<path fill="none" stroke="midnightblue" d="M772.276,-271.978C858.151,-272.782 1163.28,-267.099 1377,-154 1406.55,-138.364 1432.12,-108.276 1446.26,-89.3561"/>
<polygon fill="midnightblue" stroke="midnightblue" points="1449.22,-91.231 1452.25,-81.0778 1443.55,-87.1272 1449.22,-91.231"/>
</g>
<!-- Node36&#45;&gt;Node11 -->
<g id="edge79" class="edge"><title>Node36&#45;&gt;Node11</title>
<path fill="none" stroke="midnightblue" d="M772.009,-264.544C811.021,-252.749 890.138,-228.83 933.642,-215.678"/>
<polygon fill="midnightblue" stroke="midnightblue" points="934.82,-218.979 943.379,-212.734 932.794,-212.278 934.82,-218.979"/>
</g>
<!-- Node36&#45;&gt;Node15 -->
<g id="edge72" class="edge"><title>Node36&#45;&gt;Node15</title>
<path fill="none" stroke="midnightblue" d="M746.402,-262.922C739.271,-237.438 722.38,-161.562 761,-123 796.808,-87.2453 1165.74,-98.5863 1215,-87 1217.67,-86.3708 1220.41,-85.5742 1223.12,-84.6793"/>
<polygon fill="midnightblue" stroke="midnightblue" points="1224.51,-87.8965 1232.67,-81.1322 1222.07,-81.335 1224.51,-87.8965"/>
</g>
<!-- Node36&#45;&gt;Node16 -->
<g id="edge73" class="edge"><title>Node36&#45;&gt;Node16</title>
<path fill="none" stroke="midnightblue" d="M731.623,-262.952C726.943,-260.837 721.835,-258.693 717,-257 655.552,-235.48 633.341,-249.901 575,-221 555.159,-211.171 554.67,-201.904 536,-190 505.834,-170.765 495.593,-170.789 464,-154 439.221,-140.833 434.75,-134.149 409,-123 387.068,-113.504 327.685,-95.5969 287.504,-83.8589"/>
<polygon fill="midnightblue" stroke="midnightblue" points="288.316,-80.4501 277.737,-81.0164 286.36,-87.1713 288.316,-80.4501"/>
</g>
<!-- Node36&#45;&gt;Node17 -->
<g id="edge76" class="edge"><title>Node36&#45;&gt;Node17</title>
<path fill="none" stroke="midnightblue" d="M754.577,-262.839C768.448,-241.299 804.7,-185 823.039,-156.522"/>
<polygon fill="midnightblue" stroke="midnightblue" points="826.042,-158.324 828.513,-148.021 820.156,-154.534 826.042,-158.324"/>
</g>
<!-- Node36&#45;&gt;Node31 -->
<g id="edge77" class="edge"><title>Node36&#45;&gt;Node31</title>
<path fill="none" stroke="midnightblue" d="M732.007,-262.954C727.237,-260.789 721.989,-258.621 717,-257 641.48,-232.461 619.72,-237.28 542,-221 540.56,-220.698 539.103,-220.393 537.634,-220.084"/>
<polygon fill="midnightblue" stroke="midnightblue" points="538.321,-216.652 527.814,-218.012 536.876,-223.501 538.321,-216.652"/>
</g>
<!-- Node37 -->
<g id="node37" class="node"><title>Node37</title>
<polygon fill="white" stroke="#bfbfbf" points="584,-196 584,-215 622,-215 622,-196 584,-196"/>
<text text-anchor="middle" x="603" y="-203" font-family="Helvetica,sans-Serif" font-size="10.00">array</text>
</g>
<!-- Node36&#45;&gt;Node37 -->
<g id="edge70" class="edge"><title>Node36&#45;&gt;Node37</title>
<path fill="none" stroke="midnightblue" d="M730.427,-262.974C726.036,-260.989 721.361,-258.9 717,-257 679.014,-240.447 668.54,-238.542 631,-221 630.008,-220.536 629,-220.057 627.985,-219.567"/>
<polygon fill="midnightblue" stroke="midnightblue" points="629.389,-216.355 618.88,-215.008 626.255,-222.615 629.389,-216.355"/>
</g>
<!-- Node38 -->
<g id="node38" class="node"><title>Node38</title>
<polygon fill="white" stroke="#bfbfbf" points="640.5,-196 640.5,-215 675.5,-215 675.5,-196 640.5,-196"/>
<text text-anchor="middle" x="658" y="-203" font-family="Helvetica,sans-Serif" font-size="10.00">map</text>
</g>
<!-- Node36&#45;&gt;Node38 -->
<g id="edge71" class="edge"><title>Node36&#45;&gt;Node38</title>
<path fill="none" stroke="midnightblue" d="M736.727,-262.734C721.855,-252.111 696.568,-234.049 678.67,-221.264"/>
<polygon fill="midnightblue" stroke="midnightblue" points="680.25,-218.092 670.078,-215.127 676.181,-223.788 680.25,-218.092"/>
</g>
</g>
</svg>
