<?xml version="1.0" encoding="UTF-8" standalone="no"?>
<!DOCTYPE svg PUBLIC "-//W3C//DTD SVG 1.1//EN"
 "http://www.w3.org/Graphics/SVG/1.1/DTD/svg11.dtd">
<!-- Generated by graphviz version 2.38.0 (20140413.2041)
 -->
<!-- Title: version.h Pages: 1 -->
<svg width="227pt" height="84pt"
 viewBox="0.00 0.00 226.50 84.00" xmlns="http://www.w3.org/2000/svg" xmlns:xlink="http://www.w3.org/1999/xlink">
<g id="graph0" class="graph" transform="scale(1 1) rotate(0) translate(4 80)">
<title>version.h</title>
<polygon fill="white" stroke="none" points="-4,4 -4,-80 222.5,-80 222.5,4 -4,4"/>
<!-- Node1 -->
<g id="node1" class="node"><title>Node1</title>
<polygon fill="#bfbfbf" stroke="black" points="81.5,-56.5 81.5,-75.5 137.5,-75.5 137.5,-56.5 81.5,-56.5"/>
<text text-anchor="middle" x="109.5" y="-63.5" font-family="Helvetica,sans-Serif" font-size="10.00">version.h</text>
</g>
<!-- Node2 -->
<g id="node2" class="node"><title>Node2</title>
<g id="a_node2"><a xlink:href="reporter_8cc.xhtml" target="_top" xlink:title="Implements Reporter class. ">
<polygon fill="white" stroke="black" points="0,-0.5 0,-19.5 63,-19.5 63,-0.5 0,-0.5"/>
<text text-anchor="middle" x="31.5" y="-7.5" font-family="Helvetica,sans-Serif" font-size="10.00">reporter.cc</text>
</a>
</g>
</g>
<!-- Node1&#45;&gt;Node2 -->
<g id="edge1" class="edge"><title>Node1&#45;&gt;Node2</title>
<path fill="none" stroke="midnightblue" d="M88.732,-50.6221C74.4829,-40.7574 56.0438,-27.9919 44.0009,-19.6545"/>
<polygon fill="midnightblue" stroke="midnightblue" points="86.7538,-53.5095 96.968,-56.324 90.7383,-47.7541 86.7538,-53.5095"/>
</g>
<!-- Node3 -->
<g id="node3" class="node"><title>Node3</title>
<g id="a_node3"><a xlink:href="scram_8cc.xhtml" target="_top" xlink:title="Main entrance. ">
<polygon fill="white" stroke="black" points="81,-0.5 81,-19.5 138,-19.5 138,-0.5 81,-0.5"/>
<text text-anchor="middle" x="109.5" y="-7.5" font-family="Helvetica,sans-Serif" font-size="10.00">scram.cc</text>
</a>
</g>
</g>
<!-- Node1&#45;&gt;Node3 -->
<g id="edge2" class="edge"><title>Node1&#45;&gt;Node3</title>
<path fill="none" stroke="midnightblue" d="M109.5,-45.8045C109.5,-36.9102 109.5,-26.7798 109.5,-19.7511"/>
<polygon fill="midnightblue" stroke="midnightblue" points="106,-46.083 109.5,-56.083 113,-46.083 106,-46.083"/>
</g>
<!-- Node4 -->
<g id="node4" class="node"><title>Node4</title>
<g id="a_node4"><a xlink:href="version_8cc.xhtml" target="_top" xlink:title="Implementations of functions returning the version information of the core and dependencies. ">
<polygon fill="white" stroke="black" points="156.5,-0.5 156.5,-19.5 218.5,-19.5 218.5,-0.5 156.5,-0.5"/>
<text text-anchor="middle" x="187.5" y="-7.5" font-family="Helvetica,sans-Serif" font-size="10.00">version.cc</text>
</a>
</g>
</g>
<!-- Node1&#45;&gt;Node4 -->
<g id="edge3" class="edge"><title>Node1&#45;&gt;Node4</title>
<path fill="none" stroke="midnightblue" d="M130.268,-50.6221C144.517,-40.7574 162.956,-27.9919 174.999,-19.6545"/>
<polygon fill="midnightblue" stroke="midnightblue" points="128.262,-47.7541 122.032,-56.324 132.246,-53.5095 128.262,-47.7541"/>
</g>
</g>
</svg>
