<?xml version="1.0" encoding="UTF-8" standalone="no"?>
<!DOCTYPE svg PUBLIC "-//W3C//DTD SVG 1.1//EN"
 "http://www.w3.org/Graphics/SVG/1.1/DTD/svg11.dtd">
<!-- Generated by graphviz version 2.38.0 (20140413.2041)
 -->
<!-- Title: version.cc Pages: 1 -->
<svg width="402pt" height="95pt"
 viewBox="0.00 0.00 401.50 95.00" xmlns="http://www.w3.org/2000/svg" xmlns:xlink="http://www.w3.org/1999/xlink">
<g id="graph0" class="graph" transform="scale(1 1) rotate(0) translate(4 91)">
<title>version.cc</title>
<polygon fill="white" stroke="none" points="-4,4 -4,-91 397.5,-91 397.5,4 -4,4"/>
<!-- Node1 -->
<g id="node1" class="node"><title>Node1</title>
<polygon fill="#bfbfbf" stroke="black" points="150,-67.5 150,-86.5 212,-86.5 212,-67.5 150,-67.5"/>
<text text-anchor="middle" x="181" y="-74.5" font-family="Helvetica,sans-Serif" font-size="10.00">version.cc</text>
</g>
<!-- Node2 -->
<g id="node2" class="node"><title>Node2</title>
<g id="a_node2"><a xlink:href="version_8h.xhtml" target="_top" xlink:title="Set of functions with version information of the core and dependencies. ">
<polygon fill="white" stroke="black" points="0,-6 0,-25 56,-25 56,-6 0,-6"/>
<text text-anchor="middle" x="28" y="-13" font-family="Helvetica,sans-Serif" font-size="10.00">version.h</text>
</a>
</g>
</g>
<!-- Node1&#45;&gt;Node2 -->
<g id="edge1" class="edge"><title>Node1&#45;&gt;Node2</title>
<path fill="none" stroke="midnightblue" d="M158.753,-67.3959C135.395,-58.3559 97.6032,-43.7123 65,-31 63.168,-30.2857 61.2854,-29.5507 59.3861,-28.8085"/>
<polygon fill="midnightblue" stroke="midnightblue" points="60.4956,-25.4843 49.9077,-25.0998 57.9448,-32.0031 60.4956,-25.4843"/>
</g>
<!-- Node3 -->
<g id="node3" class="node"><title>Node3</title>
<polygon fill="white" stroke="#bfbfbf" points="74,-0.5 74,-30.5 174,-30.5 174,-0.5 74,-0.5"/>
<text text-anchor="start" x="82" y="-18.5" font-family="Helvetica,sans-Serif" font-size="10.00">boost/preprocessor</text>
<text text-anchor="middle" x="124" y="-7.5" font-family="Helvetica,sans-Serif" font-size="10.00">/stringize.hpp</text>
</g>
<!-- Node1&#45;&gt;Node3 -->
<g id="edge2" class="edge"><title>Node1&#45;&gt;Node3</title>
<path fill="none" stroke="midnightblue" d="M172.833,-67.4751C165.474,-59.7932 154.341,-48.1717 144.562,-37.9643"/>
<polygon fill="midnightblue" stroke="midnightblue" points="146.879,-35.3229 137.434,-30.523 141.824,-40.1654 146.879,-35.3229"/>
</g>
<!-- Node4 -->
<g id="node4" class="node"><title>Node4</title>
<polygon fill="white" stroke="#bfbfbf" points="192,-6 192,-25 286,-25 286,-6 192,-6"/>
<text text-anchor="middle" x="239" y="-13" font-family="Helvetica,sans-Serif" font-size="10.00">boost/version.hpp</text>
</g>
<!-- Node1&#45;&gt;Node4 -->
<g id="edge3" class="edge"><title>Node1&#45;&gt;Node4</title>
<path fill="none" stroke="midnightblue" d="M189.31,-67.4751C198.182,-58.3733 212.446,-43.741 223.42,-32.483"/>
<polygon fill="midnightblue" stroke="midnightblue" points="226.231,-34.613 230.705,-25.0091 221.219,-29.7268 226.231,-34.613"/>
</g>
<!-- Node5 -->
<g id="node5" class="node"><title>Node5</title>
<polygon fill="white" stroke="#bfbfbf" points="304.5,-6 304.5,-25 393.5,-25 393.5,-6 304.5,-6"/>
<text text-anchor="middle" x="349" y="-13" font-family="Helvetica,sans-Serif" font-size="10.00">libxml++config.h</text>
</g>
<!-- Node1&#45;&gt;Node5 -->
<g id="edge4" class="edge"><title>Node1&#45;&gt;Node5</title>
<path fill="none" stroke="midnightblue" d="M205.07,-67.4751C234.013,-57.2246 282.762,-39.9593 315.402,-28.3994"/>
<polygon fill="midnightblue" stroke="midnightblue" points="316.717,-31.6468 324.974,-25.0091 314.38,-25.0484 316.717,-31.6468"/>
</g>
</g>
</svg>
