<?xml version="1.0" encoding="UTF-8" standalone="no"?>
<!DOCTYPE svg PUBLIC "-//W3C//DTD SVG 1.1//EN"
 "http://www.w3.org/Graphics/SVG/1.1/DTD/svg11.dtd">
<!-- Generated by graphviz version 2.38.0 (20140413.2041)
 -->
<!-- Title: scram::CastAttributeValue Pages: 1 -->
<svg width="303pt" height="102pt"
 viewBox="0.00 0.00 303.00 102.00" xmlns="http://www.w3.org/2000/svg" xmlns:xlink="http://www.w3.org/1999/xlink">
<g id="graph0" class="graph" transform="scale(1 1) rotate(0) translate(4 98)">
<title>scram::CastAttributeValue</title>
<polygon fill="white" stroke="none" points="-4,4 -4,-98 299,-98 299,4 -4,4"/>
<!-- Node1 -->
<g id="node1" class="node"><title>Node1</title>
<polygon fill="#bfbfbf" stroke="black" points="0,-28.5 0,-47.5 132,-47.5 132,-28.5 0,-28.5"/>
<text text-anchor="middle" x="66" y="-35.5" font-family="Helvetica,sans-Serif" font-size="10.00">scram::CastAttributeValue</text>
</g>
<!-- Node1&#45;&gt;Node1 -->
<g id="edge1" class="edge"><title>Node1&#45;&gt;Node1</title>
<path fill="none" stroke="midnightblue" d="M40.7228,-47.7571C28.4258,-56.5653 36.8516,-66 66,-66 85.5841,-66 95.8136,-61.741 96.6886,-56.2746"/>
<polygon fill="midnightblue" stroke="midnightblue" points="99.594,-54.3207 91.2772,-47.7571 93.6856,-58.0745 99.594,-54.3207"/>
</g>
<!-- Node2 -->
<g id="node2" class="node"><title>Node2</title>
<g id="a_node2"><a xlink:href="xml_8h.xhtml#a0c5491388e25d1f1badb26b56ef302e7" target="_top" xlink:title="Returns Normalized (trimmed) string value of an XML element attribute. ">
<polygon fill="white" stroke="black" points="168,-56.5 168,-75.5 295,-75.5 295,-56.5 168,-56.5"/>
<text text-anchor="middle" x="231.5" y="-63.5" font-family="Helvetica,sans-Serif" font-size="10.00">scram::GetAttributeValue</text>
</a>
</g>
</g>
<!-- Node1&#45;&gt;Node2 -->
<g id="edge2" class="edge"><title>Node1&#45;&gt;Node2</title>
<path fill="none" stroke="midnightblue" d="M122.81,-47.5577C136.358,-49.8779 150.967,-52.3797 164.921,-54.7693"/>
<polygon fill="midnightblue" stroke="midnightblue" points="164.494,-58.2471 174.941,-56.4854 165.676,-51.3476 164.494,-58.2471"/>
</g>
<!-- Node3 -->
<g id="node3" class="node"><title>Node3</title>
<g id="a_node3"><a xlink:href="xml_8h.xhtml#a0f074705681d730dcd5fb6035e91f30f" target="_top" xlink:title="Returns XML line number message. ">
<polygon fill="white" stroke="black" points="190,-0.5 190,-19.5 273,-19.5 273,-0.5 190,-0.5"/>
<text text-anchor="middle" x="231.5" y="-7.5" font-family="Helvetica,sans-Serif" font-size="10.00">scram::GetLine</text>
</a>
</g>
</g>
<!-- Node1&#45;&gt;Node3 -->
<g id="edge4" class="edge"><title>Node1&#45;&gt;Node3</title>
<path fill="none" stroke="midnightblue" d="M122.81,-28.4423C141.301,-25.2756 161.767,-21.7707 179.849,-18.6743"/>
<polygon fill="midnightblue" stroke="midnightblue" points="180.636,-22.0904 189.902,-16.9525 179.455,-15.1908 180.636,-22.0904"/>
</g>
<!-- Node2&#45;&gt;Node2 -->
<g id="edge3" class="edge"><title>Node2&#45;&gt;Node2</title>
<path fill="none" stroke="midnightblue" d="M206.223,-75.7571C193.926,-84.5653 202.352,-94 231.5,-94 251.084,-94 261.314,-89.741 262.189,-84.2746"/>
<polygon fill="midnightblue" stroke="midnightblue" points="265.094,-82.3207 256.777,-75.7571 259.186,-86.0745 265.094,-82.3207"/>
</g>
<!-- Node3&#45;&gt;Node3 -->
<g id="edge5" class="edge"><title>Node3&#45;&gt;Node3</title>
<path fill="none" stroke="midnightblue" d="M206.223,-19.7571C193.926,-28.5653 202.352,-38 231.5,-38 251.084,-38 261.314,-33.741 262.189,-28.2746"/>
<polygon fill="midnightblue" stroke="midnightblue" points="265.094,-26.3207 256.777,-19.7571 259.186,-30.0745 265.094,-26.3207"/>
</g>
</g>
</svg>
