<?xml version="1.0" encoding="UTF-8" standalone="no"?>
<!DOCTYPE svg PUBLIC "-//W3C//DTD SVG 1.1//EN"
 "http://www.w3.org/Graphics/SVG/1.1/DTD/svg11.dtd">
<!-- Generated by graphviz version 2.38.0 (20140413.2041)
 -->
<!-- Title: scram::XmlElement Pages: 1 -->
<svg width="292pt" height="225pt"
 viewBox="0.00 0.00 292.00 224.50" xmlns="http://www.w3.org/2000/svg" xmlns:xlink="http://www.w3.org/1999/xlink">
<g id="graph0" class="graph" transform="scale(1 1) rotate(0) translate(4 220.5)">
<title>scram::XmlElement</title>
<polygon fill="white" stroke="none" points="-4,4 -4,-220.5 288,-220.5 288,4 -4,4"/>
<!-- Node1 -->
<g id="node1" class="node"><title>Node1</title>
<polygon fill="#bfbfbf" stroke="black" points="0,-104 0,-123 103,-123 103,-104 0,-104"/>
<text text-anchor="middle" x="51.5" y="-111" font-family="Helvetica,sans-Serif" font-size="10.00">scram::XmlElement</text>
</g>
<!-- Node1&#45;&gt;Node1 -->
<g id="edge6" class="edge"><title>Node1&#45;&gt;Node1</title>
<path fill="none" stroke="midnightblue" d="M21.5599,-131.775C22.4135,-137.241 32.3936,-141.5 51.5,-141.5 79.9375,-141.5 88.1577,-132.065 76.1606,-123.257"/>
<polygon fill="midnightblue" stroke="midnightblue" points="24.5458,-133.601 26.8394,-123.257 18.596,-129.913 24.5458,-133.601"/>
</g>
<!-- Node2 -->
<g id="node2" class="node"><title>Node2</title>
<g id="a_node2"><a xlink:href="classscram_1_1Config.xhtml#ab0d7940fbb627fab9867821e133eab5d" target="_top" xlink:title="A constructor with configurations for analysis. ">
<polygon fill="white" stroke="black" points="155,-197 155,-216 268,-216 268,-197 155,-197"/>
<text text-anchor="middle" x="211.5" y="-204" font-family="Helvetica,sans-Serif" font-size="10.00">scram::Config::Config</text>
</a>
</g>
</g>
<!-- Node1&#45;&gt;Node2 -->
<g id="edge1" class="edge"><title>Node1&#45;&gt;Node2</title>
<path fill="none" stroke="midnightblue" d="M68.1069,-130.76C84.2684,-147.614 111.034,-172.809 139,-187.5 146.277,-191.323 154.384,-194.422 162.452,-196.92"/>
<polygon fill="midnightblue" stroke="midnightblue" points="70.4553,-128.147 61.0661,-123.238 65.345,-132.931 70.4553,-128.147"/>
</g>
<!-- Node3 -->
<g id="node3" class="node"><title>Node3</title>
<g id="a_node3"><a xlink:href="classscram_1_1mef_1_1Initializer.xhtml#a14baeb786ca655ac41c6ad3197ebf612" target="_top" xlink:title="Specializations for elements defined after registration. ">
<polygon fill="white" stroke="black" points="156,-147.5 156,-177.5 267,-177.5 267,-147.5 156,-147.5"/>
<text text-anchor="start" x="164" y="-165.5" font-family="Helvetica,sans-Serif" font-size="10.00">scram::mef::Initializer</text>
<text text-anchor="middle" x="211.5" y="-154.5" font-family="Helvetica,sans-Serif" font-size="10.00">::Define</text>
</a>
</g>
</g>
<!-- Node1&#45;&gt;Node3 -->
<g id="edge2" class="edge"><title>Node1&#45;&gt;Node3</title>
<path fill="none" stroke="midnightblue" d="M92.9435,-126.043C113.997,-132.572 139.891,-140.602 162.013,-147.463"/>
<polygon fill="midnightblue" stroke="midnightblue" points="93.9271,-122.683 83.3391,-123.064 91.8535,-129.369 93.9271,-122.683"/>
</g>
<!-- Node4 -->
<g id="node4" class="node"><title>Node4</title>
<g id="a_node4"><a xlink:href="structscram_1_1mef_1_1Initializer_1_1Extractor.xhtml#ae29f35dea83c6f8ad98ace2bcf98e6ea" target="_top" xlink:title="Extracts and accumulates expressions to be passed to the constructor of expression T...">
<polygon fill="white" stroke="black" points="156,-98.5 156,-128.5 267,-128.5 267,-98.5 156,-98.5"/>
<text text-anchor="start" x="164" y="-116.5" font-family="Helvetica,sans-Serif" font-size="10.00">scram::mef::Initializer</text>
<text text-anchor="middle" x="211.5" y="-105.5" font-family="Helvetica,sans-Serif" font-size="10.00">::Extractor::operator()</text>
</a>
</g>
</g>
<!-- Node1&#45;&gt;Node4 -->
<g id="edge3" class="edge"><title>Node1&#45;&gt;Node4</title>
<path fill="none" stroke="midnightblue" d="M113.389,-113.5C127.393,-113.5 142.198,-113.5 155.914,-113.5"/>
<polygon fill="midnightblue" stroke="midnightblue" points="113.362,-110 103.362,-113.5 113.362,-117 113.362,-110"/>
</g>
<!-- Node5 -->
<g id="node5" class="node"><title>Node5</title>
<g id="a_node5"><a xlink:href="structscram_1_1mef_1_1Initializer_1_1Extractor_3_01T_00-1_01_4.xhtml#aa3a2ab99081e017bfa97747a8f6bca04" target="_top" xlink:title="Constructs an expression with a variable number of arguments. ">
<polygon fill="white" stroke="black" points="139,-49.5 139,-79.5 284,-79.5 284,-49.5 139,-49.5"/>
<text text-anchor="start" x="147" y="-67.5" font-family="Helvetica,sans-Serif" font-size="10.00">scram::mef::Initializer</text>
<text text-anchor="middle" x="211.5" y="-56.5" font-family="Helvetica,sans-Serif" font-size="10.00">::Extractor&lt; T,&#45;1 &gt;::operator()</text>
</a>
</g>
</g>
<!-- Node1&#45;&gt;Node5 -->
<g id="edge4" class="edge"><title>Node1&#45;&gt;Node5</title>
<path fill="none" stroke="midnightblue" d="M92.9435,-100.957C113.997,-94.4281 139.891,-86.3976 162.013,-79.537"/>
<polygon fill="midnightblue" stroke="midnightblue" points="91.8535,-97.6309 83.3391,-103.936 93.9271,-104.317 91.8535,-97.6309"/>
</g>
<!-- Node6 -->
<g id="node6" class="node"><title>Node6</title>
<g id="a_node6"><a xlink:href="classscram_1_1mef_1_1Initializer.xhtml#a309086221763ef6045454b5b9595aa5c" target="_top" xlink:title="Specializations for element registrations. ">
<polygon fill="white" stroke="black" points="156,-0.5 156,-30.5 267,-30.5 267,-0.5 156,-0.5"/>
<text text-anchor="start" x="164" y="-18.5" font-family="Helvetica,sans-Serif" font-size="10.00">scram::mef::Initializer</text>
<text text-anchor="middle" x="211.5" y="-7.5" font-family="Helvetica,sans-Serif" font-size="10.00">::Register</text>
</a>
</g>
</g>
<!-- Node1&#45;&gt;Node6 -->
<g id="edge5" class="edge"><title>Node1&#45;&gt;Node6</title>
<path fill="none" stroke="midnightblue" d="M68.9298,-96.4021C85.3636,-80.1292 112.014,-55.9031 139,-40.5 145.51,-36.7843 152.665,-33.4839 159.856,-30.598"/>
<polygon fill="midnightblue" stroke="midnightblue" points="66.2746,-94.1093 61.7263,-103.678 71.2491,-99.0342 66.2746,-94.1093"/>
</g>
</g>
</svg>
