<?xml version="1.0" encoding="UTF-8" standalone="no"?>
<!DOCTYPE svg PUBLIC "-//W3C//DTD SVG 1.1//EN"
 "http://www.w3.org/Graphics/SVG/1.1/DTD/svg11.dtd">
<!-- Generated by graphviz version 2.38.0 (20140413.2041)
 -->
<!-- Title: zbdd.h Pages: 1 -->
<!--zoomable 364 -->
<svg id="main" version="1.1" xmlns="http://www.w3.org/2000/svg" xmlns:xlink="http://www.w3.org/1999/xlink" xml:space="preserve" onload="init(evt)">
<style type="text/css"><![CDATA[
.edge:hover path { stroke: red; }
.edge:hover polygon { stroke: red; fill: red; }
]]></style>
<script type="text/javascript"><![CDATA[
var edges = document.getElementsByTagName('g');
if (edges && edges.length) {
  for (var i=0;i<edges.length;i++) {
    if (edges[i].id.substr(0,4)=='edge') {
      edges[i].setAttribute('class','edge');
    }
  }
}
]]></script>
        <defs>
                <circle id="rim" cx="0" cy="0" r="7"/>
                <circle id="rim2" cx="0" cy="0" r="3.5"/>
                <g id="zoomPlus">
                        <use xlink:href="#rim" fill="#404040">
                                <set attributeName="fill" to="#808080" begin="zoomplus.mouseover" end="zoomplus.mouseout"/>
                        </use>
                        <path d="M-4,0h8M0,-4v8" fill="none" stroke="white" stroke-width="1.5" pointer-events="none"/>
                </g>
                <g id="zoomMin">
                        <use xlink:href="#rim" fill="#404040">
                                <set attributeName="fill" to="#808080" begin="zoomminus.mouseover" end="zoomminus.mouseout"/>
                        </use>
                        <path d="M-4,0h8" fill="none" stroke="white" stroke-width="1.5" pointer-events="none"/>
                </g>
                <g id="dirArrow">
                        <path fill="none" stroke="white" stroke-width="1.5" d="M0,-3.0v7 M-2.5,-0.5L0,-3.0L2.5,-0.5"/>
                </g>
               <g id="resetDef">
                       <use xlink:href="#rim2" fill="#404040">
                               <set attributeName="fill" to="#808080" begin="reset.mouseover" end="reset.mouseout"/>
                       </use>
               </g>
        </defs>

<script type="text/javascript">
var viewWidth = 809;
var viewHeight = 364;
var sectionId = 'dynsection-1';
</script>
<script xlink:href="svgpan.js"/>
<svg id="graph" class="graph">
<g id="viewport">
<title>zbdd.h</title>
<polygon fill="white" stroke="none" points="-4,4 -4,-360 804.5,-360 804.5,4 -4,4"/>
<!-- Node1 -->
<g id="node1" class="node"><title>Node1</title>
<polygon fill="#bfbfbf" stroke="black" points="544,-336.5 544,-355.5 590,-355.5 590,-336.5 544,-336.5"/>
<text text-anchor="middle" x="567" y="-343.5" font-family="Helvetica,sans-Serif" font-size="10.00">zbdd.h</text>
</g>
<!-- Node2 -->
<g id="node2" class="node"><title>Node2</title>
<g id="a_node2"><a xlink:href="bdd_8cc.xhtml" target="_top" xlink:title="Implementation of BDD fault tree analysis algorithms. ">
<polygon fill="white" stroke="black" points="0,-280.5 0,-299.5 46,-299.5 46,-280.5 0,-280.5"/>
<text text-anchor="middle" x="23" y="-287.5" font-family="Helvetica,sans-Serif" font-size="10.00">bdd.cc</text>
</a>
</g>
</g>
<!-- Node1&#45;&gt;Node2 -->
<g id="edge1" class="edge"><title>Node1&#45;&gt;Node2</title>
<path fill="none" stroke="midnightblue" d="M533.72,-343.775C452.362,-340.405 237.104,-329.23 60,-300 55.5646,-299.268 50.8749,-298.29 46.3789,-297.248"/>
<polygon fill="midnightblue" stroke="midnightblue" points="533.72,-347.278 543.853,-344.182 534.002,-340.283 533.72,-347.278"/>
</g>
<!-- Node3 -->
<g id="node3" class="node"><title>Node3</title>
<g id="a_node3"><a xlink:href="fault__tree__analysis_8h.xhtml" target="_top" xlink:title="Fault Tree Analysis. ">
<polygon fill="white" stroke="black" points="345.5,-280.5 345.5,-299.5 452.5,-299.5 452.5,-280.5 345.5,-280.5"/>
<text text-anchor="middle" x="399" y="-287.5" font-family="Helvetica,sans-Serif" font-size="10.00">fault_tree_analysis.h</text>
</a>
</g>
</g>
<!-- Node1&#45;&gt;Node3 -->
<g id="edge2" class="edge"><title>Node1&#45;&gt;Node3</title>
<path fill="none" stroke="midnightblue" d="M534.295,-334.488C502.582,-324.294 455.065,-309.021 425.603,-299.551"/>
<polygon fill="midnightblue" stroke="midnightblue" points="533.401,-337.877 543.993,-337.605 535.543,-331.212 533.401,-337.877"/>
</g>
<!-- Node7 -->
<g id="node7" class="node"><title>Node7</title>
<g id="a_node7"><a xlink:href="importance__analysis_8cc.xhtml" target="_top" xlink:title="Implementations of functions to provide quantitative importance informations. ">
<polygon fill="white" stroke="black" points="37.5,-112.5 37.5,-131.5 156.5,-131.5 156.5,-112.5 37.5,-112.5"/>
<text text-anchor="middle" x="97" y="-119.5" font-family="Helvetica,sans-Serif" font-size="10.00">importance_analysis.cc</text>
</a>
</g>
</g>
<!-- Node1&#45;&gt;Node7 -->
<g id="edge23" class="edge"><title>Node1&#45;&gt;Node7</title>
<path fill="none" stroke="midnightblue" d="M533.756,-342.124C487.975,-337.366 403.522,-325.699 336,-300 244.745,-265.268 220.083,-252.751 147,-188 127.606,-170.817 110.516,-145.213 102.257,-131.846"/>
<polygon fill="midnightblue" stroke="midnightblue" points="533.695,-345.635 543.992,-343.139 534.386,-338.669 533.695,-345.635"/>
</g>
<!-- Node12 -->
<g id="node12" class="node"><title>Node12</title>
<g id="a_node12"><a xlink:href="risk__analysis_8cc.xhtml" target="_top" xlink:title="Implementation of risk analysis handler. ">
<polygon fill="white" stroke="black" points="639.5,-56.5 639.5,-75.5 726.5,-75.5 726.5,-56.5 639.5,-56.5"/>
<text text-anchor="middle" x="683" y="-63.5" font-family="Helvetica,sans-Serif" font-size="10.00">risk_analysis.cc</text>
</a>
</g>
</g>
<!-- Node1&#45;&gt;Node12 -->
<g id="edge28" class="edge"><title>Node1&#45;&gt;Node12</title>
<path fill="none" stroke="midnightblue" d="M599.739,-337.286C644.954,-324.462 721,-294.106 721,-235 721,-235 721,-235 721,-177 721,-137.399 698.725,-93.957 688.284,-75.769"/>
<polygon fill="midnightblue" stroke="midnightblue" points="598.798,-333.915 590.055,-339.9 600.622,-340.673 598.798,-333.915"/>
</g>
<!-- Node13 -->
<g id="node13" class="node"><title>Node13</title>
<g id="a_node13"><a xlink:href="probability__analysis_8cc.xhtml" target="_top" xlink:title="Implementations of functions to provide probability analysis. ">
<polygon fill="white" stroke="black" points="465,-168.5 465,-187.5 581,-187.5 581,-168.5 465,-168.5"/>
<text text-anchor="middle" x="523" y="-175.5" font-family="Helvetica,sans-Serif" font-size="10.00">probability_analysis.cc</text>
</a>
</g>
</g>
<!-- Node1&#45;&gt;Node13 -->
<g id="edge27" class="edge"><title>Node1&#45;&gt;Node13</title>
<path fill="none" stroke="midnightblue" d="M566.071,-325.948C564.425,-301.682 559.952,-258.732 548,-224 543.347,-210.479 534.745,-196.281 528.947,-187.534"/>
<polygon fill="midnightblue" stroke="midnightblue" points="562.595,-326.462 566.672,-336.241 569.583,-326.054 562.595,-326.462"/>
</g>
<!-- Node16 -->
<g id="node16" class="node"><title>Node16</title>
<g id="a_node16"><a xlink:href="mocus_8h.xhtml" target="_top" xlink:title="Fault tree analysis with the MOCUS algorithm. ">
<polygon fill="white" stroke="black" points="598,-280.5 598,-299.5 652,-299.5 652,-280.5 598,-280.5"/>
<text text-anchor="middle" x="625" y="-287.5" font-family="Helvetica,sans-Serif" font-size="10.00">mocus.h</text>
</a>
</g>
</g>
<!-- Node1&#45;&gt;Node16 -->
<g id="edge24" class="edge"><title>Node1&#45;&gt;Node16</title>
<path fill="none" stroke="midnightblue" d="M583.913,-329.253C594.203,-319.673 606.966,-307.791 615.512,-299.834"/>
<polygon fill="midnightblue" stroke="midnightblue" points="581.253,-326.948 576.319,-336.324 586.023,-332.071 581.253,-326.948"/>
</g>
<!-- Node18 -->
<g id="node18" class="node"><title>Node18</title>
<g id="a_node18"><a xlink:href="zbdd_8cc.xhtml" target="_top" xlink:title="Implementation of Zero&#45;Suppressed BDD algorithms. ">
<polygon fill="white" stroke="black" points="749.5,-280.5 749.5,-299.5 800.5,-299.5 800.5,-280.5 749.5,-280.5"/>
<text text-anchor="middle" x="775" y="-287.5" font-family="Helvetica,sans-Serif" font-size="10.00">zbdd.cc</text>
</a>
</g>
</g>
<!-- Node1&#45;&gt;Node18 -->
<g id="edge29" class="edge"><title>Node1&#45;&gt;Node18</title>
<path fill="none" stroke="midnightblue" d="M599.922,-336.453C641.325,-325.704 711.542,-307.475 749.244,-297.687"/>
<polygon fill="midnightblue" stroke="midnightblue" points="598.854,-333.114 590.054,-339.015 600.613,-339.89 598.854,-333.114"/>
</g>
<!-- Node4 -->
<g id="node4" class="node"><title>Node4</title>
<g id="a_node4"><a xlink:href="fault__tree__analysis_8cc.xhtml" target="_top" xlink:title="Implementation of fault tree analysis. ">
<polygon fill="white" stroke="black" points="427,-224.5 427,-243.5 539,-243.5 539,-224.5 427,-224.5"/>
<text text-anchor="middle" x="483" y="-231.5" font-family="Helvetica,sans-Serif" font-size="10.00">fault_tree_analysis.cc</text>
</a>
</g>
</g>
<!-- Node3&#45;&gt;Node4 -->
<g id="edge3" class="edge"><title>Node3&#45;&gt;Node4</title>
<path fill="none" stroke="midnightblue" d="M420.932,-274.901C436.335,-264.999 456.446,-252.071 469.537,-243.655"/>
<polygon fill="midnightblue" stroke="midnightblue" points="419.015,-271.972 412.496,-280.324 422.801,-277.86 419.015,-271.972"/>
</g>
<!-- Node5 -->
<g id="node5" class="node"><title>Node5</title>
<g id="a_node5"><a xlink:href="probability__analysis_8h.xhtml" target="_top" xlink:title="Contains functionality to do numerical analysis of probabilities. ">
<polygon fill="white" stroke="black" points="261,-224.5 261,-243.5 371,-243.5 371,-224.5 261,-224.5"/>
<text text-anchor="middle" x="316" y="-231.5" font-family="Helvetica,sans-Serif" font-size="10.00">probability_analysis.h</text>
</a>
</g>
</g>
<!-- Node3&#45;&gt;Node5 -->
<g id="edge4" class="edge"><title>Node3&#45;&gt;Node5</title>
<path fill="none" stroke="midnightblue" d="M376.901,-274.622C361.738,-264.757 342.117,-251.992 329.302,-243.655"/>
<polygon fill="midnightblue" stroke="midnightblue" points="375.374,-277.804 385.665,-280.324 379.191,-271.937 375.374,-277.804"/>
</g>
<!-- Node8 -->
<g id="node8" class="node"><title>Node8</title>
<g id="a_node8"><a xlink:href="reporter_8h.xhtml" target="_top" xlink:title="Reporter of results. ">
<polygon fill="white" stroke="black" points="213,-56.5 213,-75.5 271,-75.5 271,-56.5 213,-56.5"/>
<text text-anchor="middle" x="242" y="-63.5" font-family="Helvetica,sans-Serif" font-size="10.00">reporter.h</text>
</a>
</g>
</g>
<!-- Node3&#45;&gt;Node8 -->
<g id="edge21" class="edge"><title>Node3&#45;&gt;Node8</title>
<path fill="none" stroke="midnightblue" d="M335.178,-283.687C247.583,-272.511 93.5212,-238.015 28,-132 23.3268,-124.439 22.3985,-118.902 28,-112 50.9675,-83.7006 159.859,-72.5378 212.869,-68.7251"/>
<polygon fill="midnightblue" stroke="midnightblue" points="334.912,-287.18 345.261,-284.907 335.754,-280.231 334.912,-287.18"/>
</g>
<!-- Node11 -->
<g id="node11" class="node"><title>Node11</title>
<g id="a_node11"><a xlink:href="risk__analysis_8h.xhtml" target="_top" xlink:title="Contains the main system for performing analysis. ">
<polygon fill="white" stroke="black" points="427,-112.5 427,-131.5 509,-131.5 509,-112.5 427,-112.5"/>
<text text-anchor="middle" x="468" y="-119.5" font-family="Helvetica,sans-Serif" font-size="10.00">risk_analysis.h</text>
</a>
</g>
</g>
<!-- Node3&#45;&gt;Node11 -->
<g id="edge22" class="edge"><title>Node3&#45;&gt;Node11</title>
<path fill="none" stroke="midnightblue" d="M399.506,-269.995C400.944,-255.362 405.332,-235.716 418,-224 475.339,-170.971 540.755,-248.619 590,-188 615.649,-156.427 553.85,-138.168 509.159,-129.434"/>
<polygon fill="midnightblue" stroke="midnightblue" points="395.987,-270.217 398.884,-280.408 402.974,-270.635 395.987,-270.217"/>
</g>
<!-- Node6 -->
<g id="node6" class="node"><title>Node6</title>
<g id="a_node6"><a xlink:href="importance__analysis_8h.xhtml" target="_top" xlink:title="Contains functionality to do numerical analysis of importance factors. ">
<polygon fill="white" stroke="black" points="163,-168.5 163,-187.5 277,-187.5 277,-168.5 163,-168.5"/>
<text text-anchor="middle" x="220" y="-175.5" font-family="Helvetica,sans-Serif" font-size="10.00">importance_analysis.h</text>
</a>
</g>
</g>
<!-- Node5&#45;&gt;Node6 -->
<g id="edge5" class="edge"><title>Node5&#45;&gt;Node6</title>
<path fill="none" stroke="midnightblue" d="M291.426,-219.177C273.761,-209.241 250.487,-196.149 235.386,-187.655"/>
<polygon fill="midnightblue" stroke="midnightblue" points="290.144,-222.472 300.576,-224.324 293.576,-216.371 290.144,-222.472"/>
</g>
<!-- Node5&#45;&gt;Node8 -->
<g id="edge15" class="edge"><title>Node5&#45;&gt;Node8</title>
<path fill="none" stroke="midnightblue" d="M250.883,-223.096C211.271,-215.59 166.05,-203.853 154,-188 148.621,-180.923 150.882,-176.324 154,-168 169.417,-126.837 210.035,-91.4028 230.24,-75.6747"/>
<polygon fill="midnightblue" stroke="midnightblue" points="250.342,-226.555 260.809,-224.913 251.603,-219.669 250.342,-226.555"/>
</g>
<!-- Node5&#45;&gt;Node11 -->
<g id="edge16" class="edge"><title>Node5&#45;&gt;Node11</title>
<path fill="none" stroke="midnightblue" d="M354.875,-221.062C375.035,-213.639 399.287,-202.683 418,-188 438.61,-171.829 455.423,-145.325 463.25,-131.695"/>
<polygon fill="midnightblue" stroke="midnightblue" points="353.614,-217.795 345.348,-224.424 355.943,-224.397 353.614,-217.795"/>
</g>
<!-- Node5&#45;&gt;Node13 -->
<g id="edge14" class="edge"><title>Node5&#45;&gt;Node13</title>
<path fill="none" stroke="midnightblue" d="M358.822,-221.829C397.906,-211.633 454.835,-196.782 490.354,-187.516"/>
<polygon fill="midnightblue" stroke="midnightblue" points="357.592,-218.533 348.8,-224.444 359.359,-225.306 357.592,-218.533"/>
</g>
<!-- Node14 -->
<g id="node14" class="node"><title>Node14</title>
<g id="a_node14"><a xlink:href="uncertainty__analysis_8h.xhtml" target="_top" xlink:title="Provides functionality for uncertainty analysis with Monte Carlo method. ">
<polygon fill="white" stroke="black" points="295,-168.5 295,-187.5 409,-187.5 409,-168.5 295,-168.5"/>
<text text-anchor="middle" x="352" y="-175.5" font-family="Helvetica,sans-Serif" font-size="10.00">uncertainty_analysis.h</text>
</a>
</g>
</g>
<!-- Node5&#45;&gt;Node14 -->
<g id="edge17" class="edge"><title>Node5&#45;&gt;Node14</title>
<path fill="none" stroke="midnightblue" d="M327.623,-215.566C333.817,-206.275 341.168,-195.248 346.166,-187.751"/>
<polygon fill="midnightblue" stroke="midnightblue" points="324.58,-213.821 321.945,-224.083 330.404,-217.704 324.58,-213.821"/>
</g>
<!-- Node6&#45;&gt;Node7 -->
<g id="edge6" class="edge"><title>Node6&#45;&gt;Node7</title>
<path fill="none" stroke="midnightblue" d="M191.227,-164.368C168.193,-154.255 136.516,-140.349 116.399,-131.516"/>
<polygon fill="midnightblue" stroke="midnightblue" points="189.947,-167.628 200.51,-168.444 192.761,-161.219 189.947,-167.628"/>
</g>
<!-- Node6&#45;&gt;Node8 -->
<g id="edge7" class="edge"><title>Node6&#45;&gt;Node8</title>
<path fill="none" stroke="midnightblue" d="M223.73,-158.348C228.549,-134.254 236.738,-93.3079 240.282,-75.5914"/>
<polygon fill="midnightblue" stroke="midnightblue" points="220.256,-157.876 221.726,-168.368 227.12,-159.249 220.256,-157.876"/>
</g>
<!-- Node6&#45;&gt;Node11 -->
<g id="edge10" class="edge"><title>Node6&#45;&gt;Node11</title>
<path fill="none" stroke="midnightblue" d="M269.226,-166.281C316.091,-156.077 385.699,-140.92 428.888,-131.516"/>
<polygon fill="midnightblue" stroke="midnightblue" points="268.323,-162.896 259.296,-168.444 269.812,-169.736 268.323,-162.896"/>
</g>
<!-- Node9 -->
<g id="node9" class="node"><title>Node9</title>
<g id="a_node9"><a xlink:href="reporter_8cc.xhtml" target="_top" xlink:title="Implements Reporter class. ">
<polygon fill="white" stroke="black" points="210.5,-0.5 210.5,-19.5 273.5,-19.5 273.5,-0.5 210.5,-0.5"/>
<text text-anchor="middle" x="242" y="-7.5" font-family="Helvetica,sans-Serif" font-size="10.00">reporter.cc</text>
</a>
</g>
</g>
<!-- Node8&#45;&gt;Node9 -->
<g id="edge8" class="edge"><title>Node8&#45;&gt;Node9</title>
<path fill="none" stroke="midnightblue" d="M242,-45.8045C242,-36.9102 242,-26.7798 242,-19.7511"/>
<polygon fill="midnightblue" stroke="midnightblue" points="238.5,-46.083 242,-56.083 245.5,-46.083 238.5,-46.083"/>
</g>
<!-- Node10 -->
<g id="node10" class="node"><title>Node10</title>
<g id="a_node10"><a xlink:href="scram_8cc.xhtml" target="_top" xlink:title="Main entrance. ">
<polygon fill="white" stroke="black" points="323.5,-0.5 323.5,-19.5 380.5,-19.5 380.5,-0.5 323.5,-0.5"/>
<text text-anchor="middle" x="352" y="-7.5" font-family="Helvetica,sans-Serif" font-size="10.00">scram.cc</text>
</a>
</g>
</g>
<!-- Node8&#45;&gt;Node10 -->
<g id="edge9" class="edge"><title>Node8&#45;&gt;Node10</title>
<path fill="none" stroke="midnightblue" d="M268.762,-51.8622C289.159,-41.8492 316.666,-28.3458 334.37,-19.6545"/>
<polygon fill="midnightblue" stroke="midnightblue" points="267.108,-48.7753 259.673,-56.324 270.192,-55.059 267.108,-48.7753"/>
</g>
<!-- Node11&#45;&gt;Node8 -->
<g id="edge11" class="edge"><title>Node11&#45;&gt;Node8</title>
<path fill="none" stroke="midnightblue" d="M422.358,-110.094C377.22,-99.3092 309.501,-83.1286 271.175,-73.971"/>
<polygon fill="midnightblue" stroke="midnightblue" points="421.65,-113.524 432.19,-112.444 423.277,-106.715 421.65,-113.524"/>
</g>
<!-- Node11&#45;&gt;Node10 -->
<g id="edge13" class="edge"><title>Node11&#45;&gt;Node10</title>
<path fill="none" stroke="midnightblue" d="M451.344,-105.205C426.48,-81.6272 380.504,-38.0294 361.06,-19.5914"/>
<polygon fill="midnightblue" stroke="midnightblue" points="449.233,-108.027 458.898,-112.368 454.05,-102.948 449.233,-108.027"/>
</g>
<!-- Node11&#45;&gt;Node12 -->
<g id="edge12" class="edge"><title>Node11&#45;&gt;Node12</title>
<path fill="none" stroke="midnightblue" d="M511.96,-109.959C552.567,-99.7598 612.043,-84.8217 649.092,-75.5164"/>
<polygon fill="midnightblue" stroke="midnightblue" points="510.914,-106.613 502.067,-112.444 512.619,-113.402 510.914,-106.613"/>
</g>
<!-- Node14&#45;&gt;Node8 -->
<g id="edge19" class="edge"><title>Node14&#45;&gt;Node8</title>
<path fill="none" stroke="midnightblue" d="M324.135,-163.725C309.757,-155.913 292.634,-145.014 280,-132 263.428,-114.931 251.213,-89.2788 245.536,-75.875"/>
<polygon fill="midnightblue" stroke="midnightblue" points="322.626,-166.885 333.112,-168.403 325.861,-160.678 322.626,-166.885"/>
</g>
<!-- Node14&#45;&gt;Node11 -->
<g id="edge18" class="edge"><title>Node14&#45;&gt;Node11</title>
<path fill="none" stroke="midnightblue" d="M379.72,-164.096C401.392,-154.007 430.902,-140.27 449.705,-131.516"/>
<polygon fill="midnightblue" stroke="midnightblue" points="377.969,-161.05 370.381,-168.444 380.923,-167.396 377.969,-161.05"/>
</g>
<!-- Node15 -->
<g id="node15" class="node"><title>Node15</title>
<g id="a_node15"><a xlink:href="uncertainty__analysis_8cc.xhtml" target="_top" xlink:title="Implements the functionality to run Monte Carlo simulations. ">
<polygon fill="white" stroke="black" points="289.5,-112.5 289.5,-131.5 408.5,-131.5 408.5,-112.5 289.5,-112.5"/>
<text text-anchor="middle" x="349" y="-119.5" font-family="Helvetica,sans-Serif" font-size="10.00">uncertainty_analysis.cc</text>
</a>
</g>
</g>
<!-- Node14&#45;&gt;Node15 -->
<g id="edge20" class="edge"><title>Node14&#45;&gt;Node15</title>
<path fill="none" stroke="midnightblue" d="M350.934,-157.805C350.439,-148.91 349.877,-138.78 349.486,-131.751"/>
<polygon fill="midnightblue" stroke="midnightblue" points="347.455,-158.293 351.505,-168.083 354.444,-157.904 347.455,-158.293"/>
</g>
<!-- Node16&#45;&gt;Node12 -->
<g id="edge26" class="edge"><title>Node16&#45;&gt;Node12</title>
<path fill="none" stroke="midnightblue" d="M643.041,-273.108C650.831,-265.178 659.235,-254.949 664,-244 690.148,-183.924 686.018,-101.964 683.826,-75.5647"/>
<polygon fill="midnightblue" stroke="midnightblue" points="640.42,-270.772 635.614,-280.214 645.26,-275.83 640.42,-270.772"/>
</g>
<!-- Node17 -->
<g id="node17" class="node"><title>Node17</title>
<g id="a_node17"><a xlink:href="mocus_8cc.xhtml" target="_top" xlink:title="Implementation of the MOCUS algorithm. ">
<polygon fill="white" stroke="black" points="595.5,-224.5 595.5,-243.5 654.5,-243.5 654.5,-224.5 595.5,-224.5"/>
<text text-anchor="middle" x="625" y="-231.5" font-family="Helvetica,sans-Serif" font-size="10.00">mocus.cc</text>
</a>
</g>
</g>
<!-- Node16&#45;&gt;Node17 -->
<g id="edge25" class="edge"><title>Node16&#45;&gt;Node17</title>
<path fill="none" stroke="midnightblue" d="M625,-269.805C625,-260.91 625,-250.78 625,-243.751"/>
<polygon fill="midnightblue" stroke="midnightblue" points="621.5,-270.083 625,-280.083 628.5,-270.083 621.5,-270.083"/>
</g>
</g>
</svg>
        <g id="navigator" transform="translate(0 0)" fill="#404254">
                <rect fill="#f2f5e9" fill-opacity="0.5" stroke="#606060" stroke-width=".5" x="0" y="0" width="60" height="60"/>
                <use id="zoomplus" xlink:href="#zoomPlus" x="17" y="9" onmousedown="handleZoom(evt,'in')"/>
                <use id="zoomminus" xlink:href="#zoomMin" x="42" y="9" onmousedown="handleZoom(evt,'out')"/>
                <use id="reset" xlink:href="#resetDef" x="30" y="36" onmousedown="handleReset()"/>
                <g id="arrowUp" xlink:href="#dirArrow" transform="translate(30 24)" onmousedown="handlePan(0,-1)">
                  <use xlink:href="#rim" fill="#404040">
                        <set attributeName="fill" to="#808080" begin="arrowUp.mouseover" end="arrowUp.mouseout"/>
                  </use>
                  <path fill="none" stroke="white" stroke-width="1.5" d="M0,-3.0v7 M-2.5,-0.5L0,-3.0L2.5,-0.5"/>
                </g>
                <g id="arrowRight" xlink:href="#dirArrow" transform="rotate(90) translate(36 -43)" onmousedown="handlePan(1,0)">
                  <use xlink:href="#rim" fill="#404040">
                        <set attributeName="fill" to="#808080" begin="arrowRight.mouseover" end="arrowRight.mouseout"/>
                  </use>
                  <path fill="none" stroke="white" stroke-width="1.5" d="M0,-3.0v7 M-2.5,-0.5L0,-3.0L2.5,-0.5"/>
                </g>
                <g id="arrowDown" xlink:href="#dirArrow" transform="rotate(180) translate(-30 -48)" onmousedown="handlePan(0,1)">
                  <use xlink:href="#rim" fill="#404040">
                        <set attributeName="fill" to="#808080" begin="arrowDown.mouseover" end="arrowDown.mouseout"/>
                  </use>
                  <path fill="none" stroke="white" stroke-width="1.5" d="M0,-3.0v7 M-2.5,-0.5L0,-3.0L2.5,-0.5"/>
                </g>
                <g id="arrowLeft" xlink:href="#dirArrow" transform="rotate(270) translate(-36 17)" onmousedown="handlePan(-1,0)">
                  <use xlink:href="#rim" fill="#404040">
                        <set attributeName="fill" to="#808080" begin="arrowLeft.mouseover" end="arrowLeft.mouseout"/>
                  </use>
                  <path fill="none" stroke="white" stroke-width="1.5" d="M0,-3.0v7 M-2.5,-0.5L0,-3.0L2.5,-0.5"/>
                </g>
        </g>
        <svg viewBox="0 0 15 15" width="100%" height="30px" preserveAspectRatio="xMaxYMin meet">
         <g id="arrow_out" transform="scale(0.3 0.3)">
          <a xlink:href="zbdd_8h__dep__incl_org.svg" target="_base">
           <rect id="button" ry="5" rx="5" y="6" x="6" height="38" width="38"
                fill="#f2f5e9" fill-opacity="0.5" stroke="#606060" stroke-width="1.0"/>
           <path id="arrow"
             d="M 11.500037,31.436501 C 11.940474,20.09759 22.043105,11.32322 32.158766,21.979434 L 37.068811,17.246167 C 37.068811,17.246167 37.088388,32 37.088388,32 L 22.160133,31.978069 C 22.160133,31.978069 26.997745,27.140456 26.997745,27.140456 C 18.528582,18.264221 13.291696,25.230495 11.500037,31.436501 z"
             style="fill:#404040;"/>
          </a>
         </g>
        </svg>
</svg>
