<?xml version="1.0" encoding="UTF-8" standalone="no"?>
<!DOCTYPE svg PUBLIC "-//W3C//DTD SVG 1.1//EN"
 "http://www.w3.org/Graphics/SVG/1.1/DTD/svg11.dtd">
<!-- Generated by graphviz version 2.38.0 (20140413.2041)
 -->
<!-- Title: zbdd.h Pages: 1 -->
<svg width="1708pt" height="285pt"
 viewBox="0.00 0.00 1707.67 285.00" xmlns="http://www.w3.org/2000/svg" xmlns:xlink="http://www.w3.org/1999/xlink">
<g id="graph0" class="graph" transform="scale(1 1) rotate(0) translate(4 281)">
<title>zbdd.h</title>
<polygon fill="white" stroke="none" points="-4,4 -4,-281 1703.67,-281 1703.67,4 -4,4"/>
<!-- Node1 -->
<g id="node1" class="node"><title>Node1</title>
<polygon fill="#bfbfbf" stroke="black" points="242.133,-257.5 242.133,-276.5 288.133,-276.5 288.133,-257.5 242.133,-257.5"/>
<text text-anchor="middle" x="265.133" y="-264.5" font-family="Helvetica,sans-Serif" font-size="10.00">zbdd.h</text>
</g>
<!-- Node2 -->
<g id="node2" class="node"><title>Node2</title>
<polygon fill="white" stroke="#bfbfbf" points="385.133,-62 385.133,-81 431.133,-81 431.133,-62 385.133,-62"/>
<text text-anchor="middle" x="408.133" y="-69" font-family="Helvetica,sans-Serif" font-size="10.00">cstdint</text>
</g>
<!-- Node1&#45;&gt;Node2 -->
<g id="edge1" class="edge"><title>Node1&#45;&gt;Node2</title>
<path fill="none" stroke="midnightblue" d="M241.833,-263.487C216.582,-259.38 177.45,-248.675 159.133,-221 135.094,-184.679 131.565,-156.721 159.133,-123 185.997,-90.1406 313.184,-78.1465 374.68,-74.2163"/>
<polygon fill="midnightblue" stroke="midnightblue" points="375.239,-77.689 385.01,-73.5929 374.818,-70.7017 375.239,-77.689"/>
</g>
<!-- Node3 -->
<g id="node3" class="node"><title>Node3</title>
<polygon fill="white" stroke="#bfbfbf" points="15.1329,-196 15.1329,-215 53.1329,-215 53.1329,-196 15.1329,-196"/>
<text text-anchor="middle" x="34.1329" y="-203" font-family="Helvetica,sans-Serif" font-size="10.00">array</text>
</g>
<!-- Node1&#45;&gt;Node3 -->
<g id="edge2" class="edge"><title>Node1&#45;&gt;Node3</title>
<path fill="none" stroke="midnightblue" d="M242.057,-262.882C203.813,-257.277 125.252,-243.896 62.1329,-221 60.8881,-220.548 59.6287,-220.053 58.3683,-219.525"/>
<polygon fill="midnightblue" stroke="midnightblue" points="59.4585,-216.17 48.9213,-215.066 56.4706,-222.5 59.4585,-216.17"/>
</g>
<!-- Node4 -->
<g id="node4" class="node"><title>Node4</title>
<polygon fill="white" stroke="#bfbfbf" points="71.6329,-196 71.6329,-215 106.633,-215 106.633,-196 71.6329,-196"/>
<text text-anchor="middle" x="89.1329" y="-203" font-family="Helvetica,sans-Serif" font-size="10.00">map</text>
</g>
<!-- Node1&#45;&gt;Node4 -->
<g id="edge3" class="edge"><title>Node1&#45;&gt;Node4</title>
<path fill="none" stroke="midnightblue" d="M241.891,-259.687C213.175,-251.672 162.984,-236.952 121.133,-221 119.526,-220.388 117.886,-219.734 116.238,-219.057"/>
<polygon fill="midnightblue" stroke="midnightblue" points="117.477,-215.779 106.91,-215.021 114.698,-222.204 117.477,-215.779"/>
</g>
<!-- Node5 -->
<g id="node5" class="node"><title>Node5</title>
<polygon fill="white" stroke="#bfbfbf" points="1627.13,-62 1627.13,-81 1679.13,-81 1679.13,-62 1627.13,-62"/>
<text text-anchor="middle" x="1653.13" y="-69" font-family="Helvetica,sans-Serif" font-size="10.00">memory</text>
</g>
<!-- Node1&#45;&gt;Node5 -->
<g id="edge4" class="edge"><title>Node1&#45;&gt;Node5</title>
<path fill="none" stroke="midnightblue" d="M288.315,-265.749C459.919,-263.681 1529.14,-247.095 1634.13,-154 1651.68,-138.442 1654.65,-110.102 1654.45,-91.2841"/>
<polygon fill="midnightblue" stroke="midnightblue" points="1657.95,-91.0825 1654.04,-81.2352 1650.96,-91.3709 1657.95,-91.0825"/>
</g>
<!-- Node6 -->
<g id="node6" class="node"><title>Node6</title>
<polygon fill="white" stroke="#bfbfbf" points="547.633,-62 547.633,-81 630.633,-81 630.633,-62 547.633,-62"/>
<text text-anchor="middle" x="589.133" y="-69" font-family="Helvetica,sans-Serif" font-size="10.00">unordered_map</text>
</g>
<!-- Node1&#45;&gt;Node6 -->
<g id="edge5" class="edge"><title>Node1&#45;&gt;Node6</title>
<path fill="none" stroke="midnightblue" d="M254.332,-257.372C225.873,-233.647 153.597,-166.318 192.133,-123 237.788,-71.6785 431.098,-96.4651 499.133,-87 511.626,-85.262 525.062,-83.2009 537.645,-81.1862"/>
<polygon fill="midnightblue" stroke="midnightblue" points="538.206,-84.641 547.518,-79.5875 537.087,-77.731 538.206,-84.641"/>
</g>
<!-- Node7 -->
<g id="node7" class="node"><title>Node7</title>
<polygon fill="white" stroke="#bfbfbf" points="810.133,-0.5 810.133,-19.5 850.133,-19.5 850.133,-0.5 810.133,-0.5"/>
<text text-anchor="middle" x="830.133" y="-7.5" font-family="Helvetica,sans-Serif" font-size="10.00">utility</text>
</g>
<!-- Node1&#45;&gt;Node7 -->
<g id="edge6" class="edge"><title>Node1&#45;&gt;Node7</title>
<path fill="none" stroke="midnightblue" d="M241.976,-265.616C184.215,-264.119 36.2473,-256.798 6.13285,-221 -2.73655,-210.457 -1.07512,-201.742 6.13285,-190 92.0712,-50.0048 660.59,-17.899 799.536,-12.1085"/>
<polygon fill="midnightblue" stroke="midnightblue" points="800.01,-15.5924 809.862,-11.6943 799.729,-8.59805 800.01,-15.5924"/>
</g>
<!-- Node8 -->
<g id="node8" class="node"><title>Node8</title>
<polygon fill="white" stroke="#bfbfbf" points="1539.13,-0.5 1539.13,-19.5 1583.13,-19.5 1583.13,-0.5 1539.13,-0.5"/>
<text text-anchor="middle" x="1561.13" y="-7.5" font-family="Helvetica,sans-Serif" font-size="10.00">vector</text>
</g>
<!-- Node1&#45;&gt;Node8 -->
<g id="edge7" class="edge"><title>Node1&#45;&gt;Node8</title>
<path fill="none" stroke="midnightblue" d="M288.304,-265.897C431.697,-265.139 1199.54,-259.324 1431.13,-221 1534.07,-203.965 1576.82,-221.799 1656.13,-154 1690.96,-124.227 1714.57,-93.42 1688.13,-56 1666.88,-25.9232 1623.74,-15.8207 1593.66,-12.4999"/>
<polygon fill="midnightblue" stroke="midnightblue" points="1593.9,-9.00751 1583.63,-11.5865 1593.27,-15.9787 1593.9,-9.00751"/>
</g>
<!-- Node9 -->
<g id="node9" class="node"><title>Node9</title>
<polygon fill="white" stroke="#bfbfbf" points="201.133,-129 201.133,-148 329.133,-148 329.133,-129 201.133,-129"/>
<text text-anchor="middle" x="265.133" y="-136" font-family="Helvetica,sans-Serif" font-size="10.00">boost/functional/hash.hpp</text>
</g>
<!-- Node1&#45;&gt;Node9 -->
<g id="edge8" class="edge"><title>Node1&#45;&gt;Node9</title>
<path fill="none" stroke="midnightblue" d="M265.133,-257.305C265.133,-236.994 265.133,-186.053 265.133,-158.277"/>
<polygon fill="midnightblue" stroke="midnightblue" points="268.633,-158.256 265.133,-148.256 261.633,-158.256 268.633,-158.256"/>
</g>
<!-- Node10 -->
<g id="node10" class="node"><title>Node10</title>
<polygon fill="white" stroke="#bfbfbf" points="906.633,-190.5 906.633,-220.5 1013.63,-220.5 1013.63,-190.5 906.633,-190.5"/>
<text text-anchor="start" x="914.633" y="-208.5" font-family="Helvetica,sans-Serif" font-size="10.00">boost/iterator/iterator</text>
<text text-anchor="middle" x="960.133" y="-197.5" font-family="Helvetica,sans-Serif" font-size="10.00">_facade.hpp</text>
</g>
<!-- Node1&#45;&gt;Node10 -->
<g id="edge9" class="edge"><title>Node1&#45;&gt;Node10</title>
<path fill="none" stroke="midnightblue" d="M288.314,-265.493C370.841,-263.443 657.928,-254.212 892.133,-221 893.589,-220.793 895.061,-220.574 896.544,-220.342"/>
<polygon fill="midnightblue" stroke="midnightblue" points="897.158,-223.788 906.434,-218.668 895.99,-216.887 897.158,-223.788"/>
</g>
<!-- Node11 -->
<g id="node11" class="node"><title>Node11</title>
<polygon fill="white" stroke="#bfbfbf" points="648.633,-62 648.633,-81 765.633,-81 765.633,-62 648.633,-62"/>
<text text-anchor="middle" x="707.133" y="-69" font-family="Helvetica,sans-Serif" font-size="10.00">boost/noncopyable.hpp</text>
</g>
<!-- Node1&#45;&gt;Node11 -->
<g id="edge10" class="edge"><title>Node1&#45;&gt;Node11</title>
<path fill="none" stroke="midnightblue" d="M288.256,-265.515C388.867,-262.863 786.668,-246.576 858.133,-154 866.552,-143.094 866.183,-134.181 858.133,-123 846.346,-106.629 798.914,-92.5098 760.315,-83.3965"/>
<polygon fill="midnightblue" stroke="midnightblue" points="760.741,-79.9031 750.211,-81.0752 759.173,-86.7253 760.741,-79.9031"/>
</g>
<!-- Node12 -->
<g id="node12" class="node"><title>Node12</title>
<g id="a_node12"><a xlink:href="bdd_8h.xhtml" target="_top" xlink:title="Fault tree analysis with the Binary Decision Diagram algorithms. ">
<polygon fill="white" stroke="black" points="552.633,-196 552.633,-215 593.633,-215 593.633,-196 552.633,-196"/>
<text text-anchor="middle" x="573.133" y="-203" font-family="Helvetica,sans-Serif" font-size="10.00">bdd.h</text>
</a>
</g>
</g>
<!-- Node1&#45;&gt;Node12 -->
<g id="edge11" class="edge"><title>Node1&#45;&gt;Node12</title>
<path fill="none" stroke="midnightblue" d="M288.283,-261.528C343.166,-250.925 481.178,-224.264 542.707,-212.378"/>
<polygon fill="midnightblue" stroke="midnightblue" points="543.432,-215.802 552.586,-210.469 542.104,-208.93 543.432,-215.802"/>
</g>
<!-- Node12&#45;&gt;Node5 -->
<g id="edge15" class="edge"><title>Node12&#45;&gt;Node5</title>
<path fill="none" stroke="midnightblue" d="M593.669,-203.564C738.578,-196.955 1601.53,-157.458 1607.13,-154 1629.89,-139.955 1642.4,-110.276 1648.43,-90.8745"/>
<polygon fill="midnightblue" stroke="midnightblue" points="1651.85,-91.6514 1651.2,-81.0764 1645.11,-89.7473 1651.85,-91.6514"/>
</g>
<!-- Node12&#45;&gt;Node6 -->
<g id="edge16" class="edge"><title>Node12&#45;&gt;Node6</title>
<path fill="none" stroke="midnightblue" d="M574.183,-195.839C576.748,-174.674 583.382,-119.948 586.886,-91.0329"/>
<polygon fill="midnightblue" stroke="midnightblue" points="590.371,-91.3697 588.1,-81.0212 583.422,-90.5273 590.371,-91.3697"/>
</g>
<!-- Node12&#45;&gt;Node7 -->
<g id="edge17" class="edge"><title>Node12&#45;&gt;Node7</title>
<path fill="none" stroke="midnightblue" d="M552.43,-202.351C506.383,-197.102 397.832,-181.964 376.133,-154 349.431,-119.59 346.893,-88.2816 376.133,-56 404.61,-24.5611 703.33,-14.2279 800.077,-11.6924"/>
<polygon fill="midnightblue" stroke="midnightblue" points="800.173,-15.1912 810.081,-11.4394 799.996,-8.19343 800.173,-15.1912"/>
</g>
<!-- Node12&#45;&gt;Node8 -->
<g id="edge18" class="edge"><title>Node12&#45;&gt;Node8</title>
<path fill="none" stroke="midnightblue" d="M593.641,-203.679C729.588,-198.032 1497.44,-162.89 1564.13,-87 1577.72,-71.5403 1573.65,-46.7343 1568.39,-29.693"/>
<polygon fill="midnightblue" stroke="midnightblue" points="1571.53,-28.0794 1564.93,-19.7919 1564.92,-30.3867 1571.53,-28.0794"/>
</g>
<!-- Node12&#45;&gt;Node9 -->
<g id="edge19" class="edge"><title>Node12&#45;&gt;Node9</title>
<path fill="none" stroke="midnightblue" d="M552.446,-200.134C504.465,-190.008 384.458,-164.682 315.676,-150.167"/>
<polygon fill="midnightblue" stroke="midnightblue" points="316.012,-146.66 305.505,-148.02 314.567,-153.51 316.012,-146.66"/>
</g>
<!-- Node12&#45;&gt;Node11 -->
<g id="edge20" class="edge"><title>Node12&#45;&gt;Node11</title>
<path fill="none" stroke="midnightblue" d="M577.714,-195.848C586.386,-180.031 606.468,-145.969 630.133,-123 645.38,-108.201 665.551,-95.1561 681.423,-86.0332"/>
<polygon fill="midnightblue" stroke="midnightblue" points="683.177,-89.0626 690.202,-81.1314 679.764,-82.9508 683.177,-89.0626"/>
</g>
<!-- Node13 -->
<g id="node13" class="node"><title>Node13</title>
<polygon fill="white" stroke="#bfbfbf" points="385.133,-129 385.133,-148 429.133,-148 429.133,-129 385.133,-129"/>
<text text-anchor="middle" x="407.133" y="-136" font-family="Helvetica,sans-Serif" font-size="10.00">cmath</text>
</g>
<!-- Node12&#45;&gt;Node13 -->
<g id="edge12" class="edge"><title>Node12&#45;&gt;Node13</title>
<path fill="none" stroke="midnightblue" d="M552.348,-197.305C525.665,-187.935 478.045,-170.768 438.133,-154 436.763,-153.425 435.366,-152.823 433.959,-152.207"/>
<polygon fill="midnightblue" stroke="midnightblue" points="435.282,-148.964 424.729,-148.026 432.394,-155.341 435.282,-148.964"/>
</g>
<!-- Node14 -->
<g id="node14" class="node"><title>Node14</title>
<polygon fill="white" stroke="#bfbfbf" points="891.133,-0.5 891.133,-19.5 947.133,-19.5 947.133,-0.5 891.133,-0.5"/>
<text text-anchor="middle" x="919.133" y="-7.5" font-family="Helvetica,sans-Serif" font-size="10.00">algorithm</text>
</g>
<!-- Node12&#45;&gt;Node14 -->
<g id="edge13" class="edge"><title>Node12&#45;&gt;Node14</title>
<path fill="none" stroke="midnightblue" d="M566.558,-195.855C548.361,-170.829 501.057,-97.4661 538.133,-56 585.977,-2.48977 787.961,-29.3256 859.133,-20 866.231,-19.0699 873.79,-17.9992 881.064,-16.9282"/>
<polygon fill="midnightblue" stroke="midnightblue" points="881.709,-20.3708 891.081,-15.4285 880.673,-13.4479 881.709,-20.3708"/>
</g>
<!-- Node15 -->
<g id="node15" class="node"><title>Node15</title>
<polygon fill="white" stroke="#bfbfbf" points="639.633,-129 639.633,-148 706.633,-148 706.633,-129 639.633,-129"/>
<text text-anchor="middle" x="673.133" y="-136" font-family="Helvetica,sans-Serif" font-size="10.00">forward_list</text>
</g>
<!-- Node12&#45;&gt;Node15 -->
<g id="edge14" class="edge"><title>Node12&#45;&gt;Node15</title>
<path fill="none" stroke="midnightblue" d="M586.619,-195.734C603.188,-184.964 631.517,-166.55 651.226,-153.739"/>
<polygon fill="midnightblue" stroke="midnightblue" points="653.383,-156.512 659.86,-148.127 649.568,-150.643 653.383,-156.512"/>
</g>
<!-- Node16 -->
<g id="node16" class="node"><title>Node16</title>
<polygon fill="white" stroke="#bfbfbf" points="724.633,-123.5 724.633,-153.5 849.633,-153.5 849.633,-123.5 724.633,-123.5"/>
<text text-anchor="start" x="732.633" y="-141.5" font-family="Helvetica,sans-Serif" font-size="10.00">boost/smart_ptr/intrusive</text>
<text text-anchor="middle" x="787.133" y="-130.5" font-family="Helvetica,sans-Serif" font-size="10.00">_ptr.hpp</text>
</g>
<!-- Node12&#45;&gt;Node16 -->
<g id="edge21" class="edge"><title>Node12&#45;&gt;Node16</title>
<path fill="none" stroke="midnightblue" d="M593.652,-198.268C625.035,-188.735 686.064,-170.199 731.225,-156.481"/>
<polygon fill="midnightblue" stroke="midnightblue" points="732.34,-159.801 740.892,-153.545 730.306,-153.103 732.34,-159.801"/>
</g>
<!-- Node17 -->
<g id="node17" class="node"><title>Node17</title>
<g id="a_node17"><a xlink:href="pdag_8h.xhtml" target="_top" xlink:title="Classes and facilities to represent fault trees as PDAGs with event and gate indices instead of ID na...">
<polygon fill="white" stroke="black" points="992.133,-129 992.133,-148 1038.13,-148 1038.13,-129 992.133,-129"/>
<text text-anchor="middle" x="1015.13" y="-136" font-family="Helvetica,sans-Serif" font-size="10.00">pdag.h</text>
</a>
</g>
</g>
<!-- Node12&#45;&gt;Node17 -->
<g id="edge22" class="edge"><title>Node12&#45;&gt;Node17</title>
<path fill="none" stroke="midnightblue" d="M593.859,-201.452C664.392,-191.08 895.522,-157.09 982.044,-144.366"/>
<polygon fill="midnightblue" stroke="midnightblue" points="982.709,-147.806 992.093,-142.888 981.69,-140.88 982.709,-147.806"/>
</g>
<!-- Node28 -->
<g id="node28" class="node"><title>Node28</title>
<g id="a_node28"><a xlink:href="settings_8h.xhtml" target="_top" xlink:title="Builder for settings. ">
<polygon fill="white" stroke="black" points="447.633,-129 447.633,-148 506.633,-148 506.633,-129 447.633,-129"/>
<text text-anchor="middle" x="477.133" y="-136" font-family="Helvetica,sans-Serif" font-size="10.00">settings.h</text>
</a>
</g>
</g>
<!-- Node12&#45;&gt;Node28 -->
<g id="edge45" class="edge"><title>Node12&#45;&gt;Node28</title>
<path fill="none" stroke="midnightblue" d="M560.186,-195.734C544.28,-184.964 517.084,-166.55 498.163,-153.739"/>
<polygon fill="midnightblue" stroke="midnightblue" points="500.118,-150.836 489.875,-148.127 496.193,-156.632 500.118,-150.836"/>
</g>
<!-- Node17&#45;&gt;Node2 -->
<g id="edge23" class="edge"><title>Node17&#45;&gt;Node2</title>
<path fill="none" stroke="midnightblue" d="M991.994,-135.318C961.373,-132.441 905.71,-127.246 858.133,-123 672.405,-106.426 620.537,-134.158 440.133,-87 437.975,-86.436 435.781,-85.7373 433.605,-84.954"/>
<polygon fill="midnightblue" stroke="midnightblue" points="434.928,-81.7136 424.349,-81.1325 432.257,-88.1839 434.928,-81.7136"/>
</g>
<!-- Node17&#45;&gt;Node5 -->
<g id="edge27" class="edge"><title>Node17&#45;&gt;Node5</title>
<path fill="none" stroke="midnightblue" d="M1038.16,-136.201C1114.73,-131.717 1367.7,-115.569 1575.13,-87 1588.81,-85.1168 1603.73,-82.486 1616.82,-79.9816"/>
<polygon fill="midnightblue" stroke="midnightblue" points="1617.73,-83.37 1626.88,-78.0169 1616.39,-76.5 1617.73,-83.37"/>
</g>
<!-- Node17&#45;&gt;Node6 -->
<g id="edge28" class="edge"><title>Node17&#45;&gt;Node6</title>
<path fill="none" stroke="midnightblue" d="M992.041,-135.604C932.882,-130.486 771.247,-114.867 639.133,-87 634.736,-86.0726 630.161,-84.9584 625.643,-83.7651"/>
<polygon fill="midnightblue" stroke="midnightblue" points="626.506,-80.3725 615.934,-81.068 624.633,-87.1171 626.506,-80.3725"/>
</g>
<!-- Node17&#45;&gt;Node7 -->
<g id="edge29" class="edge"><title>Node17&#45;&gt;Node7</title>
<path fill="none" stroke="midnightblue" d="M1001.69,-128.874C986.254,-118.923 960.215,-102.005 938.133,-87 907.27,-66.0284 871.999,-41.0051 850.398,-25.5578"/>
<polygon fill="midnightblue" stroke="midnightblue" points="852.198,-22.5418 842.03,-19.5635 848.121,-28.2324 852.198,-22.5418"/>
</g>
<!-- Node17&#45;&gt;Node8 -->
<g id="edge30" class="edge"><title>Node17&#45;&gt;Node8</title>
<path fill="none" stroke="midnightblue" d="M1038.18,-136.835C1134.72,-133.846 1503.43,-120.314 1542.13,-87 1558.37,-73.0262 1561.82,-47.4797 1562.07,-29.8896"/>
<polygon fill="midnightblue" stroke="midnightblue" points="1565.56,-29.6125 1561.88,-19.681 1558.57,-29.7459 1565.56,-29.6125"/>
</g>
<!-- Node17&#45;&gt;Node11 -->
<g id="edge32" class="edge"><title>Node17&#45;&gt;Node11</title>
<path fill="none" stroke="midnightblue" d="M991.96,-132.646C949.132,-123.669 854.694,-103.853 775.133,-87 769.308,-85.7661 763.203,-84.4693 757.142,-83.1798"/>
<polygon fill="midnightblue" stroke="midnightblue" points="757.551,-79.6884 747.041,-81.0287 756.093,-86.5349 757.551,-79.6884"/>
</g>
<!-- Node17&#45;&gt;Node14 -->
<g id="edge25" class="edge"><title>Node17&#45;&gt;Node14</title>
<path fill="none" stroke="midnightblue" d="M1003.81,-128.709C992.142,-119.269 973.913,-103.403 961.133,-87 946.844,-68.6603 934.529,-44.836 926.995,-28.7908"/>
<polygon fill="midnightblue" stroke="midnightblue" points="930.095,-27.1529 922.762,-19.5059 923.726,-30.0568 930.095,-27.1529"/>
</g>
<!-- Node18 -->
<g id="node18" class="node"><title>Node18</title>
<polygon fill="white" stroke="#bfbfbf" points="1077.63,-62 1077.63,-81 1122.63,-81 1122.63,-62 1077.63,-62"/>
<text text-anchor="middle" x="1100.13" y="-69" font-family="Helvetica,sans-Serif" font-size="10.00">cstdlib</text>
</g>
<!-- Node17&#45;&gt;Node18 -->
<g id="edge24" class="edge"><title>Node17&#45;&gt;Node18</title>
<path fill="none" stroke="midnightblue" d="M1026.6,-128.734C1040.49,-118.111 1064.11,-100.049 1080.83,-87.2642"/>
<polygon fill="midnightblue" stroke="midnightblue" points="1083.03,-89.9821 1088.85,-81.1273 1078.78,-84.4216 1083.03,-89.9821"/>
</g>
<!-- Node19 -->
<g id="node19" class="node"><title>Node19</title>
<polygon fill="white" stroke="#bfbfbf" points="1140.63,-62 1140.63,-81 1185.63,-81 1185.63,-62 1140.63,-62"/>
<text text-anchor="middle" x="1163.13" y="-69" font-family="Helvetica,sans-Serif" font-size="10.00">iosfwd</text>
</g>
<!-- Node17&#45;&gt;Node19 -->
<g id="edge26" class="edge"><title>Node17&#45;&gt;Node19</title>
<path fill="none" stroke="midnightblue" d="M1035.29,-128.832C1058.46,-118.844 1097.61,-101.891 1131.13,-87 1132.32,-86.4707 1133.54,-85.9288 1134.77,-85.3799"/>
<polygon fill="midnightblue" stroke="midnightblue" points="1136.52,-88.4295 1144.2,-81.1339 1133.65,-82.0461 1136.52,-88.4295"/>
</g>
<!-- Node20 -->
<g id="node20" class="node"><title>Node20</title>
<polygon fill="white" stroke="#bfbfbf" points="1204.13,-56.5 1204.13,-86.5 1304.13,-86.5 1304.13,-56.5 1204.13,-56.5"/>
<text text-anchor="start" x="1212.13" y="-74.5" font-family="Helvetica,sans-Serif" font-size="10.00">boost/container/flat</text>
<text text-anchor="middle" x="1254.13" y="-63.5" font-family="Helvetica,sans-Serif" font-size="10.00">_set.hpp</text>
</g>
<!-- Node17&#45;&gt;Node20 -->
<g id="edge31" class="edge"><title>Node17&#45;&gt;Node20</title>
<path fill="none" stroke="midnightblue" d="M1038.48,-131.149C1074.27,-121.416 1143.83,-102.497 1194.3,-88.7725"/>
<polygon fill="midnightblue" stroke="midnightblue" points="1195.39,-92.1028 1204.12,-86.1011 1193.55,-85.3482 1195.39,-92.1028"/>
</g>
<!-- Node21 -->
<g id="node21" class="node"><title>Node21</title>
<polygon fill="white" stroke="#bfbfbf" points="1322.63,-56.5 1322.63,-86.5 1425.63,-86.5 1425.63,-56.5 1322.63,-56.5"/>
<text text-anchor="start" x="1330.63" y="-74.5" font-family="Helvetica,sans-Serif" font-size="10.00">boost/range/adaptor</text>
<text text-anchor="middle" x="1374.13" y="-63.5" font-family="Helvetica,sans-Serif" font-size="10.00">/transformed.hpp</text>
</g>
<!-- Node17&#45;&gt;Node21 -->
<g id="edge33" class="edge"><title>Node17&#45;&gt;Node21</title>
<path fill="none" stroke="midnightblue" d="M1038.41,-134.086C1087.26,-126.811 1204.2,-108.801 1312.79,-86.9856"/>
<polygon fill="midnightblue" stroke="midnightblue" points="1313.49,-90.4147 1322.6,-85.0001 1312.11,-83.5539 1313.49,-90.4147"/>
</g>
<!-- Node22 -->
<g id="node22" class="node"><title>Node22</title>
<g id="a_node22"><a xlink:href="find__iterator_8h.xhtml" target="_top" xlink:title="Convenience iterator adaptor to wrap find calls and results. ">
<polygon fill="white" stroke="black" points="784.133,-62 784.133,-81 876.133,-81 876.133,-62 784.133,-62"/>
<text text-anchor="middle" x="830.133" y="-69" font-family="Helvetica,sans-Serif" font-size="10.00">ext/find_iterator.h</text>
</a>
</g>
</g>
<!-- Node17&#45;&gt;Node22 -->
<g id="edge34" class="edge"><title>Node17&#45;&gt;Node22</title>
<path fill="none" stroke="midnightblue" d="M992.077,-129.399C959.938,-118.107 901.442,-97.5545 864.248,-84.4865"/>
<polygon fill="midnightblue" stroke="midnightblue" points="864.957,-81.0258 854.362,-81.013 862.637,-87.63 864.957,-81.0258"/>
</g>
<!-- Node23 -->
<g id="node23" class="node"><title>Node23</title>
<g id="a_node23"><a xlink:href="index__map_8h.xhtml" target="_top" xlink:title="Non&#45;zero based Index&#45;&gt;Value map adapter on sequential containers. ">
<polygon fill="white" stroke="black" points="1443.63,-62 1443.63,-81 1532.63,-81 1532.63,-62 1443.63,-62"/>
<text text-anchor="middle" x="1488.13" y="-69" font-family="Helvetica,sans-Serif" font-size="10.00">ext/index_map.h</text>
</a>
</g>
</g>
<!-- Node17&#45;&gt;Node23 -->
<g id="edge36" class="edge"><title>Node17&#45;&gt;Node23</title>
<path fill="none" stroke="midnightblue" d="M1038.54,-135.902C1102.53,-131.273 1285.58,-116.283 1435.13,-87 1439.97,-86.0531 1445.01,-84.898 1449.98,-83.6572"/>
<polygon fill="midnightblue" stroke="midnightblue" points="1451.2,-86.9549 1459.98,-81.0292 1449.42,-80.1846 1451.2,-86.9549"/>
</g>
<!-- Node24 -->
<g id="node24" class="node"><title>Node24</title>
<g id="a_node24"><a xlink:href="linear__map_8h.xhtml" target="_top" xlink:title="Implementation of a vector&#45;based map for a small number of entries. ">
<polygon fill="white" stroke="black" points="970.633,-62 970.633,-81 1059.63,-81 1059.63,-62 970.633,-62"/>
<text text-anchor="middle" x="1015.13" y="-69" font-family="Helvetica,sans-Serif" font-size="10.00">ext/linear_map.h</text>
</a>
</g>
</g>
<!-- Node17&#45;&gt;Node24 -->
<g id="edge38" class="edge"><title>Node17&#45;&gt;Node24</title>
<path fill="none" stroke="midnightblue" d="M1015.13,-128.734C1015.13,-119.183 1015.13,-103.618 1015.13,-91.2829"/>
<polygon fill="midnightblue" stroke="midnightblue" points="1018.63,-91.1273 1015.13,-81.1273 1011.63,-91.1273 1018.63,-91.1273"/>
</g>
<!-- Node22&#45;&gt;Node7 -->
<g id="edge35" class="edge"><title>Node22&#45;&gt;Node7</title>
<path fill="none" stroke="midnightblue" d="M830.133,-61.9751C830.133,-53.5803 830.133,-40.4806 830.133,-29.6631"/>
<polygon fill="midnightblue" stroke="midnightblue" points="833.633,-29.5091 830.133,-19.5091 826.633,-29.5091 833.633,-29.5091"/>
</g>
<!-- Node23&#45;&gt;Node8 -->
<g id="edge37" class="edge"><title>Node23&#45;&gt;Node8</title>
<path fill="none" stroke="midnightblue" d="M1498.59,-61.9751C1510.08,-52.6082 1528.76,-37.3839 1542.72,-26.0081"/>
<polygon fill="midnightblue" stroke="midnightblue" points="1545.15,-28.54 1550.69,-19.5091 1540.73,-23.114 1545.15,-28.54"/>
</g>
<!-- Node24&#45;&gt;Node7 -->
<g id="edge44" class="edge"><title>Node24&#45;&gt;Node7</title>
<path fill="none" stroke="midnightblue" d="M988.627,-61.9751C954.617,-51.037 895.773,-32.1114 860.149,-20.6539"/>
<polygon fill="midnightblue" stroke="midnightblue" points="860.916,-17.224 850.325,-17.4941 858.773,-23.8879 860.916,-17.224"/>
</g>
<!-- Node24&#45;&gt;Node8 -->
<g id="edge43" class="edge"><title>Node24&#45;&gt;Node8</title>
<path fill="none" stroke="midnightblue" d="M1042.7,-61.9693C1050.83,-59.7252 1059.78,-57.512 1068.13,-56 1239.78,-24.9368 1449.12,-14.8436 1528.51,-11.9945"/>
<polygon fill="midnightblue" stroke="midnightblue" points="1528.96,-15.4812 1538.83,-11.6391 1528.72,-8.48534 1528.96,-15.4812"/>
</g>
<!-- Node24&#45;&gt;Node14 -->
<g id="edge40" class="edge"><title>Node24&#45;&gt;Node14</title>
<path fill="none" stroke="midnightblue" d="M1001.38,-61.9751C985.766,-52.2989 960.069,-36.3721 941.55,-24.8941"/>
<polygon fill="midnightblue" stroke="midnightblue" points="943.205,-21.8023 932.862,-19.5091 939.518,-27.7522 943.205,-21.8023"/>
</g>
<!-- Node25 -->
<g id="node25" class="node"><title>Node25</title>
<polygon fill="white" stroke="#bfbfbf" points="965.633,-0.5 965.633,-19.5 1014.63,-19.5 1014.63,-0.5 965.633,-0.5"/>
<text text-anchor="middle" x="990.133" y="-7.5" font-family="Helvetica,sans-Serif" font-size="10.00">cassert</text>
</g>
<!-- Node24&#45;&gt;Node25 -->
<g id="edge39" class="edge"><title>Node24&#45;&gt;Node25</title>
<path fill="none" stroke="midnightblue" d="M1011.55,-61.9751C1007.95,-53.4035 1002.29,-39.9269 997.689,-28.983"/>
<polygon fill="midnightblue" stroke="midnightblue" points="1000.81,-27.3726 993.708,-19.5091 994.355,-30.0842 1000.81,-27.3726"/>
</g>
<!-- Node26 -->
<g id="node26" class="node"><title>Node26</title>
<polygon fill="white" stroke="#bfbfbf" points="1032.63,-0.5 1032.63,-19.5 1105.63,-19.5 1105.63,-0.5 1032.63,-0.5"/>
<text text-anchor="middle" x="1069.13" y="-7.5" font-family="Helvetica,sans-Serif" font-size="10.00">initializer_list</text>
</g>
<!-- Node24&#45;&gt;Node26 -->
<g id="edge41" class="edge"><title>Node24&#45;&gt;Node26</title>
<path fill="none" stroke="midnightblue" d="M1022.87,-61.9751C1031.13,-52.8733 1044.41,-38.241 1054.63,-26.983"/>
<polygon fill="midnightblue" stroke="midnightblue" points="1057.28,-29.2663 1061.41,-19.5091 1052.1,-24.5619 1057.28,-29.2663"/>
</g>
<!-- Node27 -->
<g id="node27" class="node"><title>Node27</title>
<polygon fill="white" stroke="#bfbfbf" points="1123.63,-0.5 1123.63,-19.5 1182.63,-19.5 1182.63,-0.5 1123.63,-0.5"/>
<text text-anchor="middle" x="1153.13" y="-7.5" font-family="Helvetica,sans-Serif" font-size="10.00">stdexcept</text>
</g>
<!-- Node24&#45;&gt;Node27 -->
<g id="edge42" class="edge"><title>Node24&#45;&gt;Node27</title>
<path fill="none" stroke="midnightblue" d="M1034.9,-61.9751C1058.27,-51.9013 1097.35,-35.0525 1124.14,-23.5023"/>
<polygon fill="midnightblue" stroke="midnightblue" points="1125.6,-26.6824 1133.4,-19.5091 1122.83,-20.2544 1125.6,-26.6824"/>
</g>
<!-- Node28&#45;&gt;Node2 -->
<g id="edge46" class="edge"><title>Node28&#45;&gt;Node2</title>
<path fill="none" stroke="midnightblue" d="M467.827,-128.734C456.861,-118.403 438.426,-101.037 424.939,-88.3315"/>
<polygon fill="midnightblue" stroke="midnightblue" points="426.97,-85.4366 417.291,-81.1273 422.17,-90.5319 426.97,-85.4366"/>
</g>
<!-- Node29 -->
<g id="node29" class="node"><title>Node29</title>
<polygon fill="white" stroke="#bfbfbf" points="449.633,-62 449.633,-81 490.633,-81 490.633,-62 449.633,-62"/>
<text text-anchor="middle" x="470.133" y="-69" font-family="Helvetica,sans-Serif" font-size="10.00">string</text>
</g>
<!-- Node28&#45;&gt;Node29 -->
<g id="edge47" class="edge"><title>Node28&#45;&gt;Node29</title>
<path fill="none" stroke="midnightblue" d="M476.189,-128.734C475.16,-119.183 473.484,-103.618 472.156,-91.2829"/>
<polygon fill="midnightblue" stroke="midnightblue" points="475.613,-90.695 471.062,-81.1273 468.653,-91.4446 475.613,-90.695"/>
</g>
</g>
</svg>
